<?xml version="1.0" encoding="UTF-8" standalone="no"?>
<!DOCTYPE svg PUBLIC "-//W3C//DTD SVG 1.1//EN"
 "http://www.w3.org/Graphics/SVG/1.1/DTD/svg11.dtd">
<!-- Generated by graphviz version 2.26.3 (20100126.1600)
 -->
<!-- Title: src/analysis/utils/A2GeoAcceptance.h Pages: 1 -->
<svg width="958pt" height="188pt"
 viewBox="0.00 0.00 958.00 188.00" xmlns="http://www.w3.org/2000/svg" xmlns:xlink="http://www.w3.org/1999/xlink">
<g id="graph1" class="graph" transform="scale(1 1) rotate(0) translate(4 184)">
<title>src/analysis/utils/A2GeoAcceptance.h</title>
<polygon fill="white" stroke="white" points="-4,5 -4,-184 955,-184 955,5 -4,5"/>
<!-- Node1 -->
<g id="node1" class="node"><title>Node1</title>
<polygon fill="#bfbfbf" stroke="black" points="538,-145 538,-179 648,-179 648,-145 538,-145"/>
<text text-anchor="start" x="546" y="-166" font-family="Helvetica,sans-Serif" font-size="10.00">src/analysis/utils</text>
<text text-anchor="middle" x="593" y="-153" font-family="Helvetica,sans-Serif" font-size="10.00">/A2GeoAcceptance.h</text>
</g>
<!-- Node2 -->
<g id="node3" class="node"><title>Node2</title>
<a xlink:href="_pluto_reader_8h.html" target="_top" xlink:title="src/analysis/input\l/pluto/PlutoReader.h">
<polygon fill="white" stroke="black" points="161,-73 161,-107 267,-107 267,-73 161,-73"/>
<text text-anchor="start" x="169" y="-94" font-family="Helvetica,sans-Serif" font-size="10.00">src/analysis/input</text>
<text text-anchor="middle" x="214" y="-81" font-family="Helvetica,sans-Serif" font-size="10.00">/pluto/PlutoReader.h</text>
</a>
</g>
<!-- Node1&#45;&gt;Node2 -->
<g id="edge2" class="edge"><title>Node1&#45;&gt;Node2</title>
<path fill="none" stroke="midnightblue" d="M527.792,-149.612C454.039,-135.601 335.347,-113.053 267.036,-100.075"/>
<polygon fill="midnightblue" stroke="midnightblue" points="527.413,-153.103 537.89,-151.531 528.719,-146.226 527.413,-153.103"/>
</g>
<!-- Node6 -->
<g id="node11" class="node"><title>Node6</title>
<a xlink:href="_geo_acceptance_8h.html" target="_top" xlink:title="src/analysis/physics\l/omega/GeoAcceptance.h">
<polygon fill="white" stroke="black" points="370,-73 370,-107 500,-107 500,-73 370,-73"/>
<text text-anchor="start" x="378" y="-94" font-family="Helvetica,sans-Serif" font-size="10.00">src/analysis/physics</text>
<text text-anchor="middle" x="435" y="-81" font-family="Helvetica,sans-Serif" font-size="10.00">/omega/GeoAcceptance.h</text>
</a>
</g>
<!-- Node1&#45;&gt;Node6 -->
<g id="edge10" class="edge"><title>Node1&#45;&gt;Node6</title>
<path fill="none" stroke="midnightblue" d="M546.437,-140.781C522.854,-130.035 494.604,-117.161 472.448,-107.065"/>
<polygon fill="midnightblue" stroke="midnightblue" points="545.005,-143.975 555.556,-144.937 547.908,-137.605 545.005,-143.975"/>
</g>
<!-- Node8 -->
<g id="node15" class="node"><title>Node8</title>
<a xlink:href="mctrue__acceptance_8h.html" target="_top" xlink:title="src/analysis/physics\l/omega/mctrue_acceptance.h">
<polygon fill="white" stroke="black" points="520,-73 520,-107 666,-107 666,-73 520,-73"/>
<text text-anchor="start" x="528" y="-94" font-family="Helvetica,sans-Serif" font-size="10.00">src/analysis/physics</text>
<text text-anchor="middle" x="593" y="-81" font-family="Helvetica,sans-Serif" font-size="10.00">/omega/mctrue_acceptance.h</text>
</a>
</g>
<!-- Node1&#45;&gt;Node8 -->
<g id="edge14" class="edge"><title>Node1&#45;&gt;Node8</title>
<path fill="none" stroke="midnightblue" d="M593,-134.719C593,-125.572 593,-115.625 593,-107.441"/>
<polygon fill="midnightblue" stroke="midnightblue" points="589.5,-134.937 593,-144.937 596.5,-134.937 589.5,-134.937"/>
</g>
<!-- Node10 -->
<g id="node19" class="node"><title>Node10</title>
<a xlink:href="omega_8h.html" target="_top" xlink:title="src/analysis/physics\l/omega/omega.h">
<polygon fill="white" stroke="black" points="693,-73 693,-107 799,-107 799,-73 693,-73"/>
<text text-anchor="start" x="701" y="-94" font-family="Helvetica,sans-Serif" font-size="10.00">src/analysis/physics</text>
<text text-anchor="middle" x="746" y="-81" font-family="Helvetica,sans-Serif" font-size="10.00">/omega/omega.h</text>
</a>
</g>
<!-- Node1&#45;&gt;Node10 -->
<g id="edge18" class="edge"><title>Node1&#45;&gt;Node10</title>
<path fill="none" stroke="midnightblue" d="M638.393,-140.638C661.169,-129.921 688.377,-117.117 709.737,-107.065"/>
<polygon fill="midnightblue" stroke="midnightblue" points="636.817,-137.512 629.259,-144.937 639.797,-143.846 636.817,-137.512"/>
</g>
<!-- Node13 -->
<g id="node25" class="node"><title>Node13</title>
<a xlink:href="_a2_geo_acceptance_8cc.html" target="_top" xlink:title="src/analysis/utils\l/A2GeoAcceptance.cc">
<polygon fill="white" stroke="black" points="816.5,-73 816.5,-107 931.5,-107 931.5,-73 816.5,-73"/>
<text text-anchor="start" x="824.5" y="-94" font-family="Helvetica,sans-Serif" font-size="10.00">src/analysis/utils</text>
<text text-anchor="middle" x="874" y="-81" font-family="Helvetica,sans-Serif" font-size="10.00">/A2GeoAcceptance.cc</text>
</a>
</g>
<!-- Node1&#45;&gt;Node13 -->
<g id="edge24" class="edge"><title>Node1&#45;&gt;Node13</title>
<path fill="none" stroke="midnightblue" d="M658.289,-145.965C700.951,-135.398 757.851,-121.135 808,-108 810.757,-107.278 813.578,-106.533 816.425,-105.776"/>
<polygon fill="midnightblue" stroke="midnightblue" points="657.181,-142.634 648.314,-148.433 658.862,-149.429 657.181,-142.634"/>
</g>
<!-- Node3 -->
<g id="node5" class="node"><title>Node3</title>
<a xlink:href="_ant_8cc.html" target="_top" xlink:title="Main Ant executable. ">
<polygon fill="white" stroke="black" points="0,-7.5 0,-28.5 72,-28.5 72,-7.5 0,-7.5"/>
<text text-anchor="middle" x="36" y="-15.5" font-family="Helvetica,sans-Serif" font-size="10.00">progs/Ant.cc</text>
</a>
</g>
<!-- Node2&#45;&gt;Node3 -->
<g id="edge4" class="edge"><title>Node2&#45;&gt;Node3</title>
<path fill="none" stroke="midnightblue" d="M162.358,-69.111C129.524,-55.83 88.4031,-39.1968 62.1614,-28.5821"/>
<polygon fill="midnightblue" stroke="midnightblue" points="161.234,-72.4318 171.816,-72.937 163.859,-65.9425 161.234,-72.4318"/>
</g>
<!-- Node4 -->
<g id="node7" class="node"><title>Node4</title>
<a xlink:href="_pluto_reader_8cc.html" target="_top" xlink:title="src/analysis/input\l/pluto/PlutoReader.cc">
<polygon fill="white" stroke="black" points="89.5,-1 89.5,-35 200.5,-35 200.5,-1 89.5,-1"/>
<text text-anchor="start" x="97.5" y="-22" font-family="Helvetica,sans-Serif" font-size="10.00">src/analysis/input</text>
<text text-anchor="middle" x="145" y="-9" font-family="Helvetica,sans-Serif" font-size="10.00">/pluto/PlutoReader.cc</text>
</a>
</g>
<!-- Node2&#45;&gt;Node4 -->
<g id="edge6" class="edge"><title>Node2&#45;&gt;Node4</title>
<path fill="none" stroke="midnightblue" d="M190.684,-65.6706C181.182,-55.7551 170.41,-44.5151 161.714,-35.4407"/>
<polygon fill="midnightblue" stroke="midnightblue" points="188.202,-68.1388 197.648,-72.937 193.256,-63.2954 188.202,-68.1388"/>
</g>
<!-- Node5 -->
<g id="node9" class="node"><title>Node5</title>
<a xlink:href="_test_physics_manager_8cc.html" target="_top" xlink:title="test/analysis/TestPhysics\lManager.cc">
<polygon fill="white" stroke="black" points="218,-1 218,-35 348,-35 348,-1 218,-1"/>
<text text-anchor="start" x="226" y="-22" font-family="Helvetica,sans-Serif" font-size="10.00">test/analysis/TestPhysics</text>
<text text-anchor="middle" x="283" y="-9" font-family="Helvetica,sans-Serif" font-size="10.00">Manager.cc</text>
</a>
</g>
<!-- Node2&#45;&gt;Node5 -->
<g id="edge8" class="edge"><title>Node2&#45;&gt;Node5</title>
<path fill="none" stroke="midnightblue" d="M237.316,-65.6706C246.818,-55.7551 257.59,-44.5151 266.286,-35.4407"/>
<polygon fill="midnightblue" stroke="midnightblue" points="234.744,-63.2954 230.352,-72.937 239.798,-68.1388 234.744,-63.2954"/>
</g>
<!-- Node7 -->
<g id="node13" class="node"><title>Node7</title>
<a xlink:href="_geo_acceptance_8cc.html" target="_top" xlink:title="src/analysis/physics\l/omega/GeoAcceptance.cc">
<polygon fill="white" stroke="black" points="365.5,-1 365.5,-35 500.5,-35 500.5,-1 365.5,-1"/>
<text text-anchor="start" x="373.5" y="-22" font-family="Helvetica,sans-Serif" font-size="10.00">src/analysis/physics</text>
<text text-anchor="middle" x="433" y="-9" font-family="Helvetica,sans-Serif" font-size="10.00">/omega/GeoAcceptance.cc</text>
</a>
</g>
<!-- Node6&#45;&gt;Node7 -->
<g id="edge12" class="edge"><title>Node6&#45;&gt;Node7</title>
<path fill="none" stroke="midnightblue" d="M434.242,-62.7193C433.988,-53.572 433.712,-43.6255 433.484,-35.4407"/>
<polygon fill="midnightblue" stroke="midnightblue" points="430.75,-63.0381 434.526,-72.937 437.747,-62.8436 430.75,-63.0381"/>
</g>
<!-- Node9 -->
<g id="node17" class="node"><title>Node9</title>
<a xlink:href="mctrue__acceptance_8cc.html" target="_top" xlink:title="src/analysis/physics\l/omega/mctrue_acceptance.cc">
<polygon fill="white" stroke="black" points="517.5,-1 517.5,-35 668.5,-35 668.5,-1 517.5,-1"/>
<text text-anchor="start" x="525.5" y="-22" font-family="Helvetica,sans-Serif" font-size="10.00">src/analysis/physics</text>
<text text-anchor="middle" x="593" y="-9" font-family="Helvetica,sans-Serif" font-size="10.00">/omega/mctrue_acceptance.cc</text>
</a>
</g>
<!-- Node8&#45;&gt;Node9 -->
<g id="edge16" class="edge"><title>Node8&#45;&gt;Node9</title>
<path fill="none" stroke="midnightblue" d="M593,-62.7193C593,-53.572 593,-43.6255 593,-35.4407"/>
<polygon fill="midnightblue" stroke="midnightblue" points="589.5,-62.937 593,-72.937 596.5,-62.937 589.5,-62.937"/>
</g>
<!-- Node11 -->
<g id="node21" class="node"><title>Node11</title>
<a xlink:href="omega__histograms_8cc.html" target="_top" xlink:title="progs/omega_histograms.cc">
<polygon fill="white" stroke="black" points="686,-7.5 686,-28.5 826,-28.5 826,-7.5 686,-7.5"/>
<text text-anchor="middle" x="756" y="-15.5" font-family="Helvetica,sans-Serif" font-size="10.00">progs/omega_histograms.cc</text>
</a>
</g>
<!-- Node10&#45;&gt;Node11 -->
<g id="edge20" class="edge"><title>Node10&#45;&gt;Node11</title>
<path fill="none" stroke="midnightblue" d="M749.746,-63.0261C751.392,-51.1798 753.231,-37.9396 754.486,-28.901"/>
<polygon fill="midnightblue" stroke="midnightblue" points="746.279,-62.5506 748.37,-72.937 753.212,-63.5136 746.279,-62.5506"/>
</g>
<!-- Node12 -->
<g id="node23" class="node"><title>Node12</title>
<a xlink:href="omega_8cc.html" target="_top" xlink:title="src/analysis/physics\l/omega/omega.cc">
<polygon fill="white" stroke="black" points="844,-1 844,-35 950,-35 950,-1 844,-1"/>
<text text-anchor="start" x="852" y="-22" font-family="Helvetica,sans-Serif" font-size="10.00">src/analysis/physics</text>
<text text-anchor="middle" x="897" y="-9" font-family="Helvetica,sans-Serif" font-size="10.00">/omega/omega.cc</text>
</a>
</g>
<!-- Node10&#45;&gt;Node12 -->
<g id="edge22" class="edge"><title>Node10&#45;&gt;Node12</title>
<path fill="none" stroke="midnightblue" d="M791.1,-68.4954C813.516,-57.8069 840.224,-45.0718 861.211,-35.0651"/>
<polygon fill="midnightblue" stroke="midnightblue" points="789.305,-65.4737 781.785,-72.937 792.318,-71.7922 789.305,-65.4737"/>
</g>
</g>
</svg>
