<?xml version="1.0" encoding="UTF-8" standalone="no"?>
<!DOCTYPE svg PUBLIC "-//W3C//DTD SVG 1.1//EN"
 "http://www.w3.org/Graphics/SVG/1.1/DTD/svg11.dtd">
<!-- Generated by graphviz version 2.26.3 (20100126.1600)
 -->
<!-- Title: src/simulation/mc/A2Channels.h Pages: 1 -->
<svg width="544pt" height="160pt"
 viewBox="0.00 0.00 544.00 160.00" xmlns="http://www.w3.org/2000/svg" xmlns:xlink="http://www.w3.org/1999/xlink">
<g id="graph1" class="graph" transform="scale(1 1) rotate(0) translate(4 156)">
<title>src/simulation/mc/A2Channels.h</title>
<polygon fill="white" stroke="white" points="-4,5 -4,-156 541,-156 541,5 -4,5"/>
<!-- Node1 -->
<g id="node1" class="node"><title>Node1</title>
<polygon fill="#bfbfbf" stroke="black" points="127,-130.5 127,-151.5 285,-151.5 285,-130.5 127,-130.5"/>
<text text-anchor="middle" x="206" y="-138.5" font-family="Helvetica,sans-Serif" font-size="10.00">src/simulation/mc/A2Channels.h</text>
</g>
<!-- Node2 -->
<g id="node3" class="node"><title>Node2</title>
<a xlink:href="show__cocktail__database_8cc.html" target="_top" xlink:title="progs/show_cocktail\l_database.cc">
<polygon fill="white" stroke="black" points="0,-59 0,-93 106,-93 106,-59 0,-59"/>
<text text-anchor="start" x="8" y="-80" font-family="Helvetica,sans-Serif" font-size="10.00">progs/show_cocktail</text>
<text text-anchor="middle" x="53" y="-67" font-family="Helvetica,sans-Serif" font-size="10.00">_database.cc</text>
</a>
</g>
<!-- Node1&#45;&gt;Node2 -->
<g id="edge2" class="edge"><title>Node1&#45;&gt;Node2</title>
<path fill="none" stroke="midnightblue" d="M171.611,-126.39C148.351,-116.508 117.545,-103.421 93.1576,-93.0604"/>
<polygon fill="midnightblue" stroke="midnightblue" points="170.505,-129.723 181.077,-130.412 173.242,-123.28 170.505,-129.723"/>
</g>
<!-- Node3 -->
<g id="node5" class="node"><title>Node3</title>
<a xlink:href="_a2_channels_8cc.html" target="_top" xlink:title="src/simulation/mc/A2Channels.cc">
<polygon fill="white" stroke="black" points="124,-65.5 124,-86.5 288,-86.5 288,-65.5 124,-65.5"/>
<text text-anchor="middle" x="206" y="-73.5" font-family="Helvetica,sans-Serif" font-size="10.00">src/simulation/mc/A2Channels.cc</text>
</a>
</g>
<!-- Node1&#45;&gt;Node3 -->
<g id="edge4" class="edge"><title>Node1&#45;&gt;Node3</title>
<path fill="none" stroke="midnightblue" d="M206,-120.014C206,-108.831 206,-95.5583 206,-86.5337"/>
<polygon fill="midnightblue" stroke="midnightblue" points="202.5,-120.267 206,-130.267 209.5,-120.267 202.5,-120.267"/>
</g>
<!-- Node4 -->
<g id="node7" class="node"><title>Node4</title>
<a xlink:href="_a2_cocktail_8h.html" target="_top" xlink:title="src/simulation/mc/A2Cocktail.h">
<polygon fill="white" stroke="black" points="305.5,-65.5 305.5,-86.5 458.5,-86.5 458.5,-65.5 305.5,-65.5"/>
<text text-anchor="middle" x="382" y="-73.5" font-family="Helvetica,sans-Serif" font-size="10.00">src/simulation/mc/A2Cocktail.h</text>
</a>
</g>
<!-- Node1&#45;&gt;Node4 -->
<g id="edge6" class="edge"><title>Node1&#45;&gt;Node4</title>
<path fill="none" stroke="midnightblue" d="M244.381,-126.825C277.196,-114.706 323.688,-97.5358 353.343,-86.5835"/>
<polygon fill="midnightblue" stroke="midnightblue" points="242.837,-123.664 234.669,-130.412 245.262,-130.231 242.837,-123.664"/>
</g>
<!-- Node5 -->
<g id="node9" class="node"><title>Node5</title>
<a xlink:href="_ant-cocktail_8cc.html" target="_top" xlink:title="progs/Ant&#45;cocktail.cc">
<polygon fill="white" stroke="black" points="251.5,-0.5 251.5,-21.5 360.5,-21.5 360.5,-0.5 251.5,-0.5"/>
<text text-anchor="middle" x="306" y="-8.5" font-family="Helvetica,sans-Serif" font-size="10.00">progs/Ant&#45;cocktail.cc</text>
</a>
</g>
<!-- Node4&#45;&gt;Node5 -->
<g id="edge8" class="edge"><title>Node4&#45;&gt;Node5</title>
<path fill="none" stroke="midnightblue" d="M361.85,-58.7667C348.008,-46.9281 330.077,-31.5923 318.316,-21.5337"/>
<polygon fill="midnightblue" stroke="midnightblue" points="359.576,-61.4267 369.45,-65.2666 364.125,-56.107 359.576,-61.4267"/>
</g>
<!-- Node6 -->
<g id="node11" class="node"><title>Node6</title>
<a xlink:href="_a2_cocktail_8cc.html" target="_top" xlink:title="src/simulation/mc/A2Cocktail.cc">
<polygon fill="white" stroke="black" points="378,-0.5 378,-21.5 536,-21.5 536,-0.5 378,-0.5"/>
<text text-anchor="middle" x="457" y="-8.5" font-family="Helvetica,sans-Serif" font-size="10.00">src/simulation/mc/A2Cocktail.cc</text>
</a>
</g>
<!-- Node4&#45;&gt;Node6 -->
<g id="edge10" class="edge"><title>Node4&#45;&gt;Node6</title>
<path fill="none" stroke="midnightblue" d="M402.269,-58.4338C415.875,-46.6419 433.348,-31.4983 444.846,-21.5337"/>
<polygon fill="midnightblue" stroke="midnightblue" points="399.649,-56.0723 394.385,-65.2666 404.234,-61.3622 399.649,-56.0723"/>
</g>
</g>
</svg>
