<?xml version="1.0" encoding="UTF-8" standalone="no"?>
<!DOCTYPE svg PUBLIC "-//W3C//DTD SVG 1.1//EN"
 "http://www.w3.org/Graphics/SVG/1.1/DTD/svg11.dtd">
<!-- Generated by graphviz version 2.26.3 (20100126.1600)
 -->
<!-- Title: src/simulation/mc/A2Cocktail.cc Pages: 1 -->
<svg width="1043pt" height="204pt"
 viewBox="0.00 0.00 1043.00 204.00" xmlns="http://www.w3.org/2000/svg" xmlns:xlink="http://www.w3.org/1999/xlink">
<g id="graph1" class="graph" transform="scale(1 1) rotate(0) translate(4 200)">
<title>src/simulation/mc/A2Cocktail.cc</title>
<polygon fill="white" stroke="white" points="-4,5 -4,-200 1040,-200 1040,5 -4,5"/>
<!-- Node1 -->
<g id="node1" class="node"><title>Node1</title>
<polygon fill="#bfbfbf" stroke="black" points="577,-174.5 577,-195.5 735,-195.5 735,-174.5 577,-174.5"/>
<text text-anchor="middle" x="656" y="-182.5" font-family="Helvetica,sans-Serif" font-size="10.00">src/simulation/mc/A2Cocktail.cc</text>
</g>
<!-- Node2 -->
<g id="node3" class="node"><title>Node2</title>
<a xlink:href="_a2_cocktail_8h.html" target="_top" xlink:title="A2Cocktail.h">
<polygon fill="white" stroke="black" points="208.5,-116.5 208.5,-137.5 281.5,-137.5 281.5,-116.5 208.5,-116.5"/>
<text text-anchor="middle" x="245" y="-124.5" font-family="Helvetica,sans-Serif" font-size="10.00">A2Cocktail.h</text>
</a>
</g>
<!-- Node1&#45;&gt;Node2 -->
<g id="edge2" class="edge"><title>Node1&#45;&gt;Node2</title>
<path fill="none" stroke="midnightblue" d="M581.571,-174.497C497.236,-162.595 362.356,-143.561 291.671,-133.586"/>
<polygon fill="midnightblue" stroke="midnightblue" points="292.112,-130.114 281.721,-132.182 291.134,-137.045 292.112,-130.114"/>
</g>
<!-- Node14 -->
<g id="node29" class="node"><title>Node14</title>
<polygon fill="white" stroke="#bfbfbf" points="454,-58.5 454,-79.5 508,-79.5 508,-58.5 454,-58.5"/>
<text text-anchor="middle" x="481" y="-66.5" font-family="Helvetica,sans-Serif" font-size="10.00">iostream</text>
</g>
<!-- Node1&#45;&gt;Node14 -->
<g id="edge30" class="edge"><title>Node1&#45;&gt;Node14</title>
<path fill="none" stroke="midnightblue" d="M576.903,-175.788C529.819,-168.495 476.49,-156.419 462,-138 450.803,-123.767 458.515,-103.375 467.233,-88.4501"/>
<polygon fill="midnightblue" stroke="midnightblue" points="470.215,-90.2836 472.632,-79.9681 464.31,-86.5248 470.215,-90.2836"/>
</g>
<!-- Node15 -->
<g id="node31" class="node"><title>Node15</title>
<a xlink:href="_pluto_extensions_8h.html" target="_top" xlink:title="PlutoExtensions.h">
<polygon fill="white" stroke="black" points="471,-116.5 471,-137.5 567,-137.5 567,-116.5 471,-116.5"/>
<text text-anchor="middle" x="519" y="-124.5" font-family="Helvetica,sans-Serif" font-size="10.00">PlutoExtensions.h</text>
</a>
</g>
<!-- Node1&#45;&gt;Node15 -->
<g id="edge32" class="edge"><title>Node1&#45;&gt;Node15</title>
<path fill="none" stroke="midnightblue" d="M631.19,-174.497C609.504,-165.315 577.789,-151.889 553.608,-141.652"/>
<polygon fill="midnightblue" stroke="midnightblue" points="554.661,-138.297 544.088,-137.621 551.932,-144.743 554.661,-138.297"/>
</g>
<!-- Node17 -->
<g id="node36" class="node"><title>Node17</title>
<polygon fill="white" stroke="#bfbfbf" points="584.5,-116.5 584.5,-137.5 635.5,-137.5 635.5,-116.5 584.5,-116.5"/>
<text text-anchor="middle" x="610" y="-124.5" font-family="Helvetica,sans-Serif" font-size="10.00">TH1D.h</text>
</g>
<!-- Node1&#45;&gt;Node17 -->
<g id="edge38" class="edge"><title>Node1&#45;&gt;Node17</title>
<path fill="none" stroke="midnightblue" d="M647.563,-174.362C641.208,-166.35 632.334,-155.161 624.807,-145.67"/>
<polygon fill="midnightblue" stroke="midnightblue" points="627.34,-143.231 618.384,-137.571 621.855,-147.581 627.34,-143.231"/>
</g>
<!-- Node18 -->
<g id="node38" class="node"><title>Node18</title>
<polygon fill="white" stroke="#bfbfbf" points="653,-116.5 653,-137.5 751,-137.5 751,-116.5 653,-116.5"/>
<text text-anchor="middle" x="702" y="-124.5" font-family="Helvetica,sans-Serif" font-size="10.00">PDecayManager.h</text>
</g>
<!-- Node1&#45;&gt;Node18 -->
<g id="edge40" class="edge"><title>Node1&#45;&gt;Node18</title>
<path fill="none" stroke="midnightblue" d="M664.437,-174.362C670.792,-166.35 679.666,-155.161 687.193,-145.67"/>
<polygon fill="midnightblue" stroke="midnightblue" points="690.145,-147.581 693.616,-137.571 684.66,-143.231 690.145,-147.581"/>
</g>
<!-- Node19 -->
<g id="node40" class="node"><title>Node19</title>
<polygon fill="white" stroke="#bfbfbf" points="769,-116.5 769,-137.5 865,-137.5 865,-116.5 769,-116.5"/>
<text text-anchor="middle" x="817" y="-124.5" font-family="Helvetica,sans-Serif" font-size="10.00">PDecayChannel.h</text>
</g>
<!-- Node1&#45;&gt;Node19 -->
<g id="edge42" class="edge"><title>Node1&#45;&gt;Node19</title>
<path fill="none" stroke="midnightblue" d="M685.156,-174.497C711.176,-165.123 749.479,-151.324 778.104,-141.012"/>
<polygon fill="midnightblue" stroke="midnightblue" points="779.568,-144.205 787.789,-137.523 777.195,-137.62 779.568,-144.205"/>
</g>
<!-- Node20 -->
<g id="node42" class="node"><title>Node20</title>
<polygon fill="white" stroke="#bfbfbf" points="882.5,-116.5 882.5,-137.5 953.5,-137.5 953.5,-116.5 882.5,-116.5"/>
<text text-anchor="middle" x="918" y="-124.5" font-family="Helvetica,sans-Serif" font-size="10.00">PReaction.h</text>
</g>
<!-- Node1&#45;&gt;Node20 -->
<g id="edge44" class="edge"><title>Node1&#45;&gt;Node20</title>
<path fill="none" stroke="midnightblue" d="M707.2,-174.454C749.198,-165.692 810.451,-152.659 872.517,-138.3"/>
<polygon fill="midnightblue" stroke="midnightblue" points="873.534,-141.657 882.483,-135.985 871.95,-134.839 873.534,-141.657"/>
</g>
<!-- Node21 -->
<g id="node44" class="node"><title>Node21</title>
<polygon fill="white" stroke="#bfbfbf" points="970.5,-116.5 970.5,-137.5 1035.5,-137.5 1035.5,-116.5 970.5,-116.5"/>
<text text-anchor="middle" x="1003" y="-124.5" font-family="Helvetica,sans-Serif" font-size="10.00">PParticle.h</text>
</g>
<!-- Node1&#45;&gt;Node21 -->
<g id="edge46" class="edge"><title>Node1&#45;&gt;Node21</title>
<path fill="none" stroke="midnightblue" d="M735.043,-175.284C794.662,-167.396 878.606,-155.1 960.437,-138.178"/>
<polygon fill="midnightblue" stroke="midnightblue" points="961.333,-141.566 970.404,-136.091 959.899,-134.715 961.333,-141.566"/>
</g>
<!-- Node3 -->
<g id="node5" class="node"><title>Node3</title>
<polygon fill="white" stroke="#bfbfbf" points="62.5,-0.5 62.5,-21.5 103.5,-21.5 103.5,-0.5 62.5,-0.5"/>
<text text-anchor="middle" x="83" y="-8.5" font-family="Helvetica,sans-Serif" font-size="10.00">string</text>
</g>
<!-- Node2&#45;&gt;Node3 -->
<g id="edge4" class="edge"><title>Node2&#45;&gt;Node3</title>
<path fill="none" stroke="midnightblue" d="M214.039,-116.424C193.067,-108.375 165.388,-95.9646 144,-80 124.934,-65.769 107.424,-44.7704 96.1018,-29.6791"/>
<polygon fill="midnightblue" stroke="midnightblue" points="98.9079,-27.5868 90.1858,-21.5721 93.2533,-31.7131 98.9079,-27.5868"/>
</g>
<!-- Node4 -->
<g id="node7" class="node"><title>Node4</title>
<polygon fill="white" stroke="#bfbfbf" points="121,-0.5 121,-21.5 165,-21.5 165,-0.5 121,-0.5"/>
<text text-anchor="middle" x="143" y="-8.5" font-family="Helvetica,sans-Serif" font-size="10.00">vector</text>
</g>
<!-- Node2&#45;&gt;Node4 -->
<g id="edge6" class="edge"><title>Node2&#45;&gt;Node4</title>
<path fill="none" stroke="midnightblue" d="M210.054,-116.489C191.558,-109.161 170.037,-97.5018 157,-80 146.759,-66.2518 143.537,-46.8578 142.717,-32.1305"/>
<polygon fill="midnightblue" stroke="midnightblue" points="146.212,-31.8654 142.482,-21.9489 139.214,-32.0272 146.212,-31.8654"/>
</g>
<!-- Node5 -->
<g id="node9" class="node"><title>Node5</title>
<a xlink:href="_a2_channels_8h.html" target="_top" xlink:title="A2Channels.h">
<polygon fill="white" stroke="black" points="166,-58.5 166,-79.5 244,-79.5 244,-58.5 166,-58.5"/>
<text text-anchor="middle" x="205" y="-66.5" font-family="Helvetica,sans-Serif" font-size="10.00">A2Channels.h</text>
</a>
</g>
<!-- Node2&#45;&gt;Node5 -->
<g id="edge8" class="edge"><title>Node2&#45;&gt;Node5</title>
<path fill="none" stroke="midnightblue" d="M237.663,-116.362C232.194,-108.431 224.578,-97.3885 218.076,-87.9606"/>
<polygon fill="midnightblue" stroke="midnightblue" points="220.849,-85.8157 212.29,-79.5707 215.086,-89.7899 220.849,-85.8157"/>
</g>
<!-- Node10 -->
<g id="node21" class="node"><title>Node10</title>
<polygon fill="white" stroke="#bfbfbf" points="261.5,-58.5 261.5,-79.5 308.5,-79.5 308.5,-58.5 261.5,-58.5"/>
<text text-anchor="middle" x="285" y="-66.5" font-family="Helvetica,sans-Serif" font-size="10.00">TFile.h</text>
</g>
<!-- Node2&#45;&gt;Node10 -->
<g id="edge22" class="edge"><title>Node2&#45;&gt;Node10</title>
<path fill="none" stroke="midnightblue" d="M252.337,-116.362C257.806,-108.431 265.422,-97.3885 271.924,-87.9606"/>
<polygon fill="midnightblue" stroke="midnightblue" points="274.914,-89.7899 277.71,-79.5707 269.151,-85.8157 274.914,-89.7899"/>
</g>
<!-- Node11 -->
<g id="node23" class="node"><title>Node11</title>
<polygon fill="white" stroke="#bfbfbf" points="326,-58.5 326,-79.5 368,-79.5 368,-58.5 326,-58.5"/>
<text text-anchor="middle" x="347" y="-66.5" font-family="Helvetica,sans-Serif" font-size="10.00">TF1.h</text>
</g>
<!-- Node2&#45;&gt;Node11 -->
<g id="edge24" class="edge"><title>Node2&#45;&gt;Node11</title>
<path fill="none" stroke="midnightblue" d="M263.708,-116.362C279.381,-107.45 301.964,-94.6087 319.663,-84.5447"/>
<polygon fill="midnightblue" stroke="midnightblue" points="321.447,-87.5562 328.41,-79.5707 317.987,-81.4712 321.447,-87.5562"/>
</g>
<!-- Node12 -->
<g id="node25" class="node"><title>Node12</title>
<polygon fill="white" stroke="#bfbfbf" points="386,-58.5 386,-79.5 436,-79.5 436,-58.5 386,-58.5"/>
<text text-anchor="middle" x="411" y="-66.5" font-family="Helvetica,sans-Serif" font-size="10.00">TTree.h</text>
</g>
<!-- Node2&#45;&gt;Node12 -->
<g id="edge26" class="edge"><title>Node2&#45;&gt;Node12</title>
<path fill="none" stroke="midnightblue" d="M275.061,-116.497C303.518,-106.554 346.222,-91.6332 376.154,-81.1751"/>
<polygon fill="midnightblue" stroke="midnightblue" points="377.49,-84.4158 385.776,-77.8131 375.181,-77.8075 377.49,-84.4158"/>
</g>
<!-- Node13 -->
<g id="node27" class="node"><title>Node13</title>
<polygon fill="white" stroke="#bfbfbf" points="-0.5,-58.5 -0.5,-79.5 72.5,-79.5 72.5,-58.5 -0.5,-58.5"/>
<text text-anchor="middle" x="36" y="-66.5" font-family="Helvetica,sans-Serif" font-size="10.00">TRandom3.h</text>
</g>
<!-- Node2&#45;&gt;Node13 -->
<g id="edge28" class="edge"><title>Node2&#45;&gt;Node13</title>
<path fill="none" stroke="midnightblue" d="M208.116,-116.764C173.047,-107.032 120.173,-92.3591 82.289,-81.8457"/>
<polygon fill="midnightblue" stroke="midnightblue" points="83.087,-78.435 72.5152,-79.1334 81.2151,-85.1801 83.087,-78.435"/>
</g>
<!-- Node5&#45;&gt;Node3 -->
<g id="edge16" class="edge"><title>Node5&#45;&gt;Node3</title>
<path fill="none" stroke="midnightblue" d="M182.907,-58.4966C163.288,-49.1695 134.453,-35.4612 112.798,-25.166"/>
<polygon fill="midnightblue" stroke="midnightblue" points="114.243,-21.9777 103.709,-20.8451 111.237,-28.2997 114.243,-21.9777"/>
</g>
<!-- Node5&#45;&gt;Node4 -->
<g id="edge14" class="edge"><title>Node5&#45;&gt;Node4</title>
<path fill="none" stroke="midnightblue" d="M193.628,-58.3619C184.714,-50.0226 172.121,-38.2418 161.724,-28.5162"/>
<polygon fill="midnightblue" stroke="midnightblue" points="163.993,-25.8463 154.3,-21.5707 159.211,-30.9582 163.993,-25.8463"/>
</g>
<!-- Node6 -->
<g id="node11" class="node"><title>Node6</title>
<polygon fill="white" stroke="#bfbfbf" points="182.5,-0.5 182.5,-21.5 217.5,-21.5 217.5,-0.5 182.5,-0.5"/>
<text text-anchor="middle" x="200" y="-8.5" font-family="Helvetica,sans-Serif" font-size="10.00">map</text>
</g>
<!-- Node5&#45;&gt;Node6 -->
<g id="edge10" class="edge"><title>Node5&#45;&gt;Node6</title>
<path fill="none" stroke="midnightblue" d="M204.083,-58.3619C203.442,-50.9219 202.564,-40.7427 201.787,-31.7276"/>
<polygon fill="midnightblue" stroke="midnightblue" points="205.257,-31.2331 200.911,-21.5707 198.283,-31.8343 205.257,-31.2331"/>
</g>
<!-- Node7 -->
<g id="node13" class="node"><title>Node7</title>
<polygon fill="white" stroke="#bfbfbf" points="234.5,-0.5 234.5,-21.5 263.5,-21.5 263.5,-0.5 234.5,-0.5"/>
<text text-anchor="middle" x="249" y="-8.5" font-family="Helvetica,sans-Serif" font-size="10.00">list</text>
</g>
<!-- Node5&#45;&gt;Node7 -->
<g id="edge12" class="edge"><title>Node5&#45;&gt;Node7</title>
<path fill="none" stroke="midnightblue" d="M213.07,-58.3619C219.149,-50.3496 227.637,-39.1605 234.837,-29.6696"/>
<polygon fill="midnightblue" stroke="midnightblue" points="237.725,-31.653 240.981,-21.5707 232.149,-27.4222 237.725,-31.653"/>
</g>
<!-- Node8 -->
<g id="node17" class="node"><title>Node8</title>
<polygon fill="white" stroke="#bfbfbf" points="281,-0.5 281,-21.5 379,-21.5 379,-0.5 281,-0.5"/>
<text text-anchor="middle" x="330" y="-8.5" font-family="Helvetica,sans-Serif" font-size="10.00">Math/Interpolator.h</text>
</g>
<!-- Node5&#45;&gt;Node8 -->
<g id="edge18" class="edge"><title>Node5&#45;&gt;Node8</title>
<path fill="none" stroke="midnightblue" d="M227.637,-58.4966C247.248,-49.397 275.846,-36.1273 297.833,-25.9253"/>
<polygon fill="midnightblue" stroke="midnightblue" points="299.512,-29.0051 307.109,-21.6212 296.565,-22.6554 299.512,-29.0051"/>
</g>
<!-- Node9 -->
<g id="node19" class="node"><title>Node9</title>
<polygon fill="white" stroke="#bfbfbf" points="397,-0.5 397,-21.5 441,-21.5 441,-0.5 397,-0.5"/>
<text text-anchor="middle" x="419" y="-8.5" font-family="Helvetica,sans-Serif" font-size="10.00">TH1.h</text>
</g>
<!-- Node5&#45;&gt;Node9 -->
<g id="edge20" class="edge"><title>Node5&#45;&gt;Node9</title>
<path fill="none" stroke="midnightblue" d="M244.194,-60.0094C279.332,-51.7105 332.456,-38.5779 386.909,-22.1634"/>
<polygon fill="midnightblue" stroke="midnightblue" points="388.183,-25.4344 396.728,-19.1716 386.142,-18.7383 388.183,-25.4344"/>
</g>
<!-- Node15&#45;&gt;Node14 -->
<g id="edge36" class="edge"><title>Node15&#45;&gt;Node14</title>
<path fill="none" stroke="midnightblue" d="M512.03,-116.362C506.834,-108.431 499.599,-97.3885 493.422,-87.9606"/>
<polygon fill="midnightblue" stroke="midnightblue" points="496.334,-86.0172 487.926,-79.5707 490.478,-89.8534 496.334,-86.0172"/>
</g>
<!-- Node16 -->
<g id="node33" class="node"><title>Node16</title>
<polygon fill="white" stroke="#bfbfbf" points="526,-58.5 526,-79.5 604,-79.5 604,-58.5 526,-58.5"/>
<text text-anchor="middle" x="565" y="-66.5" font-family="Helvetica,sans-Serif" font-size="10.00">PStaticData.h</text>
</g>
<!-- Node15&#45;&gt;Node16 -->
<g id="edge34" class="edge"><title>Node15&#45;&gt;Node16</title>
<path fill="none" stroke="midnightblue" d="M527.437,-116.362C533.792,-108.35 542.666,-97.1605 550.193,-87.6696"/>
<polygon fill="midnightblue" stroke="midnightblue" points="553.145,-89.5805 556.616,-79.5707 547.66,-85.2308 553.145,-89.5805"/>
</g>
</g>
</svg>
