<?xml version="1.0" encoding="UTF-8" standalone="no"?>
<!DOCTYPE svg PUBLIC "-//W3C//DTD SVG 1.1//EN"
 "http://www.w3.org/Graphics/SVG/1.1/DTD/svg11.dtd">
<!-- Generated by graphviz version 2.26.3 (20100126.1600)
 -->
<!-- Title: progs/Ant&#45;pluto.cc Pages: 1 -->
<svg width="4043pt" height="232pt"
 viewBox="0.00 0.00 4043.00 232.00" xmlns="http://www.w3.org/2000/svg" xmlns:xlink="http://www.w3.org/1999/xlink">
<g id="graph1" class="graph" transform="scale(1 1) rotate(0) translate(4 228)">
<title>progs/Ant&#45;pluto.cc</title>
<polygon fill="white" stroke="white" points="-4,5 -4,-228 4040,-228 4040,5 -4,5"/>
<!-- Node1 -->
<g id="node1" class="node"><title>Node1</title>
<polygon fill="#bfbfbf" stroke="black" points="3079,-202.5 3079,-223.5 3175,-223.5 3175,-202.5 3079,-202.5"/>
<text text-anchor="middle" x="3127" y="-210.5" font-family="Helvetica,sans-Serif" font-size="10.00">progs/Ant&#45;pluto.cc</text>
</g>
<!-- Node2 -->
<g id="node3" class="node"><title>Node2</title>
<a xlink:href="_cmd_line_8h.html" target="_top" xlink:title="base/CmdLine.h">
<polygon fill="white" stroke="black" points="1216,-137.5 1216,-158.5 1304,-158.5 1304,-137.5 1216,-137.5"/>
<text text-anchor="middle" x="1260" y="-145.5" font-family="Helvetica,sans-Serif" font-size="10.00">base/CmdLine.h</text>
</a>
</g>
<!-- Node1&#45;&gt;Node2 -->
<g id="edge2" class="edge"><title>Node1&#45;&gt;Node2</title>
<path fill="none" stroke="midnightblue" d="M3078.97,-211.328C2819.76,-202.303 1589.19,-159.461 1314.47,-149.896"/>
<polygon fill="midnightblue" stroke="midnightblue" points="1314.47,-146.394 1304.35,-149.544 1314.22,-153.39 1314.47,-146.394"/>
</g>
<!-- Node16 -->
<g id="node31" class="node"><title>Node16</title>
<polygon fill="white" stroke="#bfbfbf" points="2420.5,-0.5 2420.5,-21.5 2461.5,-21.5 2461.5,-0.5 2420.5,-0.5"/>
<text text-anchor="middle" x="2441" y="-8.5" font-family="Helvetica,sans-Serif" font-size="10.00">string</text>
</g>
<!-- Node1&#45;&gt;Node16 -->
<g id="edge120" class="edge"><title>Node1&#45;&gt;Node16</title>
<path fill="none" stroke="midnightblue" d="M3078.88,-212.514C2938.39,-210.675 2535.85,-202.263 2490,-166 2448.83,-133.442 2441.62,-66.3862 2440.75,-32.1386"/>
<polygon fill="midnightblue" stroke="midnightblue" points="2444.25,-31.8479 2440.66,-21.8791 2437.25,-31.9095 2444.25,-31.8479"/>
</g>
<!-- Node23 -->
<g id="node45" class="node"><title>Node23</title>
<polygon fill="white" stroke="#bfbfbf" points="2244,-65.5 2244,-86.5 2296,-86.5 2296,-65.5 2244,-65.5"/>
<text text-anchor="middle" x="2270" y="-73.5" font-family="Helvetica,sans-Serif" font-size="10.00">memory</text>
</g>
<!-- Node1&#45;&gt;Node23 -->
<g id="edge122" class="edge"><title>Node1&#45;&gt;Node23</title>
<path fill="none" stroke="midnightblue" d="M3078.93,-211.47C2926.18,-206.393 2458.11,-189.106 2394,-166 2382.57,-161.881 2324.31,-117.813 2291.88,-92.9069"/>
<polygon fill="midnightblue" stroke="midnightblue" points="2293.91,-90.0563 2283.85,-86.7312 2289.64,-95.6037 2293.91,-90.0563"/>
</g>
<!-- Node24 -->
<g id="node47" class="node"><title>Node24</title>
<polygon fill="white" stroke="#bfbfbf" points="2788.5,-131 2788.5,-165 2909.5,-165 2909.5,-131 2788.5,-131"/>
<text text-anchor="start" x="2796.5" y="-152" font-family="Helvetica,sans-Serif" font-size="10.00">base/detail/tclap/Values</text>
<text text-anchor="middle" x="2849" y="-139" font-family="Helvetica,sans-Serif" font-size="10.00">ConstraintExtra.h</text>
</g>
<!-- Node1&#45;&gt;Node24 -->
<g id="edge46" class="edge"><title>Node1&#45;&gt;Node24</title>
<path fill="none" stroke="midnightblue" d="M3078.75,-202.636C3038.55,-193.893 2979.56,-180.808 2919.58,-166.348"/>
<polygon fill="midnightblue" stroke="midnightblue" points="2920.1,-162.872 2909.55,-163.921 2918.45,-169.676 2920.1,-162.872"/>
</g>
<!-- Node25 -->
<g id="node49" class="node"><title>Node25</title>
<a xlink:href="_logger_8h.html" target="_top" xlink:title="base/Logger.h">
<polygon fill="white" stroke="black" points="2927,-137.5 2927,-158.5 3005,-158.5 3005,-137.5 2927,-137.5"/>
<text text-anchor="middle" x="2966" y="-145.5" font-family="Helvetica,sans-Serif" font-size="10.00">base/Logger.h</text>
</a>
</g>
<!-- Node1&#45;&gt;Node25 -->
<g id="edge48" class="edge"><title>Node1&#45;&gt;Node25</title>
<path fill="none" stroke="midnightblue" d="M3100.77,-202.412C3073.88,-191.552 3031.84,-174.583 3001.88,-162.484"/>
<polygon fill="midnightblue" stroke="midnightblue" points="3002.8,-159.082 2992.21,-158.584 3000.18,-165.573 3002.8,-159.082"/>
</g>
<!-- Node27 -->
<g id="node53" class="node"><title>Node27</title>
<a xlink:href="math_8h.html" target="_top" xlink:title="base/std_ext/math.h">
<polygon fill="white" stroke="black" points="3023,-137.5 3023,-158.5 3129,-158.5 3129,-137.5 3023,-137.5"/>
<text text-anchor="middle" x="3076" y="-145.5" font-family="Helvetica,sans-Serif" font-size="10.00">base/std_ext/math.h</text>
</a>
</g>
<!-- Node1&#45;&gt;Node27 -->
<g id="edge52" class="edge"><title>Node1&#45;&gt;Node27</title>
<path fill="none" stroke="midnightblue" d="M3118.58,-202.267C3111,-192.612 3099.71,-178.215 3090.65,-166.675"/>
<polygon fill="midnightblue" stroke="midnightblue" points="3093.19,-164.241 3084.26,-158.534 3087.68,-168.562 3093.19,-164.241"/>
</g>
<!-- Node30 -->
<g id="node59" class="node"><title>Node30</title>
<a xlink:href="memory_8h.html" target="_top" xlink:title="base/std_ext/memory.h">
<polygon fill="white" stroke="black" points="2210.5,-137.5 2210.5,-158.5 2329.5,-158.5 2329.5,-137.5 2210.5,-137.5"/>
<text text-anchor="middle" x="2270" y="-145.5" font-family="Helvetica,sans-Serif" font-size="10.00">base/std_ext/memory.h</text>
</a>
</g>
<!-- Node1&#45;&gt;Node30 -->
<g id="edge58" class="edge"><title>Node1&#45;&gt;Node30</title>
<path fill="none" stroke="midnightblue" d="M3078.93,-211.173C2931.87,-205.414 2489.46,-186.79 2347,-166 2337.92,-164.675 2328.34,-162.815 2319.13,-160.79"/>
<polygon fill="midnightblue" stroke="midnightblue" points="2319.85,-157.366 2309.32,-158.545 2318.29,-164.189 2319.85,-157.366"/>
</g>
<!-- Node31 -->
<g id="node63" class="node"><title>Node31</title>
<a xlink:href="string_8h.html" target="_top" xlink:title="base/std_ext/string.h">
<polygon fill="white" stroke="black" points="2314,-65.5 2314,-86.5 2422,-86.5 2422,-65.5 2314,-65.5"/>
<text text-anchor="middle" x="2368" y="-73.5" font-family="Helvetica,sans-Serif" font-size="10.00">base/std_ext/string.h</text>
</a>
</g>
<!-- Node1&#45;&gt;Node31 -->
<g id="edge64" class="edge"><title>Node1&#45;&gt;Node31</title>
<path fill="none" stroke="midnightblue" d="M3078.79,-212.023C2931.21,-208.713 2492.19,-196.391 2436,-166 2407.45,-150.557 2387.36,-117.383 2376.75,-95.912"/>
<polygon fill="midnightblue" stroke="midnightblue" points="2379.85,-94.2696 2372.42,-86.7084 2373.51,-97.2474 2379.85,-94.2696"/>
</g>
<!-- Node33 -->
<g id="node69" class="node"><title>Node33</title>
<a xlink:href="_wrap_t_file_8h.html" target="_top" xlink:title="base/WrapTFile.h">
<polygon fill="white" stroke="black" points="2499,-137.5 2499,-158.5 2593,-158.5 2593,-137.5 2499,-137.5"/>
<text text-anchor="middle" x="2546" y="-145.5" font-family="Helvetica,sans-Serif" font-size="10.00">base/WrapTFile.h</text>
</a>
</g>
<!-- Node1&#45;&gt;Node33 -->
<g id="edge72" class="edge"><title>Node1&#45;&gt;Node33</title>
<path fill="none" stroke="midnightblue" d="M3078.71,-212.241C2985.59,-209.996 2775.09,-201.113 2602,-166 2596.23,-164.829 2590.22,-163.273 2584.37,-161.564"/>
<polygon fill="midnightblue" stroke="midnightblue" points="2585.33,-158.198 2574.74,-158.585 2583.26,-164.885 2585.33,-158.198"/>
</g>
<!-- Node40 -->
<g id="node87" class="node"><title>Node40</title>
<a xlink:href="_pluto_extensions_8h.html" target="_top" xlink:title="simulation/mc/PlutoExtensions.h">
<polygon fill="white" stroke="black" points="2611,-137.5 2611,-158.5 2771,-158.5 2771,-137.5 2611,-137.5"/>
<text text-anchor="middle" x="2691" y="-145.5" font-family="Helvetica,sans-Serif" font-size="10.00">simulation/mc/PlutoExtensions.h</text>
</a>
</g>
<!-- Node1&#45;&gt;Node40 -->
<g id="edge94" class="edge"><title>Node1&#45;&gt;Node40</title>
<path fill="none" stroke="midnightblue" d="M3078.86,-207.481C3011.72,-199.557 2886.26,-183.921 2780,-166 2770.32,-164.368 2760.09,-162.465 2750.14,-160.52"/>
<polygon fill="midnightblue" stroke="midnightblue" points="2750.81,-157.085 2740.32,-158.569 2749.45,-163.951 2750.81,-157.085"/>
</g>
<!-- Node42 -->
<g id="node92" class="node"><title>Node42</title>
<polygon fill="white" stroke="#bfbfbf" points="3146.5,-137.5 3146.5,-158.5 3211.5,-158.5 3211.5,-137.5 3146.5,-137.5"/>
<text text-anchor="middle" x="3179" y="-145.5" font-family="Helvetica,sans-Serif" font-size="10.00">PParticle.h</text>
</g>
<!-- Node1&#45;&gt;Node42 -->
<g id="edge100" class="edge"><title>Node1&#45;&gt;Node42</title>
<path fill="none" stroke="midnightblue" d="M3135.59,-202.267C3143.31,-192.612 3154.83,-178.215 3164.06,-166.675"/>
<polygon fill="midnightblue" stroke="midnightblue" points="3167.06,-168.529 3170.57,-158.534 3161.59,-164.156 3167.06,-168.529"/>
</g>
<!-- Node43 -->
<g id="node94" class="node"><title>Node43</title>
<polygon fill="white" stroke="#bfbfbf" points="3229,-137.5 3229,-158.5 3327,-158.5 3327,-137.5 3229,-137.5"/>
<text text-anchor="middle" x="3278" y="-145.5" font-family="Helvetica,sans-Serif" font-size="10.00">PBeamSmearing.h</text>
</g>
<!-- Node1&#45;&gt;Node43 -->
<g id="edge102" class="edge"><title>Node1&#45;&gt;Node43</title>
<path fill="none" stroke="midnightblue" d="M3151.6,-202.412C3176.71,-191.6 3215.9,-174.731 3243.98,-162.642"/>
<polygon fill="midnightblue" stroke="midnightblue" points="3245.61,-165.752 3253.41,-158.584 3242.84,-159.323 3245.61,-165.752"/>
</g>
<!-- Node44 -->
<g id="node96" class="node"><title>Node44</title>
<polygon fill="white" stroke="#bfbfbf" points="3344.5,-137.5 3344.5,-158.5 3415.5,-158.5 3415.5,-137.5 3344.5,-137.5"/>
<text text-anchor="middle" x="3380" y="-145.5" font-family="Helvetica,sans-Serif" font-size="10.00">PReaction.h</text>
</g>
<!-- Node1&#45;&gt;Node44 -->
<g id="edge104" class="edge"><title>Node1&#45;&gt;Node44</title>
<path fill="none" stroke="midnightblue" d="M3175.33,-204.51C3218.09,-196.44 3281.9,-183.018 3336,-166 3339.51,-164.895 3343.14,-163.628 3346.73,-162.289"/>
<polygon fill="midnightblue" stroke="midnightblue" points="3348.02,-165.543 3356.06,-158.641 3345.47,-159.024 3348.02,-165.543"/>
</g>
<!-- Node45 -->
<g id="node98" class="node"><title>Node45</title>
<polygon fill="white" stroke="#bfbfbf" points="3433,-137.5 3433,-158.5 3535,-158.5 3535,-137.5 3433,-137.5"/>
<text text-anchor="middle" x="3484" y="-145.5" font-family="Helvetica,sans-Serif" font-size="10.00">PPlutoBulkDecay.h</text>
</g>
<!-- Node1&#45;&gt;Node45 -->
<g id="edge106" class="edge"><title>Node1&#45;&gt;Node45</title>
<path fill="none" stroke="midnightblue" d="M3175.22,-207.396C3234.29,-200.067 3337.22,-185.789 3424,-166 3429.84,-164.668 3435.95,-163.075 3441.93,-161.396"/>
<polygon fill="midnightblue" stroke="midnightblue" points="3443.2,-164.673 3451.83,-158.52 3441.25,-157.951 3443.2,-164.673"/>
</g>
<!-- Node46 -->
<g id="node100" class="node"><title>Node46</title>
<polygon fill="white" stroke="#bfbfbf" points="3552.5,-137.5 3552.5,-158.5 3627.5,-158.5 3627.5,-137.5 3552.5,-137.5"/>
<text text-anchor="middle" x="3590" y="-145.5" font-family="Helvetica,sans-Serif" font-size="10.00">PDataBase.h</text>
</g>
<!-- Node1&#45;&gt;Node46 -->
<g id="edge108" class="edge"><title>Node1&#45;&gt;Node46</title>
<path fill="none" stroke="midnightblue" d="M3175.24,-211.632C3253.66,-208.505 3413.17,-198.379 3544,-166 3548.21,-164.957 3552.56,-163.623 3556.82,-162.153"/>
<polygon fill="midnightblue" stroke="midnightblue" points="3558.36,-165.317 3566.51,-158.551 3555.92,-158.756 3558.36,-165.317"/>
</g>
<!-- Node47 -->
<g id="node102" class="node"><title>Node47</title>
<polygon fill="white" stroke="#bfbfbf" points="3645,-137.5 3645,-158.5 3695,-158.5 3695,-137.5 3645,-137.5"/>
<text text-anchor="middle" x="3670" y="-145.5" font-family="Helvetica,sans-Serif" font-size="10.00">TTree.h</text>
</g>
<!-- Node1&#45;&gt;Node47 -->
<g id="edge110" class="edge"><title>Node1&#45;&gt;Node47</title>
<path fill="none" stroke="midnightblue" d="M3175.14,-210.968C3284.83,-205.95 3550.42,-191.491 3636,-166 3638.67,-165.205 3641.37,-164.192 3644.02,-163.052"/>
<polygon fill="midnightblue" stroke="midnightblue" points="3645.82,-166.07 3653.27,-158.537 3642.75,-159.78 3645.82,-166.07"/>
</g>
<!-- Node48 -->
<g id="node104" class="node"><title>Node48</title>
<polygon fill="white" stroke="#bfbfbf" points="3712.5,-137.5 3712.5,-158.5 3797.5,-158.5 3797.5,-137.5 3712.5,-137.5"/>
<text text-anchor="middle" x="3755" y="-145.5" font-family="Helvetica,sans-Serif" font-size="10.00">TClonesArray.h</text>
</g>
<!-- Node1&#45;&gt;Node48 -->
<g id="edge112" class="edge"><title>Node1&#45;&gt;Node48</title>
<path fill="none" stroke="midnightblue" d="M3175.02,-210.686C3294.61,-204.665 3603.37,-187.478 3704,-166 3709.09,-164.913 3714.37,-163.453 3719.52,-161.831"/>
<polygon fill="midnightblue" stroke="midnightblue" points="3720.81,-165.088 3729.17,-158.571 3718.57,-158.456 3720.81,-165.088"/>
</g>
<!-- Node49 -->
<g id="node106" class="node"><title>Node49</title>
<polygon fill="white" stroke="#bfbfbf" points="3814.5,-137.5 3814.5,-158.5 3867.5,-158.5 3867.5,-137.5 3814.5,-137.5"/>
<text text-anchor="middle" x="3841" y="-145.5" font-family="Helvetica,sans-Serif" font-size="10.00">TMath.h</text>
</g>
<!-- Node1&#45;&gt;Node49 -->
<g id="edge114" class="edge"><title>Node1&#45;&gt;Node49</title>
<path fill="none" stroke="midnightblue" d="M3175.23,-212.184C3309.76,-209.51 3687.06,-199.181 3806,-166 3808.84,-165.208 3811.71,-164.172 3814.53,-162.997"/>
<polygon fill="midnightblue" stroke="midnightblue" points="3816.23,-166.065 3823.77,-158.617 3813.23,-159.741 3816.23,-166.065"/>
</g>
<!-- Node50 -->
<g id="node108" class="node"><title>Node50</title>
<polygon fill="white" stroke="#bfbfbf" points="3885,-137.5 3885,-158.5 3953,-158.5 3953,-137.5 3885,-137.5"/>
<text text-anchor="middle" x="3919" y="-145.5" font-family="Helvetica,sans-Serif" font-size="10.00">TRandom.h</text>
</g>
<!-- Node1&#45;&gt;Node50 -->
<g id="edge116" class="edge"><title>Node1&#45;&gt;Node50</title>
<path fill="none" stroke="midnightblue" d="M3175.12,-212.07C3318.62,-208.966 3741.91,-197.333 3876,-166 3879.96,-165.073 3884.03,-163.816 3888.01,-162.393"/>
<polygon fill="midnightblue" stroke="midnightblue" points="3889.58,-165.537 3897.6,-158.611 3887.01,-159.025 3889.58,-165.537"/>
</g>
<!-- Node51 -->
<g id="node110" class="node"><title>Node51</title>
<polygon fill="white" stroke="#bfbfbf" points="3970.5,-137.5 3970.5,-158.5 4035.5,-158.5 4035.5,-137.5 3970.5,-137.5"/>
<text text-anchor="middle" x="4003" y="-145.5" font-family="Helvetica,sans-Serif" font-size="10.00">TVector3.h</text>
</g>
<!-- Node1&#45;&gt;Node51 -->
<g id="edge118" class="edge"><title>Node1&#45;&gt;Node51</title>
<path fill="none" stroke="midnightblue" d="M3175.12,-212.537C3329.5,-210.701 3811,-202.147 3962,-166 3965.7,-165.115 3969.47,-163.913 3973.17,-162.545"/>
<polygon fill="midnightblue" stroke="midnightblue" points="3974.73,-165.689 3982.64,-158.647 3972.06,-159.215 3974.73,-165.689"/>
</g>
<!-- Node3 -->
<g id="node5" class="node"><title>Node3</title>
<polygon fill="white" stroke="#bfbfbf" points="0,-65.5 0,-86.5 90,-86.5 90,-65.5 0,-65.5"/>
<text text-anchor="middle" x="45" y="-73.5" font-family="Helvetica,sans-Serif" font-size="10.00">detail/CmdLine.h</text>
</g>
<!-- Node2&#45;&gt;Node3 -->
<g id="edge4" class="edge"><title>Node2&#45;&gt;Node3</title>
<path fill="none" stroke="midnightblue" d="M1215.87,-147.408C1031.7,-144.712 323.746,-132.037 104,-94 97.5598,-92.8852 90.8371,-91.279 84.3324,-89.4789"/>
<polygon fill="midnightblue" stroke="midnightblue" points="84.9444,-86.0102 74.3625,-86.5334 82.961,-92.7233 84.9444,-86.0102"/>
</g>
<!-- Node4 -->
<g id="node7" class="node"><title>Node4</title>
<polygon fill="white" stroke="#bfbfbf" points="145.5,-59 145.5,-93 266.5,-93 266.5,-59 145.5,-59"/>
<text text-anchor="start" x="153.5" y="-80" font-family="Helvetica,sans-Serif" font-size="10.00">base/detail/tclap/Switch</text>
<text text-anchor="middle" x="206" y="-67" font-family="Helvetica,sans-Serif" font-size="10.00">Arg.h</text>
</g>
<!-- Node2&#45;&gt;Node4 -->
<g id="edge6" class="edge"><title>Node2&#45;&gt;Node4</title>
<path fill="none" stroke="midnightblue" d="M1215.83,-146.756C1052.17,-141.967 479.73,-123.572 276.773,-94.0737"/>
<polygon fill="midnightblue" stroke="midnightblue" points="277.224,-90.6023 266.814,-92.5703 276.179,-97.5238 277.224,-90.6023"/>
</g>
<!-- Node5 -->
<g id="node9" class="node"><title>Node5</title>
<polygon fill="white" stroke="#bfbfbf" points="480,-59 480,-93 622,-93 622,-59 480,-59"/>
<text text-anchor="start" x="488" y="-80" font-family="Helvetica,sans-Serif" font-size="10.00">base/detail/tclap/MultiSwitch</text>
<text text-anchor="middle" x="551" y="-67" font-family="Helvetica,sans-Serif" font-size="10.00">Arg.h</text>
</g>
<!-- Node2&#45;&gt;Node5 -->
<g id="edge8" class="edge"><title>Node2&#45;&gt;Node5</title>
<path fill="none" stroke="midnightblue" d="M1215.91,-146.274C1114.47,-141.861 856.683,-128.131 632.002,-94.0353"/>
<polygon fill="midnightblue" stroke="midnightblue" points="632.42,-90.5584 622.005,-92.5011 631.358,-97.4774 632.42,-90.5584"/>
</g>
<!-- Node6 -->
<g id="node11" class="node"><title>Node6</title>
<polygon fill="white" stroke="#bfbfbf" points="640,-59 640,-93 774,-93 774,-59 640,-59"/>
<text text-anchor="start" x="648" y="-80" font-family="Helvetica,sans-Serif" font-size="10.00">base/detail/tclap/Unlabeled</text>
<text text-anchor="middle" x="707" y="-67" font-family="Helvetica,sans-Serif" font-size="10.00">ValueArg.h</text>
</g>
<!-- Node2&#45;&gt;Node6 -->
<g id="edge10" class="edge"><title>Node2&#45;&gt;Node6</title>
<path fill="none" stroke="midnightblue" d="M1215.69,-144.768C1132.85,-138.34 948.799,-122.239 784.349,-94.1215"/>
<polygon fill="midnightblue" stroke="midnightblue" points="784.497,-90.5951 774.047,-92.3396 783.304,-97.4927 784.497,-90.5951"/>
</g>
<!-- Node7 -->
<g id="node13" class="node"><title>Node7</title>
<polygon fill="white" stroke="#bfbfbf" points="792,-59 792,-93 926,-93 926,-59 792,-59"/>
<text text-anchor="start" x="800" y="-80" font-family="Helvetica,sans-Serif" font-size="10.00">base/detail/tclap/Unlabeled</text>
<text text-anchor="middle" x="859" y="-67" font-family="Helvetica,sans-Serif" font-size="10.00">MultiArg.h</text>
</g>
<!-- Node2&#45;&gt;Node7 -->
<g id="edge12" class="edge"><title>Node2&#45;&gt;Node7</title>
<path fill="none" stroke="midnightblue" d="M1215.93,-141.649C1155.17,-132.679 1042.06,-115.214 935.994,-94.1335"/>
<polygon fill="midnightblue" stroke="midnightblue" points="936.575,-90.6805 926.082,-92.1488 935.201,-97.5442 936.575,-90.6805"/>
</g>
<!-- Node8 -->
<g id="node15" class="node"><title>Node8</title>
<polygon fill="white" stroke="#bfbfbf" points="944,-65.5 944,-86.5 1092,-86.5 1092,-65.5 944,-65.5"/>
<text text-anchor="middle" x="1018" y="-73.5" font-family="Helvetica,sans-Serif" font-size="10.00">base/detail/tclap/XorHandler.h</text>
</g>
<!-- Node2&#45;&gt;Node8 -->
<g id="edge14" class="edge"><title>Node2&#45;&gt;Node8</title>
<path fill="none" stroke="midnightblue" d="M1224.55,-137.453C1181.87,-124.753 1110.1,-103.401 1063.4,-89.5064"/>
<polygon fill="midnightblue" stroke="midnightblue" points="1064.13,-86.0718 1053.54,-86.5747 1062.13,-92.7812 1064.13,-86.0718"/>
</g>
<!-- Node9 -->
<g id="node17" class="node"><title>Node9</title>
<polygon fill="white" stroke="#bfbfbf" points="1109.5,-65.5 1109.5,-86.5 1256.5,-86.5 1256.5,-65.5 1109.5,-65.5"/>
<text text-anchor="middle" x="1183" y="-73.5" font-family="Helvetica,sans-Serif" font-size="10.00">base/detail/tclap/HelpVisitor.h</text>
</g>
<!-- Node2&#45;&gt;Node9 -->
<g id="edge16" class="edge"><title>Node2&#45;&gt;Node9</title>
<path fill="none" stroke="midnightblue" d="M1248.64,-137.376C1236.35,-125.89 1216.57,-107.393 1201.93,-93.7031"/>
<polygon fill="midnightblue" stroke="midnightblue" points="1204.1,-90.9409 1194.41,-86.6674 1199.32,-96.0539 1204.1,-90.9409"/>
</g>
<!-- Node10 -->
<g id="node19" class="node"><title>Node10</title>
<polygon fill="white" stroke="#bfbfbf" points="1274,-59 1274,-93 1398,-93 1398,-59 1274,-59"/>
<text text-anchor="start" x="1282" y="-80" font-family="Helvetica,sans-Serif" font-size="10.00">base/detail/tclap/Version</text>
<text text-anchor="middle" x="1336" y="-67" font-family="Helvetica,sans-Serif" font-size="10.00">Visitor.h</text>
</g>
<!-- Node2&#45;&gt;Node10 -->
<g id="edge18" class="edge"><title>Node2&#45;&gt;Node10</title>
<path fill="none" stroke="midnightblue" d="M1271.21,-137.376C1281.5,-127.632 1297.11,-112.84 1310.43,-100.22"/>
<polygon fill="midnightblue" stroke="midnightblue" points="1313.1,-102.513 1317.96,-93.0944 1308.29,-97.431 1313.1,-102.513"/>
</g>
<!-- Node11 -->
<g id="node21" class="node"><title>Node11</title>
<polygon fill="white" stroke="#bfbfbf" points="1416,-59 1416,-93 1534,-93 1534,-59 1416,-59"/>
<text text-anchor="start" x="1424" y="-80" font-family="Helvetica,sans-Serif" font-size="10.00">base/detail/tclap/Ignore</text>
<text text-anchor="middle" x="1475" y="-67" font-family="Helvetica,sans-Serif" font-size="10.00">RestVisitor.h</text>
</g>
<!-- Node2&#45;&gt;Node11 -->
<g id="edge20" class="edge"><title>Node2&#45;&gt;Node11</title>
<path fill="none" stroke="midnightblue" d="M1291.72,-137.376C1323.88,-126.607 1374.45,-109.674 1414.32,-96.3193"/>
<polygon fill="midnightblue" stroke="midnightblue" points="1415.58,-99.5888 1423.95,-93.0944 1413.36,-92.9511 1415.58,-99.5888"/>
</g>
<!-- Node12 -->
<g id="node23" class="node"><title>Node12</title>
<polygon fill="white" stroke="#bfbfbf" points="1552,-59 1552,-93 1682,-93 1682,-59 1552,-59"/>
<text text-anchor="start" x="1560" y="-80" font-family="Helvetica,sans-Serif" font-size="10.00">base/detail/tclap/CmdLine</text>
<text text-anchor="middle" x="1617" y="-67" font-family="Helvetica,sans-Serif" font-size="10.00">Output.h</text>
</g>
<!-- Node2&#45;&gt;Node12 -->
<g id="edge22" class="edge"><title>Node2&#45;&gt;Node12</title>
<path fill="none" stroke="midnightblue" d="M1304.26,-140.263C1358.11,-130.692 1452.03,-113.498 1541.87,-94.1967"/>
<polygon fill="midnightblue" stroke="midnightblue" points="1542.64,-97.6117 1551.67,-92.0787 1541.16,-90.7696 1542.64,-97.6117"/>
</g>
<!-- Node13 -->
<g id="node25" class="node"><title>Node13</title>
<polygon fill="white" stroke="#bfbfbf" points="1699.5,-65.5 1699.5,-86.5 1842.5,-86.5 1842.5,-65.5 1699.5,-65.5"/>
<text text-anchor="middle" x="1771" y="-73.5" font-family="Helvetica,sans-Serif" font-size="10.00">base/detail/tclap/StdOutput.h</text>
</g>
<!-- Node2&#45;&gt;Node13 -->
<g id="edge24" class="edge"><title>Node2&#45;&gt;Node13</title>
<path fill="none" stroke="midnightblue" d="M1304.26,-143.881C1382.59,-136.274 1550.6,-118.531 1691,-94 1699.66,-92.4868 1708.8,-90.6561 1717.68,-88.7492"/>
<polygon fill="midnightblue" stroke="midnightblue" points="1718.54,-92.143 1727.56,-86.5767 1717.04,-85.3064 1718.54,-92.143"/>
</g>
<!-- Node14 -->
<g id="node27" class="node"><title>Node14</title>
<polygon fill="white" stroke="#bfbfbf" points="1860,-65.5 1860,-86.5 2004,-86.5 2004,-65.5 1860,-65.5"/>
<text text-anchor="middle" x="1932" y="-73.5" font-family="Helvetica,sans-Serif" font-size="10.00">base/detail/tclap/Constraint.h</text>
</g>
<!-- Node2&#45;&gt;Node14 -->
<g id="edge26" class="edge"><title>Node2&#45;&gt;Node14</title>
<path fill="none" stroke="midnightblue" d="M1304.35,-145.885C1403.05,-140.754 1648.17,-125.671 1851,-94 1860.2,-92.5638 1869.91,-90.7056 1879.3,-88.73"/>
<polygon fill="midnightblue" stroke="midnightblue" points="1880.29,-92.0975 1889.32,-86.5546 1878.8,-85.257 1880.29,-92.0975"/>
</g>
<!-- Node15 -->
<g id="node29" class="node"><title>Node15</title>
<polygon fill="white" stroke="#bfbfbf" points="2021.5,-59 2021.5,-93 2142.5,-93 2142.5,-59 2021.5,-59"/>
<text text-anchor="start" x="2029.5" y="-80" font-family="Helvetica,sans-Serif" font-size="10.00">base/detail/tclap/Values</text>
<text text-anchor="middle" x="2082" y="-67" font-family="Helvetica,sans-Serif" font-size="10.00">Constraint.h</text>
</g>
<!-- Node2&#45;&gt;Node15 -->
<g id="edge28" class="edge"><title>Node2&#45;&gt;Node15</title>
<path fill="none" stroke="midnightblue" d="M1304.45,-145.887C1441.3,-139.216 1855.91,-117.727 2010.91,-94.1424"/>
<polygon fill="midnightblue" stroke="midnightblue" points="2011.85,-97.5374 2021.18,-92.5136 2010.75,-90.6239 2011.85,-97.5374"/>
</g>
<!-- Node2&#45;&gt;Node16 -->
<g id="edge30" class="edge"><title>Node2&#45;&gt;Node16</title>
<path fill="none" stroke="midnightblue" d="M1304.13,-147.091C1473.03,-143.371 2072.94,-127.875 2151,-94 2172.34,-84.7382 2168.18,-68.3807 2189,-58 2275.31,-14.9646 2308.97,-43.4445 2403,-22 2405.46,-21.4388 2408,-20.812 2410.54,-20.1501"/>
<polygon fill="midnightblue" stroke="midnightblue" points="2411.5,-23.5173 2420.21,-17.4871 2409.64,-16.7687 2411.5,-23.5173"/>
</g>
<!-- Node17 -->
<g id="node33" class="node"><title>Node17</title>
<polygon fill="white" stroke="#bfbfbf" points="284,-65.5 284,-86.5 328,-86.5 328,-65.5 284,-65.5"/>
<text text-anchor="middle" x="306" y="-73.5" font-family="Helvetica,sans-Serif" font-size="10.00">vector</text>
</g>
<!-- Node2&#45;&gt;Node17 -->
<g id="edge32" class="edge"><title>Node2&#45;&gt;Node17</title>
<path fill="none" stroke="midnightblue" d="M1215.98,-146.625C1043.85,-141.083 421.637,-119.464 337,-94 334.687,-93.3041 332.363,-92.4054 330.084,-91.3815"/>
<polygon fill="midnightblue" stroke="midnightblue" points="331.596,-88.2224 321.116,-86.6658 328.338,-94.418 331.596,-88.2224"/>
</g>
<!-- Node18 -->
<g id="node35" class="node"><title>Node18</title>
<polygon fill="white" stroke="#bfbfbf" points="2197.5,-65.5 2197.5,-86.5 2226.5,-86.5 2226.5,-65.5 2197.5,-65.5"/>
<text text-anchor="middle" x="2212" y="-73.5" font-family="Helvetica,sans-Serif" font-size="10.00">list</text>
</g>
<!-- Node2&#45;&gt;Node18 -->
<g id="edge34" class="edge"><title>Node2&#45;&gt;Node18</title>
<path fill="none" stroke="midnightblue" d="M1304.1,-146.738C1476.55,-141.624 2099.87,-121.401 2184,-94 2185.9,-93.3826 2187.79,-92.6047 2189.65,-91.7207"/>
<polygon fill="midnightblue" stroke="midnightblue" points="2191.53,-94.674 2198.47,-86.6697 2188.06,-88.5983 2191.53,-94.674"/>
</g>
<!-- Node19 -->
<g id="node37" class="node"><title>Node19</title>
<polygon fill="white" stroke="#bfbfbf" points="2672,-65.5 2672,-86.5 2726,-86.5 2726,-65.5 2672,-65.5"/>
<text text-anchor="middle" x="2699" y="-73.5" font-family="Helvetica,sans-Serif" font-size="10.00">iostream</text>
</g>
<!-- Node2&#45;&gt;Node19 -->
<g id="edge36" class="edge"><title>Node2&#45;&gt;Node19</title>
<path fill="none" stroke="midnightblue" d="M1304.04,-147.412C1527.3,-144.28 2528.86,-128.404 2663,-94 2666.18,-93.1841 2669.41,-92.0611 2672.56,-90.7712"/>
<polygon fill="midnightblue" stroke="midnightblue" points="2674.05,-93.9353 2681.64,-86.5412 2671.1,-87.5894 2674.05,-93.9353"/>
</g>
<!-- Node20 -->
<g id="node39" class="node"><title>Node20</title>
<polygon fill="white" stroke="#bfbfbf" points="346,-65.5 346,-86.5 396,-86.5 396,-65.5 346,-65.5"/>
<text text-anchor="middle" x="371" y="-73.5" font-family="Helvetica,sans-Serif" font-size="10.00">iomanip</text>
</g>
<!-- Node2&#45;&gt;Node20 -->
<g id="edge38" class="edge"><title>Node2&#45;&gt;Node20</title>
<path fill="none" stroke="midnightblue" d="M1215.75,-147.657C1063.16,-146.093 559.776,-137.668 405,-94 402.32,-93.244 399.612,-92.2569 396.955,-91.134"/>
<polygon fill="midnightblue" stroke="midnightblue" points="398.226,-87.8606 387.702,-86.6425 395.17,-94.158 398.226,-87.8606"/>
</g>
<!-- Node21 -->
<g id="node41" class="node"><title>Node21</title>
<polygon fill="white" stroke="#bfbfbf" points="1179,-0.5 1179,-21.5 1235,-21.5 1235,-0.5 1179,-0.5"/>
<text text-anchor="middle" x="1207" y="-8.5" font-family="Helvetica,sans-Serif" font-size="10.00">algorithm</text>
</g>
<!-- Node2&#45;&gt;Node21 -->
<g id="edge40" class="edge"><title>Node2&#45;&gt;Node21</title>
<path fill="none" stroke="midnightblue" d="M1215.91,-147.561C1012.73,-145.325 174.854,-133.717 137,-94 125.961,-82.4178 125.937,-69.5593 137,-58 173.377,-19.9905 981.966,-12.4519 1168.74,-11.2157"/>
<polygon fill="midnightblue" stroke="midnightblue" points="1168.93,-14.7147 1178.91,-11.1507 1168.89,-7.71482 1168.93,-14.7147"/>
</g>
<!-- Node22 -->
<g id="node43" class="node"><title>Node22</title>
<polygon fill="white" stroke="#bfbfbf" points="414,-65.5 414,-86.5 462,-86.5 462,-65.5 414,-65.5"/>
<text text-anchor="middle" x="438" y="-73.5" font-family="Helvetica,sans-Serif" font-size="10.00">stdlib.h</text>
</g>
<!-- Node2&#45;&gt;Node22 -->
<g id="edge42" class="edge"><title>Node2&#45;&gt;Node22</title>
<path fill="none" stroke="midnightblue" d="M1215.92,-147.458C1071.29,-145.293 612.444,-135.262 471,-94 468.388,-93.2381 465.752,-92.2471 463.169,-91.1217"/>
<polygon fill="midnightblue" stroke="midnightblue" points="464.691,-87.9695 454.181,-86.6267 461.559,-94.2301 464.691,-87.9695"/>
</g>
<!-- Node2&#45;&gt;Node23 -->
<g id="edge44" class="edge"><title>Node2&#45;&gt;Node23</title>
<path fill="none" stroke="midnightblue" d="M1304.02,-146.644C1482.16,-141.007 2144.51,-118.575 2235,-94 2237.84,-93.2278 2240.72,-92.2049 2243.54,-91.0378"/>
<polygon fill="midnightblue" stroke="midnightblue" points="2245.24,-94.1084 2252.78,-86.6684 2242.24,-87.7806 2245.24,-94.1084"/>
</g>
<!-- Node26 -->
<g id="node51" class="node"><title>Node26</title>
<polygon fill="white" stroke="#bfbfbf" points="3127.5,-65.5 3127.5,-86.5 3242.5,-86.5 3242.5,-65.5 3127.5,-65.5"/>
<text text-anchor="middle" x="3185" y="-73.5" font-family="Helvetica,sans-Serif" font-size="10.00">detail/easylogging++.h</text>
</g>
<!-- Node25&#45;&gt;Node26 -->
<g id="edge50" class="edge"><title>Node25&#45;&gt;Node26</title>
<path fill="none" stroke="midnightblue" d="M2993.32,-137.469C3000.06,-134.952 3007.27,-132.323 3014,-130 3056.45,-115.348 3105.36,-100.062 3139.97,-89.5085"/>
<polygon fill="midnightblue" stroke="midnightblue" points="3141.23,-92.7836 3149.78,-86.5268 3139.19,-86.0861 3141.23,-92.7836"/>
</g>
<!-- Node28 -->
<g id="node55" class="node"><title>Node28</title>
<polygon fill="white" stroke="#bfbfbf" points="3260,-65.5 3260,-86.5 3304,-86.5 3304,-65.5 3260,-65.5"/>
<text text-anchor="middle" x="3282" y="-73.5" font-family="Helvetica,sans-Serif" font-size="10.00">cmath</text>
</g>
<!-- Node27&#45;&gt;Node28 -->
<g id="edge54" class="edge"><title>Node27&#45;&gt;Node28</title>
<path fill="none" stroke="midnightblue" d="M3111.63,-137.478C3158.94,-123.431 3238.08,-99.6588 3251,-94 3252.8,-93.2138 3254.62,-92.3485 3256.44,-91.4355"/>
<polygon fill="midnightblue" stroke="midnightblue" points="3258.19,-94.4659 3265.31,-86.6184 3254.85,-88.3141 3258.19,-94.4659"/>
</g>
<!-- Node29 -->
<g id="node57" class="node"><title>Node29</title>
<polygon fill="white" stroke="#bfbfbf" points="3322,-65.5 3322,-86.5 3362,-86.5 3362,-65.5 3322,-65.5"/>
<text text-anchor="middle" x="3342" y="-73.5" font-family="Helvetica,sans-Serif" font-size="10.00">limits</text>
</g>
<!-- Node27&#45;&gt;Node29 -->
<g id="edge56" class="edge"><title>Node27&#45;&gt;Node29</title>
<path fill="none" stroke="midnightblue" d="M3110.63,-137.419C3119.51,-134.85 3129.08,-132.209 3138,-130 3215.08,-110.915 3239.23,-123.394 3313,-94 3314.82,-93.2761 3316.65,-92.4398 3318.46,-91.532"/>
<polygon fill="midnightblue" stroke="midnightblue" points="3320.21,-94.5625 3327.18,-86.5875 3316.76,-88.4722 3320.21,-94.5625"/>
</g>
<!-- Node30&#45;&gt;Node18 -->
<g id="edge62" class="edge"><title>Node30&#45;&gt;Node18</title>
<path fill="none" stroke="midnightblue" d="M2261.44,-137.376C2252.36,-126.103 2237.84,-108.075 2226.88,-94.4685"/>
<polygon fill="midnightblue" stroke="midnightblue" points="2229.59,-92.2593 2220.59,-86.6674 2224.14,-96.6507 2229.59,-92.2593"/>
</g>
<!-- Node30&#45;&gt;Node23 -->
<g id="edge60" class="edge"><title>Node30&#45;&gt;Node23</title>
<path fill="none" stroke="midnightblue" d="M2270,-137.376C2270,-126.741 2270,-110.095 2270,-96.8195"/>
<polygon fill="midnightblue" stroke="midnightblue" points="2273.5,-96.6674 2270,-86.6674 2266.5,-96.6675 2273.5,-96.6674"/>
</g>
<!-- Node31&#45;&gt;Node16 -->
<g id="edge66" class="edge"><title>Node31&#45;&gt;Node16</title>
<path fill="none" stroke="midnightblue" d="M2380.05,-65.2666C2391.32,-55.2334 2408.34,-40.078 2421.54,-28.3311"/>
<polygon fill="midnightblue" stroke="midnightblue" points="2424.03,-30.7977 2429.17,-21.5337 2419.37,-25.5698 2424.03,-30.7977"/>
</g>
<!-- Node31&#45;&gt;Node21 -->
<g id="edge70" class="edge"><title>Node31&#45;&gt;Node21</title>
<path fill="none" stroke="midnightblue" d="M2336.6,-65.4573C2326.61,-62.529 2315.44,-59.691 2305,-58 2094.56,-23.9233 1414.91,-13.5261 1245.52,-11.4334"/>
<polygon fill="midnightblue" stroke="midnightblue" points="1245.37,-7.93151 1235.33,-11.3101 1245.29,-14.931 1245.37,-7.93151"/>
</g>
<!-- Node32 -->
<g id="node66" class="node"><title>Node32</title>
<polygon fill="white" stroke="#bfbfbf" points="2342,-0.5 2342,-21.5 2394,-21.5 2394,-0.5 2342,-0.5"/>
<text text-anchor="middle" x="2368" y="-8.5" font-family="Helvetica,sans-Serif" font-size="10.00">sstream</text>
</g>
<!-- Node31&#45;&gt;Node32 -->
<g id="edge68" class="edge"><title>Node31&#45;&gt;Node32</title>
<path fill="none" stroke="midnightblue" d="M2368,-65.2666C2368,-56.1799 2368,-42.8919 2368,-31.7395"/>
<polygon fill="midnightblue" stroke="midnightblue" points="2371.5,-31.5337 2368,-21.5337 2364.5,-31.5337 2371.5,-31.5337"/>
</g>
<!-- Node33&#45;&gt;Node16 -->
<g id="edge76" class="edge"><title>Node33&#45;&gt;Node16</title>
<path fill="none" stroke="midnightblue" d="M2537.76,-137.25C2519.97,-114.041 2477.78,-58.9903 2455.45,-29.8485"/>
<polygon fill="midnightblue" stroke="midnightblue" points="2458.06,-27.5081 2449.2,-21.7002 2452.51,-31.7663 2458.06,-27.5081"/>
</g>
<!-- Node33&#45;&gt;Node18 -->
<g id="edge78" class="edge"><title>Node33&#45;&gt;Node18</title>
<path fill="none" stroke="midnightblue" d="M2498.8,-142.664C2423.88,-133.717 2281.45,-114.632 2235,-94 2233.98,-93.5472 2232.97,-93.0393 2231.96,-92.4891"/>
<polygon fill="midnightblue" stroke="midnightblue" points="2233.69,-89.4337 2223.45,-86.7413 2229.78,-95.2362 2233.69,-89.4337"/>
</g>
<!-- Node33&#45;&gt;Node23 -->
<g id="edge74" class="edge"><title>Node33&#45;&gt;Node23</title>
<path fill="none" stroke="midnightblue" d="M2498.8,-141.079C2449.47,-133.007 2370.3,-117.669 2305,-94 2302.58,-93.124 2300.12,-92.1166 2297.68,-91.0355"/>
<polygon fill="midnightblue" stroke="midnightblue" points="2299.02,-87.7995 2288.5,-86.6217 2295.99,-94.1085 2299.02,-87.7995"/>
</g>
<!-- Node33&#45;&gt;Node31 -->
<g id="edge80" class="edge"><title>Node33&#45;&gt;Node31</title>
<path fill="none" stroke="midnightblue" d="M2519.74,-137.376C2489.02,-124.951 2438.01,-104.319 2403.71,-90.4465"/>
<polygon fill="midnightblue" stroke="midnightblue" points="2404.67,-87.0554 2394.08,-86.5501 2402.04,-93.5446 2404.67,-87.0554"/>
</g>
<!-- Node34 -->
<g id="node75" class="node"><title>Node34</title>
<polygon fill="white" stroke="#bfbfbf" points="2809.5,-65.5 2809.5,-86.5 2856.5,-86.5 2856.5,-65.5 2809.5,-65.5"/>
<text text-anchor="middle" x="2833" y="-73.5" font-family="Helvetica,sans-Serif" font-size="10.00">TFile.h</text>
</g>
<!-- Node33&#45;&gt;Node34 -->
<g id="edge82" class="edge"><title>Node33&#45;&gt;Node34</title>
<path fill="none" stroke="midnightblue" d="M2576.31,-137.454C2584.58,-134.797 2593.58,-132.105 2602,-130 2689.2,-108.2 2716.44,-124.455 2801,-94 2803.14,-93.2279 2805.31,-92.3204 2807.46,-91.3304"/>
<polygon fill="midnightblue" stroke="midnightblue" points="2809.29,-94.3262 2816.56,-86.6258 2806.07,-88.1074 2809.29,-94.3262"/>
</g>
<!-- Node35 -->
<g id="node77" class="node"><title>Node35</title>
<polygon fill="white" stroke="#bfbfbf" points="2873.5,-65.5 2873.5,-86.5 2944.5,-86.5 2944.5,-65.5 2873.5,-65.5"/>
<text text-anchor="middle" x="2909" y="-73.5" font-family="Helvetica,sans-Serif" font-size="10.00">TDirectory.h</text>
</g>
<!-- Node33&#45;&gt;Node35 -->
<g id="edge84" class="edge"><title>Node33&#45;&gt;Node35</title>
<path fill="none" stroke="midnightblue" d="M2575.38,-137.492C2583.88,-134.741 2593.24,-131.992 2602,-130 2717.04,-103.849 2751.05,-124.578 2865,-94 2868.84,-92.9705 2872.79,-91.692 2876.67,-90.2945"/>
<polygon fill="midnightblue" stroke="midnightblue" points="2878.02,-93.523 2886.09,-86.6493 2875.5,-86.9949 2878.02,-93.523"/>
</g>
<!-- Node36 -->
<g id="node79" class="node"><title>Node36</title>
<polygon fill="white" stroke="#bfbfbf" points="2962,-65.5 2962,-86.5 3014,-86.5 3014,-65.5 2962,-65.5"/>
<text text-anchor="middle" x="2988" y="-73.5" font-family="Helvetica,sans-Serif" font-size="10.00">TError.h</text>
</g>
<!-- Node33&#45;&gt;Node36 -->
<g id="edge86" class="edge"><title>Node33&#45;&gt;Node36</title>
<path fill="none" stroke="midnightblue" d="M2574.76,-137.488C2583.41,-134.67 2593,-131.885 2602,-130 2755.48,-97.8309 2802.67,-138.633 2953,-94 2955.76,-93.1796 2958.57,-92.1407 2961.32,-90.9777"/>
<polygon fill="midnightblue" stroke="midnightblue" points="2962.84,-94.1317 2970.37,-86.6822 2959.84,-87.8077 2962.84,-94.1317"/>
</g>
<!-- Node37 -->
<g id="node81" class="node"><title>Node37</title>
<polygon fill="white" stroke="#bfbfbf" points="2515.5,-65.5 2515.5,-86.5 2562.5,-86.5 2562.5,-65.5 2515.5,-65.5"/>
<text text-anchor="middle" x="2539" y="-73.5" font-family="Helvetica,sans-Serif" font-size="10.00">TList.h</text>
</g>
<!-- Node33&#45;&gt;Node37 -->
<g id="edge88" class="edge"><title>Node33&#45;&gt;Node37</title>
<path fill="none" stroke="midnightblue" d="M2544.97,-137.376C2543.93,-126.741 2542.31,-110.095 2541.02,-96.8195"/>
<polygon fill="midnightblue" stroke="midnightblue" points="2544.49,-96.2818 2540.04,-86.6674 2537.52,-96.9592 2544.49,-96.2818"/>
</g>
<!-- Node38 -->
<g id="node83" class="node"><title>Node38</title>
<polygon fill="white" stroke="#bfbfbf" points="2580,-65.5 2580,-86.5 2654,-86.5 2654,-65.5 2580,-65.5"/>
<text text-anchor="middle" x="2617" y="-73.5" font-family="Helvetica,sans-Serif" font-size="10.00">TCollection.h</text>
</g>
<!-- Node33&#45;&gt;Node38 -->
<g id="edge90" class="edge"><title>Node33&#45;&gt;Node38</title>
<path fill="none" stroke="midnightblue" d="M2556.48,-137.376C2567.7,-125.997 2585.71,-107.735 2599.17,-94.0845"/>
<polygon fill="midnightblue" stroke="midnightblue" points="2601.95,-96.2453 2606.48,-86.6674 2596.97,-91.3303 2601.95,-96.2453"/>
</g>
<!-- Node39 -->
<g id="node85" class="node"><title>Node39</title>
<polygon fill="white" stroke="#bfbfbf" points="2744,-65.5 2744,-86.5 2792,-86.5 2792,-65.5 2744,-65.5"/>
<text text-anchor="middle" x="2768" y="-73.5" font-family="Helvetica,sans-Serif" font-size="10.00">TKey.h</text>
</g>
<!-- Node33&#45;&gt;Node39 -->
<g id="edge92" class="edge"><title>Node33&#45;&gt;Node39</title>
<path fill="none" stroke="midnightblue" d="M2577.9,-137.462C2585.76,-134.945 2594.17,-132.318 2602,-130 2660.72,-112.626 2678.17,-116.819 2735,-94 2737.12,-93.1504 2739.27,-92.1974 2741.41,-91.1851"/>
<polygon fill="midnightblue" stroke="midnightblue" points="2743.25,-94.1741 2750.56,-86.504 2740.06,-87.9422 2743.25,-94.1741"/>
</g>
<!-- Node40&#45;&gt;Node19 -->
<g id="edge98" class="edge"><title>Node40&#45;&gt;Node19</title>
<path fill="none" stroke="midnightblue" d="M2692.18,-137.376C2693.36,-126.741 2695.21,-110.095 2696.69,-96.8195"/>
<polygon fill="midnightblue" stroke="midnightblue" points="2700.19,-96.9928 2697.81,-86.6674 2693.23,-96.2197 2700.19,-96.9928"/>
</g>
<!-- Node41 -->
<g id="node89" class="node"><title>Node41</title>
<polygon fill="white" stroke="#bfbfbf" points="3032,-65.5 3032,-86.5 3110,-86.5 3110,-65.5 3032,-65.5"/>
<text text-anchor="middle" x="3071" y="-73.5" font-family="Helvetica,sans-Serif" font-size="10.00">PStaticData.h</text>
</g>
<!-- Node40&#45;&gt;Node41 -->
<g id="edge96" class="edge"><title>Node40&#45;&gt;Node41</title>
<path fill="none" stroke="midnightblue" d="M2740.81,-137.447C2753.56,-134.877 2767.27,-132.229 2780,-130 2887.54,-111.172 2917.29,-121.321 3023,-94 3027.38,-92.867 3031.92,-91.4734 3036.38,-89.9675"/>
<polygon fill="midnightblue" stroke="midnightblue" points="3037.68,-93.2185 3045.91,-86.5493 3035.32,-86.629 3037.68,-93.2185"/>
</g>
</g>
</svg>
