<?xml version="1.0" encoding="UTF-8" standalone="no"?>
<!DOCTYPE svg PUBLIC "-//W3C//DTD SVG 1.1//EN"
 "http://www.w3.org/Graphics/SVG/1.1/DTD/svg11.dtd">
<!-- Generated by graphviz version 2.26.3 (20100126.1600)
 -->
<!-- Title: progs/Ant&#45;chain.cc Pages: 1 -->
<svg width="3154pt" height="218pt"
 viewBox="0.00 0.00 3154.00 218.00" xmlns="http://www.w3.org/2000/svg" xmlns:xlink="http://www.w3.org/1999/xlink">
<g id="graph1" class="graph" transform="scale(1 1) rotate(0) translate(4 214)">
<title>progs/Ant&#45;chain.cc</title>
<polygon fill="white" stroke="white" points="-4,5 -4,-214 3151,-214 3151,5 -4,5"/>
<!-- Node1 -->
<g id="node1" class="node"><title>Node1</title>
<polygon fill="#bfbfbf" stroke="black" points="2533,-188.5 2533,-209.5 2631,-209.5 2631,-188.5 2533,-188.5"/>
<text text-anchor="middle" x="2582" y="-196.5" font-family="Helvetica,sans-Serif" font-size="10.00">progs/Ant&#45;chain.cc</text>
</g>
<!-- Node2 -->
<g id="node3" class="node"><title>Node2</title>
<a xlink:href="_logger_8h.html" target="_top" xlink:title="base/Logger.h">
<polygon fill="white" stroke="black" points="27,-130.5 27,-151.5 105,-151.5 105,-130.5 27,-130.5"/>
<text text-anchor="middle" x="66" y="-138.5" font-family="Helvetica,sans-Serif" font-size="10.00">base/Logger.h</text>
</a>
</g>
<!-- Node1&#45;&gt;Node2 -->
<g id="edge2" class="edge"><title>Node1&#45;&gt;Node2</title>
<path fill="none" stroke="midnightblue" d="M2532.9,-198.522C2208.19,-195.301 375.238,-176.15 128,-152 123.838,-151.593 119.536,-151.063 115.228,-150.454"/>
<polygon fill="midnightblue" stroke="midnightblue" points="115.646,-146.978 105.23,-148.915 114.581,-153.896 115.646,-146.978"/>
</g>
<!-- Node4 -->
<g id="node7" class="node"><title>Node4</title>
<a xlink:href="_cmd_line_8h.html" target="_top" xlink:title="base/CmdLine.h">
<polygon fill="white" stroke="black" points="1274,-130.5 1274,-151.5 1362,-151.5 1362,-130.5 1274,-130.5"/>
<text text-anchor="middle" x="1318" y="-138.5" font-family="Helvetica,sans-Serif" font-size="10.00">base/CmdLine.h</text>
</a>
</g>
<!-- Node1&#45;&gt;Node4 -->
<g id="edge6" class="edge"><title>Node1&#45;&gt;Node4</title>
<path fill="none" stroke="midnightblue" d="M2532.84,-196.744C2332.91,-187.57 1581.62,-153.096 1372.38,-143.496"/>
<polygon fill="midnightblue" stroke="midnightblue" points="1372.41,-139.993 1362.26,-143.031 1372.09,-146.986 1372.41,-139.993"/>
</g>
<!-- Node18 -->
<g id="node35" class="node"><title>Node18</title>
<polygon fill="white" stroke="#bfbfbf" points="1421.5,-0.5 1421.5,-21.5 1462.5,-21.5 1462.5,-0.5 1421.5,-0.5"/>
<text text-anchor="middle" x="1442" y="-8.5" font-family="Helvetica,sans-Serif" font-size="10.00">string</text>
</g>
<!-- Node1&#45;&gt;Node18 -->
<g id="edge84" class="edge"><title>Node1&#45;&gt;Node18</title>
<path fill="none" stroke="midnightblue" d="M2532.77,-198.782C2196.24,-197.057 245.656,-183.22 161,-94 149.987,-82.3933 149.896,-69.5193 161,-58 183.407,-34.7558 1218.33,-15.0231 1411.22,-11.5439"/>
<polygon fill="midnightblue" stroke="midnightblue" points="1411.55,-15.0386 1421.49,-11.3597 1411.43,-8.0397 1411.55,-15.0386"/>
</g>
<!-- Node20 -->
<g id="node39" class="node"><title>Node20</title>
<polygon fill="white" stroke="#bfbfbf" points="2509.5,-65.5 2509.5,-86.5 2538.5,-86.5 2538.5,-65.5 2509.5,-65.5"/>
<text text-anchor="middle" x="2524" y="-73.5" font-family="Helvetica,sans-Serif" font-size="10.00">list</text>
</g>
<!-- Node1&#45;&gt;Node20 -->
<g id="edge86" class="edge"><title>Node1&#45;&gt;Node20</title>
<path fill="none" stroke="midnightblue" d="M2576.85,-188.085C2567.11,-167.427 2545.85,-122.337 2533.47,-96.0765"/>
<polygon fill="midnightblue" stroke="midnightblue" points="2536.48,-94.2674 2529.05,-86.7153 2530.15,-97.253 2536.48,-94.2674"/>
</g>
<!-- Node26 -->
<g id="node51" class="node"><title>Node26</title>
<a xlink:href="_wrap_t_file_8h.html" target="_top" xlink:title="base/WrapTFile.h">
<polygon fill="white" stroke="black" points="2573,-130.5 2573,-151.5 2667,-151.5 2667,-130.5 2573,-130.5"/>
<text text-anchor="middle" x="2620" y="-138.5" font-family="Helvetica,sans-Serif" font-size="10.00">base/WrapTFile.h</text>
</a>
</g>
<!-- Node1&#45;&gt;Node26 -->
<g id="edge50" class="edge"><title>Node1&#45;&gt;Node26</title>
<path fill="none" stroke="midnightblue" d="M2588.97,-188.362C2594.17,-180.431 2601.4,-169.389 2607.58,-159.961"/>
<polygon fill="midnightblue" stroke="midnightblue" points="2610.52,-161.853 2613.07,-151.571 2604.67,-158.017 2610.52,-161.853"/>
</g>
<!-- Node30 -->
<g id="node64" class="node"><title>Node30</title>
<polygon fill="white" stroke="#bfbfbf" points="3075.5,-65.5 3075.5,-86.5 3146.5,-86.5 3146.5,-65.5 3075.5,-65.5"/>
<text text-anchor="middle" x="3111" y="-73.5" font-family="Helvetica,sans-Serif" font-size="10.00">TDirectory.h</text>
</g>
<!-- Node1&#45;&gt;Node30 -->
<g id="edge78" class="edge"><title>Node1&#45;&gt;Node30</title>
<path fill="none" stroke="midnightblue" d="M2604.23,-188.361C2623.4,-179.072 2651.75,-165.069 2676,-152 2693.18,-142.743 2695.43,-136.013 2714,-130 2864.03,-81.409 2914.01,-132.248 3067,-94 3070.94,-93.0148 3074.99,-91.743 3078.97,-90.3314"/>
<polygon fill="midnightblue" stroke="midnightblue" points="3080.51,-93.4861 3088.58,-86.6176 3077.99,-86.9564 3080.51,-93.4861"/>
</g>
<!-- Node35 -->
<g id="node75" class="node"><title>Node35</title>
<polygon fill="white" stroke="#bfbfbf" points="2723,-130.5 2723,-151.5 2779,-151.5 2779,-130.5 2723,-130.5"/>
<text text-anchor="middle" x="2751" y="-138.5" font-family="Helvetica,sans-Serif" font-size="10.00">TChain.h</text>
</g>
<!-- Node1&#45;&gt;Node35 -->
<g id="edge80" class="edge"><title>Node1&#45;&gt;Node35</title>
<path fill="none" stroke="midnightblue" d="M2612.6,-188.497C2640.81,-178.818 2682.75,-164.422 2713.07,-154.017"/>
<polygon fill="midnightblue" stroke="midnightblue" points="2714.55,-157.211 2722.87,-150.654 2712.27,-150.59 2714.55,-157.211"/>
</g>
<!-- Node36 -->
<g id="node77" class="node"><title>Node36</title>
<polygon fill="white" stroke="#bfbfbf" points="2797,-130.5 2797,-151.5 2847,-151.5 2847,-130.5 2797,-130.5"/>
<text text-anchor="middle" x="2822" y="-138.5" font-family="Helvetica,sans-Serif" font-size="10.00">TTree.h</text>
</g>
<!-- Node1&#45;&gt;Node36 -->
<g id="edge82" class="edge"><title>Node1&#45;&gt;Node36</title>
<path fill="none" stroke="midnightblue" d="M2631,-189.097C2670.72,-180.783 2728.31,-168.08 2787.01,-152.116"/>
<polygon fill="midnightblue" stroke="midnightblue" points="2788.11,-155.444 2796.82,-149.42 2786.25,-148.694 2788.11,-155.444"/>
</g>
<!-- Node3 -->
<g id="node5" class="node"><title>Node3</title>
<polygon fill="white" stroke="#bfbfbf" points="-0.5,-65.5 -0.5,-86.5 114.5,-86.5 114.5,-65.5 -0.5,-65.5"/>
<text text-anchor="middle" x="57" y="-73.5" font-family="Helvetica,sans-Serif" font-size="10.00">detail/easylogging++.h</text>
</g>
<!-- Node2&#45;&gt;Node3 -->
<g id="edge4" class="edge"><title>Node2&#45;&gt;Node3</title>
<path fill="none" stroke="midnightblue" d="M64.5138,-130.267C63.2557,-121.18 61.4158,-107.892 59.8716,-96.7395"/>
<polygon fill="midnightblue" stroke="midnightblue" points="63.2971,-95.9591 58.4585,-86.5337 56.3632,-96.9193 63.2971,-95.9591"/>
</g>
<!-- Node5 -->
<g id="node9" class="node"><title>Node5</title>
<polygon fill="white" stroke="#bfbfbf" points="346,-65.5 346,-86.5 436,-86.5 436,-65.5 346,-65.5"/>
<text text-anchor="middle" x="391" y="-73.5" font-family="Helvetica,sans-Serif" font-size="10.00">detail/CmdLine.h</text>
</g>
<!-- Node4&#45;&gt;Node5 -->
<g id="edge8" class="edge"><title>Node4&#45;&gt;Node5</title>
<path fill="none" stroke="midnightblue" d="M1273.86,-140.184C1119.79,-137.094 606.509,-124.688 445,-94 439.216,-92.901 433.199,-91.3386 427.372,-89.588"/>
<polygon fill="midnightblue" stroke="midnightblue" points="428.409,-86.245 417.817,-86.5129 426.264,-92.9084 428.409,-86.245"/>
</g>
<!-- Node6 -->
<g id="node11" class="node"><title>Node6</title>
<polygon fill="white" stroke="#bfbfbf" points="453.5,-59 453.5,-93 574.5,-93 574.5,-59 453.5,-59"/>
<text text-anchor="start" x="461.5" y="-80" font-family="Helvetica,sans-Serif" font-size="10.00">base/detail/tclap/Switch</text>
<text text-anchor="middle" x="514" y="-67" font-family="Helvetica,sans-Serif" font-size="10.00">Arg.h</text>
</g>
<!-- Node4&#45;&gt;Node6 -->
<g id="edge10" class="edge"><title>Node4&#45;&gt;Node6</title>
<path fill="none" stroke="midnightblue" d="M1273.65,-139.279C1139.1,-133.885 735.957,-116.415 584.831,-94.0864"/>
<polygon fill="midnightblue" stroke="midnightblue" points="585.236,-90.6075 574.819,-92.5396 584.167,-97.5255 585.236,-90.6075"/>
</g>
<!-- Node7 -->
<g id="node13" class="node"><title>Node7</title>
<polygon fill="white" stroke="#bfbfbf" points="592,-59 592,-93 734,-93 734,-59 592,-59"/>
<text text-anchor="start" x="600" y="-80" font-family="Helvetica,sans-Serif" font-size="10.00">base/detail/tclap/MultiSwitch</text>
<text text-anchor="middle" x="663" y="-67" font-family="Helvetica,sans-Serif" font-size="10.00">Arg.h</text>
</g>
<!-- Node4&#45;&gt;Node7 -->
<g id="edge12" class="edge"><title>Node4&#45;&gt;Node7</title>
<path fill="none" stroke="midnightblue" d="M1273.75,-139.491C1178.56,-135.792 947.157,-124.369 743.962,-94.0226"/>
<polygon fill="midnightblue" stroke="midnightblue" points="744.413,-90.5511 734.002,-92.5164 743.366,-97.4724 744.413,-90.5511"/>
</g>
<!-- Node8 -->
<g id="node15" class="node"><title>Node8</title>
<polygon fill="white" stroke="#bfbfbf" points="752,-59 752,-93 886,-93 886,-59 752,-59"/>
<text text-anchor="start" x="760" y="-80" font-family="Helvetica,sans-Serif" font-size="10.00">base/detail/tclap/Unlabeled</text>
<text text-anchor="middle" x="819" y="-67" font-family="Helvetica,sans-Serif" font-size="10.00">ValueArg.h</text>
</g>
<!-- Node4&#45;&gt;Node8 -->
<g id="edge14" class="edge"><title>Node4&#45;&gt;Node8</title>
<path fill="none" stroke="midnightblue" d="M1273.91,-137.881C1198.45,-132.157 1039.58,-118.42 895.922,-94.0443"/>
<polygon fill="midnightblue" stroke="midnightblue" points="896.494,-90.5912 886.045,-92.3472 895.308,-97.4901 896.494,-90.5912"/>
</g>
<!-- Node9 -->
<g id="node17" class="node"><title>Node9</title>
<polygon fill="white" stroke="#bfbfbf" points="1172,-59 1172,-93 1306,-93 1306,-59 1172,-59"/>
<text text-anchor="start" x="1180" y="-80" font-family="Helvetica,sans-Serif" font-size="10.00">base/detail/tclap/Unlabeled</text>
<text text-anchor="middle" x="1239" y="-67" font-family="Helvetica,sans-Serif" font-size="10.00">MultiArg.h</text>
</g>
<!-- Node4&#45;&gt;Node9 -->
<g id="edge16" class="edge"><title>Node4&#45;&gt;Node9</title>
<path fill="none" stroke="midnightblue" d="M1304.95,-130.267C1294.89,-121.984 1280.58,-110.212 1267.86,-99.7477"/>
<polygon fill="midnightblue" stroke="midnightblue" points="1269.74,-96.7608 1259.8,-93.1099 1265.29,-102.166 1269.74,-96.7608"/>
</g>
<!-- Node10 -->
<g id="node19" class="node"><title>Node10</title>
<polygon fill="white" stroke="#bfbfbf" points="1324,-65.5 1324,-86.5 1472,-86.5 1472,-65.5 1324,-65.5"/>
<text text-anchor="middle" x="1398" y="-73.5" font-family="Helvetica,sans-Serif" font-size="10.00">base/detail/tclap/XorHandler.h</text>
</g>
<!-- Node4&#45;&gt;Node10 -->
<g id="edge18" class="edge"><title>Node4&#45;&gt;Node10</title>
<path fill="none" stroke="midnightblue" d="M1331.21,-130.267C1343.68,-120.139 1362.56,-104.792 1377.08,-92.9995"/>
<polygon fill="midnightblue" stroke="midnightblue" points="1379.48,-95.5561 1385.04,-86.5337 1375.07,-90.1233 1379.48,-95.5561"/>
</g>
<!-- Node11 -->
<g id="node21" class="node"><title>Node11</title>
<polygon fill="white" stroke="#bfbfbf" points="1489.5,-65.5 1489.5,-86.5 1636.5,-86.5 1636.5,-65.5 1489.5,-65.5"/>
<text text-anchor="middle" x="1563" y="-73.5" font-family="Helvetica,sans-Serif" font-size="10.00">base/detail/tclap/HelpVisitor.h</text>
</g>
<!-- Node4&#45;&gt;Node11 -->
<g id="edge20" class="edge"><title>Node4&#45;&gt;Node11</title>
<path fill="none" stroke="midnightblue" d="M1357.64,-130.484C1400.16,-119.204 1467.75,-101.27 1513.68,-89.085"/>
<polygon fill="midnightblue" stroke="midnightblue" points="1514.65,-92.4479 1523.42,-86.5005 1512.86,-85.682 1514.65,-92.4479"/>
</g>
<!-- Node12 -->
<g id="node23" class="node"><title>Node12</title>
<polygon fill="white" stroke="#bfbfbf" points="1654,-59 1654,-93 1778,-93 1778,-59 1654,-59"/>
<text text-anchor="start" x="1662" y="-80" font-family="Helvetica,sans-Serif" font-size="10.00">base/detail/tclap/Version</text>
<text text-anchor="middle" x="1716" y="-67" font-family="Helvetica,sans-Serif" font-size="10.00">Visitor.h</text>
</g>
<!-- Node4&#45;&gt;Node12 -->
<g id="edge22" class="edge"><title>Node4&#45;&gt;Node12</title>
<path fill="none" stroke="midnightblue" d="M1362.15,-136.154C1423.3,-129.113 1537.4,-114.791 1643.81,-94.1315"/>
<polygon fill="midnightblue" stroke="midnightblue" points="1644.61,-97.5406 1653.75,-92.1781 1643.26,-90.6719 1644.61,-97.5406"/>
</g>
<!-- Node13 -->
<g id="node25" class="node"><title>Node13</title>
<polygon fill="white" stroke="#bfbfbf" points="1796,-59 1796,-93 1914,-93 1914,-59 1796,-59"/>
<text text-anchor="start" x="1804" y="-80" font-family="Helvetica,sans-Serif" font-size="10.00">base/detail/tclap/Ignore</text>
<text text-anchor="middle" x="1855" y="-67" font-family="Helvetica,sans-Serif" font-size="10.00">RestVisitor.h</text>
</g>
<!-- Node4&#45;&gt;Node13 -->
<g id="edge24" class="edge"><title>Node4&#45;&gt;Node13</title>
<path fill="none" stroke="midnightblue" d="M1362.29,-138.911C1444.17,-134.541 1624.8,-122.53 1785.71,-94.076"/>
<polygon fill="midnightblue" stroke="midnightblue" points="1786.56,-97.4784 1795.79,-92.267 1785.33,-90.5885 1786.56,-97.4784"/>
</g>
<!-- Node14 -->
<g id="node27" class="node"><title>Node14</title>
<polygon fill="white" stroke="#bfbfbf" points="1932,-59 1932,-93 2062,-93 2062,-59 1932,-59"/>
<text text-anchor="start" x="1940" y="-80" font-family="Helvetica,sans-Serif" font-size="10.00">base/detail/tclap/CmdLine</text>
<text text-anchor="middle" x="1997" y="-67" font-family="Helvetica,sans-Serif" font-size="10.00">Output.h</text>
</g>
<!-- Node4&#45;&gt;Node14 -->
<g id="edge26" class="edge"><title>Node4&#45;&gt;Node14</title>
<path fill="none" stroke="midnightblue" d="M1362.31,-139.998C1461.14,-137.241 1707.08,-127.479 1921.56,-94.0845"/>
<polygon fill="midnightblue" stroke="midnightblue" points="1922.41,-97.4927 1931.75,-92.4764 1921.32,-90.5783 1922.41,-97.4927"/>
</g>
<!-- Node15 -->
<g id="node29" class="node"><title>Node15</title>
<polygon fill="white" stroke="#bfbfbf" points="2079.5,-65.5 2079.5,-86.5 2222.5,-86.5 2222.5,-65.5 2079.5,-65.5"/>
<text text-anchor="middle" x="2151" y="-73.5" font-family="Helvetica,sans-Serif" font-size="10.00">base/detail/tclap/StdOutput.h</text>
</g>
<!-- Node4&#45;&gt;Node15 -->
<g id="edge28" class="edge"><title>Node4&#45;&gt;Node15</title>
<path fill="none" stroke="midnightblue" d="M1362.42,-139.157C1502.32,-133.207 1932.74,-113.741 2071,-94 2080.52,-92.6409 2090.58,-90.7461 2100.24,-88.6928"/>
<polygon fill="midnightblue" stroke="midnightblue" points="2101.11,-92.0852 2110.12,-86.5115 2099.6,-85.2498 2101.11,-92.0852"/>
</g>
<!-- Node16 -->
<g id="node31" class="node"><title>Node16</title>
<polygon fill="white" stroke="#bfbfbf" points="2240,-65.5 2240,-86.5 2384,-86.5 2384,-65.5 2240,-65.5"/>
<text text-anchor="middle" x="2312" y="-73.5" font-family="Helvetica,sans-Serif" font-size="10.00">base/detail/tclap/Constraint.h</text>
</g>
<!-- Node4&#45;&gt;Node16 -->
<g id="edge30" class="edge"><title>Node4&#45;&gt;Node16</title>
<path fill="none" stroke="midnightblue" d="M1362.13,-139.708C1520.52,-134.916 2059.97,-117.24 2231,-94 2240.64,-92.69 2250.83,-90.8184 2260.61,-88.7727"/>
<polygon fill="midnightblue" stroke="midnightblue" points="2261.59,-92.1419 2270.62,-86.594 2260.1,-85.3022 2261.59,-92.1419"/>
</g>
<!-- Node17 -->
<g id="node33" class="node"><title>Node17</title>
<polygon fill="white" stroke="#bfbfbf" points="169.5,-59 169.5,-93 290.5,-93 290.5,-59 169.5,-59"/>
<text text-anchor="start" x="177.5" y="-80" font-family="Helvetica,sans-Serif" font-size="10.00">base/detail/tclap/Values</text>
<text text-anchor="middle" x="230" y="-67" font-family="Helvetica,sans-Serif" font-size="10.00">Constraint.h</text>
</g>
<!-- Node4&#45;&gt;Node17 -->
<g id="edge32" class="edge"><title>Node4&#45;&gt;Node17</title>
<path fill="none" stroke="midnightblue" d="M1273.71,-140.081C1104.06,-136.384 495.454,-121.461 304,-94 302.92,-93.8451 301.833,-93.6815 300.741,-93.51"/>
<polygon fill="midnightblue" stroke="midnightblue" points="301.25,-90.046 290.796,-91.7696 300.043,-96.9412 301.25,-90.046"/>
</g>
<!-- Node4&#45;&gt;Node18 -->
<g id="edge34" class="edge"><title>Node4&#45;&gt;Node18</title>
<path fill="none" stroke="midnightblue" d="M1274,-140.563C1087.42,-138.499 369.739,-128.345 337,-94 325.96,-82.4187 325.929,-69.5516 337,-58 375.186,-18.1553 1236.22,-11.9698 1411.16,-11.1233"/>
<polygon fill="midnightblue" stroke="midnightblue" points="1411.24,-14.623 1421.23,-11.0769 1411.21,-7.62311 1411.24,-14.623"/>
</g>
<!-- Node19 -->
<g id="node37" class="node"><title>Node19</title>
<polygon fill="white" stroke="#bfbfbf" points="904,-65.5 904,-86.5 948,-86.5 948,-65.5 904,-65.5"/>
<text text-anchor="middle" x="926" y="-73.5" font-family="Helvetica,sans-Serif" font-size="10.00">vector</text>
</g>
<!-- Node4&#45;&gt;Node19 -->
<g id="edge36" class="edge"><title>Node4&#45;&gt;Node19</title>
<path fill="none" stroke="midnightblue" d="M1273.99,-137.456C1191.06,-130.421 1014.82,-113.66 957,-94 954.846,-93.2675 952.674,-92.377 950.535,-91.3887"/>
<polygon fill="midnightblue" stroke="midnightblue" points="951.987,-88.1971 941.51,-86.6156 948.714,-94.3849 951.987,-88.1971"/>
</g>
<!-- Node4&#45;&gt;Node20 -->
<g id="edge38" class="edge"><title>Node4&#45;&gt;Node20</title>
<path fill="none" stroke="midnightblue" d="M1362.07,-140.848C1563.64,-139.937 2392.65,-133.783 2501,-94 2502.23,-93.5478 2503.45,-93.0031 2504.64,-92.3893"/>
<polygon fill="midnightblue" stroke="midnightblue" points="2506.78,-95.1707 2513.17,-86.7172 2502.9,-89.3428 2506.78,-95.1707"/>
</g>
<!-- Node21 -->
<g id="node41" class="node"><title>Node21</title>
<polygon fill="white" stroke="#bfbfbf" points="966,-65.5 966,-86.5 1020,-86.5 1020,-65.5 966,-65.5"/>
<text text-anchor="middle" x="993" y="-73.5" font-family="Helvetica,sans-Serif" font-size="10.00">iostream</text>
</g>
<!-- Node4&#45;&gt;Node21 -->
<g id="edge40" class="edge"><title>Node4&#45;&gt;Node21</title>
<path fill="none" stroke="midnightblue" d="M1273.95,-137.991C1216.43,-133.13 1113.17,-121.187 1029,-94 1026.26,-93.114 1023.46,-92.0462 1020.71,-90.8782"/>
<polygon fill="midnightblue" stroke="midnightblue" points="1022.15,-87.6874 1011.6,-86.6394 1019.19,-94.0333 1022.15,-87.6874"/>
</g>
<!-- Node22 -->
<g id="node43" class="node"><title>Node22</title>
<polygon fill="white" stroke="#bfbfbf" points="1038,-65.5 1038,-86.5 1088,-86.5 1088,-65.5 1038,-65.5"/>
<text text-anchor="middle" x="1063" y="-73.5" font-family="Helvetica,sans-Serif" font-size="10.00">iomanip</text>
</g>
<!-- Node4&#45;&gt;Node22 -->
<g id="edge42" class="edge"><title>Node4&#45;&gt;Node22</title>
<path fill="none" stroke="midnightblue" d="M1273.81,-135.29C1228.47,-128.584 1156.36,-115.55 1097,-94 1094.72,-93.1731 1092.41,-92.2191 1090.11,-91.1905"/>
<polygon fill="midnightblue" stroke="midnightblue" points="1091.44,-87.9453 1080.92,-86.6778 1088.36,-94.2282 1091.44,-87.9453"/>
</g>
<!-- Node23 -->
<g id="node45" class="node"><title>Node23</title>
<polygon fill="white" stroke="#bfbfbf" points="2612,-0.5 2612,-21.5 2668,-21.5 2668,-0.5 2612,-0.5"/>
<text text-anchor="middle" x="2640" y="-8.5" font-family="Helvetica,sans-Serif" font-size="10.00">algorithm</text>
</g>
<!-- Node4&#45;&gt;Node23 -->
<g id="edge44" class="edge"><title>Node4&#45;&gt;Node23</title>
<path fill="none" stroke="midnightblue" d="M1362.2,-140.885C1552.57,-140.145 2297.12,-134.656 2393,-94 2414.42,-84.9182 2410.47,-68.9445 2431,-58 2485.88,-28.7443 2558.23,-17.6548 2601.82,-13.4817"/>
<polygon fill="midnightblue" stroke="midnightblue" points="2602.34,-16.9499 2611.99,-12.5842 2601.72,-9.97698 2602.34,-16.9499"/>
</g>
<!-- Node24 -->
<g id="node47" class="node"><title>Node24</title>
<polygon fill="white" stroke="#bfbfbf" points="1106,-65.5 1106,-86.5 1154,-86.5 1154,-65.5 1106,-65.5"/>
<text text-anchor="middle" x="1130" y="-73.5" font-family="Helvetica,sans-Serif" font-size="10.00">stdlib.h</text>
</g>
<!-- Node4&#45;&gt;Node24 -->
<g id="edge46" class="edge"><title>Node4&#45;&gt;Node24</title>
<path fill="none" stroke="midnightblue" d="M1274.74,-130.434C1243.18,-122.117 1199.7,-109.38 1163,-94 1160.95,-93.1392 1158.85,-92.188 1156.77,-91.1858"/>
<polygon fill="midnightblue" stroke="midnightblue" points="1158.32,-88.0478 1147.83,-86.5882 1155.12,-94.2733 1158.32,-88.0478"/>
</g>
<!-- Node25 -->
<g id="node49" class="node"><title>Node25</title>
<polygon fill="white" stroke="#bfbfbf" points="2440,-65.5 2440,-86.5 2492,-86.5 2492,-65.5 2440,-65.5"/>
<text text-anchor="middle" x="2466" y="-73.5" font-family="Helvetica,sans-Serif" font-size="10.00">memory</text>
</g>
<!-- Node4&#45;&gt;Node25 -->
<g id="edge48" class="edge"><title>Node4&#45;&gt;Node25</title>
<path fill="none" stroke="midnightblue" d="M1362.3,-140.112C1555.75,-136.101 2321.38,-118.786 2426,-94 2429.7,-93.1233 2433.48,-91.9037 2437.17,-90.5084"/>
<polygon fill="midnightblue" stroke="midnightblue" points="2438.74,-93.6412 2446.59,-86.5191 2436.01,-87.1952 2438.74,-93.6412"/>
</g>
<!-- Node26&#45;&gt;Node18 -->
<g id="edge54" class="edge"><title>Node26&#45;&gt;Node18</title>
<path fill="none" stroke="midnightblue" d="M2612.42,-130.483C2597.4,-110.004 2563.88,-66.0702 2547,-58 2497.23,-34.2077 1646.26,-15.255 1472.74,-11.6275"/>
<polygon fill="midnightblue" stroke="midnightblue" points="1472.6,-8.12389 1462.53,-11.4154 1472.45,-15.1224 1472.6,-8.12389"/>
</g>
<!-- Node26&#45;&gt;Node20 -->
<g id="edge56" class="edge"><title>Node26&#45;&gt;Node20</title>
<path fill="none" stroke="midnightblue" d="M2604.15,-130.267C2588.64,-119.765 2564.84,-103.652 2547.2,-91.7097"/>
<polygon fill="midnightblue" stroke="midnightblue" points="2548.86,-88.6048 2538.62,-85.8964 2544.93,-94.4012 2548.86,-88.6048"/>
</g>
<!-- Node26&#45;&gt;Node25 -->
<g id="edge52" class="edge"><title>Node26&#45;&gt;Node25</title>
<path fill="none" stroke="midnightblue" d="M2590.81,-130.393C2566.51,-121.344 2531.14,-107.664 2501,-94 2498.98,-93.0832 2496.9,-92.1091 2494.83,-91.1069"/>
<polygon fill="midnightblue" stroke="midnightblue" points="2496.33,-87.9483 2485.82,-86.6252 2493.22,-94.2148 2496.33,-87.9483"/>
</g>
<!-- Node27 -->
<g id="node56" class="node"><title>Node27</title>
<a xlink:href="string_8h.html" target="_top" xlink:title="base/std_ext/string.h">
<polygon fill="white" stroke="black" points="2886,-65.5 2886,-86.5 2994,-86.5 2994,-65.5 2886,-65.5"/>
<text text-anchor="middle" x="2940" y="-73.5" font-family="Helvetica,sans-Serif" font-size="10.00">base/std_ext/string.h</text>
</a>
</g>
<!-- Node26&#45;&gt;Node27 -->
<g id="edge58" class="edge"><title>Node26&#45;&gt;Node27</title>
<path fill="none" stroke="midnightblue" d="M2667.14,-132.501C2738.52,-119.616 2866.84,-96.3742 2877,-94 2883.11,-92.573 2889.5,-90.9259 2895.78,-89.2197"/>
<polygon fill="midnightblue" stroke="midnightblue" points="2896.8,-92.5687 2905.5,-86.513 2894.93,-85.8256 2896.8,-92.5687"/>
</g>
<!-- Node29 -->
<g id="node62" class="node"><title>Node29</title>
<polygon fill="white" stroke="#bfbfbf" points="3011.5,-65.5 3011.5,-86.5 3058.5,-86.5 3058.5,-65.5 3011.5,-65.5"/>
<text text-anchor="middle" x="3035" y="-73.5" font-family="Helvetica,sans-Serif" font-size="10.00">TFile.h</text>
</g>
<!-- Node26&#45;&gt;Node29 -->
<g id="edge66" class="edge"><title>Node26&#45;&gt;Node29</title>
<path fill="none" stroke="midnightblue" d="M2667.24,-132.159C2671.88,-131.387 2676.53,-130.652 2681,-130 2823.49,-109.211 2865.94,-138.185 3003,-94 3005.3,-93.2574 3007.63,-92.3391 3009.92,-91.3136"/>
<polygon fill="midnightblue" stroke="midnightblue" points="3011.67,-94.3471 3018.97,-86.6697 3008.48,-88.1183 3011.67,-94.3471"/>
</g>
<!-- Node26&#45;&gt;Node30 -->
<g id="edge68" class="edge"><title>Node26&#45;&gt;Node30</title>
<path fill="none" stroke="midnightblue" d="M2667.23,-132.073C2671.87,-131.318 2676.52,-130.611 2681,-130 2851.72,-106.69 2899.67,-135.066 3067,-94 3070.95,-93.0318 3075,-91.7706 3078.98,-90.3647"/>
<polygon fill="midnightblue" stroke="midnightblue" points="3080.52,-93.5206 3088.59,-86.6569 3078,-86.9894 3080.52,-93.5206"/>
</g>
<!-- Node31 -->
<g id="node66" class="node"><title>Node31</title>
<polygon fill="white" stroke="#bfbfbf" points="2594,-65.5 2594,-86.5 2646,-86.5 2646,-65.5 2594,-65.5"/>
<text text-anchor="middle" x="2620" y="-73.5" font-family="Helvetica,sans-Serif" font-size="10.00">TError.h</text>
</g>
<!-- Node26&#45;&gt;Node31 -->
<g id="edge70" class="edge"><title>Node26&#45;&gt;Node31</title>
<path fill="none" stroke="midnightblue" d="M2620,-130.267C2620,-121.18 2620,-107.892 2620,-96.7395"/>
<polygon fill="midnightblue" stroke="midnightblue" points="2623.5,-96.5337 2620,-86.5337 2616.5,-96.5337 2623.5,-96.5337"/>
</g>
<!-- Node32 -->
<g id="node68" class="node"><title>Node32</title>
<polygon fill="white" stroke="#bfbfbf" points="2663.5,-65.5 2663.5,-86.5 2710.5,-86.5 2710.5,-65.5 2663.5,-65.5"/>
<text text-anchor="middle" x="2687" y="-73.5" font-family="Helvetica,sans-Serif" font-size="10.00">TList.h</text>
</g>
<!-- Node26&#45;&gt;Node32 -->
<g id="edge72" class="edge"><title>Node26&#45;&gt;Node32</title>
<path fill="none" stroke="midnightblue" d="M2631.06,-130.267C2641.31,-120.328 2656.73,-105.363 2668.79,-93.6645"/>
<polygon fill="midnightblue" stroke="midnightblue" points="2671.4,-96.009 2676.14,-86.5337 2666.53,-90.9848 2671.4,-96.009"/>
</g>
<!-- Node33 -->
<g id="node70" class="node"><title>Node33</title>
<polygon fill="white" stroke="#bfbfbf" points="2728,-65.5 2728,-86.5 2802,-86.5 2802,-65.5 2728,-65.5"/>
<text text-anchor="middle" x="2765" y="-73.5" font-family="Helvetica,sans-Serif" font-size="10.00">TCollection.h</text>
</g>
<!-- Node26&#45;&gt;Node33 -->
<g id="edge74" class="edge"><title>Node26&#45;&gt;Node33</title>
<path fill="none" stroke="midnightblue" d="M2643.62,-130.412C2667.63,-119.647 2705.04,-102.878 2731.98,-90.8009"/>
<polygon fill="midnightblue" stroke="midnightblue" points="2733.7,-93.8679 2741.39,-86.5835 2730.83,-87.4803 2733.7,-93.8679"/>
</g>
<!-- Node34 -->
<g id="node72" class="node"><title>Node34</title>
<polygon fill="white" stroke="#bfbfbf" points="2820,-65.5 2820,-86.5 2868,-86.5 2868,-65.5 2820,-65.5"/>
<text text-anchor="middle" x="2844" y="-73.5" font-family="Helvetica,sans-Serif" font-size="10.00">TKey.h</text>
</g>
<!-- Node26&#45;&gt;Node34 -->
<g id="edge76" class="edge"><title>Node26&#45;&gt;Node34</title>
<path fill="none" stroke="midnightblue" d="M2667.03,-130.886C2714.72,-120.373 2785.06,-104.072 2811,-94 2813.13,-93.1748 2815.29,-92.2397 2817.43,-91.2398"/>
<polygon fill="midnightblue" stroke="midnightblue" points="2819.26,-94.2348 2826.59,-86.5836 2816.09,-87.9945 2819.26,-94.2348"/>
</g>
<!-- Node27&#45;&gt;Node18 -->
<g id="edge60" class="edge"><title>Node27&#45;&gt;Node18</title>
<path fill="none" stroke="midnightblue" d="M2908.94,-65.4881C2898.86,-62.523 2887.56,-59.6562 2877,-58 2733.95,-35.5719 1668.4,-15.1378 1472.8,-11.5547"/>
<polygon fill="midnightblue" stroke="midnightblue" points="1472.71,-8.05264 1462.65,-11.3697 1472.58,-15.0515 1472.71,-8.05264"/>
</g>
<!-- Node27&#45;&gt;Node23 -->
<g id="edge64" class="edge"><title>Node27&#45;&gt;Node23</title>
<path fill="none" stroke="midnightblue" d="M2905.15,-65.4869C2896.03,-62.8886 2886.18,-60.2171 2877,-58 2807.44,-41.1959 2725.34,-25.9162 2678.31,-17.5917"/>
<polygon fill="midnightblue" stroke="midnightblue" points="2678.71,-14.1093 2668.26,-15.8246 2677.5,-21.0036 2678.71,-14.1093"/>
</g>
<!-- Node28 -->
<g id="node59" class="node"><title>Node28</title>
<polygon fill="white" stroke="#bfbfbf" points="2914,-0.5 2914,-21.5 2966,-21.5 2966,-0.5 2914,-0.5"/>
<text text-anchor="middle" x="2940" y="-8.5" font-family="Helvetica,sans-Serif" font-size="10.00">sstream</text>
</g>
<!-- Node27&#45;&gt;Node28 -->
<g id="edge62" class="edge"><title>Node27&#45;&gt;Node28</title>
<path fill="none" stroke="midnightblue" d="M2940,-65.2666C2940,-56.1799 2940,-42.8919 2940,-31.7395"/>
<polygon fill="midnightblue" stroke="midnightblue" points="2943.5,-31.5337 2940,-21.5337 2936.5,-31.5337 2943.5,-31.5337"/>
</g>
</g>
</svg>
