<?xml version="1.0" encoding="UTF-8" standalone="no"?>
<!DOCTYPE svg PUBLIC "-//W3C//DTD SVG 1.1//EN"
 "http://www.w3.org/Graphics/SVG/1.1/DTD/svg11.dtd">
<!-- Generated by graphviz version 2.26.3 (20100126.1600)
 -->
<!-- Title: progs/Ant&#45;addTID.cc Pages: 1 -->
<svg width="274pt" height="160pt"
 viewBox="0.00 0.00 274.00 160.00" xmlns="http://www.w3.org/2000/svg" xmlns:xlink="http://www.w3.org/1999/xlink">
<g id="graph1" class="graph" transform="scale(1 1) rotate(0) translate(4 156)">
<title>progs/Ant&#45;addTID.cc</title>
<polygon fill="white" stroke="white" points="-4,5 -4,-156 271,-156 271,5 -4,5"/>
<!-- Node1 -->
<g id="node1" class="node"><title>Node1</title>
<polygon fill="#bfbfbf" stroke="black" points="101.5,-130.5 101.5,-151.5 208.5,-151.5 208.5,-130.5 101.5,-130.5"/>
<text text-anchor="middle" x="155" y="-138.5" font-family="Helvetica,sans-Serif" font-size="10.00">progs/Ant&#45;addTID.cc</text>
</g>
<!-- Node2 -->
<g id="node3" class="node"><title>Node2</title>
<a xlink:href="_pluto_t_i_d_8h.html" target="_top" xlink:title="simulation/mc/utils\l/PlutoTID.h">
<polygon fill="white" stroke="black" points="0,-59 0,-93 98,-93 98,-59 0,-59"/>
<text text-anchor="start" x="8" y="-80" font-family="Helvetica,sans-Serif" font-size="10.00">simulation/mc/utils</text>
<text text-anchor="middle" x="49" y="-67" font-family="Helvetica,sans-Serif" font-size="10.00">/PlutoTID.h</text>
</a>
</g>
<!-- Node1&#45;&gt;Node2 -->
<g id="edge2" class="edge"><title>Node1&#45;&gt;Node2</title>
<path fill="none" stroke="midnightblue" d="M137.496,-130.267C123.475,-121.669 103.321,-109.31 85.7865,-98.5577"/>
<polygon fill="midnightblue" stroke="midnightblue" points="87.2567,-95.3537 76.9022,-93.1099 83.5975,-101.321 87.2567,-95.3537"/>
</g>
<!-- Node4 -->
<g id="node7" class="node"><title>Node4</title>
<a xlink:href="_logger_8h.html" target="_top" xlink:title="base/Logger.h">
<polygon fill="white" stroke="black" points="116,-65.5 116,-86.5 194,-86.5 194,-65.5 116,-65.5"/>
<text text-anchor="middle" x="155" y="-73.5" font-family="Helvetica,sans-Serif" font-size="10.00">base/Logger.h</text>
</a>
</g>
<!-- Node1&#45;&gt;Node4 -->
<g id="edge6" class="edge"><title>Node1&#45;&gt;Node4</title>
<path fill="none" stroke="midnightblue" d="M155,-130.267C155,-121.18 155,-107.892 155,-96.7395"/>
<polygon fill="midnightblue" stroke="midnightblue" points="158.5,-96.5337 155,-86.5337 151.5,-96.5337 158.5,-96.5337"/>
</g>
<!-- Node6 -->
<g id="node11" class="node"><title>Node6</title>
<polygon fill="white" stroke="#bfbfbf" points="212,-65.5 212,-86.5 266,-86.5 266,-65.5 212,-65.5"/>
<text text-anchor="middle" x="239" y="-73.5" font-family="Helvetica,sans-Serif" font-size="10.00">iostream</text>
</g>
<!-- Node1&#45;&gt;Node6 -->
<g id="edge10" class="edge"><title>Node1&#45;&gt;Node6</title>
<path fill="none" stroke="midnightblue" d="M168.871,-130.267C182.082,-120.044 202.164,-104.504 217.457,-92.6699"/>
<polygon fill="midnightblue" stroke="midnightblue" points="219.62,-95.4216 225.387,-86.5337 215.337,-89.8855 219.62,-95.4216"/>
</g>
<!-- Node3 -->
<g id="node5" class="node"><title>Node3</title>
<polygon fill="white" stroke="#bfbfbf" points="28.5,-0.5 28.5,-21.5 69.5,-21.5 69.5,-0.5 28.5,-0.5"/>
<text text-anchor="middle" x="49" y="-8.5" font-family="Helvetica,sans-Serif" font-size="10.00">string</text>
</g>
<!-- Node2&#45;&gt;Node3 -->
<g id="edge4" class="edge"><title>Node2&#45;&gt;Node3</title>
<path fill="none" stroke="midnightblue" d="M49,-58.922C49,-50.6704 49,-40.6922 49,-31.9818"/>
<polygon fill="midnightblue" stroke="midnightblue" points="52.5001,-31.8521 49,-21.8521 45.5001,-31.8521 52.5001,-31.8521"/>
</g>
<!-- Node5 -->
<g id="node9" class="node"><title>Node5</title>
<polygon fill="white" stroke="#bfbfbf" points="97.5,-0.5 97.5,-21.5 212.5,-21.5 212.5,-0.5 97.5,-0.5"/>
<text text-anchor="middle" x="155" y="-8.5" font-family="Helvetica,sans-Serif" font-size="10.00">detail/easylogging++.h</text>
</g>
<!-- Node4&#45;&gt;Node5 -->
<g id="edge8" class="edge"><title>Node4&#45;&gt;Node5</title>
<path fill="none" stroke="midnightblue" d="M155,-65.2666C155,-56.1799 155,-42.8919 155,-31.7395"/>
<polygon fill="midnightblue" stroke="midnightblue" points="158.5,-31.5337 155,-21.5337 151.5,-31.5337 158.5,-31.5337"/>
</g>
</g>
</svg>
