<?xml version="1.0" encoding="UTF-8" standalone="no"?>
<!DOCTYPE svg PUBLIC "-//W3C//DTD SVG 1.1//EN"
 "http://www.w3.org/Graphics/SVG/1.1/DTD/svg11.dtd">
<!-- Generated by graphviz version 2.26.3 (20100126.1600)
 -->
<!-- Title: src/analysis/physics/misc/Basic.cc Pages: 1 -->
<svg width="1574pt" height="392pt"
 viewBox="0.00 0.00 1573.65 392.00" xmlns="http://www.w3.org/2000/svg" xmlns:xlink="http://www.w3.org/1999/xlink">
<g id="graph1" class="graph" transform="scale(1 1) rotate(0) translate(4 388)">
<title>src/analysis/physics/misc/Basic.cc</title>
<polygon fill="white" stroke="white" points="-4,5 -4,-388 1570.65,-388 1570.65,5 -4,5"/>
<!-- Node1 -->
<g id="node1" class="node"><title>Node1</title>
<polygon fill="#bfbfbf" stroke="black" points="523,-349 523,-383 629,-383 629,-349 523,-349"/>
<text text-anchor="start" x="531" y="-370" font-family="Helvetica,sans-Serif" font-size="10.00">src/analysis/physics</text>
<text text-anchor="middle" x="576" y="-357" font-family="Helvetica,sans-Serif" font-size="10.00">/misc/Basic.cc</text>
</g>
<!-- Node2 -->
<g id="node3" class="node"><title>Node2</title>
<a xlink:href="_basic_8h.html" target="_top" xlink:title="Basic.h">
<polygon fill="white" stroke="black" points="62,-116.5 62,-137.5 112,-137.5 112,-116.5 62,-116.5"/>
<text text-anchor="middle" x="87" y="-124.5" font-family="Helvetica,sans-Serif" font-size="10.00">Basic.h</text>
</a>
</g>
<!-- Node1&#45;&gt;Node2 -->
<g id="edge2" class="edge"><title>Node1&#45;&gt;Node2</title>
<path fill="none" stroke="midnightblue" d="M522.791,-361.542C442.767,-354.113 295.906,-337.458 250,-312 176.838,-271.427 120.384,-184.981 97.7674,-146.35"/>
<polygon fill="midnightblue" stroke="midnightblue" points="100.769,-144.549 92.757,-137.616 94.6971,-148.032 100.769,-144.549"/>
</g>
<!-- Node4 -->
<g id="node7" class="node"><title>Node4</title>
<polygon fill="white" stroke="#bfbfbf" points="625,-0.5 625,-21.5 669,-21.5 669,-0.5 625,-0.5"/>
<text text-anchor="middle" x="647" y="-8.5" font-family="Helvetica,sans-Serif" font-size="10.00">vector</text>
</g>
<!-- Node1&#45;&gt;Node4 -->
<g id="edge136" class="edge"><title>Node1&#45;&gt;Node4</title>
<path fill="none" stroke="midnightblue" d="M579.177,-348.957C583.307,-325.278 590,-281.041 590,-243 590,-243 590,-243 590,-127 590,-89.5289 614.254,-51.5841 631.12,-29.7281"/>
<polygon fill="midnightblue" stroke="midnightblue" points="634.067,-31.6467 637.588,-21.6538 628.604,-27.2705 634.067,-31.6467"/>
</g>
<!-- Node6 -->
<g id="node11" class="node"><title>Node6</title>
<a xlink:href="_particle_8h.html" target="_top" xlink:title="Particle.h">
<polygon fill="white" stroke="black" points="785,-290.5 785,-311.5 843,-311.5 843,-290.5 785,-290.5"/>
<text text-anchor="middle" x="814" y="-298.5" font-family="Helvetica,sans-Serif" font-size="10.00">Particle.h</text>
</a>
</g>
<!-- Node1&#45;&gt;Node6 -->
<g id="edge10" class="edge"><title>Node1&#45;&gt;Node6</title>
<path fill="none" stroke="midnightblue" d="M629.116,-351.494C673.352,-339.412 735.325,-322.487 775.07,-311.632"/>
<polygon fill="midnightblue" stroke="midnightblue" points="776.193,-314.954 784.917,-308.943 774.349,-308.201 776.193,-314.954"/>
</g>
<!-- Node15 -->
<g id="node31" class="node"><title>Node15</title>
<polygon fill="white" stroke="#bfbfbf" points="409.5,-58.5 409.5,-79.5 450.5,-79.5 450.5,-58.5 409.5,-58.5"/>
<text text-anchor="middle" x="430" y="-66.5" font-family="Helvetica,sans-Serif" font-size="10.00">string</text>
</g>
<!-- Node1&#45;&gt;Node15 -->
<g id="edge130" class="edge"><title>Node1&#45;&gt;Node15</title>
<path fill="none" stroke="midnightblue" d="M522.841,-354.704C439.625,-335.47 288,-293.495 288,-243 288,-243 288,-243 288,-185 288,-153.192 285.617,-139.548 307,-116 307.415,-115.543 363.284,-94.299 399.574,-80.5316"/>
<polygon fill="midnightblue" stroke="midnightblue" points="401.119,-83.6889 409.228,-76.8702 398.637,-77.1438 401.119,-83.6889"/>
</g>
<!-- Node27 -->
<g id="node73" class="node"><title>Node27</title>
<polygon fill="white" stroke="#bfbfbf" points="899,-290.5 899,-311.5 949,-311.5 949,-290.5 899,-290.5"/>
<text text-anchor="middle" x="924" y="-298.5" font-family="Helvetica,sans-Serif" font-size="10.00">Track.h</text>
</g>
<!-- Node1&#45;&gt;Node27 -->
<g id="edge92" class="edge"><title>Node1&#45;&gt;Node27</title>
<path fill="none" stroke="midnightblue" d="M629.089,-358.406C690.909,-349.175 795.927,-332.289 885,-312 886.273,-311.71 887.567,-311.404 888.871,-311.086"/>
<polygon fill="midnightblue" stroke="midnightblue" points="890.12,-314.378 898.921,-308.479 888.363,-307.603 890.12,-314.378"/>
</g>
<!-- Node28 -->
<g id="node75" class="node"><title>Node28</title>
<a xlink:href="_histogram_8h.html" target="_top" xlink:title="plot/Histogram.h">
<polygon fill="white" stroke="black" points="171.5,-174.5 171.5,-195.5 260.5,-195.5 260.5,-174.5 171.5,-174.5"/>
<text text-anchor="middle" x="216" y="-182.5" font-family="Helvetica,sans-Serif" font-size="10.00">plot/Histogram.h</text>
</a>
</g>
<!-- Node1&#45;&gt;Node28 -->
<g id="edge94" class="edge"><title>Node1&#45;&gt;Node28</title>
<path fill="none" stroke="midnightblue" d="M522.918,-362.392C446.912,-356.262 312.037,-341.5 274,-312 239.844,-285.509 225.129,-234.299 219.345,-205.663"/>
<polygon fill="midnightblue" stroke="midnightblue" points="222.739,-204.766 217.489,-195.563 215.854,-206.031 222.739,-204.766"/>
</g>
<!-- Node32 -->
<g id="node89" class="node"><title>Node32</title>
<a xlink:href="root__draw_8h.html" target="_top" xlink:title="plot/root_draw.h">
<polygon fill="white" stroke="black" points="449,-174.5 449,-195.5 535,-195.5 535,-174.5 449,-174.5"/>
<text text-anchor="middle" x="492" y="-182.5" font-family="Helvetica,sans-Serif" font-size="10.00">plot/root_draw.h</text>
</a>
</g>
<!-- Node1&#45;&gt;Node32 -->
<g id="edge114" class="edge"><title>Node1&#45;&gt;Node32</title>
<path fill="none" stroke="midnightblue" d="M568.097,-348.972C552.56,-315.492 518.097,-241.232 501.413,-205.282"/>
<polygon fill="midnightblue" stroke="midnightblue" points="504.411,-203.429 497.027,-195.832 498.062,-206.376 504.411,-203.429"/>
</g>
<!-- Node33 -->
<g id="node96" class="node"><title>Node33</title>
<polygon fill="white" stroke="#bfbfbf" points="315.5,-116.5 315.5,-137.5 374.5,-137.5 374.5,-116.5 315.5,-116.5"/>
<text text-anchor="middle" x="345" y="-124.5" font-family="Helvetica,sans-Serif" font-size="10.00">functional</text>
</g>
<!-- Node1&#45;&gt;Node33 -->
<g id="edge140" class="edge"><title>Node1&#45;&gt;Node33</title>
<path fill="none" stroke="midnightblue" d="M559.387,-348.812C517.033,-304.991 405.329,-189.419 362.269,-144.867"/>
<polygon fill="midnightblue" stroke="midnightblue" points="364.751,-142.399 355.285,-137.641 359.718,-147.264 364.751,-142.399"/>
</g>
<!-- Node35 -->
<g id="node101" class="node"><title>Node35</title>
<a xlink:href="combinatorics_8h.html" target="_top" xlink:title="utils/combinatorics.h">
<polygon fill="white" stroke="black" points="1105.5,-232.5 1105.5,-253.5 1212.5,-253.5 1212.5,-232.5 1105.5,-232.5"/>
<text text-anchor="middle" x="1159" y="-240.5" font-family="Helvetica,sans-Serif" font-size="10.00">utils/combinatorics.h</text>
</a>
</g>
<!-- Node1&#45;&gt;Node35 -->
<g id="edge132" class="edge"><title>Node1&#45;&gt;Node35</title>
<path fill="none" stroke="midnightblue" d="M629.048,-360.899C685.689,-354.252 777.374,-340.004 852,-312 870.271,-305.144 871.661,-296.671 890,-290 899.62,-286.5 1018.74,-266.323 1095.2,-253.569"/>
<polygon fill="midnightblue" stroke="midnightblue" points="1095.94,-256.995 1105.23,-251.899 1094.79,-250.09 1095.94,-256.995"/>
</g>
<!-- Node36 -->
<g id="node105" class="node"><title>Node36</title>
<polygon fill="white" stroke="#bfbfbf" points="966.5,-290.5 966.5,-311.5 1017.5,-311.5 1017.5,-290.5 966.5,-290.5"/>
<text text-anchor="middle" x="992" y="-298.5" font-family="Helvetica,sans-Serif" font-size="10.00">numeric</text>
</g>
<!-- Node1&#45;&gt;Node36 -->
<g id="edge138" class="edge"><title>Node1&#45;&gt;Node36</title>
<path fill="none" stroke="midnightblue" d="M629.05,-361.418C701.35,-354.532 834.877,-339.536 956.303,-312.129"/>
<polygon fill="midnightblue" stroke="midnightblue" points="957.175,-315.52 966.14,-309.875 955.611,-308.697 957.175,-315.52"/>
</g>
<!-- Node3 -->
<g id="node5" class="node"><title>Node3</title>
<polygon fill="white" stroke="#bfbfbf" points="-0.5,-58.5 -0.5,-79.5 74.5,-79.5 74.5,-58.5 -0.5,-58.5"/>
<text text-anchor="middle" x="37" y="-66.5" font-family="Helvetica,sans-Serif" font-size="10.00">AntPhysics.h</text>
</g>
<!-- Node2&#45;&gt;Node3 -->
<g id="edge4" class="edge"><title>Node2&#45;&gt;Node3</title>
<path fill="none" stroke="midnightblue" d="M77.8292,-116.362C70.8516,-108.268 61.0792,-96.9318 52.8445,-87.3796"/>
<polygon fill="midnightblue" stroke="midnightblue" points="55.293,-84.8595 46.1126,-79.5707 49.9911,-89.4301 55.293,-84.8595"/>
</g>
<!-- Node2&#45;&gt;Node4 -->
<g id="edge6" class="edge"><title>Node2&#45;&gt;Node4</title>
<path fill="none" stroke="midnightblue" d="M89.6177,-116.441C94.1235,-100.726 104.958,-71.5808 126,-58 167.036,-31.5144 506.973,-16.3541 614.514,-12.187"/>
<polygon fill="midnightblue" stroke="midnightblue" points="614.891,-15.6752 624.75,-11.7965 614.624,-8.68031 614.891,-15.6752"/>
</g>
<!-- Node5 -->
<g id="node9" class="node"><title>Node5</title>
<polygon fill="white" stroke="#bfbfbf" points="357.5,-58.5 357.5,-79.5 392.5,-79.5 392.5,-58.5 357.5,-58.5"/>
<text text-anchor="middle" x="375" y="-66.5" font-family="Helvetica,sans-Serif" font-size="10.00">map</text>
</g>
<!-- Node2&#45;&gt;Node5 -->
<g id="edge8" class="edge"><title>Node2&#45;&gt;Node5</title>
<path fill="none" stroke="midnightblue" d="M112.054,-121.954C165.795,-111.132 291.778,-85.7599 347.575,-74.5232"/>
<polygon fill="midnightblue" stroke="midnightblue" points="348.338,-77.9399 357.45,-72.5344 346.956,-71.0776 348.338,-77.9399"/>
</g>
<!-- Node6&#45;&gt;Node4 -->
<g id="edge84" class="edge"><title>Node6&#45;&gt;Node4</title>
<path fill="none" stroke="midnightblue" d="M784.938,-296.575C732.625,-286.785 628,-258.069 628,-185 628,-185 628,-185 628,-127 628,-93.175 635.965,-54.5229 641.581,-31.474"/>
<polygon fill="midnightblue" stroke="midnightblue" points="644.974,-32.3312 644.031,-21.7784 638.188,-30.6159 644.974,-32.3312"/>
</g>
<!-- Node7 -->
<g id="node13" class="node"><title>Node7</title>
<a xlink:href="_candidate_8h.html" target="_top" xlink:title="analysis/data/Candidate.h">
<polygon fill="white" stroke="black" points="1230,-232.5 1230,-253.5 1360,-253.5 1360,-232.5 1230,-232.5"/>
<text text-anchor="middle" x="1295" y="-240.5" font-family="Helvetica,sans-Serif" font-size="10.00">analysis/data/Candidate.h</text>
</a>
</g>
<!-- Node6&#45;&gt;Node7 -->
<g id="edge12" class="edge"><title>Node6&#45;&gt;Node7</title>
<path fill="none" stroke="midnightblue" d="M843.2,-296.527C857.321,-294.427 874.525,-291.961 890,-290 1033.51,-271.816 1072.49,-272.826 1219.35,-254.174"/>
<polygon fill="midnightblue" stroke="midnightblue" points="1220.17,-257.597 1229.65,-252.856 1219.29,-250.654 1220.17,-257.597"/>
</g>
<!-- Node8 -->
<g id="node15" class="node"><title>Node8</title>
<a xlink:href="printable_8h.html" target="_top" xlink:title="base/printable.h">
<polygon fill="white" stroke="black" points="1191,-58.5 1191,-79.5 1277,-79.5 1277,-58.5 1191,-58.5"/>
<text text-anchor="middle" x="1234" y="-66.5" font-family="Helvetica,sans-Serif" font-size="10.00">base/printable.h</text>
</a>
</g>
<!-- Node6&#45;&gt;Node8 -->
<g id="edge56" class="edge"><title>Node6&#45;&gt;Node8</title>
<path fill="none" stroke="midnightblue" d="M843.282,-291.455C844.877,-290.958 846.457,-290.47 848,-290 903.715,-273.034 921.516,-279.247 974,-254 1072.32,-206.706 1173.23,-122.698 1214.56,-86.4484"/>
<polygon fill="midnightblue" stroke="midnightblue" points="1217.06,-88.9096 1222.24,-79.6641 1212.43,-83.6651 1217.06,-88.9096"/>
</g>
<!-- Node10 -->
<g id="node20" class="node"><title>Node10</title>
<a xlink:href="types_8h.html" target="_top" xlink:title="base/types.h">
<polygon fill="white" stroke="black" points="948.5,-58.5 948.5,-79.5 1021.5,-79.5 1021.5,-58.5 948.5,-58.5"/>
<text text-anchor="middle" x="985" y="-66.5" font-family="Helvetica,sans-Serif" font-size="10.00">base/types.h</text>
</a>
</g>
<!-- Node6&#45;&gt;Node10 -->
<g id="edge58" class="edge"><title>Node6&#45;&gt;Node10</title>
<path fill="none" stroke="midnightblue" d="M843.163,-291.274C881.255,-278.496 943.646,-257.285 948,-254 996.626,-217.31 1005.81,-196.99 1021,-138 1023.44,-128.531 1024.14,-125.26 1021,-116 1017.39,-105.341 1010.28,-95.2015 1003.33,-87.0872"/>
<polygon fill="midnightblue" stroke="midnightblue" points="1005.9,-84.712 996.56,-79.7037 1000.74,-89.4411 1005.9,-84.712"/>
</g>
<!-- Node18 -->
<g id="node39" class="node"><title>Node18</title>
<polygon fill="white" stroke="#bfbfbf" points="983.5,-116.5 983.5,-137.5 1012.5,-137.5 1012.5,-116.5 983.5,-116.5"/>
<text text-anchor="middle" x="998" y="-124.5" font-family="Helvetica,sans-Serif" font-size="10.00">list</text>
</g>
<!-- Node6&#45;&gt;Node18 -->
<g id="edge86" class="edge"><title>Node6&#45;&gt;Node18</title>
<path fill="none" stroke="midnightblue" d="M843.091,-290.631C871.091,-280.289 911.037,-264.475 924,-254 959.376,-225.415 981.362,-175.074 991.456,-147.126"/>
<polygon fill="midnightblue" stroke="midnightblue" points="994.788,-148.198 994.745,-137.603 988.172,-145.913 994.788,-148.198"/>
</g>
<!-- Node20 -->
<g id="node46" class="node"><title>Node20</title>
<polygon fill="white" stroke="#bfbfbf" points="778,-116.5 778,-137.5 830,-137.5 830,-116.5 778,-116.5"/>
<text text-anchor="middle" x="804" y="-124.5" font-family="Helvetica,sans-Serif" font-size="10.00">memory</text>
</g>
<!-- Node6&#45;&gt;Node20 -->
<g id="edge90" class="edge"><title>Node6&#45;&gt;Node20</title>
<path fill="none" stroke="midnightblue" d="M813.39,-290.377C811.775,-262.293 807.372,-185.673 805.219,-148.203"/>
<polygon fill="midnightblue" stroke="midnightblue" points="808.696,-147.71 804.628,-137.928 801.708,-148.112 808.696,-147.71"/>
</g>
<!-- Node21 -->
<g id="node51" class="node"><title>Node21</title>
<a xlink:href="_particle_type_8h.html" target="_top" xlink:title="base/ParticleType.h">
<polygon fill="white" stroke="black" points="656,-116.5 656,-137.5 760,-137.5 760,-116.5 656,-116.5"/>
<text text-anchor="middle" x="708" y="-124.5" font-family="Helvetica,sans-Serif" font-size="10.00">base/ParticleType.h</text>
</a>
</g>
<!-- Node6&#45;&gt;Node21 -->
<g id="edge60" class="edge"><title>Node6&#45;&gt;Node21</title>
<path fill="none" stroke="midnightblue" d="M784.945,-294.491C750.632,-286.148 696.721,-270.745 685,-254 662.227,-221.465 682.01,-173.107 696.34,-146.43"/>
<polygon fill="midnightblue" stroke="midnightblue" points="699.426,-148.082 701.284,-137.652 693.327,-144.647 699.426,-148.082"/>
</g>
<!-- Node23 -->
<g id="node60" class="node"><title>Node23</title>
<a xlink:href="_tree_8h.html" target="_top" xlink:title="base/Tree.h">
<polygon fill="white" stroke="black" points="888,-174.5 888,-195.5 956,-195.5 956,-174.5 888,-174.5"/>
<text text-anchor="middle" x="922" y="-182.5" font-family="Helvetica,sans-Serif" font-size="10.00">base/Tree.h</text>
</a>
</g>
<!-- Node6&#45;&gt;Node23 -->
<g id="edge74" class="edge"><title>Node6&#45;&gt;Node23</title>
<path fill="none" stroke="midnightblue" d="M843.193,-292.985C863.445,-285.944 889.474,-273.686 905,-254 915.837,-240.259 919.884,-220.562 921.338,-205.728"/>
<polygon fill="midnightblue" stroke="midnightblue" points="924.846,-205.72 922.015,-195.511 917.862,-205.258 924.846,-205.72"/>
</g>
<!-- Node25 -->
<g id="node66" class="node"><title>Node25</title>
<polygon fill="white" stroke="#bfbfbf" points="694,-232.5 694,-253.5 786,-253.5 786,-232.5 694,-232.5"/>
<text text-anchor="middle" x="740" y="-240.5" font-family="Helvetica,sans-Serif" font-size="10.00">TLorentzVector.h</text>
</g>
<!-- Node6&#45;&gt;Node25 -->
<g id="edge82" class="edge"><title>Node6&#45;&gt;Node25</title>
<path fill="none" stroke="midnightblue" d="M800.427,-290.362C789.579,-281.859 774.166,-269.779 761.621,-259.947"/>
<polygon fill="midnightblue" stroke="midnightblue" points="763.516,-256.985 753.487,-253.571 759.198,-262.494 763.516,-256.985"/>
</g>
<!-- Node26 -->
<g id="node70" class="node"><title>Node26</title>
<polygon fill="white" stroke="#bfbfbf" points="842,-232.5 842,-253.5 896,-253.5 896,-232.5 842,-232.5"/>
<text text-anchor="middle" x="869" y="-240.5" font-family="Helvetica,sans-Serif" font-size="10.00">iostream</text>
</g>
<!-- Node6&#45;&gt;Node26 -->
<g id="edge88" class="edge"><title>Node6&#45;&gt;Node26</title>
<path fill="none" stroke="midnightblue" d="M824.088,-290.362C831.841,-282.186 842.73,-270.702 851.845,-261.091"/>
<polygon fill="midnightblue" stroke="midnightblue" points="854.635,-263.235 858.976,-253.571 849.555,-258.419 854.635,-263.235"/>
</g>
<!-- Node7&#45;&gt;Node4 -->
<g id="edge54" class="edge"><title>Node7&#45;&gt;Node4</title>
<path fill="none" stroke="midnightblue" d="M1285.43,-232.198C1255.53,-199.281 1159.72,-99.9189 1057,-58 988.455,-30.0286 763.388,-16.589 679.179,-12.4475"/>
<polygon fill="midnightblue" stroke="midnightblue" points="679.328,-8.95067 669.171,-11.9667 678.992,-15.9426 679.328,-8.95067"/>
</g>
<!-- Node7&#45;&gt;Node8 -->
<g id="edge14" class="edge"><title>Node7&#45;&gt;Node8</title>
<path fill="none" stroke="midnightblue" d="M1289.43,-232.244C1279.94,-213.535 1260.54,-173.592 1249,-138 1243.87,-122.173 1239.96,-103.734 1237.42,-89.9014"/>
<polygon fill="midnightblue" stroke="midnightblue" points="1240.85,-89.1824 1235.68,-79.933 1233.96,-90.3858 1240.85,-89.1824"/>
</g>
<!-- Node9 -->
<g id="node18" class="node"><title>Node9</title>
<polygon fill="white" stroke="#bfbfbf" points="1208,-0.5 1208,-21.5 1260,-21.5 1260,-0.5 1208,-0.5"/>
<text text-anchor="middle" x="1234" y="-8.5" font-family="Helvetica,sans-Serif" font-size="10.00">ostream</text>
</g>
<!-- Node7&#45;&gt;Node9 -->
<g id="edge50" class="edge"><title>Node7&#45;&gt;Node9</title>
<path fill="none" stroke="midnightblue" d="M1352.15,-232.497C1396.52,-223.511 1453.64,-209.864 1473,-196 1530.1,-155.107 1595.87,-111.191 1550,-58 1531.89,-36.9953 1349.17,-20.1215 1270.12,-13.7462"/>
<polygon fill="midnightblue" stroke="midnightblue" points="1270.38,-10.2552 1260.13,-12.9516 1269.82,-17.2332 1270.38,-10.2552"/>
</g>
<!-- Node7&#45;&gt;Node10 -->
<g id="edge20" class="edge"><title>Node7&#45;&gt;Node10</title>
<path fill="none" stroke="midnightblue" d="M1263.95,-232.453C1239.92,-223.837 1206.12,-210.713 1178,-196 1160.64,-186.917 1057.33,-117.706 1009.4,-85.4504"/>
<polygon fill="midnightblue" stroke="midnightblue" points="1011.11,-82.3826 1000.86,-79.7005 1007.2,-88.189 1011.11,-82.3826"/>
</g>
<!-- Node11 -->
<g id="node22" class="node"><title>Node11</title>
<a xlink:href="_detector__t_8h.html" target="_top" xlink:title="base/Detector_t.h">
<polygon fill="white" stroke="black" points="1257.5,-116.5 1257.5,-137.5 1352.5,-137.5 1352.5,-116.5 1257.5,-116.5"/>
<text text-anchor="middle" x="1305" y="-124.5" font-family="Helvetica,sans-Serif" font-size="10.00">base/Detector_t.h</text>
</a>
</g>
<!-- Node7&#45;&gt;Node11 -->
<g id="edge22" class="edge"><title>Node7&#45;&gt;Node11</title>
<path fill="none" stroke="midnightblue" d="M1295.92,-232.295C1297.57,-213.131 1301.06,-172.654 1303.2,-147.843"/>
<polygon fill="midnightblue" stroke="midnightblue" points="1306.71,-147.943 1304.08,-137.679 1299.73,-147.342 1306.71,-147.943"/>
</g>
<!-- Node12 -->
<g id="node25" class="node"><title>Node12</title>
<polygon fill="white" stroke="#bfbfbf" points="1476.5,-58.5 1476.5,-79.5 1541.5,-79.5 1541.5,-58.5 1476.5,-58.5"/>
<text text-anchor="middle" x="1509" y="-66.5" font-family="Helvetica,sans-Serif" font-size="10.00">TVector3.h</text>
</g>
<!-- Node7&#45;&gt;Node12 -->
<g id="edge48" class="edge"><title>Node7&#45;&gt;Node12</title>
<path fill="none" stroke="midnightblue" d="M1360.13,-232.54C1388.96,-225.609 1422.13,-214.288 1448,-196 1474.2,-177.474 1477.14,-166.942 1491,-138 1498.34,-122.669 1502.99,-103.936 1505.71,-89.8596"/>
<polygon fill="midnightblue" stroke="midnightblue" points="1509.21,-90.1795 1507.51,-79.7228 1502.32,-88.9605 1509.21,-90.1795"/>
</g>
<!-- Node17 -->
<g id="node36" class="node"><title>Node17</title>
<a xlink:href="_cluster_8h.html" target="_top" xlink:title="analysis/data/Cluster.h">
<polygon fill="white" stroke="black" points="1322.5,-174.5 1322.5,-195.5 1439.5,-195.5 1439.5,-174.5 1322.5,-174.5"/>
<text text-anchor="middle" x="1381" y="-182.5" font-family="Helvetica,sans-Serif" font-size="10.00">analysis/data/Cluster.h</text>
</a>
</g>
<!-- Node7&#45;&gt;Node17 -->
<g id="edge38" class="edge"><title>Node7&#45;&gt;Node17</title>
<path fill="none" stroke="midnightblue" d="M1310.77,-232.362C1323.62,-223.696 1341.98,-211.313 1356.71,-201.382"/>
<polygon fill="midnightblue" stroke="midnightblue" points="1358.99,-204.064 1365.33,-195.571 1355.08,-198.26 1358.99,-204.064"/>
</g>
<!-- Node7&#45;&gt;Node20 -->
<g id="edge52" class="edge"><title>Node7&#45;&gt;Node20</title>
<path fill="none" stroke="midnightblue" d="M1229.65,-233.131C1226.73,-232.739 1223.83,-232.36 1221,-232 1069.38,-212.759 1018.29,-258.924 879,-196 854.01,-184.711 831.79,-161.801 818.144,-145.479"/>
<polygon fill="midnightblue" stroke="midnightblue" points="820.824,-143.226 811.821,-137.64 815.376,-147.621 820.824,-143.226"/>
</g>
<!-- Node8&#45;&gt;Node4 -->
<g id="edge16" class="edge"><title>Node8&#45;&gt;Node4</title>
<path fill="none" stroke="midnightblue" d="M1190.94,-59.4731C1187.92,-58.9341 1184.92,-58.4356 1182,-58 992.495,-29.7379 762.504,-16.5643 679.128,-12.4662"/>
<polygon fill="midnightblue" stroke="midnightblue" points="679.182,-8.96486 669.025,-11.9791 678.845,-15.9567 679.182,-8.96486"/>
</g>
<!-- Node8&#45;&gt;Node9 -->
<g id="edge18" class="edge"><title>Node8&#45;&gt;Node9</title>
<path fill="none" stroke="midnightblue" d="M1234,-58.3619C1234,-50.9219 1234,-40.7427 1234,-31.7276"/>
<polygon fill="midnightblue" stroke="midnightblue" points="1237.5,-31.5706 1234,-21.5707 1230.5,-31.5707 1237.5,-31.5706"/>
</g>
<!-- Node11&#45;&gt;Node4 -->
<g id="edge36" class="edge"><title>Node11&#45;&gt;Node4</title>
<path fill="none" stroke="midnightblue" d="M1305.54,-116.379C1305.68,-100.858 1303.38,-72.2763 1286,-58 1238.86,-19.272 803.257,-12.4048 679.594,-11.2327"/>
<polygon fill="midnightblue" stroke="midnightblue" points="679.299,-7.73001 669.269,-11.1414 679.237,-14.7297 679.299,-7.73001"/>
</g>
<!-- Node11&#45;&gt;Node8 -->
<g id="edge24" class="edge"><title>Node11&#45;&gt;Node8</title>
<path fill="none" stroke="midnightblue" d="M1291.98,-116.362C1281.57,-107.859 1266.78,-95.7785 1254.74,-85.9466"/>
<polygon fill="midnightblue" stroke="midnightblue" points="1256.9,-83.1866 1246.94,-79.5707 1252.47,-88.6077 1256.9,-83.1866"/>
</g>
<!-- Node11&#45;&gt;Node12 -->
<g id="edge26" class="edge"><title>Node11&#45;&gt;Node12</title>
<path fill="none" stroke="midnightblue" d="M1341.94,-116.497C1377,-106.53 1429.64,-91.5619 1466.44,-81.1003"/>
<polygon fill="midnightblue" stroke="midnightblue" points="1467.71,-84.3784 1476.37,-78.277 1465.79,-77.6452 1467.71,-84.3784"/>
</g>
<!-- Node13 -->
<g id="node27" class="node"><title>Node13</title>
<polygon fill="white" stroke="#bfbfbf" points="1333,-58.5 1333,-79.5 1379,-79.5 1379,-58.5 1333,-58.5"/>
<text text-anchor="middle" x="1356" y="-66.5" font-family="Helvetica,sans-Serif" font-size="10.00">cstdint</text>
</g>
<!-- Node11&#45;&gt;Node13 -->
<g id="edge28" class="edge"><title>Node11&#45;&gt;Node13</title>
<path fill="none" stroke="midnightblue" d="M1314.35,-116.362C1321.54,-108.186 1331.64,-96.7025 1340.09,-87.0907"/>
<polygon fill="midnightblue" stroke="midnightblue" points="1342.73,-89.3916 1346.71,-79.5707 1337.47,-84.7692 1342.73,-89.3916"/>
</g>
<!-- Node14 -->
<g id="node29" class="node"><title>Node14</title>
<polygon fill="white" stroke="#bfbfbf" points="1114.5,-58.5 1114.5,-79.5 1173.5,-79.5 1173.5,-58.5 1114.5,-58.5"/>
<text text-anchor="middle" x="1144" y="-66.5" font-family="Helvetica,sans-Serif" font-size="10.00">stdexcept</text>
</g>
<!-- Node11&#45;&gt;Node14 -->
<g id="edge30" class="edge"><title>Node11&#45;&gt;Node14</title>
<path fill="none" stroke="midnightblue" d="M1275.84,-116.497C1249.82,-107.123 1211.52,-93.3242 1182.9,-83.0122"/>
<polygon fill="midnightblue" stroke="midnightblue" points="1183.8,-79.6195 1173.21,-79.5231 1181.43,-86.2052 1183.8,-79.6195"/>
</g>
<!-- Node11&#45;&gt;Node15 -->
<g id="edge32" class="edge"><title>Node11&#45;&gt;Node15</title>
<path fill="none" stroke="midnightblue" d="M1257.33,-123.84C1098.64,-113.321 590.849,-79.662 460.65,-71.0317"/>
<polygon fill="midnightblue" stroke="midnightblue" points="460.791,-67.5334 450.581,-70.3642 460.328,-74.5181 460.791,-67.5334"/>
</g>
<!-- Node16 -->
<g id="node33" class="node"><title>Node16</title>
<polygon fill="white" stroke="#bfbfbf" points="1397,-58.5 1397,-79.5 1459,-79.5 1459,-58.5 1397,-58.5"/>
<text text-anchor="middle" x="1428" y="-66.5" font-family="Helvetica,sans-Serif" font-size="10.00">type_traits</text>
</g>
<!-- Node11&#45;&gt;Node16 -->
<g id="edge34" class="edge"><title>Node11&#45;&gt;Node16</title>
<path fill="none" stroke="midnightblue" d="M1327.27,-116.497C1346.57,-107.397 1374.71,-94.1273 1396.35,-83.9253"/>
<polygon fill="midnightblue" stroke="midnightblue" points="1397.92,-87.052 1405.48,-79.6212 1394.94,-80.7206 1397.92,-87.052"/>
</g>
<!-- Node17&#45;&gt;Node11 -->
<g id="edge40" class="edge"><title>Node17&#45;&gt;Node11</title>
<path fill="none" stroke="midnightblue" d="M1367.06,-174.362C1355.81,-165.777 1339.78,-153.546 1326.84,-143.664"/>
<polygon fill="midnightblue" stroke="midnightblue" points="1328.92,-140.855 1318.85,-137.571 1324.68,-146.42 1328.92,-140.855"/>
</g>
<!-- Node17&#45;&gt;Node12 -->
<g id="edge44" class="edge"><title>Node17&#45;&gt;Node12</title>
<path fill="none" stroke="midnightblue" d="M1409.71,-174.487C1428.28,-166.606 1452.06,-154.364 1469,-138 1483.4,-124.088 1494.3,-103.873 1501.05,-88.917"/>
<polygon fill="midnightblue" stroke="midnightblue" points="1504.35,-90.1157 1505.06,-79.5448 1497.91,-87.3642 1504.35,-90.1157"/>
</g>
<!-- Node17&#45;&gt;Node18 -->
<g id="edge42" class="edge"><title>Node17&#45;&gt;Node18</title>
<path fill="none" stroke="midnightblue" d="M1322.41,-176.128C1237.19,-163.222 1082.67,-139.823 1022.71,-130.742"/>
<polygon fill="midnightblue" stroke="midnightblue" points="1023.07,-127.256 1012.66,-129.219 1022.02,-134.177 1023.07,-127.256"/>
</g>
<!-- Node19 -->
<g id="node42" class="node"><title>Node19</title>
<a xlink:href="enumfield_8h.html" target="_top" xlink:title="base/enumfield.h">
<polygon fill="white" stroke="black" points="1369.5,-116.5 1369.5,-137.5 1460.5,-137.5 1460.5,-116.5 1369.5,-116.5"/>
<text text-anchor="middle" x="1415" y="-124.5" font-family="Helvetica,sans-Serif" font-size="10.00">base/enumfield.h</text>
</a>
</g>
<!-- Node17&#45;&gt;Node19 -->
<g id="edge46" class="edge"><title>Node17&#45;&gt;Node19</title>
<path fill="none" stroke="midnightblue" d="M1387.24,-174.362C1391.84,-166.513 1398.23,-155.616 1403.71,-146.253"/>
<polygon fill="midnightblue" stroke="midnightblue" points="1406.77,-147.968 1408.8,-137.571 1400.73,-144.428 1406.77,-147.968"/>
</g>
<!-- Node21&#45;&gt;Node4 -->
<g id="edge72" class="edge"><title>Node21&#45;&gt;Node4</title>
<path fill="none" stroke="midnightblue" d="M702.371,-116.295C692.157,-96.8724 670.43,-55.5561 657.436,-30.8462"/>
<polygon fill="midnightblue" stroke="midnightblue" points="660.368,-28.901 652.616,-21.6792 654.172,-32.1591 660.368,-28.901"/>
</g>
<!-- Node21&#45;&gt;Node5 -->
<g id="edge68" class="edge"><title>Node21&#45;&gt;Node5</title>
<path fill="none" stroke="midnightblue" d="M655.833,-122.986C596.181,-117.522 495.706,-105.651 402.553,-79.952"/>
<polygon fill="midnightblue" stroke="midnightblue" points="403.267,-76.517 392.693,-77.1713 401.367,-83.2542 403.267,-76.517"/>
</g>
<!-- Node21&#45;&gt;Node9 -->
<g id="edge66" class="edge"><title>Node21&#45;&gt;Node9</title>
<path fill="none" stroke="midnightblue" d="M719.22,-116.399C736.662,-100.629 772.031,-71.4132 808,-58 879.265,-31.4249 1108.39,-17.3209 1197.79,-12.7176"/>
<polygon fill="midnightblue" stroke="midnightblue" points="1198.17,-16.203 1207.98,-12.2031 1197.82,-9.21192 1198.17,-16.203"/>
</g>
<!-- Node21&#45;&gt;Node10 -->
<g id="edge62" class="edge"><title>Node21&#45;&gt;Node10</title>
<path fill="none" stroke="midnightblue" d="M760.186,-117.045C805.081,-108.341 871.818,-95.0711 938.375,-80.3123"/>
<polygon fill="midnightblue" stroke="midnightblue" points="939.192,-83.7162 948.191,-78.1243 937.669,-76.8838 939.192,-83.7162"/>
</g>
<!-- Node21&#45;&gt;Node15 -->
<g id="edge64" class="edge"><title>Node21&#45;&gt;Node15</title>
<path fill="none" stroke="midnightblue" d="M657.656,-116.497C600.197,-104.509 508.048,-85.2834 460.53,-75.3696"/>
<polygon fill="midnightblue" stroke="midnightblue" points="461.053,-71.9033 450.549,-73.2871 459.623,-78.7558 461.053,-71.9033"/>
</g>
<!-- Node22 -->
<g id="node57" class="node"><title>Node22</title>
<polygon fill="white" stroke="#bfbfbf" points="693.5,-58.5 693.5,-79.5 740.5,-79.5 740.5,-58.5 693.5,-58.5"/>
<text text-anchor="middle" x="717" y="-66.5" font-family="Helvetica,sans-Serif" font-size="10.00">iterator</text>
</g>
<!-- Node21&#45;&gt;Node22 -->
<g id="edge70" class="edge"><title>Node21&#45;&gt;Node22</title>
<path fill="none" stroke="midnightblue" d="M709.651,-116.362C710.805,-108.922 712.385,-98.7427 713.784,-89.7276"/>
<polygon fill="midnightblue" stroke="midnightblue" points="717.285,-89.9891 715.36,-79.5707 710.368,-88.9157 717.285,-89.9891"/>
</g>
<!-- Node23&#45;&gt;Node18 -->
<g id="edge78" class="edge"><title>Node23&#45;&gt;Node18</title>
<path fill="none" stroke="midnightblue" d="M935.94,-174.362C947.188,-165.777 963.216,-153.546 976.165,-143.664"/>
<polygon fill="midnightblue" stroke="midnightblue" points="978.323,-146.42 984.149,-137.571 974.076,-140.855 978.323,-146.42"/>
</g>
<!-- Node23&#45;&gt;Node20 -->
<g id="edge76" class="edge"><title>Node23&#45;&gt;Node20</title>
<path fill="none" stroke="midnightblue" d="M900.631,-174.497C882.201,-165.438 855.363,-152.246 834.645,-142.063"/>
<polygon fill="midnightblue" stroke="midnightblue" points="836.127,-138.891 825.609,-137.621 833.039,-145.174 836.127,-138.891"/>
</g>
<!-- Node24 -->
<g id="node64" class="node"><title>Node24</title>
<polygon fill="white" stroke="#bfbfbf" points="817,-58.5 817,-79.5 873,-79.5 873,-58.5 817,-58.5"/>
<text text-anchor="middle" x="845" y="-66.5" font-family="Helvetica,sans-Serif" font-size="10.00">algorithm</text>
</g>
<!-- Node23&#45;&gt;Node24 -->
<g id="edge80" class="edge"><title>Node23&#45;&gt;Node24</title>
<path fill="none" stroke="midnightblue" d="M909.763,-174.336C899.993,-165.36 886.426,-151.809 877,-138 866.576,-122.73 857.983,-103.523 852.335,-89.2529"/>
<polygon fill="midnightblue" stroke="midnightblue" points="855.589,-87.962 848.759,-79.862 849.047,-90.4529 855.589,-87.962"/>
</g>
<!-- Node28&#45;&gt;Node4 -->
<g id="edge98" class="edge"><title>Node28&#45;&gt;Node4</title>
<path fill="none" stroke="midnightblue" d="M196.093,-174.294C173.934,-160.968 143.191,-137.355 159,-116 213.85,-41.9082 514.566,-18.4468 614.614,-12.634"/>
<polygon fill="midnightblue" stroke="midnightblue" points="614.941,-16.1213 624.73,-12.0673 614.549,-9.13227 614.941,-16.1213"/>
</g>
<!-- Node28&#45;&gt;Node15 -->
<g id="edge100" class="edge"><title>Node28&#45;&gt;Node15</title>
<path fill="none" stroke="midnightblue" d="M222.046,-174.411C231.281,-159.194 250.346,-131.295 274,-116 320.668,-85.8229 342.899,-97.0431 399.671,-80.1309"/>
<polygon fill="midnightblue" stroke="midnightblue" points="401.001,-83.3812 409.483,-77.0328 398.894,-76.706 401.001,-83.3812"/>
</g>
<!-- Node29 -->
<g id="node77" class="node"><title>Node29</title>
<polygon fill="white" stroke="#bfbfbf" points="168,-116.5 168,-137.5 222,-137.5 222,-116.5 168,-116.5"/>
<text text-anchor="middle" x="195" y="-124.5" font-family="Helvetica,sans-Serif" font-size="10.00">TColor.h</text>
</g>
<!-- Node28&#45;&gt;Node29 -->
<g id="edge96" class="edge"><title>Node28&#45;&gt;Node29</title>
<path fill="none" stroke="midnightblue" d="M212.148,-174.362C209.395,-166.758 205.606,-156.294 202.29,-147.135"/>
<polygon fill="midnightblue" stroke="midnightblue" points="205.523,-145.782 198.827,-137.571 198.941,-148.165 205.523,-145.782"/>
</g>
<!-- Node30 -->
<g id="node81" class="node"><title>Node30</title>
<a xlink:href="interval_8h.html" target="_top" xlink:title="base/interval.h">
<polygon fill="white" stroke="black" points="886,-116.5 886,-137.5 966,-137.5 966,-116.5 886,-116.5"/>
<text text-anchor="middle" x="926" y="-124.5" font-family="Helvetica,sans-Serif" font-size="10.00">base/interval.h</text>
</a>
</g>
<!-- Node28&#45;&gt;Node30 -->
<g id="edge102" class="edge"><title>Node28&#45;&gt;Node30</title>
<path fill="none" stroke="midnightblue" d="M260.638,-182.408C363.027,-176.294 622.622,-159.827 839,-138 850.833,-136.806 863.545,-135.317 875.498,-133.823"/>
<polygon fill="midnightblue" stroke="midnightblue" points="876.288,-137.251 885.766,-132.517 875.404,-130.307 876.288,-137.251"/>
</g>
<!-- Node30&#45;&gt;Node8 -->
<g id="edge108" class="edge"><title>Node30&#45;&gt;Node8</title>
<path fill="none" stroke="midnightblue" d="M966.078,-117.836C969.093,-117.198 972.093,-116.579 975,-116 1063.45,-98.3908 1088.6,-97.694 1180.84,-80.1695"/>
<polygon fill="midnightblue" stroke="midnightblue" points="1181.73,-83.5632 1190.89,-78.2443 1180.41,-76.6882 1181.73,-83.5632"/>
</g>
<!-- Node30&#45;&gt;Node10 -->
<g id="edge110" class="edge"><title>Node30&#45;&gt;Node10</title>
<path fill="none" stroke="midnightblue" d="M936.822,-116.362C945.221,-108.104 957.054,-96.4725 966.89,-86.8029"/>
<polygon fill="midnightblue" stroke="midnightblue" points="969.569,-89.077 974.247,-79.5707 964.662,-84.0851 969.569,-89.077"/>
</g>
<!-- Node30&#45;&gt;Node14 -->
<g id="edge106" class="edge"><title>Node30&#45;&gt;Node14</title>
<path fill="none" stroke="midnightblue" d="M965.478,-116.497C1004.87,-106.016 1065.06,-90.0036 1104.47,-79.5179"/>
<polygon fill="midnightblue" stroke="midnightblue" points="1105.5,-82.866 1114.26,-76.9125 1103.7,-76.1014 1105.5,-82.866"/>
</g>
<!-- Node30&#45;&gt;Node24 -->
<g id="edge104" class="edge"><title>Node30&#45;&gt;Node24</title>
<path fill="none" stroke="midnightblue" d="M911.143,-116.362C899.154,-107.777 882.073,-95.5459 868.272,-85.6636"/>
<polygon fill="midnightblue" stroke="midnightblue" points="869.931,-82.5469 859.762,-79.5707 865.855,-88.2383 869.931,-82.5469"/>
</g>
<!-- Node31 -->
<g id="node87" class="node"><title>Node31</title>
<polygon fill="white" stroke="#bfbfbf" points="891,-58.5 891,-79.5 931,-79.5 931,-58.5 891,-58.5"/>
<text text-anchor="middle" x="911" y="-66.5" font-family="Helvetica,sans-Serif" font-size="10.00">limits</text>
</g>
<!-- Node30&#45;&gt;Node31 -->
<g id="edge112" class="edge"><title>Node30&#45;&gt;Node31</title>
<path fill="none" stroke="midnightblue" d="M923.249,-116.362C921.303,-108.84 918.634,-98.5187 916.284,-89.4308"/>
<polygon fill="midnightblue" stroke="midnightblue" points="919.626,-88.3758 913.734,-79.5707 912.849,-90.1285 919.626,-88.3758"/>
</g>
<!-- Node32&#45;&gt;Node4 -->
<g id="edge120" class="edge"><title>Node32&#45;&gt;Node4</title>
<path fill="none" stroke="midnightblue" d="M490.164,-174.417C488.246,-160.176 486.774,-134.501 497,-116 522.862,-69.2082 579.486,-38.5784 615.289,-23.0709"/>
<polygon fill="midnightblue" stroke="midnightblue" points="616.917,-26.1841 624.793,-19.0972 614.217,-19.7259 616.917,-26.1841"/>
</g>
<!-- Node32&#45;&gt;Node5 -->
<g id="edge122" class="edge"><title>Node32&#45;&gt;Node5</title>
<path fill="none" stroke="midnightblue" d="M481.203,-174.295C461.09,-154.355 417.702,-111.337 393.06,-86.9056"/>
<polygon fill="midnightblue" stroke="midnightblue" points="395.337,-84.2344 385.771,-79.6792 390.408,-89.2054 395.337,-84.2344"/>
</g>
<!-- Node32&#45;&gt;Node15 -->
<g id="edge116" class="edge"><title>Node32&#45;&gt;Node15</title>
<path fill="none" stroke="midnightblue" d="M485.303,-174.313C479.47,-164.877 470.89,-150.686 464,-138 455.178,-121.758 445.957,-102.909 439.347,-89.0205"/>
<polygon fill="midnightblue" stroke="midnightblue" points="442.472,-87.4414 435.039,-79.892 436.142,-90.4292 442.472,-87.4414"/>
</g>
<!-- Node32&#45;&gt;Node18 -->
<g id="edge118" class="edge"><title>Node32&#45;&gt;Node18</title>
<path fill="none" stroke="midnightblue" d="M535.32,-182.719C634.305,-177.206 875.473,-161.998 973.358,-137.621"/>
<polygon fill="midnightblue" stroke="midnightblue" points="974.437,-140.956 983.199,-134.999 972.635,-134.192 974.437,-140.956"/>
</g>
<!-- Node32&#45;&gt;Node20 -->
<g id="edge124" class="edge"><title>Node32&#45;&gt;Node20</title>
<path fill="none" stroke="midnightblue" d="M535.076,-179.548C587.886,-172.455 680.219,-158.735 767.896,-138.035"/>
<polygon fill="midnightblue" stroke="midnightblue" points="768.825,-141.411 777.734,-135.677 767.194,-134.604 768.825,-141.411"/>
</g>
<!-- Node32&#45;&gt;Node33 -->
<g id="edge126" class="edge"><title>Node32&#45;&gt;Node33</title>
<path fill="none" stroke="midnightblue" d="M465.379,-174.497C441.903,-165.234 407.475,-151.65 381.444,-141.379"/>
<polygon fill="midnightblue" stroke="midnightblue" points="382.506,-138.036 371.919,-137.621 379.937,-144.547 382.506,-138.036"/>
</g>
<!-- Node34 -->
<g id="node98" class="node"><title>Node34</title>
<polygon fill="white" stroke="#bfbfbf" points="506,-116.5 506,-137.5 562,-137.5 562,-116.5 506,-116.5"/>
<text text-anchor="middle" x="534" y="-124.5" font-family="Helvetica,sans-Serif" font-size="10.00">Rtypes.h</text>
</g>
<!-- Node32&#45;&gt;Node34 -->
<g id="edge128" class="edge"><title>Node32&#45;&gt;Node34</title>
<path fill="none" stroke="midnightblue" d="M499.703,-174.362C505.446,-166.431 513.443,-155.389 520.27,-145.961"/>
<polygon fill="midnightblue" stroke="midnightblue" points="523.315,-147.723 526.345,-137.571 517.645,-143.617 523.315,-147.723"/>
</g>
<!-- Node35&#45;&gt;Node4 -->
<g id="edge134" class="edge"><title>Node35&#45;&gt;Node4</title>
<path fill="none" stroke="midnightblue" d="M1155.18,-232.278C1142.91,-199.591 1101.11,-100.82 1030,-58 971.093,-22.5296 760.382,-13.7236 679.204,-11.6267"/>
<polygon fill="midnightblue" stroke="midnightblue" points="679.161,-8.12468 669.079,-11.383 678.992,-15.1227 679.161,-8.12468"/>
</g>
</g>
</svg>
