<?xml version="1.0" encoding="UTF-8" standalone="no"?>
<!DOCTYPE svg PUBLIC "-//W3C//DTD SVG 1.1//EN"
 "http://www.w3.org/Graphics/SVG/1.1/DTD/svg11.dtd">
<!-- Generated by graphviz version 2.26.3 (20100126.1600)
 -->
<!-- Title: src/calibration/converters/CATCH_TDC.cc Pages: 1 -->
<svg width="3029pt" height="696pt"
 viewBox="0.00 0.00 3028.62 696.00" xmlns="http://www.w3.org/2000/svg" xmlns:xlink="http://www.w3.org/1999/xlink">
<g id="graph1" class="graph" transform="scale(1 1) rotate(0) translate(4 692)">
<title>src/calibration/converters/CATCH_TDC.cc</title>
<polygon fill="white" stroke="white" points="-4,5 -4,-692 3025.62,-692 3025.62,5 -4,5"/>
<!-- Node1 -->
<g id="node1" class="node"><title>Node1</title>
<polygon fill="#bfbfbf" stroke="black" points="2582.62,-653 2582.62,-687 2708.62,-687 2708.62,-653 2582.62,-653"/>
<text text-anchor="start" x="2590.62" y="-674" font-family="Helvetica,sans-Serif" font-size="10.00">src/calibration/converters</text>
<text text-anchor="middle" x="2645.62" y="-661" font-family="Helvetica,sans-Serif" font-size="10.00">/CATCH_TDC.cc</text>
</g>
<!-- Node2 -->
<g id="node3" class="node"><title>Node2</title>
<a xlink:href="_c_a_t_c_h___t_d_c_8h.html" target="_top" xlink:title="CATCH_TDC.h">
<polygon fill="white" stroke="black" points="2262.62,-594.5 2262.62,-615.5 2348.62,-615.5 2348.62,-594.5 2262.62,-594.5"/>
<text text-anchor="middle" x="2305.62" y="-602.5" font-family="Helvetica,sans-Serif" font-size="10.00">CATCH_TDC.h</text>
</a>
</g>
<!-- Node1&#45;&gt;Node2 -->
<g id="edge2" class="edge"><title>Node1&#45;&gt;Node2</title>
<path fill="none" stroke="midnightblue" d="M2582.47,-657.926C2518.11,-645.623 2419.4,-626.752 2358.88,-615.181"/>
<polygon fill="midnightblue" stroke="midnightblue" points="2359.25,-611.689 2348.77,-613.249 2357.94,-618.564 2359.25,-611.689"/>
</g>
<!-- Node63 -->
<g id="node218" class="node"><title>Node63</title>
<a xlink:href="_t_detector_read_8h.html" target="_top" xlink:title="tree/TDetectorRead.h">
<polygon fill="white" stroke="black" points="2761.12,-290.5 2761.12,-311.5 2872.12,-311.5 2872.12,-290.5 2761.12,-290.5"/>
<text text-anchor="middle" x="2816.62" y="-298.5" font-family="Helvetica,sans-Serif" font-size="10.00">tree/TDetectorRead.h</text>
</a>
</g>
<!-- Node1&#45;&gt;Node63 -->
<g id="edge310" class="edge"><title>Node1&#45;&gt;Node63</title>
<path fill="none" stroke="midnightblue" d="M2708.87,-660.839C2808.95,-644.54 2992.62,-606.522 2992.62,-547 2992.62,-547 2992.62,-547 2992.62,-431 2992.62,-368.191 2919.21,-332.285 2867.21,-314.732"/>
<polygon fill="midnightblue" stroke="midnightblue" points="2868.04,-311.322 2857.45,-311.564 2865.88,-317.98 2868.04,-311.322"/>
</g>
<!-- Node3 -->
<g id="node5" class="node"><title>Node3</title>
<a xlink:href="_reconstruct__traits_8h.html" target="_top" xlink:title="reconstruct/Reconstruct\l_traits.h">
<polygon fill="white" stroke="black" points="2278.62,-349 2278.62,-383 2400.62,-383 2400.62,-349 2278.62,-349"/>
<text text-anchor="start" x="2286.62" y="-370" font-family="Helvetica,sans-Serif" font-size="10.00">reconstruct/Reconstruct</text>
<text text-anchor="middle" x="2339.62" y="-357" font-family="Helvetica,sans-Serif" font-size="10.00">_traits.h</text>
</a>
</g>
<!-- Node2&#45;&gt;Node3 -->
<g id="edge4" class="edge"><title>Node2&#45;&gt;Node3</title>
<path fill="none" stroke="midnightblue" d="M2309.74,-594.345C2313.2,-584.928 2317.99,-570.75 2320.62,-558 2332.59,-500.08 2337.09,-430.719 2338.73,-393.253"/>
<polygon fill="midnightblue" stroke="midnightblue" points="2342.23,-393.265 2339.14,-383.132 2335.24,-392.984 2342.23,-393.265"/>
</g>
<!-- Node20 -->
<g id="node46" class="node"><title>Node20</title>
<a xlink:href="_multi_hit16bit_8h.html" target="_top" xlink:title="MultiHit16bit.h">
<polygon fill="white" stroke="black" points="2231.62,-536.5 2231.62,-557.5 2311.62,-557.5 2311.62,-536.5 2231.62,-536.5"/>
<text text-anchor="middle" x="2271.62" y="-544.5" font-family="Helvetica,sans-Serif" font-size="10.00">MultiHit16bit.h</text>
</a>
</g>
<!-- Node2&#45;&gt;Node20 -->
<g id="edge52" class="edge"><title>Node2&#45;&gt;Node20</title>
<path fill="none" stroke="midnightblue" d="M2299.39,-594.362C2294.79,-586.513 2288.4,-575.616 2282.91,-566.253"/>
<polygon fill="midnightblue" stroke="midnightblue" points="2285.9,-564.428 2277.82,-557.571 2279.86,-567.968 2285.9,-564.428"/>
</g>
<!-- Node29 -->
<g id="node68" class="node"><title>Node29</title>
<polygon fill="white" stroke="#bfbfbf" points="748.625,-116.5 748.625,-137.5 788.625,-137.5 788.625,-116.5 748.625,-116.5"/>
<text text-anchor="middle" x="768.625" y="-124.5" font-family="Helvetica,sans-Serif" font-size="10.00">limits</text>
</g>
<!-- Node2&#45;&gt;Node29 -->
<g id="edge308" class="edge"><title>Node2&#45;&gt;Node29</title>
<path fill="none" stroke="midnightblue" d="M2262.55,-603.988C1947.32,-596.449 8.62474,-547.693 8.62474,-489 8.62474,-489 8.62474,-489 8.62474,-301 8.62474,-197.201 106.394,-207.541 204.625,-174 304.77,-139.805 635.686,-129.879 738.126,-127.591"/>
<polygon fill="midnightblue" stroke="midnightblue" points="738.469,-131.085 748.391,-127.371 738.318,-124.086 738.469,-131.085"/>
</g>
<!-- Node4 -->
<g id="node7" class="node"><title>Node4</title>
<a xlink:href="_detector__t_8h.html" target="_top" xlink:title="base/Detector_t.h">
<polygon fill="white" stroke="black" points="1653.12,-116.5 1653.12,-137.5 1748.12,-137.5 1748.12,-116.5 1653.12,-116.5"/>
<text text-anchor="middle" x="1700.62" y="-124.5" font-family="Helvetica,sans-Serif" font-size="10.00">base/Detector_t.h</text>
</a>
</g>
<!-- Node3&#45;&gt;Node4 -->
<g id="edge6" class="edge"><title>Node3&#45;&gt;Node4</title>
<path fill="none" stroke="midnightblue" d="M2317.58,-348.779C2304.9,-338.539 2288.9,-325.039 2275.62,-312 2211,-248.523 2210.12,-206.65 2125.62,-174 2060,-148.643 1858.57,-135.07 1758.41,-129.731"/>
<polygon fill="midnightblue" stroke="midnightblue" points="1758.34,-126.223 1748.17,-129.195 1757.97,-133.213 1758.34,-126.223"/>
</g>
<!-- Node13 -->
<g id="node26" class="node"><title>Node13</title>
<a xlink:href="_memory_pool_8h.html" target="_top" xlink:title="tree/MemoryPool.h">
<polygon fill="white" stroke="black" points="2059.12,-290.5 2059.12,-311.5 2158.12,-311.5 2158.12,-290.5 2059.12,-290.5"/>
<text text-anchor="middle" x="2108.62" y="-298.5" font-family="Helvetica,sans-Serif" font-size="10.00">tree/MemoryPool.h</text>
</a>
</g>
<!-- Node3&#45;&gt;Node13 -->
<g id="edge26" class="edge"><title>Node3&#45;&gt;Node13</title>
<path fill="none" stroke="midnightblue" d="M2278.93,-348.922C2240.44,-338.092 2191.38,-324.287 2155.81,-314.279"/>
<polygon fill="midnightblue" stroke="midnightblue" points="2156.73,-310.902 2146.16,-311.562 2154.84,-317.64 2156.73,-310.902"/>
</g>
<!-- Node15 -->
<g id="node30" class="node"><title>Node15</title>
<polygon fill="white" stroke="#bfbfbf" points="2064.62,-174.5 2064.62,-195.5 2116.62,-195.5 2116.62,-174.5 2064.62,-174.5"/>
<text text-anchor="middle" x="2090.62" y="-182.5" font-family="Helvetica,sans-Serif" font-size="10.00">memory</text>
</g>
<!-- Node3&#45;&gt;Node15 -->
<g id="edge46" class="edge"><title>Node3&#45;&gt;Node15</title>
<path fill="none" stroke="midnightblue" d="M2278.44,-363.021C2218.15,-358.175 2124.57,-345.444 2050.62,-312 2012.55,-294.78 1994.91,-291.572 1976.62,-254 1972.35,-245.208 1971.19,-240.125 1976.62,-232 1985.75,-218.374 2024.77,-204.227 2054.64,-195.061"/>
<polygon fill="midnightblue" stroke="midnightblue" points="2055.79,-198.371 2064.37,-192.151 2053.78,-191.664 2055.79,-198.371"/>
</g>
<!-- Node16 -->
<g id="node32" class="node"><title>Node16</title>
<polygon fill="white" stroke="#bfbfbf" points="2113.12,-116.5 2113.12,-137.5 2142.12,-137.5 2142.12,-116.5 2113.12,-116.5"/>
<text text-anchor="middle" x="2127.62" y="-124.5" font-family="Helvetica,sans-Serif" font-size="10.00">list</text>
</g>
<!-- Node3&#45;&gt;Node16 -->
<g id="edge50" class="edge"><title>Node3&#45;&gt;Node16</title>
<path fill="none" stroke="midnightblue" d="M2391.08,-348.921C2408,-340.578 2424.94,-328.644 2434.62,-312 2467,-256.358 2444.34,-209.485 2390.62,-174 2351.45,-148.12 2209.75,-133.779 2152.19,-128.912"/>
<polygon fill="midnightblue" stroke="midnightblue" points="2152.41,-125.418 2142.16,-128.088 2151.84,-132.395 2152.41,-125.418"/>
</g>
<!-- Node18 -->
<g id="node37" class="node"><title>Node18</title>
<a xlink:href="mapped__vectors_8h.html" target="_top" xlink:title="base/mapped_vectors.h">
<polygon fill="white" stroke="black" points="2844.12,-232.5 2844.12,-253.5 2965.12,-253.5 2965.12,-232.5 2844.12,-232.5"/>
<text text-anchor="middle" x="2904.62" y="-240.5" font-family="Helvetica,sans-Serif" font-size="10.00">base/mapped_vectors.h</text>
</a>
</g>
<!-- Node3&#45;&gt;Node18 -->
<g id="edge38" class="edge"><title>Node3&#45;&gt;Node18</title>
<path fill="none" stroke="midnightblue" d="M2400.76,-358.864C2430.57,-355.45 2466.95,-351.381 2499.62,-348 2584.22,-339.246 2813.71,-364.486 2880.62,-312 2895.3,-300.489 2901.04,-279.432 2903.26,-263.597"/>
<polygon fill="midnightblue" stroke="midnightblue" points="2906.74,-263.96 2904.3,-253.649 2899.78,-263.228 2906.74,-263.96"/>
</g>
<!-- Node19 -->
<g id="node43" class="node"><title>Node19</title>
<polygon fill="white" stroke="#bfbfbf" points="770.125,-174.5 770.125,-195.5 805.125,-195.5 805.125,-174.5 770.125,-174.5"/>
<text text-anchor="middle" x="787.625" y="-182.5" font-family="Helvetica,sans-Serif" font-size="10.00">map</text>
</g>
<!-- Node3&#45;&gt;Node19 -->
<g id="edge48" class="edge"><title>Node3&#45;&gt;Node19</title>
<path fill="none" stroke="midnightblue" d="M2278.21,-357.143C2154.24,-339.1 1865.31,-296.21 1623.62,-254 1572.79,-245.122 1560.82,-238.495 1509.62,-232 1252.52,-199.379 1186.15,-214.151 927.625,-196 888.763,-193.272 843.871,-189.664 815.617,-187.337"/>
<polygon fill="midnightblue" stroke="midnightblue" points="815.553,-183.82 805.298,-186.483 814.975,-190.796 815.553,-183.82"/>
</g>
<!-- Node5 -->
<g id="node9" class="node"><title>Node5</title>
<a xlink:href="printable_8h.html" target="_top" xlink:title="base/printable.h">
<polygon fill="white" stroke="black" points="1732.62,-58.5 1732.62,-79.5 1818.62,-79.5 1818.62,-58.5 1732.62,-58.5"/>
<text text-anchor="middle" x="1775.62" y="-66.5" font-family="Helvetica,sans-Serif" font-size="10.00">base/printable.h</text>
</a>
</g>
<!-- Node4&#45;&gt;Node5 -->
<g id="edge8" class="edge"><title>Node4&#45;&gt;Node5</title>
<path fill="none" stroke="midnightblue" d="M1714.38,-116.362C1725.38,-107.859 1741,-95.7785 1753.71,-85.9466"/>
<polygon fill="midnightblue" stroke="midnightblue" points="1756.19,-88.4569 1761.96,-79.5707 1751.9,-82.9195 1756.19,-88.4569"/>
</g>
<!-- Node6 -->
<g id="node11" class="node"><title>Node6</title>
<polygon fill="white" stroke="#bfbfbf" points="959.625,-0.5 959.625,-21.5 1003.62,-21.5 1003.62,-0.5 959.625,-0.5"/>
<text text-anchor="middle" x="981.625" y="-8.5" font-family="Helvetica,sans-Serif" font-size="10.00">vector</text>
</g>
<!-- Node4&#45;&gt;Node6 -->
<g id="edge24" class="edge"><title>Node4&#45;&gt;Node6</title>
<path fill="none" stroke="midnightblue" d="M1675.33,-116.454C1636.84,-100.894 1560.92,-72.107 1493.62,-58 1315.12,-20.5782 1095.4,-12.9518 1013.97,-11.3977"/>
<polygon fill="midnightblue" stroke="midnightblue" points="1013.91,-7.89629 1003.85,-11.2229 1013.79,-14.8952 1013.91,-7.89629"/>
</g>
<!-- Node8 -->
<g id="node15" class="node"><title>Node8</title>
<polygon fill="white" stroke="#bfbfbf" points="1387.12,-58.5 1387.12,-79.5 1452.12,-79.5 1452.12,-58.5 1387.12,-58.5"/>
<text text-anchor="middle" x="1419.62" y="-66.5" font-family="Helvetica,sans-Serif" font-size="10.00">TVector3.h</text>
</g>
<!-- Node4&#45;&gt;Node8 -->
<g id="edge14" class="edge"><title>Node4&#45;&gt;Node8</title>
<path fill="none" stroke="midnightblue" d="M1652.97,-117.569C1589.66,-105.023 1483.66,-83.9581 1465.62,-80 1464.54,-79.7624 1463.45,-79.5192 1462.34,-79.2717"/>
<polygon fill="midnightblue" stroke="midnightblue" points="1462.79,-75.7837 1452.26,-76.9626 1461.22,-82.607 1462.79,-75.7837"/>
</g>
<!-- Node9 -->
<g id="node17" class="node"><title>Node9</title>
<polygon fill="white" stroke="#bfbfbf" points="2256.62,-58.5 2256.62,-79.5 2302.62,-79.5 2302.62,-58.5 2256.62,-58.5"/>
<text text-anchor="middle" x="2279.62" y="-66.5" font-family="Helvetica,sans-Serif" font-size="10.00">cstdint</text>
</g>
<!-- Node4&#45;&gt;Node9 -->
<g id="edge16" class="edge"><title>Node4&#45;&gt;Node9</title>
<path fill="none" stroke="midnightblue" d="M1748.5,-122.204C1862.62,-110.772 2148.44,-82.1415 2246.21,-72.3471"/>
<polygon fill="midnightblue" stroke="midnightblue" points="2246.79,-75.8064 2256.4,-71.327 2246.1,-68.8412 2246.79,-75.8064"/>
</g>
<!-- Node10 -->
<g id="node19" class="node"><title>Node10</title>
<polygon fill="white" stroke="#bfbfbf" points="1656.12,-58.5 1656.12,-79.5 1715.12,-79.5 1715.12,-58.5 1656.12,-58.5"/>
<text text-anchor="middle" x="1685.62" y="-66.5" font-family="Helvetica,sans-Serif" font-size="10.00">stdexcept</text>
</g>
<!-- Node4&#45;&gt;Node10 -->
<g id="edge18" class="edge"><title>Node4&#45;&gt;Node10</title>
<path fill="none" stroke="midnightblue" d="M1697.87,-116.362C1695.93,-108.84 1693.26,-98.5187 1690.91,-89.4308"/>
<polygon fill="midnightblue" stroke="midnightblue" points="1694.25,-88.3758 1688.36,-79.5707 1687.47,-90.1285 1694.25,-88.3758"/>
</g>
<!-- Node11 -->
<g id="node21" class="node"><title>Node11</title>
<polygon fill="white" stroke="#bfbfbf" points="536.125,-0.5 536.125,-21.5 577.125,-21.5 577.125,-0.5 536.125,-0.5"/>
<text text-anchor="middle" x="556.625" y="-8.5" font-family="Helvetica,sans-Serif" font-size="10.00">string</text>
</g>
<!-- Node4&#45;&gt;Node11 -->
<g id="edge20" class="edge"><title>Node4&#45;&gt;Node11</title>
<path fill="none" stroke="midnightblue" d="M1653.09,-117.16C1596.62,-105.32 1508.19,-86.253 1493.62,-80 1477.43,-73.0443 1477.36,-63.5445 1460.62,-58 1418.33,-43.9856 741.401,-17.9119 587.561,-12.1475"/>
<polygon fill="midnightblue" stroke="midnightblue" points="587.528,-8.64389 577.405,-11.768 587.267,-15.639 587.528,-8.64389"/>
</g>
<!-- Node12 -->
<g id="node23" class="node"><title>Node12</title>
<polygon fill="white" stroke="#bfbfbf" points="2588.62,-58.5 2588.62,-79.5 2650.62,-79.5 2650.62,-58.5 2588.62,-58.5"/>
<text text-anchor="middle" x="2619.62" y="-66.5" font-family="Helvetica,sans-Serif" font-size="10.00">type_traits</text>
</g>
<!-- Node4&#45;&gt;Node12 -->
<g id="edge22" class="edge"><title>Node4&#45;&gt;Node12</title>
<path fill="none" stroke="midnightblue" d="M1748.42,-123.984C1909.07,-113.845 2427.95,-81.0967 2578.39,-71.6024"/>
<polygon fill="midnightblue" stroke="midnightblue" points="2578.82,-75.0826 2588.58,-70.9596 2578.37,-68.0965 2578.82,-75.0826"/>
</g>
<!-- Node5&#45;&gt;Node6 -->
<g id="edge10" class="edge"><title>Node5&#45;&gt;Node6</title>
<path fill="none" stroke="midnightblue" d="M1732.58,-59.3913C1729.56,-58.8718 1726.55,-58.3999 1723.62,-58 1450.96,-20.7259 1117.81,-12.9383 1014.04,-11.3762"/>
<polygon fill="midnightblue" stroke="midnightblue" points="1013.95,-7.87467 1003.9,-11.2328 1013.85,-14.874 1013.95,-7.87467"/>
</g>
<!-- Node7 -->
<g id="node13" class="node"><title>Node7</title>
<polygon fill="white" stroke="#bfbfbf" points="1491.62,-0.5 1491.62,-21.5 1543.62,-21.5 1543.62,-0.5 1491.62,-0.5"/>
<text text-anchor="middle" x="1517.62" y="-8.5" font-family="Helvetica,sans-Serif" font-size="10.00">ostream</text>
</g>
<!-- Node5&#45;&gt;Node7 -->
<g id="edge12" class="edge"><title>Node5&#45;&gt;Node7</title>
<path fill="none" stroke="midnightblue" d="M1732.44,-59.2921C1682.3,-48.0193 1600.49,-29.6287 1553.63,-19.0942"/>
<polygon fill="midnightblue" stroke="midnightblue" points="1554.15,-15.6239 1543.63,-16.8453 1552.61,-22.4534 1554.15,-15.6239"/>
</g>
<!-- Node14 -->
<g id="node28" class="node"><title>Node14</title>
<a xlink:href="memory_8h.html" target="_top" xlink:title="base/std_ext/memory.h">
<polygon fill="white" stroke="black" points="1994.12,-232.5 1994.12,-253.5 2113.12,-253.5 2113.12,-232.5 1994.12,-232.5"/>
<text text-anchor="middle" x="2053.62" y="-240.5" font-family="Helvetica,sans-Serif" font-size="10.00">base/std_ext/memory.h</text>
</a>
</g>
<!-- Node13&#45;&gt;Node14 -->
<g id="edge28" class="edge"><title>Node13&#45;&gt;Node14</title>
<path fill="none" stroke="midnightblue" d="M2098.54,-290.362C2090.78,-282.186 2079.89,-270.702 2070.78,-261.091"/>
<polygon fill="midnightblue" stroke="midnightblue" points="2073.07,-258.419 2063.65,-253.571 2067.99,-263.235 2073.07,-258.419"/>
</g>
<!-- Node13&#45;&gt;Node15 -->
<g id="edge34" class="edge"><title>Node13&#45;&gt;Node15</title>
<path fill="none" stroke="midnightblue" d="M2066.86,-290.493C2035.1,-281.557 1995.25,-267.981 1985.62,-254 1980.08,-245.946 1980.31,-240.206 1985.62,-232 1993.68,-219.573 2027.63,-205.772 2054.78,-196.36"/>
<polygon fill="midnightblue" stroke="midnightblue" points="2056.06,-199.621 2064.41,-193.101 2053.82,-192.99 2056.06,-199.621"/>
</g>
<!-- Node17 -->
<g id="node35" class="node"><title>Node17</title>
<polygon fill="white" stroke="#bfbfbf" points="2130.12,-232.5 2130.12,-253.5 2197.12,-253.5 2197.12,-232.5 2130.12,-232.5"/>
<text text-anchor="middle" x="2163.62" y="-240.5" font-family="Helvetica,sans-Serif" font-size="10.00">forward_list</text>
</g>
<!-- Node13&#45;&gt;Node17 -->
<g id="edge36" class="edge"><title>Node13&#45;&gt;Node17</title>
<path fill="none" stroke="midnightblue" d="M2118.71,-290.362C2126.47,-282.186 2137.36,-270.702 2146.47,-261.091"/>
<polygon fill="midnightblue" stroke="midnightblue" points="2149.26,-263.235 2153.6,-253.571 2144.18,-258.419 2149.26,-263.235"/>
</g>
<!-- Node14&#45;&gt;Node15 -->
<g id="edge30" class="edge"><title>Node14&#45;&gt;Node15</title>
<path fill="none" stroke="midnightblue" d="M2060.41,-232.362C2065.42,-224.513 2072.37,-213.616 2078.34,-204.253"/>
<polygon fill="midnightblue" stroke="midnightblue" points="2081.45,-205.884 2083.88,-195.571 2075.55,-202.119 2081.45,-205.884"/>
</g>
<!-- Node14&#45;&gt;Node16 -->
<g id="edge32" class="edge"><title>Node14&#45;&gt;Node16</title>
<path fill="none" stroke="midnightblue" d="M2081.89,-232.354C2097.72,-224.785 2116.14,-212.929 2125.62,-196 2133.84,-181.337 2133.65,-162.031 2131.81,-147.569"/>
<polygon fill="midnightblue" stroke="midnightblue" points="2135.25,-146.918 2130.18,-137.613 2128.34,-148.046 2135.25,-146.918"/>
</g>
<!-- Node18&#45;&gt;Node6 -->
<g id="edge40" class="edge"><title>Node18&#45;&gt;Node6</title>
<path fill="none" stroke="midnightblue" d="M2913.07,-232.148C2919.57,-223.063 2928.03,-209.457 2931.62,-196 2937.62,-173.54 2922.66,-117.399 2921.62,-116 2887.57,-69.9897 2862.14,-71.9644 2806.62,-58 2783.99,-52.3068 1256.92,-17.2764 1014.03,-11.7373"/>
<polygon fill="midnightblue" stroke="midnightblue" points="1013.82,-8.23192 1003.75,-11.5031 1013.66,-15.2301 1013.82,-8.23192"/>
</g>
<!-- Node18&#45;&gt;Node12 -->
<g id="edge44" class="edge"><title>Node18&#45;&gt;Node12</title>
<path fill="none" stroke="midnightblue" d="M2908.54,-232.197C2916.53,-208.051 2931.63,-149.227 2902.62,-116 2867.74,-76.0315 2718.71,-90.0525 2666.62,-80 2664.6,-79.6092 2662.53,-79.1919 2660.44,-78.7568"/>
<polygon fill="midnightblue" stroke="midnightblue" points="2661.16,-75.3318 2650.65,-76.6235 2659.67,-82.1715 2661.16,-75.3318"/>
</g>
<!-- Node18&#45;&gt;Node15 -->
<g id="edge42" class="edge"><title>Node18&#45;&gt;Node15</title>
<path fill="none" stroke="midnightblue" d="M2844.11,-238.688C2684.27,-227.299 2254.38,-196.668 2126.8,-187.577"/>
<polygon fill="midnightblue" stroke="midnightblue" points="2126.99,-184.082 2116.77,-186.863 2126.49,-191.065 2126.99,-184.082"/>
</g>
<!-- Node20&#45;&gt;Node6 -->
<g id="edge304" class="edge"><title>Node20&#45;&gt;Node6</title>
<path fill="none" stroke="midnightblue" d="M2231.48,-546.793C1947.78,-544.972 251.636,-528.079 80.6247,-384 24.3009,-336.547 -25.5949,-293.697 14.6247,-232 120.814,-69.1038 792.16,-21.6258 948.923,-12.6975"/>
<polygon fill="midnightblue" stroke="midnightblue" points="949.516,-16.1701 959.306,-12.1202 949.127,-9.18086 949.516,-16.1701"/>
</g>
<!-- Node20&#45;&gt;Node9 -->
<g id="edge306" class="edge"><title>Node20&#45;&gt;Node9</title>
<path fill="none" stroke="midnightblue" d="M2311.73,-538.455C2466.39,-504.414 3013.47,-373.434 2973.62,-232 2957.23,-173.819 2954.21,-147.513 2902.62,-116 2877.27,-100.512 2438.92,-77.1051 2313.12,-70.6815"/>
<polygon fill="midnightblue" stroke="midnightblue" points="2313.1,-67.176 2302.94,-70.1637 2312.75,-74.167 2313.1,-67.176"/>
</g>
<!-- Node21 -->
<g id="node48" class="node"><title>Node21</title>
<a xlink:href="_calibration_8h.html" target="_top" xlink:title="Calibration.h">
<polygon fill="white" stroke="black" points="2236.12,-478.5 2236.12,-499.5 2307.12,-499.5 2307.12,-478.5 2236.12,-478.5"/>
<text text-anchor="middle" x="2271.62" y="-486.5" font-family="Helvetica,sans-Serif" font-size="10.00">Calibration.h</text>
</a>
</g>
<!-- Node20&#45;&gt;Node21 -->
<g id="edge54" class="edge"><title>Node20&#45;&gt;Node21</title>
<path fill="none" stroke="midnightblue" d="M2271.62,-536.362C2271.62,-528.922 2271.62,-518.743 2271.62,-509.728"/>
<polygon fill="midnightblue" stroke="midnightblue" points="2275.12,-509.571 2271.62,-499.571 2268.12,-509.571 2275.12,-509.571"/>
</g>
<!-- Node21&#45;&gt;Node3 -->
<g id="edge286" class="edge"><title>Node21&#45;&gt;Node3</title>
<path fill="none" stroke="midnightblue" d="M2277.66,-478.085C2288.24,-458.941 2310.43,-418.815 2325.18,-392.136"/>
<polygon fill="midnightblue" stroke="midnightblue" points="2328.28,-393.762 2330.05,-383.317 2322.15,-390.376 2328.28,-393.762"/>
</g>
<!-- Node21&#45;&gt;Node6 -->
<g id="edge302" class="edge"><title>Node21&#45;&gt;Node6</title>
<path fill="none" stroke="midnightblue" d="M2235.94,-488.926C1953.11,-488.112 84.6247,-478.482 84.6247,-366 84.6247,-366 84.6247,-366 84.6247,-301 84.6247,-223.344 136.173,-210.671 204.625,-174 396.184,-71.3788 466.511,-100.525 679.625,-58 777.192,-38.5311 893.844,-22.3683 949.285,-15.1127"/>
<polygon fill="midnightblue" stroke="midnightblue" points="950.068,-18.5406 959.534,-13.7819 949.166,-11.5988 950.068,-18.5406"/>
</g>
<!-- Node22 -->
<g id="node50" class="node"><title>Node22</title>
<a xlink:href="_physics_8h.html" target="_top" xlink:title="analysis/physics/Physics.h">
<polygon fill="white" stroke="black" points="892.625,-420.5 892.625,-441.5 1028.62,-441.5 1028.62,-420.5 892.625,-420.5"/>
<text text-anchor="middle" x="960.625" y="-428.5" font-family="Helvetica,sans-Serif" font-size="10.00">analysis/physics/Physics.h</text>
</a>
</g>
<!-- Node21&#45;&gt;Node22 -->
<g id="edge56" class="edge"><title>Node21&#45;&gt;Node22</title>
<path fill="none" stroke="midnightblue" d="M2235.88,-487.419C2060.41,-479.656 1288.65,-445.512 1038.9,-434.463"/>
<polygon fill="midnightblue" stroke="midnightblue" points="1038.96,-430.962 1028.82,-434.017 1038.65,-437.956 1038.96,-430.962"/>
</g>
<!-- Node61 -->
<g id="node205" class="node"><title>Node61</title>
<a xlink:href="_manager__traits_8h.html" target="_top" xlink:title="calibration/gui/Manager\l_traits.h">
<polygon fill="white" stroke="black" points="2508.12,-349 2508.12,-383 2625.12,-383 2625.12,-349 2508.12,-349"/>
<text text-anchor="start" x="2516.12" y="-370" font-family="Helvetica,sans-Serif" font-size="10.00">calibration/gui/Manager</text>
<text text-anchor="middle" x="2566.62" y="-357" font-family="Helvetica,sans-Serif" font-size="10.00">_traits.h</text>
</a>
</g>
<!-- Node21&#45;&gt;Node61 -->
<g id="edge288" class="edge"><title>Node21&#45;&gt;Node61</title>
<path fill="none" stroke="midnightblue" d="M2297.03,-478.407C2345.69,-458.12 2452.81,-413.453 2516.4,-386.939"/>
<polygon fill="midnightblue" stroke="midnightblue" points="2517.96,-390.084 2525.84,-383.005 2515.26,-383.623 2517.96,-390.084"/>
</g>
<!-- Node22&#45;&gt;Node11 -->
<g id="edge278" class="edge"><title>Node22&#45;&gt;Node11</title>
<path fill="none" stroke="midnightblue" d="M892.336,-429.524C700.354,-425.055 168.068,-410.334 141.625,-384 33.7674,-276.588 113.04,-130.977 246.625,-58 294.464,-31.8656 457.197,-17.856 525.764,-12.9959"/>
<polygon fill="midnightblue" stroke="midnightblue" points="526.193,-16.4747 535.928,-12.294 525.711,-9.49136 526.193,-16.4747"/>
</g>
<!-- Node22&#45;&gt;Node15 -->
<g id="edge282" class="edge"><title>Node22&#45;&gt;Node15</title>
<path fill="none" stroke="midnightblue" d="M1028.78,-427.084C1152.98,-419.61 1411.47,-402.411 1499.62,-384 1612.16,-360.498 1944.7,-239.04 2054.78,-198.322"/>
<polygon fill="midnightblue" stroke="midnightblue" points="2056.27,-201.505 2064.43,-194.75 2053.84,-194.941 2056.27,-201.505"/>
</g>
<!-- Node22&#45;&gt;Node16 -->
<g id="edge276" class="edge"><title>Node22&#45;&gt;Node16</title>
<path fill="none" stroke="midnightblue" d="M1028.64,-427.777C1303.29,-414.44 2318.04,-361.927 2363.62,-312 2411.73,-259.312 2342.07,-211.895 2281.62,-174 2231.79,-142.756 2206.71,-159.725 2151.82,-139.73"/>
<polygon fill="midnightblue" stroke="midnightblue" points="2152.96,-136.416 2142.37,-136.032 2150.41,-142.935 2152.96,-136.416"/>
</g>
<!-- Node22&#45;&gt;Node19 -->
<g id="edge280" class="edge"><title>Node22&#45;&gt;Node19</title>
<path fill="none" stroke="midnightblue" d="M929.29,-420.474C872.402,-399.404 753.927,-346 709.625,-254 696.63,-227.015 733.114,-206.062 760.483,-194.633"/>
<polygon fill="midnightblue" stroke="midnightblue" points="762.028,-197.786 770.046,-190.86 759.459,-191.274 762.028,-197.786"/>
</g>
<!-- Node23 -->
<g id="node52" class="node"><title>Node23</title>
<a xlink:href="_histogram_factories_8h.html" target="_top" xlink:title="analysis/plot/HistogramFactories.h">
<polygon fill="white" stroke="black" points="150.625,-355.5 150.625,-376.5 318.625,-376.5 318.625,-355.5 150.625,-355.5"/>
<text text-anchor="middle" x="234.625" y="-363.5" font-family="Helvetica,sans-Serif" font-size="10.00">analysis/plot/HistogramFactories.h</text>
</a>
</g>
<!-- Node22&#45;&gt;Node23 -->
<g id="edge58" class="edge"><title>Node22&#45;&gt;Node23</title>
<path fill="none" stroke="midnightblue" d="M892.544,-428.293C777.024,-423.166 535.4,-410.134 332.625,-384 320.763,-382.471 308.159,-380.455 296.081,-378.327"/>
<polygon fill="midnightblue" stroke="midnightblue" points="296.549,-374.855 286.086,-376.521 295.304,-381.743 296.549,-374.855"/>
</g>
<!-- Node32 -->
<g id="node80" class="node"><title>Node32</title>
<polygon fill="white" stroke="#bfbfbf" points="361.125,-174.5 361.125,-195.5 420.125,-195.5 420.125,-174.5 361.125,-174.5"/>
<text text-anchor="middle" x="390.625" y="-182.5" font-family="Helvetica,sans-Serif" font-size="10.00">functional</text>
</g>
<!-- Node22&#45;&gt;Node32 -->
<g id="edge284" class="edge"><title>Node22&#45;&gt;Node32</title>
<path fill="none" stroke="midnightblue" d="M892.434,-423.807C738.075,-405.878 370.284,-353.341 305.625,-254 289.954,-229.923 322.416,-210.225 351.638,-198.127"/>
<polygon fill="midnightblue" stroke="midnightblue" points="352.918,-201.385 360.946,-194.471 350.359,-194.869 352.918,-201.385"/>
</g>
<!-- Node47 -->
<g id="node138" class="node"><title>Node47</title>
<a xlink:href="_event_8h.html" target="_top" xlink:title="analysis/data/Event.h">
<polygon fill="white" stroke="black" points="1380.12,-355.5 1380.12,-376.5 1491.12,-376.5 1491.12,-355.5 1380.12,-355.5"/>
<text text-anchor="middle" x="1435.62" y="-363.5" font-family="Helvetica,sans-Serif" font-size="10.00">analysis/data/Event.h</text>
</a>
</g>
<!-- Node22&#45;&gt;Node47 -->
<g id="edge182" class="edge"><title>Node22&#45;&gt;Node47</title>
<path fill="none" stroke="midnightblue" d="M1028.68,-421.687C1119.7,-409.231 1280.01,-387.295 1369.85,-375"/>
<polygon fill="midnightblue" stroke="midnightblue" points="1370.49,-378.446 1379.92,-373.623 1369.54,-371.511 1370.49,-378.446"/>
</g>
<!-- Node59 -->
<g id="node190" class="node"><title>Node59</title>
<a xlink:href="_slowcontrol_8h.html" target="_top" xlink:title="analysis/data/Slowcontrol.h">
<polygon fill="white" stroke="black" points="1097.12,-116.5 1097.12,-137.5 1234.12,-137.5 1234.12,-116.5 1097.12,-116.5"/>
<text text-anchor="middle" x="1165.62" y="-124.5" font-family="Helvetica,sans-Serif" font-size="10.00">analysis/data/Slowcontrol.h</text>
</a>
</g>
<!-- Node22&#45;&gt;Node59 -->
<g id="edge262" class="edge"><title>Node22&#45;&gt;Node59</title>
<path fill="none" stroke="midnightblue" d="M975.307,-420.436C1008.85,-395.497 1091.43,-329.361 1133.62,-254 1152.78,-219.781 1160.65,-174.023 1163.75,-147.808"/>
<polygon fill="midnightblue" stroke="midnightblue" points="1167.26,-147.866 1164.83,-137.554 1160.3,-147.131 1167.26,-147.866"/>
</g>
<!-- Node60 -->
<g id="node194" class="node"><title>Node60</title>
<a xlink:href="_options_list_8h.html" target="_top" xlink:title="base/OptionsList.h">
<polygon fill="white" stroke="black" points="718.625,-232.5 718.625,-253.5 816.625,-253.5 816.625,-232.5 718.625,-232.5"/>
<text text-anchor="middle" x="767.625" y="-240.5" font-family="Helvetica,sans-Serif" font-size="10.00">base/OptionsList.h</text>
</a>
</g>
<!-- Node22&#45;&gt;Node60 -->
<g id="edge268" class="edge"><title>Node22&#45;&gt;Node60</title>
<path fill="none" stroke="midnightblue" d="M949.695,-420.354C917.915,-389.396 825.291,-299.173 785.802,-260.707"/>
<polygon fill="midnightblue" stroke="midnightblue" points="788.04,-258 778.434,-253.53 783.155,-263.014 788.04,-258"/>
</g>
<!-- Node23&#45;&gt;Node11 -->
<g id="edge180" class="edge"><title>Node23&#45;&gt;Node11</title>
<path fill="none" stroke="midnightblue" d="M221.148,-355.375C199.449,-337.305 157.589,-298.216 141.625,-254 119.432,-192.535 193.504,-151.059 222.625,-116 245.718,-88.1976 247.585,-74.7245 279.625,-58 322.136,-35.8095 462.754,-19.98 525.695,-13.831"/>
<polygon fill="midnightblue" stroke="midnightblue" points="526.185,-17.3002 535.805,-12.8616 525.516,-10.3321 526.185,-17.3002"/>
</g>
<!-- Node24 -->
<g id="node54" class="node"><title>Node24</title>
<a xlink:href="_histogram_8h.html" target="_top" xlink:title="Histogram.h">
<polygon fill="white" stroke="black" points="150.625,-232.5 150.625,-253.5 220.625,-253.5 220.625,-232.5 150.625,-232.5"/>
<text text-anchor="middle" x="185.625" y="-240.5" font-family="Helvetica,sans-Serif" font-size="10.00">Histogram.h</text>
</a>
</g>
<!-- Node23&#45;&gt;Node24 -->
<g id="edge60" class="edge"><title>Node23&#45;&gt;Node24</title>
<path fill="none" stroke="midnightblue" d="M230.276,-355.085C222.047,-334.427 204.084,-289.337 193.623,-263.076"/>
<polygon fill="midnightblue" stroke="midnightblue" points="196.846,-261.71 189.893,-253.715 190.343,-264.301 196.846,-261.71"/>
</g>
<!-- Node30 -->
<g id="node70" class="node"><title>Node30</title>
<a xlink:href="_smart_hist_8h.html" target="_top" xlink:title="SmartHist.h">
<polygon fill="white" stroke="black" points="445.125,-290.5 445.125,-311.5 514.125,-311.5 514.125,-290.5 445.125,-290.5"/>
<text text-anchor="middle" x="479.625" y="-298.5" font-family="Helvetica,sans-Serif" font-size="10.00">SmartHist.h</text>
</a>
</g>
<!-- Node23&#45;&gt;Node30 -->
<g id="edge80" class="edge"><title>Node23&#45;&gt;Node30</title>
<path fill="none" stroke="midnightblue" d="M274.261,-355.484C318.295,-343.802 389.221,-324.985 435.126,-312.806"/>
<polygon fill="midnightblue" stroke="midnightblue" points="436.038,-316.185 444.806,-310.238 434.243,-309.419 436.038,-316.185"/>
</g>
<!-- Node39 -->
<g id="node97" class="node"><title>Node39</title>
<a xlink:href="_particle_8h.html" target="_top" xlink:title="analysis/data/Particle.h">
<polygon fill="white" stroke="black" points="1218.12,-290.5 1218.12,-311.5 1337.12,-311.5 1337.12,-290.5 1218.12,-290.5"/>
<text text-anchor="middle" x="1277.62" y="-298.5" font-family="Helvetica,sans-Serif" font-size="10.00">analysis/data/Particle.h</text>
</a>
</g>
<!-- Node23&#45;&gt;Node39 -->
<g id="edge116" class="edge"><title>Node23&#45;&gt;Node39</title>
<path fill="none" stroke="midnightblue" d="M318.654,-360.763C519.188,-348.266 1022.8,-316.881 1207.93,-305.343"/>
<polygon fill="midnightblue" stroke="midnightblue" points="1208.33,-308.826 1218.09,-304.71 1207.89,-301.839 1208.33,-308.826"/>
</g>
<!-- Node24&#45;&gt;Node6 -->
<g id="edge64" class="edge"><title>Node24&#45;&gt;Node6</title>
<path fill="none" stroke="midnightblue" d="M208.484,-232.401C240.311,-217.912 299.997,-191.704 352.625,-174 577.062,-98.4984 856.339,-37.2227 949.626,-17.606"/>
<polygon fill="midnightblue" stroke="midnightblue" points="950.498,-20.9994 959.569,-15.5252 949.064,-14.1479 950.498,-20.9994"/>
</g>
<!-- Node24&#45;&gt;Node11 -->
<g id="edge66" class="edge"><title>Node24&#45;&gt;Node11</title>
<path fill="none" stroke="midnightblue" d="M186.889,-232.056C188.907,-217.862 193.791,-192.709 204.625,-174 241.004,-111.176 255.664,-92.342 319.625,-58 355.038,-38.9855 470.254,-22.0998 525.94,-14.812"/>
<polygon fill="midnightblue" stroke="midnightblue" points="526.457,-18.2744 535.928,-13.5245 525.562,-11.3318 526.457,-18.2744"/>
</g>
<!-- Node25 -->
<g id="node56" class="node"><title>Node25</title>
<polygon fill="white" stroke="#bfbfbf" points="213.625,-174.5 213.625,-195.5 267.625,-195.5 267.625,-174.5 213.625,-174.5"/>
<text text-anchor="middle" x="240.625" y="-182.5" font-family="Helvetica,sans-Serif" font-size="10.00">TColor.h</text>
</g>
<!-- Node24&#45;&gt;Node25 -->
<g id="edge62" class="edge"><title>Node24&#45;&gt;Node25</title>
<path fill="none" stroke="midnightblue" d="M195.713,-232.362C203.466,-224.186 214.355,-212.702 223.47,-203.091"/>
<polygon fill="midnightblue" stroke="midnightblue" points="226.26,-205.235 230.601,-195.571 221.18,-200.419 226.26,-205.235"/>
</g>
<!-- Node26 -->
<g id="node60" class="node"><title>Node26</title>
<a xlink:href="interval_8h.html" target="_top" xlink:title="base/interval.h">
<polygon fill="white" stroke="black" points="1038.62,-174.5 1038.62,-195.5 1118.62,-195.5 1118.62,-174.5 1038.62,-174.5"/>
<text text-anchor="middle" x="1078.62" y="-182.5" font-family="Helvetica,sans-Serif" font-size="10.00">base/interval.h</text>
</a>
</g>
<!-- Node24&#45;&gt;Node26 -->
<g id="edge68" class="edge"><title>Node24&#45;&gt;Node26</title>
<path fill="none" stroke="midnightblue" d="M220.776,-239.414C244.68,-237.065 277.038,-234.06 305.625,-232 610.144,-210.061 687.527,-223.167 991.625,-196 1003.47,-194.942 1016.19,-193.505 1028.14,-192.019"/>
<polygon fill="midnightblue" stroke="midnightblue" points="1028.93,-195.447 1038.41,-190.71 1028.05,-188.503 1028.93,-195.447"/>
</g>
<!-- Node26&#45;&gt;Node5 -->
<g id="edge74" class="edge"><title>Node26&#45;&gt;Node5</title>
<path fill="none" stroke="midnightblue" d="M1076.5,-174.259C1074.14,-158.852 1072.56,-130.719 1088.62,-116 1138.85,-69.9826 1617.12,-87.906 1722.36,-79.672"/>
<polygon fill="midnightblue" stroke="midnightblue" points="1722.99,-83.1263 1732.58,-78.631 1722.28,-76.1624 1722.99,-83.1263"/>
</g>
<!-- Node26&#45;&gt;Node10 -->
<g id="edge72" class="edge"><title>Node26&#45;&gt;Node10</title>
<path fill="none" stroke="midnightblue" d="M1069.26,-174.275C1057.43,-159.397 1040.33,-132.474 1055.62,-116 1065.71,-105.129 1508.76,-79.0612 1645.72,-71.2494"/>
<polygon fill="midnightblue" stroke="midnightblue" points="1646,-74.7391 1655.79,-70.6767 1645.6,-67.7504 1646,-74.7391"/>
</g>
<!-- Node27 -->
<g id="node62" class="node"><title>Node27</title>
<polygon fill="white" stroke="#bfbfbf" points="1932.62,-0.5 1932.62,-21.5 1988.62,-21.5 1988.62,-0.5 1932.62,-0.5"/>
<text text-anchor="middle" x="1960.62" y="-8.5" font-family="Helvetica,sans-Serif" font-size="10.00">algorithm</text>
</g>
<!-- Node26&#45;&gt;Node27 -->
<g id="edge70" class="edge"><title>Node26&#45;&gt;Node27</title>
<path fill="none" stroke="midnightblue" d="M1066.55,-174.224C1051.79,-159.766 1030.53,-133.844 1045.62,-116 1076.77,-79.1807 1212.14,-88.3837 1259.62,-80 1312.59,-70.6495 1325.31,-65.0628 1378.62,-58 1582.55,-30.9871 1828.88,-17.2671 1922.25,-12.7394"/>
<polygon fill="midnightblue" stroke="midnightblue" points="1922.53,-16.2301 1932.35,-12.2567 1922.2,-9.2381 1922.53,-16.2301"/>
</g>
<!-- Node28 -->
<g id="node66" class="node"><title>Node28</title>
<a xlink:href="types_8h.html" target="_top" xlink:title="types.h">
<polygon fill="white" stroke="black" points="1327.12,-116.5 1327.12,-137.5 1376.12,-137.5 1376.12,-116.5 1327.12,-116.5"/>
<text text-anchor="middle" x="1351.62" y="-124.5" font-family="Helvetica,sans-Serif" font-size="10.00">types.h</text>
</a>
</g>
<!-- Node26&#45;&gt;Node28 -->
<g id="edge76" class="edge"><title>Node26&#45;&gt;Node28</title>
<path fill="none" stroke="midnightblue" d="M1118.91,-176.442C1172.61,-165.033 1266.73,-145.036 1317.25,-134.302"/>
<polygon fill="midnightblue" stroke="midnightblue" points="1317.99,-137.723 1327.05,-132.221 1316.54,-130.876 1317.99,-137.723"/>
</g>
<!-- Node26&#45;&gt;Node29 -->
<g id="edge78" class="edge"><title>Node26&#45;&gt;Node29</title>
<path fill="none" stroke="midnightblue" d="M1038.42,-177.477C975.468,-165.7 855.056,-143.171 798.88,-132.661"/>
<polygon fill="midnightblue" stroke="midnightblue" points="799.325,-129.183 788.852,-130.784 798.038,-136.064 799.325,-129.183"/>
</g>
<!-- Node30&#45;&gt;Node11 -->
<g id="edge110" class="edge"><title>Node30&#45;&gt;Node11</title>
<path fill="none" stroke="midnightblue" d="M444.951,-296.616C399.195,-290.038 322.461,-275.987 305.625,-254 299.68,-246.237 302.359,-241.216 305.625,-232 343.37,-125.467 468.844,-53.1651 526.803,-24.6341"/>
<polygon fill="midnightblue" stroke="midnightblue" points="528.344,-27.7767 535.828,-20.2777 525.301,-21.4727 528.344,-27.7767"/>
</g>
<!-- Node30&#45;&gt;Node14 -->
<g id="edge100" class="edge"><title>Node30&#45;&gt;Node14</title>
<path fill="none" stroke="midnightblue" d="M514.195,-299.853C665.702,-294.809 1286.2,-273.957 1795.62,-254 1859.36,-251.503 1931.93,-248.384 1983.84,-246.106"/>
<polygon fill="midnightblue" stroke="midnightblue" points="1984.1,-249.598 1993.94,-245.662 1983.79,-242.605 1984.1,-249.598"/>
</g>
<!-- Node30&#45;&gt;Node15 -->
<g id="edge108" class="edge"><title>Node30&#45;&gt;Node15</title>
<path fill="none" stroke="midnightblue" d="M514.289,-297.991C576.928,-292.177 712.937,-277.829 825.625,-254 860.028,-246.725 866.907,-237.587 901.625,-232 1113.27,-197.942 1651.45,-205.234 1865.62,-196 1932.18,-193.13 2009.79,-189.209 2054.27,-186.907"/>
<polygon fill="midnightblue" stroke="midnightblue" points="2054.5,-190.399 2064.3,-186.385 2054.14,-183.409 2054.5,-190.399"/>
</g>
<!-- Node30&#45;&gt;Node24 -->
<g id="edge82" class="edge"><title>Node30&#45;&gt;Node24</title>
<path fill="none" stroke="midnightblue" d="M445.069,-294.723C397.567,-286.015 309.464,-269.575 234.625,-254 233.352,-253.735 232.062,-253.464 230.76,-253.188"/>
<polygon fill="midnightblue" stroke="midnightblue" points="231.173,-249.696 220.66,-251.005 229.695,-256.538 231.173,-249.696"/>
</g>
<!-- Node31 -->
<g id="node73" class="node"><title>Node31</title>
<a xlink:href="root__draw_8h.html" target="_top" xlink:title="root_draw.h">
<polygon fill="white" stroke="black" points="594.625,-232.5 594.625,-253.5 662.625,-253.5 662.625,-232.5 594.625,-232.5"/>
<text text-anchor="middle" x="628.625" y="-240.5" font-family="Helvetica,sans-Serif" font-size="10.00">root_draw.h</text>
</a>
</g>
<!-- Node30&#45;&gt;Node31 -->
<g id="edge84" class="edge"><title>Node30&#45;&gt;Node31</title>
<path fill="none" stroke="midnightblue" d="M506.608,-290.497C530.478,-281.205 565.518,-267.565 591.932,-257.283"/>
<polygon fill="midnightblue" stroke="midnightblue" points="593.542,-260.412 601.591,-253.523 591.003,-253.889 593.542,-260.412"/>
</g>
<!-- Node34 -->
<g id="node85" class="node"><title>Node34</title>
<polygon fill="white" stroke="#bfbfbf" points="526.125,-232.5 526.125,-253.5 577.125,-253.5 577.125,-232.5 526.125,-232.5"/>
<text text-anchor="middle" x="551.625" y="-240.5" font-family="Helvetica,sans-Serif" font-size="10.00">TH1D.h</text>
</g>
<!-- Node30&#45;&gt;Node34 -->
<g id="edge102" class="edge"><title>Node30&#45;&gt;Node34</title>
<path fill="none" stroke="midnightblue" d="M492.831,-290.362C503.386,-281.859 518.382,-269.779 530.588,-259.947"/>
<polygon fill="midnightblue" stroke="midnightblue" points="532.911,-262.57 538.503,-253.571 528.519,-257.118 532.911,-262.57"/>
</g>
<!-- Node35 -->
<g id="node87" class="node"><title>Node35</title>
<polygon fill="white" stroke="#bfbfbf" points="314.125,-232.5 314.125,-253.5 365.125,-253.5 365.125,-232.5 314.125,-232.5"/>
<text text-anchor="middle" x="339.625" y="-240.5" font-family="Helvetica,sans-Serif" font-size="10.00">TH2D.h</text>
</g>
<!-- Node30&#45;&gt;Node35 -->
<g id="edge104" class="edge"><title>Node30&#45;&gt;Node35</title>
<path fill="none" stroke="midnightblue" d="M454.272,-290.497C432.012,-281.275 399.413,-267.769 374.662,-257.515"/>
<polygon fill="midnightblue" stroke="midnightblue" points="375.84,-254.215 365.262,-253.621 373.161,-260.682 375.84,-254.215"/>
</g>
<!-- Node36 -->
<g id="node89" class="node"><title>Node36</title>
<polygon fill="white" stroke="#bfbfbf" points="382.125,-232.5 382.125,-253.5 433.125,-253.5 433.125,-232.5 382.125,-232.5"/>
<text text-anchor="middle" x="407.625" y="-240.5" font-family="Helvetica,sans-Serif" font-size="10.00">TH3D.h</text>
</g>
<!-- Node30&#45;&gt;Node36 -->
<g id="edge106" class="edge"><title>Node30&#45;&gt;Node36</title>
<path fill="none" stroke="midnightblue" d="M466.419,-290.362C455.864,-281.859 440.867,-269.779 428.662,-259.947"/>
<polygon fill="midnightblue" stroke="midnightblue" points="430.73,-257.118 420.747,-253.571 426.339,-262.57 430.73,-257.118"/>
</g>
<!-- Node37 -->
<g id="node93" class="node"><title>Node37</title>
<polygon fill="white" stroke="#bfbfbf" points="910.625,-232.5 910.625,-253.5 964.625,-253.5 964.625,-232.5 910.625,-232.5"/>
<text text-anchor="middle" x="937.625" y="-240.5" font-family="Helvetica,sans-Serif" font-size="10.00">iostream</text>
</g>
<!-- Node30&#45;&gt;Node37 -->
<g id="edge112" class="edge"><title>Node30&#45;&gt;Node37</title>
<path fill="none" stroke="midnightblue" d="M514.136,-296.896C580.767,-288.932 731.755,-270.698 858.625,-254 872.275,-252.203 887.238,-250.143 900.435,-248.295"/>
<polygon fill="midnightblue" stroke="midnightblue" points="901.167,-251.727 910.582,-246.867 900.192,-244.795 901.167,-251.727"/>
</g>
<!-- Node38 -->
<g id="node95" class="node"><title>Node38</title>
<polygon fill="white" stroke="#bfbfbf" points="450.125,-232.5 450.125,-253.5 509.125,-253.5 509.125,-232.5 450.125,-232.5"/>
<text text-anchor="middle" x="479.625" y="-240.5" font-family="Helvetica,sans-Serif" font-size="10.00">exception</text>
</g>
<!-- Node30&#45;&gt;Node38 -->
<g id="edge114" class="edge"><title>Node30&#45;&gt;Node38</title>
<path fill="none" stroke="midnightblue" d="M479.625,-290.362C479.625,-282.922 479.625,-272.743 479.625,-263.728"/>
<polygon fill="midnightblue" stroke="midnightblue" points="483.125,-263.571 479.625,-253.571 476.125,-263.571 483.125,-263.571"/>
</g>
<!-- Node31&#45;&gt;Node6 -->
<g id="edge90" class="edge"><title>Node31&#45;&gt;Node6</title>
<path fill="none" stroke="midnightblue" d="M635.522,-232.488C651.416,-208.939 692.859,-151.256 739.625,-116 806.372,-65.6811 900.955,-33.7402 949.753,-19.5494"/>
<polygon fill="midnightblue" stroke="midnightblue" points="950.785,-22.8948 959.445,-16.7905 948.868,-16.1622 950.785,-22.8948"/>
</g>
<!-- Node31&#45;&gt;Node11 -->
<g id="edge86" class="edge"><title>Node31&#45;&gt;Node11</title>
<path fill="none" stroke="midnightblue" d="M625.344,-232.429C614.216,-196.573 577.781,-79.1689 562.97,-31.4458"/>
<polygon fill="midnightblue" stroke="midnightblue" points="566.232,-30.1467 559.925,-21.6335 559.546,-32.2216 566.232,-30.1467"/>
</g>
<!-- Node31&#45;&gt;Node15 -->
<g id="edge94" class="edge"><title>Node31&#45;&gt;Node15</title>
<path fill="none" stroke="midnightblue" d="M662.827,-237.554C677.237,-235.468 694.209,-233.283 709.625,-232 1221.88,-189.357 1352.01,-216.551 1865.62,-196 1932.19,-193.337 2009.79,-189.347 2054.27,-186.976"/>
<polygon fill="midnightblue" stroke="midnightblue" points="2054.51,-190.468 2064.31,-186.438 2054.13,-183.478 2054.51,-190.468"/>
</g>
<!-- Node31&#45;&gt;Node16 -->
<g id="edge88" class="edge"><title>Node31&#45;&gt;Node16</title>
<path fill="none" stroke="midnightblue" d="M639.44,-232.319C656.62,-216.159 691.97,-186.098 728.625,-174 745.622,-168.39 1917.1,-133.273 2102.92,-127.735"/>
<polygon fill="midnightblue" stroke="midnightblue" points="2103.16,-131.229 2113.05,-127.433 2102.95,-124.232 2103.16,-131.229"/>
</g>
<!-- Node31&#45;&gt;Node19 -->
<g id="edge92" class="edge"><title>Node31&#45;&gt;Node19</title>
<path fill="none" stroke="midnightblue" d="M657.418,-232.497C686.718,-221.809 731.787,-205.368 760.478,-194.903"/>
<polygon fill="midnightblue" stroke="midnightblue" points="761.695,-198.184 769.89,-191.469 759.296,-191.608 761.695,-198.184"/>
</g>
<!-- Node31&#45;&gt;Node32 -->
<g id="edge96" class="edge"><title>Node31&#45;&gt;Node32</title>
<path fill="none" stroke="midnightblue" d="M594.371,-234.179C591.414,-233.435 588.468,-232.7 585.625,-232 518.215,-215.396 501.035,-212.604 433.625,-196 432.54,-195.733 431.44,-195.461 430.33,-195.185"/>
<polygon fill="midnightblue" stroke="midnightblue" points="430.767,-191.686 420.215,-192.644 429.061,-198.475 430.767,-191.686"/>
</g>
<!-- Node33 -->
<g id="node82" class="node"><title>Node33</title>
<polygon fill="white" stroke="#bfbfbf" points="2365.62,-116.5 2365.62,-137.5 2421.62,-137.5 2421.62,-116.5 2365.62,-116.5"/>
<text text-anchor="middle" x="2393.62" y="-124.5" font-family="Helvetica,sans-Serif" font-size="10.00">Rtypes.h</text>
</g>
<!-- Node31&#45;&gt;Node33 -->
<g id="edge98" class="edge"><title>Node31&#45;&gt;Node33</title>
<path fill="none" stroke="midnightblue" d="M650.436,-232.478C669.59,-223.147 698.137,-209.018 722.625,-196 740.197,-186.658 742.443,-179.304 761.625,-174 910.427,-132.856 1996.34,-143.491 2150.62,-138 2223.02,-135.424 2307.49,-131.361 2355.36,-128.961"/>
<polygon fill="midnightblue" stroke="midnightblue" points="2355.76,-132.445 2365.57,-128.446 2355.41,-125.454 2355.76,-132.445"/>
</g>
<!-- Node39&#45;&gt;Node5 -->
<g id="edge144" class="edge"><title>Node39&#45;&gt;Node5</title>
<path fill="none" stroke="midnightblue" d="M1276.11,-290.461C1272.16,-258.3 1265.24,-160.884 1318.62,-116 1385.55,-59.7241 1618.56,-91.1815 1722.61,-79.8071"/>
<polygon fill="midnightblue" stroke="midnightblue" points="1723.1,-83.2737 1732.57,-78.5235 1722.2,-76.3312 1723.1,-83.2737"/>
</g>
<!-- Node39&#45;&gt;Node6 -->
<g id="edge172" class="edge"><title>Node39&#45;&gt;Node6</title>
<path fill="none" stroke="midnightblue" d="M1217.89,-296.684C1162.88,-291.268 1079.73,-279.395 1011.62,-254 1010.15,-253.452 915.434,-197.345 914.625,-196 882.729,-143.005 898.893,-109.846 932.625,-58 939.884,-46.8427 950.273,-36.3836 959.618,-28.1776"/>
<polygon fill="midnightblue" stroke="midnightblue" points="962.056,-30.7004 967.457,-21.5854 957.551,-25.3429 962.056,-30.7004"/>
</g>
<!-- Node39&#45;&gt;Node15 -->
<g id="edge178" class="edge"><title>Node39&#45;&gt;Node15</title>
<path fill="none" stroke="midnightblue" d="M1337.44,-298.435C1454.77,-292.934 1711.05,-278.475 1795.62,-254 1816.25,-248.032 1818.26,-238.797 1838.62,-232 1927.62,-202.297 1954.83,-215.39 2046.62,-196 2049.12,-195.473 2051.69,-194.904 2054.27,-194.311"/>
<polygon fill="midnightblue" stroke="midnightblue" points="2055.26,-197.673 2064.17,-191.948 2053.63,-190.864 2055.26,-197.673"/>
</g>
<!-- Node39&#45;&gt;Node16 -->
<g id="edge174" class="edge"><title>Node39&#45;&gt;Node16</title>
<path fill="none" stroke="midnightblue" d="M1337.16,-295.367C1385.16,-289.325 1453.65,-277.267 1509.62,-254 1525.9,-247.234 1526.4,-238.897 1542.62,-232 1611.3,-202.8 1635.77,-219.407 1706.62,-196 1729.29,-188.512 1732.64,-180.456 1755.62,-174 1882.77,-138.286 2042.02,-129.66 2102.64,-127.618"/>
<polygon fill="midnightblue" stroke="midnightblue" points="2102.89,-131.112 2112.78,-127.308 2102.68,-124.115 2102.89,-131.112"/>
</g>
<!-- Node39&#45;&gt;Node28 -->
<g id="edge146" class="edge"><title>Node39&#45;&gt;Node28</title>
<path fill="none" stroke="midnightblue" d="M1280.52,-290.495C1286.8,-268.363 1302.72,-215.56 1322.62,-174 1327.14,-164.576 1333.07,-154.658 1338.38,-146.374"/>
<polygon fill="midnightblue" stroke="midnightblue" points="1341.44,-148.104 1344.02,-137.83 1335.59,-144.248 1341.44,-148.104"/>
</g>
<!-- Node39&#45;&gt;Node37 -->
<g id="edge176" class="edge"><title>Node39&#45;&gt;Node37</title>
<path fill="none" stroke="midnightblue" d="M1218,-293.526C1157.41,-285.487 1061,-271.473 978.625,-254 977.368,-253.733 976.091,-253.452 974.805,-253.159"/>
<polygon fill="midnightblue" stroke="midnightblue" points="975.418,-249.706 964.874,-250.743 973.764,-256.508 975.418,-249.706"/>
</g>
<!-- Node40 -->
<g id="node99" class="node"><title>Node40</title>
<a xlink:href="_candidate_8h.html" target="_top" xlink:title="analysis/data/Candidate.h">
<polygon fill="white" stroke="black" points="1370.62,-232.5 1370.62,-253.5 1500.62,-253.5 1500.62,-232.5 1370.62,-232.5"/>
<text text-anchor="middle" x="1435.62" y="-240.5" font-family="Helvetica,sans-Serif" font-size="10.00">analysis/data/Candidate.h</text>
</a>
</g>
<!-- Node39&#45;&gt;Node40 -->
<g id="edge118" class="edge"><title>Node39&#45;&gt;Node40</title>
<path fill="none" stroke="midnightblue" d="M1306.24,-290.497C1331.77,-281.123 1369.36,-267.324 1397.45,-257.012"/>
<polygon fill="midnightblue" stroke="midnightblue" points="1398.78,-260.255 1406.96,-253.523 1396.36,-253.684 1398.78,-260.255"/>
</g>
<!-- Node43 -->
<g id="node117" class="node"><title>Node43</title>
<a xlink:href="_particle_type_8h.html" target="_top" xlink:title="base/ParticleType.h">
<polygon fill="white" stroke="black" points="1020.62,-232.5 1020.62,-253.5 1124.62,-253.5 1124.62,-232.5 1020.62,-232.5"/>
<text text-anchor="middle" x="1072.62" y="-240.5" font-family="Helvetica,sans-Serif" font-size="10.00">base/ParticleType.h</text>
</a>
</g>
<!-- Node39&#45;&gt;Node43 -->
<g id="edge148" class="edge"><title>Node39&#45;&gt;Node43</title>
<path fill="none" stroke="midnightblue" d="M1240.5,-290.497C1206.65,-280.918 1156.46,-266.72 1119.78,-256.342"/>
<polygon fill="midnightblue" stroke="midnightblue" points="1120.39,-252.878 1109.82,-253.523 1118.49,-259.613 1120.39,-252.878"/>
</g>
<!-- Node45 -->
<g id="node126" class="node"><title>Node45</title>
<a xlink:href="_tree_8h.html" target="_top" xlink:title="base/Tree.h">
<polygon fill="white" stroke="black" points="1718.62,-232.5 1718.62,-253.5 1786.62,-253.5 1786.62,-232.5 1718.62,-232.5"/>
<text text-anchor="middle" x="1752.62" y="-240.5" font-family="Helvetica,sans-Serif" font-size="10.00">base/Tree.h</text>
</a>
</g>
<!-- Node39&#45;&gt;Node45 -->
<g id="edge162" class="edge"><title>Node39&#45;&gt;Node45</title>
<path fill="none" stroke="midnightblue" d="M1337.41,-297.193C1419.17,-291.389 1570.56,-278.518 1708.54,-253.994"/>
<polygon fill="midnightblue" stroke="midnightblue" points="1709.23,-257.426 1718.45,-252.208 1707.99,-250.537 1709.23,-257.426"/>
</g>
<!-- Node46 -->
<g id="node131" class="node"><title>Node46</title>
<polygon fill="white" stroke="#bfbfbf" points="1764.62,-174.5 1764.62,-195.5 1856.62,-195.5 1856.62,-174.5 1764.62,-174.5"/>
<text text-anchor="middle" x="1810.62" y="-182.5" font-family="Helvetica,sans-Serif" font-size="10.00">TLorentzVector.h</text>
</g>
<!-- Node39&#45;&gt;Node46 -->
<g id="edge170" class="edge"><title>Node39&#45;&gt;Node46</title>
<path fill="none" stroke="midnightblue" d="M1337.13,-292.011C1391.04,-283.497 1472.52,-269.703 1542.62,-254 1579.03,-245.846 1587.53,-241.436 1623.62,-232 1668.77,-220.197 1720.19,-207.313 1757.68,-198.024"/>
<polygon fill="midnightblue" stroke="midnightblue" points="1758.99,-201.303 1767.86,-195.503 1757.31,-194.508 1758.99,-201.303"/>
</g>
<!-- Node40&#45;&gt;Node4 -->
<g id="edge124" class="edge"><title>Node40&#45;&gt;Node4</title>
<path fill="none" stroke="midnightblue" d="M1500.73,-232.732C1551.85,-223.834 1618.16,-210.188 1641.62,-196 1661.92,-183.729 1678.74,-162.045 1689.16,-146.253"/>
<polygon fill="midnightblue" stroke="midnightblue" points="1692.15,-148.075 1694.53,-137.752 1686.23,-144.335 1692.15,-148.075"/>
</g>
<!-- Node40&#45;&gt;Node5 -->
<g id="edge120" class="edge"><title>Node40&#45;&gt;Node5</title>
<path fill="none" stroke="midnightblue" d="M1500.87,-232.603C1558.56,-222.897 1638.01,-208.129 1667.62,-196 1711.32,-178.106 1728.77,-176.123 1756.62,-138 1766.9,-123.929 1771.62,-104.566 1773.79,-89.9327"/>
<polygon fill="midnightblue" stroke="midnightblue" points="1777.29,-90.1752 1775,-79.8303 1770.33,-89.3439 1777.29,-90.1752"/>
</g>
<!-- Node40&#45;&gt;Node6 -->
<g id="edge142" class="edge"><title>Node40&#45;&gt;Node6</title>
<path fill="none" stroke="midnightblue" d="M1432.63,-232.236C1424.74,-204.645 1402.78,-132.41 1384.62,-116 1329.01,-65.7376 1099.1,-28.0121 1013.73,-15.489"/>
<polygon fill="midnightblue" stroke="midnightblue" points="1014.22,-12.024 1003.82,-14.0545 1013.22,-18.9517 1014.22,-12.024"/>
</g>
<!-- Node40&#45;&gt;Node7 -->
<g id="edge138" class="edge"><title>Node40&#45;&gt;Node7</title>
<path fill="none" stroke="midnightblue" d="M1439.36,-232.429C1452.06,-196.497 1493.71,-78.6742 1510.5,-31.1453"/>
<polygon fill="midnightblue" stroke="midnightblue" points="1513.83,-32.2283 1513.87,-21.6335 1507.23,-29.8955 1513.83,-32.2283"/>
</g>
<!-- Node40&#45;&gt;Node8 -->
<g id="edge136" class="edge"><title>Node40&#45;&gt;Node8</title>
<path fill="none" stroke="midnightblue" d="M1434.65,-232.377C1432.07,-204.293 1425.02,-127.673 1421.57,-90.2027"/>
<polygon fill="midnightblue" stroke="midnightblue" points="1425.03,-89.5652 1420.63,-79.9277 1418.06,-90.2062 1425.03,-89.5652"/>
</g>
<!-- Node40&#45;&gt;Node15 -->
<g id="edge140" class="edge"><title>Node40&#45;&gt;Node15</title>
<path fill="none" stroke="midnightblue" d="M1500.82,-237.227C1637.06,-225.163 1948.08,-197.622 2054.29,-188.217"/>
<polygon fill="midnightblue" stroke="midnightblue" points="2054.84,-191.682 2064.5,-187.314 2054.23,-184.709 2054.84,-191.682"/>
</g>
<!-- Node40&#45;&gt;Node28 -->
<g id="edge122" class="edge"><title>Node40&#45;&gt;Node28</title>
<path fill="none" stroke="midnightblue" d="M1426.89,-232.336C1419.25,-222.914 1407.96,-208.732 1398.62,-196 1386.65,-179.662 1373.74,-160.599 1364.49,-146.656"/>
<polygon fill="midnightblue" stroke="midnightblue" points="1367.15,-144.336 1358.72,-137.917 1361.31,-148.191 1367.15,-144.336"/>
</g>
<!-- Node41 -->
<g id="node104" class="node"><title>Node41</title>
<a xlink:href="_cluster_8h.html" target="_top" xlink:title="analysis/data/Cluster.h">
<polygon fill="white" stroke="black" points="1516.12,-174.5 1516.12,-195.5 1633.12,-195.5 1633.12,-174.5 1516.12,-174.5"/>
<text text-anchor="middle" x="1574.62" y="-182.5" font-family="Helvetica,sans-Serif" font-size="10.00">analysis/data/Cluster.h</text>
</a>
</g>
<!-- Node40&#45;&gt;Node41 -->
<g id="edge126" class="edge"><title>Node40&#45;&gt;Node41</title>
<path fill="none" stroke="midnightblue" d="M1460.8,-232.497C1482.9,-223.275 1515.26,-209.769 1539.84,-199.515"/>
<polygon fill="midnightblue" stroke="midnightblue" points="1541.29,-202.702 1549.17,-195.621 1538.59,-196.242 1541.29,-202.702"/>
</g>
<!-- Node41&#45;&gt;Node4 -->
<g id="edge128" class="edge"><title>Node41&#45;&gt;Node4</title>
<path fill="none" stroke="midnightblue" d="M1597.44,-174.497C1617.21,-165.397 1646.04,-152.127 1668.2,-141.925"/>
<polygon fill="midnightblue" stroke="midnightblue" points="1669.93,-144.982 1677.55,-137.621 1667,-138.623 1669.93,-144.982"/>
</g>
<!-- Node41&#45;&gt;Node8 -->
<g id="edge132" class="edge"><title>Node41&#45;&gt;Node8</title>
<path fill="none" stroke="midnightblue" d="M1560.32,-174.295C1533.33,-154.096 1474.7,-110.216 1442.29,-85.9632"/>
<polygon fill="midnightblue" stroke="midnightblue" points="1444,-82.8688 1433.89,-79.6792 1439.8,-88.4731 1444,-82.8688"/>
</g>
<!-- Node41&#45;&gt;Node16 -->
<g id="edge130" class="edge"><title>Node41&#45;&gt;Node16</title>
<path fill="none" stroke="midnightblue" d="M1633.28,-178.848C1752.73,-166.32 2019.88,-138.3 2102.68,-129.617"/>
<polygon fill="midnightblue" stroke="midnightblue" points="2103.1,-133.091 2112.68,-128.567 2102.37,-126.13 2103.1,-133.091"/>
</g>
<!-- Node42 -->
<g id="node109" class="node"><title>Node42</title>
<a xlink:href="enumfield_8h.html" target="_top" xlink:title="base/enumfield.h">
<polygon fill="white" stroke="black" points="1545.12,-116.5 1545.12,-137.5 1636.12,-137.5 1636.12,-116.5 1545.12,-116.5"/>
<text text-anchor="middle" x="1590.62" y="-124.5" font-family="Helvetica,sans-Serif" font-size="10.00">base/enumfield.h</text>
</a>
</g>
<!-- Node41&#45;&gt;Node42 -->
<g id="edge134" class="edge"><title>Node41&#45;&gt;Node42</title>
<path fill="none" stroke="midnightblue" d="M1577.56,-174.362C1579.63,-166.84 1582.48,-156.519 1584.99,-147.431"/>
<polygon fill="midnightblue" stroke="midnightblue" points="1588.42,-148.141 1587.71,-137.571 1581.68,-146.28 1588.42,-148.141"/>
</g>
<!-- Node43&#45;&gt;Node6 -->
<g id="edge160" class="edge"><title>Node43&#45;&gt;Node6</title>
<path fill="none" stroke="midnightblue" d="M1020.46,-232.819C983.617,-224.445 938.868,-211.464 927.625,-196 889.715,-143.86 939.457,-65.4117 966.386,-29.7899"/>
<polygon fill="midnightblue" stroke="midnightblue" points="969.302,-31.7422 972.674,-21.6983 963.775,-27.4469 969.302,-31.7422"/>
</g>
<!-- Node43&#45;&gt;Node7 -->
<g id="edge154" class="edge"><title>Node43&#45;&gt;Node7</title>
<path fill="none" stroke="midnightblue" d="M1058.45,-232.408C1048.28,-223.861 1035.39,-210.845 1029.62,-196 1022.35,-177.275 1027.82,-126.08 1036.62,-116 1095.5,-48.6346 1379.73,-21.2306 1481.38,-13.4791"/>
<polygon fill="midnightblue" stroke="midnightblue" points="1481.76,-16.9609 1491.47,-12.7291 1481.24,-9.98021 1481.76,-16.9609"/>
</g>
<!-- Node43&#45;&gt;Node11 -->
<g id="edge152" class="edge"><title>Node43&#45;&gt;Node11</title>
<path fill="none" stroke="midnightblue" d="M1023.12,-232.472C991.226,-224.683 949.377,-212.55 914.625,-196 857.751,-168.916 852.746,-146.494 797.625,-116 724.703,-75.6578 633.194,-39.445 586.715,-21.9959"/>
<polygon fill="midnightblue" stroke="midnightblue" points="587.829,-18.676 577.236,-18.4638 585.384,-25.2354 587.829,-18.676"/>
</g>
<!-- Node43&#45;&gt;Node19 -->
<g id="edge156" class="edge"><title>Node43&#45;&gt;Node19</title>
<path fill="none" stroke="midnightblue" d="M1021.01,-232.497C960.616,-220.205 862.832,-200.305 815.313,-190.635"/>
<polygon fill="midnightblue" stroke="midnightblue" points="815.929,-187.188 805.432,-188.624 814.533,-194.048 815.929,-187.188"/>
</g>
<!-- Node43&#45;&gt;Node28 -->
<g id="edge150" class="edge"><title>Node43&#45;&gt;Node28</title>
<path fill="none" stroke="midnightblue" d="M1098.37,-232.295C1148.87,-211.299 1260.91,-164.718 1317.5,-141.188"/>
<polygon fill="midnightblue" stroke="midnightblue" points="1318.85,-144.416 1326.74,-137.345 1316.17,-137.953 1318.85,-144.416"/>
</g>
<!-- Node44 -->
<g id="node123" class="node"><title>Node44</title>
<polygon fill="white" stroke="#bfbfbf" points="936.125,-174.5 936.125,-195.5 983.125,-195.5 983.125,-174.5 936.125,-174.5"/>
<text text-anchor="middle" x="959.625" y="-182.5" font-family="Helvetica,sans-Serif" font-size="10.00">iterator</text>
</g>
<!-- Node43&#45;&gt;Node44 -->
<g id="edge158" class="edge"><title>Node43&#45;&gt;Node44</title>
<path fill="none" stroke="midnightblue" d="M1052.16,-232.497C1034.59,-223.479 1009.04,-210.365 989.24,-200.201"/>
<polygon fill="midnightblue" stroke="midnightblue" points="990.813,-197.074 980.318,-195.621 987.616,-203.301 990.813,-197.074"/>
</g>
<!-- Node45&#45;&gt;Node15 -->
<g id="edge164" class="edge"><title>Node45&#45;&gt;Node15</title>
<path fill="none" stroke="midnightblue" d="M1786.64,-234.841C1791.33,-233.824 1796.09,-232.845 1800.62,-232 1910.98,-211.445 1940.73,-218.928 2050.62,-196 2051.89,-195.735 2053.18,-195.453 2054.48,-195.158"/>
<polygon fill="midnightblue" stroke="midnightblue" points="2055.62,-198.483 2064.49,-192.693 2053.94,-191.686 2055.62,-198.483"/>
</g>
<!-- Node45&#45;&gt;Node16 -->
<g id="edge166" class="edge"><title>Node45&#45;&gt;Node16</title>
<path fill="none" stroke="midnightblue" d="M1786.66,-234.947C1791.34,-233.914 1796.1,-232.902 1800.62,-232 1894.35,-213.318 1922.99,-229.158 2012.62,-196 2031.34,-189.075 2076.57,-160.479 2104.4,-142.343"/>
<polygon fill="midnightblue" stroke="midnightblue" points="2106.32,-145.269 2112.77,-136.864 2102.49,-139.413 2106.32,-145.269"/>
</g>
<!-- Node45&#45;&gt;Node27 -->
<g id="edge168" class="edge"><title>Node45&#45;&gt;Node27</title>
<path fill="none" stroke="midnightblue" d="M1786.9,-233.129C1829.86,-220.634 1898.4,-200.221 1902.62,-196 1947.92,-150.708 1957.93,-70.5154 1960.08,-32.3441"/>
<polygon fill="midnightblue" stroke="midnightblue" points="1963.59,-32.0725 1960.52,-21.932 1956.6,-31.7732 1963.59,-32.0725"/>
</g>
<!-- Node47&#45;&gt;Node5 -->
<g id="edge252" class="edge"><title>Node47&#45;&gt;Node5</title>
<path fill="none" stroke="midnightblue" d="M1491.25,-364.846C1686.94,-360.521 2333.57,-343.859 2363.62,-312 2440.6,-230.413 2312.17,-147.873 2204.62,-116 2169.39,-105.556 1936.14,-83.5109 1829.12,-73.7838"/>
<polygon fill="midnightblue" stroke="midnightblue" points="1829.14,-70.271 1818.86,-72.854 1828.5,-77.2424 1829.14,-70.271"/>
</g>
<!-- Node47&#45;&gt;Node6 -->
<g id="edge256" class="edge"><title>Node47&#45;&gt;Node6</title>
<path fill="none" stroke="midnightblue" d="M1379.97,-360.513C1320.04,-353.32 1230.46,-338.402 1209.62,-312 1154.9,-242.657 1292.08,-189.198 1242.62,-116 1190.5,-38.8474 1071.27,-18.3753 1013.79,-12.9508"/>
<polygon fill="midnightblue" stroke="midnightblue" points="1014.06,-9.46162 1003.8,-12.1028 1013.47,-16.4365 1014.06,-9.46162"/>
</g>
<!-- Node47&#45;&gt;Node15 -->
<g id="edge258" class="edge"><title>Node47&#45;&gt;Node15</title>
<path fill="none" stroke="midnightblue" d="M1482.36,-355.475C1557.14,-338.033 1707.77,-300.413 1830.62,-254 1851.82,-245.991 1855.17,-239.288 1876.62,-232 1949.75,-207.164 1971.37,-213.369 2046.62,-196 2049.27,-195.39 2051.99,-194.745 2054.74,-194.086"/>
<polygon fill="midnightblue" stroke="midnightblue" points="2055.72,-197.448 2064.6,-191.671 2054.06,-190.649 2055.72,-197.448"/>
</g>
<!-- Node47&#45;&gt;Node19 -->
<g id="edge260" class="edge"><title>Node47&#45;&gt;Node19</title>
<path fill="none" stroke="midnightblue" d="M1380.04,-360.6C1280.97,-349.621 1068.58,-319.927 901.625,-254 867.583,-240.558 832.079,-217.379 809.92,-201.631"/>
<polygon fill="midnightblue" stroke="midnightblue" points="811.716,-198.61 801.56,-195.589 807.616,-204.283 811.716,-198.61"/>
</g>
<!-- Node47&#45;&gt;Node28 -->
<g id="edge250" class="edge"><title>Node47&#45;&gt;Node28</title>
<path fill="none" stroke="midnightblue" d="M1425.75,-355.261C1409.1,-336.413 1375.87,-295.432 1361.62,-254 1349.28,-218.109 1348.99,-173.269 1350.14,-147.605"/>
<polygon fill="midnightblue" stroke="midnightblue" points="1353.64,-147.745 1350.72,-137.562 1346.65,-147.347 1353.64,-147.745"/>
</g>
<!-- Node47&#45;&gt;Node39 -->
<g id="edge184" class="edge"><title>Node47&#45;&gt;Node39</title>
<path fill="none" stroke="midnightblue" d="M1409.89,-355.412C1383.49,-344.552 1342.24,-327.583 1312.83,-315.484"/>
<polygon fill="midnightblue" stroke="midnightblue" points="1313.93,-312.151 1303.35,-311.584 1311.27,-318.625 1313.93,-312.151"/>
</g>
<!-- Node47&#45;&gt;Node40 -->
<g id="edge186" class="edge"><title>Node47&#45;&gt;Node40</title>
<path fill="none" stroke="midnightblue" d="M1435.62,-355.085C1435.62,-334.609 1435.62,-290.133 1435.62,-263.778"/>
<polygon fill="midnightblue" stroke="midnightblue" points="1439.12,-263.715 1435.62,-253.715 1432.12,-263.715 1439.12,-263.715"/>
</g>
<!-- Node47&#45;&gt;Node45 -->
<g id="edge254" class="edge"><title>Node47&#45;&gt;Node45</title>
<path fill="none" stroke="midnightblue" d="M1462.93,-355.407C1519.92,-333.291 1651.6,-282.201 1715.92,-257.241"/>
<polygon fill="midnightblue" stroke="midnightblue" points="1717.22,-260.492 1725.28,-253.612 1714.69,-253.966 1717.22,-260.492"/>
</g>
<!-- Node48 -->
<g id="node142" class="node"><title>Node48</title>
<a xlink:href="_tagger_hit_8h.html" target="_top" xlink:title="TaggerHit.h">
<polygon fill="white" stroke="black" points="1632.62,-232.5 1632.62,-253.5 1700.62,-253.5 1700.62,-232.5 1632.62,-232.5"/>
<text text-anchor="middle" x="1666.62" y="-240.5" font-family="Helvetica,sans-Serif" font-size="10.00">TaggerHit.h</text>
</a>
</g>
<!-- Node47&#45;&gt;Node48 -->
<g id="edge188" class="edge"><title>Node47&#45;&gt;Node48</title>
<path fill="none" stroke="midnightblue" d="M1455.72,-355.3C1496.78,-333.437 1590.42,-283.578 1637.89,-258.3"/>
<polygon fill="midnightblue" stroke="midnightblue" points="1639.56,-261.377 1646.74,-253.588 1636.27,-255.199 1639.56,-261.377"/>
</g>
<!-- Node49 -->
<g id="node149" class="node"><title>Node49</title>
<a xlink:href="_trigger_info_8h.html" target="_top" xlink:title="TriggerInfo.h">
<polygon fill="white" stroke="black" points="2284.12,-290.5 2284.12,-311.5 2355.12,-311.5 2355.12,-290.5 2284.12,-290.5"/>
<text text-anchor="middle" x="2319.62" y="-298.5" font-family="Helvetica,sans-Serif" font-size="10.00">TriggerInfo.h</text>
</a>
</g>
<!-- Node47&#45;&gt;Node49 -->
<g id="edge200" class="edge"><title>Node47&#45;&gt;Node49</title>
<path fill="none" stroke="midnightblue" d="M1491.26,-361.909C1653.64,-349.97 2124.87,-315.32 2273.88,-304.363"/>
<polygon fill="midnightblue" stroke="midnightblue" points="2274.33,-307.84 2284.05,-303.616 2273.82,-300.859 2274.33,-307.84"/>
</g>
<!-- Node48&#45;&gt;Node5 -->
<g id="edge196" class="edge"><title>Node48&#45;&gt;Node5</title>
<path fill="none" stroke="midnightblue" d="M1700.86,-234.087C1703.82,-233.363 1706.77,-232.658 1709.62,-232 1787,-214.155 1834.45,-257.546 1884.62,-196 1918.06,-154.982 1848.75,-108.044 1805.96,-84.373"/>
<polygon fill="midnightblue" stroke="midnightblue" points="1807.49,-81.2185 1797.02,-79.5497 1804.16,-87.3788 1807.49,-81.2185"/>
</g>
<!-- Node48&#45;&gt;Node15 -->
<g id="edge192" class="edge"><title>Node48&#45;&gt;Node15</title>
<path fill="none" stroke="midnightblue" d="M1700.8,-233.823C1703.77,-233.157 1706.75,-232.537 1709.62,-232 1842.94,-207.141 1878.14,-213.47 2012.62,-196 2026.22,-194.235 2041.12,-192.166 2054.22,-190.302"/>
<polygon fill="midnightblue" stroke="midnightblue" points="2054.89,-193.742 2064.29,-188.86 2053.89,-186.813 2054.89,-193.742"/>
</g>
<!-- Node48&#45;&gt;Node16 -->
<g id="edge190" class="edge"><title>Node48&#45;&gt;Node16</title>
<path fill="none" stroke="midnightblue" d="M1700.83,-233.945C1703.79,-233.252 1706.76,-232.593 1709.62,-232 1809.66,-211.32 1837.7,-221.468 1936.62,-196 1998.16,-180.159 2067.71,-152.428 2103.49,-137.397"/>
<polygon fill="midnightblue" stroke="midnightblue" points="2105.22,-140.465 2113.07,-133.34 2102.49,-134.02 2105.22,-140.465"/>
</g>
<!-- Node48&#45;&gt;Node28 -->
<g id="edge194" class="edge"><title>Node48&#45;&gt;Node28</title>
<path fill="none" stroke="midnightblue" d="M1700.87,-234.161C1703.83,-233.421 1706.78,-232.692 1709.62,-232 1781.5,-214.516 1915.49,-228.634 1865.62,-174 1849.42,-156.248 1499.26,-135.234 1386.37,-128.899"/>
<polygon fill="midnightblue" stroke="midnightblue" points="1386.38,-125.394 1376.2,-128.332 1385.99,-132.384 1386.38,-125.394"/>
</g>
<!-- Node48&#45;&gt;Node46 -->
<g id="edge198" class="edge"><title>Node48&#45;&gt;Node46</title>
<path fill="none" stroke="midnightblue" d="M1692.7,-232.497C1715.7,-223.234 1749.43,-209.65 1774.92,-199.379"/>
<polygon fill="midnightblue" stroke="midnightblue" points="1776.29,-202.604 1784.25,-195.621 1773.67,-196.111 1776.29,-202.604"/>
</g>
<!-- Node49&#45;&gt;Node5 -->
<g id="edge204" class="edge"><title>Node49&#45;&gt;Node5</title>
<path fill="none" stroke="midnightblue" d="M2324.8,-290.401C2330.8,-276.581 2338.99,-251.832 2331.62,-232 2298.35,-142.435 2242.69,-141.554 2150.62,-116 2091.33,-99.542 1917.6,-81.9694 1828.97,-73.7511"/>
<polygon fill="midnightblue" stroke="midnightblue" points="1829.13,-70.2515 1818.85,-72.8196 1828.49,-77.222 1829.13,-70.2515"/>
</g>
<!-- Node49&#45;&gt;Node15 -->
<g id="edge248" class="edge"><title>Node49&#45;&gt;Node15</title>
<path fill="none" stroke="midnightblue" d="M2303.84,-290.358C2282.24,-276.05 2242,-250.3 2205.62,-232 2179.66,-218.938 2149.17,-206.605 2126.11,-197.852"/>
<polygon fill="midnightblue" stroke="midnightblue" points="2127.31,-194.564 2116.71,-194.329 2124.85,-201.118 2127.31,-194.564"/>
</g>
<!-- Node49&#45;&gt;Node16 -->
<g id="edge246" class="edge"><title>Node49&#45;&gt;Node16</title>
<path fill="none" stroke="midnightblue" d="M2321.78,-290.225C2324.07,-275.766 2325.96,-249.845 2314.62,-232 2277.08,-172.87 2193.73,-143.942 2152.17,-132.76"/>
<polygon fill="midnightblue" stroke="midnightblue" points="2152.88,-129.329 2142.33,-130.234 2151.14,-136.109 2152.88,-129.329"/>
</g>
<!-- Node49&#45;&gt;Node28 -->
<g id="edge202" class="edge"><title>Node49&#45;&gt;Node28</title>
<path fill="none" stroke="midnightblue" d="M2309.07,-290.484C2281.74,-264.128 2205.22,-195.807 2125.62,-174 2121.1,-172.76 1536.39,-137.972 1386.38,-129.062"/>
<polygon fill="midnightblue" stroke="midnightblue" points="1386.53,-125.566 1376.34,-128.467 1386.11,-132.553 1386.53,-125.566"/>
</g>
<!-- Node50 -->
<g id="node153" class="node"><title>Node50</title>
<a xlink:href="_t_data_record_8h.html" target="_top" xlink:title="tree/TDataRecord.h">
<polygon fill="white" stroke="black" points="2632.12,-232.5 2632.12,-253.5 2735.12,-253.5 2735.12,-232.5 2632.12,-232.5"/>
<text text-anchor="middle" x="2683.62" y="-240.5" font-family="Helvetica,sans-Serif" font-size="10.00">tree/TDataRecord.h</text>
</a>
</g>
<!-- Node49&#45;&gt;Node50 -->
<g id="edge206" class="edge"><title>Node49&#45;&gt;Node50</title>
<path fill="none" stroke="midnightblue" d="M2355.19,-295.333C2417.08,-285.472 2545.29,-265.042 2621.94,-252.83"/>
<polygon fill="midnightblue" stroke="midnightblue" points="2622.61,-256.266 2631.94,-251.236 2621.51,-249.353 2622.61,-256.266"/>
</g>
<!-- Node50&#45;&gt;Node33 -->
<g id="edge240" class="edge"><title>Node50&#45;&gt;Node33</title>
<path fill="none" stroke="midnightblue" d="M2670.84,-232.261C2652.17,-217.117 2615.85,-189.597 2580.62,-174 2519.91,-147.119 2499.97,-154.412 2435.62,-138 2434.21,-137.639 2432.77,-137.27 2431.31,-136.895"/>
<polygon fill="midnightblue" stroke="midnightblue" points="2432.18,-133.506 2421.63,-134.387 2430.43,-140.282 2432.18,-133.506"/>
</g>
<!-- Node51 -->
<g id="node155" class="node"><title>Node51</title>
<a xlink:href="_t_i_d_8h.html" target="_top" xlink:title="TID.h">
<polygon fill="white" stroke="black" points="2632.12,-174.5 2632.12,-195.5 2673.12,-195.5 2673.12,-174.5 2632.12,-174.5"/>
<text text-anchor="middle" x="2652.62" y="-182.5" font-family="Helvetica,sans-Serif" font-size="10.00">TID.h</text>
</a>
</g>
<!-- Node50&#45;&gt;Node51 -->
<g id="edge208" class="edge"><title>Node50&#45;&gt;Node51</title>
<path fill="none" stroke="midnightblue" d="M2677.94,-232.362C2673.79,-224.595 2668.04,-213.843 2663.07,-204.546"/>
<polygon fill="midnightblue" stroke="midnightblue" points="2666.08,-202.74 2658.27,-195.571 2659.9,-206.04 2666.08,-202.74"/>
</g>
<!-- Node56 -->
<g id="node169" class="node"><title>Node56</title>
<polygon fill="white" stroke="#bfbfbf" points="2675.12,-58.5 2675.12,-79.5 2716.12,-79.5 2716.12,-58.5 2675.12,-58.5"/>
<text text-anchor="middle" x="2695.62" y="-66.5" font-family="Helvetica,sans-Serif" font-size="10.00">ctime</text>
</g>
<!-- Node50&#45;&gt;Node56 -->
<g id="edge244" class="edge"><title>Node50&#45;&gt;Node56</title>
<path fill="none" stroke="midnightblue" d="M2684.36,-232.377C2686.29,-204.293 2691.58,-127.673 2694.16,-90.2027"/>
<polygon fill="midnightblue" stroke="midnightblue" points="2697.67,-90.1449 2694.87,-79.9277 2690.69,-89.6632 2697.67,-90.1449"/>
</g>
<!-- Node58 -->
<g id="node176" class="node"><title>Node58</title>
<polygon fill="white" stroke="#bfbfbf" points="2843.62,-116.5 2843.62,-137.5 2893.62,-137.5 2893.62,-116.5 2843.62,-116.5"/>
<text text-anchor="middle" x="2868.62" y="-124.5" font-family="Helvetica,sans-Serif" font-size="10.00">iomanip</text>
</g>
<!-- Node50&#45;&gt;Node58 -->
<g id="edge242" class="edge"><title>Node50&#45;&gt;Node58</title>
<path fill="none" stroke="midnightblue" d="M2700.7,-232.295C2733.41,-211.785 2805.06,-166.859 2843.33,-142.857"/>
<polygon fill="midnightblue" stroke="midnightblue" points="2845.25,-145.789 2851.86,-137.512 2841.53,-139.859 2845.25,-145.789"/>
</g>
<!-- Node51&#45;&gt;Node5 -->
<g id="edge212" class="edge"><title>Node51&#45;&gt;Node5</title>
<path fill="none" stroke="midnightblue" d="M2632.09,-178.838C2597.65,-168.43 2529.75,-147.567 2506.62,-138 2486.79,-129.795 2484.31,-121.737 2463.62,-116 2344.32,-82.91 1968.72,-72.6098 1828.83,-69.8735"/>
<polygon fill="midnightblue" stroke="midnightblue" points="1828.84,-66.3732 1818.77,-69.6821 1828.7,-73.372 1828.84,-66.3732"/>
</g>
<!-- Node51&#45;&gt;Node9 -->
<g id="edge232" class="edge"><title>Node51&#45;&gt;Node9</title>
<path fill="none" stroke="midnightblue" d="M2642.39,-174.355C2626.77,-158.803 2595.32,-130.183 2562.62,-116 2518.15,-96.7069 2377.68,-79.5789 2312.92,-72.4788"/>
<polygon fill="midnightblue" stroke="midnightblue" points="2313.16,-68.984 2302.84,-71.3876 2312.4,-75.9434 2313.16,-68.984"/>
</g>
<!-- Node51&#45;&gt;Node10 -->
<g id="edge234" class="edge"><title>Node51&#45;&gt;Node10</title>
<path fill="none" stroke="midnightblue" d="M2632.02,-179.025C2626.1,-177.351 2619.61,-175.563 2613.62,-174 2547.29,-156.691 2526.45,-165.44 2463.62,-138 2447.47,-130.945 2447.36,-121.536 2430.62,-116 2284.26,-67.5869 1894.78,-104.501 1725.44,-79.8932"/>
<polygon fill="midnightblue" stroke="midnightblue" points="1725.77,-76.4012 1715.35,-78.3069 1724.68,-83.3164 1725.77,-76.4012"/>
</g>
<!-- Node51&#45;&gt;Node12 -->
<g id="edge228" class="edge"><title>Node51&#45;&gt;Node12</title>
<path fill="none" stroke="midnightblue" d="M2649.58,-174.295C2644.1,-155.045 2632.51,-114.289 2625.46,-89.5091"/>
<polygon fill="midnightblue" stroke="midnightblue" points="2628.77,-88.3399 2622.66,-79.6792 2622.03,-90.2553 2628.77,-88.3399"/>
</g>
<!-- Node51&#45;&gt;Node33 -->
<g id="edge210" class="edge"><title>Node51&#45;&gt;Node33</title>
<path fill="none" stroke="midnightblue" d="M2631.88,-177.858C2627.53,-176.481 2622.95,-175.121 2618.62,-174 2538.38,-153.205 2516.42,-156.51 2435.62,-138 2434.38,-137.716 2433.13,-137.422 2431.86,-137.119"/>
<polygon fill="midnightblue" stroke="midnightblue" points="2432.58,-133.693 2422.03,-134.695 2430.9,-140.489 2432.58,-133.693"/>
</g>
<!-- Node52 -->
<g id="node159" class="node"><title>Node52</title>
<a xlink:href="time_8h.html" target="_top" xlink:title="base/std_ext/time.h">
<polygon fill="white" stroke="black" points="2723.12,-116.5 2723.12,-137.5 2826.12,-137.5 2826.12,-116.5 2723.12,-116.5"/>
<text text-anchor="middle" x="2774.62" y="-124.5" font-family="Helvetica,sans-Serif" font-size="10.00">base/std_ext/time.h</text>
</a>
</g>
<!-- Node51&#45;&gt;Node52 -->
<g id="edge214" class="edge"><title>Node51&#45;&gt;Node52</title>
<path fill="none" stroke="midnightblue" d="M2673.32,-175.161C2692.39,-166.096 2720.97,-152.509 2742.92,-142.075"/>
<polygon fill="midnightblue" stroke="midnightblue" points="2744.64,-145.13 2752.17,-137.675 2741.64,-138.808 2744.64,-145.13"/>
</g>
<!-- Node51&#45;&gt;Node56 -->
<g id="edge238" class="edge"><title>Node51&#45;&gt;Node56</title>
<path fill="none" stroke="midnightblue" d="M2656.59,-174.295C2663.76,-154.959 2678.97,-113.923 2688.15,-89.1767"/>
<polygon fill="midnightblue" stroke="midnightblue" points="2691.47,-90.2723 2691.67,-79.6792 2684.91,-87.8392 2691.47,-90.2723"/>
</g>
<!-- Node57 -->
<g id="node172" class="node"><title>Node57</title>
<polygon fill="white" stroke="#bfbfbf" points="2515.62,-116.5 2515.62,-137.5 2553.62,-137.5 2553.62,-116.5 2515.62,-116.5"/>
<text text-anchor="middle" x="2534.62" y="-124.5" font-family="Helvetica,sans-Serif" font-size="10.00">tuple</text>
</g>
<!-- Node51&#45;&gt;Node57 -->
<g id="edge230" class="edge"><title>Node51&#45;&gt;Node57</title>
<path fill="none" stroke="midnightblue" d="M2632.07,-174.897C2612.95,-165.497 2584.27,-151.404 2562.98,-140.936"/>
<polygon fill="midnightblue" stroke="midnightblue" points="2564.29,-137.682 2553.77,-136.411 2561.2,-143.964 2564.29,-137.682"/>
</g>
<!-- Node51&#45;&gt;Node58 -->
<g id="edge236" class="edge"><title>Node51&#45;&gt;Node58</title>
<path fill="none" stroke="midnightblue" d="M2673.21,-180.113C2705.39,-172.379 2769.8,-156.54 2833.61,-138.185"/>
<polygon fill="midnightblue" stroke="midnightblue" points="2834.8,-141.485 2843.43,-135.339 2832.85,-134.762 2834.8,-141.485"/>
</g>
<!-- Node53 -->
<g id="node161" class="node"><title>Node53</title>
<a xlink:href="string_8h.html" target="_top" xlink:title="base/std_ext/string.h">
<polygon fill="white" stroke="black" points="2899.62,-58.5 2899.62,-79.5 3007.62,-79.5 3007.62,-58.5 2899.62,-58.5"/>
<text text-anchor="middle" x="2953.62" y="-66.5" font-family="Helvetica,sans-Serif" font-size="10.00">base/std_ext/string.h</text>
</a>
</g>
<!-- Node52&#45;&gt;Node53 -->
<g id="edge216" class="edge"><title>Node52&#45;&gt;Node53</title>
<path fill="none" stroke="midnightblue" d="M2807.04,-116.497C2836.35,-107 2879.67,-92.9619 2911.63,-82.6087"/>
<polygon fill="midnightblue" stroke="midnightblue" points="2912.71,-85.9352 2921.15,-79.5231 2910.56,-79.276 2912.71,-85.9352"/>
</g>
<!-- Node55 -->
<g id="node167" class="node"><title>Node55</title>
<polygon fill="white" stroke="#bfbfbf" points="2751.62,-58.5 2751.62,-79.5 2797.62,-79.5 2797.62,-58.5 2751.62,-58.5"/>
<text text-anchor="middle" x="2774.62" y="-66.5" font-family="Helvetica,sans-Serif" font-size="10.00">cstring</text>
</g>
<!-- Node52&#45;&gt;Node55 -->
<g id="edge224" class="edge"><title>Node52&#45;&gt;Node55</title>
<path fill="none" stroke="midnightblue" d="M2774.62,-116.362C2774.62,-108.922 2774.62,-98.7427 2774.62,-89.7276"/>
<polygon fill="midnightblue" stroke="midnightblue" points="2778.12,-89.5706 2774.62,-79.5707 2771.12,-89.5707 2778.12,-89.5706"/>
</g>
<!-- Node52&#45;&gt;Node56 -->
<g id="edge226" class="edge"><title>Node52&#45;&gt;Node56</title>
<path fill="none" stroke="midnightblue" d="M2760.13,-116.362C2748.44,-107.777 2731.78,-95.5459 2718.32,-85.6636"/>
<polygon fill="midnightblue" stroke="midnightblue" points="2720.15,-82.6675 2710.02,-79.5707 2716.01,-88.31 2720.15,-82.6675"/>
</g>
<!-- Node53&#45;&gt;Node11 -->
<g id="edge218" class="edge"><title>Node53&#45;&gt;Node11</title>
<path fill="none" stroke="midnightblue" d="M2899.56,-64.236C2871.8,-61.9723 2837.43,-59.4502 2806.62,-58 1982.49,-19.2022 1775.44,-41.5128 950.625,-22 815.187,-18.7959 653.59,-13.9688 587.296,-11.9453"/>
<polygon fill="midnightblue" stroke="midnightblue" points="587.234,-8.44181 577.132,-11.6341 587.02,-15.4385 587.234,-8.44181"/>
</g>
<!-- Node53&#45;&gt;Node27 -->
<g id="edge222" class="edge"><title>Node53&#45;&gt;Node27</title>
<path fill="none" stroke="midnightblue" d="M2899.51,-59.6969C2894.82,-59.0579 2890.14,-58.4789 2885.62,-58 2543.03,-21.6964 2125.97,-13.2387 1999.06,-11.4457"/>
<polygon fill="midnightblue" stroke="midnightblue" points="1998.76,-7.94137 1988.71,-11.3054 1998.67,-14.9407 1998.76,-7.94137"/>
</g>
<!-- Node54 -->
<g id="node164" class="node"><title>Node54</title>
<polygon fill="white" stroke="#bfbfbf" points="2968.62,-0.5 2968.62,-21.5 3020.62,-21.5 3020.62,-0.5 2968.62,-0.5"/>
<text text-anchor="middle" x="2994.62" y="-8.5" font-family="Helvetica,sans-Serif" font-size="10.00">sstream</text>
</g>
<!-- Node53&#45;&gt;Node54 -->
<g id="edge220" class="edge"><title>Node53&#45;&gt;Node54</title>
<path fill="none" stroke="midnightblue" d="M2961.14,-58.3619C2966.75,-50.4313 2974.56,-39.3885 2981.22,-29.9606"/>
<polygon fill="midnightblue" stroke="midnightblue" points="2984.24,-31.7568 2987.15,-21.5707 2978.52,-27.7161 2984.24,-31.7568"/>
</g>
<!-- Node59&#45;&gt;Node6 -->
<g id="edge264" class="edge"><title>Node59&#45;&gt;Node6</title>
<path fill="none" stroke="midnightblue" d="M1148.64,-116.295C1116.11,-95.7846 1044.85,-50.8594 1006.78,-26.8575"/>
<polygon fill="midnightblue" stroke="midnightblue" points="1008.62,-23.884 998.298,-21.5117 1004.89,-29.8055 1008.62,-23.884"/>
</g>
<!-- Node59&#45;&gt;Node9 -->
<g id="edge266" class="edge"><title>Node59&#45;&gt;Node9</title>
<path fill="none" stroke="midnightblue" d="M1234.15,-121.737C1260.54,-119.798 1290.98,-117.67 1318.62,-116 1681.98,-94.0557 2123.1,-75.4137 2246.28,-70.3536"/>
<polygon fill="midnightblue" stroke="midnightblue" points="2246.71,-73.8392 2256.56,-69.9329 2246.42,-66.8451 2246.71,-73.8392"/>
</g>
<!-- Node60&#45;&gt;Node11 -->
<g id="edge270" class="edge"><title>Node60&#45;&gt;Node11</title>
<path fill="none" stroke="midnightblue" d="M758.01,-232.429C724.851,-195.969 615.005,-75.1911 573.081,-29.0945"/>
<polygon fill="midnightblue" stroke="midnightblue" points="575.613,-26.6766 566.296,-21.6335 570.435,-31.3864 575.613,-26.6766"/>
</g>
<!-- Node60&#45;&gt;Node15 -->
<g id="edge272" class="edge"><title>Node60&#45;&gt;Node15</title>
<path fill="none" stroke="midnightblue" d="M816.714,-233.754C821.404,-233.075 826.097,-232.472 830.625,-232 1288.42,-184.302 1405.75,-215.238 1865.62,-196 1932.19,-193.215 2009.79,-189.266 2054.27,-186.935"/>
<polygon fill="midnightblue" stroke="midnightblue" points="2054.5,-190.428 2064.3,-186.407 2054.13,-183.437 2054.5,-190.428"/>
</g>
<!-- Node60&#45;&gt;Node19 -->
<g id="edge274" class="edge"><title>Node60&#45;&gt;Node19</title>
<path fill="none" stroke="midnightblue" d="M771.293,-232.362C773.915,-224.758 777.523,-214.294 780.682,-205.135"/>
<polygon fill="midnightblue" stroke="midnightblue" points="784.029,-206.165 783.98,-195.571 777.411,-203.883 784.029,-206.165"/>
</g>
<!-- Node61&#45;&gt;Node11 -->
<g id="edge298" class="edge"><title>Node61&#45;&gt;Node11</title>
<path fill="none" stroke="midnightblue" d="M2564.01,-348.706C2558.73,-319.979 2544.03,-262.568 2507.62,-232 2410.41,-150.366 2368.7,-150.823 2246.62,-116 2065.84,-64.4275 2014.91,-74.3832 1827.62,-58 1700.71,-46.8977 769.667,-17.6155 587.493,-11.9549"/>
<polygon fill="midnightblue" stroke="midnightblue" points="587.383,-8.44992 577.279,-11.6379 587.165,-15.4466 587.383,-8.44992"/>
</g>
<!-- Node61&#45;&gt;Node16 -->
<g id="edge300" class="edge"><title>Node61&#45;&gt;Node16</title>
<path fill="none" stroke="midnightblue" d="M2558.91,-348.93C2540.56,-310.499 2490.37,-217.186 2417.62,-174 2372.73,-147.35 2214.2,-133.268 2152.48,-128.695"/>
<polygon fill="midnightblue" stroke="midnightblue" points="2152.68,-125.2 2142.45,-127.973 2152.18,-132.182 2152.68,-125.2"/>
</g>
<!-- Node61&#45;&gt;Node26 -->
<g id="edge290" class="edge"><title>Node61&#45;&gt;Node26</title>
<path fill="none" stroke="midnightblue" d="M2507.76,-358.903C2478.31,-355.441 2442.1,-351.318 2409.62,-348 1944.4,-300.474 1822.97,-330.491 1361.62,-254 1276.85,-239.944 1179.93,-214.148 1124.34,-198.389"/>
<polygon fill="midnightblue" stroke="midnightblue" points="1125.03,-194.947 1114.45,-195.569 1123.11,-201.678 1125.03,-194.947"/>
</g>
<!-- Node62 -->
<g id="node208" class="node"><title>Node62</title>
<a xlink:href="_t_header_info_8h.html" target="_top" xlink:title="tree/THeaderInfo.h">
<polygon fill="white" stroke="black" points="2634.62,-290.5 2634.62,-311.5 2732.62,-311.5 2732.62,-290.5 2634.62,-290.5"/>
<text text-anchor="middle" x="2683.62" y="-298.5" font-family="Helvetica,sans-Serif" font-size="10.00">tree/THeaderInfo.h</text>
</a>
</g>
<!-- Node61&#45;&gt;Node62 -->
<g id="edge292" class="edge"><title>Node61&#45;&gt;Node62</title>
<path fill="none" stroke="midnightblue" d="M2597.37,-348.922C2615.3,-338.957 2637.77,-326.473 2655.28,-316.745"/>
<polygon fill="midnightblue" stroke="midnightblue" points="2657.4,-319.574 2664.44,-311.658 2654,-313.455 2657.4,-319.574"/>
</g>
<!-- Node62&#45;&gt;Node50 -->
<g id="edge294" class="edge"><title>Node62&#45;&gt;Node50</title>
<path fill="none" stroke="midnightblue" d="M2683.62,-290.362C2683.62,-282.922 2683.62,-272.743 2683.62,-263.728"/>
<polygon fill="midnightblue" stroke="midnightblue" points="2687.12,-263.571 2683.62,-253.571 2680.12,-263.571 2687.12,-263.571"/>
</g>
<!-- Node62&#45;&gt;Node52 -->
<g id="edge296" class="edge"><title>Node62&#45;&gt;Node52</title>
<path fill="none" stroke="midnightblue" d="M2703.23,-290.384C2716.58,-282.164 2733.58,-269.568 2743.62,-254 2764.94,-220.957 2771.6,-174.472 2773.68,-147.873"/>
<polygon fill="midnightblue" stroke="midnightblue" points="2777.18,-147.989 2774.32,-137.788 2770.2,-147.546 2777.18,-147.989"/>
</g>
<!-- Node63&#45;&gt;Node4 -->
<g id="edge314" class="edge"><title>Node63&#45;&gt;Node4</title>
<path fill="none" stroke="midnightblue" d="M2772.34,-290.49C2656.02,-263.011 2343.61,-190.051 2238.62,-174 2064.97,-147.45 1857.31,-134.587 1758.45,-129.598"/>
<polygon fill="midnightblue" stroke="midnightblue" points="1758.53,-126.098 1748.37,-129.098 1758.18,-133.089 1758.53,-126.098"/>
</g>
<!-- Node63&#45;&gt;Node50 -->
<g id="edge312" class="edge"><title>Node63&#45;&gt;Node50</title>
<path fill="none" stroke="midnightblue" d="M2792.54,-290.497C2771.49,-281.315 2740.7,-267.889 2717.22,-257.652"/>
<polygon fill="midnightblue" stroke="midnightblue" points="2718.55,-254.41 2707.98,-253.621 2715.75,-260.827 2718.55,-254.41"/>
</g>
<!-- Node63&#45;&gt;Node54 -->
<g id="edge318" class="edge"><title>Node63&#45;&gt;Node54</title>
<path fill="none" stroke="midnightblue" d="M2871.96,-290.49C2911.25,-281.94 2959.45,-268.885 2973.62,-254 3028.57,-196.32 3007,-159.076 3016.62,-80 3017.81,-70.2939 3018.75,-67.5445 3016.62,-58 3014.54,-48.6216 3010.37,-38.9009 3006.22,-30.7504"/>
<polygon fill="midnightblue" stroke="midnightblue" points="3009.16,-28.8278 3001.31,-21.716 3003.01,-32.1729 3009.16,-28.8278"/>
</g>
<!-- Node63&#45;&gt;Node58 -->
<g id="edge316" class="edge"><title>Node63&#45;&gt;Node58</title>
<path fill="none" stroke="midnightblue" d="M2819.47,-290.21C2823.08,-276.6 2829.58,-252.499 2835.62,-232 2844.32,-202.501 2855.12,-168.592 2861.95,-147.477"/>
<polygon fill="midnightblue" stroke="midnightblue" points="2865.37,-148.285 2865.12,-137.693 2858.71,-146.125 2865.37,-148.285"/>
</g>
</g>
</svg>
