<?xml version="1.0" encoding="UTF-8" standalone="no"?>
<!DOCTYPE svg PUBLIC "-//W3C//DTD SVG 1.1//EN"
 "http://www.w3.org/Graphics/SVG/1.1/DTD/svg11.dtd">
<!-- Generated by graphviz version 2.26.3 (20100126.1600)
 -->
<!-- Title: src/calibration/converters/CATCH_TDC.h Pages: 1 -->
<svg width="386pt" height="116pt"
 viewBox="0.00 0.00 386.00 116.00" xmlns="http://www.w3.org/2000/svg" xmlns:xlink="http://www.w3.org/1999/xlink">
<g id="graph1" class="graph" transform="scale(1 1) rotate(0) translate(4 112)">
<title>src/calibration/converters/CATCH_TDC.h</title>
<polygon fill="white" stroke="white" points="-4,5 -4,-112 383,-112 383,5 -4,5"/>
<!-- Node1 -->
<g id="node1" class="node"><title>Node1</title>
<polygon fill="#bfbfbf" stroke="black" points="136,-73 136,-107 262,-107 262,-73 136,-73"/>
<text text-anchor="start" x="144" y="-94" font-family="Helvetica,sans-Serif" font-size="10.00">src/calibration/converters</text>
<text text-anchor="middle" x="199" y="-81" font-family="Helvetica,sans-Serif" font-size="10.00">/CATCH_TDC.h</text>
</g>
<!-- Node2 -->
<g id="node3" class="node"><title>Node2</title>
<a xlink:href="_c_a_t_c_h___t_d_c_8cc.html" target="_top" xlink:title="src/calibration/converters\l/CATCH_TDC.cc">
<polygon fill="white" stroke="black" points="0,-1 0,-35 126,-35 126,-1 0,-1"/>
<text text-anchor="start" x="8" y="-22" font-family="Helvetica,sans-Serif" font-size="10.00">src/calibration/converters</text>
<text text-anchor="middle" x="63" y="-9" font-family="Helvetica,sans-Serif" font-size="10.00">/CATCH_TDC.cc</text>
</a>
</g>
<!-- Node1&#45;&gt;Node2 -->
<g id="edge2" class="edge"><title>Node1&#45;&gt;Node2</title>
<path fill="none" stroke="midnightblue" d="M157.872,-68.2264C137.872,-57.6383 114.177,-45.0936 95.4701,-35.19"/>
<polygon fill="midnightblue" stroke="midnightblue" points="156.294,-71.3513 166.77,-72.937 159.57,-65.1648 156.294,-71.3513"/>
</g>
<!-- Node3 -->
<g id="node5" class="node"><title>Node3</title>
<a xlink:href="_setup__2014___e_p_t_8cc.html" target="_top" xlink:title="src/expconfig/setups\l/Setup_2014_EPT.cc">
<polygon fill="white" stroke="black" points="144,-1 144,-35 254,-35 254,-1 144,-1"/>
<text text-anchor="start" x="152" y="-22" font-family="Helvetica,sans-Serif" font-size="10.00">src/expconfig/setups</text>
<text text-anchor="middle" x="199" y="-9" font-family="Helvetica,sans-Serif" font-size="10.00">/Setup_2014_EPT.cc</text>
</a>
</g>
<!-- Node1&#45;&gt;Node3 -->
<g id="edge4" class="edge"><title>Node1&#45;&gt;Node3</title>
<path fill="none" stroke="midnightblue" d="M199,-62.7193C199,-53.572 199,-43.6255 199,-35.4407"/>
<polygon fill="midnightblue" stroke="midnightblue" points="195.5,-62.937 199,-72.937 202.5,-62.937 195.5,-62.937"/>
</g>
<!-- Node4 -->
<g id="node7" class="node"><title>Node4</title>
<a xlink:href="_setup___test_8cc.html" target="_top" xlink:title="src/expconfig/setups\l/Setup_Test.cc">
<polygon fill="white" stroke="black" points="271.5,-1 271.5,-35 378.5,-35 378.5,-1 271.5,-1"/>
<text text-anchor="start" x="279.5" y="-22" font-family="Helvetica,sans-Serif" font-size="10.00">src/expconfig/setups</text>
<text text-anchor="middle" x="325" y="-9" font-family="Helvetica,sans-Serif" font-size="10.00">/Setup_Test.cc</text>
</a>
</g>
<!-- Node1&#45;&gt;Node4 -->
<g id="edge6" class="edge"><title>Node1&#45;&gt;Node4</title>
<path fill="none" stroke="midnightblue" d="M237.605,-67.9398C256.028,-57.4125 277.742,-45.0044 294.917,-35.19"/>
<polygon fill="midnightblue" stroke="midnightblue" points="235.806,-64.9367 228.86,-72.937 239.279,-71.0144 235.806,-64.9367"/>
</g>
</g>
</svg>
