<?xml version="1.0" encoding="UTF-8" standalone="no"?>
<!DOCTYPE svg PUBLIC "-//W3C//DTD SVG 1.1//EN"
 "http://www.w3.org/Graphics/SVG/1.1/DTD/svg11.dtd">
<!-- Generated by graphviz version 2.26.3 (20100126.1600)
 -->
<!-- Title: src/expconfig/detectors/CB.h Pages: 1 -->
<svg width="1008pt" height="174pt"
 viewBox="0.00 0.00 1008.00 174.00" xmlns="http://www.w3.org/2000/svg" xmlns:xlink="http://www.w3.org/1999/xlink">
<g id="graph1" class="graph" transform="scale(1 1) rotate(0) translate(4 170)">
<title>src/expconfig/detectors/CB.h</title>
<polygon fill="white" stroke="white" points="-4,5 -4,-170 1005,-170 1005,5 -4,5"/>
<!-- Node1 -->
<g id="node1" class="node"><title>Node1</title>
<polygon fill="#bfbfbf" stroke="black" points="359,-144.5 359,-165.5 503,-165.5 503,-144.5 359,-144.5"/>
<text text-anchor="middle" x="431" y="-152.5" font-family="Helvetica,sans-Serif" font-size="10.00">src/expconfig/detectors/CB.h</text>
</g>
<!-- Node2 -->
<g id="node3" class="node"><title>Node2</title>
<a xlink:href="_c_b___energy_8cc.html" target="_top" xlink:title="src/calibration/modules\l/CB_Energy.cc">
<polygon fill="white" stroke="black" points="-0.5,-73 -0.5,-107 116.5,-107 116.5,-73 -0.5,-73"/>
<text text-anchor="start" x="7.5" y="-94" font-family="Helvetica,sans-Serif" font-size="10.00">src/calibration/modules</text>
<text text-anchor="middle" x="58" y="-81" font-family="Helvetica,sans-Serif" font-size="10.00">/CB_Energy.cc</text>
</a>
</g>
<!-- Node1&#45;&gt;Node2 -->
<g id="edge2" class="edge"><title>Node1&#45;&gt;Node2</title>
<path fill="none" stroke="midnightblue" d="M348.782,-144.871C286.923,-136.646 200.232,-123.833 125,-108 122.289,-107.429 119.525,-106.816 116.738,-106.172"/>
<polygon fill="midnightblue" stroke="midnightblue" points="348.505,-148.364 358.876,-146.201 349.42,-141.424 348.505,-148.364"/>
</g>
<!-- Node3 -->
<g id="node5" class="node"><title>Node3</title>
<a xlink:href="_c_b___time_walk_8cc.html" target="_top" xlink:title="src/calibration/modules\l/CB_TimeWalk.cc">
<polygon fill="white" stroke="black" points="133.5,-73 133.5,-107 250.5,-107 250.5,-73 133.5,-73"/>
<text text-anchor="start" x="141.5" y="-94" font-family="Helvetica,sans-Serif" font-size="10.00">src/calibration/modules</text>
<text text-anchor="middle" x="192" y="-81" font-family="Helvetica,sans-Serif" font-size="10.00">/CB_TimeWalk.cc</text>
</a>
</g>
<!-- Node1&#45;&gt;Node3 -->
<g id="edge4" class="edge"><title>Node1&#45;&gt;Node3</title>
<path fill="none" stroke="midnightblue" d="M382.505,-141.811C344.414,-131.451 291.221,-116.985 250.721,-105.97"/>
<polygon fill="midnightblue" stroke="midnightblue" points="381.767,-145.237 392.335,-144.484 383.604,-138.483 381.767,-145.237"/>
</g>
<!-- Node4 -->
<g id="node7" class="node"><title>Node4</title>
<a xlink:href="_c_b_8cc.html" target="_top" xlink:title="src/expconfig/detectors\l/CB.cc">
<polygon fill="white" stroke="black" points="261.5,-1 261.5,-35 380.5,-35 380.5,-1 261.5,-1"/>
<text text-anchor="start" x="269.5" y="-22" font-family="Helvetica,sans-Serif" font-size="10.00">src/expconfig/detectors</text>
<text text-anchor="middle" x="321" y="-9" font-family="Helvetica,sans-Serif" font-size="10.00">/CB.cc</text>
</a>
</g>
<!-- Node1&#45;&gt;Node4 -->
<g id="edge6" class="edge"><title>Node1&#45;&gt;Node4</title>
<path fill="none" stroke="midnightblue" d="M373.661,-141.917C341.668,-133.329 306.401,-121.26 297,-108 281.381,-85.9695 296.353,-54.3822 308.651,-35.0819"/>
<polygon fill="midnightblue" stroke="midnightblue" points="372.893,-145.333 383.453,-144.467 374.658,-138.559 372.893,-145.333"/>
</g>
<!-- Node5 -->
<g id="node9" class="node"><title>Node5</title>
<a xlink:href="_c_b__elements_8h.html" target="_top" xlink:title="src/expconfig/detectors\l/detail/CB_elements.h">
<polygon fill="white" stroke="black" points="305.5,-73 305.5,-107 424.5,-107 424.5,-73 305.5,-73"/>
<text text-anchor="start" x="313.5" y="-94" font-family="Helvetica,sans-Serif" font-size="10.00">src/expconfig/detectors</text>
<text text-anchor="middle" x="365" y="-81" font-family="Helvetica,sans-Serif" font-size="10.00">/detail/CB_elements.h</text>
</a>
</g>
<!-- Node1&#45;&gt;Node5 -->
<g id="edge8" class="edge"><title>Node1&#45;&gt;Node5</title>
<path fill="none" stroke="midnightblue" d="M412.71,-136.987C403.231,-127.652 391.716,-116.311 382.373,-107.11"/>
<polygon fill="midnightblue" stroke="midnightblue" points="410.521,-139.743 420.101,-144.267 415.432,-134.756 410.521,-139.743"/>
</g>
<!-- Node6 -->
<g id="node12" class="node"><title>Node6</title>
<a xlink:href="_setup__2014___e_p_t_8cc.html" target="_top" xlink:title="src/expconfig/setups\l/Setup_2014_EPT.cc">
<polygon fill="white" stroke="black" points="442,-73 442,-107 552,-107 552,-73 442,-73"/>
<text text-anchor="start" x="450" y="-94" font-family="Helvetica,sans-Serif" font-size="10.00">src/expconfig/setups</text>
<text text-anchor="middle" x="497" y="-81" font-family="Helvetica,sans-Serif" font-size="10.00">/Setup_2014_EPT.cc</text>
</a>
</g>
<!-- Node1&#45;&gt;Node6 -->
<g id="edge12" class="edge"><title>Node1&#45;&gt;Node6</title>
<path fill="none" stroke="midnightblue" d="M449.29,-136.987C458.769,-127.652 470.284,-116.311 479.627,-107.11"/>
<polygon fill="midnightblue" stroke="midnightblue" points="446.568,-134.756 441.899,-144.267 451.479,-139.743 446.568,-134.756"/>
</g>
<!-- Node7 -->
<g id="node14" class="node"><title>Node7</title>
<a xlink:href="_setup___test_8cc.html" target="_top" xlink:title="src/expconfig/setups\l/Setup_Test.cc">
<polygon fill="white" stroke="black" points="569.5,-73 569.5,-107 676.5,-107 676.5,-73 569.5,-73"/>
<text text-anchor="start" x="577.5" y="-94" font-family="Helvetica,sans-Serif" font-size="10.00">src/expconfig/setups</text>
<text text-anchor="middle" x="623" y="-81" font-family="Helvetica,sans-Serif" font-size="10.00">/Setup_Test.cc</text>
</a>
</g>
<!-- Node1&#45;&gt;Node7 -->
<g id="edge14" class="edge"><title>Node1&#45;&gt;Node7</title>
<path fill="none" stroke="midnightblue" d="M471.83,-141.177C501.268,-131.211 541.183,-117.698 572.606,-107.06"/>
<polygon fill="midnightblue" stroke="midnightblue" points="470.625,-137.89 462.275,-144.412 472.87,-144.52 470.625,-137.89"/>
</g>
<!-- Node8 -->
<g id="node16" class="node"><title>Node8</title>
<a xlink:href="_candidate_builder_8cc.html" target="_top" xlink:title="src/reconstruct/Candidate\lBuilder.cc">
<polygon fill="white" stroke="black" points="693.5,-73 693.5,-107 822.5,-107 822.5,-73 693.5,-73"/>
<text text-anchor="start" x="701.5" y="-94" font-family="Helvetica,sans-Serif" font-size="10.00">src/reconstruct/Candidate</text>
<text text-anchor="middle" x="758" y="-81" font-family="Helvetica,sans-Serif" font-size="10.00">Builder.cc</text>
</a>
</g>
<!-- Node1&#45;&gt;Node8 -->
<g id="edge16" class="edge"><title>Node1&#45;&gt;Node8</title>
<path fill="none" stroke="midnightblue" d="M503.502,-142.752C554.434,-133.863 624.071,-121.137 685,-108 687.68,-107.422 690.411,-106.818 693.167,-106.196"/>
<polygon fill="midnightblue" stroke="midnightblue" points="502.826,-139.317 493.574,-144.477 504.025,-146.213 502.826,-139.317"/>
</g>
<!-- Node9 -->
<g id="node18" class="node"><title>Node9</title>
<a xlink:href="_test_exp_config_8cc.html" target="_top" xlink:title="test/expconfig/TestExpConfig.cc">
<polygon fill="white" stroke="black" points="840,-79.5 840,-100.5 1000,-100.5 1000,-79.5 840,-79.5"/>
<text text-anchor="middle" x="920" y="-87.5" font-family="Helvetica,sans-Serif" font-size="10.00">test/expconfig/TestExpConfig.cc</text>
</a>
</g>
<!-- Node1&#45;&gt;Node9 -->
<g id="edge18" class="edge"><title>Node1&#45;&gt;Node9</title>
<path fill="none" stroke="midnightblue" d="M513.286,-147.337C594.347,-139.316 721.578,-125.463 831,-108 844.232,-105.888 858.489,-103.194 871.632,-100.538"/>
<polygon fill="midnightblue" stroke="midnightblue" points="512.754,-143.872 503.144,-148.334 513.438,-150.839 512.754,-143.872"/>
</g>
<!-- Node5&#45;&gt;Node4 -->
<g id="edge10" class="edge"><title>Node5&#45;&gt;Node4</title>
<path fill="none" stroke="midnightblue" d="M349.235,-64.2033C343.402,-54.6583 336.932,-44.0703 331.658,-35.4407"/>
<polygon fill="midnightblue" stroke="midnightblue" points="346.372,-66.2293 354.573,-72.937 352.345,-62.5791 346.372,-66.2293"/>
</g>
</g>
</svg>
