<?xml version="1.0" encoding="UTF-8" standalone="no"?>
<!DOCTYPE svg PUBLIC "-//W3C//DTD SVG 1.1//EN"
 "http://www.w3.org/Graphics/SVG/1.1/DTD/svg11.dtd">
<!-- Generated by graphviz version 2.26.3 (20100126.1600)
 -->
<!-- Title: src/analysis/data/Candidate.h Pages: 1 -->
<svg width="618pt" height="262pt"
 viewBox="0.00 0.00 618.00 262.00" xmlns="http://www.w3.org/2000/svg" xmlns:xlink="http://www.w3.org/1999/xlink">
<g id="graph1" class="graph" transform="scale(1 1) rotate(0) translate(4 258)">
<title>src/analysis/data/Candidate.h</title>
<polygon fill="white" stroke="white" points="-4,5 -4,-258 615,-258 615,5 -4,5"/>
<!-- Node1 -->
<g id="node1" class="node"><title>Node1</title>
<polygon fill="#bfbfbf" stroke="black" points="258,-232.5 258,-253.5 404,-253.5 404,-232.5 258,-232.5"/>
<text text-anchor="middle" x="331" y="-240.5" font-family="Helvetica,sans-Serif" font-size="10.00">src/analysis/data/Candidate.h</text>
</g>
<!-- Node2 -->
<g id="node3" class="node"><title>Node2</title>
<a xlink:href="printable_8h.html" target="_top" xlink:title="base/printable.h">
<polygon fill="white" stroke="black" points="18,-58.5 18,-79.5 104,-79.5 104,-58.5 18,-58.5"/>
<text text-anchor="middle" x="61" y="-66.5" font-family="Helvetica,sans-Serif" font-size="10.00">base/printable.h</text>
</a>
</g>
<!-- Node1&#45;&gt;Node2 -->
<g id="edge2" class="edge"><title>Node1&#45;&gt;Node2</title>
<path fill="none" stroke="midnightblue" d="M298.66,-232.348C275.405,-224.031 243.74,-211.33 218,-196 163.445,-163.508 107.497,-113.421 79.436,-86.9005"/>
<polygon fill="midnightblue" stroke="midnightblue" points="81.6202,-84.1469 71.9694,-79.7752 76.7876,-89.2111 81.6202,-84.1469"/>
</g>
<!-- Node3 -->
<g id="node5" class="node"><title>Node3</title>
<polygon fill="white" stroke="#bfbfbf" points="110,-0.5 110,-21.5 154,-21.5 154,-0.5 110,-0.5"/>
<text text-anchor="middle" x="132" y="-8.5" font-family="Helvetica,sans-Serif" font-size="10.00">vector</text>
</g>
<!-- Node1&#45;&gt;Node3 -->
<g id="edge42" class="edge"><title>Node1&#45;&gt;Node3</title>
<path fill="none" stroke="midnightblue" d="M377.879,-232.478C414.1,-223.48 460.294,-209.827 474,-196 518.703,-150.902 553.047,-105.584 511,-58 488.136,-32.1255 251.532,-17.2397 164.175,-12.5916"/>
<polygon fill="midnightblue" stroke="midnightblue" points="164.219,-9.0892 154.05,-12.0634 163.854,-16.0797 164.219,-9.0892"/>
</g>
<!-- Node4 -->
<g id="node7" class="node"><title>Node4</title>
<polygon fill="white" stroke="#bfbfbf" points="0,-0.5 0,-21.5 52,-21.5 52,-0.5 0,-0.5"/>
<text text-anchor="middle" x="26" y="-8.5" font-family="Helvetica,sans-Serif" font-size="10.00">ostream</text>
</g>
<!-- Node1&#45;&gt;Node4 -->
<g id="edge38" class="edge"><title>Node1&#45;&gt;Node4</title>
<path fill="none" stroke="midnightblue" d="M265.403,-232.458C186.818,-215.788 59.451,-174.878 9,-80 0.81101,-64.5999 6.85128,-45.1658 13.9022,-30.8498"/>
<polygon fill="midnightblue" stroke="midnightblue" points="17.083,-32.3266 18.7825,-21.8689 10.9325,-28.9842 17.083,-32.3266"/>
</g>
<!-- Node5 -->
<g id="node9" class="node"><title>Node5</title>
<a xlink:href="types_8h.html" target="_top" xlink:title="base/types.h">
<polygon fill="white" stroke="black" points="238.5,-174.5 238.5,-195.5 311.5,-195.5 311.5,-174.5 238.5,-174.5"/>
<text text-anchor="middle" x="275" y="-182.5" font-family="Helvetica,sans-Serif" font-size="10.00">base/types.h</text>
</a>
</g>
<!-- Node1&#45;&gt;Node5 -->
<g id="edge8" class="edge"><title>Node1&#45;&gt;Node5</title>
<path fill="none" stroke="midnightblue" d="M320.729,-232.362C312.756,-224.104 301.525,-212.472 292.189,-202.803"/>
<polygon fill="midnightblue" stroke="midnightblue" points="294.67,-200.334 285.206,-195.571 289.634,-205.196 294.67,-200.334"/>
</g>
<!-- Node6 -->
<g id="node11" class="node"><title>Node6</title>
<a xlink:href="_detector__t_8h.html" target="_top" xlink:title="base/Detector_t.h">
<polygon fill="white" stroke="black" points="177.5,-116.5 177.5,-137.5 272.5,-137.5 272.5,-116.5 177.5,-116.5"/>
<text text-anchor="middle" x="225" y="-124.5" font-family="Helvetica,sans-Serif" font-size="10.00">base/Detector_t.h</text>
</a>
</g>
<!-- Node1&#45;&gt;Node6 -->
<g id="edge10" class="edge"><title>Node1&#45;&gt;Node6</title>
<path fill="none" stroke="midnightblue" d="M283.803,-232.413C263.916,-225.455 242.518,-214.15 230,-196 220.436,-182.134 219.851,-162.751 221.276,-148.058"/>
<polygon fill="midnightblue" stroke="midnightblue" points="224.778,-148.283 222.643,-137.905 217.84,-147.349 224.778,-148.283"/>
</g>
<!-- Node7 -->
<g id="node14" class="node"><title>Node7</title>
<polygon fill="white" stroke="#bfbfbf" points="437.5,-58.5 437.5,-79.5 502.5,-79.5 502.5,-58.5 437.5,-58.5"/>
<text text-anchor="middle" x="470" y="-66.5" font-family="Helvetica,sans-Serif" font-size="10.00">TVector3.h</text>
</g>
<!-- Node1&#45;&gt;Node7 -->
<g id="edge36" class="edge"><title>Node1&#45;&gt;Node7</title>
<path fill="none" stroke="midnightblue" d="M388.148,-232.434C411.277,-225.546 436.576,-214.289 454,-196 481.2,-167.449 478.38,-117.461 474.088,-89.471"/>
<polygon fill="midnightblue" stroke="midnightblue" points="477.531,-88.8406 472.368,-79.589 470.635,-90.0411 477.531,-88.8406"/>
</g>
<!-- Node12 -->
<g id="node25" class="node"><title>Node12</title>
<a xlink:href="_cluster_8h.html" target="_top" xlink:title="analysis/data/Cluster.h">
<polygon fill="white" stroke="black" points="328.5,-174.5 328.5,-195.5 445.5,-195.5 445.5,-174.5 328.5,-174.5"/>
<text text-anchor="middle" x="387" y="-182.5" font-family="Helvetica,sans-Serif" font-size="10.00">analysis/data/Cluster.h</text>
</a>
</g>
<!-- Node1&#45;&gt;Node12 -->
<g id="edge26" class="edge"><title>Node1&#45;&gt;Node12</title>
<path fill="none" stroke="midnightblue" d="M341.271,-232.362C349.244,-224.104 360.475,-212.472 369.811,-202.803"/>
<polygon fill="midnightblue" stroke="midnightblue" points="372.366,-205.196 376.794,-195.571 367.33,-200.334 372.366,-205.196"/>
</g>
<!-- Node15 -->
<g id="node35" class="node"><title>Node15</title>
<polygon fill="white" stroke="#bfbfbf" points="558,-174.5 558,-195.5 610,-195.5 610,-174.5 558,-174.5"/>
<text text-anchor="middle" x="584" y="-182.5" font-family="Helvetica,sans-Serif" font-size="10.00">memory</text>
</g>
<!-- Node1&#45;&gt;Node15 -->
<g id="edge40" class="edge"><title>Node1&#45;&gt;Node15</title>
<path fill="none" stroke="midnightblue" d="M382.387,-232.431C425.636,-223.352 489.046,-209.61 544,-196 545.258,-195.688 546.538,-195.366 547.828,-195.036"/>
<polygon fill="midnightblue" stroke="midnightblue" points="549.021,-198.342 557.8,-192.411 547.239,-191.572 549.021,-198.342"/>
</g>
<!-- Node2&#45;&gt;Node3 -->
<g id="edge4" class="edge"><title>Node2&#45;&gt;Node3</title>
<path fill="none" stroke="midnightblue" d="M74.0225,-58.3619C84.4312,-49.859 99.2194,-37.7785 111.255,-27.9466"/>
<polygon fill="midnightblue" stroke="midnightblue" points="113.53,-30.6077 119.06,-21.5707 109.101,-25.1866 113.53,-30.6077"/>
</g>
<!-- Node2&#45;&gt;Node4 -->
<g id="edge6" class="edge"><title>Node2&#45;&gt;Node4</title>
<path fill="none" stroke="midnightblue" d="M54.5805,-58.3619C49.8441,-50.5131 43.2682,-39.6159 37.618,-30.2527"/>
<polygon fill="midnightblue" stroke="midnightblue" points="40.5422,-28.3242 32.3788,-21.5707 34.5489,-31.9409 40.5422,-28.3242"/>
</g>
<!-- Node6&#45;&gt;Node2 -->
<g id="edge12" class="edge"><title>Node6&#45;&gt;Node2</title>
<path fill="none" stroke="midnightblue" d="M195.301,-116.497C168.68,-107.082 129.438,-93.2036 100.239,-82.8773"/>
<polygon fill="midnightblue" stroke="midnightblue" points="101.35,-79.5576 90.7549,-79.5231 99.0156,-86.1571 101.35,-79.5576"/>
</g>
<!-- Node6&#45;&gt;Node3 -->
<g id="edge24" class="edge"><title>Node6&#45;&gt;Node3</title>
<path fill="none" stroke="midnightblue" d="M199.221,-116.497C183.128,-108.686 163.218,-96.519 151,-80 140.638,-65.9896 135.927,-46.6207 133.785,-31.9697"/>
<polygon fill="midnightblue" stroke="midnightblue" points="137.239,-31.3761 132.597,-21.8525 130.287,-32.1925 137.239,-31.3761"/>
</g>
<!-- Node6&#45;&gt;Node7 -->
<g id="edge14" class="edge"><title>Node6&#45;&gt;Node7</title>
<path fill="none" stroke="midnightblue" d="M272.518,-116.556C311.752,-107.819 369.128,-94.782 427.584,-80.3025"/>
<polygon fill="midnightblue" stroke="midnightblue" points="428.495,-83.6826 437.354,-77.8713 426.804,-76.8898 428.495,-83.6826"/>
</g>
<!-- Node8 -->
<g id="node16" class="node"><title>Node8</title>
<polygon fill="white" stroke="#bfbfbf" points="374,-58.5 374,-79.5 420,-79.5 420,-58.5 374,-58.5"/>
<text text-anchor="middle" x="397" y="-66.5" font-family="Helvetica,sans-Serif" font-size="10.00">cstdint</text>
</g>
<!-- Node6&#45;&gt;Node8 -->
<g id="edge16" class="edge"><title>Node6&#45;&gt;Node8</title>
<path fill="none" stroke="midnightblue" d="M256.715,-116.425C283.109,-107.609 321.917,-94.6086 364.269,-80.2345"/>
<polygon fill="midnightblue" stroke="midnightblue" points="365.592,-83.4815 373.935,-76.9508 363.34,-76.8535 365.592,-83.4815"/>
</g>
<!-- Node9 -->
<g id="node18" class="node"><title>Node9</title>
<polygon fill="white" stroke="#bfbfbf" points="159.5,-58.5 159.5,-79.5 218.5,-79.5 218.5,-58.5 159.5,-58.5"/>
<text text-anchor="middle" x="189" y="-66.5" font-family="Helvetica,sans-Serif" font-size="10.00">stdexcept</text>
</g>
<!-- Node6&#45;&gt;Node9 -->
<g id="edge18" class="edge"><title>Node6&#45;&gt;Node9</title>
<path fill="none" stroke="midnightblue" d="M218.397,-116.362C213.525,-108.513 206.762,-97.6159 200.95,-88.2527"/>
<polygon fill="midnightblue" stroke="midnightblue" points="203.809,-86.2213 195.561,-79.5707 197.861,-89.9129 203.809,-86.2213"/>
</g>
<!-- Node10 -->
<g id="node20" class="node"><title>Node10</title>
<polygon fill="white" stroke="#bfbfbf" points="235.5,-58.5 235.5,-79.5 276.5,-79.5 276.5,-58.5 235.5,-58.5"/>
<text text-anchor="middle" x="256" y="-66.5" font-family="Helvetica,sans-Serif" font-size="10.00">string</text>
</g>
<!-- Node6&#45;&gt;Node10 -->
<g id="edge20" class="edge"><title>Node6&#45;&gt;Node10</title>
<path fill="none" stroke="midnightblue" d="M230.686,-116.362C234.837,-108.595 240.584,-97.8426 245.553,-88.5458"/>
<polygon fill="midnightblue" stroke="midnightblue" points="248.723,-90.0398 250.35,-79.5707 242.55,-86.7401 248.723,-90.0398"/>
</g>
<!-- Node11 -->
<g id="node22" class="node"><title>Node11</title>
<polygon fill="white" stroke="#bfbfbf" points="294,-58.5 294,-79.5 356,-79.5 356,-58.5 294,-58.5"/>
<text text-anchor="middle" x="325" y="-66.5" font-family="Helvetica,sans-Serif" font-size="10.00">type_traits</text>
</g>
<!-- Node6&#45;&gt;Node11 -->
<g id="edge22" class="edge"><title>Node6&#45;&gt;Node11</title>
<path fill="none" stroke="midnightblue" d="M243.342,-116.362C258.566,-107.532 280.441,-94.844 297.72,-84.8224"/>
<polygon fill="midnightblue" stroke="midnightblue" points="299.88,-87.6155 306.775,-79.5707 296.368,-81.5603 299.88,-87.6155"/>
</g>
<!-- Node12&#45;&gt;Node6 -->
<g id="edge28" class="edge"><title>Node12&#45;&gt;Node6</title>
<path fill="none" stroke="midnightblue" d="M357.663,-174.497C331.481,-165.123 292.94,-151.324 264.137,-141.012"/>
<polygon fill="midnightblue" stroke="midnightblue" points="264.987,-137.599 254.392,-137.523 262.627,-144.189 264.987,-137.599"/>
</g>
<!-- Node12&#45;&gt;Node7 -->
<g id="edge32" class="edge"><title>Node12&#45;&gt;Node7</title>
<path fill="none" stroke="midnightblue" d="M362.939,-174.441C337.183,-161.63 302.151,-138.891 319,-116 322.36,-111.436 384.217,-93.2028 427.705,-80.8348"/>
<polygon fill="midnightblue" stroke="midnightblue" points="428.83,-84.1541 437.497,-78.0606 426.921,-77.4192 428.83,-84.1541"/>
</g>
<!-- Node13 -->
<g id="node28" class="node"><title>Node13</title>
<polygon fill="white" stroke="#bfbfbf" points="435.5,-116.5 435.5,-137.5 464.5,-137.5 464.5,-116.5 435.5,-116.5"/>
<text text-anchor="middle" x="450" y="-124.5" font-family="Helvetica,sans-Serif" font-size="10.00">list</text>
</g>
<!-- Node12&#45;&gt;Node13 -->
<g id="edge30" class="edge"><title>Node12&#45;&gt;Node13</title>
<path fill="none" stroke="midnightblue" d="M398.555,-174.362C407.613,-166.023 420.41,-154.242 430.974,-144.516"/>
<polygon fill="midnightblue" stroke="midnightblue" points="433.532,-146.919 438.518,-137.571 428.79,-141.769 433.532,-146.919"/>
</g>
<!-- Node14 -->
<g id="node31" class="node"><title>Node14</title>
<a xlink:href="enumfield_8h.html" target="_top" xlink:title="base/enumfield.h">
<polygon fill="white" stroke="black" points="327.5,-116.5 327.5,-137.5 418.5,-137.5 418.5,-116.5 327.5,-116.5"/>
<text text-anchor="middle" x="373" y="-124.5" font-family="Helvetica,sans-Serif" font-size="10.00">base/enumfield.h</text>
</a>
</g>
<!-- Node12&#45;&gt;Node14 -->
<g id="edge34" class="edge"><title>Node12&#45;&gt;Node14</title>
<path fill="none" stroke="midnightblue" d="M384.432,-174.362C382.617,-166.84 380.125,-156.519 377.932,-147.431"/>
<polygon fill="midnightblue" stroke="midnightblue" points="381.3,-146.47 375.552,-137.571 374.496,-148.113 381.3,-146.47"/>
</g>
</g>
</svg>
