<?xml version="1.0" encoding="UTF-8" standalone="no"?>
<!DOCTYPE svg PUBLIC "-//W3C//DTD SVG 1.1//EN"
 "http://www.w3.org/Graphics/SVG/1.1/DTD/svg11.dtd">
<!-- Generated by graphviz version 2.26.3 (20100126.1600)
 -->
<!-- Title: src/reconstruct/CandidateBuilder.h Pages: 1 -->
<svg width="3639pt" height="710pt"
 viewBox="0.00 0.00 3639.00 710.00" xmlns="http://www.w3.org/2000/svg" xmlns:xlink="http://www.w3.org/1999/xlink">
<g id="graph1" class="graph" transform="scale(1 1) rotate(0) translate(4 706)">
<title>src/reconstruct/CandidateBuilder.h</title>
<polygon fill="white" stroke="white" points="-4,5 -4,-706 3636,-706 3636,5 -4,5"/>
<!-- Node1 -->
<g id="node1" class="node"><title>Node1</title>
<polygon fill="#bfbfbf" stroke="black" points="668.5,-667 668.5,-701 797.5,-701 797.5,-667 668.5,-667"/>
<text text-anchor="start" x="676.5" y="-688" font-family="Helvetica,sans-Serif" font-size="10.00">src/reconstruct/Candidate</text>
<text text-anchor="middle" x="733" y="-675" font-family="Helvetica,sans-Serif" font-size="10.00">Builder.h</text>
</g>
<!-- Node2 -->
<g id="node3" class="node"><title>Node2</title>
<a xlink:href="_detector__t_8h.html" target="_top" xlink:title="base/Detector_t.h">
<polygon fill="white" stroke="black" points="1204.5,-174.5 1204.5,-195.5 1299.5,-195.5 1299.5,-174.5 1204.5,-174.5"/>
<text text-anchor="middle" x="1252" y="-182.5" font-family="Helvetica,sans-Serif" font-size="10.00">base/Detector_t.h</text>
</a>
</g>
<!-- Node1&#45;&gt;Node2 -->
<g id="edge2" class="edge"><title>Node1&#45;&gt;Node2</title>
<path fill="none" stroke="midnightblue" d="M724.187,-666.996C712.961,-643.722 695,-600.336 695,-561 695,-561 695,-561 695,-366 695,-284.858 743.031,-260.51 819,-232 886.331,-206.732 1092.66,-193.065 1194.26,-187.71"/>
<polygon fill="midnightblue" stroke="midnightblue" points="1194.54,-191.2 1204.34,-187.187 1194.18,-184.21 1194.54,-191.2"/>
</g>
<!-- Node11 -->
<g id="node22" class="node"><title>Node11</title>
<a xlink:href="_t_cluster_8h.html" target="_top" xlink:title="tree/TCluster.h">
<polygon fill="white" stroke="black" points="279,-290.5 279,-311.5 361,-311.5 361,-290.5 279,-290.5"/>
<text text-anchor="middle" x="320" y="-298.5" font-family="Helvetica,sans-Serif" font-size="10.00">tree/TCluster.h</text>
</a>
</g>
<!-- Node1&#45;&gt;Node11 -->
<g id="edge22" class="edge"><title>Node1&#45;&gt;Node11</title>
<path fill="none" stroke="midnightblue" d="M668.422,-682.023C530.372,-676.039 219,-652.411 219,-561 219,-561 219,-561 219,-438 219,-386.362 266.063,-341.385 295.936,-318.036"/>
<polygon fill="midnightblue" stroke="midnightblue" points="298.357,-320.594 304.219,-311.768 294.133,-315.012 298.357,-320.594"/>
</g>
<!-- Node25 -->
<g id="node66" class="node"><title>Node25</title>
<a xlink:href="_t_event_8h.html" target="_top" xlink:title="tree/TEvent.h">
<polygon fill="white" stroke="black" points="277,-427.5 277,-448.5 353,-448.5 353,-427.5 277,-427.5"/>
<text text-anchor="middle" x="315" y="-435.5" font-family="Helvetica,sans-Serif" font-size="10.00">tree/TEvent.h</text>
</a>
</g>
<!-- Node1&#45;&gt;Node25 -->
<g id="edge82" class="edge"><title>Node1&#45;&gt;Node25</title>
<path fill="none" stroke="midnightblue" d="M703.939,-666.897C626.705,-621.444 417.133,-498.107 342.142,-453.974"/>
<polygon fill="midnightblue" stroke="midnightblue" points="343.673,-450.814 333.28,-448.758 340.123,-456.846 343.673,-450.814"/>
</g>
<!-- Node29 -->
<g id="node89" class="node"><title>Node29</title>
<a xlink:href="_exp_config_8h.html" target="_top" xlink:title="expconfig/ExpConfig.h">
<polygon fill="white" stroke="black" points="824,-608.5 824,-629.5 940,-629.5 940,-608.5 824,-608.5"/>
<text text-anchor="middle" x="882" y="-616.5" font-family="Helvetica,sans-Serif" font-size="10.00">expconfig/ExpConfig.h</text>
</a>
</g>
<!-- Node1&#45;&gt;Node29 -->
<g id="edge120" class="edge"><title>Node1&#45;&gt;Node29</title>
<path fill="none" stroke="midnightblue" d="M772.148,-666.922C795.838,-656.588 825.736,-643.545 848.358,-633.676"/>
<polygon fill="midnightblue" stroke="midnightblue" points="849.801,-636.865 857.568,-629.658 847.002,-630.449 849.801,-636.865"/>
</g>
<!-- Node33 -->
<g id="node99" class="node"><title>Node33</title>
<polygon fill="white" stroke="#bfbfbf" points="1203,-232.5 1203,-253.5 1255,-253.5 1255,-232.5 1203,-232.5"/>
<text text-anchor="middle" x="1229" y="-240.5" font-family="Helvetica,sans-Serif" font-size="10.00">memory</text>
</g>
<!-- Node1&#45;&gt;Node33 -->
<g id="edge378" class="edge"><title>Node1&#45;&gt;Node33</title>
<path fill="none" stroke="midnightblue" d="M732.31,-666.724C730.819,-602.558 735.371,-377.154 867,-290 919.973,-254.926 1112.02,-245.962 1192.8,-243.724"/>
<polygon fill="midnightblue" stroke="midnightblue" points="1193.08,-247.218 1202.99,-243.461 1192.9,-240.22 1193.08,-247.218"/>
</g>
<!-- Node34 -->
<g id="node101" class="node"><title>Node34</title>
<polygon fill="white" stroke="#bfbfbf" points="1462.5,-174.5 1462.5,-195.5 1491.5,-195.5 1491.5,-174.5 1462.5,-174.5"/>
<text text-anchor="middle" x="1477" y="-182.5" font-family="Helvetica,sans-Serif" font-size="10.00">list</text>
</g>
<!-- Node1&#45;&gt;Node34 -->
<g id="edge376" class="edge"><title>Node1&#45;&gt;Node34</title>
<path fill="none" stroke="midnightblue" d="M797.616,-679.528C972.147,-666.591 1440,-625.863 1440,-561 1440,-561 1440,-561 1440,-503 1440,-388.167 1572.54,-419.085 1614,-312 1617.53,-302.882 1618.33,-298.768 1614,-290 1601.83,-265.332 1536.65,-222.042 1500.76,-199.527"/>
<polygon fill="midnightblue" stroke="midnightblue" points="1502.24,-196.325 1491.9,-194.017 1498.54,-202.27 1502.24,-196.325"/>
</g>
<!-- Node37 -->
<g id="node112" class="node"><title>Node37</title>
<polygon fill="white" stroke="#bfbfbf" points="2932.5,-232.5 2932.5,-253.5 2967.5,-253.5 2967.5,-232.5 2932.5,-232.5"/>
<text text-anchor="middle" x="2950" y="-240.5" font-family="Helvetica,sans-Serif" font-size="10.00">map</text>
</g>
<!-- Node1&#45;&gt;Node37 -->
<g id="edge374" class="edge"><title>Node1&#45;&gt;Node37</title>
<path fill="none" stroke="midnightblue" d="M797.767,-682.958C1222.55,-675.919 3593,-633.393 3593,-561 3593,-561 3593,-561 3593,-366 3593,-282.832 3502.4,-311.279 3422,-290 3336.98,-267.498 3065.26,-249.827 2977.57,-244.59"/>
<polygon fill="midnightblue" stroke="midnightblue" points="2977.77,-241.096 2967.58,-244 2977.36,-248.083 2977.77,-241.096"/>
</g>
<!-- Node3 -->
<g id="node5" class="node"><title>Node3</title>
<a xlink:href="printable_8h.html" target="_top" xlink:title="base/printable.h">
<polygon fill="white" stroke="black" points="2543,-116.5 2543,-137.5 2629,-137.5 2629,-116.5 2543,-116.5"/>
<text text-anchor="middle" x="2586" y="-124.5" font-family="Helvetica,sans-Serif" font-size="10.00">base/printable.h</text>
</a>
</g>
<!-- Node2&#45;&gt;Node3 -->
<g id="edge4" class="edge"><title>Node2&#45;&gt;Node3</title>
<path fill="none" stroke="midnightblue" d="M1299.75,-178.676C1314.55,-176.914 1330.93,-175.166 1346,-174 1804.61,-138.53 2360.79,-129.533 2532.77,-127.523"/>
<polygon fill="midnightblue" stroke="midnightblue" points="2532.86,-131.022 2542.82,-127.409 2532.78,-124.023 2532.86,-131.022"/>
</g>
<!-- Node4 -->
<g id="node7" class="node"><title>Node4</title>
<polygon fill="white" stroke="#bfbfbf" points="1832,-58.5 1832,-79.5 1876,-79.5 1876,-58.5 1832,-58.5"/>
<text text-anchor="middle" x="1854" y="-66.5" font-family="Helvetica,sans-Serif" font-size="10.00">vector</text>
</g>
<!-- Node2&#45;&gt;Node4 -->
<g id="edge20" class="edge"><title>Node2&#45;&gt;Node4</title>
<path fill="none" stroke="midnightblue" d="M1250.81,-174.463C1249.71,-159.049 1250.29,-130.603 1267,-116 1308.94,-79.3397 1704.93,-71.0354 1821.72,-69.3767"/>
<polygon fill="midnightblue" stroke="midnightblue" points="1821.88,-72.875 1831.83,-69.2401 1821.78,-65.8757 1821.88,-72.875"/>
</g>
<!-- Node6 -->
<g id="node11" class="node"><title>Node6</title>
<polygon fill="white" stroke="#bfbfbf" points="1148.5,-116.5 1148.5,-137.5 1213.5,-137.5 1213.5,-116.5 1148.5,-116.5"/>
<text text-anchor="middle" x="1181" y="-124.5" font-family="Helvetica,sans-Serif" font-size="10.00">TVector3.h</text>
</g>
<!-- Node2&#45;&gt;Node6 -->
<g id="edge10" class="edge"><title>Node2&#45;&gt;Node6</title>
<path fill="none" stroke="midnightblue" d="M1238.98,-174.362C1228.57,-165.859 1213.78,-153.779 1201.74,-143.947"/>
<polygon fill="midnightblue" stroke="midnightblue" points="1203.9,-141.187 1193.94,-137.571 1199.47,-146.608 1203.9,-141.187"/>
</g>
<!-- Node7 -->
<g id="node13" class="node"><title>Node7</title>
<polygon fill="white" stroke="#bfbfbf" points="1276,-116.5 1276,-137.5 1322,-137.5 1322,-116.5 1276,-116.5"/>
<text text-anchor="middle" x="1299" y="-124.5" font-family="Helvetica,sans-Serif" font-size="10.00">cstdint</text>
</g>
<!-- Node2&#45;&gt;Node7 -->
<g id="edge12" class="edge"><title>Node2&#45;&gt;Node7</title>
<path fill="none" stroke="midnightblue" d="M1260.62,-174.362C1267.18,-166.268 1276.37,-154.932 1284.11,-145.38"/>
<polygon fill="midnightblue" stroke="midnightblue" points="1286.86,-147.544 1290.43,-137.571 1281.42,-143.136 1286.86,-147.544"/>
</g>
<!-- Node8 -->
<g id="node15" class="node"><title>Node8</title>
<polygon fill="white" stroke="#bfbfbf" points="1377.5,-116.5 1377.5,-137.5 1436.5,-137.5 1436.5,-116.5 1377.5,-116.5"/>
<text text-anchor="middle" x="1407" y="-124.5" font-family="Helvetica,sans-Serif" font-size="10.00">stdexcept</text>
</g>
<!-- Node2&#45;&gt;Node8 -->
<g id="edge14" class="edge"><title>Node2&#45;&gt;Node8</title>
<path fill="none" stroke="midnightblue" d="M1280.07,-174.497C1305.01,-165.164 1341.67,-151.445 1369.19,-141.147"/>
<polygon fill="midnightblue" stroke="midnightblue" points="1370.74,-144.306 1378.88,-137.523 1368.29,-137.75 1370.74,-144.306"/>
</g>
<!-- Node9 -->
<g id="node17" class="node"><title>Node9</title>
<polygon fill="white" stroke="#bfbfbf" points="3178.5,-0.5 3178.5,-21.5 3219.5,-21.5 3219.5,-0.5 3178.5,-0.5"/>
<text text-anchor="middle" x="3199" y="-8.5" font-family="Helvetica,sans-Serif" font-size="10.00">string</text>
</g>
<!-- Node2&#45;&gt;Node9 -->
<g id="edge16" class="edge"><title>Node2&#45;&gt;Node9</title>
<path fill="none" stroke="midnightblue" d="M1269.78,-174.391C1301.85,-155.271 1366.32,-116.917 1369,-116 1561.44,-50.0927 1620.24,-74.3786 1823,-58 2097.21,-35.8499 2990.75,-15.5345 3168.2,-11.6619"/>
<polygon fill="midnightblue" stroke="midnightblue" points="3168.47,-15.1569 3178.39,-11.4404 3168.32,-8.15859 3168.47,-15.1569"/>
</g>
<!-- Node10 -->
<g id="node19" class="node"><title>Node10</title>
<polygon fill="white" stroke="#bfbfbf" points="948,-116.5 948,-137.5 1010,-137.5 1010,-116.5 948,-116.5"/>
<text text-anchor="middle" x="979" y="-124.5" font-family="Helvetica,sans-Serif" font-size="10.00">type_traits</text>
</g>
<!-- Node2&#45;&gt;Node10 -->
<g id="edge18" class="edge"><title>Node2&#45;&gt;Node10</title>
<path fill="none" stroke="midnightblue" d="M1204.45,-174.897C1152.39,-163.837 1069.76,-146.283 1020.32,-135.778"/>
<polygon fill="midnightblue" stroke="midnightblue" points="1020.8,-132.303 1010.29,-133.648 1019.35,-139.15 1020.8,-132.303"/>
</g>
<!-- Node3&#45;&gt;Node4 -->
<g id="edge6" class="edge"><title>Node3&#45;&gt;Node4</title>
<path fill="none" stroke="midnightblue" d="M2542.88,-123.387C2516.85,-121.218 2483.02,-118.419 2453,-116 2236.44,-98.5482 1975.76,-78.3823 1886.1,-71.471"/>
<polygon fill="midnightblue" stroke="midnightblue" points="1886.27,-67.9737 1876.03,-70.695 1885.73,-74.953 1886.27,-67.9737"/>
</g>
<!-- Node5 -->
<g id="node9" class="node"><title>Node5</title>
<polygon fill="white" stroke="#bfbfbf" points="2649,-58.5 2649,-79.5 2701,-79.5 2701,-58.5 2649,-58.5"/>
<text text-anchor="middle" x="2675" y="-66.5" font-family="Helvetica,sans-Serif" font-size="10.00">ostream</text>
</g>
<!-- Node3&#45;&gt;Node5 -->
<g id="edge8" class="edge"><title>Node3&#45;&gt;Node5</title>
<path fill="none" stroke="midnightblue" d="M2602.32,-116.362C2615.75,-107.614 2634.98,-95.0786 2650.29,-85.1015"/>
<polygon fill="midnightblue" stroke="midnightblue" points="2652.31,-87.9628 2658.78,-79.5707 2648.49,-82.0982 2652.31,-87.9628"/>
</g>
<!-- Node11&#45;&gt;Node2 -->
<g id="edge80" class="edge"><title>Node11&#45;&gt;Node2</title>
<path fill="none" stroke="midnightblue" d="M361.079,-292.705C433.088,-278.428 586.92,-249.1 718,-232 890.69,-209.471 1096.24,-194.765 1194.34,-188.483"/>
<polygon fill="midnightblue" stroke="midnightblue" points="1194.59,-191.975 1204.35,-187.848 1194.15,-184.989 1194.59,-191.975"/>
</g>
<!-- Node11&#45;&gt;Node4 -->
<g id="edge66" class="edge"><title>Node11&#45;&gt;Node4</title>
<path fill="none" stroke="midnightblue" d="M334.422,-290.491C359.463,-272.296 409.168,-236.436 418,-232 436.447,-222.734 750.692,-119.704 771,-116 980.054,-77.865 1663.05,-70.4367 1821.13,-69.2155"/>
<polygon fill="midnightblue" stroke="midnightblue" points="1821.62,-72.7121 1831.59,-69.138 1821.57,-65.7123 1821.62,-72.7121"/>
</g>
<!-- Node11&#45;&gt;Node6 -->
<g id="edge64" class="edge"><title>Node11&#45;&gt;Node6</title>
<path fill="none" stroke="midnightblue" d="M342.656,-290.337C362.57,-280.916 392.301,-266.734 418,-254 437.235,-244.469 440.568,-238.585 461,-232 589.182,-190.686 1003.33,-145.351 1138.15,-131.354"/>
<polygon fill="midnightblue" stroke="midnightblue" points="1138.89,-134.797 1148.48,-130.287 1138.17,-127.834 1138.89,-134.797"/>
</g>
<!-- Node12 -->
<g id="node24" class="node"><title>Node12</title>
<a xlink:href="_t_data_record_8h.html" target="_top" xlink:title="TDataRecord.h">
<polygon fill="white" stroke="black" points="469.5,-232.5 469.5,-253.5 552.5,-253.5 552.5,-232.5 469.5,-232.5"/>
<text text-anchor="middle" x="511" y="-240.5" font-family="Helvetica,sans-Serif" font-size="10.00">TDataRecord.h</text>
</a>
</g>
<!-- Node11&#45;&gt;Node12 -->
<g id="edge24" class="edge"><title>Node11&#45;&gt;Node12</title>
<path fill="none" stroke="midnightblue" d="M354.589,-290.497C385.996,-280.959 432.49,-266.841 466.625,-256.475"/>
<polygon fill="midnightblue" stroke="midnightblue" points="467.795,-259.778 476.346,-253.523 465.761,-253.08 467.795,-259.778"/>
</g>
<!-- Node17 -->
<g id="node36" class="node"><title>Node17</title>
<polygon fill="white" stroke="#bfbfbf" points="50,-0.5 50,-21.5 102,-21.5 102,-0.5 50,-0.5"/>
<text text-anchor="middle" x="76" y="-8.5" font-family="Helvetica,sans-Serif" font-size="10.00">sstream</text>
</g>
<!-- Node11&#45;&gt;Node17 -->
<g id="edge72" class="edge"><title>Node11&#45;&gt;Node17</title>
<path fill="none" stroke="midnightblue" d="M278.903,-291.783C229.166,-277.917 152,-246.495 152,-185 152,-185 152,-185 152,-127 152,-86.5104 119.203,-49.1585 96.6983,-28.2949"/>
<polygon fill="midnightblue" stroke="midnightblue" points="99.0258,-25.681 89.2382,-21.6247 94.3601,-30.8993 99.0258,-25.681"/>
</g>
<!-- Node22 -->
<g id="node49" class="node"><title>Node22</title>
<polygon fill="white" stroke="#bfbfbf" points="241,-116.5 241,-137.5 291,-137.5 291,-116.5 241,-116.5"/>
<text text-anchor="middle" x="266" y="-124.5" font-family="Helvetica,sans-Serif" font-size="10.00">iomanip</text>
</g>
<!-- Node11&#45;&gt;Node22 -->
<g id="edge70" class="edge"><title>Node11&#45;&gt;Node22</title>
<path fill="none" stroke="midnightblue" d="M316.703,-290.377C307.95,-262.172 284.004,-185.012 272.43,-147.72"/>
<polygon fill="midnightblue" stroke="midnightblue" points="275.698,-146.441 269.391,-137.928 269.013,-148.516 275.698,-146.441"/>
</g>
<!-- Node23 -->
<g id="node57" class="node"><title>Node23</title>
<polygon fill="white" stroke="#bfbfbf" points="332,-232.5 332,-253.5 376,-253.5 376,-232.5 332,-232.5"/>
<text text-anchor="middle" x="354" y="-240.5" font-family="Helvetica,sans-Serif" font-size="10.00">cmath</text>
</g>
<!-- Node11&#45;&gt;Node23 -->
<g id="edge68" class="edge"><title>Node11&#45;&gt;Node23</title>
<path fill="none" stroke="midnightblue" d="M326.236,-290.362C330.837,-282.513 337.225,-271.616 342.714,-262.253"/>
<polygon fill="midnightblue" stroke="midnightblue" points="345.766,-263.968 347.803,-253.571 339.727,-260.428 345.766,-263.968"/>
</g>
<!-- Node24 -->
<g id="node61" class="node"><title>Node24</title>
<a xlink:href="root__printable_8h.html" target="_top" xlink:title="base/root_printable.h">
<polygon fill="white" stroke="black" points="1508.5,-174.5 1508.5,-195.5 1615.5,-195.5 1615.5,-174.5 1508.5,-174.5"/>
<text text-anchor="middle" x="1562" y="-182.5" font-family="Helvetica,sans-Serif" font-size="10.00">base/root_printable.h</text>
</a>
</g>
<!-- Node11&#45;&gt;Node24 -->
<g id="edge74" class="edge"><title>Node11&#45;&gt;Node24</title>
<path fill="none" stroke="midnightblue" d="M361.092,-297.878C394.25,-295.448 442.106,-292.138 484,-290 541.072,-287.087 1461.56,-280.862 1512,-254 1531.79,-243.461 1545.67,-221.22 1553.7,-204.824"/>
<polygon fill="midnightblue" stroke="midnightblue" points="1556.98,-206.078 1557.95,-195.528 1550.61,-203.169 1556.98,-206.078"/>
</g>
<!-- Node13 -->
<g id="node26" class="node"><title>Node13</title>
<a xlink:href="_t_i_d_8h.html" target="_top" xlink:title="TID.h">
<polygon fill="white" stroke="black" points="851.5,-174.5 851.5,-195.5 892.5,-195.5 892.5,-174.5 851.5,-174.5"/>
<text text-anchor="middle" x="872" y="-182.5" font-family="Helvetica,sans-Serif" font-size="10.00">TID.h</text>
</a>
</g>
<!-- Node12&#45;&gt;Node13 -->
<g id="edge26" class="edge"><title>Node12&#45;&gt;Node13</title>
<path fill="none" stroke="midnightblue" d="M552.764,-236.29C626.077,-224.511 776.282,-200.378 841.098,-189.965"/>
<polygon fill="midnightblue" stroke="midnightblue" points="841.782,-193.4 851.1,-188.358 840.672,-186.489 841.782,-193.4"/>
</g>
<!-- Node14 -->
<g id="node28" class="node"><title>Node14</title>
<polygon fill="white" stroke="#bfbfbf" points="780,-116.5 780,-137.5 836,-137.5 836,-116.5 780,-116.5"/>
<text text-anchor="middle" x="808" y="-124.5" font-family="Helvetica,sans-Serif" font-size="10.00">Rtypes.h</text>
</g>
<!-- Node12&#45;&gt;Node14 -->
<g id="edge58" class="edge"><title>Node12&#45;&gt;Node14</title>
<path fill="none" stroke="midnightblue" d="M538.144,-232.398C591.725,-211.471 711.114,-164.841 771.51,-141.252"/>
<polygon fill="midnightblue" stroke="midnightblue" points="772.985,-144.433 781.026,-137.535 770.438,-137.913 772.985,-144.433"/>
</g>
<!-- Node20 -->
<g id="node42" class="node"><title>Node20</title>
<polygon fill="white" stroke="#bfbfbf" points="522.5,-58.5 522.5,-79.5 563.5,-79.5 563.5,-58.5 522.5,-58.5"/>
<text text-anchor="middle" x="543" y="-66.5" font-family="Helvetica,sans-Serif" font-size="10.00">ctime</text>
</g>
<!-- Node12&#45;&gt;Node20 -->
<g id="edge62" class="edge"><title>Node12&#45;&gt;Node20</title>
<path fill="none" stroke="midnightblue" d="M512.954,-232.377C518.119,-204.293 532.209,-127.673 539.101,-90.2027"/>
<polygon fill="midnightblue" stroke="midnightblue" points="542.624,-90.3959 540.99,-79.9277 535.739,-89.1297 542.624,-90.3959"/>
</g>
<!-- Node12&#45;&gt;Node22 -->
<g id="edge60" class="edge"><title>Node12&#45;&gt;Node22</title>
<path fill="none" stroke="midnightblue" d="M488.39,-232.295C444.431,-211.482 347.372,-165.527 297.275,-141.808"/>
<polygon fill="midnightblue" stroke="midnightblue" points="298.737,-138.628 288.201,-137.512 295.742,-144.954 298.737,-138.628"/>
</g>
<!-- Node13&#45;&gt;Node3 -->
<g id="edge30" class="edge"><title>Node13&#45;&gt;Node3</title>
<path fill="none" stroke="midnightblue" d="M892.848,-184.291C944.314,-182.542 1081.53,-177.878 1196,-174 1717.05,-156.346 2347.97,-135.037 2532.77,-128.797"/>
<polygon fill="midnightblue" stroke="midnightblue" points="2532.89,-132.295 2542.76,-128.46 2532.65,-125.299 2532.89,-132.295"/>
</g>
<!-- Node13&#45;&gt;Node7 -->
<g id="edge50" class="edge"><title>Node13&#45;&gt;Node7</title>
<path fill="none" stroke="midnightblue" d="M892.522,-182.305C946.499,-175.205 1096.9,-155.335 1222,-138 1236.25,-136.026 1251.97,-133.79 1265.47,-131.852"/>
<polygon fill="midnightblue" stroke="midnightblue" points="1266.36,-135.261 1275.76,-130.372 1265.36,-128.332 1266.36,-135.261"/>
</g>
<!-- Node13&#45;&gt;Node8 -->
<g id="edge52" class="edge"><title>Node13&#45;&gt;Node8</title>
<path fill="none" stroke="midnightblue" d="M892.621,-183.197C957.323,-177.476 1162.06,-158.866 1331,-138 1342.87,-136.534 1355.76,-134.744 1367.49,-133.038"/>
<polygon fill="midnightblue" stroke="midnightblue" points="1368.06,-136.491 1377.44,-131.57 1367.04,-129.566 1368.06,-136.491"/>
</g>
<!-- Node13&#45;&gt;Node10 -->
<g id="edge46" class="edge"><title>Node13&#45;&gt;Node10</title>
<path fill="none" stroke="midnightblue" d="M891.625,-174.362C908.141,-165.409 931.974,-152.491 950.578,-142.406"/>
<polygon fill="midnightblue" stroke="midnightblue" points="952.375,-145.413 959.499,-137.571 949.04,-139.259 952.375,-145.413"/>
</g>
<!-- Node13&#45;&gt;Node14 -->
<g id="edge28" class="edge"><title>Node13&#45;&gt;Node14</title>
<path fill="none" stroke="midnightblue" d="M860.261,-174.362C851.059,-166.023 838.06,-154.242 827.328,-144.516"/>
<polygon fill="midnightblue" stroke="midnightblue" points="829.424,-141.692 819.664,-137.571 824.724,-146.879 829.424,-141.692"/>
</g>
<!-- Node15 -->
<g id="node31" class="node"><title>Node15</title>
<a xlink:href="time_8h.html" target="_top" xlink:title="base/std_ext/time.h">
<polygon fill="white" stroke="black" points="583.5,-116.5 583.5,-137.5 686.5,-137.5 686.5,-116.5 583.5,-116.5"/>
<text text-anchor="middle" x="635" y="-124.5" font-family="Helvetica,sans-Serif" font-size="10.00">base/std_ext/time.h</text>
</a>
</g>
<!-- Node13&#45;&gt;Node15 -->
<g id="edge32" class="edge"><title>Node13&#45;&gt;Node15</title>
<path fill="none" stroke="midnightblue" d="M851.382,-179.954C815.274,-171.118 739.534,-152.582 687.959,-139.961"/>
<polygon fill="midnightblue" stroke="midnightblue" points="688.531,-136.497 677.985,-137.52 686.867,-143.297 688.531,-136.497"/>
</g>
<!-- Node13&#45;&gt;Node20 -->
<g id="edge56" class="edge"><title>Node13&#45;&gt;Node20</title>
<path fill="none" stroke="midnightblue" d="M851.344,-184.211C791.395,-181.547 618.849,-171.11 575,-138 559.503,-126.298 551.25,-105.27 547.033,-89.4931"/>
<polygon fill="midnightblue" stroke="midnightblue" points="550.403,-88.5297 544.719,-79.5883 543.586,-90.1224 550.403,-88.5297"/>
</g>
<!-- Node21 -->
<g id="node45" class="node"><title>Node21</title>
<polygon fill="white" stroke="#bfbfbf" points="854,-116.5 854,-137.5 892,-137.5 892,-116.5 854,-116.5"/>
<text text-anchor="middle" x="873" y="-124.5" font-family="Helvetica,sans-Serif" font-size="10.00">tuple</text>
</g>
<!-- Node13&#45;&gt;Node21 -->
<g id="edge48" class="edge"><title>Node13&#45;&gt;Node21</title>
<path fill="none" stroke="midnightblue" d="M872.183,-174.362C872.312,-166.922 872.487,-156.743 872.643,-147.728"/>
<polygon fill="midnightblue" stroke="midnightblue" points="876.145,-147.63 872.818,-137.571 869.146,-147.509 876.145,-147.63"/>
</g>
<!-- Node13&#45;&gt;Node22 -->
<g id="edge54" class="edge"><title>Node13&#45;&gt;Node22</title>
<path fill="none" stroke="midnightblue" d="M851.49,-183.037C763.062,-174.574 413.804,-141.146 301.196,-130.369"/>
<polygon fill="midnightblue" stroke="midnightblue" points="301.342,-126.867 291.054,-129.398 300.675,-133.835 301.342,-126.867"/>
</g>
<!-- Node16 -->
<g id="node33" class="node"><title>Node16</title>
<a xlink:href="string_8h.html" target="_top" xlink:title="base/std_ext/string.h">
<polygon fill="white" stroke="black" points="581,-58.5 581,-79.5 689,-79.5 689,-58.5 581,-58.5"/>
<text text-anchor="middle" x="635" y="-66.5" font-family="Helvetica,sans-Serif" font-size="10.00">base/std_ext/string.h</text>
</a>
</g>
<!-- Node15&#45;&gt;Node16 -->
<g id="edge34" class="edge"><title>Node15&#45;&gt;Node16</title>
<path fill="none" stroke="midnightblue" d="M635,-116.362C635,-108.922 635,-98.7427 635,-89.7276"/>
<polygon fill="midnightblue" stroke="midnightblue" points="638.5,-89.5706 635,-79.5707 631.5,-89.5707 638.5,-89.5706"/>
</g>
<!-- Node19 -->
<g id="node40" class="node"><title>Node19</title>
<polygon fill="white" stroke="#bfbfbf" points="707,-58.5 707,-79.5 753,-79.5 753,-58.5 707,-58.5"/>
<text text-anchor="middle" x="730" y="-66.5" font-family="Helvetica,sans-Serif" font-size="10.00">cstring</text>
</g>
<!-- Node15&#45;&gt;Node19 -->
<g id="edge42" class="edge"><title>Node15&#45;&gt;Node19</title>
<path fill="none" stroke="midnightblue" d="M652.424,-116.362C666.887,-107.532 687.669,-94.844 704.084,-84.8224"/>
<polygon fill="midnightblue" stroke="midnightblue" points="705.975,-87.7688 712.686,-79.5707 702.327,-81.7943 705.975,-87.7688"/>
</g>
<!-- Node15&#45;&gt;Node20 -->
<g id="edge44" class="edge"><title>Node15&#45;&gt;Node20</title>
<path fill="none" stroke="midnightblue" d="M618.126,-116.362C604.249,-107.614 584.366,-95.0786 568.54,-85.1015"/>
<polygon fill="midnightblue" stroke="midnightblue" points="570.093,-81.943 559.767,-79.5707 566.36,-87.8645 570.093,-81.943"/>
</g>
<!-- Node16&#45;&gt;Node9 -->
<g id="edge36" class="edge"><title>Node16&#45;&gt;Node9</title>
<path fill="none" stroke="midnightblue" d="M689.224,-58.9862C692.187,-58.6098 695.126,-58.2762 698,-58 955.424,-33.2564 2899.07,-13.8681 3168.14,-11.2913"/>
<polygon fill="midnightblue" stroke="midnightblue" points="3168.38,-14.7891 3178.35,-11.1938 3168.32,-7.78946 3168.38,-14.7891"/>
</g>
<!-- Node16&#45;&gt;Node17 -->
<g id="edge38" class="edge"><title>Node16&#45;&gt;Node17</title>
<path fill="none" stroke="midnightblue" d="M580.746,-59.249C577.791,-58.8048 574.861,-58.3847 572,-58 400.563,-34.9469 194.289,-19.2294 112.226,-13.4548"/>
<polygon fill="midnightblue" stroke="midnightblue" points="112.384,-9.95743 102.165,-12.753 111.897,-16.9405 112.384,-9.95743"/>
</g>
<!-- Node18 -->
<g id="node38" class="node"><title>Node18</title>
<polygon fill="white" stroke="#bfbfbf" points="607,-0.5 607,-21.5 663,-21.5 663,-0.5 607,-0.5"/>
<text text-anchor="middle" x="635" y="-8.5" font-family="Helvetica,sans-Serif" font-size="10.00">algorithm</text>
</g>
<!-- Node16&#45;&gt;Node18 -->
<g id="edge40" class="edge"><title>Node16&#45;&gt;Node18</title>
<path fill="none" stroke="midnightblue" d="M635,-58.3619C635,-50.9219 635,-40.7427 635,-31.7276"/>
<polygon fill="midnightblue" stroke="midnightblue" points="638.5,-31.5706 635,-21.5707 631.5,-31.5707 638.5,-31.5706"/>
</g>
<!-- Node24&#45;&gt;Node5 -->
<g id="edge76" class="edge"><title>Node24&#45;&gt;Node5</title>
<path fill="none" stroke="midnightblue" d="M1615.73,-175.21C1618.52,-174.781 1621.29,-174.375 1624,-174 2020.15,-119.15 2504.11,-81.5495 2638.75,-71.6169"/>
<polygon fill="midnightblue" stroke="midnightblue" points="2639.2,-75.0938 2648.91,-70.871 2638.68,-68.1126 2639.2,-75.0938"/>
</g>
<!-- Node24&#45;&gt;Node6 -->
<g id="edge78" class="edge"><title>Node24&#45;&gt;Node6</title>
<path fill="none" stroke="midnightblue" d="M1508.25,-175.364C1505.46,-174.895 1502.7,-174.438 1500,-174 1401.28,-157.973 1284.98,-141.424 1223.72,-132.888"/>
<polygon fill="midnightblue" stroke="midnightblue" points="1224.04,-129.4 1213.65,-131.489 1223.08,-136.333 1224.04,-129.4"/>
</g>
<!-- Node25&#45;&gt;Node11 -->
<g id="edge100" class="edge"><title>Node25&#45;&gt;Node11</title>
<path fill="none" stroke="midnightblue" d="M303.969,-427.184C294.48,-417.045 281.479,-400.945 276,-384 271.077,-368.776 270.121,-362.881 276,-348 280.528,-336.539 289.316,-326.232 297.856,-318.212"/>
<polygon fill="midnightblue" stroke="midnightblue" points="300.28,-320.741 305.499,-311.521 295.67,-315.474 300.28,-320.741"/>
</g>
<!-- Node25&#45;&gt;Node12 -->
<g id="edge84" class="edge"><title>Node25&#45;&gt;Node12</title>
<path fill="none" stroke="midnightblue" d="M353.053,-430.697C381.909,-423.367 420.777,-409.395 446,-384 477.755,-352.028 464.286,-330.521 484,-290 488.547,-280.655 494.195,-270.626 499.149,-262.242"/>
<polygon fill="midnightblue" stroke="midnightblue" points="502.192,-263.972 504.351,-253.6 496.195,-260.363 502.192,-263.972"/>
</g>
<!-- Node25&#45;&gt;Node17 -->
<g id="edge118" class="edge"><title>Node25&#45;&gt;Node17</title>
<path fill="none" stroke="midnightblue" d="M276.69,-429.833C192.742,-410.834 0,-360.71 0,-301 0,-301 0,-301 0,-127 0,-86.5104 32.7975,-49.1585 55.3017,-28.2949"/>
<polygon fill="midnightblue" stroke="midnightblue" points="57.6399,-30.8993 62.7618,-21.6247 52.9742,-25.681 57.6399,-30.8993"/>
</g>
<!-- Node25&#45;&gt;Node22 -->
<g id="edge116" class="edge"><title>Node25&#45;&gt;Node22</title>
<path fill="none" stroke="midnightblue" d="M292.491,-427.356C257.346,-409.317 190.701,-369.056 164,-312 137.355,-255.064 152.685,-220.487 195,-174 206.4,-161.476 221.815,-150.749 235.37,-142.719"/>
<polygon fill="midnightblue" stroke="midnightblue" points="237.415,-145.582 244.384,-137.601 233.959,-139.494 237.415,-145.582"/>
</g>
<!-- Node26 -->
<g id="node69" class="node"><title>Node26</title>
<a xlink:href="_t_candidate_8h.html" target="_top" xlink:title="TCandidate.h">
<polygon fill="white" stroke="black" points="362.5,-355.5 362.5,-376.5 437.5,-376.5 437.5,-355.5 362.5,-355.5"/>
<text text-anchor="middle" x="400" y="-363.5" font-family="Helvetica,sans-Serif" font-size="10.00">TCandidate.h</text>
</a>
</g>
<!-- Node25&#45;&gt;Node26 -->
<g id="edge86" class="edge"><title>Node25&#45;&gt;Node26</title>
<path fill="none" stroke="midnightblue" d="M327.542,-427.376C341.227,-415.784 363.344,-397.05 379.548,-383.324"/>
<polygon fill="midnightblue" stroke="midnightblue" points="382.038,-385.802 387.407,-376.667 377.514,-380.46 382.038,-385.802"/>
</g>
<!-- Node27 -->
<g id="node78" class="node"><title>Node27</title>
<a xlink:href="_t_tagger_8h.html" target="_top" xlink:title="TTagger.h">
<polygon fill="white" stroke="black" points="284.5,-355.5 284.5,-376.5 345.5,-376.5 345.5,-355.5 284.5,-355.5"/>
<text text-anchor="middle" x="315" y="-363.5" font-family="Helvetica,sans-Serif" font-size="10.00">TTagger.h</text>
</a>
</g>
<!-- Node25&#45;&gt;Node27 -->
<g id="edge102" class="edge"><title>Node25&#45;&gt;Node27</title>
<path fill="none" stroke="midnightblue" d="M315,-427.376C315,-416.741 315,-400.095 315,-386.82"/>
<polygon fill="midnightblue" stroke="midnightblue" points="318.5,-386.667 315,-376.667 311.5,-386.667 318.5,-386.667"/>
</g>
<!-- Node26&#45;&gt;Node4 -->
<g id="edge94" class="edge"><title>Node26&#45;&gt;Node4</title>
<path fill="none" stroke="midnightblue" d="M437.861,-361.466C479.731,-355.2 548.12,-341.18 600,-312 644.935,-286.726 637.866,-255.013 684,-232 771.483,-188.361 822.929,-254.843 901,-196 932.434,-172.308 906.277,-137.878 939,-116 976.445,-90.9643 1664.17,-73.4322 1821.93,-69.7292"/>
<polygon fill="midnightblue" stroke="midnightblue" points="1822.04,-73.2278 1831.96,-69.4959 1821.88,-66.2296 1822.04,-73.2278"/>
</g>
<!-- Node26&#45;&gt;Node6 -->
<g id="edge92" class="edge"><title>Node26&#45;&gt;Node6</title>
<path fill="none" stroke="midnightblue" d="M437.623,-363.341C485.525,-358.641 569.665,-345.898 633,-312 678.739,-287.52 671.517,-255.037 718,-232 805.202,-188.782 838.996,-217.123 934,-196 1006.58,-179.863 1089.57,-155.418 1138.51,-140.37"/>
<polygon fill="midnightblue" stroke="midnightblue" points="1139.6,-143.696 1148.13,-137.4 1137.54,-137.008 1139.6,-143.696"/>
</g>
<!-- Node26&#45;&gt;Node11 -->
<g id="edge90" class="edge"><title>Node26&#45;&gt;Node11</title>
<path fill="none" stroke="midnightblue" d="M386.79,-355.267C374.325,-345.139 355.436,-329.792 340.923,-318"/>
<polygon fill="midnightblue" stroke="midnightblue" points="342.933,-315.123 332.965,-311.534 338.519,-320.556 342.933,-315.123"/>
</g>
<!-- Node26&#45;&gt;Node12 -->
<g id="edge88" class="edge"><title>Node26&#45;&gt;Node12</title>
<path fill="none" stroke="midnightblue" d="M405.668,-355.423C414.227,-340.014 431.532,-310.954 451,-290 461.55,-278.645 475.008,-267.84 486.504,-259.461"/>
<polygon fill="midnightblue" stroke="midnightblue" points="488.698,-262.195 494.831,-253.556 484.649,-256.485 488.698,-262.195"/>
</g>
<!-- Node26&#45;&gt;Node17 -->
<g id="edge98" class="edge"><title>Node26&#45;&gt;Node17</title>
<path fill="none" stroke="midnightblue" d="M375.463,-355.427C368.605,-352.739 361.088,-350.039 354,-348 271.403,-324.238 239.902,-352.32 164,-312 93.7815,-274.699 38,-264.511 38,-185 38,-185 38,-185 38,-127 38,-91.7411 54.0509,-53.3154 65.2892,-30.7323"/>
<polygon fill="midnightblue" stroke="midnightblue" points="68.4185,-32.3005 69.8946,-21.809 62.1981,-29.0901 68.4185,-32.3005"/>
</g>
<!-- Node26&#45;&gt;Node22 -->
<g id="edge96" class="edge"><title>Node26&#45;&gt;Node22</title>
<path fill="none" stroke="midnightblue" d="M375.443,-355.495C368.585,-352.808 361.073,-350.09 354,-348 277.432,-325.37 228.484,-373.855 178,-312 134.12,-258.236 208.252,-178.956 245.992,-144.289"/>
<polygon fill="midnightblue" stroke="midnightblue" points="248.342,-146.883 253.438,-137.594 243.662,-141.678 248.342,-146.883"/>
</g>
<!-- Node27&#45;&gt;Node12 -->
<g id="edge104" class="edge"><title>Node27&#45;&gt;Node12</title>
<path fill="none" stroke="midnightblue" d="M330.274,-355.339C351.947,-340.322 392.998,-312.283 429,-290 446.612,-279.099 466.792,-267.522 482.725,-258.585"/>
<polygon fill="midnightblue" stroke="midnightblue" points="484.537,-261.582 491.565,-253.653 481.127,-255.469 484.537,-261.582"/>
</g>
<!-- Node28 -->
<g id="node81" class="node"><title>Node28</title>
<a xlink:href="_t_tagger_hit_8h.html" target="_top" xlink:title="TTaggerHit.h">
<polygon fill="white" stroke="black" points="187,-290.5 187,-311.5 261,-311.5 261,-290.5 187,-290.5"/>
<text text-anchor="middle" x="224" y="-298.5" font-family="Helvetica,sans-Serif" font-size="10.00">TTaggerHit.h</text>
</a>
</g>
<!-- Node27&#45;&gt;Node28 -->
<g id="edge106" class="edge"><title>Node27&#45;&gt;Node28</title>
<path fill="none" stroke="midnightblue" d="M299.973,-355.267C285.662,-345.044 263.906,-329.504 247.338,-317.67"/>
<polygon fill="midnightblue" stroke="midnightblue" points="248.919,-314.498 238.747,-311.534 244.85,-320.194 248.919,-314.498"/>
</g>
<!-- Node28&#45;&gt;Node4 -->
<g id="edge110" class="edge"><title>Node28&#45;&gt;Node4</title>
<path fill="none" stroke="midnightblue" d="M236.222,-290.253C254.075,-275.1 288.883,-247.568 323,-232 478.141,-161.206 530.407,-182.604 695,-138 728.94,-128.802 736.299,-121.692 771,-116 980.702,-81.605 1663.2,-71.3182 1821.16,-69.3713"/>
<polygon fill="midnightblue" stroke="midnightblue" points="1821.65,-72.8657 1831.61,-69.2454 1821.57,-65.8662 1821.65,-72.8657"/>
</g>
<!-- Node28&#45;&gt;Node12 -->
<g id="edge108" class="edge"><title>Node28&#45;&gt;Node12</title>
<path fill="none" stroke="midnightblue" d="M261.126,-291.98C264.125,-291.295 267.111,-290.627 270,-290 334.951,-275.907 410.178,-261.547 459.073,-252.473"/>
<polygon fill="midnightblue" stroke="midnightblue" points="459.898,-255.88 469.094,-250.619 458.624,-248.997 459.898,-255.88"/>
</g>
<!-- Node28&#45;&gt;Node17 -->
<g id="edge114" class="edge"><title>Node28&#45;&gt;Node17</title>
<path fill="none" stroke="midnightblue" d="M191.018,-290.402C172.857,-282.952 151.357,-271.202 138,-254 84.8292,-185.522 76.8629,-76.5522 75.9476,-31.513"/>
<polygon fill="midnightblue" stroke="midnightblue" points="79.4474,-31.4664 75.8436,-21.5034 72.4478,-31.5392 79.4474,-31.4664"/>
</g>
<!-- Node28&#45;&gt;Node22 -->
<g id="edge112" class="edge"><title>Node28&#45;&gt;Node22</title>
<path fill="none" stroke="midnightblue" d="M226.564,-290.377C233.372,-262.172 251.997,-185.012 260.999,-147.72"/>
<polygon fill="midnightblue" stroke="midnightblue" points="264.418,-148.47 263.362,-137.928 257.614,-146.827 264.418,-148.47"/>
</g>
<!-- Node29&#45;&gt;Node2 -->
<g id="edge122" class="edge"><title>Node29&#45;&gt;Node2</title>
<path fill="none" stroke="midnightblue" d="M851.877,-608.398C833.509,-600.673 810.637,-588.637 795,-572 750.058,-524.184 733,-503.621 733,-438 733,-438 733,-438 733,-366 733,-330.578 731.726,-314.819 757,-290 818.605,-229.504 1077.45,-200.005 1194.31,-189.568"/>
<polygon fill="midnightblue" stroke="midnightblue" points="1194.84,-193.036 1204.49,-188.675 1194.23,-186.062 1194.84,-193.036"/>
</g>
<!-- Node29&#45;&gt;Node3 -->
<g id="edge366" class="edge"><title>Node29&#45;&gt;Node3</title>
<path fill="none" stroke="midnightblue" d="M940.185,-618.217C1228.94,-614.243 2510.03,-595.576 2908,-572 3069.11,-562.456 3631,-664.397 3631,-503 3631,-503 3631,-503 3631,-366 3631,-160.345 2852.17,-131.65 2639.24,-127.648"/>
<polygon fill="midnightblue" stroke="midnightblue" points="2639.3,-124.149 2629.24,-127.471 2639.18,-131.148 2639.3,-124.149"/>
</g>
<!-- Node30 -->
<g id="node92" class="node"><title>Node30</title>
<a xlink:href="_reconstruct__traits_8h.html" target="_top" xlink:title="reconstruct/Reconstruct\l_traits.h">
<polygon fill="white" stroke="black" points="1043,-421 1043,-455 1165,-455 1165,-421 1043,-421"/>
<text text-anchor="start" x="1051" y="-442" font-family="Helvetica,sans-Serif" font-size="10.00">reconstruct/Reconstruct</text>
<text text-anchor="middle" x="1104" y="-429" font-family="Helvetica,sans-Serif" font-size="10.00">_traits.h</text>
</a>
</g>
<!-- Node29&#45;&gt;Node30 -->
<g id="edge124" class="edge"><title>Node29&#45;&gt;Node30</title>
<path fill="none" stroke="midnightblue" d="M894.895,-608.486C929.712,-580.1 1026.27,-501.373 1075.03,-461.617"/>
<polygon fill="midnightblue" stroke="midnightblue" points="1077.46,-464.158 1082.99,-455.126 1073.03,-458.733 1077.46,-464.158"/>
</g>
<!-- Node29&#45;&gt;Node33 -->
<g id="edge368" class="edge"><title>Node29&#45;&gt;Node33</title>
<path fill="none" stroke="midnightblue" d="M876.531,-608.448C866.688,-588.444 847,-543.388 847,-503 847,-503 847,-503 847,-366 847,-323.778 867.687,-311.543 904,-290 952.252,-261.374 1118.42,-248.983 1192.66,-244.784"/>
<polygon fill="midnightblue" stroke="midnightblue" points="1193.13,-248.264 1202.92,-244.223 1192.75,-241.275 1193.13,-248.264"/>
</g>
<!-- Node29&#45;&gt;Node34 -->
<g id="edge370" class="edge"><title>Node29&#45;&gt;Node34</title>
<path fill="none" stroke="midnightblue" d="M872.552,-608.231C865.172,-599.194 855.305,-585.612 850,-572 804.404,-455.011 767.617,-366.737 867,-290 1073.47,-130.576 1196.23,-263.059 1452.26,-195.704"/>
<polygon fill="midnightblue" stroke="midnightblue" points="1453.47,-199.002 1462.2,-193.005 1451.63,-192.247 1453.47,-199.002"/>
</g>
<!-- Node29&#45;&gt;Node37 -->
<g id="edge372" class="edge"><title>Node29&#45;&gt;Node37</title>
<path fill="none" stroke="midnightblue" d="M940.059,-618.472C1150.06,-616.317 1889.84,-606.581 2499,-572 2680.69,-561.686 3315,-684.98 3315,-503 3315,-503 3315,-503 3315,-366 3315,-294.819 3062.57,-256.963 2977.56,-246.233"/>
<polygon fill="midnightblue" stroke="midnightblue" points="2977.96,-242.756 2967.6,-245.005 2977.1,-249.703 2977.96,-242.756"/>
</g>
<!-- Node38 -->
<g id="node115" class="node"><title>Node38</title>
<a xlink:href="_calibration_8h.html" target="_top" xlink:title="calibration/Calibration.h">
<polygon fill="white" stroke="black" points="2371.5,-550.5 2371.5,-571.5 2490.5,-571.5 2490.5,-550.5 2371.5,-550.5"/>
<text text-anchor="middle" x="2431" y="-558.5" font-family="Helvetica,sans-Serif" font-size="10.00">calibration/Calibration.h</text>
</a>
</g>
<!-- Node29&#45;&gt;Node38 -->
<g id="edge154" class="edge"><title>Node29&#45;&gt;Node38</title>
<path fill="none" stroke="midnightblue" d="M940.363,-616.815C1181.48,-607.786 2099.55,-573.411 2361.09,-563.618"/>
<polygon fill="midnightblue" stroke="midnightblue" points="2361.35,-567.11 2371.21,-563.239 2361.09,-560.115 2361.35,-567.11"/>
</g>
<!-- Node30&#45;&gt;Node2 -->
<g id="edge126" class="edge"><title>Node30&#45;&gt;Node2</title>
<path fill="none" stroke="midnightblue" d="M1042.98,-421.46C969.806,-398.44 861.953,-352.428 904,-290 936.63,-241.554 1104.03,-208.268 1194.24,-193.55"/>
<polygon fill="midnightblue" stroke="midnightblue" points="1194.99,-196.973 1204.31,-191.931 1193.88,-190.062 1194.99,-196.973"/>
</g>
<!-- Node31 -->
<g id="node95" class="node"><title>Node31</title>
<a xlink:href="_memory_pool_8h.html" target="_top" xlink:title="tree/MemoryPool.h">
<polygon fill="white" stroke="black" points="1091.5,-355.5 1091.5,-376.5 1190.5,-376.5 1190.5,-355.5 1091.5,-355.5"/>
<text text-anchor="middle" x="1141" y="-363.5" font-family="Helvetica,sans-Serif" font-size="10.00">tree/MemoryPool.h</text>
</a>
</g>
<!-- Node30&#45;&gt;Node31 -->
<g id="edge128" class="edge"><title>Node30&#45;&gt;Node31</title>
<path fill="none" stroke="midnightblue" d="M1112.77,-420.937C1118.14,-410.494 1125.03,-397.079 1130.66,-386.12"/>
<polygon fill="midnightblue" stroke="midnightblue" points="1133.94,-387.395 1135.4,-376.901 1127.71,-384.196 1133.94,-387.395"/>
</g>
<!-- Node30&#45;&gt;Node33 -->
<g id="edge148" class="edge"><title>Node30&#45;&gt;Node33</title>
<path fill="none" stroke="midnightblue" d="M1095.5,-420.973C1090.79,-410.577 1085.41,-396.852 1083,-384 1075.03,-341.511 1076.88,-320.006 1108,-290 1131.2,-267.629 1166.24,-255.585 1192.66,-249.311"/>
<polygon fill="midnightblue" stroke="midnightblue" points="1193.66,-252.675 1202.67,-247.107 1192.15,-245.839 1193.66,-252.675"/>
</g>
<!-- Node30&#45;&gt;Node34 -->
<g id="edge152" class="edge"><title>Node30&#45;&gt;Node34</title>
<path fill="none" stroke="midnightblue" d="M1154.83,-420.821C1171.79,-412.448 1188.92,-400.519 1199,-384 1220.77,-348.317 1226.83,-323.623 1202,-290 1167.52,-243.314 1046,-274.986 1085,-232 1138.41,-173.124 1358.38,-214.929 1452.43,-195.387"/>
<polygon fill="midnightblue" stroke="midnightblue" points="1453.32,-198.774 1462.2,-192.998 1451.65,-191.974 1453.32,-198.774"/>
</g>
<!-- Node36 -->
<g id="node106" class="node"><title>Node36</title>
<a xlink:href="mapped__vectors_8h.html" target="_top" xlink:title="base/mapped_vectors.h">
<polygon fill="white" stroke="black" points="912.5,-290.5 912.5,-311.5 1033.5,-311.5 1033.5,-290.5 912.5,-290.5"/>
<text text-anchor="middle" x="973" y="-298.5" font-family="Helvetica,sans-Serif" font-size="10.00">base/mapped_vectors.h</text>
</a>
</g>
<!-- Node30&#45;&gt;Node36 -->
<g id="edge140" class="edge"><title>Node30&#45;&gt;Node36</title>
<path fill="none" stroke="midnightblue" d="M1085.14,-420.876C1073.85,-410.445 1059.34,-396.719 1047,-384 1026.09,-362.448 1003.27,-336.444 988.581,-319.355"/>
<polygon fill="midnightblue" stroke="midnightblue" points="991.228,-317.064 982.068,-311.74 985.909,-321.614 991.228,-317.064"/>
</g>
<!-- Node30&#45;&gt;Node37 -->
<g id="edge150" class="edge"><title>Node30&#45;&gt;Node37</title>
<path fill="none" stroke="midnightblue" d="M1165.19,-437.129C1417.22,-433.337 2367.84,-416.962 2498,-384 2589.72,-360.773 2598.79,-318.529 2689,-290 2787.65,-258.801 2818.7,-279.41 2919,-254 2920.25,-253.684 2921.51,-253.339 2922.79,-252.972"/>
<polygon fill="midnightblue" stroke="midnightblue" points="2924.02,-256.251 2932.47,-249.858 2921.88,-249.588 2924.02,-256.251"/>
</g>
<!-- Node32 -->
<g id="node97" class="node"><title>Node32</title>
<a xlink:href="memory_8h.html" target="_top" xlink:title="base/std_ext/memory.h">
<polygon fill="white" stroke="black" points="1486.5,-290.5 1486.5,-311.5 1605.5,-311.5 1605.5,-290.5 1486.5,-290.5"/>
<text text-anchor="middle" x="1546" y="-298.5" font-family="Helvetica,sans-Serif" font-size="10.00">base/std_ext/memory.h</text>
</a>
</g>
<!-- Node31&#45;&gt;Node32 -->
<g id="edge130" class="edge"><title>Node31&#45;&gt;Node32</title>
<path fill="none" stroke="midnightblue" d="M1190.66,-358.03C1262.27,-346.538 1394.83,-325.262 1476.23,-312.197"/>
<polygon fill="midnightblue" stroke="midnightblue" points="1477.07,-315.607 1486.39,-310.567 1475.96,-308.696 1477.07,-315.607"/>
</g>
<!-- Node31&#45;&gt;Node33 -->
<g id="edge136" class="edge"><title>Node31&#45;&gt;Node33</title>
<path fill="none" stroke="midnightblue" d="M1132.5,-355.352C1121.23,-339.855 1104.3,-310.686 1118,-290 1134.46,-265.16 1166.94,-253.412 1192.54,-247.877"/>
<polygon fill="midnightblue" stroke="midnightblue" points="1193.51,-251.255 1202.67,-245.925 1192.19,-244.382 1193.51,-251.255"/>
</g>
<!-- Node35 -->
<g id="node104" class="node"><title>Node35</title>
<polygon fill="white" stroke="#bfbfbf" points="1126.5,-290.5 1126.5,-311.5 1193.5,-311.5 1193.5,-290.5 1126.5,-290.5"/>
<text text-anchor="middle" x="1160" y="-298.5" font-family="Helvetica,sans-Serif" font-size="10.00">forward_list</text>
</g>
<!-- Node31&#45;&gt;Node35 -->
<g id="edge138" class="edge"><title>Node31&#45;&gt;Node35</title>
<path fill="none" stroke="midnightblue" d="M1144.14,-355.267C1146.82,-346.085 1150.76,-332.615 1154.04,-321.392"/>
<polygon fill="midnightblue" stroke="midnightblue" points="1157.47,-322.114 1156.92,-311.534 1150.76,-320.15 1157.47,-322.114"/>
</g>
<!-- Node32&#45;&gt;Node33 -->
<g id="edge132" class="edge"><title>Node32&#45;&gt;Node33</title>
<path fill="none" stroke="midnightblue" d="M1486.32,-291.594C1417.71,-280.652 1309.36,-262.95 1269,-254 1267.73,-253.719 1266.45,-253.424 1265.15,-253.117"/>
<polygon fill="midnightblue" stroke="midnightblue" points="1265.71,-249.647 1255.16,-250.597 1264,-256.435 1265.71,-249.647"/>
</g>
<!-- Node32&#45;&gt;Node34 -->
<g id="edge134" class="edge"><title>Node32&#45;&gt;Node34</title>
<path fill="none" stroke="midnightblue" d="M1541.5,-290.398C1535.47,-276.575 1524.13,-251.823 1512,-232 1506.09,-222.338 1498.7,-212.191 1492.24,-203.808"/>
<polygon fill="midnightblue" stroke="midnightblue" points="1494.87,-201.498 1485.94,-195.805 1489.37,-205.828 1494.87,-201.498"/>
</g>
<!-- Node36&#45;&gt;Node4 -->
<g id="edge142" class="edge"><title>Node36&#45;&gt;Node4</title>
<path fill="none" stroke="midnightblue" d="M1033.75,-296.199C1174.61,-285.034 1513.42,-257.968 1538,-254 1646.33,-236.511 1691.13,-263.053 1778,-196 1809.95,-171.335 1799.81,-150.357 1821,-116 1826.9,-106.427 1834.01,-96.1639 1840.12,-87.6782"/>
<polygon fill="midnightblue" stroke="midnightblue" points="1842.96,-89.7233 1846.03,-79.5818 1837.3,-85.5978 1842.96,-89.7233"/>
</g>
<!-- Node36&#45;&gt;Node10 -->
<g id="edge146" class="edge"><title>Node36&#45;&gt;Node10</title>
<path fill="none" stroke="midnightblue" d="M973.366,-290.377C974.335,-262.293 976.977,-185.673 978.269,-148.203"/>
<polygon fill="midnightblue" stroke="midnightblue" points="981.776,-148.042 978.623,-137.928 974.781,-147.801 981.776,-148.042"/>
</g>
<!-- Node36&#45;&gt;Node33 -->
<g id="edge144" class="edge"><title>Node36&#45;&gt;Node33</title>
<path fill="none" stroke="midnightblue" d="M1019.36,-290.497C1069.22,-279.2 1147.45,-261.477 1192.92,-251.175"/>
<polygon fill="midnightblue" stroke="midnightblue" points="1193.94,-254.532 1202.92,-248.909 1192.39,-247.705 1193.94,-254.532"/>
</g>
<!-- Node38&#45;&gt;Node4 -->
<g id="edge364" class="edge"><title>Node38&#45;&gt;Node4</title>
<path fill="none" stroke="midnightblue" d="M2490.81,-550.586C2565.1,-537.605 2683.31,-516.776 2693,-514 2780.43,-488.953 2883,-528.949 2883,-438 2883,-438 2883,-438 2883,-366 2883,-331.183 2879.1,-316.23 2902,-290 2930.33,-257.544 2967.85,-289.674 2992,-254 2997.48,-245.903 2996.7,-240.573 2992,-232 2968.94,-189.949 2945.12,-192.799 2901,-174 2850.72,-152.579 2716.05,-124.064 2662,-116 2508.41,-93.0866 2017.68,-74.7027 1886.5,-70.1084"/>
<polygon fill="midnightblue" stroke="midnightblue" points="1886.42,-66.6036 1876.31,-69.7538 1886.18,-73.5994 1886.42,-66.6036"/>
</g>
<!-- Node38&#45;&gt;Node30 -->
<g id="edge348" class="edge"><title>Node38&#45;&gt;Node30</title>
<path fill="none" stroke="midnightblue" d="M2371.4,-555.476C2154.87,-535.405 1410.19,-466.381 1175.46,-444.624"/>
<polygon fill="midnightblue" stroke="midnightblue" points="1175.61,-441.123 1165.33,-443.685 1174.97,-448.093 1175.61,-441.123"/>
</g>
<!-- Node39 -->
<g id="node117" class="node"><title>Node39</title>
<a xlink:href="_physics_8h.html" target="_top" xlink:title="analysis/physics/Physics.h">
<polygon fill="white" stroke="black" points="2548,-492.5 2548,-513.5 2684,-513.5 2684,-492.5 2548,-492.5"/>
<text text-anchor="middle" x="2616" y="-500.5" font-family="Helvetica,sans-Serif" font-size="10.00">analysis/physics/Physics.h</text>
</a>
</g>
<!-- Node38&#45;&gt;Node39 -->
<g id="edge156" class="edge"><title>Node38&#45;&gt;Node39</title>
<path fill="none" stroke="midnightblue" d="M2464.5,-550.497C2494.79,-541 2539.57,-526.962 2572.59,-516.609"/>
<polygon fill="midnightblue" stroke="midnightblue" points="2573.94,-519.854 2582.44,-513.523 2571.85,-513.175 2573.94,-519.854"/>
</g>
<!-- Node67 -->
<g id="node242" class="node"><title>Node67</title>
<a xlink:href="_manager__traits_8h.html" target="_top" xlink:title="calibration/gui/Manager\l_traits.h">
<polygon fill="white" stroke="black" points="2372.5,-349 2372.5,-383 2489.5,-383 2489.5,-349 2372.5,-349"/>
<text text-anchor="start" x="2380.5" y="-370" font-family="Helvetica,sans-Serif" font-size="10.00">calibration/gui/Manager</text>
<text text-anchor="middle" x="2431" y="-357" font-family="Helvetica,sans-Serif" font-size="10.00">_traits.h</text>
</a>
</g>
<!-- Node38&#45;&gt;Node67 -->
<g id="edge350" class="edge"><title>Node38&#45;&gt;Node67</title>
<path fill="none" stroke="midnightblue" d="M2431,-550.238C2431,-520.575 2431,-436.955 2431,-393.3"/>
<polygon fill="midnightblue" stroke="midnightblue" points="2434.5,-393.12 2431,-383.12 2427.5,-393.12 2434.5,-393.12"/>
</g>
<!-- Node39&#45;&gt;Node9 -->
<g id="edge340" class="edge"><title>Node39&#45;&gt;Node9</title>
<path fill="none" stroke="midnightblue" d="M2684.1,-499.797C2820.9,-493.03 3124.72,-476.223 3227,-456 3328.76,-435.881 3358.99,-435.551 3449,-384 3543.73,-329.742 3593,-294.172 3593,-185 3593,-185 3593,-185 3593,-127 3593,-76.5972 3549.35,-77.8011 3503,-58 3454.05,-37.0892 3297.01,-20.2467 3229.89,-13.8152"/>
<polygon fill="midnightblue" stroke="midnightblue" points="3230.21,-10.3295 3219.92,-12.8734 3229.55,-17.2984 3230.21,-10.3295"/>
</g>
<!-- Node39&#45;&gt;Node33 -->
<g id="edge344" class="edge"><title>Node39&#45;&gt;Node33</title>
<path fill="none" stroke="midnightblue" d="M2547.71,-501.245C2375.95,-496.494 1929.27,-481.961 1783,-456 1674.61,-436.763 1648.54,-424.069 1546,-384 1477.5,-357.23 1460.86,-348.485 1397,-312 1381.69,-303.256 1379.79,-297.835 1364,-290 1323.09,-269.702 1308.15,-270.028 1264.75,-255.578"/>
<polygon fill="midnightblue" stroke="midnightblue" points="1265.64,-252.181 1255.04,-252.257 1263.37,-258.804 1265.64,-252.181"/>
</g>
<!-- Node39&#45;&gt;Node34 -->
<g id="edge338" class="edge"><title>Node39&#45;&gt;Node34</title>
<path fill="none" stroke="midnightblue" d="M2547.72,-501.987C2317.76,-497.737 1573.74,-476.954 1356,-384 1334.05,-374.629 1195.6,-275.382 1185,-254 1152,-187.463 1223.46,-261.999 1452.56,-195.753"/>
<polygon fill="midnightblue" stroke="midnightblue" points="1453.57,-199.102 1462.18,-192.916 1451.59,-192.388 1453.57,-199.102"/>
</g>
<!-- Node39&#45;&gt;Node37 -->
<g id="edge342" class="edge"><title>Node39&#45;&gt;Node37</title>
<path fill="none" stroke="midnightblue" d="M2677.32,-492.486C2812.65,-467.796 3129.14,-401.375 3182,-312 3186.98,-303.584 3188.19,-297.569 3182,-290 3169.08,-274.202 3036.53,-254.623 2977.78,-246.642"/>
<polygon fill="midnightblue" stroke="midnightblue" points="2978.09,-243.153 2967.71,-245.291 2977.16,-250.09 2978.09,-243.153"/>
</g>
<!-- Node40 -->
<g id="node119" class="node"><title>Node40</title>
<a xlink:href="_histogram_factories_8h.html" target="_top" xlink:title="analysis/plot/HistogramFactories.h">
<polygon fill="white" stroke="black" points="3024,-427.5 3024,-448.5 3192,-448.5 3192,-427.5 3024,-427.5"/>
<text text-anchor="middle" x="3108" y="-435.5" font-family="Helvetica,sans-Serif" font-size="10.00">analysis/plot/HistogramFactories.h</text>
</a>
</g>
<!-- Node39&#45;&gt;Node40 -->
<g id="edge158" class="edge"><title>Node39&#45;&gt;Node40</title>
<path fill="none" stroke="midnightblue" d="M2684.15,-496.186C2762.84,-488.014 2896.08,-473.239 3010,-456 3021.11,-454.318 3032.9,-452.331 3044.29,-450.301"/>
<polygon fill="midnightblue" stroke="midnightblue" points="3044.97,-453.736 3054.19,-448.513 3043.72,-446.848 3044.97,-453.736"/>
</g>
<!-- Node48 -->
<g id="node146" class="node"><title>Node48</title>
<polygon fill="white" stroke="#bfbfbf" points="2466.5,-232.5 2466.5,-253.5 2525.5,-253.5 2525.5,-232.5 2466.5,-232.5"/>
<text text-anchor="middle" x="2496" y="-240.5" font-family="Helvetica,sans-Serif" font-size="10.00">functional</text>
</g>
<!-- Node39&#45;&gt;Node48 -->
<g id="edge346" class="edge"><title>Node39&#45;&gt;Node48</title>
<path fill="none" stroke="midnightblue" d="M2684.12,-499.977C2834.65,-492.967 3183.68,-474.766 3201,-456 3231.78,-422.651 3266.67,-367.404 3182,-290 3130.65,-243.056 2641.33,-264.453 2535.7,-253.612"/>
<polygon fill="midnightblue" stroke="midnightblue" points="2536.09,-250.134 2525.72,-252.293 2535.18,-257.073 2536.09,-250.134"/>
</g>
<!-- Node62 -->
<g id="node203" class="node"><title>Node62</title>
<a xlink:href="_event_8h.html" target="_top" xlink:title="analysis/data/Event.h">
<polygon fill="white" stroke="black" points="2027.5,-427.5 2027.5,-448.5 2138.5,-448.5 2138.5,-427.5 2027.5,-427.5"/>
<text text-anchor="middle" x="2083" y="-435.5" font-family="Helvetica,sans-Serif" font-size="10.00">analysis/data/Event.h</text>
</a>
</g>
<!-- Node39&#45;&gt;Node62 -->
<g id="edge282" class="edge"><title>Node39&#45;&gt;Node62</title>
<path fill="none" stroke="midnightblue" d="M2547.95,-494.702C2444.85,-482.128 2250.32,-458.405 2148.65,-446.006"/>
<polygon fill="midnightblue" stroke="midnightblue" points="2148.86,-442.506 2138.51,-444.77 2148.02,-449.455 2148.86,-442.506"/>
</g>
<!-- Node65 -->
<g id="node227" class="node"><title>Node65</title>
<a xlink:href="_slowcontrol_8h.html" target="_top" xlink:title="analysis/data/Slowcontrol.h">
<polygon fill="white" stroke="black" points="1632.5,-174.5 1632.5,-195.5 1769.5,-195.5 1769.5,-174.5 1632.5,-174.5"/>
<text text-anchor="middle" x="1701" y="-182.5" font-family="Helvetica,sans-Serif" font-size="10.00">analysis/data/Slowcontrol.h</text>
</a>
</g>
<!-- Node39&#45;&gt;Node65 -->
<g id="edge324" class="edge"><title>Node39&#45;&gt;Node65</title>
<path fill="none" stroke="midnightblue" d="M2547.86,-499.952C2413.35,-493.555 2118.19,-477.522 2019,-456 1914.95,-433.424 1797,-472.466 1797,-366 1797,-366 1797,-366 1797,-301 1797,-257.173 1755.83,-220.998 1727.41,-201.251"/>
<polygon fill="midnightblue" stroke="midnightblue" points="1729.31,-198.315 1719.06,-195.659 1725.42,-204.131 1729.31,-198.315"/>
</g>
<!-- Node66 -->
<g id="node231" class="node"><title>Node66</title>
<a xlink:href="_options_list_8h.html" target="_top" xlink:title="base/OptionsList.h">
<polygon fill="white" stroke="black" points="2719,-290.5 2719,-311.5 2817,-311.5 2817,-290.5 2719,-290.5"/>
<text text-anchor="middle" x="2768" y="-298.5" font-family="Helvetica,sans-Serif" font-size="10.00">base/OptionsList.h</text>
</a>
</g>
<!-- Node39&#45;&gt;Node66 -->
<g id="edge330" class="edge"><title>Node39&#45;&gt;Node66</title>
<path fill="none" stroke="midnightblue" d="M2623.96,-492.424C2648.32,-460.055 2722.1,-362.001 2753.55,-320.205"/>
<polygon fill="midnightblue" stroke="midnightblue" points="2756.54,-322.056 2759.75,-311.961 2750.94,-317.847 2756.54,-322.056"/>
</g>
<!-- Node40&#45;&gt;Node9 -->
<g id="edge280" class="edge"><title>Node40&#45;&gt;Node9</title>
<path fill="none" stroke="midnightblue" d="M3190.28,-427.431C3309.71,-409.752 3517,-369.239 3517,-301 3517,-301 3517,-301 3517,-127 3517,-91.5529 3506.13,-78.2033 3477,-58 3437.36,-30.5061 3293.97,-17.488 3230.08,-12.953"/>
<polygon fill="midnightblue" stroke="midnightblue" points="3230.05,-9.44223 3219.83,-12.2499 3229.57,-16.4258 3230.05,-9.44223"/>
</g>
<!-- Node41 -->
<g id="node121" class="node"><title>Node41</title>
<a xlink:href="_histogram_8h.html" target="_top" xlink:title="Histogram.h">
<polygon fill="white" stroke="black" points="3343,-290.5 3343,-311.5 3413,-311.5 3413,-290.5 3343,-290.5"/>
<text text-anchor="middle" x="3378" y="-298.5" font-family="Helvetica,sans-Serif" font-size="10.00">Histogram.h</text>
</a>
</g>
<!-- Node40&#45;&gt;Node41 -->
<g id="edge160" class="edge"><title>Node40&#45;&gt;Node41</title>
<path fill="none" stroke="midnightblue" d="M3128.74,-427.477C3176.25,-403.371 3293.11,-344.075 3348.26,-316.088"/>
<polygon fill="midnightblue" stroke="midnightblue" points="3349.86,-319.205 3357.19,-311.559 3346.69,-312.962 3349.86,-319.205"/>
</g>
<!-- Node46 -->
<g id="node136" class="node"><title>Node46</title>
<a xlink:href="_smart_hist_8h.html" target="_top" xlink:title="SmartHist.h">
<polygon fill="white" stroke="black" points="2973.5,-355.5 2973.5,-376.5 3042.5,-376.5 3042.5,-355.5 2973.5,-355.5"/>
<text text-anchor="middle" x="3008" y="-363.5" font-family="Helvetica,sans-Serif" font-size="10.00">SmartHist.h</text>
</a>
</g>
<!-- Node40&#45;&gt;Node46 -->
<g id="edge180" class="edge"><title>Node40&#45;&gt;Node46</title>
<path fill="none" stroke="midnightblue" d="M3093.24,-427.376C3076.85,-415.571 3050.17,-396.36 3031.02,-382.574"/>
<polygon fill="midnightblue" stroke="midnightblue" points="3032.98,-379.67 3022.82,-376.667 3028.89,-385.351 3032.98,-379.67"/>
</g>
<!-- Node54 -->
<g id="node162" class="node"><title>Node54</title>
<a xlink:href="_particle_8h.html" target="_top" xlink:title="analysis/data/Particle.h">
<polygon fill="white" stroke="black" points="2111.5,-355.5 2111.5,-376.5 2230.5,-376.5 2230.5,-355.5 2111.5,-355.5"/>
<text text-anchor="middle" x="2171" y="-363.5" font-family="Helvetica,sans-Serif" font-size="10.00">analysis/data/Particle.h</text>
</a>
</g>
<!-- Node40&#45;&gt;Node54 -->
<g id="edge216" class="edge"><title>Node40&#45;&gt;Node54</title>
<path fill="none" stroke="midnightblue" d="M3024,-432.467C2886.13,-423.26 2603.25,-403.837 2364,-384 2323.08,-380.607 2277.31,-376.359 2240.62,-372.842"/>
<polygon fill="midnightblue" stroke="midnightblue" points="2240.82,-369.344 2230.53,-371.87 2240.15,-376.312 2240.82,-369.344"/>
</g>
<!-- Node41&#45;&gt;Node4 -->
<g id="edge164" class="edge"><title>Node41&#45;&gt;Node4</title>
<path fill="none" stroke="midnightblue" d="M3353.42,-290.413C3332.22,-281.156 3300.86,-267.17 3274,-254 3205.81,-220.567 3195.12,-197.814 3123,-174 2883.07,-94.7706 2059.77,-73.314 1886.26,-69.6283"/>
<polygon fill="midnightblue" stroke="midnightblue" points="1886.08,-66.1238 1876.01,-69.4153 1885.93,-73.1223 1886.08,-66.1238"/>
</g>
<!-- Node41&#45;&gt;Node9 -->
<g id="edge166" class="edge"><title>Node41&#45;&gt;Node9</title>
<path fill="none" stroke="midnightblue" d="M3376.03,-290.488C3372.39,-270.182 3365,-224.111 3365,-185 3365,-185 3365,-185 3365,-127 3365,-61.6532 3277.5,-30.0482 3229.55,-17.6353"/>
<polygon fill="midnightblue" stroke="midnightblue" points="3230.24,-14.1987 3219.69,-15.2072 3228.56,-20.9958 3230.24,-14.1987"/>
</g>
<!-- Node42 -->
<g id="node123" class="node"><title>Node42</title>
<polygon fill="white" stroke="#bfbfbf" points="3283,-232.5 3283,-253.5 3337,-253.5 3337,-232.5 3283,-232.5"/>
<text text-anchor="middle" x="3310" y="-240.5" font-family="Helvetica,sans-Serif" font-size="10.00">TColor.h</text>
</g>
<!-- Node41&#45;&gt;Node42 -->
<g id="edge162" class="edge"><title>Node41&#45;&gt;Node42</title>
<path fill="none" stroke="midnightblue" d="M3365.53,-290.362C3355.65,-281.941 3341.67,-270.011 3330.2,-260.231"/>
<polygon fill="midnightblue" stroke="midnightblue" points="3332.27,-257.397 3322.39,-253.571 3327.73,-262.723 3332.27,-257.397"/>
</g>
<!-- Node43 -->
<g id="node127" class="node"><title>Node43</title>
<a xlink:href="interval_8h.html" target="_top" xlink:title="base/interval.h">
<polygon fill="white" stroke="black" points="2543,-232.5 2543,-253.5 2623,-253.5 2623,-232.5 2543,-232.5"/>
<text text-anchor="middle" x="2583" y="-240.5" font-family="Helvetica,sans-Serif" font-size="10.00">base/interval.h</text>
</a>
</g>
<!-- Node41&#45;&gt;Node43 -->
<g id="edge168" class="edge"><title>Node41&#45;&gt;Node43</title>
<path fill="none" stroke="midnightblue" d="M3342.81,-298.433C3216.04,-289.184 2782.32,-257.542 2633.56,-246.688"/>
<polygon fill="midnightblue" stroke="midnightblue" points="2633.57,-243.18 2623.35,-245.943 2633.06,-250.162 2633.57,-243.18"/>
</g>
<!-- Node43&#45;&gt;Node3 -->
<g id="edge174" class="edge"><title>Node43&#45;&gt;Node3</title>
<path fill="none" stroke="midnightblue" d="M2579.89,-232.248C2576.36,-218.677 2571.41,-194.617 2574,-174 2575.11,-165.169 2577.35,-155.619 2579.59,-147.449"/>
<polygon fill="midnightblue" stroke="midnightblue" points="2583,-148.26 2582.46,-137.68 2576.29,-146.292 2583,-148.26"/>
</g>
<!-- Node43&#45;&gt;Node8 -->
<g id="edge172" class="edge"><title>Node43&#45;&gt;Node8</title>
<path fill="none" stroke="midnightblue" d="M2548.06,-232.401C2494.42,-216.633 2388.3,-187.419 2296,-174 2128.53,-149.651 1597.02,-132.566 1446.86,-128.136"/>
<polygon fill="midnightblue" stroke="midnightblue" points="1446.82,-124.633 1436.72,-127.839 1446.61,-131.63 1446.82,-124.633"/>
</g>
<!-- Node43&#45;&gt;Node18 -->
<g id="edge170" class="edge"><title>Node43&#45;&gt;Node18</title>
<path fill="none" stroke="midnightblue" d="M2555.59,-232.416C2493.39,-208.718 2336.39,-150.75 2201,-116 2062.69,-80.5009 2026.93,-73.6119 1885,-58 1641.47,-31.2134 856.206,-15.1344 673.32,-11.6965"/>
<polygon fill="midnightblue" stroke="midnightblue" points="673.18,-8.19336 663.116,-11.5061 673.049,-15.1921 673.18,-8.19336"/>
</g>
<!-- Node44 -->
<g id="node132" class="node"><title>Node44</title>
<a xlink:href="types_8h.html" target="_top" xlink:title="types.h">
<polygon fill="white" stroke="black" points="2238.5,-174.5 2238.5,-195.5 2287.5,-195.5 2287.5,-174.5 2238.5,-174.5"/>
<text text-anchor="middle" x="2263" y="-182.5" font-family="Helvetica,sans-Serif" font-size="10.00">types.h</text>
</a>
</g>
<!-- Node43&#45;&gt;Node44 -->
<g id="edge176" class="edge"><title>Node43&#45;&gt;Node44</title>
<path fill="none" stroke="midnightblue" d="M2542.93,-233.774C2539.92,-233.15 2536.91,-232.551 2534,-232 2431.04,-212.513 2403.31,-218.615 2301,-196 2299.93,-195.763 2298.84,-195.512 2297.74,-195.251"/>
<polygon fill="midnightblue" stroke="midnightblue" points="2298.38,-191.8 2287.82,-192.68 2296.62,-198.576 2298.38,-191.8"/>
</g>
<!-- Node45 -->
<g id="node134" class="node"><title>Node45</title>
<polygon fill="white" stroke="#bfbfbf" points="2583,-174.5 2583,-195.5 2623,-195.5 2623,-174.5 2583,-174.5"/>
<text text-anchor="middle" x="2603" y="-182.5" font-family="Helvetica,sans-Serif" font-size="10.00">limits</text>
</g>
<!-- Node43&#45;&gt;Node45 -->
<g id="edge178" class="edge"><title>Node43&#45;&gt;Node45</title>
<path fill="none" stroke="midnightblue" d="M2586.67,-232.362C2589.29,-224.758 2592.9,-214.294 2596.06,-205.135"/>
<polygon fill="midnightblue" stroke="midnightblue" points="2599.4,-206.165 2599.35,-195.571 2592.79,-203.883 2599.4,-206.165"/>
</g>
<!-- Node46&#45;&gt;Node9 -->
<g id="edge210" class="edge"><title>Node46&#45;&gt;Node9</title>
<path fill="none" stroke="midnightblue" d="M3042.66,-363.912C3142.06,-357.637 3423,-337.776 3455,-312 3480.28,-291.631 3479,-275.469 3479,-243 3479,-243 3479,-243 3479,-127 3479,-94.5312 3479.65,-79.1351 3455,-58 3421.51,-29.2809 3290.16,-17.0281 3229.73,-12.8312"/>
<polygon fill="midnightblue" stroke="midnightblue" points="3229.85,-9.33214 3219.64,-12.1605 3229.39,-16.3167 3229.85,-9.33214"/>
</g>
<!-- Node46&#45;&gt;Node32 -->
<g id="edge200" class="edge"><title>Node46&#45;&gt;Node32</title>
<path fill="none" stroke="midnightblue" d="M2973.19,-364.732C2774.86,-357.488 1791.65,-321.355 1657,-312 1643.68,-311.075 1629.49,-309.85 1615.86,-308.555"/>
<polygon fill="midnightblue" stroke="midnightblue" points="1615.86,-305.039 1605.57,-307.554 1615.18,-312.006 1615.86,-305.039"/>
</g>
<!-- Node46&#45;&gt;Node33 -->
<g id="edge208" class="edge"><title>Node46&#45;&gt;Node33</title>
<path fill="none" stroke="midnightblue" d="M2973.31,-364.815C2771.48,-357.89 1755.13,-322.601 1690,-312 1655.29,-306.35 1648.51,-296.74 1614,-290 1462.69,-260.45 1420.5,-282.535 1269,-254 1267.73,-253.76 1266.43,-253.499 1265.13,-253.222"/>
<polygon fill="midnightblue" stroke="midnightblue" points="1265.64,-249.747 1255.11,-250.841 1264.03,-256.557 1265.64,-249.747"/>
</g>
<!-- Node46&#45;&gt;Node41 -->
<g id="edge182" class="edge"><title>Node46&#45;&gt;Node41</title>
<path fill="none" stroke="midnightblue" d="M3042.81,-359.885C3110.07,-348.068 3257.86,-322.105 3332.69,-308.961"/>
<polygon fill="midnightblue" stroke="midnightblue" points="3333.5,-312.371 3342.74,-307.194 3332.29,-305.477 3333.5,-312.371"/>
</g>
<!-- Node47 -->
<g id="node139" class="node"><title>Node47</title>
<a xlink:href="root__draw_8h.html" target="_top" xlink:title="root_draw.h">
<polygon fill="white" stroke="black" points="2397,-290.5 2397,-311.5 2465,-311.5 2465,-290.5 2397,-290.5"/>
<text text-anchor="middle" x="2431" y="-298.5" font-family="Helvetica,sans-Serif" font-size="10.00">root_draw.h</text>
</a>
</g>
<!-- Node46&#45;&gt;Node47 -->
<g id="edge184" class="edge"><title>Node46&#45;&gt;Node47</title>
<path fill="none" stroke="midnightblue" d="M2973.39,-362.551C2892.54,-354.425 2685.03,-333.165 2512,-312 2500.12,-310.547 2487.29,-308.859 2475.41,-307.247"/>
<polygon fill="midnightblue" stroke="midnightblue" points="2475.65,-303.747 2465.26,-305.858 2474.7,-310.682 2475.65,-303.747"/>
</g>
<!-- Node49 -->
<g id="node150" class="node"><title>Node49</title>
<polygon fill="white" stroke="#bfbfbf" points="3054.5,-290.5 3054.5,-311.5 3105.5,-311.5 3105.5,-290.5 3054.5,-290.5"/>
<text text-anchor="middle" x="3080" y="-298.5" font-family="Helvetica,sans-Serif" font-size="10.00">TH1D.h</text>
</g>
<!-- Node46&#45;&gt;Node49 -->
<g id="edge202" class="edge"><title>Node46&#45;&gt;Node49</title>
<path fill="none" stroke="midnightblue" d="M3019.89,-355.267C3031,-345.233 3047.79,-330.078 3060.8,-318.331"/>
<polygon fill="midnightblue" stroke="midnightblue" points="3063.25,-320.833 3068.33,-311.534 3058.56,-315.637 3063.25,-320.833"/>
</g>
<!-- Node50 -->
<g id="node152" class="node"><title>Node50</title>
<polygon fill="white" stroke="#bfbfbf" points="3122.5,-290.5 3122.5,-311.5 3173.5,-311.5 3173.5,-290.5 3122.5,-290.5"/>
<text text-anchor="middle" x="3148" y="-298.5" font-family="Helvetica,sans-Serif" font-size="10.00">TH2D.h</text>
</g>
<!-- Node46&#45;&gt;Node50 -->
<g id="edge204" class="edge"><title>Node46&#45;&gt;Node50</title>
<path fill="none" stroke="midnightblue" d="M3030.81,-355.412C3053.99,-344.647 3090.11,-327.878 3116.12,-315.801"/>
<polygon fill="midnightblue" stroke="midnightblue" points="3117.61,-318.969 3125.2,-311.584 3114.66,-312.62 3117.61,-318.969"/>
</g>
<!-- Node51 -->
<g id="node154" class="node"><title>Node51</title>
<polygon fill="white" stroke="#bfbfbf" points="2910.5,-290.5 2910.5,-311.5 2961.5,-311.5 2961.5,-290.5 2910.5,-290.5"/>
<text text-anchor="middle" x="2936" y="-298.5" font-family="Helvetica,sans-Serif" font-size="10.00">TH3D.h</text>
</g>
<!-- Node46&#45;&gt;Node51 -->
<g id="edge206" class="edge"><title>Node46&#45;&gt;Node51</title>
<path fill="none" stroke="midnightblue" d="M2996.11,-355.267C2985,-345.233 2968.21,-330.078 2955.2,-318.331"/>
<polygon fill="midnightblue" stroke="midnightblue" points="2957.44,-315.637 2947.67,-311.534 2952.75,-320.833 2957.44,-315.637"/>
</g>
<!-- Node52 -->
<g id="node158" class="node"><title>Node52</title>
<polygon fill="white" stroke="#bfbfbf" points="2287,-290.5 2287,-311.5 2341,-311.5 2341,-290.5 2287,-290.5"/>
<text text-anchor="middle" x="2314" y="-298.5" font-family="Helvetica,sans-Serif" font-size="10.00">iostream</text>
</g>
<!-- Node46&#45;&gt;Node52 -->
<g id="edge212" class="edge"><title>Node46&#45;&gt;Node52</title>
<path fill="none" stroke="midnightblue" d="M2973.31,-363.72C2879.05,-357.366 2610.39,-338.189 2388,-312 2375.93,-310.578 2362.79,-308.726 2350.99,-306.948"/>
<polygon fill="midnightblue" stroke="midnightblue" points="2351.43,-303.475 2341.01,-305.417 2350.36,-310.394 2351.43,-303.475"/>
</g>
<!-- Node53 -->
<g id="node160" class="node"><title>Node53</title>
<polygon fill="white" stroke="#bfbfbf" points="2978.5,-290.5 2978.5,-311.5 3037.5,-311.5 3037.5,-290.5 2978.5,-290.5"/>
<text text-anchor="middle" x="3008" y="-298.5" font-family="Helvetica,sans-Serif" font-size="10.00">exception</text>
</g>
<!-- Node46&#45;&gt;Node53 -->
<g id="edge214" class="edge"><title>Node46&#45;&gt;Node53</title>
<path fill="none" stroke="midnightblue" d="M3008,-355.267C3008,-346.18 3008,-332.892 3008,-321.74"/>
<polygon fill="midnightblue" stroke="midnightblue" points="3011.5,-321.534 3008,-311.534 3004.5,-321.534 3011.5,-321.534"/>
</g>
<!-- Node47&#45;&gt;Node4 -->
<g id="edge190" class="edge"><title>Node47&#45;&gt;Node4</title>
<path fill="none" stroke="midnightblue" d="M2422.25,-290.377C2402.17,-266.598 2350.34,-208.476 2296,-174 2236.69,-136.375 2216.75,-134.524 2149,-116 2055.44,-90.4178 1941.13,-77.129 1886.32,-71.8255"/>
<polygon fill="midnightblue" stroke="midnightblue" points="1886.47,-68.3234 1876.18,-70.87 1885.81,-75.2925 1886.47,-68.3234"/>
</g>
<!-- Node47&#45;&gt;Node9 -->
<g id="edge186" class="edge"><title>Node47&#45;&gt;Node9</title>
<path fill="none" stroke="midnightblue" d="M2465.31,-295.791C2522.83,-286.821 2636.14,-268.067 2674,-254 2838.22,-192.985 2853.69,-123.941 3016,-58 3067.58,-37.0426 3131.22,-23.2137 3168.24,-16.274"/>
<polygon fill="midnightblue" stroke="midnightblue" points="3169.18,-19.6601 3178.39,-14.42 3167.93,-12.774 3169.18,-19.6601"/>
</g>
<!-- Node47&#45;&gt;Node14 -->
<g id="edge198" class="edge"><title>Node47&#45;&gt;Node14</title>
<path fill="none" stroke="midnightblue" d="M2396.79,-295.599C2382.38,-293.52 2365.41,-291.329 2350,-290 1919.3,-252.869 1807.5,-303.102 1378,-254 1326.73,-248.139 1315.11,-239.097 1264,-232 1171,-219.086 920.848,-248.501 843,-196 826.532,-184.894 817.411,-163.596 812.644,-147.586"/>
<polygon fill="midnightblue" stroke="midnightblue" points="815.93,-146.318 810.002,-137.537 809.16,-148.098 815.93,-146.318"/>
</g>
<!-- Node47&#45;&gt;Node33 -->
<g id="edge194" class="edge"><title>Node47&#45;&gt;Node33</title>
<path fill="none" stroke="midnightblue" d="M2396.8,-295.57C2382.39,-293.487 2365.41,-291.3 2350,-290 1870.99,-249.604 1744.25,-326.23 1269,-254 1267.72,-253.805 1266.42,-253.583 1265.11,-253.339"/>
<polygon fill="midnightblue" stroke="midnightblue" points="1265.58,-249.859 1255.06,-251.112 1264.07,-256.693 1265.58,-249.859"/>
</g>
<!-- Node47&#45;&gt;Node34 -->
<g id="edge188" class="edge"><title>Node47&#45;&gt;Node34</title>
<path fill="none" stroke="midnightblue" d="M2401.81,-290.446C2356.52,-274.597 2266.26,-245.115 2187,-232 1888.59,-182.626 1798.24,-269.513 1501.51,-195.568"/>
<polygon fill="midnightblue" stroke="midnightblue" points="1502.33,-192.164 1491.77,-193.102 1500.61,-198.95 1502.33,-192.164"/>
</g>
<!-- Node47&#45;&gt;Node37 -->
<g id="edge192" class="edge"><title>Node47&#45;&gt;Node37</title>
<path fill="none" stroke="midnightblue" d="M2465.26,-296.129C2479.68,-294.136 2496.64,-291.865 2512,-290 2661.09,-271.893 2698.67,-270.052 2848,-254 2873.07,-251.305 2901.6,-248.227 2922.1,-246.014"/>
<polygon fill="midnightblue" stroke="midnightblue" points="2922.74,-249.465 2932.31,-244.911 2921.99,-242.505 2922.74,-249.465"/>
</g>
<!-- Node47&#45;&gt;Node48 -->
<g id="edge196" class="edge"><title>Node47&#45;&gt;Node48</title>
<path fill="none" stroke="midnightblue" d="M2442.92,-290.362C2452.36,-281.941 2465.73,-270.011 2476.69,-260.231"/>
<polygon fill="midnightblue" stroke="midnightblue" points="2479.02,-262.84 2484.15,-253.571 2474.36,-257.617 2479.02,-262.84"/>
</g>
<!-- Node54&#45;&gt;Node3 -->
<g id="edge244" class="edge"><title>Node54&#45;&gt;Node3</title>
<path fill="none" stroke="midnightblue" d="M2230.54,-360.211C2268.68,-356.562 2319.24,-351.831 2364,-348 2569.21,-330.437 2627.8,-367.993 2826,-312 2846.66,-306.164 2849.22,-298.335 2869,-290 2915.24,-270.52 2946.72,-294.745 2976,-254 3017.6,-196.115 2755.6,-151.094 2639.43,-134.219"/>
<polygon fill="midnightblue" stroke="midnightblue" points="2639.71,-130.725 2629.32,-132.769 2638.72,-137.654 2639.71,-130.725"/>
</g>
<!-- Node54&#45;&gt;Node4 -->
<g id="edge272" class="edge"><title>Node54&#45;&gt;Node4</title>
<path fill="none" stroke="midnightblue" d="M2169.29,-355.179C2164.86,-330.362 2150.79,-268.665 2116,-232 2046.92,-159.202 1938.64,-105.66 1885.52,-82.1761"/>
<polygon fill="midnightblue" stroke="midnightblue" points="1886.83,-78.93 1876.27,-78.1431 1884.04,-85.347 1886.83,-78.93"/>
</g>
<!-- Node54&#45;&gt;Node33 -->
<g id="edge278" class="edge"><title>Node54&#45;&gt;Node33</title>
<path fill="none" stroke="midnightblue" d="M2111.5,-364.363C1966.18,-359.886 1596.45,-345.465 1478,-312 1457.34,-306.164 1455.22,-297.224 1435,-290 1363.91,-264.594 1342.31,-272.015 1269,-254 1267.74,-253.691 1266.46,-253.37 1265.17,-253.042"/>
<polygon fill="midnightblue" stroke="midnightblue" points="1265.76,-249.578 1255.2,-250.425 1263.98,-256.349 1265.76,-249.578"/>
</g>
<!-- Node54&#45;&gt;Node34 -->
<g id="edge274" class="edge"><title>Node54&#45;&gt;Node34</title>
<path fill="none" stroke="midnightblue" d="M2142.41,-355.484C2115.54,-345.305 2074.42,-328.964 2040,-312 2022.5,-303.373 2020.4,-296.515 2002,-290 1904.88,-255.606 1874.31,-272.712 1773,-254 1654.24,-232.065 1619.27,-235.711 1501.62,-196.061"/>
<polygon fill="midnightblue" stroke="midnightblue" points="1502.47,-192.653 1491.88,-192.743 1500.22,-199.279 1502.47,-192.653"/>
</g>
<!-- Node54&#45;&gt;Node44 -->
<g id="edge246" class="edge"><title>Node54&#45;&gt;Node44</title>
<path fill="none" stroke="midnightblue" d="M2176.34,-355.486C2191.27,-326.12 2233.58,-242.879 2253.02,-204.644"/>
<polygon fill="midnightblue" stroke="midnightblue" points="2256.23,-206.043 2257.64,-195.543 2249.99,-202.871 2256.23,-206.043"/>
</g>
<!-- Node54&#45;&gt;Node52 -->
<g id="edge276" class="edge"><title>Node54&#45;&gt;Node52</title>
<path fill="none" stroke="midnightblue" d="M2194.29,-355.412C2217.98,-344.647 2254.87,-327.878 2281.44,-315.801"/>
<polygon fill="midnightblue" stroke="midnightblue" points="2283.06,-318.908 2290.72,-311.584 2280.16,-312.535 2283.06,-318.908"/>
</g>
<!-- Node55 -->
<g id="node164" class="node"><title>Node55</title>
<a xlink:href="_candidate_8h.html" target="_top" xlink:title="analysis/data/Candidate.h">
<polygon fill="white" stroke="black" points="1863,-290.5 1863,-311.5 1993,-311.5 1993,-290.5 1863,-290.5"/>
<text text-anchor="middle" x="1928" y="-298.5" font-family="Helvetica,sans-Serif" font-size="10.00">analysis/data/Candidate.h</text>
</a>
</g>
<!-- Node54&#45;&gt;Node55 -->
<g id="edge218" class="edge"><title>Node54&#45;&gt;Node55</title>
<path fill="none" stroke="midnightblue" d="M2131.69,-355.484C2089.51,-344.204 2022.47,-326.27 1976.92,-314.085"/>
<polygon fill="midnightblue" stroke="midnightblue" points="1977.82,-310.703 1967.26,-311.501 1976.01,-317.466 1977.82,-310.703"/>
</g>
<!-- Node58 -->
<g id="node182" class="node"><title>Node58</title>
<a xlink:href="_particle_type_8h.html" target="_top" xlink:title="base/ParticleType.h">
<polygon fill="white" stroke="black" points="2521,-290.5 2521,-311.5 2625,-311.5 2625,-290.5 2521,-290.5"/>
<text text-anchor="middle" x="2573" y="-298.5" font-family="Helvetica,sans-Serif" font-size="10.00">base/ParticleType.h</text>
</a>
</g>
<!-- Node54&#45;&gt;Node58 -->
<g id="edge248" class="edge"><title>Node54&#45;&gt;Node58</title>
<path fill="none" stroke="midnightblue" d="M2230.75,-356.339C2306,-344.172 2434.66,-323.368 2510.97,-311.029"/>
<polygon fill="midnightblue" stroke="midnightblue" points="2511.61,-314.471 2520.93,-309.42 2510.5,-307.561 2511.61,-314.471"/>
</g>
<!-- Node60 -->
<g id="node191" class="node"><title>Node60</title>
<a xlink:href="_tree_8h.html" target="_top" xlink:title="base/Tree.h">
<polygon fill="white" stroke="black" points="1287,-290.5 1287,-311.5 1355,-311.5 1355,-290.5 1287,-290.5"/>
<text text-anchor="middle" x="1321" y="-298.5" font-family="Helvetica,sans-Serif" font-size="10.00">base/Tree.h</text>
</a>
</g>
<!-- Node54&#45;&gt;Node60 -->
<g id="edge262" class="edge"><title>Node54&#45;&gt;Node60</title>
<path fill="none" stroke="midnightblue" d="M2111.22,-361.843C1987.06,-353.145 1692.22,-332.158 1445,-312 1418.54,-309.843 1388.93,-307.223 1365.28,-305.082"/>
<polygon fill="midnightblue" stroke="midnightblue" points="1365.48,-301.586 1355.2,-304.166 1364.84,-308.557 1365.48,-301.586"/>
</g>
<!-- Node61 -->
<g id="node196" class="node"><title>Node61</title>
<polygon fill="white" stroke="#bfbfbf" points="2015,-232.5 2015,-253.5 2107,-253.5 2107,-232.5 2015,-232.5"/>
<text text-anchor="middle" x="2061" y="-240.5" font-family="Helvetica,sans-Serif" font-size="10.00">TLorentzVector.h</text>
</g>
<!-- Node54&#45;&gt;Node61 -->
<g id="edge270" class="edge"><title>Node54&#45;&gt;Node61</title>
<path fill="none" stroke="midnightblue" d="M2166.38,-355.273C2159.29,-339.679 2144.6,-310.389 2126,-290 2115.12,-278.08 2100.78,-267.322 2088.33,-259.115"/>
<polygon fill="midnightblue" stroke="midnightblue" points="2089.99,-256.026 2079.68,-253.611 2086.23,-261.932 2089.99,-256.026"/>
</g>
<!-- Node55&#45;&gt;Node2 -->
<g id="edge224" class="edge"><title>Node55&#45;&gt;Node2</title>
<path fill="none" stroke="midnightblue" d="M1862.8,-296.152C1722.12,-285.591 1400.88,-260.906 1378,-254 1372.75,-252.416 1315.3,-220.472 1279.81,-200.61"/>
<polygon fill="midnightblue" stroke="midnightblue" points="1281.31,-197.438 1270.88,-195.605 1277.89,-203.546 1281.31,-197.438"/>
</g>
<!-- Node55&#45;&gt;Node3 -->
<g id="edge220" class="edge"><title>Node55&#45;&gt;Node3</title>
<path fill="none" stroke="midnightblue" d="M1993.11,-294.193C2008.48,-292.7 2024.81,-291.208 2040,-290 2105.69,-284.778 2586.84,-301.991 2632,-254 2656.37,-228.107 2645.43,-206.922 2632,-174 2627.31,-162.507 2618.31,-152.299 2609.5,-144.357"/>
<polygon fill="midnightblue" stroke="midnightblue" points="2611.51,-141.473 2601.6,-137.729 2607.01,-146.837 2611.51,-141.473"/>
</g>
<!-- Node55&#45;&gt;Node4 -->
<g id="edge242" class="edge"><title>Node55&#45;&gt;Node4</title>
<path fill="none" stroke="midnightblue" d="M1924.63,-290.429C1913.19,-254.573 1875.74,-137.169 1860.52,-89.4458"/>
<polygon fill="midnightblue" stroke="midnightblue" points="1863.77,-88.097 1857.39,-79.6335 1857.1,-90.2242 1863.77,-88.097"/>
</g>
<!-- Node55&#45;&gt;Node5 -->
<g id="edge238" class="edge"><title>Node55&#45;&gt;Node5</title>
<path fill="none" stroke="midnightblue" d="M1993.11,-294.171C2008.47,-292.679 2024.81,-291.192 2040,-290 2107.91,-284.67 2602.3,-300.577 2652,-254 2697.35,-211.499 2687.61,-128.655 2679.9,-89.9132"/>
<polygon fill="midnightblue" stroke="midnightblue" points="2683.26,-88.8547 2677.74,-79.8107 2676.41,-90.3223 2683.26,-88.8547"/>
</g>
<!-- Node55&#45;&gt;Node6 -->
<g id="edge236" class="edge"><title>Node55&#45;&gt;Node6</title>
<path fill="none" stroke="midnightblue" d="M1862.79,-296.102C1711.35,-284.692 1347.7,-257.071 1335,-254 1318.73,-250.068 1206.71,-208.856 1196,-196 1184.87,-182.642 1181.47,-162.904 1180.65,-147.956"/>
<polygon fill="midnightblue" stroke="midnightblue" points="1184.14,-147.572 1180.44,-137.645 1177.14,-147.714 1184.14,-147.572"/>
</g>
<!-- Node55&#45;&gt;Node33 -->
<g id="edge240" class="edge"><title>Node55&#45;&gt;Node33</title>
<path fill="none" stroke="midnightblue" d="M1862.66,-296.171C1836.36,-294.237 1805.74,-291.998 1778,-290 1551.8,-273.707 1492.54,-292.254 1269,-254 1267.72,-253.781 1266.43,-253.539 1265.12,-253.277"/>
<polygon fill="midnightblue" stroke="midnightblue" points="1265.61,-249.799 1255.08,-250.969 1264.04,-256.621 1265.61,-249.799"/>
</g>
<!-- Node55&#45;&gt;Node44 -->
<g id="edge222" class="edge"><title>Node55&#45;&gt;Node44</title>
<path fill="none" stroke="midnightblue" d="M1935.15,-290.347C1946.21,-274.784 1969.05,-246.151 1996,-232 2035.89,-211.059 2165.41,-195.156 2228.22,-188.465"/>
<polygon fill="midnightblue" stroke="midnightblue" points="2228.84,-191.92 2238.42,-187.398 2228.11,-184.958 2228.84,-191.92"/>
</g>
<!-- Node56 -->
<g id="node169" class="node"><title>Node56</title>
<a xlink:href="_cluster_8h.html" target="_top" xlink:title="analysis/data/Cluster.h">
<polygon fill="white" stroke="black" points="1386.5,-232.5 1386.5,-253.5 1503.5,-253.5 1503.5,-232.5 1386.5,-232.5"/>
<text text-anchor="middle" x="1445" y="-240.5" font-family="Helvetica,sans-Serif" font-size="10.00">analysis/data/Cluster.h</text>
</a>
</g>
<!-- Node55&#45;&gt;Node56 -->
<g id="edge226" class="edge"><title>Node55&#45;&gt;Node56</title>
<path fill="none" stroke="midnightblue" d="M1862.86,-293.178C1771.77,-282.24 1607.09,-262.464 1513.98,-251.284"/>
<polygon fill="midnightblue" stroke="midnightblue" points="1514.17,-247.781 1503.82,-250.063 1513.33,-254.731 1514.17,-247.781"/>
</g>
<!-- Node56&#45;&gt;Node2 -->
<g id="edge228" class="edge"><title>Node56&#45;&gt;Node2</title>
<path fill="none" stroke="midnightblue" d="M1410.05,-232.497C1378.31,-222.959 1331.33,-208.841 1296.84,-198.475"/>
<polygon fill="midnightblue" stroke="midnightblue" points="1297.6,-195.049 1287.02,-195.523 1295.59,-201.753 1297.6,-195.049"/>
</g>
<!-- Node56&#45;&gt;Node6 -->
<g id="edge232" class="edge"><title>Node56&#45;&gt;Node6</title>
<path fill="none" stroke="midnightblue" d="M1421.13,-232.33C1400.91,-223.134 1371.26,-209.28 1346,-196 1328.73,-186.919 1325.66,-182.306 1308,-174 1280.49,-161.059 1248.36,-149.198 1223.3,-140.629"/>
<polygon fill="midnightblue" stroke="midnightblue" points="1224.32,-137.278 1213.72,-137.395 1222.08,-143.91 1224.32,-137.278"/>
</g>
<!-- Node56&#45;&gt;Node34 -->
<g id="edge230" class="edge"><title>Node56&#45;&gt;Node34</title>
<path fill="none" stroke="midnightblue" d="M1450.87,-232.362C1455.15,-224.595 1461.09,-213.843 1466.22,-204.546"/>
<polygon fill="midnightblue" stroke="midnightblue" points="1469.4,-206.017 1471.17,-195.571 1463.27,-202.636 1469.4,-206.017"/>
</g>
<!-- Node57 -->
<g id="node174" class="node"><title>Node57</title>
<a xlink:href="enumfield_8h.html" target="_top" xlink:title="base/enumfield.h">
<polygon fill="white" stroke="black" points="1354.5,-174.5 1354.5,-195.5 1445.5,-195.5 1445.5,-174.5 1354.5,-174.5"/>
<text text-anchor="middle" x="1400" y="-182.5" font-family="Helvetica,sans-Serif" font-size="10.00">base/enumfield.h</text>
</a>
</g>
<!-- Node56&#45;&gt;Node57 -->
<g id="edge234" class="edge"><title>Node56&#45;&gt;Node57</title>
<path fill="none" stroke="midnightblue" d="M1436.75,-232.362C1430.53,-224.35 1421.85,-213.161 1414.49,-203.67"/>
<polygon fill="midnightblue" stroke="midnightblue" points="1417.1,-201.326 1408.2,-195.571 1411.57,-205.617 1417.1,-201.326"/>
</g>
<!-- Node58&#45;&gt;Node4 -->
<g id="edge260" class="edge"><title>Node58&#45;&gt;Node4</title>
<path fill="none" stroke="midnightblue" d="M2605.74,-290.472C2622.77,-283.139 2642.06,-271.48 2652,-254 2682.47,-200.411 2684.62,-156.34 2638,-116 2609.14,-91.0264 2030.96,-73.7828 1886.5,-69.8528"/>
<polygon fill="midnightblue" stroke="midnightblue" points="1886.2,-66.3436 1876.1,-69.5729 1886.01,-73.3411 1886.2,-66.3436"/>
</g>
<!-- Node58&#45;&gt;Node5 -->
<g id="edge254" class="edge"><title>Node58&#45;&gt;Node5</title>
<path fill="none" stroke="midnightblue" d="M2625.03,-291.411C2627.72,-290.93 2630.39,-290.457 2633,-290 2680.71,-281.632 2816.7,-290.975 2848,-254 2885.04,-210.237 2909.27,-232.422 2779,-116 2759.53,-98.5966 2732.53,-86.6546 2710.93,-79.1638"/>
<polygon fill="midnightblue" stroke="midnightblue" points="2712.02,-75.8385 2701.43,-76.0317 2709.83,-82.4866 2712.02,-75.8385"/>
</g>
<!-- Node58&#45;&gt;Node9 -->
<g id="edge252" class="edge"><title>Node58&#45;&gt;Node9</title>
<path fill="none" stroke="midnightblue" d="M2625.02,-291.359C2627.71,-290.892 2630.39,-290.436 2633,-290 2738.95,-272.312 2777.37,-304.829 2872,-254 2975.4,-198.461 2950.18,-121.336 3049,-58 3086.16,-34.1855 3136.23,-21.703 3168.07,-15.7387"/>
<polygon fill="midnightblue" stroke="midnightblue" points="3168.89,-19.1485 3178.12,-13.959 3167.67,-12.2557 3168.89,-19.1485"/>
</g>
<!-- Node58&#45;&gt;Node37 -->
<g id="edge256" class="edge"><title>Node58&#45;&gt;Node37</title>
<path fill="none" stroke="midnightblue" d="M2625.21,-292.114C2629.87,-291.377 2634.52,-290.661 2639,-290 2763.12,-271.683 2796.96,-283.144 2919,-254 2920.25,-253.702 2921.52,-253.371 2922.8,-253.015"/>
<polygon fill="midnightblue" stroke="midnightblue" points="2924.01,-256.3 2932.49,-249.944 2921.9,-249.627 2924.01,-256.3"/>
</g>
<!-- Node58&#45;&gt;Node44 -->
<g id="edge250" class="edge"><title>Node58&#45;&gt;Node44</title>
<path fill="none" stroke="midnightblue" d="M2544.67,-290.398C2487.61,-269.047 2359.05,-220.942 2297.33,-197.848"/>
<polygon fill="midnightblue" stroke="midnightblue" points="2298.26,-194.459 2287.67,-194.232 2295.81,-201.015 2298.26,-194.459"/>
</g>
<!-- Node59 -->
<g id="node188" class="node"><title>Node59</title>
<polygon fill="white" stroke="#bfbfbf" points="2792.5,-232.5 2792.5,-253.5 2839.5,-253.5 2839.5,-232.5 2792.5,-232.5"/>
<text text-anchor="middle" x="2816" y="-240.5" font-family="Helvetica,sans-Serif" font-size="10.00">iterator</text>
</g>
<!-- Node58&#45;&gt;Node59 -->
<g id="edge258" class="edge"><title>Node58&#45;&gt;Node59</title>
<path fill="none" stroke="midnightblue" d="M2623.59,-290.412C2665.43,-281.428 2726.31,-267.828 2779,-254 2780.07,-253.719 2781.15,-253.429 2782.25,-253.132"/>
<polygon fill="midnightblue" stroke="midnightblue" points="2783.51,-256.414 2792.18,-250.328 2781.6,-249.677 2783.51,-256.414"/>
</g>
<!-- Node60&#45;&gt;Node18 -->
<g id="edge268" class="edge"><title>Node60&#45;&gt;Node18</title>
<path fill="none" stroke="midnightblue" d="M1286.69,-297.133C1154.34,-281.704 678.217,-221.326 554,-138 520.987,-115.855 491.549,-90.8056 514,-58 523.762,-43.7356 565.271,-29.6904 596.975,-20.7234"/>
<polygon fill="midnightblue" stroke="midnightblue" points="598.16,-24.0273 606.871,-17.9966 596.301,-17.2788 598.16,-24.0273"/>
</g>
<!-- Node60&#45;&gt;Node33 -->
<g id="edge264" class="edge"><title>Node60&#45;&gt;Node33</title>
<path fill="none" stroke="midnightblue" d="M1304.13,-290.362C1290.25,-281.614 1270.37,-269.079 1254.54,-259.101"/>
<polygon fill="midnightblue" stroke="midnightblue" points="1256.09,-255.943 1245.77,-253.571 1252.36,-261.864 1256.09,-255.943"/>
</g>
<!-- Node60&#45;&gt;Node34 -->
<g id="edge266" class="edge"><title>Node60&#45;&gt;Node34</title>
<path fill="none" stroke="midnightblue" d="M1286.92,-293.045C1253.14,-284.389 1204.91,-269.677 1194,-254 1188.41,-245.975 1187.58,-239.373 1194,-232 1230.44,-190.165 1382.25,-210.528 1452.09,-195.511"/>
<polygon fill="midnightblue" stroke="midnightblue" points="1453.37,-198.797 1462.17,-192.906 1451.61,-192.02 1453.37,-198.797"/>
</g>
<!-- Node62&#45;&gt;Node3 -->
<g id="edge314" class="edge"><title>Node62&#45;&gt;Node3</title>
<path fill="none" stroke="midnightblue" d="M2138.77,-436.333C2331.65,-430.368 2963.42,-409.101 3051,-384 3114.87,-365.695 3148.18,-369.183 3182,-312 3240.26,-213.493 2796.44,-151.577 2639.56,-132.948"/>
<polygon fill="midnightblue" stroke="midnightblue" points="2639.55,-129.423 2629.21,-131.732 2638.74,-136.375 2639.55,-129.423"/>
</g>
<!-- Node62&#45;&gt;Node4 -->
<g id="edge318" class="edge"><title>Node62&#45;&gt;Node4</title>
<path fill="none" stroke="midnightblue" d="M2027.34,-431.883C1954.23,-420.408 1835,-388.309 1835,-301 1835,-301 1835,-301 1835,-185 1835,-151.175 1842.96,-112.523 1848.58,-89.474"/>
<polygon fill="midnightblue" stroke="midnightblue" points="1851.97,-90.3312 1851.03,-79.7784 1845.19,-88.6159 1851.97,-90.3312"/>
</g>
<!-- Node62&#45;&gt;Node33 -->
<g id="edge320" class="edge"><title>Node62&#45;&gt;Node33</title>
<path fill="none" stroke="midnightblue" d="M2027.47,-429.123C1964.8,-418.941 1859.87,-401.402 1770,-384 1620.49,-355.048 1577.08,-366.821 1435,-312 1416.79,-304.975 1414.98,-297.578 1397,-290 1393.89,-288.689 1313.6,-266.401 1265.16,-252.995"/>
<polygon fill="midnightblue" stroke="midnightblue" points="1265.92,-249.573 1255.35,-250.28 1264.05,-256.32 1265.92,-249.573"/>
</g>
<!-- Node62&#45;&gt;Node37 -->
<g id="edge322" class="edge"><title>Node62&#45;&gt;Node37</title>
<path fill="none" stroke="midnightblue" d="M2138.73,-436C2276.4,-430.617 2624.49,-414.155 2667,-384 2704.47,-357.419 2673.6,-318.028 2710,-290 2784.68,-232.495 2827.81,-277.847 2919,-254 2920.24,-253.675 2921.51,-253.322 2922.78,-252.949"/>
<polygon fill="midnightblue" stroke="midnightblue" points="2924.02,-256.224 2932.46,-249.81 2921.87,-249.566 2924.02,-256.224"/>
</g>
<!-- Node62&#45;&gt;Node44 -->
<g id="edge312" class="edge"><title>Node62&#45;&gt;Node44</title>
<path fill="none" stroke="midnightblue" d="M2130.17,-427.489C2170.81,-417.437 2225.05,-401.288 2239,-384 2281.25,-331.626 2273.37,-244.835 2266.98,-205.502"/>
<polygon fill="midnightblue" stroke="midnightblue" points="2270.4,-204.767 2265.22,-195.526 2263.51,-205.982 2270.4,-204.767"/>
</g>
<!-- Node62&#45;&gt;Node54 -->
<g id="edge284" class="edge"><title>Node62&#45;&gt;Node54</title>
<path fill="none" stroke="midnightblue" d="M2095.98,-427.376C2110.15,-415.784 2133.05,-397.05 2149.83,-383.324"/>
<polygon fill="midnightblue" stroke="midnightblue" points="2152.44,-385.709 2157.96,-376.667 2148.01,-380.291 2152.44,-385.709"/>
</g>
<!-- Node62&#45;&gt;Node55 -->
<g id="edge286" class="edge"><title>Node62&#45;&gt;Node55</title>
<path fill="none" stroke="midnightblue" d="M2071.09,-427.477C2044.56,-404.026 1980.35,-347.274 1947.73,-318.439"/>
<polygon fill="midnightblue" stroke="midnightblue" points="1949.97,-315.748 1940.16,-311.747 1945.33,-320.993 1949.97,-315.748"/>
</g>
<!-- Node62&#45;&gt;Node60 -->
<g id="edge316" class="edge"><title>Node62&#45;&gt;Node60</title>
<path fill="none" stroke="midnightblue" d="M2027.32,-435.707C1875.68,-429.159 1462.91,-409.215 1407,-384 1376,-370.018 1349.44,-339.919 1334.35,-320.07"/>
<polygon fill="midnightblue" stroke="midnightblue" points="1336.99,-317.751 1328.24,-311.767 1331.35,-321.897 1336.99,-317.751"/>
</g>
<!-- Node63 -->
<g id="node207" class="node"><title>Node63</title>
<a xlink:href="_tagger_hit_8h.html" target="_top" xlink:title="TaggerHit.h">
<polygon fill="white" stroke="black" points="2049,-290.5 2049,-311.5 2117,-311.5 2117,-290.5 2049,-290.5"/>
<text text-anchor="middle" x="2083" y="-298.5" font-family="Helvetica,sans-Serif" font-size="10.00">TaggerHit.h</text>
</a>
</g>
<!-- Node62&#45;&gt;Node63 -->
<g id="edge288" class="edge"><title>Node62&#45;&gt;Node63</title>
<path fill="none" stroke="midnightblue" d="M2083,-427.25C2083,-404.541 2083,-351.348 2083,-321.768"/>
<polygon fill="midnightblue" stroke="midnightblue" points="2086.5,-321.7 2083,-311.7 2079.5,-321.7 2086.5,-321.7"/>
</g>
<!-- Node64 -->
<g id="node214" class="node"><title>Node64</title>
<a xlink:href="_trigger_info_8h.html" target="_top" xlink:title="TriggerInfo.h">
<polygon fill="white" stroke="black" points="1698.5,-290.5 1698.5,-311.5 1769.5,-311.5 1769.5,-290.5 1698.5,-290.5"/>
<text text-anchor="middle" x="1734" y="-298.5" font-family="Helvetica,sans-Serif" font-size="10.00">TriggerInfo.h</text>
</a>
</g>
<!-- Node62&#45;&gt;Node64 -->
<g id="edge300" class="edge"><title>Node62&#45;&gt;Node64</title>
<path fill="none" stroke="midnightblue" d="M2027.45,-430.231C1961.56,-420.383 1856.23,-402.454 1821,-384 1790.85,-368.207 1763.82,-338.867 1748.16,-319.64"/>
<polygon fill="midnightblue" stroke="midnightblue" points="1750.75,-317.269 1741.8,-311.603 1745.26,-321.615 1750.75,-317.269"/>
</g>
<!-- Node63&#45;&gt;Node3 -->
<g id="edge296" class="edge"><title>Node63&#45;&gt;Node3</title>
<path fill="none" stroke="midnightblue" d="M2115.49,-290.438C2144.31,-281.023 2187.52,-266.793 2225,-254 2342.52,-213.884 2480.87,-164.648 2546.99,-140.994"/>
<polygon fill="midnightblue" stroke="midnightblue" points="2548.35,-144.223 2556.58,-137.558 2545.99,-137.632 2548.35,-144.223"/>
</g>
<!-- Node63&#45;&gt;Node33 -->
<g id="edge292" class="edge"><title>Node63&#45;&gt;Node33</title>
<path fill="none" stroke="midnightblue" d="M2048.79,-295.691C2034.37,-293.627 2017.4,-291.422 2002,-290 1677.21,-260.026 1591.07,-305.553 1269,-254 1267.72,-253.795 1266.42,-253.565 1265.12,-253.313"/>
<polygon fill="midnightblue" stroke="midnightblue" points="1265.59,-249.833 1255.07,-251.052 1264.06,-256.663 1265.59,-249.833"/>
</g>
<!-- Node63&#45;&gt;Node34 -->
<g id="edge290" class="edge"><title>Node63&#45;&gt;Node34</title>
<path fill="none" stroke="midnightblue" d="M2048.92,-293.157C2044.24,-292.091 2039.5,-291.015 2035,-290 1918.65,-263.791 1890.45,-252.704 1773,-232 1655.65,-211.314 1619.24,-229.803 1501.57,-195.8"/>
<polygon fill="midnightblue" stroke="midnightblue" points="1502.41,-192.399 1491.82,-192.921 1500.42,-199.112 1502.41,-192.399"/>
</g>
<!-- Node63&#45;&gt;Node44 -->
<g id="edge294" class="edge"><title>Node63&#45;&gt;Node44</title>
<path fill="none" stroke="midnightblue" d="M2055.37,-290.47C2026.12,-277.774 1986.63,-255.231 2006,-232 2033.87,-198.573 2164.37,-188.85 2227.97,-186.077"/>
<polygon fill="midnightblue" stroke="midnightblue" points="2228.45,-189.561 2238.31,-185.662 2228.17,-182.566 2228.45,-189.561"/>
</g>
<!-- Node63&#45;&gt;Node61 -->
<g id="edge298" class="edge"><title>Node63&#45;&gt;Node61</title>
<path fill="none" stroke="midnightblue" d="M2078.96,-290.362C2076.08,-282.758 2072.11,-272.294 2068.64,-263.135"/>
<polygon fill="midnightblue" stroke="midnightblue" points="2071.83,-261.679 2065.01,-253.571 2065.28,-264.162 2071.83,-261.679"/>
</g>
<!-- Node64&#45;&gt;Node3 -->
<g id="edge304" class="edge"><title>Node64&#45;&gt;Node3</title>
<path fill="none" stroke="midnightblue" d="M1769.64,-297.611C1858.31,-289.037 2084.04,-266.293 2116,-254 2173.77,-231.781 2172.33,-196.474 2230,-174 2284,-152.955 2447.37,-137.686 2532.74,-130.905"/>
<polygon fill="midnightblue" stroke="midnightblue" points="2533.06,-134.391 2542.75,-130.12 2532.51,-127.413 2533.06,-134.391"/>
</g>
<!-- Node64&#45;&gt;Node12 -->
<g id="edge306" class="edge"><title>Node64&#45;&gt;Node12</title>
<path fill="none" stroke="midnightblue" d="M1698.33,-297.271C1674.48,-294.89 1642.39,-291.905 1614,-290 1209.74,-262.875 721.017,-248.499 562.974,-244.313"/>
<polygon fill="midnightblue" stroke="midnightblue" points="562.698,-240.805 552.609,-244.041 562.514,-247.802 562.698,-240.805"/>
</g>
<!-- Node64&#45;&gt;Node33 -->
<g id="edge310" class="edge"><title>Node64&#45;&gt;Node33</title>
<path fill="none" stroke="midnightblue" d="M1698.25,-292.39C1693.8,-291.493 1689.31,-290.667 1685,-290 1501.6,-261.611 1451.67,-286.739 1269,-254 1267.72,-253.771 1266.43,-253.52 1265.13,-253.251"/>
<polygon fill="midnightblue" stroke="midnightblue" points="1265.63,-249.775 1255.09,-250.909 1264.04,-256.591 1265.63,-249.775"/>
</g>
<!-- Node64&#45;&gt;Node34 -->
<g id="edge308" class="edge"><title>Node64&#45;&gt;Node34</title>
<path fill="none" stroke="midnightblue" d="M1711.29,-290.459C1681.8,-276.805 1628.68,-252.342 1583,-232 1548.99,-216.857 1538.17,-213.191 1501.03,-196.375"/>
<polygon fill="midnightblue" stroke="midnightblue" points="1502.11,-193.023 1491.56,-192.064 1499.21,-199.394 1502.11,-193.023"/>
</g>
<!-- Node64&#45;&gt;Node44 -->
<g id="edge302" class="edge"><title>Node64&#45;&gt;Node44</title>
<path fill="none" stroke="midnightblue" d="M1763.88,-290.499C1807.11,-275.643 1889.83,-248.471 1962,-232 2057.19,-210.275 2171.61,-195.443 2228.03,-188.859"/>
<polygon fill="midnightblue" stroke="midnightblue" points="2228.66,-192.309 2238.2,-187.689 2227.86,-185.355 2228.66,-192.309"/>
</g>
<!-- Node65&#45;&gt;Node4 -->
<g id="edge326" class="edge"><title>Node65&#45;&gt;Node4</title>
<path fill="none" stroke="midnightblue" d="M1712.87,-174.265C1728.51,-160.297 1757.07,-135.389 1783,-116 1797.57,-105.106 1814.53,-93.8266 1828.23,-85.0486"/>
<polygon fill="midnightblue" stroke="midnightblue" points="1830.13,-87.9862 1836.7,-79.6706 1826.38,-82.077 1830.13,-87.9862"/>
</g>
<!-- Node65&#45;&gt;Node7 -->
<g id="edge328" class="edge"><title>Node65&#45;&gt;Node7</title>
<path fill="none" stroke="midnightblue" d="M1632.15,-175.159C1629.4,-174.767 1626.67,-174.38 1624,-174 1510.68,-157.907 1482.2,-154.885 1369,-138 1356.98,-136.208 1343.82,-134.161 1332.18,-132.323"/>
<polygon fill="midnightblue" stroke="midnightblue" points="1332.43,-128.818 1322,-130.707 1331.33,-135.732 1332.43,-128.818"/>
</g>
<!-- Node66&#45;&gt;Node9 -->
<g id="edge332" class="edge"><title>Node66&#45;&gt;Node9</title>
<path fill="none" stroke="midnightblue" d="M2817.34,-293.625C2870.14,-285.079 2949.82,-270.095 2976,-254 3009.88,-233.165 3033,-224.777 3033,-185 3033,-185 3033,-185 3033,-127 3033,-61.6532 3120.5,-30.0482 3168.45,-17.6353"/>
<polygon fill="midnightblue" stroke="midnightblue" points="3169.44,-20.9958 3178.31,-15.2072 3167.76,-14.1987 3169.44,-20.9958"/>
</g>
<!-- Node66&#45;&gt;Node33 -->
<g id="edge334" class="edge"><title>Node66&#45;&gt;Node33</title>
<path fill="none" stroke="midnightblue" d="M2718.72,-296.323C2693.42,-294.082 2662.08,-291.554 2634,-290 2076.4,-259.144 1935.72,-282.565 1378,-254 1339.42,-252.024 1295.3,-248.624 1265.14,-246.126"/>
<polygon fill="midnightblue" stroke="midnightblue" points="1265.34,-242.631 1255.09,-245.283 1264.76,-249.606 1265.34,-242.631"/>
</g>
<!-- Node66&#45;&gt;Node37 -->
<g id="edge336" class="edge"><title>Node66&#45;&gt;Node37</title>
<path fill="none" stroke="midnightblue" d="M2803.21,-290.467C2833.9,-281.187 2879.53,-267.138 2919,-254 2920.22,-253.594 2921.46,-253.175 2922.72,-252.747"/>
<polygon fill="midnightblue" stroke="midnightblue" points="2924.04,-255.993 2932.34,-249.403 2921.74,-249.381 2924.04,-255.993"/>
</g>
<!-- Node67&#45;&gt;Node9 -->
<g id="edge360" class="edge"><title>Node67&#45;&gt;Node9</title>
<path fill="none" stroke="midnightblue" d="M2489.54,-363.729C2699.56,-355.466 3403.74,-326.713 3422,-312 3446.77,-292.042 3441,-274.808 3441,-243 3441,-243 3441,-243 3441,-127 3441,-80.5635 3294.27,-36.1117 3229.32,-18.7085"/>
<polygon fill="midnightblue" stroke="midnightblue" points="3230.19,-15.3195 3219.63,-16.1515 3228.41,-22.0878 3230.19,-15.3195"/>
</g>
<!-- Node67&#45;&gt;Node34 -->
<g id="edge362" class="edge"><title>Node67&#45;&gt;Node34</title>
<path fill="none" stroke="midnightblue" d="M2417.43,-348.681C2402.73,-331.139 2377.63,-304.577 2350,-290 2284.38,-255.381 2258.72,-272.996 2187,-254 2155.07,-245.542 2148.51,-237.896 2116,-232 1849.45,-183.654 1767.56,-262.477 1501.72,-195.634"/>
<polygon fill="midnightblue" stroke="midnightblue" points="1502.33,-192.178 1491.78,-193.088 1500.6,-198.959 1502.33,-192.178"/>
</g>
<!-- Node67&#45;&gt;Node43 -->
<g id="edge352" class="edge"><title>Node67&#45;&gt;Node43</title>
<path fill="none" stroke="midnightblue" d="M2447.62,-348.812C2463.49,-332.8 2488.41,-308.661 2512,-290 2526.17,-278.792 2543,-267.572 2556.71,-258.907"/>
<polygon fill="midnightblue" stroke="midnightblue" points="2558.58,-261.868 2565.21,-253.608 2554.87,-255.927 2558.58,-261.868"/>
</g>
<!-- Node68 -->
<g id="node245" class="node"><title>Node68</title>
<a xlink:href="_t_header_info_8h.html" target="_top" xlink:title="tree/THeaderInfo.h">
<polygon fill="white" stroke="black" points="493,-290.5 493,-311.5 591,-311.5 591,-290.5 493,-290.5"/>
<text text-anchor="middle" x="542" y="-298.5" font-family="Helvetica,sans-Serif" font-size="10.00">tree/THeaderInfo.h</text>
</a>
</g>
<!-- Node67&#45;&gt;Node68 -->
<g id="edge354" class="edge"><title>Node67&#45;&gt;Node68</title>
<path fill="none" stroke="midnightblue" d="M2372.26,-359.472C2334.29,-355.505 2283.78,-350.7 2239,-348 1646.53,-312.279 1497.31,-329.014 904,-312 797.37,-308.942 673.082,-305.106 601.373,-302.866"/>
<polygon fill="midnightblue" stroke="midnightblue" points="601.287,-299.362 591.182,-302.548 601.068,-306.359 601.287,-299.362"/>
</g>
<!-- Node68&#45;&gt;Node12 -->
<g id="edge356" class="edge"><title>Node68&#45;&gt;Node12</title>
<path fill="none" stroke="midnightblue" d="M536.314,-290.362C532.163,-282.595 526.416,-271.843 521.447,-262.546"/>
<polygon fill="midnightblue" stroke="midnightblue" points="524.45,-260.74 516.65,-253.571 518.277,-264.04 524.45,-260.74"/>
</g>
<!-- Node68&#45;&gt;Node15 -->
<g id="edge358" class="edge"><title>Node68&#45;&gt;Node15</title>
<path fill="none" stroke="midnightblue" d="M547.678,-290.377C562.882,-261.93 604.703,-183.684 624.434,-146.769"/>
<polygon fill="midnightblue" stroke="midnightblue" points="627.532,-148.397 629.159,-137.928 621.359,-145.097 627.532,-148.397"/>
</g>
</g>
</svg>
