<?xml version="1.0" encoding="UTF-8" standalone="no"?>
<!DOCTYPE svg PUBLIC "-//W3C//DTD SVG 1.1//EN"
 "http://www.w3.org/Graphics/SVG/1.1/DTD/svg11.dtd">
<!-- Generated by graphviz version 2.26.3 (20100126.1600)
 -->
<!-- Title: src/base/CmdLine.h Pages: 1 -->
<svg width="970pt" height="102pt"
 viewBox="0.00 0.00 970.00 102.00" xmlns="http://www.w3.org/2000/svg" xmlns:xlink="http://www.w3.org/1999/xlink">
<g id="graph1" class="graph" transform="scale(1 1) rotate(0) translate(4 98)">
<title>src/base/CmdLine.h</title>
<polygon fill="white" stroke="white" points="-4,5 -4,-98 967,-98 967,5 -4,5"/>
<!-- Node1 -->
<g id="node1" class="node"><title>Node1</title>
<polygon fill="#bfbfbf" stroke="black" points="430,-72.5 430,-93.5 534,-93.5 534,-72.5 430,-72.5"/>
<text text-anchor="middle" x="482" y="-80.5" font-family="Helvetica,sans-Serif" font-size="10.00">src/base/CmdLine.h</text>
</g>
<!-- Node2 -->
<g id="node3" class="node"><title>Node2</title>
<a xlink:href="_ant-calib-editor_8cc.html" target="_top" xlink:title="progs/Ant&#45;calib&#45;editor.cc">
<polygon fill="white" stroke="black" points="0,-7.5 0,-28.5 122,-28.5 122,-7.5 0,-7.5"/>
<text text-anchor="middle" x="61" y="-15.5" font-family="Helvetica,sans-Serif" font-size="10.00">progs/Ant&#45;calib&#45;editor.cc</text>
</a>
</g>
<!-- Node1&#45;&gt;Node2 -->
<g id="edge2" class="edge"><title>Node1&#45;&gt;Node2</title>
<path fill="none" stroke="midnightblue" d="M419.908,-76.9363C349.476,-69.5377 231.369,-55.553 131,-36 120.408,-33.9365 109.032,-31.2281 98.5954,-28.5409"/>
<polygon fill="midnightblue" stroke="midnightblue" points="419.637,-80.4269 429.946,-77.98 420.361,-73.4645 419.637,-80.4269"/>
</g>
<!-- Node3 -->
<g id="node5" class="node"><title>Node3</title>
<a xlink:href="_ant-calib_8cc.html" target="_top" xlink:title="progs/Ant&#45;calib.cc">
<polygon fill="white" stroke="black" points="139.5,-7.5 139.5,-28.5 234.5,-28.5 234.5,-7.5 139.5,-7.5"/>
<text text-anchor="middle" x="187" y="-15.5" font-family="Helvetica,sans-Serif" font-size="10.00">progs/Ant&#45;calib.cc</text>
</a>
</g>
<!-- Node1&#45;&gt;Node3 -->
<g id="edge4" class="edge"><title>Node1&#45;&gt;Node3</title>
<path fill="none" stroke="midnightblue" d="M419.827,-72.8272C371.326,-64.3982 302.443,-51.3421 243,-36 234.694,-33.8562 225.81,-31.1813 217.62,-28.5546"/>
<polygon fill="midnightblue" stroke="midnightblue" points="419.408,-76.3064 429.857,-74.5548 420.596,-69.408 419.408,-76.3064"/>
</g>
<!-- Node4 -->
<g id="node7" class="node"><title>Node4</title>
<a xlink:href="_ant-chain_8cc.html" target="_top" xlink:title="hadd like tool to concatenate TTrees in ROOT files using TChains. ">
<polygon fill="white" stroke="black" points="252,-7.5 252,-28.5 350,-28.5 350,-7.5 252,-7.5"/>
<text text-anchor="middle" x="301" y="-15.5" font-family="Helvetica,sans-Serif" font-size="10.00">progs/Ant&#45;chain.cc</text>
</a>
</g>
<!-- Node1&#45;&gt;Node4 -->
<g id="edge6" class="edge"><title>Node1&#45;&gt;Node4</title>
<path fill="none" stroke="midnightblue" d="M442.965,-68.9818C409.193,-56.854 361.1,-39.583 330.471,-28.5835"/>
<polygon fill="midnightblue" stroke="midnightblue" points="441.922,-72.3261 452.516,-72.412 444.288,-65.738 441.922,-72.3261"/>
</g>
<!-- Node5 -->
<g id="node9" class="node"><title>Node5</title>
<a xlink:href="_ant-cocktail_8cc.html" target="_top" xlink:title="progs/Ant&#45;cocktail.cc">
<polygon fill="white" stroke="black" points="367.5,-7.5 367.5,-28.5 476.5,-28.5 476.5,-7.5 367.5,-7.5"/>
<text text-anchor="middle" x="422" y="-15.5" font-family="Helvetica,sans-Serif" font-size="10.00">progs/Ant&#45;cocktail.cc</text>
</a>
</g>
<!-- Node1&#45;&gt;Node5 -->
<g id="edge8" class="edge"><title>Node1&#45;&gt;Node5</title>
<path fill="none" stroke="midnightblue" d="M465.166,-64.7628C454.374,-53.0723 440.748,-38.3103 431.723,-28.5337"/>
<polygon fill="midnightblue" stroke="midnightblue" points="462.738,-67.2925 472.092,-72.2666 467.881,-62.5445 462.738,-67.2925"/>
</g>
<!-- Node6 -->
<g id="node11" class="node"><title>Node6</title>
<a xlink:href="_ant-pluto_8cc.html" target="_top" xlink:title="Pluto generator forntend. ">
<polygon fill="white" stroke="black" points="494,-7.5 494,-28.5 590,-28.5 590,-7.5 494,-7.5"/>
<text text-anchor="middle" x="542" y="-15.5" font-family="Helvetica,sans-Serif" font-size="10.00">progs/Ant&#45;pluto.cc</text>
</a>
</g>
<!-- Node1&#45;&gt;Node6 -->
<g id="edge10" class="edge"><title>Node1&#45;&gt;Node6</title>
<path fill="none" stroke="midnightblue" d="M498.834,-64.7628C509.626,-53.0723 523.252,-38.3103 532.277,-28.5337"/>
<polygon fill="midnightblue" stroke="midnightblue" points="496.119,-62.5445 491.908,-72.2666 501.262,-67.2925 496.119,-62.5445"/>
</g>
<!-- Node7 -->
<g id="node13" class="node"><title>Node7</title>
<a xlink:href="_ant_8cc.html" target="_top" xlink:title="Main Ant executable. ">
<polygon fill="white" stroke="black" points="608,-7.5 608,-28.5 680,-28.5 680,-7.5 608,-7.5"/>
<text text-anchor="middle" x="644" y="-15.5" font-family="Helvetica,sans-Serif" font-size="10.00">progs/Ant.cc</text>
</a>
</g>
<!-- Node1&#45;&gt;Node7 -->
<g id="edge12" class="edge"><title>Node1&#45;&gt;Node7</title>
<path fill="none" stroke="midnightblue" d="M517.719,-68.6684C547.902,-56.5579 590.444,-39.4886 617.623,-28.5835"/>
<polygon fill="midnightblue" stroke="midnightblue" points="516.366,-65.4398 508.389,-72.412 518.973,-71.9364 516.366,-65.4398"/>
</g>
<!-- Node8 -->
<g id="node15" class="node"><title>Node8</title>
<a xlink:href="omega__histograms_8cc.html" target="_top" xlink:title="progs/omega_histograms.cc">
<polygon fill="white" stroke="black" points="698,-7.5 698,-28.5 838,-28.5 838,-7.5 698,-7.5"/>
<text text-anchor="middle" x="768" y="-15.5" font-family="Helvetica,sans-Serif" font-size="10.00">progs/omega_histograms.cc</text>
</a>
</g>
<!-- Node1&#45;&gt;Node8 -->
<g id="edge14" class="edge"><title>Node1&#45;&gt;Node8</title>
<path fill="none" stroke="midnightblue" d="M538.4,-70.2063C580.022,-60.7618 638.042,-47.5904 689,-36 699.562,-33.5977 710.917,-31.0121 721.633,-28.5708"/>
<polygon fill="midnightblue" stroke="midnightblue" points="537.43,-66.8374 528.452,-72.4634 538.979,-73.6638 537.43,-66.8374"/>
</g>
<!-- Node9 -->
<g id="node17" class="node"><title>Node9</title>
<a xlink:href="show__cocktail__database_8cc.html" target="_top" xlink:title="progs/show_cocktail\l_database.cc">
<polygon fill="white" stroke="black" points="856,-1 856,-35 962,-35 962,-1 856,-1"/>
<text text-anchor="start" x="864" y="-22" font-family="Helvetica,sans-Serif" font-size="10.00">progs/show_cocktail</text>
<text text-anchor="middle" x="909" y="-9" font-family="Helvetica,sans-Serif" font-size="10.00">_database.cc</text>
</a>
</g>
<!-- Node1&#45;&gt;Node9 -->
<g id="edge16" class="edge"><title>Node1&#45;&gt;Node9</title>
<path fill="none" stroke="midnightblue" d="M544.502,-77.9129C617.58,-71.2838 741.924,-57.8813 847,-36 849.853,-35.4059 852.766,-34.7468 855.697,-34.042"/>
<polygon fill="midnightblue" stroke="midnightblue" points="543.749,-74.4661 534.1,-78.8421 544.372,-81.4384 543.749,-74.4661"/>
</g>
</g>
</svg>
