<?xml version="1.0" encoding="UTF-8" standalone="no"?>
<!DOCTYPE svg PUBLIC "-//W3C//DTD SVG 1.1//EN"
 "http://www.w3.org/Graphics/SVG/1.1/DTD/svg11.dtd">
<!-- Generated by graphviz version 2.26.3 (20100126.1600)
 -->
<!-- Title: src/calibration/DataManager.cc Pages: 1 -->
<svg width="1618pt" height="378pt"
 viewBox="0.00 0.00 1618.00 378.00" xmlns="http://www.w3.org/2000/svg" xmlns:xlink="http://www.w3.org/1999/xlink">
<g id="graph1" class="graph" transform="scale(1 1) rotate(0) translate(4 374)">
<title>src/calibration/DataManager.cc</title>
<polygon fill="white" stroke="white" points="-4,5 -4,-374 1615,-374 1615,5 -4,5"/>
<!-- Node1 -->
<g id="node1" class="node"><title>Node1</title>
<polygon fill="#bfbfbf" stroke="black" points="659,-348.5 659,-369.5 811,-369.5 811,-348.5 659,-348.5"/>
<text text-anchor="middle" x="735" y="-356.5" font-family="Helvetica,sans-Serif" font-size="10.00">src/calibration/DataManager.cc</text>
</g>
<!-- Node2 -->
<g id="node3" class="node"><title>Node2</title>
<a xlink:href="_data_manager_8h.html" target="_top" xlink:title="DataManager.h">
<polygon fill="white" stroke="black" points="624.5,-290.5 624.5,-311.5 707.5,-311.5 707.5,-290.5 624.5,-290.5"/>
<text text-anchor="middle" x="666" y="-298.5" font-family="Helvetica,sans-Serif" font-size="10.00">DataManager.h</text>
</a>
</g>
<!-- Node1&#45;&gt;Node2 -->
<g id="edge2" class="edge"><title>Node1&#45;&gt;Node2</title>
<path fill="none" stroke="midnightblue" d="M722.344,-348.362C712.326,-339.941 698.133,-328.011 686.499,-318.231"/>
<polygon fill="midnightblue" stroke="midnightblue" points="688.482,-315.326 678.575,-311.571 683.978,-320.684 688.482,-315.326"/>
</g>
<!-- Node6 -->
<g id="node11" class="node"><title>Node6</title>
<a xlink:href="_wrap_t_file_8h.html" target="_top" xlink:title="base/WrapTFile.h">
<polygon fill="white" stroke="black" points="339,-290.5 339,-311.5 433,-311.5 433,-290.5 339,-290.5"/>
<text text-anchor="middle" x="386" y="-298.5" font-family="Helvetica,sans-Serif" font-size="10.00">base/WrapTFile.h</text>
</a>
</g>
<!-- Node1&#45;&gt;Node6 -->
<g id="edge10" class="edge"><title>Node1&#45;&gt;Node6</title>
<path fill="none" stroke="midnightblue" d="M668.602,-348.486C610.195,-339.16 522.894,-325.035 447,-312 445.747,-311.785 444.48,-311.566 443.203,-311.345"/>
<polygon fill="midnightblue" stroke="midnightblue" points="443.729,-307.884 433.275,-309.605 442.521,-314.778 443.729,-307.884"/>
</g>
<!-- Node9 -->
<g id="node21" class="node"><title>Node9</title>
<polygon fill="white" stroke="#bfbfbf" points="342,-0.5 342,-21.5 398,-21.5 398,-0.5 342,-0.5"/>
<text text-anchor="middle" x="370" y="-8.5" font-family="Helvetica,sans-Serif" font-size="10.00">algorithm</text>
</g>
<!-- Node1&#45;&gt;Node9 -->
<g id="edge128" class="edge"><title>Node1&#45;&gt;Node9</title>
<path fill="none" stroke="midnightblue" d="M658.767,-354.885C470.745,-343.722 0,-309.166 0,-243 0,-243 0,-243 0,-127 0,-57.9769 237.408,-25.1018 331.884,-14.7519"/>
<polygon fill="midnightblue" stroke="midnightblue" points="332.315,-18.2259 341.886,-13.6822 331.571,-11.2656 332.315,-18.2259"/>
</g>
<!-- Node11 -->
<g id="node25" class="node"><title>Node11</title>
<polygon fill="white" stroke="#bfbfbf" points="27.5,-232.5 27.5,-253.5 98.5,-253.5 98.5,-232.5 27.5,-232.5"/>
<text text-anchor="middle" x="63" y="-240.5" font-family="Helvetica,sans-Serif" font-size="10.00">TDirectory.h</text>
</g>
<!-- Node1&#45;&gt;Node11 -->
<g id="edge126" class="edge"><title>Node1&#45;&gt;Node11</title>
<path fill="none" stroke="midnightblue" d="M658.77,-353.297C577.011,-346.45 443.6,-333.167 330,-312 250.63,-297.211 159.971,-271.966 107.335,-256.457"/>
<polygon fill="midnightblue" stroke="midnightblue" points="108.227,-253.071 97.6451,-253.585 106.238,-259.782 108.227,-253.071"/>
</g>
<!-- Node12 -->
<g id="node27" class="node"><title>Node12</title>
<polygon fill="white" stroke="#bfbfbf" points="478,-232.5 478,-253.5 530,-253.5 530,-232.5 478,-232.5"/>
<text text-anchor="middle" x="504" y="-240.5" font-family="Helvetica,sans-Serif" font-size="10.00">TError.h</text>
</g>
<!-- Node1&#45;&gt;Node12 -->
<g id="edge124" class="edge"><title>Node1&#45;&gt;Node12</title>
<path fill="none" stroke="midnightblue" d="M658.953,-355.441C592.243,-350.535 502.466,-338.985 480,-312 468.061,-297.659 477.772,-277.012 488.191,-262.044"/>
<polygon fill="midnightblue" stroke="midnightblue" points="491.042,-264.075 494.249,-253.977 485.445,-259.871 491.042,-264.075"/>
</g>
<!-- Node16 -->
<g id="node35" class="node"><title>Node16</title>
<a xlink:href="_logger_8h.html" target="_top" xlink:title="base/Logger.h">
<polygon fill="white" stroke="black" points="763,-290.5 763,-311.5 841,-311.5 841,-290.5 763,-290.5"/>
<text text-anchor="middle" x="802" y="-298.5" font-family="Helvetica,sans-Serif" font-size="10.00">base/Logger.h</text>
</a>
</g>
<!-- Node1&#45;&gt;Node16 -->
<g id="edge38" class="edge"><title>Node1&#45;&gt;Node16</title>
<path fill="none" stroke="midnightblue" d="M747.289,-348.362C757.017,-339.941 770.798,-328.011 782.095,-318.231"/>
<polygon fill="midnightblue" stroke="midnightblue" points="784.519,-320.762 789.789,-311.571 779.938,-315.469 784.519,-320.762"/>
</g>
<!-- Node18 -->
<g id="node39" class="node"><title>Node18</title>
<a xlink:href="memory_8h.html" target="_top" xlink:title="base/std_ext/memory.h">
<polygon fill="white" stroke="black" points="488.5,-290.5 488.5,-311.5 607.5,-311.5 607.5,-290.5 488.5,-290.5"/>
<text text-anchor="middle" x="548" y="-298.5" font-family="Helvetica,sans-Serif" font-size="10.00">base/std_ext/memory.h</text>
</a>
</g>
<!-- Node1&#45;&gt;Node18 -->
<g id="edge42" class="edge"><title>Node1&#45;&gt;Node18</title>
<path fill="none" stroke="midnightblue" d="M701.136,-348.497C670.518,-339 625.257,-324.962 591.876,-314.609"/>
<polygon fill="midnightblue" stroke="midnightblue" points="592.516,-311.143 581.928,-311.523 590.442,-317.828 592.516,-311.143"/>
</g>
<!-- Node19 -->
<g id="node43" class="node"><title>Node19</title>
<a xlink:href="interval_8h.html" target="_top" xlink:title="base/interval.h">
<polygon fill="white" stroke="black" points="663,-174.5 663,-195.5 743,-195.5 743,-174.5 663,-174.5"/>
<text text-anchor="middle" x="703" y="-182.5" font-family="Helvetica,sans-Serif" font-size="10.00">base/interval.h</text>
</a>
</g>
<!-- Node1&#45;&gt;Node19 -->
<g id="edge48" class="edge"><title>Node1&#45;&gt;Node19</title>
<path fill="none" stroke="midnightblue" d="M733.046,-348.377C727.881,-320.293 713.791,-243.673 706.899,-206.203"/>
<polygon fill="midnightblue" stroke="midnightblue" points="710.261,-205.13 705.01,-195.928 703.376,-206.396 710.261,-205.13"/>
</g>
<!-- Node26 -->
<g id="node58" class="node"><title>Node26</title>
<a xlink:href="_data_base_8h.html" target="_top" xlink:title="DataBase.h">
<polygon fill="white" stroke="black" points="859,-290.5 859,-311.5 927,-311.5 927,-290.5 859,-290.5"/>
<text text-anchor="middle" x="893" y="-298.5" font-family="Helvetica,sans-Serif" font-size="10.00">DataBase.h</text>
</a>
</g>
<!-- Node1&#45;&gt;Node26 -->
<g id="edge64" class="edge"><title>Node1&#45;&gt;Node26</title>
<path fill="none" stroke="midnightblue" d="M763.613,-348.497C789.148,-339.123 826.737,-325.324 854.829,-315.012"/>
<polygon fill="midnightblue" stroke="midnightblue" points="856.152,-318.255 864.334,-311.523 853.74,-311.684 856.152,-318.255"/>
</g>
<!-- Node28 -->
<g id="node64" class="node"><title>Node28</title>
<a xlink:href="_t_data_record_8h.html" target="_top" xlink:title="tree/TDataRecord.h">
<polygon fill="white" stroke="black" points="969.5,-232.5 969.5,-253.5 1072.5,-253.5 1072.5,-232.5 969.5,-232.5"/>
<text text-anchor="middle" x="1021" y="-240.5" font-family="Helvetica,sans-Serif" font-size="10.00">tree/TDataRecord.h</text>
</a>
</g>
<!-- Node1&#45;&gt;Node28 -->
<g id="edge120" class="edge"><title>Node1&#45;&gt;Node28</title>
<path fill="none" stroke="midnightblue" d="M811.252,-349.498C850.03,-342.631 897.064,-331.087 936,-312 962.4,-299.058 987.931,-276.564 1004,-260.786"/>
<polygon fill="midnightblue" stroke="midnightblue" points="1006.53,-263.211 1011.1,-253.651 1001.56,-258.276 1006.53,-263.211"/>
</g>
<!-- Node38 -->
<g id="node91" class="node"><title>Node38</title>
<a xlink:href="_t_calibration_data_8h.html" target="_top" xlink:title="tree/TCalibrationData.h">
<polygon fill="white" stroke="black" points="1249,-232.5 1249,-253.5 1367,-253.5 1367,-232.5 1249,-232.5"/>
<text text-anchor="middle" x="1308" y="-240.5" font-family="Helvetica,sans-Serif" font-size="10.00">tree/TCalibrationData.h</text>
</a>
</g>
<!-- Node1&#45;&gt;Node38 -->
<g id="edge118" class="edge"><title>Node1&#45;&gt;Node38</title>
<path fill="none" stroke="midnightblue" d="M810.344,-348.47C856.096,-340.901 915.264,-329.006 966,-312 987.487,-304.798 990.362,-296.736 1012,-290 1087.49,-266.499 1177.66,-254.337 1238.48,-248.334"/>
<polygon fill="midnightblue" stroke="midnightblue" points="1239.11,-251.79 1248.73,-247.353 1238.44,-244.821 1239.11,-251.79"/>
</g>
<!-- Node40 -->
<g id="node101" class="node"><title>Node40</title>
<polygon fill="white" stroke="#bfbfbf" points="1021,-290.5 1021,-311.5 1071,-311.5 1071,-290.5 1021,-290.5"/>
<text text-anchor="middle" x="1046" y="-298.5" font-family="Helvetica,sans-Serif" font-size="10.00">TTree.h</text>
</g>
<!-- Node1&#45;&gt;Node40 -->
<g id="edge122" class="edge"><title>Node1&#45;&gt;Node40</title>
<path fill="none" stroke="midnightblue" d="M808.139,-348.471C863.129,-340.045 940.169,-327.156 1007,-312 1008.27,-311.711 1009.57,-311.406 1010.87,-311.09"/>
<polygon fill="midnightblue" stroke="midnightblue" points="1012.12,-314.382 1020.92,-308.487 1010.36,-307.606 1012.12,-314.382"/>
</g>
<!-- Node41 -->
<g id="node106" class="node"><title>Node41</title>
<polygon fill="white" stroke="#bfbfbf" points="1089,-290.5 1089,-311.5 1143,-311.5 1143,-290.5 1089,-290.5"/>
<text text-anchor="middle" x="1116" y="-298.5" font-family="Helvetica,sans-Serif" font-size="10.00">iostream</text>
</g>
<!-- Node1&#45;&gt;Node41 -->
<g id="edge130" class="edge"><title>Node1&#45;&gt;Node41</title>
<path fill="none" stroke="midnightblue" d="M811.334,-352.167C879.322,-345.268 981.565,-332.902 1078.98,-311.951"/>
<polygon fill="midnightblue" stroke="midnightblue" points="1079.97,-315.316 1089,-309.762 1078.48,-308.477 1079.97,-315.316"/>
</g>
<!-- Node3 -->
<g id="node5" class="node"><title>Node3</title>
<polygon fill="white" stroke="#bfbfbf" points="617.5,-232.5 617.5,-253.5 646.5,-253.5 646.5,-232.5 617.5,-232.5"/>
<text text-anchor="middle" x="632" y="-240.5" font-family="Helvetica,sans-Serif" font-size="10.00">list</text>
</g>
<!-- Node2&#45;&gt;Node3 -->
<g id="edge4" class="edge"><title>Node2&#45;&gt;Node3</title>
<path fill="none" stroke="midnightblue" d="M659.764,-290.362C655.163,-282.513 648.775,-271.616 643.286,-262.253"/>
<polygon fill="midnightblue" stroke="midnightblue" points="646.273,-260.428 638.197,-253.571 640.234,-263.968 646.273,-260.428"/>
</g>
<!-- Node4 -->
<g id="node7" class="node"><title>Node4</title>
<polygon fill="white" stroke="#bfbfbf" points="551.5,-0.5 551.5,-21.5 592.5,-21.5 592.5,-0.5 551.5,-0.5"/>
<text text-anchor="middle" x="572" y="-8.5" font-family="Helvetica,sans-Serif" font-size="10.00">string</text>
</g>
<!-- Node2&#45;&gt;Node4 -->
<g id="edge6" class="edge"><title>Node2&#45;&gt;Node4</title>
<path fill="none" stroke="midnightblue" d="M665.734,-290.335C665.071,-276.444 662.788,-251.617 655,-232 636.35,-185.025 609.424,-185.064 591,-138 577.054,-102.375 573.267,-57.444 572.286,-31.6915"/>
<polygon fill="midnightblue" stroke="midnightblue" points="575.783,-31.5117 572.011,-21.6109 568.785,-31.7027 575.783,-31.5117"/>
</g>
<!-- Node5 -->
<g id="node9" class="node"><title>Node5</title>
<polygon fill="white" stroke="#bfbfbf" points="548,-232.5 548,-253.5 600,-253.5 600,-232.5 548,-232.5"/>
<text text-anchor="middle" x="574" y="-240.5" font-family="Helvetica,sans-Serif" font-size="10.00">memory</text>
</g>
<!-- Node2&#45;&gt;Node5 -->
<g id="edge8" class="edge"><title>Node2&#45;&gt;Node5</title>
<path fill="none" stroke="midnightblue" d="M649.126,-290.362C635.249,-281.614 615.366,-269.079 599.54,-259.101"/>
<polygon fill="midnightblue" stroke="midnightblue" points="601.093,-255.943 590.767,-253.571 597.36,-261.864 601.093,-255.943"/>
</g>
<!-- Node6&#45;&gt;Node3 -->
<g id="edge16" class="edge"><title>Node6&#45;&gt;Node3</title>
<path fill="none" stroke="midnightblue" d="M433.426,-294.368C476.943,-287.54 543.129,-275.284 607.264,-254.082"/>
<polygon fill="midnightblue" stroke="midnightblue" points="608.771,-257.267 617.121,-250.746 606.527,-250.637 608.771,-257.267"/>
</g>
<!-- Node6&#45;&gt;Node4 -->
<g id="edge14" class="edge"><title>Node6&#45;&gt;Node4</title>
<path fill="none" stroke="midnightblue" d="M392.84,-290.335C420.411,-247.348 523.617,-86.4353 559.562,-30.3925"/>
<polygon fill="midnightblue" stroke="midnightblue" points="562.645,-32.0692 565.097,-21.7622 556.752,-28.29 562.645,-32.0692"/>
</g>
<!-- Node6&#45;&gt;Node5 -->
<g id="edge12" class="edge"><title>Node6&#45;&gt;Node5</title>
<path fill="none" stroke="midnightblue" d="M420.656,-290.424C449.619,-281.57 492.264,-268.497 537.862,-254.343"/>
<polygon fill="midnightblue" stroke="midnightblue" points="539.121,-257.616 547.632,-251.307 537.044,-250.932 539.121,-257.616"/>
</g>
<!-- Node7 -->
<g id="node16" class="node"><title>Node7</title>
<a xlink:href="string_8h.html" target="_top" xlink:title="base/std_ext/string.h">
<polygon fill="white" stroke="black" points="398,-58.5 398,-79.5 506,-79.5 506,-58.5 398,-58.5"/>
<text text-anchor="middle" x="452" y="-66.5" font-family="Helvetica,sans-Serif" font-size="10.00">base/std_ext/string.h</text>
</a>
</g>
<!-- Node6&#45;&gt;Node7 -->
<g id="edge18" class="edge"><title>Node6&#45;&gt;Node7</title>
<path fill="none" stroke="midnightblue" d="M388.689,-290.087C395.813,-261.399 416.005,-181.556 436,-116 438.688,-107.189 441.92,-97.5427 444.773,-89.2949"/>
<polygon fill="midnightblue" stroke="midnightblue" points="448.109,-90.3582 448.116,-79.7634 441.504,-88.0416 448.109,-90.3582"/>
</g>
<!-- Node10 -->
<g id="node23" class="node"><title>Node10</title>
<polygon fill="white" stroke="#bfbfbf" points="337.5,-232.5 337.5,-253.5 384.5,-253.5 384.5,-232.5 337.5,-232.5"/>
<text text-anchor="middle" x="361" y="-240.5" font-family="Helvetica,sans-Serif" font-size="10.00">TFile.h</text>
</g>
<!-- Node6&#45;&gt;Node10 -->
<g id="edge26" class="edge"><title>Node6&#45;&gt;Node10</title>
<path fill="none" stroke="midnightblue" d="M381.415,-290.362C378.102,-282.677 373.53,-272.069 369.552,-262.84"/>
<polygon fill="midnightblue" stroke="midnightblue" points="372.729,-261.368 365.556,-253.571 366.301,-264.139 372.729,-261.368"/>
</g>
<!-- Node6&#45;&gt;Node11 -->
<g id="edge28" class="edge"><title>Node6&#45;&gt;Node11</title>
<path fill="none" stroke="midnightblue" d="M338.893,-294.213C285.32,-286.239 195.032,-272.029 108.903,-254.3"/>
<polygon fill="midnightblue" stroke="midnightblue" points="109.469,-250.843 98.9656,-252.234 108.044,-257.696 109.469,-250.843"/>
</g>
<!-- Node6&#45;&gt;Node12 -->
<g id="edge30" class="edge"><title>Node6&#45;&gt;Node12</title>
<path fill="none" stroke="midnightblue" d="M407.369,-290.497C425.799,-281.438 452.637,-268.246 473.355,-258.063"/>
<polygon fill="midnightblue" stroke="midnightblue" points="474.961,-261.174 482.391,-253.621 471.873,-254.891 474.961,-261.174"/>
</g>
<!-- Node13 -->
<g id="node29" class="node"><title>Node13</title>
<polygon fill="white" stroke="#bfbfbf" points="115.5,-232.5 115.5,-253.5 162.5,-253.5 162.5,-232.5 115.5,-232.5"/>
<text text-anchor="middle" x="139" y="-240.5" font-family="Helvetica,sans-Serif" font-size="10.00">TList.h</text>
</g>
<!-- Node6&#45;&gt;Node13 -->
<g id="edge32" class="edge"><title>Node6&#45;&gt;Node13</title>
<path fill="none" stroke="midnightblue" d="M338.639,-292.286C297.04,-284.265 234.75,-271.37 172.634,-254.26"/>
<polygon fill="midnightblue" stroke="midnightblue" points="173.242,-250.796 162.669,-251.478 171.36,-257.539 173.242,-250.796"/>
</g>
<!-- Node14 -->
<g id="node31" class="node"><title>Node14</title>
<polygon fill="white" stroke="#bfbfbf" points="180,-232.5 180,-253.5 254,-253.5 254,-232.5 180,-232.5"/>
<text text-anchor="middle" x="217" y="-240.5" font-family="Helvetica,sans-Serif" font-size="10.00">TCollection.h</text>
</g>
<!-- Node6&#45;&gt;Node14 -->
<g id="edge34" class="edge"><title>Node6&#45;&gt;Node14</title>
<path fill="none" stroke="midnightblue" d="M355.395,-290.497C327.963,-281.082 287.524,-267.204 257.436,-256.877"/>
<polygon fill="midnightblue" stroke="midnightblue" points="258.257,-253.459 247.662,-253.523 255.984,-260.08 258.257,-253.459"/>
</g>
<!-- Node15 -->
<g id="node33" class="node"><title>Node15</title>
<polygon fill="white" stroke="#bfbfbf" points="272,-232.5 272,-253.5 320,-253.5 320,-232.5 272,-232.5"/>
<text text-anchor="middle" x="296" y="-240.5" font-family="Helvetica,sans-Serif" font-size="10.00">TKey.h</text>
</g>
<!-- Node6&#45;&gt;Node15 -->
<g id="edge36" class="edge"><title>Node6&#45;&gt;Node15</title>
<path fill="none" stroke="midnightblue" d="M369.493,-290.362C355.918,-281.614 336.467,-269.079 320.985,-259.101"/>
<polygon fill="midnightblue" stroke="midnightblue" points="322.704,-256.046 312.403,-253.571 318.912,-261.93 322.704,-256.046"/>
</g>
<!-- Node7&#45;&gt;Node4 -->
<g id="edge20" class="edge"><title>Node7&#45;&gt;Node4</title>
<path fill="none" stroke="midnightblue" d="M473.731,-58.4966C492.825,-49.2679 520.793,-35.75 542.014,-25.4932"/>
<polygon fill="midnightblue" stroke="midnightblue" points="543.753,-28.5401 551.234,-21.0371 540.707,-22.2376 543.753,-28.5401"/>
</g>
<!-- Node8 -->
<g id="node19" class="node"><title>Node8</title>
<polygon fill="white" stroke="#bfbfbf" points="426,-0.5 426,-21.5 478,-21.5 478,-0.5 426,-0.5"/>
<text text-anchor="middle" x="452" y="-8.5" font-family="Helvetica,sans-Serif" font-size="10.00">sstream</text>
</g>
<!-- Node7&#45;&gt;Node8 -->
<g id="edge22" class="edge"><title>Node7&#45;&gt;Node8</title>
<path fill="none" stroke="midnightblue" d="M452,-58.3619C452,-50.9219 452,-40.7427 452,-31.7276"/>
<polygon fill="midnightblue" stroke="midnightblue" points="455.5,-31.5706 452,-21.5707 448.5,-31.5707 455.5,-31.5706"/>
</g>
<!-- Node7&#45;&gt;Node9 -->
<g id="edge24" class="edge"><title>Node7&#45;&gt;Node9</title>
<path fill="none" stroke="midnightblue" d="M436.96,-58.3619C424.707,-49.6955 407.201,-37.3126 393.161,-27.3819"/>
<polygon fill="midnightblue" stroke="midnightblue" points="395.13,-24.4879 384.945,-21.5707 391.088,-30.2028 395.13,-24.4879"/>
</g>
<!-- Node17 -->
<g id="node37" class="node"><title>Node17</title>
<polygon fill="white" stroke="#bfbfbf" points="747.5,-232.5 747.5,-253.5 862.5,-253.5 862.5,-232.5 747.5,-232.5"/>
<text text-anchor="middle" x="805" y="-240.5" font-family="Helvetica,sans-Serif" font-size="10.00">detail/easylogging++.h</text>
</g>
<!-- Node16&#45;&gt;Node17 -->
<g id="edge40" class="edge"><title>Node16&#45;&gt;Node17</title>
<path fill="none" stroke="midnightblue" d="M802.55,-290.362C802.935,-282.922 803.462,-272.743 803.928,-263.728"/>
<polygon fill="midnightblue" stroke="midnightblue" points="807.432,-263.738 804.453,-253.571 800.441,-263.376 807.432,-263.738"/>
</g>
<!-- Node18&#45;&gt;Node3 -->
<g id="edge46" class="edge"><title>Node18&#45;&gt;Node3</title>
<path fill="none" stroke="midnightblue" d="M563.407,-290.362C576.115,-281.587 594.341,-269.002 608.812,-259.011"/>
<polygon fill="midnightblue" stroke="midnightblue" points="611.014,-261.744 617.254,-253.182 607.036,-255.983 611.014,-261.744"/>
</g>
<!-- Node18&#45;&gt;Node5 -->
<g id="edge44" class="edge"><title>Node18&#45;&gt;Node5</title>
<path fill="none" stroke="midnightblue" d="M552.769,-290.362C556.214,-282.677 560.969,-272.069 565.106,-262.84"/>
<polygon fill="midnightblue" stroke="midnightblue" points="568.365,-264.127 569.261,-253.571 561.977,-261.264 568.365,-264.127"/>
</g>
<!-- Node19&#45;&gt;Node9 -->
<g id="edge50" class="edge"><title>Node19&#45;&gt;Node9</title>
<path fill="none" stroke="midnightblue" d="M662.83,-176.499C587.071,-159.702 427.248,-120.372 389,-80 376.691,-67.0079 372.219,-46.792 370.661,-31.5943"/>
<polygon fill="midnightblue" stroke="midnightblue" points="374.151,-31.3256 369.971,-21.59 367.167,-31.807 374.151,-31.3256"/>
</g>
<!-- Node20 -->
<g id="node46" class="node"><title>Node20</title>
<polygon fill="white" stroke="#bfbfbf" points="723.5,-116.5 723.5,-137.5 782.5,-137.5 782.5,-116.5 723.5,-116.5"/>
<text text-anchor="middle" x="753" y="-124.5" font-family="Helvetica,sans-Serif" font-size="10.00">stdexcept</text>
</g>
<!-- Node19&#45;&gt;Node20 -->
<g id="edge52" class="edge"><title>Node19&#45;&gt;Node20</title>
<path fill="none" stroke="midnightblue" d="M712.171,-174.362C719.148,-166.268 728.921,-154.932 737.156,-145.38"/>
<polygon fill="midnightblue" stroke="midnightblue" points="740.009,-147.43 743.887,-137.571 734.707,-142.859 740.009,-147.43"/>
</g>
<!-- Node21 -->
<g id="node48" class="node"><title>Node21</title>
<a xlink:href="printable_8h.html" target="_top" xlink:title="printable.h">
<polygon fill="white" stroke="black" points="800,-116.5 800,-137.5 862,-137.5 862,-116.5 800,-116.5"/>
<text text-anchor="middle" x="831" y="-124.5" font-family="Helvetica,sans-Serif" font-size="10.00">printable.h</text>
</a>
</g>
<!-- Node19&#45;&gt;Node21 -->
<g id="edge54" class="edge"><title>Node19&#45;&gt;Node21</title>
<path fill="none" stroke="midnightblue" d="M726.18,-174.497C746.352,-165.356 775.81,-152.008 798.364,-141.788"/>
<polygon fill="midnightblue" stroke="midnightblue" points="799.896,-144.937 807.56,-137.621 797.007,-138.561 799.896,-144.937"/>
</g>
<!-- Node24 -->
<g id="node54" class="node"><title>Node24</title>
<a xlink:href="types_8h.html" target="_top" xlink:title="types.h">
<polygon fill="white" stroke="black" points="599.5,-116.5 599.5,-137.5 648.5,-137.5 648.5,-116.5 599.5,-116.5"/>
<text text-anchor="middle" x="624" y="-124.5" font-family="Helvetica,sans-Serif" font-size="10.00">types.h</text>
</a>
</g>
<!-- Node19&#45;&gt;Node24 -->
<g id="edge60" class="edge"><title>Node19&#45;&gt;Node24</title>
<path fill="none" stroke="midnightblue" d="M688.51,-174.362C676.817,-165.777 660.157,-153.546 646.697,-143.664"/>
<polygon fill="midnightblue" stroke="midnightblue" points="648.53,-140.667 638.398,-137.571 644.387,-146.31 648.53,-140.667"/>
</g>
<!-- Node25 -->
<g id="node56" class="node"><title>Node25</title>
<polygon fill="white" stroke="#bfbfbf" points="666,-116.5 666,-137.5 706,-137.5 706,-116.5 666,-116.5"/>
<text text-anchor="middle" x="686" y="-124.5" font-family="Helvetica,sans-Serif" font-size="10.00">limits</text>
</g>
<!-- Node19&#45;&gt;Node25 -->
<g id="edge62" class="edge"><title>Node19&#45;&gt;Node25</title>
<path fill="none" stroke="midnightblue" d="M699.882,-174.362C697.677,-166.84 694.652,-156.519 691.988,-147.431"/>
<polygon fill="midnightblue" stroke="midnightblue" points="695.27,-146.182 689.098,-137.571 688.552,-148.151 695.27,-146.182"/>
</g>
<!-- Node22 -->
<g id="node50" class="node"><title>Node22</title>
<polygon fill="white" stroke="#bfbfbf" points="868,-58.5 868,-79.5 912,-79.5 912,-58.5 868,-58.5"/>
<text text-anchor="middle" x="890" y="-66.5" font-family="Helvetica,sans-Serif" font-size="10.00">vector</text>
</g>
<!-- Node21&#45;&gt;Node22 -->
<g id="edge56" class="edge"><title>Node21&#45;&gt;Node22</title>
<path fill="none" stroke="midnightblue" d="M841.822,-116.362C850.221,-108.104 862.054,-96.4725 871.89,-86.8029"/>
<polygon fill="midnightblue" stroke="midnightblue" points="874.569,-89.077 879.247,-79.5707 869.662,-84.0851 874.569,-89.077"/>
</g>
<!-- Node23 -->
<g id="node52" class="node"><title>Node23</title>
<polygon fill="white" stroke="#bfbfbf" points="798,-58.5 798,-79.5 850,-79.5 850,-58.5 798,-58.5"/>
<text text-anchor="middle" x="824" y="-66.5" font-family="Helvetica,sans-Serif" font-size="10.00">ostream</text>
</g>
<!-- Node21&#45;&gt;Node23 -->
<g id="edge58" class="edge"><title>Node21&#45;&gt;Node23</title>
<path fill="none" stroke="midnightblue" d="M829.716,-116.362C828.818,-108.922 827.59,-98.7427 826.502,-89.7276"/>
<polygon fill="midnightblue" stroke="midnightblue" points="829.949,-89.0792 825.276,-79.5707 822.999,-89.918 829.949,-89.0792"/>
</g>
<!-- Node26&#45;&gt;Node3 -->
<g id="edge70" class="edge"><title>Node26&#45;&gt;Node3</title>
<path fill="none" stroke="midnightblue" d="M858.761,-292.116C855.802,-291.386 852.85,-290.672 850,-290 780.097,-273.53 697.041,-256.252 656.593,-247.984"/>
<polygon fill="midnightblue" stroke="midnightblue" points="657.082,-244.512 646.585,-245.944 655.685,-251.371 657.082,-244.512"/>
</g>
<!-- Node26&#45;&gt;Node22 -->
<g id="edge68" class="edge"><title>Node26&#45;&gt;Node22</title>
<path fill="none" stroke="midnightblue" d="M892.863,-290.429C892.401,-254.648 890.888,-137.663 890.268,-89.7481"/>
<polygon fill="midnightblue" stroke="midnightblue" points="893.767,-89.5874 890.138,-79.6335 886.767,-89.678 893.767,-89.5874"/>
</g>
<!-- Node27 -->
<g id="node60" class="node"><title>Node27</title>
<polygon fill="white" stroke="#bfbfbf" points="917.5,-232.5 917.5,-253.5 952.5,-253.5 952.5,-232.5 917.5,-232.5"/>
<text text-anchor="middle" x="935" y="-240.5" font-family="Helvetica,sans-Serif" font-size="10.00">map</text>
</g>
<!-- Node26&#45;&gt;Node27 -->
<g id="edge66" class="edge"><title>Node26&#45;&gt;Node27</title>
<path fill="none" stroke="midnightblue" d="M900.703,-290.362C906.446,-282.431 914.443,-271.389 921.27,-261.961"/>
<polygon fill="midnightblue" stroke="midnightblue" points="924.315,-263.723 927.345,-253.571 918.645,-259.617 924.315,-263.723"/>
</g>
<!-- Node26&#45;&gt;Node28 -->
<g id="edge72" class="edge"><title>Node26&#45;&gt;Node28</title>
<path fill="none" stroke="midnightblue" d="M916.18,-290.497C936.352,-281.356 965.81,-268.008 988.364,-257.788"/>
<polygon fill="midnightblue" stroke="midnightblue" points="989.896,-260.937 997.56,-253.621 987.007,-254.561 989.896,-260.937"/>
</g>
<!-- Node26&#45;&gt;Node38 -->
<g id="edge106" class="edge"><title>Node26&#45;&gt;Node38</title>
<path fill="none" stroke="midnightblue" d="M927.314,-296.204C995.379,-286.692 1148.65,-265.271 1238.58,-252.703"/>
<polygon fill="midnightblue" stroke="midnightblue" points="1239.26,-256.141 1248.68,-251.29 1238.29,-249.208 1239.26,-256.141"/>
</g>
<!-- Node29 -->
<g id="node66" class="node"><title>Node29</title>
<a xlink:href="_t_i_d_8h.html" target="_top" xlink:title="TID.h">
<polygon fill="white" stroke="black" points="1090.5,-174.5 1090.5,-195.5 1131.5,-195.5 1131.5,-174.5 1090.5,-174.5"/>
<text text-anchor="middle" x="1111" y="-182.5" font-family="Helvetica,sans-Serif" font-size="10.00">TID.h</text>
</a>
</g>
<!-- Node28&#45;&gt;Node29 -->
<g id="edge74" class="edge"><title>Node28&#45;&gt;Node29</title>
<path fill="none" stroke="midnightblue" d="M1037.51,-232.362C1051.08,-223.614 1070.53,-211.079 1086.01,-201.101"/>
<polygon fill="midnightblue" stroke="midnightblue" points="1088.09,-203.93 1094.6,-195.571 1084.3,-198.046 1088.09,-203.93"/>
</g>
<!-- Node30 -->
<g id="node68" class="node"><title>Node30</title>
<polygon fill="white" stroke="#bfbfbf" points="918,-116.5 918,-137.5 974,-137.5 974,-116.5 918,-116.5"/>
<text text-anchor="middle" x="946" y="-124.5" font-family="Helvetica,sans-Serif" font-size="10.00">Rtypes.h</text>
</g>
<!-- Node28&#45;&gt;Node30 -->
<g id="edge100" class="edge"><title>Node28&#45;&gt;Node30</title>
<path fill="none" stroke="midnightblue" d="M1014.08,-232.295C1001.41,-212.7 974.332,-170.82 958.408,-146.191"/>
<polygon fill="midnightblue" stroke="midnightblue" points="961.273,-144.177 952.905,-137.679 955.395,-147.977 961.273,-144.177"/>
</g>
<!-- Node33 -->
<g id="node76" class="node"><title>Node33</title>
<polygon fill="white" stroke="#bfbfbf" points="1388.5,-58.5 1388.5,-79.5 1429.5,-79.5 1429.5,-58.5 1388.5,-58.5"/>
<text text-anchor="middle" x="1409" y="-66.5" font-family="Helvetica,sans-Serif" font-size="10.00">ctime</text>
</g>
<!-- Node28&#45;&gt;Node33 -->
<g id="edge104" class="edge"><title>Node28&#45;&gt;Node33</title>
<path fill="none" stroke="midnightblue" d="M1072.77,-235.118C1164.49,-220.111 1350.02,-184.718 1394,-138 1406.1,-125.143 1409.34,-104.91 1409.85,-89.6719"/>
<polygon fill="midnightblue" stroke="midnightblue" points="1413.35,-89.6285 1409.83,-79.6356 1406.35,-89.6426 1413.35,-89.6285"/>
</g>
<!-- Node37 -->
<g id="node85" class="node"><title>Node37</title>
<polygon fill="white" stroke="#bfbfbf" points="992,-116.5 992,-137.5 1042,-137.5 1042,-116.5 992,-116.5"/>
<text text-anchor="middle" x="1017" y="-124.5" font-family="Helvetica,sans-Serif" font-size="10.00">iomanip</text>
</g>
<!-- Node28&#45;&gt;Node37 -->
<g id="edge102" class="edge"><title>Node28&#45;&gt;Node37</title>
<path fill="none" stroke="midnightblue" d="M1020.63,-232.295C1019.97,-213.131 1018.57,-172.654 1017.72,-147.843"/>
<polygon fill="midnightblue" stroke="midnightblue" points="1021.21,-147.553 1017.37,-137.679 1014.22,-147.794 1021.21,-147.553"/>
</g>
<!-- Node29&#45;&gt;Node20 -->
<g id="edge94" class="edge"><title>Node29&#45;&gt;Node20</title>
<path fill="none" stroke="midnightblue" d="M1090.23,-182.94C1040.41,-177.788 910.059,-163.08 792.643,-138.159"/>
<polygon fill="midnightblue" stroke="midnightblue" points="793.286,-134.718 782.773,-136.033 791.812,-141.561 793.286,-134.718"/>
</g>
<!-- Node29&#45;&gt;Node21 -->
<g id="edge78" class="edge"><title>Node29&#45;&gt;Node21</title>
<path fill="none" stroke="midnightblue" d="M1090.41,-180.735C1044.57,-171.239 933.333,-148.197 872.474,-135.591"/>
<polygon fill="midnightblue" stroke="midnightblue" points="872.942,-132.114 862.44,-133.513 871.522,-138.968 872.942,-132.114"/>
</g>
<!-- Node29&#45;&gt;Node30 -->
<g id="edge76" class="edge"><title>Node29&#45;&gt;Node30</title>
<path fill="none" stroke="midnightblue" d="M1090.44,-177.772C1063.82,-168.415 1016.93,-151.932 983.804,-140.289"/>
<polygon fill="midnightblue" stroke="midnightblue" points="984.599,-136.858 974.005,-136.844 982.278,-143.462 984.599,-136.858"/>
</g>
<!-- Node31 -->
<g id="node71" class="node"><title>Node31</title>
<a xlink:href="time_8h.html" target="_top" xlink:title="base/std_ext/time.h">
<polygon fill="white" stroke="black" points="1059.5,-116.5 1059.5,-137.5 1162.5,-137.5 1162.5,-116.5 1059.5,-116.5"/>
<text text-anchor="middle" x="1111" y="-124.5" font-family="Helvetica,sans-Serif" font-size="10.00">base/std_ext/time.h</text>
</a>
</g>
<!-- Node29&#45;&gt;Node31 -->
<g id="edge80" class="edge"><title>Node29&#45;&gt;Node31</title>
<path fill="none" stroke="midnightblue" d="M1111,-174.362C1111,-166.922 1111,-156.743 1111,-147.728"/>
<polygon fill="midnightblue" stroke="midnightblue" points="1114.5,-147.571 1111,-137.571 1107.5,-147.571 1114.5,-147.571"/>
</g>
<!-- Node29&#45;&gt;Node33 -->
<g id="edge98" class="edge"><title>Node29&#45;&gt;Node33</title>
<path fill="none" stroke="midnightblue" d="M1131.69,-183.539C1186.25,-179.336 1332.45,-165.706 1371,-138 1387.33,-126.263 1397.44,-105.241 1403.09,-89.4742"/>
<polygon fill="midnightblue" stroke="midnightblue" points="1406.54,-90.1695 1406.3,-79.5774 1399.88,-88.0056 1406.54,-90.1695"/>
</g>
<!-- Node34 -->
<g id="node78" class="node"><title>Node34</title>
<polygon fill="white" stroke="#bfbfbf" points="1180,-116.5 1180,-137.5 1242,-137.5 1242,-116.5 1180,-116.5"/>
<text text-anchor="middle" x="1211" y="-124.5" font-family="Helvetica,sans-Serif" font-size="10.00">type_traits</text>
</g>
<!-- Node29&#45;&gt;Node34 -->
<g id="edge88" class="edge"><title>Node29&#45;&gt;Node34</title>
<path fill="none" stroke="midnightblue" d="M1129.34,-174.362C1144.57,-165.532 1166.44,-152.844 1183.72,-142.822"/>
<polygon fill="midnightblue" stroke="midnightblue" points="1185.88,-145.615 1192.77,-137.571 1182.37,-139.56 1185.88,-145.615"/>
</g>
<!-- Node35 -->
<g id="node80" class="node"><title>Node35</title>
<polygon fill="white" stroke="#bfbfbf" points="1260,-116.5 1260,-137.5 1298,-137.5 1298,-116.5 1260,-116.5"/>
<text text-anchor="middle" x="1279" y="-124.5" font-family="Helvetica,sans-Serif" font-size="10.00">tuple</text>
</g>
<!-- Node29&#45;&gt;Node35 -->
<g id="edge90" class="edge"><title>Node29&#45;&gt;Node35</title>
<path fill="none" stroke="midnightblue" d="M1131.52,-178.471C1157.19,-170.225 1202.68,-155.359 1250.24,-138.17"/>
<polygon fill="midnightblue" stroke="midnightblue" points="1251.57,-141.41 1259.77,-134.702 1249.17,-134.832 1251.57,-141.41"/>
</g>
<!-- Node36 -->
<g id="node82" class="node"><title>Node36</title>
<polygon fill="white" stroke="#bfbfbf" points="1316,-116.5 1316,-137.5 1362,-137.5 1362,-116.5 1316,-116.5"/>
<text text-anchor="middle" x="1339" y="-124.5" font-family="Helvetica,sans-Serif" font-size="10.00">cstdint</text>
</g>
<!-- Node29&#45;&gt;Node36 -->
<g id="edge92" class="edge"><title>Node29&#45;&gt;Node36</title>
<path fill="none" stroke="midnightblue" d="M1131.77,-180.705C1166.12,-173.455 1237.08,-157.869 1305.96,-138.124"/>
<polygon fill="midnightblue" stroke="midnightblue" points="1307.03,-141.457 1315.66,-135.311 1305.08,-134.734 1307.03,-141.457"/>
</g>
<!-- Node29&#45;&gt;Node37 -->
<g id="edge96" class="edge"><title>Node29&#45;&gt;Node37</title>
<path fill="none" stroke="midnightblue" d="M1093.76,-174.362C1079.45,-165.532 1058.89,-152.844 1042.64,-142.822"/>
<polygon fill="midnightblue" stroke="midnightblue" points="1044.48,-139.843 1034.13,-137.571 1040.8,-145.8 1044.48,-139.843"/>
</g>
<!-- Node31&#45;&gt;Node7 -->
<g id="edge82" class="edge"><title>Node31&#45;&gt;Node7</title>
<path fill="none" stroke="midnightblue" d="M1059.34,-117.18C1056.52,-116.754 1053.73,-116.356 1051,-116 857.358,-90.7209 626.595,-77.2796 516.562,-71.8812"/>
<polygon fill="midnightblue" stroke="midnightblue" points="516.453,-68.372 506.296,-71.3838 516.114,-75.3637 516.453,-68.372"/>
</g>
<!-- Node32 -->
<g id="node74" class="node"><title>Node32</title>
<polygon fill="white" stroke="#bfbfbf" points="1088,-58.5 1088,-79.5 1134,-79.5 1134,-58.5 1088,-58.5"/>
<text text-anchor="middle" x="1111" y="-66.5" font-family="Helvetica,sans-Serif" font-size="10.00">cstring</text>
</g>
<!-- Node31&#45;&gt;Node32 -->
<g id="edge84" class="edge"><title>Node31&#45;&gt;Node32</title>
<path fill="none" stroke="midnightblue" d="M1111,-116.362C1111,-108.922 1111,-98.7427 1111,-89.7276"/>
<polygon fill="midnightblue" stroke="midnightblue" points="1114.5,-89.5706 1111,-79.5707 1107.5,-89.5707 1114.5,-89.5706"/>
</g>
<!-- Node31&#45;&gt;Node33 -->
<g id="edge86" class="edge"><title>Node31&#45;&gt;Node33</title>
<path fill="none" stroke="midnightblue" d="M1162.57,-116.963C1224.78,-104.856 1327.34,-84.8943 1378.29,-74.9769"/>
<polygon fill="midnightblue" stroke="midnightblue" points="1379.2,-78.3656 1388.35,-73.0195 1377.86,-71.4945 1379.2,-78.3656"/>
</g>
<!-- Node38&#45;&gt;Node4 -->
<g id="edge110" class="edge"><title>Node38&#45;&gt;Node4</title>
<path fill="none" stroke="midnightblue" d="M1366.65,-232.431C1404.77,-224.234 1449.44,-211.644 1461,-196 1497.95,-145.992 1487.92,-95.0741 1438,-58 1403.84,-32.6281 754.544,-15.412 603.299,-11.7357"/>
<polygon fill="midnightblue" stroke="midnightblue" points="602.979,-8.22707 592.897,-11.4852 602.81,-15.225 602.979,-8.22707"/>
</g>
<!-- Node38&#45;&gt;Node29 -->
<g id="edge108" class="edge"><title>Node38&#45;&gt;Node29</title>
<path fill="none" stroke="midnightblue" d="M1272.32,-232.497C1234.88,-221.474 1176.66,-204.331 1141.35,-193.936"/>
<polygon fill="midnightblue" stroke="midnightblue" points="1142.19,-190.534 1131.61,-191.067 1140.21,-197.249 1142.19,-190.534"/>
</g>
<!-- Node38&#45;&gt;Node33 -->
<g id="edge112" class="edge"><title>Node38&#45;&gt;Node33</title>
<path fill="none" stroke="midnightblue" d="M1355.55,-232.467C1389.76,-223.813 1431.63,-210.631 1442,-196 1462.56,-166.995 1452.71,-149.903 1442,-116 1438.7,-105.557 1432.16,-95.4231 1425.76,-87.2551"/>
<polygon fill="midnightblue" stroke="midnightblue" points="1428.39,-84.9468 1419.29,-79.5245 1423.02,-89.4395 1428.39,-84.9468"/>
</g>
<!-- Node39 -->
<g id="node96" class="node"><title>Node39</title>
<a xlink:href="_git_info_8h.html" target="_top" xlink:title="base/GitInfo.h">
<polygon fill="white" stroke="black" points="1532,-174.5 1532,-195.5 1610,-195.5 1610,-174.5 1532,-174.5"/>
<text text-anchor="middle" x="1571" y="-182.5" font-family="Helvetica,sans-Serif" font-size="10.00">base/GitInfo.h</text>
</a>
</g>
<!-- Node38&#45;&gt;Node39 -->
<g id="edge114" class="edge"><title>Node38&#45;&gt;Node39</title>
<path fill="none" stroke="midnightblue" d="M1355.63,-232.497C1402.65,-222.126 1474.24,-206.339 1521.8,-195.849"/>
<polygon fill="midnightblue" stroke="midnightblue" points="1522.86,-199.202 1531.87,-193.63 1521.35,-192.366 1522.86,-199.202"/>
</g>
<!-- Node39&#45;&gt;Node4 -->
<g id="edge116" class="edge"><title>Node39&#45;&gt;Node4</title>
<path fill="none" stroke="midnightblue" d="M1570.19,-174.135C1567.66,-148.779 1557.49,-85.7477 1518,-58 1479.73,-31.1094 762.143,-14.8904 603.059,-11.6165"/>
<polygon fill="midnightblue" stroke="midnightblue" points="602.656,-8.10765 592.587,-11.4032 602.514,-15.1062 602.656,-8.10765"/>
</g>
</g>
</svg>
