<?xml version="1.0" encoding="UTF-8" standalone="no"?>
<!DOCTYPE svg PUBLIC "-//W3C//DTD SVG 1.1//EN"
 "http://www.w3.org/Graphics/SVG/1.1/DTD/svg11.dtd">
<!-- Generated by graphviz version 2.26.3 (20100126.1600)
 -->
<!-- Title: src/calibration/DataBase.h Pages: 1 -->
<svg width="686pt" height="232pt"
 viewBox="0.00 0.00 686.00 232.00" xmlns="http://www.w3.org/2000/svg" xmlns:xlink="http://www.w3.org/1999/xlink">
<g id="graph1" class="graph" transform="scale(1 1) rotate(0) translate(4 228)">
<title>src/calibration/DataBase.h</title>
<polygon fill="white" stroke="white" points="-4,5 -4,-228 683,-228 683,5 -4,5"/>
<!-- Node1 -->
<g id="node1" class="node"><title>Node1</title>
<polygon fill="#bfbfbf" stroke="black" points="164,-202.5 164,-223.5 296,-223.5 296,-202.5 164,-202.5"/>
<text text-anchor="middle" x="230" y="-210.5" font-family="Helvetica,sans-Serif" font-size="10.00">src/calibration/DataBase.h</text>
</g>
<!-- Node2 -->
<g id="node3" class="node"><title>Node2</title>
<a xlink:href="_data_base_8cc.html" target="_top" xlink:title="src/calibration/DataBase.cc">
<polygon fill="white" stroke="black" points="-0.5,-144.5 -0.5,-165.5 136.5,-165.5 136.5,-144.5 -0.5,-144.5"/>
<text text-anchor="middle" x="68" y="-152.5" font-family="Helvetica,sans-Serif" font-size="10.00">src/calibration/DataBase.cc</text>
</a>
</g>
<!-- Node1&#45;&gt;Node2 -->
<g id="edge2" class="edge"><title>Node1&#45;&gt;Node2</title>
<path fill="none" stroke="midnightblue" d="M190.923,-199.009C162.134,-188.702 123.591,-174.903 97.392,-165.523"/>
<polygon fill="midnightblue" stroke="midnightblue" points="190.068,-202.421 200.663,-202.497 192.428,-195.831 190.068,-202.421"/>
</g>
<!-- Node3 -->
<g id="node5" class="node"><title>Node3</title>
<a xlink:href="_data_manager_8cc.html" target="_top" xlink:title="src/calibration/DataManager.cc">
<polygon fill="white" stroke="black" points="154,-144.5 154,-165.5 306,-165.5 306,-144.5 154,-144.5"/>
<text text-anchor="middle" x="230" y="-152.5" font-family="Helvetica,sans-Serif" font-size="10.00">src/calibration/DataManager.cc</text>
</a>
</g>
<!-- Node1&#45;&gt;Node3 -->
<g id="edge4" class="edge"><title>Node1&#45;&gt;Node3</title>
<path fill="none" stroke="midnightblue" d="M230,-192.191C230,-183.168 230,-172.994 230,-165.571"/>
<polygon fill="midnightblue" stroke="midnightblue" points="226.5,-192.362 230,-202.362 233.5,-192.362 226.5,-192.362"/>
</g>
<!-- Node4 -->
<g id="node7" class="node"><title>Node4</title>
<a xlink:href="_editor_8h.html" target="_top" xlink:title="src/calibration/Editor.h">
<polygon fill="white" stroke="black" points="324,-144.5 324,-165.5 438,-165.5 438,-144.5 324,-144.5"/>
<text text-anchor="middle" x="381" y="-152.5" font-family="Helvetica,sans-Serif" font-size="10.00">src/calibration/Editor.h</text>
</a>
</g>
<!-- Node1&#45;&gt;Node4 -->
<g id="edge6" class="edge"><title>Node1&#45;&gt;Node4</title>
<path fill="none" stroke="midnightblue" d="M266.776,-198.874C293.571,-188.582 329.29,-174.862 353.604,-165.523"/>
<polygon fill="midnightblue" stroke="midnightblue" points="265.425,-195.644 257.345,-202.497 267.935,-202.178 265.425,-195.644"/>
</g>
<!-- Node5 -->
<g id="node9" class="node"><title>Node5</title>
<a xlink:href="_editor_8cc.html" target="_top" xlink:title="src/calibration/Editor.cc">
<polygon fill="white" stroke="black" points="197.5,-79.5 197.5,-100.5 316.5,-100.5 316.5,-79.5 197.5,-79.5"/>
<text text-anchor="middle" x="257" y="-87.5" font-family="Helvetica,sans-Serif" font-size="10.00">src/calibration/Editor.cc</text>
</a>
</g>
<!-- Node4&#45;&gt;Node5 -->
<g id="edge8" class="edge"><title>Node4&#45;&gt;Node5</title>
<path fill="none" stroke="midnightblue" d="M351.841,-139.715C328.873,-127.675 297.453,-111.205 277.19,-100.584"/>
<polygon fill="midnightblue" stroke="midnightblue" points="350.319,-142.869 360.801,-144.412 353.569,-136.669 350.319,-142.869"/>
</g>
<!-- Node6 -->
<g id="node11" class="node"><title>Node6</title>
<a xlink:href="_editor_canvas_8h.html" target="_top" xlink:title="src/calibration/gui\l/EditorCanvas.h">
<polygon fill="white" stroke="black" points="371.5,-73 371.5,-107 464.5,-107 464.5,-73 371.5,-73"/>
<text text-anchor="start" x="379.5" y="-94" font-family="Helvetica,sans-Serif" font-size="10.00">src/calibration/gui</text>
<text text-anchor="middle" x="418" y="-81" font-family="Helvetica,sans-Serif" font-size="10.00">/EditorCanvas.h</text>
</a>
</g>
<!-- Node4&#45;&gt;Node6 -->
<g id="edge10" class="edge"><title>Node4&#45;&gt;Node6</title>
<path fill="none" stroke="midnightblue" d="M392.059,-135.572C397.21,-126.523 403.285,-115.851 408.261,-107.11"/>
<polygon fill="midnightblue" stroke="midnightblue" points="389.015,-133.844 387.11,-144.267 395.099,-137.307 389.015,-133.844"/>
</g>
<!-- Node7 -->
<g id="node13" class="node"><title>Node7</title>
<a xlink:href="_editor_canvas_8cc.html" target="_top" xlink:title="src/calibration/gui\l/EditorCanvas.cc">
<polygon fill="white" stroke="black" points="333.5,-1 333.5,-35 426.5,-35 426.5,-1 333.5,-1"/>
<text text-anchor="start" x="341.5" y="-22" font-family="Helvetica,sans-Serif" font-size="10.00">src/calibration/gui</text>
<text text-anchor="middle" x="380" y="-9" font-family="Helvetica,sans-Serif" font-size="10.00">/EditorCanvas.cc</text>
</a>
</g>
<!-- Node4&#45;&gt;Node7 -->
<g id="edge16" class="edge"><title>Node4&#45;&gt;Node7</title>
<path fill="none" stroke="midnightblue" d="M371.634,-135.356C368.192,-127.106 364.717,-117.285 363,-108 360.09,-92.2668 360.57,-87.8143 363,-72 364.941,-59.3711 369.294,-45.6433 373.11,-35.1892"/>
<polygon fill="midnightblue" stroke="midnightblue" points="368.438,-136.781 375.697,-144.498 374.835,-133.938 368.438,-136.781"/>
</g>
<!-- Node9 -->
<g id="node18" class="node"><title>Node9</title>
<a xlink:href="_editor_window_8h.html" target="_top" xlink:title="src/calibration/gui\l/EditorWindow.h">
<polygon fill="white" stroke="black" points="481.5,-73 481.5,-107 574.5,-107 574.5,-73 481.5,-73"/>
<text text-anchor="start" x="489.5" y="-94" font-family="Helvetica,sans-Serif" font-size="10.00">src/calibration/gui</text>
<text text-anchor="middle" x="528" y="-81" font-family="Helvetica,sans-Serif" font-size="10.00">/EditorWindow.h</text>
</a>
</g>
<!-- Node4&#45;&gt;Node9 -->
<g id="edge18" class="edge"><title>Node4&#45;&gt;Node9</title>
<path fill="none" stroke="midnightblue" d="M414.34,-140.258C436.653,-130.392 466.091,-117.375 489.417,-107.06"/>
<polygon fill="midnightblue" stroke="midnightblue" points="412.676,-137.167 404.945,-144.412 415.507,-143.569 412.676,-137.167"/>
</g>
<!-- Node6&#45;&gt;Node7 -->
<g id="edge12" class="edge"><title>Node6&#45;&gt;Node7</title>
<path fill="none" stroke="midnightblue" d="M404.229,-63.9077C399.232,-54.4402 393.712,-43.9813 389.205,-35.4407"/>
<polygon fill="midnightblue" stroke="midnightblue" points="401.232,-65.7268 408.995,-72.937 407.422,-62.4595 401.232,-65.7268"/>
</g>
<!-- Node8 -->
<g id="node15" class="node"><title>Node8</title>
<a xlink:href="_editor_window_8cc.html" target="_top" xlink:title="src/calibration/gui\l/EditorWindow.cc">
<polygon fill="white" stroke="black" points="444,-1 444,-35 538,-35 538,-1 444,-1"/>
<text text-anchor="start" x="452" y="-22" font-family="Helvetica,sans-Serif" font-size="10.00">src/calibration/gui</text>
<text text-anchor="middle" x="491" y="-9" font-family="Helvetica,sans-Serif" font-size="10.00">/EditorWindow.cc</text>
</a>
</g>
<!-- Node6&#45;&gt;Node8 -->
<g id="edge14" class="edge"><title>Node6&#45;&gt;Node8</title>
<path fill="none" stroke="midnightblue" d="M442.426,-65.9083C452.631,-55.8438 464.254,-44.3799 473.571,-35.19"/>
<polygon fill="midnightblue" stroke="midnightblue" points="439.962,-63.4229 435.3,-72.937 444.877,-68.4067 439.962,-63.4229"/>
</g>
<!-- Node9&#45;&gt;Node7 -->
<g id="edge22" class="edge"><title>Node9&#45;&gt;Node7</title>
<path fill="none" stroke="midnightblue" d="M483.796,-68.4954C461.825,-57.8069 435.648,-45.0718 415.078,-35.0651"/>
<polygon fill="midnightblue" stroke="midnightblue" points="482.403,-71.7096 492.926,-72.937 485.465,-65.415 482.403,-71.7096"/>
</g>
<!-- Node9&#45;&gt;Node8 -->
<g id="edge24" class="edge"><title>Node9&#45;&gt;Node8</title>
<path fill="none" stroke="midnightblue" d="M514.591,-63.9077C509.726,-54.4402 504.352,-43.9813 499.963,-35.4407"/>
<polygon fill="midnightblue" stroke="midnightblue" points="511.548,-65.6424 519.232,-72.937 517.774,-62.4429 511.548,-65.6424"/>
</g>
<!-- Node10 -->
<g id="node20" class="node"><title>Node10</title>
<a xlink:href="_ant-calib-editor_8cc.html" target="_top" xlink:title="progs/Ant&#45;calib&#45;editor.cc">
<polygon fill="white" stroke="black" points="556,-7.5 556,-28.5 678,-28.5 678,-7.5 556,-7.5"/>
<text text-anchor="middle" x="617" y="-15.5" font-family="Helvetica,sans-Serif" font-size="10.00">progs/Ant&#45;calib&#45;editor.cc</text>
</a>
</g>
<!-- Node9&#45;&gt;Node10 -->
<g id="edge20" class="edge"><title>Node9&#45;&gt;Node10</title>
<path fill="none" stroke="midnightblue" d="M557.015,-66.527C572.778,-53.7747 591.503,-38.6265 603.788,-28.688"/>
<polygon fill="midnightblue" stroke="midnightblue" points="554.665,-63.9264 549.092,-72.937 559.068,-69.3686 554.665,-63.9264"/>
</g>
</g>
</svg>
