<?xml version="1.0" encoding="UTF-8" standalone="no"?>
<!DOCTYPE svg PUBLIC "-//W3C//DTD SVG 1.1//EN"
 "http://www.w3.org/Graphics/SVG/1.1/DTD/svg11.dtd">
<!-- Generated by graphviz version 2.26.3 (20100126.1600)
 -->
<!-- Title: src/analysis/input/DataReader.h Pages: 1 -->
<svg width="944pt" height="188pt"
 viewBox="0.00 0.00 944.00 188.00" xmlns="http://www.w3.org/2000/svg" xmlns:xlink="http://www.w3.org/1999/xlink">
<g id="graph1" class="graph" transform="scale(1 1) rotate(0) translate(4 184)">
<title>src/analysis/input/DataReader.h</title>
<polygon fill="white" stroke="white" points="-4,5 -4,-184 941,-184 941,5 -4,5"/>
<!-- Node1 -->
<g id="node1" class="node"><title>Node1</title>
<polygon fill="#bfbfbf" stroke="black" points="544.5,-145 544.5,-179 637.5,-179 637.5,-145 544.5,-145"/>
<text text-anchor="start" x="552.5" y="-166" font-family="Helvetica,sans-Serif" font-size="10.00">src/analysis/input</text>
<text text-anchor="middle" x="591" y="-153" font-family="Helvetica,sans-Serif" font-size="10.00">/DataReader.h</text>
</g>
<!-- Node2 -->
<g id="node3" class="node"><title>Node2</title>
<a xlink:href="_ant_8cc.html" target="_top" xlink:title="Main Ant executable. ">
<polygon fill="white" stroke="black" points="562,-7.5 562,-28.5 634,-28.5 634,-7.5 562,-7.5"/>
<text text-anchor="middle" x="598" y="-15.5" font-family="Helvetica,sans-Serif" font-size="10.00">progs/Ant.cc</text>
</a>
</g>
<!-- Node1&#45;&gt;Node2 -->
<g id="edge2" class="edge"><title>Node1&#45;&gt;Node2</title>
<path fill="none" stroke="midnightblue" d="M592.32,-134.842C593.883,-102.682 596.411,-50.6937 597.488,-28.5413"/>
<polygon fill="midnightblue" stroke="midnightblue" points="588.82,-134.758 591.83,-144.916 595.812,-135.098 588.82,-134.758"/>
</g>
<!-- Node3 -->
<g id="node5" class="node"><title>Node3</title>
<a xlink:href="_ant_reader_8h.html" target="_top" xlink:title="src/analysis/input\l/ant/AntReader.h">
<polygon fill="white" stroke="black" points="304.5,-73 304.5,-107 397.5,-107 397.5,-73 304.5,-73"/>
<text text-anchor="start" x="312.5" y="-94" font-family="Helvetica,sans-Serif" font-size="10.00">src/analysis/input</text>
<text text-anchor="middle" x="351" y="-81" font-family="Helvetica,sans-Serif" font-size="10.00">/ant/AntReader.h</text>
</a>
</g>
<!-- Node1&#45;&gt;Node3 -->
<g id="edge4" class="edge"><title>Node1&#45;&gt;Node3</title>
<path fill="none" stroke="midnightblue" d="M534.722,-145.117C493.088,-132.627 437.04,-115.812 397.839,-104.052"/>
<polygon fill="midnightblue" stroke="midnightblue" points="533.857,-148.511 544.441,-148.032 535.868,-141.806 533.857,-148.511"/>
</g>
<!-- Node7 -->
<g id="node14" class="node"><title>Node7</title>
<a xlink:href="_goat_reader_8h.html" target="_top" xlink:title="src/analysis/input\l/goat/GoatReader.h">
<polygon fill="white" stroke="black" points="619,-73 619,-107 721,-107 721,-73 619,-73"/>
<text text-anchor="start" x="627" y="-94" font-family="Helvetica,sans-Serif" font-size="10.00">src/analysis/input</text>
<text text-anchor="middle" x="670" y="-81" font-family="Helvetica,sans-Serif" font-size="10.00">/goat/GoatReader.h</text>
</a>
</g>
<!-- Node1&#45;&gt;Node7 -->
<g id="edge14" class="edge"><title>Node1&#45;&gt;Node7</title>
<path fill="none" stroke="midnightblue" d="M617.434,-137.908C628.477,-127.844 641.055,-116.38 651.139,-107.19"/>
<polygon fill="midnightblue" stroke="midnightblue" points="614.755,-135.614 609.722,-144.937 619.47,-140.788 614.755,-135.614"/>
</g>
<!-- Node10 -->
<g id="node21" class="node"><title>Node10</title>
<a xlink:href="_pluto_reader_8h.html" target="_top" xlink:title="src/analysis/input\l/pluto/PlutoReader.h">
<polygon fill="white" stroke="black" points="443,-73 443,-107 549,-107 549,-73 443,-73"/>
<text text-anchor="start" x="451" y="-94" font-family="Helvetica,sans-Serif" font-size="10.00">src/analysis/input</text>
<text text-anchor="middle" x="496" y="-81" font-family="Helvetica,sans-Serif" font-size="10.00">/pluto/PlutoReader.h</text>
</a>
</g>
<!-- Node1&#45;&gt;Node10 -->
<g id="edge22" class="edge"><title>Node1&#45;&gt;Node10</title>
<path fill="none" stroke="midnightblue" d="M560.368,-138.784C546.816,-128.514 531.16,-116.648 518.681,-107.19"/>
<polygon fill="midnightblue" stroke="midnightblue" points="558.403,-141.686 568.486,-144.937 562.631,-136.107 558.403,-141.686"/>
</g>
<!-- Node12 -->
<g id="node27" class="node"><title>Node12</title>
<a xlink:href="_physics_manager_8cc.html" target="_top" xlink:title="src/analysis/physics\l/PhysicsManager.cc">
<polygon fill="white" stroke="black" points="739,-73 739,-107 845,-107 845,-73 739,-73"/>
<text text-anchor="start" x="747" y="-94" font-family="Helvetica,sans-Serif" font-size="10.00">src/analysis/physics</text>
<text text-anchor="middle" x="792" y="-81" font-family="Helvetica,sans-Serif" font-size="10.00">/PhysicsManager.cc</text>
</a>
</g>
<!-- Node1&#45;&gt;Node12 -->
<g id="edge30" class="edge"><title>Node1&#45;&gt;Node12</title>
<path fill="none" stroke="midnightblue" d="M647.273,-141.842C677.804,-130.906 715.137,-117.533 744.238,-107.109"/>
<polygon fill="midnightblue" stroke="midnightblue" points="645.853,-138.633 637.619,-145.301 648.213,-145.223 645.853,-138.633"/>
</g>
<!-- Node3&#45;&gt;Node2 -->
<g id="edge6" class="edge"><title>Node3&#45;&gt;Node2</title>
<path fill="none" stroke="midnightblue" d="M407.362,-76.8471C448.175,-66.8604 504.468,-52.1295 553,-36 559.548,-33.8239 566.518,-31.1951 572.968,-28.6268"/>
<polygon fill="midnightblue" stroke="midnightblue" points="406.487,-73.4578 397.595,-79.2188 408.139,-80.2602 406.487,-73.4578"/>
</g>
<!-- Node4 -->
<g id="node8" class="node"><title>Node4</title>
<a xlink:href="_ant_reader_8cc.html" target="_top" xlink:title="src/analysis/input\l/ant/AntReader.cc">
<polygon fill="white" stroke="black" points="172,-1 172,-35 268,-35 268,-1 172,-1"/>
<text text-anchor="start" x="180" y="-22" font-family="Helvetica,sans-Serif" font-size="10.00">src/analysis/input</text>
<text text-anchor="middle" x="220" y="-9" font-family="Helvetica,sans-Serif" font-size="10.00">/ant/AntReader.cc</text>
</a>
</g>
<!-- Node3&#45;&gt;Node4 -->
<g id="edge8" class="edge"><title>Node3&#45;&gt;Node4</title>
<path fill="none" stroke="midnightblue" d="M311.124,-68.0832C291.914,-57.5254 269.214,-45.049 251.276,-35.19"/>
<polygon fill="midnightblue" stroke="midnightblue" points="309.505,-71.1876 319.955,-72.937 312.877,-65.0531 309.505,-71.1876"/>
</g>
<!-- Node5 -->
<g id="node10" class="node"><title>Node5</title>
<a xlink:href="_test_ant_reader_8cc.html" target="_top" xlink:title="test/analysis/TestAntReader.cc">
<polygon fill="white" stroke="black" points="-0.5,-7.5 -0.5,-28.5 154.5,-28.5 154.5,-7.5 -0.5,-7.5"/>
<text text-anchor="middle" x="77" y="-15.5" font-family="Helvetica,sans-Serif" font-size="10.00">test/analysis/TestAntReader.cc</text>
</a>
</g>
<!-- Node3&#45;&gt;Node5 -->
<g id="edge10" class="edge"><title>Node3&#45;&gt;Node5</title>
<path fill="none" stroke="midnightblue" d="M294.322,-75.1066C241.525,-61.233 164.124,-40.8938 117.351,-28.6033"/>
<polygon fill="midnightblue" stroke="midnightblue" points="293.648,-78.5481 304.209,-77.7046 295.427,-71.778 293.648,-78.5481"/>
</g>
<!-- Node6 -->
<g id="node12" class="node"><title>Node6</title>
<a xlink:href="_test_physics_manager_8cc.html" target="_top" xlink:title="test/analysis/TestPhysics\lManager.cc">
<polygon fill="white" stroke="black" points="286,-1 286,-35 416,-35 416,-1 286,-1"/>
<text text-anchor="start" x="294" y="-22" font-family="Helvetica,sans-Serif" font-size="10.00">test/analysis/TestPhysics</text>
<text text-anchor="middle" x="351" y="-9" font-family="Helvetica,sans-Serif" font-size="10.00">Manager.cc</text>
</a>
</g>
<!-- Node3&#45;&gt;Node6 -->
<g id="edge12" class="edge"><title>Node3&#45;&gt;Node6</title>
<path fill="none" stroke="midnightblue" d="M351,-62.7193C351,-53.572 351,-43.6255 351,-35.4407"/>
<polygon fill="midnightblue" stroke="midnightblue" points="347.5,-62.937 351,-72.937 354.5,-62.937 347.5,-62.937"/>
</g>
<!-- Node7&#45;&gt;Node2 -->
<g id="edge16" class="edge"><title>Node7&#45;&gt;Node2</title>
<path fill="none" stroke="midnightblue" d="M645.516,-65.5161C633.073,-53.0732 618.579,-38.5787 608.901,-28.901"/>
<polygon fill="midnightblue" stroke="midnightblue" points="643.391,-68.3408 652.937,-72.937 648.341,-63.391 643.391,-68.3408"/>
</g>
<!-- Node8 -->
<g id="node17" class="node"><title>Node8</title>
<a xlink:href="_goat_reader_8cc.html" target="_top" xlink:title="src/analysis/input\l/goat/GoatReader.cc">
<polygon fill="white" stroke="black" points="829.5,-1 829.5,-35 936.5,-35 936.5,-1 829.5,-1"/>
<text text-anchor="start" x="837.5" y="-22" font-family="Helvetica,sans-Serif" font-size="10.00">src/analysis/input</text>
<text text-anchor="middle" x="883" y="-9" font-family="Helvetica,sans-Serif" font-size="10.00">/goat/GoatReader.cc</text>
</a>
</g>
<!-- Node7&#45;&gt;Node8 -->
<g id="edge18" class="edge"><title>Node7&#45;&gt;Node8</title>
<path fill="none" stroke="midnightblue" d="M730.254,-69.6326C762.536,-58.7201 801.855,-45.4292 832.516,-35.0651"/>
<polygon fill="midnightblue" stroke="midnightblue" points="728.831,-66.419 720.478,-72.937 731.072,-73.0504 728.831,-66.419"/>
</g>
<!-- Node9 -->
<g id="node19" class="node"><title>Node9</title>
<a xlink:href="_test_goat_reader_8cc.html" target="_top" xlink:title="test/analysis/TestGoatReader.cc">
<polygon fill="white" stroke="black" points="651.5,-7.5 651.5,-28.5 812.5,-28.5 812.5,-7.5 651.5,-7.5"/>
<text text-anchor="middle" x="732" y="-15.5" font-family="Helvetica,sans-Serif" font-size="10.00">test/analysis/TestGoatReader.cc</text>
</a>
</g>
<!-- Node7&#45;&gt;Node9 -->
<g id="edge20" class="edge"><title>Node7&#45;&gt;Node9</title>
<path fill="none" stroke="midnightblue" d="M691.387,-65.1634C702.033,-52.8001 714.358,-38.4874 722.613,-28.901"/>
<polygon fill="midnightblue" stroke="midnightblue" points="688.566,-63.0755 684.693,-72.937 693.871,-67.6431 688.566,-63.0755"/>
</g>
<!-- Node10&#45;&gt;Node2 -->
<g id="edge24" class="edge"><title>Node10&#45;&gt;Node2</title>
<path fill="none" stroke="midnightblue" d="M528.757,-66.8774C546.925,-54.0531 568.65,-38.7177 582.859,-28.688"/>
<polygon fill="midnightblue" stroke="midnightblue" points="526.324,-64.3107 520.173,-72.937 530.361,-70.0295 526.324,-64.3107"/>
</g>
<!-- Node10&#45;&gt;Node6 -->
<g id="edge28" class="edge"><title>Node10&#45;&gt;Node6</title>
<path fill="none" stroke="midnightblue" d="M452.404,-68.3522C430.938,-57.6933 405.43,-45.0272 385.367,-35.0651"/>
<polygon fill="midnightblue" stroke="midnightblue" points="451.124,-71.6244 461.637,-72.937 454.237,-65.3547 451.124,-71.6244"/>
</g>
<!-- Node11 -->
<g id="node24" class="node"><title>Node11</title>
<a xlink:href="_pluto_reader_8cc.html" target="_top" xlink:title="src/analysis/input\l/pluto/PlutoReader.cc">
<polygon fill="white" stroke="black" points="433.5,-1 433.5,-35 544.5,-35 544.5,-1 433.5,-1"/>
<text text-anchor="start" x="441.5" y="-22" font-family="Helvetica,sans-Serif" font-size="10.00">src/analysis/input</text>
<text text-anchor="middle" x="489" y="-9" font-family="Helvetica,sans-Serif" font-size="10.00">/pluto/PlutoReader.cc</text>
</a>
</g>
<!-- Node10&#45;&gt;Node11 -->
<g id="edge26" class="edge"><title>Node10&#45;&gt;Node11</title>
<path fill="none" stroke="midnightblue" d="M493.348,-62.7193C492.458,-53.572 491.491,-43.6255 490.696,-35.4407"/>
<polygon fill="midnightblue" stroke="midnightblue" points="489.89,-63.3226 494.341,-72.937 496.857,-62.6452 489.89,-63.3226"/>
</g>
</g>
</svg>
