<?xml version="1.0" encoding="UTF-8" standalone="no"?>
<!DOCTYPE svg PUBLIC "-//W3C//DTD SVG 1.1//EN"
 "http://www.w3.org/Graphics/SVG/1.1/DTD/svg11.dtd">
<!-- Generated by graphviz version 2.26.3 (20100126.1600)
 -->
<!-- Title: src/calibration/DataManager.h Pages: 1 -->
<svg width="1374pt" height="246pt"
 viewBox="0.00 0.00 1374.00 246.00" xmlns="http://www.w3.org/2000/svg" xmlns:xlink="http://www.w3.org/1999/xlink">
<g id="graph1" class="graph" transform="scale(1 1) rotate(0) translate(4 242)">
<title>src/calibration/DataManager.h</title>
<polygon fill="white" stroke="white" points="-4,5 -4,-242 1371,-242 1371,5 -4,5"/>
<!-- Node1 -->
<g id="node1" class="node"><title>Node1</title>
<polygon fill="#bfbfbf" stroke="black" points="532.5,-216.5 532.5,-237.5 679.5,-237.5 679.5,-216.5 532.5,-216.5"/>
<text text-anchor="middle" x="606" y="-224.5" font-family="Helvetica,sans-Serif" font-size="10.00">src/calibration/DataManager.h</text>
</g>
<!-- Node2 -->
<g id="node3" class="node"><title>Node2</title>
<a xlink:href="_ant-calib_8cc.html" target="_top" xlink:title="progs/Ant&#45;calib.cc">
<polygon fill="white" stroke="black" points="-0.5,-151.5 -0.5,-172.5 94.5,-172.5 94.5,-151.5 -0.5,-151.5"/>
<text text-anchor="middle" x="47" y="-159.5" font-family="Helvetica,sans-Serif" font-size="10.00">progs/Ant&#45;calib.cc</text>
</a>
</g>
<!-- Node1&#45;&gt;Node2 -->
<g id="edge2" class="edge"><title>Node1&#45;&gt;Node2</title>
<path fill="none" stroke="midnightblue" d="M522.286,-224.743C421.788,-220.76 248.579,-209.826 103,-180 93.9961,-178.155 84.4017,-175.383 75.7448,-172.563"/>
<polygon fill="midnightblue" stroke="midnightblue" points="522.252,-228.245 532.379,-225.13 522.52,-221.25 522.252,-228.245"/>
</g>
<!-- Node3 -->
<g id="node5" class="node"><title>Node3</title>
<a xlink:href="_data_manager_8cc.html" target="_top" xlink:title="src/calibration/DataManager.cc">
<polygon fill="white" stroke="black" points="112,-151.5 112,-172.5 264,-172.5 264,-151.5 112,-151.5"/>
<text text-anchor="middle" x="188" y="-159.5" font-family="Helvetica,sans-Serif" font-size="10.00">src/calibration/DataManager.cc</text>
</a>
</g>
<!-- Node1&#45;&gt;Node3 -->
<g id="edge4" class="edge"><title>Node1&#45;&gt;Node3</title>
<path fill="none" stroke="midnightblue" d="M522.209,-216.788C454.719,-208.175 357.499,-194.892 273,-180 260.67,-177.827 247.4,-175.171 235.096,-172.573"/>
<polygon fill="midnightblue" stroke="midnightblue" points="522.001,-220.29 532.363,-218.077 522.883,-213.345 522.001,-220.29"/>
</g>
<!-- Node4 -->
<g id="node7" class="node"><title>Node4</title>
<a xlink:href="_editor_8h.html" target="_top" xlink:title="src/calibration/Editor.h">
<polygon fill="white" stroke="black" points="282,-151.5 282,-172.5 396,-172.5 396,-151.5 282,-151.5"/>
<text text-anchor="middle" x="339" y="-159.5" font-family="Helvetica,sans-Serif" font-size="10.00">src/calibration/Editor.h</text>
</a>
</g>
<!-- Node1&#45;&gt;Node4 -->
<g id="edge6" class="edge"><title>Node1&#45;&gt;Node4</title>
<path fill="none" stroke="midnightblue" d="M548.86,-214.223C508.559,-205.069 453.36,-192.244 405,-180 395.789,-177.668 385.89,-175.036 376.632,-172.518"/>
<polygon fill="midnightblue" stroke="midnightblue" points="548.245,-217.673 558.771,-216.469 549.792,-210.846 548.245,-217.673"/>
</g>
<!-- Node11 -->
<g id="node24" class="node"><title>Node11</title>
<a xlink:href="_c_b___time_walk_8cc.html" target="_top" xlink:title="src/calibration/modules\l/CB_TimeWalk.cc">
<polygon fill="white" stroke="black" points="413.5,-145 413.5,-179 530.5,-179 530.5,-145 413.5,-145"/>
<text text-anchor="start" x="421.5" y="-166" font-family="Helvetica,sans-Serif" font-size="10.00">src/calibration/modules</text>
<text text-anchor="middle" x="472" y="-153" font-family="Helvetica,sans-Serif" font-size="10.00">/CB_TimeWalk.cc</text>
</a>
</g>
<!-- Node1&#45;&gt;Node11 -->
<g id="edge26" class="edge"><title>Node1&#45;&gt;Node11</title>
<path fill="none" stroke="midnightblue" d="M575.06,-211.992C554.788,-202.158 528.243,-189.282 507.171,-179.06"/>
<polygon fill="midnightblue" stroke="midnightblue" points="573.647,-215.197 584.172,-216.412 576.703,-208.898 573.647,-215.197"/>
</g>
<!-- Node12 -->
<g id="node26" class="node"><title>Node12</title>
<a xlink:href="_energy_8cc.html" target="_top" xlink:title="src/calibration/modules\l/Energy.cc">
<polygon fill="white" stroke="black" points="547.5,-145 547.5,-179 664.5,-179 664.5,-145 547.5,-145"/>
<text text-anchor="start" x="555.5" y="-166" font-family="Helvetica,sans-Serif" font-size="10.00">src/calibration/modules</text>
<text text-anchor="middle" x="606" y="-153" font-family="Helvetica,sans-Serif" font-size="10.00">/Energy.cc</text>
</a>
</g>
<!-- Node1&#45;&gt;Node12 -->
<g id="edge28" class="edge"><title>Node1&#45;&gt;Node12</title>
<path fill="none" stroke="midnightblue" d="M606,-206.131C606,-197.405 606,-187.391 606,-179.11"/>
<polygon fill="midnightblue" stroke="midnightblue" points="602.5,-206.267 606,-216.267 609.5,-206.267 602.5,-206.267"/>
</g>
<!-- Node13 -->
<g id="node28" class="node"><title>Node13</title>
<a xlink:href="_p_i_d___phi_angle_8cc.html" target="_top" xlink:title="src/calibration/modules\l/PID_PhiAngle.cc">
<polygon fill="white" stroke="black" points="681.5,-145 681.5,-179 798.5,-179 798.5,-145 681.5,-145"/>
<text text-anchor="start" x="689.5" y="-166" font-family="Helvetica,sans-Serif" font-size="10.00">src/calibration/modules</text>
<text text-anchor="middle" x="740" y="-153" font-family="Helvetica,sans-Serif" font-size="10.00">/PID_PhiAngle.cc</text>
</a>
</g>
<!-- Node1&#45;&gt;Node13 -->
<g id="edge30" class="edge"><title>Node1&#45;&gt;Node13</title>
<path fill="none" stroke="midnightblue" d="M636.94,-211.992C657.212,-202.158 683.757,-189.282 704.829,-179.06"/>
<polygon fill="midnightblue" stroke="midnightblue" points="635.297,-208.898 627.828,-216.412 638.353,-215.197 635.297,-208.898"/>
</g>
<!-- Node14 -->
<g id="node30" class="node"><title>Node14</title>
<a xlink:href="_time_8cc.html" target="_top" xlink:title="src/calibration/modules\l/Time.cc">
<polygon fill="white" stroke="black" points="815.5,-145 815.5,-179 932.5,-179 932.5,-145 815.5,-145"/>
<text text-anchor="start" x="823.5" y="-166" font-family="Helvetica,sans-Serif" font-size="10.00">src/calibration/modules</text>
<text text-anchor="middle" x="874" y="-153" font-family="Helvetica,sans-Serif" font-size="10.00">/Time.cc</text>
</a>
</g>
<!-- Node1&#45;&gt;Node14 -->
<g id="edge32" class="edge"><title>Node1&#45;&gt;Node14</title>
<path fill="none" stroke="midnightblue" d="M663.126,-214.166C703.42,-204.986 758.616,-192.153 807,-180 809.687,-179.325 812.432,-178.626 815.202,-177.913"/>
<polygon fill="midnightblue" stroke="midnightblue" points="662.191,-210.789 653.216,-216.419 663.743,-217.615 662.191,-210.789"/>
</g>
<!-- Node15 -->
<g id="node32" class="node"><title>Node15</title>
<a xlink:href="_setup_8h.html" target="_top" xlink:title="src/expconfig/setups\l/Setup.h">
<polygon fill="white" stroke="black" points="949.5,-145 949.5,-179 1056.5,-179 1056.5,-145 949.5,-145"/>
<text text-anchor="start" x="957.5" y="-166" font-family="Helvetica,sans-Serif" font-size="10.00">src/expconfig/setups</text>
<text text-anchor="middle" x="1003" y="-153" font-family="Helvetica,sans-Serif" font-size="10.00">/Setup.h</text>
</a>
</g>
<!-- Node1&#45;&gt;Node15 -->
<g id="edge34" class="edge"><title>Node1&#45;&gt;Node15</title>
<path fill="none" stroke="midnightblue" d="M689.968,-218.594C758.079,-210.968 856.334,-198.132 941,-180 943.74,-179.413 946.536,-178.769 949.351,-178.085"/>
<polygon fill="midnightblue" stroke="midnightblue" points="689.277,-215.149 679.722,-219.727 690.047,-222.106 689.277,-215.149"/>
</g>
<!-- Node25 -->
<g id="node52" class="node"><title>Node25</title>
<a xlink:href="_test_data_manager_8cc.html" target="_top" xlink:title="test/calibration/TestData\lManager.cc">
<polygon fill="white" stroke="black" points="1074,-145 1074,-179 1198,-179 1198,-145 1074,-145"/>
<text text-anchor="start" x="1082" y="-166" font-family="Helvetica,sans-Serif" font-size="10.00">test/calibration/TestData</text>
<text text-anchor="middle" x="1136" y="-153" font-family="Helvetica,sans-Serif" font-size="10.00">Manager.cc</text>
</a>
</g>
<!-- Node1&#45;&gt;Node25 -->
<g id="edge54" class="edge"><title>Node1&#45;&gt;Node25</title>
<path fill="none" stroke="midnightblue" d="M689.726,-222.117C782.125,-215.872 934.992,-203.009 1065,-180 1067.88,-179.49 1070.82,-178.927 1073.77,-178.324"/>
<polygon fill="midnightblue" stroke="midnightblue" points="689.339,-218.635 679.594,-222.791 689.804,-225.619 689.339,-218.635"/>
</g>
<!-- Node5 -->
<g id="node9" class="node"><title>Node5</title>
<a xlink:href="_editor_8cc.html" target="_top" xlink:title="src/calibration/Editor.cc">
<polygon fill="white" stroke="black" points="156.5,-79.5 156.5,-100.5 275.5,-100.5 275.5,-79.5 156.5,-79.5"/>
<text text-anchor="middle" x="216" y="-87.5" font-family="Helvetica,sans-Serif" font-size="10.00">src/calibration/Editor.cc</text>
</a>
</g>
<!-- Node4&#45;&gt;Node5 -->
<g id="edge8" class="edge"><title>Node4&#45;&gt;Node5</title>
<path fill="none" stroke="midnightblue" d="M312.036,-146.216C288.432,-132.399 254.785,-112.703 234.224,-100.667"/>
<polygon fill="midnightblue" stroke="midnightblue" points="310.453,-149.345 320.851,-151.376 313.989,-143.304 310.453,-149.345"/>
</g>
<!-- Node6 -->
<g id="node11" class="node"><title>Node6</title>
<a xlink:href="_editor_canvas_8h.html" target="_top" xlink:title="src/calibration/gui\l/EditorCanvas.h">
<polygon fill="white" stroke="black" points="292.5,-73 292.5,-107 385.5,-107 385.5,-73 292.5,-73"/>
<text text-anchor="start" x="300.5" y="-94" font-family="Helvetica,sans-Serif" font-size="10.00">src/calibration/gui</text>
<text text-anchor="middle" x="339" y="-81" font-family="Helvetica,sans-Serif" font-size="10.00">/EditorCanvas.h</text>
</a>
</g>
<!-- Node4&#45;&gt;Node6 -->
<g id="edge10" class="edge"><title>Node4&#45;&gt;Node6</title>
<path fill="none" stroke="midnightblue" d="M339,-141.132C339,-130.326 339,-117.296 339,-107.094"/>
<polygon fill="midnightblue" stroke="midnightblue" points="335.5,-141.376 339,-151.376 342.5,-141.376 335.5,-141.376"/>
</g>
<!-- Node7 -->
<g id="node13" class="node"><title>Node7</title>
<a xlink:href="_editor_canvas_8cc.html" target="_top" xlink:title="src/calibration/gui\l/EditorCanvas.cc">
<polygon fill="white" stroke="black" points="181.5,-1 181.5,-35 274.5,-35 274.5,-1 181.5,-1"/>
<text text-anchor="start" x="189.5" y="-22" font-family="Helvetica,sans-Serif" font-size="10.00">src/calibration/gui</text>
<text text-anchor="middle" x="228" y="-9" font-family="Helvetica,sans-Serif" font-size="10.00">/EditorCanvas.cc</text>
</a>
</g>
<!-- Node4&#45;&gt;Node7 -->
<g id="edge16" class="edge"><title>Node4&#45;&gt;Node7</title>
<path fill="none" stroke="midnightblue" d="M290.861,-148.767C234.646,-133.26 149.115,-109.475 148,-108 138.347,-95.2398 140.491,-86.1284 148,-72 156.572,-55.8715 172.348,-43.6878 187.639,-35.0136"/>
<polygon fill="midnightblue" stroke="midnightblue" points="290.074,-152.181 300.645,-151.464 291.934,-145.432 290.074,-152.181"/>
</g>
<!-- Node9 -->
<g id="node18" class="node"><title>Node9</title>
<a xlink:href="_editor_window_8h.html" target="_top" xlink:title="src/calibration/gui\l/EditorWindow.h">
<polygon fill="white" stroke="black" points="402.5,-73 402.5,-107 495.5,-107 495.5,-73 402.5,-73"/>
<text text-anchor="start" x="410.5" y="-94" font-family="Helvetica,sans-Serif" font-size="10.00">src/calibration/gui</text>
<text text-anchor="middle" x="449" y="-81" font-family="Helvetica,sans-Serif" font-size="10.00">/EditorWindow.h</text>
</a>
</g>
<!-- Node4&#45;&gt;Node9 -->
<g id="edge18" class="edge"><title>Node4&#45;&gt;Node9</title>
<path fill="none" stroke="midnightblue" d="M363.829,-145.748C381.43,-134.228 405.001,-118.8 422.884,-107.094"/>
<polygon fill="midnightblue" stroke="midnightblue" points="361.681,-142.971 355.231,-151.376 365.515,-148.828 361.681,-142.971"/>
</g>
<!-- Node6&#45;&gt;Node7 -->
<g id="edge12" class="edge"><title>Node6&#45;&gt;Node7</title>
<path fill="none" stroke="midnightblue" d="M304.102,-67.3637C288.067,-56.9622 269.357,-44.826 254.501,-35.19"/>
<polygon fill="midnightblue" stroke="midnightblue" points="302.4,-70.4314 312.695,-72.937 306.21,-64.5587 302.4,-70.4314"/>
</g>
<!-- Node8 -->
<g id="node15" class="node"><title>Node8</title>
<a xlink:href="_editor_window_8cc.html" target="_top" xlink:title="src/calibration/gui\l/EditorWindow.cc">
<polygon fill="white" stroke="black" points="292,-1 292,-35 386,-35 386,-1 292,-1"/>
<text text-anchor="start" x="300" y="-22" font-family="Helvetica,sans-Serif" font-size="10.00">src/calibration/gui</text>
<text text-anchor="middle" x="339" y="-9" font-family="Helvetica,sans-Serif" font-size="10.00">/EditorWindow.cc</text>
</a>
</g>
<!-- Node6&#45;&gt;Node8 -->
<g id="edge14" class="edge"><title>Node6&#45;&gt;Node8</title>
<path fill="none" stroke="midnightblue" d="M339,-62.7193C339,-53.572 339,-43.6255 339,-35.4407"/>
<polygon fill="midnightblue" stroke="midnightblue" points="335.5,-62.937 339,-72.937 342.5,-62.937 335.5,-62.937"/>
</g>
<!-- Node9&#45;&gt;Node7 -->
<g id="edge22" class="edge"><title>Node9&#45;&gt;Node7</title>
<path fill="none" stroke="midnightblue" d="M392.783,-71.6074C343.111,-55.439 329.423,-51.1244 283,-36 280.23,-35.0974 277.381,-34.1684 274.508,-33.2304"/>
<polygon fill="midnightblue" stroke="midnightblue" points="391.9,-75.0008 402.492,-74.7696 394.068,-68.3449 391.9,-75.0008"/>
</g>
<!-- Node9&#45;&gt;Node8 -->
<g id="edge24" class="edge"><title>Node9&#45;&gt;Node8</title>
<path fill="none" stroke="midnightblue" d="M414.417,-67.3637C398.526,-56.9622 379.984,-44.826 365.263,-35.19"/>
<polygon fill="midnightblue" stroke="midnightblue" points="412.648,-70.3888 422.932,-72.937 416.481,-64.5319 412.648,-70.3888"/>
</g>
<!-- Node10 -->
<g id="node20" class="node"><title>Node10</title>
<a xlink:href="_ant-calib-editor_8cc.html" target="_top" xlink:title="progs/Ant&#45;calib&#45;editor.cc">
<polygon fill="white" stroke="black" points="404,-7.5 404,-28.5 526,-28.5 526,-7.5 404,-7.5"/>
<text text-anchor="middle" x="465" y="-15.5" font-family="Helvetica,sans-Serif" font-size="10.00">progs/Ant&#45;calib&#45;editor.cc</text>
</a>
</g>
<!-- Node9&#45;&gt;Node10 -->
<g id="edge20" class="edge"><title>Node9&#45;&gt;Node10</title>
<path fill="none" stroke="midnightblue" d="M454.994,-63.0261C457.627,-51.1798 460.569,-37.9396 462.578,-28.901"/>
<polygon fill="midnightblue" stroke="midnightblue" points="451.545,-62.4158 452.792,-72.937 458.378,-63.9344 451.545,-62.4158"/>
</g>
<!-- Node16 -->
<g id="node34" class="node"><title>Node16</title>
<a xlink:href="_exp_config_8cc.html" target="_top" xlink:title="src/expconfig/ExpConfig.cc">
<polygon fill="white" stroke="black" points="1105.5,-79.5 1105.5,-100.5 1242.5,-100.5 1242.5,-79.5 1105.5,-79.5"/>
<text text-anchor="middle" x="1174" y="-87.5" font-family="Helvetica,sans-Serif" font-size="10.00">src/expconfig/ExpConfig.cc</text>
</a>
</g>
<!-- Node15&#45;&gt;Node16 -->
<g id="edge36" class="edge"><title>Node15&#45;&gt;Node16</title>
<path fill="none" stroke="midnightblue" d="M1053.02,-140.94C1084.49,-127.687 1123.77,-111.151 1148.87,-100.582"/>
<polygon fill="midnightblue" stroke="midnightblue" points="1051.38,-137.831 1043.52,-144.937 1054.1,-144.282 1051.38,-137.831"/>
</g>
<!-- Node17 -->
<g id="node36" class="node"><title>Node17</title>
<a xlink:href="_setup_8cc.html" target="_top" xlink:title="src/expconfig/setups\l/Setup.cc">
<polygon fill="white" stroke="black" points="1259.5,-73 1259.5,-107 1366.5,-107 1366.5,-73 1259.5,-73"/>
<text text-anchor="start" x="1267.5" y="-94" font-family="Helvetica,sans-Serif" font-size="10.00">src/expconfig/setups</text>
<text text-anchor="middle" x="1313" y="-81" font-family="Helvetica,sans-Serif" font-size="10.00">/Setup.cc</text>
</a>
</g>
<!-- Node15&#45;&gt;Node17 -->
<g id="edge38" class="edge"><title>Node15&#45;&gt;Node17</title>
<path fill="none" stroke="midnightblue" d="M1066.45,-143.758C1148.59,-124.47 1172.19,-127.025 1251,-108 1253.72,-107.342 1256.51,-106.642 1259.31,-105.912"/>
<polygon fill="midnightblue" stroke="midnightblue" points="1065.6,-140.362 1056.69,-146.088 1067.23,-147.171 1065.6,-140.362"/>
</g>
<!-- Node18 -->
<g id="node38" class="node"><title>Node18</title>
<a xlink:href="_setup__2014___e_p_t_8h.html" target="_top" xlink:title="src/expconfig/setups\l/Setup_2014_EPT.h">
<polygon fill="white" stroke="black" points="733.5,-73 733.5,-107 840.5,-107 840.5,-73 733.5,-73"/>
<text text-anchor="start" x="741.5" y="-94" font-family="Helvetica,sans-Serif" font-size="10.00">src/expconfig/setups</text>
<text text-anchor="middle" x="787" y="-81" font-family="Helvetica,sans-Serif" font-size="10.00">/Setup_2014_EPT.h</text>
</a>
</g>
<!-- Node15&#45;&gt;Node18 -->
<g id="edge40" class="edge"><title>Node15&#45;&gt;Node18</title>
<path fill="none" stroke="midnightblue" d="M942.321,-141.774C909.504,-130.835 869.422,-117.474 838.195,-107.065"/>
<polygon fill="midnightblue" stroke="midnightblue" points="941.217,-145.095 951.811,-144.937 943.431,-138.454 941.217,-145.095"/>
</g>
<!-- Node23 -->
<g id="node48" class="node"><title>Node23</title>
<a xlink:href="_setup___test_8cc.html" target="_top" xlink:title="src/expconfig/setups\l/Setup_Test.cc">
<polygon fill="white" stroke="black" points="857.5,-73 857.5,-107 964.5,-107 964.5,-73 857.5,-73"/>
<text text-anchor="start" x="865.5" y="-94" font-family="Helvetica,sans-Serif" font-size="10.00">src/expconfig/setups</text>
<text text-anchor="middle" x="911" y="-81" font-family="Helvetica,sans-Serif" font-size="10.00">/Setup_Test.cc</text>
</a>
</g>
<!-- Node15&#45;&gt;Node23 -->
<g id="edge50" class="edge"><title>Node15&#45;&gt;Node23</title>
<path fill="none" stroke="midnightblue" d="M972.963,-138.493C959.926,-128.29 944.936,-116.558 932.965,-107.19"/>
<polygon fill="midnightblue" stroke="midnightblue" points="971.165,-141.53 981.197,-144.937 975.479,-136.018 971.165,-141.53"/>
</g>
<!-- Node24 -->
<g id="node50" class="node"><title>Node24</title>
<a xlink:href="_setup_registry_8cc.html" target="_top" xlink:title="src/expconfig/setups\l/SetupRegistry.cc">
<polygon fill="white" stroke="black" points="981.5,-73 981.5,-107 1088.5,-107 1088.5,-73 981.5,-73"/>
<text text-anchor="start" x="989.5" y="-94" font-family="Helvetica,sans-Serif" font-size="10.00">src/expconfig/setups</text>
<text text-anchor="middle" x="1035" y="-81" font-family="Helvetica,sans-Serif" font-size="10.00">/SetupRegistry.cc</text>
</a>
</g>
<!-- Node15&#45;&gt;Node24 -->
<g id="edge52" class="edge"><title>Node15&#45;&gt;Node24</title>
<path fill="none" stroke="midnightblue" d="M1014.73,-135.612C1018.9,-126.223 1023.49,-115.892 1027.25,-107.441"/>
<polygon fill="midnightblue" stroke="midnightblue" points="1011.45,-134.377 1010.58,-144.937 1017.84,-137.22 1011.45,-134.377"/>
</g>
<!-- Node19 -->
<g id="node40" class="node"><title>Node19</title>
<a xlink:href="_setup__2014__07___e_p_t___prod_8cc.html" target="_top" xlink:title="src/expconfig/setups\l/Setup_2014_07_EPT_Prod.cc">
<polygon fill="white" stroke="black" points="1007.5,-1 1007.5,-35 1158.5,-35 1158.5,-1 1007.5,-1"/>
<text text-anchor="start" x="1015.5" y="-22" font-family="Helvetica,sans-Serif" font-size="10.00">src/expconfig/setups</text>
<text text-anchor="middle" x="1083" y="-9" font-family="Helvetica,sans-Serif" font-size="10.00">/Setup_2014_07_EPT_Prod.cc</text>
</a>
</g>
<!-- Node18&#45;&gt;Node19 -->
<g id="edge42" class="edge"><title>Node18&#45;&gt;Node19</title>
<path fill="none" stroke="midnightblue" d="M850.703,-71.6146C908.151,-56.7977 963.946,-43.9699 1007.39,-34.3262"/>
<polygon fill="midnightblue" stroke="midnightblue" points="849.518,-68.306 840.718,-74.2058 851.276,-75.0816 849.518,-68.306"/>
</g>
<!-- Node20 -->
<g id="node42" class="node"><title>Node20</title>
<a xlink:href="_setup__2014__10___e_p_t___prod_8cc.html" target="_top" xlink:title="src/expconfig/setups\l/Setup_2014_10_EPT_Prod.cc">
<polygon fill="white" stroke="black" points="543.5,-1 543.5,-35 694.5,-35 694.5,-1 543.5,-1"/>
<text text-anchor="start" x="551.5" y="-22" font-family="Helvetica,sans-Serif" font-size="10.00">src/expconfig/setups</text>
<text text-anchor="middle" x="619" y="-9" font-family="Helvetica,sans-Serif" font-size="10.00">/Setup_2014_10_EPT_Prod.cc</text>
</a>
</g>
<!-- Node18&#45;&gt;Node20 -->
<g id="edge44" class="edge"><title>Node18&#45;&gt;Node20</title>
<path fill="none" stroke="midnightblue" d="M737.822,-68.9238C712.68,-58.1485 682.48,-45.2059 658.819,-35.0651"/>
<polygon fill="midnightblue" stroke="midnightblue" points="736.616,-72.2148 747.186,-72.937 739.374,-65.7807 736.616,-72.2148"/>
</g>
<!-- Node21 -->
<g id="node44" class="node"><title>Node21</title>
<a xlink:href="_setup__2014__12___e_p_t___prod_8cc.html" target="_top" xlink:title="src/expconfig/setups\l/Setup_2014_12_EPT_Prod.cc">
<polygon fill="white" stroke="black" points="711.5,-1 711.5,-35 862.5,-35 862.5,-1 711.5,-1"/>
<text text-anchor="start" x="719.5" y="-22" font-family="Helvetica,sans-Serif" font-size="10.00">src/expconfig/setups</text>
<text text-anchor="middle" x="787" y="-9" font-family="Helvetica,sans-Serif" font-size="10.00">/Setup_2014_12_EPT_Prod.cc</text>
</a>
</g>
<!-- Node18&#45;&gt;Node21 -->
<g id="edge46" class="edge"><title>Node18&#45;&gt;Node21</title>
<path fill="none" stroke="midnightblue" d="M787,-62.7193C787,-53.572 787,-43.6255 787,-35.4407"/>
<polygon fill="midnightblue" stroke="midnightblue" points="783.5,-62.937 787,-72.937 790.5,-62.937 783.5,-62.937"/>
</g>
<!-- Node22 -->
<g id="node46" class="node"><title>Node22</title>
<a xlink:href="_setup__2014___e_p_t_8cc.html" target="_top" xlink:title="src/expconfig/setups\l/Setup_2014_EPT.cc">
<polygon fill="white" stroke="black" points="880,-1 880,-35 990,-35 990,-1 880,-1"/>
<text text-anchor="start" x="888" y="-22" font-family="Helvetica,sans-Serif" font-size="10.00">src/expconfig/setups</text>
<text text-anchor="middle" x="935" y="-9" font-family="Helvetica,sans-Serif" font-size="10.00">/Setup_2014_EPT.cc</text>
</a>
</g>
<!-- Node18&#45;&gt;Node22 -->
<g id="edge48" class="edge"><title>Node18&#45;&gt;Node22</title>
<path fill="none" stroke="midnightblue" d="M831.204,-68.4954C853.175,-57.8069 879.352,-45.0718 899.922,-35.0651"/>
<polygon fill="midnightblue" stroke="midnightblue" points="829.535,-65.415 822.074,-72.937 832.597,-71.7096 829.535,-65.415"/>
</g>
</g>
</svg>
