<?xml version="1.0" encoding="UTF-8" standalone="no"?>
<!DOCTYPE svg PUBLIC "-//W3C//DTD SVG 1.1//EN"
 "http://www.w3.org/Graphics/SVG/1.1/DTD/svg11.dtd">
<!-- Generated by graphviz version 2.26.3 (20100126.1600)
 -->
<!-- Title: src/calibration/gui/Dialogs.h Pages: 1 -->
<svg width="266pt" height="188pt"
 viewBox="0.00 0.00 266.00 188.00" xmlns="http://www.w3.org/2000/svg" xmlns:xlink="http://www.w3.org/1999/xlink">
<g id="graph1" class="graph" transform="scale(1 1) rotate(0) translate(4 184)">
<title>src/calibration/gui/Dialogs.h</title>
<polygon fill="white" stroke="white" points="-4,5 -4,-184 263,-184 263,5 -4,5"/>
<!-- Node1 -->
<g id="node1" class="node"><title>Node1</title>
<polygon fill="#bfbfbf" stroke="black" points="54.5,-145 54.5,-179 147.5,-179 147.5,-145 54.5,-145"/>
<text text-anchor="start" x="62.5" y="-166" font-family="Helvetica,sans-Serif" font-size="10.00">src/calibration/gui</text>
<text text-anchor="middle" x="101" y="-153" font-family="Helvetica,sans-Serif" font-size="10.00">/Dialogs.h</text>
</g>
<!-- Node2 -->
<g id="node3" class="node"><title>Node2</title>
<a xlink:href="_dialogs_8cc.html" target="_top" xlink:title="src/calibration/gui\l/Dialogs.cc">
<polygon fill="white" stroke="black" points="-0.5,-73 -0.5,-107 92.5,-107 92.5,-73 -0.5,-73"/>
<text text-anchor="start" x="7.5" y="-94" font-family="Helvetica,sans-Serif" font-size="10.00">src/calibration/gui</text>
<text text-anchor="middle" x="46" y="-81" font-family="Helvetica,sans-Serif" font-size="10.00">/Dialogs.cc</text>
</a>
</g>
<!-- Node1&#45;&gt;Node2 -->
<g id="edge2" class="edge"><title>Node1&#45;&gt;Node2</title>
<path fill="none" stroke="midnightblue" d="M81.7441,-136.792C74.3371,-127.096 66.0507,-116.248 59.3227,-107.441"/>
<polygon fill="midnightblue" stroke="midnightblue" points="79.114,-139.115 87.9658,-144.937 84.6767,-134.866 79.114,-139.115"/>
</g>
<!-- Node3 -->
<g id="node5" class="node"><title>Node3</title>
<a xlink:href="_editor_canvas_8h.html" target="_top" xlink:title="src/calibration/gui\l/EditorCanvas.h">
<polygon fill="white" stroke="black" points="109.5,-73 109.5,-107 202.5,-107 202.5,-73 109.5,-73"/>
<text text-anchor="start" x="117.5" y="-94" font-family="Helvetica,sans-Serif" font-size="10.00">src/calibration/gui</text>
<text text-anchor="middle" x="156" y="-81" font-family="Helvetica,sans-Serif" font-size="10.00">/EditorCanvas.h</text>
</a>
</g>
<!-- Node1&#45;&gt;Node3 -->
<g id="edge4" class="edge"><title>Node1&#45;&gt;Node3</title>
<path fill="none" stroke="midnightblue" d="M120.256,-136.792C127.663,-127.096 135.949,-116.248 142.677,-107.441"/>
<polygon fill="midnightblue" stroke="midnightblue" points="117.323,-134.866 114.034,-144.937 122.886,-139.115 117.323,-134.866"/>
</g>
<!-- Node4 -->
<g id="node7" class="node"><title>Node4</title>
<a xlink:href="_editor_canvas_8cc.html" target="_top" xlink:title="src/calibration/gui\l/EditorCanvas.cc">
<polygon fill="white" stroke="black" points="53.5,-1 53.5,-35 146.5,-35 146.5,-1 53.5,-1"/>
<text text-anchor="start" x="61.5" y="-22" font-family="Helvetica,sans-Serif" font-size="10.00">src/calibration/gui</text>
<text text-anchor="middle" x="100" y="-9" font-family="Helvetica,sans-Serif" font-size="10.00">/EditorCanvas.cc</text>
</a>
</g>
<!-- Node3&#45;&gt;Node4 -->
<g id="edge6" class="edge"><title>Node3&#45;&gt;Node4</title>
<path fill="none" stroke="midnightblue" d="M136.394,-64.7923C128.852,-55.0958 120.415,-44.2482 113.565,-35.4407"/>
<polygon fill="midnightblue" stroke="midnightblue" points="133.827,-67.1923 142.729,-72.937 139.352,-62.8947 133.827,-67.1923"/>
</g>
<!-- Node5 -->
<g id="node9" class="node"><title>Node5</title>
<a xlink:href="_editor_window_8cc.html" target="_top" xlink:title="src/calibration/gui\l/EditorWindow.cc">
<polygon fill="white" stroke="black" points="164,-1 164,-35 258,-35 258,-1 164,-1"/>
<text text-anchor="start" x="172" y="-22" font-family="Helvetica,sans-Serif" font-size="10.00">src/calibration/gui</text>
<text text-anchor="middle" x="211" y="-9" font-family="Helvetica,sans-Serif" font-size="10.00">/EditorWindow.cc</text>
</a>
</g>
<!-- Node3&#45;&gt;Node5 -->
<g id="edge8" class="edge"><title>Node3&#45;&gt;Node5</title>
<path fill="none" stroke="midnightblue" d="M175.256,-64.7923C182.663,-55.0958 190.949,-44.2482 197.677,-35.4407"/>
<polygon fill="midnightblue" stroke="midnightblue" points="172.323,-62.8656 169.034,-72.937 177.886,-67.1149 172.323,-62.8656"/>
</g>
</g>
</svg>
