<?xml version="1.0" encoding="UTF-8" standalone="no"?>
<!DOCTYPE svg PUBLIC "-//W3C//DTD SVG 1.1//EN"
 "http://www.w3.org/Graphics/SVG/1.1/DTD/svg11.dtd">
<!-- Generated by graphviz version 2.26.3 (20100126.1600)
 -->
<!-- Title: src/expconfig/detectors/EPT.cc Pages: 1 -->
<svg width="3953pt" height="812pt"
 viewBox="0.00 0.00 3953.00 812.00" xmlns="http://www.w3.org/2000/svg" xmlns:xlink="http://www.w3.org/1999/xlink">
<g id="graph1" class="graph" transform="scale(1 1) rotate(0) translate(4 808)">
<title>src/expconfig/detectors/EPT.cc</title>
<polygon fill="white" stroke="white" points="-4,5 -4,-808 3950,-808 3950,5 -4,5"/>
<!-- Node1 -->
<g id="node1" class="node"><title>Node1</title>
<polygon fill="#bfbfbf" stroke="black" points="3583.5,-769 3583.5,-803 3702.5,-803 3702.5,-769 3583.5,-769"/>
<text text-anchor="start" x="3591.5" y="-790" font-family="Helvetica,sans-Serif" font-size="10.00">src/expconfig/detectors</text>
<text text-anchor="middle" x="3643" y="-777" font-family="Helvetica,sans-Serif" font-size="10.00">/EPT.cc</text>
</g>
<!-- Node2 -->
<g id="node3" class="node"><title>Node2</title>
<a xlink:href="_e_p_t_8h.html" target="_top" xlink:title="EPT.h">
<polygon fill="white" stroke="black" points="3555,-652.5 3555,-673.5 3599,-673.5 3599,-652.5 3555,-652.5"/>
<text text-anchor="middle" x="3577" y="-660.5" font-family="Helvetica,sans-Serif" font-size="10.00">EPT.h</text>
</a>
</g>
<!-- Node1&#45;&gt;Node2 -->
<g id="edge2" class="edge"><title>Node1&#45;&gt;Node2</title>
<path fill="none" stroke="midnightblue" d="M3633.82,-768.897C3621.68,-746.271 3600.33,-706.477 3587.54,-682.643"/>
<polygon fill="midnightblue" stroke="midnightblue" points="3590.6,-680.944 3582.79,-673.787 3584.43,-684.254 3590.6,-680.944"/>
</g>
<!-- Node31 -->
<g id="node76" class="node"><title>Node31</title>
<polygon fill="white" stroke="#bfbfbf" points="3905,-116.5 3905,-137.5 3945,-137.5 3945,-116.5 3905,-116.5"/>
<text text-anchor="middle" x="3925" y="-124.5" font-family="Helvetica,sans-Serif" font-size="10.00">limits</text>
</g>
<!-- Node1&#45;&gt;Node31 -->
<g id="edge346" class="edge"><title>Node1&#45;&gt;Node31</title>
<path fill="none" stroke="midnightblue" d="M3702.52,-774.49C3759.55,-759.601 3837,-727.505 3837,-663 3837,-663 3837,-663 3837,-243 3837,-200.758 3874.5,-164.236 3900.54,-143.966"/>
<polygon fill="midnightblue" stroke="midnightblue" points="3902.96,-146.528 3908.86,-137.73 3898.76,-140.926 3902.96,-146.528"/>
</g>
<!-- Node64 -->
<g id="node216" class="node"><title>Node64</title>
<a xlink:href="_t_header_info_8h.html" target="_top" xlink:title="tree/THeaderInfo.h">
<polygon fill="white" stroke="black" points="3578,-290.5 3578,-311.5 3676,-311.5 3676,-290.5 3578,-290.5"/>
<text text-anchor="middle" x="3627" y="-298.5" font-family="Helvetica,sans-Serif" font-size="10.00">tree/THeaderInfo.h</text>
</a>
</g>
<!-- Node1&#45;&gt;Node64 -->
<g id="edge344" class="edge"><title>Node1&#45;&gt;Node64</title>
<path fill="none" stroke="midnightblue" d="M3651.81,-768.996C3663.04,-745.722 3681,-702.336 3681,-663 3681,-663 3681,-663 3681,-431 3681,-388.742 3656.36,-344.262 3640.37,-319.84"/>
<polygon fill="midnightblue" stroke="midnightblue" points="3643.24,-317.83 3634.74,-311.508 3637.44,-321.752 3643.24,-317.83"/>
</g>
<!-- Node65 -->
<g id="node234" class="node"><title>Node65</title>
<polygon fill="white" stroke="#bfbfbf" points="3604.5,-594.5 3604.5,-615.5 3653.5,-615.5 3653.5,-594.5 3604.5,-594.5"/>
<text text-anchor="middle" x="3629" y="-602.5" font-family="Helvetica,sans-Serif" font-size="10.00">cassert</text>
</g>
<!-- Node1&#45;&gt;Node65 -->
<g id="edge348" class="edge"><title>Node1&#45;&gt;Node65</title>
<path fill="none" stroke="midnightblue" d="M3641.68,-768.972C3639.12,-735.779 3633.45,-662.504 3630.64,-626.216"/>
<polygon fill="midnightblue" stroke="midnightblue" points="3634.1,-625.532 3629.84,-615.832 3627.12,-626.072 3634.1,-625.532"/>
</g>
<!-- Node66 -->
<g id="node236" class="node"><title>Node66</title>
<a xlink:href="_e_p_t__2014__elements_8h.html" target="_top" xlink:title="detail/EPT_2014_elements.h">
<polygon fill="white" stroke="black" points="3435,-710.5 3435,-731.5 3577,-731.5 3577,-710.5 3435,-710.5"/>
<text text-anchor="middle" x="3506" y="-718.5" font-family="Helvetica,sans-Serif" font-size="10.00">detail/EPT_2014_elements.h</text>
</a>
</g>
<!-- Node1&#45;&gt;Node66 -->
<g id="edge340" class="edge"><title>Node1&#45;&gt;Node66</title>
<path fill="none" stroke="midnightblue" d="M3607,-768.922C3585.51,-758.726 3558.47,-745.894 3537.77,-736.074"/>
<polygon fill="midnightblue" stroke="midnightblue" points="3539,-732.783 3528.46,-731.658 3536,-739.107 3539,-732.783"/>
</g>
<!-- Node3 -->
<g id="node5" class="node"><title>Node3</title>
<a xlink:href="_detector__t_8h.html" target="_top" xlink:title="base/Detector_t.h">
<polygon fill="white" stroke="black" points="2826.5,-116.5 2826.5,-137.5 2921.5,-137.5 2921.5,-116.5 2826.5,-116.5"/>
<text text-anchor="middle" x="2874" y="-124.5" font-family="Helvetica,sans-Serif" font-size="10.00">base/Detector_t.h</text>
</a>
</g>
<!-- Node2&#45;&gt;Node3 -->
<g id="edge4" class="edge"><title>Node2&#45;&gt;Node3</title>
<path fill="none" stroke="midnightblue" d="M3573.62,-652.194C3566,-629.029 3545.71,-573.643 3515,-536 3348.32,-331.698 3280.99,-291.59 3045,-174 3009.13,-156.129 2965.54,-144.281 2931.34,-136.951"/>
<polygon fill="midnightblue" stroke="midnightblue" points="2932.01,-133.515 2921.51,-134.911 2930.59,-140.369 2932.01,-133.515"/>
</g>
<!-- Node12 -->
<g id="node24" class="node"><title>Node12</title>
<a xlink:href="_unpacker_acqu_8h.html" target="_top" xlink:title="unpacker/UnpackerAcqu.h">
<polygon fill="white" stroke="black" points="2264,-594.5 2264,-615.5 2396,-615.5 2396,-594.5 2264,-594.5"/>
<text text-anchor="middle" x="2330" y="-602.5" font-family="Helvetica,sans-Serif" font-size="10.00">unpacker/UnpackerAcqu.h</text>
</a>
</g>
<!-- Node2&#45;&gt;Node12 -->
<g id="edge24" class="edge"><title>Node2&#45;&gt;Node12</title>
<path fill="none" stroke="midnightblue" d="M3554.83,-661.969C3414.94,-655.462 2652.68,-620.008 2406.62,-608.564"/>
<polygon fill="midnightblue" stroke="midnightblue" points="2406.49,-605.054 2396.34,-608.086 2406.17,-612.046 2406.49,-605.054"/>
</g>
<!-- Node2&#45;&gt;Node65 -->
<g id="edge338" class="edge"><title>Node2&#45;&gt;Node65</title>
<path fill="none" stroke="midnightblue" d="M3586.54,-652.362C3593.87,-644.186 3604.16,-632.702 3612.78,-623.091"/>
<polygon fill="midnightblue" stroke="midnightblue" points="3615.45,-625.353 3619.52,-615.571 3610.24,-620.68 3615.45,-625.353"/>
</g>
<!-- Node4 -->
<g id="node7" class="node"><title>Node4</title>
<a xlink:href="printable_8h.html" target="_top" xlink:title="base/printable.h">
<polygon fill="white" stroke="black" points="2718,-58.5 2718,-79.5 2804,-79.5 2804,-58.5 2718,-58.5"/>
<text text-anchor="middle" x="2761" y="-66.5" font-family="Helvetica,sans-Serif" font-size="10.00">base/printable.h</text>
</a>
</g>
<!-- Node3&#45;&gt;Node4 -->
<g id="edge6" class="edge"><title>Node3&#45;&gt;Node4</title>
<path fill="none" stroke="midnightblue" d="M2853.54,-116.497C2835.97,-107.479 2810.42,-94.3649 2790.61,-84.2006"/>
<polygon fill="midnightblue" stroke="midnightblue" points="2792.19,-81.0738 2781.69,-79.6212 2788.99,-87.3014 2792.19,-81.0738"/>
</g>
<!-- Node5 -->
<g id="node9" class="node"><title>Node5</title>
<polygon fill="white" stroke="#bfbfbf" points="1705,-0.5 1705,-21.5 1749,-21.5 1749,-0.5 1705,-0.5"/>
<text text-anchor="middle" x="1727" y="-8.5" font-family="Helvetica,sans-Serif" font-size="10.00">vector</text>
</g>
<!-- Node3&#45;&gt;Node5 -->
<g id="edge22" class="edge"><title>Node3&#45;&gt;Node5</title>
<path fill="none" stroke="midnightblue" d="M2868.39,-116.441C2859.23,-100.443 2839.41,-70.5968 2813,-58 2764.25,-34.7482 1934.03,-15.493 1759.17,-11.6843"/>
<polygon fill="midnightblue" stroke="midnightblue" points="1759.13,-8.18277 1749.06,-11.4654 1758.98,-15.1811 1759.13,-8.18277"/>
</g>
<!-- Node7 -->
<g id="node13" class="node"><title>Node7</title>
<polygon fill="white" stroke="#bfbfbf" points="2178.5,-58.5 2178.5,-79.5 2243.5,-79.5 2243.5,-58.5 2178.5,-58.5"/>
<text text-anchor="middle" x="2211" y="-66.5" font-family="Helvetica,sans-Serif" font-size="10.00">TVector3.h</text>
</g>
<!-- Node3&#45;&gt;Node7 -->
<g id="edge12" class="edge"><title>Node3&#45;&gt;Node7</title>
<path fill="none" stroke="midnightblue" d="M2826.32,-122.829C2702.53,-112 2372.34,-83.1144 2253.97,-72.7594"/>
<polygon fill="midnightblue" stroke="midnightblue" points="2254.11,-69.2583 2243.85,-71.8734 2253.5,-76.2317 2254.11,-69.2583"/>
</g>
<!-- Node8 -->
<g id="node15" class="node"><title>Node8</title>
<polygon fill="white" stroke="#bfbfbf" points="3456,-58.5 3456,-79.5 3502,-79.5 3502,-58.5 3456,-58.5"/>
<text text-anchor="middle" x="3479" y="-66.5" font-family="Helvetica,sans-Serif" font-size="10.00">cstdint</text>
</g>
<!-- Node3&#45;&gt;Node8 -->
<g id="edge14" class="edge"><title>Node3&#45;&gt;Node8</title>
<path fill="none" stroke="midnightblue" d="M2921.73,-122.425C3040.03,-111.083 3344.56,-81.8885 3445.75,-72.1873"/>
<polygon fill="midnightblue" stroke="midnightblue" points="3446.09,-75.6707 3455.71,-71.2323 3445.43,-68.7027 3446.09,-75.6707"/>
</g>
<!-- Node9 -->
<g id="node17" class="node"><title>Node9</title>
<polygon fill="white" stroke="#bfbfbf" points="3206.5,-58.5 3206.5,-79.5 3265.5,-79.5 3265.5,-58.5 3206.5,-58.5"/>
<text text-anchor="middle" x="3236" y="-66.5" font-family="Helvetica,sans-Serif" font-size="10.00">stdexcept</text>
</g>
<!-- Node3&#45;&gt;Node9 -->
<g id="edge16" class="edge"><title>Node3&#45;&gt;Node9</title>
<path fill="none" stroke="midnightblue" d="M2921.7,-119.358C2993.68,-107.824 3128.79,-86.1774 3195.97,-75.4144"/>
<polygon fill="midnightblue" stroke="midnightblue" points="3196.82,-78.8217 3206.14,-73.7837 3195.72,-71.9099 3196.82,-78.8217"/>
</g>
<!-- Node10 -->
<g id="node19" class="node"><title>Node10</title>
<polygon fill="white" stroke="#bfbfbf" points="359.5,-0.5 359.5,-21.5 400.5,-21.5 400.5,-0.5 359.5,-0.5"/>
<text text-anchor="middle" x="380" y="-8.5" font-family="Helvetica,sans-Serif" font-size="10.00">string</text>
</g>
<!-- Node3&#45;&gt;Node10 -->
<g id="edge18" class="edge"><title>Node3&#45;&gt;Node10</title>
<path fill="none" stroke="midnightblue" d="M2826.13,-120.278C2721.98,-105.963 2466.9,-72.5907 2252,-58 1872.61,-32.2415 623.419,-14.3128 410.875,-11.4133"/>
<polygon fill="midnightblue" stroke="midnightblue" points="410.785,-7.91186 400.738,-11.2757 410.69,-14.9112 410.785,-7.91186"/>
</g>
<!-- Node11 -->
<g id="node21" class="node"><title>Node11</title>
<polygon fill="white" stroke="#bfbfbf" points="2860,-58.5 2860,-79.5 2922,-79.5 2922,-58.5 2860,-58.5"/>
<text text-anchor="middle" x="2891" y="-66.5" font-family="Helvetica,sans-Serif" font-size="10.00">type_traits</text>
</g>
<!-- Node3&#45;&gt;Node11 -->
<g id="edge20" class="edge"><title>Node3&#45;&gt;Node11</title>
<path fill="none" stroke="midnightblue" d="M2877.12,-116.362C2879.32,-108.84 2882.35,-98.5187 2885.01,-89.4308"/>
<polygon fill="midnightblue" stroke="midnightblue" points="2888.45,-90.1514 2887.9,-79.5707 2881.73,-88.1825 2888.45,-90.1514"/>
</g>
<!-- Node4&#45;&gt;Node5 -->
<g id="edge8" class="edge"><title>Node4&#45;&gt;Node5</title>
<path fill="none" stroke="midnightblue" d="M2717.64,-66.3718C2680.15,-64.1113 2624.5,-60.7846 2576,-58 2257.62,-39.7218 1871.99,-18.8229 1759.34,-12.7426"/>
<polygon fill="midnightblue" stroke="midnightblue" points="1759.48,-9.24495 1749.3,-12.2011 1759.1,-16.2348 1759.48,-9.24495"/>
</g>
<!-- Node6 -->
<g id="node11" class="node"><title>Node6</title>
<polygon fill="white" stroke="#bfbfbf" points="2735,-0.5 2735,-21.5 2787,-21.5 2787,-0.5 2735,-0.5"/>
<text text-anchor="middle" x="2761" y="-8.5" font-family="Helvetica,sans-Serif" font-size="10.00">ostream</text>
</g>
<!-- Node4&#45;&gt;Node6 -->
<g id="edge10" class="edge"><title>Node4&#45;&gt;Node6</title>
<path fill="none" stroke="midnightblue" d="M2761,-58.3619C2761,-50.9219 2761,-40.7427 2761,-31.7276"/>
<polygon fill="midnightblue" stroke="midnightblue" points="2764.5,-31.5706 2761,-21.5707 2757.5,-31.5707 2764.5,-31.5706"/>
</g>
<!-- Node12&#45;&gt;Node3 -->
<g id="edge324" class="edge"><title>Node12&#45;&gt;Node3</title>
<path fill="none" stroke="midnightblue" d="M2396.08,-602.131C2584.85,-593.061 3113,-561.232 3113,-489 3113,-489 3113,-489 3113,-301 3113,-209.825 2997.91,-161.4 2927.46,-140.299"/>
<polygon fill="midnightblue" stroke="midnightblue" points="2928.42,-136.931 2917.84,-137.501 2926.46,-143.653 2928.42,-136.931"/>
</g>
<!-- Node12&#45;&gt;Node5 -->
<g id="edge332" class="edge"><title>Node12&#45;&gt;Node5</title>
<path fill="none" stroke="midnightblue" d="M2263.79,-604.49C1910.72,-601.657 261.777,-586.915 158,-558 98.736,-541.487 38,-550.521 38,-489 38,-489 38,-489 38,-301 38,-133.361 193.085,-193.271 463,-116 562.281,-87.578 585.871,-73.3042 688,-58 889.199,-27.8499 1541.23,-14.3618 1694.52,-11.5635"/>
<polygon fill="midnightblue" stroke="midnightblue" points="1694.75,-15.0601 1704.68,-11.3805 1694.62,-8.06126 1694.75,-15.0601"/>
</g>
<!-- Node12&#45;&gt;Node8 -->
<g id="edge334" class="edge"><title>Node12&#45;&gt;Node8</title>
<path fill="none" stroke="midnightblue" d="M2396.06,-602.472C2539,-596.641 2873.01,-580.967 2984,-558 3153.44,-522.937 3719,-474.03 3719,-301 3719,-301 3719,-301 3719,-185 3719,-153.192 3723.15,-137.817 3700,-116 3673.24,-90.7769 3567.12,-77.2889 3512.25,-71.8767"/>
<polygon fill="midnightblue" stroke="midnightblue" points="3512.29,-68.3642 3502,-70.9008 3511.62,-75.3327 3512.29,-68.3642"/>
</g>
<!-- Node13 -->
<g id="node26" class="node"><title>Node13</title>
<a xlink:href="_unpacker_8h.html" target="_top" xlink:title="Unpacker.h">
<polygon fill="white" stroke="black" points="103.5,-232.5 103.5,-253.5 170.5,-253.5 170.5,-232.5 103.5,-232.5"/>
<text text-anchor="middle" x="137" y="-240.5" font-family="Helvetica,sans-Serif" font-size="10.00">Unpacker.h</text>
</a>
</g>
<!-- Node12&#45;&gt;Node13 -->
<g id="edge26" class="edge"><title>Node12&#45;&gt;Node13</title>
<path fill="none" stroke="midnightblue" d="M2263.95,-604.547C1907.31,-601.978 225.917,-588.277 182,-558 154.752,-539.215 154,-522.095 154,-489 154,-489 154,-489 154,-366 154,-329.733 146.658,-288.014 141.624,-263.67"/>
<polygon fill="midnightblue" stroke="midnightblue" points="145.025,-262.835 139.508,-253.79 138.18,-264.301 145.025,-262.835"/>
</g>
<!-- Node14 -->
<g id="node29" class="node"><title>Node14</title>
<polygon fill="white" stroke="#bfbfbf" points="1495,-174.5 1495,-195.5 1547,-195.5 1547,-174.5 1495,-174.5"/>
<text text-anchor="middle" x="1521" y="-182.5" font-family="Helvetica,sans-Serif" font-size="10.00">memory</text>
</g>
<!-- Node12&#45;&gt;Node14 -->
<g id="edge326" class="edge"><title>Node12&#45;&gt;Node14</title>
<path fill="none" stroke="midnightblue" d="M2263.75,-601.739C2079.76,-591.806 1576,-558.284 1576,-489 1576,-489 1576,-489 1576,-301 1576,-269.192 1571.15,-260.485 1557,-232 1551.98,-221.889 1544.64,-211.802 1537.89,-203.58"/>
<polygon fill="midnightblue" stroke="midnightblue" points="1540.36,-201.085 1531.2,-195.763 1535.04,-205.636 1540.36,-201.085"/>
</g>
<!-- Node15 -->
<g id="node31" class="node"><title>Node15</title>
<a xlink:href="_exp_config_8h.html" target="_top" xlink:title="expconfig/ExpConfig.h">
<polygon fill="white" stroke="black" points="1320,-536.5 1320,-557.5 1436,-557.5 1436,-536.5 1320,-536.5"/>
<text text-anchor="middle" x="1378" y="-544.5" font-family="Helvetica,sans-Serif" font-size="10.00">expconfig/ExpConfig.h</text>
</a>
</g>
<!-- Node12&#45;&gt;Node15 -->
<g id="edge32" class="edge"><title>Node12&#45;&gt;Node15</title>
<path fill="none" stroke="midnightblue" d="M2263.81,-600.968C2090.07,-590.382 1622.27,-561.882 1446.24,-551.157"/>
<polygon fill="midnightblue" stroke="midnightblue" points="1446.26,-547.653 1436.07,-550.538 1445.84,-554.64 1446.26,-547.653"/>
</g>
<!-- Node19 -->
<g id="node42" class="node"><title>Node19</title>
<polygon fill="white" stroke="#bfbfbf" points="1568.5,-116.5 1568.5,-137.5 1597.5,-137.5 1597.5,-116.5 1568.5,-116.5"/>
<text text-anchor="middle" x="1583" y="-124.5" font-family="Helvetica,sans-Serif" font-size="10.00">list</text>
</g>
<!-- Node12&#45;&gt;Node19 -->
<g id="edge328" class="edge"><title>Node12&#45;&gt;Node19</title>
<path fill="none" stroke="midnightblue" d="M2263.79,-603.173C1903.6,-593.023 196,-542.104 196,-489 196,-489 196,-489 196,-431 196,-276.823 289.346,-239.324 429,-174 481.931,-149.241 1395.58,-130.597 1558.31,-127.465"/>
<polygon fill="midnightblue" stroke="midnightblue" points="1558.39,-130.964 1568.32,-127.274 1558.25,-123.966 1558.39,-130.964"/>
</g>
<!-- Node22 -->
<g id="node53" class="node"><title>Node22</title>
<polygon fill="white" stroke="#bfbfbf" points="2008.5,-174.5 2008.5,-195.5 2043.5,-195.5 2043.5,-174.5 2008.5,-174.5"/>
<text text-anchor="middle" x="2026" y="-182.5" font-family="Helvetica,sans-Serif" font-size="10.00">map</text>
</g>
<!-- Node12&#45;&gt;Node22 -->
<g id="edge330" class="edge"><title>Node12&#45;&gt;Node22</title>
<path fill="none" stroke="midnightblue" d="M2396.05,-599.689C2559.58,-585.875 2972.99,-546.634 3013,-500 3019.37,-492.579 3017.06,-486.894 3013,-478 2959.99,-361.929 2913.08,-340.741 2796,-290 2654.55,-228.697 2600.66,-290.981 2451,-254 2425.44,-247.685 2421.56,-238.304 2396,-232 2248.27,-195.568 2199.39,-237.591 2053.31,-197.235"/>
<polygon fill="midnightblue" stroke="midnightblue" points="2054.12,-193.827 2043.55,-194.456 2052.21,-200.56 2054.12,-193.827"/>
</g>
<!-- Node12&#45;&gt;Node31 -->
<g id="edge336" class="edge"><title>Node12&#45;&gt;Node31</title>
<path fill="none" stroke="midnightblue" d="M2396.03,-604.779C2629.87,-603.667 3410.21,-597.04 3515,-558 3631.17,-514.721 3657.87,-482.611 3733,-384 3794.54,-303.226 3752.17,-246.761 3823,-174 3828.47,-168.376 3867.41,-151.233 3895.56,-139.287"/>
<polygon fill="midnightblue" stroke="midnightblue" points="3897.14,-142.419 3904.99,-135.305 3894.41,-135.97 3897.14,-142.419"/>
</g>
<!-- Node13&#45;&gt;Node10 -->
<g id="edge28" class="edge"><title>Node13&#45;&gt;Node10</title>
<path fill="none" stroke="midnightblue" d="M132.916,-232.257C121.857,-201.15 94.9526,-109.926 138,-58 164.486,-26.0512 289.719,-15.5357 348.89,-12.3146"/>
<polygon fill="midnightblue" stroke="midnightblue" points="349.322,-15.7973 359.131,-11.7946 348.966,-8.80633 349.322,-15.7973"/>
</g>
<!-- Node13&#45;&gt;Node14 -->
<g id="edge30" class="edge"><title>Node13&#45;&gt;Node14</title>
<path fill="none" stroke="midnightblue" d="M170.526,-241.595C359.42,-233.679 1289.33,-194.709 1484.88,-186.514"/>
<polygon fill="midnightblue" stroke="midnightblue" points="1485.07,-190.009 1494.91,-186.093 1484.78,-183.015 1485.07,-190.009"/>
</g>
<!-- Node15&#45;&gt;Node3 -->
<g id="edge34" class="edge"><title>Node15&#45;&gt;Node3</title>
<path fill="none" stroke="midnightblue" d="M1436.17,-544.89C1559.04,-540.066 1853.97,-526.54 2100,-500 2271.61,-481.488 2316.65,-484.258 2484,-442 2649.75,-400.147 2728.29,-435.965 2846,-312 2889.57,-266.115 2885.67,-237.102 2881,-174 2880.36,-165.403 2879.08,-155.993 2877.78,-147.866"/>
<polygon fill="midnightblue" stroke="midnightblue" points="2881.2,-147.048 2876.07,-137.776 2874.29,-148.222 2881.2,-147.048"/>
</g>
<!-- Node15&#45;&gt;Node4 -->
<g id="edge316" class="edge"><title>Node15&#45;&gt;Node4</title>
<path fill="none" stroke="midnightblue" d="M1436.24,-546.006C1573.06,-543.177 1925.54,-533.019 2218,-500 2370.33,-482.802 2407.9,-473.128 2558,-442 2664.18,-419.979 2691.96,-417.786 2795,-384 2938.14,-337.069 3024.37,-379.286 3108,-254 3136.41,-211.434 3064.4,-186.679 3045,-174 3011.68,-152.224 2997.91,-157.112 2963,-138 2947.54,-129.536 2946.03,-123.342 2930,-116 2892.99,-99.0438 2848.55,-86.9807 2814.54,-79.3239"/>
<polygon fill="midnightblue" stroke="midnightblue" points="2814.85,-75.8099 2804.33,-77.0886 2813.35,-82.6477 2814.85,-75.8099"/>
</g>
<!-- Node15&#45;&gt;Node14 -->
<g id="edge318" class="edge"><title>Node15&#45;&gt;Node14</title>
<path fill="none" stroke="midnightblue" d="M1351.83,-536.482C1282.47,-506.754 1101.11,-416.015 1129,-290 1135.15,-262.238 1132.91,-248.592 1156,-232 1214.65,-189.857 1407.99,-209.184 1479,-196 1481.03,-195.624 1483.1,-195.202 1485.19,-194.75"/>
<polygon fill="midnightblue" stroke="midnightblue" points="1485.99,-198.157 1494.92,-192.457 1484.38,-191.343 1485.99,-198.157"/>
</g>
<!-- Node16 -->
<g id="node34" class="node"><title>Node16</title>
<a xlink:href="_reconstruct__traits_8h.html" target="_top" xlink:title="reconstruct/Reconstruct\l_traits.h">
<polygon fill="white" stroke="black" points="923,-349 923,-383 1045,-383 1045,-349 923,-349"/>
<text text-anchor="start" x="931" y="-370" font-family="Helvetica,sans-Serif" font-size="10.00">reconstruct/Reconstruct</text>
<text text-anchor="middle" x="984" y="-357" font-family="Helvetica,sans-Serif" font-size="10.00">_traits.h</text>
</a>
</g>
<!-- Node15&#45;&gt;Node16 -->
<g id="edge36" class="edge"><title>Node15&#45;&gt;Node16</title>
<path fill="none" stroke="midnightblue" d="M1319.88,-543.5C1216.98,-536.801 1011.15,-520.949 986,-500 955.807,-474.846 964.585,-424.551 974.053,-393.241"/>
<polygon fill="midnightblue" stroke="midnightblue" points="977.484,-394.007 977.235,-383.415 970.824,-391.85 977.484,-394.007"/>
</g>
<!-- Node15&#45;&gt;Node19 -->
<g id="edge320" class="edge"><title>Node15&#45;&gt;Node19</title>
<path fill="none" stroke="midnightblue" d="M1319.81,-542.672C1239.87,-536.199 1091.78,-522.312 967,-500 704.426,-453.051 392.103,-496.032 430,-232 433.816,-205.41 425.837,-190.544 447,-174 492.275,-138.606 1395.49,-128.711 1558.05,-127.214"/>
<polygon fill="midnightblue" stroke="midnightblue" points="1558.48,-130.711 1568.45,-127.121 1558.42,-123.711 1558.48,-130.711"/>
</g>
<!-- Node15&#45;&gt;Node22 -->
<g id="edge322" class="edge"><title>Node15&#45;&gt;Node22</title>
<path fill="none" stroke="midnightblue" d="M1436.32,-543.604C1668.03,-529.528 2514.73,-472.335 2592,-384 2602.53,-371.957 2600.48,-361.568 2592,-348 2576.41,-323.054 2382.23,-240.28 2354,-232 2225.81,-194.399 2181.38,-233.217 2053.33,-197.275"/>
<polygon fill="midnightblue" stroke="midnightblue" points="2054.13,-193.864 2043.55,-194.433 2052.18,-200.586 2054.13,-193.864"/>
</g>
<!-- Node23 -->
<g id="node56" class="node"><title>Node23</title>
<a xlink:href="_calibration_8h.html" target="_top" xlink:title="calibration/Calibration.h">
<polygon fill="white" stroke="black" points="994.5,-478.5 994.5,-499.5 1113.5,-499.5 1113.5,-478.5 994.5,-478.5"/>
<text text-anchor="middle" x="1054" y="-486.5" font-family="Helvetica,sans-Serif" font-size="10.00">calibration/Calibration.h</text>
</a>
</g>
<!-- Node15&#45;&gt;Node23 -->
<g id="edge66" class="edge"><title>Node15&#45;&gt;Node23</title>
<path fill="none" stroke="midnightblue" d="M1319.7,-536.564C1264.42,-526.667 1181.33,-511.794 1122.82,-501.32"/>
<polygon fill="midnightblue" stroke="midnightblue" points="1123.38,-497.865 1112.92,-499.548 1122.15,-504.756 1123.38,-497.865"/>
</g>
<!-- Node16&#45;&gt;Node3 -->
<g id="edge38" class="edge"><title>Node16&#45;&gt;Node3</title>
<path fill="none" stroke="midnightblue" d="M1045,-365.082C1356.78,-360.278 2759.09,-337.297 2796,-312 2851.6,-273.899 2867.71,-187.807 2872.26,-147.961"/>
<polygon fill="midnightblue" stroke="midnightblue" points="2875.76,-148.115 2873.28,-137.815 2868.8,-147.414 2875.76,-148.115"/>
</g>
<!-- Node16&#45;&gt;Node14 -->
<g id="edge60" class="edge"><title>Node16&#45;&gt;Node14</title>
<path fill="none" stroke="midnightblue" d="M992.576,-348.747C1008.4,-318.993 1045.28,-258.661 1096,-232 1172.06,-192.022 1396.47,-211.451 1481,-196 1482.28,-195.767 1483.57,-195.512 1484.87,-195.24"/>
<polygon fill="midnightblue" stroke="midnightblue" points="1485.97,-198.578 1494.9,-192.883 1484.37,-191.764 1485.97,-198.578"/>
</g>
<!-- Node17 -->
<g id="node37" class="node"><title>Node17</title>
<a xlink:href="_memory_pool_8h.html" target="_top" xlink:title="tree/MemoryPool.h">
<polygon fill="white" stroke="black" points="753.5,-290.5 753.5,-311.5 852.5,-311.5 852.5,-290.5 753.5,-290.5"/>
<text text-anchor="middle" x="803" y="-298.5" font-family="Helvetica,sans-Serif" font-size="10.00">tree/MemoryPool.h</text>
</a>
</g>
<!-- Node16&#45;&gt;Node17 -->
<g id="edge40" class="edge"><title>Node16&#45;&gt;Node17</title>
<path fill="none" stroke="midnightblue" d="M936.444,-348.922C907.06,-338.37 869.812,-324.993 842.14,-315.056"/>
<polygon fill="midnightblue" stroke="midnightblue" points="843.006,-311.648 832.411,-311.562 840.64,-318.236 843.006,-311.648"/>
</g>
<!-- Node16&#45;&gt;Node19 -->
<g id="edge64" class="edge"><title>Node16&#45;&gt;Node19</title>
<path fill="none" stroke="midnightblue" d="M922.954,-350.142C919.929,-349.407 916.932,-348.689 914,-348 757.34,-311.189 463.239,-351.52 571,-232 639.302,-156.244 1408.22,-131.713 1557.85,-127.642"/>
<polygon fill="midnightblue" stroke="midnightblue" points="1558.36,-131.13 1568.26,-127.365 1558.17,-124.132 1558.36,-131.13"/>
</g>
<!-- Node21 -->
<g id="node47" class="node"><title>Node21</title>
<a xlink:href="mapped__vectors_8h.html" target="_top" xlink:title="base/mapped_vectors.h">
<polygon fill="white" stroke="black" points="923.5,-232.5 923.5,-253.5 1044.5,-253.5 1044.5,-232.5 923.5,-232.5"/>
<text text-anchor="middle" x="984" y="-240.5" font-family="Helvetica,sans-Serif" font-size="10.00">base/mapped_vectors.h</text>
</a>
</g>
<!-- Node16&#45;&gt;Node21 -->
<g id="edge52" class="edge"><title>Node16&#45;&gt;Node21</title>
<path fill="none" stroke="midnightblue" d="M984,-348.897C984,-326.673 984,-287.886 984,-263.929"/>
<polygon fill="midnightblue" stroke="midnightblue" points="987.5,-263.787 984,-253.787 980.5,-263.787 987.5,-263.787"/>
</g>
<!-- Node16&#45;&gt;Node22 -->
<g id="edge62" class="edge"><title>Node16&#45;&gt;Node22</title>
<path fill="none" stroke="midnightblue" d="M1045.27,-365.299C1247.1,-362.632 1889.77,-351.2 2093,-312 2170.56,-297.04 2215.16,-318.327 2261,-254 2266.67,-246.037 2267.31,-239.468 2261,-232 2201.14,-161.179 2143.36,-221.37 2053.27,-197.24"/>
<polygon fill="midnightblue" stroke="midnightblue" points="2054.16,-193.855 2043.58,-194.352 2052.16,-200.563 2054.16,-193.855"/>
</g>
<!-- Node17&#45;&gt;Node14 -->
<g id="edge48" class="edge"><title>Node17&#45;&gt;Node14</title>
<path fill="none" stroke="midnightblue" d="M793.357,-290.258C781.159,-275.362 763.501,-248.415 779,-232 826.829,-181.341 1335.53,-201.289 1405,-196 1431.76,-193.962 1461.94,-191.082 1484.81,-188.78"/>
<polygon fill="midnightblue" stroke="midnightblue" points="1485.17,-192.262 1494.76,-187.768 1484.46,-185.297 1485.17,-192.262"/>
</g>
<!-- Node18 -->
<g id="node39" class="node"><title>Node18</title>
<a xlink:href="memory_8h.html" target="_top" xlink:title="base/std_ext/memory.h">
<polygon fill="white" stroke="black" points="787.5,-232.5 787.5,-253.5 906.5,-253.5 906.5,-232.5 787.5,-232.5"/>
<text text-anchor="middle" x="847" y="-240.5" font-family="Helvetica,sans-Serif" font-size="10.00">base/std_ext/memory.h</text>
</a>
</g>
<!-- Node17&#45;&gt;Node18 -->
<g id="edge42" class="edge"><title>Node17&#45;&gt;Node18</title>
<path fill="none" stroke="midnightblue" d="M811.07,-290.362C817.149,-282.35 825.637,-271.161 832.837,-261.67"/>
<polygon fill="midnightblue" stroke="midnightblue" points="835.725,-263.653 838.981,-253.571 830.149,-259.422 835.725,-263.653"/>
</g>
<!-- Node20 -->
<g id="node45" class="node"><title>Node20</title>
<polygon fill="white" stroke="#bfbfbf" points="579.5,-232.5 579.5,-253.5 646.5,-253.5 646.5,-232.5 579.5,-232.5"/>
<text text-anchor="middle" x="613" y="-240.5" font-family="Helvetica,sans-Serif" font-size="10.00">forward_list</text>
</g>
<!-- Node17&#45;&gt;Node20 -->
<g id="edge50" class="edge"><title>Node17&#45;&gt;Node20</title>
<path fill="none" stroke="midnightblue" d="M768.592,-290.497C737.057,-280.87 690.234,-266.577 656.194,-256.185"/>
<polygon fill="midnightblue" stroke="midnightblue" points="657.1,-252.803 646.514,-253.231 655.056,-259.498 657.1,-252.803"/>
</g>
<!-- Node18&#45;&gt;Node14 -->
<g id="edge44" class="edge"><title>Node18&#45;&gt;Node14</title>
<path fill="none" stroke="midnightblue" d="M906.661,-233.03C909.477,-232.659 912.267,-232.314 915,-232 1148.68,-205.191 1209.06,-220.439 1443,-196 1456.63,-194.576 1471.54,-192.581 1484.64,-190.681"/>
<polygon fill="midnightblue" stroke="midnightblue" points="1485.32,-194.118 1494.7,-189.19 1484.3,-187.194 1485.32,-194.118"/>
</g>
<!-- Node18&#45;&gt;Node19 -->
<g id="edge46" class="edge"><title>Node18&#45;&gt;Node19</title>
<path fill="none" stroke="midnightblue" d="M906.663,-233.047C909.478,-232.673 912.268,-232.321 915,-232 1131.88,-206.541 1193.51,-250.352 1405,-196 1427.73,-190.159 1431.28,-182.886 1453,-174 1489.47,-159.078 1532.64,-143.962 1558.91,-135.04"/>
<polygon fill="midnightblue" stroke="midnightblue" points="1560.07,-138.343 1568.42,-131.829 1557.83,-131.711 1560.07,-138.343"/>
</g>
<!-- Node21&#45;&gt;Node5 -->
<g id="edge54" class="edge"><title>Node21&#45;&gt;Node5</title>
<path fill="none" stroke="midnightblue" d="M1044.86,-234.143C1050.65,-233.383 1056.43,-232.655 1062,-232 1230.92,-212.119 1279.7,-243.586 1443,-196 1463.61,-189.994 1466.08,-182.006 1486,-174 1537.66,-153.234 1559.28,-168.294 1606,-138 1645.4,-112.454 1642.19,-91.5846 1675,-58 1684.97,-47.7999 1696.7,-37.0896 1706.5,-28.4735"/>
<polygon fill="midnightblue" stroke="midnightblue" points="1708.95,-30.9875 1714.2,-21.7858 1704.35,-25.7043 1708.95,-30.9875"/>
</g>
<!-- Node21&#45;&gt;Node11 -->
<g id="edge58" class="edge"><title>Node21&#45;&gt;Node11</title>
<path fill="none" stroke="midnightblue" d="M1044.56,-238.913C1080.19,-236.62 1126.14,-233.856 1167,-232 1427.08,-220.188 2081.59,-241.072 2338,-196 2368.87,-190.574 2374.75,-182.209 2405,-174 2567.94,-129.776 2765.6,-91.8359 2849.81,-76.393"/>
<polygon fill="midnightblue" stroke="midnightblue" points="2850.53,-79.8186 2859.74,-74.5793 2849.27,-72.9324 2850.53,-79.8186"/>
</g>
<!-- Node21&#45;&gt;Node14 -->
<g id="edge56" class="edge"><title>Node21&#45;&gt;Node14</title>
<path fill="none" stroke="midnightblue" d="M1044.54,-233.686C1049.09,-233.082 1053.61,-232.512 1058,-232 1245.41,-210.118 1295.26,-229.154 1481,-196 1482.28,-195.772 1483.57,-195.522 1484.87,-195.254"/>
<polygon fill="midnightblue" stroke="midnightblue" points="1485.96,-198.594 1494.91,-192.914 1484.37,-191.777 1485.96,-198.594"/>
</g>
<!-- Node23&#45;&gt;Node5 -->
<g id="edge314" class="edge"><title>Node23&#45;&gt;Node5</title>
<path fill="none" stroke="midnightblue" d="M994.136,-483.021C867.571,-469.551 577.512,-434.049 493,-384 409.046,-334.282 377.148,-256.653 429,-174 460.48,-123.821 492.558,-133.98 549,-116 697.15,-68.8061 739.48,-75.2946 894,-58 1204.31,-23.2683 1582.69,-13.7027 1694.45,-11.5477"/>
<polygon fill="midnightblue" stroke="midnightblue" points="1694.79,-15.0422 1704.72,-11.3564 1694.66,-8.04339 1694.79,-15.0422"/>
</g>
<!-- Node23&#45;&gt;Node16 -->
<g id="edge298" class="edge"><title>Node23&#45;&gt;Node16</title>
<path fill="none" stroke="midnightblue" d="M1022.46,-478.438C1005.76,-471.048 986.734,-459.346 977,-442 968.728,-427.26 970.438,-408.339 974.236,-393.064"/>
<polygon fill="midnightblue" stroke="midnightblue" points="977.682,-393.747 977.101,-383.168 970.958,-391.799 977.682,-393.747"/>
</g>
<!-- Node24 -->
<g id="node58" class="node"><title>Node24</title>
<a xlink:href="_physics_8h.html" target="_top" xlink:title="analysis/physics/Physics.h">
<polygon fill="white" stroke="black" points="986,-420.5 986,-441.5 1122,-441.5 1122,-420.5 986,-420.5"/>
<text text-anchor="middle" x="1054" y="-428.5" font-family="Helvetica,sans-Serif" font-size="10.00">analysis/physics/Physics.h</text>
</a>
</g>
<!-- Node23&#45;&gt;Node24 -->
<g id="edge68" class="edge"><title>Node23&#45;&gt;Node24</title>
<path fill="none" stroke="midnightblue" d="M1054,-478.362C1054,-470.922 1054,-460.743 1054,-451.728"/>
<polygon fill="midnightblue" stroke="midnightblue" points="1057.5,-451.571 1054,-441.571 1050.5,-451.571 1057.5,-451.571"/>
</g>
<!-- Node63 -->
<g id="node213" class="node"><title>Node63</title>
<a xlink:href="_manager__traits_8h.html" target="_top" xlink:title="calibration/gui/Manager\l_traits.h">
<polygon fill="white" stroke="black" points="2466.5,-349 2466.5,-383 2583.5,-383 2583.5,-349 2466.5,-349"/>
<text text-anchor="start" x="2474.5" y="-370" font-family="Helvetica,sans-Serif" font-size="10.00">calibration/gui/Manager</text>
<text text-anchor="middle" x="2525" y="-357" font-family="Helvetica,sans-Serif" font-size="10.00">_traits.h</text>
</a>
</g>
<!-- Node23&#45;&gt;Node63 -->
<g id="edge300" class="edge"><title>Node23&#45;&gt;Node63</title>
<path fill="none" stroke="midnightblue" d="M1113.74,-488.139C1308.02,-484.571 1939.02,-466.916 2453,-384 2454.08,-383.826 2455.17,-383.643 2456.26,-383.453"/>
<polygon fill="midnightblue" stroke="midnightblue" points="2457.06,-386.864 2466.23,-381.558 2455.75,-379.988 2457.06,-386.864"/>
</g>
<!-- Node24&#45;&gt;Node10 -->
<g id="edge290" class="edge"><title>Node24&#45;&gt;Node10</title>
<path fill="none" stroke="midnightblue" d="M985.656,-429.744C752.095,-423.631 0,-388.171 0,-185 0,-185 0,-185 0,-127 0,-76.5972 43.722,-77.9697 90,-58 136.357,-37.9963 284.455,-20.8229 349.206,-14.0659"/>
<polygon fill="midnightblue" stroke="midnightblue" points="349.624,-17.5414 359.213,-13.0356 348.907,-10.5782 349.624,-17.5414"/>
</g>
<!-- Node24&#45;&gt;Node14 -->
<g id="edge294" class="edge"><title>Node24&#45;&gt;Node14</title>
<path fill="none" stroke="midnightblue" d="M1086.38,-420.494C1156,-397.056 1323.62,-336.039 1447,-254 1468.72,-239.557 1490.14,-218.652 1504.3,-203.642"/>
<polygon fill="midnightblue" stroke="midnightblue" points="1507.16,-205.707 1511.38,-195.988 1502.02,-200.955 1507.16,-205.707"/>
</g>
<!-- Node24&#45;&gt;Node19 -->
<g id="edge288" class="edge"><title>Node24&#45;&gt;Node19</title>
<path fill="none" stroke="midnightblue" d="M985.93,-427.995C874.276,-422.429 657.393,-408.767 585,-384 496.08,-353.579 411.674,-322.217 438,-232 446.565,-202.648 448.506,-189.264 475,-174 523.519,-146.047 1399.07,-130.082 1558.27,-127.404"/>
<polygon fill="midnightblue" stroke="midnightblue" points="1558.53,-130.9 1568.48,-127.234 1558.42,-123.901 1558.53,-130.9"/>
</g>
<!-- Node24&#45;&gt;Node22 -->
<g id="edge292" class="edge"><title>Node24&#45;&gt;Node22</title>
<path fill="none" stroke="midnightblue" d="M1122.19,-424.796C1216.41,-416.139 1391.69,-399.722 1541,-384 1871.78,-349.169 2108.4,-540.125 2278,-254 2311.77,-197.032 2254.66,-259.476 2053.27,-197.421"/>
<polygon fill="midnightblue" stroke="midnightblue" points="2054.16,-194.032 2043.57,-194.371 2052.06,-200.71 2054.16,-194.032"/>
</g>
<!-- Node25 -->
<g id="node60" class="node"><title>Node25</title>
<a xlink:href="_histogram_factories_8h.html" target="_top" xlink:title="analysis/plot/HistogramFactories.h">
<polygon fill="white" stroke="black" points="737,-355.5 737,-376.5 905,-376.5 905,-355.5 737,-355.5"/>
<text text-anchor="middle" x="821" y="-363.5" font-family="Helvetica,sans-Serif" font-size="10.00">analysis/plot/HistogramFactories.h</text>
</a>
</g>
<!-- Node24&#45;&gt;Node25 -->
<g id="edge70" class="edge"><title>Node24&#45;&gt;Node25</title>
<path fill="none" stroke="midnightblue" d="M1016.31,-420.484C976.038,-409.251 912.123,-391.421 868.455,-379.239"/>
<polygon fill="midnightblue" stroke="midnightblue" points="869.213,-375.816 858.64,-376.501 867.332,-382.559 869.213,-375.816"/>
</g>
<!-- Node34 -->
<g id="node88" class="node"><title>Node34</title>
<polygon fill="white" stroke="#bfbfbf" points="555.5,-174.5 555.5,-195.5 614.5,-195.5 614.5,-174.5 555.5,-174.5"/>
<text text-anchor="middle" x="585" y="-182.5" font-family="Helvetica,sans-Serif" font-size="10.00">functional</text>
</g>
<!-- Node24&#45;&gt;Node34 -->
<g id="edge296" class="edge"><title>Node24&#45;&gt;Node34</title>
<path fill="none" stroke="midnightblue" d="M985.901,-424.788C919.481,-417.886 815.903,-404.876 728,-384 629.956,-360.716 600.717,-361.605 513,-312 478.423,-292.447 461.642,-290.068 445,-254 440.904,-245.122 439.291,-239.938 445,-232 448.086,-227.709 505.287,-209.445 545.606,-196.989"/>
<polygon fill="midnightblue" stroke="midnightblue" points="546.667,-200.324 555.195,-194.037 544.608,-193.634 546.667,-200.324"/>
</g>
<!-- Node49 -->
<g id="node146" class="node"><title>Node49</title>
<a xlink:href="_event_8h.html" target="_top" xlink:title="analysis/data/Event.h">
<polygon fill="white" stroke="black" points="2300.5,-355.5 2300.5,-376.5 2411.5,-376.5 2411.5,-355.5 2300.5,-355.5"/>
<text text-anchor="middle" x="2356" y="-363.5" font-family="Helvetica,sans-Serif" font-size="10.00">analysis/data/Event.h</text>
</a>
</g>
<!-- Node24&#45;&gt;Node49 -->
<g id="edge194" class="edge"><title>Node24&#45;&gt;Node49</title>
<path fill="none" stroke="midnightblue" d="M1122.4,-421.293C1127,-420.805 1131.56,-420.366 1136,-420 1646.07,-377.922 1780.43,-457.053 2287,-384 2295.19,-382.819 2303.8,-381.028 2312.07,-379.026"/>
<polygon fill="midnightblue" stroke="midnightblue" points="2313.09,-382.376 2321.91,-376.506 2311.36,-375.594 2313.09,-382.376"/>
</g>
<!-- Node61 -->
<g id="node198" class="node"><title>Node61</title>
<a xlink:href="_slowcontrol_8h.html" target="_top" xlink:title="analysis/data/Slowcontrol.h">
<polygon fill="white" stroke="black" points="3090.5,-116.5 3090.5,-137.5 3227.5,-137.5 3227.5,-116.5 3090.5,-116.5"/>
<text text-anchor="middle" x="3159" y="-124.5" font-family="Helvetica,sans-Serif" font-size="10.00">analysis/data/Slowcontrol.h</text>
</a>
</g>
<!-- Node24&#45;&gt;Node61 -->
<g id="edge274" class="edge"><title>Node24&#45;&gt;Node61</title>
<path fill="none" stroke="midnightblue" d="M1122.04,-429.996C1389.85,-425.872 2359.67,-409.252 2420,-384 2441.46,-375.018 2436.81,-357.602 2458,-348 2615.75,-276.521 2681.24,-365.354 2846,-312 2966.13,-273.098 3089.65,-182.025 3137.9,-144.074"/>
<polygon fill="midnightblue" stroke="midnightblue" points="3140.36,-146.589 3146.01,-137.63 3136,-141.107 3140.36,-146.589"/>
</g>
<!-- Node62 -->
<g id="node202" class="node"><title>Node62</title>
<a xlink:href="_options_list_8h.html" target="_top" xlink:title="base/OptionsList.h">
<polygon fill="white" stroke="black" points="1718,-232.5 1718,-253.5 1816,-253.5 1816,-232.5 1718,-232.5"/>
<text text-anchor="middle" x="1767" y="-240.5" font-family="Helvetica,sans-Serif" font-size="10.00">base/OptionsList.h</text>
</a>
</g>
<!-- Node24&#45;&gt;Node62 -->
<g id="edge280" class="edge"><title>Node24&#45;&gt;Node62</title>
<path fill="none" stroke="midnightblue" d="M1122.22,-426.356C1225.03,-418.869 1414.63,-403.029 1480,-384 1582.9,-354.045 1693.82,-289.081 1742.14,-258.947"/>
<polygon fill="midnightblue" stroke="midnightblue" points="1744.09,-261.86 1750.69,-253.573 1740.36,-255.935 1744.09,-261.86"/>
</g>
<!-- Node25&#45;&gt;Node10 -->
<g id="edge192" class="edge"><title>Node25&#45;&gt;Node10</title>
<path fill="none" stroke="midnightblue" d="M736.739,-364.167C566.239,-358.725 188.573,-337.333 95,-254 71.2461,-232.846 76,-216.808 76,-185 76,-185 76,-185 76,-127 76,-90.1433 91.2009,-78.2444 122,-58 159.057,-33.642 289.111,-19.1393 349.172,-13.5975"/>
<polygon fill="midnightblue" stroke="midnightblue" points="349.552,-17.0776 359.198,-12.696 348.925,-10.1057 349.552,-17.0776"/>
</g>
<!-- Node26 -->
<g id="node62" class="node"><title>Node26</title>
<a xlink:href="_histogram_8h.html" target="_top" xlink:title="Histogram.h">
<polygon fill="white" stroke="black" points="454,-232.5 454,-253.5 524,-253.5 524,-232.5 454,-232.5"/>
<text text-anchor="middle" x="489" y="-240.5" font-family="Helvetica,sans-Serif" font-size="10.00">Histogram.h</text>
</a>
</g>
<!-- Node25&#45;&gt;Node26 -->
<g id="edge72" class="edge"><title>Node25&#45;&gt;Node26</title>
<path fill="none" stroke="midnightblue" d="M736.759,-356.939C665.613,-348.027 570.301,-332.746 538,-312 519.645,-300.211 506.098,-278.886 497.957,-263.053"/>
<polygon fill="midnightblue" stroke="midnightblue" points="500.891,-261.08 493.391,-253.596 494.587,-264.123 500.891,-261.08"/>
</g>
<!-- Node32 -->
<g id="node78" class="node"><title>Node32</title>
<a xlink:href="_smart_hist_8h.html" target="_top" xlink:title="SmartHist.h">
<polygon fill="white" stroke="black" points="1137.5,-290.5 1137.5,-311.5 1206.5,-311.5 1206.5,-290.5 1137.5,-290.5"/>
<text text-anchor="middle" x="1172" y="-298.5" font-family="Helvetica,sans-Serif" font-size="10.00">SmartHist.h</text>
</a>
</g>
<!-- Node25&#45;&gt;Node32 -->
<g id="edge92" class="edge"><title>Node25&#45;&gt;Node32</title>
<path fill="none" stroke="midnightblue" d="M875.075,-355.43C887.835,-352.964 901.393,-350.368 914,-348 988.724,-333.963 1075.75,-318.239 1127.22,-309.003"/>
<polygon fill="midnightblue" stroke="midnightblue" points="1128.12,-312.399 1137.34,-307.189 1126.88,-305.509 1128.12,-312.399"/>
</g>
<!-- Node41 -->
<g id="node105" class="node"><title>Node41</title>
<a xlink:href="_particle_8h.html" target="_top" xlink:title="analysis/data/Particle.h">
<polygon fill="white" stroke="black" points="1965.5,-290.5 1965.5,-311.5 2084.5,-311.5 2084.5,-290.5 1965.5,-290.5"/>
<text text-anchor="middle" x="2025" y="-298.5" font-family="Helvetica,sans-Serif" font-size="10.00">analysis/data/Particle.h</text>
</a>
</g>
<!-- Node25&#45;&gt;Node41 -->
<g id="edge128" class="edge"><title>Node25&#45;&gt;Node41</title>
<path fill="none" stroke="midnightblue" d="M868.099,-355.473C882.736,-352.582 898.973,-349.762 914,-348 1117.04,-324.191 1744.48,-307.609 1955.18,-302.591"/>
<polygon fill="midnightblue" stroke="midnightblue" points="1955.28,-306.09 1965.2,-302.354 1955.12,-299.092 1955.28,-306.09"/>
</g>
<!-- Node26&#45;&gt;Node5 -->
<g id="edge76" class="edge"><title>Node26&#45;&gt;Node5</title>
<path fill="none" stroke="midnightblue" d="M481.894,-232.24C473.019,-217.321 460.643,-190.348 475,-174 558.36,-79.0836 1506.81,-22.9362 1694.75,-12.7014"/>
<polygon fill="midnightblue" stroke="midnightblue" points="1695.03,-16.1916 1704.82,-12.1573 1694.65,-9.20181 1695.03,-16.1916"/>
</g>
<!-- Node26&#45;&gt;Node10 -->
<g id="edge78" class="edge"><title>Node26&#45;&gt;Node10</title>
<path fill="none" stroke="midnightblue" d="M454.32,-232.365C436.399,-225.042 415.856,-213.428 404,-196 369.497,-145.28 372.912,-68.3421 377.023,-31.7465"/>
<polygon fill="midnightblue" stroke="midnightblue" points="380.504,-32.1169 378.28,-21.7581 373.559,-31.2428 380.504,-32.1169"/>
</g>
<!-- Node27 -->
<g id="node64" class="node"><title>Node27</title>
<polygon fill="white" stroke="#bfbfbf" points="484,-174.5 484,-195.5 538,-195.5 538,-174.5 484,-174.5"/>
<text text-anchor="middle" x="511" y="-182.5" font-family="Helvetica,sans-Serif" font-size="10.00">TColor.h</text>
</g>
<!-- Node26&#45;&gt;Node27 -->
<g id="edge74" class="edge"><title>Node26&#45;&gt;Node27</title>
<path fill="none" stroke="midnightblue" d="M493.035,-232.362C495.919,-224.758 499.888,-214.294 503.363,-205.135"/>
<polygon fill="midnightblue" stroke="midnightblue" points="506.716,-206.162 506.99,-195.571 500.171,-203.679 506.716,-206.162"/>
</g>
<!-- Node28 -->
<g id="node68" class="node"><title>Node28</title>
<a xlink:href="interval_8h.html" target="_top" xlink:title="base/interval.h">
<polygon fill="white" stroke="black" points="3217,-174.5 3217,-195.5 3297,-195.5 3297,-174.5 3217,-174.5"/>
<text text-anchor="middle" x="3257" y="-182.5" font-family="Helvetica,sans-Serif" font-size="10.00">base/interval.h</text>
</a>
</g>
<!-- Node26&#45;&gt;Node28 -->
<g id="edge80" class="edge"><title>Node26&#45;&gt;Node28</title>
<path fill="none" stroke="midnightblue" d="M524.021,-237.393C538.52,-235.309 555.531,-233.168 571,-232 1029.1,-197.402 2178.67,-204.081 2638,-196 2849.38,-192.281 3101.37,-187.783 3206.77,-185.899"/>
<polygon fill="midnightblue" stroke="midnightblue" points="3206.87,-189.397 3216.81,-185.719 3206.75,-182.399 3206.87,-189.397"/>
</g>
<!-- Node28&#45;&gt;Node4 -->
<g id="edge86" class="edge"><title>Node28&#45;&gt;Node4</title>
<path fill="none" stroke="midnightblue" d="M3216.66,-176.238C3174.7,-167.041 3107.13,-151.999 3049,-138 3010.64,-128.762 3001.33,-125.36 2963,-116 2912.54,-103.676 2854.79,-90.3152 2814.01,-81.0004"/>
<polygon fill="midnightblue" stroke="midnightblue" points="2814.54,-77.5333 2804.02,-78.7225 2812.99,-84.3582 2814.54,-77.5333"/>
</g>
<!-- Node28&#45;&gt;Node9 -->
<g id="edge84" class="edge"><title>Node28&#45;&gt;Node9</title>
<path fill="none" stroke="midnightblue" d="M3255.06,-174.295C3251.59,-155.131 3244.26,-114.654 3239.77,-89.8434"/>
<polygon fill="midnightblue" stroke="midnightblue" points="3243.16,-88.8957 3237.93,-79.6792 3236.27,-90.1428 3243.16,-88.8957"/>
</g>
<!-- Node29 -->
<g id="node70" class="node"><title>Node29</title>
<polygon fill="white" stroke="#bfbfbf" points="3303,-0.5 3303,-21.5 3359,-21.5 3359,-0.5 3303,-0.5"/>
<text text-anchor="middle" x="3331" y="-8.5" font-family="Helvetica,sans-Serif" font-size="10.00">algorithm</text>
</g>
<!-- Node28&#45;&gt;Node29 -->
<g id="edge82" class="edge"><title>Node28&#45;&gt;Node29</title>
<path fill="none" stroke="midnightblue" d="M3261.52,-174.377C3273.56,-146.051 3306.61,-68.3488 3322.39,-31.2424"/>
<polygon fill="midnightblue" stroke="midnightblue" points="3325.66,-32.4999 3326.35,-21.9277 3319.22,-29.7603 3325.66,-32.4999"/>
</g>
<!-- Node30 -->
<g id="node74" class="node"><title>Node30</title>
<a xlink:href="types_8h.html" target="_top" xlink:title="types.h">
<polygon fill="white" stroke="black" points="2684.5,-116.5 2684.5,-137.5 2733.5,-137.5 2733.5,-116.5 2684.5,-116.5"/>
<text text-anchor="middle" x="2709" y="-124.5" font-family="Helvetica,sans-Serif" font-size="10.00">types.h</text>
</a>
</g>
<!-- Node28&#45;&gt;Node30 -->
<g id="edge88" class="edge"><title>Node28&#45;&gt;Node30</title>
<path fill="none" stroke="midnightblue" d="M3216.7,-180.735C3113.43,-169.804 2840.59,-140.927 2743.72,-130.675"/>
<polygon fill="midnightblue" stroke="midnightblue" points="2743.9,-127.174 2733.59,-129.602 2743.16,-134.136 2743.9,-127.174"/>
</g>
<!-- Node28&#45;&gt;Node31 -->
<g id="edge90" class="edge"><title>Node28&#45;&gt;Node31</title>
<path fill="none" stroke="midnightblue" d="M3297.37,-183.556C3415.97,-179.078 3762.79,-164.249 3895.05,-137.567"/>
<polygon fill="midnightblue" stroke="midnightblue" points="3895.9,-140.966 3904.95,-135.457 3894.44,-134.12 3895.9,-140.966"/>
</g>
<!-- Node32&#45;&gt;Node10 -->
<g id="edge122" class="edge"><title>Node32&#45;&gt;Node10</title>
<path fill="none" stroke="midnightblue" d="M1137.21,-299.442C996.661,-293.059 476.805,-268.56 445,-254 368.59,-219.019 373.171,-164.008 371,-80 370.747,-70.2255 370.076,-67.7341 371,-58 371.829,-49.2588 373.508,-39.7244 375.193,-31.5417"/>
<polygon fill="midnightblue" stroke="midnightblue" points="378.618,-32.2612 377.341,-21.7436 371.781,-30.762 378.618,-32.2612"/>
</g>
<!-- Node32&#45;&gt;Node14 -->
<g id="edge120" class="edge"><title>Node32&#45;&gt;Node14</title>
<path fill="none" stroke="midnightblue" d="M1167.03,-290.383C1160.84,-275.386 1152.69,-248.044 1167,-232 1213.75,-179.584 1412.05,-209.351 1481,-196 1482.27,-195.754 1483.56,-195.487 1484.87,-195.205"/>
<polygon fill="midnightblue" stroke="midnightblue" points="1485.98,-198.538 1494.89,-192.803 1484.35,-191.731 1485.98,-198.538"/>
</g>
<!-- Node32&#45;&gt;Node18 -->
<g id="edge112" class="edge"><title>Node32&#45;&gt;Node18</title>
<path fill="none" stroke="midnightblue" d="M1137.22,-294.793C1084.65,-285.412 983.912,-267.434 916.073,-255.327"/>
<polygon fill="midnightblue" stroke="midnightblue" points="916.356,-251.822 905.896,-253.511 915.126,-258.713 916.356,-251.822"/>
</g>
<!-- Node32&#45;&gt;Node26 -->
<g id="edge94" class="edge"><title>Node32&#45;&gt;Node26</title>
<path fill="none" stroke="midnightblue" d="M1137.38,-298.965C1045.16,-293.399 785.914,-276.801 571,-254 559.069,-252.734 546.193,-251.123 534.26,-249.527"/>
<polygon fill="midnightblue" stroke="midnightblue" points="534.445,-246.02 524.064,-248.138 533.499,-252.956 534.445,-246.02"/>
</g>
<!-- Node33 -->
<g id="node81" class="node"><title>Node33</title>
<a xlink:href="root__draw_8h.html" target="_top" xlink:title="root_draw.h">
<polygon fill="white" stroke="black" points="664,-232.5 664,-253.5 732,-253.5 732,-232.5 664,-232.5"/>
<text text-anchor="middle" x="698" y="-240.5" font-family="Helvetica,sans-Serif" font-size="10.00">root_draw.h</text>
</a>
</g>
<!-- Node32&#45;&gt;Node33 -->
<g id="edge96" class="edge"><title>Node32&#45;&gt;Node33</title>
<path fill="none" stroke="midnightblue" d="M1137.28,-297.036C1068.74,-289.17 911.234,-270.885 779,-254 767.132,-252.485 754.297,-250.774 742.418,-249.162"/>
<polygon fill="midnightblue" stroke="midnightblue" points="742.655,-245.662 732.273,-247.778 741.708,-252.598 742.655,-245.662"/>
</g>
<!-- Node36 -->
<g id="node93" class="node"><title>Node36</title>
<polygon fill="white" stroke="#bfbfbf" points="1387.5,-232.5 1387.5,-253.5 1438.5,-253.5 1438.5,-232.5 1387.5,-232.5"/>
<text text-anchor="middle" x="1413" y="-240.5" font-family="Helvetica,sans-Serif" font-size="10.00">TH1D.h</text>
</g>
<!-- Node32&#45;&gt;Node36 -->
<g id="edge114" class="edge"><title>Node32&#45;&gt;Node36</title>
<path fill="none" stroke="midnightblue" d="M1206.66,-294.121C1246.03,-286.091 1312.36,-271.907 1377.81,-254.177"/>
<polygon fill="midnightblue" stroke="midnightblue" points="1378.73,-257.553 1387.45,-251.536 1376.88,-250.801 1378.73,-257.553"/>
</g>
<!-- Node37 -->
<g id="node95" class="node"><title>Node37</title>
<polygon fill="white" stroke="#bfbfbf" points="1175.5,-232.5 1175.5,-253.5 1226.5,-253.5 1226.5,-232.5 1175.5,-232.5"/>
<text text-anchor="middle" x="1201" y="-240.5" font-family="Helvetica,sans-Serif" font-size="10.00">TH2D.h</text>
</g>
<!-- Node32&#45;&gt;Node37 -->
<g id="edge116" class="edge"><title>Node32&#45;&gt;Node37</title>
<path fill="none" stroke="midnightblue" d="M1177.32,-290.362C1181.2,-282.595 1186.58,-271.843 1191.23,-262.546"/>
<polygon fill="midnightblue" stroke="midnightblue" points="1194.37,-264.08 1195.71,-253.571 1188.11,-260.95 1194.37,-264.08"/>
</g>
<!-- Node38 -->
<g id="node97" class="node"><title>Node38</title>
<polygon fill="white" stroke="#bfbfbf" points="1243.5,-232.5 1243.5,-253.5 1294.5,-253.5 1294.5,-232.5 1243.5,-232.5"/>
<text text-anchor="middle" x="1269" y="-240.5" font-family="Helvetica,sans-Serif" font-size="10.00">TH3D.h</text>
</g>
<!-- Node32&#45;&gt;Node38 -->
<g id="edge118" class="edge"><title>Node32&#45;&gt;Node38</title>
<path fill="none" stroke="midnightblue" d="M1189.79,-290.362C1204.56,-281.532 1225.78,-268.844 1242.54,-258.822"/>
<polygon fill="midnightblue" stroke="midnightblue" points="1244.53,-261.707 1251.32,-253.571 1240.94,-255.699 1244.53,-261.707"/>
</g>
<!-- Node39 -->
<g id="node101" class="node"><title>Node39</title>
<polygon fill="white" stroke="#bfbfbf" points="1494,-232.5 1494,-253.5 1548,-253.5 1548,-232.5 1494,-232.5"/>
<text text-anchor="middle" x="1521" y="-240.5" font-family="Helvetica,sans-Serif" font-size="10.00">iostream</text>
</g>
<!-- Node32&#45;&gt;Node39 -->
<g id="edge124" class="edge"><title>Node32&#45;&gt;Node39</title>
<path fill="none" stroke="midnightblue" d="M1206.74,-295.227C1272.69,-284.266 1415.52,-260.53 1483.53,-249.227"/>
<polygon fill="midnightblue" stroke="midnightblue" points="1484.49,-252.615 1493.78,-247.523 1483.34,-245.71 1484.49,-252.615"/>
</g>
<!-- Node40 -->
<g id="node103" class="node"><title>Node40</title>
<polygon fill="white" stroke="#bfbfbf" points="1311.5,-232.5 1311.5,-253.5 1370.5,-253.5 1370.5,-232.5 1311.5,-232.5"/>
<text text-anchor="middle" x="1341" y="-240.5" font-family="Helvetica,sans-Serif" font-size="10.00">exception</text>
</g>
<!-- Node32&#45;&gt;Node40 -->
<g id="edge126" class="edge"><title>Node32&#45;&gt;Node40</title>
<path fill="none" stroke="midnightblue" d="M1202.6,-290.497C1230.38,-280.965 1271.49,-266.857 1301.68,-256.493"/>
<polygon fill="midnightblue" stroke="midnightblue" points="1303.15,-259.69 1311.47,-253.134 1300.88,-253.069 1303.15,-259.69"/>
</g>
<!-- Node33&#45;&gt;Node5 -->
<g id="edge102" class="edge"><title>Node33&#45;&gt;Node5</title>
<path fill="none" stroke="midnightblue" d="M732.237,-235.281C889.401,-199.846 1540.65,-53.0153 1694.38,-18.3549"/>
<polygon fill="midnightblue" stroke="midnightblue" points="1695.59,-21.6701 1704.57,-16.0563 1694.05,-14.8415 1695.59,-21.6701"/>
</g>
<!-- Node33&#45;&gt;Node10 -->
<g id="edge98" class="edge"><title>Node33&#45;&gt;Node10</title>
<path fill="none" stroke="midnightblue" d="M687.288,-232.161C673.14,-218.082 647.182,-193.052 623,-174 547.965,-114.882 452.05,-54.6653 406.416,-26.862"/>
<polygon fill="midnightblue" stroke="midnightblue" points="408.088,-23.783 397.723,-21.5881 404.457,-29.7676 408.088,-23.783"/>
</g>
<!-- Node33&#45;&gt;Node14 -->
<g id="edge106" class="edge"><title>Node33&#45;&gt;Node14</title>
<path fill="none" stroke="midnightblue" d="M732.216,-234.411C736.827,-233.474 741.513,-232.632 746,-232 1036.46,-191.09 1112.49,-217.85 1405,-196 1431.77,-194.001 1461.95,-191.119 1484.81,-188.807"/>
<polygon fill="midnightblue" stroke="midnightblue" points="1485.17,-192.288 1494.77,-187.789 1484.46,-185.324 1485.17,-192.288"/>
</g>
<!-- Node33&#45;&gt;Node19 -->
<g id="edge100" class="edge"><title>Node33&#45;&gt;Node19</title>
<path fill="none" stroke="midnightblue" d="M732.222,-237.035C743.863,-235.183 756.97,-233.291 769,-232 901.369,-217.793 1239.52,-234.383 1367,-196 1385.69,-190.374 1386.96,-181.446 1405,-174 1457.52,-152.322 1522.93,-138.088 1558,-131.412"/>
<polygon fill="midnightblue" stroke="midnightblue" points="1559.07,-134.773 1568.27,-129.51 1557.8,-127.89 1559.07,-134.773"/>
</g>
<!-- Node33&#45;&gt;Node22 -->
<g id="edge104" class="edge"><title>Node33&#45;&gt;Node22</title>
<path fill="none" stroke="midnightblue" d="M732.202,-237.548C746.611,-235.462 763.584,-233.278 779,-232 1303.22,-188.548 1438.62,-248.68 1962,-196 1973.99,-194.794 1987.12,-192.678 1998.35,-190.622"/>
<polygon fill="midnightblue" stroke="midnightblue" points="1999.26,-194.01 2008.43,-188.701 1997.96,-187.134 1999.26,-194.01"/>
</g>
<!-- Node33&#45;&gt;Node34 -->
<g id="edge108" class="edge"><title>Node33&#45;&gt;Node34</title>
<path fill="none" stroke="midnightblue" d="M677.537,-232.497C659.967,-223.479 634.418,-210.365 614.615,-200.201"/>
<polygon fill="midnightblue" stroke="midnightblue" points="616.188,-197.074 605.693,-195.621 612.991,-203.301 616.188,-197.074"/>
</g>
<!-- Node35 -->
<g id="node90" class="node"><title>Node35</title>
<polygon fill="white" stroke="#bfbfbf" points="3359,-116.5 3359,-137.5 3415,-137.5 3415,-116.5 3359,-116.5"/>
<text text-anchor="middle" x="3387" y="-124.5" font-family="Helvetica,sans-Serif" font-size="10.00">Rtypes.h</text>
</g>
<!-- Node33&#45;&gt;Node35 -->
<g id="edge110" class="edge"><title>Node33&#45;&gt;Node35</title>
<path fill="none" stroke="midnightblue" d="M732.198,-237.492C746.606,-235.397 763.579,-233.221 779,-232 1469.91,-177.282 1646.58,-243.91 2338,-196 2422.81,-190.124 2443.28,-181.051 2528,-174 2841.99,-147.866 2921.53,-157.447 3236,-138 3274.37,-135.627 3318.18,-132.375 3348.7,-130.023"/>
<polygon fill="midnightblue" stroke="midnightblue" points="3349.2,-133.494 3358.9,-129.232 3348.66,-126.515 3349.2,-133.494"/>
</g>
<!-- Node41&#45;&gt;Node4 -->
<g id="edge156" class="edge"><title>Node41&#45;&gt;Node4</title>
<path fill="none" stroke="midnightblue" d="M2020.77,-290.243C2014.41,-275.329 2001.07,-248.362 1982,-232 1947.57,-202.455 1868.86,-208.769 1898,-174 1950.31,-111.593 2527.73,-79.7857 2707.74,-71.3367"/>
<polygon fill="midnightblue" stroke="midnightblue" points="2707.94,-74.8313 2717.77,-70.871 2707.61,-67.8388 2707.94,-74.8313"/>
</g>
<!-- Node41&#45;&gt;Node5 -->
<g id="edge184" class="edge"><title>Node41&#45;&gt;Node5</title>
<path fill="none" stroke="midnightblue" d="M2016.27,-290.397C2002.88,-274.897 1975.68,-246.344 1946,-232 1866.65,-193.646 1811.63,-259.964 1751,-196 1708.21,-150.858 1716.11,-69.3352 1722.73,-31.4186"/>
<polygon fill="midnightblue" stroke="midnightblue" points="1726.18,-32.0187 1724.61,-21.5417 1719.3,-30.7147 1726.18,-32.0187"/>
</g>
<!-- Node41&#45;&gt;Node14 -->
<g id="edge190" class="edge"><title>Node41&#45;&gt;Node14</title>
<path fill="none" stroke="midnightblue" d="M1965.24,-298.322C1894.84,-293.946 1774.95,-282.649 1676,-254 1653.46,-247.474 1649.41,-241.608 1628,-232 1603.44,-220.978 1575.6,-208.756 1554.47,-199.539"/>
<polygon fill="midnightblue" stroke="midnightblue" points="1555.84,-196.317 1545.27,-195.53 1553.04,-202.734 1555.84,-196.317"/>
</g>
<!-- Node41&#45;&gt;Node19 -->
<g id="edge186" class="edge"><title>Node41&#45;&gt;Node19</title>
<path fill="none" stroke="midnightblue" d="M2009.05,-290.271C1982.79,-272.792 1931.34,-239.373 1911,-232 1811.25,-195.834 1772.83,-237.068 1675,-196 1659.74,-189.593 1625.65,-162.538 1603.53,-144.27"/>
<polygon fill="midnightblue" stroke="midnightblue" points="1605.62,-141.463 1595.7,-137.761 1601.15,-146.846 1605.62,-141.463"/>
</g>
<!-- Node41&#45;&gt;Node30 -->
<g id="edge158" class="edge"><title>Node41&#45;&gt;Node30</title>
<path fill="none" stroke="midnightblue" d="M2084.75,-299.173C2249.81,-293.837 2701.33,-277.178 2723,-254 2750.12,-224.993 2732.46,-174.452 2719.39,-146.678"/>
<polygon fill="midnightblue" stroke="midnightblue" points="2722.45,-144.965 2714.88,-137.557 2716.18,-148.072 2722.45,-144.965"/>
</g>
<!-- Node41&#45;&gt;Node39 -->
<g id="edge188" class="edge"><title>Node41&#45;&gt;Node39</title>
<path fill="none" stroke="midnightblue" d="M1965.21,-294.119C1860.08,-282.021 1645.06,-257.277 1558.42,-247.306"/>
<polygon fill="midnightblue" stroke="midnightblue" points="1558.6,-243.804 1548.26,-246.138 1557.8,-250.758 1558.6,-243.804"/>
</g>
<!-- Node42 -->
<g id="node107" class="node"><title>Node42</title>
<a xlink:href="_candidate_8h.html" target="_top" xlink:title="analysis/data/Candidate.h">
<polygon fill="white" stroke="black" points="2584,-232.5 2584,-253.5 2714,-253.5 2714,-232.5 2584,-232.5"/>
<text text-anchor="middle" x="2649" y="-240.5" font-family="Helvetica,sans-Serif" font-size="10.00">analysis/data/Candidate.h</text>
</a>
</g>
<!-- Node41&#45;&gt;Node42 -->
<g id="edge130" class="edge"><title>Node41&#45;&gt;Node42</title>
<path fill="none" stroke="midnightblue" d="M2084.78,-296.873C2185.18,-289.711 2394,-273.829 2570,-254 2571.28,-253.856 2572.57,-253.708 2573.86,-253.557"/>
<polygon fill="midnightblue" stroke="midnightblue" points="2574.43,-257.013 2583.94,-252.334 2573.59,-250.064 2574.43,-257.013"/>
</g>
<!-- Node45 -->
<g id="node125" class="node"><title>Node45</title>
<a xlink:href="_particle_type_8h.html" target="_top" xlink:title="base/ParticleType.h">
<polygon fill="white" stroke="black" points="2148,-232.5 2148,-253.5 2252,-253.5 2252,-232.5 2148,-232.5"/>
<text text-anchor="middle" x="2200" y="-240.5" font-family="Helvetica,sans-Serif" font-size="10.00">base/ParticleType.h</text>
</a>
</g>
<!-- Node41&#45;&gt;Node45 -->
<g id="edge160" class="edge"><title>Node41&#45;&gt;Node45</title>
<path fill="none" stroke="midnightblue" d="M2056.69,-290.497C2085.22,-281.041 2127.34,-267.083 2158.53,-256.743"/>
<polygon fill="midnightblue" stroke="midnightblue" points="2159.86,-259.991 2168.25,-253.523 2157.66,-253.347 2159.86,-259.991"/>
</g>
<!-- Node47 -->
<g id="node134" class="node"><title>Node47</title>
<a xlink:href="_tree_8h.html" target="_top" xlink:title="base/Tree.h">
<polygon fill="white" stroke="black" points="1834,-232.5 1834,-253.5 1902,-253.5 1902,-232.5 1834,-232.5"/>
<text text-anchor="middle" x="1868" y="-240.5" font-family="Helvetica,sans-Serif" font-size="10.00">base/Tree.h</text>
</a>
</g>
<!-- Node41&#45;&gt;Node47 -->
<g id="edge174" class="edge"><title>Node41&#45;&gt;Node47</title>
<path fill="none" stroke="midnightblue" d="M1996.57,-290.497C1971.19,-281.123 1933.84,-267.324 1905.93,-257.012"/>
<polygon fill="midnightblue" stroke="midnightblue" points="1907.08,-253.705 1896.48,-253.523 1904.65,-260.272 1907.08,-253.705"/>
</g>
<!-- Node48 -->
<g id="node139" class="node"><title>Node48</title>
<polygon fill="white" stroke="#bfbfbf" points="2537,-174.5 2537,-195.5 2629,-195.5 2629,-174.5 2537,-174.5"/>
<text text-anchor="middle" x="2583" y="-182.5" font-family="Helvetica,sans-Serif" font-size="10.00">TLorentzVector.h</text>
</g>
<!-- Node41&#45;&gt;Node48 -->
<g id="edge182" class="edge"><title>Node41&#45;&gt;Node48</title>
<path fill="none" stroke="midnightblue" d="M2084.65,-298.405C2211.35,-292.48 2498.89,-276.695 2537,-254 2555.47,-243.001 2568.04,-221.363 2575.31,-205.237"/>
<polygon fill="midnightblue" stroke="midnightblue" points="2578.71,-206.179 2579.33,-195.602 2572.25,-203.482 2578.71,-206.179"/>
</g>
<!-- Node42&#45;&gt;Node3 -->
<g id="edge136" class="edge"><title>Node42&#45;&gt;Node3</title>
<path fill="none" stroke="midnightblue" d="M2669.76,-232.295C2709.97,-211.568 2798.53,-165.909 2844.7,-142.105"/>
<polygon fill="midnightblue" stroke="midnightblue" points="2846.33,-145.205 2853.61,-137.512 2843.12,-138.983 2846.33,-145.205"/>
</g>
<!-- Node42&#45;&gt;Node4 -->
<g id="edge132" class="edge"><title>Node42&#45;&gt;Node4</title>
<path fill="none" stroke="midnightblue" d="M2648.45,-232.276C2647.79,-208.792 2649.3,-152.044 2676,-116 2686.56,-101.75 2702.79,-91.2754 2718.24,-83.88"/>
<polygon fill="midnightblue" stroke="midnightblue" points="2720,-86.9301 2727.71,-79.6669 2717.15,-80.5346 2720,-86.9301"/>
</g>
<!-- Node42&#45;&gt;Node5 -->
<g id="edge154" class="edge"><title>Node42&#45;&gt;Node5</title>
<path fill="none" stroke="midnightblue" d="M2583.75,-236.57C2459.08,-224.251 2198.48,-198.332 2189,-196 2101.06,-174.354 1847.33,-64.0965 1758.31,-24.8735"/>
<polygon fill="midnightblue" stroke="midnightblue" points="1759.58,-21.6053 1749.01,-20.7703 1756.75,-28.0095 1759.58,-21.6053"/>
</g>
<!-- Node42&#45;&gt;Node6 -->
<g id="edge150" class="edge"><title>Node42&#45;&gt;Node6</title>
<path fill="none" stroke="midnightblue" d="M2694.86,-232.48C2767.13,-214.878 2902.17,-177.483 2930,-138 2950.48,-108.935 2952.53,-86.296 2931,-58 2914.87,-36.8067 2842.17,-22.7144 2797.22,-15.8581"/>
<polygon fill="midnightblue" stroke="midnightblue" points="2797.67,-12.3861 2787.27,-14.3877 2796.65,-19.311 2797.67,-12.3861"/>
</g>
<!-- Node42&#45;&gt;Node7 -->
<g id="edge148" class="edge"><title>Node42&#45;&gt;Node7</title>
<path fill="none" stroke="midnightblue" d="M2583.62,-236.373C2460.32,-223.839 2205.58,-197.75 2204,-196 2177.8,-166.891 2191.26,-117.165 2202,-89.3562"/>
<polygon fill="midnightblue" stroke="midnightblue" points="2205.34,-90.4402 2205.9,-79.8601 2198.87,-87.7832 2205.34,-90.4402"/>
</g>
<!-- Node42&#45;&gt;Node14 -->
<g id="edge152" class="edge"><title>Node42&#45;&gt;Node14</title>
<path fill="none" stroke="midnightblue" d="M2583.9,-236.033C2568.54,-234.547 2552.2,-233.097 2537,-232 2154.57,-204.393 1689.91,-189.804 1557.68,-186.012"/>
<polygon fill="midnightblue" stroke="midnightblue" points="1557.42,-182.503 1547.32,-185.717 1557.22,-189.5 1557.42,-182.503"/>
</g>
<!-- Node42&#45;&gt;Node30 -->
<g id="edge134" class="edge"><title>Node42&#45;&gt;Node30</title>
<path fill="none" stroke="midnightblue" d="M2654.54,-232.295C2664.58,-212.872 2685.95,-171.556 2698.73,-146.846"/>
<polygon fill="midnightblue" stroke="midnightblue" points="2701.99,-148.169 2703.48,-137.679 2695.77,-144.953 2701.99,-148.169"/>
</g>
<!-- Node43 -->
<g id="node112" class="node"><title>Node43</title>
<a xlink:href="_cluster_8h.html" target="_top" xlink:title="analysis/data/Cluster.h">
<polygon fill="white" stroke="black" points="2212.5,-174.5 2212.5,-195.5 2329.5,-195.5 2329.5,-174.5 2212.5,-174.5"/>
<text text-anchor="middle" x="2271" y="-182.5" font-family="Helvetica,sans-Serif" font-size="10.00">analysis/data/Cluster.h</text>
</a>
</g>
<!-- Node42&#45;&gt;Node43 -->
<g id="edge138" class="edge"><title>Node42&#45;&gt;Node43</title>
<path fill="none" stroke="midnightblue" d="M2583.59,-232.963C2515.41,-222.503 2409.04,-206.18 2339.67,-195.537"/>
<polygon fill="midnightblue" stroke="midnightblue" points="2340.13,-192.067 2329.72,-194.009 2339.07,-198.986 2340.13,-192.067"/>
</g>
<!-- Node43&#45;&gt;Node3 -->
<g id="edge140" class="edge"><title>Node43&#45;&gt;Node3</title>
<path fill="none" stroke="midnightblue" d="M2329.64,-179.36C2445.27,-168.237 2701.42,-143.6 2816.29,-132.551"/>
<polygon fill="midnightblue" stroke="midnightblue" points="2816.68,-136.029 2826.3,-131.588 2816.01,-129.062 2816.68,-136.029"/>
</g>
<!-- Node43&#45;&gt;Node7 -->
<g id="edge144" class="edge"><title>Node43&#45;&gt;Node7</title>
<path fill="none" stroke="midnightblue" d="M2265.46,-174.295C2255.42,-154.872 2234.05,-113.556 2221.27,-88.8462"/>
<polygon fill="midnightblue" stroke="midnightblue" points="2224.23,-86.9534 2216.52,-79.6792 2218.01,-90.1694 2224.23,-86.9534"/>
</g>
<!-- Node43&#45;&gt;Node19 -->
<g id="edge142" class="edge"><title>Node43&#45;&gt;Node19</title>
<path fill="none" stroke="midnightblue" d="M2212.34,-180.055C2069.03,-167.974 1705.69,-137.343 1607.68,-129.081"/>
<polygon fill="midnightblue" stroke="midnightblue" points="1607.82,-125.58 1597.56,-128.227 1607.23,-132.555 1607.82,-125.58"/>
</g>
<!-- Node44 -->
<g id="node117" class="node"><title>Node44</title>
<a xlink:href="enumfield_8h.html" target="_top" xlink:title="base/enumfield.h">
<polygon fill="white" stroke="black" points="2276.5,-116.5 2276.5,-137.5 2367.5,-137.5 2367.5,-116.5 2276.5,-116.5"/>
<text text-anchor="middle" x="2322" y="-124.5" font-family="Helvetica,sans-Serif" font-size="10.00">base/enumfield.h</text>
</a>
</g>
<!-- Node43&#45;&gt;Node44 -->
<g id="edge146" class="edge"><title>Node43&#45;&gt;Node44</title>
<path fill="none" stroke="midnightblue" d="M2280.35,-174.362C2287.54,-166.186 2297.64,-154.702 2306.09,-145.091"/>
<polygon fill="midnightblue" stroke="midnightblue" points="2308.73,-147.392 2312.71,-137.571 2303.47,-142.769 2308.73,-147.392"/>
</g>
<!-- Node45&#45;&gt;Node5 -->
<g id="edge172" class="edge"><title>Node45&#45;&gt;Node5</title>
<path fill="none" stroke="midnightblue" d="M2147.8,-236.075C2106.44,-229.341 2047.86,-216.982 2000,-196 1972.89,-184.113 1811.39,-70.6769 1750.35,-27.5384"/>
<polygon fill="midnightblue" stroke="midnightblue" points="1752.28,-24.621 1742.1,-21.7042 1748.24,-30.3361 1752.28,-24.621"/>
</g>
<!-- Node45&#45;&gt;Node6 -->
<g id="edge166" class="edge"><title>Node45&#45;&gt;Node6</title>
<path fill="none" stroke="midnightblue" d="M2233.46,-232.474C2261.59,-223.421 2302.73,-209.692 2338,-196 2486.44,-138.379 2659.22,-58.7832 2729.18,-26.0155"/>
<polygon fill="midnightblue" stroke="midnightblue" points="2730.79,-29.1264 2738.36,-21.7097 2727.82,-22.7894 2730.79,-29.1264"/>
</g>
<!-- Node45&#45;&gt;Node10 -->
<g id="edge164" class="edge"><title>Node45&#45;&gt;Node10</title>
<path fill="none" stroke="midnightblue" d="M2147.92,-235.968C2074.5,-225.871 1944.34,-207.246 1898,-196 1867.95,-188.708 1861.66,-182.737 1832,-174 1732.53,-144.697 1708.11,-134.065 1606,-116 1349.16,-70.5605 1281.87,-80.4129 1022,-58 786.91,-37.7241 502.895,-18.9227 410.576,-12.956"/>
<polygon fill="midnightblue" stroke="midnightblue" points="410.731,-9.45886 400.526,-12.3084 410.281,-16.4444 410.731,-9.45886"/>
</g>
<!-- Node45&#45;&gt;Node22 -->
<g id="edge168" class="edge"><title>Node45&#45;&gt;Node22</title>
<path fill="none" stroke="midnightblue" d="M2167.27,-232.484C2138.24,-223.098 2094.71,-208.886 2057,-196 2055.78,-195.585 2054.54,-195.157 2053.29,-194.723"/>
<polygon fill="midnightblue" stroke="midnightblue" points="2054.27,-191.36 2043.68,-191.354 2051.96,-197.966 2054.27,-191.36"/>
</g>
<!-- Node45&#45;&gt;Node30 -->
<g id="edge162" class="edge"><title>Node45&#45;&gt;Node30</title>
<path fill="none" stroke="midnightblue" d="M2247.33,-232.426C2289.7,-222.943 2353.51,-208.619 2409,-196 2504.96,-174.176 2618.08,-148.05 2674.03,-135.101"/>
<polygon fill="midnightblue" stroke="midnightblue" points="2675.17,-138.431 2684.12,-132.766 2673.59,-131.611 2675.17,-138.431"/>
</g>
<!-- Node46 -->
<g id="node131" class="node"><title>Node46</title>
<polygon fill="white" stroke="#bfbfbf" points="1906.5,-174.5 1906.5,-195.5 1953.5,-195.5 1953.5,-174.5 1906.5,-174.5"/>
<text text-anchor="middle" x="1930" y="-182.5" font-family="Helvetica,sans-Serif" font-size="10.00">iterator</text>
</g>
<!-- Node45&#45;&gt;Node46 -->
<g id="edge170" class="edge"><title>Node45&#45;&gt;Node46</title>
<path fill="none" stroke="midnightblue" d="M2147.88,-233.874C2100.46,-225.243 2028.67,-211.353 1967,-196 1965.93,-195.733 1964.84,-195.454 1963.74,-195.167"/>
<polygon fill="midnightblue" stroke="midnightblue" points="1964.37,-191.71 1953.8,-192.418 1962.5,-198.456 1964.37,-191.71"/>
</g>
<!-- Node47&#45;&gt;Node14 -->
<g id="edge176" class="edge"><title>Node47&#45;&gt;Node14</title>
<path fill="none" stroke="midnightblue" d="M1833.8,-233.933C1830.83,-233.243 1827.87,-232.587 1825,-232 1774.36,-221.634 1626.5,-200.074 1557.39,-190.174"/>
<polygon fill="midnightblue" stroke="midnightblue" points="1557.79,-186.695 1547.4,-188.744 1556.8,-193.625 1557.79,-186.695"/>
</g>
<!-- Node47&#45;&gt;Node19 -->
<g id="edge178" class="edge"><title>Node47&#45;&gt;Node19</title>
<path fill="none" stroke="midnightblue" d="M1833.78,-234.044C1830.81,-233.33 1827.86,-232.638 1825,-232 1741.97,-213.449 1709.62,-240.32 1637,-196 1617.54,-184.122 1602.35,-162.498 1593.11,-146.614"/>
<polygon fill="midnightblue" stroke="midnightblue" points="1596.03,-144.667 1588.14,-137.604 1589.91,-148.05 1596.03,-144.667"/>
</g>
<!-- Node47&#45;&gt;Node29 -->
<g id="edge180" class="edge"><title>Node47&#45;&gt;Node29</title>
<path fill="none" stroke="midnightblue" d="M1902.22,-241.504C1953.62,-239.281 2053.83,-235.042 2139,-232 2203.82,-229.685 3257.82,-239.432 3306,-196 3352.23,-154.324 3343.17,-71.0669 3335.75,-32.0676"/>
<polygon fill="midnightblue" stroke="midnightblue" points="3339.11,-30.9846 3333.66,-21.8947 3332.25,-32.3948 3339.11,-30.9846"/>
</g>
<!-- Node49&#45;&gt;Node4 -->
<g id="edge264" class="edge"><title>Node49&#45;&gt;Node4</title>
<path fill="none" stroke="midnightblue" d="M2391.92,-355.43C2402.5,-352.644 2414.15,-349.892 2425,-348 2468.85,-340.356 2793.97,-344.86 2824,-312 2883.67,-246.701 2809.12,-132.195 2775.67,-87.5564"/>
<polygon fill="midnightblue" stroke="midnightblue" points="2778.44,-85.4118 2769.58,-79.5956 2772.88,-89.6648 2778.44,-85.4118"/>
</g>
<!-- Node49&#45;&gt;Node5 -->
<g id="edge268" class="edge"><title>Node49&#45;&gt;Node5</title>
<path fill="none" stroke="midnightblue" d="M2325.09,-355.466C2228.36,-322.366 1935.57,-221.159 1898,-196 1827.65,-148.888 1765.91,-67.2331 1739.99,-30.2223"/>
<polygon fill="midnightblue" stroke="midnightblue" points="1742.75,-28.0619 1734.19,-21.8228 1736.99,-32.0401 1742.75,-28.0619"/>
</g>
<!-- Node49&#45;&gt;Node14 -->
<g id="edge270" class="edge"><title>Node49&#45;&gt;Node14</title>
<path fill="none" stroke="midnightblue" d="M2300.48,-360.812C2152.38,-346.445 1750.85,-303.887 1628,-254 1619.18,-250.42 1573.82,-220.44 1545.06,-201.194"/>
<polygon fill="midnightblue" stroke="midnightblue" points="1546.98,-198.268 1536.73,-195.606 1543.09,-204.082 1546.98,-198.268"/>
</g>
<!-- Node49&#45;&gt;Node22 -->
<g id="edge272" class="edge"><title>Node49&#45;&gt;Node22</title>
<path fill="none" stroke="midnightblue" d="M2357.81,-355.397C2361.49,-329.942 2366.78,-265.047 2332,-232 2288.04,-190.235 2125.18,-212.176 2053.45,-196.947"/>
<polygon fill="midnightblue" stroke="midnightblue" points="2054.11,-193.503 2043.56,-194.419 2052.38,-200.285 2054.11,-193.503"/>
</g>
<!-- Node49&#45;&gt;Node30 -->
<g id="edge262" class="edge"><title>Node49&#45;&gt;Node30</title>
<path fill="none" stroke="midnightblue" d="M2391.93,-355.476C2402.51,-352.692 2414.15,-349.929 2425,-348 2506.55,-333.5 2740.33,-373.334 2796,-312 2820.41,-285.102 2854.39,-314.432 2765,-174 2757.36,-162.003 2745.68,-151.504 2734.96,-143.49"/>
<polygon fill="midnightblue" stroke="midnightblue" points="2736.85,-140.538 2726.67,-137.615 2732.81,-146.25 2736.85,-140.538"/>
</g>
<!-- Node49&#45;&gt;Node41 -->
<g id="edge196" class="edge"><title>Node49&#45;&gt;Node41</title>
<path fill="none" stroke="midnightblue" d="M2302.45,-355.484C2244.04,-344.014 2150.61,-325.667 2088.54,-313.477"/>
<polygon fill="midnightblue" stroke="midnightblue" points="2088.96,-309.993 2078.47,-311.501 2087.61,-316.862 2088.96,-309.993"/>
</g>
<!-- Node49&#45;&gt;Node42 -->
<g id="edge198" class="edge"><title>Node49&#45;&gt;Node42</title>
<path fill="none" stroke="midnightblue" d="M2381.23,-355.407C2433.7,-333.382 2554.62,-282.62 2614.34,-257.55"/>
<polygon fill="midnightblue" stroke="midnightblue" points="2615.86,-260.709 2623.72,-253.612 2613.15,-254.255 2615.86,-260.709"/>
</g>
<!-- Node49&#45;&gt;Node47 -->
<g id="edge266" class="edge"><title>Node49&#45;&gt;Node47</title>
<path fill="none" stroke="midnightblue" d="M2300.46,-362.059C2205.87,-354.757 2017.84,-337.508 1957,-312 1928.8,-300.176 1901.84,-277.044 1885.13,-260.835"/>
<polygon fill="midnightblue" stroke="midnightblue" points="1887.34,-258.098 1877.78,-253.514 1882.39,-263.054 1887.34,-258.098"/>
</g>
<!-- Node50 -->
<g id="node150" class="node"><title>Node50</title>
<a xlink:href="_tagger_hit_8h.html" target="_top" xlink:title="TaggerHit.h">
<polygon fill="white" stroke="black" points="2460,-232.5 2460,-253.5 2528,-253.5 2528,-232.5 2460,-232.5"/>
<text text-anchor="middle" x="2494" y="-240.5" font-family="Helvetica,sans-Serif" font-size="10.00">TaggerHit.h</text>
</a>
</g>
<!-- Node49&#45;&gt;Node50 -->
<g id="edge200" class="edge"><title>Node49&#45;&gt;Node50</title>
<path fill="none" stroke="midnightblue" d="M2368.25,-355.085C2392.14,-333.787 2445.17,-286.52 2474.15,-260.692"/>
<polygon fill="midnightblue" stroke="midnightblue" points="2476.84,-262.982 2481.98,-253.715 2472.18,-257.756 2476.84,-262.982"/>
</g>
<!-- Node51 -->
<g id="node157" class="node"><title>Node51</title>
<a xlink:href="_trigger_info_8h.html" target="_top" xlink:title="TriggerInfo.h">
<polygon fill="white" stroke="black" points="2716.5,-290.5 2716.5,-311.5 2787.5,-311.5 2787.5,-290.5 2716.5,-290.5"/>
<text text-anchor="middle" x="2752" y="-298.5" font-family="Helvetica,sans-Serif" font-size="10.00">TriggerInfo.h</text>
</a>
</g>
<!-- Node49&#45;&gt;Node51 -->
<g id="edge212" class="edge"><title>Node49&#45;&gt;Node51</title>
<path fill="none" stroke="midnightblue" d="M2393.42,-355.42C2403.61,-352.763 2414.68,-350.08 2425,-348 2524.59,-327.919 2642.92,-313.125 2706.38,-305.916"/>
<polygon fill="midnightblue" stroke="midnightblue" points="2706.91,-309.378 2716.45,-304.782 2706.12,-302.422 2706.91,-309.378"/>
</g>
<!-- Node50&#45;&gt;Node4 -->
<g id="edge208" class="edge"><title>Node50&#45;&gt;Node4</title>
<path fill="none" stroke="midnightblue" d="M2459.98,-234.861C2455.3,-233.84 2450.54,-232.856 2446,-232 2392.57,-221.92 2239.5,-237.176 2204,-196 2197.61,-188.595 2200.04,-182.939 2204,-174 2219.56,-138.906 2232.88,-131.5 2268,-116 2345.63,-81.7374 2596.63,-72.3689 2707.5,-69.875"/>
<polygon fill="midnightblue" stroke="midnightblue" points="2707.86,-73.3682 2717.79,-69.6545 2707.71,-66.3698 2707.86,-73.3682"/>
</g>
<!-- Node50&#45;&gt;Node14 -->
<g id="edge204" class="edge"><title>Node50&#45;&gt;Node14</title>
<path fill="none" stroke="midnightblue" d="M2459.94,-240.97C2310.32,-232.051 1711.96,-196.383 1557.52,-187.177"/>
<polygon fill="midnightblue" stroke="midnightblue" points="1557.37,-183.662 1547.18,-186.561 1556.96,-190.65 1557.37,-183.662"/>
</g>
<!-- Node50&#45;&gt;Node19 -->
<g id="edge202" class="edge"><title>Node50&#45;&gt;Node19</title>
<path fill="none" stroke="midnightblue" d="M2459.75,-234.613C2455.15,-233.643 2450.47,-232.739 2446,-232 2291.28,-206.437 2245.38,-240.475 2095,-196 2074.41,-189.912 2072.59,-180.064 2052,-174 1967.3,-149.056 1692.1,-132.767 1607.78,-128.267"/>
<polygon fill="midnightblue" stroke="midnightblue" points="1607.79,-124.762 1597.62,-127.733 1607.42,-131.753 1607.79,-124.762"/>
</g>
<!-- Node50&#45;&gt;Node30 -->
<g id="edge206" class="edge"><title>Node50&#45;&gt;Node30</title>
<path fill="none" stroke="midnightblue" d="M2496.28,-232.381C2500.12,-217.126 2509.36,-189.181 2528,-174 2550.24,-155.882 2628.04,-140.38 2674.08,-132.517"/>
<polygon fill="midnightblue" stroke="midnightblue" points="2674.94,-135.922 2684.23,-130.821 2673.78,-129.018 2674.94,-135.922"/>
</g>
<!-- Node50&#45;&gt;Node48 -->
<g id="edge210" class="edge"><title>Node50&#45;&gt;Node48</title>
<path fill="none" stroke="midnightblue" d="M2510.32,-232.362C2523.75,-223.614 2542.98,-211.079 2558.29,-201.101"/>
<polygon fill="midnightblue" stroke="midnightblue" points="2560.31,-203.963 2566.78,-195.571 2556.49,-198.098 2560.31,-203.963"/>
</g>
<!-- Node51&#45;&gt;Node4 -->
<g id="edge216" class="edge"><title>Node51&#45;&gt;Node4</title>
<path fill="none" stroke="midnightblue" d="M2758.38,-290.242C2763.47,-280.994 2770.2,-267.111 2773,-254 2785.54,-195.204 2773.39,-123.72 2765.91,-89.3639"/>
<polygon fill="midnightblue" stroke="midnightblue" points="2769.31,-88.55 2763.68,-79.577 2762.49,-90.1046 2769.31,-88.55"/>
</g>
<!-- Node51&#45;&gt;Node14 -->
<g id="edge260" class="edge"><title>Node51&#45;&gt;Node14</title>
<path fill="none" stroke="midnightblue" d="M2716.47,-300.295C2545.07,-296.777 1808,-280.226 1709,-254 1688.25,-248.503 1685.83,-240.225 1666,-232 1629.7,-216.945 1586.73,-203.542 1557.03,-194.939"/>
<polygon fill="midnightblue" stroke="midnightblue" points="1557.69,-191.488 1547.12,-192.102 1555.77,-198.218 1557.69,-191.488"/>
</g>
<!-- Node51&#45;&gt;Node19 -->
<g id="edge258" class="edge"><title>Node51&#45;&gt;Node19</title>
<path fill="none" stroke="midnightblue" d="M2716.47,-300.611C2621.86,-299.075 2356.2,-291.477 2139,-254 2102.24,-247.657 2094.37,-240.316 2058,-232 1972.94,-212.549 1950.3,-214.376 1865,-196 1769.26,-175.375 1656.4,-146.309 1607.56,-133.497"/>
<polygon fill="midnightblue" stroke="midnightblue" points="1608.17,-130.04 1597.61,-130.88 1606.39,-136.809 1608.17,-130.04"/>
</g>
<!-- Node51&#45;&gt;Node30 -->
<g id="edge214" class="edge"><title>Node51&#45;&gt;Node30</title>
<path fill="none" stroke="midnightblue" d="M2754.13,-290.206C2758.07,-267.527 2764.6,-213.746 2747,-174 2742.35,-163.494 2734.72,-153.377 2727.52,-145.238"/>
<polygon fill="midnightblue" stroke="midnightblue" points="2729.97,-142.732 2720.58,-137.817 2724.85,-147.512 2729.97,-142.732"/>
</g>
<!-- Node52 -->
<g id="node161" class="node"><title>Node52</title>
<a xlink:href="_t_data_record_8h.html" target="_top" xlink:title="tree/TDataRecord.h">
<polygon fill="white" stroke="black" points="3518.5,-232.5 3518.5,-253.5 3621.5,-253.5 3621.5,-232.5 3518.5,-232.5"/>
<text text-anchor="middle" x="3570" y="-240.5" font-family="Helvetica,sans-Serif" font-size="10.00">tree/TDataRecord.h</text>
</a>
</g>
<!-- Node51&#45;&gt;Node52 -->
<g id="edge218" class="edge"><title>Node51&#45;&gt;Node52</title>
<path fill="none" stroke="midnightblue" d="M2787.67,-298.471C2914.73,-289.462 3346.19,-258.869 3508.02,-247.395"/>
<polygon fill="midnightblue" stroke="midnightblue" points="3508.55,-250.866 3518.28,-246.667 3508.06,-243.883 3508.55,-250.866"/>
</g>
<!-- Node52&#45;&gt;Node35 -->
<g id="edge252" class="edge"><title>Node52&#45;&gt;Node35</title>
<path fill="none" stroke="midnightblue" d="M3553.11,-232.295C3520.89,-211.871 3450.48,-167.238 3412.5,-143.162"/>
<polygon fill="midnightblue" stroke="midnightblue" points="3413.9,-139.909 3403.58,-137.512 3410.16,-145.822 3413.9,-139.909"/>
</g>
<!-- Node53 -->
<g id="node163" class="node"><title>Node53</title>
<a xlink:href="_t_i_d_8h.html" target="_top" xlink:title="TID.h">
<polygon fill="white" stroke="black" points="3521.5,-174.5 3521.5,-195.5 3562.5,-195.5 3562.5,-174.5 3521.5,-174.5"/>
<text text-anchor="middle" x="3542" y="-182.5" font-family="Helvetica,sans-Serif" font-size="10.00">TID.h</text>
</a>
</g>
<!-- Node52&#45;&gt;Node53 -->
<g id="edge220" class="edge"><title>Node52&#45;&gt;Node53</title>
<path fill="none" stroke="midnightblue" d="M3564.86,-232.362C3561.15,-224.677 3556.03,-214.069 3551.58,-204.84"/>
<polygon fill="midnightblue" stroke="midnightblue" points="3554.6,-203.055 3547.1,-195.571 3548.3,-206.098 3554.6,-203.055"/>
</g>
<!-- Node58 -->
<g id="node177" class="node"><title>Node58</title>
<polygon fill="white" stroke="#bfbfbf" points="3659.5,-58.5 3659.5,-79.5 3700.5,-79.5 3700.5,-58.5 3659.5,-58.5"/>
<text text-anchor="middle" x="3680" y="-66.5" font-family="Helvetica,sans-Serif" font-size="10.00">ctime</text>
</g>
<!-- Node52&#45;&gt;Node58 -->
<g id="edge256" class="edge"><title>Node52&#45;&gt;Node58</title>
<path fill="none" stroke="midnightblue" d="M3593.35,-232.495C3624.58,-216.972 3678.49,-184.627 3700,-138 3707.39,-121.989 3700.52,-102.619 3692.88,-88.4827"/>
<polygon fill="midnightblue" stroke="midnightblue" points="3695.75,-86.4563 3687.64,-79.6377 3689.73,-90.025 3695.75,-86.4563"/>
</g>
<!-- Node60 -->
<g id="node184" class="node"><title>Node60</title>
<polygon fill="white" stroke="#bfbfbf" points="3641,-116.5 3641,-137.5 3691,-137.5 3691,-116.5 3641,-116.5"/>
<text text-anchor="middle" x="3666" y="-124.5" font-family="Helvetica,sans-Serif" font-size="10.00">iomanip</text>
</g>
<!-- Node52&#45;&gt;Node60 -->
<g id="edge254" class="edge"><title>Node52&#45;&gt;Node60</title>
<path fill="none" stroke="midnightblue" d="M3578.86,-232.295C3595.22,-212.527 3630.35,-170.08 3650.65,-145.544"/>
<polygon fill="midnightblue" stroke="midnightblue" points="3653.48,-147.615 3657.16,-137.679 3648.09,-143.152 3653.48,-147.615"/>
</g>
<!-- Node53&#45;&gt;Node4 -->
<g id="edge224" class="edge"><title>Node53&#45;&gt;Node4</title>
<path fill="none" stroke="midnightblue" d="M3521.08,-184.635C3455.51,-183.115 3248.42,-175.46 3082,-138 3053.47,-131.579 3048.25,-123.524 3020,-116 2949.83,-97.3136 2866.98,-83.7163 2814.23,-76.0901"/>
<polygon fill="midnightblue" stroke="midnightblue" points="2814.48,-72.5916 2804.09,-74.6448 2813.5,-79.5215 2814.48,-72.5916"/>
</g>
<!-- Node53&#45;&gt;Node8 -->
<g id="edge244" class="edge"><title>Node53&#45;&gt;Node8</title>
<path fill="none" stroke="midnightblue" d="M3548.33,-174.493C3555.96,-160.339 3566.53,-134.761 3556,-116 3546.45,-98.9884 3527.97,-87.4045 3511.5,-79.9938"/>
<polygon fill="midnightblue" stroke="midnightblue" points="3512.7,-76.7022 3502.13,-76.1032 3510.02,-83.1679 3512.7,-76.7022"/>
</g>
<!-- Node53&#45;&gt;Node9 -->
<g id="edge246" class="edge"><title>Node53&#45;&gt;Node9</title>
<path fill="none" stroke="midnightblue" d="M3532.14,-174.267C3517.35,-158.87 3487.87,-130.749 3457,-116 3397.73,-87.6826 3321.44,-76.3011 3275.75,-71.8155"/>
<polygon fill="midnightblue" stroke="midnightblue" points="3275.94,-68.3176 3265.66,-70.8881 3275.3,-75.2883 3275.94,-68.3176"/>
</g>
<!-- Node53&#45;&gt;Node11 -->
<g id="edge240" class="edge"><title>Node53&#45;&gt;Node11</title>
<path fill="none" stroke="midnightblue" d="M3521.81,-174.445C3504.42,-165.208 3478.75,-151.234 3457,-138 3441.94,-128.838 3440.63,-121.845 3424,-116 3333.35,-84.1416 3041.18,-73.0811 2932.36,-70.0088"/>
<polygon fill="midnightblue" stroke="midnightblue" points="2932.2,-66.5034 2922.11,-69.728 2932.01,-73.5007 2932.2,-66.5034"/>
</g>
<!-- Node53&#45;&gt;Node35 -->
<g id="edge222" class="edge"><title>Node53&#45;&gt;Node35</title>
<path fill="none" stroke="midnightblue" d="M3521.42,-177.298C3496.75,-168.067 3454.93,-152.418 3424.47,-141.022"/>
<polygon fill="midnightblue" stroke="midnightblue" points="3425.61,-137.712 3415.02,-137.486 3423.16,-144.268 3425.61,-137.712"/>
</g>
<!-- Node54 -->
<g id="node167" class="node"><title>Node54</title>
<a xlink:href="time_8h.html" target="_top" xlink:title="base/std_ext/time.h">
<polygon fill="white" stroke="black" points="3784.5,-116.5 3784.5,-137.5 3887.5,-137.5 3887.5,-116.5 3784.5,-116.5"/>
<text text-anchor="middle" x="3836" y="-124.5" font-family="Helvetica,sans-Serif" font-size="10.00">base/std_ext/time.h</text>
</a>
</g>
<!-- Node53&#45;&gt;Node54 -->
<g id="edge226" class="edge"><title>Node53&#45;&gt;Node54</title>
<path fill="none" stroke="midnightblue" d="M3562.67,-180.922C3606.06,-172.362 3708.09,-152.235 3774.47,-139.138"/>
<polygon fill="midnightblue" stroke="midnightblue" points="3775.27,-142.549 3784.4,-137.179 3773.91,-135.681 3775.27,-142.549"/>
</g>
<!-- Node53&#45;&gt;Node58 -->
<g id="edge250" class="edge"><title>Node53&#45;&gt;Node58</title>
<path fill="none" stroke="midnightblue" d="M3554.74,-174.295C3578.66,-154.182 3630.52,-110.59 3659.45,-86.2752"/>
<polygon fill="midnightblue" stroke="midnightblue" points="3661.89,-88.793 3667.3,-79.6792 3657.39,-83.4346 3661.89,-88.793"/>
</g>
<!-- Node59 -->
<g id="node180" class="node"><title>Node59</title>
<polygon fill="white" stroke="#bfbfbf" points="3509,-116.5 3509,-137.5 3547,-137.5 3547,-116.5 3509,-116.5"/>
<text text-anchor="middle" x="3528" y="-124.5" font-family="Helvetica,sans-Serif" font-size="10.00">tuple</text>
</g>
<!-- Node53&#45;&gt;Node59 -->
<g id="edge242" class="edge"><title>Node53&#45;&gt;Node59</title>
<path fill="none" stroke="midnightblue" d="M3539.43,-174.362C3537.62,-166.84 3535.13,-156.519 3532.93,-147.431"/>
<polygon fill="midnightblue" stroke="midnightblue" points="3536.3,-146.47 3530.55,-137.571 3529.5,-148.113 3536.3,-146.47"/>
</g>
<!-- Node53&#45;&gt;Node60 -->
<g id="edge248" class="edge"><title>Node53&#45;&gt;Node60</title>
<path fill="none" stroke="midnightblue" d="M3562.75,-175.292C3582.3,-166.15 3611.86,-152.326 3634.34,-141.807"/>
<polygon fill="midnightblue" stroke="midnightblue" points="3635.92,-144.933 3643.5,-137.525 3632.96,-138.592 3635.92,-144.933"/>
</g>
<!-- Node55 -->
<g id="node169" class="node"><title>Node55</title>
<a xlink:href="string_8h.html" target="_top" xlink:title="base/std_ext/string.h">
<polygon fill="white" stroke="black" points="3782,-58.5 3782,-79.5 3890,-79.5 3890,-58.5 3782,-58.5"/>
<text text-anchor="middle" x="3836" y="-66.5" font-family="Helvetica,sans-Serif" font-size="10.00">base/std_ext/string.h</text>
</a>
</g>
<!-- Node54&#45;&gt;Node55 -->
<g id="edge228" class="edge"><title>Node54&#45;&gt;Node55</title>
<path fill="none" stroke="midnightblue" d="M3836,-116.362C3836,-108.922 3836,-98.7427 3836,-89.7276"/>
<polygon fill="midnightblue" stroke="midnightblue" points="3839.5,-89.5706 3836,-79.5707 3832.5,-89.5707 3839.5,-89.5706"/>
</g>
<!-- Node57 -->
<g id="node175" class="node"><title>Node57</title>
<polygon fill="white" stroke="#bfbfbf" points="3718,-58.5 3718,-79.5 3764,-79.5 3764,-58.5 3718,-58.5"/>
<text text-anchor="middle" x="3741" y="-66.5" font-family="Helvetica,sans-Serif" font-size="10.00">cstring</text>
</g>
<!-- Node54&#45;&gt;Node57 -->
<g id="edge236" class="edge"><title>Node54&#45;&gt;Node57</title>
<path fill="none" stroke="midnightblue" d="M3818.58,-116.362C3804.11,-107.532 3783.33,-94.844 3766.92,-84.8224"/>
<polygon fill="midnightblue" stroke="midnightblue" points="3768.67,-81.7943 3758.31,-79.5707 3765.03,-87.7688 3768.67,-81.7943"/>
</g>
<!-- Node54&#45;&gt;Node58 -->
<g id="edge238" class="edge"><title>Node54&#45;&gt;Node58</title>
<path fill="none" stroke="midnightblue" d="M3807.23,-116.426C3783.48,-107.685 3748.66,-94.8292 3710.39,-80.5044"/>
<polygon fill="midnightblue" stroke="midnightblue" points="3711.18,-77.0634 3700.59,-76.8325 3708.72,-83.6184 3711.18,-77.0634"/>
</g>
<!-- Node55&#45;&gt;Node10 -->
<g id="edge230" class="edge"><title>Node55&#45;&gt;Node10</title>
<path fill="none" stroke="midnightblue" d="M3781.78,-58.969C3778.81,-58.597 3775.87,-58.2691 3773,-58 3596.2,-41.4466 742.039,-14.3771 411.199,-11.2895"/>
<polygon fill="midnightblue" stroke="midnightblue" points="410.942,-7.78708 400.91,-11.1936 410.877,-14.7868 410.942,-7.78708"/>
</g>
<!-- Node55&#45;&gt;Node29 -->
<g id="edge234" class="edge"><title>Node55&#45;&gt;Node29</title>
<path fill="none" stroke="midnightblue" d="M3781.74,-59.2887C3778.79,-58.8342 3775.86,-58.4011 3773,-58 3624.11,-37.1089 3445.83,-20.793 3369.14,-14.1892"/>
<polygon fill="midnightblue" stroke="midnightblue" points="3369.27,-10.6875 3359,-13.3223 3368.67,-17.662 3369.27,-10.6875"/>
</g>
<!-- Node56 -->
<g id="node172" class="node"><title>Node56</title>
<polygon fill="white" stroke="#bfbfbf" points="3810,-0.5 3810,-21.5 3862,-21.5 3862,-0.5 3810,-0.5"/>
<text text-anchor="middle" x="3836" y="-8.5" font-family="Helvetica,sans-Serif" font-size="10.00">sstream</text>
</g>
<!-- Node55&#45;&gt;Node56 -->
<g id="edge232" class="edge"><title>Node55&#45;&gt;Node56</title>
<path fill="none" stroke="midnightblue" d="M3836,-58.3619C3836,-50.9219 3836,-40.7427 3836,-31.7276"/>
<polygon fill="midnightblue" stroke="midnightblue" points="3839.5,-31.5706 3836,-21.5707 3832.5,-31.5707 3839.5,-31.5706"/>
</g>
<!-- Node61&#45;&gt;Node5 -->
<g id="edge276" class="edge"><title>Node61&#45;&gt;Node5</title>
<path fill="none" stroke="midnightblue" d="M3132.16,-116.427C3090.07,-100.41 3005.64,-70.5387 2931,-58 2696.08,-18.5342 1926.22,-12.0905 1759.17,-11.1489"/>
<polygon fill="midnightblue" stroke="midnightblue" points="1759.07,-7.64843 1749.05,-11.0946 1759.03,-14.6483 1759.07,-7.64843"/>
</g>
<!-- Node61&#45;&gt;Node8 -->
<g id="edge278" class="edge"><title>Node61&#45;&gt;Node8</title>
<path fill="none" stroke="midnightblue" d="M3216.95,-116.497C3283.81,-104.377 3391.49,-84.8613 3445.64,-75.0471"/>
<polygon fill="midnightblue" stroke="midnightblue" points="3446.51,-78.4461 3455.72,-73.2187 3445.26,-71.5583 3446.51,-78.4461"/>
</g>
<!-- Node62&#45;&gt;Node10 -->
<g id="edge282" class="edge"><title>Node62&#45;&gt;Node10</title>
<path fill="none" stroke="midnightblue" d="M1727.95,-232.437C1695.98,-223.52 1649.71,-209.998 1610,-196 1585.56,-187.385 1581.03,-180.72 1556,-174 1111.18,-54.5724 546.932,-19.4454 410.63,-12.4432"/>
<polygon fill="midnightblue" stroke="midnightblue" points="410.672,-8.94102 400.509,-11.9351 410.321,-15.9322 410.672,-8.94102"/>
</g>
<!-- Node62&#45;&gt;Node14 -->
<g id="edge284" class="edge"><title>Node62&#45;&gt;Node14</title>
<path fill="none" stroke="midnightblue" d="M1718.16,-232.492C1676.33,-223.34 1614.54,-209.463 1561,-196 1559.74,-195.684 1558.46,-195.358 1557.17,-195.025"/>
<polygon fill="midnightblue" stroke="midnightblue" points="1557.77,-191.562 1547.21,-192.384 1555.98,-198.328 1557.77,-191.562"/>
</g>
<!-- Node62&#45;&gt;Node22 -->
<g id="edge286" class="edge"><title>Node62&#45;&gt;Node22</title>
<path fill="none" stroke="midnightblue" d="M1813.9,-232.497C1867.77,-220.433 1954.37,-201.042 1998.39,-191.184"/>
<polygon fill="midnightblue" stroke="midnightblue" points="1999.37,-194.55 2008.36,-188.95 1997.84,-187.719 1999.37,-194.55"/>
</g>
<!-- Node63&#45;&gt;Node10 -->
<g id="edge310" class="edge"><title>Node63&#45;&gt;Node10</title>
<path fill="none" stroke="midnightblue" d="M2466.34,-354.364C2451.3,-351.815 2435.1,-349.448 2420,-348 1678.79,-276.898 1486.21,-383.163 745,-312 593.28,-297.433 531.778,-341.531 407,-254 342.039,-208.431 367.684,-159.348 367,-80 366.916,-70.2226 365.685,-67.6889 367,-58 368.204,-49.1337 370.629,-39.5776 373.062,-31.4123"/>
<polygon fill="midnightblue" stroke="midnightblue" points="376.47,-32.245 376.164,-21.6546 369.799,-30.1247 376.47,-32.245"/>
</g>
<!-- Node63&#45;&gt;Node19 -->
<g id="edge312" class="edge"><title>Node63&#45;&gt;Node19</title>
<path fill="none" stroke="midnightblue" d="M2466.36,-351.837C2361.95,-326.752 2136.85,-273.268 1946,-232 1866.68,-214.85 1845.02,-218.318 1767,-196 1708.19,-179.176 1641.5,-152.071 1606.82,-137.339"/>
<polygon fill="midnightblue" stroke="midnightblue" points="1608.09,-134.077 1597.52,-133.36 1605.33,-140.513 1608.09,-134.077"/>
</g>
<!-- Node63&#45;&gt;Node28 -->
<g id="edge302" class="edge"><title>Node63&#45;&gt;Node28</title>
<path fill="none" stroke="midnightblue" d="M2583.52,-362.233C2695.05,-354.609 2933.99,-336.013 3013,-312 3099.2,-285.801 3190.86,-229.245 3233.12,-201.302"/>
<polygon fill="midnightblue" stroke="midnightblue" points="3235.24,-204.102 3241.61,-195.637 3231.35,-198.28 3235.24,-204.102"/>
</g>
<!-- Node63&#45;&gt;Node64 -->
<g id="edge304" class="edge"><title>Node63&#45;&gt;Node64</title>
<path fill="none" stroke="midnightblue" d="M2583.86,-362.528C2774.81,-351.265 3375.78,-315.818 3567.56,-304.506"/>
<polygon fill="midnightblue" stroke="midnightblue" points="3567.95,-307.989 3577.72,-303.906 3567.54,-301.001 3567.95,-307.989"/>
</g>
<!-- Node64&#45;&gt;Node52 -->
<g id="edge306" class="edge"><title>Node64&#45;&gt;Node52</title>
<path fill="none" stroke="midnightblue" d="M3616.55,-290.362C3608.43,-282.104 3597,-270.472 3587.5,-260.803"/>
<polygon fill="midnightblue" stroke="midnightblue" points="3589.89,-258.25 3580.39,-253.571 3584.9,-263.156 3589.89,-258.25"/>
</g>
<!-- Node64&#45;&gt;Node54 -->
<g id="edge308" class="edge"><title>Node64&#45;&gt;Node54</title>
<path fill="none" stroke="midnightblue" d="M3639.76,-290.377C3674.74,-261.255 3772.4,-179.946 3815.32,-144.214"/>
<polygon fill="midnightblue" stroke="midnightblue" points="3817.7,-146.793 3823.14,-137.705 3813.22,-141.413 3817.7,-146.793"/>
</g>
<!-- Node66&#45;&gt;Node2 -->
<g id="edge342" class="edge"><title>Node66&#45;&gt;Node2</title>
<path fill="none" stroke="midnightblue" d="M3519.02,-710.362C3529.43,-701.859 3544.22,-689.779 3556.26,-679.947"/>
<polygon fill="midnightblue" stroke="midnightblue" points="3558.53,-682.608 3564.06,-673.571 3554.1,-677.187 3558.53,-682.608"/>
</g>
</g>
</svg>
