<?xml version="1.0" encoding="UTF-8" standalone="no"?>
<!DOCTYPE svg PUBLIC "-//W3C//DTD SVG 1.1//EN"
 "http://www.w3.org/Graphics/SVG/1.1/DTD/svg11.dtd">
<!-- Generated by graphviz version 2.26.3 (20100126.1600)
 -->
<!-- Title: src/expconfig/detectors/EPT.h Pages: 1 -->
<svg width="442pt" height="188pt"
 viewBox="0.00 0.00 442.00 188.00" xmlns="http://www.w3.org/2000/svg" xmlns:xlink="http://www.w3.org/1999/xlink">
<g id="graph1" class="graph" transform="scale(1 1) rotate(0) translate(4 184)">
<title>src/expconfig/detectors/EPT.h</title>
<polygon fill="white" stroke="white" points="-4,5 -4,-184 439,-184 439,5 -4,5"/>
<!-- Node1 -->
<g id="node1" class="node"><title>Node1</title>
<polygon fill="#bfbfbf" stroke="black" points="153.5,-145 153.5,-179 272.5,-179 272.5,-145 153.5,-145"/>
<text text-anchor="start" x="161.5" y="-166" font-family="Helvetica,sans-Serif" font-size="10.00">src/expconfig/detectors</text>
<text text-anchor="middle" x="213" y="-153" font-family="Helvetica,sans-Serif" font-size="10.00">/EPT.h</text>
</g>
<!-- Node2 -->
<g id="node3" class="node"><title>Node2</title>
<a xlink:href="_e_p_t__2014__elements_8h.html" target="_top" xlink:title="src/expconfig/detectors\l/detail/EPT_2014_elements.h">
<polygon fill="white" stroke="black" points="-0.5,-73 -0.5,-107 144.5,-107 144.5,-73 -0.5,-73"/>
<text text-anchor="start" x="7.5" y="-94" font-family="Helvetica,sans-Serif" font-size="10.00">src/expconfig/detectors</text>
<text text-anchor="middle" x="72" y="-81" font-family="Helvetica,sans-Serif" font-size="10.00">/detail/EPT_2014_elements.h</text>
</a>
</g>
<!-- Node1&#45;&gt;Node2 -->
<g id="edge2" class="edge"><title>Node1&#45;&gt;Node2</title>
<path fill="none" stroke="midnightblue" d="M170.64,-140.369C149.846,-129.751 125.146,-117.138 105.664,-107.19"/>
<polygon fill="midnightblue" stroke="midnightblue" points="169.087,-143.506 179.585,-144.937 172.271,-137.272 169.087,-143.506"/>
</g>
<!-- Node3 -->
<g id="node5" class="node"><title>Node3</title>
<a xlink:href="_e_p_t_8cc.html" target="_top" xlink:title="src/expconfig/detectors\l/EPT.cc">
<polygon fill="white" stroke="black" points="62.5,-1 62.5,-35 181.5,-35 181.5,-1 62.5,-1"/>
<text text-anchor="start" x="70.5" y="-22" font-family="Helvetica,sans-Serif" font-size="10.00">src/expconfig/detectors</text>
<text text-anchor="middle" x="122" y="-9" font-family="Helvetica,sans-Serif" font-size="10.00">/EPT.cc</text>
</a>
</g>
<!-- Node1&#45;&gt;Node3 -->
<g id="edge6" class="edge"><title>Node1&#45;&gt;Node3</title>
<path fill="none" stroke="midnightblue" d="M196.861,-136.461C178.388,-107.229 148.646,-60.1649 132.782,-35.0619"/>
<polygon fill="midnightblue" stroke="midnightblue" points="193.903,-138.332 202.204,-144.916 199.82,-134.593 193.903,-138.332"/>
</g>
<!-- Node4 -->
<g id="node8" class="node"><title>Node4</title>
<a xlink:href="_setup__2014___e_p_t_8cc.html" target="_top" xlink:title="src/expconfig/setups\l/Setup_2014_EPT.cc">
<polygon fill="white" stroke="black" points="200,-73 200,-107 310,-107 310,-73 200,-73"/>
<text text-anchor="start" x="208" y="-94" font-family="Helvetica,sans-Serif" font-size="10.00">src/expconfig/setups</text>
<text text-anchor="middle" x="255" y="-81" font-family="Helvetica,sans-Serif" font-size="10.00">/Setup_2014_EPT.cc</text>
</a>
</g>
<!-- Node1&#45;&gt;Node4 -->
<g id="edge8" class="edge"><title>Node1&#45;&gt;Node4</title>
<path fill="none" stroke="midnightblue" d="M228.048,-136.203C233.616,-126.658 239.792,-116.07 244.826,-107.441"/>
<polygon fill="midnightblue" stroke="midnightblue" points="224.969,-134.536 222.953,-144.937 231.015,-138.063 224.969,-134.536"/>
</g>
<!-- Node5 -->
<g id="node10" class="node"><title>Node5</title>
<a xlink:href="_setup___test_8cc.html" target="_top" xlink:title="src/expconfig/setups\l/Setup_Test.cc">
<polygon fill="white" stroke="black" points="327.5,-73 327.5,-107 434.5,-107 434.5,-73 327.5,-73"/>
<text text-anchor="start" x="335.5" y="-94" font-family="Helvetica,sans-Serif" font-size="10.00">src/expconfig/setups</text>
<text text-anchor="middle" x="381" y="-81" font-family="Helvetica,sans-Serif" font-size="10.00">/Setup_Test.cc</text>
</a>
</g>
<!-- Node1&#45;&gt;Node5 -->
<g id="edge10" class="edge"><title>Node1&#45;&gt;Node5</title>
<path fill="none" stroke="midnightblue" d="M262.178,-140.924C287.32,-130.149 317.52,-117.206 341.181,-107.065"/>
<polygon fill="midnightblue" stroke="midnightblue" points="260.626,-137.781 252.814,-144.937 263.384,-144.215 260.626,-137.781"/>
</g>
<!-- Node2&#45;&gt;Node3 -->
<g id="edge4" class="edge"><title>Node2&#45;&gt;Node3</title>
<path fill="none" stroke="midnightblue" d="M89.7096,-64.4981C96.3911,-54.8768 103.834,-44.1593 109.888,-35.4407"/>
<polygon fill="midnightblue" stroke="midnightblue" points="86.6785,-62.7269 83.8493,-72.937 92.4281,-66.7197 86.6785,-62.7269"/>
</g>
</g>
</svg>
