<?xml version="1.0" encoding="UTF-8" standalone="no"?>
<!DOCTYPE svg PUBLIC "-//W3C//DTD SVG 1.1//EN"
 "http://www.w3.org/Graphics/SVG/1.1/DTD/svg11.dtd">
<!-- Generated by graphviz version 2.26.3 (20100126.1600)
 -->
<!-- Title: src/expconfig/detectors/detail/EPT_2014_elements.h Pages: 1 -->
<svg width="3977pt" height="754pt"
 viewBox="0.00 0.00 3977.00 754.00" xmlns="http://www.w3.org/2000/svg" xmlns:xlink="http://www.w3.org/1999/xlink">
<g id="graph1" class="graph" transform="scale(1 1) rotate(0) translate(4 750)">
<title>src/expconfig/detectors/detail/EPT_2014_elements.h</title>
<polygon fill="white" stroke="white" points="-4,5 -4,-750 3974,-750 3974,5 -4,5"/>
<!-- Node1 -->
<g id="node1" class="node"><title>Node1</title>
<polygon fill="#bfbfbf" stroke="black" points="3306.5,-711 3306.5,-745 3451.5,-745 3451.5,-711 3306.5,-711"/>
<text text-anchor="start" x="3314.5" y="-732" font-family="Helvetica,sans-Serif" font-size="10.00">src/expconfig/detectors</text>
<text text-anchor="middle" x="3379" y="-719" font-family="Helvetica,sans-Serif" font-size="10.00">/detail/EPT_2014_elements.h</text>
</g>
<!-- Node2 -->
<g id="node3" class="node"><title>Node2</title>
<a xlink:href="_e_p_t_8h.html" target="_top" xlink:title="detectors/EPT.h">
<polygon fill="white" stroke="black" points="3335,-652.5 3335,-673.5 3423,-673.5 3423,-652.5 3335,-652.5"/>
<text text-anchor="middle" x="3379" y="-660.5" font-family="Helvetica,sans-Serif" font-size="10.00">detectors/EPT.h</text>
</a>
</g>
<!-- Node1&#45;&gt;Node2 -->
<g id="edge2" class="edge"><title>Node1&#45;&gt;Node2</title>
<path fill="none" stroke="midnightblue" d="M3379,-710.922C3379,-702.67 3379,-692.692 3379,-683.982"/>
<polygon fill="midnightblue" stroke="midnightblue" points="3382.5,-683.852 3379,-673.852 3375.5,-683.852 3382.5,-683.852"/>
</g>
<!-- Node3 -->
<g id="node5" class="node"><title>Node3</title>
<a xlink:href="_detector__t_8h.html" target="_top" xlink:title="base/Detector_t.h">
<polygon fill="white" stroke="black" points="1806.5,-116.5 1806.5,-137.5 1901.5,-137.5 1901.5,-116.5 1806.5,-116.5"/>
<text text-anchor="middle" x="1854" y="-124.5" font-family="Helvetica,sans-Serif" font-size="10.00">base/Detector_t.h</text>
</a>
</g>
<!-- Node2&#45;&gt;Node3 -->
<g id="edge4" class="edge"><title>Node2&#45;&gt;Node3</title>
<path fill="none" stroke="midnightblue" d="M3334.96,-662.173C3077.53,-657.06 1779,-627.288 1779,-547 1779,-547 1779,-547 1779,-366 1779,-281.008 1822.71,-186.492 1843.39,-146.529"/>
<polygon fill="midnightblue" stroke="midnightblue" points="1846.54,-148.061 1848.11,-137.583 1840.35,-144.794 1846.54,-148.061"/>
</g>
<!-- Node12 -->
<g id="node24" class="node"><title>Node12</title>
<a xlink:href="_unpacker_acqu_8h.html" target="_top" xlink:title="unpacker/UnpackerAcqu.h">
<polygon fill="white" stroke="black" points="3313,-594.5 3313,-615.5 3445,-615.5 3445,-594.5 3313,-594.5"/>
<text text-anchor="middle" x="3379" y="-602.5" font-family="Helvetica,sans-Serif" font-size="10.00">unpacker/UnpackerAcqu.h</text>
</a>
</g>
<!-- Node2&#45;&gt;Node12 -->
<g id="edge24" class="edge"><title>Node2&#45;&gt;Node12</title>
<path fill="none" stroke="midnightblue" d="M3379,-652.362C3379,-644.922 3379,-634.743 3379,-625.728"/>
<polygon fill="midnightblue" stroke="midnightblue" points="3382.5,-625.571 3379,-615.571 3375.5,-625.571 3382.5,-625.571"/>
</g>
<!-- Node65 -->
<g id="node234" class="node"><title>Node65</title>
<polygon fill="white" stroke="#bfbfbf" points="3462.5,-594.5 3462.5,-615.5 3511.5,-615.5 3511.5,-594.5 3462.5,-594.5"/>
<text text-anchor="middle" x="3487" y="-602.5" font-family="Helvetica,sans-Serif" font-size="10.00">cassert</text>
</g>
<!-- Node2&#45;&gt;Node65 -->
<g id="edge338" class="edge"><title>Node2&#45;&gt;Node65</title>
<path fill="none" stroke="midnightblue" d="M3398.56,-652.497C3415.2,-643.56 3439.33,-630.602 3458.18,-620.477"/>
<polygon fill="midnightblue" stroke="midnightblue" points="3460.07,-623.436 3467.22,-615.621 3456.76,-617.269 3460.07,-623.436"/>
</g>
<!-- Node4 -->
<g id="node7" class="node"><title>Node4</title>
<a xlink:href="printable_8h.html" target="_top" xlink:title="base/printable.h">
<polygon fill="white" stroke="black" points="649,-58.5 649,-79.5 735,-79.5 735,-58.5 649,-58.5"/>
<text text-anchor="middle" x="692" y="-66.5" font-family="Helvetica,sans-Serif" font-size="10.00">base/printable.h</text>
</a>
</g>
<!-- Node3&#45;&gt;Node4 -->
<g id="edge6" class="edge"><title>Node3&#45;&gt;Node4</title>
<path fill="none" stroke="midnightblue" d="M1806.46,-124.862C1665.43,-118.484 1237.13,-98.8658 882,-80 835.856,-77.5487 783.425,-74.4928 745.348,-72.2245"/>
<polygon fill="midnightblue" stroke="midnightblue" points="745.197,-68.7093 735.006,-71.6068 744.779,-75.6969 745.197,-68.7093"/>
</g>
<!-- Node5 -->
<g id="node9" class="node"><title>Node5</title>
<polygon fill="white" stroke="#bfbfbf" points="1938,-0.5 1938,-21.5 1982,-21.5 1982,-0.5 1938,-0.5"/>
<text text-anchor="middle" x="1960" y="-8.5" font-family="Helvetica,sans-Serif" font-size="10.00">vector</text>
</g>
<!-- Node3&#45;&gt;Node5 -->
<g id="edge22" class="edge"><title>Node3&#45;&gt;Node5</title>
<path fill="none" stroke="midnightblue" d="M1854.42,-116.01C1855.51,-101.308 1859.38,-75.1122 1873,-58 1887.04,-40.3498 1909.59,-28.4368 1928.21,-21.0211"/>
<polygon fill="midnightblue" stroke="midnightblue" points="1929.65,-24.2209 1937.8,-17.4514 1927.2,-17.6608 1929.65,-24.2209"/>
</g>
<!-- Node7 -->
<g id="node13" class="node"><title>Node7</title>
<polygon fill="white" stroke="#bfbfbf" points="1404.5,-58.5 1404.5,-79.5 1469.5,-79.5 1469.5,-58.5 1404.5,-58.5"/>
<text text-anchor="middle" x="1437" y="-66.5" font-family="Helvetica,sans-Serif" font-size="10.00">TVector3.h</text>
</g>
<!-- Node3&#45;&gt;Node7 -->
<g id="edge12" class="edge"><title>Node3&#45;&gt;Node7</title>
<path fill="none" stroke="midnightblue" d="M1806.16,-120.347C1724.17,-108.942 1558.05,-85.8367 1479.71,-74.9409"/>
<polygon fill="midnightblue" stroke="midnightblue" points="1480.09,-71.4604 1469.71,-73.5493 1479.13,-78.3936 1480.09,-71.4604"/>
</g>
<!-- Node8 -->
<g id="node15" class="node"><title>Node8</title>
<polygon fill="white" stroke="#bfbfbf" points="2133,-58.5 2133,-79.5 2179,-79.5 2179,-58.5 2133,-58.5"/>
<text text-anchor="middle" x="2156" y="-66.5" font-family="Helvetica,sans-Serif" font-size="10.00">cstdint</text>
</g>
<!-- Node3&#45;&gt;Node8 -->
<g id="edge14" class="edge"><title>Node3&#45;&gt;Node8</title>
<path fill="none" stroke="midnightblue" d="M1901.52,-117.874C1963.19,-106.03 2069.22,-85.666 2122.86,-75.3646"/>
<polygon fill="midnightblue" stroke="midnightblue" points="2123.7,-78.7673 2132.86,-73.444 2122.38,-71.893 2123.7,-78.7673"/>
</g>
<!-- Node9 -->
<g id="node17" class="node"><title>Node9</title>
<polygon fill="white" stroke="#bfbfbf" points="890.5,-58.5 890.5,-79.5 949.5,-79.5 949.5,-58.5 890.5,-58.5"/>
<text text-anchor="middle" x="920" y="-66.5" font-family="Helvetica,sans-Serif" font-size="10.00">stdexcept</text>
</g>
<!-- Node3&#45;&gt;Node9 -->
<g id="edge16" class="edge"><title>Node3&#45;&gt;Node9</title>
<path fill="none" stroke="midnightblue" d="M1806.4,-124.044C1643.58,-113.933 1110.67,-80.8404 960.005,-71.4842"/>
<polygon fill="midnightblue" stroke="midnightblue" points="960.025,-67.9789 949.828,-70.8523 959.591,-74.9654 960.025,-67.9789"/>
</g>
<!-- Node10 -->
<g id="node19" class="node"><title>Node10</title>
<polygon fill="white" stroke="#bfbfbf" points="3079.5,-0.5 3079.5,-21.5 3120.5,-21.5 3120.5,-0.5 3079.5,-0.5"/>
<text text-anchor="middle" x="3100" y="-8.5" font-family="Helvetica,sans-Serif" font-size="10.00">string</text>
</g>
<!-- Node3&#45;&gt;Node10 -->
<g id="edge18" class="edge"><title>Node3&#45;&gt;Node10</title>
<path fill="none" stroke="midnightblue" d="M1886.4,-116.448C1936.64,-100.601 2036.68,-71.1214 2124,-58 2312.84,-29.622 2924.38,-14.8072 3069.09,-11.6473"/>
<polygon fill="midnightblue" stroke="midnightblue" points="3069.52,-15.1391 3079.44,-11.4241 3069.36,-8.14077 3069.52,-15.1391"/>
</g>
<!-- Node11 -->
<g id="node21" class="node"><title>Node11</title>
<polygon fill="white" stroke="#bfbfbf" points="1882,-58.5 1882,-79.5 1944,-79.5 1944,-58.5 1882,-58.5"/>
<text text-anchor="middle" x="1913" y="-66.5" font-family="Helvetica,sans-Serif" font-size="10.00">type_traits</text>
</g>
<!-- Node3&#45;&gt;Node11 -->
<g id="edge20" class="edge"><title>Node3&#45;&gt;Node11</title>
<path fill="none" stroke="midnightblue" d="M1864.82,-116.362C1873.22,-108.104 1885.05,-96.4725 1894.89,-86.8029"/>
<polygon fill="midnightblue" stroke="midnightblue" points="1897.57,-89.077 1902.25,-79.5707 1892.66,-84.0851 1897.57,-89.077"/>
</g>
<!-- Node4&#45;&gt;Node5 -->
<g id="edge8" class="edge"><title>Node4&#45;&gt;Node5</title>
<path fill="none" stroke="midnightblue" d="M735.003,-66.3351C773.506,-63.9907 831.512,-60.562 882,-58 1295.08,-37.0384 1797.5,-17.2731 1927.88,-12.2329"/>
<polygon fill="midnightblue" stroke="midnightblue" points="1928.13,-15.7262 1937.98,-11.8431 1927.86,-8.73136 1928.13,-15.7262"/>
</g>
<!-- Node6 -->
<g id="node11" class="node"><title>Node6</title>
<polygon fill="white" stroke="#bfbfbf" points="666,-0.5 666,-21.5 718,-21.5 718,-0.5 666,-0.5"/>
<text text-anchor="middle" x="692" y="-8.5" font-family="Helvetica,sans-Serif" font-size="10.00">ostream</text>
</g>
<!-- Node4&#45;&gt;Node6 -->
<g id="edge10" class="edge"><title>Node4&#45;&gt;Node6</title>
<path fill="none" stroke="midnightblue" d="M692,-58.3619C692,-50.9219 692,-40.7427 692,-31.7276"/>
<polygon fill="midnightblue" stroke="midnightblue" points="695.5,-31.5706 692,-21.5707 688.5,-31.5707 695.5,-31.5706"/>
</g>
<!-- Node12&#45;&gt;Node3 -->
<g id="edge324" class="edge"><title>Node12&#45;&gt;Node3</title>
<path fill="none" stroke="midnightblue" d="M3312.54,-603.474C3019.21,-596.313 1855,-563.215 1855,-489 1855,-489 1855,-489 1855,-301 1855,-245.603 1854.49,-180.288 1854.2,-147.689"/>
<polygon fill="midnightblue" stroke="midnightblue" points="1857.69,-147.56 1854.1,-137.592 1850.7,-147.624 1857.69,-147.56"/>
</g>
<!-- Node12&#45;&gt;Node5 -->
<g id="edge332" class="edge"><title>Node12&#45;&gt;Node5</title>
<path fill="none" stroke="midnightblue" d="M3445.22,-595.057C3448.19,-594.685 3451.12,-594.33 3454,-594 3570.04,-580.68 3969,-605.799 3969,-489 3969,-489 3969,-489 3969,-301 3969,-168.388 3828.32,-203.361 3699,-174 3450.29,-117.532 3390.16,-88.9695 3137,-58 2906.34,-29.7828 2157.65,-14.6249 1992.45,-11.5772"/>
<polygon fill="midnightblue" stroke="midnightblue" points="1992.49,-8.07736 1982.42,-11.3939 1992.36,-15.0762 1992.49,-8.07736"/>
</g>
<!-- Node12&#45;&gt;Node8 -->
<g id="edge334" class="edge"><title>Node12&#45;&gt;Node8</title>
<path fill="none" stroke="midnightblue" d="M3445.23,-595.133C3448.19,-594.74 3451.13,-594.36 3454,-594 3561.69,-580.49 3931,-597.538 3931,-489 3931,-489 3931,-489 3931,-301 3931,-269.192 3935.38,-253.572 3912,-232 3886.73,-208.679 3642.1,-178.47 3608,-174 3043.35,-99.9743 2347.82,-74.9157 2189.23,-69.973"/>
<polygon fill="midnightblue" stroke="midnightblue" points="2189.26,-66.4724 2179.16,-69.6638 2189.04,-73.4691 2189.26,-66.4724"/>
</g>
<!-- Node13 -->
<g id="node26" class="node"><title>Node13</title>
<a xlink:href="_unpacker_8h.html" target="_top" xlink:title="Unpacker.h">
<polygon fill="white" stroke="black" points="3836.5,-232.5 3836.5,-253.5 3903.5,-253.5 3903.5,-232.5 3836.5,-232.5"/>
<text text-anchor="middle" x="3870" y="-240.5" font-family="Helvetica,sans-Serif" font-size="10.00">Unpacker.h</text>
</a>
</g>
<!-- Node12&#45;&gt;Node13 -->
<g id="edge26" class="edge"><title>Node12&#45;&gt;Node13</title>
<path fill="none" stroke="midnightblue" d="M3445.25,-595.264C3448.21,-594.835 3451.13,-594.412 3454,-594 3544.75,-580.939 3853,-580.685 3853,-489 3853,-489 3853,-489 3853,-366 3853,-329.733 3860.34,-288.014 3865.38,-263.67"/>
<polygon fill="midnightblue" stroke="midnightblue" points="3868.82,-264.301 3867.49,-253.79 3861.98,-262.835 3868.82,-264.301"/>
</g>
<!-- Node14 -->
<g id="node29" class="node"><title>Node14</title>
<polygon fill="white" stroke="#bfbfbf" points="2682,-174.5 2682,-195.5 2734,-195.5 2734,-174.5 2682,-174.5"/>
<text text-anchor="middle" x="2708" y="-182.5" font-family="Helvetica,sans-Serif" font-size="10.00">memory</text>
</g>
<!-- Node12&#45;&gt;Node14 -->
<g id="edge326" class="edge"><title>Node12&#45;&gt;Node14</title>
<path fill="none" stroke="midnightblue" d="M3365.73,-594.218C3336.92,-571.1 3265.97,-515.8 3201,-478 3049.41,-389.8 2996.85,-396.208 2843,-312 2800.93,-288.972 2785.92,-287.91 2752,-254 2737.63,-239.636 2725.59,-219.789 2717.75,-205.067"/>
<polygon fill="midnightblue" stroke="midnightblue" points="2720.69,-203.133 2713.02,-195.824 2714.46,-206.321 2720.69,-203.133"/>
</g>
<!-- Node15 -->
<g id="node31" class="node"><title>Node15</title>
<a xlink:href="_exp_config_8h.html" target="_top" xlink:title="expconfig/ExpConfig.h">
<polygon fill="white" stroke="black" points="3108,-536.5 3108,-557.5 3224,-557.5 3224,-536.5 3108,-536.5"/>
<text text-anchor="middle" x="3166" y="-544.5" font-family="Helvetica,sans-Serif" font-size="10.00">expconfig/ExpConfig.h</text>
</a>
</g>
<!-- Node12&#45;&gt;Node15 -->
<g id="edge32" class="edge"><title>Node12&#45;&gt;Node15</title>
<path fill="none" stroke="midnightblue" d="M3340.43,-594.497C3305.1,-584.877 3252.66,-570.598 3214.51,-560.209"/>
<polygon fill="midnightblue" stroke="midnightblue" points="3215.21,-556.773 3204.65,-557.523 3213.37,-563.528 3215.21,-556.773"/>
</g>
<!-- Node19 -->
<g id="node42" class="node"><title>Node19</title>
<polygon fill="white" stroke="#bfbfbf" points="1945.5,-116.5 1945.5,-137.5 1974.5,-137.5 1974.5,-116.5 1945.5,-116.5"/>
<text text-anchor="middle" x="1960" y="-124.5" font-family="Helvetica,sans-Serif" font-size="10.00">list</text>
</g>
<!-- Node12&#45;&gt;Node19 -->
<g id="edge328" class="edge"><title>Node12&#45;&gt;Node19</title>
<path fill="none" stroke="midnightblue" d="M3445.24,-594.445C3537.91,-577.778 3695,-541.743 3695,-489 3695,-489 3695,-489 3695,-301 3695,-85.5849 3268.26,-174.486 2226,-138 2137.27,-134.894 2031.92,-130.255 1984.86,-128.133"/>
<polygon fill="midnightblue" stroke="midnightblue" points="1984.85,-124.629 1974.7,-127.674 1984.54,-131.622 1984.85,-124.629"/>
</g>
<!-- Node22 -->
<g id="node53" class="node"><title>Node22</title>
<polygon fill="white" stroke="#bfbfbf" points="3176.5,-174.5 3176.5,-195.5 3211.5,-195.5 3211.5,-174.5 3176.5,-174.5"/>
<text text-anchor="middle" x="3194" y="-182.5" font-family="Helvetica,sans-Serif" font-size="10.00">map</text>
</g>
<!-- Node12&#45;&gt;Node22 -->
<g id="edge330" class="edge"><title>Node12&#45;&gt;Node22</title>
<path fill="none" stroke="midnightblue" d="M3398.67,-594.343C3428.31,-576.682 3481,-538.344 3481,-489 3481,-489 3481,-489 3481,-366 3481,-304.941 3292.8,-224.08 3221.2,-195.528"/>
<polygon fill="midnightblue" stroke="midnightblue" points="3222.11,-192.122 3211.52,-191.703 3219.54,-198.633 3222.11,-192.122"/>
</g>
<!-- Node31 -->
<g id="node76" class="node"><title>Node31</title>
<polygon fill="white" stroke="#bfbfbf" points="1151,-116.5 1151,-137.5 1191,-137.5 1191,-116.5 1151,-116.5"/>
<text text-anchor="middle" x="1171" y="-124.5" font-family="Helvetica,sans-Serif" font-size="10.00">limits</text>
</g>
<!-- Node12&#45;&gt;Node31 -->
<g id="edge336" class="edge"><title>Node12&#45;&gt;Node31</title>
<path fill="none" stroke="midnightblue" d="M3312.73,-603.702C3060.05,-598.613 2164.96,-579.253 2039,-558 1908.6,-535.998 1828.47,-558.013 1765,-442 1753.8,-421.524 1771.52,-252.3 1760,-232 1736.15,-189.958 1713.75,-189.59 1668,-174 1580.8,-144.288 1295.71,-131.512 1201.51,-128.033"/>
<polygon fill="midnightblue" stroke="midnightblue" points="1201.37,-124.526 1191.25,-127.663 1201.11,-131.521 1201.37,-124.526"/>
</g>
<!-- Node13&#45;&gt;Node10 -->
<g id="edge28" class="edge"><title>Node13&#45;&gt;Node10</title>
<path fill="none" stroke="midnightblue" d="M3873.68,-232.337C3883.87,-200.654 3908.66,-106.289 3861,-58 3834.94,-31.6003 3270.95,-15.3951 3131.14,-11.7743"/>
<polygon fill="midnightblue" stroke="midnightblue" points="3130.82,-8.2651 3120.74,-11.5079 3130.64,-15.2628 3130.82,-8.2651"/>
</g>
<!-- Node13&#45;&gt;Node14 -->
<g id="edge30" class="edge"><title>Node13&#45;&gt;Node14</title>
<path fill="none" stroke="midnightblue" d="M3836.48,-241.327C3668.45,-232.94 2919.08,-195.536 2744.46,-186.82"/>
<polygon fill="midnightblue" stroke="midnightblue" points="2744.42,-183.313 2734.25,-186.31 2744.07,-190.305 2744.42,-183.313"/>
</g>
<!-- Node15&#45;&gt;Node3 -->
<g id="edge34" class="edge"><title>Node15&#45;&gt;Node3</title>
<path fill="none" stroke="midnightblue" d="M3107.99,-544.798C2858.96,-534.97 1893,-492.861 1893,-431 1893,-431 1893,-431 1893,-301 1893,-235.673 2003.25,-228.344 1967,-174 1954.37,-155.07 1932.53,-143.753 1911.4,-136.992"/>
<polygon fill="midnightblue" stroke="midnightblue" points="1912.35,-133.625 1901.77,-134.196 1910.4,-140.347 1912.35,-133.625"/>
</g>
<!-- Node15&#45;&gt;Node4 -->
<g id="edge316" class="edge"><title>Node15&#45;&gt;Node4</title>
<path fill="none" stroke="midnightblue" d="M3107.96,-545.765C2947.65,-542.067 2485.23,-529.463 2102,-500 1338.35,-441.291 1090.23,-620.029 389,-312 281.435,-264.75 238.566,-244.978 190,-138 185.958,-129.097 183.416,-123.229 190,-116 219.781,-83.3005 515.432,-72.938 638.587,-70.0243"/>
<polygon fill="midnightblue" stroke="midnightblue" points="638.988,-73.5161 648.905,-69.7881 638.828,-66.5179 638.988,-73.5161"/>
</g>
<!-- Node15&#45;&gt;Node14 -->
<g id="edge318" class="edge"><title>Node15&#45;&gt;Node14</title>
<path fill="none" stroke="midnightblue" d="M3107.92,-539.998C2973.24,-522.975 2651,-477.398 2651,-431 2651,-431 2651,-431 2651,-301 2651,-263.529 2675.25,-225.584 2692.12,-203.728"/>
<polygon fill="midnightblue" stroke="midnightblue" points="2695.07,-205.647 2698.59,-195.654 2689.6,-201.27 2695.07,-205.647"/>
</g>
<!-- Node16 -->
<g id="node34" class="node"><title>Node16</title>
<a xlink:href="_reconstruct__traits_8h.html" target="_top" xlink:title="reconstruct/Reconstruct\l_traits.h">
<polygon fill="white" stroke="black" points="3186,-349 3186,-383 3308,-383 3308,-349 3186,-349"/>
<text text-anchor="start" x="3194" y="-370" font-family="Helvetica,sans-Serif" font-size="10.00">reconstruct/Reconstruct</text>
<text text-anchor="middle" x="3247" y="-357" font-family="Helvetica,sans-Serif" font-size="10.00">_traits.h</text>
</a>
</g>
<!-- Node15&#45;&gt;Node16 -->
<g id="edge36" class="edge"><title>Node15&#45;&gt;Node16</title>
<path fill="none" stroke="midnightblue" d="M3175.37,-536.441C3183.09,-527.314 3193.88,-513.498 3201,-500 3219.52,-464.89 3232.97,-420.795 3240.38,-392.995"/>
<polygon fill="midnightblue" stroke="midnightblue" points="3243.8,-393.75 3242.93,-383.192 3237.03,-391.992 3243.8,-393.75"/>
</g>
<!-- Node15&#45;&gt;Node19 -->
<g id="edge320" class="edge"><title>Node15&#45;&gt;Node19</title>
<path fill="none" stroke="midnightblue" d="M3216.44,-536.453C3289.56,-518.432 3423.99,-474.531 3495,-384 3537.45,-329.887 3567.42,-285.335 3524,-232 3407.12,-88.431 3234.5,-176.684 2226,-138 2137.28,-134.597 2031.93,-130.107 1984.86,-128.078"/>
<polygon fill="midnightblue" stroke="midnightblue" points="1984.85,-124.574 1974.71,-127.639 1984.54,-131.567 1984.85,-124.574"/>
</g>
<!-- Node15&#45;&gt;Node22 -->
<g id="edge322" class="edge"><title>Node15&#45;&gt;Node22</title>
<path fill="none" stroke="midnightblue" d="M3182.2,-536.389C3215.55,-513.421 3290.89,-455.367 3317,-384 3343.96,-310.312 3260.18,-234.512 3217.45,-201.752"/>
<polygon fill="midnightblue" stroke="midnightblue" points="3219.35,-198.805 3209.25,-195.609 3215.15,-204.406 3219.35,-198.805"/>
</g>
<!-- Node23 -->
<g id="node56" class="node"><title>Node23</title>
<a xlink:href="_calibration_8h.html" target="_top" xlink:title="calibration/Calibration.h">
<polygon fill="white" stroke="black" points="3073.5,-478.5 3073.5,-499.5 3192.5,-499.5 3192.5,-478.5 3073.5,-478.5"/>
<text text-anchor="middle" x="3133" y="-486.5" font-family="Helvetica,sans-Serif" font-size="10.00">calibration/Calibration.h</text>
</a>
</g>
<!-- Node15&#45;&gt;Node23 -->
<g id="edge66" class="edge"><title>Node15&#45;&gt;Node23</title>
<path fill="none" stroke="midnightblue" d="M3159.95,-536.362C3155.53,-528.595 3149.41,-517.843 3144.12,-508.546"/>
<polygon fill="midnightblue" stroke="midnightblue" points="3147,-506.531 3139.01,-499.571 3140.92,-509.993 3147,-506.531"/>
</g>
<!-- Node16&#45;&gt;Node3 -->
<g id="edge38" class="edge"><title>Node16&#45;&gt;Node3</title>
<path fill="none" stroke="midnightblue" d="M3185.99,-364.873C2960.35,-360.059 2182.57,-337.479 2114,-254 2107.79,-246.445 2108.16,-239.845 2114,-232 2147.24,-187.327 2200.76,-240.673 2234,-196 2239.84,-188.155 2240.48,-181.318 2234,-174 2189.91,-124.241 2002.95,-146.367 1937,-138 1928.9,-136.973 1920.36,-135.866 1911.96,-134.766"/>
<polygon fill="midnightblue" stroke="midnightblue" points="1912.2,-131.267 1901.83,-133.431 1911.29,-138.207 1912.2,-131.267"/>
</g>
<!-- Node16&#45;&gt;Node14 -->
<g id="edge60" class="edge"><title>Node16&#45;&gt;Node14</title>
<path fill="none" stroke="midnightblue" d="M3185.8,-361.145C3117.6,-354.595 3004.59,-340.324 2911,-312 2851.61,-294.026 2835.81,-288.15 2784,-254 2761.9,-239.435 2739.87,-218.55 2725.26,-203.578"/>
<polygon fill="midnightblue" stroke="midnightblue" points="2727.4,-200.75 2717.95,-195.946 2722.34,-205.59 2727.4,-200.75"/>
</g>
<!-- Node17 -->
<g id="node37" class="node"><title>Node17</title>
<a xlink:href="_memory_pool_8h.html" target="_top" xlink:title="tree/MemoryPool.h">
<polygon fill="white" stroke="black" points="2919.5,-290.5 2919.5,-311.5 3018.5,-311.5 3018.5,-290.5 2919.5,-290.5"/>
<text text-anchor="middle" x="2969" y="-298.5" font-family="Helvetica,sans-Serif" font-size="10.00">tree/MemoryPool.h</text>
</a>
</g>
<!-- Node16&#45;&gt;Node17 -->
<g id="edge40" class="edge"><title>Node16&#45;&gt;Node17</title>
<path fill="none" stroke="midnightblue" d="M3185.99,-351.735C3137.75,-340.455 3070.97,-324.841 3024.28,-313.924"/>
<polygon fill="midnightblue" stroke="midnightblue" points="3024.87,-310.469 3014.34,-311.601 3023.28,-317.285 3024.87,-310.469"/>
</g>
<!-- Node16&#45;&gt;Node19 -->
<g id="edge64" class="edge"><title>Node16&#45;&gt;Node19</title>
<path fill="none" stroke="midnightblue" d="M3251.51,-348.734C3260.72,-309.03 3276.34,-211.761 3220,-174 3167.22,-138.631 2140.41,-141.975 2077,-138 2045.18,-136.005 2008.62,-132.348 1984.95,-129.8"/>
<polygon fill="midnightblue" stroke="midnightblue" points="1985.07,-126.292 1974.75,-128.684 1984.31,-133.251 1985.07,-126.292"/>
</g>
<!-- Node21 -->
<g id="node47" class="node"><title>Node21</title>
<a xlink:href="mapped__vectors_8h.html" target="_top" xlink:title="base/mapped_vectors.h">
<polygon fill="white" stroke="black" points="3394.5,-232.5 3394.5,-253.5 3515.5,-253.5 3515.5,-232.5 3394.5,-232.5"/>
<text text-anchor="middle" x="3455" y="-240.5" font-family="Helvetica,sans-Serif" font-size="10.00">base/mapped_vectors.h</text>
</a>
</g>
<!-- Node16&#45;&gt;Node21 -->
<g id="edge52" class="edge"><title>Node16&#45;&gt;Node21</title>
<path fill="none" stroke="midnightblue" d="M3275.92,-348.897C3316.33,-325.003 3389.11,-281.963 3428.29,-258.793"/>
<polygon fill="midnightblue" stroke="midnightblue" points="3430.21,-261.726 3437.04,-253.623 3426.65,-255.701 3430.21,-261.726"/>
</g>
<!-- Node16&#45;&gt;Node22 -->
<g id="edge62" class="edge"><title>Node16&#45;&gt;Node22</title>
<path fill="none" stroke="midnightblue" d="M3247.4,-348.801C3247.41,-322.601 3245.12,-271.564 3229,-232 3224.78,-221.651 3217.74,-211.529 3211.08,-203.346"/>
<polygon fill="midnightblue" stroke="midnightblue" points="3213.58,-200.886 3204.4,-195.592 3208.27,-205.453 3213.58,-200.886"/>
</g>
<!-- Node17&#45;&gt;Node14 -->
<g id="edge48" class="edge"><title>Node17&#45;&gt;Node14</title>
<path fill="none" stroke="midnightblue" d="M2964.55,-290.489C2957.48,-275.107 2942.16,-246.701 2920,-232 2891.51,-213.097 2796.94,-197.383 2744.25,-189.831"/>
<polygon fill="midnightblue" stroke="midnightblue" points="2744.69,-186.359 2734.3,-188.431 2743.72,-193.291 2744.69,-186.359"/>
</g>
<!-- Node18 -->
<g id="node39" class="node"><title>Node18</title>
<a xlink:href="memory_8h.html" target="_top" xlink:title="base/std_ext/memory.h">
<polygon fill="white" stroke="black" points="2792.5,-232.5 2792.5,-253.5 2911.5,-253.5 2911.5,-232.5 2792.5,-232.5"/>
<text text-anchor="middle" x="2852" y="-240.5" font-family="Helvetica,sans-Serif" font-size="10.00">base/std_ext/memory.h</text>
</a>
</g>
<!-- Node17&#45;&gt;Node18 -->
<g id="edge42" class="edge"><title>Node17&#45;&gt;Node18</title>
<path fill="none" stroke="midnightblue" d="M2947.81,-290.497C2929.54,-281.438 2902.93,-268.246 2882.39,-258.063"/>
<polygon fill="midnightblue" stroke="midnightblue" points="2883.94,-254.927 2873.43,-253.621 2880.83,-261.199 2883.94,-254.927"/>
</g>
<!-- Node20 -->
<g id="node45" class="node"><title>Node20</title>
<polygon fill="white" stroke="#bfbfbf" points="2966.5,-232.5 2966.5,-253.5 3033.5,-253.5 3033.5,-232.5 2966.5,-232.5"/>
<text text-anchor="middle" x="3000" y="-240.5" font-family="Helvetica,sans-Serif" font-size="10.00">forward_list</text>
</g>
<!-- Node17&#45;&gt;Node20 -->
<g id="edge50" class="edge"><title>Node17&#45;&gt;Node20</title>
<path fill="none" stroke="midnightblue" d="M2974.69,-290.362C2978.84,-282.595 2984.58,-271.843 2989.55,-262.546"/>
<polygon fill="midnightblue" stroke="midnightblue" points="2992.72,-264.04 2994.35,-253.571 2986.55,-260.74 2992.72,-264.04"/>
</g>
<!-- Node18&#45;&gt;Node14 -->
<g id="edge44" class="edge"><title>Node18&#45;&gt;Node14</title>
<path fill="none" stroke="midnightblue" d="M2825.92,-232.497C2802.93,-223.234 2769.2,-209.65 2743.7,-199.379"/>
<polygon fill="midnightblue" stroke="midnightblue" points="2744.95,-196.111 2734.37,-195.621 2742.34,-202.604 2744.95,-196.111"/>
</g>
<!-- Node18&#45;&gt;Node19 -->
<g id="edge46" class="edge"><title>Node18&#45;&gt;Node19</title>
<path fill="none" stroke="midnightblue" d="M2840,-232.388C2820.98,-216.32 2782.07,-186.381 2743,-174 2588.59,-125.069 2175.74,-157.938 2015,-138 2005.03,-136.763 1994.16,-134.737 1984.74,-132.758"/>
<polygon fill="midnightblue" stroke="midnightblue" points="1985.36,-129.311 1974.84,-130.589 1983.86,-136.148 1985.36,-129.311"/>
</g>
<!-- Node21&#45;&gt;Node5 -->
<g id="edge54" class="edge"><title>Node21&#45;&gt;Node5</title>
<path fill="none" stroke="midnightblue" d="M3439.83,-232.305C3415.91,-216.126 3367.35,-186.041 3321,-174 3203.18,-143.389 2327.82,-204.723 2226,-138 2193.08,-116.425 2218.97,-82.2991 2188,-58 2157.91,-34.3858 2047.65,-19.9956 1992.24,-14.1"/>
<polygon fill="midnightblue" stroke="midnightblue" points="1992.55,-10.6138 1982.25,-13.0658 1991.83,-17.5767 1992.55,-10.6138"/>
</g>
<!-- Node21&#45;&gt;Node11 -->
<g id="edge58" class="edge"><title>Node21&#45;&gt;Node11</title>
<path fill="none" stroke="midnightblue" d="M3433.86,-232.467C3400.32,-216.36 3332.4,-186.197 3271,-174 3035.9,-127.303 2430.43,-170.853 2193,-138 2106.58,-126.041 2008.06,-98.3893 1953.97,-81.9517"/>
<polygon fill="midnightblue" stroke="midnightblue" points="1954.67,-78.5045 1944.08,-78.9205 1952.61,-85.1972 1954.67,-78.5045"/>
</g>
<!-- Node21&#45;&gt;Node14 -->
<g id="edge56" class="edge"><title>Node21&#45;&gt;Node14</title>
<path fill="none" stroke="midnightblue" d="M3394.19,-238.278C3244.92,-226.689 2863.96,-197.11 2744.44,-187.83"/>
<polygon fill="midnightblue" stroke="midnightblue" points="2744.59,-184.331 2734.35,-187.046 2744.05,-191.31 2744.59,-184.331"/>
</g>
<!-- Node23&#45;&gt;Node5 -->
<g id="edge314" class="edge"><title>Node23&#45;&gt;Node5</title>
<path fill="none" stroke="midnightblue" d="M3185.46,-478.499C3340.86,-445.266 3779.06,-334.988 3633,-174 3518.27,-47.5434 2215.01,-16.0697 1992.28,-11.6008"/>
<polygon fill="midnightblue" stroke="midnightblue" points="1992.28,-8.10033 1982.22,-11.4027 1992.15,-15.099 1992.28,-8.10033"/>
</g>
<!-- Node23&#45;&gt;Node16 -->
<g id="edge298" class="edge"><title>Node23&#45;&gt;Node16</title>
<path fill="none" stroke="midnightblue" d="M3134.44,-478.071C3136.86,-463.439 3142.92,-437.321 3157,-420 3167.66,-406.886 3182.41,-396.186 3196.89,-387.872"/>
<polygon fill="midnightblue" stroke="midnightblue" points="3198.72,-390.861 3205.83,-383.004 3195.37,-384.713 3198.72,-390.861"/>
</g>
<!-- Node24 -->
<g id="node58" class="node"><title>Node24</title>
<a xlink:href="_physics_8h.html" target="_top" xlink:title="analysis/physics/Physics.h">
<polygon fill="white" stroke="black" points="2821,-420.5 2821,-441.5 2957,-441.5 2957,-420.5 2821,-420.5"/>
<text text-anchor="middle" x="2889" y="-428.5" font-family="Helvetica,sans-Serif" font-size="10.00">analysis/physics/Physics.h</text>
</a>
</g>
<!-- Node23&#45;&gt;Node24 -->
<g id="edge68" class="edge"><title>Node23&#45;&gt;Node24</title>
<path fill="none" stroke="midnightblue" d="M3088.81,-478.497C3047.92,-468.775 2986.99,-454.294 2943.18,-443.879"/>
<polygon fill="midnightblue" stroke="midnightblue" points="2943.81,-440.431 2933.27,-441.523 2942.19,-447.241 2943.81,-440.431"/>
</g>
<!-- Node63 -->
<g id="node213" class="node"><title>Node63</title>
<a xlink:href="_manager__traits_8h.html" target="_top" xlink:title="calibration/gui/Manager\l_traits.h">
<polygon fill="white" stroke="black" points="1175.5,-349 1175.5,-383 1292.5,-383 1292.5,-349 1175.5,-349"/>
<text text-anchor="start" x="1183.5" y="-370" font-family="Helvetica,sans-Serif" font-size="10.00">calibration/gui/Manager</text>
<text text-anchor="middle" x="1234" y="-357" font-family="Helvetica,sans-Serif" font-size="10.00">_traits.h</text>
</a>
</g>
<!-- Node23&#45;&gt;Node63 -->
<g id="edge300" class="edge"><title>Node23&#45;&gt;Node63</title>
<path fill="none" stroke="midnightblue" d="M3073.11,-487.222C2800.53,-478.876 1674.83,-441.635 1302.67,-384.074"/>
<polygon fill="midnightblue" stroke="midnightblue" points="1303.1,-380.599 1292.68,-382.494 1302.01,-387.513 1303.1,-380.599"/>
</g>
<!-- Node24&#45;&gt;Node10 -->
<g id="edge290" class="edge"><title>Node24&#45;&gt;Node10</title>
<path fill="none" stroke="midnightblue" d="M2957.11,-428.795C3051.07,-424.75 3225.38,-413.63 3371,-384 3559.99,-345.547 3654.85,-396.319 3785,-254 3838.42,-195.587 3814.51,-158.699 3823,-80 3824.05,-70.2787 3829.69,-65.1347 3823,-58 3798.98,-32.3639 3266.06,-15.6731 3130.93,-11.843"/>
<polygon fill="midnightblue" stroke="midnightblue" points="3130.94,-8.34194 3120.84,-11.5602 3130.74,-15.3392 3130.94,-8.34194"/>
</g>
<!-- Node24&#45;&gt;Node14 -->
<g id="edge294" class="edge"><title>Node24&#45;&gt;Node14</title>
<path fill="none" stroke="midnightblue" d="M2858.48,-420.432C2817.14,-404.294 2744.84,-369.208 2713,-312 2694.41,-278.595 2698.69,-232.238 2703.4,-205.759"/>
<polygon fill="midnightblue" stroke="midnightblue" points="2706.88,-206.212 2705.38,-195.724 2700.01,-204.858 2706.88,-206.212"/>
</g>
<!-- Node24&#45;&gt;Node19 -->
<g id="edge288" class="edge"><title>Node24&#45;&gt;Node19</title>
<path fill="none" stroke="midnightblue" d="M2820.85,-428.569C2647.29,-422.124 2197.74,-403.733 2133,-384 2072.41,-365.533 2054.8,-356.777 2010,-312 1982.67,-284.691 1963.15,-268.434 1976,-232 1982.83,-212.624 1998.17,-215.376 2005,-196 2008.25,-186.779 2008.64,-183.074 2005,-174 2000.36,-162.442 1991.37,-152.122 1982.64,-144.118"/>
<polygon fill="midnightblue" stroke="midnightblue" points="1984.7,-141.278 1974.82,-137.448 1980.16,-146.602 1984.7,-141.278"/>
</g>
<!-- Node24&#45;&gt;Node22 -->
<g id="edge292" class="edge"><title>Node24&#45;&gt;Node22</title>
<path fill="none" stroke="midnightblue" d="M2923.92,-420.432C2986.33,-399.602 3116.43,-346.999 3180,-254 3189.67,-239.847 3192.95,-220.492 3193.93,-205.882"/>
<polygon fill="midnightblue" stroke="midnightblue" points="3197.44,-205.923 3194.31,-195.8 3190.44,-205.663 3197.44,-205.923"/>
</g>
<!-- Node25 -->
<g id="node60" class="node"><title>Node25</title>
<a xlink:href="_histogram_factories_8h.html" target="_top" xlink:title="analysis/plot/HistogramFactories.h">
<polygon fill="white" stroke="black" points="2366,-355.5 2366,-376.5 2534,-376.5 2534,-355.5 2366,-355.5"/>
<text text-anchor="middle" x="2450" y="-363.5" font-family="Helvetica,sans-Serif" font-size="10.00">analysis/plot/HistogramFactories.h</text>
</a>
</g>
<!-- Node24&#45;&gt;Node25 -->
<g id="edge70" class="edge"><title>Node24&#45;&gt;Node25</title>
<path fill="none" stroke="midnightblue" d="M2820.89,-420.915C2742.67,-409.333 2614.43,-390.347 2531.12,-378.011"/>
<polygon fill="midnightblue" stroke="midnightblue" points="2531.59,-374.543 2521.19,-376.54 2530.57,-381.467 2531.59,-374.543"/>
</g>
<!-- Node34 -->
<g id="node88" class="node"><title>Node34</title>
<polygon fill="white" stroke="#bfbfbf" points="2166.5,-174.5 2166.5,-195.5 2225.5,-195.5 2225.5,-174.5 2166.5,-174.5"/>
<text text-anchor="middle" x="2196" y="-182.5" font-family="Helvetica,sans-Serif" font-size="10.00">functional</text>
</g>
<!-- Node24&#45;&gt;Node34 -->
<g id="edge296" class="edge"><title>Node24&#45;&gt;Node34</title>
<path fill="none" stroke="midnightblue" d="M2820.59,-428.119C2718.93,-423.126 2522.21,-410.719 2357,-384 2219.93,-361.833 2176.12,-376.186 2053,-312 2018.67,-294.102 2003.83,-289.335 1988,-254 1945.89,-159.979 2045.41,-218.942 2156.13,-196.148"/>
<polygon fill="midnightblue" stroke="midnightblue" points="2157.21,-199.491 2166.19,-193.854 2155.66,-192.666 2157.21,-199.491"/>
</g>
<!-- Node49 -->
<g id="node146" class="node"><title>Node49</title>
<a xlink:href="_event_8h.html" target="_top" xlink:title="analysis/data/Event.h">
<polygon fill="white" stroke="black" points="1309.5,-355.5 1309.5,-376.5 1420.5,-376.5 1420.5,-355.5 1309.5,-355.5"/>
<text text-anchor="middle" x="1365" y="-363.5" font-family="Helvetica,sans-Serif" font-size="10.00">analysis/data/Event.h</text>
</a>
</g>
<!-- Node24&#45;&gt;Node49 -->
<g id="edge194" class="edge"><title>Node24&#45;&gt;Node49</title>
<path fill="none" stroke="midnightblue" d="M2820.56,-428.081C2566.63,-417.25 1680.3,-379.448 1430.81,-368.807"/>
<polygon fill="midnightblue" stroke="midnightblue" points="1430.94,-365.309 1420.8,-368.38 1430.64,-372.303 1430.94,-365.309"/>
</g>
<!-- Node61 -->
<g id="node198" class="node"><title>Node61</title>
<a xlink:href="_slowcontrol_8h.html" target="_top" xlink:title="analysis/data/Slowcontrol.h">
<polygon fill="white" stroke="black" points="2234.5,-116.5 2234.5,-137.5 2371.5,-137.5 2371.5,-116.5 2234.5,-116.5"/>
<text text-anchor="middle" x="2303" y="-124.5" font-family="Helvetica,sans-Serif" font-size="10.00">analysis/data/Slowcontrol.h</text>
</a>
</g>
<!-- Node24&#45;&gt;Node61 -->
<g id="edge274" class="edge"><title>Node24&#45;&gt;Node61</title>
<path fill="none" stroke="midnightblue" d="M2957.38,-427.227C3060.93,-420.884 3252.32,-406.523 3317,-384 3370.9,-365.233 3556.86,-278.662 3524,-232 3479.97,-169.471 3437.04,-188.749 3362,-174 3174.45,-137.136 2594.02,-129.151 2381.77,-127.451"/>
<polygon fill="midnightblue" stroke="midnightblue" points="2381.67,-123.95 2371.64,-127.372 2381.61,-130.95 2381.67,-123.95"/>
</g>
<!-- Node62 -->
<g id="node202" class="node"><title>Node62</title>
<a xlink:href="_options_list_8h.html" target="_top" xlink:title="base/OptionsList.h">
<polygon fill="white" stroke="black" points="3051,-232.5 3051,-253.5 3149,-253.5 3149,-232.5 3051,-232.5"/>
<text text-anchor="middle" x="3100" y="-240.5" font-family="Helvetica,sans-Serif" font-size="10.00">base/OptionsList.h</text>
</a>
</g>
<!-- Node24&#45;&gt;Node62 -->
<g id="edge280" class="edge"><title>Node24&#45;&gt;Node62</title>
<path fill="none" stroke="midnightblue" d="M2901.73,-420.361C2926.26,-399.776 2981.68,-352.918 3027,-312 3045.78,-295.039 3066.73,-275.134 3081.35,-261.073"/>
<polygon fill="midnightblue" stroke="midnightblue" points="3084,-263.38 3088.77,-253.919 3079.14,-258.342 3084,-263.38"/>
</g>
<!-- Node25&#45;&gt;Node10 -->
<g id="edge192" class="edge"><title>Node25&#45;&gt;Node10</title>
<path fill="none" stroke="midnightblue" d="M2534.12,-361.866C2793.58,-348.621 3569.97,-305.104 3671,-254 3707.79,-235.391 3733,-226.228 3733,-185 3733,-185 3733,-185 3733,-127 3733,-85.7719 3707.93,-76.3199 3671,-58 3622.44,-33.9127 3242.55,-16.7677 3130.81,-12.2076"/>
<polygon fill="midnightblue" stroke="midnightblue" points="3130.7,-8.70021 3120.56,-11.7941 3130.42,-15.6945 3130.7,-8.70021"/>
</g>
<!-- Node26 -->
<g id="node62" class="node"><title>Node26</title>
<a xlink:href="_histogram_8h.html" target="_top" xlink:title="Histogram.h">
<polygon fill="white" stroke="black" points="1997,-232.5 1997,-253.5 2067,-253.5 2067,-232.5 1997,-232.5"/>
<text text-anchor="middle" x="2032" y="-240.5" font-family="Helvetica,sans-Serif" font-size="10.00">Histogram.h</text>
</a>
</g>
<!-- Node25&#45;&gt;Node26 -->
<g id="edge72" class="edge"><title>Node25&#45;&gt;Node26</title>
<path fill="none" stroke="midnightblue" d="M2365.61,-361.31C2271.8,-354.777 2127.38,-340.394 2081,-312 2062.22,-300.502 2048.63,-278.814 2040.6,-262.81"/>
<polygon fill="midnightblue" stroke="midnightblue" points="2043.74,-261.276 2036.31,-253.722 2037.41,-264.26 2043.74,-261.276"/>
</g>
<!-- Node32 -->
<g id="node78" class="node"><title>Node32</title>
<a xlink:href="_smart_hist_8h.html" target="_top" xlink:title="SmartHist.h">
<polygon fill="white" stroke="black" points="2415.5,-290.5 2415.5,-311.5 2484.5,-311.5 2484.5,-290.5 2415.5,-290.5"/>
<text text-anchor="middle" x="2450" y="-298.5" font-family="Helvetica,sans-Serif" font-size="10.00">SmartHist.h</text>
</a>
</g>
<!-- Node25&#45;&gt;Node32 -->
<g id="edge92" class="edge"><title>Node25&#45;&gt;Node32</title>
<path fill="none" stroke="midnightblue" d="M2450,-355.267C2450,-346.18 2450,-332.892 2450,-321.74"/>
<polygon fill="midnightblue" stroke="midnightblue" points="2453.5,-321.534 2450,-311.534 2446.5,-321.534 2453.5,-321.534"/>
</g>
<!-- Node41 -->
<g id="node105" class="node"><title>Node41</title>
<a xlink:href="_particle_8h.html" target="_top" xlink:title="analysis/data/Particle.h">
<polygon fill="white" stroke="black" points="1369.5,-290.5 1369.5,-311.5 1488.5,-311.5 1488.5,-290.5 1369.5,-290.5"/>
<text text-anchor="middle" x="1429" y="-298.5" font-family="Helvetica,sans-Serif" font-size="10.00">analysis/data/Particle.h</text>
</a>
</g>
<!-- Node25&#45;&gt;Node41 -->
<g id="edge128" class="edge"><title>Node25&#45;&gt;Node41</title>
<path fill="none" stroke="midnightblue" d="M2365.58,-360.625C2168.5,-348.079 1681.07,-317.047 1499.05,-305.459"/>
<polygon fill="midnightblue" stroke="midnightblue" points="1499,-301.949 1488.8,-304.807 1498.55,-308.935 1499,-301.949"/>
</g>
<!-- Node26&#45;&gt;Node5 -->
<g id="edge76" class="edge"><title>Node26&#45;&gt;Node5</title>
<path fill="none" stroke="midnightblue" d="M2036.35,-232.142C2041.23,-218.462 2047.87,-194.288 2043,-174 2029.56,-117.993 1993.5,-59.5289 1973.62,-30.2015"/>
<polygon fill="midnightblue" stroke="midnightblue" points="1976.35,-27.9857 1967.78,-21.7435 1970.58,-31.9618 1976.35,-27.9857"/>
</g>
<!-- Node26&#45;&gt;Node10 -->
<g id="edge78" class="edge"><title>Node26&#45;&gt;Node10</title>
<path fill="none" stroke="midnightblue" d="M2067.1,-237.667C2135.72,-227.136 2282.93,-203.998 2305,-196 2323.35,-189.352 2324.96,-181.443 2343,-174 2538.71,-93.2603 2597.37,-99.3567 2805,-58 2900.84,-38.9093 3015.43,-22.4578 3069.23,-15.1039"/>
<polygon fill="midnightblue" stroke="midnightblue" points="3069.72,-18.5697 3079.16,-13.7563 3068.78,-11.6333 3069.72,-18.5697"/>
</g>
<!-- Node27 -->
<g id="node64" class="node"><title>Node27</title>
<polygon fill="white" stroke="#bfbfbf" points="2095,-174.5 2095,-195.5 2149,-195.5 2149,-174.5 2095,-174.5"/>
<text text-anchor="middle" x="2122" y="-182.5" font-family="Helvetica,sans-Serif" font-size="10.00">TColor.h</text>
</g>
<!-- Node26&#45;&gt;Node27 -->
<g id="edge74" class="edge"><title>Node26&#45;&gt;Node27</title>
<path fill="none" stroke="midnightblue" d="M2048.51,-232.362C2062.08,-223.614 2081.53,-211.079 2097.01,-201.101"/>
<polygon fill="midnightblue" stroke="midnightblue" points="2099.09,-203.93 2105.6,-195.571 2095.3,-198.046 2099.09,-203.93"/>
</g>
<!-- Node28 -->
<g id="node68" class="node"><title>Node28</title>
<a xlink:href="interval_8h.html" target="_top" xlink:title="base/interval.h">
<polygon fill="white" stroke="black" points="815,-174.5 815,-195.5 895,-195.5 895,-174.5 815,-174.5"/>
<text text-anchor="middle" x="855" y="-182.5" font-family="Helvetica,sans-Serif" font-size="10.00">base/interval.h</text>
</a>
</g>
<!-- Node26&#45;&gt;Node28 -->
<g id="edge80" class="edge"><title>Node26&#45;&gt;Node28</title>
<path fill="none" stroke="midnightblue" d="M1996.77,-241.264C1828.15,-232.955 1103.38,-197.24 905.234,-187.475"/>
<polygon fill="midnightblue" stroke="midnightblue" points="905.27,-183.973 895.11,-186.977 904.926,-190.965 905.27,-183.973"/>
</g>
<!-- Node28&#45;&gt;Node4 -->
<g id="edge86" class="edge"><title>Node28&#45;&gt;Node4</title>
<path fill="none" stroke="midnightblue" d="M841.468,-174.459C823.69,-160.701 791.392,-136.018 763,-116 747.936,-105.379 730.703,-93.9542 716.987,-85.0285"/>
<polygon fill="midnightblue" stroke="midnightblue" points="718.836,-82.0561 708.54,-79.5574 715.031,-87.9314 718.836,-82.0561"/>
</g>
<!-- Node28&#45;&gt;Node9 -->
<g id="edge84" class="edge"><title>Node28&#45;&gt;Node9</title>
<path fill="none" stroke="midnightblue" d="M860.999,-174.295C871.93,-154.786 895.239,-113.188 909.063,-88.5177"/>
<polygon fill="midnightblue" stroke="midnightblue" points="912.181,-90.1139 914.016,-79.6792 906.074,-86.6921 912.181,-90.1139"/>
</g>
<!-- Node29 -->
<g id="node70" class="node"><title>Node29</title>
<polygon fill="white" stroke="#bfbfbf" points="249,-0.5 249,-21.5 305,-21.5 305,-0.5 249,-0.5"/>
<text text-anchor="middle" x="277" y="-8.5" font-family="Helvetica,sans-Serif" font-size="10.00">algorithm</text>
</g>
<!-- Node28&#45;&gt;Node29 -->
<g id="edge82" class="edge"><title>Node28&#45;&gt;Node29</title>
<path fill="none" stroke="midnightblue" d="M849.49,-174.429C835.67,-149.145 796.825,-85.2612 744,-58 706.24,-38.5133 419.979,-19.5792 315.238,-13.2341"/>
<polygon fill="midnightblue" stroke="midnightblue" points="315.298,-9.73152 305.106,-12.6254 314.878,-16.7189 315.298,-9.73152"/>
</g>
<!-- Node30 -->
<g id="node74" class="node"><title>Node30</title>
<a xlink:href="types_8h.html" target="_top" xlink:title="types.h">
<polygon fill="white" stroke="black" points="1042.5,-116.5 1042.5,-137.5 1091.5,-137.5 1091.5,-116.5 1042.5,-116.5"/>
<text text-anchor="middle" x="1067" y="-124.5" font-family="Helvetica,sans-Serif" font-size="10.00">types.h</text>
</a>
</g>
<!-- Node28&#45;&gt;Node30 -->
<g id="edge88" class="edge"><title>Node28&#45;&gt;Node30</title>
<path fill="none" stroke="midnightblue" d="M894.792,-174.469C930.096,-165.074 983.046,-150.857 1029,-138 1030.23,-137.657 1031.48,-137.305 1032.74,-136.948"/>
<polygon fill="midnightblue" stroke="midnightblue" points="1033.83,-140.276 1042.49,-134.165 1031.91,-133.545 1033.83,-140.276"/>
</g>
<!-- Node28&#45;&gt;Node31 -->
<g id="edge90" class="edge"><title>Node28&#45;&gt;Node31</title>
<path fill="none" stroke="midnightblue" d="M895.022,-177.654C959.28,-165.86 1084.02,-142.964 1141.14,-132.481"/>
<polygon fill="midnightblue" stroke="midnightblue" points="1141.78,-135.921 1150.99,-130.673 1140.52,-129.036 1141.78,-135.921"/>
</g>
<!-- Node32&#45;&gt;Node10 -->
<g id="edge122" class="edge"><title>Node32&#45;&gt;Node10</title>
<path fill="none" stroke="midnightblue" d="M2484.61,-300.275C2663.46,-296.427 3476.44,-277.686 3524,-254 3559.61,-236.268 3581,-224.777 3581,-185 3581,-185 3581,-185 3581,-127 3581,-33.9853 3236.78,-15.329 3130.73,-11.7883"/>
<polygon fill="midnightblue" stroke="midnightblue" points="3130.77,-8.28804 3120.67,-11.4746 3130.55,-15.2846 3130.77,-8.28804"/>
</g>
<!-- Node32&#45;&gt;Node14 -->
<g id="edge120" class="edge"><title>Node32&#45;&gt;Node14</title>
<path fill="none" stroke="midnightblue" d="M2484.59,-292.118C2514.29,-283.928 2557.9,-270.55 2594,-254 2626.9,-238.916 2662.16,-216.499 2684.61,-201.345"/>
<polygon fill="midnightblue" stroke="midnightblue" points="2686.84,-204.063 2693.12,-195.534 2682.89,-198.283 2686.84,-204.063"/>
</g>
<!-- Node32&#45;&gt;Node18 -->
<g id="edge112" class="edge"><title>Node32&#45;&gt;Node18</title>
<path fill="none" stroke="midnightblue" d="M2484.62,-296.005C2550.57,-286.489 2695.37,-265.599 2782.19,-253.073"/>
<polygon fill="midnightblue" stroke="midnightblue" points="2782.82,-256.518 2792.22,-251.625 2781.82,-249.589 2782.82,-256.518"/>
</g>
<!-- Node32&#45;&gt;Node26 -->
<g id="edge94" class="edge"><title>Node32&#45;&gt;Node26</title>
<path fill="none" stroke="midnightblue" d="M2415.44,-296.204C2340.14,-285.757 2161.32,-260.944 2077.21,-249.273"/>
<polygon fill="midnightblue" stroke="midnightblue" points="2077.58,-245.791 2067.19,-247.883 2076.62,-252.724 2077.58,-245.791"/>
</g>
<!-- Node33 -->
<g id="node81" class="node"><title>Node33</title>
<a xlink:href="root__draw_8h.html" target="_top" xlink:title="root_draw.h">
<polygon fill="white" stroke="black" points="2123,-232.5 2123,-253.5 2191,-253.5 2191,-232.5 2123,-232.5"/>
<text text-anchor="middle" x="2157" y="-240.5" font-family="Helvetica,sans-Serif" font-size="10.00">root_draw.h</text>
</a>
</g>
<!-- Node32&#45;&gt;Node33 -->
<g id="edge96" class="edge"><title>Node32&#45;&gt;Node33</title>
<path fill="none" stroke="midnightblue" d="M2415.24,-294.119C2361.9,-283.56 2259.9,-263.37 2201.33,-251.774"/>
<polygon fill="midnightblue" stroke="midnightblue" points="2201.75,-248.291 2191.26,-249.782 2200.39,-255.158 2201.75,-248.291"/>
</g>
<!-- Node36 -->
<g id="node93" class="node"><title>Node36</title>
<polygon fill="white" stroke="#bfbfbf" points="2322.5,-232.5 2322.5,-253.5 2373.5,-253.5 2373.5,-232.5 2322.5,-232.5"/>
<text text-anchor="middle" x="2348" y="-240.5" font-family="Helvetica,sans-Serif" font-size="10.00">TH1D.h</text>
</g>
<!-- Node32&#45;&gt;Node36 -->
<g id="edge114" class="edge"><title>Node32&#45;&gt;Node36</title>
<path fill="none" stroke="midnightblue" d="M2431.29,-290.362C2415.62,-281.45 2393.04,-268.609 2375.34,-258.545"/>
<polygon fill="midnightblue" stroke="midnightblue" points="2377.01,-255.471 2366.59,-253.571 2373.55,-261.556 2377.01,-255.471"/>
</g>
<!-- Node37 -->
<g id="node95" class="node"><title>Node37</title>
<polygon fill="white" stroke="#bfbfbf" points="2390.5,-232.5 2390.5,-253.5 2441.5,-253.5 2441.5,-232.5 2390.5,-232.5"/>
<text text-anchor="middle" x="2416" y="-240.5" font-family="Helvetica,sans-Serif" font-size="10.00">TH2D.h</text>
</g>
<!-- Node32&#45;&gt;Node37 -->
<g id="edge116" class="edge"><title>Node32&#45;&gt;Node37</title>
<path fill="none" stroke="midnightblue" d="M2443.76,-290.362C2439.16,-282.513 2432.77,-271.616 2427.29,-262.253"/>
<polygon fill="midnightblue" stroke="midnightblue" points="2430.27,-260.428 2422.2,-253.571 2424.23,-263.968 2430.27,-260.428"/>
</g>
<!-- Node38 -->
<g id="node97" class="node"><title>Node38</title>
<polygon fill="white" stroke="#bfbfbf" points="2458.5,-232.5 2458.5,-253.5 2509.5,-253.5 2509.5,-232.5 2458.5,-232.5"/>
<text text-anchor="middle" x="2484" y="-240.5" font-family="Helvetica,sans-Serif" font-size="10.00">TH3D.h</text>
</g>
<!-- Node32&#45;&gt;Node38 -->
<g id="edge118" class="edge"><title>Node32&#45;&gt;Node38</title>
<path fill="none" stroke="midnightblue" d="M2456.24,-290.362C2460.84,-282.513 2467.23,-271.616 2472.71,-262.253"/>
<polygon fill="midnightblue" stroke="midnightblue" points="2475.77,-263.968 2477.8,-253.571 2469.73,-260.428 2475.77,-263.968"/>
</g>
<!-- Node39 -->
<g id="node101" class="node"><title>Node39</title>
<polygon fill="white" stroke="#bfbfbf" points="1697,-232.5 1697,-253.5 1751,-253.5 1751,-232.5 1697,-232.5"/>
<text text-anchor="middle" x="1724" y="-240.5" font-family="Helvetica,sans-Serif" font-size="10.00">iostream</text>
</g>
<!-- Node32&#45;&gt;Node39 -->
<g id="edge124" class="edge"><title>Node32&#45;&gt;Node39</title>
<path fill="none" stroke="midnightblue" d="M2415.47,-298.242C2294.03,-288.54 1887.16,-256.035 1761.38,-245.986"/>
<polygon fill="midnightblue" stroke="midnightblue" points="1761.36,-242.473 1751.11,-245.166 1760.8,-249.451 1761.36,-242.473"/>
</g>
<!-- Node40 -->
<g id="node103" class="node"><title>Node40</title>
<polygon fill="white" stroke="#bfbfbf" points="2526.5,-232.5 2526.5,-253.5 2585.5,-253.5 2585.5,-232.5 2526.5,-232.5"/>
<text text-anchor="middle" x="2556" y="-240.5" font-family="Helvetica,sans-Serif" font-size="10.00">exception</text>
</g>
<!-- Node32&#45;&gt;Node40 -->
<g id="edge126" class="edge"><title>Node32&#45;&gt;Node40</title>
<path fill="none" stroke="midnightblue" d="M2469.44,-290.362C2485.8,-281.409 2509.41,-268.491 2527.84,-258.406"/>
<polygon fill="midnightblue" stroke="midnightblue" points="2529.59,-261.441 2536.68,-253.571 2526.23,-255.3 2529.59,-261.441"/>
</g>
<!-- Node33&#45;&gt;Node5 -->
<g id="edge102" class="edge"><title>Node33&#45;&gt;Node5</title>
<path fill="none" stroke="midnightblue" d="M2191.31,-232.525C2226.99,-221.288 2278.44,-203.983 2284,-196 2289.59,-187.975 2289.5,-182.086 2284,-174 2259.55,-138.03 2232.39,-156.442 2193,-138 2116.03,-101.965 2029.01,-51.9211 1986.38,-26.7666"/>
<polygon fill="midnightblue" stroke="midnightblue" points="1988.13,-23.7314 1977.74,-21.6469 1984.56,-29.7543 1988.13,-23.7314"/>
</g>
<!-- Node33&#45;&gt;Node10 -->
<g id="edge98" class="edge"><title>Node33&#45;&gt;Node10</title>
<path fill="none" stroke="midnightblue" d="M2191.01,-233.331C2192.7,-232.876 2194.37,-232.43 2196,-232 2537.29,-142.182 2954.31,-44.7433 3069.36,-18.0787"/>
<polygon fill="midnightblue" stroke="midnightblue" points="3070.29,-21.4565 3079.24,-15.7907 3068.71,-14.637 3070.29,-21.4565"/>
</g>
<!-- Node33&#45;&gt;Node14 -->
<g id="edge106" class="edge"><title>Node33&#45;&gt;Node14</title>
<path fill="none" stroke="midnightblue" d="M2191.23,-234.509C2195.84,-233.556 2200.52,-232.684 2205,-232 2409.04,-200.863 2464.68,-231.525 2668,-196 2669.28,-195.777 2670.57,-195.531 2671.88,-195.266"/>
<polygon fill="midnightblue" stroke="midnightblue" points="2672.96,-198.608 2681.91,-192.942 2671.38,-191.788 2672.96,-198.608"/>
</g>
<!-- Node33&#45;&gt;Node19 -->
<g id="edge100" class="edge"><title>Node33&#45;&gt;Node19</title>
<path fill="none" stroke="midnightblue" d="M2191.18,-235.509C2232.3,-224.982 2292.77,-203.718 2267,-174 2229.94,-131.265 2070.76,-147.551 2015,-138 2005.1,-136.304 1994.24,-134.188 1984.81,-132.267"/>
<polygon fill="midnightblue" stroke="midnightblue" points="1985.4,-128.814 1974.9,-130.212 1983.98,-135.668 1985.4,-128.814"/>
</g>
<!-- Node33&#45;&gt;Node22 -->
<g id="edge104" class="edge"><title>Node33&#45;&gt;Node22</title>
<path fill="none" stroke="midnightblue" d="M2191.29,-240.433C2223.09,-238.092 2271.73,-234.61 2314,-232 2649.5,-211.289 3057.29,-191.51 3166.18,-186.317"/>
<polygon fill="midnightblue" stroke="midnightblue" points="3166.5,-189.806 3176.33,-185.835 3166.17,-182.814 3166.5,-189.806"/>
</g>
<!-- Node33&#45;&gt;Node34 -->
<g id="edge108" class="edge"><title>Node33&#45;&gt;Node34</title>
<path fill="none" stroke="midnightblue" d="M2164.15,-232.362C2169.49,-224.431 2176.91,-213.389 2183.25,-203.961"/>
<polygon fill="midnightblue" stroke="midnightblue" points="2186.22,-205.822 2188.89,-195.571 2180.41,-201.916 2186.22,-205.822"/>
</g>
<!-- Node35 -->
<g id="node90" class="node"><title>Node35</title>
<polygon fill="white" stroke="#bfbfbf" points="513,-116.5 513,-137.5 569,-137.5 569,-116.5 513,-116.5"/>
<text text-anchor="middle" x="541" y="-124.5" font-family="Helvetica,sans-Serif" font-size="10.00">Rtypes.h</text>
</g>
<!-- Node33&#45;&gt;Node35 -->
<g id="edge110" class="edge"><title>Node33&#45;&gt;Node35</title>
<path fill="none" stroke="midnightblue" d="M2122.8,-237.532C2108.39,-235.443 2091.42,-233.262 2076,-232 1513.21,-185.941 1365.03,-275.651 806,-196 723.488,-184.243 629.71,-156.23 578.791,-139.739"/>
<polygon fill="midnightblue" stroke="midnightblue" points="579.788,-136.383 569.195,-136.603 577.613,-143.036 579.788,-136.383"/>
</g>
<!-- Node41&#45;&gt;Node4 -->
<g id="edge156" class="edge"><title>Node41&#45;&gt;Node4</title>
<path fill="none" stroke="midnightblue" d="M1369.34,-300.086C1215.8,-296.545 812.099,-279.337 713,-196 682.499,-170.35 684.301,-118.809 688.203,-89.8951"/>
<polygon fill="midnightblue" stroke="midnightblue" points="691.712,-90.1106 689.797,-79.6902 684.796,-89.0302 691.712,-90.1106"/>
</g>
<!-- Node41&#45;&gt;Node5 -->
<g id="edge184" class="edge"><title>Node41&#45;&gt;Node5</title>
<path fill="none" stroke="midnightblue" d="M1439.78,-290.417C1455.87,-275.209 1487.77,-247.32 1520,-232 1581.14,-202.94 1606.56,-224.429 1668,-196 1762.72,-152.171 1767.95,-110.759 1858,-58 1880.8,-44.6411 1908.05,-32.2533 1928.64,-23.553"/>
<polygon fill="midnightblue" stroke="midnightblue" points="1930,-26.7811 1937.89,-19.7076 1927.31,-20.3184 1930,-26.7811"/>
</g>
<!-- Node41&#45;&gt;Node14 -->
<g id="edge190" class="edge"><title>Node41&#45;&gt;Node14</title>
<path fill="none" stroke="midnightblue" d="M1488.78,-298.782C1662.84,-292.147 2161.51,-271.803 2233,-254 2255.77,-248.329 2258.33,-238.062 2281,-232 2447.88,-187.381 2498.07,-227.021 2668,-196 2669.28,-195.767 2670.57,-195.513 2671.87,-195.241"/>
<polygon fill="midnightblue" stroke="midnightblue" points="2672.97,-198.579 2681.9,-192.884 2671.37,-191.764 2672.97,-198.579"/>
</g>
<!-- Node41&#45;&gt;Node19 -->
<g id="edge186" class="edge"><title>Node41&#45;&gt;Node19</title>
<path fill="none" stroke="midnightblue" d="M1449.69,-290.446C1485.61,-272.179 1556.84,-236.211 1569,-232 1641.98,-206.733 1664.28,-215.53 1739,-196 1811.44,-177.065 1895.48,-149.151 1935.87,-135.352"/>
<polygon fill="midnightblue" stroke="midnightblue" points="1937.07,-138.641 1945.4,-132.084 1934.8,-132.02 1937.07,-138.641"/>
</g>
<!-- Node41&#45;&gt;Node30 -->
<g id="edge158" class="edge"><title>Node41&#45;&gt;Node30</title>
<path fill="none" stroke="midnightblue" d="M1369.12,-297.732C1268.96,-291.648 1076.34,-277.069 1056,-254 1030.04,-224.564 1045.33,-174.964 1057.17,-147.264"/>
<polygon fill="midnightblue" stroke="midnightblue" points="1060.52,-148.361 1061.45,-137.807 1054.14,-145.476 1060.52,-148.361"/>
</g>
<!-- Node41&#45;&gt;Node39 -->
<g id="edge188" class="edge"><title>Node41&#45;&gt;Node39</title>
<path fill="none" stroke="midnightblue" d="M1488.56,-292.223C1539.06,-284.321 1613.54,-271.586 1687.07,-254.026"/>
<polygon fill="midnightblue" stroke="midnightblue" points="1688.07,-257.385 1696.97,-251.631 1686.42,-250.581 1688.07,-257.385"/>
</g>
<!-- Node42 -->
<g id="node107" class="node"><title>Node42</title>
<a xlink:href="_candidate_8h.html" target="_top" xlink:title="analysis/data/Candidate.h">
<polygon fill="white" stroke="black" points="1189,-232.5 1189,-253.5 1319,-253.5 1319,-232.5 1189,-232.5"/>
<text text-anchor="middle" x="1254" y="-240.5" font-family="Helvetica,sans-Serif" font-size="10.00">analysis/data/Candidate.h</text>
</a>
</g>
<!-- Node41&#45;&gt;Node42 -->
<g id="edge130" class="edge"><title>Node41&#45;&gt;Node42</title>
<path fill="none" stroke="midnightblue" d="M1397.31,-290.497C1368.78,-281.041 1326.66,-267.083 1295.47,-256.743"/>
<polygon fill="midnightblue" stroke="midnightblue" points="1296.34,-253.347 1285.75,-253.523 1294.14,-259.991 1296.34,-253.347"/>
</g>
<!-- Node45 -->
<g id="node125" class="node"><title>Node45</title>
<a xlink:href="_particle_type_8h.html" target="_top" xlink:title="base/ParticleType.h">
<polygon fill="white" stroke="black" points="1337,-232.5 1337,-253.5 1441,-253.5 1441,-232.5 1337,-232.5"/>
<text text-anchor="middle" x="1389" y="-240.5" font-family="Helvetica,sans-Serif" font-size="10.00">base/ParticleType.h</text>
</a>
</g>
<!-- Node41&#45;&gt;Node45 -->
<g id="edge160" class="edge"><title>Node41&#45;&gt;Node45</title>
<path fill="none" stroke="midnightblue" d="M1421.66,-290.362C1416.19,-282.431 1408.58,-271.389 1402.08,-261.961"/>
<polygon fill="midnightblue" stroke="midnightblue" points="1404.85,-259.816 1396.29,-253.571 1399.09,-263.79 1404.85,-259.816"/>
</g>
<!-- Node47 -->
<g id="node134" class="node"><title>Node47</title>
<a xlink:href="_tree_8h.html" target="_top" xlink:title="base/Tree.h">
<polygon fill="white" stroke="black" points="1611,-232.5 1611,-253.5 1679,-253.5 1679,-232.5 1611,-232.5"/>
<text text-anchor="middle" x="1645" y="-240.5" font-family="Helvetica,sans-Serif" font-size="10.00">base/Tree.h</text>
</a>
</g>
<!-- Node41&#45;&gt;Node47 -->
<g id="edge174" class="edge"><title>Node41&#45;&gt;Node47</title>
<path fill="none" stroke="midnightblue" d="M1468.12,-290.497C1505.5,-280.458 1561.79,-265.344 1600.79,-254.873"/>
<polygon fill="midnightblue" stroke="midnightblue" points="1602.05,-258.157 1610.8,-252.184 1600.23,-251.397 1602.05,-258.157"/>
</g>
<!-- Node48 -->
<g id="node139" class="node"><title>Node48</title>
<polygon fill="white" stroke="#bfbfbf" points="1103,-174.5 1103,-195.5 1195,-195.5 1195,-174.5 1103,-174.5"/>
<text text-anchor="middle" x="1149" y="-182.5" font-family="Helvetica,sans-Serif" font-size="10.00">TLorentzVector.h</text>
</g>
<!-- Node41&#45;&gt;Node48 -->
<g id="edge182" class="edge"><title>Node41&#45;&gt;Node48</title>
<path fill="none" stroke="midnightblue" d="M1369.23,-296.068C1305.15,-289.695 1208.72,-276.638 1180,-254 1164.83,-242.044 1156.86,-221.054 1152.82,-205.355"/>
<polygon fill="midnightblue" stroke="midnightblue" points="1156.22,-204.5 1150.62,-195.508 1149.39,-206.031 1156.22,-204.5"/>
</g>
<!-- Node42&#45;&gt;Node3 -->
<g id="edge136" class="edge"><title>Node42&#45;&gt;Node3</title>
<path fill="none" stroke="midnightblue" d="M1319.16,-232.686C1387.21,-221.761 1489.31,-204.889 1528,-196 1562.27,-188.126 1569.79,-182.147 1604,-174 1669.31,-158.445 1745.22,-144.79 1796.1,-136.264"/>
<polygon fill="midnightblue" stroke="midnightblue" points="1796.96,-139.669 1806.25,-134.575 1795.81,-132.764 1796.96,-139.669"/>
</g>
<!-- Node42&#45;&gt;Node4 -->
<g id="edge132" class="edge"><title>Node42&#45;&gt;Node4</title>
<path fill="none" stroke="midnightblue" d="M1188.85,-236.595C1173.49,-235.086 1157.17,-233.485 1142,-232 1060,-223.973 843.232,-239.074 773,-196 752.09,-183.176 718.33,-120.95 701.781,-88.611"/>
<polygon fill="midnightblue" stroke="midnightblue" points="704.87,-86.9634 697.231,-79.622 698.624,-90.1248 704.87,-86.9634"/>
</g>
<!-- Node42&#45;&gt;Node5 -->
<g id="edge154" class="edge"><title>Node42&#45;&gt;Node5</title>
<path fill="none" stroke="midnightblue" d="M1257.46,-232.159C1268.66,-199.127 1307.29,-99.4702 1378,-58 1425.54,-30.1158 1812.35,-15.6881 1927.67,-11.978"/>
<polygon fill="midnightblue" stroke="midnightblue" points="1928.08,-15.4669 1937.96,-11.6523 1927.86,-8.47044 1928.08,-15.4669"/>
</g>
<!-- Node42&#45;&gt;Node6 -->
<g id="edge150" class="edge"><title>Node42&#45;&gt;Node6</title>
<path fill="none" stroke="midnightblue" d="M1188.9,-236.071C1173.53,-234.584 1157.2,-233.124 1142,-232 1061.68,-226.062 489.628,-232.834 418,-196 381.526,-177.243 347.94,-149.216 372,-116 406.028,-69.0219 579.542,-31.7895 655.878,-17.4169"/>
<polygon fill="midnightblue" stroke="midnightblue" points="656.786,-20.8081 665.979,-15.5419 655.509,-13.9257 656.786,-20.8081"/>
</g>
<!-- Node42&#45;&gt;Node7 -->
<g id="edge148" class="edge"><title>Node42&#45;&gt;Node7</title>
<path fill="none" stroke="midnightblue" d="M1265.17,-232.377C1295.6,-203.446 1380.2,-123.006 1418.15,-86.9202"/>
<polygon fill="midnightblue" stroke="midnightblue" points="1420.67,-89.3548 1425.51,-79.9277 1415.85,-84.2819 1420.67,-89.3548"/>
</g>
<!-- Node42&#45;&gt;Node14 -->
<g id="edge152" class="edge"><title>Node42&#45;&gt;Node14</title>
<path fill="none" stroke="midnightblue" d="M1319.32,-232.879C1322.25,-232.555 1325.15,-232.259 1328,-232 1465.13,-219.513 2467.74,-191.581 2671.81,-185.986"/>
<polygon fill="midnightblue" stroke="midnightblue" points="2672.09,-189.48 2681.99,-185.708 2671.89,-182.483 2672.09,-189.48"/>
</g>
<!-- Node42&#45;&gt;Node30 -->
<g id="edge134" class="edge"><title>Node42&#45;&gt;Node30</title>
<path fill="none" stroke="midnightblue" d="M1248.93,-232.303C1241.25,-217.211 1225.29,-189.753 1204,-174 1173.35,-151.32 1130.95,-139.018 1101.47,-132.757"/>
<polygon fill="midnightblue" stroke="midnightblue" points="1102.11,-129.317 1091.62,-130.788 1100.74,-136.181 1102.11,-129.317"/>
</g>
<!-- Node43 -->
<g id="node112" class="node"><title>Node43</title>
<a xlink:href="_cluster_8h.html" target="_top" xlink:title="analysis/data/Cluster.h">
<polygon fill="white" stroke="black" points="1402.5,-174.5 1402.5,-195.5 1519.5,-195.5 1519.5,-174.5 1402.5,-174.5"/>
<text text-anchor="middle" x="1461" y="-182.5" font-family="Helvetica,sans-Serif" font-size="10.00">analysis/data/Cluster.h</text>
</a>
</g>
<!-- Node42&#45;&gt;Node43 -->
<g id="edge138" class="edge"><title>Node42&#45;&gt;Node43</title>
<path fill="none" stroke="midnightblue" d="M1291.49,-232.497C1325.67,-222.918 1376.35,-208.72 1413.38,-198.342"/>
<polygon fill="midnightblue" stroke="midnightblue" points="1414.76,-201.591 1423.44,-195.523 1412.87,-194.851 1414.76,-201.591"/>
</g>
<!-- Node43&#45;&gt;Node3 -->
<g id="edge140" class="edge"><title>Node43&#45;&gt;Node3</title>
<path fill="none" stroke="midnightblue" d="M1519.54,-176.025C1524.1,-175.336 1528.62,-174.655 1533,-174 1625.13,-160.217 1732.21,-144.625 1796.46,-135.314"/>
<polygon fill="midnightblue" stroke="midnightblue" points="1797,-138.773 1806.4,-133.875 1796,-131.845 1797,-138.773"/>
</g>
<!-- Node43&#45;&gt;Node7 -->
<g id="edge144" class="edge"><title>Node43&#45;&gt;Node7</title>
<path fill="none" stroke="midnightblue" d="M1458.79,-174.295C1454.8,-155.045 1446.37,-114.289 1441.24,-89.5091"/>
<polygon fill="midnightblue" stroke="midnightblue" points="1444.66,-88.7627 1439.21,-79.6792 1437.81,-90.181 1444.66,-88.7627"/>
</g>
<!-- Node43&#45;&gt;Node19 -->
<g id="edge142" class="edge"><title>Node43&#45;&gt;Node19</title>
<path fill="none" stroke="midnightblue" d="M1519.51,-175.779C1524.07,-175.146 1528.61,-174.545 1533,-174 1700.04,-153.282 1743.72,-164.131 1910,-138 1918.3,-136.695 1927.29,-134.853 1935.33,-133.049"/>
<polygon fill="midnightblue" stroke="midnightblue" points="1936.27,-136.426 1945.21,-130.748 1934.68,-129.608 1936.27,-136.426"/>
</g>
<!-- Node44 -->
<g id="node117" class="node"><title>Node44</title>
<a xlink:href="enumfield_8h.html" target="_top" xlink:title="base/enumfield.h">
<polygon fill="white" stroke="black" points="1464.5,-116.5 1464.5,-137.5 1555.5,-137.5 1555.5,-116.5 1464.5,-116.5"/>
<text text-anchor="middle" x="1510" y="-124.5" font-family="Helvetica,sans-Serif" font-size="10.00">base/enumfield.h</text>
</a>
</g>
<!-- Node43&#45;&gt;Node44 -->
<g id="edge146" class="edge"><title>Node43&#45;&gt;Node44</title>
<path fill="none" stroke="midnightblue" d="M1469.99,-174.362C1476.83,-166.268 1486.4,-154.932 1494.47,-145.38"/>
<polygon fill="midnightblue" stroke="midnightblue" points="1497.29,-147.468 1501.07,-137.571 1491.94,-142.951 1497.29,-147.468"/>
</g>
<!-- Node45&#45;&gt;Node5 -->
<g id="edge172" class="edge"><title>Node45&#45;&gt;Node5</title>
<path fill="none" stroke="midnightblue" d="M1385.23,-232.405C1374.77,-200.914 1349.14,-107.029 1396,-58 1432.87,-19.4211 1813.31,-12.4726 1927.67,-11.2529"/>
<polygon fill="midnightblue" stroke="midnightblue" points="1927.92,-14.7507 1937.88,-11.1518 1927.85,-7.751 1927.92,-14.7507"/>
</g>
<!-- Node45&#45;&gt;Node6 -->
<g id="edge166" class="edge"><title>Node45&#45;&gt;Node6</title>
<path fill="none" stroke="midnightblue" d="M1336.81,-233.201C1333.84,-232.763 1330.88,-232.358 1328,-232 1270.31,-224.831 853.696,-229.243 806,-196 750.838,-157.553 783.562,-112.368 744,-58 735.833,-46.7768 724.621,-36.2242 714.698,-27.9728"/>
<polygon fill="midnightblue" stroke="midnightblue" points="716.755,-25.1363 706.762,-21.6185 712.38,-30.6007 716.755,-25.1363"/>
</g>
<!-- Node45&#45;&gt;Node10 -->
<g id="edge164" class="edge"><title>Node45&#45;&gt;Node10</title>
<path fill="none" stroke="midnightblue" d="M1441.13,-240.324C1622.29,-230.998 2214.56,-200.256 2234,-196 2281.37,-185.632 2390.71,-130.428 2437,-116 2545.48,-82.1896 2574.03,-77.3301 2686,-58 2828.09,-33.4705 2999.91,-18.6448 3069.01,-13.2833"/>
<polygon fill="midnightblue" stroke="midnightblue" points="3069.5,-16.7566 3079.2,-12.5041 3068.96,-9.77701 3069.5,-16.7566"/>
</g>
<!-- Node45&#45;&gt;Node22 -->
<g id="edge168" class="edge"><title>Node45&#45;&gt;Node22</title>
<path fill="none" stroke="midnightblue" d="M1441.07,-239.989C1484.18,-237.574 1547.06,-234.229 1602,-232 1924.19,-218.926 2980.76,-190.662 3166.12,-185.739"/>
<polygon fill="midnightblue" stroke="midnightblue" points="3166.47,-189.231 3176.37,-185.467 3166.28,-182.233 3166.47,-189.231"/>
</g>
<!-- Node45&#45;&gt;Node30 -->
<g id="edge162" class="edge"><title>Node45&#45;&gt;Node30</title>
<path fill="none" stroke="midnightblue" d="M1366.83,-232.391C1336.27,-218.007 1279.25,-192.045 1229,-174 1185.85,-158.505 1134.89,-144.384 1101.81,-135.752"/>
<polygon fill="midnightblue" stroke="midnightblue" points="1102.29,-132.261 1091.73,-133.147 1100.54,-139.038 1102.29,-132.261"/>
</g>
<!-- Node46 -->
<g id="node131" class="node"><title>Node46</title>
<polygon fill="white" stroke="#bfbfbf" points="1612.5,-174.5 1612.5,-195.5 1659.5,-195.5 1659.5,-174.5 1612.5,-174.5"/>
<text text-anchor="middle" x="1636" y="-182.5" font-family="Helvetica,sans-Serif" font-size="10.00">iterator</text>
</g>
<!-- Node45&#45;&gt;Node46 -->
<g id="edge170" class="edge"><title>Node45&#45;&gt;Node46</title>
<path fill="none" stroke="midnightblue" d="M1440.59,-232.488C1483.24,-223.549 1545.31,-209.972 1599,-196 1600.07,-195.722 1601.16,-195.433 1602.25,-195.138"/>
<polygon fill="midnightblue" stroke="midnightblue" points="1603.51,-198.421 1612.18,-192.343 1601.61,-191.682 1603.51,-198.421"/>
</g>
<!-- Node47&#45;&gt;Node14 -->
<g id="edge176" class="edge"><title>Node47&#45;&gt;Node14</title>
<path fill="none" stroke="midnightblue" d="M1679.14,-233.596C1682.12,-232.979 1685.1,-232.432 1688,-232 1786.7,-217.261 2500.89,-192.088 2671.48,-186.239"/>
<polygon fill="midnightblue" stroke="midnightblue" points="2671.82,-189.73 2681.69,-185.89 2671.58,-182.734 2671.82,-189.73"/>
</g>
<!-- Node47&#45;&gt;Node19 -->
<g id="edge178" class="edge"><title>Node47&#45;&gt;Node19</title>
<path fill="none" stroke="midnightblue" d="M1679.21,-234.002C1682.18,-233.296 1685.14,-232.619 1688,-232 1777.56,-212.632 1809.74,-238.35 1891,-196 1913.94,-184.042 1934.07,-161.796 1946.57,-145.792"/>
<polygon fill="midnightblue" stroke="midnightblue" points="1949.49,-147.742 1952.7,-137.648 1943.89,-143.531 1949.49,-147.742"/>
</g>
<!-- Node47&#45;&gt;Node29 -->
<g id="edge180" class="edge"><title>Node47&#45;&gt;Node29</title>
<path fill="none" stroke="midnightblue" d="M1610.84,-240.85C1571.92,-238.453 1506.4,-234.574 1450,-232 1335.38,-226.769 520.421,-247.714 418,-196 347.365,-160.335 302.255,-70.8855 284.977,-30.8791"/>
<polygon fill="midnightblue" stroke="midnightblue" points="288.191,-29.4943 281.099,-21.6236 281.735,-32.1993 288.191,-29.4943"/>
</g>
<!-- Node49&#45;&gt;Node4 -->
<g id="edge264" class="edge"><title>Node49&#45;&gt;Node4</title>
<path fill="none" stroke="midnightblue" d="M1332.05,-355.493C1322.16,-352.675 1311.21,-349.889 1301,-348 1145.46,-319.235 597,-401.175 597,-243 597,-243 597,-243 597,-185 597,-141.546 637.395,-105.439 665.504,-85.5737"/>
<polygon fill="midnightblue" stroke="midnightblue" points="667.831,-88.224 674.131,-79.7061 663.894,-82.4357 667.831,-88.224"/>
</g>
<!-- Node49&#45;&gt;Node5 -->
<g id="edge268" class="edge"><title>Node49&#45;&gt;Node5</title>
<path fill="none" stroke="midnightblue" d="M1331.71,-355.453C1321.9,-352.668 1311.09,-349.91 1301,-348 1222.22,-333.09 995.792,-371.456 942,-312 918.28,-285.783 887.401,-318.147 973,-174 992.101,-141.834 1000.69,-133.019 1034,-116 1195.3,-33.6017 1782.77,-15.0174 1927.58,-11.6522"/>
<polygon fill="midnightblue" stroke="midnightblue" points="1927.68,-15.1507 1937.6,-11.4273 1927.53,-8.1525 1927.68,-15.1507"/>
</g>
<!-- Node49&#45;&gt;Node14 -->
<g id="edge270" class="edge"><title>Node49&#45;&gt;Node14</title>
<path fill="none" stroke="midnightblue" d="M1420.64,-361.68C1592.03,-347.971 2110.02,-303.434 2271,-254 2291.52,-247.698 2293.41,-238.079 2314,-232 2465.67,-187.214 2512.55,-225.068 2668,-196 2669.27,-195.762 2670.57,-195.503 2671.87,-195.227"/>
<polygon fill="midnightblue" stroke="midnightblue" points="2672.97,-198.562 2681.9,-192.852 2671.36,-191.751 2672.97,-198.562"/>
</g>
<!-- Node49&#45;&gt;Node22 -->
<g id="edge272" class="edge"><title>Node49&#45;&gt;Node22</title>
<path fill="none" stroke="midnightblue" d="M1420.61,-364.791C1700.75,-358.624 2947.1,-330.258 3027,-312 3089.07,-297.816 3111.56,-297.559 3158,-254 3172.25,-240.632 3181.89,-220.346 3187.58,-205.226"/>
<polygon fill="midnightblue" stroke="midnightblue" points="3190.9,-206.326 3190.9,-195.731 3184.29,-204.018 3190.9,-206.326"/>
</g>
<!-- Node49&#45;&gt;Node30 -->
<g id="edge262" class="edge"><title>Node49&#45;&gt;Node30</title>
<path fill="none" stroke="midnightblue" d="M1331.14,-355.435C1249.9,-329.937 1049.96,-266.224 1041,-254 1019.97,-225.317 1029.56,-208.291 1039,-174 1041.71,-164.153 1047.08,-154.286 1052.41,-146.153"/>
<polygon fill="midnightblue" stroke="midnightblue" points="1055.38,-148.001 1058.25,-137.801 1049.65,-143.99 1055.38,-148.001"/>
</g>
<!-- Node49&#45;&gt;Node41 -->
<g id="edge196" class="edge"><title>Node49&#45;&gt;Node41</title>
<path fill="none" stroke="midnightblue" d="M1375.57,-355.267C1385.35,-345.328 1400.09,-330.363 1411.61,-318.664"/>
<polygon fill="midnightblue" stroke="midnightblue" points="1414.11,-321.115 1418.63,-311.534 1409.12,-316.204 1414.11,-321.115"/>
</g>
<!-- Node49&#45;&gt;Node42 -->
<g id="edge198" class="edge"><title>Node49&#45;&gt;Node42</title>
<path fill="none" stroke="midnightblue" d="M1355.15,-355.085C1336.09,-333.97 1294,-287.33 1270.57,-261.362"/>
<polygon fill="midnightblue" stroke="midnightblue" points="1272.97,-258.794 1263.67,-253.715 1267.77,-263.484 1272.97,-258.794"/>
</g>
<!-- Node49&#45;&gt;Node47 -->
<g id="edge266" class="edge"><title>Node49&#45;&gt;Node47</title>
<path fill="none" stroke="midnightblue" d="M1420.59,-357.769C1479.74,-348.198 1568.63,-331.234 1597,-312 1614.83,-299.908 1628.06,-278.81 1636.07,-263.118"/>
<polygon fill="midnightblue" stroke="midnightblue" points="1639.4,-264.266 1640.57,-253.736 1633.09,-261.238 1639.4,-264.266"/>
</g>
<!-- Node50 -->
<g id="node150" class="node"><title>Node50</title>
<a xlink:href="_tagger_hit_8h.html" target="_top" xlink:title="TaggerHit.h">
<polygon fill="white" stroke="black" points="1065,-232.5 1065,-253.5 1133,-253.5 1133,-232.5 1065,-232.5"/>
<text text-anchor="middle" x="1099" y="-240.5" font-family="Helvetica,sans-Serif" font-size="10.00">TaggerHit.h</text>
</a>
</g>
<!-- Node49&#45;&gt;Node50 -->
<g id="edge200" class="edge"><title>Node49&#45;&gt;Node50</title>
<path fill="none" stroke="midnightblue" d="M1341.86,-355.3C1294.28,-333.3 1185.4,-282.954 1131.07,-257.829"/>
<polygon fill="midnightblue" stroke="midnightblue" points="1132.44,-254.608 1121.9,-253.588 1129.51,-260.962 1132.44,-254.608"/>
</g>
<!-- Node51 -->
<g id="node157" class="node"><title>Node51</title>
<a xlink:href="_trigger_info_8h.html" target="_top" xlink:title="TriggerInfo.h">
<polygon fill="white" stroke="black" points="950.5,-290.5 950.5,-311.5 1021.5,-311.5 1021.5,-290.5 950.5,-290.5"/>
<text text-anchor="middle" x="986" y="-298.5" font-family="Helvetica,sans-Serif" font-size="10.00">TriggerInfo.h</text>
</a>
</g>
<!-- Node49&#45;&gt;Node51 -->
<g id="edge212" class="edge"><title>Node49&#45;&gt;Node51</title>
<path fill="none" stroke="midnightblue" d="M1331.01,-355.488C1321.37,-352.769 1310.83,-350.038 1301,-348 1184.18,-323.791 1152.42,-333.085 1035,-312 1033.91,-311.804 1032.8,-311.599 1031.68,-311.389"/>
<polygon fill="midnightblue" stroke="midnightblue" points="1032.01,-307.885 1021.52,-309.352 1030.64,-314.749 1032.01,-307.885"/>
</g>
<!-- Node50&#45;&gt;Node4 -->
<g id="edge208" class="edge"><title>Node50&#45;&gt;Node4</title>
<path fill="none" stroke="midnightblue" d="M1064.74,-240.634C979.013,-234.428 760.292,-216.72 735,-196 702.889,-169.693 694.649,-118.411 692.605,-89.7136"/>
<polygon fill="midnightblue" stroke="midnightblue" points="696.093,-89.395 692.077,-79.5908 689.103,-89.7595 696.093,-89.395"/>
</g>
<!-- Node50&#45;&gt;Node14 -->
<g id="edge204" class="edge"><title>Node50&#45;&gt;Node14</title>
<path fill="none" stroke="midnightblue" d="M1133.2,-237.551C1147.61,-235.465 1164.58,-233.28 1180,-232 1332.81,-219.309 2454.93,-191.23 2671.78,-185.887"/>
<polygon fill="midnightblue" stroke="midnightblue" points="2672.07,-189.381 2681.98,-185.636 2671.89,-182.384 2672.07,-189.381"/>
</g>
<!-- Node50&#45;&gt;Node19 -->
<g id="edge202" class="edge"><title>Node50&#45;&gt;Node19</title>
<path fill="none" stroke="midnightblue" d="M1133.26,-238.101C1147.68,-236.104 1164.64,-233.837 1180,-232 1334.39,-213.536 1375.38,-225.737 1528,-196 1562.52,-189.275 1569.53,-180.967 1604,-174 1738.22,-146.87 1774.96,-160.739 1910,-138 1918.29,-136.604 1927.28,-134.739 1935.31,-132.941"/>
<polygon fill="midnightblue" stroke="midnightblue" points="1936.24,-136.32 1945.2,-130.662 1934.67,-129.499 1936.24,-136.32"/>
</g>
<!-- Node50&#45;&gt;Node30 -->
<g id="edge206" class="edge"><title>Node50&#45;&gt;Node30</title>
<path fill="none" stroke="midnightblue" d="M1096.05,-232.295C1090.74,-213.045 1079.49,-172.289 1072.66,-147.509"/>
<polygon fill="midnightblue" stroke="midnightblue" points="1075.98,-146.388 1069.95,-137.679 1069.23,-148.25 1075.98,-146.388"/>
</g>
<!-- Node50&#45;&gt;Node48 -->
<g id="edge210" class="edge"><title>Node50&#45;&gt;Node48</title>
<path fill="none" stroke="midnightblue" d="M1108.17,-232.362C1115.15,-224.268 1124.92,-212.932 1133.16,-203.38"/>
<polygon fill="midnightblue" stroke="midnightblue" points="1136.01,-205.43 1139.89,-195.571 1130.71,-200.859 1136.01,-205.43"/>
</g>
<!-- Node51&#45;&gt;Node4 -->
<g id="edge216" class="edge"><title>Node51&#45;&gt;Node4</title>
<path fill="none" stroke="midnightblue" d="M950.372,-298.772C882.624,-293.966 738.298,-280.822 697,-254 643.649,-219.35 639.831,-176.659 659,-116 662.3,-105.557 668.844,-95.4231 675.24,-87.2551"/>
<polygon fill="midnightblue" stroke="midnightblue" points="677.976,-89.4395 681.71,-79.5245 672.608,-84.9468 677.976,-89.4395"/>
</g>
<!-- Node51&#45;&gt;Node14 -->
<g id="edge260" class="edge"><title>Node51&#45;&gt;Node14</title>
<path fill="none" stroke="midnightblue" d="M1021.73,-299.883C1219.41,-293.671 2171.23,-263.321 2200,-254 2216.77,-248.566 2216.35,-237.8 2233,-232 2416.19,-168.168 2476.98,-229.865 2668,-196 2669.28,-195.774 2670.57,-195.525 2671.88,-195.258"/>
<polygon fill="midnightblue" stroke="midnightblue" points="2672.96,-198.598 2681.91,-192.923 2671.38,-191.78 2672.96,-198.598"/>
</g>
<!-- Node51&#45;&gt;Node19 -->
<g id="edge258" class="edge"><title>Node51&#45;&gt;Node19</title>
<path fill="none" stroke="midnightblue" d="M1021.58,-299.813C1099.8,-296.679 1292.31,-286.083 1450,-254 1482.37,-247.414 1489.16,-240.822 1521,-232 1585.82,-214.038 1603.18,-213.962 1668,-196 1699.84,-187.178 1707.02,-182.301 1739,-174 1814.17,-154.485 1834.07,-154.344 1910,-138 1918.22,-136.231 1927.19,-134.268 1935.23,-132.496"/>
<polygon fill="midnightblue" stroke="midnightblue" points="1936.12,-135.883 1945.13,-130.308 1934.61,-129.048 1936.12,-135.883"/>
</g>
<!-- Node51&#45;&gt;Node30 -->
<g id="edge214" class="edge"><title>Node51&#45;&gt;Node30</title>
<path fill="none" stroke="midnightblue" d="M982.499,-290.214C975.68,-267.089 963.112,-211.774 985,-174 995.342,-156.151 1015.3,-144.498 1032.94,-137.26"/>
<polygon fill="midnightblue" stroke="midnightblue" points="1034.3,-140.487 1042.42,-133.682 1031.83,-133.937 1034.3,-140.487"/>
</g>
<!-- Node52 -->
<g id="node161" class="node"><title>Node52</title>
<a xlink:href="_t_data_record_8h.html" target="_top" xlink:title="tree/TDataRecord.h">
<polygon fill="white" stroke="black" points="395.5,-232.5 395.5,-253.5 498.5,-253.5 498.5,-232.5 395.5,-232.5"/>
<text text-anchor="middle" x="447" y="-240.5" font-family="Helvetica,sans-Serif" font-size="10.00">tree/TDataRecord.h</text>
</a>
</g>
<!-- Node51&#45;&gt;Node52 -->
<g id="edge218" class="edge"><title>Node51&#45;&gt;Node52</title>
<path fill="none" stroke="midnightblue" d="M950.217,-297.15C860.041,-287.446 622.6,-261.896 509.118,-249.684"/>
<polygon fill="midnightblue" stroke="midnightblue" points="509.178,-246.171 498.861,-248.581 508.429,-253.13 509.178,-246.171"/>
</g>
<!-- Node52&#45;&gt;Node35 -->
<g id="edge252" class="edge"><title>Node52&#45;&gt;Node35</title>
<path fill="none" stroke="midnightblue" d="M455.675,-232.295C471.694,-212.527 506.09,-170.08 525.973,-145.544"/>
<polygon fill="midnightblue" stroke="midnightblue" points="528.77,-147.652 532.346,-137.679 523.331,-143.245 528.77,-147.652"/>
</g>
<!-- Node53 -->
<g id="node163" class="node"><title>Node53</title>
<a xlink:href="_t_i_d_8h.html" target="_top" xlink:title="TID.h">
<polygon fill="white" stroke="black" points="426.5,-174.5 426.5,-195.5 467.5,-195.5 467.5,-174.5 426.5,-174.5"/>
<text text-anchor="middle" x="447" y="-182.5" font-family="Helvetica,sans-Serif" font-size="10.00">TID.h</text>
</a>
</g>
<!-- Node52&#45;&gt;Node53 -->
<g id="edge220" class="edge"><title>Node52&#45;&gt;Node53</title>
<path fill="none" stroke="midnightblue" d="M447,-232.362C447,-224.922 447,-214.743 447,-205.728"/>
<polygon fill="midnightblue" stroke="midnightblue" points="450.5,-205.571 447,-195.571 443.5,-205.571 450.5,-205.571"/>
</g>
<!-- Node58 -->
<g id="node177" class="node"><title>Node58</title>
<polygon fill="white" stroke="#bfbfbf" points="189.5,-58.5 189.5,-79.5 230.5,-79.5 230.5,-58.5 189.5,-58.5"/>
<text text-anchor="middle" x="210" y="-66.5" font-family="Helvetica,sans-Serif" font-size="10.00">ctime</text>
</g>
<!-- Node52&#45;&gt;Node58 -->
<g id="edge256" class="edge"><title>Node52&#45;&gt;Node58</title>
<path fill="none" stroke="midnightblue" d="M405.275,-232.452C338.546,-214.593 212.963,-176.566 190,-138 180.893,-122.704 188.158,-103.015 196.371,-88.5863"/>
<polygon fill="midnightblue" stroke="midnightblue" points="199.425,-90.3021 201.741,-79.9635 193.483,-86.6013 199.425,-90.3021"/>
</g>
<!-- Node60 -->
<g id="node184" class="node"><title>Node60</title>
<polygon fill="white" stroke="#bfbfbf" points="199,-116.5 199,-137.5 249,-137.5 249,-116.5 199,-116.5"/>
<text text-anchor="middle" x="224" y="-124.5" font-family="Helvetica,sans-Serif" font-size="10.00">iomanip</text>
</g>
<!-- Node52&#45;&gt;Node60 -->
<g id="edge254" class="edge"><title>Node52&#45;&gt;Node60</title>
<path fill="none" stroke="midnightblue" d="M419.92,-232.359C397.8,-223.397 365.907,-209.853 339,-196 306.836,-179.441 271.352,-157.565 248.427,-142.926"/>
<polygon fill="midnightblue" stroke="midnightblue" points="250.303,-139.971 239.998,-137.508 246.518,-145.86 250.303,-139.971"/>
</g>
<!-- Node53&#45;&gt;Node4 -->
<g id="edge224" class="edge"><title>Node53&#45;&gt;Node4</title>
<path fill="none" stroke="midnightblue" d="M447.563,-174.36C448.969,-159.079 453.879,-131.102 471,-116 495.491,-94.3982 581.612,-81.014 638.834,-74.296"/>
<polygon fill="midnightblue" stroke="midnightblue" points="639.271,-77.769 648.809,-73.1577 638.477,-70.8142 639.271,-77.769"/>
</g>
<!-- Node53&#45;&gt;Node8 -->
<g id="edge244" class="edge"><title>Node53&#45;&gt;Node8</title>
<path fill="none" stroke="midnightblue" d="M467.647,-183.557C533.359,-178.83 743.456,-162.685 916,-138 968.81,-130.445 980.985,-121.949 1034,-116 1440.21,-70.4209 1544.69,-99.059 1953,-80 2012.87,-77.2052 2082.64,-73.2777 2122.83,-70.9502"/>
<polygon fill="midnightblue" stroke="midnightblue" points="2123.09,-74.4412 2132.87,-70.3665 2122.68,-67.453 2123.09,-74.4412"/>
</g>
<!-- Node53&#45;&gt;Node9 -->
<g id="edge246" class="edge"><title>Node53&#45;&gt;Node9</title>
<path fill="none" stroke="midnightblue" d="M452.302,-174.413C460.815,-158.662 479.134,-129.469 504,-116 536.681,-98.2978 782.719,-78.8784 880.301,-71.7874"/>
<polygon fill="midnightblue" stroke="midnightblue" points="880.637,-75.2724 890.359,-71.062 880.133,-68.2905 880.637,-75.2724"/>
</g>
<!-- Node53&#45;&gt;Node11 -->
<g id="edge240" class="edge"><title>Node53&#45;&gt;Node11</title>
<path fill="none" stroke="midnightblue" d="M467.568,-181.891C540.265,-171.022 791.967,-134.379 1001,-116 1336.27,-86.5215 1742.62,-73.6137 1871.63,-70.0648"/>
<polygon fill="midnightblue" stroke="midnightblue" points="1871.94,-73.5577 1881.84,-69.7875 1871.75,-66.5603 1871.94,-73.5577"/>
</g>
<!-- Node53&#45;&gt;Node35 -->
<g id="edge222" class="edge"><title>Node53&#45;&gt;Node35</title>
<path fill="none" stroke="midnightblue" d="M464.241,-174.362C478.552,-165.532 499.115,-152.844 515.357,-142.822"/>
<polygon fill="midnightblue" stroke="midnightblue" points="517.196,-145.8 523.868,-137.571 513.52,-139.843 517.196,-145.8"/>
</g>
<!-- Node54 -->
<g id="node167" class="node"><title>Node54</title>
<a xlink:href="time_8h.html" target="_top" xlink:title="base/std_ext/time.h">
<polygon fill="white" stroke="black" points="2.5,-116.5 2.5,-137.5 105.5,-137.5 105.5,-116.5 2.5,-116.5"/>
<text text-anchor="middle" x="54" y="-124.5" font-family="Helvetica,sans-Serif" font-size="10.00">base/std_ext/time.h</text>
</a>
</g>
<!-- Node53&#45;&gt;Node54 -->
<g id="edge226" class="edge"><title>Node53&#45;&gt;Node54</title>
<path fill="none" stroke="midnightblue" d="M426.424,-181.963C369.092,-173.502 205.845,-149.41 115.691,-136.105"/>
<polygon fill="midnightblue" stroke="midnightblue" points="116.007,-132.613 105.603,-134.616 114.985,-139.538 116.007,-132.613"/>
</g>
<!-- Node53&#45;&gt;Node58 -->
<g id="edge250" class="edge"><title>Node53&#45;&gt;Node58</title>
<path fill="none" stroke="midnightblue" d="M426.382,-174.909C384.362,-154.342 288.668,-107.504 239.848,-83.6091"/>
<polygon fill="midnightblue" stroke="midnightblue" points="241.259,-80.4032 230.739,-79.1506 238.182,-86.6905 241.259,-80.4032"/>
</g>
<!-- Node59 -->
<g id="node180" class="node"><title>Node59</title>
<polygon fill="white" stroke="#bfbfbf" points="381,-116.5 381,-137.5 419,-137.5 419,-116.5 381,-116.5"/>
<text text-anchor="middle" x="400" y="-124.5" font-family="Helvetica,sans-Serif" font-size="10.00">tuple</text>
</g>
<!-- Node53&#45;&gt;Node59 -->
<g id="edge242" class="edge"><title>Node53&#45;&gt;Node59</title>
<path fill="none" stroke="midnightblue" d="M438.379,-174.362C431.82,-166.268 422.634,-154.932 414.894,-145.38"/>
<polygon fill="midnightblue" stroke="midnightblue" points="417.581,-143.136 408.566,-137.571 412.142,-147.544 417.581,-143.136"/>
</g>
<!-- Node53&#45;&gt;Node60 -->
<g id="edge248" class="edge"><title>Node53&#45;&gt;Node60</title>
<path fill="none" stroke="midnightblue" d="M426.42,-179.647C388.248,-169.719 306.086,-148.35 259.018,-136.108"/>
<polygon fill="midnightblue" stroke="midnightblue" points="259.815,-132.699 249.256,-133.569 258.053,-139.473 259.815,-132.699"/>
</g>
<!-- Node55 -->
<g id="node169" class="node"><title>Node55</title>
<a xlink:href="string_8h.html" target="_top" xlink:title="base/std_ext/string.h">
<polygon fill="white" stroke="black" points="0,-58.5 0,-79.5 108,-79.5 108,-58.5 0,-58.5"/>
<text text-anchor="middle" x="54" y="-66.5" font-family="Helvetica,sans-Serif" font-size="10.00">base/std_ext/string.h</text>
</a>
</g>
<!-- Node54&#45;&gt;Node55 -->
<g id="edge228" class="edge"><title>Node54&#45;&gt;Node55</title>
<path fill="none" stroke="midnightblue" d="M54,-116.362C54,-108.922 54,-98.7427 54,-89.7276"/>
<polygon fill="midnightblue" stroke="midnightblue" points="57.5001,-89.5706 54,-79.5707 50.5001,-89.5707 57.5001,-89.5706"/>
</g>
<!-- Node57 -->
<g id="node175" class="node"><title>Node57</title>
<polygon fill="white" stroke="#bfbfbf" points="126,-58.5 126,-79.5 172,-79.5 172,-58.5 126,-58.5"/>
<text text-anchor="middle" x="149" y="-66.5" font-family="Helvetica,sans-Serif" font-size="10.00">cstring</text>
</g>
<!-- Node54&#45;&gt;Node57 -->
<g id="edge236" class="edge"><title>Node54&#45;&gt;Node57</title>
<path fill="none" stroke="midnightblue" d="M71.4245,-116.362C85.8872,-107.532 106.669,-94.844 123.084,-84.8224"/>
<polygon fill="midnightblue" stroke="midnightblue" points="124.975,-87.7688 131.686,-79.5707 121.327,-81.7943 124.975,-87.7688"/>
</g>
<!-- Node54&#45;&gt;Node58 -->
<g id="edge238" class="edge"><title>Node54&#45;&gt;Node58</title>
<path fill="none" stroke="midnightblue" d="M82.7749,-116.426C106.519,-107.685 141.336,-94.8292 179.612,-80.5044"/>
<polygon fill="midnightblue" stroke="midnightblue" points="181.276,-83.6184 189.413,-76.8325 178.82,-77.0634 181.276,-83.6184"/>
</g>
<!-- Node55&#45;&gt;Node10 -->
<g id="edge230" class="edge"><title>Node55&#45;&gt;Node10</title>
<path fill="none" stroke="midnightblue" d="M108.223,-58.9756C111.186,-58.6019 114.126,-58.2718 117,-58 271.795,-43.3582 2761.37,-14.825 3068.92,-11.3495"/>
<polygon fill="midnightblue" stroke="midnightblue" points="3069.35,-14.8449 3079.31,-11.2322 3069.27,-7.84537 3069.35,-14.8449"/>
</g>
<!-- Node55&#45;&gt;Node29 -->
<g id="edge234" class="edge"><title>Node55&#45;&gt;Node29</title>
<path fill="none" stroke="midnightblue" d="M94.3836,-58.4966C135.575,-47.7831 198.992,-31.2892 239.216,-20.8271"/>
<polygon fill="midnightblue" stroke="midnightblue" points="240.119,-24.209 248.916,-18.3044 238.357,-17.4343 240.119,-24.209"/>
</g>
<!-- Node56 -->
<g id="node172" class="node"><title>Node56</title>
<polygon fill="white" stroke="#bfbfbf" points="28,-0.5 28,-21.5 80,-21.5 80,-0.5 28,-0.5"/>
<text text-anchor="middle" x="54" y="-8.5" font-family="Helvetica,sans-Serif" font-size="10.00">sstream</text>
</g>
<!-- Node55&#45;&gt;Node56 -->
<g id="edge232" class="edge"><title>Node55&#45;&gt;Node56</title>
<path fill="none" stroke="midnightblue" d="M54,-58.3619C54,-50.9219 54,-40.7427 54,-31.7276"/>
<polygon fill="midnightblue" stroke="midnightblue" points="57.5001,-31.5706 54,-21.5707 50.5001,-31.5707 57.5001,-31.5706"/>
</g>
<!-- Node61&#45;&gt;Node5 -->
<g id="edge276" class="edge"><title>Node61&#45;&gt;Node5</title>
<path fill="none" stroke="midnightblue" d="M2293.86,-116.388C2279.85,-100.877 2251.49,-72.3087 2221,-58 2180.8,-39.1302 2052.97,-22.0097 1992.41,-14.7178"/>
<polygon fill="midnightblue" stroke="midnightblue" points="1992.61,-11.2166 1982.26,-13.5125 1991.78,-18.1678 1992.61,-11.2166"/>
</g>
<!-- Node61&#45;&gt;Node8 -->
<g id="edge278" class="edge"><title>Node61&#45;&gt;Node8</title>
<path fill="none" stroke="midnightblue" d="M2276.38,-116.497C2251.73,-106.771 2215,-92.2807 2188.61,-81.8646"/>
<polygon fill="midnightblue" stroke="midnightblue" points="2189.63,-78.5049 2179.04,-78.0904 2187.06,-85.0164 2189.63,-78.5049"/>
</g>
<!-- Node62&#45;&gt;Node10 -->
<g id="edge282" class="edge"><title>Node62&#45;&gt;Node10</title>
<path fill="none" stroke="midnightblue" d="M3100,-232.429C3100,-196.648 3100,-79.6628 3100,-31.7481"/>
<polygon fill="midnightblue" stroke="midnightblue" points="3103.5,-31.6335 3100,-21.6335 3096.5,-31.6335 3103.5,-31.6335"/>
</g>
<!-- Node62&#45;&gt;Node14 -->
<g id="edge284" class="edge"><title>Node62&#45;&gt;Node14</title>
<path fill="none" stroke="midnightblue" d="M3050.98,-233.533C3047.94,-233 3044.93,-232.484 3042,-232 2933.86,-214.147 2805.31,-197.276 2744,-189.494"/>
<polygon fill="midnightblue" stroke="midnightblue" points="2744.41,-186.018 2734.05,-188.236 2743.53,-192.963 2744.41,-186.018"/>
</g>
<!-- Node62&#45;&gt;Node22 -->
<g id="edge286" class="edge"><title>Node62&#45;&gt;Node22</title>
<path fill="none" stroke="midnightblue" d="M3117.24,-232.362C3131.55,-223.532 3152.11,-210.844 3168.36,-200.822"/>
<polygon fill="midnightblue" stroke="midnightblue" points="3170.2,-203.8 3176.87,-195.571 3166.52,-197.843 3170.2,-203.8"/>
</g>
<!-- Node63&#45;&gt;Node10 -->
<g id="edge310" class="edge"><title>Node63&#45;&gt;Node10</title>
<path fill="none" stroke="midnightblue" d="M1292.66,-349.382C1295.47,-348.857 1298.26,-348.391 1301,-348 1680.8,-293.836 2644.17,-336.93 3027,-312 3056.5,-310.079 3528.27,-264.256 3556,-254 3606.99,-235.141 3657,-239.364 3657,-185 3657,-185 3657,-185 3657,-127 3657,-64.3192 3593.7,-77.0946 3534,-58 3458.54,-33.8669 3216.9,-17.8057 3130.81,-12.727"/>
<polygon fill="midnightblue" stroke="midnightblue" points="3130.83,-9.22235 3120.65,-12.1359 3130.43,-16.2105 3130.83,-9.22235"/>
</g>
<!-- Node63&#45;&gt;Node19 -->
<g id="edge312" class="edge"><title>Node63&#45;&gt;Node19</title>
<path fill="none" stroke="midnightblue" d="M1292.76,-349.926C1295.54,-349.256 1298.3,-348.61 1301,-348 1387.39,-328.494 1416,-347.82 1497,-312 1550.66,-288.272 1548.43,-255.93 1602,-232 1679.68,-197.3 1708.42,-220.114 1790,-196 1843.7,-180.127 1903.82,-153.512 1936.22,-138.397"/>
<polygon fill="midnightblue" stroke="midnightblue" points="1937.79,-141.526 1945.34,-134.099 1934.81,-135.193 1937.79,-141.526"/>
</g>
<!-- Node63&#45;&gt;Node28 -->
<g id="edge302" class="edge"><title>Node63&#45;&gt;Node28</title>
<path fill="none" stroke="midnightblue" d="M1175.43,-362.943C1093.29,-357.56 949.398,-343.789 909,-312 875.424,-285.579 862.422,-234.341 857.624,-205.682"/>
<polygon fill="midnightblue" stroke="midnightblue" points="861.053,-204.948 856.118,-195.574 854.13,-205.98 861.053,-204.948"/>
</g>
<!-- Node64 -->
<g id="node216" class="node"><title>Node64</title>
<a xlink:href="_t_header_info_8h.html" target="_top" xlink:title="tree/THeaderInfo.h">
<polygon fill="white" stroke="black" points="398,-290.5 398,-311.5 496,-311.5 496,-290.5 398,-290.5"/>
<text text-anchor="middle" x="447" y="-298.5" font-family="Helvetica,sans-Serif" font-size="10.00">tree/THeaderInfo.h</text>
</a>
</g>
<!-- Node63&#45;&gt;Node64 -->
<g id="edge304" class="edge"><title>Node63&#45;&gt;Node64</title>
<path fill="none" stroke="midnightblue" d="M1175.49,-361.168C1029.9,-349.143 652.571,-317.979 506.226,-305.892"/>
<polygon fill="midnightblue" stroke="midnightblue" points="506.349,-302.39 496.095,-305.055 505.773,-309.366 506.349,-302.39"/>
</g>
<!-- Node64&#45;&gt;Node52 -->
<g id="edge306" class="edge"><title>Node64&#45;&gt;Node52</title>
<path fill="none" stroke="midnightblue" d="M447,-290.362C447,-282.922 447,-272.743 447,-263.728"/>
<polygon fill="midnightblue" stroke="midnightblue" points="450.5,-263.571 447,-253.571 443.5,-263.571 450.5,-263.571"/>
</g>
<!-- Node64&#45;&gt;Node54 -->
<g id="edge308" class="edge"><title>Node64&#45;&gt;Node54</title>
<path fill="none" stroke="midnightblue" d="M423.008,-290.377C355.725,-260.588 165.105,-176.192 87.4969,-141.831"/>
<polygon fill="midnightblue" stroke="midnightblue" points="88.7385,-138.553 78.1777,-137.705 85.9046,-144.953 88.7385,-138.553"/>
</g>
</g>
</svg>
