<?xml version="1.0" encoding="UTF-8" standalone="no"?>
<!DOCTYPE svg PUBLIC "-//W3C//DTD SVG 1.1//EN"
 "http://www.w3.org/Graphics/SVG/1.1/DTD/svg11.dtd">
<!-- Generated by graphviz version 2.26.3 (20100126.1600)
 -->
<!-- Title: src/calibration/Editor.h Pages: 1 -->
<svg width="1374pt" height="392pt"
 viewBox="0.00 0.00 1374.23 392.00" xmlns="http://www.w3.org/2000/svg" xmlns:xlink="http://www.w3.org/1999/xlink">
<g id="graph1" class="graph" transform="scale(1 1) rotate(0) translate(4 388)">
<title>src/calibration/Editor.h</title>
<polygon fill="white" stroke="white" points="-4,5 -4,-388 1371.23,-388 1371.23,5 -4,5"/>
<!-- Node1 -->
<g id="node1" class="node"><title>Node1</title>
<polygon fill="#bfbfbf" stroke="black" points="197,-362.5 197,-383.5 311,-383.5 311,-362.5 197,-362.5"/>
<text text-anchor="middle" x="254" y="-370.5" font-family="Helvetica,sans-Serif" font-size="10.00">src/calibration/Editor.h</text>
</g>
<!-- Node2 -->
<g id="node3" class="node"><title>Node2</title>
<a xlink:href="root__draw_8h.html" target="_top" xlink:title="analysis/plot/root\l_draw.h">
<polygon fill="white" stroke="black" points="208.5,-291 208.5,-325 299.5,-325 299.5,-291 208.5,-291"/>
<text text-anchor="start" x="216.5" y="-312" font-family="Helvetica,sans-Serif" font-size="10.00">analysis/plot/root</text>
<text text-anchor="middle" x="254" y="-299" font-family="Helvetica,sans-Serif" font-size="10.00">_draw.h</text>
</a>
</g>
<!-- Node1&#45;&gt;Node2 -->
<g id="edge2" class="edge"><title>Node1&#45;&gt;Node2</title>
<path fill="none" stroke="midnightblue" d="M254,-362.267C254,-354.931 254,-344.857 254,-335.38"/>
<polygon fill="midnightblue" stroke="midnightblue" points="257.5,-335.11 254,-325.11 250.5,-335.11 257.5,-335.11"/>
</g>
<!-- Node3 -->
<g id="node5" class="node"><title>Node3</title>
<polygon fill="white" stroke="#bfbfbf" points="299.5,-0.5 299.5,-21.5 340.5,-21.5 340.5,-0.5 299.5,-0.5"/>
<text text-anchor="middle" x="320" y="-8.5" font-family="Helvetica,sans-Serif" font-size="10.00">string</text>
</g>
<!-- Node1&#45;&gt;Node3 -->
<g id="edge104" class="edge"><title>Node1&#45;&gt;Node3</title>
<path fill="none" stroke="midnightblue" d="M196.997,-368.629C122.11,-359.422 0,-330.929 0,-243 0,-243 0,-243 0,-127 0,-79.7089 38.4143,-78.5645 81,-58 117.49,-40.379 233.291,-22.8004 289.204,-15.0762"/>
<polygon fill="midnightblue" stroke="midnightblue" points="289.796,-18.5279 299.231,-13.7081 288.849,-11.5922 289.796,-18.5279"/>
</g>
<!-- Node5 -->
<g id="node9" class="node"><title>Node5</title>
<polygon fill="white" stroke="#bfbfbf" points="363,-58.5 363,-79.5 407,-79.5 407,-58.5 363,-58.5"/>
<text text-anchor="middle" x="385" y="-66.5" font-family="Helvetica,sans-Serif" font-size="10.00">vector</text>
</g>
<!-- Node1&#45;&gt;Node5 -->
<g id="edge106" class="edge"><title>Node1&#45;&gt;Node5</title>
<path fill="none" stroke="midnightblue" d="M272.153,-362.282C300.789,-344.185 355.409,-304.55 377,-254 400.701,-198.512 393.949,-124.946 388.658,-89.6358"/>
<polygon fill="midnightblue" stroke="midnightblue" points="392.084,-88.8996 387.032,-79.5871 385.174,-90.0178 392.084,-88.8996"/>
</g>
<!-- Node7 -->
<g id="node13" class="node"><title>Node7</title>
<polygon fill="white" stroke="#bfbfbf" points="66,-232.5 66,-253.5 118,-253.5 118,-232.5 66,-232.5"/>
<text text-anchor="middle" x="92" y="-240.5" font-family="Helvetica,sans-Serif" font-size="10.00">memory</text>
</g>
<!-- Node1&#45;&gt;Node7 -->
<g id="edge102" class="edge"><title>Node1&#45;&gt;Node7</title>
<path fill="none" stroke="midnightblue" d="M197.056,-362.481C158.57,-354.146 112.562,-341.366 100,-326 85.8201,-308.655 85.8608,-281.949 88.1107,-263.538"/>
<polygon fill="midnightblue" stroke="midnightblue" points="91.5864,-263.963 89.6446,-253.548 84.6675,-262.901 91.5864,-263.963"/>
</g>
<!-- Node10 -->
<g id="node19" class="node"><title>Node10</title>
<a xlink:href="interval_8h.html" target="_top" xlink:title="base/interval.h">
<polygon fill="white" stroke="black" points="1193,-174.5 1193,-195.5 1273,-195.5 1273,-174.5 1193,-174.5"/>
<text text-anchor="middle" x="1233" y="-182.5" font-family="Helvetica,sans-Serif" font-size="10.00">base/interval.h</text>
</a>
</g>
<!-- Node1&#45;&gt;Node10 -->
<g id="edge18" class="edge"><title>Node1&#45;&gt;Node10</title>
<path fill="none" stroke="midnightblue" d="M311.073,-363.563C426.265,-344.346 694.703,-298.695 919,-254 1012.59,-235.35 1121.24,-210.833 1183.07,-196.605"/>
<polygon fill="midnightblue" stroke="midnightblue" points="1184,-199.984 1192.96,-194.327 1182.43,-193.163 1184,-199.984"/>
</g>
<!-- Node17 -->
<g id="node34" class="node"><title>Node17</title>
<a xlink:href="_data_manager_8h.html" target="_top" xlink:title="DataManager.h">
<polygon fill="white" stroke="black" points="108.5,-297.5 108.5,-318.5 191.5,-318.5 191.5,-297.5 108.5,-297.5"/>
<text text-anchor="middle" x="150" y="-305.5" font-family="Helvetica,sans-Serif" font-size="10.00">DataManager.h</text>
</a>
</g>
<!-- Node1&#45;&gt;Node17 -->
<g id="edge34" class="edge"><title>Node1&#45;&gt;Node17</title>
<path fill="none" stroke="midnightblue" d="M236.827,-362.267C220.092,-351.807 194.451,-335.782 175.367,-323.854"/>
<polygon fill="midnightblue" stroke="midnightblue" points="177.189,-320.866 166.854,-318.534 173.479,-326.802 177.189,-320.866"/>
</g>
<!-- Node18 -->
<g id="node39" class="node"><title>Node18</title>
<a xlink:href="_data_base_8h.html" target="_top" xlink:title="DataBase.h">
<polygon fill="white" stroke="black" points="424,-297.5 424,-318.5 492,-318.5 492,-297.5 424,-297.5"/>
<text text-anchor="middle" x="458" y="-305.5" font-family="Helvetica,sans-Serif" font-size="10.00">DataBase.h</text>
</a>
</g>
<!-- Node1&#45;&gt;Node18 -->
<g id="edge42" class="edge"><title>Node1&#45;&gt;Node18</title>
<path fill="none" stroke="midnightblue" d="M291.413,-362.482C323.153,-353.379 369.802,-339.576 410,-326 413.735,-324.739 417.615,-323.375 421.477,-321.982"/>
<polygon fill="midnightblue" stroke="midnightblue" points="422.771,-325.235 430.95,-318.5 420.357,-318.665 422.771,-325.235"/>
</g>
<!-- Node2&#45;&gt;Node3 -->
<g id="edge4" class="edge"><title>Node2&#45;&gt;Node3</title>
<path fill="none" stroke="midnightblue" d="M237.293,-290.779C228.37,-280.75 217.847,-267.459 211,-254 196.578,-225.649 192,-216.808 192,-185 192,-185 192,-185 192,-127 192,-74.4179 252.042,-39.449 289.881,-22.6321"/>
<polygon fill="midnightblue" stroke="midnightblue" points="291.608,-25.7005 299.435,-18.559 288.863,-19.2613 291.608,-25.7005"/>
</g>
<!-- Node4 -->
<g id="node7" class="node"><title>Node4</title>
<polygon fill="white" stroke="#bfbfbf" points="135.5,-232.5 135.5,-253.5 164.5,-253.5 164.5,-232.5 135.5,-232.5"/>
<text text-anchor="middle" x="150" y="-240.5" font-family="Helvetica,sans-Serif" font-size="10.00">list</text>
</g>
<!-- Node2&#45;&gt;Node4 -->
<g id="edge6" class="edge"><title>Node2&#45;&gt;Node4</title>
<path fill="none" stroke="midnightblue" d="M226.675,-290.922C210.073,-280.546 189.103,-267.439 173.291,-257.557"/>
<polygon fill="midnightblue" stroke="midnightblue" points="174.984,-254.488 164.649,-252.156 171.274,-260.424 174.984,-254.488"/>
</g>
<!-- Node2&#45;&gt;Node5 -->
<g id="edge8" class="edge"><title>Node2&#45;&gt;Node5</title>
<path fill="none" stroke="midnightblue" d="M265.029,-290.683C271.604,-280.183 280.004,-266.452 287,-254 320.784,-193.865 325.034,-176.587 358,-116 362.967,-106.871 368.673,-96.8719 373.557,-88.452"/>
<polygon fill="midnightblue" stroke="midnightblue" points="376.619,-90.1482 378.637,-79.7473 370.573,-86.6196 376.619,-90.1482"/>
</g>
<!-- Node6 -->
<g id="node11" class="node"><title>Node6</title>
<polygon fill="white" stroke="#bfbfbf" points="333.5,-232.5 333.5,-253.5 368.5,-253.5 368.5,-232.5 333.5,-232.5"/>
<text text-anchor="middle" x="351" y="-240.5" font-family="Helvetica,sans-Serif" font-size="10.00">map</text>
</g>
<!-- Node2&#45;&gt;Node6 -->
<g id="edge10" class="edge"><title>Node2&#45;&gt;Node6</title>
<path fill="none" stroke="midnightblue" d="M279.486,-290.922C294.082,-281.141 312.298,-268.934 326.692,-259.289"/>
<polygon fill="midnightblue" stroke="midnightblue" points="328.735,-262.133 335.094,-253.658 324.839,-256.318 328.735,-262.133"/>
</g>
<!-- Node2&#45;&gt;Node7 -->
<g id="edge12" class="edge"><title>Node2&#45;&gt;Node7</title>
<path fill="none" stroke="midnightblue" d="M211.436,-290.922C185.284,-280.429 152.173,-267.144 127.45,-257.224"/>
<polygon fill="midnightblue" stroke="midnightblue" points="128.668,-253.941 118.084,-253.466 126.062,-260.438 128.668,-253.941"/>
</g>
<!-- Node8 -->
<g id="node15" class="node"><title>Node8</title>
<polygon fill="white" stroke="#bfbfbf" points="219.5,-232.5 219.5,-253.5 278.5,-253.5 278.5,-232.5 219.5,-232.5"/>
<text text-anchor="middle" x="249" y="-240.5" font-family="Helvetica,sans-Serif" font-size="10.00">functional</text>
</g>
<!-- Node2&#45;&gt;Node8 -->
<g id="edge14" class="edge"><title>Node2&#45;&gt;Node8</title>
<path fill="none" stroke="midnightblue" d="M252.686,-290.922C252.052,-282.67 251.284,-272.692 250.614,-263.982"/>
<polygon fill="midnightblue" stroke="midnightblue" points="254.092,-263.554 249.835,-253.852 247.112,-264.091 254.092,-263.554"/>
</g>
<!-- Node9 -->
<g id="node17" class="node"><title>Node9</title>
<polygon fill="white" stroke="#bfbfbf" points="672,-116.5 672,-137.5 728,-137.5 728,-116.5 672,-116.5"/>
<text text-anchor="middle" x="700" y="-124.5" font-family="Helvetica,sans-Serif" font-size="10.00">Rtypes.h</text>
</g>
<!-- Node2&#45;&gt;Node9 -->
<g id="edge16" class="edge"><title>Node2&#45;&gt;Node9</title>
<path fill="none" stroke="midnightblue" d="M299.817,-303.138C390.394,-293.231 585.894,-270.268 612,-254 652.957,-228.477 679.809,-176.106 692.153,-147.227"/>
<polygon fill="midnightblue" stroke="midnightblue" points="695.486,-148.323 696.044,-137.743 689.01,-145.666 695.486,-148.323"/>
</g>
<!-- Node11 -->
<g id="node21" class="node"><title>Node11</title>
<polygon fill="white" stroke="#bfbfbf" points="982,-0.5 982,-21.5 1038,-21.5 1038,-0.5 982,-0.5"/>
<text text-anchor="middle" x="1010" y="-8.5" font-family="Helvetica,sans-Serif" font-size="10.00">algorithm</text>
</g>
<!-- Node10&#45;&gt;Node11 -->
<g id="edge20" class="edge"><title>Node10&#45;&gt;Node11</title>
<path fill="none" stroke="midnightblue" d="M1273.32,-179.292C1319.08,-170.966 1384.51,-152.354 1361,-116 1326.46,-62.6064 1131.75,-28.565 1048.15,-16.2178"/>
<polygon fill="midnightblue" stroke="midnightblue" points="1048.45,-12.725 1038.05,-14.7527 1047.44,-19.6525 1048.45,-12.725"/>
</g>
<!-- Node12 -->
<g id="node23" class="node"><title>Node12</title>
<polygon fill="white" stroke="#bfbfbf" points="1089.5,-116.5 1089.5,-137.5 1148.5,-137.5 1148.5,-116.5 1089.5,-116.5"/>
<text text-anchor="middle" x="1119" y="-124.5" font-family="Helvetica,sans-Serif" font-size="10.00">stdexcept</text>
</g>
<!-- Node10&#45;&gt;Node12 -->
<g id="edge22" class="edge"><title>Node10&#45;&gt;Node12</title>
<path fill="none" stroke="midnightblue" d="M1212.36,-174.497C1194.63,-165.479 1168.86,-152.365 1148.88,-142.201"/>
<polygon fill="midnightblue" stroke="midnightblue" points="1150.38,-139.036 1139.88,-137.621 1147.2,-145.275 1150.38,-139.036"/>
</g>
<!-- Node13 -->
<g id="node25" class="node"><title>Node13</title>
<a xlink:href="printable_8h.html" target="_top" xlink:title="printable.h">
<polygon fill="white" stroke="black" points="1166,-116.5 1166,-137.5 1228,-137.5 1228,-116.5 1166,-116.5"/>
<text text-anchor="middle" x="1197" y="-124.5" font-family="Helvetica,sans-Serif" font-size="10.00">printable.h</text>
</a>
</g>
<!-- Node10&#45;&gt;Node13 -->
<g id="edge24" class="edge"><title>Node10&#45;&gt;Node13</title>
<path fill="none" stroke="midnightblue" d="M1226.4,-174.362C1221.53,-166.513 1214.76,-155.616 1208.95,-146.253"/>
<polygon fill="midnightblue" stroke="midnightblue" points="1211.81,-144.221 1203.56,-137.571 1205.86,-147.913 1211.81,-144.221"/>
</g>
<!-- Node15 -->
<g id="node30" class="node"><title>Node15</title>
<a xlink:href="types_8h.html" target="_top" xlink:title="types.h">
<polygon fill="white" stroke="black" points="1245.5,-116.5 1245.5,-137.5 1294.5,-137.5 1294.5,-116.5 1245.5,-116.5"/>
<text text-anchor="middle" x="1270" y="-124.5" font-family="Helvetica,sans-Serif" font-size="10.00">types.h</text>
</a>
</g>
<!-- Node10&#45;&gt;Node15 -->
<g id="edge30" class="edge"><title>Node10&#45;&gt;Node15</title>
<path fill="none" stroke="midnightblue" d="M1239.79,-174.362C1244.79,-166.513 1251.75,-155.616 1257.72,-146.253"/>
<polygon fill="midnightblue" stroke="midnightblue" points="1260.83,-147.884 1263.26,-137.571 1254.93,-144.119 1260.83,-147.884"/>
</g>
<!-- Node16 -->
<g id="node32" class="node"><title>Node16</title>
<polygon fill="white" stroke="#bfbfbf" points="1312,-116.5 1312,-137.5 1352,-137.5 1352,-116.5 1312,-116.5"/>
<text text-anchor="middle" x="1332" y="-124.5" font-family="Helvetica,sans-Serif" font-size="10.00">limits</text>
</g>
<!-- Node10&#45;&gt;Node16 -->
<g id="edge32" class="edge"><title>Node10&#45;&gt;Node16</title>
<path fill="none" stroke="midnightblue" d="M1251.16,-174.362C1266.23,-165.532 1287.89,-152.844 1304.99,-142.822"/>
<polygon fill="midnightblue" stroke="midnightblue" points="1307.1,-145.646 1313.96,-137.571 1303.56,-139.606 1307.1,-145.646"/>
</g>
<!-- Node13&#45;&gt;Node5 -->
<g id="edge26" class="edge"><title>Node13&#45;&gt;Node5</title>
<path fill="none" stroke="midnightblue" d="M1165.7,-117.713C1162.77,-117.052 1159.84,-116.464 1157,-116 870.57,-69.2579 794.44,-101.25 505,-80 475.193,-77.8117 441.284,-74.6402 417.133,-72.2643"/>
<polygon fill="midnightblue" stroke="midnightblue" points="417.394,-68.7731 407.097,-71.2675 416.702,-75.7388 417.394,-68.7731"/>
</g>
<!-- Node14 -->
<g id="node28" class="node"><title>Node14</title>
<polygon fill="white" stroke="#bfbfbf" points="1171,-58.5 1171,-79.5 1223,-79.5 1223,-58.5 1171,-58.5"/>
<text text-anchor="middle" x="1197" y="-66.5" font-family="Helvetica,sans-Serif" font-size="10.00">ostream</text>
</g>
<!-- Node13&#45;&gt;Node14 -->
<g id="edge28" class="edge"><title>Node13&#45;&gt;Node14</title>
<path fill="none" stroke="midnightblue" d="M1197,-116.362C1197,-108.922 1197,-98.7427 1197,-89.7276"/>
<polygon fill="midnightblue" stroke="midnightblue" points="1200.5,-89.5706 1197,-79.5707 1193.5,-89.5707 1200.5,-89.5706"/>
</g>
<!-- Node17&#45;&gt;Node3 -->
<g id="edge38" class="edge"><title>Node17&#45;&gt;Node3</title>
<path fill="none" stroke="midnightblue" d="M119.408,-297.352C98.9002,-288.707 72.844,-274.554 57,-254 37.5806,-228.808 38,-216.808 38,-185 38,-185 38,-185 38,-127 38,-73.1371 216.182,-31.6096 289.276,-16.8403"/>
<polygon fill="midnightblue" stroke="midnightblue" points="290.137,-20.2378 299.264,-14.8571 288.774,-13.3718 290.137,-20.2378"/>
</g>
<!-- Node17&#45;&gt;Node4 -->
<g id="edge36" class="edge"><title>Node17&#45;&gt;Node4</title>
<path fill="none" stroke="midnightblue" d="M150,-297.267C150,-288.18 150,-274.892 150,-263.74"/>
<polygon fill="midnightblue" stroke="midnightblue" points="153.5,-263.534 150,-253.534 146.5,-263.534 153.5,-263.534"/>
</g>
<!-- Node17&#45;&gt;Node7 -->
<g id="edge40" class="edge"><title>Node17&#45;&gt;Node7</title>
<path fill="none" stroke="midnightblue" d="M140.422,-297.267C131.639,-287.423 118.455,-272.648 108.061,-261"/>
<polygon fill="midnightblue" stroke="midnightblue" points="110.669,-258.665 101.399,-253.534 105.446,-263.325 110.669,-258.665"/>
</g>
<!-- Node18&#45;&gt;Node4 -->
<g id="edge48" class="edge"><title>Node18&#45;&gt;Node4</title>
<path fill="none" stroke="midnightblue" d="M423.862,-300.796C361.163,-287.564 229.094,-259.692 174.459,-248.162"/>
<polygon fill="midnightblue" stroke="midnightblue" points="175.115,-244.723 164.608,-246.083 173.67,-251.572 175.115,-244.723"/>
</g>
<!-- Node18&#45;&gt;Node5 -->
<g id="edge46" class="edge"><title>Node18&#45;&gt;Node5</title>
<path fill="none" stroke="midnightblue" d="M454.769,-297.422C443.559,-260.72 406.209,-138.439 391.262,-89.5028"/>
<polygon fill="midnightblue" stroke="midnightblue" points="394.545,-88.2683 388.276,-79.7269 387.85,-90.3132 394.545,-88.2683"/>
</g>
<!-- Node18&#45;&gt;Node6 -->
<g id="edge44" class="edge"><title>Node18&#45;&gt;Node6</title>
<path fill="none" stroke="midnightblue" d="M440.331,-297.267C423.114,-286.807 396.733,-270.782 377.098,-258.854"/>
<polygon fill="midnightblue" stroke="midnightblue" points="378.704,-255.734 368.34,-253.534 375.07,-261.717 378.704,-255.734"/>
</g>
<!-- Node19 -->
<g id="node44" class="node"><title>Node19</title>
<a xlink:href="_t_data_record_8h.html" target="_top" xlink:title="tree/TDataRecord.h">
<polygon fill="white" stroke="black" points="807.5,-232.5 807.5,-253.5 910.5,-253.5 910.5,-232.5 807.5,-232.5"/>
<text text-anchor="middle" x="859" y="-240.5" font-family="Helvetica,sans-Serif" font-size="10.00">tree/TDataRecord.h</text>
</a>
</g>
<!-- Node18&#45;&gt;Node19 -->
<g id="edge50" class="edge"><title>Node18&#45;&gt;Node19</title>
<path fill="none" stroke="midnightblue" d="M492.189,-302.458C559.803,-291.498 711.454,-266.916 797.084,-253.036"/>
<polygon fill="midnightblue" stroke="midnightblue" points="797.878,-256.453 807.189,-251.398 796.758,-249.543 797.878,-256.453"/>
</g>
<!-- Node30 -->
<g id="node75" class="node"><title>Node30</title>
<a xlink:href="_t_calibration_data_8h.html" target="_top" xlink:title="tree/TCalibrationData.h">
<polygon fill="white" stroke="black" points="485,-232.5 485,-253.5 603,-253.5 603,-232.5 485,-232.5"/>
<text text-anchor="middle" x="544" y="-240.5" font-family="Helvetica,sans-Serif" font-size="10.00">tree/TCalibrationData.h</text>
</a>
</g>
<!-- Node18&#45;&gt;Node30 -->
<g id="edge90" class="edge"><title>Node18&#45;&gt;Node30</title>
<path fill="none" stroke="midnightblue" d="M472.201,-297.267C485.726,-287.044 506.287,-271.504 521.944,-259.67"/>
<polygon fill="midnightblue" stroke="midnightblue" points="524.196,-262.356 530.063,-253.534 519.975,-256.771 524.196,-262.356"/>
</g>
<!-- Node19&#45;&gt;Node9 -->
<g id="edge84" class="edge"><title>Node19&#45;&gt;Node9</title>
<path fill="none" stroke="midnightblue" d="M844.327,-232.295C816.521,-212.009 755.979,-167.84 722.827,-143.653"/>
<polygon fill="midnightblue" stroke="midnightblue" points="724.779,-140.746 714.638,-137.679 720.654,-146.401 724.779,-140.746"/>
</g>
<!-- Node20 -->
<g id="node46" class="node"><title>Node20</title>
<a xlink:href="_t_i_d_8h.html" target="_top" xlink:title="TID.h">
<polygon fill="white" stroke="black" points="838.5,-174.5 838.5,-195.5 879.5,-195.5 879.5,-174.5 838.5,-174.5"/>
<text text-anchor="middle" x="859" y="-182.5" font-family="Helvetica,sans-Serif" font-size="10.00">TID.h</text>
</a>
</g>
<!-- Node19&#45;&gt;Node20 -->
<g id="edge52" class="edge"><title>Node19&#45;&gt;Node20</title>
<path fill="none" stroke="midnightblue" d="M859,-232.362C859,-224.922 859,-214.743 859,-205.728"/>
<polygon fill="midnightblue" stroke="midnightblue" points="862.5,-205.571 859,-195.571 855.5,-205.571 862.5,-205.571"/>
</g>
<!-- Node25 -->
<g id="node60" class="node"><title>Node25</title>
<polygon fill="white" stroke="#bfbfbf" points="819.5,-58.5 819.5,-79.5 860.5,-79.5 860.5,-58.5 819.5,-58.5"/>
<text text-anchor="middle" x="840" y="-66.5" font-family="Helvetica,sans-Serif" font-size="10.00">ctime</text>
</g>
<!-- Node19&#45;&gt;Node25 -->
<g id="edge88" class="edge"><title>Node19&#45;&gt;Node25</title>
<path fill="none" stroke="midnightblue" d="M902.553,-232.457C970.12,-214.06 1087.99,-172.591 1043,-116 1021.83,-89.3641 922.153,-76.4949 870.783,-71.5429"/>
<polygon fill="midnightblue" stroke="midnightblue" points="870.879,-68.037 860.6,-70.6043 870.237,-75.0075 870.879,-68.037"/>
</g>
<!-- Node29 -->
<g id="node69" class="node"><title>Node29</title>
<polygon fill="white" stroke="#bfbfbf" points="984,-116.5 984,-137.5 1034,-137.5 1034,-116.5 984,-116.5"/>
<text text-anchor="middle" x="1009" y="-124.5" font-family="Helvetica,sans-Serif" font-size="10.00">iomanip</text>
</g>
<!-- Node19&#45;&gt;Node29 -->
<g id="edge86" class="edge"><title>Node19&#45;&gt;Node29</title>
<path fill="none" stroke="midnightblue" d="M872.843,-232.295C898.963,-212.096 955.704,-168.216 987.065,-143.963"/>
<polygon fill="midnightblue" stroke="midnightblue" points="989.421,-146.565 995.191,-137.679 985.139,-141.028 989.421,-146.565"/>
</g>
<!-- Node20&#45;&gt;Node9 -->
<g id="edge54" class="edge"><title>Node20&#45;&gt;Node9</title>
<path fill="none" stroke="midnightblue" d="M838.214,-177.418C812.768,-168.135 769.191,-152.239 737.762,-140.775"/>
<polygon fill="midnightblue" stroke="midnightblue" points="738.617,-137.361 728.023,-137.222 736.218,-143.937 738.617,-137.361"/>
</g>
<!-- Node20&#45;&gt;Node12 -->
<g id="edge78" class="edge"><title>Node20&#45;&gt;Node12</title>
<path fill="none" stroke="midnightblue" d="M879.837,-180.352C923.172,-170.685 1023.62,-148.277 1079.57,-135.796"/>
<polygon fill="midnightblue" stroke="midnightblue" points="1080.48,-139.179 1089.48,-133.586 1078.95,-132.347 1080.48,-139.179"/>
</g>
<!-- Node20&#45;&gt;Node13 -->
<g id="edge56" class="edge"><title>Node20&#45;&gt;Node13</title>
<path fill="none" stroke="midnightblue" d="M879.741,-182.541C927.024,-176.765 1046.55,-161.196 1155.78,-138.094"/>
<polygon fill="midnightblue" stroke="midnightblue" points="1156.59,-141.499 1165.64,-135.981 1155.13,-134.654 1156.59,-141.499"/>
</g>
<!-- Node21 -->
<g id="node50" class="node"><title>Node21</title>
<a xlink:href="time_8h.html" target="_top" xlink:title="base/std_ext/time.h">
<polygon fill="white" stroke="black" points="513.5,-116.5 513.5,-137.5 616.5,-137.5 616.5,-116.5 513.5,-116.5"/>
<text text-anchor="middle" x="565" y="-124.5" font-family="Helvetica,sans-Serif" font-size="10.00">base/std_ext/time.h</text>
</a>
</g>
<!-- Node20&#45;&gt;Node21 -->
<g id="edge58" class="edge"><title>Node20&#45;&gt;Node21</title>
<path fill="none" stroke="midnightblue" d="M838.326,-180.922C794.938,-172.362 692.914,-152.235 626.528,-139.138"/>
<polygon fill="midnightblue" stroke="midnightblue" points="627.087,-135.681 616.599,-137.179 625.732,-142.549 627.087,-135.681"/>
</g>
<!-- Node20&#45;&gt;Node25 -->
<g id="edge82" class="edge"><title>Node20&#45;&gt;Node25</title>
<path fill="none" stroke="midnightblue" d="M879.636,-177.843C908.19,-166.74 954.377,-143.729 937,-116 922.523,-92.8988 893.109,-80.8693 870.447,-74.7916"/>
<polygon fill="midnightblue" stroke="midnightblue" points="871.131,-71.3561 860.588,-72.3996 869.481,-78.1588 871.131,-71.3561"/>
</g>
<!-- Node26 -->
<g id="node62" class="node"><title>Node26</title>
<polygon fill="white" stroke="#bfbfbf" points="866,-116.5 866,-137.5 928,-137.5 928,-116.5 866,-116.5"/>
<text text-anchor="middle" x="897" y="-124.5" font-family="Helvetica,sans-Serif" font-size="10.00">type_traits</text>
</g>
<!-- Node20&#45;&gt;Node26 -->
<g id="edge72" class="edge"><title>Node20&#45;&gt;Node26</title>
<path fill="none" stroke="midnightblue" d="M865.97,-174.362C871.166,-166.431 878.401,-155.389 884.578,-145.961"/>
<polygon fill="midnightblue" stroke="midnightblue" points="887.522,-147.853 890.074,-137.571 881.666,-144.017 887.522,-147.853"/>
</g>
<!-- Node27 -->
<g id="node64" class="node"><title>Node27</title>
<polygon fill="white" stroke="#bfbfbf" points="746,-116.5 746,-137.5 784,-137.5 784,-116.5 746,-116.5"/>
<text text-anchor="middle" x="765" y="-124.5" font-family="Helvetica,sans-Serif" font-size="10.00">tuple</text>
</g>
<!-- Node20&#45;&gt;Node27 -->
<g id="edge74" class="edge"><title>Node20&#45;&gt;Node27</title>
<path fill="none" stroke="midnightblue" d="M841.759,-174.362C827.448,-165.532 806.885,-152.844 790.643,-142.822"/>
<polygon fill="midnightblue" stroke="midnightblue" points="792.48,-139.843 782.132,-137.571 788.804,-145.8 792.48,-139.843"/>
</g>
<!-- Node28 -->
<g id="node66" class="node"><title>Node28</title>
<polygon fill="white" stroke="#bfbfbf" points="802,-116.5 802,-137.5 848,-137.5 848,-116.5 802,-116.5"/>
<text text-anchor="middle" x="825" y="-124.5" font-family="Helvetica,sans-Serif" font-size="10.00">cstdint</text>
</g>
<!-- Node20&#45;&gt;Node28 -->
<g id="edge76" class="edge"><title>Node20&#45;&gt;Node28</title>
<path fill="none" stroke="midnightblue" d="M852.764,-174.362C848.163,-166.513 841.775,-155.616 836.286,-146.253"/>
<polygon fill="midnightblue" stroke="midnightblue" points="839.273,-144.428 831.197,-137.571 833.234,-147.968 839.273,-144.428"/>
</g>
<!-- Node20&#45;&gt;Node29 -->
<g id="edge80" class="edge"><title>Node20&#45;&gt;Node29</title>
<path fill="none" stroke="midnightblue" d="M879.542,-177.057C903.98,-167.608 945.154,-151.687 974.505,-140.338"/>
<polygon fill="midnightblue" stroke="midnightblue" points="975.899,-143.552 983.964,-136.681 973.375,-137.023 975.899,-143.552"/>
</g>
<!-- Node22 -->
<g id="node52" class="node"><title>Node22</title>
<a xlink:href="string_8h.html" target="_top" xlink:title="base/std_ext/string.h">
<polygon fill="white" stroke="black" points="514,-58.5 514,-79.5 622,-79.5 622,-58.5 514,-58.5"/>
<text text-anchor="middle" x="568" y="-66.5" font-family="Helvetica,sans-Serif" font-size="10.00">base/std_ext/string.h</text>
</a>
</g>
<!-- Node21&#45;&gt;Node22 -->
<g id="edge60" class="edge"><title>Node21&#45;&gt;Node22</title>
<path fill="none" stroke="midnightblue" d="M565.55,-116.362C565.935,-108.922 566.462,-98.7427 566.928,-89.7276"/>
<polygon fill="midnightblue" stroke="midnightblue" points="570.432,-89.7381 567.453,-79.5707 563.441,-89.3765 570.432,-89.7381"/>
</g>
<!-- Node24 -->
<g id="node58" class="node"><title>Node24</title>
<polygon fill="white" stroke="#bfbfbf" points="640,-58.5 640,-79.5 686,-79.5 686,-58.5 640,-58.5"/>
<text text-anchor="middle" x="663" y="-66.5" font-family="Helvetica,sans-Serif" font-size="10.00">cstring</text>
</g>
<!-- Node21&#45;&gt;Node24 -->
<g id="edge68" class="edge"><title>Node21&#45;&gt;Node24</title>
<path fill="none" stroke="midnightblue" d="M582.975,-116.362C597.894,-107.532 619.333,-94.844 636.266,-84.8224"/>
<polygon fill="midnightblue" stroke="midnightblue" points="638.316,-87.6759 645.139,-79.5707 634.751,-81.6519 638.316,-87.6759"/>
</g>
<!-- Node21&#45;&gt;Node25 -->
<g id="edge70" class="edge"><title>Node21&#45;&gt;Node25</title>
<path fill="none" stroke="midnightblue" d="M614.8,-116.497C671.496,-104.539 762.333,-85.3807 809.442,-75.445"/>
<polygon fill="midnightblue" stroke="midnightblue" points="810.284,-78.8445 819.346,-73.3561 808.839,-71.9952 810.284,-78.8445"/>
</g>
<!-- Node22&#45;&gt;Node3 -->
<g id="edge62" class="edge"><title>Node22&#45;&gt;Node3</title>
<path fill="none" stroke="midnightblue" d="M523.089,-58.4966C473.185,-46.8255 393.949,-28.2945 350.678,-18.1748"/>
<polygon fill="midnightblue" stroke="midnightblue" points="351.279,-14.721 340.745,-15.8517 349.685,-21.5371 351.279,-14.721"/>
</g>
<!-- Node22&#45;&gt;Node11 -->
<g id="edge66" class="edge"><title>Node22&#45;&gt;Node11</title>
<path fill="none" stroke="midnightblue" d="M622.268,-59.349C625.22,-58.879 628.145,-58.426 631,-58 755.182,-39.4704 903.028,-22.6364 971.578,-15.1287"/>
<polygon fill="midnightblue" stroke="midnightblue" points="972.322,-18.5684 981.883,-14.005 971.563,-11.6097 972.322,-18.5684"/>
</g>
<!-- Node23 -->
<g id="node55" class="node"><title>Node23</title>
<polygon fill="white" stroke="#bfbfbf" points="542,-0.5 542,-21.5 594,-21.5 594,-0.5 542,-0.5"/>
<text text-anchor="middle" x="568" y="-8.5" font-family="Helvetica,sans-Serif" font-size="10.00">sstream</text>
</g>
<!-- Node22&#45;&gt;Node23 -->
<g id="edge64" class="edge"><title>Node22&#45;&gt;Node23</title>
<path fill="none" stroke="midnightblue" d="M568,-58.3619C568,-50.9219 568,-40.7427 568,-31.7276"/>
<polygon fill="midnightblue" stroke="midnightblue" points="571.5,-31.5706 568,-21.5707 564.5,-31.5707 571.5,-31.5706"/>
</g>
<!-- Node30&#45;&gt;Node3 -->
<g id="edge94" class="edge"><title>Node30&#45;&gt;Node3</title>
<path fill="none" stroke="midnightblue" d="M542.332,-232.271C539.878,-218.311 534.522,-193.41 525,-174 510.808,-145.072 463.59,-77.5817 438,-58 411.834,-37.9774 376.015,-25.3168 350.725,-18.2451"/>
<polygon fill="midnightblue" stroke="midnightblue" points="351.488,-14.8264 340.924,-15.6358 349.687,-21.5907 351.488,-14.8264"/>
</g>
<!-- Node30&#45;&gt;Node20 -->
<g id="edge92" class="edge"><title>Node30&#45;&gt;Node20</title>
<path fill="none" stroke="midnightblue" d="M601.044,-232.497C667.722,-220.219 775.627,-200.351 828.216,-190.668"/>
<polygon fill="midnightblue" stroke="midnightblue" points="829.065,-194.071 838.265,-188.818 827.797,-187.187 829.065,-194.071"/>
</g>
<!-- Node30&#45;&gt;Node25 -->
<g id="edge96" class="edge"><title>Node30&#45;&gt;Node25</title>
<path fill="none" stroke="midnightblue" d="M550.899,-232.247C567.24,-207.68 610.869,-147.159 663,-116 709.449,-88.2375 772.372,-76.6157 809.333,-71.9439"/>
<polygon fill="midnightblue" stroke="midnightblue" points="809.954,-75.3952 819.478,-70.7548 809.139,-68.4428 809.954,-75.3952"/>
</g>
<!-- Node31 -->
<g id="node80" class="node"><title>Node31</title>
<a xlink:href="_git_info_8h.html" target="_top" xlink:title="base/GitInfo.h">
<polygon fill="white" stroke="black" points="438,-174.5 438,-195.5 516,-195.5 516,-174.5 438,-174.5"/>
<text text-anchor="middle" x="477" y="-182.5" font-family="Helvetica,sans-Serif" font-size="10.00">base/GitInfo.h</text>
</a>
</g>
<!-- Node30&#45;&gt;Node31 -->
<g id="edge98" class="edge"><title>Node30&#45;&gt;Node31</title>
<path fill="none" stroke="midnightblue" d="M531.711,-232.362C521.983,-223.941 508.202,-212.011 496.905,-202.231"/>
<polygon fill="midnightblue" stroke="midnightblue" points="499.062,-199.469 489.211,-195.571 494.481,-204.762 499.062,-199.469"/>
</g>
<!-- Node31&#45;&gt;Node3 -->
<g id="edge100" class="edge"><title>Node31&#45;&gt;Node3</title>
<path fill="none" stroke="midnightblue" d="M474.467,-174.412C468.308,-150.705 450.462,-92.7213 416,-58 397.801,-39.6637 371.004,-27.3709 350.344,-19.9712"/>
<polygon fill="midnightblue" stroke="midnightblue" points="351.353,-16.6178 340.759,-16.7266 349.109,-23.2482 351.353,-16.6178"/>
</g>
</g>
</svg>
