<?xml version="1.0" encoding="UTF-8" standalone="no"?>
<!DOCTYPE svg PUBLIC "-//W3C//DTD SVG 1.1//EN"
 "http://www.w3.org/Graphics/SVG/1.1/DTD/svg11.dtd">
<!-- Generated by graphviz version 2.26.3 (20100126.1600)
 -->
<!-- Title: src/calibration/Editor.cc Pages: 1 -->
<svg width="1396pt" height="450pt"
 viewBox="0.00 0.00 1396.00 450.00" xmlns="http://www.w3.org/2000/svg" xmlns:xlink="http://www.w3.org/1999/xlink">
<g id="graph1" class="graph" transform="scale(1 1) rotate(0) translate(4 446)">
<title>src/calibration/Editor.cc</title>
<polygon fill="white" stroke="white" points="-4,5 -4,-446 1393,-446 1393,5 -4,5"/>
<!-- Node1 -->
<g id="node1" class="node"><title>Node1</title>
<polygon fill="#bfbfbf" stroke="black" points="1121.5,-420.5 1121.5,-441.5 1240.5,-441.5 1240.5,-420.5 1121.5,-420.5"/>
<text text-anchor="middle" x="1181" y="-428.5" font-family="Helvetica,sans-Serif" font-size="10.00">src/calibration/Editor.cc</text>
</g>
<!-- Node2 -->
<g id="node3" class="node"><title>Node2</title>
<a xlink:href="_editor_8h.html" target="_top" xlink:title="Editor.h">
<polygon fill="white" stroke="black" points="1082,-362.5 1082,-383.5 1132,-383.5 1132,-362.5 1082,-362.5"/>
<text text-anchor="middle" x="1107" y="-370.5" font-family="Helvetica,sans-Serif" font-size="10.00">Editor.h</text>
</a>
</g>
<!-- Node1&#45;&gt;Node2 -->
<g id="edge2" class="edge"><title>Node1&#45;&gt;Node2</title>
<path fill="none" stroke="midnightblue" d="M1167.43,-420.362C1156.58,-411.859 1141.17,-399.779 1128.62,-389.947"/>
<polygon fill="midnightblue" stroke="midnightblue" points="1130.52,-386.985 1120.49,-383.571 1126.2,-392.494 1130.52,-386.985"/>
</g>
<!-- Node11 -->
<g id="node21" class="node"><title>Node11</title>
<a xlink:href="interval_8h.html" target="_top" xlink:title="base/interval.h">
<polygon fill="white" stroke="black" points="1178,-174.5 1178,-195.5 1258,-195.5 1258,-174.5 1178,-174.5"/>
<text text-anchor="middle" x="1218" y="-182.5" font-family="Helvetica,sans-Serif" font-size="10.00">base/interval.h</text>
</a>
</g>
<!-- Node1&#45;&gt;Node11 -->
<g id="edge114" class="edge"><title>Node1&#45;&gt;Node11</title>
<path fill="none" stroke="midnightblue" d="M1185.46,-420.489C1196.63,-393.486 1225.41,-319.216 1233,-254 1234.13,-244.288 1234.5,-241.661 1233,-232 1231.59,-222.955 1228.74,-213.271 1225.91,-205.057"/>
<polygon fill="midnightblue" stroke="midnightblue" points="1229.16,-203.774 1222.42,-195.599 1222.59,-206.192 1229.16,-203.774"/>
</g>
<!-- Node12 -->
<g id="node23" class="node"><title>Node12</title>
<polygon fill="white" stroke="#bfbfbf" points="1244,-0.5 1244,-21.5 1300,-21.5 1300,-0.5 1244,-0.5"/>
<text text-anchor="middle" x="1272" y="-8.5" font-family="Helvetica,sans-Serif" font-size="10.00">algorithm</text>
</g>
<!-- Node1&#45;&gt;Node12 -->
<g id="edge118" class="edge"><title>Node1&#45;&gt;Node12</title>
<path fill="none" stroke="midnightblue" d="M1206.8,-420.371C1244.44,-402.939 1310,-364.474 1310,-308 1310,-308 1310,-308 1310,-127 1310,-91.7411 1293.95,-53.3154 1282.71,-30.7323"/>
<polygon fill="midnightblue" stroke="midnightblue" points="1285.8,-29.0901 1278.11,-21.809 1279.58,-32.3005 1285.8,-29.0901"/>
</g>
<!-- Node23 -->
<g id="node54" class="node"><title>Node23</title>
<a xlink:href="string_8h.html" target="_top" xlink:title="base/std_ext/string.h">
<polygon fill="white" stroke="black" points="64,-58.5 64,-79.5 172,-79.5 172,-58.5 64,-58.5"/>
<text text-anchor="middle" x="118" y="-66.5" font-family="Helvetica,sans-Serif" font-size="10.00">base/std_ext/string.h</text>
</a>
</g>
<!-- Node1&#45;&gt;Node23 -->
<g id="edge110" class="edge"><title>Node1&#45;&gt;Node23</title>
<path fill="none" stroke="midnightblue" d="M1121.24,-430.454C896.11,-427.62 112,-410.398 112,-308 112,-308 112,-308 112,-185 112,-151.553 114.519,-112.754 116.292,-89.5773"/>
<polygon fill="midnightblue" stroke="midnightblue" points="119.786,-89.7924 117.089,-79.5467 112.808,-89.2382 119.786,-89.7924"/>
</g>
<!-- Node31 -->
<g id="node77" class="node"><title>Node31</title>
<a xlink:href="_t_calibration_data_8h.html" target="_top" xlink:title="tree/TCalibrationData.h">
<polygon fill="white" stroke="black" points="345,-232.5 345,-253.5 463,-253.5 463,-232.5 345,-232.5"/>
<text text-anchor="middle" x="404" y="-240.5" font-family="Helvetica,sans-Serif" font-size="10.00">tree/TCalibrationData.h</text>
</a>
</g>
<!-- Node1&#45;&gt;Node31 -->
<g id="edge112" class="edge"><title>Node1&#45;&gt;Node31</title>
<path fill="none" stroke="midnightblue" d="M1124.87,-420.459C1033.04,-402.899 845.189,-365.65 688,-326 601.723,-304.237 502.177,-273.925 446.819,-256.597"/>
<polygon fill="midnightblue" stroke="midnightblue" points="447.599,-253.173 437.01,-253.517 445.502,-259.852 447.599,-253.173"/>
</g>
<!-- Node33 -->
<g id="node91" class="node"><title>Node33</title>
<polygon fill="white" stroke="#bfbfbf" points="1337.5,-362.5 1337.5,-383.5 1388.5,-383.5 1388.5,-362.5 1337.5,-362.5"/>
<text text-anchor="middle" x="1363" y="-370.5" font-family="Helvetica,sans-Serif" font-size="10.00">TH2D.h</text>
</g>
<!-- Node1&#45;&gt;Node33 -->
<g id="edge116" class="edge"><title>Node1&#45;&gt;Node33</title>
<path fill="none" stroke="midnightblue" d="M1213.96,-420.497C1246.08,-410.261 1294.76,-394.748 1327.66,-384.261"/>
<polygon fill="midnightblue" stroke="midnightblue" points="1328.87,-387.55 1337.34,-381.179 1326.74,-380.88 1328.87,-387.55"/>
</g>
<!-- Node3 -->
<g id="node5" class="node"><title>Node3</title>
<a xlink:href="root__draw_8h.html" target="_top" xlink:title="analysis/plot/root\l_draw.h">
<polygon fill="white" stroke="black" points="855.5,-291 855.5,-325 946.5,-325 946.5,-291 855.5,-291"/>
<text text-anchor="start" x="863.5" y="-312" font-family="Helvetica,sans-Serif" font-size="10.00">analysis/plot/root</text>
<text text-anchor="middle" x="901" y="-299" font-family="Helvetica,sans-Serif" font-size="10.00">_draw.h</text>
</a>
</g>
<!-- Node2&#45;&gt;Node3 -->
<g id="edge4" class="edge"><title>Node2&#45;&gt;Node3</title>
<path fill="none" stroke="midnightblue" d="M1081.74,-365.03C1050.71,-355.238 997.166,-338.344 956.389,-325.477"/>
<polygon fill="midnightblue" stroke="midnightblue" points="957.436,-322.137 946.846,-322.466 955.329,-328.813 957.436,-322.137"/>
</g>
<!-- Node4 -->
<g id="node7" class="node"><title>Node4</title>
<polygon fill="white" stroke="#bfbfbf" points="461.5,-0.5 461.5,-21.5 502.5,-21.5 502.5,-0.5 461.5,-0.5"/>
<text text-anchor="middle" x="482" y="-8.5" font-family="Helvetica,sans-Serif" font-size="10.00">string</text>
</g>
<!-- Node2&#45;&gt;Node4 -->
<g id="edge106" class="edge"><title>Node2&#45;&gt;Node4</title>
<path fill="none" stroke="midnightblue" d="M1116.32,-362.232C1135.35,-338.903 1175.69,-281.779 1161,-232 1132.91,-136.802 1112.12,-97.3613 1021,-58 974.262,-37.8105 620.104,-18.1081 512.75,-12.5481"/>
<polygon fill="midnightblue" stroke="midnightblue" points="512.752,-9.04366 502.585,-12.0259 512.392,-16.0344 512.752,-9.04366"/>
</g>
<!-- Node6 -->
<g id="node11" class="node"><title>Node6</title>
<polygon fill="white" stroke="#bfbfbf" points="921,-58.5 921,-79.5 965,-79.5 965,-58.5 921,-58.5"/>
<text text-anchor="middle" x="943" y="-66.5" font-family="Helvetica,sans-Serif" font-size="10.00">vector</text>
</g>
<!-- Node2&#45;&gt;Node6 -->
<g id="edge108" class="edge"><title>Node2&#45;&gt;Node6</title>
<path fill="none" stroke="midnightblue" d="M1081.92,-366.061C1062.39,-359.246 1036.4,-346.785 1023,-326 1000.28,-290.763 1021.04,-273.492 1015,-232 1007.42,-179.901 1016.24,-162.203 991,-116 984.773,-104.6 974.879,-94.2237 965.687,-86.1377"/>
<polygon fill="midnightblue" stroke="midnightblue" points="967.824,-83.3629 957.9,-79.6533 963.345,-88.742 967.824,-83.3629"/>
</g>
<!-- Node8 -->
<g id="node15" class="node"><title>Node8</title>
<polygon fill="white" stroke="#bfbfbf" points="1100,-232.5 1100,-253.5 1152,-253.5 1152,-232.5 1100,-232.5"/>
<text text-anchor="middle" x="1126" y="-240.5" font-family="Helvetica,sans-Serif" font-size="10.00">memory</text>
</g>
<!-- Node2&#45;&gt;Node8 -->
<g id="edge104" class="edge"><title>Node2&#45;&gt;Node8</title>
<path fill="none" stroke="midnightblue" d="M1111.6,-362.412C1115.43,-353.038 1120.63,-338.885 1123,-326 1126.84,-305.146 1127.26,-280.861 1126.92,-263.969"/>
<polygon fill="midnightblue" stroke="midnightblue" points="1130.41,-263.475 1126.6,-253.589 1123.41,-263.693 1130.41,-263.475"/>
</g>
<!-- Node2&#45;&gt;Node11 -->
<g id="edge20" class="edge"><title>Node2&#45;&gt;Node11</title>
<path fill="none" stroke="midnightblue" d="M1132.08,-366.126C1152.07,-359.299 1179.1,-346.788 1194,-326 1219.92,-289.854 1221.32,-235.263 1219.82,-205.733"/>
<polygon fill="midnightblue" stroke="midnightblue" points="1223.31,-205.477 1219.15,-195.733 1216.33,-205.945 1223.31,-205.477"/>
</g>
<!-- Node18 -->
<g id="node36" class="node"><title>Node18</title>
<a xlink:href="_data_manager_8h.html" target="_top" xlink:title="DataManager.h">
<polygon fill="white" stroke="black" points="1031.5,-297.5 1031.5,-318.5 1114.5,-318.5 1114.5,-297.5 1031.5,-297.5"/>
<text text-anchor="middle" x="1073" y="-305.5" font-family="Helvetica,sans-Serif" font-size="10.00">DataManager.h</text>
</a>
</g>
<!-- Node2&#45;&gt;Node18 -->
<g id="edge36" class="edge"><title>Node2&#45;&gt;Node18</title>
<path fill="none" stroke="midnightblue" d="M1101.39,-362.267C1096.48,-352.896 1089.25,-339.057 1083.3,-327.7"/>
<polygon fill="midnightblue" stroke="midnightblue" points="1086.25,-325.772 1078.51,-318.534 1080.04,-329.017 1086.25,-325.772"/>
</g>
<!-- Node19 -->
<g id="node41" class="node"><title>Node19</title>
<a xlink:href="_data_base_8h.html" target="_top" xlink:title="DataBase.h">
<polygon fill="white" stroke="black" points="697,-297.5 697,-318.5 765,-318.5 765,-297.5 697,-297.5"/>
<text text-anchor="middle" x="731" y="-305.5" font-family="Helvetica,sans-Serif" font-size="10.00">DataBase.h</text>
</a>
</g>
<!-- Node2&#45;&gt;Node19 -->
<g id="edge44" class="edge"><title>Node2&#45;&gt;Node19</title>
<path fill="none" stroke="midnightblue" d="M1081.75,-368.634C1018.87,-357.765 854.685,-329.382 775.279,-315.655"/>
<polygon fill="midnightblue" stroke="midnightblue" points="775.563,-312.152 765.113,-313.897 774.37,-319.05 775.563,-312.152"/>
</g>
<!-- Node3&#45;&gt;Node4 -->
<g id="edge6" class="edge"><title>Node3&#45;&gt;Node4</title>
<path fill="none" stroke="midnightblue" d="M894.331,-290.789C887.685,-274.762 876.536,-250.611 863,-232 819.745,-172.524 806.581,-156.201 745,-116 668.163,-65.8396 563.569,-33.0081 512.534,-18.8999"/>
<polygon fill="midnightblue" stroke="midnightblue" points="513.343,-15.4929 502.776,-16.2511 511.51,-22.2485 513.343,-15.4929"/>
</g>
<!-- Node5 -->
<g id="node9" class="node"><title>Node5</title>
<polygon fill="white" stroke="#bfbfbf" points="825.5,-232.5 825.5,-253.5 854.5,-253.5 854.5,-232.5 825.5,-232.5"/>
<text text-anchor="middle" x="840" y="-240.5" font-family="Helvetica,sans-Serif" font-size="10.00">list</text>
</g>
<!-- Node3&#45;&gt;Node5 -->
<g id="edge8" class="edge"><title>Node3&#45;&gt;Node5</title>
<path fill="none" stroke="midnightblue" d="M884.973,-290.922C876.455,-281.845 865.976,-270.679 857.277,-261.41"/>
<polygon fill="midnightblue" stroke="midnightblue" points="859.58,-258.749 850.184,-253.852 854.475,-263.539 859.58,-258.749"/>
</g>
<!-- Node3&#45;&gt;Node6 -->
<g id="edge10" class="edge"><title>Node3&#45;&gt;Node6</title>
<path fill="none" stroke="midnightblue" d="M909.767,-290.873C928.299,-254.306 970.305,-169.38 977,-138 979.04,-128.437 980.012,-125.302 977,-116 973.638,-105.618 967.031,-95.604 960.528,-87.5068"/>
<polygon fill="midnightblue" stroke="midnightblue" points="963.101,-85.1309 953.929,-79.8274 957.792,-89.693 963.101,-85.1309"/>
</g>
<!-- Node7 -->
<g id="node13" class="node"><title>Node7</title>
<polygon fill="white" stroke="#bfbfbf" points="735.5,-232.5 735.5,-253.5 770.5,-253.5 770.5,-232.5 735.5,-232.5"/>
<text text-anchor="middle" x="753" y="-240.5" font-family="Helvetica,sans-Serif" font-size="10.00">map</text>
</g>
<!-- Node3&#45;&gt;Node7 -->
<g id="edge12" class="edge"><title>Node3&#45;&gt;Node7</title>
<path fill="none" stroke="midnightblue" d="M862.115,-290.922C836.186,-279.534 802.769,-264.858 779.786,-254.764"/>
<polygon fill="midnightblue" stroke="midnightblue" points="781.191,-251.558 770.627,-250.742 778.376,-257.968 781.191,-251.558"/>
</g>
<!-- Node3&#45;&gt;Node8 -->
<g id="edge14" class="edge"><title>Node3&#45;&gt;Node8</title>
<path fill="none" stroke="midnightblue" d="M946.532,-294.846C988.85,-282.621 1051.04,-264.654 1089.99,-253.402"/>
<polygon fill="midnightblue" stroke="midnightblue" points="1091.21,-256.693 1099.85,-250.555 1089.27,-249.968 1091.21,-256.693"/>
</g>
<!-- Node9 -->
<g id="node17" class="node"><title>Node9</title>
<polygon fill="white" stroke="#bfbfbf" points="947.5,-232.5 947.5,-253.5 1006.5,-253.5 1006.5,-232.5 947.5,-232.5"/>
<text text-anchor="middle" x="977" y="-240.5" font-family="Helvetica,sans-Serif" font-size="10.00">functional</text>
</g>
<!-- Node3&#45;&gt;Node9 -->
<g id="edge16" class="edge"><title>Node3&#45;&gt;Node9</title>
<path fill="none" stroke="midnightblue" d="M920.968,-290.922C931.903,-281.57 945.43,-270.001 956.454,-260.572"/>
<polygon fill="midnightblue" stroke="midnightblue" points="958.987,-263.012 964.311,-253.852 954.437,-257.692 958.987,-263.012"/>
</g>
<!-- Node10 -->
<g id="node19" class="node"><title>Node10</title>
<polygon fill="white" stroke="#bfbfbf" points="680,-116.5 680,-137.5 736,-137.5 736,-116.5 680,-116.5"/>
<text text-anchor="middle" x="708" y="-124.5" font-family="Helvetica,sans-Serif" font-size="10.00">Rtypes.h</text>
</g>
<!-- Node3&#45;&gt;Node10 -->
<g id="edge18" class="edge"><title>Node3&#45;&gt;Node10</title>
<path fill="none" stroke="midnightblue" d="M869.963,-290.995C853.427,-281.228 833.213,-268.117 817,-254 778.189,-220.204 740.906,-172.381 721.615,-146.117"/>
<polygon fill="midnightblue" stroke="midnightblue" points="724.275,-143.823 715.569,-137.785 718.609,-147.934 724.275,-143.823"/>
</g>
<!-- Node11&#45;&gt;Node12 -->
<g id="edge22" class="edge"><title>Node11&#45;&gt;Node12</title>
<path fill="none" stroke="midnightblue" d="M1228.34,-174.386C1236.42,-165.438 1247.22,-151.902 1253,-138 1267.7,-102.678 1271.23,-57.6439 1271.96,-31.7903"/>
<polygon fill="midnightblue" stroke="midnightblue" points="1275.46,-31.723 1272.13,-21.6664 1268.46,-31.6071 1275.46,-31.723"/>
</g>
<!-- Node13 -->
<g id="node25" class="node"><title>Node13</title>
<polygon fill="white" stroke="#bfbfbf" points="909.5,-116.5 909.5,-137.5 968.5,-137.5 968.5,-116.5 909.5,-116.5"/>
<text text-anchor="middle" x="939" y="-124.5" font-family="Helvetica,sans-Serif" font-size="10.00">stdexcept</text>
</g>
<!-- Node11&#45;&gt;Node13 -->
<g id="edge24" class="edge"><title>Node11&#45;&gt;Node13</title>
<path fill="none" stroke="midnightblue" d="M1177.73,-176.628C1124.53,-165.57 1031.43,-146.215 978.582,-135.229"/>
<polygon fill="midnightblue" stroke="midnightblue" points="979.076,-131.757 968.573,-133.148 977.651,-138.61 979.076,-131.757"/>
</g>
<!-- Node14 -->
<g id="node27" class="node"><title>Node14</title>
<a xlink:href="printable_8h.html" target="_top" xlink:title="printable.h">
<polygon fill="white" stroke="black" points="792,-116.5 792,-137.5 854,-137.5 854,-116.5 792,-116.5"/>
<text text-anchor="middle" x="823" y="-124.5" font-family="Helvetica,sans-Serif" font-size="10.00">printable.h</text>
</a>
</g>
<!-- Node11&#45;&gt;Node14 -->
<g id="edge26" class="edge"><title>Node11&#45;&gt;Node14</title>
<path fill="none" stroke="midnightblue" d="M1177.95,-179.119C1102.65,-168.062 940.683,-144.28 864.374,-133.075"/>
<polygon fill="midnightblue" stroke="midnightblue" points="864.596,-129.57 854.193,-131.58 863.579,-136.496 864.596,-129.57"/>
</g>
<!-- Node16 -->
<g id="node32" class="node"><title>Node16</title>
<a xlink:href="types_8h.html" target="_top" xlink:title="types.h">
<polygon fill="white" stroke="black" points="1137.5,-116.5 1137.5,-137.5 1186.5,-137.5 1186.5,-116.5 1137.5,-116.5"/>
<text text-anchor="middle" x="1162" y="-124.5" font-family="Helvetica,sans-Serif" font-size="10.00">types.h</text>
</a>
</g>
<!-- Node11&#45;&gt;Node16 -->
<g id="edge32" class="edge"><title>Node11&#45;&gt;Node16</title>
<path fill="none" stroke="midnightblue" d="M1207.73,-174.362C1199.76,-166.104 1188.53,-154.472 1179.19,-144.803"/>
<polygon fill="midnightblue" stroke="midnightblue" points="1181.67,-142.334 1172.21,-137.571 1176.63,-147.196 1181.67,-142.334"/>
</g>
<!-- Node17 -->
<g id="node34" class="node"><title>Node17</title>
<polygon fill="white" stroke="#bfbfbf" points="1204,-116.5 1204,-137.5 1244,-137.5 1244,-116.5 1204,-116.5"/>
<text text-anchor="middle" x="1224" y="-124.5" font-family="Helvetica,sans-Serif" font-size="10.00">limits</text>
</g>
<!-- Node11&#45;&gt;Node17 -->
<g id="edge34" class="edge"><title>Node11&#45;&gt;Node17</title>
<path fill="none" stroke="midnightblue" d="M1219.1,-174.362C1219.87,-166.922 1220.92,-156.743 1221.86,-147.728"/>
<polygon fill="midnightblue" stroke="midnightblue" points="1225.36,-147.878 1222.91,-137.571 1218.4,-147.157 1225.36,-147.878"/>
</g>
<!-- Node14&#45;&gt;Node6 -->
<g id="edge28" class="edge"><title>Node14&#45;&gt;Node6</title>
<path fill="none" stroke="midnightblue" d="M844.731,-116.497C863.474,-107.438 890.767,-94.2462 911.836,-84.0628"/>
<polygon fill="midnightblue" stroke="midnightblue" points="913.545,-87.1242 921.025,-79.6212 910.498,-80.8217 913.545,-87.1242"/>
</g>
<!-- Node15 -->
<g id="node30" class="node"><title>Node15</title>
<polygon fill="white" stroke="#bfbfbf" points="797,-58.5 797,-79.5 849,-79.5 849,-58.5 797,-58.5"/>
<text text-anchor="middle" x="823" y="-66.5" font-family="Helvetica,sans-Serif" font-size="10.00">ostream</text>
</g>
<!-- Node14&#45;&gt;Node15 -->
<g id="edge30" class="edge"><title>Node14&#45;&gt;Node15</title>
<path fill="none" stroke="midnightblue" d="M823,-116.362C823,-108.922 823,-98.7427 823,-89.7276"/>
<polygon fill="midnightblue" stroke="midnightblue" points="826.5,-89.5706 823,-79.5707 819.5,-89.5707 826.5,-89.5706"/>
</g>
<!-- Node18&#45;&gt;Node4 -->
<g id="edge40" class="edge"><title>Node18&#45;&gt;Node4</title>
<path fill="none" stroke="midnightblue" d="M1072.86,-297.47C1072.58,-276.212 1072,-226.642 1072,-185 1072,-185 1072,-185 1072,-127 1072,-73.7315 1023.96,-76.4831 974,-58 888.656,-26.4256 606.997,-14.9083 512.911,-11.8868"/>
<polygon fill="midnightblue" stroke="midnightblue" points="512.745,-8.38001 502.641,-11.5671 512.527,-15.3766 512.745,-8.38001"/>
</g>
<!-- Node18&#45;&gt;Node5 -->
<g id="edge38" class="edge"><title>Node18&#45;&gt;Node5</title>
<path fill="none" stroke="midnightblue" d="M1035.31,-297.484C987.185,-284.06 905.296,-261.216 864.545,-249.847"/>
<polygon fill="midnightblue" stroke="midnightblue" points="865.232,-246.405 854.659,-247.089 863.351,-253.148 865.232,-246.405"/>
</g>
<!-- Node18&#45;&gt;Node8 -->
<g id="edge42" class="edge"><title>Node18&#45;&gt;Node8</title>
<path fill="none" stroke="midnightblue" d="M1081.75,-297.267C1089.7,-287.517 1101.59,-272.932 1111.05,-261.336"/>
<polygon fill="midnightblue" stroke="midnightblue" points="1113.8,-263.496 1117.41,-253.534 1108.38,-259.072 1113.8,-263.496"/>
</g>
<!-- Node19&#45;&gt;Node5 -->
<g id="edge50" class="edge"><title>Node19&#45;&gt;Node5</title>
<path fill="none" stroke="midnightblue" d="M748.999,-297.267C767.562,-286.197 796.579,-268.893 816.841,-256.81"/>
<polygon fill="midnightblue" stroke="midnightblue" points="818.67,-259.795 825.466,-251.667 815.084,-253.783 818.67,-259.795"/>
</g>
<!-- Node19&#45;&gt;Node6 -->
<g id="edge48" class="edge"><title>Node19&#45;&gt;Node6</title>
<path fill="none" stroke="midnightblue" d="M727.231,-297.451C722.419,-282.079 715.954,-253.062 727,-232 761.126,-166.928 804.874,-182.948 863,-138 884.499,-121.375 907.911,-100.88 923.82,-86.5638"/>
<polygon fill="midnightblue" stroke="midnightblue" points="926.342,-89.001 931.405,-79.6939 921.643,-83.8126 926.342,-89.001"/>
</g>
<!-- Node19&#45;&gt;Node7 -->
<g id="edge46" class="edge"><title>Node19&#45;&gt;Node7</title>
<path fill="none" stroke="midnightblue" d="M734.633,-297.267C737.772,-287.991 742.394,-274.336 746.215,-263.045"/>
<polygon fill="midnightblue" stroke="midnightblue" points="749.544,-264.128 749.435,-253.534 742.913,-261.884 749.544,-264.128"/>
</g>
<!-- Node20 -->
<g id="node46" class="node"><title>Node20</title>
<a xlink:href="_t_data_record_8h.html" target="_top" xlink:title="tree/TDataRecord.h">
<polygon fill="white" stroke="black" points="577.5,-232.5 577.5,-253.5 680.5,-253.5 680.5,-232.5 577.5,-232.5"/>
<text text-anchor="middle" x="629" y="-240.5" font-family="Helvetica,sans-Serif" font-size="10.00">tree/TDataRecord.h</text>
</a>
</g>
<!-- Node19&#45;&gt;Node20 -->
<g id="edge52" class="edge"><title>Node19&#45;&gt;Node20</title>
<path fill="none" stroke="midnightblue" d="M714.157,-297.267C697.818,-286.855 672.824,-270.927 654.133,-259.016"/>
<polygon fill="midnightblue" stroke="midnightblue" points="655.844,-255.956 645.53,-253.534 652.082,-261.859 655.844,-255.956"/>
</g>
<!-- Node19&#45;&gt;Node31 -->
<g id="edge92" class="edge"><title>Node19&#45;&gt;Node31</title>
<path fill="none" stroke="midnightblue" d="M696.931,-301.228C642.595,-290.427 535.47,-269.133 466.92,-255.507"/>
<polygon fill="midnightblue" stroke="midnightblue" points="467.587,-252.071 457.097,-253.554 466.223,-258.937 467.587,-252.071"/>
</g>
<!-- Node20&#45;&gt;Node10 -->
<g id="edge86" class="edge"><title>Node20&#45;&gt;Node10</title>
<path fill="none" stroke="midnightblue" d="M637.901,-232.452C645.642,-223.105 656.998,-208.966 666,-196 677.307,-179.714 688.934,-160.372 697.08,-146.317"/>
<polygon fill="midnightblue" stroke="midnightblue" points="700.178,-147.949 702.116,-137.533 694.106,-144.467 700.178,-147.949"/>
</g>
<!-- Node21 -->
<g id="node48" class="node"><title>Node21</title>
<a xlink:href="_t_i_d_8h.html" target="_top" xlink:title="TID.h">
<polygon fill="white" stroke="black" points="525.5,-174.5 525.5,-195.5 566.5,-195.5 566.5,-174.5 525.5,-174.5"/>
<text text-anchor="middle" x="546" y="-182.5" font-family="Helvetica,sans-Serif" font-size="10.00">TID.h</text>
</a>
</g>
<!-- Node20&#45;&gt;Node21 -->
<g id="edge54" class="edge"><title>Node20&#45;&gt;Node21</title>
<path fill="none" stroke="midnightblue" d="M613.777,-232.362C601.375,-223.696 583.654,-211.313 569.443,-201.382"/>
<polygon fill="midnightblue" stroke="midnightblue" points="571.329,-198.43 561.127,-195.571 567.319,-204.168 571.329,-198.43"/>
</g>
<!-- Node26 -->
<g id="node62" class="node"><title>Node26</title>
<polygon fill="white" stroke="#bfbfbf" points="408.5,-58.5 408.5,-79.5 449.5,-79.5 449.5,-58.5 408.5,-58.5"/>
<text text-anchor="middle" x="429" y="-66.5" font-family="Helvetica,sans-Serif" font-size="10.00">ctime</text>
</g>
<!-- Node20&#45;&gt;Node26 -->
<g id="edge90" class="edge"><title>Node20&#45;&gt;Node26</title>
<path fill="none" stroke="midnightblue" d="M633.434,-232.383C642.578,-208.618 660.473,-150.522 633,-116 611.713,-89.251 511.553,-76.4349 459.933,-71.5191"/>
<polygon fill="midnightblue" stroke="midnightblue" points="459.977,-68.0086 449.7,-70.5878 459.342,-74.9798 459.977,-68.0086"/>
</g>
<!-- Node30 -->
<g id="node71" class="node"><title>Node30</title>
<polygon fill="white" stroke="#bfbfbf" points="574,-116.5 574,-137.5 624,-137.5 624,-116.5 574,-116.5"/>
<text text-anchor="middle" x="599" y="-124.5" font-family="Helvetica,sans-Serif" font-size="10.00">iomanip</text>
</g>
<!-- Node20&#45;&gt;Node30 -->
<g id="edge88" class="edge"><title>Node20&#45;&gt;Node30</title>
<path fill="none" stroke="midnightblue" d="M626.231,-232.295C621.253,-213.045 610.713,-172.289 604.304,-147.509"/>
<polygon fill="midnightblue" stroke="midnightblue" points="607.654,-146.484 601.762,-137.679 600.877,-148.237 607.654,-146.484"/>
</g>
<!-- Node21&#45;&gt;Node10 -->
<g id="edge56" class="edge"><title>Node21&#45;&gt;Node10</title>
<path fill="none" stroke="midnightblue" d="M566.517,-177.654C592.52,-168.345 637.842,-152.118 670.184,-140.539"/>
<polygon fill="midnightblue" stroke="midnightblue" points="671.534,-143.773 679.769,-137.107 669.174,-137.183 671.534,-143.773"/>
</g>
<!-- Node21&#45;&gt;Node13 -->
<g id="edge80" class="edge"><title>Node21&#45;&gt;Node13</title>
<path fill="none" stroke="midnightblue" d="M566.576,-181.963C628.976,-172.754 816.847,-145.028 899.382,-132.847"/>
<polygon fill="midnightblue" stroke="midnightblue" points="899.994,-136.295 909.376,-131.372 898.972,-129.37 899.994,-136.295"/>
</g>
<!-- Node21&#45;&gt;Node14 -->
<g id="edge58" class="edge"><title>Node21&#45;&gt;Node14</title>
<path fill="none" stroke="midnightblue" d="M566.82,-180.641C612.374,-171.102 721.603,-148.231 781.674,-135.653"/>
<polygon fill="midnightblue" stroke="midnightblue" points="782.514,-139.053 791.585,-133.578 781.08,-132.202 782.514,-139.053"/>
</g>
<!-- Node22 -->
<g id="node52" class="node"><title>Node22</title>
<a xlink:href="time_8h.html" target="_top" xlink:title="base/std_ext/time.h">
<polygon fill="white" stroke="black" points="177.5,-116.5 177.5,-137.5 280.5,-137.5 280.5,-116.5 177.5,-116.5"/>
<text text-anchor="middle" x="229" y="-124.5" font-family="Helvetica,sans-Serif" font-size="10.00">base/std_ext/time.h</text>
</a>
</g>
<!-- Node21&#45;&gt;Node22 -->
<g id="edge60" class="edge"><title>Node21&#45;&gt;Node22</title>
<path fill="none" stroke="midnightblue" d="M525.201,-181.194C478.302,-172.614 362.788,-151.479 290.659,-138.281"/>
<polygon fill="midnightblue" stroke="midnightblue" points="291.247,-134.831 280.781,-136.474 289.988,-141.717 291.247,-134.831"/>
</g>
<!-- Node21&#45;&gt;Node26 -->
<g id="edge84" class="edge"><title>Node21&#45;&gt;Node26</title>
<path fill="none" stroke="midnightblue" d="M545.733,-174.413C544.828,-159.7 541.183,-132.97 527,-116 509.764,-95.3763 481.368,-83.1522 459.568,-76.3654"/>
<polygon fill="midnightblue" stroke="midnightblue" points="460.356,-72.9499 449.777,-73.5383 458.414,-79.6752 460.356,-72.9499"/>
</g>
<!-- Node27 -->
<g id="node64" class="node"><title>Node27</title>
<polygon fill="white" stroke="#bfbfbf" points="400,-116.5 400,-137.5 462,-137.5 462,-116.5 400,-116.5"/>
<text text-anchor="middle" x="431" y="-124.5" font-family="Helvetica,sans-Serif" font-size="10.00">type_traits</text>
</g>
<!-- Node21&#45;&gt;Node27 -->
<g id="edge74" class="edge"><title>Node21&#45;&gt;Node27</title>
<path fill="none" stroke="midnightblue" d="M525.44,-174.631C507.593,-165.63 481.512,-152.475 461.277,-142.27"/>
<polygon fill="midnightblue" stroke="midnightblue" points="462.665,-139.05 452.16,-137.672 459.512,-145.3 462.665,-139.05"/>
</g>
<!-- Node28 -->
<g id="node66" class="node"><title>Node28</title>
<polygon fill="white" stroke="#bfbfbf" points="480,-116.5 480,-137.5 518,-137.5 518,-116.5 480,-116.5"/>
<text text-anchor="middle" x="499" y="-124.5" font-family="Helvetica,sans-Serif" font-size="10.00">tuple</text>
</g>
<!-- Node21&#45;&gt;Node28 -->
<g id="edge76" class="edge"><title>Node21&#45;&gt;Node28</title>
<path fill="none" stroke="midnightblue" d="M537.379,-174.362C530.82,-166.268 521.634,-154.932 513.894,-145.38"/>
<polygon fill="midnightblue" stroke="midnightblue" points="516.581,-143.136 507.566,-137.571 511.142,-147.544 516.581,-143.136"/>
</g>
<!-- Node29 -->
<g id="node68" class="node"><title>Node29</title>
<polygon fill="white" stroke="#bfbfbf" points="336,-116.5 336,-137.5 382,-137.5 382,-116.5 336,-116.5"/>
<text text-anchor="middle" x="359" y="-124.5" font-family="Helvetica,sans-Serif" font-size="10.00">cstdint</text>
</g>
<!-- Node21&#45;&gt;Node29 -->
<g id="edge78" class="edge"><title>Node21&#45;&gt;Node29</title>
<path fill="none" stroke="midnightblue" d="M525.366,-179.005C497.277,-170.788 445.229,-155.365 391.693,-138.151"/>
<polygon fill="midnightblue" stroke="midnightblue" points="392.63,-134.776 382.038,-135.032 390.478,-141.437 392.63,-134.776"/>
</g>
<!-- Node21&#45;&gt;Node30 -->
<g id="edge82" class="edge"><title>Node21&#45;&gt;Node30</title>
<path fill="none" stroke="midnightblue" d="M555.721,-174.362C563.192,-166.186 573.686,-154.702 582.469,-145.091"/>
<polygon fill="midnightblue" stroke="midnightblue" points="585.179,-147.314 589.341,-137.571 580.011,-142.592 585.179,-147.314"/>
</g>
<!-- Node22&#45;&gt;Node23 -->
<g id="edge62" class="edge"><title>Node22&#45;&gt;Node23</title>
<path fill="none" stroke="midnightblue" d="M208.899,-116.497C191.718,-107.519 166.77,-94.4835 147.355,-84.3387"/>
<polygon fill="midnightblue" stroke="midnightblue" points="148.811,-81.1503 138.327,-79.6212 145.569,-87.3544 148.811,-81.1503"/>
</g>
<!-- Node25 -->
<g id="node60" class="node"><title>Node25</title>
<polygon fill="white" stroke="#bfbfbf" points="228,-58.5 228,-79.5 274,-79.5 274,-58.5 228,-58.5"/>
<text text-anchor="middle" x="251" y="-66.5" font-family="Helvetica,sans-Serif" font-size="10.00">cstring</text>
</g>
<!-- Node22&#45;&gt;Node25 -->
<g id="edge70" class="edge"><title>Node22&#45;&gt;Node25</title>
<path fill="none" stroke="midnightblue" d="M233.035,-116.362C235.919,-108.758 239.888,-98.294 243.363,-89.1349"/>
<polygon fill="midnightblue" stroke="midnightblue" points="246.716,-90.1619 246.99,-79.5707 240.171,-87.6793 246.716,-90.1619"/>
</g>
<!-- Node22&#45;&gt;Node26 -->
<g id="edge72" class="edge"><title>Node22&#45;&gt;Node26</title>
<path fill="none" stroke="midnightblue" d="M265.218,-116.497C303.331,-105.444 362.659,-88.239 398.476,-77.8519"/>
<polygon fill="midnightblue" stroke="midnightblue" points="399.723,-81.1345 408.353,-74.9877 397.774,-74.4115 399.723,-81.1345"/>
</g>
<!-- Node23&#45;&gt;Node4 -->
<g id="edge64" class="edge"><title>Node23&#45;&gt;Node4</title>
<path fill="none" stroke="midnightblue" d="M172.188,-60.2197C176.86,-59.4672 181.513,-58.7192 186,-58 282.813,-42.4833 397.48,-24.3443 451.261,-15.8507"/>
<polygon fill="midnightblue" stroke="midnightblue" points="451.851,-19.3011 461.182,-14.2842 450.759,-12.3867 451.851,-19.3011"/>
</g>
<!-- Node23&#45;&gt;Node12 -->
<g id="edge68" class="edge"><title>Node23&#45;&gt;Node12</title>
<path fill="none" stroke="midnightblue" d="M172.192,-62.4533C187.324,-60.8008 203.787,-59.1667 219,-58 615.107,-27.621 1096.66,-14.9664 1233.88,-11.8217"/>
<polygon fill="midnightblue" stroke="midnightblue" points="1233.97,-15.3205 1243.89,-11.5952 1233.82,-8.32229 1233.97,-15.3205"/>
</g>
<!-- Node24 -->
<g id="node57" class="node"><title>Node24</title>
<polygon fill="white" stroke="#bfbfbf" points="92,-0.5 92,-21.5 144,-21.5 144,-0.5 92,-0.5"/>
<text text-anchor="middle" x="118" y="-8.5" font-family="Helvetica,sans-Serif" font-size="10.00">sstream</text>
</g>
<!-- Node23&#45;&gt;Node24 -->
<g id="edge66" class="edge"><title>Node23&#45;&gt;Node24</title>
<path fill="none" stroke="midnightblue" d="M118,-58.3619C118,-50.9219 118,-40.7427 118,-31.7276"/>
<polygon fill="midnightblue" stroke="midnightblue" points="121.5,-31.5706 118,-21.5707 114.5,-31.5707 121.5,-31.5706"/>
</g>
<!-- Node31&#45;&gt;Node4 -->
<g id="edge96" class="edge"><title>Node31&#45;&gt;Node4</title>
<path fill="none" stroke="midnightblue" d="M344.832,-236.513C266.149,-224.815 140.13,-193.706 169,-116 180.853,-84.0967 189.432,-74.8544 219,-58 258.344,-35.5728 390.693,-20.0131 451.267,-13.8933"/>
<polygon fill="midnightblue" stroke="midnightblue" points="451.76,-17.3617 461.366,-12.8936 451.07,-10.3958 451.76,-17.3617"/>
</g>
<!-- Node31&#45;&gt;Node21 -->
<g id="edge94" class="edge"><title>Node31&#45;&gt;Node21</title>
<path fill="none" stroke="midnightblue" d="M429.715,-232.497C453.846,-222.641 489.953,-207.892 515.522,-197.449"/>
<polygon fill="midnightblue" stroke="midnightblue" points="517.16,-200.561 525.094,-193.539 514.513,-194.08 517.16,-200.561"/>
</g>
<!-- Node31&#45;&gt;Node26 -->
<g id="edge98" class="edge"><title>Node31&#45;&gt;Node26</title>
<path fill="none" stroke="midnightblue" d="M388.803,-232.355C359.362,-210.396 299.749,-158.561 327,-116 342.569,-91.6836 374.257,-79.7724 398.206,-74.0512"/>
<polygon fill="midnightblue" stroke="midnightblue" points="399.208,-77.416 408.252,-71.8978 397.74,-70.5715 399.208,-77.416"/>
</g>
<!-- Node32 -->
<g id="node82" class="node"><title>Node32</title>
<a xlink:href="_git_info_8h.html" target="_top" xlink:title="base/GitInfo.h">
<polygon fill="white" stroke="black" points="0,-174.5 0,-195.5 78,-195.5 78,-174.5 0,-174.5"/>
<text text-anchor="middle" x="39" y="-182.5" font-family="Helvetica,sans-Serif" font-size="10.00">base/GitInfo.h</text>
</a>
</g>
<!-- Node31&#45;&gt;Node32 -->
<g id="edge100" class="edge"><title>Node31&#45;&gt;Node32</title>
<path fill="none" stroke="midnightblue" d="M344.951,-233.617C273.61,-222.281 154.891,-203.415 88.2547,-192.827"/>
<polygon fill="midnightblue" stroke="midnightblue" points="88.4479,-189.314 78.0225,-191.201 87.3493,-196.227 88.4479,-189.314"/>
</g>
<!-- Node32&#45;&gt;Node4 -->
<g id="edge102" class="edge"><title>Node32&#45;&gt;Node4</title>
<path fill="none" stroke="midnightblue" d="M36.4904,-174.272C31.4587,-149.757 23.168,-89.3362 55,-58 83.182,-30.2569 357.78,-16.2222 451.125,-12.2247"/>
<polygon fill="midnightblue" stroke="midnightblue" points="451.489,-15.7126 461.334,-11.7969 451.196,-8.71878 451.489,-15.7126"/>
</g>
</g>
</svg>
