<?xml version="1.0" encoding="UTF-8" standalone="no"?>
<!DOCTYPE svg PUBLIC "-//W3C//DTD SVG 1.1//EN"
 "http://www.w3.org/Graphics/SVG/1.1/DTD/svg11.dtd">
<!-- Generated by graphviz version 2.26.3 (20100126.1600)
 -->
<!-- Title: src/calibration/gui/EditorCanvas.h Pages: 1 -->
<svg width="1521pt" height="478pt"
 viewBox="0.00 0.00 1520.97 478.00" xmlns="http://www.w3.org/2000/svg" xmlns:xlink="http://www.w3.org/1999/xlink">
<g id="graph1" class="graph" transform="scale(1 1) rotate(0) translate(4 474)">
<title>src/calibration/gui/EditorCanvas.h</title>
<polygon fill="white" stroke="white" points="-4,5 -4,-474 1517.97,-474 1517.97,5 -4,5"/>
<!-- Node1 -->
<g id="node1" class="node"><title>Node1</title>
<polygon fill="#bfbfbf" stroke="black" points="657.5,-435 657.5,-469 750.5,-469 750.5,-435 657.5,-435"/>
<text text-anchor="start" x="665.5" y="-456" font-family="Helvetica,sans-Serif" font-size="10.00">src/calibration/gui</text>
<text text-anchor="middle" x="704" y="-443" font-family="Helvetica,sans-Serif" font-size="10.00">/EditorCanvas.h</text>
</g>
<!-- Node2 -->
<g id="node3" class="node"><title>Node2</title>
<a xlink:href="_editor_8h.html" target="_top" xlink:title="calibration/Editor.h">
<polygon fill="white" stroke="black" points="655,-376.5 655,-397.5 753,-397.5 753,-376.5 655,-376.5"/>
<text text-anchor="middle" x="704" y="-384.5" font-family="Helvetica,sans-Serif" font-size="10.00">calibration/Editor.h</text>
</a>
</g>
<!-- Node1&#45;&gt;Node2 -->
<g id="edge2" class="edge"><title>Node1&#45;&gt;Node2</title>
<path fill="none" stroke="midnightblue" d="M704,-434.922C704,-426.67 704,-416.692 704,-407.982"/>
<polygon fill="midnightblue" stroke="midnightblue" points="707.5,-407.852 704,-397.852 700.5,-407.852 707.5,-407.852"/>
</g>
<!-- Node3 -->
<g id="node5" class="node"><title>Node3</title>
<a xlink:href="root__draw_8h.html" target="_top" xlink:title="analysis/plot/root\l_draw.h">
<polygon fill="white" stroke="black" points="497.5,-305 497.5,-339 588.5,-339 588.5,-305 497.5,-305"/>
<text text-anchor="start" x="505.5" y="-326" font-family="Helvetica,sans-Serif" font-size="10.00">analysis/plot/root</text>
<text text-anchor="middle" x="543" y="-313" font-family="Helvetica,sans-Serif" font-size="10.00">_draw.h</text>
</a>
</g>
<!-- Node1&#45;&gt;Node3 -->
<g id="edge134" class="edge"><title>Node1&#45;&gt;Node3</title>
<path fill="none" stroke="midnightblue" d="M662.317,-434.866C642.797,-425.656 619.949,-413.081 602,-398 585.002,-383.718 569.75,-363.779 559.014,-347.908"/>
<polygon fill="midnightblue" stroke="midnightblue" points="561.649,-345.545 553.235,-339.107 555.797,-349.387 561.649,-345.545"/>
</g>
<!-- Node4 -->
<g id="node7" class="node"><title>Node4</title>
<polygon fill="white" stroke="#bfbfbf" points="1120.5,-0.5 1120.5,-21.5 1161.5,-21.5 1161.5,-0.5 1120.5,-0.5"/>
<text text-anchor="middle" x="1141" y="-8.5" font-family="Helvetica,sans-Serif" font-size="10.00">string</text>
</g>
<!-- Node1&#45;&gt;Node4 -->
<g id="edge124" class="edge"><title>Node1&#45;&gt;Node4</title>
<path fill="none" stroke="midnightblue" d="M750.821,-443.652C888.768,-419.02 1285.73,-347.877 1313,-340 1395.78,-316.09 1436.34,-332.912 1493,-268 1515.9,-241.77 1512,-226.817 1512,-192 1512,-192 1512,-192 1512,-127 1512,-55.9097 1260.72,-23.2643 1171.76,-13.9347"/>
<polygon fill="midnightblue" stroke="midnightblue" points="1172.05,-10.446 1161.74,-12.9115 1171.33,-17.4097 1172.05,-10.446"/>
</g>
<!-- Node7 -->
<g id="node13" class="node"><title>Node7</title>
<polygon fill="white" stroke="#bfbfbf" points="439.5,-246.5 439.5,-267.5 474.5,-267.5 474.5,-246.5 439.5,-246.5"/>
<text text-anchor="middle" x="457" y="-254.5" font-family="Helvetica,sans-Serif" font-size="10.00">map</text>
</g>
<!-- Node1&#45;&gt;Node7 -->
<g id="edge126" class="edge"><title>Node1&#45;&gt;Node7</title>
<path fill="none" stroke="midnightblue" d="M657.43,-439.83C608.354,-424.602 532.295,-393.756 489,-340 474.17,-321.586 465.633,-295.513 461.166,-277.526"/>
<polygon fill="midnightblue" stroke="midnightblue" points="464.573,-276.725 458.94,-267.751 457.748,-278.279 464.573,-276.725"/>
</g>
<!-- Node9 -->
<g id="node17" class="node"><title>Node9</title>
<polygon fill="white" stroke="#bfbfbf" points="529.5,-246.5 529.5,-267.5 588.5,-267.5 588.5,-246.5 529.5,-246.5"/>
<text text-anchor="middle" x="559" y="-254.5" font-family="Helvetica,sans-Serif" font-size="10.00">functional</text>
</g>
<!-- Node1&#45;&gt;Node9 -->
<g id="edge130" class="edge"><title>Node1&#45;&gt;Node9</title>
<path fill="none" stroke="midnightblue" d="M682.165,-434.799C670.491,-424.878 656.419,-411.682 646,-398 617.457,-360.517 622.828,-343.403 597,-304 590.529,-294.127 582.406,-283.855 575.334,-275.441"/>
<polygon fill="midnightblue" stroke="midnightblue" points="577.882,-273.036 568.712,-267.73 572.572,-277.597 577.882,-273.036"/>
</g>
<!-- Node10 -->
<g id="node19" class="node"><title>Node10</title>
<polygon fill="white" stroke="#bfbfbf" points="66,-116.5 66,-137.5 122,-137.5 122,-116.5 66,-116.5"/>
<text text-anchor="middle" x="94" y="-124.5" font-family="Helvetica,sans-Serif" font-size="10.00">Rtypes.h</text>
</g>
<!-- Node1&#45;&gt;Node10 -->
<g id="edge132" class="edge"><title>Node1&#45;&gt;Node10</title>
<path fill="none" stroke="midnightblue" d="M657.263,-448.341C500.028,-435.415 0,-389.038 0,-322 0,-322 0,-322 0,-257 0,-208.791 42.9745,-166.342 70.8093,-143.904"/>
<polygon fill="midnightblue" stroke="midnightblue" points="73.1626,-146.507 78.8973,-137.598 68.8588,-140.986 73.1626,-146.507"/>
</g>
<!-- Node11 -->
<g id="node21" class="node"><title>Node11</title>
<a xlink:href="interval_8h.html" target="_top" xlink:title="base/interval.h">
<polygon fill="white" stroke="black" points="352,-181.5 352,-202.5 432,-202.5 432,-181.5 352,-181.5"/>
<text text-anchor="middle" x="392" y="-189.5" font-family="Helvetica,sans-Serif" font-size="10.00">base/interval.h</text>
</a>
</g>
<!-- Node1&#45;&gt;Node11 -->
<g id="edge110" class="edge"><title>Node1&#45;&gt;Node11</title>
<path fill="none" stroke="midnightblue" d="M657.432,-435.838C610.806,-417.922 538.988,-385.434 489,-340 458.592,-312.362 453.385,-302.458 431,-268 419.203,-249.841 408.176,-227.672 400.878,-211.975"/>
<polygon fill="midnightblue" stroke="midnightblue" points="403.983,-210.349 396.65,-202.702 397.614,-213.253 403.983,-210.349"/>
</g>
<!-- Node33 -->
<g id="node89" class="node"><title>Node33</title>
<a xlink:href="_dialogs_8h.html" target="_top" xlink:title="Dialogs.h">
<polygon fill="white" stroke="black" points="1246,-311.5 1246,-332.5 1304,-332.5 1304,-311.5 1246,-311.5"/>
<text text-anchor="middle" x="1275" y="-319.5" font-family="Helvetica,sans-Serif" font-size="10.00">Dialogs.h</text>
</a>
</g>
<!-- Node1&#45;&gt;Node33 -->
<g id="edge112" class="edge"><title>Node1&#45;&gt;Node33</title>
<path fill="none" stroke="midnightblue" d="M723.137,-434.649C745.951,-414.369 783.111,-382.714 800,-376 970.806,-308.095 1031.25,-373.401 1212,-340 1219.87,-338.547 1228.16,-336.534 1236.06,-334.378"/>
<polygon fill="midnightblue" stroke="midnightblue" points="1237.13,-337.712 1245.79,-331.603 1235.21,-330.98 1237.13,-337.712"/>
</g>
<!-- Node37 -->
<g id="node101" class="node"><title>Node37</title>
<polygon fill="white" stroke="#bfbfbf" points="809,-376.5 809,-397.5 839,-397.5 839,-376.5 809,-376.5"/>
<text text-anchor="middle" x="824" y="-384.5" font-family="Helvetica,sans-Serif" font-size="10.00">set</text>
</g>
<!-- Node1&#45;&gt;Node37 -->
<g id="edge128" class="edge"><title>Node1&#45;&gt;Node37</title>
<path fill="none" stroke="midnightblue" d="M735.529,-434.922C755.634,-424.032 781.292,-410.134 799.793,-400.112"/>
<polygon fill="midnightblue" stroke="midnightblue" points="801.623,-403.102 808.749,-395.261 798.289,-396.947 801.623,-403.102"/>
</g>
<!-- Node38 -->
<g id="node106" class="node"><title>Node38</title>
<a xlink:href="_indicator__traits_8h.html" target="_top" xlink:title="calibration/gui/Indicator\l_traits.h">
<polygon fill="white" stroke="black" points="65.5,-175 65.5,-209 182.5,-209 182.5,-175 65.5,-175"/>
<text text-anchor="start" x="73.5" y="-196" font-family="Helvetica,sans-Serif" font-size="10.00">calibration/gui/Indicator</text>
<text text-anchor="middle" x="124" y="-183" font-family="Helvetica,sans-Serif" font-size="10.00">_traits.h</text>
</a>
</g>
<!-- Node1&#45;&gt;Node38 -->
<g id="edge136" class="edge"><title>Node1&#45;&gt;Node38</title>
<path fill="none" stroke="midnightblue" d="M657.218,-440.387C620.629,-430.71 568.793,-415.684 525,-398 386.437,-342.048 231.507,-254.971 161.698,-214.318"/>
<polygon fill="midnightblue" stroke="midnightblue" points="163.219,-211.153 152.819,-209.13 159.687,-217.197 163.219,-211.153"/>
</g>
<!-- Node39 -->
<g id="node109" class="node"><title>Node39</title>
<polygon fill="white" stroke="#bfbfbf" points="1137.5,-376.5 1137.5,-397.5 1202.5,-397.5 1202.5,-376.5 1137.5,-376.5"/>
<text text-anchor="middle" x="1170" y="-384.5" font-family="Helvetica,sans-Serif" font-size="10.00">TCanvas.h</text>
</g>
<!-- Node1&#45;&gt;Node39 -->
<g id="edge140" class="edge"><title>Node1&#45;&gt;Node39</title>
<path fill="none" stroke="midnightblue" d="M750.552,-447.657C828.298,-440.036 989.319,-422.688 1124,-398 1125.09,-397.8 1126.19,-397.591 1127.31,-397.373"/>
<polygon fill="midnightblue" stroke="midnightblue" points="1128.36,-400.729 1137.42,-395.245 1126.92,-393.879 1128.36,-400.729"/>
</g>
<!-- Node40 -->
<g id="node111" class="node"><title>Node40</title>
<polygon fill="white" stroke="#bfbfbf" points="1219.5,-376.5 1219.5,-397.5 1292.5,-397.5 1292.5,-376.5 1219.5,-376.5"/>
<text text-anchor="middle" x="1256" y="-384.5" font-family="Helvetica,sans-Serif" font-size="10.00">TPaveText.h</text>
</g>
<!-- Node1&#45;&gt;Node40 -->
<g id="edge142" class="edge"><title>Node1&#45;&gt;Node40</title>
<path fill="none" stroke="midnightblue" d="M750.774,-449.116C838.818,-443.234 1035.26,-427.955 1209.15,-398.16"/>
<polygon fill="midnightblue" stroke="midnightblue" points="1209.99,-401.565 1219.25,-396.408 1208.8,-394.668 1209.99,-401.565"/>
</g>
<!-- Node41 -->
<g id="node113" class="node"><title>Node41</title>
<polygon fill="white" stroke="#bfbfbf" points="1310,-376.5 1310,-397.5 1442,-397.5 1442,-376.5 1310,-376.5"/>
<text text-anchor="middle" x="1376" y="-384.5" font-family="Helvetica,sans-Serif" font-size="10.00">TRootEmbeddedCanvas.h</text>
</g>
<!-- Node1&#45;&gt;Node41 -->
<g id="edge144" class="edge"><title>Node1&#45;&gt;Node41</title>
<path fill="none" stroke="midnightblue" d="M750.537,-448.673C849.578,-441.403 1088.75,-422.834 1299.75,-398.099"/>
<polygon fill="midnightblue" stroke="midnightblue" points="1300.25,-401.564 1309.77,-396.917 1299.43,-394.612 1300.25,-401.564"/>
</g>
<!-- Node2&#45;&gt;Node3 -->
<g id="edge4" class="edge"><title>Node2&#45;&gt;Node3</title>
<path fill="none" stroke="midnightblue" d="M677.774,-376.412C655.377,-367.37 622.487,-354.091 594.806,-342.915"/>
<polygon fill="midnightblue" stroke="midnightblue" points="595.84,-339.559 585.257,-339.06 593.22,-346.05 595.84,-339.559"/>
</g>
<!-- Node2&#45;&gt;Node4 -->
<g id="edge106" class="edge"><title>Node2&#45;&gt;Node4</title>
<path fill="none" stroke="midnightblue" d="M753.08,-377.783C756.771,-377.157 760.442,-376.555 764,-376 862.808,-360.579 1198,-357.004 1198,-257 1198,-257 1198,-257 1198,-127 1198,-89.5289 1173.75,-51.5841 1156.88,-29.7281"/>
<polygon fill="midnightblue" stroke="midnightblue" points="1159.4,-27.2705 1150.41,-21.6538 1153.93,-31.6467 1159.4,-27.2705"/>
</g>
<!-- Node6 -->
<g id="node11" class="node"><title>Node6</title>
<polygon fill="white" stroke="#bfbfbf" points="141,-58.5 141,-79.5 185,-79.5 185,-58.5 141,-58.5"/>
<text text-anchor="middle" x="163" y="-66.5" font-family="Helvetica,sans-Serif" font-size="10.00">vector</text>
</g>
<!-- Node2&#45;&gt;Node6 -->
<g id="edge108" class="edge"><title>Node2&#45;&gt;Node6</title>
<path fill="none" stroke="midnightblue" d="M654.606,-381.516C515.597,-364.927 126.623,-310.165 57,-210 33.1553,-175.695 34.2194,-151.02 57,-116 73.136,-91.1943 105.692,-79.3793 130.49,-73.815"/>
<polygon fill="midnightblue" stroke="midnightblue" points="131.456,-77.1911 140.572,-71.7933 130.079,-70.3277 131.456,-77.1911"/>
</g>
<!-- Node8 -->
<g id="node15" class="node"><title>Node8</title>
<polygon fill="white" stroke="#bfbfbf" points="938,-246.5 938,-267.5 990,-267.5 990,-246.5 938,-246.5"/>
<text text-anchor="middle" x="964" y="-254.5" font-family="Helvetica,sans-Serif" font-size="10.00">memory</text>
</g>
<!-- Node2&#45;&gt;Node8 -->
<g id="edge104" class="edge"><title>Node2&#45;&gt;Node8</title>
<path fill="none" stroke="midnightblue" d="M725.277,-376.362C771.385,-353.308 880.639,-298.681 933.842,-272.079"/>
<polygon fill="midnightblue" stroke="midnightblue" points="935.415,-275.206 942.794,-267.603 932.284,-268.945 935.415,-275.206"/>
</g>
<!-- Node2&#45;&gt;Node11 -->
<g id="edge20" class="edge"><title>Node2&#45;&gt;Node11</title>
<path fill="none" stroke="midnightblue" d="M698.999,-376.225C686.113,-349.697 649.104,-280.857 597,-246 550.272,-214.74 486.32,-201.559 442.335,-196.011"/>
<polygon fill="midnightblue" stroke="midnightblue" points="442.501,-192.507 432.161,-194.819 441.686,-199.459 442.501,-192.507"/>
</g>
<!-- Node18 -->
<g id="node36" class="node"><title>Node18</title>
<a xlink:href="_data_manager_8h.html" target="_top" xlink:title="DataManager.h">
<polygon fill="white" stroke="black" points="951.5,-311.5 951.5,-332.5 1034.5,-332.5 1034.5,-311.5 951.5,-311.5"/>
<text text-anchor="middle" x="993" y="-319.5" font-family="Helvetica,sans-Serif" font-size="10.00">DataManager.h</text>
</a>
</g>
<!-- Node2&#45;&gt;Node18 -->
<g id="edge36" class="edge"><title>Node2&#45;&gt;Node18</title>
<path fill="none" stroke="midnightblue" d="M750.754,-376.484C802.982,-364.738 887.281,-345.778 941.4,-333.606"/>
<polygon fill="midnightblue" stroke="midnightblue" points="942.483,-336.95 951.471,-331.34 940.946,-330.12 942.483,-336.95"/>
</g>
<!-- Node19 -->
<g id="node41" class="node"><title>Node19</title>
<a xlink:href="_data_base_8h.html" target="_top" xlink:title="DataBase.h">
<polygon fill="white" stroke="black" points="690,-311.5 690,-332.5 758,-332.5 758,-311.5 690,-311.5"/>
<text text-anchor="middle" x="724" y="-319.5" font-family="Helvetica,sans-Serif" font-size="10.00">DataBase.h</text>
</a>
</g>
<!-- Node2&#45;&gt;Node19 -->
<g id="edge44" class="edge"><title>Node2&#45;&gt;Node19</title>
<path fill="none" stroke="midnightblue" d="M707.303,-376.267C710.128,-367.085 714.272,-353.615 717.726,-342.392"/>
<polygon fill="midnightblue" stroke="midnightblue" points="721.163,-343.121 720.759,-332.534 714.473,-341.062 721.163,-343.121"/>
</g>
<!-- Node3&#45;&gt;Node4 -->
<g id="edge6" class="edge"><title>Node3&#45;&gt;Node4</title>
<path fill="none" stroke="midnightblue" d="M533.868,-304.537C528.991,-294.216 523.491,-280.716 521,-268 509.593,-209.765 551.167,-130.938 563,-116 593.952,-76.9242 611.687,-73.697 659,-58 743.437,-29.9865 1017.65,-16.1704 1110.18,-12.222"/>
<polygon fill="midnightblue" stroke="midnightblue" points="1110.45,-15.714 1120.29,-11.7992 1110.16,-8.72007 1110.45,-15.714"/>
</g>
<!-- Node5 -->
<g id="node9" class="node"><title>Node5</title>
<polygon fill="white" stroke="#bfbfbf" points="1007.5,-246.5 1007.5,-267.5 1036.5,-267.5 1036.5,-246.5 1007.5,-246.5"/>
<text text-anchor="middle" x="1022" y="-254.5" font-family="Helvetica,sans-Serif" font-size="10.00">list</text>
</g>
<!-- Node3&#45;&gt;Node5 -->
<g id="edge8" class="edge"><title>Node3&#45;&gt;Node5</title>
<path fill="none" stroke="midnightblue" d="M588.661,-315.846C615.531,-312.275 650.181,-307.754 681,-304 818.883,-287.204 860.346,-306.291 997.17,-267.833"/>
<polygon fill="midnightblue" stroke="midnightblue" points="998.539,-271.081 1007.19,-264.963 996.611,-264.352 998.539,-271.081"/>
</g>
<!-- Node3&#45;&gt;Node6 -->
<g id="edge10" class="edge"><title>Node3&#45;&gt;Node6</title>
<path fill="none" stroke="midnightblue" d="M497.33,-306.948C442.174,-287.916 347.414,-252.458 272,-210 248.452,-196.742 188.07,-161.072 174,-138 165.229,-123.617 162.737,-104.534 162.293,-90.082"/>
<polygon fill="midnightblue" stroke="midnightblue" points="165.793,-89.664 162.295,-79.6633 158.793,-89.6627 165.793,-89.664"/>
</g>
<!-- Node3&#45;&gt;Node7 -->
<g id="edge12" class="edge"><title>Node3&#45;&gt;Node7</title>
<path fill="none" stroke="midnightblue" d="M520.405,-304.922C507.708,-295.326 491.922,-283.394 479.277,-273.837"/>
<polygon fill="midnightblue" stroke="midnightblue" points="481.19,-270.896 471.102,-267.658 476.969,-276.48 481.19,-270.896"/>
</g>
<!-- Node3&#45;&gt;Node8 -->
<g id="edge14" class="edge"><title>Node3&#45;&gt;Node8</title>
<path fill="none" stroke="midnightblue" d="M588.791,-316.028C677.699,-304.373 869.457,-278.929 927.696,-267.84"/>
<polygon fill="midnightblue" stroke="midnightblue" points="928.669,-271.212 937.754,-265.761 927.253,-264.357 928.669,-271.212"/>
</g>
<!-- Node3&#45;&gt;Node9 -->
<g id="edge16" class="edge"><title>Node3&#45;&gt;Node9</title>
<path fill="none" stroke="midnightblue" d="M547.204,-304.922C549.258,-296.579 551.746,-286.47 553.907,-277.692"/>
<polygon fill="midnightblue" stroke="midnightblue" points="557.337,-278.399 556.329,-267.852 550.54,-276.726 557.337,-278.399"/>
</g>
<!-- Node3&#45;&gt;Node10 -->
<g id="edge18" class="edge"><title>Node3&#45;&gt;Node10</title>
<path fill="none" stroke="midnightblue" d="M497.452,-319.193C421.781,-313.702 274.469,-299.239 234,-268 197.633,-239.927 223.123,-206.844 191,-174 174.769,-157.406 151.494,-145.858 131.811,-138.362"/>
<polygon fill="midnightblue" stroke="midnightblue" points="132.788,-134.994 122.194,-134.905 130.42,-141.582 132.788,-134.994"/>
</g>
<!-- Node12 -->
<g id="node23" class="node"><title>Node12</title>
<polygon fill="white" stroke="#bfbfbf" points="280,-0.5 280,-21.5 336,-21.5 336,-0.5 280,-0.5"/>
<text text-anchor="middle" x="308" y="-8.5" font-family="Helvetica,sans-Serif" font-size="10.00">algorithm</text>
</g>
<!-- Node11&#45;&gt;Node12 -->
<g id="edge22" class="edge"><title>Node11&#45;&gt;Node12</title>
<path fill="none" stroke="midnightblue" d="M351.833,-182.717C312.781,-172.782 257.566,-156.003 245,-138 219.742,-101.813 260.77,-54.0163 287.621,-28.6242"/>
<polygon fill="midnightblue" stroke="midnightblue" points="290.071,-31.1272 295.081,-21.7923 285.343,-25.9649 290.071,-31.1272"/>
</g>
<!-- Node13 -->
<g id="node25" class="node"><title>Node13</title>
<polygon fill="white" stroke="#bfbfbf" points="377.5,-116.5 377.5,-137.5 436.5,-137.5 436.5,-116.5 377.5,-116.5"/>
<text text-anchor="middle" x="407" y="-124.5" font-family="Helvetica,sans-Serif" font-size="10.00">stdexcept</text>
</g>
<!-- Node11&#45;&gt;Node13 -->
<g id="edge24" class="edge"><title>Node11&#45;&gt;Node13</title>
<path fill="none" stroke="midnightblue" d="M394.477,-181.267C396.596,-172.085 399.704,-158.615 402.294,-147.392"/>
<polygon fill="midnightblue" stroke="midnightblue" points="405.731,-148.065 404.569,-137.534 398.91,-146.491 405.731,-148.065"/>
</g>
<!-- Node14 -->
<g id="node27" class="node"><title>Node14</title>
<a xlink:href="printable_8h.html" target="_top" xlink:title="printable.h">
<polygon fill="white" stroke="black" points="454,-116.5 454,-137.5 516,-137.5 516,-116.5 454,-116.5"/>
<text text-anchor="middle" x="485" y="-124.5" font-family="Helvetica,sans-Serif" font-size="10.00">printable.h</text>
</a>
</g>
<!-- Node11&#45;&gt;Node14 -->
<g id="edge26" class="edge"><title>Node11&#45;&gt;Node14</title>
<path fill="none" stroke="midnightblue" d="M407.357,-181.267C422.119,-170.949 444.629,-155.216 461.618,-143.342"/>
<polygon fill="midnightblue" stroke="midnightblue" points="463.737,-146.131 469.929,-137.534 459.727,-140.394 463.737,-146.131"/>
</g>
<!-- Node16 -->
<g id="node32" class="node"><title>Node16</title>
<a xlink:href="types_8h.html" target="_top" xlink:title="types.h">
<polygon fill="white" stroke="black" points="253.5,-116.5 253.5,-137.5 302.5,-137.5 302.5,-116.5 253.5,-116.5"/>
<text text-anchor="middle" x="278" y="-124.5" font-family="Helvetica,sans-Serif" font-size="10.00">types.h</text>
</a>
</g>
<!-- Node11&#45;&gt;Node16 -->
<g id="edge32" class="edge"><title>Node11&#45;&gt;Node16</title>
<path fill="none" stroke="midnightblue" d="M373.43,-181.412C354.964,-170.883 326.425,-154.611 305.364,-142.602"/>
<polygon fill="midnightblue" stroke="midnightblue" points="306.983,-139.496 296.562,-137.584 303.515,-145.577 306.983,-139.496"/>
</g>
<!-- Node17 -->
<g id="node34" class="node"><title>Node17</title>
<polygon fill="white" stroke="#bfbfbf" points="320,-116.5 320,-137.5 360,-137.5 360,-116.5 320,-116.5"/>
<text text-anchor="middle" x="340" y="-124.5" font-family="Helvetica,sans-Serif" font-size="10.00">limits</text>
</g>
<!-- Node11&#45;&gt;Node17 -->
<g id="edge34" class="edge"><title>Node11&#45;&gt;Node17</title>
<path fill="none" stroke="midnightblue" d="M383.413,-181.267C375.69,-171.612 364.172,-157.215 354.94,-145.675"/>
<polygon fill="midnightblue" stroke="midnightblue" points="357.407,-143.156 348.427,-137.534 351.941,-147.529 357.407,-143.156"/>
</g>
<!-- Node14&#45;&gt;Node6 -->
<g id="edge28" class="edge"><title>Node14&#45;&gt;Node6</title>
<path fill="none" stroke="midnightblue" d="M453.633,-118.045C450.724,-117.314 447.813,-116.62 445,-116 355.211,-96.2269 247.713,-80.4607 195.146,-73.2555"/>
<polygon fill="midnightblue" stroke="midnightblue" points="195.467,-69.7671 185.087,-71.8898 194.525,-76.7035 195.467,-69.7671"/>
</g>
<!-- Node15 -->
<g id="node30" class="node"><title>Node15</title>
<polygon fill="white" stroke="#bfbfbf" points="338,-58.5 338,-79.5 390,-79.5 390,-58.5 338,-58.5"/>
<text text-anchor="middle" x="364" y="-66.5" font-family="Helvetica,sans-Serif" font-size="10.00">ostream</text>
</g>
<!-- Node14&#45;&gt;Node15 -->
<g id="edge30" class="edge"><title>Node14&#45;&gt;Node15</title>
<path fill="none" stroke="midnightblue" d="M463.088,-116.497C444.189,-107.438 416.669,-94.2462 395.424,-84.0628"/>
<polygon fill="midnightblue" stroke="midnightblue" points="396.689,-80.7876 386.158,-79.6212 393.663,-87.0999 396.689,-80.7876"/>
</g>
<!-- Node18&#45;&gt;Node4 -->
<g id="edge40" class="edge"><title>Node18&#45;&gt;Node4</title>
<path fill="none" stroke="midnightblue" d="M1030.06,-311.363C1079.26,-294.703 1160,-257.401 1160,-192 1160,-192 1160,-192 1160,-127 1160,-93.175 1152.04,-54.5229 1146.42,-31.474"/>
<polygon fill="midnightblue" stroke="midnightblue" points="1149.81,-30.6159 1143.97,-21.7784 1143.03,-32.3312 1149.81,-30.6159"/>
</g>
<!-- Node18&#45;&gt;Node5 -->
<g id="edge38" class="edge"><title>Node18&#45;&gt;Node5</title>
<path fill="none" stroke="midnightblue" d="M997.789,-311.267C1001.97,-301.896 1008.14,-288.057 1013.21,-276.7"/>
<polygon fill="midnightblue" stroke="midnightblue" points="1016.42,-278.092 1017.3,-267.534 1010.03,-275.24 1016.42,-278.092"/>
</g>
<!-- Node18&#45;&gt;Node8 -->
<g id="edge42" class="edge"><title>Node18&#45;&gt;Node8</title>
<path fill="none" stroke="midnightblue" d="M988.211,-311.267C984.03,-301.896 977.856,-288.057 972.789,-276.7"/>
<polygon fill="midnightblue" stroke="midnightblue" points="975.97,-275.24 968.7,-267.534 969.578,-278.092 975.97,-275.24"/>
</g>
<!-- Node19&#45;&gt;Node5 -->
<g id="edge50" class="edge"><title>Node19&#45;&gt;Node5</title>
<path fill="none" stroke="midnightblue" d="M758.146,-318.11C809.041,-311.709 907.672,-296.985 997.617,-267.918"/>
<polygon fill="midnightblue" stroke="midnightblue" points="998.732,-271.235 1007.13,-264.778 996.538,-264.588 998.732,-271.235"/>
</g>
<!-- Node19&#45;&gt;Node6 -->
<g id="edge48" class="edge"><title>Node19&#45;&gt;Node6</title>
<path fill="none" stroke="midnightblue" d="M710.454,-311.363C688.181,-294.484 641.814,-261.854 597,-246 489.511,-207.974 449.617,-250.408 343,-210 272.806,-183.396 208.097,-119.16 179.071,-87.4037"/>
<polygon fill="midnightblue" stroke="midnightblue" points="181.453,-84.8178 172.166,-79.7185 176.246,-89.4962 181.453,-84.8178"/>
</g>
<!-- Node19&#45;&gt;Node7 -->
<g id="edge46" class="edge"><title>Node19&#45;&gt;Node7</title>
<path fill="none" stroke="midnightblue" d="M689.913,-313.702C636.344,-300.661 533.507,-275.625 484.405,-263.672"/>
<polygon fill="midnightblue" stroke="midnightblue" points="485.049,-260.226 474.505,-261.261 483.393,-267.028 485.049,-260.226"/>
</g>
<!-- Node20 -->
<g id="node46" class="node"><title>Node20</title>
<a xlink:href="_t_data_record_8h.html" target="_top" xlink:title="tree/TDataRecord.h">
<polygon fill="white" stroke="black" points="681.5,-246.5 681.5,-267.5 784.5,-267.5 784.5,-246.5 681.5,-246.5"/>
<text text-anchor="middle" x="733" y="-254.5" font-family="Helvetica,sans-Serif" font-size="10.00">tree/TDataRecord.h</text>
</a>
</g>
<!-- Node19&#45;&gt;Node20 -->
<g id="edge52" class="edge"><title>Node19&#45;&gt;Node20</title>
<path fill="none" stroke="midnightblue" d="M725.486,-311.267C726.744,-302.18 728.584,-288.892 730.128,-277.74"/>
<polygon fill="midnightblue" stroke="midnightblue" points="733.637,-277.919 731.541,-267.534 726.703,-276.959 733.637,-277.919"/>
</g>
<!-- Node31 -->
<g id="node77" class="node"><title>Node31</title>
<a xlink:href="_t_calibration_data_8h.html" target="_top" xlink:title="tree/TCalibrationData.h">
<polygon fill="white" stroke="black" points="802,-246.5 802,-267.5 920,-267.5 920,-246.5 802,-246.5"/>
<text text-anchor="middle" x="861" y="-254.5" font-family="Helvetica,sans-Serif" font-size="10.00">tree/TCalibrationData.h</text>
</a>
</g>
<!-- Node19&#45;&gt;Node31 -->
<g id="edge92" class="edge"><title>Node19&#45;&gt;Node31</title>
<path fill="none" stroke="midnightblue" d="M746.316,-311.412C768.906,-300.694 804.04,-284.025 829.469,-271.96"/>
<polygon fill="midnightblue" stroke="midnightblue" points="831.159,-275.032 838.693,-267.584 828.158,-268.708 831.159,-275.032"/>
</g>
<!-- Node20&#45;&gt;Node10 -->
<g id="edge86" class="edge"><title>Node20&#45;&gt;Node10</title>
<path fill="none" stroke="midnightblue" d="M681.205,-252.069C590.424,-243.207 406.215,-224.192 343,-210 302.021,-200.8 190.953,-161.815 131.98,-140.708"/>
<polygon fill="midnightblue" stroke="midnightblue" points="132.886,-137.315 122.292,-137.234 130.523,-143.904 132.886,-137.315"/>
</g>
<!-- Node21 -->
<g id="node48" class="node"><title>Node21</title>
<a xlink:href="_t_i_d_8h.html" target="_top" xlink:title="TID.h">
<polygon fill="white" stroke="black" points="712.5,-181.5 712.5,-202.5 753.5,-202.5 753.5,-181.5 712.5,-181.5"/>
<text text-anchor="middle" x="733" y="-189.5" font-family="Helvetica,sans-Serif" font-size="10.00">TID.h</text>
</a>
</g>
<!-- Node20&#45;&gt;Node21 -->
<g id="edge54" class="edge"><title>Node20&#45;&gt;Node21</title>
<path fill="none" stroke="midnightblue" d="M733,-246.267C733,-237.18 733,-223.892 733,-212.74"/>
<polygon fill="midnightblue" stroke="midnightblue" points="736.5,-212.534 733,-202.534 729.5,-212.534 736.5,-212.534"/>
</g>
<!-- Node26 -->
<g id="node62" class="node"><title>Node26</title>
<polygon fill="white" stroke="#bfbfbf" points="900.5,-58.5 900.5,-79.5 941.5,-79.5 941.5,-58.5 900.5,-58.5"/>
<text text-anchor="middle" x="921" y="-66.5" font-family="Helvetica,sans-Serif" font-size="10.00">ctime</text>
</g>
<!-- Node20&#45;&gt;Node26 -->
<g id="edge90" class="edge"><title>Node20&#45;&gt;Node26</title>
<path fill="none" stroke="midnightblue" d="M766.275,-246.494C829.6,-225.753 963.432,-178.08 989,-138 1003.04,-115.997 975.071,-95.3162 950.866,-82.4391"/>
<polygon fill="midnightblue" stroke="midnightblue" points="952.374,-79.2794 941.869,-77.8995 949.22,-85.529 952.374,-79.2794"/>
</g>
<!-- Node30 -->
<g id="node71" class="node"><title>Node30</title>
<polygon fill="white" stroke="#bfbfbf" points="572,-116.5 572,-137.5 622,-137.5 622,-116.5 572,-116.5"/>
<text text-anchor="middle" x="597" y="-124.5" font-family="Helvetica,sans-Serif" font-size="10.00">iomanip</text>
</g>
<!-- Node20&#45;&gt;Node30 -->
<g id="edge88" class="edge"><title>Node20&#45;&gt;Node30</title>
<path fill="none" stroke="midnightblue" d="M721.871,-246.362C698.56,-224.079 644.392,-172.301 615.664,-144.841"/>
<polygon fill="midnightblue" stroke="midnightblue" points="617.93,-142.165 608.283,-137.785 613.094,-147.225 617.93,-142.165"/>
</g>
<!-- Node21&#45;&gt;Node10 -->
<g id="edge56" class="edge"><title>Node21&#45;&gt;Node10</title>
<path fill="none" stroke="midnightblue" d="M712.463,-189.911C621.327,-180.64 252.667,-143.14 132.253,-130.891"/>
<polygon fill="midnightblue" stroke="midnightblue" points="132.346,-127.383 122.043,-129.853 131.637,-134.347 132.346,-127.383"/>
</g>
<!-- Node21&#45;&gt;Node13 -->
<g id="edge80" class="edge"><title>Node21&#45;&gt;Node13</title>
<path fill="none" stroke="midnightblue" d="M712.252,-188.815C666.126,-181.585 551.454,-162.791 446.589,-138.237"/>
<polygon fill="midnightblue" stroke="midnightblue" points="447.336,-134.817 436.799,-135.92 445.724,-141.629 447.336,-134.817"/>
</g>
<!-- Node21&#45;&gt;Node14 -->
<g id="edge58" class="edge"><title>Node21&#45;&gt;Node14</title>
<path fill="none" stroke="midnightblue" d="M712.282,-186.57C671.379,-175.849 579.582,-151.79 526.004,-137.747"/>
<polygon fill="midnightblue" stroke="midnightblue" points="526.705,-134.313 516.145,-135.163 524.93,-141.084 526.705,-134.313"/>
</g>
<!-- Node22 -->
<g id="node52" class="node"><title>Node22</title>
<a xlink:href="time_8h.html" target="_top" xlink:title="base/std_ext/time.h">
<polygon fill="white" stroke="black" points="639.5,-116.5 639.5,-137.5 742.5,-137.5 742.5,-116.5 639.5,-116.5"/>
<text text-anchor="middle" x="691" y="-124.5" font-family="Helvetica,sans-Serif" font-size="10.00">base/std_ext/time.h</text>
</a>
</g>
<!-- Node21&#45;&gt;Node22 -->
<g id="edge60" class="edge"><title>Node21&#45;&gt;Node22</title>
<path fill="none" stroke="midnightblue" d="M726.065,-181.267C719.887,-171.707 710.705,-157.496 703.287,-146.015"/>
<polygon fill="midnightblue" stroke="midnightblue" points="706.173,-144.033 697.806,-137.534 700.294,-147.832 706.173,-144.033"/>
</g>
<!-- Node21&#45;&gt;Node26 -->
<g id="edge84" class="edge"><title>Node21&#45;&gt;Node26</title>
<path fill="none" stroke="midnightblue" d="M749.355,-181.3C782.354,-159.71 857.08,-110.82 896.148,-85.2595"/>
<polygon fill="midnightblue" stroke="midnightblue" points="898.365,-87.9917 904.817,-79.588 894.532,-82.134 898.365,-87.9917"/>
</g>
<!-- Node27 -->
<g id="node64" class="node"><title>Node27</title>
<polygon fill="white" stroke="#bfbfbf" points="862,-116.5 862,-137.5 924,-137.5 924,-116.5 862,-116.5"/>
<text text-anchor="middle" x="893" y="-124.5" font-family="Helvetica,sans-Serif" font-size="10.00">type_traits</text>
</g>
<!-- Node21&#45;&gt;Node27 -->
<g id="edge74" class="edge"><title>Node21&#45;&gt;Node27</title>
<path fill="none" stroke="midnightblue" d="M753.59,-183.635C779.825,-172.977 825.59,-154.385 857.501,-141.422"/>
<polygon fill="midnightblue" stroke="midnightblue" points="858.975,-144.6 866.922,-137.594 856.34,-138.115 858.975,-144.6"/>
</g>
<!-- Node28 -->
<g id="node66" class="node"><title>Node28</title>
<polygon fill="white" stroke="#bfbfbf" points="942,-116.5 942,-137.5 980,-137.5 980,-116.5 942,-116.5"/>
<text text-anchor="middle" x="961" y="-124.5" font-family="Helvetica,sans-Serif" font-size="10.00">tuple</text>
</g>
<!-- Node21&#45;&gt;Node28 -->
<g id="edge76" class="edge"><title>Node21&#45;&gt;Node28</title>
<path fill="none" stroke="midnightblue" d="M753.664,-187.221C788.561,-178.98 861.509,-161.03 931.91,-138.122"/>
<polygon fill="midnightblue" stroke="midnightblue" points="933.419,-141.31 941.822,-134.857 931.229,-134.661 933.419,-141.31"/>
</g>
<!-- Node29 -->
<g id="node68" class="node"><title>Node29</title>
<polygon fill="white" stroke="#bfbfbf" points="760,-116.5 760,-137.5 806,-137.5 806,-116.5 760,-116.5"/>
<text text-anchor="middle" x="783" y="-124.5" font-family="Helvetica,sans-Serif" font-size="10.00">cstdint</text>
</g>
<!-- Node21&#45;&gt;Node29 -->
<g id="edge78" class="edge"><title>Node21&#45;&gt;Node29</title>
<path fill="none" stroke="midnightblue" d="M741.256,-181.267C748.683,-171.612 759.758,-157.215 768.635,-145.675"/>
<polygon fill="midnightblue" stroke="midnightblue" points="771.574,-147.594 774.897,-137.534 766.026,-143.326 771.574,-147.594"/>
</g>
<!-- Node21&#45;&gt;Node30 -->
<g id="edge82" class="edge"><title>Node21&#45;&gt;Node30</title>
<path fill="none" stroke="midnightblue" d="M712.345,-182.128C690.074,-171.484 654.352,-154.411 628.559,-142.083"/>
<polygon fill="midnightblue" stroke="midnightblue" points="629.74,-138.769 619.208,-137.614 626.721,-145.084 629.74,-138.769"/>
</g>
<!-- Node23 -->
<g id="node54" class="node"><title>Node23</title>
<a xlink:href="string_8h.html" target="_top" xlink:title="base/std_ext/string.h">
<polygon fill="white" stroke="black" points="408,-58.5 408,-79.5 516,-79.5 516,-58.5 408,-58.5"/>
<text text-anchor="middle" x="462" y="-66.5" font-family="Helvetica,sans-Serif" font-size="10.00">base/std_ext/string.h</text>
</a>
</g>
<!-- Node22&#45;&gt;Node23 -->
<g id="edge62" class="edge"><title>Node22&#45;&gt;Node23</title>
<path fill="none" stroke="midnightblue" d="M649.53,-116.497C611.308,-106.816 554.451,-92.4156 513.369,-82.0105"/>
<polygon fill="midnightblue" stroke="midnightblue" points="514.101,-78.5855 503.548,-79.5231 512.383,-85.3712 514.101,-78.5855"/>
</g>
<!-- Node25 -->
<g id="node60" class="node"><title>Node25</title>
<polygon fill="white" stroke="#bfbfbf" points="668,-58.5 668,-79.5 714,-79.5 714,-58.5 668,-58.5"/>
<text text-anchor="middle" x="691" y="-66.5" font-family="Helvetica,sans-Serif" font-size="10.00">cstring</text>
</g>
<!-- Node22&#45;&gt;Node25 -->
<g id="edge70" class="edge"><title>Node22&#45;&gt;Node25</title>
<path fill="none" stroke="midnightblue" d="M691,-116.362C691,-108.922 691,-98.7427 691,-89.7276"/>
<polygon fill="midnightblue" stroke="midnightblue" points="694.5,-89.5706 691,-79.5707 687.5,-89.5707 694.5,-89.5706"/>
</g>
<!-- Node22&#45;&gt;Node26 -->
<g id="edge72" class="edge"><title>Node22&#45;&gt;Node26</title>
<path fill="none" stroke="midnightblue" d="M732.651,-116.497C778.142,-105.025 849.914,-86.926 890.461,-76.701"/>
<polygon fill="midnightblue" stroke="midnightblue" points="891.462,-80.0584 900.303,-74.2194 889.75,-73.2709 891.462,-80.0584"/>
</g>
<!-- Node23&#45;&gt;Node4 -->
<g id="edge64" class="edge"><title>Node23&#45;&gt;Node4</title>
<path fill="none" stroke="midnightblue" d="M516.133,-59.8247C520.816,-59.1579 525.487,-58.5376 530,-58 751.813,-31.5749 1020.79,-16.8799 1110.35,-12.4494"/>
<polygon fill="midnightblue" stroke="midnightblue" points="1110.55,-15.9439 1120.37,-11.9599 1110.21,-8.9522 1110.55,-15.9439"/>
</g>
<!-- Node23&#45;&gt;Node12 -->
<g id="edge68" class="edge"><title>Node23&#45;&gt;Node12</title>
<path fill="none" stroke="midnightblue" d="M434.112,-58.4966C409.332,-49.1639 372.905,-35.4447 345.564,-25.1475"/>
<polygon fill="midnightblue" stroke="midnightblue" points="346.532,-21.7723 335.941,-21.5231 344.065,-28.3231 346.532,-21.7723"/>
</g>
<!-- Node24 -->
<g id="node57" class="node"><title>Node24</title>
<polygon fill="white" stroke="#bfbfbf" points="436,-0.5 436,-21.5 488,-21.5 488,-0.5 436,-0.5"/>
<text text-anchor="middle" x="462" y="-8.5" font-family="Helvetica,sans-Serif" font-size="10.00">sstream</text>
</g>
<!-- Node23&#45;&gt;Node24 -->
<g id="edge66" class="edge"><title>Node23&#45;&gt;Node24</title>
<path fill="none" stroke="midnightblue" d="M462,-58.3619C462,-50.9219 462,-40.7427 462,-31.7276"/>
<polygon fill="midnightblue" stroke="midnightblue" points="465.5,-31.5706 462,-21.5707 458.5,-31.5707 465.5,-31.5706"/>
</g>
<!-- Node31&#45;&gt;Node4 -->
<g id="edge96" class="edge"><title>Node31&#45;&gt;Node4</title>
<path fill="none" stroke="midnightblue" d="M920.272,-247.194C989.805,-235.438 1096.51,-216.507 1103,-210 1127.84,-185.084 1137.06,-77.5915 1139.91,-31.7932"/>
<polygon fill="midnightblue" stroke="midnightblue" points="1143.42,-31.752 1140.5,-21.5665 1136.43,-31.3477 1143.42,-31.752"/>
</g>
<!-- Node31&#45;&gt;Node21 -->
<g id="edge94" class="edge"><title>Node31&#45;&gt;Node21</title>
<path fill="none" stroke="midnightblue" d="M840.15,-246.412C819.137,-235.741 786.507,-219.172 762.774,-207.12"/>
<polygon fill="midnightblue" stroke="midnightblue" points="764.342,-203.991 753.841,-202.584 761.173,-210.232 764.342,-203.991"/>
</g>
<!-- Node31&#45;&gt;Node26 -->
<g id="edge98" class="edge"><title>Node31&#45;&gt;Node26</title>
<path fill="none" stroke="midnightblue" d="M894.234,-246.335C915.546,-238.457 943.044,-226.277 964,-210 996.452,-184.794 1008.33,-176.752 1022,-138 1025.25,-128.779 1027.26,-124.244 1022,-116 1006.6,-91.8511 975.222,-79.9136 951.502,-74.1405"/>
<polygon fill="midnightblue" stroke="midnightblue" points="952.069,-70.6817 941.552,-71.9629 950.572,-77.5199 952.069,-70.6817"/>
</g>
<!-- Node32 -->
<g id="node82" class="node"><title>Node32</title>
<a xlink:href="_git_info_8h.html" target="_top" xlink:title="base/GitInfo.h">
<polygon fill="white" stroke="black" points="1016,-181.5 1016,-202.5 1094,-202.5 1094,-181.5 1016,-181.5"/>
<text text-anchor="middle" x="1055" y="-189.5" font-family="Helvetica,sans-Serif" font-size="10.00">base/GitInfo.h</text>
</a>
</g>
<!-- Node31&#45;&gt;Node32 -->
<g id="edge100" class="edge"><title>Node31&#45;&gt;Node32</title>
<path fill="none" stroke="midnightblue" d="M892.937,-246.412C921.526,-236.919 964.582,-222.59 1002,-210 1005.99,-208.658 1010.15,-207.254 1014.3,-205.849"/>
<polygon fill="midnightblue" stroke="midnightblue" points="1015.55,-209.119 1023.9,-202.594 1013.31,-202.489 1015.55,-209.119"/>
</g>
<!-- Node32&#45;&gt;Node4 -->
<g id="edge102" class="edge"><title>Node32&#45;&gt;Node4</title>
<path fill="none" stroke="midnightblue" d="M1058.31,-181.196C1065.64,-157.917 1084.5,-101.603 1108,-58 1113.21,-48.3324 1120.05,-38.2823 1126.15,-29.969"/>
<polygon fill="midnightblue" stroke="midnightblue" points="1129.13,-31.821 1132.36,-21.73 1123.55,-27.6051 1129.13,-31.821"/>
</g>
<!-- Node33&#45;&gt;Node4 -->
<g id="edge114" class="edge"><title>Node33&#45;&gt;Node4</title>
<path fill="none" stroke="midnightblue" d="M1269.41,-311.201C1258.63,-289.325 1236,-237.948 1236,-192 1236,-192 1236,-192 1236,-127 1236,-94.5312 1231.92,-83.6422 1212,-58 1201.14,-44.018 1184.9,-32.8317 1170.69,-24.8854"/>
<polygon fill="midnightblue" stroke="midnightblue" points="1172.2,-21.724 1161.73,-20.1347 1168.93,-27.9094 1172.2,-21.724"/>
</g>
<!-- Node33&#45;&gt;Node5 -->
<g id="edge116" class="edge"><title>Node33&#45;&gt;Node5</title>
<path fill="none" stroke="midnightblue" d="M1245.98,-314.544C1195.76,-301.643 1093.56,-275.385 1046.6,-263.32"/>
<polygon fill="midnightblue" stroke="midnightblue" points="1047.24,-259.87 1036.68,-260.772 1045.5,-266.65 1047.24,-259.87"/>
</g>
<!-- Node34 -->
<g id="node93" class="node"><title>Node34</title>
<polygon fill="white" stroke="#bfbfbf" points="1413.5,-246.5 1413.5,-267.5 1484.5,-267.5 1484.5,-246.5 1413.5,-246.5"/>
<text text-anchor="middle" x="1449" y="-254.5" font-family="Helvetica,sans-Serif" font-size="10.00">TGListBox.h</text>
</g>
<!-- Node33&#45;&gt;Node34 -->
<g id="edge118" class="edge"><title>Node33&#45;&gt;Node34</title>
<path fill="none" stroke="midnightblue" d="M1303.34,-311.412C1332.67,-300.458 1378.63,-283.288 1411.07,-271.17"/>
<polygon fill="midnightblue" stroke="midnightblue" points="1412.53,-274.362 1420.67,-267.584 1410.08,-267.804 1412.53,-274.362"/>
</g>
<!-- Node35 -->
<g id="node95" class="node"><title>Node35</title>
<polygon fill="white" stroke="#bfbfbf" points="1264,-246.5 1264,-267.5 1326,-267.5 1326,-246.5 1264,-246.5"/>
<text text-anchor="middle" x="1295" y="-254.5" font-family="Helvetica,sans-Serif" font-size="10.00">TGLabel.h</text>
</g>
<!-- Node33&#45;&gt;Node35 -->
<g id="edge120" class="edge"><title>Node33&#45;&gt;Node35</title>
<path fill="none" stroke="midnightblue" d="M1278.3,-311.267C1281.13,-302.085 1285.27,-288.615 1288.73,-277.392"/>
<polygon fill="midnightblue" stroke="midnightblue" points="1292.16,-278.121 1291.76,-267.534 1285.47,-276.062 1292.16,-278.121"/>
</g>
<!-- Node36 -->
<g id="node97" class="node"><title>Node36</title>
<polygon fill="white" stroke="#bfbfbf" points="1343.5,-246.5 1343.5,-267.5 1396.5,-267.5 1396.5,-246.5 1343.5,-246.5"/>
<text text-anchor="middle" x="1370" y="-254.5" font-family="Helvetica,sans-Serif" font-size="10.00">TExec.h</text>
</g>
<!-- Node33&#45;&gt;Node36 -->
<g id="edge122" class="edge"><title>Node33&#45;&gt;Node36</title>
<path fill="none" stroke="midnightblue" d="M1290.69,-311.267C1305.77,-300.949 1328.76,-285.216 1346.12,-273.342"/>
<polygon fill="midnightblue" stroke="midnightblue" points="1348.33,-276.069 1354.6,-267.534 1344.38,-270.292 1348.33,-276.069"/>
</g>
<!-- Node38&#45;&gt;Node10 -->
<g id="edge138" class="edge"><title>Node38&#45;&gt;Node10</title>
<path fill="none" stroke="midnightblue" d="M116.118,-174.922C112.182,-166.395 107.396,-156.025 103.284,-147.115"/>
<polygon fill="midnightblue" stroke="midnightblue" points="106.377,-145.465 99.0087,-137.852 100.021,-148.398 106.377,-145.465"/>
</g>
</g>
</svg>
