<?xml version="1.0" encoding="UTF-8" standalone="no"?>
<!DOCTYPE svg PUBLIC "-//W3C//DTD SVG 1.1//EN"
 "http://www.w3.org/Graphics/SVG/1.1/DTD/svg11.dtd">
<!-- Generated by graphviz version 2.26.3 (20100126.1600)
 -->
<!-- Title: src/calibration/gui/EditorWindow.h Pages: 1 -->
<svg width="1582pt" height="464pt"
 viewBox="0.00 0.00 1582.00 464.00" xmlns="http://www.w3.org/2000/svg" xmlns:xlink="http://www.w3.org/1999/xlink">
<g id="graph1" class="graph" transform="scale(1 1) rotate(0) translate(4 460)">
<title>src/calibration/gui/EditorWindow.h</title>
<polygon fill="white" stroke="white" points="-4,5 -4,-460 1579,-460 1579,5 -4,5"/>
<!-- Node1 -->
<g id="node1" class="node"><title>Node1</title>
<polygon fill="#bfbfbf" stroke="black" points="1111.5,-421 1111.5,-455 1204.5,-455 1204.5,-421 1111.5,-421"/>
<text text-anchor="start" x="1119.5" y="-442" font-family="Helvetica,sans-Serif" font-size="10.00">src/calibration/gui</text>
<text text-anchor="middle" x="1158" y="-429" font-family="Helvetica,sans-Serif" font-size="10.00">/EditorWindow.h</text>
</g>
<!-- Node2 -->
<g id="node3" class="node"><title>Node2</title>
<a xlink:href="_editor_8h.html" target="_top" xlink:title="calibration/Editor.h">
<polygon fill="white" stroke="black" points="544,-362.5 544,-383.5 642,-383.5 642,-362.5 544,-362.5"/>
<text text-anchor="middle" x="593" y="-370.5" font-family="Helvetica,sans-Serif" font-size="10.00">calibration/Editor.h</text>
</a>
</g>
<!-- Node1&#45;&gt;Node2 -->
<g id="edge2" class="edge"><title>Node1&#45;&gt;Node2</title>
<path fill="none" stroke="midnightblue" d="M1111.37,-433.253C1024.74,-424.337 833.103,-404.162 672,-384 665.688,-383.21 659.098,-382.349 652.532,-381.469"/>
<polygon fill="midnightblue" stroke="midnightblue" points="652.658,-377.954 642.278,-380.076 651.716,-384.89 652.658,-377.954"/>
</g>
<!-- Node4 -->
<g id="node7" class="node"><title>Node4</title>
<polygon fill="white" stroke="#bfbfbf" points="93.5,-0.5 93.5,-21.5 134.5,-21.5 134.5,-0.5 93.5,-0.5"/>
<text text-anchor="middle" x="114" y="-8.5" font-family="Helvetica,sans-Serif" font-size="10.00">string</text>
</g>
<!-- Node1&#45;&gt;Node4 -->
<g id="edge130" class="edge"><title>Node1&#45;&gt;Node4</title>
<path fill="none" stroke="midnightblue" d="M1111.17,-437.749C894.527,-435.982 0,-421.796 0,-308 0,-308 0,-308 0,-127 0,-78.8649 50.5515,-43.3986 84.3292,-25.0733"/>
<polygon fill="midnightblue" stroke="midnightblue" points="86.1093,-28.0923 93.3555,-20.3629 82.8707,-21.8865 86.1093,-28.0923"/>
</g>
<!-- Node5 -->
<g id="node9" class="node"><title>Node5</title>
<polygon fill="white" stroke="#bfbfbf" points="605.5,-232.5 605.5,-253.5 634.5,-253.5 634.5,-232.5 605.5,-232.5"/>
<text text-anchor="middle" x="620" y="-240.5" font-family="Helvetica,sans-Serif" font-size="10.00">list</text>
</g>
<!-- Node1&#45;&gt;Node5 -->
<g id="edge126" class="edge"><title>Node1&#45;&gt;Node5</title>
<path fill="none" stroke="midnightblue" d="M1111.22,-428.438C1036.46,-412.323 886.236,-376.497 766,-326 720.594,-306.93 671.548,-276.893 643.431,-258.662"/>
<polygon fill="midnightblue" stroke="midnightblue" points="645.017,-255.516 634.734,-252.965 641.181,-261.372 645.017,-255.516"/>
</g>
<!-- Node6 -->
<g id="node11" class="node"><title>Node6</title>
<polygon fill="white" stroke="#bfbfbf" points="1138,-58.5 1138,-79.5 1182,-79.5 1182,-58.5 1138,-58.5"/>
<text text-anchor="middle" x="1160" y="-66.5" font-family="Helvetica,sans-Serif" font-size="10.00">vector</text>
</g>
<!-- Node1&#45;&gt;Node6 -->
<g id="edge124" class="edge"><title>Node1&#45;&gt;Node6</title>
<path fill="none" stroke="midnightblue" d="M1168.58,-420.713C1179.07,-404.411 1196.27,-379.876 1215,-362 1235.6,-342.342 1251.93,-349.509 1268,-326 1289.35,-294.758 1287,-280.843 1287,-243 1287,-243 1287,-243 1287,-185 1287,-133.465 1229.28,-98.6963 1191.67,-81.5086"/>
<polygon fill="midnightblue" stroke="midnightblue" points="1192.69,-78.1328 1182.12,-77.3225 1189.87,-84.5436 1192.69,-78.1328"/>
</g>
<!-- Node7 -->
<g id="node13" class="node"><title>Node7</title>
<polygon fill="white" stroke="#bfbfbf" points="945.5,-232.5 945.5,-253.5 980.5,-253.5 980.5,-232.5 945.5,-232.5"/>
<text text-anchor="middle" x="963" y="-240.5" font-family="Helvetica,sans-Serif" font-size="10.00">map</text>
</g>
<!-- Node1&#45;&gt;Node7 -->
<g id="edge128" class="edge"><title>Node1&#45;&gt;Node7</title>
<path fill="none" stroke="midnightblue" d="M1111.45,-427.753C1061.54,-414.011 984.807,-384.274 950,-326 938.496,-306.74 945.509,-280.661 952.941,-262.91"/>
<polygon fill="midnightblue" stroke="midnightblue" points="956.252,-264.085 957.228,-253.536 949.886,-261.174 956.252,-264.085"/>
</g>
<!-- Node9 -->
<g id="node17" class="node"><title>Node9</title>
<polygon fill="white" stroke="#bfbfbf" points="1111.5,-232.5 1111.5,-253.5 1170.5,-253.5 1170.5,-232.5 1111.5,-232.5"/>
<text text-anchor="middle" x="1141" y="-240.5" font-family="Helvetica,sans-Serif" font-size="10.00">functional</text>
</g>
<!-- Node1&#45;&gt;Node9 -->
<g id="edge122" class="edge"><title>Node1&#45;&gt;Node9</title>
<path fill="none" stroke="midnightblue" d="M1153.11,-420.724C1147.2,-398.88 1137.6,-360.013 1134,-326 1132.31,-310.089 1132.82,-305.956 1134,-290 1134.64,-281.403 1135.92,-271.993 1137.22,-263.866"/>
<polygon fill="midnightblue" stroke="midnightblue" points="1140.71,-264.222 1138.93,-253.776 1133.8,-263.048 1140.71,-264.222"/>
</g>
<!-- Node33 -->
<g id="node88" class="node"><title>Node33</title>
<a xlink:href="_indicator__traits_8h.html" target="_top" xlink:title="calibration/gui/Indicator\l_traits.h">
<polygon fill="white" stroke="black" points="1142.5,-291 1142.5,-325 1259.5,-325 1259.5,-291 1142.5,-291"/>
<text text-anchor="start" x="1150.5" y="-312" font-family="Helvetica,sans-Serif" font-size="10.00">calibration/gui/Indicator</text>
<text text-anchor="middle" x="1201" y="-299" font-family="Helvetica,sans-Serif" font-size="10.00">_traits.h</text>
</a>
</g>
<!-- Node1&#45;&gt;Node33 -->
<g id="edge110" class="edge"><title>Node1&#45;&gt;Node33</title>
<path fill="none" stroke="midnightblue" d="M1163.27,-420.744C1168.03,-405.306 1175.3,-382.081 1182,-362 1184.94,-353.191 1188.26,-343.619 1191.3,-335.014"/>
<polygon fill="midnightblue" stroke="midnightblue" points="1194.65,-336.055 1194.69,-325.461 1188.05,-333.713 1194.65,-336.055"/>
</g>
<!-- Node34 -->
<g id="node91" class="node"><title>Node34</title>
<polygon fill="white" stroke="#bfbfbf" points="1224,-362.5 1224,-383.5 1290,-383.5 1290,-362.5 1224,-362.5"/>
<text text-anchor="middle" x="1257" y="-370.5" font-family="Helvetica,sans-Serif" font-size="10.00">TGFrame.h</text>
</g>
<!-- Node1&#45;&gt;Node34 -->
<g id="edge114" class="edge"><title>Node1&#45;&gt;Node34</title>
<path fill="none" stroke="midnightblue" d="M1184.01,-420.922C1198.91,-411.141 1217.5,-398.934 1232.19,-389.289"/>
<polygon fill="midnightblue" stroke="midnightblue" points="1234.33,-392.073 1240.77,-383.658 1230.49,-386.221 1234.33,-392.073"/>
</g>
<!-- Node35 -->
<g id="node93" class="node"><title>Node35</title>
<polygon fill="white" stroke="#bfbfbf" points="1308,-362.5 1308,-383.5 1388,-383.5 1388,-362.5 1308,-362.5"/>
<text text-anchor="middle" x="1348" y="-370.5" font-family="Helvetica,sans-Serif" font-size="10.00">KeySymbols.h</text>
</g>
<!-- Node1&#45;&gt;Node35 -->
<g id="edge116" class="edge"><title>Node1&#45;&gt;Node35</title>
<path fill="none" stroke="midnightblue" d="M1204.97,-421.933C1236.46,-411.158 1277.51,-397.113 1307.56,-386.836"/>
<polygon fill="midnightblue" stroke="midnightblue" points="1308.96,-390.053 1317.29,-383.505 1306.7,-383.43 1308.96,-390.053"/>
</g>
<!-- Node36 -->
<g id="node95" class="node"><title>Node36</title>
<polygon fill="white" stroke="#bfbfbf" points="1405.5,-362.5 1405.5,-383.5 1470.5,-383.5 1470.5,-362.5 1405.5,-362.5"/>
<text text-anchor="middle" x="1438" y="-370.5" font-family="Helvetica,sans-Serif" font-size="10.00">TCanvas.h</text>
</g>
<!-- Node1&#45;&gt;Node36 -->
<g id="edge118" class="edge"><title>Node1&#45;&gt;Node36</title>
<path fill="none" stroke="midnightblue" d="M1204.84,-427.995C1250.95,-418.017 1323.62,-401.949 1395.26,-384.373"/>
<polygon fill="midnightblue" stroke="midnightblue" points="1396.48,-387.676 1405.36,-381.884 1394.81,-380.879 1396.48,-387.676"/>
</g>
<!-- Node37 -->
<g id="node97" class="node"><title>Node37</title>
<polygon fill="white" stroke="#bfbfbf" points="1487.5,-362.5 1487.5,-383.5 1574.5,-383.5 1574.5,-362.5 1487.5,-362.5"/>
<text text-anchor="middle" x="1531" y="-370.5" font-family="Helvetica,sans-Serif" font-size="10.00">TGComboBox.h</text>
</g>
<!-- Node1&#45;&gt;Node37 -->
<g id="edge120" class="edge"><title>Node1&#45;&gt;Node37</title>
<path fill="none" stroke="midnightblue" d="M1204.62,-430.783C1265.23,-421.264 1374.59,-403.614 1477.41,-384.254"/>
<polygon fill="midnightblue" stroke="midnightblue" points="1478.16,-387.674 1487.33,-382.375 1476.86,-380.796 1478.16,-387.674"/>
</g>
<!-- Node3 -->
<g id="node5" class="node"><title>Node3</title>
<a xlink:href="root__draw_8h.html" target="_top" xlink:title="analysis/plot/root\l_draw.h">
<polygon fill="white" stroke="black" points="958.5,-291 958.5,-325 1049.5,-325 1049.5,-291 958.5,-291"/>
<text text-anchor="start" x="966.5" y="-312" font-family="Helvetica,sans-Serif" font-size="10.00">analysis/plot/root</text>
<text text-anchor="middle" x="1004" y="-299" font-family="Helvetica,sans-Serif" font-size="10.00">_draw.h</text>
</a>
</g>
<!-- Node2&#45;&gt;Node3 -->
<g id="edge4" class="edge"><title>Node2&#45;&gt;Node3</title>
<path fill="none" stroke="midnightblue" d="M642.168,-365.224C719.099,-353.057 867.465,-329.593 948.258,-316.816"/>
<polygon fill="midnightblue" stroke="midnightblue" points="948.912,-320.256 958.243,-315.237 947.819,-313.342 948.912,-320.256"/>
</g>
<!-- Node2&#45;&gt;Node4 -->
<g id="edge106" class="edge"><title>Node2&#45;&gt;Node4</title>
<path fill="none" stroke="midnightblue" d="M543.747,-371.921C407.918,-367.62 38,-346.415 38,-243 38,-243 38,-243 38,-127 38,-86.5104 70.7975,-49.1585 93.3017,-28.2949"/>
<polygon fill="midnightblue" stroke="midnightblue" points="95.6399,-30.8993 100.762,-21.6247 90.9742,-25.681 95.6399,-30.8993"/>
</g>
<!-- Node2&#45;&gt;Node6 -->
<g id="edge108" class="edge"><title>Node2&#45;&gt;Node6</title>
<path fill="none" stroke="midnightblue" d="M642.044,-370.732C745.269,-365.522 981.717,-351.173 1058,-326 1072.86,-321.097 1171.27,-267.6 1179,-254 1209.21,-200.866 1184.35,-125.148 1169.35,-89.3043"/>
<polygon fill="midnightblue" stroke="midnightblue" points="1172.46,-87.684 1165.25,-79.9155 1166.04,-90.4811 1172.46,-87.684"/>
</g>
<!-- Node8 -->
<g id="node15" class="node"><title>Node8</title>
<polygon fill="white" stroke="#bfbfbf" points="498,-232.5 498,-253.5 550,-253.5 550,-232.5 498,-232.5"/>
<text text-anchor="middle" x="524" y="-240.5" font-family="Helvetica,sans-Serif" font-size="10.00">memory</text>
</g>
<!-- Node2&#45;&gt;Node8 -->
<g id="edge104" class="edge"><title>Node2&#45;&gt;Node8</title>
<path fill="none" stroke="midnightblue" d="M585.996,-362.361C579.911,-352.955 570.999,-338.783 564,-326 552.485,-304.97 540.741,-280.112 532.984,-263.119"/>
<polygon fill="midnightblue" stroke="midnightblue" points="536.016,-261.329 528.708,-253.659 529.638,-264.213 536.016,-261.329"/>
</g>
<!-- Node11 -->
<g id="node21" class="node"><title>Node11</title>
<a xlink:href="interval_8h.html" target="_top" xlink:title="base/interval.h">
<polygon fill="white" stroke="black" points="297,-174.5 297,-195.5 377,-195.5 377,-174.5 297,-174.5"/>
<text text-anchor="middle" x="337" y="-182.5" font-family="Helvetica,sans-Serif" font-size="10.00">base/interval.h</text>
</a>
</g>
<!-- Node2&#45;&gt;Node11 -->
<g id="edge20" class="edge"><title>Node2&#45;&gt;Node11</title>
<path fill="none" stroke="midnightblue" d="M593.92,-362.343C595.552,-336.085 595.828,-267.811 559,-232 535.02,-208.682 445.179,-195.619 387.399,-189.466"/>
<polygon fill="midnightblue" stroke="midnightblue" points="387.665,-185.975 377.359,-188.432 386.948,-192.938 387.665,-185.975"/>
</g>
<!-- Node18 -->
<g id="node36" class="node"><title>Node18</title>
<a xlink:href="_data_manager_8h.html" target="_top" xlink:title="DataManager.h">
<polygon fill="white" stroke="black" points="429.5,-297.5 429.5,-318.5 512.5,-318.5 512.5,-297.5 429.5,-297.5"/>
<text text-anchor="middle" x="471" y="-305.5" font-family="Helvetica,sans-Serif" font-size="10.00">DataManager.h</text>
</a>
</g>
<!-- Node2&#45;&gt;Node18 -->
<g id="edge36" class="edge"><title>Node2&#45;&gt;Node18</title>
<path fill="none" stroke="midnightblue" d="M573.127,-362.412C553.276,-351.836 522.549,-335.465 499.981,-323.441"/>
<polygon fill="midnightblue" stroke="midnightblue" points="501.336,-320.197 490.864,-318.584 498.044,-326.375 501.336,-320.197"/>
</g>
<!-- Node19 -->
<g id="node41" class="node"><title>Node19</title>
<a xlink:href="_data_base_8h.html" target="_top" xlink:title="DataBase.h">
<polygon fill="white" stroke="black" points="775,-297.5 775,-318.5 843,-318.5 843,-297.5 775,-297.5"/>
<text text-anchor="middle" x="809" y="-305.5" font-family="Helvetica,sans-Serif" font-size="10.00">DataBase.h</text>
</a>
</g>
<!-- Node2&#45;&gt;Node19 -->
<g id="edge44" class="edge"><title>Node2&#45;&gt;Node19</title>
<path fill="none" stroke="midnightblue" d="M628.185,-362.412C665.623,-351.146 724.913,-333.304 765.314,-321.146"/>
<polygon fill="midnightblue" stroke="midnightblue" points="766.333,-324.495 774.9,-318.262 764.315,-317.792 766.333,-324.495"/>
</g>
<!-- Node3&#45;&gt;Node4 -->
<g id="edge6" class="edge"><title>Node3&#45;&gt;Node4</title>
<path fill="none" stroke="midnightblue" d="M1018.97,-290.774C1048.37,-254.771 1107.29,-170.396 1065,-116 1007.07,-41.4829 302.321,-16.5159 145.004,-11.8537"/>
<polygon fill="midnightblue" stroke="midnightblue" points="144.737,-8.34459 134.64,-11.5527 144.534,-15.3416 144.737,-8.34459"/>
</g>
<!-- Node3&#45;&gt;Node5 -->
<g id="edge8" class="edge"><title>Node3&#45;&gt;Node5</title>
<path fill="none" stroke="midnightblue" d="M958.174,-302.866C878.606,-293.681 717.169,-273.781 644.84,-253.824"/>
<polygon fill="midnightblue" stroke="midnightblue" points="645.417,-250.346 634.836,-250.881 643.441,-257.061 645.417,-250.346"/>
</g>
<!-- Node3&#45;&gt;Node6 -->
<g id="edge10" class="edge"><title>Node3&#45;&gt;Node6</title>
<path fill="none" stroke="midnightblue" d="M1023.73,-290.985C1034.97,-280.813 1048.97,-267.313 1060,-254 1099.32,-206.534 1108.78,-193.3 1136,-138 1143.77,-122.222 1150.16,-103.293 1154.39,-89.2562"/>
<polygon fill="midnightblue" stroke="midnightblue" points="1157.76,-90.1877 1157.19,-79.6084 1151.04,-88.2367 1157.76,-90.1877"/>
</g>
<!-- Node3&#45;&gt;Node7 -->
<g id="edge12" class="edge"><title>Node3&#45;&gt;Node7</title>
<path fill="none" stroke="midnightblue" d="M993.228,-290.922C987.734,-282.212 981.026,-271.578 975.327,-262.542"/>
<polygon fill="midnightblue" stroke="midnightblue" points="978.141,-260.443 969.845,-253.852 972.22,-264.177 978.141,-260.443"/>
</g>
<!-- Node3&#45;&gt;Node8 -->
<g id="edge14" class="edge"><title>Node3&#45;&gt;Node8</title>
<path fill="none" stroke="midnightblue" d="M958.49,-302.228C883.222,-292.622 728.092,-272.572 597,-254 585.026,-252.304 571.961,-250.363 560.236,-248.589"/>
<polygon fill="midnightblue" stroke="midnightblue" points="560.752,-245.128 550.339,-247.084 559.699,-252.048 560.752,-245.128"/>
</g>
<!-- Node3&#45;&gt;Node9 -->
<g id="edge16" class="edge"><title>Node3&#45;&gt;Node9</title>
<path fill="none" stroke="midnightblue" d="M1040,-290.922C1061.49,-280.726 1088.53,-267.894 1109.23,-258.074"/>
<polygon fill="midnightblue" stroke="midnightblue" points="1111,-261.107 1118.54,-253.658 1108,-254.783 1111,-261.107"/>
</g>
<!-- Node10 -->
<g id="node19" class="node"><title>Node10</title>
<polygon fill="white" stroke="#bfbfbf" points="1000,-116.5 1000,-137.5 1056,-137.5 1056,-116.5 1000,-116.5"/>
<text text-anchor="middle" x="1028" y="-124.5" font-family="Helvetica,sans-Serif" font-size="10.00">Rtypes.h</text>
</g>
<!-- Node3&#45;&gt;Node10 -->
<g id="edge18" class="edge"><title>Node3&#45;&gt;Node10</title>
<path fill="none" stroke="midnightblue" d="M1006.26,-290.972C1010.68,-257.635 1020.46,-183.869 1025.25,-147.747"/>
<polygon fill="midnightblue" stroke="midnightblue" points="1028.72,-148.205 1026.56,-137.832 1021.78,-147.285 1028.72,-148.205"/>
</g>
<!-- Node12 -->
<g id="node23" class="node"><title>Node12</title>
<polygon fill="white" stroke="#bfbfbf" points="422,-0.5 422,-21.5 478,-21.5 478,-0.5 422,-0.5"/>
<text text-anchor="middle" x="450" y="-8.5" font-family="Helvetica,sans-Serif" font-size="10.00">algorithm</text>
</g>
<!-- Node11&#45;&gt;Node12 -->
<g id="edge22" class="edge"><title>Node11&#45;&gt;Node12</title>
<path fill="none" stroke="midnightblue" d="M333.413,-174.166C329.398,-160.091 324.492,-135.067 333,-116 350.963,-75.7426 392.835,-44.4865 421.294,-26.8989"/>
<polygon fill="midnightblue" stroke="midnightblue" points="423.235,-29.8159 430.016,-21.6748 419.638,-23.8108 423.235,-29.8159"/>
</g>
<!-- Node13 -->
<g id="node25" class="node"><title>Node13</title>
<polygon fill="white" stroke="#bfbfbf" points="341.5,-116.5 341.5,-137.5 400.5,-137.5 400.5,-116.5 341.5,-116.5"/>
<text text-anchor="middle" x="371" y="-124.5" font-family="Helvetica,sans-Serif" font-size="10.00">stdexcept</text>
</g>
<!-- Node11&#45;&gt;Node13 -->
<g id="edge24" class="edge"><title>Node11&#45;&gt;Node13</title>
<path fill="none" stroke="midnightblue" d="M343.236,-174.362C347.837,-166.513 354.225,-155.616 359.714,-146.253"/>
<polygon fill="midnightblue" stroke="midnightblue" points="362.766,-147.968 364.803,-137.571 356.727,-144.428 362.766,-147.968"/>
</g>
<!-- Node14 -->
<g id="node27" class="node"><title>Node14</title>
<a xlink:href="printable_8h.html" target="_top" xlink:title="printable.h">
<polygon fill="white" stroke="black" points="456,-116.5 456,-137.5 518,-137.5 518,-116.5 456,-116.5"/>
<text text-anchor="middle" x="487" y="-124.5" font-family="Helvetica,sans-Serif" font-size="10.00">printable.h</text>
</a>
</g>
<!-- Node11&#45;&gt;Node14 -->
<g id="edge26" class="edge"><title>Node11&#45;&gt;Node14</title>
<path fill="none" stroke="midnightblue" d="M364.164,-174.497C388.3,-165.164 423.781,-151.445 450.412,-141.147"/>
<polygon fill="midnightblue" stroke="midnightblue" points="451.72,-144.394 459.785,-137.523 449.196,-137.865 451.72,-144.394"/>
</g>
<!-- Node16 -->
<g id="node32" class="node"><title>Node16</title>
<a xlink:href="types_8h.html" target="_top" xlink:title="types.h">
<polygon fill="white" stroke="black" points="237.5,-116.5 237.5,-137.5 286.5,-137.5 286.5,-116.5 237.5,-116.5"/>
<text text-anchor="middle" x="262" y="-124.5" font-family="Helvetica,sans-Serif" font-size="10.00">types.h</text>
</a>
</g>
<!-- Node11&#45;&gt;Node16 -->
<g id="edge32" class="edge"><title>Node11&#45;&gt;Node16</title>
<path fill="none" stroke="midnightblue" d="M323.244,-174.362C312.249,-165.859 296.627,-153.779 283.914,-143.947"/>
<polygon fill="midnightblue" stroke="midnightblue" points="285.721,-140.919 275.669,-137.571 281.438,-146.457 285.721,-140.919"/>
</g>
<!-- Node17 -->
<g id="node34" class="node"><title>Node17</title>
<polygon fill="white" stroke="#bfbfbf" points="180,-116.5 180,-137.5 220,-137.5 220,-116.5 180,-116.5"/>
<text text-anchor="middle" x="200" y="-124.5" font-family="Helvetica,sans-Serif" font-size="10.00">limits</text>
</g>
<!-- Node11&#45;&gt;Node17 -->
<g id="edge34" class="edge"><title>Node11&#45;&gt;Node17</title>
<path fill="none" stroke="midnightblue" d="M312.19,-174.497C288.91,-164.641 254.073,-149.892 229.405,-139.449"/>
<polygon fill="midnightblue" stroke="midnightblue" points="230.743,-136.215 220.17,-135.539 228.014,-142.661 230.743,-136.215"/>
</g>
<!-- Node14&#45;&gt;Node6 -->
<g id="edge28" class="edge"><title>Node14&#45;&gt;Node6</title>
<path fill="none" stroke="midnightblue" d="M518.313,-117.77C521.233,-117.097 524.161,-116.491 527,-116 644.553,-95.6711 1016.06,-76.1092 1127.86,-70.5585"/>
<polygon fill="midnightblue" stroke="midnightblue" points="1128.04,-74.0542 1137.85,-70.0655 1127.69,-67.0627 1128.04,-74.0542"/>
</g>
<!-- Node15 -->
<g id="node30" class="node"><title>Node15</title>
<polygon fill="white" stroke="#bfbfbf" points="461,-58.5 461,-79.5 513,-79.5 513,-58.5 461,-58.5"/>
<text text-anchor="middle" x="487" y="-66.5" font-family="Helvetica,sans-Serif" font-size="10.00">ostream</text>
</g>
<!-- Node14&#45;&gt;Node15 -->
<g id="edge30" class="edge"><title>Node14&#45;&gt;Node15</title>
<path fill="none" stroke="midnightblue" d="M487,-116.362C487,-108.922 487,-98.7427 487,-89.7276"/>
<polygon fill="midnightblue" stroke="midnightblue" points="490.5,-89.5706 487,-79.5707 483.5,-89.5707 490.5,-89.5706"/>
</g>
<!-- Node18&#45;&gt;Node4 -->
<g id="edge40" class="edge"><title>Node18&#45;&gt;Node4</title>
<path fill="none" stroke="midnightblue" d="M429.475,-303.986C328.06,-293.038 76,-258.44 76,-185 76,-185 76,-185 76,-127 76,-91.7411 92.0509,-53.3154 103.289,-30.7323"/>
<polygon fill="midnightblue" stroke="midnightblue" points="106.418,-32.3005 107.895,-21.809 100.198,-29.0901 106.418,-32.3005"/>
</g>
<!-- Node18&#45;&gt;Node5 -->
<g id="edge38" class="edge"><title>Node18&#45;&gt;Node5</title>
<path fill="none" stroke="midnightblue" d="M495.271,-297.412C523.033,-285.301 568.212,-265.592 595.901,-253.513"/>
<polygon fill="midnightblue" stroke="midnightblue" points="597.48,-256.643 605.247,-249.436 594.681,-250.227 597.48,-256.643"/>
</g>
<!-- Node18&#45;&gt;Node8 -->
<g id="edge42" class="edge"><title>Node18&#45;&gt;Node8</title>
<path fill="none" stroke="midnightblue" d="M479.752,-297.267C487.701,-287.517 499.594,-272.932 509.049,-261.336"/>
<polygon fill="midnightblue" stroke="midnightblue" points="511.804,-263.496 515.411,-253.534 506.379,-259.072 511.804,-263.496"/>
</g>
<!-- Node19&#45;&gt;Node5 -->
<g id="edge50" class="edge"><title>Node19&#45;&gt;Node5</title>
<path fill="none" stroke="midnightblue" d="M774.834,-298.321C742.995,-288.987 694.115,-273.861 644.554,-254.336"/>
<polygon fill="midnightblue" stroke="midnightblue" points="645.552,-250.966 634.967,-250.507 642.956,-257.467 645.552,-250.966"/>
</g>
<!-- Node19&#45;&gt;Node6 -->
<g id="edge48" class="edge"><title>Node19&#45;&gt;Node6</title>
<path fill="none" stroke="midnightblue" d="M827.501,-297.405C845.859,-286.774 874.689,-269.76 899,-254 989.66,-195.226 1093.25,-118.951 1137.76,-85.7103"/>
<polygon fill="midnightblue" stroke="midnightblue" points="1139.95,-88.4471 1145.86,-79.6539 1135.75,-82.8423 1139.95,-88.4471"/>
</g>
<!-- Node19&#45;&gt;Node7 -->
<g id="edge46" class="edge"><title>Node19&#45;&gt;Node7</title>
<path fill="none" stroke="midnightblue" d="M834.086,-297.412C861.99,-285.634 906.92,-266.67 935.692,-254.526"/>
<polygon fill="midnightblue" stroke="midnightblue" points="937.288,-257.651 945.14,-250.538 934.566,-251.202 937.288,-257.651"/>
</g>
<!-- Node20 -->
<g id="node46" class="node"><title>Node20</title>
<a xlink:href="_t_data_record_8h.html" target="_top" xlink:title="tree/TDataRecord.h">
<polygon fill="white" stroke="black" points="787.5,-232.5 787.5,-253.5 890.5,-253.5 890.5,-232.5 787.5,-232.5"/>
<text text-anchor="middle" x="839" y="-240.5" font-family="Helvetica,sans-Serif" font-size="10.00">tree/TDataRecord.h</text>
</a>
</g>
<!-- Node19&#45;&gt;Node20 -->
<g id="edge52" class="edge"><title>Node19&#45;&gt;Node20</title>
<path fill="none" stroke="midnightblue" d="M813.954,-297.267C818.279,-287.896 824.666,-274.057 829.907,-262.7"/>
<polygon fill="midnightblue" stroke="midnightblue" points="833.126,-264.08 834.138,-253.534 826.77,-261.147 833.126,-264.08"/>
</g>
<!-- Node31 -->
<g id="node77" class="node"><title>Node31</title>
<a xlink:href="_t_calibration_data_8h.html" target="_top" xlink:title="tree/TCalibrationData.h">
<polygon fill="white" stroke="black" points="652,-232.5 652,-253.5 770,-253.5 770,-232.5 652,-232.5"/>
<text text-anchor="middle" x="711" y="-240.5" font-family="Helvetica,sans-Serif" font-size="10.00">tree/TCalibrationData.h</text>
</a>
</g>
<!-- Node19&#45;&gt;Node31 -->
<g id="edge92" class="edge"><title>Node19&#45;&gt;Node31</title>
<path fill="none" stroke="midnightblue" d="M792.817,-297.267C777.262,-286.949 753.541,-271.216 735.639,-259.342"/>
<polygon fill="midnightblue" stroke="midnightblue" points="737.15,-256.144 726.882,-253.534 733.281,-261.978 737.15,-256.144"/>
</g>
<!-- Node20&#45;&gt;Node10 -->
<g id="edge86" class="edge"><title>Node20&#45;&gt;Node10</title>
<path fill="none" stroke="midnightblue" d="M869.206,-232.397C891.293,-224.019 921.539,-211.223 946,-196 969.675,-181.266 993.734,-160.134 1009.61,-145.146"/>
<polygon fill="midnightblue" stroke="midnightblue" points="1012.34,-147.384 1017.13,-137.934 1007.49,-142.334 1012.34,-147.384"/>
</g>
<!-- Node21 -->
<g id="node48" class="node"><title>Node21</title>
<a xlink:href="_t_i_d_8h.html" target="_top" xlink:title="TID.h">
<polygon fill="white" stroke="black" points="734.5,-174.5 734.5,-195.5 775.5,-195.5 775.5,-174.5 734.5,-174.5"/>
<text text-anchor="middle" x="755" y="-182.5" font-family="Helvetica,sans-Serif" font-size="10.00">TID.h</text>
</a>
</g>
<!-- Node20&#45;&gt;Node21 -->
<g id="edge54" class="edge"><title>Node20&#45;&gt;Node21</title>
<path fill="none" stroke="midnightblue" d="M823.593,-232.362C811.042,-223.696 793.108,-211.313 778.725,-201.382"/>
<polygon fill="midnightblue" stroke="midnightblue" points="780.527,-198.372 770.309,-195.571 776.55,-204.133 780.527,-198.372"/>
</g>
<!-- Node26 -->
<g id="node62" class="node"><title>Node26</title>
<polygon fill="white" stroke="#bfbfbf" points="787.5,-58.5 787.5,-79.5 828.5,-79.5 828.5,-58.5 787.5,-58.5"/>
<text text-anchor="middle" x="808" y="-66.5" font-family="Helvetica,sans-Serif" font-size="10.00">ctime</text>
</g>
<!-- Node20&#45;&gt;Node26 -->
<g id="edge90" class="edge"><title>Node20&#45;&gt;Node26</title>
<path fill="none" stroke="midnightblue" d="M861.769,-232.441C903.905,-211.452 986.802,-162.49 953,-116 939.451,-97.3651 877.248,-82.3358 838.848,-74.6287"/>
<polygon fill="midnightblue" stroke="midnightblue" points="839.193,-71.1302 828.708,-72.6521 837.854,-78.0009 839.193,-71.1302"/>
</g>
<!-- Node30 -->
<g id="node71" class="node"><title>Node30</title>
<polygon fill="white" stroke="#bfbfbf" points="894,-116.5 894,-137.5 944,-137.5 944,-116.5 894,-116.5"/>
<text text-anchor="middle" x="919" y="-124.5" font-family="Helvetica,sans-Serif" font-size="10.00">iomanip</text>
</g>
<!-- Node20&#45;&gt;Node30 -->
<g id="edge88" class="edge"><title>Node20&#45;&gt;Node30</title>
<path fill="none" stroke="midnightblue" d="M846.383,-232.295C859.897,-212.7 888.779,-170.82 905.765,-146.191"/>
<polygon fill="midnightblue" stroke="midnightblue" points="908.839,-147.898 911.635,-137.679 903.076,-143.924 908.839,-147.898"/>
</g>
<!-- Node21&#45;&gt;Node10 -->
<g id="edge56" class="edge"><title>Node21&#45;&gt;Node10</title>
<path fill="none" stroke="midnightblue" d="M775.519,-180.641C821.024,-170.973 931,-147.608 989.654,-135.147"/>
<polygon fill="midnightblue" stroke="midnightblue" points="990.584,-138.527 999.639,-133.025 989.13,-131.68 990.584,-138.527"/>
</g>
<!-- Node21&#45;&gt;Node13 -->
<g id="edge80" class="edge"><title>Node21&#45;&gt;Node13</title>
<path fill="none" stroke="midnightblue" d="M734.354,-181.882C673.153,-172.638 491.944,-145.268 410.925,-133.03"/>
<polygon fill="midnightblue" stroke="midnightblue" points="411.049,-129.509 400.638,-131.477 410.003,-136.431 411.049,-129.509"/>
</g>
<!-- Node21&#45;&gt;Node14 -->
<g id="edge58" class="edge"><title>Node21&#45;&gt;Node14</title>
<path fill="none" stroke="midnightblue" d="M734.463,-181.231C695.956,-174.066 610.098,-157.624 528.34,-138.221"/>
<polygon fill="midnightblue" stroke="midnightblue" points="528.933,-134.764 518.393,-135.841 527.304,-141.572 528.933,-134.764"/>
</g>
<!-- Node22 -->
<g id="node52" class="node"><title>Node22</title>
<a xlink:href="time_8h.html" target="_top" xlink:title="base/std_ext/time.h">
<polygon fill="white" stroke="black" points="615.5,-116.5 615.5,-137.5 718.5,-137.5 718.5,-116.5 615.5,-116.5"/>
<text text-anchor="middle" x="667" y="-124.5" font-family="Helvetica,sans-Serif" font-size="10.00">base/std_ext/time.h</text>
</a>
</g>
<!-- Node21&#45;&gt;Node22 -->
<g id="edge60" class="edge"><title>Node21&#45;&gt;Node22</title>
<path fill="none" stroke="midnightblue" d="M738.859,-174.362C725.586,-165.614 706.568,-153.079 691.43,-143.101"/>
<polygon fill="midnightblue" stroke="midnightblue" points="693.314,-140.151 683.038,-137.571 689.462,-145.996 693.314,-140.151"/>
</g>
<!-- Node21&#45;&gt;Node26 -->
<g id="edge84" class="edge"><title>Node21&#45;&gt;Node26</title>
<path fill="none" stroke="midnightblue" d="M775.754,-180.974C797.798,-175.47 831.551,-163.241 847,-138 857.486,-120.869 843.334,-100.84 829.232,-86.7886"/>
<polygon fill="midnightblue" stroke="midnightblue" points="831.266,-83.9004 821.559,-79.6533 826.499,-89.0263 831.266,-83.9004"/>
</g>
<!-- Node27 -->
<g id="node64" class="node"><title>Node27</title>
<polygon fill="white" stroke="#bfbfbf" points="536,-116.5 536,-137.5 598,-137.5 598,-116.5 536,-116.5"/>
<text text-anchor="middle" x="567" y="-124.5" font-family="Helvetica,sans-Serif" font-size="10.00">type_traits</text>
</g>
<!-- Node21&#45;&gt;Node27 -->
<g id="edge74" class="edge"><title>Node21&#45;&gt;Node27</title>
<path fill="none" stroke="midnightblue" d="M734.162,-178.571C703.885,-169.231 647.107,-151.714 608.196,-139.709"/>
<polygon fill="midnightblue" stroke="midnightblue" points="608.811,-136.237 598.224,-136.633 606.748,-142.925 608.811,-136.237"/>
</g>
<!-- Node28 -->
<g id="node66" class="node"><title>Node28</title>
<polygon fill="white" stroke="#bfbfbf" points="736,-116.5 736,-137.5 774,-137.5 774,-116.5 736,-116.5"/>
<text text-anchor="middle" x="755" y="-124.5" font-family="Helvetica,sans-Serif" font-size="10.00">tuple</text>
</g>
<!-- Node21&#45;&gt;Node28 -->
<g id="edge76" class="edge"><title>Node21&#45;&gt;Node28</title>
<path fill="none" stroke="midnightblue" d="M755,-174.362C755,-166.922 755,-156.743 755,-147.728"/>
<polygon fill="midnightblue" stroke="midnightblue" points="758.5,-147.571 755,-137.571 751.5,-147.571 758.5,-147.571"/>
</g>
<!-- Node29 -->
<g id="node68" class="node"><title>Node29</title>
<polygon fill="white" stroke="#bfbfbf" points="792,-116.5 792,-137.5 838,-137.5 838,-116.5 792,-116.5"/>
<text text-anchor="middle" x="815" y="-124.5" font-family="Helvetica,sans-Serif" font-size="10.00">cstdint</text>
</g>
<!-- Node21&#45;&gt;Node29 -->
<g id="edge78" class="edge"><title>Node21&#45;&gt;Node29</title>
<path fill="none" stroke="midnightblue" d="M766.005,-174.362C774.547,-166.104 786.58,-154.472 796.583,-144.803"/>
<polygon fill="midnightblue" stroke="midnightblue" points="799.308,-147.037 804.065,-137.571 794.442,-142.004 799.308,-147.037"/>
</g>
<!-- Node21&#45;&gt;Node30 -->
<g id="edge82" class="edge"><title>Node21&#45;&gt;Node30</title>
<path fill="none" stroke="midnightblue" d="M775.771,-177.654C803.032,-168.013 851.268,-150.954 884.163,-139.32"/>
<polygon fill="midnightblue" stroke="midnightblue" points="885.579,-142.532 893.839,-135.898 883.245,-135.933 885.579,-142.532"/>
</g>
<!-- Node23 -->
<g id="node54" class="node"><title>Node23</title>
<a xlink:href="string_8h.html" target="_top" xlink:title="base/std_ext/string.h">
<polygon fill="white" stroke="black" points="604,-58.5 604,-79.5 712,-79.5 712,-58.5 604,-58.5"/>
<text text-anchor="middle" x="658" y="-66.5" font-family="Helvetica,sans-Serif" font-size="10.00">base/std_ext/string.h</text>
</a>
</g>
<!-- Node22&#45;&gt;Node23 -->
<g id="edge62" class="edge"><title>Node22&#45;&gt;Node23</title>
<path fill="none" stroke="midnightblue" d="M665.349,-116.362C664.195,-108.922 662.615,-98.7427 661.216,-89.7276"/>
<polygon fill="midnightblue" stroke="midnightblue" points="664.632,-88.9157 659.64,-79.5707 657.715,-89.9891 664.632,-88.9157"/>
</g>
<!-- Node25 -->
<g id="node60" class="node"><title>Node25</title>
<polygon fill="white" stroke="#bfbfbf" points="540,-58.5 540,-79.5 586,-79.5 586,-58.5 540,-58.5"/>
<text text-anchor="middle" x="563" y="-66.5" font-family="Helvetica,sans-Serif" font-size="10.00">cstring</text>
</g>
<!-- Node22&#45;&gt;Node25 -->
<g id="edge70" class="edge"><title>Node22&#45;&gt;Node25</title>
<path fill="none" stroke="midnightblue" d="M647.925,-116.362C631.945,-107.45 608.919,-94.6087 590.873,-84.5447"/>
<polygon fill="midnightblue" stroke="midnightblue" points="592.393,-81.3846 581.954,-79.5707 588.983,-87.4982 592.393,-81.3846"/>
</g>
<!-- Node22&#45;&gt;Node26 -->
<g id="edge72" class="edge"><title>Node22&#45;&gt;Node26</title>
<path fill="none" stroke="midnightblue" d="M692.534,-116.497C716.495,-106.641 752.348,-91.8923 777.736,-81.4489"/>
<polygon fill="midnightblue" stroke="midnightblue" points="779.324,-84.5802 787.241,-77.5391 776.662,-78.1065 779.324,-84.5802"/>
</g>
<!-- Node23&#45;&gt;Node4 -->
<g id="edge64" class="edge"><title>Node23&#45;&gt;Node4</title>
<path fill="none" stroke="midnightblue" d="M603.744,-59.2591C600.79,-58.8123 597.86,-58.3889 595,-58 425.817,-34.9978 221.677,-18.867 145.053,-13.2176"/>
<polygon fill="midnightblue" stroke="midnightblue" points="144.921,-9.69872 134.692,-12.4606 144.411,-16.6801 144.921,-9.69872"/>
</g>
<!-- Node23&#45;&gt;Node12 -->
<g id="edge68" class="edge"><title>Node23&#45;&gt;Node12</title>
<path fill="none" stroke="midnightblue" d="M620.333,-58.4966C582.879,-48.0529 525.728,-32.1164 488.117,-21.6289"/>
<polygon fill="midnightblue" stroke="midnightblue" points="488.633,-18.1392 478.06,-18.8245 486.753,-24.8819 488.633,-18.1392"/>
</g>
<!-- Node24 -->
<g id="node57" class="node"><title>Node24</title>
<polygon fill="white" stroke="#bfbfbf" points="632,-0.5 632,-21.5 684,-21.5 684,-0.5 632,-0.5"/>
<text text-anchor="middle" x="658" y="-8.5" font-family="Helvetica,sans-Serif" font-size="10.00">sstream</text>
</g>
<!-- Node23&#45;&gt;Node24 -->
<g id="edge66" class="edge"><title>Node23&#45;&gt;Node24</title>
<path fill="none" stroke="midnightblue" d="M658,-58.3619C658,-50.9219 658,-40.7427 658,-31.7276"/>
<polygon fill="midnightblue" stroke="midnightblue" points="661.5,-31.5706 658,-21.5707 654.5,-31.5707 661.5,-31.5706"/>
</g>
<!-- Node31&#45;&gt;Node4 -->
<g id="edge96" class="edge"><title>Node31&#45;&gt;Node4</title>
<path fill="none" stroke="midnightblue" d="M651.692,-233.194C648.755,-232.775 645.846,-232.374 643,-232 485.766,-211.329 440.383,-239.924 288,-196 232.232,-179.925 210.6,-180.43 171,-138 144.758,-109.882 154.092,-92.9335 138,-58 133.812,-48.9087 128.828,-39.0173 124.489,-30.6643"/>
<polygon fill="midnightblue" stroke="midnightblue" points="127.531,-28.9283 119.78,-21.7055 121.335,-32.1856 127.531,-28.9283"/>
</g>
<!-- Node31&#45;&gt;Node21 -->
<g id="edge94" class="edge"><title>Node31&#45;&gt;Node21</title>
<path fill="none" stroke="midnightblue" d="M719.07,-232.362C725.149,-224.35 733.637,-213.161 740.837,-203.67"/>
<polygon fill="midnightblue" stroke="midnightblue" points="743.725,-205.653 746.981,-195.571 738.149,-201.422 743.725,-205.653"/>
</g>
<!-- Node31&#45;&gt;Node26 -->
<g id="edge98" class="edge"><title>Node31&#45;&gt;Node26</title>
<path fill="none" stroke="midnightblue" d="M669.174,-232.474C601.48,-214.497 472.859,-176.113 447,-138 441.51,-129.909 440.548,-123.347 447,-116 447.684,-115.221 690.148,-84.0957 777.277,-72.9331"/>
<polygon fill="midnightblue" stroke="midnightblue" points="777.865,-76.3864 787.34,-71.6442 776.976,-69.4431 777.865,-76.3864"/>
</g>
<!-- Node32 -->
<g id="node82" class="node"><title>Node32</title>
<a xlink:href="_git_info_8h.html" target="_top" xlink:title="base/GitInfo.h">
<polygon fill="white" stroke="black" points="104,-174.5 104,-195.5 182,-195.5 182,-174.5 104,-174.5"/>
<text text-anchor="middle" x="143" y="-182.5" font-family="Helvetica,sans-Serif" font-size="10.00">base/GitInfo.h</text>
</a>
</g>
<!-- Node31&#45;&gt;Node32 -->
<g id="edge100" class="edge"><title>Node31&#45;&gt;Node32</title>
<path fill="none" stroke="midnightblue" d="M651.701,-233.121C648.762,-232.721 645.849,-232.345 643,-232 445.132,-208.067 393.29,-224.306 196,-196 194.744,-195.82 193.473,-195.628 192.193,-195.426"/>
<polygon fill="midnightblue" stroke="midnightblue" points="192.715,-191.965 182.266,-193.716 191.526,-198.863 192.715,-191.965"/>
</g>
<!-- Node32&#45;&gt;Node4 -->
<g id="edge102" class="edge"><title>Node32&#45;&gt;Node4</title>
<path fill="none" stroke="midnightblue" d="M141.23,-174.377C136.549,-146.293 123.779,-69.6735 117.534,-32.2027"/>
<polygon fill="midnightblue" stroke="midnightblue" points="120.918,-31.2162 115.821,-21.9277 114.013,-32.3671 120.918,-31.2162"/>
</g>
<!-- Node33&#45;&gt;Node10 -->
<g id="edge112" class="edge"><title>Node33&#45;&gt;Node10</title>
<path fill="none" stroke="midnightblue" d="M1199.36,-290.867C1197.07,-274.45 1191.65,-249.632 1179,-232 1148.79,-189.911 1096.22,-158.997 1061.77,-141.998"/>
<polygon fill="midnightblue" stroke="midnightblue" points="1063.1,-138.752 1052.57,-137.575 1060.06,-145.061 1063.1,-138.752"/>
</g>
</g>
</svg>
