<?xml version="1.0" encoding="UTF-8" standalone="no"?>
<!DOCTYPE svg PUBLIC "-//W3C//DTD SVG 1.1//EN"
 "http://www.w3.org/Graphics/SVG/1.1/DTD/svg11.dtd">
<!-- Generated by graphviz version 2.26.3 (20100126.1600)
 -->
<!-- Title: src/calibration/modules/Energy.h Pages: 1 -->
<svg width="917pt" height="188pt"
 viewBox="0.00 0.00 917.00 188.00" xmlns="http://www.w3.org/2000/svg" xmlns:xlink="http://www.w3.org/1999/xlink">
<g id="graph1" class="graph" transform="scale(1 1) rotate(0) translate(4 184)">
<title>src/calibration/modules/Energy.h</title>
<polygon fill="white" stroke="white" points="-4,5 -4,-184 914,-184 914,5 -4,5"/>
<!-- Node1 -->
<g id="node1" class="node"><title>Node1</title>
<polygon fill="#bfbfbf" stroke="black" points="457.5,-145 457.5,-179 574.5,-179 574.5,-145 457.5,-145"/>
<text text-anchor="start" x="465.5" y="-166" font-family="Helvetica,sans-Serif" font-size="10.00">src/calibration/modules</text>
<text text-anchor="middle" x="516" y="-153" font-family="Helvetica,sans-Serif" font-size="10.00">/Energy.h</text>
</g>
<!-- Node2 -->
<g id="node3" class="node"><title>Node2</title>
<a xlink:href="_c_b___energy_8h.html" target="_top" xlink:title="src/calibration/modules\l/CB_Energy.h">
<polygon fill="white" stroke="black" points="122.5,-73 122.5,-107 239.5,-107 239.5,-73 122.5,-73"/>
<text text-anchor="start" x="130.5" y="-94" font-family="Helvetica,sans-Serif" font-size="10.00">src/calibration/modules</text>
<text text-anchor="middle" x="181" y="-81" font-family="Helvetica,sans-Serif" font-size="10.00">/CB_Energy.h</text>
</a>
</g>
<!-- Node1&#45;&gt;Node2 -->
<g id="edge2" class="edge"><title>Node1&#45;&gt;Node2</title>
<path fill="none" stroke="midnightblue" d="M447.616,-149.465C393.306,-139.21 315.532,-123.858 248,-108 245.303,-107.367 242.55,-106.702 239.773,-106.016"/>
<polygon fill="midnightblue" stroke="midnightblue" points="447.002,-152.91 457.477,-151.319 448.296,-146.031 447.002,-152.91"/>
</g>
<!-- Node6 -->
<g id="node11" class="node"><title>Node6</title>
<a xlink:href="_energy_8cc.html" target="_top" xlink:title="src/calibration/modules\l/Energy.cc">
<polygon fill="white" stroke="black" points="792.5,-73 792.5,-107 909.5,-107 909.5,-73 792.5,-73"/>
<text text-anchor="start" x="800.5" y="-94" font-family="Helvetica,sans-Serif" font-size="10.00">src/calibration/modules</text>
<text text-anchor="middle" x="851" y="-81" font-family="Helvetica,sans-Serif" font-size="10.00">/Energy.cc</text>
</a>
</g>
<!-- Node1&#45;&gt;Node6 -->
<g id="edge10" class="edge"><title>Node1&#45;&gt;Node6</title>
<path fill="none" stroke="midnightblue" d="M584.384,-149.465C638.694,-139.21 716.468,-123.858 784,-108 786.697,-107.367 789.45,-106.702 792.227,-106.016"/>
<polygon fill="midnightblue" stroke="midnightblue" points="583.704,-146.031 574.523,-151.319 584.998,-152.91 583.704,-146.031"/>
</g>
<!-- Node7 -->
<g id="node13" class="node"><title>Node7</title>
<a xlink:href="_p_i_d___energy_8h.html" target="_top" xlink:title="src/calibration/modules\l/PID_Energy.h">
<polygon fill="white" stroke="black" points="658.5,-73 658.5,-107 775.5,-107 775.5,-73 658.5,-73"/>
<text text-anchor="start" x="666.5" y="-94" font-family="Helvetica,sans-Serif" font-size="10.00">src/calibration/modules</text>
<text text-anchor="middle" x="717" y="-81" font-family="Helvetica,sans-Serif" font-size="10.00">/PID_Energy.h</text>
</a>
</g>
<!-- Node1&#45;&gt;Node7 -->
<g id="edge12" class="edge"><title>Node1&#45;&gt;Node7</title>
<path fill="none" stroke="midnightblue" d="M573.253,-141.491C603.643,-130.606 640.551,-117.385 669.36,-107.065"/>
<polygon fill="midnightblue" stroke="midnightblue" points="571.868,-138.27 563.634,-144.937 574.229,-144.86 571.868,-138.27"/>
</g>
<!-- Node9 -->
<g id="node19" class="node"><title>Node9</title>
<a xlink:href="_t_a_p_s___energy_8h.html" target="_top" xlink:title="src/calibration/modules\l/TAPS_Energy.h">
<polygon fill="white" stroke="black" points="256.5,-73 256.5,-107 373.5,-107 373.5,-73 256.5,-73"/>
<text text-anchor="start" x="264.5" y="-94" font-family="Helvetica,sans-Serif" font-size="10.00">src/calibration/modules</text>
<text text-anchor="middle" x="315" y="-81" font-family="Helvetica,sans-Serif" font-size="10.00">/TAPS_Energy.h</text>
</a>
</g>
<!-- Node1&#45;&gt;Node9 -->
<g id="edge20" class="edge"><title>Node1&#45;&gt;Node9</title>
<path fill="none" stroke="midnightblue" d="M458.747,-141.491C428.357,-130.606 391.449,-117.385 362.64,-107.065"/>
<polygon fill="midnightblue" stroke="midnightblue" points="457.771,-144.86 468.366,-144.937 460.132,-138.27 457.771,-144.86"/>
</g>
<!-- Node11 -->
<g id="node25" class="node"><title>Node11</title>
<a xlink:href="_t_a_p_s___short_energy_8h.html" target="_top" xlink:title="src/calibration/modules\l/TAPS_ShortEnergy.h">
<polygon fill="white" stroke="black" points="390.5,-73 390.5,-107 507.5,-107 507.5,-73 390.5,-73"/>
<text text-anchor="start" x="398.5" y="-94" font-family="Helvetica,sans-Serif" font-size="10.00">src/calibration/modules</text>
<text text-anchor="middle" x="449" y="-81" font-family="Helvetica,sans-Serif" font-size="10.00">/TAPS_ShortEnergy.h</text>
</a>
</g>
<!-- Node1&#45;&gt;Node11 -->
<g id="edge28" class="edge"><title>Node1&#45;&gt;Node11</title>
<path fill="none" stroke="midnightblue" d="M493.088,-137.379C483.928,-127.535 473.591,-116.426 465.23,-107.441"/>
<polygon fill="midnightblue" stroke="midnightblue" points="490.747,-140.001 500.122,-144.937 495.872,-135.232 490.747,-140.001"/>
</g>
<!-- Node13 -->
<g id="node31" class="node"><title>Node13</title>
<a xlink:href="_t_a_p_s_veto___energy_8h.html" target="_top" xlink:title="src/calibration/modules\l/TAPSVeto_Energy.h">
<polygon fill="white" stroke="black" points="524.5,-73 524.5,-107 641.5,-107 641.5,-73 524.5,-73"/>
<text text-anchor="start" x="532.5" y="-94" font-family="Helvetica,sans-Serif" font-size="10.00">src/calibration/modules</text>
<text text-anchor="middle" x="583" y="-81" font-family="Helvetica,sans-Serif" font-size="10.00">/TAPSVeto_Energy.h</text>
</a>
</g>
<!-- Node1&#45;&gt;Node13 -->
<g id="edge36" class="edge"><title>Node1&#45;&gt;Node13</title>
<path fill="none" stroke="midnightblue" d="M538.912,-137.379C548.072,-127.535 558.409,-116.426 566.77,-107.441"/>
<polygon fill="midnightblue" stroke="midnightblue" points="536.128,-135.232 531.878,-144.937 541.253,-140.001 536.128,-135.232"/>
</g>
<!-- Node3 -->
<g id="node5" class="node"><title>Node3</title>
<a xlink:href="_c_b___energy_8cc.html" target="_top" xlink:title="src/calibration/modules\l/CB_Energy.cc">
<polygon fill="white" stroke="black" points="-0.5,-1 -0.5,-35 116.5,-35 116.5,-1 -0.5,-1"/>
<text text-anchor="start" x="7.5" y="-22" font-family="Helvetica,sans-Serif" font-size="10.00">src/calibration/modules</text>
<text text-anchor="middle" x="58" y="-9" font-family="Helvetica,sans-Serif" font-size="10.00">/CB_Energy.cc</text>
</a>
</g>
<!-- Node2&#45;&gt;Node3 -->
<g id="edge4" class="edge"><title>Node2&#45;&gt;Node3</title>
<path fill="none" stroke="midnightblue" d="M142.823,-67.6522C124.945,-57.1871 103.98,-44.9152 87.3663,-35.19"/>
<polygon fill="midnightblue" stroke="midnightblue" points="141.452,-70.9057 151.851,-72.937 144.989,-64.8646 141.452,-70.9057"/>
</g>
<!-- Node4 -->
<g id="node7" class="node"><title>Node4</title>
<a xlink:href="_setup__2014___e_p_t_8cc.html" target="_top" xlink:title="src/expconfig/setups\l/Setup_2014_EPT.cc">
<polygon fill="white" stroke="black" points="268,-1 268,-35 378,-35 378,-1 268,-1"/>
<text text-anchor="start" x="276" y="-22" font-family="Helvetica,sans-Serif" font-size="10.00">src/expconfig/setups</text>
<text text-anchor="middle" x="323" y="-9" font-family="Helvetica,sans-Serif" font-size="10.00">/Setup_2014_EPT.cc</text>
</a>
</g>
<!-- Node2&#45;&gt;Node4 -->
<g id="edge6" class="edge"><title>Node2&#45;&gt;Node4</title>
<path fill="none" stroke="midnightblue" d="M223.66,-68.3694C244.601,-57.7514 269.477,-45.1383 289.097,-35.19"/>
<polygon fill="midnightblue" stroke="midnightblue" points="221.988,-65.293 214.652,-72.937 225.154,-71.5363 221.988,-65.293"/>
</g>
<!-- Node5 -->
<g id="node9" class="node"><title>Node5</title>
<a xlink:href="_setup___test_8cc.html" target="_top" xlink:title="src/expconfig/setups\l/Setup_Test.cc">
<polygon fill="white" stroke="black" points="395.5,-1 395.5,-35 502.5,-35 502.5,-1 395.5,-1"/>
<text text-anchor="start" x="403.5" y="-22" font-family="Helvetica,sans-Serif" font-size="10.00">src/expconfig/setups</text>
<text text-anchor="middle" x="449" y="-9" font-family="Helvetica,sans-Serif" font-size="10.00">/Setup_Test.cc</text>
</a>
</g>
<!-- Node2&#45;&gt;Node5 -->
<g id="edge8" class="edge"><title>Node2&#45;&gt;Node5</title>
<path fill="none" stroke="midnightblue" d="M249.68,-71.5723C311.353,-55.4118 328.467,-52.073 387,-36 389.702,-35.258 392.468,-34.4893 395.259,-33.7061"/>
<polygon fill="midnightblue" stroke="midnightblue" points="248.599,-68.2375 239.818,-74.1659 250.379,-75.0073 248.599,-68.2375"/>
</g>
<!-- Node7&#45;&gt;Node4 -->
<g id="edge16" class="edge"><title>Node7&#45;&gt;Node4</title>
<path fill="none" stroke="midnightblue" d="M648.311,-71.7919C532.551,-49.2441 499.348,-59.3714 387,-36 384.062,-35.3888 381.06,-34.7161 378.039,-34.0006"/>
<polygon fill="midnightblue" stroke="midnightblue" points="647.783,-75.2553 658.273,-73.7724 649.148,-68.3896 647.783,-75.2553"/>
</g>
<!-- Node7&#45;&gt;Node5 -->
<g id="edge18" class="edge"><title>Node7&#45;&gt;Node5</title>
<path fill="none" stroke="midnightblue" d="M648.32,-71.5723C586.647,-55.4118 569.533,-52.073 511,-36 508.298,-35.258 505.532,-34.4893 502.741,-33.7061"/>
<polygon fill="midnightblue" stroke="midnightblue" points="647.621,-75.0073 658.182,-74.1659 649.401,-68.2375 647.621,-75.0073"/>
</g>
<!-- Node8 -->
<g id="node15" class="node"><title>Node8</title>
<a xlink:href="_p_i_d___energy_8cc.html" target="_top" xlink:title="src/calibration/modules\l/PID_Energy.cc">
<polygon fill="white" stroke="black" points="789.5,-1 789.5,-35 906.5,-35 906.5,-1 789.5,-1"/>
<text text-anchor="start" x="797.5" y="-22" font-family="Helvetica,sans-Serif" font-size="10.00">src/calibration/modules</text>
<text text-anchor="middle" x="848" y="-9" font-family="Helvetica,sans-Serif" font-size="10.00">/PID_Energy.cc</text>
</a>
</g>
<!-- Node7&#45;&gt;Node8 -->
<g id="edge14" class="edge"><title>Node7&#45;&gt;Node8</title>
<path fill="none" stroke="midnightblue" d="M756.876,-68.0832C776.086,-57.5254 798.786,-45.049 816.724,-35.19"/>
<polygon fill="midnightblue" stroke="midnightblue" points="755.123,-65.0531 748.045,-72.937 758.495,-71.1876 755.123,-65.0531"/>
</g>
<!-- Node9&#45;&gt;Node4 -->
<g id="edge24" class="edge"><title>Node9&#45;&gt;Node4</title>
<path fill="none" stroke="midnightblue" d="M318.031,-62.7193C319.048,-53.572 320.153,-43.6255 321.062,-35.4407"/>
<polygon fill="midnightblue" stroke="midnightblue" points="314.522,-62.6116 316.896,-72.937 321.479,-63.3847 314.522,-62.6116"/>
</g>
<!-- Node9&#45;&gt;Node5 -->
<g id="edge26" class="edge"><title>Node9&#45;&gt;Node5</title>
<path fill="none" stroke="midnightblue" d="M355.79,-68.0832C375.439,-57.5254 398.659,-45.049 417.007,-35.19"/>
<polygon fill="midnightblue" stroke="midnightblue" points="353.908,-65.1207 346.756,-72.937 357.222,-71.2869 353.908,-65.1207"/>
</g>
<!-- Node10 -->
<g id="node21" class="node"><title>Node10</title>
<a xlink:href="_t_a_p_s___energy_8cc.html" target="_top" xlink:title="src/calibration/modules\l/TAPS_Energy.cc">
<polygon fill="white" stroke="black" points="133.5,-1 133.5,-35 250.5,-35 250.5,-1 133.5,-1"/>
<text text-anchor="start" x="141.5" y="-22" font-family="Helvetica,sans-Serif" font-size="10.00">src/calibration/modules</text>
<text text-anchor="middle" x="192" y="-9" font-family="Helvetica,sans-Serif" font-size="10.00">/TAPS_Energy.cc</text>
</a>
</g>
<!-- Node9&#45;&gt;Node10 -->
<g id="edge22" class="edge"><title>Node9&#45;&gt;Node10</title>
<path fill="none" stroke="midnightblue" d="M276.823,-67.6522C258.945,-57.1871 237.98,-44.9152 221.366,-35.19"/>
<polygon fill="midnightblue" stroke="midnightblue" points="275.452,-70.9057 285.851,-72.937 278.989,-64.8646 275.452,-70.9057"/>
</g>
<!-- Node11&#45;&gt;Node4 -->
<g id="edge32" class="edge"><title>Node11&#45;&gt;Node4</title>
<path fill="none" stroke="midnightblue" d="M410.395,-67.9398C391.972,-57.4125 370.258,-45.0044 353.083,-35.19"/>
<polygon fill="midnightblue" stroke="midnightblue" points="408.721,-71.0144 419.14,-72.937 412.194,-64.9367 408.721,-71.0144"/>
</g>
<!-- Node11&#45;&gt;Node5 -->
<g id="edge34" class="edge"><title>Node11&#45;&gt;Node5</title>
<path fill="none" stroke="midnightblue" d="M449,-62.7193C449,-53.572 449,-43.6255 449,-35.4407"/>
<polygon fill="midnightblue" stroke="midnightblue" points="445.5,-62.937 449,-72.937 452.5,-62.937 445.5,-62.937"/>
</g>
<!-- Node12 -->
<g id="node27" class="node"><title>Node12</title>
<a xlink:href="_t_a_p_s___short_energy_8cc.html" target="_top" xlink:title="src/calibration/modules\l/TAPS_ShortEnergy.cc">
<polygon fill="white" stroke="black" points="519.5,-1 519.5,-35 638.5,-35 638.5,-1 519.5,-1"/>
<text text-anchor="start" x="527.5" y="-22" font-family="Helvetica,sans-Serif" font-size="10.00">src/calibration/modules</text>
<text text-anchor="middle" x="579" y="-9" font-family="Helvetica,sans-Serif" font-size="10.00">/TAPS_ShortEnergy.cc</text>
</a>
</g>
<!-- Node11&#45;&gt;Node12 -->
<g id="edge30" class="edge"><title>Node11&#45;&gt;Node12</title>
<path fill="none" stroke="midnightblue" d="M488.572,-68.0832C507.635,-57.5254 530.161,-45.049 547.962,-35.19"/>
<polygon fill="midnightblue" stroke="midnightblue" points="486.86,-65.0302 479.808,-72.937 490.252,-71.1537 486.86,-65.0302"/>
</g>
<!-- Node13&#45;&gt;Node4 -->
<g id="edge40" class="edge"><title>Node13&#45;&gt;Node4</title>
<path fill="none" stroke="midnightblue" d="M514.387,-71.1926C476.76,-60.8545 429.294,-47.7738 387,-36 384.109,-35.1952 381.145,-34.3682 378.153,-33.5318"/>
<polygon fill="midnightblue" stroke="midnightblue" points="513.658,-74.6219 524.228,-73.8955 515.512,-67.8719 513.658,-74.6219"/>
</g>
<!-- Node13&#45;&gt;Node5 -->
<g id="edge42" class="edge"><title>Node13&#45;&gt;Node5</title>
<path fill="none" stroke="midnightblue" d="M542.21,-68.0832C522.561,-57.5254 499.341,-45.049 480.993,-35.19"/>
<polygon fill="midnightblue" stroke="midnightblue" points="540.778,-71.2869 551.244,-72.937 544.092,-65.1207 540.778,-71.2869"/>
</g>
<!-- Node14 -->
<g id="node33" class="node"><title>Node14</title>
<a xlink:href="_t_a_p_s_veto___energy_8cc.html" target="_top" xlink:title="src/calibration/modules\l/TAPSVeto_Energy.cc">
<polygon fill="white" stroke="black" points="655.5,-1 655.5,-35 772.5,-35 772.5,-1 655.5,-1"/>
<text text-anchor="start" x="663.5" y="-22" font-family="Helvetica,sans-Serif" font-size="10.00">src/calibration/modules</text>
<text text-anchor="middle" x="714" y="-9" font-family="Helvetica,sans-Serif" font-size="10.00">/TAPSVeto_Energy.cc</text>
</a>
</g>
<!-- Node13&#45;&gt;Node14 -->
<g id="edge38" class="edge"><title>Node13&#45;&gt;Node14</title>
<path fill="none" stroke="midnightblue" d="M622.876,-68.0832C642.086,-57.5254 664.786,-45.049 682.724,-35.19"/>
<polygon fill="midnightblue" stroke="midnightblue" points="621.123,-65.0531 614.045,-72.937 624.495,-71.1876 621.123,-65.0531"/>
</g>
</g>
</svg>
