<?xml version="1.0" encoding="UTF-8" standalone="no"?>
<!DOCTYPE svg PUBLIC "-//W3C//DTD SVG 1.1//EN"
 "http://www.w3.org/Graphics/SVG/1.1/DTD/svg11.dtd">
<!-- Generated by graphviz version 2.26.3 (20100126.1600)
 -->
<!-- Title: src/analysis/data/Event.cc Pages: 1 -->
<svg width="1594pt" height="494pt"
 viewBox="0.00 0.00 1594.00 494.00" xmlns="http://www.w3.org/2000/svg" xmlns:xlink="http://www.w3.org/1999/xlink">
<g id="graph1" class="graph" transform="scale(1 1) rotate(0) translate(4 490)">
<title>src/analysis/data/Event.cc</title>
<polygon fill="white" stroke="white" points="-4,5 -4,-490 1591,-490 1591,5 -4,5"/>
<!-- Node1 -->
<g id="node1" class="node"><title>Node1</title>
<polygon fill="#bfbfbf" stroke="black" points="1211.5,-464.5 1211.5,-485.5 1344.5,-485.5 1344.5,-464.5 1211.5,-464.5"/>
<text text-anchor="middle" x="1278" y="-472.5" font-family="Helvetica,sans-Serif" font-size="10.00">src/analysis/data/Event.cc</text>
</g>
<!-- Node2 -->
<g id="node3" class="node"><title>Node2</title>
<a xlink:href="_event_8h.html" target="_top" xlink:title="Event.h">
<polygon fill="white" stroke="black" points="1026,-406.5 1026,-427.5 1076,-427.5 1076,-406.5 1026,-406.5"/>
<text text-anchor="middle" x="1051" y="-414.5" font-family="Helvetica,sans-Serif" font-size="10.00">Event.h</text>
</a>
</g>
<!-- Node1&#45;&gt;Node2 -->
<g id="edge2" class="edge"><title>Node1&#45;&gt;Node2</title>
<path fill="none" stroke="midnightblue" d="M1236.89,-464.497C1193.67,-453.452 1126.4,-436.264 1085.73,-425.875"/>
<polygon fill="midnightblue" stroke="midnightblue" points="1086.56,-422.472 1076,-423.388 1084.82,-429.255 1086.56,-422.472"/>
</g>
<!-- Node25 -->
<g id="node66" class="node"><title>Node25</title>
<polygon fill="white" stroke="#bfbfbf" points="1492,-290.5 1492,-311.5 1546,-311.5 1546,-290.5 1492,-290.5"/>
<text text-anchor="middle" x="1519" y="-298.5" font-family="Helvetica,sans-Serif" font-size="10.00">iostream</text>
</g>
<!-- Node1&#45;&gt;Node25 -->
<g id="edge162" class="edge"><title>Node1&#45;&gt;Node25</title>
<path fill="none" stroke="midnightblue" d="M1310.08,-464.433C1352.6,-449.137 1428.07,-417.368 1478,-370 1492.62,-356.13 1503.81,-335.91 1510.77,-320.941"/>
<polygon fill="midnightblue" stroke="midnightblue" points="1514.08,-322.121 1514.91,-311.559 1507.67,-319.296 1514.08,-322.121"/>
</g>
<!-- Node3 -->
<g id="node5" class="node"><title>Node3</title>
<a xlink:href="_particle_8h.html" target="_top" xlink:title="Particle.h">
<polygon fill="white" stroke="black" points="1022,-348.5 1022,-369.5 1080,-369.5 1080,-348.5 1022,-348.5"/>
<text text-anchor="middle" x="1051" y="-356.5" font-family="Helvetica,sans-Serif" font-size="10.00">Particle.h</text>
</a>
</g>
<!-- Node2&#45;&gt;Node3 -->
<g id="edge4" class="edge"><title>Node2&#45;&gt;Node3</title>
<path fill="none" stroke="midnightblue" d="M1051,-406.362C1051,-398.922 1051,-388.743 1051,-379.728"/>
<polygon fill="midnightblue" stroke="midnightblue" points="1054.5,-379.571 1051,-369.571 1047.5,-379.571 1054.5,-379.571"/>
</g>
<!-- Node4 -->
<g id="node7" class="node"><title>Node4</title>
<a xlink:href="_candidate_8h.html" target="_top" xlink:title="analysis/data/Candidate.h">
<polygon fill="white" stroke="black" points="718,-290.5 718,-311.5 848,-311.5 848,-290.5 718,-290.5"/>
<text text-anchor="middle" x="783" y="-298.5" font-family="Helvetica,sans-Serif" font-size="10.00">analysis/data/Candidate.h</text>
</a>
</g>
<!-- Node2&#45;&gt;Node4 -->
<g id="edge86" class="edge"><title>Node2&#45;&gt;Node4</title>
<path fill="none" stroke="midnightblue" d="M1026.27,-406.295C977.982,-385.395 871.127,-339.145 816.531,-315.513"/>
<polygon fill="midnightblue" stroke="midnightblue" points="817.853,-312.272 807.286,-311.512 815.072,-318.696 817.853,-312.272"/>
</g>
<!-- Node5 -->
<g id="node9" class="node"><title>Node5</title>
<a xlink:href="printable_8h.html" target="_top" xlink:title="base/printable.h">
<polygon fill="white" stroke="black" points="917,-116.5 917,-137.5 1003,-137.5 1003,-116.5 917,-116.5"/>
<text text-anchor="middle" x="960" y="-124.5" font-family="Helvetica,sans-Serif" font-size="10.00">base/printable.h</text>
</a>
</g>
<!-- Node2&#45;&gt;Node5 -->
<g id="edge152" class="edge"><title>Node2&#45;&gt;Node5</title>
<path fill="none" stroke="midnightblue" d="M1076.4,-406.533C1132.52,-381.676 1259.62,-314.918 1227,-232 1214.1,-199.225 1203.58,-191.474 1173,-174 1146.2,-158.688 1067.18,-143.821 1013.3,-135.04"/>
<polygon fill="midnightblue" stroke="midnightblue" points="1013.65,-131.551 1003.22,-133.419 1012.54,-138.462 1013.65,-131.551"/>
</g>
<!-- Node6 -->
<g id="node11" class="node"><title>Node6</title>
<polygon fill="white" stroke="#bfbfbf" points="1291,-58.5 1291,-79.5 1335,-79.5 1335,-58.5 1291,-58.5"/>
<text text-anchor="middle" x="1313" y="-66.5" font-family="Helvetica,sans-Serif" font-size="10.00">vector</text>
</g>
<!-- Node2&#45;&gt;Node6 -->
<g id="edge156" class="edge"><title>Node2&#45;&gt;Node6</title>
<path fill="none" stroke="midnightblue" d="M1076.01,-413.528C1153.98,-402.232 1390.62,-364.22 1445,-312 1471.29,-286.757 1474.62,-266.542 1463,-232 1440.73,-165.803 1374.57,-111.495 1338,-85.5232"/>
<polygon fill="midnightblue" stroke="midnightblue" points="1339.59,-82.3693 1329.38,-79.5406 1335.6,-88.1191 1339.59,-82.3693"/>
</g>
<!-- Node8 -->
<g id="node15" class="node"><title>Node8</title>
<a xlink:href="types_8h.html" target="_top" xlink:title="base/types.h">
<polygon fill="white" stroke="black" points="1017.5,-232.5 1017.5,-253.5 1090.5,-253.5 1090.5,-232.5 1017.5,-232.5"/>
<text text-anchor="middle" x="1054" y="-240.5" font-family="Helvetica,sans-Serif" font-size="10.00">base/types.h</text>
</a>
</g>
<!-- Node2&#45;&gt;Node8 -->
<g id="edge150" class="edge"><title>Node2&#45;&gt;Node8</title>
<path fill="none" stroke="midnightblue" d="M1063.19,-406.424C1072.25,-397.699 1083.89,-384.443 1089,-370 1102.25,-332.526 1081.38,-287.4 1066.61,-262.283"/>
<polygon fill="midnightblue" stroke="midnightblue" points="1069.55,-260.381 1061.33,-253.694 1063.58,-264.047 1069.55,-260.381"/>
</g>
<!-- Node18 -->
<g id="node41" class="node"><title>Node18</title>
<polygon fill="white" stroke="#bfbfbf" points="510,-232.5 510,-253.5 562,-253.5 562,-232.5 510,-232.5"/>
<text text-anchor="middle" x="536" y="-240.5" font-family="Helvetica,sans-Serif" font-size="10.00">memory</text>
</g>
<!-- Node2&#45;&gt;Node18 -->
<g id="edge158" class="edge"><title>Node2&#45;&gt;Node18</title>
<path fill="none" stroke="midnightblue" d="M1025.63,-413.432C959.964,-403.579 779.914,-372.626 642,-312 610.516,-298.16 577.879,-275.427 557.285,-259.863"/>
<polygon fill="midnightblue" stroke="midnightblue" points="559.297,-256.996 549.235,-253.679 555.033,-262.547 559.297,-256.996"/>
</g>
<!-- Node20 -->
<g id="node51" class="node"><title>Node20</title>
<polygon fill="white" stroke="#bfbfbf" points="1551.5,-232.5 1551.5,-253.5 1586.5,-253.5 1586.5,-232.5 1551.5,-232.5"/>
<text text-anchor="middle" x="1569" y="-240.5" font-family="Helvetica,sans-Serif" font-size="10.00">map</text>
</g>
<!-- Node2&#45;&gt;Node20 -->
<g id="edge160" class="edge"><title>Node2&#45;&gt;Node20</title>
<path fill="none" stroke="midnightblue" d="M1076.28,-415.971C1156.44,-412.436 1403.99,-399.353 1478,-370 1517.83,-354.204 1532.14,-348.239 1555,-312 1564.15,-297.5 1567.47,-278.178 1568.61,-263.669"/>
<polygon fill="midnightblue" stroke="midnightblue" points="1572.11,-263.836 1569.12,-253.673 1565.12,-263.483 1572.11,-263.836"/>
</g>
<!-- Node22 -->
<g id="node56" class="node"><title>Node22</title>
<a xlink:href="_tree_8h.html" target="_top" xlink:title="base/Tree.h">
<polygon fill="white" stroke="black" points="415,-290.5 415,-311.5 483,-311.5 483,-290.5 415,-290.5"/>
<text text-anchor="middle" x="449" y="-298.5" font-family="Helvetica,sans-Serif" font-size="10.00">base/Tree.h</text>
</a>
</g>
<!-- Node2&#45;&gt;Node22 -->
<g id="edge154" class="edge"><title>Node2&#45;&gt;Node22</title>
<path fill="none" stroke="midnightblue" d="M1025.86,-415.813C940.493,-411.582 662.312,-396.074 577,-370 537.866,-358.039 496.972,-333.562 472.237,-317.214"/>
<polygon fill="midnightblue" stroke="midnightblue" points="474.139,-314.275 463.888,-311.597 470.231,-320.083 474.139,-314.275"/>
</g>
<!-- Node26 -->
<g id="node70" class="node"><title>Node26</title>
<a xlink:href="_tagger_hit_8h.html" target="_top" xlink:title="TaggerHit.h">
<polygon fill="white" stroke="black" points="957,-290.5 957,-311.5 1025,-311.5 1025,-290.5 957,-290.5"/>
<text text-anchor="middle" x="991" y="-298.5" font-family="Helvetica,sans-Serif" font-size="10.00">TaggerHit.h</text>
</a>
</g>
<!-- Node2&#45;&gt;Node26 -->
<g id="edge88" class="edge"><title>Node2&#45;&gt;Node26</title>
<path fill="none" stroke="midnightblue" d="M1040.35,-406.262C1031.92,-397.244 1020.37,-383.671 1013,-370 1004.73,-354.653 998.964,-335.689 995.416,-321.528"/>
<polygon fill="midnightblue" stroke="midnightblue" points="998.82,-320.713 993.131,-311.775 992.005,-322.31 998.82,-320.713"/>
</g>
<!-- Node27 -->
<g id="node77" class="node"><title>Node27</title>
<a xlink:href="_trigger_info_8h.html" target="_top" xlink:title="TriggerInfo.h">
<polygon fill="white" stroke="black" points="500.5,-290.5 500.5,-311.5 571.5,-311.5 571.5,-290.5 500.5,-290.5"/>
<text text-anchor="middle" x="536" y="-298.5" font-family="Helvetica,sans-Serif" font-size="10.00">TriggerInfo.h</text>
</a>
</g>
<!-- Node2&#45;&gt;Node27 -->
<g id="edge100" class="edge"><title>Node2&#45;&gt;Node27</title>
<path fill="none" stroke="midnightblue" d="M1025.89,-416.291C944.477,-413.687 688.781,-403.01 614,-370 588.366,-358.684 565.181,-335.78 550.876,-319.466"/>
<polygon fill="midnightblue" stroke="midnightblue" points="553.373,-317 544.239,-311.632 548.032,-321.525 553.373,-317"/>
</g>
<!-- Node3&#45;&gt;Node4 -->
<g id="edge6" class="edge"><title>Node3&#45;&gt;Node4</title>
<path fill="none" stroke="midnightblue" d="M1021.81,-352.683C978.769,-343.368 897.377,-325.753 841.686,-313.701"/>
<polygon fill="midnightblue" stroke="midnightblue" points="842.116,-310.213 831.602,-311.518 840.635,-317.054 842.116,-310.213"/>
</g>
<!-- Node3&#45;&gt;Node5 -->
<g id="edge50" class="edge"><title>Node3&#45;&gt;Node5</title>
<path fill="none" stroke="midnightblue" d="M1080.1,-350.544C1135.41,-332.938 1246.95,-289.182 1209,-232 1165.6,-166.592 1072.56,-141.83 1013.31,-132.524"/>
<polygon fill="midnightblue" stroke="midnightblue" points="1013.79,-129.056 1003.38,-131.059 1012.77,-135.981 1013.79,-129.056"/>
</g>
<!-- Node3&#45;&gt;Node6 -->
<g id="edge78" class="edge"><title>Node3&#45;&gt;Node6</title>
<path fill="none" stroke="midnightblue" d="M1080.16,-356.742C1112.92,-352.777 1165.95,-341.88 1200,-312 1270.1,-250.475 1299.71,-136.295 1309.25,-89.6555"/>
<polygon fill="midnightblue" stroke="midnightblue" points="1312.74,-90.0482 1311.21,-79.5638 1305.87,-88.7113 1312.74,-90.0482"/>
</g>
<!-- Node3&#45;&gt;Node8 -->
<g id="edge52" class="edge"><title>Node3&#45;&gt;Node8</title>
<path fill="none" stroke="midnightblue" d="M1051.28,-348.295C1051.77,-329.131 1052.82,-288.654 1053.46,-263.843"/>
<polygon fill="midnightblue" stroke="midnightblue" points="1056.96,-263.766 1053.72,-253.679 1049.97,-263.585 1056.96,-263.766"/>
</g>
<!-- Node16 -->
<g id="node34" class="node"><title>Node16</title>
<polygon fill="white" stroke="#bfbfbf" points="655.5,-174.5 655.5,-195.5 684.5,-195.5 684.5,-174.5 655.5,-174.5"/>
<text text-anchor="middle" x="670" y="-182.5" font-family="Helvetica,sans-Serif" font-size="10.00">list</text>
</g>
<!-- Node3&#45;&gt;Node16 -->
<g id="edge80" class="edge"><title>Node3&#45;&gt;Node16</title>
<path fill="none" stroke="midnightblue" d="M1027.63,-348.484C1006.71,-339.039 975.242,-324.739 948,-312 873.449,-277.138 856.024,-265.831 781,-232 751.387,-218.646 716.875,-204.206 694.293,-194.907"/>
<polygon fill="midnightblue" stroke="midnightblue" points="695.397,-191.577 684.817,-191.019 692.74,-198.053 695.397,-191.577"/>
</g>
<!-- Node3&#45;&gt;Node18 -->
<g id="edge84" class="edge"><title>Node3&#45;&gt;Node18</title>
<path fill="none" stroke="midnightblue" d="M1021.71,-357.376C962,-353.543 822.29,-341.9 709,-312 657.637,-298.444 600.952,-273.871 566.927,-258.004"/>
<polygon fill="midnightblue" stroke="midnightblue" points="568.079,-254.677 557.541,-253.578 565.093,-261.009 568.079,-254.677"/>
</g>
<!-- Node19 -->
<g id="node46" class="node"><title>Node19</title>
<a xlink:href="_particle_type_8h.html" target="_top" xlink:title="base/ParticleType.h">
<polygon fill="white" stroke="black" points="1332,-290.5 1332,-311.5 1436,-311.5 1436,-290.5 1332,-290.5"/>
<text text-anchor="middle" x="1384" y="-298.5" font-family="Helvetica,sans-Serif" font-size="10.00">base/ParticleType.h</text>
</a>
</g>
<!-- Node3&#45;&gt;Node19 -->
<g id="edge54" class="edge"><title>Node3&#45;&gt;Node19</title>
<path fill="none" stroke="midnightblue" d="M1080.26,-353.904C1134.07,-344.531 1249.81,-324.372 1321.86,-311.823"/>
<polygon fill="midnightblue" stroke="midnightblue" points="1322.48,-315.269 1331.73,-310.104 1321.28,-308.372 1322.48,-315.269"/>
</g>
<!-- Node3&#45;&gt;Node22 -->
<g id="edge68" class="edge"><title>Node3&#45;&gt;Node22</title>
<path fill="none" stroke="midnightblue" d="M1021.99,-358.263C940.209,-355.826 700.833,-346.224 493.326,-311.987"/>
<polygon fill="midnightblue" stroke="midnightblue" points="493.598,-308.484 483.158,-310.285 492.443,-315.388 493.598,-308.484"/>
</g>
<!-- Node24 -->
<g id="node62" class="node"><title>Node24</title>
<polygon fill="white" stroke="#bfbfbf" points="1108,-232.5 1108,-253.5 1200,-253.5 1200,-232.5 1108,-232.5"/>
<text text-anchor="middle" x="1154" y="-240.5" font-family="Helvetica,sans-Serif" font-size="10.00">TLorentzVector.h</text>
</g>
<!-- Node3&#45;&gt;Node24 -->
<g id="edge76" class="edge"><title>Node3&#45;&gt;Node24</title>
<path fill="none" stroke="midnightblue" d="M1060.51,-348.295C1078.13,-328.441 1116.08,-285.709 1137.82,-261.224"/>
<polygon fill="midnightblue" stroke="midnightblue" points="1140.5,-263.481 1144.52,-253.679 1135.26,-258.833 1140.5,-263.481"/>
</g>
<!-- Node3&#45;&gt;Node25 -->
<g id="edge82" class="edge"><title>Node3&#45;&gt;Node25</title>
<path fill="none" stroke="midnightblue" d="M1080.2,-355.809C1145.6,-348.597 1308.79,-330.245 1445,-312 1457.05,-310.386 1470.18,-308.482 1481.99,-306.716"/>
<polygon fill="midnightblue" stroke="midnightblue" points="1482.6,-310.163 1491.96,-305.21 1481.55,-303.242 1482.6,-310.163"/>
</g>
<!-- Node4&#45;&gt;Node5 -->
<g id="edge8" class="edge"><title>Node4&#45;&gt;Node5</title>
<path fill="none" stroke="midnightblue" d="M793.806,-290.377C823.113,-261.567 904.379,-181.678 941.308,-145.376"/>
<polygon fill="midnightblue" stroke="midnightblue" points="944.206,-147.434 948.884,-137.928 939.299,-142.442 944.206,-147.434"/>
</g>
<!-- Node4&#45;&gt;Node6 -->
<g id="edge48" class="edge"><title>Node4&#45;&gt;Node6</title>
<path fill="none" stroke="midnightblue" d="M807.15,-290.429C893.197,-252.763 1184.82,-125.11 1281.54,-82.7719"/>
<polygon fill="midnightblue" stroke="midnightblue" points="1283.04,-85.935 1290.8,-78.7187 1280.23,-79.5225 1283.04,-85.935"/>
</g>
<!-- Node7 -->
<g id="node13" class="node"><title>Node7</title>
<polygon fill="white" stroke="#bfbfbf" points="934,-58.5 934,-79.5 986,-79.5 986,-58.5 934,-58.5"/>
<text text-anchor="middle" x="960" y="-66.5" font-family="Helvetica,sans-Serif" font-size="10.00">ostream</text>
</g>
<!-- Node4&#45;&gt;Node7 -->
<g id="edge44" class="edge"><title>Node4&#45;&gt;Node7</title>
<path fill="none" stroke="midnightblue" d="M788.93,-290.321C805.549,-260.863 854.848,-176.625 908,-116 917.276,-105.42 928.78,-94.8094 938.608,-86.3539"/>
<polygon fill="midnightblue" stroke="midnightblue" points="940.989,-88.9249 946.383,-79.8063 936.48,-83.5705 940.989,-88.9249"/>
</g>
<!-- Node4&#45;&gt;Node8 -->
<g id="edge14" class="edge"><title>Node4&#45;&gt;Node8</title>
<path fill="none" stroke="midnightblue" d="M832.076,-290.497C881.916,-279.83 958.53,-263.433 1007.44,-252.964"/>
<polygon fill="midnightblue" stroke="midnightblue" points="1008.39,-256.34 1017.44,-250.824 1006.93,-249.495 1008.39,-256.34"/>
</g>
<!-- Node9 -->
<g id="node17" class="node"><title>Node9</title>
<a xlink:href="_detector__t_8h.html" target="_top" xlink:title="base/Detector_t.h">
<polygon fill="white" stroke="black" points="467.5,-174.5 467.5,-195.5 562.5,-195.5 562.5,-174.5 467.5,-174.5"/>
<text text-anchor="middle" x="515" y="-182.5" font-family="Helvetica,sans-Serif" font-size="10.00">base/Detector_t.h</text>
</a>
</g>
<!-- Node4&#45;&gt;Node9 -->
<g id="edge16" class="edge"><title>Node4&#45;&gt;Node9</title>
<path fill="none" stroke="midnightblue" d="M727.287,-290.479C693.503,-282.901 650.095,-270.992 614,-254 584.444,-240.087 554.165,-217.524 535.008,-202.01"/>
<polygon fill="midnightblue" stroke="midnightblue" points="537.216,-199.295 527.273,-195.637 532.765,-204.697 537.216,-199.295"/>
</g>
<!-- Node10 -->
<g id="node20" class="node"><title>Node10</title>
<polygon fill="white" stroke="#bfbfbf" points="717.5,-116.5 717.5,-137.5 782.5,-137.5 782.5,-116.5 717.5,-116.5"/>
<text text-anchor="middle" x="750" y="-124.5" font-family="Helvetica,sans-Serif" font-size="10.00">TVector3.h</text>
</g>
<!-- Node4&#45;&gt;Node10 -->
<g id="edge42" class="edge"><title>Node4&#45;&gt;Node10</title>
<path fill="none" stroke="midnightblue" d="M734.394,-290.474C699.744,-281.87 657.509,-268.751 647,-254 626.369,-225.042 627.773,-203.908 647,-174 654.21,-162.784 682.706,-150.256 707.901,-140.957"/>
<polygon fill="midnightblue" stroke="midnightblue" points="709.12,-144.238 717.345,-137.56 706.751,-137.651 709.12,-144.238"/>
</g>
<!-- Node15 -->
<g id="node31" class="node"><title>Node15</title>
<a xlink:href="_cluster_8h.html" target="_top" xlink:title="analysis/data/Cluster.h">
<polygon fill="white" stroke="black" points="655.5,-232.5 655.5,-253.5 772.5,-253.5 772.5,-232.5 655.5,-232.5"/>
<text text-anchor="middle" x="714" y="-240.5" font-family="Helvetica,sans-Serif" font-size="10.00">analysis/data/Cluster.h</text>
</a>
</g>
<!-- Node4&#45;&gt;Node15 -->
<g id="edge32" class="edge"><title>Node4&#45;&gt;Node15</title>
<path fill="none" stroke="midnightblue" d="M770.344,-290.362C760.326,-281.941 746.133,-270.011 734.499,-260.231"/>
<polygon fill="midnightblue" stroke="midnightblue" points="736.482,-257.326 726.575,-253.571 731.978,-262.684 736.482,-257.326"/>
</g>
<!-- Node4&#45;&gt;Node18 -->
<g id="edge46" class="edge"><title>Node4&#45;&gt;Node18</title>
<path fill="none" stroke="midnightblue" d="M733.498,-290.418C691.469,-281.276 629.617,-267.452 576,-254 574.743,-253.685 573.464,-253.359 572.174,-253.026"/>
<polygon fill="midnightblue" stroke="midnightblue" points="572.768,-249.563 562.205,-250.388 570.977,-256.33 572.768,-249.563"/>
</g>
<!-- Node5&#45;&gt;Node6 -->
<g id="edge10" class="edge"><title>Node5&#45;&gt;Node6</title>
<path fill="none" stroke="midnightblue" d="M1003.28,-119.888C1074.99,-108.107 1216.82,-84.8035 1280.59,-74.3244"/>
<polygon fill="midnightblue" stroke="midnightblue" points="1281.55,-77.7142 1290.85,-72.6391 1280.42,-70.8068 1281.55,-77.7142"/>
</g>
<!-- Node5&#45;&gt;Node7 -->
<g id="edge12" class="edge"><title>Node5&#45;&gt;Node7</title>
<path fill="none" stroke="midnightblue" d="M960,-116.362C960,-108.922 960,-98.7427 960,-89.7276"/>
<polygon fill="midnightblue" stroke="midnightblue" points="963.5,-89.5706 960,-79.5707 956.5,-89.5707 963.5,-89.5706"/>
</g>
<!-- Node9&#45;&gt;Node5 -->
<g id="edge18" class="edge"><title>Node9&#45;&gt;Node5</title>
<path fill="none" stroke="midnightblue" d="M562.576,-176.152C567.108,-175.39 571.638,-174.66 576,-174 693.813,-156.182 832.75,-140.488 906.956,-132.532"/>
<polygon fill="midnightblue" stroke="midnightblue" points="907.416,-136.002 916.988,-131.461 906.673,-129.042 907.416,-136.002"/>
</g>
<!-- Node9&#45;&gt;Node6 -->
<g id="edge30" class="edge"><title>Node9&#45;&gt;Node6</title>
<path fill="none" stroke="midnightblue" d="M555.397,-174.458C586.191,-165.938 629.392,-152.934 666,-138 685.877,-129.891 688.341,-121.835 709,-116 818.099,-85.1847 1171.75,-72.9397 1280.73,-69.8407"/>
<polygon fill="midnightblue" stroke="midnightblue" points="1280.89,-73.3378 1290.78,-69.5612 1280.69,-66.3405 1280.89,-73.3378"/>
</g>
<!-- Node9&#45;&gt;Node10 -->
<g id="edge20" class="edge"><title>Node9&#45;&gt;Node10</title>
<path fill="none" stroke="midnightblue" d="M557.557,-174.497C600.047,-164.01 664.977,-147.984 707.461,-137.499"/>
<polygon fill="midnightblue" stroke="midnightblue" points="708.353,-140.884 717.223,-135.09 706.675,-134.088 708.353,-140.884"/>
</g>
<!-- Node11 -->
<g id="node22" class="node"><title>Node11</title>
<polygon fill="white" stroke="#bfbfbf" points="422,-116.5 422,-137.5 468,-137.5 468,-116.5 422,-116.5"/>
<text text-anchor="middle" x="445" y="-124.5" font-family="Helvetica,sans-Serif" font-size="10.00">cstdint</text>
</g>
<!-- Node9&#45;&gt;Node11 -->
<g id="edge22" class="edge"><title>Node9&#45;&gt;Node11</title>
<path fill="none" stroke="midnightblue" d="M502.161,-174.362C491.998,-165.941 477.599,-154.011 465.796,-144.231"/>
<polygon fill="midnightblue" stroke="midnightblue" points="467.691,-141.256 457.758,-137.571 463.225,-146.646 467.691,-141.256"/>
</g>
<!-- Node12 -->
<g id="node24" class="node"><title>Node12</title>
<polygon fill="white" stroke="#bfbfbf" points="485.5,-116.5 485.5,-137.5 544.5,-137.5 544.5,-116.5 485.5,-116.5"/>
<text text-anchor="middle" x="515" y="-124.5" font-family="Helvetica,sans-Serif" font-size="10.00">stdexcept</text>
</g>
<!-- Node9&#45;&gt;Node12 -->
<g id="edge24" class="edge"><title>Node9&#45;&gt;Node12</title>
<path fill="none" stroke="midnightblue" d="M515,-174.362C515,-166.922 515,-156.743 515,-147.728"/>
<polygon fill="midnightblue" stroke="midnightblue" points="518.5,-147.571 515,-137.571 511.5,-147.571 518.5,-147.571"/>
</g>
<!-- Node13 -->
<g id="node26" class="node"><title>Node13</title>
<polygon fill="white" stroke="#bfbfbf" points="631.5,-0.5 631.5,-21.5 672.5,-21.5 672.5,-0.5 631.5,-0.5"/>
<text text-anchor="middle" x="652" y="-8.5" font-family="Helvetica,sans-Serif" font-size="10.00">string</text>
</g>
<!-- Node9&#45;&gt;Node13 -->
<g id="edge26" class="edge"><title>Node9&#45;&gt;Node13</title>
<path fill="none" stroke="midnightblue" d="M562.625,-177.645C587.346,-171.315 615.88,-159.603 633,-138 657.34,-107.286 657.212,-58.8732 654.742,-31.5481"/>
<polygon fill="midnightblue" stroke="midnightblue" points="658.216,-31.1147 653.646,-21.5561 651.257,-31.8782 658.216,-31.1147"/>
</g>
<!-- Node14 -->
<g id="node28" class="node"><title>Node14</title>
<polygon fill="white" stroke="#bfbfbf" points="562,-116.5 562,-137.5 624,-137.5 624,-116.5 562,-116.5"/>
<text text-anchor="middle" x="593" y="-124.5" font-family="Helvetica,sans-Serif" font-size="10.00">type_traits</text>
</g>
<!-- Node9&#45;&gt;Node14 -->
<g id="edge28" class="edge"><title>Node9&#45;&gt;Node14</title>
<path fill="none" stroke="midnightblue" d="M529.306,-174.362C540.851,-165.777 557.3,-153.546 570.59,-143.664"/>
<polygon fill="midnightblue" stroke="midnightblue" points="572.848,-146.346 578.784,-137.571 568.671,-140.729 572.848,-146.346"/>
</g>
<!-- Node15&#45;&gt;Node9 -->
<g id="edge34" class="edge"><title>Node15&#45;&gt;Node9</title>
<path fill="none" stroke="midnightblue" d="M677.963,-232.497C645.099,-222.918 596.383,-208.72 560.776,-198.342"/>
<polygon fill="midnightblue" stroke="midnightblue" points="561.685,-194.961 551.105,-195.523 559.726,-201.681 561.685,-194.961"/>
</g>
<!-- Node15&#45;&gt;Node10 -->
<g id="edge38" class="edge"><title>Node15&#45;&gt;Node10</title>
<path fill="none" stroke="midnightblue" d="M716.18,-232.11C719.04,-218.398 724.469,-194.19 731,-174 733.927,-164.951 737.769,-155.167 741.231,-146.88"/>
<polygon fill="midnightblue" stroke="midnightblue" points="744.458,-148.236 745.179,-137.666 738.024,-145.479 744.458,-148.236"/>
</g>
<!-- Node15&#45;&gt;Node16 -->
<g id="edge36" class="edge"><title>Node15&#45;&gt;Node16</title>
<path fill="none" stroke="midnightblue" d="M705.93,-232.362C699.851,-224.35 691.363,-213.161 684.163,-203.67"/>
<polygon fill="midnightblue" stroke="midnightblue" points="686.851,-201.422 678.019,-195.571 681.275,-205.653 686.851,-201.422"/>
</g>
<!-- Node17 -->
<g id="node37" class="node"><title>Node17</title>
<a xlink:href="enumfield_8h.html" target="_top" xlink:title="base/enumfield.h">
<polygon fill="white" stroke="black" points="739.5,-174.5 739.5,-195.5 830.5,-195.5 830.5,-174.5 739.5,-174.5"/>
<text text-anchor="middle" x="785" y="-182.5" font-family="Helvetica,sans-Serif" font-size="10.00">base/enumfield.h</text>
</a>
</g>
<!-- Node15&#45;&gt;Node17 -->
<g id="edge40" class="edge"><title>Node15&#45;&gt;Node17</title>
<path fill="none" stroke="midnightblue" d="M727.022,-232.362C737.431,-223.859 752.219,-211.779 764.255,-201.947"/>
<polygon fill="midnightblue" stroke="midnightblue" points="766.53,-204.608 772.06,-195.571 762.101,-199.187 766.53,-204.608"/>
</g>
<!-- Node19&#45;&gt;Node6 -->
<g id="edge66" class="edge"><title>Node19&#45;&gt;Node6</title>
<path fill="none" stroke="midnightblue" d="M1384.49,-290.358C1385.4,-260.992 1385.12,-176.969 1356,-116 1350.67,-104.845 1341.8,-94.4703 1333.49,-86.3216"/>
<polygon fill="midnightblue" stroke="midnightblue" points="1335.85,-83.7379 1326.14,-79.5053 1331.09,-88.871 1335.85,-83.7379"/>
</g>
<!-- Node19&#45;&gt;Node7 -->
<g id="edge60" class="edge"><title>Node19&#45;&gt;Node7</title>
<path fill="none" stroke="midnightblue" d="M1374.72,-290.334C1353.45,-266.47 1298.63,-208.183 1242,-174 1160.32,-124.695 1051.66,-92.2993 996.082,-77.7803"/>
<polygon fill="midnightblue" stroke="midnightblue" points="996.898,-74.3763 986.342,-75.2772 995.156,-81.156 996.898,-74.3763"/>
</g>
<!-- Node19&#45;&gt;Node8 -->
<g id="edge56" class="edge"><title>Node19&#45;&gt;Node8</title>
<path fill="none" stroke="midnightblue" d="M1331.78,-293.61C1276.58,-285.526 1186.79,-271.6 1100.72,-254.255"/>
<polygon fill="midnightblue" stroke="midnightblue" points="1101.28,-250.798 1090.79,-252.234 1099.89,-257.657 1101.28,-250.798"/>
</g>
<!-- Node19&#45;&gt;Node13 -->
<g id="edge58" class="edge"><title>Node19&#45;&gt;Node13</title>
<path fill="none" stroke="midnightblue" d="M1412.66,-290.392C1429.62,-282.725 1450.23,-270.752 1463,-254 1482.29,-228.705 1482,-216.808 1482,-185 1482,-185 1482,-185 1482,-127 1482,-58.4272 1410.17,-76.0082 1344,-58 1216.54,-23.3095 799.276,-13.559 682.572,-11.4801"/>
<polygon fill="midnightblue" stroke="midnightblue" points="682.598,-7.98013 672.539,-11.3073 682.477,-14.9791 682.598,-7.98013"/>
</g>
<!-- Node19&#45;&gt;Node20 -->
<g id="edge62" class="edge"><title>Node19&#45;&gt;Node20</title>
<path fill="none" stroke="midnightblue" d="M1417.5,-290.497C1453.02,-279.362 1508.45,-261.984 1541.5,-251.622"/>
<polygon fill="midnightblue" stroke="midnightblue" points="1542.89,-254.853 1551.39,-248.521 1540.8,-248.173 1542.89,-254.853"/>
</g>
<!-- Node21 -->
<g id="node53" class="node"><title>Node21</title>
<polygon fill="white" stroke="#bfbfbf" points="1407.5,-232.5 1407.5,-253.5 1454.5,-253.5 1454.5,-232.5 1407.5,-232.5"/>
<text text-anchor="middle" x="1431" y="-240.5" font-family="Helvetica,sans-Serif" font-size="10.00">iterator</text>
</g>
<!-- Node19&#45;&gt;Node21 -->
<g id="edge64" class="edge"><title>Node19&#45;&gt;Node21</title>
<path fill="none" stroke="midnightblue" d="M1392.62,-290.362C1399.18,-282.268 1408.37,-270.932 1416.11,-261.38"/>
<polygon fill="midnightblue" stroke="midnightblue" points="1418.86,-263.544 1422.43,-253.571 1413.42,-259.136 1418.86,-263.544"/>
</g>
<!-- Node22&#45;&gt;Node16 -->
<g id="edge72" class="edge"><title>Node22&#45;&gt;Node16</title>
<path fill="none" stroke="midnightblue" d="M452.873,-290.358C458.99,-275.075 472.356,-247.094 493,-232 517.318,-214.219 602.624,-197.008 645.3,-189.267"/>
<polygon fill="midnightblue" stroke="midnightblue" points="646.176,-192.666 655.407,-187.466 644.948,-185.775 646.176,-192.666"/>
</g>
<!-- Node22&#45;&gt;Node18 -->
<g id="edge70" class="edge"><title>Node22&#45;&gt;Node18</title>
<path fill="none" stroke="midnightblue" d="M464.957,-290.362C477.957,-281.696 496.531,-269.313 511.427,-259.382"/>
<polygon fill="midnightblue" stroke="midnightblue" points="513.765,-262.03 520.144,-253.571 509.882,-256.206 513.765,-262.03"/>
</g>
<!-- Node23 -->
<g id="node60" class="node"><title>Node23</title>
<polygon fill="white" stroke="#bfbfbf" points="66,-0.5 66,-21.5 122,-21.5 122,-0.5 66,-0.5"/>
<text text-anchor="middle" x="94" y="-8.5" font-family="Helvetica,sans-Serif" font-size="10.00">algorithm</text>
</g>
<!-- Node22&#45;&gt;Node23 -->
<g id="edge74" class="edge"><title>Node22&#45;&gt;Node23</title>
<path fill="none" stroke="midnightblue" d="M414.883,-299.519C310.103,-294.054 0,-270.643 0,-185 0,-185 0,-185 0,-127 0,-83.7291 39.9701,-47.5659 67.7826,-27.6402"/>
<polygon fill="midnightblue" stroke="midnightblue" points="70.0742,-30.3115 76.3193,-21.7529 66.1001,-24.5489 70.0742,-30.3115"/>
</g>
<!-- Node26&#45;&gt;Node5 -->
<g id="edge96" class="edge"><title>Node26&#45;&gt;Node5</title>
<path fill="none" stroke="midnightblue" d="M989.107,-290.377C984.104,-262.293 970.453,-185.673 963.777,-148.203"/>
<polygon fill="midnightblue" stroke="midnightblue" points="967.147,-147.159 961.947,-137.928 960.255,-148.387 967.147,-147.159"/>
</g>
<!-- Node26&#45;&gt;Node8 -->
<g id="edge94" class="edge"><title>Node26&#45;&gt;Node8</title>
<path fill="none" stroke="midnightblue" d="M1002.56,-290.362C1011.61,-282.023 1024.41,-270.242 1034.97,-260.516"/>
<polygon fill="midnightblue" stroke="midnightblue" points="1037.53,-262.919 1042.52,-253.571 1032.79,-257.769 1037.53,-262.919"/>
</g>
<!-- Node26&#45;&gt;Node16 -->
<g id="edge90" class="edge"><title>Node26&#45;&gt;Node16</title>
<path fill="none" stroke="midnightblue" d="M978.87,-290.348C960.794,-275.053 925.134,-247.058 890,-232 872.074,-224.317 748.194,-200.011 694.609,-189.699"/>
<polygon fill="midnightblue" stroke="midnightblue" points="695.073,-186.224 684.593,-187.777 693.754,-193.099 695.073,-186.224"/>
</g>
<!-- Node26&#45;&gt;Node18 -->
<g id="edge92" class="edge"><title>Node26&#45;&gt;Node18</title>
<path fill="none" stroke="midnightblue" d="M956.801,-296.641C872.979,-285.956 657.9,-258.539 572.115,-247.604"/>
<polygon fill="midnightblue" stroke="midnightblue" points="572.437,-244.117 562.075,-246.324 571.552,-251.06 572.437,-244.117"/>
</g>
<!-- Node26&#45;&gt;Node24 -->
<g id="edge98" class="edge"><title>Node26&#45;&gt;Node24</title>
<path fill="none" stroke="midnightblue" d="M1020.52,-290.497C1046.98,-281.082 1085.98,-267.204 1115,-256.877"/>
<polygon fill="midnightblue" stroke="midnightblue" points="1116.18,-260.173 1124.43,-253.523 1113.83,-253.578 1116.18,-260.173"/>
</g>
<!-- Node27&#45;&gt;Node5 -->
<g id="edge104" class="edge"><title>Node27&#45;&gt;Node5</title>
<path fill="none" stroke="midnightblue" d="M520.989,-290.276C503.628,-276.532 479.105,-252.08 493,-232 503.404,-216.964 629.305,-178.605 647,-174 736.665,-150.663 843.999,-137.678 906.829,-131.533"/>
<polygon fill="midnightblue" stroke="midnightblue" points="907.276,-135.006 916.897,-130.57 906.609,-128.038 907.276,-135.006"/>
</g>
<!-- Node27&#45;&gt;Node8 -->
<g id="edge102" class="edge"><title>Node27&#45;&gt;Node8</title>
<path fill="none" stroke="midnightblue" d="M571.604,-297.013C662.872,-286.794 905.17,-259.664 1007.43,-248.215"/>
<polygon fill="midnightblue" stroke="midnightblue" points="1007.91,-251.683 1017.46,-247.092 1007.13,-244.726 1007.91,-251.683"/>
</g>
<!-- Node27&#45;&gt;Node16 -->
<g id="edge146" class="edge"><title>Node27&#45;&gt;Node16</title>
<path fill="none" stroke="midnightblue" d="M523.434,-290.269C508.356,-276.088 486.779,-250.716 501,-232 509.851,-220.352 600.632,-199.709 645.361,-190.138"/>
<polygon fill="midnightblue" stroke="midnightblue" points="646.357,-193.505 655.414,-188.008 644.906,-186.657 646.357,-193.505"/>
</g>
<!-- Node27&#45;&gt;Node18 -->
<g id="edge148" class="edge"><title>Node27&#45;&gt;Node18</title>
<path fill="none" stroke="midnightblue" d="M536,-290.362C536,-282.922 536,-272.743 536,-263.728"/>
<polygon fill="midnightblue" stroke="midnightblue" points="539.5,-263.571 536,-253.571 532.5,-263.571 539.5,-263.571"/>
</g>
<!-- Node28 -->
<g id="node81" class="node"><title>Node28</title>
<a xlink:href="_t_data_record_8h.html" target="_top" xlink:title="tree/TDataRecord.h">
<polygon fill="white" stroke="black" points="113.5,-232.5 113.5,-253.5 216.5,-253.5 216.5,-232.5 113.5,-232.5"/>
<text text-anchor="middle" x="165" y="-240.5" font-family="Helvetica,sans-Serif" font-size="10.00">tree/TDataRecord.h</text>
</a>
</g>
<!-- Node27&#45;&gt;Node28 -->
<g id="edge106" class="edge"><title>Node27&#45;&gt;Node28</title>
<path fill="none" stroke="midnightblue" d="M500.049,-291.694C497.332,-291.089 494.627,-290.516 492,-290 400.248,-271.986 292.741,-257.855 226.756,-249.967"/>
<polygon fill="midnightblue" stroke="midnightblue" points="226.874,-246.456 216.531,-248.755 226.05,-253.407 226.874,-246.456"/>
</g>
<!-- Node29 -->
<g id="node83" class="node"><title>Node29</title>
<a xlink:href="_t_i_d_8h.html" target="_top" xlink:title="TID.h">
<polygon fill="white" stroke="black" points="349.5,-174.5 349.5,-195.5 390.5,-195.5 390.5,-174.5 349.5,-174.5"/>
<text text-anchor="middle" x="370" y="-182.5" font-family="Helvetica,sans-Serif" font-size="10.00">TID.h</text>
</a>
</g>
<!-- Node28&#45;&gt;Node29 -->
<g id="edge108" class="edge"><title>Node28&#45;&gt;Node29</title>
<path fill="none" stroke="midnightblue" d="M202.124,-232.497C241.4,-221.384 302.655,-204.054 339.303,-193.685"/>
<polygon fill="midnightblue" stroke="midnightblue" points="340.722,-196.921 349.392,-190.831 338.817,-190.185 340.722,-196.921"/>
</g>
<!-- Node30 -->
<g id="node85" class="node"><title>Node30</title>
<polygon fill="white" stroke="#bfbfbf" points="66,-116.5 66,-137.5 122,-137.5 122,-116.5 66,-116.5"/>
<text text-anchor="middle" x="94" y="-124.5" font-family="Helvetica,sans-Serif" font-size="10.00">Rtypes.h</text>
</g>
<!-- Node28&#45;&gt;Node30 -->
<g id="edge140" class="edge"><title>Node28&#45;&gt;Node30</title>
<path fill="none" stroke="midnightblue" d="M158.448,-232.295C146.507,-212.786 121.046,-171.188 105.946,-146.518"/>
<polygon fill="midnightblue" stroke="midnightblue" points="108.742,-144.381 100.536,-137.679 102.772,-148.036 108.742,-144.381"/>
</g>
<!-- Node35 -->
<g id="node98" class="node"><title>Node35</title>
<polygon fill="white" stroke="#bfbfbf" points="330.5,-58.5 330.5,-79.5 371.5,-79.5 371.5,-58.5 330.5,-58.5"/>
<text text-anchor="middle" x="351" y="-66.5" font-family="Helvetica,sans-Serif" font-size="10.00">ctime</text>
</g>
<!-- Node28&#45;&gt;Node35 -->
<g id="edge144" class="edge"><title>Node28&#45;&gt;Node35</title>
<path fill="none" stroke="midnightblue" d="M143.834,-232.383C102.816,-210.474 19.6843,-158.728 57,-116 94.2601,-73.3359 248.905,-92.5895 320.359,-79.6615"/>
<polygon fill="midnightblue" stroke="midnightblue" points="321.244,-83.051 330.273,-77.5094 319.759,-76.2103 321.244,-83.051"/>
</g>
<!-- Node37 -->
<g id="node105" class="node"><title>Node37</title>
<polygon fill="white" stroke="#bfbfbf" points="140,-116.5 140,-137.5 190,-137.5 190,-116.5 140,-116.5"/>
<text text-anchor="middle" x="165" y="-124.5" font-family="Helvetica,sans-Serif" font-size="10.00">iomanip</text>
</g>
<!-- Node28&#45;&gt;Node37 -->
<g id="edge142" class="edge"><title>Node28&#45;&gt;Node37</title>
<path fill="none" stroke="midnightblue" d="M165,-232.295C165,-213.131 165,-172.654 165,-147.843"/>
<polygon fill="midnightblue" stroke="midnightblue" points="168.5,-147.679 165,-137.679 161.5,-147.679 168.5,-147.679"/>
</g>
<!-- Node29&#45;&gt;Node5 -->
<g id="edge112" class="edge"><title>Node29&#45;&gt;Node5</title>
<path fill="none" stroke="midnightblue" d="M390.84,-182.248C408.864,-179.911 435.628,-176.54 459,-174 621.863,-156.3 814.951,-139.312 906.596,-131.49"/>
<polygon fill="midnightblue" stroke="midnightblue" points="907.065,-134.963 916.732,-130.627 906.471,-127.988 907.065,-134.963"/>
</g>
<!-- Node29&#45;&gt;Node11 -->
<g id="edge132" class="edge"><title>Node29&#45;&gt;Node11</title>
<path fill="none" stroke="midnightblue" d="M383.756,-174.362C394.751,-165.859 410.373,-153.779 423.086,-143.947"/>
<polygon fill="midnightblue" stroke="midnightblue" points="425.562,-146.457 431.331,-137.571 421.279,-140.919 425.562,-146.457"/>
</g>
<!-- Node29&#45;&gt;Node12 -->
<g id="edge134" class="edge"><title>Node29&#45;&gt;Node12</title>
<path fill="none" stroke="midnightblue" d="M390.775,-176.69C413.821,-167.472 451.417,-152.433 479.222,-141.311"/>
<polygon fill="midnightblue" stroke="midnightblue" points="480.624,-144.52 488.609,-137.556 478.024,-138.021 480.624,-144.52"/>
</g>
<!-- Node29&#45;&gt;Node14 -->
<g id="edge128" class="edge"><title>Node29&#45;&gt;Node14</title>
<path fill="none" stroke="midnightblue" d="M390.613,-179.827C422.87,-171.707 487.477,-155.338 551.689,-138.322"/>
<polygon fill="midnightblue" stroke="midnightblue" points="552.804,-141.647 561.571,-135.697 551.007,-134.882 552.804,-141.647"/>
</g>
<!-- Node29&#45;&gt;Node30 -->
<g id="edge110" class="edge"><title>Node29&#45;&gt;Node30</title>
<path fill="none" stroke="midnightblue" d="M349.395,-181.626C309.371,-174.93 218.172,-158.971 132.128,-138.118"/>
<polygon fill="midnightblue" stroke="midnightblue" points="132.752,-134.667 122.206,-135.686 131.085,-141.466 132.752,-134.667"/>
</g>
<!-- Node31 -->
<g id="node88" class="node"><title>Node31</title>
<a xlink:href="time_8h.html" target="_top" xlink:title="base/std_ext/time.h">
<polygon fill="white" stroke="black" points="207.5,-116.5 207.5,-137.5 310.5,-137.5 310.5,-116.5 207.5,-116.5"/>
<text text-anchor="middle" x="259" y="-124.5" font-family="Helvetica,sans-Serif" font-size="10.00">base/std_ext/time.h</text>
</a>
</g>
<!-- Node29&#45;&gt;Node31 -->
<g id="edge114" class="edge"><title>Node29&#45;&gt;Node31</title>
<path fill="none" stroke="midnightblue" d="M349.899,-174.497C332.718,-165.519 307.77,-152.484 288.355,-142.339"/>
<polygon fill="midnightblue" stroke="midnightblue" points="289.811,-139.15 279.327,-137.621 286.569,-145.354 289.811,-139.15"/>
</g>
<!-- Node29&#45;&gt;Node35 -->
<g id="edge138" class="edge"><title>Node29&#45;&gt;Node35</title>
<path fill="none" stroke="midnightblue" d="M372.822,-174.076C375.914,-160.329 379.831,-136.085 375,-116 372.69,-106.396 368.069,-96.5455 363.493,-88.3593"/>
<polygon fill="midnightblue" stroke="midnightblue" points="366.413,-86.4225 358.284,-79.6285 360.402,-90.0094 366.413,-86.4225"/>
</g>
<!-- Node36 -->
<g id="node101" class="node"><title>Node36</title>
<polygon fill="white" stroke="#bfbfbf" points="328,-116.5 328,-137.5 366,-137.5 366,-116.5 328,-116.5"/>
<text text-anchor="middle" x="347" y="-124.5" font-family="Helvetica,sans-Serif" font-size="10.00">tuple</text>
</g>
<!-- Node29&#45;&gt;Node36 -->
<g id="edge130" class="edge"><title>Node29&#45;&gt;Node36</title>
<path fill="none" stroke="midnightblue" d="M365.781,-174.362C362.766,-166.758 358.617,-156.294 354.985,-147.135"/>
<polygon fill="midnightblue" stroke="midnightblue" points="358.132,-145.576 351.192,-137.571 351.625,-148.157 358.132,-145.576"/>
</g>
<!-- Node29&#45;&gt;Node37 -->
<g id="edge136" class="edge"><title>Node29&#45;&gt;Node37</title>
<path fill="none" stroke="midnightblue" d="M349.384,-179.652C318.866,-171.668 259.662,-155.919 200.149,-138.261"/>
<polygon fill="midnightblue" stroke="midnightblue" points="200.795,-134.801 190.212,-135.295 198.793,-141.509 200.795,-134.801"/>
</g>
<!-- Node32 -->
<g id="node90" class="node"><title>Node32</title>
<a xlink:href="string_8h.html" target="_top" xlink:title="base/std_ext/string.h">
<polygon fill="white" stroke="black" points="205,-58.5 205,-79.5 313,-79.5 313,-58.5 205,-58.5"/>
<text text-anchor="middle" x="259" y="-66.5" font-family="Helvetica,sans-Serif" font-size="10.00">base/std_ext/string.h</text>
</a>
</g>
<!-- Node31&#45;&gt;Node32 -->
<g id="edge116" class="edge"><title>Node31&#45;&gt;Node32</title>
<path fill="none" stroke="midnightblue" d="M259,-116.362C259,-108.922 259,-98.7427 259,-89.7276"/>
<polygon fill="midnightblue" stroke="midnightblue" points="262.5,-89.5706 259,-79.5707 255.5,-89.5707 262.5,-89.5706"/>
</g>
<!-- Node34 -->
<g id="node96" class="node"><title>Node34</title>
<polygon fill="white" stroke="#bfbfbf" points="141,-58.5 141,-79.5 187,-79.5 187,-58.5 141,-58.5"/>
<text text-anchor="middle" x="164" y="-66.5" font-family="Helvetica,sans-Serif" font-size="10.00">cstring</text>
</g>
<!-- Node31&#45;&gt;Node34 -->
<g id="edge124" class="edge"><title>Node31&#45;&gt;Node34</title>
<path fill="none" stroke="midnightblue" d="M241.576,-116.362C227.113,-107.532 206.331,-94.844 189.916,-84.8224"/>
<polygon fill="midnightblue" stroke="midnightblue" points="191.673,-81.7943 181.314,-79.5707 188.025,-87.7688 191.673,-81.7943"/>
</g>
<!-- Node31&#45;&gt;Node35 -->
<g id="edge126" class="edge"><title>Node31&#45;&gt;Node35</title>
<path fill="none" stroke="midnightblue" d="M275.874,-116.362C289.751,-107.614 309.634,-95.0786 325.46,-85.1015"/>
<polygon fill="midnightblue" stroke="midnightblue" points="327.64,-87.8645 334.233,-79.5707 323.907,-81.943 327.64,-87.8645"/>
</g>
<!-- Node32&#45;&gt;Node13 -->
<g id="edge118" class="edge"><title>Node32&#45;&gt;Node13</title>
<path fill="none" stroke="midnightblue" d="M313.278,-59.4115C316.227,-58.9254 319.149,-58.4518 322,-58 432.036,-40.5621 563.2,-22.7713 621.486,-15.0202"/>
<polygon fill="midnightblue" stroke="midnightblue" points="622.046,-18.4766 631.499,-13.6921 621.126,-11.5374 622.046,-18.4766"/>
</g>
<!-- Node32&#45;&gt;Node23 -->
<g id="edge122" class="edge"><title>Node32&#45;&gt;Node23</title>
<path fill="none" stroke="midnightblue" d="M229.12,-58.4966C201.753,-48.8767 161.127,-34.5962 131.571,-24.2069"/>
<polygon fill="midnightblue" stroke="midnightblue" points="132.602,-20.8594 122.008,-20.8451 130.281,-27.4633 132.602,-20.8594"/>
</g>
<!-- Node33 -->
<g id="node93" class="node"><title>Node33</title>
<polygon fill="white" stroke="#bfbfbf" points="233,-0.5 233,-21.5 285,-21.5 285,-0.5 233,-0.5"/>
<text text-anchor="middle" x="259" y="-8.5" font-family="Helvetica,sans-Serif" font-size="10.00">sstream</text>
</g>
<!-- Node32&#45;&gt;Node33 -->
<g id="edge120" class="edge"><title>Node32&#45;&gt;Node33</title>
<path fill="none" stroke="midnightblue" d="M259,-58.3619C259,-50.9219 259,-40.7427 259,-31.7276"/>
<polygon fill="midnightblue" stroke="midnightblue" points="262.5,-31.5706 259,-21.5707 255.5,-31.5707 262.5,-31.5706"/>
</g>
</g>
</svg>
