<?xml version="1.0" encoding="UTF-8" standalone="no"?>
<!DOCTYPE svg PUBLIC "-//W3C//DTD SVG 1.1//EN"
 "http://www.w3.org/Graphics/SVG/1.1/DTD/svg11.dtd">
<!-- Generated by graphviz version 2.26.3 (20100126.1600)
 -->
<!-- Title: src/analysis/data/Event.h Pages: 1 -->
<svg width="1518pt" height="436pt"
 viewBox="0.00 0.00 1518.19 436.00" xmlns="http://www.w3.org/2000/svg" xmlns:xlink="http://www.w3.org/1999/xlink">
<g id="graph1" class="graph" transform="scale(1 1) rotate(0) translate(4 432)">
<title>src/analysis/data/Event.h</title>
<polygon fill="white" stroke="white" points="-4,5 -4,-432 1515.19,-432 1515.19,5 -4,5"/>
<!-- Node1 -->
<g id="node1" class="node"><title>Node1</title>
<polygon fill="#bfbfbf" stroke="black" points="733,-406.5 733,-427.5 861,-427.5 861,-406.5 733,-406.5"/>
<text text-anchor="middle" x="797" y="-414.5" font-family="Helvetica,sans-Serif" font-size="10.00">src/analysis/data/Event.h</text>
</g>
<!-- Node2 -->
<g id="node3" class="node"><title>Node2</title>
<a xlink:href="_particle_8h.html" target="_top" xlink:title="Particle.h">
<polygon fill="white" stroke="black" points="740,-348.5 740,-369.5 798,-369.5 798,-348.5 740,-348.5"/>
<text text-anchor="middle" x="769" y="-356.5" font-family="Helvetica,sans-Serif" font-size="10.00">Particle.h</text>
</a>
</g>
<!-- Node1&#45;&gt;Node2 -->
<g id="edge2" class="edge"><title>Node1&#45;&gt;Node2</title>
<path fill="none" stroke="midnightblue" d="M791.864,-406.362C788.154,-398.677 783.033,-388.069 778.578,-378.84"/>
<polygon fill="midnightblue" stroke="midnightblue" points="781.603,-377.055 774.103,-369.571 775.299,-380.098 781.603,-377.055"/>
</g>
<!-- Node3 -->
<g id="node5" class="node"><title>Node3</title>
<a xlink:href="_candidate_8h.html" target="_top" xlink:title="analysis/data/Candidate.h">
<polygon fill="white" stroke="black" points="298,-290.5 298,-311.5 428,-311.5 428,-290.5 298,-290.5"/>
<text text-anchor="middle" x="363" y="-298.5" font-family="Helvetica,sans-Serif" font-size="10.00">analysis/data/Candidate.h</text>
</a>
</g>
<!-- Node1&#45;&gt;Node3 -->
<g id="edge84" class="edge"><title>Node1&#45;&gt;Node3</title>
<path fill="none" stroke="midnightblue" d="M732.994,-412.973C645.203,-406.696 492.555,-392.867 442,-370 416.285,-358.369 392.751,-335.531 378.183,-319.319"/>
<polygon fill="midnightblue" stroke="midnightblue" points="380.62,-316.788 371.417,-311.539 375.338,-321.382 380.62,-316.788"/>
</g>
<!-- Node4 -->
<g id="node7" class="node"><title>Node4</title>
<a xlink:href="printable_8h.html" target="_top" xlink:title="base/printable.h">
<polygon fill="white" stroke="black" points="517,-116.5 517,-137.5 603,-137.5 603,-116.5 517,-116.5"/>
<text text-anchor="middle" x="560" y="-124.5" font-family="Helvetica,sans-Serif" font-size="10.00">base/printable.h</text>
</a>
</g>
<!-- Node1&#45;&gt;Node4 -->
<g id="edge150" class="edge"><title>Node1&#45;&gt;Node4</title>
<path fill="none" stroke="midnightblue" d="M732.932,-407.374C698.083,-400.357 655.061,-388.713 620,-370 585.549,-351.613 581.201,-340.019 554,-312 525.118,-282.249 496.244,-272.301 506,-232 513.821,-199.692 533.402,-166.182 546.705,-145.958"/>
<polygon fill="midnightblue" stroke="midnightblue" points="549.618,-147.899 552.311,-137.652 543.816,-143.983 549.618,-147.899"/>
</g>
<!-- Node5 -->
<g id="node9" class="node"><title>Node5</title>
<polygon fill="white" stroke="#bfbfbf" points="165,-58.5 165,-79.5 209,-79.5 209,-58.5 165,-58.5"/>
<text text-anchor="middle" x="187" y="-66.5" font-family="Helvetica,sans-Serif" font-size="10.00">vector</text>
</g>
<!-- Node1&#45;&gt;Node5 -->
<g id="edge154" class="edge"><title>Node1&#45;&gt;Node5</title>
<path fill="none" stroke="midnightblue" d="M732.79,-414.39C543.357,-405.844 0,-374.889 0,-301 0,-301 0,-301 0,-185 0,-113.009 101.32,-84.1496 154.8,-73.9312"/>
<polygon fill="midnightblue" stroke="midnightblue" points="155.592,-77.3449 164.814,-72.1288 154.352,-70.4556 155.592,-77.3449"/>
</g>
<!-- Node7 -->
<g id="node13" class="node"><title>Node7</title>
<a xlink:href="types_8h.html" target="_top" xlink:title="base/types.h">
<polygon fill="white" stroke="black" points="751.5,-232.5 751.5,-253.5 824.5,-253.5 824.5,-232.5 751.5,-232.5"/>
<text text-anchor="middle" x="788" y="-240.5" font-family="Helvetica,sans-Serif" font-size="10.00">base/types.h</text>
</a>
</g>
<!-- Node1&#45;&gt;Node7 -->
<g id="edge148" class="edge"><title>Node1&#45;&gt;Node7</title>
<path fill="none" stroke="midnightblue" d="M799.953,-406.276C802.397,-396.816 805.673,-382.611 807,-370 810.962,-332.339 801.301,-288.742 794.351,-263.667"/>
<polygon fill="midnightblue" stroke="midnightblue" points="797.645,-262.46 791.497,-253.832 790.923,-264.411 797.645,-262.46"/>
</g>
<!-- Node17 -->
<g id="node39" class="node"><title>Node17</title>
<polygon fill="white" stroke="#bfbfbf" points="1066,-232.5 1066,-253.5 1118,-253.5 1118,-232.5 1066,-232.5"/>
<text text-anchor="middle" x="1092" y="-240.5" font-family="Helvetica,sans-Serif" font-size="10.00">memory</text>
</g>
<!-- Node1&#45;&gt;Node17 -->
<g id="edge156" class="edge"><title>Node1&#45;&gt;Node17</title>
<path fill="none" stroke="midnightblue" d="M842.083,-406.494C895.427,-392.276 984.716,-362.675 1046,-312 1062.2,-298.604 1074.89,-278.042 1082.79,-262.846"/>
<polygon fill="midnightblue" stroke="midnightblue" points="1085.99,-264.28 1087.29,-253.765 1079.72,-261.174 1085.99,-264.28"/>
</g>
<!-- Node19 -->
<g id="node49" class="node"><title>Node19</title>
<polygon fill="white" stroke="#bfbfbf" points="521.5,-232.5 521.5,-253.5 556.5,-253.5 556.5,-232.5 521.5,-232.5"/>
<text text-anchor="middle" x="539" y="-240.5" font-family="Helvetica,sans-Serif" font-size="10.00">map</text>
</g>
<!-- Node1&#45;&gt;Node19 -->
<g id="edge158" class="edge"><title>Node1&#45;&gt;Node19</title>
<path fill="none" stroke="midnightblue" d="M756.36,-406.422C707.998,-392.057 627.243,-362.239 575,-312 560.915,-298.455 551.255,-278.192 545.515,-263.125"/>
<polygon fill="midnightblue" stroke="midnightblue" points="548.803,-261.925 542.162,-253.67 542.206,-264.265 548.803,-261.925"/>
</g>
<!-- Node21 -->
<g id="node54" class="node"><title>Node21</title>
<a xlink:href="_tree_8h.html" target="_top" xlink:title="base/Tree.h">
<polygon fill="white" stroke="black" points="1196,-290.5 1196,-311.5 1264,-311.5 1264,-290.5 1196,-290.5"/>
<text text-anchor="middle" x="1230" y="-298.5" font-family="Helvetica,sans-Serif" font-size="10.00">base/Tree.h</text>
</a>
</g>
<!-- Node1&#45;&gt;Node21 -->
<g id="edge152" class="edge"><title>Node1&#45;&gt;Node21</title>
<path fill="none" stroke="midnightblue" d="M861.084,-410.782C941.051,-402.481 1072.9,-386.855 1119,-370 1152.9,-357.604 1187.53,-333.969 1208.9,-317.85"/>
<polygon fill="midnightblue" stroke="midnightblue" points="1211.14,-320.538 1216.93,-311.665 1206.87,-314.99 1211.14,-320.538"/>
</g>
<!-- Node25 -->
<g id="node68" class="node"><title>Node25</title>
<a xlink:href="_tagger_hit_8h.html" target="_top" xlink:title="TaggerHit.h">
<polygon fill="white" stroke="black" points="906,-290.5 906,-311.5 974,-311.5 974,-290.5 906,-290.5"/>
<text text-anchor="middle" x="940" y="-298.5" font-family="Helvetica,sans-Serif" font-size="10.00">TaggerHit.h</text>
</a>
</g>
<!-- Node1&#45;&gt;Node25 -->
<g id="edge86" class="edge"><title>Node1&#45;&gt;Node25</title>
<path fill="none" stroke="midnightblue" d="M810.197,-406.295C834.991,-386.182 888.729,-342.59 918.704,-318.275"/>
<polygon fill="midnightblue" stroke="midnightblue" points="921.274,-320.697 926.835,-311.679 916.864,-315.261 921.274,-320.697"/>
</g>
<!-- Node26 -->
<g id="node75" class="node"><title>Node26</title>
<a xlink:href="_trigger_info_8h.html" target="_top" xlink:title="TriggerInfo.h">
<polygon fill="white" stroke="black" points="1107.5,-290.5 1107.5,-311.5 1178.5,-311.5 1178.5,-290.5 1107.5,-290.5"/>
<text text-anchor="middle" x="1143" y="-298.5" font-family="Helvetica,sans-Serif" font-size="10.00">TriggerInfo.h</text>
</a>
</g>
<!-- Node1&#45;&gt;Node26 -->
<g id="edge98" class="edge"><title>Node1&#45;&gt;Node26</title>
<path fill="none" stroke="midnightblue" d="M861.27,-412.65C936.645,-406.554 1056.12,-393.49 1094,-370 1112.72,-358.393 1126.31,-336.723 1134.37,-320.754"/>
<polygon fill="midnightblue" stroke="midnightblue" points="1137.55,-322.223 1138.67,-311.688 1131.22,-319.225 1137.55,-322.223"/>
</g>
<!-- Node2&#45;&gt;Node3 -->
<g id="edge4" class="edge"><title>Node2&#45;&gt;Node3</title>
<path fill="none" stroke="midnightblue" d="M739.801,-354.829C677.325,-345.904 528.991,-324.713 438.183,-311.74"/>
<polygon fill="midnightblue" stroke="midnightblue" points="438.615,-308.267 428.22,-310.317 437.625,-315.196 438.615,-308.267"/>
</g>
<!-- Node2&#45;&gt;Node4 -->
<g id="edge48" class="edge"><title>Node2&#45;&gt;Node4</title>
<path fill="none" stroke="midnightblue" d="M739.73,-356.586C700.242,-352.319 628.675,-340.967 575,-312 541.794,-294.079 528.019,-288.616 513,-254 509.108,-245.03 510.078,-241.331 513,-232 518.822,-213.411 529.39,-213.474 538,-196 545.63,-180.515 551.404,-161.793 555.118,-147.76"/>
<polygon fill="midnightblue" stroke="midnightblue" points="558.612,-148.214 557.651,-137.663 551.823,-146.51 558.612,-148.214"/>
</g>
<!-- Node2&#45;&gt;Node5 -->
<g id="edge76" class="edge"><title>Node2&#45;&gt;Node5</title>
<path fill="none" stroke="midnightblue" d="M739.893,-357.513C603.936,-350.19 38,-315.36 38,-243 38,-243 38,-243 38,-185 38,-126.149 111.268,-92.7939 155.048,-78.1164"/>
<polygon fill="midnightblue" stroke="midnightblue" points="156.24,-81.4099 164.693,-75.0233 154.102,-74.7442 156.24,-81.4099"/>
</g>
<!-- Node2&#45;&gt;Node7 -->
<g id="edge50" class="edge"><title>Node2&#45;&gt;Node7</title>
<path fill="none" stroke="midnightblue" d="M770.753,-348.295C773.892,-329.131 780.522,-288.654 784.586,-263.843"/>
<polygon fill="midnightblue" stroke="midnightblue" points="788.088,-264.113 786.251,-253.679 781.18,-262.982 788.088,-264.113"/>
</g>
<!-- Node15 -->
<g id="node32" class="node"><title>Node15</title>
<polygon fill="white" stroke="#bfbfbf" points="1023.5,-174.5 1023.5,-195.5 1052.5,-195.5 1052.5,-174.5 1023.5,-174.5"/>
<text text-anchor="middle" x="1038" y="-182.5" font-family="Helvetica,sans-Serif" font-size="10.00">list</text>
</g>
<!-- Node2&#45;&gt;Node15 -->
<g id="edge78" class="edge"><title>Node2&#45;&gt;Node15</title>
<path fill="none" stroke="midnightblue" d="M798.367,-355.869C850.189,-349.815 955.037,-335.039 983,-312 1015.91,-284.889 1029.62,-234.344 1034.94,-205.878"/>
<polygon fill="midnightblue" stroke="midnightblue" points="1038.42,-206.258 1036.64,-195.815 1031.52,-205.092 1038.42,-206.258"/>
</g>
<!-- Node2&#45;&gt;Node17 -->
<g id="edge82" class="edge"><title>Node2&#45;&gt;Node17</title>
<path fill="none" stroke="midnightblue" d="M798.157,-355.565C855.288,-348.5 979.729,-331.368 1018,-312 1041.94,-299.887 1063.65,-277.67 1077.27,-261.716"/>
<polygon fill="midnightblue" stroke="midnightblue" points="1080.3,-263.54 1083.97,-253.6 1074.91,-259.084 1080.3,-263.54"/>
</g>
<!-- Node18 -->
<g id="node44" class="node"><title>Node18</title>
<a xlink:href="_particle_type_8h.html" target="_top" xlink:title="base/ParticleType.h">
<polygon fill="white" stroke="black" points="584,-290.5 584,-311.5 688,-311.5 688,-290.5 584,-290.5"/>
<text text-anchor="middle" x="636" y="-298.5" font-family="Helvetica,sans-Serif" font-size="10.00">base/ParticleType.h</text>
</a>
</g>
<!-- Node2&#45;&gt;Node18 -->
<g id="edge52" class="edge"><title>Node2&#45;&gt;Node18</title>
<path fill="none" stroke="midnightblue" d="M744.915,-348.497C723.861,-339.315 693.073,-325.889 669.598,-315.652"/>
<polygon fill="midnightblue" stroke="midnightblue" points="670.921,-312.41 660.356,-311.621 668.123,-318.827 670.921,-312.41"/>
</g>
<!-- Node2&#45;&gt;Node21 -->
<g id="edge66" class="edge"><title>Node2&#45;&gt;Node21</title>
<path fill="none" stroke="midnightblue" d="M798.088,-357.122C864.937,-352.511 1034.75,-339.111 1185.9,-312.002"/>
<polygon fill="midnightblue" stroke="midnightblue" points="1186.61,-315.43 1195.83,-310.197 1185.36,-308.543 1186.61,-315.43"/>
</g>
<!-- Node23 -->
<g id="node60" class="node"><title>Node23</title>
<polygon fill="white" stroke="#bfbfbf" points="842,-232.5 842,-253.5 934,-253.5 934,-232.5 842,-232.5"/>
<text text-anchor="middle" x="888" y="-240.5" font-family="Helvetica,sans-Serif" font-size="10.00">TLorentzVector.h</text>
</g>
<!-- Node2&#45;&gt;Node23 -->
<g id="edge74" class="edge"><title>Node2&#45;&gt;Node23</title>
<path fill="none" stroke="midnightblue" d="M779.982,-348.295C800.438,-328.355 844.568,-285.337 869.631,-260.906"/>
<polygon fill="midnightblue" stroke="midnightblue" points="872.327,-263.166 877.045,-253.679 867.441,-258.153 872.327,-263.166"/>
</g>
<!-- Node24 -->
<g id="node64" class="node"><title>Node24</title>
<polygon fill="white" stroke="#bfbfbf" points="706,-290.5 706,-311.5 760,-311.5 760,-290.5 706,-290.5"/>
<text text-anchor="middle" x="733" y="-298.5" font-family="Helvetica,sans-Serif" font-size="10.00">iostream</text>
</g>
<!-- Node2&#45;&gt;Node24 -->
<g id="edge80" class="edge"><title>Node2&#45;&gt;Node24</title>
<path fill="none" stroke="midnightblue" d="M762.397,-348.362C757.525,-340.513 750.762,-329.616 744.95,-320.253"/>
<polygon fill="midnightblue" stroke="midnightblue" points="747.809,-318.221 739.561,-311.571 741.861,-321.913 747.809,-318.221"/>
</g>
<!-- Node3&#45;&gt;Node4 -->
<g id="edge6" class="edge"><title>Node3&#45;&gt;Node4</title>
<path fill="none" stroke="midnightblue" d="M375.027,-290.377C407.93,-261.316 499.672,-180.284 540.257,-144.438"/>
<polygon fill="midnightblue" stroke="midnightblue" points="542.702,-146.948 547.88,-137.705 538.068,-141.701 542.702,-146.948"/>
</g>
<!-- Node3&#45;&gt;Node5 -->
<g id="edge46" class="edge"><title>Node3&#45;&gt;Node5</title>
<path fill="none" stroke="midnightblue" d="M297.915,-291.396C249.309,-283.122 187.978,-270 168,-254 116.205,-212.517 78.6935,-173.964 111,-116 120.534,-98.895 139.143,-87.2313 155.56,-79.8016"/>
<polygon fill="midnightblue" stroke="midnightblue" points="157.008,-82.9899 164.888,-75.9073 154.311,-76.5303 157.008,-82.9899"/>
</g>
<!-- Node6 -->
<g id="node11" class="node"><title>Node6</title>
<polygon fill="white" stroke="#bfbfbf" points="534,-58.5 534,-79.5 586,-79.5 586,-58.5 534,-58.5"/>
<text text-anchor="middle" x="560" y="-66.5" font-family="Helvetica,sans-Serif" font-size="10.00">ostream</text>
</g>
<!-- Node3&#45;&gt;Node6 -->
<g id="edge42" class="edge"><title>Node3&#45;&gt;Node6</title>
<path fill="none" stroke="midnightblue" d="M370.191,-290.394C390.266,-261.121 449.303,-177.313 508,-116 517.861,-105.699 529.591,-94.9801 539.412,-86.3844"/>
<polygon fill="midnightblue" stroke="midnightblue" points="541.849,-88.9043 547.129,-79.7193 537.274,-83.6065 541.849,-88.9043"/>
</g>
<!-- Node3&#45;&gt;Node7 -->
<g id="edge12" class="edge"><title>Node3&#45;&gt;Node7</title>
<path fill="none" stroke="midnightblue" d="M428.011,-292.128C514.402,-280.338 664.967,-259.79 741.084,-249.403"/>
<polygon fill="midnightblue" stroke="midnightblue" points="741.881,-252.826 751.316,-248.006 740.934,-245.891 741.881,-252.826"/>
</g>
<!-- Node8 -->
<g id="node15" class="node"><title>Node8</title>
<a xlink:href="_detector__t_8h.html" target="_top" xlink:title="base/Detector_t.h">
<polygon fill="white" stroke="black" points="325.5,-174.5 325.5,-195.5 420.5,-195.5 420.5,-174.5 325.5,-174.5"/>
<text text-anchor="middle" x="373" y="-182.5" font-family="Helvetica,sans-Serif" font-size="10.00">base/Detector_t.h</text>
</a>
</g>
<!-- Node3&#45;&gt;Node8 -->
<g id="edge14" class="edge"><title>Node3&#45;&gt;Node8</title>
<path fill="none" stroke="midnightblue" d="M363.121,-290.219C363.353,-276.62 364.03,-252.529 366,-232 366.823,-223.418 368.141,-214.011 369.412,-205.883"/>
<polygon fill="midnightblue" stroke="midnightblue" points="372.903,-206.222 371.066,-195.788 365.995,-205.09 372.903,-206.222"/>
</g>
<!-- Node9 -->
<g id="node18" class="node"><title>Node9</title>
<polygon fill="white" stroke="#bfbfbf" points="119.5,-116.5 119.5,-137.5 184.5,-137.5 184.5,-116.5 119.5,-116.5"/>
<text text-anchor="middle" x="152" y="-124.5" font-family="Helvetica,sans-Serif" font-size="10.00">TVector3.h</text>
</g>
<!-- Node3&#45;&gt;Node9 -->
<g id="edge40" class="edge"><title>Node3&#45;&gt;Node9</title>
<path fill="none" stroke="midnightblue" d="M305.07,-290.415C261.782,-281.586 207.095,-268.196 189,-254 156.779,-228.722 151.494,-177.035 151.253,-147.998"/>
<polygon fill="midnightblue" stroke="midnightblue" points="154.755,-147.787 151.372,-137.746 147.756,-147.705 154.755,-147.787"/>
</g>
<!-- Node14 -->
<g id="node29" class="node"><title>Node14</title>
<a xlink:href="_cluster_8h.html" target="_top" xlink:title="analysis/data/Cluster.h">
<polygon fill="white" stroke="black" points="197.5,-232.5 197.5,-253.5 314.5,-253.5 314.5,-232.5 197.5,-232.5"/>
<text text-anchor="middle" x="256" y="-240.5" font-family="Helvetica,sans-Serif" font-size="10.00">analysis/data/Cluster.h</text>
</a>
</g>
<!-- Node3&#45;&gt;Node14 -->
<g id="edge30" class="edge"><title>Node3&#45;&gt;Node14</title>
<path fill="none" stroke="midnightblue" d="M343.375,-290.362C326.859,-281.409 303.026,-268.491 284.422,-258.406"/>
<polygon fill="midnightblue" stroke="midnightblue" points="285.96,-255.259 275.501,-253.571 282.625,-261.413 285.96,-255.259"/>
</g>
<!-- Node3&#45;&gt;Node17 -->
<g id="edge44" class="edge"><title>Node3&#45;&gt;Node17</title>
<path fill="none" stroke="midnightblue" d="M428.014,-295.827C577.083,-283.967 939.592,-255.126 1055.63,-245.894"/>
<polygon fill="midnightblue" stroke="midnightblue" points="1056.07,-249.37 1065.76,-245.087 1055.52,-242.392 1056.07,-249.37"/>
</g>
<!-- Node4&#45;&gt;Node5 -->
<g id="edge8" class="edge"><title>Node4&#45;&gt;Node5</title>
<path fill="none" stroke="midnightblue" d="M516.848,-120.29C441.123,-108.515 286.005,-84.3949 218.998,-73.9756"/>
<polygon fill="midnightblue" stroke="midnightblue" points="219.445,-70.5031 209.026,-72.425 218.37,-77.42 219.445,-70.5031"/>
</g>
<!-- Node4&#45;&gt;Node6 -->
<g id="edge10" class="edge"><title>Node4&#45;&gt;Node6</title>
<path fill="none" stroke="midnightblue" d="M560,-116.362C560,-108.922 560,-98.7427 560,-89.7276"/>
<polygon fill="midnightblue" stroke="midnightblue" points="563.5,-89.5706 560,-79.5707 556.5,-89.5707 563.5,-89.5706"/>
</g>
<!-- Node8&#45;&gt;Node4 -->
<g id="edge16" class="edge"><title>Node8&#45;&gt;Node4</title>
<path fill="none" stroke="midnightblue" d="M406.864,-174.497C437.482,-165 482.743,-150.962 516.124,-140.609"/>
<polygon fill="midnightblue" stroke="midnightblue" points="517.558,-143.828 526.072,-137.523 515.484,-137.143 517.558,-143.828"/>
</g>
<!-- Node8&#45;&gt;Node5 -->
<g id="edge28" class="edge"><title>Node8&#45;&gt;Node5</title>
<path fill="none" stroke="midnightblue" d="M366.161,-174.435C356.002,-159.502 335.569,-132.237 312,-116 283.515,-96.376 245.776,-83.662 219.244,-76.469"/>
<polygon fill="midnightblue" stroke="midnightblue" points="219.877,-73.0174 209.318,-73.8932 218.118,-79.793 219.877,-73.0174"/>
</g>
<!-- Node8&#45;&gt;Node9 -->
<g id="edge18" class="edge"><title>Node8&#45;&gt;Node9</title>
<path fill="none" stroke="midnightblue" d="M332.979,-174.497C293.762,-164.204 234.218,-148.578 194.252,-138.089"/>
<polygon fill="midnightblue" stroke="midnightblue" points="195.098,-134.692 184.537,-135.539 193.321,-141.463 195.098,-134.692"/>
</g>
<!-- Node10 -->
<g id="node20" class="node"><title>Node10</title>
<polygon fill="white" stroke="#bfbfbf" points="1090,-116.5 1090,-137.5 1136,-137.5 1136,-116.5 1090,-116.5"/>
<text text-anchor="middle" x="1113" y="-124.5" font-family="Helvetica,sans-Serif" font-size="10.00">cstdint</text>
</g>
<!-- Node8&#45;&gt;Node10 -->
<g id="edge20" class="edge"><title>Node8&#45;&gt;Node10</title>
<path fill="none" stroke="midnightblue" d="M420.59,-183.482C554.845,-178.947 935.628,-164.272 1079.81,-137.712"/>
<polygon fill="midnightblue" stroke="midnightblue" points="1080.63,-141.119 1089.78,-135.779 1079.3,-134.247 1080.63,-141.119"/>
</g>
<!-- Node11 -->
<g id="node22" class="node"><title>Node11</title>
<polygon fill="white" stroke="#bfbfbf" points="401.5,-116.5 401.5,-137.5 460.5,-137.5 460.5,-116.5 401.5,-116.5"/>
<text text-anchor="middle" x="431" y="-124.5" font-family="Helvetica,sans-Serif" font-size="10.00">stdexcept</text>
</g>
<!-- Node8&#45;&gt;Node11 -->
<g id="edge22" class="edge"><title>Node8&#45;&gt;Node11</title>
<path fill="none" stroke="midnightblue" d="M383.638,-174.362C391.896,-166.104 403.528,-154.472 413.197,-144.803"/>
<polygon fill="midnightblue" stroke="midnightblue" points="415.833,-147.117 420.429,-137.571 410.883,-142.167 415.833,-147.117"/>
</g>
<!-- Node12 -->
<g id="node24" class="node"><title>Node12</title>
<polygon fill="white" stroke="#bfbfbf" points="703.5,-0.5 703.5,-21.5 744.5,-21.5 744.5,-0.5 703.5,-0.5"/>
<text text-anchor="middle" x="724" y="-8.5" font-family="Helvetica,sans-Serif" font-size="10.00">string</text>
</g>
<!-- Node8&#45;&gt;Node12 -->
<g id="edge24" class="edge"><title>Node8&#45;&gt;Node12</title>
<path fill="none" stroke="midnightblue" d="M373.364,-174.337C374.416,-159.534 378.37,-132.698 393,-116 433.422,-69.8624 618.725,-30.7291 693.039,-16.6169"/>
<polygon fill="midnightblue" stroke="midnightblue" points="693.983,-20.0009 703.167,-14.7185 692.694,-13.1207 693.983,-20.0009"/>
</g>
<!-- Node13 -->
<g id="node26" class="node"><title>Node13</title>
<polygon fill="white" stroke="#bfbfbf" points="1010,-116.5 1010,-137.5 1072,-137.5 1072,-116.5 1010,-116.5"/>
<text text-anchor="middle" x="1041" y="-124.5" font-family="Helvetica,sans-Serif" font-size="10.00">type_traits</text>
</g>
<!-- Node8&#45;&gt;Node13 -->
<g id="edge26" class="edge"><title>Node8&#45;&gt;Node13</title>
<path fill="none" stroke="midnightblue" d="M420.505,-180.875C545.498,-170.023 881.98,-140.807 999.672,-130.588"/>
<polygon fill="midnightblue" stroke="midnightblue" points="1000.06,-134.068 1009.72,-129.716 999.453,-127.094 1000.06,-134.068"/>
</g>
<!-- Node14&#45;&gt;Node8 -->
<g id="edge32" class="edge"><title>Node14&#45;&gt;Node8</title>
<path fill="none" stroke="midnightblue" d="M277.188,-232.497C295.462,-223.438 322.072,-210.246 342.615,-200.063"/>
<polygon fill="midnightblue" stroke="midnightblue" points="344.169,-203.199 351.574,-195.621 341.06,-196.927 344.169,-203.199"/>
</g>
<!-- Node14&#45;&gt;Node9 -->
<g id="edge36" class="edge"><title>Node14&#45;&gt;Node9</title>
<path fill="none" stroke="midnightblue" d="M223.936,-232.392C205.939,-224.889 184.46,-213.088 171,-196 160.217,-182.311 155.546,-162.911 153.527,-148.167"/>
<polygon fill="midnightblue" stroke="midnightblue" points="156.981,-147.544 152.442,-137.971 150.02,-148.285 156.981,-147.544"/>
</g>
<!-- Node14&#45;&gt;Node15 -->
<g id="edge34" class="edge"><title>Node14&#45;&gt;Node15</title>
<path fill="none" stroke="midnightblue" d="M314.777,-238.641C473.271,-226.885 904.809,-194.879 1013.09,-186.847"/>
<polygon fill="midnightblue" stroke="midnightblue" points="1013.64,-190.317 1023.35,-186.087 1013.12,-183.336 1013.64,-190.317"/>
</g>
<!-- Node16 -->
<g id="node35" class="node"><title>Node16</title>
<a xlink:href="enumfield_8h.html" target="_top" xlink:title="base/enumfield.h">
<polygon fill="white" stroke="black" points="179.5,-174.5 179.5,-195.5 270.5,-195.5 270.5,-174.5 179.5,-174.5"/>
<text text-anchor="middle" x="225" y="-182.5" font-family="Helvetica,sans-Serif" font-size="10.00">base/enumfield.h</text>
</a>
</g>
<!-- Node14&#45;&gt;Node16 -->
<g id="edge38" class="edge"><title>Node14&#45;&gt;Node16</title>
<path fill="none" stroke="midnightblue" d="M250.314,-232.362C246.163,-224.595 240.416,-213.843 235.447,-204.546"/>
<polygon fill="midnightblue" stroke="midnightblue" points="238.45,-202.74 230.65,-195.571 232.277,-206.04 238.45,-202.74"/>
</g>
<!-- Node18&#45;&gt;Node5 -->
<g id="edge64" class="edge"><title>Node18&#45;&gt;Node5</title>
<path fill="none" stroke="midnightblue" d="M628.475,-290.243C616.846,-274.547 592.91,-245.746 565,-232 465.083,-182.79 416.852,-245.34 317,-196 265.44,-170.523 221.398,-116.943 200.307,-88.194"/>
<polygon fill="midnightblue" stroke="midnightblue" points="202.958,-85.885 194.285,-79.7997 197.27,-89.9653 202.958,-85.885"/>
</g>
<!-- Node18&#45;&gt;Node6 -->
<g id="edge58" class="edge"><title>Node18&#45;&gt;Node6</title>
<path fill="none" stroke="midnightblue" d="M645.677,-290.361C653.131,-281.4 662.842,-267.856 667,-254 669.81,-244.635 669.147,-241.539 667,-232 654.472,-176.335 646.042,-161.789 612,-116 603.719,-104.861 592.494,-94.3177 582.593,-86.0505"/>
<polygon fill="midnightblue" stroke="midnightblue" points="584.664,-83.2249 574.68,-79.6783 580.273,-88.6766 584.664,-83.2249"/>
</g>
<!-- Node18&#45;&gt;Node7 -->
<g id="edge54" class="edge"><title>Node18&#45;&gt;Node7</title>
<path fill="none" stroke="midnightblue" d="M663.526,-290.497C687.984,-281.164 723.938,-267.445 750.924,-257.147"/>
<polygon fill="midnightblue" stroke="midnightblue" points="752.327,-260.358 760.422,-253.523 749.832,-253.818 752.327,-260.358"/>
</g>
<!-- Node18&#45;&gt;Node12 -->
<g id="edge56" class="edge"><title>Node18&#45;&gt;Node12</title>
<path fill="none" stroke="midnightblue" d="M652.141,-290.27C677.545,-271.948 724,-232.017 724,-185 724,-185 724,-185 724,-127 724,-93.5978 724,-54.7853 724,-31.5939"/>
<polygon fill="midnightblue" stroke="midnightblue" points="727.5,-31.5561 724,-21.5561 720.5,-31.5561 727.5,-31.5561"/>
</g>
<!-- Node18&#45;&gt;Node19 -->
<g id="edge60" class="edge"><title>Node18&#45;&gt;Node19</title>
<path fill="none" stroke="midnightblue" d="M618.209,-290.362C603.441,-281.532 582.222,-268.844 565.462,-258.822"/>
<polygon fill="midnightblue" stroke="midnightblue" points="567.057,-255.699 556.679,-253.571 563.465,-261.707 567.057,-255.699"/>
</g>
<!-- Node20 -->
<g id="node51" class="node"><title>Node20</title>
<polygon fill="white" stroke="#bfbfbf" points="611.5,-232.5 611.5,-253.5 658.5,-253.5 658.5,-232.5 611.5,-232.5"/>
<text text-anchor="middle" x="635" y="-240.5" font-family="Helvetica,sans-Serif" font-size="10.00">iterator</text>
</g>
<!-- Node18&#45;&gt;Node20 -->
<g id="edge62" class="edge"><title>Node18&#45;&gt;Node20</title>
<path fill="none" stroke="midnightblue" d="M635.817,-290.362C635.688,-282.922 635.513,-272.743 635.357,-263.728"/>
<polygon fill="midnightblue" stroke="midnightblue" points="638.854,-263.509 635.182,-253.571 631.855,-263.63 638.854,-263.509"/>
</g>
<!-- Node21&#45;&gt;Node15 -->
<g id="edge70" class="edge"><title>Node21&#45;&gt;Node15</title>
<path fill="none" stroke="midnightblue" d="M1219.08,-290.323C1203.74,-275.745 1174.49,-249.434 1146,-232 1118.77,-215.342 1084.6,-201.524 1062.07,-193.276"/>
<polygon fill="midnightblue" stroke="midnightblue" points="1063.2,-189.963 1052.6,-189.888 1060.84,-196.554 1063.2,-189.963"/>
</g>
<!-- Node21&#45;&gt;Node17 -->
<g id="edge68" class="edge"><title>Node21&#45;&gt;Node17</title>
<path fill="none" stroke="midnightblue" d="M1205.01,-290.497C1183.07,-281.275 1150.93,-267.769 1126.54,-257.515"/>
<polygon fill="midnightblue" stroke="midnightblue" points="1127.85,-254.269 1117.27,-253.621 1125.13,-260.722 1127.85,-254.269"/>
</g>
<!-- Node22 -->
<g id="node58" class="node"><title>Node22</title>
<polygon fill="white" stroke="#bfbfbf" points="959,-0.5 959,-21.5 1015,-21.5 1015,-0.5 959,-0.5"/>
<text text-anchor="middle" x="987" y="-8.5" font-family="Helvetica,sans-Serif" font-size="10.00">algorithm</text>
</g>
<!-- Node21&#45;&gt;Node22 -->
<g id="edge72" class="edge"><title>Node21&#45;&gt;Node22</title>
<path fill="none" stroke="midnightblue" d="M1219.51,-290.136C1206.24,-276.451 1182.64,-252.271 1162,-232 1135.31,-205.785 1132.84,-193.645 1101,-174 1060.8,-149.194 1030.24,-175.098 1001,-138 976.862,-107.377 979.272,-58.9301 983.152,-31.5749"/>
<polygon fill="midnightblue" stroke="midnightblue" points="986.629,-32.0022 984.774,-21.571 979.719,-30.8819 986.629,-32.0022"/>
</g>
<!-- Node25&#45;&gt;Node4 -->
<g id="edge94" class="edge"><title>Node25&#45;&gt;Node4</title>
<path fill="none" stroke="midnightblue" d="M944.271,-290.413C949.437,-275.7 955.944,-248.97 943,-232 902.959,-179.504 708.465,-146.787 613.031,-133.637"/>
<polygon fill="midnightblue" stroke="midnightblue" points="613.385,-130.153 603.005,-132.277 612.444,-137.089 613.385,-130.153"/>
</g>
<!-- Node25&#45;&gt;Node7 -->
<g id="edge92" class="edge"><title>Node25&#45;&gt;Node7</title>
<path fill="none" stroke="midnightblue" d="M912.474,-290.497C888.016,-281.164 852.062,-267.445 825.076,-257.147"/>
<polygon fill="midnightblue" stroke="midnightblue" points="826.168,-253.818 815.578,-253.523 823.673,-260.358 826.168,-253.818"/>
</g>
<!-- Node25&#45;&gt;Node15 -->
<g id="edge88" class="edge"><title>Node25&#45;&gt;Node15</title>
<path fill="none" stroke="midnightblue" d="M949.044,-290.295C965.744,-270.527 1001.6,-228.08 1022.33,-203.544"/>
<polygon fill="midnightblue" stroke="midnightblue" points="1025.2,-205.577 1028.98,-195.679 1019.85,-201.059 1025.2,-205.577"/>
</g>
<!-- Node25&#45;&gt;Node17 -->
<g id="edge90" class="edge"><title>Node25&#45;&gt;Node17</title>
<path fill="none" stroke="midnightblue" d="M967.526,-290.497C992.442,-280.989 1029.29,-266.93 1056.43,-256.574"/>
<polygon fill="midnightblue" stroke="midnightblue" points="1057.85,-259.776 1065.95,-252.941 1055.36,-253.236 1057.85,-259.776"/>
</g>
<!-- Node25&#45;&gt;Node23 -->
<g id="edge96" class="edge"><title>Node25&#45;&gt;Node23</title>
<path fill="none" stroke="midnightblue" d="M930.462,-290.362C923.132,-282.186 912.837,-270.702 904.219,-261.091"/>
<polygon fill="midnightblue" stroke="midnightblue" points="906.759,-258.68 897.477,-253.571 901.547,-263.353 906.759,-258.68"/>
</g>
<!-- Node26&#45;&gt;Node4 -->
<g id="edge102" class="edge"><title>Node26&#45;&gt;Node4</title>
<path fill="none" stroke="midnightblue" d="M1146.58,-290.463C1150.74,-276.276 1155.86,-250.66 1146,-232 1124.64,-191.561 1104.02,-189.517 1061,-174 979.715,-144.682 724.887,-132.609 613.266,-128.636"/>
<polygon fill="midnightblue" stroke="midnightblue" points="613.356,-125.137 603.24,-128.288 613.113,-132.133 613.356,-125.137"/>
</g>
<!-- Node26&#45;&gt;Node7 -->
<g id="edge100" class="edge"><title>Node26&#45;&gt;Node7</title>
<path fill="none" stroke="midnightblue" d="M1107.49,-296.665C1051.5,-289.602 939.103,-274.506 834.84,-254.25"/>
<polygon fill="midnightblue" stroke="midnightblue" points="835.265,-250.766 824.778,-252.273 833.916,-257.635 835.265,-250.766"/>
</g>
<!-- Node26&#45;&gt;Node15 -->
<g id="edge144" class="edge"><title>Node26&#45;&gt;Node15</title>
<path fill="none" stroke="midnightblue" d="M1143.16,-290.02C1142.82,-275.329 1140.21,-249.145 1127,-232 1110.93,-211.136 1082.93,-198.547 1062.62,-191.722"/>
<polygon fill="midnightblue" stroke="midnightblue" points="1063.39,-188.297 1052.8,-188.665 1061.31,-194.98 1063.39,-188.297"/>
</g>
<!-- Node26&#45;&gt;Node17 -->
<g id="edge146" class="edge"><title>Node26&#45;&gt;Node17</title>
<path fill="none" stroke="midnightblue" d="M1133.65,-290.362C1126.46,-282.186 1116.36,-270.702 1107.91,-261.091"/>
<polygon fill="midnightblue" stroke="midnightblue" points="1110.53,-258.769 1101.29,-253.571 1105.27,-263.392 1110.53,-258.769"/>
</g>
<!-- Node27 -->
<g id="node79" class="node"><title>Node27</title>
<a xlink:href="_t_data_record_8h.html" target="_top" xlink:title="tree/TDataRecord.h">
<polygon fill="white" stroke="black" points="1344.5,-232.5 1344.5,-253.5 1447.5,-253.5 1447.5,-232.5 1344.5,-232.5"/>
<text text-anchor="middle" x="1396" y="-240.5" font-family="Helvetica,sans-Serif" font-size="10.00">tree/TDataRecord.h</text>
</a>
</g>
<!-- Node26&#45;&gt;Node27 -->
<g id="edge104" class="edge"><title>Node26&#45;&gt;Node27</title>
<path fill="none" stroke="midnightblue" d="M1178.52,-292.042C1181.39,-291.343 1184.24,-290.655 1187,-290 1237.92,-277.912 1296.01,-264.912 1338,-255.655"/>
<polygon fill="midnightblue" stroke="midnightblue" points="1338.76,-259.071 1347.78,-253.503 1337.26,-252.234 1338.76,-259.071"/>
</g>
<!-- Node28 -->
<g id="node81" class="node"><title>Node28</title>
<a xlink:href="_t_i_d_8h.html" target="_top" xlink:title="TID.h">
<polygon fill="white" stroke="black" points="1287.5,-174.5 1287.5,-195.5 1328.5,-195.5 1328.5,-174.5 1287.5,-174.5"/>
<text text-anchor="middle" x="1308" y="-182.5" font-family="Helvetica,sans-Serif" font-size="10.00">TID.h</text>
</a>
</g>
<!-- Node27&#45;&gt;Node28 -->
<g id="edge106" class="edge"><title>Node27&#45;&gt;Node28</title>
<path fill="none" stroke="midnightblue" d="M1379.86,-232.362C1366.59,-223.614 1347.57,-211.079 1332.43,-201.101"/>
<polygon fill="midnightblue" stroke="midnightblue" points="1334.31,-198.151 1324.04,-195.571 1330.46,-203.996 1334.31,-198.151"/>
</g>
<!-- Node29 -->
<g id="node83" class="node"><title>Node29</title>
<polygon fill="white" stroke="#bfbfbf" points="1368,-116.5 1368,-137.5 1424,-137.5 1424,-116.5 1368,-116.5"/>
<text text-anchor="middle" x="1396" y="-124.5" font-family="Helvetica,sans-Serif" font-size="10.00">Rtypes.h</text>
</g>
<!-- Node27&#45;&gt;Node29 -->
<g id="edge138" class="edge"><title>Node27&#45;&gt;Node29</title>
<path fill="none" stroke="midnightblue" d="M1396,-232.295C1396,-213.131 1396,-172.654 1396,-147.843"/>
<polygon fill="midnightblue" stroke="midnightblue" points="1399.5,-147.679 1396,-137.679 1392.5,-147.679 1399.5,-147.679"/>
</g>
<!-- Node34 -->
<g id="node96" class="node"><title>Node34</title>
<polygon fill="white" stroke="#bfbfbf" points="1263.5,-58.5 1263.5,-79.5 1304.5,-79.5 1304.5,-58.5 1263.5,-58.5"/>
<text text-anchor="middle" x="1284" y="-66.5" font-family="Helvetica,sans-Serif" font-size="10.00">ctime</text>
</g>
<!-- Node27&#45;&gt;Node34 -->
<g id="edge142" class="edge"><title>Node27&#45;&gt;Node34</title>
<path fill="none" stroke="midnightblue" d="M1416.7,-232.367C1456.36,-210.642 1536.11,-159.533 1501,-116 1477.91,-87.3795 1368.72,-75.3143 1314.58,-71.0244"/>
<polygon fill="midnightblue" stroke="midnightblue" points="1314.76,-67.5283 1304.53,-70.2675 1314.24,-74.5086 1314.76,-67.5283"/>
</g>
<!-- Node36 -->
<g id="node103" class="node"><title>Node36</title>
<polygon fill="white" stroke="#bfbfbf" points="1442,-116.5 1442,-137.5 1492,-137.5 1492,-116.5 1442,-116.5"/>
<text text-anchor="middle" x="1467" y="-124.5" font-family="Helvetica,sans-Serif" font-size="10.00">iomanip</text>
</g>
<!-- Node27&#45;&gt;Node36 -->
<g id="edge140" class="edge"><title>Node27&#45;&gt;Node36</title>
<path fill="none" stroke="midnightblue" d="M1402.55,-232.295C1414.49,-212.786 1439.95,-171.188 1455.05,-146.518"/>
<polygon fill="midnightblue" stroke="midnightblue" points="1458.23,-148.036 1460.46,-137.679 1452.26,-144.381 1458.23,-148.036"/>
</g>
<!-- Node28&#45;&gt;Node4 -->
<g id="edge110" class="edge"><title>Node28&#45;&gt;Node4</title>
<path fill="none" stroke="midnightblue" d="M1287.26,-181.37C1272.91,-178.971 1253.34,-175.924 1236,-174 1004.97,-148.365 727.881,-134.303 613.448,-129.221"/>
<polygon fill="midnightblue" stroke="midnightblue" points="613.357,-125.713 603.213,-128.771 613.05,-132.707 613.357,-125.713"/>
</g>
<!-- Node28&#45;&gt;Node10 -->
<g id="edge130" class="edge"><title>Node28&#45;&gt;Node10</title>
<path fill="none" stroke="midnightblue" d="M1287.18,-178.117C1282.84,-176.722 1278.28,-175.288 1274,-174 1219.9,-157.707 1203.49,-155.841 1145.67,-138.085"/>
<polygon fill="midnightblue" stroke="midnightblue" points="1146.61,-134.712 1136.02,-135.094 1144.53,-141.398 1146.61,-134.712"/>
</g>
<!-- Node28&#45;&gt;Node11 -->
<g id="edge132" class="edge"><title>Node28&#45;&gt;Node11</title>
<path fill="none" stroke="midnightblue" d="M1287.41,-184.023C1178.21,-178.809 665.982,-153.897 508,-138 495.842,-136.777 482.657,-135.044 470.692,-133.314"/>
<polygon fill="midnightblue" stroke="midnightblue" points="470.953,-129.815 460.547,-131.808 469.925,-136.739 470.953,-129.815"/>
</g>
<!-- Node28&#45;&gt;Node13 -->
<g id="edge126" class="edge"><title>Node28&#45;&gt;Node13</title>
<path fill="none" stroke="midnightblue" d="M1287.27,-177.825C1282.91,-176.45 1278.33,-175.099 1274,-174 1192.48,-153.302 1167.8,-157.255 1082.26,-138.146"/>
<polygon fill="midnightblue" stroke="midnightblue" points="1082.91,-134.703 1072.38,-135.897 1081.35,-141.529 1082.91,-134.703"/>
</g>
<!-- Node28&#45;&gt;Node29 -->
<g id="edge108" class="edge"><title>Node28&#45;&gt;Node29</title>
<path fill="none" stroke="midnightblue" d="M1324.14,-174.362C1337.41,-165.614 1356.43,-153.079 1371.57,-143.101"/>
<polygon fill="midnightblue" stroke="midnightblue" points="1373.54,-145.996 1379.96,-137.571 1369.69,-140.151 1373.54,-145.996"/>
</g>
<!-- Node30 -->
<g id="node86" class="node"><title>Node30</title>
<a xlink:href="time_8h.html" target="_top" xlink:title="base/std_ext/time.h">
<polygon fill="white" stroke="black" points="1153.5,-116.5 1153.5,-137.5 1256.5,-137.5 1256.5,-116.5 1153.5,-116.5"/>
<text text-anchor="middle" x="1205" y="-124.5" font-family="Helvetica,sans-Serif" font-size="10.00">base/std_ext/time.h</text>
</a>
</g>
<!-- Node28&#45;&gt;Node30 -->
<g id="edge112" class="edge"><title>Node28&#45;&gt;Node30</title>
<path fill="none" stroke="midnightblue" d="M1289.11,-174.362C1273.28,-165.45 1250.48,-152.609 1232.61,-142.545"/>
<polygon fill="midnightblue" stroke="midnightblue" points="1234.2,-139.428 1223.77,-137.571 1230.77,-145.527 1234.2,-139.428"/>
</g>
<!-- Node28&#45;&gt;Node34 -->
<g id="edge136" class="edge"><title>Node28&#45;&gt;Node34</title>
<path fill="none" stroke="midnightblue" d="M1305.79,-174.295C1301.8,-155.045 1293.37,-114.289 1288.24,-89.5091"/>
<polygon fill="midnightblue" stroke="midnightblue" points="1291.66,-88.7627 1286.21,-79.6792 1284.81,-90.181 1291.66,-88.7627"/>
</g>
<!-- Node35 -->
<g id="node99" class="node"><title>Node35</title>
<polygon fill="white" stroke="#bfbfbf" points="1312,-116.5 1312,-137.5 1350,-137.5 1350,-116.5 1312,-116.5"/>
<text text-anchor="middle" x="1331" y="-124.5" font-family="Helvetica,sans-Serif" font-size="10.00">tuple</text>
</g>
<!-- Node28&#45;&gt;Node35 -->
<g id="edge128" class="edge"><title>Node28&#45;&gt;Node35</title>
<path fill="none" stroke="midnightblue" d="M1312.22,-174.362C1315.23,-166.758 1319.38,-156.294 1323.02,-147.135"/>
<polygon fill="midnightblue" stroke="midnightblue" points="1326.38,-148.157 1326.81,-137.571 1319.87,-145.576 1326.38,-148.157"/>
</g>
<!-- Node28&#45;&gt;Node36 -->
<g id="edge134" class="edge"><title>Node28&#45;&gt;Node36</title>
<path fill="none" stroke="midnightblue" d="M1328.79,-177.418C1354.99,-167.858 1400.43,-151.285 1432.02,-139.76"/>
<polygon fill="midnightblue" stroke="midnightblue" points="1433.55,-142.926 1441.75,-136.211 1431.15,-136.35 1433.55,-142.926"/>
</g>
<!-- Node31 -->
<g id="node88" class="node"><title>Node31</title>
<a xlink:href="string_8h.html" target="_top" xlink:title="base/std_ext/string.h">
<polygon fill="white" stroke="black" points="1010,-58.5 1010,-79.5 1118,-79.5 1118,-58.5 1010,-58.5"/>
<text text-anchor="middle" x="1064" y="-66.5" font-family="Helvetica,sans-Serif" font-size="10.00">base/std_ext/string.h</text>
</a>
</g>
<!-- Node30&#45;&gt;Node31 -->
<g id="edge114" class="edge"><title>Node30&#45;&gt;Node31</title>
<path fill="none" stroke="midnightblue" d="M1179.47,-116.497C1157.05,-107.275 1124.22,-93.7695 1099.29,-83.5153"/>
<polygon fill="midnightblue" stroke="midnightblue" points="1100.4,-80.1886 1089.82,-79.6212 1097.74,-86.6623 1100.4,-80.1886"/>
</g>
<!-- Node33 -->
<g id="node94" class="node"><title>Node33</title>
<polygon fill="white" stroke="#bfbfbf" points="1182,-58.5 1182,-79.5 1228,-79.5 1228,-58.5 1182,-58.5"/>
<text text-anchor="middle" x="1205" y="-66.5" font-family="Helvetica,sans-Serif" font-size="10.00">cstring</text>
</g>
<!-- Node30&#45;&gt;Node33 -->
<g id="edge122" class="edge"><title>Node30&#45;&gt;Node33</title>
<path fill="none" stroke="midnightblue" d="M1205,-116.362C1205,-108.922 1205,-98.7427 1205,-89.7276"/>
<polygon fill="midnightblue" stroke="midnightblue" points="1208.5,-89.5706 1205,-79.5707 1201.5,-89.5707 1208.5,-89.5706"/>
</g>
<!-- Node30&#45;&gt;Node34 -->
<g id="edge124" class="edge"><title>Node30&#45;&gt;Node34</title>
<path fill="none" stroke="midnightblue" d="M1219.49,-116.362C1231.18,-107.777 1247.84,-95.5459 1261.3,-85.6636"/>
<polygon fill="midnightblue" stroke="midnightblue" points="1263.61,-88.31 1269.6,-79.5707 1259.47,-82.6675 1263.61,-88.31"/>
</g>
<!-- Node31&#45;&gt;Node12 -->
<g id="edge116" class="edge"><title>Node31&#45;&gt;Node12</title>
<path fill="none" stroke="midnightblue" d="M1009.75,-59.7456C937.563,-47.4313 812.346,-26.0708 754.683,-16.2342"/>
<polygon fill="midnightblue" stroke="midnightblue" points="755.177,-12.7679 744.73,-14.5364 753.999,-19.6682 755.177,-12.7679"/>
</g>
<!-- Node31&#45;&gt;Node22 -->
<g id="edge120" class="edge"><title>Node31&#45;&gt;Node22</title>
<path fill="none" stroke="midnightblue" d="M1049.88,-58.3619C1038.48,-49.7773 1022.24,-37.5459 1009.12,-27.6636"/>
<polygon fill="midnightblue" stroke="midnightblue" points="1011.13,-24.7916 1001.03,-21.5707 1006.92,-30.3829 1011.13,-24.7916"/>
</g>
<!-- Node32 -->
<g id="node91" class="node"><title>Node32</title>
<polygon fill="white" stroke="#bfbfbf" points="1038,-0.5 1038,-21.5 1090,-21.5 1090,-0.5 1038,-0.5"/>
<text text-anchor="middle" x="1064" y="-8.5" font-family="Helvetica,sans-Serif" font-size="10.00">sstream</text>
</g>
<!-- Node31&#45;&gt;Node32 -->
<g id="edge118" class="edge"><title>Node31&#45;&gt;Node32</title>
<path fill="none" stroke="midnightblue" d="M1064,-58.3619C1064,-50.9219 1064,-40.7427 1064,-31.7276"/>
<polygon fill="midnightblue" stroke="midnightblue" points="1067.5,-31.5706 1064,-21.5707 1060.5,-31.5707 1067.5,-31.5706"/>
</g>
</g>
</svg>
