<?xml version="1.0" encoding="UTF-8" standalone="no"?>
<!DOCTYPE svg PUBLIC "-//W3C//DTD SVG 1.1//EN"
 "http://www.w3.org/Graphics/SVG/1.1/DTD/svg11.dtd">
<!-- Generated by graphviz version 2.26.3 (20100126.1600)
 -->
<!-- Title: src/calibration/fitfunctions/FitGausPol3.h Pages: 1 -->
<svg width="522pt" height="116pt"
 viewBox="0.00 0.00 522.00 116.00" xmlns="http://www.w3.org/2000/svg" xmlns:xlink="http://www.w3.org/1999/xlink">
<g id="graph1" class="graph" transform="scale(1 1) rotate(0) translate(4 112)">
<title>src/calibration/fitfunctions/FitGausPol3.h</title>
<polygon fill="white" stroke="white" points="-4,5 -4,-112 519,-112 519,5 -4,5"/>
<!-- Node1 -->
<g id="node1" class="node"><title>Node1</title>
<polygon fill="#bfbfbf" stroke="black" points="205,-73 205,-107 333,-107 333,-73 205,-73"/>
<text text-anchor="start" x="213" y="-94" font-family="Helvetica,sans-Serif" font-size="10.00">src/calibration/fitfunctions</text>
<text text-anchor="middle" x="269" y="-81" font-family="Helvetica,sans-Serif" font-size="10.00">/FitGausPol3.h</text>
</g>
<!-- Node2 -->
<g id="node3" class="node"><title>Node2</title>
<a xlink:href="_fit_gaus_pol3_8cc.html" target="_top" xlink:title="src/calibration/fitfunctions\l/FitGausPol3.cc">
<polygon fill="white" stroke="black" points="0,-1 0,-35 128,-35 128,-1 0,-1"/>
<text text-anchor="start" x="8" y="-22" font-family="Helvetica,sans-Serif" font-size="10.00">src/calibration/fitfunctions</text>
<text text-anchor="middle" x="64" y="-9" font-family="Helvetica,sans-Serif" font-size="10.00">/FitGausPol3.cc</text>
</a>
</g>
<!-- Node1&#45;&gt;Node2 -->
<g id="edge2" class="edge"><title>Node1&#45;&gt;Node2</title>
<path fill="none" stroke="midnightblue" d="M210.607,-69.4913C179.613,-58.6055 141.97,-45.3846 112.588,-35.0651"/>
<polygon fill="midnightblue" stroke="midnightblue" points="209.823,-72.9254 220.418,-72.937 212.143,-66.3209 209.823,-72.9254"/>
</g>
<!-- Node3 -->
<g id="node5" class="node"><title>Node3</title>
<a xlink:href="_c_b___energy_8cc.html" target="_top" xlink:title="src/calibration/modules\l/CB_Energy.cc">
<polygon fill="white" stroke="black" points="145.5,-1 145.5,-35 262.5,-35 262.5,-1 145.5,-1"/>
<text text-anchor="start" x="153.5" y="-22" font-family="Helvetica,sans-Serif" font-size="10.00">src/calibration/modules</text>
<text text-anchor="middle" x="204" y="-9" font-family="Helvetica,sans-Serif" font-size="10.00">/CB_Energy.cc</text>
</a>
</g>
<!-- Node1&#45;&gt;Node3 -->
<g id="edge4" class="edge"><title>Node1&#45;&gt;Node3</title>
<path fill="none" stroke="midnightblue" d="M246.772,-65.3785C237.886,-55.5349 227.857,-44.4262 219.745,-35.4407"/>
<polygon fill="midnightblue" stroke="midnightblue" points="244.297,-67.8597 253.596,-72.937 249.493,-63.1689 244.297,-67.8597"/>
</g>
<!-- Node4 -->
<g id="node7" class="node"><title>Node4</title>
<a xlink:href="_setup__2014___e_p_t_8cc.html" target="_top" xlink:title="src/expconfig/setups\l/Setup_2014_EPT.cc">
<polygon fill="white" stroke="black" points="280,-1 280,-35 390,-35 390,-1 280,-1"/>
<text text-anchor="start" x="288" y="-22" font-family="Helvetica,sans-Serif" font-size="10.00">src/expconfig/setups</text>
<text text-anchor="middle" x="335" y="-9" font-family="Helvetica,sans-Serif" font-size="10.00">/Setup_2014_EPT.cc</text>
</a>
</g>
<!-- Node1&#45;&gt;Node4 -->
<g id="edge6" class="edge"><title>Node1&#45;&gt;Node4</title>
<path fill="none" stroke="midnightblue" d="M291.57,-65.3785C300.593,-55.5349 310.776,-44.4262 319.013,-35.4407"/>
<polygon fill="midnightblue" stroke="midnightblue" points="288.818,-63.2004 284.641,-72.937 293.978,-67.9305 288.818,-63.2004"/>
</g>
<!-- Node5 -->
<g id="node9" class="node"><title>Node5</title>
<a xlink:href="_setup___test_8cc.html" target="_top" xlink:title="src/expconfig/setups\l/Setup_Test.cc">
<polygon fill="white" stroke="black" points="407.5,-1 407.5,-35 514.5,-35 514.5,-1 407.5,-1"/>
<text text-anchor="start" x="415.5" y="-22" font-family="Helvetica,sans-Serif" font-size="10.00">src/expconfig/setups</text>
<text text-anchor="middle" x="461" y="-9" font-family="Helvetica,sans-Serif" font-size="10.00">/Setup_Test.cc</text>
</a>
</g>
<!-- Node1&#45;&gt;Node5 -->
<g id="edge8" class="edge"><title>Node1&#45;&gt;Node5</title>
<path fill="none" stroke="midnightblue" d="M324.067,-69.3498C353.024,-58.4911 388.094,-45.3399 415.493,-35.0651"/>
<polygon fill="midnightblue" stroke="midnightblue" points="322.636,-66.1486 314.501,-72.937 325.094,-72.7029 322.636,-66.1486"/>
</g>
</g>
</svg>
