<?xml version="1.0" encoding="UTF-8" standalone="no"?>
<!DOCTYPE svg PUBLIC "-//W3C//DTD SVG 1.1//EN"
 "http://www.w3.org/Graphics/SVG/1.1/DTD/svg11.dtd">
<!-- Generated by graphviz version 2.26.3 (20100126.1600)
 -->
<!-- Title: src/calibration/fitfunctions/FitGausPol3.cc Pages: 1 -->
<svg width="733pt" height="348pt"
 viewBox="0.00 0.00 733.00 348.00" xmlns="http://www.w3.org/2000/svg" xmlns:xlink="http://www.w3.org/1999/xlink">
<g id="graph1" class="graph" transform="scale(1 1) rotate(0) translate(4 344)">
<title>src/calibration/fitfunctions/FitGausPol3.cc</title>
<polygon fill="white" stroke="white" points="-4,5 -4,-344 730,-344 730,5 -4,5"/>
<!-- Node1 -->
<g id="node1" class="node"><title>Node1</title>
<polygon fill="#bfbfbf" stroke="black" points="472,-305 472,-339 600,-339 600,-305 472,-305"/>
<text text-anchor="start" x="480" y="-326" font-family="Helvetica,sans-Serif" font-size="10.00">src/calibration/fitfunctions</text>
<text text-anchor="middle" x="536" y="-313" font-family="Helvetica,sans-Serif" font-size="10.00">/FitGausPol3.cc</text>
</g>
<!-- Node2 -->
<g id="node3" class="node"><title>Node2</title>
<a xlink:href="_fit_gaus_pol3_8h.html" target="_top" xlink:title="FitGausPol3.h">
<polygon fill="white" stroke="black" points="244.5,-246.5 244.5,-267.5 323.5,-267.5 323.5,-246.5 244.5,-246.5"/>
<text text-anchor="middle" x="284" y="-254.5" font-family="Helvetica,sans-Serif" font-size="10.00">FitGausPol3.h</text>
</a>
</g>
<!-- Node1&#45;&gt;Node2 -->
<g id="edge2" class="edge"><title>Node1&#45;&gt;Node2</title>
<path fill="none" stroke="midnightblue" d="M471.758,-305.43C428.74,-294.334 372.963,-279.947 333.41,-269.745"/>
<polygon fill="midnightblue" stroke="midnightblue" points="334.279,-266.354 323.722,-267.246 332.531,-273.132 334.279,-266.354"/>
</g>
<!-- Node19 -->
<g id="node42" class="node"><title>Node19</title>
<a xlink:href="_base_functions_8h.html" target="_top" xlink:title="BaseFunctions.h">
<polygon fill="white" stroke="black" points="341,-246.5 341,-267.5 431,-267.5 431,-246.5 341,-246.5"/>
<text text-anchor="middle" x="386" y="-254.5" font-family="Helvetica,sans-Serif" font-size="10.00">BaseFunctions.h</text>
</a>
</g>
<!-- Node1&#45;&gt;Node19 -->
<g id="edge46" class="edge"><title>Node1&#45;&gt;Node19</title>
<path fill="none" stroke="midnightblue" d="M496.589,-304.922C472.741,-294.588 442.642,-281.545 419.868,-271.676"/>
<polygon fill="midnightblue" stroke="midnightblue" points="421.163,-268.423 410.596,-267.658 418.38,-274.846 421.163,-268.423"/>
</g>
<!-- Node20 -->
<g id="node44" class="node"><title>Node20</title>
<a xlink:href="_logger_8h.html" target="_top" xlink:title="base/Logger.h">
<polygon fill="white" stroke="black" points="449,-246.5 449,-267.5 527,-267.5 527,-246.5 449,-246.5"/>
<text text-anchor="middle" x="488" y="-254.5" font-family="Helvetica,sans-Serif" font-size="10.00">base/Logger.h</text>
</a>
</g>
<!-- Node1&#45;&gt;Node20 -->
<g id="edge48" class="edge"><title>Node1&#45;&gt;Node20</title>
<path fill="none" stroke="midnightblue" d="M523.389,-304.922C516.821,-296.029 508.773,-285.13 502.011,-275.974"/>
<polygon fill="midnightblue" stroke="midnightblue" points="504.77,-273.817 496.014,-267.852 499.139,-277.976 504.77,-273.817"/>
</g>
<!-- Node22 -->
<g id="node48" class="node"><title>Node22</title>
<a xlink:href="_t_f1_ext_8h.html" target="_top" xlink:title="base/TF1Ext.h">
<polygon fill="white" stroke="black" points="544.5,-246.5 544.5,-267.5 625.5,-267.5 625.5,-246.5 544.5,-246.5"/>
<text text-anchor="middle" x="585" y="-254.5" font-family="Helvetica,sans-Serif" font-size="10.00">base/TF1Ext.h</text>
</a>
</g>
<!-- Node1&#45;&gt;Node22 -->
<g id="edge52" class="edge"><title>Node1&#45;&gt;Node22</title>
<path fill="none" stroke="midnightblue" d="M548.874,-304.922C555.578,-296.029 563.795,-285.13 570.697,-275.974"/>
<polygon fill="midnightblue" stroke="midnightblue" points="573.594,-277.944 576.819,-267.852 568.005,-273.73 573.594,-277.944"/>
</g>
<!-- Node23 -->
<g id="node50" class="node"><title>Node23</title>
<polygon fill="white" stroke="#bfbfbf" points="598,-188.5 598,-209.5 640,-209.5 640,-188.5 598,-188.5"/>
<text text-anchor="middle" x="619" y="-196.5" font-family="Helvetica,sans-Serif" font-size="10.00">TF1.h</text>
</g>
<!-- Node1&#45;&gt;Node23 -->
<g id="edge56" class="edge"><title>Node1&#45;&gt;Node23</title>
<path fill="none" stroke="midnightblue" d="M589.815,-304.914C607.005,-296.624 624.12,-284.725 634,-268 642.916,-252.907 637.191,-233.145 630.399,-218.641"/>
<polygon fill="midnightblue" stroke="midnightblue" points="633.403,-216.829 625.694,-209.561 627.188,-220.05 633.403,-216.829"/>
</g>
<!-- Node24 -->
<g id="node53" class="node"><title>Node24</title>
<polygon fill="white" stroke="#bfbfbf" points="681,-246.5 681,-267.5 725,-267.5 725,-246.5 681,-246.5"/>
<text text-anchor="middle" x="703" y="-254.5" font-family="Helvetica,sans-Serif" font-size="10.00">TH1.h</text>
</g>
<!-- Node1&#45;&gt;Node24 -->
<g id="edge58" class="edge"><title>Node1&#45;&gt;Node24</title>
<path fill="none" stroke="midnightblue" d="M579.877,-304.922C608.67,-293.715 645.645,-279.324 671.529,-269.249"/>
<polygon fill="midnightblue" stroke="midnightblue" points="672.817,-272.504 680.867,-265.615 670.278,-265.98 672.817,-272.504"/>
</g>
<!-- Node3 -->
<g id="node5" class="node"><title>Node3</title>
<a xlink:href="_fit_function_8h.html" target="_top" xlink:title="FitFunction.h">
<polygon fill="white" stroke="black" points="247,-188.5 247,-209.5 321,-209.5 321,-188.5 247,-188.5"/>
<text text-anchor="middle" x="284" y="-196.5" font-family="Helvetica,sans-Serif" font-size="10.00">FitFunction.h</text>
</a>
</g>
<!-- Node2&#45;&gt;Node3 -->
<g id="edge4" class="edge"><title>Node2&#45;&gt;Node3</title>
<path fill="none" stroke="midnightblue" d="M284,-246.362C284,-238.922 284,-228.743 284,-219.728"/>
<polygon fill="midnightblue" stroke="midnightblue" points="287.5,-219.571 284,-209.571 280.5,-219.571 287.5,-219.571"/>
</g>
<!-- Node4 -->
<g id="node7" class="node"><title>Node4</title>
<a xlink:href="_knobs_t_f1_8h.html" target="_top" xlink:title="KnobsTF1.h">
<polygon fill="white" stroke="black" points="76,-130.5 76,-151.5 146,-151.5 146,-130.5 76,-130.5"/>
<text text-anchor="middle" x="111" y="-138.5" font-family="Helvetica,sans-Serif" font-size="10.00">KnobsTF1.h</text>
</a>
</g>
<!-- Node3&#45;&gt;Node4 -->
<g id="edge6" class="edge"><title>Node3&#45;&gt;Node4</title>
<path fill="none" stroke="midnightblue" d="M252.671,-188.497C224.467,-179.041 182.833,-165.083 151.991,-154.743"/>
<polygon fill="midnightblue" stroke="midnightblue" points="152.982,-151.383 142.388,-151.523 150.757,-158.02 152.982,-151.383"/>
</g>
<!-- Node5 -->
<g id="node9" class="node"><title>Node5</title>
<a xlink:href="_indicator__traits_8h.html" target="_top" xlink:title="calibration/gui/Indicator\l_traits.h">
<polygon fill="white" stroke="black" points="-0.5,-59 -0.5,-93 116.5,-93 116.5,-59 -0.5,-59"/>
<text text-anchor="start" x="7.5" y="-80" font-family="Helvetica,sans-Serif" font-size="10.00">calibration/gui/Indicator</text>
<text text-anchor="middle" x="58" y="-67" font-family="Helvetica,sans-Serif" font-size="10.00">_traits.h</text>
</a>
</g>
<!-- Node3&#45;&gt;Node5 -->
<g id="edge14" class="edge"><title>Node3&#45;&gt;Node5</title>
<path fill="none" stroke="midnightblue" d="M246.915,-196.081C191.416,-190.903 90.7222,-178.101 67,-152 55.1978,-139.014 53.1777,-119.2 53.9878,-103.058"/>
<polygon fill="midnightblue" stroke="midnightblue" points="57.475,-103.356 54.8544,-93.0903 50.5013,-102.75 57.475,-103.356"/>
</g>
<!-- Node6 -->
<g id="node11" class="node"><title>Node6</title>
<polygon fill="white" stroke="#bfbfbf" points="102,-0.5 102,-21.5 158,-21.5 158,-0.5 102,-0.5"/>
<text text-anchor="middle" x="130" y="-8.5" font-family="Helvetica,sans-Serif" font-size="10.00">Rtypes.h</text>
</g>
<!-- Node3&#45;&gt;Node6 -->
<g id="edge38" class="edge"><title>Node3&#45;&gt;Node6</title>
<path fill="none" stroke="midnightblue" d="M277.628,-188.498C262.673,-164.242 223.517,-102.961 183,-58 173.481,-47.4366 161.748,-36.8275 151.744,-28.3688"/>
<polygon fill="midnightblue" stroke="midnightblue" points="153.768,-25.5003 143.834,-21.8176 149.303,-30.8916 153.768,-25.5003"/>
</g>
<!-- Node7 -->
<g id="node13" class="node"><title>Node7</title>
<polygon fill="white" stroke="#bfbfbf" points="133.5,-65.5 133.5,-86.5 174.5,-86.5 174.5,-65.5 133.5,-65.5"/>
<text text-anchor="middle" x="154" y="-73.5" font-family="Helvetica,sans-Serif" font-size="10.00">string</text>
</g>
<!-- Node3&#45;&gt;Node7 -->
<g id="edge44" class="edge"><title>Node3&#45;&gt;Node7</title>
<path fill="none" stroke="midnightblue" d="M255.944,-188.352C237.799,-180.414 214.563,-168.16 198,-152 181.553,-135.953 169.221,-112.458 161.859,-95.8471"/>
<polygon fill="midnightblue" stroke="midnightblue" points="165.037,-94.3757 157.925,-86.5223 158.587,-97.0964 165.037,-94.3757"/>
</g>
<!-- Node8 -->
<g id="node16" class="node"><title>Node8</title>
<a xlink:href="interval_8h.html" target="_top" xlink:title="base/interval.h">
<polygon fill="white" stroke="black" points="316,-130.5 316,-151.5 396,-151.5 396,-130.5 316,-130.5"/>
<text text-anchor="middle" x="356" y="-138.5" font-family="Helvetica,sans-Serif" font-size="10.00">base/interval.h</text>
</a>
</g>
<!-- Node3&#45;&gt;Node8 -->
<g id="edge16" class="edge"><title>Node3&#45;&gt;Node8</title>
<path fill="none" stroke="midnightblue" d="M297.206,-188.362C307.761,-179.859 322.758,-167.779 334.963,-157.947"/>
<polygon fill="midnightblue" stroke="midnightblue" points="337.286,-160.57 342.878,-151.571 332.895,-155.118 337.286,-160.57"/>
</g>
<!-- Node16 -->
<g id="node32" class="node"><title>Node16</title>
<a xlink:href="memory_8h.html" target="_top" xlink:title="base/std_ext/memory.h">
<polygon fill="white" stroke="black" points="521.5,-130.5 521.5,-151.5 640.5,-151.5 640.5,-130.5 521.5,-130.5"/>
<text text-anchor="middle" x="581" y="-138.5" font-family="Helvetica,sans-Serif" font-size="10.00">base/std_ext/memory.h</text>
</a>
</g>
<!-- Node3&#45;&gt;Node16 -->
<g id="edge32" class="edge"><title>Node3&#45;&gt;Node16</title>
<path fill="none" stroke="midnightblue" d="M321.015,-191.772C370.038,-182.198 457.261,-165.165 517.054,-153.488"/>
<polygon fill="midnightblue" stroke="midnightblue" points="518,-156.869 527.144,-151.517 516.658,-149.999 518,-156.869"/>
</g>
<!-- Node17 -->
<g id="node34" class="node"><title>Node17</title>
<polygon fill="white" stroke="#bfbfbf" points="584,-65.5 584,-86.5 636,-86.5 636,-65.5 584,-65.5"/>
<text text-anchor="middle" x="610" y="-73.5" font-family="Helvetica,sans-Serif" font-size="10.00">memory</text>
</g>
<!-- Node3&#45;&gt;Node17 -->
<g id="edge40" class="edge"><title>Node3&#45;&gt;Node17</title>
<path fill="none" stroke="midnightblue" d="M317.713,-188.403C372.498,-170.836 483.899,-133.666 575,-94 577.087,-93.0913 579.223,-92.1144 581.361,-91.1022"/>
<polygon fill="midnightblue" stroke="midnightblue" points="583.176,-94.1094 590.592,-86.5428 580.076,-87.8333 583.176,-94.1094"/>
</g>
<!-- Node18 -->
<g id="node36" class="node"><title>Node18</title>
<polygon fill="white" stroke="#bfbfbf" points="653.5,-65.5 653.5,-86.5 682.5,-86.5 682.5,-65.5 653.5,-65.5"/>
<text text-anchor="middle" x="668" y="-73.5" font-family="Helvetica,sans-Serif" font-size="10.00">list</text>
</g>
<!-- Node3&#45;&gt;Node18 -->
<g id="edge42" class="edge"><title>Node3&#45;&gt;Node18</title>
<path fill="none" stroke="midnightblue" d="M321.222,-195.344C411.725,-186.302 636.811,-162.841 649,-152 664.339,-138.357 668.195,-114.382 668.777,-97.0015"/>
<polygon fill="midnightblue" stroke="midnightblue" points="672.277,-96.7059 668.774,-86.7069 665.277,-96.7079 672.277,-96.7059"/>
</g>
<!-- Node4&#45;&gt;Node5 -->
<g id="edge8" class="edge"><title>Node4&#45;&gt;Node5</title>
<path fill="none" stroke="midnightblue" d="M102.248,-130.267C95.7523,-122.3 86.6232,-111.104 78.3431,-100.949"/>
<polygon fill="midnightblue" stroke="midnightblue" points="80.9831,-98.6483 71.9511,-93.1099 75.558,-103.072 80.9831,-98.6483"/>
</g>
<!-- Node4&#45;&gt;Node7 -->
<g id="edge12" class="edge"><title>Node4&#45;&gt;Node7</title>
<path fill="none" stroke="midnightblue" d="M118.101,-130.267C124.425,-120.707 133.825,-106.496 141.421,-95.0152"/>
<polygon fill="midnightblue" stroke="midnightblue" points="144.433,-96.805 147.032,-86.5337 138.595,-92.9428 144.433,-96.805"/>
</g>
<!-- Node5&#45;&gt;Node6 -->
<g id="edge10" class="edge"><title>Node5&#45;&gt;Node6</title>
<path fill="none" stroke="midnightblue" d="M76.9172,-58.922C87.2761,-49.5702 100.092,-38.0007 110.535,-28.5724"/>
<polygon fill="midnightblue" stroke="midnightblue" points="112.902,-31.1511 117.979,-21.8521 108.211,-25.9552 112.902,-31.1511"/>
</g>
<!-- Node9 -->
<g id="node18" class="node"><title>Node9</title>
<polygon fill="white" stroke="#bfbfbf" points="230,-65.5 230,-86.5 286,-86.5 286,-65.5 230,-65.5"/>
<text text-anchor="middle" x="258" y="-73.5" font-family="Helvetica,sans-Serif" font-size="10.00">algorithm</text>
</g>
<!-- Node8&#45;&gt;Node9 -->
<g id="edge18" class="edge"><title>Node8&#45;&gt;Node9</title>
<path fill="none" stroke="midnightblue" d="M339.817,-130.267C324.262,-119.949 300.541,-104.216 282.639,-92.3421"/>
<polygon fill="midnightblue" stroke="midnightblue" points="284.15,-89.1444 273.882,-86.5337 280.281,-94.9779 284.15,-89.1444"/>
</g>
<!-- Node10 -->
<g id="node20" class="node"><title>Node10</title>
<polygon fill="white" stroke="#bfbfbf" points="303.5,-65.5 303.5,-86.5 362.5,-86.5 362.5,-65.5 303.5,-65.5"/>
<text text-anchor="middle" x="333" y="-73.5" font-family="Helvetica,sans-Serif" font-size="10.00">stdexcept</text>
</g>
<!-- Node8&#45;&gt;Node10 -->
<g id="edge20" class="edge"><title>Node8&#45;&gt;Node10</title>
<path fill="none" stroke="midnightblue" d="M352.202,-130.267C348.92,-120.991 344.088,-107.336 340.093,-96.0453"/>
<polygon fill="midnightblue" stroke="midnightblue" points="343.363,-94.7934 336.727,-86.5337 336.764,-97.1285 343.363,-94.7934"/>
</g>
<!-- Node11 -->
<g id="node22" class="node"><title>Node11</title>
<a xlink:href="printable_8h.html" target="_top" xlink:title="printable.h">
<polygon fill="white" stroke="black" points="380,-65.5 380,-86.5 442,-86.5 442,-65.5 380,-65.5"/>
<text text-anchor="middle" x="411" y="-73.5" font-family="Helvetica,sans-Serif" font-size="10.00">printable.h</text>
</a>
</g>
<!-- Node8&#45;&gt;Node11 -->
<g id="edge22" class="edge"><title>Node8&#45;&gt;Node11</title>
<path fill="none" stroke="midnightblue" d="M365.082,-130.267C373.331,-120.517 385.673,-105.932 395.485,-94.3365"/>
<polygon fill="midnightblue" stroke="midnightblue" points="398.299,-96.4284 402.087,-86.5337 392.956,-91.9068 398.299,-96.4284"/>
</g>
<!-- Node14 -->
<g id="node28" class="node"><title>Node14</title>
<a xlink:href="types_8h.html" target="_top" xlink:title="types.h">
<polygon fill="white" stroke="black" points="459.5,-65.5 459.5,-86.5 508.5,-86.5 508.5,-65.5 459.5,-65.5"/>
<text text-anchor="middle" x="484" y="-73.5" font-family="Helvetica,sans-Serif" font-size="10.00">types.h</text>
</a>
</g>
<!-- Node8&#45;&gt;Node14 -->
<g id="edge28" class="edge"><title>Node8&#45;&gt;Node14</title>
<path fill="none" stroke="midnightblue" d="M378.01,-130.419C397.345,-121.051 426.183,-106.901 451,-94 452.553,-93.1929 454.142,-92.3575 455.743,-91.5084"/>
<polygon fill="midnightblue" stroke="midnightblue" points="457.724,-94.4176 464.874,-86.6 454.409,-88.252 457.724,-94.4176"/>
</g>
<!-- Node15 -->
<g id="node30" class="node"><title>Node15</title>
<polygon fill="white" stroke="#bfbfbf" points="526,-65.5 526,-86.5 566,-86.5 566,-65.5 526,-65.5"/>
<text text-anchor="middle" x="546" y="-73.5" font-family="Helvetica,sans-Serif" font-size="10.00">limits</text>
</g>
<!-- Node8&#45;&gt;Node15 -->
<g id="edge30" class="edge"><title>Node8&#45;&gt;Node15</title>
<path fill="none" stroke="midnightblue" d="M396.103,-132.498C429.34,-124.703 477.381,-111.682 517,-94 518.6,-93.2861 520.217,-92.497 521.826,-91.6596"/>
<polygon fill="midnightblue" stroke="midnightblue" points="523.845,-94.5363 530.776,-86.5231 520.361,-88.465 523.845,-94.5363"/>
</g>
<!-- Node12 -->
<g id="node24" class="node"><title>Node12</title>
<polygon fill="white" stroke="#bfbfbf" points="356,-0.5 356,-21.5 400,-21.5 400,-0.5 356,-0.5"/>
<text text-anchor="middle" x="378" y="-8.5" font-family="Helvetica,sans-Serif" font-size="10.00">vector</text>
</g>
<!-- Node11&#45;&gt;Node12 -->
<g id="edge24" class="edge"><title>Node11&#45;&gt;Node12</title>
<path fill="none" stroke="midnightblue" d="M405.551,-65.2666C400.793,-55.8959 393.768,-42.0573 388.002,-30.7004"/>
<polygon fill="midnightblue" stroke="midnightblue" points="390.996,-28.8659 383.348,-21.5337 384.754,-32.0348 390.996,-28.8659"/>
</g>
<!-- Node13 -->
<g id="node26" class="node"><title>Node13</title>
<polygon fill="white" stroke="#bfbfbf" points="418,-0.5 418,-21.5 470,-21.5 470,-0.5 418,-0.5"/>
<text text-anchor="middle" x="444" y="-8.5" font-family="Helvetica,sans-Serif" font-size="10.00">ostream</text>
</g>
<!-- Node11&#45;&gt;Node13 -->
<g id="edge26" class="edge"><title>Node11&#45;&gt;Node13</title>
<path fill="none" stroke="midnightblue" d="M416.449,-65.2666C421.207,-55.8959 428.232,-42.0573 433.998,-30.7004"/>
<polygon fill="midnightblue" stroke="midnightblue" points="437.246,-32.0348 438.652,-21.5337 431.004,-28.8659 437.246,-32.0348"/>
</g>
<!-- Node16&#45;&gt;Node17 -->
<g id="edge34" class="edge"><title>Node16&#45;&gt;Node17</title>
<path fill="none" stroke="midnightblue" d="M585.789,-130.267C589.97,-120.896 596.144,-107.057 601.211,-95.7004"/>
<polygon fill="midnightblue" stroke="midnightblue" points="604.422,-97.0921 605.3,-86.5337 598.03,-94.24 604.422,-97.0921"/>
</g>
<!-- Node16&#45;&gt;Node18 -->
<g id="edge36" class="edge"><title>Node16&#45;&gt;Node18</title>
<path fill="none" stroke="midnightblue" d="M595.582,-130.486C608.615,-121.042 628.193,-106.743 645,-94 645.48,-93.6362 645.965,-93.2674 646.453,-92.8949"/>
<polygon fill="midnightblue" stroke="midnightblue" points="648.659,-95.6134 654.432,-86.7295 644.379,-90.0742 648.659,-95.6134"/>
</g>
<!-- Node21 -->
<g id="node46" class="node"><title>Node21</title>
<polygon fill="white" stroke="#bfbfbf" points="430.5,-188.5 430.5,-209.5 545.5,-209.5 545.5,-188.5 430.5,-188.5"/>
<text text-anchor="middle" x="488" y="-196.5" font-family="Helvetica,sans-Serif" font-size="10.00">detail/easylogging++.h</text>
</g>
<!-- Node20&#45;&gt;Node21 -->
<g id="edge50" class="edge"><title>Node20&#45;&gt;Node21</title>
<path fill="none" stroke="midnightblue" d="M488,-246.362C488,-238.922 488,-228.743 488,-219.728"/>
<polygon fill="midnightblue" stroke="midnightblue" points="491.5,-219.571 488,-209.571 484.5,-219.571 491.5,-219.571"/>
</g>
<!-- Node22&#45;&gt;Node23 -->
<g id="edge54" class="edge"><title>Node22&#45;&gt;Node23</title>
<path fill="none" stroke="midnightblue" d="M591.236,-246.362C595.837,-238.513 602.225,-227.616 607.714,-218.253"/>
<polygon fill="midnightblue" stroke="midnightblue" points="610.766,-219.968 612.803,-209.571 604.727,-216.428 610.766,-219.968"/>
</g>
</g>
</svg>
