<?xml version="1.0" encoding="UTF-8" standalone="no"?>
<!DOCTYPE svg PUBLIC "-//W3C//DTD SVG 1.1//EN"
 "http://www.w3.org/Graphics/SVG/1.1/DTD/svg11.dtd">
<!-- Generated by graphviz version 2.26.3 (20100126.1600)
 -->
<!-- Title: src/calibration/fitfunctions/FitFunction.h Pages: 1 -->
<svg width="1974pt" height="188pt"
 viewBox="0.00 0.00 1974.00 188.00" xmlns="http://www.w3.org/2000/svg" xmlns:xlink="http://www.w3.org/1999/xlink">
<g id="graph1" class="graph" transform="scale(1 1) rotate(0) translate(4 184)">
<title>src/calibration/fitfunctions/FitFunction.h</title>
<polygon fill="white" stroke="white" points="-4,5 -4,-184 1971,-184 1971,5 -4,5"/>
<!-- Node1 -->
<g id="node1" class="node"><title>Node1</title>
<polygon fill="#bfbfbf" stroke="black" points="885,-145 885,-179 1013,-179 1013,-145 885,-145"/>
<text text-anchor="start" x="893" y="-166" font-family="Helvetica,sans-Serif" font-size="10.00">src/calibration/fitfunctions</text>
<text text-anchor="middle" x="949" y="-153" font-family="Helvetica,sans-Serif" font-size="10.00">/FitFunction.h</text>
</g>
<!-- Node2 -->
<g id="node3" class="node"><title>Node2</title>
<a xlink:href="_fit_function_8cc.html" target="_top" xlink:title="src/calibration/fitfunctions\l/FitFunction.cc">
<polygon fill="white" stroke="black" points="312,-73 312,-107 440,-107 440,-73 312,-73"/>
<text text-anchor="start" x="320" y="-94" font-family="Helvetica,sans-Serif" font-size="10.00">src/calibration/fitfunctions</text>
<text text-anchor="middle" x="376" y="-81" font-family="Helvetica,sans-Serif" font-size="10.00">/FitFunction.cc</text>
</a>
</g>
<!-- Node1&#45;&gt;Node2 -->
<g id="edge2" class="edge"><title>Node1&#45;&gt;Node2</title>
<path fill="none" stroke="midnightblue" d="M874.572,-157.095C776.504,-149.918 598.893,-134.451 449,-108 446.172,-107.501 443.291,-106.955 440.387,-106.373"/>
<polygon fill="midnightblue" stroke="midnightblue" points="874.454,-160.596 884.68,-157.826 874.959,-153.614 874.454,-160.596"/>
</g>
<!-- Node3 -->
<g id="node5" class="node"><title>Node3</title>
<a xlink:href="_fit_gaus_8h.html" target="_top" xlink:title="src/calibration/fitfunctions\l/FitGaus.h">
<polygon fill="white" stroke="black" points="604,-73 604,-107 732,-107 732,-73 604,-73"/>
<text text-anchor="start" x="612" y="-94" font-family="Helvetica,sans-Serif" font-size="10.00">src/calibration/fitfunctions</text>
<text text-anchor="middle" x="668" y="-81" font-family="Helvetica,sans-Serif" font-size="10.00">/FitGaus.h</text>
</a>
</g>
<!-- Node1&#45;&gt;Node3 -->
<g id="edge4" class="edge"><title>Node1&#45;&gt;Node3</title>
<path fill="none" stroke="midnightblue" d="M875.031,-143.047C830.683,-131.684 774.836,-117.374 732.325,-106.482"/>
<polygon fill="midnightblue" stroke="midnightblue" points="874.329,-146.48 884.885,-145.572 876.067,-139.699 874.329,-146.48"/>
</g>
<!-- Node8 -->
<g id="node15" class="node"><title>Node8</title>
<a xlink:href="_fit_gaus_pol0_8h.html" target="_top" xlink:title="src/calibration/fitfunctions\l/FitGausPol0.h">
<polygon fill="white" stroke="black" points="458,-73 458,-107 586,-107 586,-73 458,-73"/>
<text text-anchor="start" x="466" y="-94" font-family="Helvetica,sans-Serif" font-size="10.00">src/calibration/fitfunctions</text>
<text text-anchor="middle" x="522" y="-81" font-family="Helvetica,sans-Serif" font-size="10.00">/FitGausPol0.h</text>
</a>
</g>
<!-- Node1&#45;&gt;Node8 -->
<g id="edge14" class="edge"><title>Node1&#45;&gt;Node8</title>
<path fill="none" stroke="midnightblue" d="M874.436,-152.619C802.56,-143.108 690.888,-127.095 595,-108 592.056,-107.414 589.051,-106.787 586.021,-106.133"/>
<polygon fill="midnightblue" stroke="midnightblue" points="874.374,-156.141 884.745,-153.975 875.287,-149.201 874.374,-156.141"/>
</g>
<!-- Node12 -->
<g id="node25" class="node"><title>Node12</title>
<a xlink:href="_fit_gaus_pol3_8h.html" target="_top" xlink:title="src/calibration/fitfunctions\l/FitGausPol3.h">
<polygon fill="white" stroke="black" points="812,-73 812,-107 940,-107 940,-73 812,-73"/>
<text text-anchor="start" x="820" y="-94" font-family="Helvetica,sans-Serif" font-size="10.00">src/calibration/fitfunctions</text>
<text text-anchor="middle" x="876" y="-81" font-family="Helvetica,sans-Serif" font-size="10.00">/FitGausPol3.h</text>
</a>
</g>
<!-- Node1&#45;&gt;Node12 -->
<g id="edge26" class="edge"><title>Node1&#45;&gt;Node12</title>
<path fill="none" stroke="midnightblue" d="M924.574,-137.908C914.369,-127.844 902.746,-116.38 893.429,-107.19"/>
<polygon fill="midnightblue" stroke="midnightblue" points="922.123,-140.407 931.7,-144.937 927.038,-135.423 922.123,-140.407"/>
</g>
<!-- Node15 -->
<g id="node33" class="node"><title>Node15</title>
<a xlink:href="_fit_timewalk_8h.html" target="_top" xlink:title="src/calibration/fitfunctions\l/FitTimewalk.h">
<polygon fill="white" stroke="black" points="958,-73 958,-107 1086,-107 1086,-73 958,-73"/>
<text text-anchor="start" x="966" y="-94" font-family="Helvetica,sans-Serif" font-size="10.00">src/calibration/fitfunctions</text>
<text text-anchor="middle" x="1022" y="-81" font-family="Helvetica,sans-Serif" font-size="10.00">/FitTimewalk.h</text>
</a>
</g>
<!-- Node1&#45;&gt;Node15 -->
<g id="edge36" class="edge"><title>Node1&#45;&gt;Node15</title>
<path fill="none" stroke="midnightblue" d="M973.426,-137.908C983.631,-127.844 995.254,-116.38 1004.57,-107.19"/>
<polygon fill="midnightblue" stroke="midnightblue" points="970.962,-135.423 966.3,-144.937 975.877,-140.407 970.962,-135.423"/>
</g>
<!-- Node18 -->
<g id="node39" class="node"><title>Node18</title>
<a xlink:href="_cal_canvas_8h.html" target="_top" xlink:title="src/calibration/gui\l/CalCanvas.h">
<polygon fill="white" stroke="black" points="1383.5,-73 1383.5,-107 1476.5,-107 1476.5,-73 1383.5,-73"/>
<text text-anchor="start" x="1391.5" y="-94" font-family="Helvetica,sans-Serif" font-size="10.00">src/calibration/gui</text>
<text text-anchor="middle" x="1430" y="-81" font-family="Helvetica,sans-Serif" font-size="10.00">/CalCanvas.h</text>
</a>
</g>
<!-- Node1&#45;&gt;Node18 -->
<g id="edge42" class="edge"><title>Node1&#45;&gt;Node18</title>
<path fill="none" stroke="midnightblue" d="M1023.44,-150.857C1123.86,-135.825 1299.75,-109.497 1383.33,-96.9855"/>
<polygon fill="midnightblue" stroke="midnightblue" points="1022.74,-147.423 1013.37,-152.364 1023.78,-154.345 1022.74,-147.423"/>
</g>
<!-- Node19 -->
<g id="node41" class="node"><title>Node19</title>
<a xlink:href="_cal_canvas_8cc.html" target="_top" xlink:title="src/calibration/gui\l/CalCanvas.cc">
<polygon fill="white" stroke="black" points="1739.5,-1 1739.5,-35 1832.5,-35 1832.5,-1 1739.5,-1"/>
<text text-anchor="start" x="1747.5" y="-22" font-family="Helvetica,sans-Serif" font-size="10.00">src/calibration/gui</text>
<text text-anchor="middle" x="1786" y="-9" font-family="Helvetica,sans-Serif" font-size="10.00">/CalCanvas.cc</text>
</a>
</g>
<!-- Node1&#45;&gt;Node19 -->
<g id="edge60" class="edge"><title>Node1&#45;&gt;Node19</title>
<path fill="none" stroke="midnightblue" d="M1023.17,-158.851C1127.2,-153.458 1321.98,-139.787 1485,-108 1576.95,-90.0719 1681,-55.6903 1739.53,-35.0019"/>
<polygon fill="midnightblue" stroke="midnightblue" points="1022.9,-155.361 1013.09,-159.363 1023.25,-162.352 1022.9,-155.361"/>
</g>
<!-- Node22 -->
<g id="node51" class="node"><title>Node22</title>
<a xlink:href="_time_8cc.html" target="_top" xlink:title="src/calibration/modules\l/Time.cc">
<polygon fill="white" stroke="black" points="1849.5,-1 1849.5,-35 1966.5,-35 1966.5,-1 1849.5,-1"/>
<text text-anchor="start" x="1857.5" y="-22" font-family="Helvetica,sans-Serif" font-size="10.00">src/calibration/modules</text>
<text text-anchor="middle" x="1908" y="-9" font-family="Helvetica,sans-Serif" font-size="10.00">/Time.cc</text>
</a>
</g>
<!-- Node1&#45;&gt;Node22 -->
<g id="edge62" class="edge"><title>Node1&#45;&gt;Node22</title>
<path fill="none" stroke="midnightblue" d="M1023.52,-159.499C1139.88,-154.691 1371.44,-141.487 1565,-108 1669.04,-90.0009 1787.62,-55.7262 1854.56,-35.0606"/>
<polygon fill="midnightblue" stroke="midnightblue" points="1023.16,-156.011 1013.31,-159.912 1023.44,-163.006 1023.16,-156.011"/>
</g>
<!-- Node4 -->
<g id="node7" class="node"><title>Node4</title>
<a xlink:href="_fit_gaus_8cc.html" target="_top" xlink:title="src/calibration/fitfunctions\l/FitGaus.cc">
<polygon fill="white" stroke="black" points="404,-1 404,-35 532,-35 532,-1 404,-1"/>
<text text-anchor="start" x="412" y="-22" font-family="Helvetica,sans-Serif" font-size="10.00">src/calibration/fitfunctions</text>
<text text-anchor="middle" x="468" y="-9" font-family="Helvetica,sans-Serif" font-size="10.00">/FitGaus.cc</text>
</a>
</g>
<!-- Node3&#45;&gt;Node4 -->
<g id="edge6" class="edge"><title>Node3&#45;&gt;Node4</title>
<path fill="none" stroke="midnightblue" d="M611.032,-69.4913C580.793,-58.6055 544.068,-45.3846 515.403,-35.0651"/>
<polygon fill="midnightblue" stroke="midnightblue" points="610.008,-72.8429 620.603,-72.937 612.379,-66.2566 610.008,-72.8429"/>
</g>
<!-- Node5 -->
<g id="node9" class="node"><title>Node5</title>
<a xlink:href="_p_i_d___phi_angle_8cc.html" target="_top" xlink:title="src/calibration/modules\l/PID_PhiAngle.cc">
<polygon fill="white" stroke="black" points="1103.5,-1 1103.5,-35 1220.5,-35 1220.5,-1 1103.5,-1"/>
<text text-anchor="start" x="1111.5" y="-22" font-family="Helvetica,sans-Serif" font-size="10.00">src/calibration/modules</text>
<text text-anchor="middle" x="1162" y="-9" font-family="Helvetica,sans-Serif" font-size="10.00">/PID_PhiAngle.cc</text>
</a>
</g>
<!-- Node3&#45;&gt;Node5 -->
<g id="edge8" class="edge"><title>Node3&#45;&gt;Node5</title>
<path fill="none" stroke="midnightblue" d="M742.34,-79.9539C762.054,-77.3265 783.328,-74.524 803,-72 932.697,-55.3589 966.657,-61.0244 1095,-36 1097.72,-35.4698 1100.49,-34.8897 1103.28,-34.2727"/>
<polygon fill="midnightblue" stroke="midnightblue" points="741.638,-76.5164 732.19,-81.3095 742.565,-83.4548 741.638,-76.5164"/>
</g>
<!-- Node6 -->
<g id="node11" class="node"><title>Node6</title>
<a xlink:href="_setup__2014___e_p_t_8cc.html" target="_top" xlink:title="src/expconfig/setups\l/Setup_2014_EPT.cc">
<polygon fill="white" stroke="black" points="550,-1 550,-35 660,-35 660,-1 550,-1"/>
<text text-anchor="start" x="558" y="-22" font-family="Helvetica,sans-Serif" font-size="10.00">src/expconfig/setups</text>
<text text-anchor="middle" x="605" y="-9" font-family="Helvetica,sans-Serif" font-size="10.00">/Setup_2014_EPT.cc</text>
</a>
</g>
<!-- Node3&#45;&gt;Node6 -->
<g id="edge10" class="edge"><title>Node3&#45;&gt;Node6</title>
<path fill="none" stroke="midnightblue" d="M646.456,-65.3785C637.843,-55.5349 628.123,-44.4262 620.261,-35.4407"/>
<polygon fill="midnightblue" stroke="midnightblue" points="643.851,-67.716 653.07,-72.937 649.119,-63.1064 643.851,-67.716"/>
</g>
<!-- Node7 -->
<g id="node13" class="node"><title>Node7</title>
<a xlink:href="_setup___test_8cc.html" target="_top" xlink:title="src/expconfig/setups\l/Setup_Test.cc">
<polygon fill="white" stroke="black" points="279.5,-1 279.5,-35 386.5,-35 386.5,-1 279.5,-1"/>
<text text-anchor="start" x="287.5" y="-22" font-family="Helvetica,sans-Serif" font-size="10.00">src/expconfig/setups</text>
<text text-anchor="middle" x="333" y="-9" font-family="Helvetica,sans-Serif" font-size="10.00">/Setup_Test.cc</text>
</a>
</g>
<!-- Node3&#45;&gt;Node7 -->
<g id="edge12" class="edge"><title>Node3&#45;&gt;Node7</title>
<path fill="none" stroke="midnightblue" d="M593.964,-71.8601C504.917,-53.3914 479.841,-55.8939 395,-36 392.272,-35.3603 389.485,-34.6739 386.678,-33.956"/>
<polygon fill="midnightblue" stroke="midnightblue" points="593.452,-75.3289 603.959,-73.9645 594.895,-68.4791 593.452,-75.3289"/>
</g>
<!-- Node8&#45;&gt;Node6 -->
<g id="edge22" class="edge"><title>Node8&#45;&gt;Node6</title>
<path fill="none" stroke="midnightblue" d="M549.435,-66.2011C561.118,-56.0666 574.487,-44.4691 585.184,-35.19"/>
<polygon fill="midnightblue" stroke="midnightblue" points="546.93,-63.7403 541.67,-72.937 551.517,-69.0281 546.93,-63.7403"/>
</g>
<!-- Node8&#45;&gt;Node7 -->
<g id="edge24" class="edge"><title>Node8&#45;&gt;Node7</title>
<path fill="none" stroke="midnightblue" d="M467.793,-69.3498C439.289,-58.4911 404.767,-45.3399 377.796,-35.0651"/>
<polygon fill="midnightblue" stroke="midnightblue" points="466.619,-72.6477 477.21,-72.937 469.111,-66.1063 466.619,-72.6477"/>
</g>
<!-- Node9 -->
<g id="node17" class="node"><title>Node9</title>
<a xlink:href="_fit_gaus_pol0_8cc.html" target="_top" xlink:title="src/calibration/fitfunctions\l/FitGausPol0.cc">
<polygon fill="white" stroke="black" points="0,-1 0,-35 128,-35 128,-1 0,-1"/>
<text text-anchor="start" x="8" y="-22" font-family="Helvetica,sans-Serif" font-size="10.00">src/calibration/fitfunctions</text>
<text text-anchor="middle" x="64" y="-9" font-family="Helvetica,sans-Serif" font-size="10.00">/FitGausPol0.cc</text>
</a>
</g>
<!-- Node8&#45;&gt;Node9 -->
<g id="edge16" class="edge"><title>Node8&#45;&gt;Node9</title>
<path fill="none" stroke="midnightblue" d="M447.521,-71.8604C309.825,-47.8539 271.154,-60.1784 137,-36 134.174,-35.4906 131.294,-34.9359 128.391,-34.3473"/>
<polygon fill="midnightblue" stroke="midnightblue" points="447.151,-75.3494 457.609,-73.6527 448.375,-68.4573 447.151,-75.3494"/>
</g>
<!-- Node10 -->
<g id="node19" class="node"><title>Node10</title>
<a xlink:href="_energy_8cc.html" target="_top" xlink:title="src/calibration/modules\l/Energy.cc">
<polygon fill="white" stroke="black" points="677.5,-1 677.5,-35 794.5,-35 794.5,-1 677.5,-1"/>
<text text-anchor="start" x="685.5" y="-22" font-family="Helvetica,sans-Serif" font-size="10.00">src/calibration/modules</text>
<text text-anchor="middle" x="736" y="-9" font-family="Helvetica,sans-Serif" font-size="10.00">/Energy.cc</text>
</a>
</g>
<!-- Node8&#45;&gt;Node10 -->
<g id="edge18" class="edge"><title>Node8&#45;&gt;Node10</title>
<path fill="none" stroke="midnightblue" d="M582.536,-69.6326C614.971,-58.7201 654.474,-45.4292 685.279,-35.0651"/>
<polygon fill="midnightblue" stroke="midnightblue" points="581.077,-66.4308 572.715,-72.937 583.309,-73.0654 581.077,-66.4308"/>
</g>
<!-- Node11 -->
<g id="node21" class="node"><title>Node11</title>
<a xlink:href="_t_a_p_s___time_8cc.html" target="_top" xlink:title="src/calibration/modules\l/TAPS_Time.cc">
<polygon fill="white" stroke="black" points="145.5,-1 145.5,-35 262.5,-35 262.5,-1 145.5,-1"/>
<text text-anchor="start" x="153.5" y="-22" font-family="Helvetica,sans-Serif" font-size="10.00">src/calibration/modules</text>
<text text-anchor="middle" x="204" y="-9" font-family="Helvetica,sans-Serif" font-size="10.00">/TAPS_Time.cc</text>
</a>
</g>
<!-- Node8&#45;&gt;Node11 -->
<g id="edge20" class="edge"><title>Node8&#45;&gt;Node11</title>
<path fill="none" stroke="midnightblue" d="M447.964,-71.8218C368.54,-54.3175 346.5,-53.758 271,-36 268.303,-35.3657 265.55,-34.7001 262.773,-34.014"/>
<polygon fill="midnightblue" stroke="midnightblue" points="447.42,-75.2863 457.942,-74.0428 448.941,-68.4535 447.42,-75.2863"/>
</g>
<!-- Node12&#45;&gt;Node6 -->
<g id="edge32" class="edge"><title>Node12&#45;&gt;Node6</title>
<path fill="none" stroke="midnightblue" d="M801.764,-70.998C762.286,-60.8009 712.952,-47.9124 669,-36 666.104,-35.215 663.135,-34.4037 660.14,-33.5797"/>
<polygon fill="midnightblue" stroke="midnightblue" points="801.022,-74.4211 811.58,-73.5303 802.771,-67.6431 801.022,-74.4211"/>
</g>
<!-- Node12&#45;&gt;Node7 -->
<g id="edge34" class="edge"><title>Node12&#45;&gt;Node7</title>
<path fill="none" stroke="midnightblue" d="M801.691,-79.7004C781.977,-77.0751 760.695,-74.3371 741,-72 587.469,-53.7813 546.734,-65.6717 395,-36 392.25,-35.4622 389.446,-34.8578 386.624,-34.205"/>
<polygon fill="midnightblue" stroke="midnightblue" points="801.465,-83.2012 811.841,-81.0602 802.394,-76.2632 801.465,-83.2012"/>
</g>
<!-- Node13 -->
<g id="node27" class="node"><title>Node13</title>
<a xlink:href="_fit_gaus_pol3_8cc.html" target="_top" xlink:title="src/calibration/fitfunctions\l/FitGausPol3.cc">
<polygon fill="white" stroke="black" points="812,-1 812,-35 940,-35 940,-1 812,-1"/>
<text text-anchor="start" x="820" y="-22" font-family="Helvetica,sans-Serif" font-size="10.00">src/calibration/fitfunctions</text>
<text text-anchor="middle" x="876" y="-9" font-family="Helvetica,sans-Serif" font-size="10.00">/FitGausPol3.cc</text>
</a>
</g>
<!-- Node12&#45;&gt;Node13 -->
<g id="edge28" class="edge"><title>Node12&#45;&gt;Node13</title>
<path fill="none" stroke="midnightblue" d="M876,-62.7193C876,-53.572 876,-43.6255 876,-35.4407"/>
<polygon fill="midnightblue" stroke="midnightblue" points="872.5,-62.937 876,-72.937 879.5,-62.937 872.5,-62.937"/>
</g>
<!-- Node14 -->
<g id="node29" class="node"><title>Node14</title>
<a xlink:href="_c_b___energy_8cc.html" target="_top" xlink:title="src/calibration/modules\l/CB_Energy.cc">
<polygon fill="white" stroke="black" points="1237.5,-1 1237.5,-35 1354.5,-35 1354.5,-1 1237.5,-1"/>
<text text-anchor="start" x="1245.5" y="-22" font-family="Helvetica,sans-Serif" font-size="10.00">src/calibration/modules</text>
<text text-anchor="middle" x="1296" y="-9" font-family="Helvetica,sans-Serif" font-size="10.00">/CB_Energy.cc</text>
</a>
</g>
<!-- Node12&#45;&gt;Node14 -->
<g id="edge30" class="edge"><title>Node12&#45;&gt;Node14</title>
<path fill="none" stroke="midnightblue" d="M949.896,-71.9578C1074.1,-49.499 1109.04,-59.7141 1229,-36 1231.72,-35.4628 1234.49,-34.8768 1237.28,-34.2551"/>
<polygon fill="midnightblue" stroke="midnightblue" points="949.204,-68.5263 940.004,-73.7808 950.473,-75.4103 949.204,-68.5263"/>
</g>
<!-- Node16 -->
<g id="node35" class="node"><title>Node16</title>
<a xlink:href="_fit_timewalk_8cc.html" target="_top" xlink:title="src/calibration/fitfunctions\l/FitTimewalk.cc">
<polygon fill="white" stroke="black" points="958,-1 958,-35 1086,-35 1086,-1 958,-1"/>
<text text-anchor="start" x="966" y="-22" font-family="Helvetica,sans-Serif" font-size="10.00">src/calibration/fitfunctions</text>
<text text-anchor="middle" x="1022" y="-9" font-family="Helvetica,sans-Serif" font-size="10.00">/FitTimewalk.cc</text>
</a>
</g>
<!-- Node15&#45;&gt;Node16 -->
<g id="edge38" class="edge"><title>Node15&#45;&gt;Node16</title>
<path fill="none" stroke="midnightblue" d="M1022,-62.7193C1022,-53.572 1022,-43.6255 1022,-35.4407"/>
<polygon fill="midnightblue" stroke="midnightblue" points="1018.5,-62.937 1022,-72.937 1025.5,-62.937 1018.5,-62.937"/>
</g>
<!-- Node17 -->
<g id="node37" class="node"><title>Node17</title>
<a xlink:href="_c_b___time_walk_8cc.html" target="_top" xlink:title="src/calibration/modules\l/CB_TimeWalk.cc">
<polygon fill="white" stroke="black" points="1371.5,-1 1371.5,-35 1488.5,-35 1488.5,-1 1371.5,-1"/>
<text text-anchor="start" x="1379.5" y="-22" font-family="Helvetica,sans-Serif" font-size="10.00">src/calibration/modules</text>
<text text-anchor="middle" x="1430" y="-9" font-family="Helvetica,sans-Serif" font-size="10.00">/CB_TimeWalk.cc</text>
</a>
</g>
<!-- Node15&#45;&gt;Node17 -->
<g id="edge40" class="edge"><title>Node15&#45;&gt;Node17</title>
<path fill="none" stroke="midnightblue" d="M1096.12,-80.558C1165.47,-71.1815 1271.78,-55.4196 1363,-36 1365.71,-35.4232 1368.47,-34.8047 1371.26,-34.1567"/>
<polygon fill="midnightblue" stroke="midnightblue" points="1095.61,-77.0954 1086.16,-81.8948 1096.54,-84.0332 1095.61,-77.0954"/>
</g>
<!-- Node18&#45;&gt;Node5 -->
<g id="edge56" class="edge"><title>Node18&#45;&gt;Node5</title>
<path fill="none" stroke="midnightblue" d="M1373.46,-74.8112C1328.63,-62.7674 1266.19,-45.9907 1220.78,-33.7924"/>
<polygon fill="midnightblue" stroke="midnightblue" points="1372.75,-78.2441 1383.32,-77.4586 1374.57,-71.4838 1372.75,-78.2441"/>
</g>
<!-- Node18&#45;&gt;Node10 -->
<g id="edge54" class="edge"><title>Node18&#45;&gt;Node10</title>
<path fill="none" stroke="midnightblue" d="M1373.12,-86.3933C1240.12,-77.7504 911.826,-55.1501 803,-36 800.272,-35.5199 797.493,-34.9808 794.694,-34.3971"/>
<polygon fill="midnightblue" stroke="midnightblue" points="1373.28,-89.911 1383.49,-87.0644 1373.74,-82.9257 1373.28,-89.911"/>
</g>
<!-- Node18&#45;&gt;Node14 -->
<g id="edge50" class="edge"><title>Node18&#45;&gt;Node14</title>
<path fill="none" stroke="midnightblue" d="M1389.21,-68.0832C1369.56,-57.5254 1346.34,-45.049 1327.99,-35.19"/>
<polygon fill="midnightblue" stroke="midnightblue" points="1387.78,-71.2869 1398.24,-72.937 1391.09,-65.1207 1387.78,-71.2869"/>
</g>
<!-- Node18&#45;&gt;Node17 -->
<g id="edge52" class="edge"><title>Node18&#45;&gt;Node17</title>
<path fill="none" stroke="midnightblue" d="M1430,-62.7193C1430,-53.572 1430,-43.6255 1430,-35.4407"/>
<polygon fill="midnightblue" stroke="midnightblue" points="1426.5,-62.937 1430,-72.937 1433.5,-62.937 1426.5,-62.937"/>
</g>
<!-- Node18&#45;&gt;Node19 -->
<g id="edge44" class="edge"><title>Node18&#45;&gt;Node19</title>
<path fill="none" stroke="midnightblue" d="M1486.75,-82.2215C1547.63,-73.3188 1646.93,-57.1893 1731,-36 1733.73,-35.3125 1736.52,-34.56 1739.32,-33.765"/>
<polygon fill="midnightblue" stroke="midnightblue" points="1485.97,-78.7972 1476.58,-83.6936 1486.97,-85.725 1485.97,-78.7972"/>
</g>
<!-- Node20 -->
<g id="node43" class="node"><title>Node20</title>
<a xlink:href="_manager_8cc.html" target="_top" xlink:title="src/calibration/gui\l/Manager.cc">
<polygon fill="white" stroke="black" points="1629.5,-1 1629.5,-35 1722.5,-35 1722.5,-1 1629.5,-1"/>
<text text-anchor="start" x="1637.5" y="-22" font-family="Helvetica,sans-Serif" font-size="10.00">src/calibration/gui</text>
<text text-anchor="middle" x="1676" y="-9" font-family="Helvetica,sans-Serif" font-size="10.00">/Manager.cc</text>
</a>
</g>
<!-- Node18&#45;&gt;Node20 -->
<g id="edge46" class="edge"><title>Node18&#45;&gt;Node20</title>
<path fill="none" stroke="midnightblue" d="M1486.74,-74.61C1524.83,-64.1197 1576.07,-49.6982 1621,-36 1623.69,-35.1797 1626.45,-34.3234 1629.23,-33.449"/>
<polygon fill="midnightblue" stroke="midnightblue" points="1485.58,-71.3007 1476.86,-77.3248 1487.43,-78.0506 1485.58,-71.3007"/>
</g>
<!-- Node21 -->
<g id="node45" class="node"><title>Node21</title>
<a xlink:href="_manager_window_8cc.html" target="_top" xlink:title="src/calibration/gui\l/ManagerWindow.cc">
<polygon fill="white" stroke="black" points="1506,-1 1506,-35 1612,-35 1612,-1 1506,-1"/>
<text text-anchor="start" x="1514" y="-22" font-family="Helvetica,sans-Serif" font-size="10.00">src/calibration/gui</text>
<text text-anchor="middle" x="1559" y="-9" font-family="Helvetica,sans-Serif" font-size="10.00">/ManagerWindow.cc</text>
</a>
</g>
<!-- Node18&#45;&gt;Node21 -->
<g id="edge48" class="edge"><title>Node18&#45;&gt;Node21</title>
<path fill="none" stroke="midnightblue" d="M1469.52,-67.9398C1488.39,-57.4125 1510.62,-45.0044 1528.2,-35.19"/>
<polygon fill="midnightblue" stroke="midnightblue" points="1467.6,-65.0071 1460.57,-72.937 1471.01,-71.1195 1467.6,-65.0071"/>
</g>
<!-- Node18&#45;&gt;Node22 -->
<g id="edge58" class="edge"><title>Node18&#45;&gt;Node22</title>
<path fill="none" stroke="midnightblue" d="M1486.86,-84.9221C1566.53,-77.2648 1715.7,-60.9504 1841,-36 1843.72,-35.459 1846.49,-34.8699 1849.28,-34.2458"/>
<polygon fill="midnightblue" stroke="midnightblue" points="1486.18,-81.4708 1476.55,-85.9011 1486.84,-88.4394 1486.18,-81.4708"/>
</g>
</g>
</svg>
