<?xml version="1.0" encoding="UTF-8" standalone="no"?>
<!DOCTYPE svg PUBLIC "-//W3C//DTD SVG 1.1//EN"
 "http://www.w3.org/Graphics/SVG/1.1/DTD/svg11.dtd">
<!-- Generated by graphviz version 2.26.3 (20100126.1600)
 -->
<!-- Title: src/analysis/physics/omega/GeoAcceptance.h Pages: 1 -->
<svg width="2858pt" height="508pt"
 viewBox="0.00 0.00 2858.24 508.00" xmlns="http://www.w3.org/2000/svg" xmlns:xlink="http://www.w3.org/1999/xlink">
<g id="graph1" class="graph" transform="scale(1 1) rotate(0) translate(4 504)">
<title>src/analysis/physics/omega/GeoAcceptance.h</title>
<polygon fill="white" stroke="white" points="-4,5 -4,-504 2855.24,-504 2855.24,5 -4,5"/>
<!-- Node1 -->
<g id="node1" class="node"><title>Node1</title>
<polygon fill="#bfbfbf" stroke="black" points="566.245,-465 566.245,-499 696.245,-499 696.245,-465 566.245,-465"/>
<text text-anchor="start" x="574.245" y="-486" font-family="Helvetica,sans-Serif" font-size="10.00">src/analysis/physics</text>
<text text-anchor="middle" x="631.245" y="-473" font-family="Helvetica,sans-Serif" font-size="10.00">/omega/GeoAcceptance.h</text>
</g>
<!-- Node2 -->
<g id="node3" class="node"><title>Node2</title>
<a xlink:href="_physics_8h.html" target="_top" xlink:title="analysis/physics/Physics.h">
<polygon fill="white" stroke="black" points="1341.24,-406.5 1341.24,-427.5 1477.24,-427.5 1477.24,-406.5 1341.24,-406.5"/>
<text text-anchor="middle" x="1409.24" y="-414.5" font-family="Helvetica,sans-Serif" font-size="10.00">analysis/physics/Physics.h</text>
</a>
</g>
<!-- Node1&#45;&gt;Node2 -->
<g id="edge2" class="edge"><title>Node1&#45;&gt;Node2</title>
<path fill="none" stroke="midnightblue" d="M696.572,-476.542C839.058,-464.638 1177.28,-436.381 1330.9,-423.545"/>
<polygon fill="midnightblue" stroke="midnightblue" points="1331.52,-427.006 1341.19,-422.685 1330.94,-420.03 1331.52,-427.006"/>
</g>
<!-- Node3 -->
<g id="node5" class="node"><title>Node3</title>
<a xlink:href="_histogram_factories_8h.html" target="_top" xlink:title="analysis/plot/HistogramFactories.h">
<polygon fill="white" stroke="black" points="473.245,-348.5 473.245,-369.5 641.245,-369.5 641.245,-348.5 473.245,-348.5"/>
<text text-anchor="middle" x="557.245" y="-356.5" font-family="Helvetica,sans-Serif" font-size="10.00">analysis/plot/HistogramFactories.h</text>
</a>
</g>
<!-- Node1&#45;&gt;Node3 -->
<g id="edge258" class="edge"><title>Node1&#45;&gt;Node3</title>
<path fill="none" stroke="midnightblue" d="M620.955,-464.897C607.343,-442.271 583.402,-402.477 569.063,-378.643"/>
<polygon fill="midnightblue" stroke="midnightblue" points="571.889,-376.552 563.735,-369.787 565.891,-380.161 571.889,-376.552"/>
</g>
<!-- Node4 -->
<g id="node7" class="node"><title>Node4</title>
<a xlink:href="_histogram_8h.html" target="_top" xlink:title="Histogram.h">
<polygon fill="white" stroke="black" points="445.245,-232.5 445.245,-253.5 515.245,-253.5 515.245,-232.5 445.245,-232.5"/>
<text text-anchor="middle" x="480.245" y="-240.5" font-family="Helvetica,sans-Serif" font-size="10.00">Histogram.h</text>
</a>
</g>
<!-- Node1&#45;&gt;Node4 -->
<g id="edge254" class="edge"><title>Node1&#45;&gt;Node4</title>
<path fill="none" stroke="midnightblue" d="M583.712,-464.916C543.767,-447.726 489.3,-416.973 464.245,-370 445.963,-335.726 460.106,-289.047 470.918,-262.883"/>
<polygon fill="midnightblue" stroke="midnightblue" points="474.167,-264.189 474.964,-253.625 467.752,-261.386 474.167,-264.189"/>
</g>
<!-- Node15 -->
<g id="node30" class="node"><title>Node15</title>
<a xlink:href="_smart_hist_8h.html" target="_top" xlink:title="SmartHist.h">
<polygon fill="white" stroke="black" points="340.745,-290.5 340.745,-311.5 409.745,-311.5 409.745,-290.5 340.745,-290.5"/>
<text text-anchor="middle" x="375.245" y="-298.5" font-family="Helvetica,sans-Serif" font-size="10.00">SmartHist.h</text>
</a>
</g>
<!-- Node1&#45;&gt;Node15 -->
<g id="edge256" class="edge"><title>Node1&#45;&gt;Node15</title>
<path fill="none" stroke="midnightblue" d="M566.033,-470.685C515.773,-460.835 451.537,-445.428 431.245,-428 398.807,-400.141 384.432,-349.885 378.665,-321.666"/>
<polygon fill="midnightblue" stroke="midnightblue" points="382.079,-320.884 376.801,-311.697 375.198,-322.17 382.079,-320.884"/>
</g>
<!-- Node16 -->
<g id="node33" class="node"><title>Node16</title>
<a xlink:href="root__draw_8h.html" target="_top" xlink:title="root_draw.h">
<polygon fill="white" stroke="black" points="798.245,-232.5 798.245,-253.5 866.245,-253.5 866.245,-232.5 798.245,-232.5"/>
<text text-anchor="middle" x="832.245" y="-240.5" font-family="Helvetica,sans-Serif" font-size="10.00">root_draw.h</text>
</a>
</g>
<!-- Node1&#45;&gt;Node16 -->
<g id="edge260" class="edge"><title>Node1&#45;&gt;Node16</title>
<path fill="none" stroke="midnightblue" d="M645.7,-464.812C682.401,-421.172 778.946,-306.375 816.75,-261.424"/>
<polygon fill="midnightblue" stroke="midnightblue" points="819.538,-263.547 823.296,-253.641 814.181,-259.042 819.538,-263.547"/>
</g>
<!-- Node54 -->
<g id="node185" class="node"><title>Node54</title>
<a xlink:href="_a2_geo_acceptance_8h.html" target="_top" xlink:title="analysis/utils/A2GeoAcceptance.h">
<polygon fill="white" stroke="black" points="570.745,-232.5 570.745,-253.5 737.745,-253.5 737.745,-232.5 570.745,-232.5"/>
<text text-anchor="middle" x="654.245" y="-240.5" font-family="Helvetica,sans-Serif" font-size="10.00">analysis/utils/A2GeoAcceptance.h</text>
</a>
</g>
<!-- Node1&#45;&gt;Node54 -->
<g id="edge262" class="edge"><title>Node1&#45;&gt;Node54</title>
<path fill="none" stroke="midnightblue" d="M634.948,-464.64C639.451,-442.709 646.866,-403.754 650.245,-370 653.979,-332.692 654.518,-288.941 654.458,-263.748"/>
<polygon fill="midnightblue" stroke="midnightblue" points="657.957,-263.548 654.398,-253.569 650.958,-263.59 657.957,-263.548"/>
</g>
<!-- Node2&#45;&gt;Node3 -->
<g id="edge4" class="edge"><title>Node2&#45;&gt;Node3</title>
<path fill="none" stroke="midnightblue" d="M1340.96,-412.352C1189.39,-402.033 824.584,-377.199 651.468,-365.414"/>
<polygon fill="midnightblue" stroke="midnightblue" points="651.568,-361.913 641.354,-364.726 651.093,-368.897 651.568,-361.913"/>
</g>
<!-- Node7 -->
<g id="node13" class="node"><title>Node7</title>
<polygon fill="white" stroke="#bfbfbf" points="659.745,-0.5 659.745,-21.5 700.745,-21.5 700.745,-0.5 659.745,-0.5"/>
<text text-anchor="middle" x="680.245" y="-8.5" font-family="Helvetica,sans-Serif" font-size="10.00">string</text>
</g>
<!-- Node2&#45;&gt;Node7 -->
<g id="edge246" class="edge"><title>Node2&#45;&gt;Node7</title>
<path fill="none" stroke="midnightblue" d="M1341.12,-407.033C1197.79,-384.831 871.489,-327.428 789.245,-254 753.669,-222.238 704.651,-83.8763 686.955,-31.3378"/>
<polygon fill="midnightblue" stroke="midnightblue" points="690.245,-30.1407 683.758,-21.764 683.605,-32.3578 690.245,-30.1407"/>
</g>
<!-- Node17 -->
<g id="node36" class="node"><title>Node17</title>
<polygon fill="white" stroke="#bfbfbf" points="1493.74,-116.5 1493.74,-137.5 1522.74,-137.5 1522.74,-116.5 1493.74,-116.5"/>
<text text-anchor="middle" x="1508.24" y="-124.5" font-family="Helvetica,sans-Serif" font-size="10.00">list</text>
</g>
<!-- Node2&#45;&gt;Node17 -->
<g id="edge244" class="edge"><title>Node2&#45;&gt;Node17</title>
<path fill="none" stroke="midnightblue" d="M1449.52,-406.446C1476.05,-398.547 1510.97,-386.301 1539.24,-370 1598.98,-335.565 1624.18,-320.538 1642.24,-254 1652.41,-216.546 1636.02,-200.041 1607.24,-174 1585.54,-154.362 1554.18,-141.354 1532.6,-134.099"/>
<polygon fill="midnightblue" stroke="midnightblue" points="1533.46,-130.702 1522.87,-130.996 1531.34,-137.371 1533.46,-130.702"/>
</g>
<!-- Node18 -->
<g id="node39" class="node"><title>Node18</title>
<polygon fill="white" stroke="#bfbfbf" points="1379.74,-174.5 1379.74,-195.5 1414.74,-195.5 1414.74,-174.5 1379.74,-174.5"/>
<text text-anchor="middle" x="1397.24" y="-182.5" font-family="Helvetica,sans-Serif" font-size="10.00">map</text>
</g>
<!-- Node2&#45;&gt;Node18 -->
<g id="edge248" class="edge"><title>Node2&#45;&gt;Node18</title>
<path fill="none" stroke="midnightblue" d="M1407.33,-406.178C1402.5,-377.71 1390.43,-298.35 1393.24,-232 1393.61,-223.45 1394.34,-214.049 1395.08,-205.916"/>
<polygon fill="midnightblue" stroke="midnightblue" points="1398.58,-206.102 1396.06,-195.811 1391.61,-205.426 1398.58,-206.102"/>
</g>
<!-- Node19 -->
<g id="node41" class="node"><title>Node19</title>
<polygon fill="white" stroke="#bfbfbf" points="1546.24,-174.5 1546.24,-195.5 1598.24,-195.5 1598.24,-174.5 1546.24,-174.5"/>
<text text-anchor="middle" x="1572.24" y="-182.5" font-family="Helvetica,sans-Serif" font-size="10.00">memory</text>
</g>
<!-- Node2&#45;&gt;Node19 -->
<g id="edge250" class="edge"><title>Node2&#45;&gt;Node19</title>
<path fill="none" stroke="midnightblue" d="M1436.45,-406.419C1485.37,-385.716 1586.82,-334.702 1627.24,-254 1637.15,-234.225 1618.39,-214.809 1600.15,-201.637"/>
<polygon fill="midnightblue" stroke="midnightblue" points="1601.6,-198.398 1591.36,-195.697 1597.68,-204.197 1601.6,-198.398"/>
</g>
<!-- Node20 -->
<g id="node43" class="node"><title>Node20</title>
<polygon fill="white" stroke="#bfbfbf" points="935.745,-174.5 935.745,-195.5 994.745,-195.5 994.745,-174.5 935.745,-174.5"/>
<text text-anchor="middle" x="965.245" y="-182.5" font-family="Helvetica,sans-Serif" font-size="10.00">functional</text>
</g>
<!-- Node2&#45;&gt;Node20 -->
<g id="edge252" class="edge"><title>Node2&#45;&gt;Node20</title>
<path fill="none" stroke="midnightblue" d="M1362.25,-406.414C1259,-382.138 1017.69,-319.488 969.245,-254 959.122,-240.317 958.989,-220.614 960.883,-205.763"/>
<polygon fill="midnightblue" stroke="midnightblue" points="964.396,-205.972 962.595,-195.531 957.492,-204.817 964.396,-205.972"/>
</g>
<!-- Node40 -->
<g id="node115" class="node"><title>Node40</title>
<a xlink:href="_event_8h.html" target="_top" xlink:title="analysis/data/Event.h">
<polygon fill="white" stroke="black" points="1838.74,-348.5 1838.74,-369.5 1949.74,-369.5 1949.74,-348.5 1838.74,-348.5"/>
<text text-anchor="middle" x="1894.24" y="-356.5" font-family="Helvetica,sans-Serif" font-size="10.00">analysis/data/Event.h</text>
</a>
</g>
<!-- Node2&#45;&gt;Node40 -->
<g id="edge150" class="edge"><title>Node2&#45;&gt;Node40</title>
<path fill="none" stroke="midnightblue" d="M1477.45,-408.844C1570.62,-397.701 1736.59,-377.854 1828.47,-366.865"/>
<polygon fill="midnightblue" stroke="midnightblue" points="1828.97,-370.331 1838.49,-365.668 1828.14,-363.38 1828.97,-370.331"/>
</g>
<!-- Node52 -->
<g id="node167" class="node"><title>Node52</title>
<a xlink:href="_slowcontrol_8h.html" target="_top" xlink:title="analysis/data/Slowcontrol.h">
<polygon fill="white" stroke="black" points="2713.74,-116.5 2713.74,-137.5 2850.74,-137.5 2850.74,-116.5 2713.74,-116.5"/>
<text text-anchor="middle" x="2782.24" y="-124.5" font-family="Helvetica,sans-Serif" font-size="10.00">analysis/data/Slowcontrol.h</text>
</a>
</g>
<!-- Node2&#45;&gt;Node52 -->
<g id="edge230" class="edge"><title>Node2&#45;&gt;Node52</title>
<path fill="none" stroke="midnightblue" d="M1477.28,-414.732C1750.49,-405.185 2753.24,-365.735 2753.24,-301 2753.24,-301 2753.24,-301 2753.24,-243 2753.24,-208.592 2765.4,-170.112 2773.97,-147.257"/>
<polygon fill="midnightblue" stroke="midnightblue" points="2777.35,-148.24 2777.71,-137.652 2770.82,-145.7 2777.35,-148.24"/>
</g>
<!-- Node53 -->
<g id="node171" class="node"><title>Node53</title>
<a xlink:href="_options_list_8h.html" target="_top" xlink:title="base/OptionsList.h">
<polygon fill="white" stroke="black" points="1418.24,-232.5 1418.24,-253.5 1516.24,-253.5 1516.24,-232.5 1418.24,-232.5"/>
<text text-anchor="middle" x="1467.24" y="-240.5" font-family="Helvetica,sans-Serif" font-size="10.00">base/OptionsList.h</text>
</a>
</g>
<!-- Node2&#45;&gt;Node53 -->
<g id="edge236" class="edge"><title>Node2&#45;&gt;Node53</title>
<path fill="none" stroke="midnightblue" d="M1412.79,-406.377C1422.19,-378.172 1447.91,-301.012 1460.34,-263.72"/>
<polygon fill="midnightblue" stroke="midnightblue" points="1463.76,-264.521 1463.6,-253.928 1457.12,-262.308 1463.76,-264.521"/>
</g>
<!-- Node3&#45;&gt;Node4 -->
<g id="edge6" class="edge"><title>Node3&#45;&gt;Node4</title>
<path fill="none" stroke="midnightblue" d="M550.139,-348.295C537.132,-328.7 509.332,-286.82 492.984,-262.191"/>
<polygon fill="midnightblue" stroke="midnightblue" points="495.78,-260.075 487.334,-253.679 489.948,-263.946 495.78,-260.075"/>
</g>
<!-- Node3&#45;&gt;Node7 -->
<g id="edge148" class="edge"><title>Node3&#45;&gt;Node7</title>
<path fill="none" stroke="midnightblue" d="M554.814,-348.446C547.349,-313.935 526.921,-201.726 555.245,-116 565.069,-86.2672 572.038,-79.0234 595.245,-58 611.483,-43.2894 633.136,-31.4037 650.523,-23.265"/>
<polygon fill="midnightblue" stroke="midnightblue" points="652.004,-26.4362 659.682,-19.1349 649.127,-20.055 652.004,-26.4362"/>
</g>
<!-- Node3&#45;&gt;Node15 -->
<g id="edge30" class="edge"><title>Node3&#45;&gt;Node15</title>
<path fill="none" stroke="midnightblue" d="M524.286,-348.497C494.487,-339 450.436,-324.962 417.948,-314.609"/>
<polygon fill="midnightblue" stroke="midnightblue" points="418.856,-311.225 408.265,-311.523 416.731,-317.894 418.856,-311.225"/>
</g>
<!-- Node28 -->
<g id="node63" class="node"><title>Node28</title>
<a xlink:href="_particle_8h.html" target="_top" xlink:title="analysis/data/Particle.h">
<polygon fill="white" stroke="black" points="1205.74,-290.5 1205.74,-311.5 1324.74,-311.5 1324.74,-290.5 1205.74,-290.5"/>
<text text-anchor="middle" x="1265.24" y="-298.5" font-family="Helvetica,sans-Serif" font-size="10.00">analysis/data/Particle.h</text>
</a>
</g>
<!-- Node3&#45;&gt;Node28 -->
<g id="edge70" class="edge"><title>Node3&#45;&gt;Node28</title>
<path fill="none" stroke="midnightblue" d="M641.592,-352.09C782.786,-340.523 1064.36,-317.456 1195.3,-306.73"/>
<polygon fill="midnightblue" stroke="midnightblue" points="1195.92,-310.191 1205.6,-305.886 1195.34,-303.215 1195.92,-310.191"/>
</g>
<!-- Node5 -->
<g id="node9" class="node"><title>Node5</title>
<polygon fill="white" stroke="#bfbfbf" points="354.245,-174.5 354.245,-195.5 408.245,-195.5 408.245,-174.5 354.245,-174.5"/>
<text text-anchor="middle" x="381.245" y="-182.5" font-family="Helvetica,sans-Serif" font-size="10.00">TColor.h</text>
</g>
<!-- Node4&#45;&gt;Node5 -->
<g id="edge8" class="edge"><title>Node4&#45;&gt;Node5</title>
<path fill="none" stroke="midnightblue" d="M462.087,-232.362C447.015,-223.532 425.358,-210.844 408.252,-200.822"/>
<polygon fill="midnightblue" stroke="midnightblue" points="409.685,-197.606 399.288,-195.571 406.147,-203.646 409.685,-197.606"/>
</g>
<!-- Node6 -->
<g id="node11" class="node"><title>Node6</title>
<polygon fill="white" stroke="#bfbfbf" points="1702.24,-0.5 1702.24,-21.5 1746.24,-21.5 1746.24,-0.5 1702.24,-0.5"/>
<text text-anchor="middle" x="1724.24" y="-8.5" font-family="Helvetica,sans-Serif" font-size="10.00">vector</text>
</g>
<!-- Node4&#45;&gt;Node6 -->
<g id="edge10" class="edge"><title>Node4&#45;&gt;Node6</title>
<path fill="none" stroke="midnightblue" d="M487.317,-232.238C504.479,-207.103 551.083,-144.516 607.245,-116 756.836,-40.0448 813.465,-76.1964 980.245,-58 1254.56,-28.0715 1588,-15.3942 1691.82,-11.9921"/>
<polygon fill="midnightblue" stroke="midnightblue" points="1692.08,-15.4855 1701.97,-11.6654 1691.86,-8.4891 1692.08,-15.4855"/>
</g>
<!-- Node4&#45;&gt;Node7 -->
<g id="edge12" class="edge"><title>Node4&#45;&gt;Node7</title>
<path fill="none" stroke="midnightblue" d="M474.165,-232.203C469.312,-222.929 462.903,-209.033 460.245,-196 449.441,-143.02 492.012,-63.8472 498.245,-58 519.994,-37.5969 603.451,-22.3711 649.422,-15.3294"/>
<polygon fill="midnightblue" stroke="midnightblue" points="650.062,-18.7727 659.435,-13.8342 649.028,-11.8494 650.062,-18.7727"/>
</g>
<!-- Node8 -->
<g id="node15" class="node"><title>Node8</title>
<a xlink:href="interval_8h.html" target="_top" xlink:title="base/interval.h">
<polygon fill="white" stroke="black" points="578.245,-174.5 578.245,-195.5 658.245,-195.5 658.245,-174.5 578.245,-174.5"/>
<text text-anchor="middle" x="618.245" y="-182.5" font-family="Helvetica,sans-Serif" font-size="10.00">base/interval.h</text>
</a>
</g>
<!-- Node4&#45;&gt;Node8 -->
<g id="edge14" class="edge"><title>Node4&#45;&gt;Node8</title>
<path fill="none" stroke="midnightblue" d="M505.236,-232.497C527.178,-223.275 559.311,-209.769 583.708,-199.515"/>
<polygon fill="midnightblue" stroke="midnightblue" points="585.111,-202.722 592.974,-195.621 582.399,-196.269 585.111,-202.722"/>
</g>
<!-- Node9 -->
<g id="node17" class="node"><title>Node9</title>
<polygon fill="white" stroke="#bfbfbf" points="1146.24,-0.5 1146.24,-21.5 1202.24,-21.5 1202.24,-0.5 1146.24,-0.5"/>
<text text-anchor="middle" x="1174.24" y="-8.5" font-family="Helvetica,sans-Serif" font-size="10.00">algorithm</text>
</g>
<!-- Node8&#45;&gt;Node9 -->
<g id="edge16" class="edge"><title>Node8&#45;&gt;Node9</title>
<path fill="none" stroke="midnightblue" d="M630.764,-174.219C660.777,-149.043 740.155,-86.3734 818.245,-58 876.073,-36.9884 1056.37,-20.4366 1135.9,-13.9588"/>
<polygon fill="midnightblue" stroke="midnightblue" points="1136.29,-17.4384 1145.98,-13.1477 1135.73,-10.4609 1136.29,-17.4384"/>
</g>
<!-- Node10 -->
<g id="node19" class="node"><title>Node10</title>
<polygon fill="white" stroke="#bfbfbf" points="1637.74,-58.5 1637.74,-79.5 1696.74,-79.5 1696.74,-58.5 1637.74,-58.5"/>
<text text-anchor="middle" x="1667.24" y="-66.5" font-family="Helvetica,sans-Serif" font-size="10.00">stdexcept</text>
</g>
<!-- Node8&#45;&gt;Node10 -->
<g id="edge18" class="edge"><title>Node8&#45;&gt;Node10</title>
<path fill="none" stroke="midnightblue" d="M658.284,-175.628C661.309,-175.038 664.321,-174.486 667.245,-174 1074.44,-106.275 1181.31,-128.409 1591.24,-80 1603.12,-78.5973 1616.01,-76.8267 1627.74,-75.1184"/>
<polygon fill="midnightblue" stroke="midnightblue" points="1628.32,-78.5713 1637.7,-73.644 1627.29,-71.6468 1628.32,-78.5713"/>
</g>
<!-- Node11 -->
<g id="node21" class="node"><title>Node11</title>
<a xlink:href="printable_8h.html" target="_top" xlink:title="printable.h">
<polygon fill="white" stroke="black" points="1978.24,-58.5 1978.24,-79.5 2040.24,-79.5 2040.24,-58.5 1978.24,-58.5"/>
<text text-anchor="middle" x="2009.24" y="-66.5" font-family="Helvetica,sans-Serif" font-size="10.00">printable.h</text>
</a>
</g>
<!-- Node8&#45;&gt;Node11 -->
<g id="edge20" class="edge"><title>Node8&#45;&gt;Node11</title>
<path fill="none" stroke="midnightblue" d="M658.274,-175.564C661.301,-174.989 664.316,-174.458 667.245,-174 844.034,-146.343 890.164,-155.502 1068.24,-138 1159.88,-128.994 1182.5,-123.829 1274.24,-116 1343.3,-110.107 1822.64,-80.4807 1967.73,-71.5511"/>
<polygon fill="midnightblue" stroke="midnightblue" points="1968.21,-75.0279 1977.98,-70.9203 1967.78,-68.0411 1968.21,-75.0279"/>
</g>
<!-- Node13 -->
<g id="node26" class="node"><title>Node13</title>
<a xlink:href="types_8h.html" target="_top" xlink:title="types.h">
<polygon fill="white" stroke="black" points="1873.74,-116.5 1873.74,-137.5 1922.74,-137.5 1922.74,-116.5 1873.74,-116.5"/>
<text text-anchor="middle" x="1898.24" y="-124.5" font-family="Helvetica,sans-Serif" font-size="10.00">types.h</text>
</a>
</g>
<!-- Node8&#45;&gt;Node13 -->
<g id="edge26" class="edge"><title>Node8&#45;&gt;Node13</title>
<path fill="none" stroke="midnightblue" d="M658.247,-175.37C661.28,-174.84 664.304,-174.372 667.245,-174 1178.96,-109.218 1313.64,-185.575 1827.24,-138 1839.13,-136.899 1852.05,-135.084 1863.58,-133.242"/>
<polygon fill="midnightblue" stroke="midnightblue" points="1864.4,-136.653 1873.69,-131.564 1863.26,-129.748 1864.4,-136.653"/>
</g>
<!-- Node14 -->
<g id="node28" class="node"><title>Node14</title>
<polygon fill="white" stroke="#bfbfbf" points="616.245,-116.5 616.245,-137.5 656.245,-137.5 656.245,-116.5 616.245,-116.5"/>
<text text-anchor="middle" x="636.245" y="-124.5" font-family="Helvetica,sans-Serif" font-size="10.00">limits</text>
</g>
<!-- Node8&#45;&gt;Node14 -->
<g id="edge28" class="edge"><title>Node8&#45;&gt;Node14</title>
<path fill="none" stroke="midnightblue" d="M621.546,-174.362C623.906,-166.758 627.154,-156.294 629.996,-147.135"/>
<polygon fill="midnightblue" stroke="midnightblue" points="633.343,-148.159 632.964,-137.571 626.657,-146.084 633.343,-148.159"/>
</g>
<!-- Node11&#45;&gt;Node6 -->
<g id="edge22" class="edge"><title>Node11&#45;&gt;Node6</title>
<path fill="none" stroke="midnightblue" d="M1978.2,-62.6826C1923.72,-51.5945 1811.44,-28.7445 1756.27,-17.517"/>
<polygon fill="midnightblue" stroke="midnightblue" points="1756.84,-14.0618 1746.34,-15.4973 1755.44,-20.9212 1756.84,-14.0618"/>
</g>
<!-- Node12 -->
<g id="node24" class="node"><title>Node12</title>
<polygon fill="white" stroke="#bfbfbf" points="1924.24,-0.5 1924.24,-21.5 1976.24,-21.5 1976.24,-0.5 1924.24,-0.5"/>
<text text-anchor="middle" x="1950.24" y="-8.5" font-family="Helvetica,sans-Serif" font-size="10.00">ostream</text>
</g>
<!-- Node11&#45;&gt;Node12 -->
<g id="edge24" class="edge"><title>Node11&#45;&gt;Node12</title>
<path fill="none" stroke="midnightblue" d="M1998.42,-58.3619C1990.02,-50.1043 1978.19,-38.4725 1968.35,-28.8029"/>
<polygon fill="midnightblue" stroke="midnightblue" points="1970.58,-26.0851 1961,-21.5707 1965.68,-31.077 1970.58,-26.0851"/>
</g>
<!-- Node15&#45;&gt;Node4 -->
<g id="edge32" class="edge"><title>Node15&#45;&gt;Node4</title>
<path fill="none" stroke="midnightblue" d="M394.503,-290.362C410.711,-281.409 434.098,-268.491 452.354,-258.406"/>
<polygon fill="midnightblue" stroke="midnightblue" points="454.047,-261.47 461.108,-253.571 450.663,-255.342 454.047,-261.47"/>
</g>
<!-- Node15&#45;&gt;Node7 -->
<g id="edge64" class="edge"><title>Node15&#45;&gt;Node7</title>
<path fill="none" stroke="midnightblue" d="M340.524,-298.572C255.902,-292.351 44.1768,-274.857 20.2448,-254 -3.7344,-233.101 1.2448,-216.808 1.2448,-185 1.2448,-185 1.2448,-185 1.2448,-127 1.2448,-60.3342 516.387,-21.7964 649.272,-12.9643"/>
<polygon fill="midnightblue" stroke="midnightblue" points="649.804,-16.4371 659.553,-12.2899 649.345,-9.45208 649.804,-16.4371"/>
</g>
<!-- Node15&#45;&gt;Node16 -->
<g id="edge34" class="edge"><title>Node15&#45;&gt;Node16</title>
<path fill="none" stroke="midnightblue" d="M409.772,-296.64C475.346,-288.356 622.427,-269.762 746.245,-254 759.809,-252.273 774.576,-250.387 787.984,-248.672"/>
<polygon fill="midnightblue" stroke="midnightblue" points="788.456,-252.14 797.93,-247.399 787.567,-245.197 788.456,-252.14"/>
</g>
<!-- Node15&#45;&gt;Node19 -->
<g id="edge62" class="edge"><title>Node15&#45;&gt;Node19</title>
<path fill="none" stroke="midnightblue" d="M410.004,-299.365C491.648,-295.17 701.856,-282.304 875.245,-254 917.591,-247.087 926.845,-238.575 969.245,-232 997.35,-227.642 1409.89,-196.989 1535.94,-187.677"/>
<polygon fill="midnightblue" stroke="midnightblue" points="1536.5,-191.145 1546.21,-186.918 1535.98,-184.164 1536.5,-191.145"/>
</g>
<!-- Node22 -->
<g id="node47" class="node"><title>Node22</title>
<a xlink:href="memory_8h.html" target="_top" xlink:title="base/std_ext/memory.h">
<polygon fill="white" stroke="black" points="308.745,-232.5 308.745,-253.5 427.745,-253.5 427.745,-232.5 308.745,-232.5"/>
<text text-anchor="middle" x="368.245" y="-240.5" font-family="Helvetica,sans-Serif" font-size="10.00">base/std_ext/memory.h</text>
</a>
</g>
<!-- Node15&#45;&gt;Node22 -->
<g id="edge50" class="edge"><title>Node15&#45;&gt;Node22</title>
<path fill="none" stroke="midnightblue" d="M373.961,-290.362C373.063,-282.922 371.834,-272.743 370.746,-263.728"/>
<polygon fill="midnightblue" stroke="midnightblue" points="374.194,-263.079 369.521,-253.571 367.244,-263.918 374.194,-263.079"/>
</g>
<!-- Node23 -->
<g id="node51" class="node"><title>Node23</title>
<polygon fill="white" stroke="#bfbfbf" points="28.7448,-232.5 28.7448,-253.5 79.7448,-253.5 79.7448,-232.5 28.7448,-232.5"/>
<text text-anchor="middle" x="54.2448" y="-240.5" font-family="Helvetica,sans-Serif" font-size="10.00">TH1D.h</text>
</g>
<!-- Node15&#45;&gt;Node23 -->
<g id="edge56" class="edge"><title>Node15&#45;&gt;Node23</title>
<path fill="none" stroke="midnightblue" d="M340.449,-297.02C287.921,-290.64 185.163,-276.714 89.5682,-254.07"/>
<polygon fill="midnightblue" stroke="midnightblue" points="90.2881,-250.643 79.7467,-251.706 88.65,-257.449 90.2881,-250.643"/>
</g>
<!-- Node24 -->
<g id="node53" class="node"><title>Node24</title>
<polygon fill="white" stroke="#bfbfbf" points="96.7448,-232.5 96.7448,-253.5 147.745,-253.5 147.745,-232.5 96.7448,-232.5"/>
<text text-anchor="middle" x="122.245" y="-240.5" font-family="Helvetica,sans-Serif" font-size="10.00">TH2D.h</text>
</g>
<!-- Node15&#45;&gt;Node24 -->
<g id="edge58" class="edge"><title>Node15&#45;&gt;Node24</title>
<path fill="none" stroke="midnightblue" d="M340.469,-294.668C299.003,-286.87 227.454,-272.637 157.621,-254.198"/>
<polygon fill="midnightblue" stroke="midnightblue" points="158.346,-250.77 147.782,-251.569 156.539,-257.532 158.346,-250.77"/>
</g>
<!-- Node25 -->
<g id="node55" class="node"><title>Node25</title>
<polygon fill="white" stroke="#bfbfbf" points="164.745,-232.5 164.745,-253.5 215.745,-253.5 215.745,-232.5 164.745,-232.5"/>
<text text-anchor="middle" x="190.245" y="-240.5" font-family="Helvetica,sans-Serif" font-size="10.00">TH3D.h</text>
</g>
<!-- Node15&#45;&gt;Node25 -->
<g id="edge60" class="edge"><title>Node15&#45;&gt;Node25</title>
<path fill="none" stroke="midnightblue" d="M341.027,-290.469C312.434,-281.642 270.34,-268.586 225.468,-254.37"/>
<polygon fill="midnightblue" stroke="midnightblue" points="226.445,-251.008 215.855,-251.319 224.328,-257.68 226.445,-251.008"/>
</g>
<!-- Node26 -->
<g id="node59" class="node"><title>Node26</title>
<polygon fill="white" stroke="#bfbfbf" points="978.245,-232.5 978.245,-253.5 1032.24,-253.5 1032.24,-232.5 978.245,-232.5"/>
<text text-anchor="middle" x="1005.24" y="-240.5" font-family="Helvetica,sans-Serif" font-size="10.00">iostream</text>
</g>
<!-- Node15&#45;&gt;Node26 -->
<g id="edge66" class="edge"><title>Node15&#45;&gt;Node26</title>
<path fill="none" stroke="midnightblue" d="M410.042,-300.434C501.51,-298.47 756.003,-289.933 964.245,-254 965.511,-253.781 966.795,-253.542 968.089,-253.285"/>
<polygon fill="midnightblue" stroke="midnightblue" points="969.067,-256.652 978.052,-251.038 967.527,-249.823 969.067,-256.652"/>
</g>
<!-- Node27 -->
<g id="node61" class="node"><title>Node27</title>
<polygon fill="white" stroke="#bfbfbf" points="232.745,-232.5 232.745,-253.5 291.745,-253.5 291.745,-232.5 232.745,-232.5"/>
<text text-anchor="middle" x="262.245" y="-240.5" font-family="Helvetica,sans-Serif" font-size="10.00">exception</text>
</g>
<!-- Node15&#45;&gt;Node27 -->
<g id="edge68" class="edge"><title>Node15&#45;&gt;Node27</title>
<path fill="none" stroke="midnightblue" d="M354.781,-290.497C337.212,-281.479 311.663,-268.365 291.86,-258.201"/>
<polygon fill="midnightblue" stroke="midnightblue" points="293.433,-255.074 282.938,-253.621 290.236,-261.301 293.433,-255.074"/>
</g>
<!-- Node16&#45;&gt;Node6 -->
<g id="edge40" class="edge"><title>Node16&#45;&gt;Node6</title>
<path fill="none" stroke="midnightblue" d="M834.817,-232.108C838.708,-217.517 847.273,-191.446 862.245,-174 925.202,-100.638 954.355,-88.0293 1046.24,-58 1168.46,-18.0599 1573.99,-12.0604 1691.86,-11.1592"/>
<polygon fill="midnightblue" stroke="midnightblue" points="1692.06,-14.658 1702.04,-11.0889 1692.01,-7.65818 1692.06,-14.658"/>
</g>
<!-- Node16&#45;&gt;Node7 -->
<g id="edge36" class="edge"><title>Node16&#45;&gt;Node7</title>
<path fill="none" stroke="midnightblue" d="M798.208,-238.096C728.753,-227.928 576.586,-204.769 569.245,-196 522.15,-139.743 612.108,-61.2688 656.96,-27.5108"/>
<polygon fill="midnightblue" stroke="midnightblue" points="659.055,-30.3145 665.021,-21.559 654.897,-24.6831 659.055,-30.3145"/>
</g>
<!-- Node16&#45;&gt;Node17 -->
<g id="edge38" class="edge"><title>Node16&#45;&gt;Node17</title>
<path fill="none" stroke="midnightblue" d="M838.2,-232.283C847.706,-216.361 867.95,-186.949 894.245,-174 947.798,-147.628 1375.26,-131.498 1483.44,-127.812"/>
<polygon fill="midnightblue" stroke="midnightblue" points="1483.82,-131.301 1493.69,-127.467 1483.58,-124.305 1483.82,-131.301"/>
</g>
<!-- Node16&#45;&gt;Node18 -->
<g id="edge42" class="edge"><title>Node16&#45;&gt;Node18</title>
<path fill="none" stroke="midnightblue" d="M866.435,-239.351C886.723,-237.194 912.949,-234.42 936.245,-232 1100.65,-214.925 1298.09,-194.985 1369.65,-187.776"/>
<polygon fill="midnightblue" stroke="midnightblue" points="1370.06,-191.253 1379.66,-186.769 1369.36,-184.289 1370.06,-191.253"/>
</g>
<!-- Node16&#45;&gt;Node19 -->
<g id="edge44" class="edge"><title>Node16&#45;&gt;Node19</title>
<path fill="none" stroke="midnightblue" d="M866.412,-239.111C886.692,-236.872 912.917,-234.095 936.245,-232 938.13,-231.831 1401.49,-197.61 1536.02,-187.675"/>
<polygon fill="midnightblue" stroke="midnightblue" points="1536.5,-191.149 1546.21,-186.922 1535.98,-184.168 1536.5,-191.149"/>
</g>
<!-- Node16&#45;&gt;Node20 -->
<g id="edge46" class="edge"><title>Node16&#45;&gt;Node20</title>
<path fill="none" stroke="midnightblue" d="M856.33,-232.497C877.384,-223.315 908.172,-209.889 931.647,-199.652"/>
<polygon fill="midnightblue" stroke="midnightblue" points="933.122,-202.827 940.889,-195.621 930.324,-196.41 933.122,-202.827"/>
</g>
<!-- Node21 -->
<g id="node45" class="node"><title>Node21</title>
<polygon fill="white" stroke="#bfbfbf" points="2054.24,-116.5 2054.24,-137.5 2110.24,-137.5 2110.24,-116.5 2054.24,-116.5"/>
<text text-anchor="middle" x="2082.24" y="-124.5" font-family="Helvetica,sans-Serif" font-size="10.00">Rtypes.h</text>
</g>
<!-- Node16&#45;&gt;Node21 -->
<g id="edge48" class="edge"><title>Node16&#45;&gt;Node21</title>
<path fill="none" stroke="midnightblue" d="M842.411,-232.334C858.587,-216.193 891.979,-186.159 927.245,-174 1032.78,-137.616 1819.78,-144.056 1931.24,-138 1969.63,-135.914 2013.44,-132.621 2043.95,-130.181"/>
<polygon fill="midnightblue" stroke="midnightblue" points="2044.47,-133.651 2054.16,-129.357 2043.91,-126.674 2044.47,-133.651"/>
</g>
<!-- Node22&#45;&gt;Node17 -->
<g id="edge54" class="edge"><title>Node22&#45;&gt;Node17</title>
<path fill="none" stroke="midnightblue" d="M358.804,-232.201C346.877,-217.237 329.676,-190.211 345.245,-174 386.08,-131.481 1319.08,-127.425 1483.58,-127.04"/>
<polygon fill="midnightblue" stroke="midnightblue" points="1483.69,-130.54 1493.68,-127.019 1483.68,-123.54 1483.69,-130.54"/>
</g>
<!-- Node22&#45;&gt;Node19 -->
<g id="edge52" class="edge"><title>Node22&#45;&gt;Node19</title>
<path fill="none" stroke="midnightblue" d="M427.894,-232.922C430.713,-232.581 433.508,-232.27 436.245,-232 873.079,-188.869 984.952,-220.163 1423.24,-196 1461.82,-193.873 1505.94,-190.498 1536.1,-188.047"/>
<polygon fill="midnightblue" stroke="midnightblue" points="1536.48,-191.528 1546.16,-187.222 1535.9,-184.551 1536.48,-191.528"/>
</g>
<!-- Node28&#45;&gt;Node6 -->
<g id="edge140" class="edge"><title>Node28&#45;&gt;Node6</title>
<path fill="none" stroke="midnightblue" d="M1210.11,-290.447C1168.15,-281.536 1114.73,-268.017 1097.24,-254 1070.09,-232.237 1060.24,-219.797 1060.24,-185 1060.24,-185 1060.24,-185 1060.24,-127 1060.24,-61.9803 1126.93,-76.5548 1189.24,-58 1284.41,-29.6639 1591.55,-15.9448 1692.07,-12.1347"/>
<polygon fill="midnightblue" stroke="midnightblue" points="1692.35,-15.6268 1702.22,-11.7575 1692.09,-8.63159 1692.35,-15.6268"/>
</g>
<!-- Node28&#45;&gt;Node11 -->
<g id="edge112" class="edge"><title>Node28&#45;&gt;Node11</title>
<path fill="none" stroke="midnightblue" d="M1265.61,-290.413C1267.08,-265.657 1274.45,-203.829 1311.24,-174 1374.57,-122.669 1405.45,-132.642 1485.24,-116 1577.4,-96.7807 1860.89,-78.0392 1967.84,-71.4673"/>
<polygon fill="midnightblue" stroke="midnightblue" points="1968.15,-74.9548 1977.92,-70.8517 1967.72,-67.9678 1968.15,-74.9548"/>
</g>
<!-- Node28&#45;&gt;Node13 -->
<g id="edge114" class="edge"><title>Node28&#45;&gt;Node13</title>
<path fill="none" stroke="midnightblue" d="M1273.3,-290.426C1295.7,-261.178 1357.91,-180.89 1371.24,-174 1461.55,-127.328 1726.28,-149.79 1827.24,-138 1839.1,-136.615 1852.02,-134.729 1863.54,-132.909"/>
<polygon fill="midnightblue" stroke="midnightblue" points="1864.35,-136.324 1873.66,-131.273 1863.23,-129.413 1864.35,-136.324"/>
</g>
<!-- Node28&#45;&gt;Node17 -->
<g id="edge142" class="edge"><title>Node28&#45;&gt;Node17</title>
<path fill="none" stroke="midnightblue" d="M1268.08,-290.473C1275.29,-265.845 1296.74,-204.276 1338.24,-174 1382.44,-141.757 1447.75,-131.627 1483.18,-128.449"/>
<polygon fill="midnightblue" stroke="midnightblue" points="1483.86,-131.906 1493.56,-127.642 1483.32,-124.927 1483.86,-131.906"/>
</g>
<!-- Node28&#45;&gt;Node19 -->
<g id="edge146" class="edge"><title>Node28&#45;&gt;Node19</title>
<path fill="none" stroke="midnightblue" d="M1324.93,-297.115C1418.92,-290.381 1592.73,-275.203 1611.24,-254 1624.81,-238.467 1609.13,-217.472 1593.79,-202.734"/>
<polygon fill="midnightblue" stroke="midnightblue" points="1595.72,-199.766 1585.96,-195.659 1591.03,-204.96 1595.72,-199.766"/>
</g>
<!-- Node28&#45;&gt;Node26 -->
<g id="edge144" class="edge"><title>Node28&#45;&gt;Node26</title>
<path fill="none" stroke="midnightblue" d="M1212.42,-290.445C1167.95,-281.374 1102.76,-267.636 1046.24,-254 1045,-253.699 1043.73,-253.387 1042.45,-253.069"/>
<polygon fill="midnightblue" stroke="midnightblue" points="1043.1,-249.623 1032.54,-250.53 1041.36,-256.404 1043.1,-249.623"/>
</g>
<!-- Node29 -->
<g id="node65" class="node"><title>Node29</title>
<a xlink:href="_candidate_8h.html" target="_top" xlink:title="analysis/data/Candidate.h">
<polygon fill="white" stroke="black" points="1829.24,-232.5 1829.24,-253.5 1959.24,-253.5 1959.24,-232.5 1829.24,-232.5"/>
<text text-anchor="middle" x="1894.24" y="-240.5" font-family="Helvetica,sans-Serif" font-size="10.00">analysis/data/Candidate.h</text>
</a>
</g>
<!-- Node28&#45;&gt;Node29 -->
<g id="edge72" class="edge"><title>Node28&#45;&gt;Node29</title>
<path fill="none" stroke="midnightblue" d="M1324.99,-295.491C1440.09,-284.878 1692.35,-261.616 1818.82,-249.955"/>
<polygon fill="midnightblue" stroke="midnightblue" points="1819.18,-253.437 1828.82,-249.033 1818.54,-246.466 1819.18,-253.437"/>
</g>
<!-- Node36 -->
<g id="node94" class="node"><title>Node36</title>
<a xlink:href="_particle_type_8h.html" target="_top" xlink:title="base/ParticleType.h">
<polygon fill="white" stroke="black" points="1106.24,-232.5 1106.24,-253.5 1210.24,-253.5 1210.24,-232.5 1106.24,-232.5"/>
<text text-anchor="middle" x="1158.24" y="-240.5" font-family="Helvetica,sans-Serif" font-size="10.00">base/ParticleType.h</text>
</a>
</g>
<!-- Node28&#45;&gt;Node36 -->
<g id="edge116" class="edge"><title>Node28&#45;&gt;Node36</title>
<path fill="none" stroke="midnightblue" d="M1245.62,-290.362C1229.1,-281.409 1205.27,-268.491 1186.67,-258.406"/>
<polygon fill="midnightblue" stroke="midnightblue" points="1188.21,-255.259 1177.75,-253.571 1184.87,-261.413 1188.21,-255.259"/>
</g>
<!-- Node38 -->
<g id="node103" class="node"><title>Node38</title>
<a xlink:href="_tree_8h.html" target="_top" xlink:title="base/Tree.h">
<polygon fill="white" stroke="black" points="1534.24,-232.5 1534.24,-253.5 1602.24,-253.5 1602.24,-232.5 1534.24,-232.5"/>
<text text-anchor="middle" x="1568.24" y="-240.5" font-family="Helvetica,sans-Serif" font-size="10.00">base/Tree.h</text>
</a>
</g>
<!-- Node28&#45;&gt;Node38 -->
<g id="edge130" class="edge"><title>Node28&#45;&gt;Node38</title>
<path fill="none" stroke="midnightblue" d="M1324.86,-291.471C1375.44,-283.102 1450.14,-270.078 1524.08,-254.151"/>
<polygon fill="midnightblue" stroke="midnightblue" points="1525,-257.532 1534.03,-251.988 1523.51,-250.692 1525,-257.532"/>
</g>
<!-- Node39 -->
<g id="node108" class="node"><title>Node39</title>
<polygon fill="white" stroke="#bfbfbf" points="2016.24,-174.5 2016.24,-195.5 2108.24,-195.5 2108.24,-174.5 2016.24,-174.5"/>
<text text-anchor="middle" x="2062.24" y="-182.5" font-family="Helvetica,sans-Serif" font-size="10.00">TLorentzVector.h</text>
</g>
<!-- Node28&#45;&gt;Node39 -->
<g id="edge138" class="edge"><title>Node28&#45;&gt;Node39</title>
<path fill="none" stroke="midnightblue" d="M1324.96,-298.921C1483.8,-293.122 1908.64,-275.757 1968.24,-254 1998.42,-242.984 2027.31,-219.111 2044.91,-202.553"/>
<polygon fill="midnightblue" stroke="midnightblue" points="2047.41,-205.002 2052.16,-195.533 2042.54,-199.972 2047.41,-205.002"/>
</g>
<!-- Node29&#45;&gt;Node6 -->
<g id="edge110" class="edge"><title>Node29&#45;&gt;Node6</title>
<path fill="none" stroke="midnightblue" d="M1891.43,-232.366C1881.93,-197.155 1850.26,-85.0601 1825.24,-58 1806.8,-38.0483 1778.18,-25.8404 1756.11,-18.8856"/>
<polygon fill="midnightblue" stroke="midnightblue" points="1757.08,-15.5203 1746.49,-16.0509 1755.1,-22.2349 1757.08,-15.5203"/>
</g>
<!-- Node29&#45;&gt;Node11 -->
<g id="edge74" class="edge"><title>Node29&#45;&gt;Node11</title>
<path fill="none" stroke="midnightblue" d="M1917.26,-232.42C1932.49,-224.369 1951.86,-211.958 1964.24,-196 1989.22,-163.823 2001.04,-116.663 2006.04,-89.7883"/>
<polygon fill="midnightblue" stroke="midnightblue" points="2009.55,-90.0635 2007.79,-79.6154 2002.65,-88.8789 2009.55,-90.0635"/>
</g>
<!-- Node29&#45;&gt;Node12 -->
<g id="edge106" class="edge"><title>Node29&#45;&gt;Node12</title>
<path fill="none" stroke="midnightblue" d="M1898.71,-232.473C1906.46,-213.787 1922.43,-173.451 1931.24,-138 1940.39,-101.226 1945.76,-57.3 1948.35,-31.9293"/>
<polygon fill="midnightblue" stroke="midnightblue" points="1951.86,-31.9614 1949.34,-21.6706 1944.89,-31.2867 1951.86,-31.9614"/>
</g>
<!-- Node29&#45;&gt;Node13 -->
<g id="edge76" class="edge"><title>Node29&#45;&gt;Node13</title>
<path fill="none" stroke="midnightblue" d="M1894.61,-232.295C1895.27,-213.131 1896.67,-172.654 1897.53,-147.843"/>
<polygon fill="midnightblue" stroke="midnightblue" points="1901.03,-147.794 1897.88,-137.679 1894.03,-147.553 1901.03,-147.794"/>
</g>
<!-- Node29&#45;&gt;Node19 -->
<g id="edge108" class="edge"><title>Node29&#45;&gt;Node19</title>
<path fill="none" stroke="midnightblue" d="M1835.93,-232.497C1769.7,-220.567 1663.68,-201.47 1608.41,-191.514"/>
<polygon fill="midnightblue" stroke="midnightblue" points="1608.84,-188.036 1598.38,-189.708 1607.6,-194.925 1608.84,-188.036"/>
</g>
<!-- Node30 -->
<g id="node69" class="node"><title>Node30</title>
<a xlink:href="_detector__t_8h.html" target="_top" xlink:title="base/Detector_t.h">
<polygon fill="white" stroke="black" points="1615.74,-116.5 1615.74,-137.5 1710.74,-137.5 1710.74,-116.5 1615.74,-116.5"/>
<text text-anchor="middle" x="1663.24" y="-124.5" font-family="Helvetica,sans-Serif" font-size="10.00">base/Detector_t.h</text>
</a>
</g>
<!-- Node29&#45;&gt;Node30 -->
<g id="edge78" class="edge"><title>Node29&#45;&gt;Node30</title>
<path fill="none" stroke="midnightblue" d="M1885.13,-232.311C1871.73,-217.228 1845.23,-189.782 1817.24,-174 1799.53,-164.012 1752.21,-150.195 1714.65,-140.128"/>
<polygon fill="midnightblue" stroke="midnightblue" points="1715.41,-136.708 1704.85,-137.525 1713.61,-143.474 1715.41,-136.708"/>
</g>
<!-- Node31 -->
<g id="node72" class="node"><title>Node31</title>
<polygon fill="white" stroke="#bfbfbf" points="1517.74,-58.5 1517.74,-79.5 1582.74,-79.5 1582.74,-58.5 1517.74,-58.5"/>
<text text-anchor="middle" x="1550.24" y="-66.5" font-family="Helvetica,sans-Serif" font-size="10.00">TVector3.h</text>
</g>
<!-- Node29&#45;&gt;Node31 -->
<g id="edge104" class="edge"><title>Node29&#45;&gt;Node31</title>
<path fill="none" stroke="midnightblue" d="M1829.12,-233.513C1786.68,-226.119 1730.59,-214.035 1683.24,-196 1677.06,-193.645 1583.66,-142.93 1579.24,-138 1566.83,-124.13 1559.23,-104.181 1554.94,-89.2964"/>
<polygon fill="midnightblue" stroke="midnightblue" points="1558.3,-88.3021 1552.39,-79.513 1551.53,-90.0732 1558.3,-88.3021"/>
</g>
<!-- Node34 -->
<g id="node81" class="node"><title>Node34</title>
<a xlink:href="_cluster_8h.html" target="_top" xlink:title="analysis/data/Cluster.h">
<polygon fill="white" stroke="black" points="1691.74,-174.5 1691.74,-195.5 1808.74,-195.5 1808.74,-174.5 1691.74,-174.5"/>
<text text-anchor="middle" x="1750.24" y="-182.5" font-family="Helvetica,sans-Serif" font-size="10.00">analysis/data/Cluster.h</text>
</a>
</g>
<!-- Node29&#45;&gt;Node34 -->
<g id="edge94" class="edge"><title>Node29&#45;&gt;Node34</title>
<path fill="none" stroke="midnightblue" d="M1868.17,-232.497C1845.17,-223.234 1811.44,-209.65 1785.95,-199.379"/>
<polygon fill="midnightblue" stroke="midnightblue" points="1787.2,-196.111 1776.61,-195.621 1784.58,-202.604 1787.2,-196.111"/>
</g>
<!-- Node30&#45;&gt;Node6 -->
<g id="edge92" class="edge"><title>Node30&#45;&gt;Node6</title>
<path fill="none" stroke="midnightblue" d="M1675.61,-116.195C1685.01,-107.343 1697.6,-94.0287 1705.24,-80 1713.41,-65.0209 1718.28,-46.2621 1721.04,-32.0863"/>
<polygon fill="midnightblue" stroke="midnightblue" points="1724.56,-32.313 1722.83,-21.8599 1717.66,-31.1084 1724.56,-32.313"/>
</g>
<!-- Node30&#45;&gt;Node7 -->
<g id="edge88" class="edge"><title>Node30&#45;&gt;Node7</title>
<path fill="none" stroke="midnightblue" d="M1656.11,-116.433C1644.62,-100.426 1620.33,-70.5663 1591.24,-58 1549.98,-40.1728 865.3,-16.9969 710.976,-11.9832"/>
<polygon fill="midnightblue" stroke="midnightblue" points="710.905,-8.47921 700.797,-11.654 710.679,-15.4755 710.905,-8.47921"/>
</g>
<!-- Node30&#45;&gt;Node10 -->
<g id="edge86" class="edge"><title>Node30&#45;&gt;Node10</title>
<path fill="none" stroke="midnightblue" d="M1663.98,-116.362C1664.49,-108.922 1665.19,-98.7427 1665.82,-89.7276"/>
<polygon fill="midnightblue" stroke="midnightblue" points="1669.32,-89.7878 1666.52,-79.5707 1662.34,-89.3061 1669.32,-89.7878"/>
</g>
<!-- Node30&#45;&gt;Node11 -->
<g id="edge80" class="edge"><title>Node30&#45;&gt;Node11</title>
<path fill="none" stroke="midnightblue" d="M1710.88,-117.53C1713.71,-117.003 1716.51,-116.489 1719.24,-116 1807.63,-100.162 1911.59,-83.881 1967.91,-75.2557"/>
<polygon fill="midnightblue" stroke="midnightblue" points="1968.5,-78.7062 1977.86,-73.7361 1967.45,-71.7865 1968.5,-78.7062"/>
</g>
<!-- Node30&#45;&gt;Node31 -->
<g id="edge82" class="edge"><title>Node30&#45;&gt;Node31</title>
<path fill="none" stroke="midnightblue" d="M1642.78,-116.497C1625.21,-107.479 1599.66,-94.3649 1579.86,-84.2006"/>
<polygon fill="midnightblue" stroke="midnightblue" points="1581.43,-81.0738 1570.94,-79.6212 1578.24,-87.3014 1581.43,-81.0738"/>
</g>
<!-- Node32 -->
<g id="node74" class="node"><title>Node32</title>
<polygon fill="white" stroke="#bfbfbf" points="2069.24,-58.5 2069.24,-79.5 2115.24,-79.5 2115.24,-58.5 2069.24,-58.5"/>
<text text-anchor="middle" x="2092.24" y="-66.5" font-family="Helvetica,sans-Serif" font-size="10.00">cstdint</text>
</g>
<!-- Node30&#45;&gt;Node32 -->
<g id="edge84" class="edge"><title>Node30&#45;&gt;Node32</title>
<path fill="none" stroke="midnightblue" d="M1710.86,-117.361C1713.69,-116.876 1716.5,-116.418 1719.24,-116 1865.1,-93.7613 1904.08,-106.348 2049.24,-80 2052.5,-79.4083 2055.88,-78.705 2059.25,-77.9443"/>
<polygon fill="midnightblue" stroke="midnightblue" points="2060.27,-81.2975 2069.17,-75.5442 2058.63,-74.4938 2060.27,-81.2975"/>
</g>
<!-- Node33 -->
<g id="node78" class="node"><title>Node33</title>
<polygon fill="white" stroke="#bfbfbf" points="1754.24,-58.5 1754.24,-79.5 1816.24,-79.5 1816.24,-58.5 1754.24,-58.5"/>
<text text-anchor="middle" x="1785.24" y="-66.5" font-family="Helvetica,sans-Serif" font-size="10.00">type_traits</text>
</g>
<!-- Node30&#45;&gt;Node33 -->
<g id="edge90" class="edge"><title>Node30&#45;&gt;Node33</title>
<path fill="none" stroke="midnightblue" d="M1685.34,-116.497C1704.48,-107.397 1732.39,-94.1273 1753.85,-83.9253"/>
<polygon fill="midnightblue" stroke="midnightblue" points="1755.38,-87.0758 1762.9,-79.6212 1752.37,-80.7539 1755.38,-87.0758"/>
</g>
<!-- Node34&#45;&gt;Node17 -->
<g id="edge98" class="edge"><title>Node34&#45;&gt;Node17</title>
<path fill="none" stroke="midnightblue" d="M1706.42,-174.497C1655.53,-162.3 1573.39,-142.612 1532.7,-132.861"/>
<polygon fill="midnightblue" stroke="midnightblue" points="1533.38,-129.424 1522.84,-130.497 1531.74,-136.231 1533.38,-129.424"/>
</g>
<!-- Node34&#45;&gt;Node30 -->
<g id="edge96" class="edge"><title>Node34&#45;&gt;Node30</title>
<path fill="none" stroke="midnightblue" d="M1734.29,-174.362C1721.29,-165.696 1702.71,-153.313 1687.82,-143.382"/>
<polygon fill="midnightblue" stroke="midnightblue" points="1689.36,-140.206 1679.1,-137.571 1685.48,-146.03 1689.36,-140.206"/>
</g>
<!-- Node34&#45;&gt;Node31 -->
<g id="edge100" class="edge"><title>Node34&#45;&gt;Node31</title>
<path fill="none" stroke="midnightblue" d="M1694.67,-174.447C1666.74,-167.302 1633.36,-155.827 1607.24,-138 1588.22,-125.015 1572.12,-103.933 1561.93,-88.4843"/>
<polygon fill="midnightblue" stroke="midnightblue" points="1564.68,-86.2927 1556.38,-79.7162 1558.77,-90.0374 1564.68,-86.2927"/>
</g>
<!-- Node35 -->
<g id="node86" class="node"><title>Node35</title>
<a xlink:href="enumfield_8h.html" target="_top" xlink:title="base/enumfield.h">
<polygon fill="white" stroke="black" points="1727.74,-116.5 1727.74,-137.5 1818.74,-137.5 1818.74,-116.5 1727.74,-116.5"/>
<text text-anchor="middle" x="1773.24" y="-124.5" font-family="Helvetica,sans-Serif" font-size="10.00">base/enumfield.h</text>
</a>
</g>
<!-- Node34&#45;&gt;Node35 -->
<g id="edge102" class="edge"><title>Node34&#45;&gt;Node35</title>
<path fill="none" stroke="midnightblue" d="M1754.46,-174.362C1757.48,-166.758 1761.63,-156.294 1765.26,-147.135"/>
<polygon fill="midnightblue" stroke="midnightblue" points="1768.62,-148.157 1769.05,-137.571 1762.11,-145.576 1768.62,-148.157"/>
</g>
<!-- Node36&#45;&gt;Node6 -->
<g id="edge128" class="edge"><title>Node36&#45;&gt;Node6</title>
<path fill="none" stroke="midnightblue" d="M1144.62,-232.492C1129.39,-219.366 1107.99,-195.955 1117.24,-174 1145.94,-105.945 1169.24,-89.0798 1236.24,-58 1317.75,-20.1939 1596.7,-12.7791 1692.01,-11.3412"/>
<polygon fill="midnightblue" stroke="midnightblue" points="1692.24,-14.8385 1702.2,-11.2002 1692.15,-7.83917 1692.24,-14.8385"/>
</g>
<!-- Node36&#45;&gt;Node7 -->
<g id="edge120" class="edge"><title>Node36&#45;&gt;Node7</title>
<path fill="none" stroke="midnightblue" d="M1136.46,-232.429C1059.27,-194.962 798.633,-68.4605 710.021,-25.452"/>
<polygon fill="midnightblue" stroke="midnightblue" points="711.324,-22.1941 700.799,-20.9763 708.268,-28.4915 711.324,-22.1941"/>
</g>
<!-- Node36&#45;&gt;Node12 -->
<g id="edge122" class="edge"><title>Node36&#45;&gt;Node12</title>
<path fill="none" stroke="midnightblue" d="M1173.75,-232.399C1207.78,-209.398 1291.99,-153.936 1367.24,-116 1428.12,-85.3141 1443.14,-74.6661 1509.24,-58 1585.82,-38.6942 1822.82,-20.1507 1913.99,-13.5432"/>
<polygon fill="midnightblue" stroke="midnightblue" points="1914.39,-17.0235 1924.12,-12.8152 1913.89,-10.0415 1914.39,-17.0235"/>
</g>
<!-- Node36&#45;&gt;Node13 -->
<g id="edge118" class="edge"><title>Node36&#45;&gt;Node13</title>
<path fill="none" stroke="midnightblue" d="M1179.5,-232.495C1212.54,-216.713 1278.64,-187.315 1338.24,-174 1550.92,-126.492 1610.73,-162.702 1827.24,-138 1839.11,-136.647 1852.02,-134.768 1863.54,-132.946"/>
<polygon fill="midnightblue" stroke="midnightblue" points="1864.36,-136.36 1873.67,-131.305 1863.24,-129.45 1864.36,-136.36"/>
</g>
<!-- Node36&#45;&gt;Node18 -->
<g id="edge124" class="edge"><title>Node36&#45;&gt;Node18</title>
<path fill="none" stroke="midnightblue" d="M1201.53,-232.497C1250.41,-220.635 1328.48,-201.686 1369.7,-191.685"/>
<polygon fill="midnightblue" stroke="midnightblue" points="1370.69,-195.047 1379.58,-189.287 1369.04,-188.244 1370.69,-195.047"/>
</g>
<!-- Node37 -->
<g id="node100" class="node"><title>Node37</title>
<polygon fill="white" stroke="#bfbfbf" points="1125.74,-174.5 1125.74,-195.5 1172.74,-195.5 1172.74,-174.5 1125.74,-174.5"/>
<text text-anchor="middle" x="1149.24" y="-182.5" font-family="Helvetica,sans-Serif" font-size="10.00">iterator</text>
</g>
<!-- Node36&#45;&gt;Node37 -->
<g id="edge126" class="edge"><title>Node36&#45;&gt;Node37</title>
<path fill="none" stroke="midnightblue" d="M1156.59,-232.362C1155.44,-224.922 1153.86,-214.743 1152.46,-205.728"/>
<polygon fill="midnightblue" stroke="midnightblue" points="1155.88,-204.916 1150.89,-195.571 1148.96,-205.989 1155.88,-204.916"/>
</g>
<!-- Node38&#45;&gt;Node9 -->
<g id="edge136" class="edge"><title>Node38&#45;&gt;Node9</title>
<path fill="none" stroke="midnightblue" d="M1551.26,-232.33C1529.39,-218.642 1490.17,-194.25 1456.24,-174 1363.45,-118.613 1252.05,-55.0841 1201.53,-26.435"/>
<polygon fill="midnightblue" stroke="midnightblue" points="1203.25,-23.3868 1192.83,-21.5013 1199.8,-29.4768 1203.25,-23.3868"/>
</g>
<!-- Node38&#45;&gt;Node17 -->
<g id="edge134" class="edge"><title>Node38&#45;&gt;Node17</title>
<path fill="none" stroke="midnightblue" d="M1560.25,-232.151C1553.61,-222.847 1544.15,-208.934 1537.24,-196 1528.76,-180.107 1520.96,-161.188 1515.59,-147.184"/>
<polygon fill="midnightblue" stroke="midnightblue" points="1518.77,-145.702 1511.99,-137.564 1512.22,-148.156 1518.77,-145.702"/>
</g>
<!-- Node38&#45;&gt;Node19 -->
<g id="edge132" class="edge"><title>Node38&#45;&gt;Node19</title>
<path fill="none" stroke="midnightblue" d="M1568.98,-232.362C1569.49,-224.922 1570.19,-214.743 1570.82,-205.728"/>
<polygon fill="midnightblue" stroke="midnightblue" points="1574.32,-205.788 1571.52,-195.571 1567.34,-205.306 1574.32,-205.788"/>
</g>
<!-- Node40&#45;&gt;Node6 -->
<g id="edge224" class="edge"><title>Node40&#45;&gt;Node6</title>
<path fill="none" stroke="midnightblue" d="M1949.94,-356.718C2130.21,-348.6 2686.24,-317.521 2686.24,-243 2686.24,-243 2686.24,-243 2686.24,-127 2686.24,3.32609 2530.04,-77.9168 2401.24,-58 2337.18,-48.0933 1882.9,-20.4827 1756.7,-12.9306"/>
<polygon fill="midnightblue" stroke="midnightblue" points="1756.71,-9.42507 1746.52,-12.3223 1756.29,-16.4126 1756.71,-9.42507"/>
</g>
<!-- Node40&#45;&gt;Node11 -->
<g id="edge220" class="edge"><title>Node40&#45;&gt;Node11</title>
<path fill="none" stroke="midnightblue" d="M1950.09,-356.7C2033,-352.439 2193.18,-340.946 2326.24,-312 2406.31,-294.583 2430.01,-294.484 2501.24,-254 2535.49,-234.54 2550.35,-231.086 2568.24,-196 2584.43,-164.264 2597.54,-142.057 2573.24,-116 2534.28,-74.2055 2116.82,-88.044 2060.24,-80 2057.02,-79.541 2053.69,-78.9935 2050.35,-78.3915"/>
<polygon fill="midnightblue" stroke="midnightblue" points="2050.89,-74.9309 2040.4,-76.4562 2049.55,-81.802 2050.89,-74.9309"/>
</g>
<!-- Node40&#45;&gt;Node13 -->
<g id="edge218" class="edge"><title>Node40&#45;&gt;Node13</title>
<path fill="none" stroke="midnightblue" d="M1924.76,-348.463C1951.58,-339.123 1991.63,-324.989 2026.24,-312 2092,-287.328 2133.73,-312.067 2173.24,-254 2178.75,-245.916 2173.83,-241.76 2173.24,-232 2171.69,-206.082 2184.11,-192.844 2166.24,-174 2150.33,-157.206 2001.77,-138.586 1932.95,-130.774"/>
<polygon fill="midnightblue" stroke="midnightblue" points="1933.33,-127.295 1923.01,-129.658 1932.55,-134.252 1933.33,-127.295"/>
</g>
<!-- Node40&#45;&gt;Node18 -->
<g id="edge228" class="edge"><title>Node40&#45;&gt;Node18</title>
<path fill="none" stroke="midnightblue" d="M1838.63,-354.634C1724.19,-344.473 1468.08,-315.3 1409.24,-254 1397.12,-241.365 1394.84,-221.104 1395.16,-205.799"/>
<polygon fill="midnightblue" stroke="midnightblue" points="1398.66,-205.899 1395.76,-195.71 1391.68,-205.487 1398.66,-205.899"/>
</g>
<!-- Node40&#45;&gt;Node19 -->
<g id="edge226" class="edge"><title>Node40&#45;&gt;Node19</title>
<path fill="none" stroke="midnightblue" d="M1878.18,-348.342C1843.35,-325.466 1757.92,-270.606 1682.24,-232 1658.02,-219.642 1629.8,-207.629 1608.01,-198.842"/>
<polygon fill="midnightblue" stroke="midnightblue" points="1609.07,-195.497 1598.48,-195.042 1606.47,-201.999 1609.07,-195.497"/>
</g>
<!-- Node40&#45;&gt;Node28 -->
<g id="edge152" class="edge"><title>Node40&#45;&gt;Node28</title>
<path fill="none" stroke="midnightblue" d="M1838.65,-354.108C1743.79,-345.727 1544.57,-327.977 1376.24,-312 1362.96,-310.739 1348.78,-309.359 1335.15,-308.016"/>
<polygon fill="midnightblue" stroke="midnightblue" points="1335.15,-304.5 1324.86,-306.999 1334.47,-311.466 1335.15,-304.5"/>
</g>
<!-- Node40&#45;&gt;Node29 -->
<g id="edge154" class="edge"><title>Node40&#45;&gt;Node29</title>
<path fill="none" stroke="midnightblue" d="M1894.24,-348.295C1894.24,-329.131 1894.24,-288.654 1894.24,-263.843"/>
<polygon fill="midnightblue" stroke="midnightblue" points="1897.74,-263.679 1894.24,-253.679 1890.74,-263.679 1897.74,-263.679"/>
</g>
<!-- Node40&#45;&gt;Node38 -->
<g id="edge222" class="edge"><title>Node40&#45;&gt;Node38</title>
<path fill="none" stroke="midnightblue" d="M1864.45,-348.398C1805.4,-327.385 1673.51,-280.456 1607.48,-256.961"/>
<polygon fill="midnightblue" stroke="midnightblue" points="1608.45,-253.59 1597.85,-253.535 1606.1,-260.185 1608.45,-253.59"/>
</g>
<!-- Node41 -->
<g id="node119" class="node"><title>Node41</title>
<a xlink:href="_tagger_hit_8h.html" target="_top" xlink:title="TaggerHit.h">
<polygon fill="white" stroke="black" points="2096.24,-232.5 2096.24,-253.5 2164.24,-253.5 2164.24,-232.5 2096.24,-232.5"/>
<text text-anchor="middle" x="2130.24" y="-240.5" font-family="Helvetica,sans-Serif" font-size="10.00">TaggerHit.h</text>
</a>
</g>
<!-- Node40&#45;&gt;Node41 -->
<g id="edge156" class="edge"><title>Node40&#45;&gt;Node41</title>
<path fill="none" stroke="midnightblue" d="M1916.02,-348.295C1958.28,-327.525 2051.47,-281.718 2099.82,-257.956"/>
<polygon fill="midnightblue" stroke="midnightblue" points="2101.43,-261.064 2108.86,-253.512 2098.34,-254.782 2101.43,-261.064"/>
</g>
<!-- Node42 -->
<g id="node126" class="node"><title>Node42</title>
<a xlink:href="_trigger_info_8h.html" target="_top" xlink:title="TriggerInfo.h">
<polygon fill="white" stroke="black" points="2246.74,-290.5 2246.74,-311.5 2317.74,-311.5 2317.74,-290.5 2246.74,-290.5"/>
<text text-anchor="middle" x="2282.24" y="-298.5" font-family="Helvetica,sans-Serif" font-size="10.00">TriggerInfo.h</text>
</a>
</g>
<!-- Node40&#45;&gt;Node42 -->
<g id="edge168" class="edge"><title>Node40&#45;&gt;Node42</title>
<path fill="none" stroke="midnightblue" d="M1949.9,-352.043C2015.96,-343.572 2129.38,-328.358 2226.24,-312 2229.62,-311.43 2233.1,-310.814 2236.61,-310.174"/>
<polygon fill="midnightblue" stroke="midnightblue" points="2237.27,-313.611 2246.45,-308.326 2235.97,-306.731 2237.27,-313.611"/>
</g>
<!-- Node41&#45;&gt;Node11 -->
<g id="edge164" class="edge"><title>Node41&#45;&gt;Node11</title>
<path fill="none" stroke="midnightblue" d="M2143.02,-232.341C2158.37,-218.238 2180.38,-192.954 2166.24,-174 2132.7,-129.024 2088.53,-173.695 2045.24,-138 2030,-125.429 2020.42,-104.701 2015.01,-89.2399"/>
<polygon fill="midnightblue" stroke="midnightblue" points="2018.29,-88.0035 2011.92,-79.5421 2011.63,-90.1329 2018.29,-88.0035"/>
</g>
<!-- Node41&#45;&gt;Node13 -->
<g id="edge162" class="edge"><title>Node41&#45;&gt;Node13</title>
<path fill="none" stroke="midnightblue" d="M2138.63,-232.443C2149.22,-217.765 2164.43,-191.077 2150.24,-174 2136.47,-157.421 1999.25,-139.021 1933.29,-131.048"/>
<polygon fill="midnightblue" stroke="midnightblue" points="1933.32,-127.527 1922.97,-129.816 1932.49,-134.477 1933.32,-127.527"/>
</g>
<!-- Node41&#45;&gt;Node17 -->
<g id="edge158" class="edge"><title>Node41&#45;&gt;Node17</title>
<path fill="none" stroke="midnightblue" d="M2131.79,-232.481C2133.4,-217.09 2133.72,-188.673 2117.24,-174 2074.82,-136.222 1663.82,-143.138 1607.24,-138 1581.96,-135.704 1553.12,-132.424 1533.11,-130.043"/>
<polygon fill="midnightblue" stroke="midnightblue" points="1533.33,-126.545 1522.99,-128.825 1532.5,-133.494 1533.33,-126.545"/>
</g>
<!-- Node41&#45;&gt;Node19 -->
<g id="edge160" class="edge"><title>Node41&#45;&gt;Node19</title>
<path fill="none" stroke="midnightblue" d="M2096.18,-239.459C1997.22,-229.174 1710.37,-199.358 1608.59,-188.778"/>
<polygon fill="midnightblue" stroke="midnightblue" points="1608.81,-185.282 1598.5,-187.729 1608.08,-192.244 1608.81,-185.282"/>
</g>
<!-- Node41&#45;&gt;Node39 -->
<g id="edge166" class="edge"><title>Node41&#45;&gt;Node39</title>
<path fill="none" stroke="midnightblue" d="M2117.77,-232.362C2107.9,-223.941 2093.91,-212.011 2082.45,-202.231"/>
<polygon fill="midnightblue" stroke="midnightblue" points="2084.52,-199.397 2074.64,-195.571 2079.98,-204.723 2084.52,-199.397"/>
</g>
<!-- Node42&#45;&gt;Node11 -->
<g id="edge172" class="edge"><title>Node42&#45;&gt;Node11</title>
<path fill="none" stroke="midnightblue" d="M2317.87,-295.269C2365.66,-287.067 2447.39,-271.075 2472.24,-254 2530.87,-213.734 2601.67,-168.087 2553.24,-116 2515.85,-75.7738 2114.61,-87.809 2060.24,-80 2057.02,-79.5364 2053.69,-78.9856 2050.35,-78.3814"/>
<polygon fill="midnightblue" stroke="midnightblue" points="2050.89,-74.9209 2040.41,-76.4421 2049.55,-81.7915 2050.89,-74.9209"/>
</g>
<!-- Node42&#45;&gt;Node13 -->
<g id="edge170" class="edge"><title>Node42&#45;&gt;Node13</title>
<path fill="none" stroke="midnightblue" d="M2284.52,-290.287C2289.03,-265.802 2296.1,-205.443 2264.24,-174 2252.5,-162.405 2022.4,-139.012 1933.18,-130.337"/>
<polygon fill="midnightblue" stroke="midnightblue" points="1933.31,-126.833 1923.02,-129.354 1932.63,-133.801 1933.31,-126.833"/>
</g>
<!-- Node42&#45;&gt;Node17 -->
<g id="edge214" class="edge"><title>Node42&#45;&gt;Node17</title>
<path fill="none" stroke="midnightblue" d="M2274.24,-290.273C2254.4,-264.644 2199.98,-200.051 2137.24,-174 2028.22,-128.73 1724.82,-148.521 1607.24,-138 1581.96,-135.737 1553.11,-132.452 1533.11,-130.061"/>
<polygon fill="midnightblue" stroke="midnightblue" points="1533.33,-126.563 1522.98,-128.837 1532.49,-133.512 1533.33,-126.563"/>
</g>
<!-- Node42&#45;&gt;Node19 -->
<g id="edge216" class="edge"><title>Node42&#45;&gt;Node19</title>
<path fill="none" stroke="midnightblue" d="M2246.74,-299.091C2152.95,-293.777 1900.27,-277.633 1820.24,-254 1799.66,-247.92 1797.42,-239.344 1777.24,-232 1719.84,-211.1 1649.9,-197.443 1608.33,-190.488"/>
<polygon fill="midnightblue" stroke="midnightblue" points="1608.84,-187.024 1598.4,-188.865 1607.71,-193.932 1608.84,-187.024"/>
</g>
<!-- Node43 -->
<g id="node130" class="node"><title>Node43</title>
<a xlink:href="_t_data_record_8h.html" target="_top" xlink:title="tree/TDataRecord.h">
<polygon fill="white" stroke="black" points="2360.74,-232.5 2360.74,-253.5 2463.74,-253.5 2463.74,-232.5 2360.74,-232.5"/>
<text text-anchor="middle" x="2412.24" y="-240.5" font-family="Helvetica,sans-Serif" font-size="10.00">tree/TDataRecord.h</text>
</a>
</g>
<!-- Node42&#45;&gt;Node43 -->
<g id="edge174" class="edge"><title>Node42&#45;&gt;Node43</title>
<path fill="none" stroke="midnightblue" d="M2305.79,-290.497C2326.27,-281.356 2356.19,-268.008 2379.1,-257.788"/>
<polygon fill="midnightblue" stroke="midnightblue" points="2380.73,-260.892 2388.44,-253.621 2377.88,-254.499 2380.73,-260.892"/>
</g>
<!-- Node43&#45;&gt;Node21 -->
<g id="edge208" class="edge"><title>Node43&#45;&gt;Node21</title>
<path fill="none" stroke="midnightblue" d="M2404.54,-232.319C2392.65,-216.72 2368.26,-188.042 2340.24,-174 2253.24,-130.389 2219.42,-158.35 2124.24,-138 2123,-137.734 2121.74,-137.455 2120.47,-137.167"/>
<polygon fill="midnightblue" stroke="midnightblue" points="2121.17,-133.736 2110.63,-134.808 2119.54,-140.543 2121.17,-133.736"/>
</g>
<!-- Node44 -->
<g id="node132" class="node"><title>Node44</title>
<a xlink:href="_t_i_d_8h.html" target="_top" xlink:title="TID.h">
<polygon fill="white" stroke="black" points="2391.74,-174.5 2391.74,-195.5 2432.74,-195.5 2432.74,-174.5 2391.74,-174.5"/>
<text text-anchor="middle" x="2412.24" y="-182.5" font-family="Helvetica,sans-Serif" font-size="10.00">TID.h</text>
</a>
</g>
<!-- Node43&#45;&gt;Node44 -->
<g id="edge176" class="edge"><title>Node43&#45;&gt;Node44</title>
<path fill="none" stroke="midnightblue" d="M2412.24,-232.362C2412.24,-224.922 2412.24,-214.743 2412.24,-205.728"/>
<polygon fill="midnightblue" stroke="midnightblue" points="2415.74,-205.571 2412.24,-195.571 2408.74,-205.571 2415.74,-205.571"/>
</g>
<!-- Node49 -->
<g id="node146" class="node"><title>Node49</title>
<polygon fill="white" stroke="#bfbfbf" points="2351.74,-58.5 2351.74,-79.5 2392.74,-79.5 2392.74,-58.5 2351.74,-58.5"/>
<text text-anchor="middle" x="2372.24" y="-66.5" font-family="Helvetica,sans-Serif" font-size="10.00">ctime</text>
</g>
<!-- Node43&#45;&gt;Node49 -->
<g id="edge212" class="edge"><title>Node43&#45;&gt;Node49</title>
<path fill="none" stroke="midnightblue" d="M2441.94,-232.38C2493.8,-212.213 2591.84,-165.903 2553.24,-116 2535,-92.4139 2449.75,-78.4771 2403.04,-72.4857"/>
<polygon fill="midnightblue" stroke="midnightblue" points="2403.23,-68.9828 2392.88,-71.2295 2402.37,-75.9299 2403.23,-68.9828"/>
</g>
<!-- Node51 -->
<g id="node153" class="node"><title>Node51</title>
<polygon fill="white" stroke="#bfbfbf" points="2494.24,-116.5 2494.24,-137.5 2544.24,-137.5 2544.24,-116.5 2494.24,-116.5"/>
<text text-anchor="middle" x="2519.24" y="-124.5" font-family="Helvetica,sans-Serif" font-size="10.00">iomanip</text>
</g>
<!-- Node43&#45;&gt;Node51 -->
<g id="edge210" class="edge"><title>Node43&#45;&gt;Node51</title>
<path fill="none" stroke="midnightblue" d="M2422.12,-232.295C2440.43,-212.441 2479.85,-169.709 2502.43,-145.224"/>
<polygon fill="midnightblue" stroke="midnightblue" points="2505.19,-147.403 2509.39,-137.679 2500.04,-142.657 2505.19,-147.403"/>
</g>
<!-- Node44&#45;&gt;Node10 -->
<g id="edge202" class="edge"><title>Node44&#45;&gt;Node10</title>
<path fill="none" stroke="midnightblue" d="M2391.33,-179.266C2384.34,-177.451 2376.48,-175.523 2369.24,-174 2273.58,-153.867 2243.17,-173.917 2152.24,-138 2135.85,-131.524 2135.85,-121.911 2119.24,-116 1961.92,-59.9989 1911.07,-99.6644 1745.24,-80 1732.73,-78.5154 1719.11,-76.6736 1706.81,-74.9243"/>
<polygon fill="midnightblue" stroke="midnightblue" points="1707.23,-71.4497 1696.84,-73.4866 1706.23,-78.3781 1707.23,-71.4497"/>
</g>
<!-- Node44&#45;&gt;Node11 -->
<g id="edge180" class="edge"><title>Node44&#45;&gt;Node11</title>
<path fill="none" stroke="midnightblue" d="M2424.76,-174.363C2440.4,-159.831 2463.26,-133.573 2447.24,-116 2418.16,-84.0802 2102.93,-86.5643 2060.24,-80 2057.02,-79.5043 2053.7,-78.9306 2050.36,-78.3104"/>
<polygon fill="midnightblue" stroke="midnightblue" points="2050.91,-74.8512 2040.42,-76.3428 2049.55,-81.718 2050.91,-74.8512"/>
</g>
<!-- Node44&#45;&gt;Node21 -->
<g id="edge178" class="edge"><title>Node44&#45;&gt;Node21</title>
<path fill="none" stroke="midnightblue" d="M2391.55,-177.678C2387.19,-176.314 2382.6,-175.005 2378.24,-174 2267.15,-148.357 2236.02,-160.481 2124.24,-138 2123,-137.749 2121.73,-137.484 2120.46,-137.206"/>
<polygon fill="midnightblue" stroke="midnightblue" points="2121.14,-133.772 2110.61,-134.902 2119.55,-140.588 2121.14,-133.772"/>
</g>
<!-- Node44&#45;&gt;Node32 -->
<g id="edge200" class="edge"><title>Node44&#45;&gt;Node32</title>
<path fill="none" stroke="midnightblue" d="M2391.46,-178.022C2387.11,-176.633 2382.54,-175.226 2378.24,-174 2314.4,-155.769 2295.43,-161.275 2233.24,-138 2213.14,-130.475 2209.48,-125.531 2190.24,-116 2168.26,-105.106 2143.32,-93.1532 2124.11,-84.0276"/>
<polygon fill="midnightblue" stroke="midnightblue" points="2125.44,-80.7835 2114.9,-79.6631 2122.44,-87.1089 2125.44,-80.7835"/>
</g>
<!-- Node44&#45;&gt;Node33 -->
<g id="edge196" class="edge"><title>Node44&#45;&gt;Node33</title>
<path fill="none" stroke="midnightblue" d="M2391.74,-179.523C2384.63,-177.687 2376.61,-175.681 2369.24,-174 2290.13,-155.938 2266.14,-166.711 2190.24,-138 2171.99,-131.096 2170.73,-122.251 2152.24,-116 2092.58,-95.823 1908.95,-78.9776 1826.31,-72.2003"/>
<polygon fill="midnightblue" stroke="midnightblue" points="1826.52,-68.7066 1816.27,-71.3865 1825.96,-75.6837 1826.52,-68.7066"/>
</g>
<!-- Node45 -->
<g id="node136" class="node"><title>Node45</title>
<a xlink:href="time_8h.html" target="_top" xlink:title="base/std_ext/time.h">
<polygon fill="white" stroke="black" points="2241.74,-116.5 2241.74,-137.5 2344.74,-137.5 2344.74,-116.5 2241.74,-116.5"/>
<text text-anchor="middle" x="2293.24" y="-124.5" font-family="Helvetica,sans-Serif" font-size="10.00">base/std_ext/time.h</text>
</a>
</g>
<!-- Node44&#45;&gt;Node45 -->
<g id="edge182" class="edge"><title>Node44&#45;&gt;Node45</title>
<path fill="none" stroke="midnightblue" d="M2391.52,-174.897C2372.92,-165.834 2345.38,-152.41 2324.18,-142.078"/>
<polygon fill="midnightblue" stroke="midnightblue" points="2325.46,-138.81 2314.94,-137.575 2322.4,-145.102 2325.46,-138.81"/>
</g>
<!-- Node44&#45;&gt;Node49 -->
<g id="edge206" class="edge"><title>Node44&#45;&gt;Node49</title>
<path fill="none" stroke="midnightblue" d="M2406.93,-174.363C2402.38,-164.958 2395.83,-150.787 2391.24,-138 2385.55,-122.127 2380.55,-103.691 2377.12,-89.8711"/>
<polygon fill="midnightblue" stroke="midnightblue" points="2380.46,-88.8119 2374.71,-79.9143 2373.66,-90.4567 2380.46,-88.8119"/>
</g>
<!-- Node50 -->
<g id="node149" class="node"><title>Node50</title>
<polygon fill="white" stroke="#bfbfbf" points="2400.24,-116.5 2400.24,-137.5 2438.24,-137.5 2438.24,-116.5 2400.24,-116.5"/>
<text text-anchor="middle" x="2419.24" y="-124.5" font-family="Helvetica,sans-Serif" font-size="10.00">tuple</text>
</g>
<!-- Node44&#45;&gt;Node50 -->
<g id="edge198" class="edge"><title>Node44&#45;&gt;Node50</title>
<path fill="none" stroke="midnightblue" d="M2413.53,-174.362C2414.43,-166.922 2415.66,-156.743 2416.74,-147.728"/>
<polygon fill="midnightblue" stroke="midnightblue" points="2420.25,-147.918 2417.97,-137.571 2413.3,-147.079 2420.25,-147.918"/>
</g>
<!-- Node44&#45;&gt;Node51 -->
<g id="edge204" class="edge"><title>Node44&#45;&gt;Node51</title>
<path fill="none" stroke="midnightblue" d="M2431.87,-174.362C2448.39,-165.409 2472.22,-152.491 2490.82,-142.406"/>
<polygon fill="midnightblue" stroke="midnightblue" points="2492.62,-145.413 2499.74,-137.571 2489.28,-139.259 2492.62,-145.413"/>
</g>
<!-- Node46 -->
<g id="node138" class="node"><title>Node46</title>
<a xlink:href="string_8h.html" target="_top" xlink:title="base/std_ext/string.h">
<polygon fill="white" stroke="black" points="2133.24,-58.5 2133.24,-79.5 2241.24,-79.5 2241.24,-58.5 2133.24,-58.5"/>
<text text-anchor="middle" x="2187.24" y="-66.5" font-family="Helvetica,sans-Serif" font-size="10.00">base/std_ext/string.h</text>
</a>
</g>
<!-- Node45&#45;&gt;Node46 -->
<g id="edge184" class="edge"><title>Node45&#45;&gt;Node46</title>
<path fill="none" stroke="midnightblue" d="M2273.8,-116.362C2257.44,-107.409 2233.83,-94.4908 2215.4,-84.4064"/>
<polygon fill="midnightblue" stroke="midnightblue" points="2217.02,-81.3004 2206.56,-79.5707 2213.66,-87.4412 2217.02,-81.3004"/>
</g>
<!-- Node48 -->
<g id="node144" class="node"><title>Node48</title>
<polygon fill="white" stroke="#bfbfbf" points="2270.24,-58.5 2270.24,-79.5 2316.24,-79.5 2316.24,-58.5 2270.24,-58.5"/>
<text text-anchor="middle" x="2293.24" y="-66.5" font-family="Helvetica,sans-Serif" font-size="10.00">cstring</text>
</g>
<!-- Node45&#45;&gt;Node48 -->
<g id="edge192" class="edge"><title>Node45&#45;&gt;Node48</title>
<path fill="none" stroke="midnightblue" d="M2293.24,-116.362C2293.24,-108.922 2293.24,-98.7427 2293.24,-89.7276"/>
<polygon fill="midnightblue" stroke="midnightblue" points="2296.74,-89.5706 2293.24,-79.5707 2289.74,-89.5707 2296.74,-89.5706"/>
</g>
<!-- Node45&#45;&gt;Node49 -->
<g id="edge194" class="edge"><title>Node45&#45;&gt;Node49</title>
<path fill="none" stroke="midnightblue" d="M2307.73,-116.362C2319.43,-107.777 2336.09,-95.5459 2349.55,-85.6636"/>
<polygon fill="midnightblue" stroke="midnightblue" points="2351.86,-88.31 2357.85,-79.5707 2347.71,-82.6675 2351.86,-88.31"/>
</g>
<!-- Node46&#45;&gt;Node7 -->
<g id="edge186" class="edge"><title>Node46&#45;&gt;Node7</title>
<path fill="none" stroke="midnightblue" d="M2133.02,-59.034C2130.05,-58.6452 2127.12,-58.2959 2124.24,-58 1979.31,-43.0627 907.878,-16.5214 711.211,-11.7464"/>
<polygon fill="midnightblue" stroke="midnightblue" points="711.088,-8.24249 701.006,-11.4991 710.919,-15.2404 711.088,-8.24249"/>
</g>
<!-- Node46&#45;&gt;Node9 -->
<g id="edge190" class="edge"><title>Node46&#45;&gt;Node9</title>
<path fill="none" stroke="midnightblue" d="M2133.01,-59.0927C2130.05,-58.6888 2127.11,-58.3202 2124.24,-58 1771.47,-18.6281 1341.33,-12.2378 1212.47,-11.2008"/>
<polygon fill="midnightblue" stroke="midnightblue" points="1212.35,-7.69996 1202.32,-11.1255 1212.3,-14.6998 1212.35,-7.69996"/>
</g>
<!-- Node47 -->
<g id="node141" class="node"><title>Node47</title>
<polygon fill="white" stroke="#bfbfbf" points="2161.24,-0.5 2161.24,-21.5 2213.24,-21.5 2213.24,-0.5 2161.24,-0.5"/>
<text text-anchor="middle" x="2187.24" y="-8.5" font-family="Helvetica,sans-Serif" font-size="10.00">sstream</text>
</g>
<!-- Node46&#45;&gt;Node47 -->
<g id="edge188" class="edge"><title>Node46&#45;&gt;Node47</title>
<path fill="none" stroke="midnightblue" d="M2187.24,-58.3619C2187.24,-50.9219 2187.24,-40.7427 2187.24,-31.7276"/>
<polygon fill="midnightblue" stroke="midnightblue" points="2190.74,-31.5706 2187.24,-21.5707 2183.74,-31.5707 2190.74,-31.5706"/>
</g>
<!-- Node52&#45;&gt;Node6 -->
<g id="edge232" class="edge"><title>Node52&#45;&gt;Node6</title>
<path fill="none" stroke="midnightblue" d="M2773.78,-116.392C2760.23,-100.329 2731.96,-70.3971 2700.24,-58 2618.92,-26.2085 2002.44,-26.5102 1915.24,-22 1859.54,-19.1189 1794.74,-15.2845 1756.73,-12.9871"/>
<polygon fill="midnightblue" stroke="midnightblue" points="1756.49,-9.46613 1746.3,-12.3541 1756.07,-16.4533 1756.49,-9.46613"/>
</g>
<!-- Node52&#45;&gt;Node32 -->
<g id="edge234" class="edge"><title>Node52&#45;&gt;Node32</title>
<path fill="none" stroke="midnightblue" d="M2713.64,-122.215C2559.24,-111.434 2193.21,-85.7914 2125.77,-79.0325"/>
<polygon fill="midnightblue" stroke="midnightblue" points="2125.82,-75.5121 2115.47,-77.7648 2124.97,-82.4597 2125.82,-75.5121"/>
</g>
<!-- Node53&#45;&gt;Node7 -->
<g id="edge238" class="edge"><title>Node53&#45;&gt;Node7</title>
<path fill="none" stroke="midnightblue" d="M1463.56,-232.494C1457.59,-217.119 1444.33,-188.722 1423.24,-174 1303.44,-90.3442 835.537,-29.5149 710.894,-14.5615"/>
<polygon fill="midnightblue" stroke="midnightblue" points="711.23,-11.077 700.887,-13.3715 710.404,-18.028 711.23,-11.077"/>
</g>
<!-- Node53&#45;&gt;Node18 -->
<g id="edge242" class="edge"><title>Node53&#45;&gt;Node18</title>
<path fill="none" stroke="midnightblue" d="M1454.41,-232.362C1444.24,-223.941 1429.84,-212.011 1418.04,-202.231"/>
<polygon fill="midnightblue" stroke="midnightblue" points="1419.94,-199.256 1410,-195.571 1415.47,-204.646 1419.94,-199.256"/>
</g>
<!-- Node53&#45;&gt;Node19 -->
<g id="edge240" class="edge"><title>Node53&#45;&gt;Node19</title>
<path fill="none" stroke="midnightblue" d="M1486.5,-232.362C1502.71,-223.409 1526.1,-210.491 1544.35,-200.406"/>
<polygon fill="midnightblue" stroke="midnightblue" points="1546.05,-203.47 1553.11,-195.571 1542.66,-197.342 1546.05,-203.47"/>
</g>
<!-- Node54&#45;&gt;Node8 -->
<g id="edge264" class="edge"><title>Node54&#45;&gt;Node8</title>
<path fill="none" stroke="midnightblue" d="M647.642,-232.362C642.77,-224.513 636.006,-213.616 630.195,-204.253"/>
<polygon fill="midnightblue" stroke="midnightblue" points="633.053,-202.221 624.806,-195.571 627.106,-205.913 633.053,-202.221"/>
</g>
<!-- Node54&#45;&gt;Node30 -->
<g id="edge268" class="edge"><title>Node54&#45;&gt;Node30</title>
<path fill="none" stroke="midnightblue" d="M682.945,-232.478C727.482,-216.673 816.239,-187.246 894.245,-174 1173.81,-126.529 1248.37,-157.776 1531.24,-138 1555.62,-136.296 1582.51,-134.111 1605.62,-132.138"/>
<polygon fill="midnightblue" stroke="midnightblue" points="1605.95,-135.623 1615.61,-131.278 1605.35,-128.648 1605.95,-135.623"/>
</g>
<!-- Node55 -->
<g id="node188" class="node"><title>Node55</title>
<polygon fill="white" stroke="#bfbfbf" points="675.745,-174.5 675.745,-195.5 728.745,-195.5 728.745,-174.5 675.745,-174.5"/>
<text text-anchor="middle" x="702.245" y="-182.5" font-family="Helvetica,sans-Serif" font-size="10.00">TMath.h</text>
</g>
<!-- Node54&#45;&gt;Node55 -->
<g id="edge266" class="edge"><title>Node54&#45;&gt;Node55</title>
<path fill="none" stroke="midnightblue" d="M663.049,-232.362C669.747,-224.268 679.129,-212.932 687.034,-203.38"/>
<polygon fill="midnightblue" stroke="midnightblue" points="689.817,-205.506 693.497,-195.571 684.425,-201.043 689.817,-205.506"/>
</g>
</g>
</svg>
