<?xml version="1.0" encoding="UTF-8" standalone="no"?>
<!DOCTYPE svg PUBLIC "-//W3C//DTD SVG 1.1//EN"
 "http://www.w3.org/Graphics/SVG/1.1/DTD/svg11.dtd">
<!-- Generated by graphviz version 2.26.3 (20100126.1600)
 -->
<!-- Title: src/analysis/physics/omega/GeoAcceptance.cc Pages: 1 -->
<svg width="3056pt" height="566pt"
 viewBox="0.00 0.00 3056.00 566.00" xmlns="http://www.w3.org/2000/svg" xmlns:xlink="http://www.w3.org/1999/xlink">
<g id="graph1" class="graph" transform="scale(1 1) rotate(0) translate(4 562)">
<title>src/analysis/physics/omega/GeoAcceptance.cc</title>
<polygon fill="white" stroke="white" points="-4,5 -4,-562 3053,-562 3053,5 -4,5"/>
<!-- Node1 -->
<g id="node1" class="node"><title>Node1</title>
<polygon fill="#bfbfbf" stroke="black" points="1379.5,-523 1379.5,-557 1514.5,-557 1514.5,-523 1379.5,-523"/>
<text text-anchor="start" x="1387.5" y="-544" font-family="Helvetica,sans-Serif" font-size="10.00">src/analysis/physics</text>
<text text-anchor="middle" x="1447" y="-531" font-family="Helvetica,sans-Serif" font-size="10.00">/omega/GeoAcceptance.cc</text>
</g>
<!-- Node2 -->
<g id="node3" class="node"><title>Node2</title>
<a xlink:href="_geo_acceptance_8h.html" target="_top" xlink:title="GeoAcceptance.h">
<polygon fill="white" stroke="black" points="576.5,-464.5 576.5,-485.5 671.5,-485.5 671.5,-464.5 576.5,-464.5"/>
<text text-anchor="middle" x="624" y="-472.5" font-family="Helvetica,sans-Serif" font-size="10.00">GeoAcceptance.h</text>
</a>
</g>
<!-- Node1&#45;&gt;Node2 -->
<g id="edge2" class="edge"><title>Node1&#45;&gt;Node2</title>
<path fill="none" stroke="midnightblue" d="M1379.3,-534.653C1221.22,-522.168 829.996,-491.269 681.986,-479.58"/>
<polygon fill="midnightblue" stroke="midnightblue" points="682.001,-476.07 671.756,-478.772 681.45,-483.048 682.001,-476.07"/>
</g>
<!-- Node17 -->
<g id="node35" class="node"><title>Node17</title>
<a xlink:href="root__draw_8h.html" target="_top" xlink:title="root_draw.h">
<polygon fill="white" stroke="black" points="912,-232.5 912,-253.5 980,-253.5 980,-232.5 912,-232.5"/>
<text text-anchor="middle" x="946" y="-240.5" font-family="Helvetica,sans-Serif" font-size="10.00">root_draw.h</text>
</a>
</g>
<!-- Node1&#45;&gt;Node17 -->
<g id="edge292" class="edge"><title>Node1&#45;&gt;Node17</title>
<path fill="none" stroke="midnightblue" d="M1414.33,-522.819C1380.65,-502.476 1333,-465.186 1333,-417 1333,-417 1333,-417 1333,-359 1333,-349.242 1322.98,-351.812 1314,-348 1283.79,-335.178 1080.98,-279.596 990.009,-254.901"/>
<polygon fill="midnightblue" stroke="midnightblue" points="990.832,-251.498 980.264,-252.258 988.999,-258.253 990.832,-251.498"/>
</g>
<!-- Node25 -->
<g id="node55" class="node"><title>Node25</title>
<polygon fill="white" stroke="#bfbfbf" points="1171.5,-232.5 1171.5,-253.5 1222.5,-253.5 1222.5,-232.5 1171.5,-232.5"/>
<text text-anchor="middle" x="1197" y="-240.5" font-family="Helvetica,sans-Serif" font-size="10.00">TH2D.h</text>
</g>
<!-- Node1&#45;&gt;Node25 -->
<g id="edge306" class="edge"><title>Node1&#45;&gt;Node25</title>
<path fill="none" stroke="midnightblue" d="M1427.82,-522.907C1405.31,-500.858 1371,-460.175 1371,-417 1371,-417 1371,-417 1371,-359 1371,-326.531 1370.31,-312.599 1347,-290 1330.59,-274.089 1271.42,-258.875 1232.48,-250.259"/>
<polygon fill="midnightblue" stroke="midnightblue" points="1233.09,-246.809 1222.57,-248.112 1231.6,-253.651 1233.09,-246.809"/>
</g>
<!-- Node26 -->
<g id="node57" class="node"><title>Node26</title>
<polygon fill="white" stroke="#bfbfbf" points="1277.5,-232.5 1277.5,-253.5 1328.5,-253.5 1328.5,-232.5 1277.5,-232.5"/>
<text text-anchor="middle" x="1303" y="-240.5" font-family="Helvetica,sans-Serif" font-size="10.00">TH3D.h</text>
</g>
<!-- Node1&#45;&gt;Node26 -->
<g id="edge304" class="edge"><title>Node1&#45;&gt;Node26</title>
<path fill="none" stroke="midnightblue" d="M1447,-522.888C1447,-499.127 1447,-454.797 1447,-417 1447,-417 1447,-417 1447,-359 1447,-317.772 1417.07,-315.912 1385,-290 1369.64,-277.586 1350.59,-266.455 1334.72,-258.144"/>
<polygon fill="midnightblue" stroke="midnightblue" points="1336.3,-255.018 1325.8,-253.589 1333.11,-261.253 1336.3,-255.018"/>
</g>
<!-- Node29 -->
<g id="node65" class="node"><title>Node29</title>
<a xlink:href="_particle_8h.html" target="_top" xlink:title="analysis/data/Particle.h">
<polygon fill="white" stroke="black" points="1606.5,-290.5 1606.5,-311.5 1725.5,-311.5 1725.5,-290.5 1606.5,-290.5"/>
<text text-anchor="middle" x="1666" y="-298.5" font-family="Helvetica,sans-Serif" font-size="10.00">analysis/data/Particle.h</text>
</a>
</g>
<!-- Node1&#45;&gt;Node29 -->
<g id="edge272" class="edge"><title>Node1&#45;&gt;Node29</title>
<path fill="none" stroke="midnightblue" d="M1462.75,-522.812C1502.82,-479.081 1608.37,-363.897 1649.37,-319.145"/>
<polygon fill="midnightblue" stroke="midnightblue" points="1652.07,-321.378 1656.25,-311.641 1646.91,-316.649 1652.07,-321.378"/>
</g>
<!-- Node30 -->
<g id="node67" class="node"><title>Node30</title>
<a xlink:href="_candidate_8h.html" target="_top" xlink:title="analysis/data/Candidate.h">
<polygon fill="white" stroke="black" points="2457,-232.5 2457,-253.5 2587,-253.5 2587,-232.5 2457,-232.5"/>
<text text-anchor="middle" x="2522" y="-240.5" font-family="Helvetica,sans-Serif" font-size="10.00">analysis/data/Candidate.h</text>
</a>
</g>
<!-- Node1&#45;&gt;Node30 -->
<g id="edge274" class="edge"><title>Node1&#45;&gt;Node30</title>
<path fill="none" stroke="midnightblue" d="M1514.86,-538.59C1736.19,-533.103 2423,-508.69 2423,-417 2423,-417 2423,-417 2423,-359 2423,-314.611 2465.46,-278.611 2494.77,-259.05"/>
<polygon fill="midnightblue" stroke="midnightblue" points="2496.86,-261.867 2503.38,-253.516 2493.07,-255.978 2496.86,-261.867"/>
</g>
<!-- Node32 -->
<g id="node74" class="node"><title>Node32</title>
<polygon fill="white" stroke="#bfbfbf" points="2677.5,-58.5 2677.5,-79.5 2742.5,-79.5 2742.5,-58.5 2677.5,-58.5"/>
<text text-anchor="middle" x="2710" y="-66.5" font-family="Helvetica,sans-Serif" font-size="10.00">TVector3.h</text>
</g>
<!-- Node1&#45;&gt;Node32 -->
<g id="edge300" class="edge"><title>Node1&#45;&gt;Node32</title>
<path fill="none" stroke="midnightblue" d="M1514.73,-538.535C1737.86,-533.472 2448.57,-515.392 2676,-486 2809.97,-468.687 2972,-552.083 2972,-417 2972,-417 2972,-417 2972,-185 2972,-140.356 2938.17,-137.422 2899,-116 2852.61,-90.6268 2792.37,-78.7143 2752.51,-73.2855"/>
<polygon fill="midnightblue" stroke="midnightblue" points="2752.95,-69.8135 2742.58,-72.0105 2752.06,-76.7564 2752.95,-69.8135"/>
</g>
<!-- Node41 -->
<g id="node117" class="node"><title>Node41</title>
<a xlink:href="_event_8h.html" target="_top" xlink:title="analysis/data/Event.h">
<polygon fill="white" stroke="black" points="1716.5,-348.5 1716.5,-369.5 1827.5,-369.5 1827.5,-348.5 1716.5,-348.5"/>
<text text-anchor="middle" x="1772" y="-356.5" font-family="Helvetica,sans-Serif" font-size="10.00">analysis/data/Event.h</text>
</a>
</g>
<!-- Node1&#45;&gt;Node41 -->
<g id="edge294" class="edge"><title>Node1&#45;&gt;Node41</title>
<path fill="none" stroke="midnightblue" d="M1507.53,-522.98C1536.1,-513.832 1570.17,-501.277 1599,-486 1659.19,-454.106 1721.63,-402.999 1752.42,-376.385"/>
<polygon fill="midnightblue" stroke="midnightblue" points="1755.01,-378.776 1760.24,-369.564 1750.4,-373.502 1755.01,-378.776"/>
</g>
<!-- Node48 -->
<g id="node143" class="node"><title>Node48</title>
<polygon fill="white" stroke="#bfbfbf" points="2613,-0.5 2613,-21.5 2665,-21.5 2665,-0.5 2613,-0.5"/>
<text text-anchor="middle" x="2639" y="-8.5" font-family="Helvetica,sans-Serif" font-size="10.00">sstream</text>
</g>
<!-- Node1&#45;&gt;Node48 -->
<g id="edge302" class="edge"><title>Node1&#45;&gt;Node48</title>
<path fill="none" stroke="midnightblue" d="M1514.9,-539.775C1756.62,-538.596 2574.56,-531.274 2832,-486 2931.26,-468.544 3048,-517.779 3048,-417 3048,-417 3048,-417 3048,-127 3048,-80.0464 3010.74,-77.437 2968,-58 2916.31,-34.495 2749.63,-19.351 2675.33,-13.6055"/>
<polygon fill="midnightblue" stroke="midnightblue" points="2675.3,-10.0931 2665.06,-12.8261 2674.77,-17.073 2675.3,-10.0931"/>
</g>
<!-- Node51 -->
<g id="node151" class="node"><title>Node51</title>
<polygon fill="white" stroke="#bfbfbf" points="2830,-116.5 2830,-137.5 2868,-137.5 2868,-116.5 2830,-116.5"/>
<text text-anchor="middle" x="2849" y="-124.5" font-family="Helvetica,sans-Serif" font-size="10.00">tuple</text>
</g>
<!-- Node1&#45;&gt;Node51 -->
<g id="edge298" class="edge"><title>Node1&#45;&gt;Node51</title>
<path fill="none" stroke="midnightblue" d="M1514.76,-537.995C1805.66,-528.949 2934,-489.208 2934,-417 2934,-417 2934,-417 2934,-243 2934,-201.054 2897.39,-164.203 2872.22,-143.826"/>
<polygon fill="midnightblue" stroke="midnightblue" points="2874.23,-140.955 2864.2,-137.563 2869.93,-146.474 2874.23,-140.955"/>
</g>
<!-- Node56 -->
<g id="node190" class="node"><title>Node56</title>
<polygon fill="white" stroke="#bfbfbf" points="1252.5,-348.5 1252.5,-369.5 1305.5,-369.5 1305.5,-348.5 1252.5,-348.5"/>
<text text-anchor="middle" x="1279" y="-356.5" font-family="Helvetica,sans-Serif" font-size="10.00">TMath.h</text>
</g>
<!-- Node1&#45;&gt;Node56 -->
<g id="edge296" class="edge"><title>Node1&#45;&gt;Node56</title>
<path fill="none" stroke="midnightblue" d="M1379.42,-523.783C1357.63,-515.614 1334.99,-503.57 1319,-486 1291.65,-455.948 1283,-407.288 1280.26,-379.743"/>
<polygon fill="midnightblue" stroke="midnightblue" points="1283.74,-379.344 1279.44,-369.664 1276.77,-379.917 1283.74,-379.344"/>
</g>
<!-- Node57 -->
<g id="node195" class="node"><title>Node57</title>
<a xlink:href="combinatorics_8h.html" target="_top" xlink:title="utils/combinatorics.h">
<polygon fill="white" stroke="black" points="-0.5,-464.5 -0.5,-485.5 106.5,-485.5 106.5,-464.5 -0.5,-464.5"/>
<text text-anchor="middle" x="53" y="-472.5" font-family="Helvetica,sans-Serif" font-size="10.00">utils/combinatorics.h</text>
</a>
</g>
<!-- Node1&#45;&gt;Node57 -->
<g id="edge276" class="edge"><title>Node1&#45;&gt;Node57</title>
<path fill="none" stroke="midnightblue" d="M1379.3,-538.339C1144.82,-532.417 368.162,-511.325 120,-486 118.915,-485.889 117.821,-485.772 116.721,-485.649"/>
<polygon fill="midnightblue" stroke="midnightblue" points="117.034,-482.162 106.68,-484.405 116.173,-489.108 117.034,-482.162"/>
</g>
<!-- Node58 -->
<g id="node198" class="node"><title>Node58</title>
<a xlink:href="matcher_8h.html" target="_top" xlink:title="utils/matcher.h">
<polygon fill="white" stroke="black" points="161.5,-232.5 161.5,-253.5 242.5,-253.5 242.5,-232.5 161.5,-232.5"/>
<text text-anchor="middle" x="202" y="-240.5" font-family="Helvetica,sans-Serif" font-size="10.00">utils/matcher.h</text>
</a>
</g>
<!-- Node1&#45;&gt;Node58 -->
<g id="edge280" class="edge"><title>Node1&#45;&gt;Node58</title>
<path fill="none" stroke="midnightblue" d="M1379.17,-537.239C1110.31,-525.857 134,-480.176 134,-417 134,-417 134,-417 134,-359 134,-319.878 163.142,-282.265 183.271,-260.951"/>
<polygon fill="midnightblue" stroke="midnightblue" points="185.965,-263.203 190.465,-253.612 180.965,-258.303 185.965,-263.203"/>
</g>
<!-- Node3 -->
<g id="node5" class="node"><title>Node3</title>
<a xlink:href="_physics_8h.html" target="_top" xlink:title="analysis/physics/Physics.h">
<polygon fill="white" stroke="black" points="451,-406.5 451,-427.5 587,-427.5 587,-406.5 451,-406.5"/>
<text text-anchor="middle" x="519" y="-414.5" font-family="Helvetica,sans-Serif" font-size="10.00">analysis/physics/Physics.h</text>
</a>
</g>
<!-- Node2&#45;&gt;Node3 -->
<g id="edge4" class="edge"><title>Node2&#45;&gt;Node3</title>
<path fill="none" stroke="midnightblue" d="M604.741,-464.362C588.534,-455.409 565.147,-442.491 546.891,-432.406"/>
<polygon fill="midnightblue" stroke="midnightblue" points="548.582,-429.342 538.137,-427.571 545.198,-435.47 548.582,-429.342"/>
</g>
<!-- Node4 -->
<g id="node7" class="node"><title>Node4</title>
<a xlink:href="_histogram_factories_8h.html" target="_top" xlink:title="analysis/plot/HistogramFactories.h">
<polygon fill="white" stroke="black" points="200,-348.5 200,-369.5 368,-369.5 368,-348.5 200,-348.5"/>
<text text-anchor="middle" x="284" y="-356.5" font-family="Helvetica,sans-Serif" font-size="10.00">analysis/plot/HistogramFactories.h</text>
</a>
</g>
<!-- Node2&#45;&gt;Node4 -->
<g id="edge260" class="edge"><title>Node2&#45;&gt;Node4</title>
<path fill="none" stroke="midnightblue" d="M576.251,-464.859C539.179,-456.462 486.731,-443.433 442,-428 396.484,-412.296 345.785,-389.084 314.388,-374"/>
<polygon fill="midnightblue" stroke="midnightblue" points="315.817,-370.803 305.291,-369.597 312.767,-377.104 315.817,-370.803"/>
</g>
<!-- Node5 -->
<g id="node9" class="node"><title>Node5</title>
<a xlink:href="_histogram_8h.html" target="_top" xlink:title="Histogram.h">
<polygon fill="white" stroke="black" points="260,-232.5 260,-253.5 330,-253.5 330,-232.5 260,-232.5"/>
<text text-anchor="middle" x="295" y="-240.5" font-family="Helvetica,sans-Serif" font-size="10.00">Histogram.h</text>
</a>
</g>
<!-- Node2&#45;&gt;Node5 -->
<g id="edge256" class="edge"><title>Node2&#45;&gt;Node5</title>
<path fill="none" stroke="midnightblue" d="M576.378,-470.924C473.692,-461.023 236.986,-431.837 191,-370 160.17,-328.543 225.16,-282.113 265.72,-258.544"/>
<polygon fill="midnightblue" stroke="midnightblue" points="267.473,-261.573 274.451,-253.6 264.024,-255.482 267.473,-261.573"/>
</g>
<!-- Node16 -->
<g id="node32" class="node"><title>Node16</title>
<a xlink:href="_smart_hist_8h.html" target="_top" xlink:title="SmartHist.h">
<polygon fill="white" stroke="black" points="870.5,-290.5 870.5,-311.5 939.5,-311.5 939.5,-290.5 870.5,-290.5"/>
<text text-anchor="middle" x="905" y="-298.5" font-family="Helvetica,sans-Serif" font-size="10.00">SmartHist.h</text>
</a>
</g>
<!-- Node2&#45;&gt;Node16 -->
<g id="edge258" class="edge"><title>Node2&#45;&gt;Node16</title>
<path fill="none" stroke="midnightblue" d="M641.155,-464.377C688.675,-434.952 822.241,-352.246 878.979,-317.113"/>
<polygon fill="midnightblue" stroke="midnightblue" points="881.053,-319.945 887.713,-311.705 877.368,-313.994 881.053,-319.945"/>
</g>
<!-- Node2&#45;&gt;Node17 -->
<g id="edge262" class="edge"><title>Node2&#45;&gt;Node17</title>
<path fill="none" stroke="midnightblue" d="M671.728,-467.277C746.349,-452.327 888.276,-411.647 948,-312 956.641,-297.583 955.213,-278.253 952.156,-263.72"/>
<polygon fill="midnightblue" stroke="midnightblue" points="955.471,-262.549 949.641,-253.703 948.682,-264.255 955.471,-262.549"/>
</g>
<!-- Node55 -->
<g id="node187" class="node"><title>Node55</title>
<a xlink:href="_a2_geo_acceptance_8h.html" target="_top" xlink:title="analysis/utils/A2GeoAcceptance.h">
<polygon fill="white" stroke="black" points="1100.5,-406.5 1100.5,-427.5 1267.5,-427.5 1267.5,-406.5 1100.5,-406.5"/>
<text text-anchor="middle" x="1184" y="-414.5" font-family="Helvetica,sans-Serif" font-size="10.00">analysis/utils/A2GeoAcceptance.h</text>
</a>
</g>
<!-- Node2&#45;&gt;Node55 -->
<g id="edge264" class="edge"><title>Node2&#45;&gt;Node55</title>
<path fill="none" stroke="midnightblue" d="M671.675,-470.347C755.641,-462.11 935.372,-444.293 1087,-428 1088.1,-427.882 1089.2,-427.763 1090.31,-427.644"/>
<polygon fill="midnightblue" stroke="midnightblue" points="1090.85,-431.106 1100.41,-426.543 1090.09,-424.147 1090.85,-431.106"/>
</g>
<!-- Node3&#45;&gt;Node4 -->
<g id="edge6" class="edge"><title>Node3&#45;&gt;Node4</title>
<path fill="none" stroke="midnightblue" d="M476.443,-406.497C437.137,-396.795 378.627,-382.355 336.448,-371.945"/>
<polygon fill="midnightblue" stroke="midnightblue" points="337.184,-368.521 326.637,-369.523 335.507,-375.317 337.184,-368.521"/>
</g>
<!-- Node8 -->
<g id="node15" class="node"><title>Node8</title>
<polygon fill="white" stroke="#bfbfbf" points="603.5,-0.5 603.5,-21.5 644.5,-21.5 644.5,-0.5 603.5,-0.5"/>
<text text-anchor="middle" x="624" y="-8.5" font-family="Helvetica,sans-Serif" font-size="10.00">string</text>
</g>
<!-- Node3&#45;&gt;Node8 -->
<g id="edge248" class="edge"><title>Node3&#45;&gt;Node8</title>
<path fill="none" stroke="midnightblue" d="M491.965,-406.363C475.717,-398.625 455.94,-386.587 444,-370 392.996,-299.146 393.89,-253.023 431,-174 465.114,-101.358 549.066,-49.2835 594.18,-25.4877"/>
<polygon fill="midnightblue" stroke="midnightblue" points="595.903,-28.5372 603.186,-20.8419 592.694,-22.3162 595.903,-28.5372"/>
</g>
<!-- Node18 -->
<g id="node38" class="node"><title>Node18</title>
<polygon fill="white" stroke="#bfbfbf" points="1455.5,-116.5 1455.5,-137.5 1484.5,-137.5 1484.5,-116.5 1455.5,-116.5"/>
<text text-anchor="middle" x="1470" y="-124.5" font-family="Helvetica,sans-Serif" font-size="10.00">list</text>
</g>
<!-- Node3&#45;&gt;Node18 -->
<g id="edge246" class="edge"><title>Node3&#45;&gt;Node18</title>
<path fill="none" stroke="midnightblue" d="M514.283,-406.432C510.379,-397.072 505.14,-382.926 503,-370 492.931,-309.18 477.848,-279.619 517,-232 521.894,-226.048 635.519,-175.85 643,-174 788.173,-138.095 1165.74,-147.294 1315,-138 1361.04,-135.133 1414.73,-131.188 1445.31,-128.885"/>
<polygon fill="midnightblue" stroke="midnightblue" points="1445.77,-132.36 1455.47,-128.115 1445.24,-125.38 1445.77,-132.36"/>
</g>
<!-- Node19 -->
<g id="node41" class="node"><title>Node19</title>
<polygon fill="white" stroke="#bfbfbf" points="765.5,-174.5 765.5,-195.5 800.5,-195.5 800.5,-174.5 765.5,-174.5"/>
<text text-anchor="middle" x="783" y="-182.5" font-family="Helvetica,sans-Serif" font-size="10.00">map</text>
</g>
<!-- Node3&#45;&gt;Node19 -->
<g id="edge250" class="edge"><title>Node3&#45;&gt;Node19</title>
<path fill="none" stroke="midnightblue" d="M520.725,-406.307C526.43,-374.541 547.692,-279.967 605,-232 616.621,-222.273 708.719,-201.163 755.673,-190.874"/>
<polygon fill="midnightblue" stroke="midnightblue" points="756.472,-194.282 765.498,-188.735 754.982,-187.442 756.472,-194.282"/>
</g>
<!-- Node20 -->
<g id="node43" class="node"><title>Node20</title>
<polygon fill="white" stroke="#bfbfbf" points="1354,-174.5 1354,-195.5 1406,-195.5 1406,-174.5 1354,-174.5"/>
<text text-anchor="middle" x="1380" y="-182.5" font-family="Helvetica,sans-Serif" font-size="10.00">memory</text>
</g>
<!-- Node3&#45;&gt;Node20 -->
<g id="edge252" class="edge"><title>Node3&#45;&gt;Node20</title>
<path fill="none" stroke="midnightblue" d="M587.013,-408.354C716.098,-390.452 1004,-343.335 1231,-254 1249.16,-246.854 1251.54,-240.71 1269,-232 1293.63,-219.714 1322.26,-207.645 1344.27,-198.814"/>
<polygon fill="midnightblue" stroke="midnightblue" points="1345.57,-202.063 1353.57,-195.116 1342.98,-195.558 1345.57,-202.063"/>
</g>
<!-- Node21 -->
<g id="node45" class="node"><title>Node21</title>
<polygon fill="white" stroke="#bfbfbf" points="651.5,-174.5 651.5,-195.5 710.5,-195.5 710.5,-174.5 651.5,-174.5"/>
<text text-anchor="middle" x="681" y="-182.5" font-family="Helvetica,sans-Serif" font-size="10.00">functional</text>
</g>
<!-- Node3&#45;&gt;Node21 -->
<g id="edge254" class="edge"><title>Node3&#45;&gt;Node21</title>
<path fill="none" stroke="midnightblue" d="M516.203,-406.36C508.783,-375.533 491.919,-284.993 534,-232 540.908,-223.301 600.547,-206.151 641.704,-195.148"/>
<polygon fill="midnightblue" stroke="midnightblue" points="642.698,-198.506 651.468,-192.56 640.905,-191.739 642.698,-198.506"/>
</g>
<!-- Node3&#45;&gt;Node41 -->
<g id="edge152" class="edge"><title>Node3&#45;&gt;Node41</title>
<path fill="none" stroke="midnightblue" d="M587.257,-413.84C806.329,-403.7 1489.97,-372.055 1705.93,-362.059"/>
<polygon fill="midnightblue" stroke="midnightblue" points="1706.33,-365.544 1716.15,-361.585 1706,-358.551 1706.33,-365.544"/>
</g>
<!-- Node53 -->
<g id="node169" class="node"><title>Node53</title>
<a xlink:href="_slowcontrol_8h.html" target="_top" xlink:title="analysis/data/Slowcontrol.h">
<polygon fill="white" stroke="black" points="1009.5,-116.5 1009.5,-137.5 1146.5,-137.5 1146.5,-116.5 1009.5,-116.5"/>
<text text-anchor="middle" x="1078" y="-124.5" font-family="Helvetica,sans-Serif" font-size="10.00">analysis/data/Slowcontrol.h</text>
</a>
</g>
<!-- Node3&#45;&gt;Node53 -->
<g id="edge232" class="edge"><title>Node3&#45;&gt;Node53</title>
<path fill="none" stroke="midnightblue" d="M496.646,-406.455C482.74,-398.56 466.026,-386.315 458,-370 430.928,-314.965 423.21,-282.512 458,-232 468.254,-217.113 592.409,-178.162 610,-174 681.834,-157.006 885.622,-140.573 999.159,-132.386"/>
<polygon fill="midnightblue" stroke="midnightblue" points="999.462,-135.873 1009.19,-131.667 998.962,-128.891 999.462,-135.873"/>
</g>
<!-- Node54 -->
<g id="node173" class="node"><title>Node54</title>
<a xlink:href="_options_list_8h.html" target="_top" xlink:title="base/OptionsList.h">
<polygon fill="white" stroke="black" points="614,-232.5 614,-253.5 712,-253.5 712,-232.5 614,-232.5"/>
<text text-anchor="middle" x="663" y="-240.5" font-family="Helvetica,sans-Serif" font-size="10.00">base/OptionsList.h</text>
</a>
</g>
<!-- Node3&#45;&gt;Node54 -->
<g id="edge238" class="edge"><title>Node3&#45;&gt;Node54</title>
<path fill="none" stroke="midnightblue" d="M529.121,-406.363C537.975,-396.959 551.088,-382.788 562,-370 594.061,-332.428 629.581,-286.75 648.783,-261.693"/>
<polygon fill="midnightblue" stroke="midnightblue" points="651.572,-263.808 654.863,-253.737 646.01,-259.558 651.572,-263.808"/>
</g>
<!-- Node4&#45;&gt;Node5 -->
<g id="edge8" class="edge"><title>Node4&#45;&gt;Node5</title>
<path fill="none" stroke="midnightblue" d="M285.015,-348.295C286.832,-329.131 290.671,-288.654 293.023,-263.843"/>
<polygon fill="midnightblue" stroke="midnightblue" points="296.528,-263.965 293.987,-253.679 289.559,-263.304 296.528,-263.965"/>
</g>
<!-- Node4&#45;&gt;Node8 -->
<g id="edge150" class="edge"><title>Node4&#45;&gt;Node8</title>
<path fill="none" stroke="midnightblue" d="M256.156,-348.437C211.501,-329.652 131.001,-287.169 153,-232 223.879,-54.2468 500.027,-19.3431 593.145,-12.5914"/>
<polygon fill="midnightblue" stroke="midnightblue" points="593.575,-16.0706 603.321,-11.9147 593.11,-9.08602 593.575,-16.0706"/>
</g>
<!-- Node4&#45;&gt;Node16 -->
<g id="edge32" class="edge"><title>Node4&#45;&gt;Node16</title>
<path fill="none" stroke="midnightblue" d="M368.074,-351.148C501.498,-338.686 757.16,-314.808 860.261,-305.179"/>
<polygon fill="midnightblue" stroke="midnightblue" points="860.701,-308.653 870.332,-304.238 860.05,-301.683 860.701,-308.653"/>
</g>
<!-- Node4&#45;&gt;Node29 -->
<g id="edge72" class="edge"><title>Node4&#45;&gt;Node29</title>
<path fill="none" stroke="midnightblue" d="M368.111,-355.47C619.906,-344.903 1364.56,-313.651 1596.33,-303.924"/>
<polygon fill="midnightblue" stroke="midnightblue" points="1596.48,-307.421 1606.33,-303.504 1596.19,-300.427 1596.48,-307.421"/>
</g>
<!-- Node6 -->
<g id="node11" class="node"><title>Node6</title>
<polygon fill="white" stroke="#bfbfbf" points="292,-174.5 292,-195.5 346,-195.5 346,-174.5 292,-174.5"/>
<text text-anchor="middle" x="319" y="-182.5" font-family="Helvetica,sans-Serif" font-size="10.00">TColor.h</text>
</g>
<!-- Node5&#45;&gt;Node6 -->
<g id="edge10" class="edge"><title>Node5&#45;&gt;Node6</title>
<path fill="none" stroke="midnightblue" d="M299.402,-232.362C302.582,-224.677 306.972,-214.069 310.79,-204.84"/>
<polygon fill="midnightblue" stroke="midnightblue" points="314.036,-206.149 314.626,-195.571 307.568,-203.473 314.036,-206.149"/>
</g>
<!-- Node7 -->
<g id="node13" class="node"><title>Node7</title>
<polygon fill="white" stroke="#bfbfbf" points="1528,-0.5 1528,-21.5 1572,-21.5 1572,-0.5 1528,-0.5"/>
<text text-anchor="middle" x="1550" y="-8.5" font-family="Helvetica,sans-Serif" font-size="10.00">vector</text>
</g>
<!-- Node5&#45;&gt;Node7 -->
<g id="edge12" class="edge"><title>Node5&#45;&gt;Node7</title>
<path fill="none" stroke="midnightblue" d="M311.873,-232.307C336.886,-216.961 385.733,-188.902 431,-174 844.501,-37.8712 1381.23,-15.2727 1517.47,-11.6623"/>
<polygon fill="midnightblue" stroke="midnightblue" points="1517.73,-15.1569 1527.64,-11.4089 1517.56,-8.15904 1517.73,-15.1569"/>
</g>
<!-- Node5&#45;&gt;Node8 -->
<g id="edge14" class="edge"><title>Node5&#45;&gt;Node8</title>
<path fill="none" stroke="midnightblue" d="M290.04,-232.061C284.492,-218.299 277.02,-194.04 283,-174 291.812,-144.469 296.696,-134.948 321,-116 405.734,-49.9394 534.91,-23.8077 593.366,-14.9458"/>
<polygon fill="midnightblue" stroke="midnightblue" points="594.037,-18.3852 603.432,-13.4864 593.033,-11.4576 594.037,-18.3852"/>
</g>
<!-- Node9 -->
<g id="node17" class="node"><title>Node9</title>
<a xlink:href="interval_8h.html" target="_top" xlink:title="base/interval.h">
<polygon fill="white" stroke="black" points="440,-174.5 440,-195.5 520,-195.5 520,-174.5 440,-174.5"/>
<text text-anchor="middle" x="480" y="-182.5" font-family="Helvetica,sans-Serif" font-size="10.00">base/interval.h</text>
</a>
</g>
<!-- Node5&#45;&gt;Node9 -->
<g id="edge16" class="edge"><title>Node5&#45;&gt;Node9</title>
<path fill="none" stroke="midnightblue" d="M328.502,-232.497C358.793,-223 403.57,-208.962 436.593,-198.609"/>
<polygon fill="midnightblue" stroke="midnightblue" points="437.94,-201.854 446.435,-195.523 435.846,-195.175 437.94,-201.854"/>
</g>
<!-- Node10 -->
<g id="node19" class="node"><title>Node10</title>
<polygon fill="white" stroke="#bfbfbf" points="389,-0.5 389,-21.5 445,-21.5 445,-0.5 389,-0.5"/>
<text text-anchor="middle" x="417" y="-8.5" font-family="Helvetica,sans-Serif" font-size="10.00">algorithm</text>
</g>
<!-- Node9&#45;&gt;Node10 -->
<g id="edge18" class="edge"><title>Node9&#45;&gt;Node10</title>
<path fill="none" stroke="midnightblue" d="M472.046,-174.365C458.921,-156.152 433.08,-117.334 422,-80 417.308,-64.1914 416.211,-45.4928 416.202,-31.5512"/>
<polygon fill="midnightblue" stroke="midnightblue" points="419.702,-31.597 416.38,-21.5363 412.703,-31.4724 419.702,-31.597"/>
</g>
<!-- Node11 -->
<g id="node21" class="node"><title>Node11</title>
<polygon fill="white" stroke="#bfbfbf" points="1956.5,-58.5 1956.5,-79.5 2015.5,-79.5 2015.5,-58.5 1956.5,-58.5"/>
<text text-anchor="middle" x="1986" y="-66.5" font-family="Helvetica,sans-Serif" font-size="10.00">stdexcept</text>
</g>
<!-- Node9&#45;&gt;Node11 -->
<g id="edge20" class="edge"><title>Node9&#45;&gt;Node11</title>
<path fill="none" stroke="midnightblue" d="M520.041,-176.484C524.737,-175.592 529.468,-174.742 534,-174 740.403,-140.212 792.616,-133.886 1001,-116 1367.2,-84.5685 1811.93,-72.8009 1945.93,-69.8213"/>
<polygon fill="midnightblue" stroke="midnightblue" points="1946.21,-73.3162 1956.13,-69.5984 1946.05,-66.3179 1946.21,-73.3162"/>
</g>
<!-- Node12 -->
<g id="node23" class="node"><title>Node12</title>
<a xlink:href="printable_8h.html" target="_top" xlink:title="printable.h">
<polygon fill="white" stroke="black" points="2097,-58.5 2097,-79.5 2159,-79.5 2159,-58.5 2097,-58.5"/>
<text text-anchor="middle" x="2128" y="-66.5" font-family="Helvetica,sans-Serif" font-size="10.00">printable.h</text>
</a>
</g>
<!-- Node9&#45;&gt;Node12 -->
<g id="edge22" class="edge"><title>Node9&#45;&gt;Node12</title>
<path fill="none" stroke="midnightblue" d="M520.1,-181.415C545.79,-179.165 579.848,-176.271 610,-174 852.064,-155.766 912.854,-155.119 1155,-138 1284.82,-128.822 1317.13,-124.538 1447,-116 1728.39,-97.4999 1804.63,-125.42 2086.58,-79.9337"/>
<polygon fill="midnightblue" stroke="midnightblue" points="2087.39,-83.3478 2096.7,-78.2844 2086.26,-76.439 2087.39,-83.3478"/>
</g>
<!-- Node14 -->
<g id="node28" class="node"><title>Node14</title>
<a xlink:href="types_8h.html" target="_top" xlink:title="types.h">
<polygon fill="white" stroke="black" points="1825.5,-116.5 1825.5,-137.5 1874.5,-137.5 1874.5,-116.5 1825.5,-116.5"/>
<text text-anchor="middle" x="1850" y="-124.5" font-family="Helvetica,sans-Serif" font-size="10.00">types.h</text>
</a>
</g>
<!-- Node9&#45;&gt;Node14 -->
<g id="edge28" class="edge"><title>Node9&#45;&gt;Node14</title>
<path fill="none" stroke="midnightblue" d="M520.172,-181.969C553.153,-179.558 601.082,-176.23 643,-174 1106.76,-149.327 1671.4,-132.17 1815.34,-127.989"/>
<polygon fill="midnightblue" stroke="midnightblue" points="1815.45,-131.487 1825.34,-127.699 1815.25,-124.49 1815.45,-131.487"/>
</g>
<!-- Node15 -->
<g id="node30" class="node"><title>Node15</title>
<polygon fill="white" stroke="#bfbfbf" points="330,-116.5 330,-137.5 370,-137.5 370,-116.5 330,-116.5"/>
<text text-anchor="middle" x="350" y="-124.5" font-family="Helvetica,sans-Serif" font-size="10.00">limits</text>
</g>
<!-- Node9&#45;&gt;Node15 -->
<g id="edge30" class="edge"><title>Node9&#45;&gt;Node15</title>
<path fill="none" stroke="midnightblue" d="M456.458,-174.497C434.946,-164.899 403.037,-150.663 379.765,-140.28"/>
<polygon fill="midnightblue" stroke="midnightblue" points="380.933,-136.969 370.375,-136.09 378.081,-143.361 380.933,-136.969"/>
</g>
<!-- Node12&#45;&gt;Node7 -->
<g id="edge24" class="edge"><title>Node12&#45;&gt;Node7</title>
<path fill="none" stroke="midnightblue" d="M2096.68,-59.8097C2093.76,-59.1282 2090.84,-58.5094 2088,-58 1898.37,-23.933 1666.52,-14.2737 1582.42,-11.7884"/>
<polygon fill="midnightblue" stroke="midnightblue" points="1582.32,-8.28433 1572.23,-11.5014 1582.12,-15.2816 1582.32,-8.28433"/>
</g>
<!-- Node13 -->
<g id="node26" class="node"><title>Node13</title>
<polygon fill="white" stroke="#bfbfbf" points="2102,-0.5 2102,-21.5 2154,-21.5 2154,-0.5 2102,-0.5"/>
<text text-anchor="middle" x="2128" y="-8.5" font-family="Helvetica,sans-Serif" font-size="10.00">ostream</text>
</g>
<!-- Node12&#45;&gt;Node13 -->
<g id="edge26" class="edge"><title>Node12&#45;&gt;Node13</title>
<path fill="none" stroke="midnightblue" d="M2128,-58.3619C2128,-50.9219 2128,-40.7427 2128,-31.7276"/>
<polygon fill="midnightblue" stroke="midnightblue" points="2131.5,-31.5706 2128,-21.5707 2124.5,-31.5707 2131.5,-31.5706"/>
</g>
<!-- Node16&#45;&gt;Node5 -->
<g id="edge34" class="edge"><title>Node16&#45;&gt;Node5</title>
<path fill="none" stroke="midnightblue" d="M870.456,-297.715C766.602,-287.841 457.178,-258.42 340.343,-247.311"/>
<polygon fill="midnightblue" stroke="midnightblue" points="340.588,-243.819 330.302,-246.357 339.926,-250.788 340.588,-243.819"/>
</g>
<!-- Node16&#45;&gt;Node8 -->
<g id="edge66" class="edge"><title>Node16&#45;&gt;Node8</title>
<path fill="none" stroke="midnightblue" d="M870.446,-300.163C800.112,-297.749 643.689,-288.537 605,-254 581.271,-232.818 586,-216.808 586,-185 586,-185 586,-185 586,-127 586,-91.7411 602.051,-53.3154 613.289,-30.7323"/>
<polygon fill="midnightblue" stroke="midnightblue" points="616.418,-32.3005 617.895,-21.809 610.198,-29.0901 616.418,-32.3005"/>
</g>
<!-- Node16&#45;&gt;Node17 -->
<g id="edge36" class="edge"><title>Node16&#45;&gt;Node17</title>
<path fill="none" stroke="midnightblue" d="M912.52,-290.362C918.126,-282.431 925.932,-271.389 932.597,-261.961"/>
<polygon fill="midnightblue" stroke="midnightblue" points="935.613,-263.757 938.528,-253.571 929.897,-259.716 935.613,-263.757"/>
</g>
<!-- Node16&#45;&gt;Node20 -->
<g id="edge64" class="edge"><title>Node16&#45;&gt;Node20</title>
<path fill="none" stroke="midnightblue" d="M939.882,-296.989C984.097,-291.136 1062.13,-278.214 1125,-254 1143.21,-246.986 1144.8,-239.04 1163,-232 1224.24,-208.314 1300.06,-195.34 1343.94,-189.309"/>
<polygon fill="midnightblue" stroke="midnightblue" points="1344.41,-192.778 1353.86,-187.991 1343.48,-185.839 1344.41,-192.778"/>
</g>
<!-- Node23 -->
<g id="node49" class="node"><title>Node23</title>
<a xlink:href="memory_8h.html" target="_top" xlink:title="base/std_ext/memory.h">
<polygon fill="white" stroke="black" points="997.5,-232.5 997.5,-253.5 1116.5,-253.5 1116.5,-232.5 997.5,-232.5"/>
<text text-anchor="middle" x="1057" y="-240.5" font-family="Helvetica,sans-Serif" font-size="10.00">base/std_ext/memory.h</text>
</a>
</g>
<!-- Node16&#45;&gt;Node23 -->
<g id="edge52" class="edge"><title>Node16&#45;&gt;Node23</title>
<path fill="none" stroke="midnightblue" d="M932.526,-290.497C956.984,-281.164 992.938,-267.445 1019.92,-257.147"/>
<polygon fill="midnightblue" stroke="midnightblue" points="1021.33,-260.358 1029.42,-253.523 1018.83,-253.818 1021.33,-260.358"/>
</g>
<!-- Node24 -->
<g id="node53" class="node"><title>Node24</title>
<polygon fill="white" stroke="#bfbfbf" points="767.5,-232.5 767.5,-253.5 818.5,-253.5 818.5,-232.5 767.5,-232.5"/>
<text text-anchor="middle" x="793" y="-240.5" font-family="Helvetica,sans-Serif" font-size="10.00">TH1D.h</text>
</g>
<!-- Node16&#45;&gt;Node24 -->
<g id="edge58" class="edge"><title>Node16&#45;&gt;Node24</title>
<path fill="none" stroke="midnightblue" d="M884.718,-290.497C867.382,-281.519 842.21,-268.484 822.62,-258.339"/>
<polygon fill="midnightblue" stroke="midnightblue" points="823.999,-255.112 813.51,-253.621 820.78,-261.328 823.999,-255.112"/>
</g>
<!-- Node16&#45;&gt;Node25 -->
<g id="edge60" class="edge"><title>Node16&#45;&gt;Node25</title>
<path fill="none" stroke="midnightblue" d="M939.581,-295.603C988.495,-287.737 1080.56,-272.074 1158,-254 1159.23,-253.712 1160.49,-253.41 1161.75,-253.098"/>
<polygon fill="midnightblue" stroke="midnightblue" points="1162.7,-256.467 1171.49,-250.554 1160.93,-249.694 1162.7,-256.467"/>
</g>
<!-- Node16&#45;&gt;Node26 -->
<g id="edge62" class="edge"><title>Node16&#45;&gt;Node26</title>
<path fill="none" stroke="midnightblue" d="M939.752,-296.088C999.364,-287.639 1124.95,-269.746 1231,-254 1242.78,-252.251 1255.63,-250.3 1267.18,-248.533"/>
<polygon fill="midnightblue" stroke="midnightblue" points="1268,-251.949 1277.35,-246.972 1266.93,-245.03 1268,-251.949"/>
</g>
<!-- Node27 -->
<g id="node61" class="node"><title>Node27</title>
<polygon fill="white" stroke="#bfbfbf" points="1346,-232.5 1346,-253.5 1400,-253.5 1400,-232.5 1346,-232.5"/>
<text text-anchor="middle" x="1373" y="-240.5" font-family="Helvetica,sans-Serif" font-size="10.00">iostream</text>
</g>
<!-- Node16&#45;&gt;Node27 -->
<g id="edge68" class="edge"><title>Node16&#45;&gt;Node27</title>
<path fill="none" stroke="midnightblue" d="M939.501,-299.452C1011.59,-295.748 1183.45,-284.46 1335.63,-253.983"/>
<polygon fill="midnightblue" stroke="midnightblue" points="1336.52,-257.373 1345.62,-251.947 1335.12,-250.513 1336.52,-257.373"/>
</g>
<!-- Node28 -->
<g id="node63" class="node"><title>Node28</title>
<polygon fill="white" stroke="#bfbfbf" points="835.5,-232.5 835.5,-253.5 894.5,-253.5 894.5,-232.5 835.5,-232.5"/>
<text text-anchor="middle" x="865" y="-240.5" font-family="Helvetica,sans-Serif" font-size="10.00">exception</text>
</g>
<!-- Node16&#45;&gt;Node28 -->
<g id="edge70" class="edge"><title>Node16&#45;&gt;Node28</title>
<path fill="none" stroke="midnightblue" d="M897.663,-290.362C892.194,-282.431 884.578,-271.389 878.076,-261.961"/>
<polygon fill="midnightblue" stroke="midnightblue" points="880.849,-259.816 872.29,-253.571 875.086,-263.79 880.849,-259.816"/>
</g>
<!-- Node17&#45;&gt;Node7 -->
<g id="edge42" class="edge"><title>Node17&#45;&gt;Node7</title>
<path fill="none" stroke="midnightblue" d="M973.522,-232.429C1072.9,-194.257 1412.88,-63.6679 1518.46,-23.1139"/>
<polygon fill="midnightblue" stroke="midnightblue" points="1519.85,-26.3294 1527.93,-19.4765 1517.34,-19.7949 1519.85,-26.3294"/>
</g>
<!-- Node17&#45;&gt;Node8 -->
<g id="edge38" class="edge"><title>Node17&#45;&gt;Node8</title>
<path fill="none" stroke="midnightblue" d="M931.328,-232.429C880.2,-195.591 709.61,-72.6815 647.161,-27.6871"/>
<polygon fill="midnightblue" stroke="midnightblue" points="648.918,-24.6395 638.759,-21.6335 644.826,-30.319 648.918,-24.6395"/>
</g>
<!-- Node17&#45;&gt;Node18 -->
<g id="edge40" class="edge"><title>Node17&#45;&gt;Node18</title>
<path fill="none" stroke="midnightblue" d="M980.215,-234.012C983.18,-233.305 986.139,-232.624 989,-232 1076.82,-212.85 1102.25,-222.936 1188,-196 1210.39,-188.967 1213.68,-181.248 1236,-174 1310.32,-149.865 1402.13,-135.783 1445.33,-130.04"/>
<polygon fill="midnightblue" stroke="midnightblue" points="1445.99,-133.484 1455.46,-128.729 1445.09,-126.542 1445.99,-133.484"/>
</g>
<!-- Node17&#45;&gt;Node19 -->
<g id="edge44" class="edge"><title>Node17&#45;&gt;Node19</title>
<path fill="none" stroke="midnightblue" d="M916.482,-232.497C886.281,-221.75 839.737,-205.189 810.349,-194.732"/>
<polygon fill="midnightblue" stroke="midnightblue" points="811.32,-191.362 800.725,-191.307 808.973,-197.957 811.32,-191.362"/>
</g>
<!-- Node17&#45;&gt;Node20 -->
<g id="edge46" class="edge"><title>Node17&#45;&gt;Node20</title>
<path fill="none" stroke="midnightblue" d="M980.178,-233.827C983.151,-233.16 986.122,-232.539 989,-232 1056.75,-219.319 1260.32,-197.458 1343.75,-188.744"/>
<polygon fill="midnightblue" stroke="midnightblue" points="1344.19,-192.217 1353.77,-187.7 1343.46,-185.255 1344.19,-192.217"/>
</g>
<!-- Node17&#45;&gt;Node21 -->
<g id="edge48" class="edge"><title>Node17&#45;&gt;Node21</title>
<path fill="none" stroke="midnightblue" d="M911.764,-234.105C908.804,-233.377 905.851,-232.666 903,-232 839.293,-217.115 764.821,-201.764 720.358,-192.815"/>
<polygon fill="midnightblue" stroke="midnightblue" points="721.026,-189.379 710.533,-190.844 719.649,-196.243 721.026,-189.379"/>
</g>
<!-- Node22 -->
<g id="node47" class="node"><title>Node22</title>
<polygon fill="white" stroke="#bfbfbf" points="2006,-116.5 2006,-137.5 2062,-137.5 2062,-116.5 2006,-116.5"/>
<text text-anchor="middle" x="2034" y="-124.5" font-family="Helvetica,sans-Serif" font-size="10.00">Rtypes.h</text>
</g>
<!-- Node17&#45;&gt;Node22 -->
<g id="edge50" class="edge"><title>Node17&#45;&gt;Node22</title>
<path fill="none" stroke="midnightblue" d="M980.197,-233.924C983.166,-233.236 986.131,-232.583 989,-232 1093.41,-210.771 1121.59,-217.229 1226,-196 1264.66,-188.139 1273.03,-180.157 1312,-174 1563.17,-134.316 1629.3,-155.238 1883,-138 1921.35,-135.394 1965.17,-132.175 1995.69,-129.895"/>
<polygon fill="midnightblue" stroke="midnightblue" points="1996.19,-133.367 2005.9,-129.13 1995.66,-126.387 1996.19,-133.367"/>
</g>
<!-- Node23&#45;&gt;Node18 -->
<g id="edge56" class="edge"><title>Node23&#45;&gt;Node18</title>
<path fill="none" stroke="midnightblue" d="M1095.27,-232.407C1129.53,-222.912 1181.14,-208.582 1226,-196 1306.47,-173.432 1401.78,-146.39 1445.66,-133.92"/>
<polygon fill="midnightblue" stroke="midnightblue" points="1446.77,-137.245 1455.43,-131.144 1444.85,-130.511 1446.77,-137.245"/>
</g>
<!-- Node23&#45;&gt;Node20 -->
<g id="edge54" class="edge"><title>Node23&#45;&gt;Node20</title>
<path fill="none" stroke="midnightblue" d="M1115.49,-232.497C1181.93,-220.567 1288.28,-201.47 1343.72,-191.514"/>
<polygon fill="midnightblue" stroke="midnightblue" points="1344.56,-194.92 1353.78,-189.708 1343.32,-188.03 1344.56,-194.92"/>
</g>
<!-- Node29&#45;&gt;Node7 -->
<g id="edge142" class="edge"><title>Node29&#45;&gt;Node7</title>
<path fill="none" stroke="midnightblue" d="M1661.06,-290.358C1641.27,-247.728 1568.64,-91.0703 1565,-80 1559.8,-64.1951 1555.9,-45.755 1553.38,-31.916"/>
<polygon fill="midnightblue" stroke="midnightblue" points="1556.81,-31.2004 1551.66,-21.942 1549.91,-32.3918 1556.81,-31.2004"/>
</g>
<!-- Node29&#45;&gt;Node12 -->
<g id="edge114" class="edge"><title>Node29&#45;&gt;Node12</title>
<path fill="none" stroke="midnightblue" d="M1725.55,-293.239C1771.75,-285.852 1830.33,-273.017 1845,-254 1883.22,-204.445 1775.76,-163.077 1817,-116 1855.15,-72.4435 2012.68,-90.1886 2086.41,-79.8018"/>
<polygon fill="midnightblue" stroke="midnightblue" points="2087.39,-83.1859 2096.65,-78.0546 2086.21,-76.2855 2087.39,-83.1859"/>
</g>
<!-- Node29&#45;&gt;Node14 -->
<g id="edge116" class="edge"><title>Node29&#45;&gt;Node14</title>
<path fill="none" stroke="midnightblue" d="M1725.64,-295.995C1781.52,-289.922 1859.18,-277.447 1878,-254 1894.98,-232.845 1867.21,-221.852 1859,-196 1853.98,-180.192 1851.75,-161.494 1850.77,-147.552"/>
<polygon fill="midnightblue" stroke="midnightblue" points="1854.26,-147.329 1850.22,-137.537 1847.27,-147.714 1854.26,-147.329"/>
</g>
<!-- Node29&#45;&gt;Node18 -->
<g id="edge144" class="edge"><title>Node29&#45;&gt;Node18</title>
<path fill="none" stroke="midnightblue" d="M1659.42,-290.433C1649.83,-275.744 1630.78,-249.043 1609,-232 1579.88,-209.216 1563.76,-217.94 1534,-196 1514.43,-181.574 1495.99,-160.607 1483.97,-145.577"/>
<polygon fill="midnightblue" stroke="midnightblue" points="1486.59,-143.242 1477.68,-137.507 1481.07,-147.546 1486.59,-143.242"/>
</g>
<!-- Node29&#45;&gt;Node20 -->
<g id="edge148" class="edge"><title>Node29&#45;&gt;Node20</title>
<path fill="none" stroke="midnightblue" d="M1628.69,-290.472C1599.49,-281.821 1558.09,-268.64 1523,-254 1503.19,-245.735 1499.27,-241.456 1480,-232 1457.5,-220.963 1431.93,-208.952 1412.28,-199.835"/>
<polygon fill="midnightblue" stroke="midnightblue" points="1413.69,-196.632 1403.14,-195.609 1410.75,-202.985 1413.69,-196.632"/>
</g>
<!-- Node29&#45;&gt;Node27 -->
<g id="edge146" class="edge"><title>Node29&#45;&gt;Node27</title>
<path fill="none" stroke="midnightblue" d="M1612.94,-290.497C1554.31,-278.891 1461.42,-260.503 1410.11,-250.347"/>
<polygon fill="midnightblue" stroke="midnightblue" points="1410.61,-246.878 1400.13,-248.37 1409.26,-253.745 1410.61,-246.878"/>
</g>
<!-- Node29&#45;&gt;Node30 -->
<g id="edge74" class="edge"><title>Node29&#45;&gt;Node30</title>
<path fill="none" stroke="midnightblue" d="M1725.68,-298.779C1855.46,-293.64 2173.01,-279.386 2438,-254 2440.88,-253.724 2443.82,-253.425 2446.78,-253.109"/>
<polygon fill="midnightblue" stroke="midnightblue" points="2447.38,-256.564 2456.93,-251.974 2446.6,-249.607 2447.38,-256.564"/>
</g>
<!-- Node37 -->
<g id="node96" class="node"><title>Node37</title>
<a xlink:href="_particle_type_8h.html" target="_top" xlink:title="base/ParticleType.h">
<polygon fill="white" stroke="black" points="1732,-232.5 1732,-253.5 1836,-253.5 1836,-232.5 1732,-232.5"/>
<text text-anchor="middle" x="1784" y="-240.5" font-family="Helvetica,sans-Serif" font-size="10.00">base/ParticleType.h</text>
</a>
</g>
<!-- Node29&#45;&gt;Node37 -->
<g id="edge118" class="edge"><title>Node29&#45;&gt;Node37</title>
<path fill="none" stroke="midnightblue" d="M1687.37,-290.497C1705.8,-281.438 1732.64,-268.246 1753.36,-258.063"/>
<polygon fill="midnightblue" stroke="midnightblue" points="1754.96,-261.174 1762.39,-253.621 1751.87,-254.891 1754.96,-261.174"/>
</g>
<!-- Node39 -->
<g id="node105" class="node"><title>Node39</title>
<a xlink:href="_tree_8h.html" target="_top" xlink:title="base/Tree.h">
<polygon fill="white" stroke="black" points="1532,-232.5 1532,-253.5 1600,-253.5 1600,-232.5 1532,-232.5"/>
<text text-anchor="middle" x="1566" y="-240.5" font-family="Helvetica,sans-Serif" font-size="10.00">base/Tree.h</text>
</a>
</g>
<!-- Node29&#45;&gt;Node39 -->
<g id="edge132" class="edge"><title>Node29&#45;&gt;Node39</title>
<path fill="none" stroke="midnightblue" d="M1647.66,-290.362C1632.43,-281.532 1610.56,-268.844 1593.28,-258.822"/>
<polygon fill="midnightblue" stroke="midnightblue" points="1594.63,-255.56 1584.23,-253.571 1591.12,-261.615 1594.63,-255.56"/>
</g>
<!-- Node40 -->
<g id="node110" class="node"><title>Node40</title>
<polygon fill="white" stroke="#bfbfbf" points="1868,-174.5 1868,-195.5 1960,-195.5 1960,-174.5 1868,-174.5"/>
<text text-anchor="middle" x="1914" y="-182.5" font-family="Helvetica,sans-Serif" font-size="10.00">TLorentzVector.h</text>
</g>
<!-- Node29&#45;&gt;Node40 -->
<g id="edge140" class="edge"><title>Node29&#45;&gt;Node40</title>
<path fill="none" stroke="midnightblue" d="M1725.62,-298.298C1791.75,-293.905 1892.28,-282.595 1916,-254 1926.96,-240.788 1925.03,-220.76 1921.2,-205.679"/>
<polygon fill="midnightblue" stroke="midnightblue" points="1924.45,-204.323 1918.24,-195.741 1917.74,-206.324 1924.45,-204.323"/>
</g>
<!-- Node30&#45;&gt;Node7 -->
<g id="edge112" class="edge"><title>Node30&#45;&gt;Node7</title>
<path fill="none" stroke="midnightblue" d="M2587.21,-235.418C2656.47,-226.743 2760.97,-211.7 2798,-196 2844.01,-176.496 2903.95,-158.078 2877,-116 2843.75,-64.0883 2810.95,-72.3698 2751,-58 2634.67,-30.1159 1763.08,-14.4745 1582.64,-11.5166"/>
<polygon fill="midnightblue" stroke="midnightblue" points="1582.51,-8.01424 1572.45,-11.3512 1582.4,-15.0133 1582.51,-8.01424"/>
</g>
<!-- Node30&#45;&gt;Node12 -->
<g id="edge76" class="edge"><title>Node30&#45;&gt;Node12</title>
<path fill="none" stroke="midnightblue" d="M2579.34,-232.476C2662.51,-214.893 2800.9,-175.502 2745,-116 2702.73,-71.0143 2267.4,-89.0056 2169.52,-79.5596"/>
<polygon fill="midnightblue" stroke="midnightblue" points="2169.67,-76.0502 2159.31,-78.2656 2168.79,-82.9947 2169.67,-76.0502"/>
</g>
<!-- Node30&#45;&gt;Node13 -->
<g id="edge108" class="edge"><title>Node30&#45;&gt;Node13</title>
<path fill="none" stroke="midnightblue" d="M2587.1,-238.267C2673.75,-231.283 2821.87,-216.763 2872,-196 2936.69,-169.206 2996.07,-108.908 2948,-58 2920.75,-29.1453 2320.6,-14.9295 2164.72,-11.7158"/>
<polygon fill="midnightblue" stroke="midnightblue" points="2164.35,-8.20758 2154.28,-11.5034 2164.21,-15.2061 2164.35,-8.20758"/>
</g>
<!-- Node30&#45;&gt;Node14 -->
<g id="edge78" class="edge"><title>Node30&#45;&gt;Node14</title>
<path fill="none" stroke="midnightblue" d="M2468.77,-232.467C2397.3,-218.45 2266.29,-193.202 2154,-174 2056.82,-157.382 1941.72,-140.291 1885.07,-132.05"/>
<polygon fill="midnightblue" stroke="midnightblue" points="1885.27,-128.542 1874.87,-130.57 1884.26,-135.47 1885.27,-128.542"/>
</g>
<!-- Node30&#45;&gt;Node20 -->
<g id="edge110" class="edge"><title>Node30&#45;&gt;Node20</title>
<path fill="none" stroke="midnightblue" d="M2456.94,-233.92C2450.55,-233.197 2444.15,-232.539 2438,-232 2386.09,-227.456 1596.14,-194.09 1416.26,-186.523"/>
<polygon fill="midnightblue" stroke="midnightblue" points="1416.15,-183.016 1406.01,-186.092 1415.86,-190.009 1416.15,-183.016"/>
</g>
<!-- Node31 -->
<g id="node71" class="node"><title>Node31</title>
<a xlink:href="_detector__t_8h.html" target="_top" xlink:title="base/Detector_t.h">
<polygon fill="white" stroke="black" points="2495.5,-116.5 2495.5,-137.5 2590.5,-137.5 2590.5,-116.5 2495.5,-116.5"/>
<text text-anchor="middle" x="2543" y="-124.5" font-family="Helvetica,sans-Serif" font-size="10.00">base/Detector_t.h</text>
</a>
</g>
<!-- Node30&#45;&gt;Node31 -->
<g id="edge80" class="edge"><title>Node30&#45;&gt;Node31</title>
<path fill="none" stroke="midnightblue" d="M2523.94,-232.295C2527.41,-213.131 2534.74,-172.654 2539.23,-147.843"/>
<polygon fill="midnightblue" stroke="midnightblue" points="2542.73,-148.143 2541.07,-137.679 2535.84,-146.896 2542.73,-148.143"/>
</g>
<!-- Node30&#45;&gt;Node32 -->
<g id="edge106" class="edge"><title>Node30&#45;&gt;Node32</title>
<path fill="none" stroke="midnightblue" d="M2587,-240.263C2654.69,-235.887 2754.14,-224.642 2778,-196 2800.76,-168.683 2794.51,-147.488 2778,-116 2770.92,-102.5 2758.01,-92.1118 2745.32,-84.5768"/>
<polygon fill="midnightblue" stroke="midnightblue" points="2746.67,-81.3217 2736.21,-79.5907 2743.31,-87.4621 2746.67,-81.3217"/>
</g>
<!-- Node35 -->
<g id="node83" class="node"><title>Node35</title>
<a xlink:href="_cluster_8h.html" target="_top" xlink:title="analysis/data/Cluster.h">
<polygon fill="white" stroke="black" points="2549.5,-174.5 2549.5,-195.5 2666.5,-195.5 2666.5,-174.5 2549.5,-174.5"/>
<text text-anchor="middle" x="2608" y="-182.5" font-family="Helvetica,sans-Serif" font-size="10.00">analysis/data/Cluster.h</text>
</a>
</g>
<!-- Node30&#45;&gt;Node35 -->
<g id="edge96" class="edge"><title>Node30&#45;&gt;Node35</title>
<path fill="none" stroke="midnightblue" d="M2537.77,-232.362C2550.62,-223.696 2568.98,-211.313 2583.71,-201.382"/>
<polygon fill="midnightblue" stroke="midnightblue" points="2585.99,-204.064 2592.33,-195.571 2582.08,-198.26 2585.99,-204.064"/>
</g>
<!-- Node31&#45;&gt;Node7 -->
<g id="edge94" class="edge"><title>Node31&#45;&gt;Node7</title>
<path fill="none" stroke="midnightblue" d="M2544.42,-116.413C2545.84,-100.936 2545.79,-72.4094 2529,-58 2492.28,-26.4833 1747.64,-13.8646 1582.32,-11.4459"/>
<polygon fill="midnightblue" stroke="midnightblue" points="1582.34,-7.94577 1572.29,-11.3012 1582.23,-14.945 1582.34,-7.94577"/>
</g>
<!-- Node31&#45;&gt;Node8 -->
<g id="edge90" class="edge"><title>Node31&#45;&gt;Node8</title>
<path fill="none" stroke="midnightblue" d="M2539.4,-116.464C2533.3,-100.498 2519.29,-70.6923 2496,-58 2453.83,-35.0182 893.651,-14.4075 654.597,-11.3814"/>
<polygon fill="midnightblue" stroke="midnightblue" points="654.565,-7.8808 644.522,-11.2544 654.477,-14.8802 654.565,-7.8808"/>
</g>
<!-- Node31&#45;&gt;Node11 -->
<g id="edge88" class="edge"><title>Node31&#45;&gt;Node11</title>
<path fill="none" stroke="midnightblue" d="M2495.21,-121.108C2480.41,-119.364 2464.04,-117.517 2449,-116 2263.61,-97.3062 2212.14,-113.934 2025.59,-80.0247"/>
<polygon fill="midnightblue" stroke="midnightblue" points="2026.21,-76.579 2015.74,-78.2097 2024.94,-83.4632 2026.21,-76.579"/>
</g>
<!-- Node31&#45;&gt;Node12 -->
<g id="edge82" class="edge"><title>Node31&#45;&gt;Node12</title>
<path fill="none" stroke="midnightblue" d="M2495.34,-121.415C2407.79,-111.103 2225.82,-89.406 2169.4,-79.9096"/>
<polygon fill="midnightblue" stroke="midnightblue" points="2169.81,-76.4269 2159.34,-78.0768 2168.55,-83.3134 2169.81,-76.4269"/>
</g>
<!-- Node31&#45;&gt;Node32 -->
<g id="edge84" class="edge"><title>Node31&#45;&gt;Node32</title>
<path fill="none" stroke="midnightblue" d="M2573.24,-116.497C2600.35,-107.082 2640.31,-93.2036 2670.04,-82.8773"/>
<polygon fill="midnightblue" stroke="midnightblue" points="2671.4,-86.1102 2679.7,-79.5231 2669.11,-79.4977 2671.4,-86.1102"/>
</g>
<!-- Node33 -->
<g id="node76" class="node"><title>Node33</title>
<polygon fill="white" stroke="#bfbfbf" points="2033,-58.5 2033,-79.5 2079,-79.5 2079,-58.5 2033,-58.5"/>
<text text-anchor="middle" x="2056" y="-66.5" font-family="Helvetica,sans-Serif" font-size="10.00">cstdint</text>
</g>
<!-- Node31&#45;&gt;Node33 -->
<g id="edge86" class="edge"><title>Node31&#45;&gt;Node33</title>
<path fill="none" stroke="midnightblue" d="M2495.2,-121.246C2480.4,-119.507 2464.03,-117.629 2449,-116 2291.99,-98.9853 2247.34,-113.804 2089.32,-79.8819"/>
<polygon fill="midnightblue" stroke="midnightblue" points="2089.76,-76.3955 2079.24,-77.6864 2088.27,-83.2351 2089.76,-76.3955"/>
</g>
<!-- Node34 -->
<g id="node80" class="node"><title>Node34</title>
<polygon fill="white" stroke="#bfbfbf" points="2425,-58.5 2425,-79.5 2487,-79.5 2487,-58.5 2425,-58.5"/>
<text text-anchor="middle" x="2456" y="-66.5" font-family="Helvetica,sans-Serif" font-size="10.00">type_traits</text>
</g>
<!-- Node31&#45;&gt;Node34 -->
<g id="edge92" class="edge"><title>Node31&#45;&gt;Node34</title>
<path fill="none" stroke="midnightblue" d="M2527.04,-116.362C2514.04,-107.696 2495.47,-95.3126 2480.57,-85.3819"/>
<polygon fill="midnightblue" stroke="midnightblue" points="2482.12,-82.2055 2471.86,-79.5707 2478.24,-88.0299 2482.12,-82.2055"/>
</g>
<!-- Node35&#45;&gt;Node18 -->
<g id="edge100" class="edge"><title>Node35&#45;&gt;Node18</title>
<path fill="none" stroke="midnightblue" d="M2549.08,-181.705C2509.02,-179.481 2454.81,-176.507 2407,-174 2044.5,-154.99 1603.03,-133.459 1494.81,-128.203"/>
<polygon fill="midnightblue" stroke="midnightblue" points="1494.75,-124.696 1484.59,-127.707 1494.41,-131.688 1494.75,-124.696"/>
</g>
<!-- Node35&#45;&gt;Node31 -->
<g id="edge98" class="edge"><title>Node35&#45;&gt;Node31</title>
<path fill="none" stroke="midnightblue" d="M2596.08,-174.362C2586.64,-165.941 2573.27,-154.011 2562.31,-144.231"/>
<polygon fill="midnightblue" stroke="midnightblue" points="2564.64,-141.617 2554.85,-137.571 2559.98,-146.84 2564.64,-141.617"/>
</g>
<!-- Node35&#45;&gt;Node32 -->
<g id="edge102" class="edge"><title>Node35&#45;&gt;Node32</title>
<path fill="none" stroke="midnightblue" d="M2610.42,-174.128C2614.1,-159.561 2622.3,-133.516 2637,-116 2647.97,-102.931 2663.51,-92.2296 2677.44,-84.3577"/>
<polygon fill="midnightblue" stroke="midnightblue" points="2679.14,-87.4155 2686.29,-79.5968 2675.83,-81.2503 2679.14,-87.4155"/>
</g>
<!-- Node36 -->
<g id="node88" class="node"><title>Node36</title>
<a xlink:href="enumfield_8h.html" target="_top" xlink:title="base/enumfield.h">
<polygon fill="white" stroke="black" points="2645.5,-116.5 2645.5,-137.5 2736.5,-137.5 2736.5,-116.5 2645.5,-116.5"/>
<text text-anchor="middle" x="2691" y="-124.5" font-family="Helvetica,sans-Serif" font-size="10.00">base/enumfield.h</text>
</a>
</g>
<!-- Node35&#45;&gt;Node36 -->
<g id="edge104" class="edge"><title>Node35&#45;&gt;Node36</title>
<path fill="none" stroke="midnightblue" d="M2623.22,-174.362C2635.63,-165.696 2653.35,-153.313 2667.56,-143.382"/>
<polygon fill="midnightblue" stroke="midnightblue" points="2669.68,-146.168 2675.87,-137.571 2665.67,-140.43 2669.68,-146.168"/>
</g>
<!-- Node37&#45;&gt;Node7 -->
<g id="edge130" class="edge"><title>Node37&#45;&gt;Node7</title>
<path fill="none" stroke="midnightblue" d="M1731.89,-235.635C1702.95,-229.271 1667.88,-217.529 1643,-196 1615.94,-172.584 1574.72,-73.7038 1557.73,-30.8944"/>
<polygon fill="midnightblue" stroke="midnightblue" points="1560.97,-29.5469 1554.05,-21.5225 1554.45,-32.1096 1560.97,-29.5469"/>
</g>
<!-- Node37&#45;&gt;Node8 -->
<g id="edge122" class="edge"><title>Node37&#45;&gt;Node8</title>
<path fill="none" stroke="midnightblue" d="M1734.93,-232.462C1702.15,-224.537 1658.52,-212.254 1622,-196 1560.37,-168.569 1556.65,-138.35 1493,-116 1332.81,-59.7518 790.204,-21.7003 654.807,-12.9329"/>
<polygon fill="midnightblue" stroke="midnightblue" points="654.922,-9.43321 644.718,-12.2853 654.474,-16.4188 654.922,-9.43321"/>
</g>
<!-- Node37&#45;&gt;Node13 -->
<g id="edge124" class="edge"><title>Node37&#45;&gt;Node13</title>
<path fill="none" stroke="midnightblue" d="M1780.23,-232.244C1772.72,-208.695 1758.67,-151.826 1784,-116 1820.14,-64.8874 2010.68,-29.4306 2091.6,-16.4587"/>
<polygon fill="midnightblue" stroke="midnightblue" points="2092.48,-19.8633 2101.81,-14.8481 2091.39,-12.9488 2092.48,-19.8633"/>
</g>
<!-- Node37&#45;&gt;Node14 -->
<g id="edge120" class="edge"><title>Node37&#45;&gt;Node14</title>
<path fill="none" stroke="midnightblue" d="M1790.09,-232.295C1801.19,-212.786 1824.86,-171.188 1838.9,-146.518"/>
<polygon fill="midnightblue" stroke="midnightblue" points="1842.02,-148.102 1843.92,-137.679 1835.94,-144.64 1842.02,-148.102"/>
</g>
<!-- Node37&#45;&gt;Node19 -->
<g id="edge126" class="edge"><title>Node37&#45;&gt;Node19</title>
<path fill="none" stroke="midnightblue" d="M1731.93,-239.646C1697.13,-237.424 1650.33,-234.475 1609,-232 1295.7,-213.24 915.428,-192.262 810.788,-186.521"/>
<polygon fill="midnightblue" stroke="midnightblue" points="810.907,-183.022 800.73,-185.97 810.523,-190.012 810.907,-183.022"/>
</g>
<!-- Node38 -->
<g id="node102" class="node"><title>Node38</title>
<polygon fill="white" stroke="#bfbfbf" points="1651.5,-174.5 1651.5,-195.5 1698.5,-195.5 1698.5,-174.5 1651.5,-174.5"/>
<text text-anchor="middle" x="1675" y="-182.5" font-family="Helvetica,sans-Serif" font-size="10.00">iterator</text>
</g>
<!-- Node37&#45;&gt;Node38 -->
<g id="edge128" class="edge"><title>Node37&#45;&gt;Node38</title>
<path fill="none" stroke="midnightblue" d="M1764.26,-232.497C1747.39,-223.519 1722.89,-210.484 1703.83,-200.339"/>
<polygon fill="midnightblue" stroke="midnightblue" points="1705.43,-197.229 1694.96,-195.621 1702.14,-203.409 1705.43,-197.229"/>
</g>
<!-- Node39&#45;&gt;Node10 -->
<g id="edge138" class="edge"><title>Node39&#45;&gt;Node10</title>
<path fill="none" stroke="midnightblue" d="M1548.16,-232.388C1520.65,-216.603 1465.73,-187.368 1415,-174 1236.4,-126.933 1183.61,-165.68 1001,-138 792.61,-106.412 547.226,-44.9902 454.767,-20.9695"/>
<polygon fill="midnightblue" stroke="midnightblue" points="455.583,-17.5653 445.023,-18.4293 453.817,-24.3389 455.583,-17.5653"/>
</g>
<!-- Node39&#45;&gt;Node18 -->
<g id="edge136" class="edge"><title>Node39&#45;&gt;Node18</title>
<path fill="none" stroke="midnightblue" d="M1543.09,-232.341C1527.9,-224.255 1508.54,-211.834 1496,-196 1484.85,-181.927 1478.12,-162.564 1474.3,-147.931"/>
<polygon fill="midnightblue" stroke="midnightblue" points="1477.62,-146.765 1471.93,-137.829 1470.81,-148.365 1477.62,-146.765"/>
</g>
<!-- Node39&#45;&gt;Node20 -->
<g id="edge134" class="edge"><title>Node39&#45;&gt;Node20</title>
<path fill="none" stroke="midnightblue" d="M1532.32,-232.497C1499.49,-222.261 1449.74,-206.748 1416.11,-196.261"/>
<polygon fill="midnightblue" stroke="midnightblue" points="1416.82,-192.814 1406.23,-193.179 1414.73,-199.497 1416.82,-192.814"/>
</g>
<!-- Node41&#45;&gt;Node7 -->
<g id="edge226" class="edge"><title>Node41&#45;&gt;Node7</title>
<path fill="none" stroke="midnightblue" d="M1827.66,-355.101C1925.13,-347.816 2118.71,-331.132 2143,-312 2171.97,-289.184 2176.95,-266.887 2165,-232 2154.43,-201.133 2147.02,-192.28 2120,-174 2117.08,-172.026 1701.58,-54.0193 1581.91,-20.054"/>
<polygon fill="midnightblue" stroke="midnightblue" points="1582.79,-16.6664 1572.22,-17.3033 1580.88,-23.4005 1582.79,-16.6664"/>
</g>
<!-- Node41&#45;&gt;Node12 -->
<g id="edge222" class="edge"><title>Node41&#45;&gt;Node12</title>
<path fill="none" stroke="midnightblue" d="M1827.74,-356.207C2054.54,-344.481 2896,-297.316 2896,-243 2896,-243 2896,-243 2896,-185 2896,-153.192 2901.8,-135.912 2877,-116 2817.53,-68.2611 2283.14,-90.8942 2169.49,-79.5897"/>
<polygon fill="midnightblue" stroke="midnightblue" points="2169.66,-76.0841 2159.3,-78.3007 2168.78,-83.0287 2169.66,-76.0841"/>
</g>
<!-- Node41&#45;&gt;Node14 -->
<g id="edge220" class="edge"><title>Node41&#45;&gt;Node14</title>
<path fill="none" stroke="midnightblue" d="M1827.82,-355.319C1920.15,-348.657 2096.43,-333.288 2115,-312 2140.52,-282.748 2207.65,-288.491 2097,-174 2089.62,-166.365 1950.75,-143.182 1884.55,-132.498"/>
<polygon fill="midnightblue" stroke="midnightblue" points="1885.01,-129.027 1874.58,-130.895 1883.9,-135.938 1885.01,-129.027"/>
</g>
<!-- Node41&#45;&gt;Node19 -->
<g id="edge230" class="edge"><title>Node41&#45;&gt;Node19</title>
<path fill="none" stroke="midnightblue" d="M1716.38,-357.609C1531.38,-352.776 943.762,-335.708 862,-312 811.542,-297.369 785.512,-299.356 759,-254 749.864,-238.371 758.377,-218.72 767.698,-204.391"/>
<polygon fill="midnightblue" stroke="midnightblue" points="770.833,-206.02 773.762,-195.839 765.123,-201.971 770.833,-206.02"/>
</g>
<!-- Node41&#45;&gt;Node20 -->
<g id="edge228" class="edge"><title>Node41&#45;&gt;Node20</title>
<path fill="none" stroke="midnightblue" d="M1716.4,-350.227C1676.61,-342.848 1622.3,-330.498 1577,-312 1530.5,-293.01 1522.25,-281.167 1480,-254 1453.11,-236.709 1423.01,-215.705 1402.92,-201.446"/>
<polygon fill="midnightblue" stroke="midnightblue" points="1404.88,-198.545 1394.71,-195.593 1400.82,-204.246 1404.88,-198.545"/>
</g>
<!-- Node41&#45;&gt;Node29 -->
<g id="edge154" class="edge"><title>Node41&#45;&gt;Node29</title>
<path fill="none" stroke="midnightblue" d="M1752.56,-348.362C1736.2,-339.409 1712.59,-326.491 1694.16,-316.406"/>
<polygon fill="midnightblue" stroke="midnightblue" points="1695.77,-313.3 1685.32,-311.571 1692.41,-319.441 1695.77,-313.3"/>
</g>
<!-- Node41&#45;&gt;Node30 -->
<g id="edge156" class="edge"><title>Node41&#45;&gt;Node30</title>
<path fill="none" stroke="midnightblue" d="M1827.84,-356.818C1920.11,-352.519 2109.92,-340.743 2268,-312 2343.92,-298.196 2430.2,-272.58 2480.14,-256.742"/>
<polygon fill="midnightblue" stroke="midnightblue" points="2481.47,-259.992 2489.93,-253.614 2479.34,-253.324 2481.47,-259.992"/>
</g>
<!-- Node41&#45;&gt;Node39 -->
<g id="edge224" class="edge"><title>Node41&#45;&gt;Node39</title>
<path fill="none" stroke="midnightblue" d="M1716.44,-349.277C1672.6,-340.659 1615.95,-327.122 1598,-312 1583.23,-299.556 1574.89,-278.811 1570.46,-263.31"/>
<polygon fill="midnightblue" stroke="midnightblue" points="1573.84,-262.41 1567.98,-253.584 1567.06,-264.138 1573.84,-262.41"/>
</g>
<!-- Node42 -->
<g id="node121" class="node"><title>Node42</title>
<a xlink:href="_tagger_hit_8h.html" target="_top" xlink:title="TaggerHit.h">
<polygon fill="white" stroke="black" points="1968,-232.5 1968,-253.5 2036,-253.5 2036,-232.5 1968,-232.5"/>
<text text-anchor="middle" x="2002" y="-240.5" font-family="Helvetica,sans-Serif" font-size="10.00">TaggerHit.h</text>
</a>
</g>
<!-- Node41&#45;&gt;Node42 -->
<g id="edge158" class="edge"><title>Node41&#45;&gt;Node42</title>
<path fill="none" stroke="midnightblue" d="M1793.23,-348.295C1834.32,-327.568 1924.85,-281.909 1972.05,-258.105"/>
<polygon fill="midnightblue" stroke="midnightblue" points="1973.81,-261.14 1981.16,-253.512 1970.65,-254.89 1973.81,-261.14"/>
</g>
<!-- Node43 -->
<g id="node128" class="node"><title>Node43</title>
<a xlink:href="_trigger_info_8h.html" target="_top" xlink:title="TriggerInfo.h">
<polygon fill="white" stroke="black" points="2035.5,-290.5 2035.5,-311.5 2106.5,-311.5 2106.5,-290.5 2035.5,-290.5"/>
<text text-anchor="middle" x="2071" y="-298.5" font-family="Helvetica,sans-Serif" font-size="10.00">TriggerInfo.h</text>
</a>
</g>
<!-- Node41&#45;&gt;Node43 -->
<g id="edge170" class="edge"><title>Node41&#45;&gt;Node43</title>
<path fill="none" stroke="midnightblue" d="M1826.15,-348.497C1883.06,-337.456 1971.62,-320.277 2025.19,-309.886"/>
<polygon fill="midnightblue" stroke="midnightblue" points="2025.94,-313.306 2035.09,-307.966 2024.61,-306.434 2025.94,-313.306"/>
</g>
<!-- Node42&#45;&gt;Node12 -->
<g id="edge166" class="edge"><title>Node42&#45;&gt;Node12</title>
<path fill="none" stroke="midnightblue" d="M2009.26,-232.11C2017.69,-217.974 2029.21,-192.884 2019,-174 2005.11,-148.3 1977.89,-163.7 1964,-138 1959.35,-129.399 1958.12,-123.808 1964,-116 1964.96,-114.73 2038.47,-94.0019 2086.74,-80.501"/>
<polygon fill="midnightblue" stroke="midnightblue" points="2087.93,-83.8019 2096.62,-77.7393 2086.05,-77.0603 2087.93,-83.8019"/>
</g>
<!-- Node42&#45;&gt;Node14 -->
<g id="edge164" class="edge"><title>Node42&#45;&gt;Node14</title>
<path fill="none" stroke="midnightblue" d="M2005.52,-232.466C2009.71,-217.816 2014.66,-191.161 2002,-174 2000.19,-171.551 1928.81,-150.192 1884.52,-137.124"/>
<polygon fill="midnightblue" stroke="midnightblue" points="1885.29,-133.703 1874.71,-134.235 1883.32,-140.418 1885.29,-133.703"/>
</g>
<!-- Node42&#45;&gt;Node18 -->
<g id="edge160" class="edge"><title>Node42&#45;&gt;Node18</title>
<path fill="none" stroke="midnightblue" d="M2000.24,-232.245C1997.04,-216.552 1988.71,-187.755 1969,-174 1929.79,-146.636 1590.06,-131.614 1494.76,-127.912"/>
<polygon fill="midnightblue" stroke="midnightblue" points="1494.75,-124.409 1484.63,-127.526 1494.49,-131.404 1494.75,-124.409"/>
</g>
<!-- Node42&#45;&gt;Node20 -->
<g id="edge162" class="edge"><title>Node42&#45;&gt;Node20</title>
<path fill="none" stroke="midnightblue" d="M1967.67,-239.799C1859.61,-229.722 1527.04,-198.711 1416.3,-188.385"/>
<polygon fill="midnightblue" stroke="midnightblue" points="1416.57,-184.895 1406.29,-187.451 1415.92,-191.865 1416.57,-184.895"/>
</g>
<!-- Node42&#45;&gt;Node40 -->
<g id="edge168" class="edge"><title>Node42&#45;&gt;Node40</title>
<path fill="none" stroke="midnightblue" d="M1985.86,-232.362C1972.59,-223.614 1953.57,-211.079 1938.43,-201.101"/>
<polygon fill="midnightblue" stroke="midnightblue" points="1940.31,-198.151 1930.04,-195.571 1936.46,-203.996 1940.31,-198.151"/>
</g>
<!-- Node43&#45;&gt;Node12 -->
<g id="edge174" class="edge"><title>Node43&#45;&gt;Node12</title>
<path fill="none" stroke="midnightblue" d="M2082.08,-290.279C2094.67,-276.741 2112.32,-252.713 2103,-232 2096.54,-217.644 2003.46,-152.356 1997,-138 1992.99,-129.083 1991.37,-123.997 1997,-116 2002.47,-108.233 2050.63,-92.2794 2086.98,-81.1239"/>
<polygon fill="midnightblue" stroke="midnightblue" points="2088.32,-84.373 2096.87,-78.1155 2086.29,-77.6757 2088.32,-84.373"/>
</g>
<!-- Node43&#45;&gt;Node14 -->
<g id="edge172" class="edge"><title>Node43&#45;&gt;Node14</title>
<path fill="none" stroke="midnightblue" d="M2075.86,-290.342C2085.93,-266.493 2105.9,-208.236 2078,-174 2071.89,-166.503 1947.43,-143.938 1885.04,-133.032"/>
<polygon fill="midnightblue" stroke="midnightblue" points="1885.32,-129.528 1874.86,-131.261 1884.12,-136.424 1885.32,-129.528"/>
</g>
<!-- Node43&#45;&gt;Node18 -->
<g id="edge216" class="edge"><title>Node43&#45;&gt;Node18</title>
<path fill="none" stroke="midnightblue" d="M2068.42,-290.32C2061.45,-264.202 2039.46,-197.521 1992,-174 1947.06,-151.727 1592.26,-132.954 1494.73,-128.176"/>
<polygon fill="midnightblue" stroke="midnightblue" points="1494.79,-124.675 1484.64,-127.686 1494.46,-131.666 1494.79,-124.675"/>
</g>
<!-- Node43&#45;&gt;Node20 -->
<g id="edge218" class="edge"><title>Node43&#45;&gt;Node20</title>
<path fill="none" stroke="midnightblue" d="M2035.32,-296.948C1972.16,-289.606 1836.63,-273.083 1723,-254 1692.84,-248.935 1497.87,-209.139 1416.05,-192.389"/>
<polygon fill="midnightblue" stroke="midnightblue" points="1416.7,-188.949 1406.2,-190.371 1415.29,-195.806 1416.7,-188.949"/>
</g>
<!-- Node44 -->
<g id="node132" class="node"><title>Node44</title>
<a xlink:href="_t_data_record_8h.html" target="_top" xlink:title="tree/TDataRecord.h">
<polygon fill="white" stroke="black" points="2326.5,-232.5 2326.5,-253.5 2429.5,-253.5 2429.5,-232.5 2326.5,-232.5"/>
<text text-anchor="middle" x="2378" y="-240.5" font-family="Helvetica,sans-Serif" font-size="10.00">tree/TDataRecord.h</text>
</a>
</g>
<!-- Node43&#45;&gt;Node44 -->
<g id="edge176" class="edge"><title>Node43&#45;&gt;Node44</title>
<path fill="none" stroke="midnightblue" d="M2106.52,-294.29C2157.8,-284.601 2253.32,-266.554 2316.29,-254.659"/>
<polygon fill="midnightblue" stroke="midnightblue" points="2317.31,-258.028 2326.49,-252.732 2316.01,-251.15 2317.31,-258.028"/>
</g>
<!-- Node44&#45;&gt;Node22 -->
<g id="edge210" class="edge"><title>Node44&#45;&gt;Node22</title>
<path fill="none" stroke="midnightblue" d="M2364.66,-232.275C2344.82,-216.888 2305.79,-188.779 2268,-174 2187.14,-142.379 2160.71,-157.01 2076,-138 2074.76,-137.721 2073.5,-137.432 2072.23,-137.134"/>
<polygon fill="midnightblue" stroke="midnightblue" points="2072.95,-133.706 2062.4,-134.729 2071.28,-140.506 2072.95,-133.706"/>
</g>
<!-- Node45 -->
<g id="node134" class="node"><title>Node45</title>
<a xlink:href="_t_i_d_8h.html" target="_top" xlink:title="TID.h">
<polygon fill="white" stroke="black" points="2357.5,-174.5 2357.5,-195.5 2398.5,-195.5 2398.5,-174.5 2357.5,-174.5"/>
<text text-anchor="middle" x="2378" y="-182.5" font-family="Helvetica,sans-Serif" font-size="10.00">TID.h</text>
</a>
</g>
<!-- Node44&#45;&gt;Node45 -->
<g id="edge178" class="edge"><title>Node44&#45;&gt;Node45</title>
<path fill="none" stroke="midnightblue" d="M2378,-232.362C2378,-224.922 2378,-214.743 2378,-205.728"/>
<polygon fill="midnightblue" stroke="midnightblue" points="2381.5,-205.571 2378,-195.571 2374.5,-205.571 2381.5,-205.571"/>
</g>
<!-- Node50 -->
<g id="node148" class="node"><title>Node50</title>
<polygon fill="white" stroke="#bfbfbf" points="2366.5,-58.5 2366.5,-79.5 2407.5,-79.5 2407.5,-58.5 2366.5,-58.5"/>
<text text-anchor="middle" x="2387" y="-66.5" font-family="Helvetica,sans-Serif" font-size="10.00">ctime</text>
</g>
<!-- Node44&#45;&gt;Node50 -->
<g id="edge214" class="edge"><title>Node44&#45;&gt;Node50</title>
<path fill="none" stroke="midnightblue" d="M2390.28,-232.368C2400.08,-223.411 2413.66,-209.869 2423,-196 2438.78,-172.566 2443.09,-165.625 2449,-138 2451.05,-128.438 2453.35,-124.757 2449,-116 2442.08,-102.08 2428.86,-91.1782 2416.39,-83.3933"/>
<polygon fill="midnightblue" stroke="midnightblue" points="2417.96,-80.2562 2407.55,-78.2769 2414.45,-86.3149 2417.96,-80.2562"/>
</g>
<!-- Node52 -->
<g id="node155" class="node"><title>Node52</title>
<polygon fill="white" stroke="#bfbfbf" points="2390,-116.5 2390,-137.5 2440,-137.5 2440,-116.5 2390,-116.5"/>
<text text-anchor="middle" x="2415" y="-124.5" font-family="Helvetica,sans-Serif" font-size="10.00">iomanip</text>
</g>
<!-- Node44&#45;&gt;Node52 -->
<g id="edge212" class="edge"><title>Node44&#45;&gt;Node52</title>
<path fill="none" stroke="midnightblue" d="M2386.37,-232.487C2393.14,-223.388 2402.28,-209.587 2407,-196 2412.43,-180.359 2414.34,-161.648 2414.94,-147.659"/>
<polygon fill="midnightblue" stroke="midnightblue" points="2418.44,-147.684 2415.18,-137.601 2411.44,-147.514 2418.44,-147.684"/>
</g>
<!-- Node45&#45;&gt;Node11 -->
<g id="edge204" class="edge"><title>Node45&#45;&gt;Node11</title>
<path fill="none" stroke="midnightblue" d="M2357.23,-181.711C2298.87,-172.413 2136.1,-146.083 2113,-138 2107.8,-136.179 2049.85,-104.323 2014.06,-84.5397"/>
<polygon fill="midnightblue" stroke="midnightblue" points="2015.49,-81.3322 2005.04,-79.5554 2012.1,-87.4578 2015.49,-81.3322"/>
</g>
<!-- Node45&#45;&gt;Node12 -->
<g id="edge182" class="edge"><title>Node45&#45;&gt;Node12</title>
<path fill="none" stroke="midnightblue" d="M2357.23,-177.953C2352.88,-176.569 2348.31,-175.182 2344,-174 2274.13,-154.829 2246.71,-175.964 2185,-138 2165.16,-125.797 2149.01,-104.229 2139.04,-88.4464"/>
<polygon fill="midnightblue" stroke="midnightblue" points="2141.8,-86.2584 2133.64,-79.5024 2135.81,-89.8733 2141.8,-86.2584"/>
</g>
<!-- Node45&#45;&gt;Node22 -->
<g id="edge180" class="edge"><title>Node45&#45;&gt;Node22</title>
<path fill="none" stroke="midnightblue" d="M2357.31,-177.653C2352.95,-176.292 2348.36,-174.989 2344,-174 2226.8,-147.396 2193.91,-161.268 2076,-138 2074.75,-137.754 2073.49,-137.492 2072.21,-137.218"/>
<polygon fill="midnightblue" stroke="midnightblue" points="2072.89,-133.783 2062.36,-134.931 2071.31,-140.602 2072.89,-133.783"/>
</g>
<!-- Node45&#45;&gt;Node33 -->
<g id="edge202" class="edge"><title>Node45&#45;&gt;Node33</title>
<path fill="none" stroke="midnightblue" d="M2357.26,-177.841C2352.91,-176.465 2348.33,-175.11 2344,-174 2261.59,-152.866 2234.47,-170.862 2156,-138 2125.49,-125.225 2094.84,-102.214 2075.67,-86.2987"/>
<polygon fill="midnightblue" stroke="midnightblue" points="2077.84,-83.5507 2067.95,-79.7554 2073.31,-88.8909 2077.84,-83.5507"/>
</g>
<!-- Node45&#45;&gt;Node34 -->
<g id="edge198" class="edge"><title>Node45&#45;&gt;Node34</title>
<path fill="none" stroke="midnightblue" d="M2375.59,-174.34C2372.95,-160.012 2370.38,-134.238 2381,-116 2389.18,-101.947 2403.41,-91.4817 2417.3,-84.0385"/>
<polygon fill="midnightblue" stroke="midnightblue" points="2418.9,-87.1523 2426.3,-79.5765 2415.79,-80.88 2418.9,-87.1523"/>
</g>
<!-- Node46 -->
<g id="node138" class="node"><title>Node46</title>
<a xlink:href="time_8h.html" target="_top" xlink:title="base/std_ext/time.h">
<polygon fill="white" stroke="black" points="2193.5,-116.5 2193.5,-137.5 2296.5,-137.5 2296.5,-116.5 2193.5,-116.5"/>
<text text-anchor="middle" x="2245" y="-124.5" font-family="Helvetica,sans-Serif" font-size="10.00">base/std_ext/time.h</text>
</a>
</g>
<!-- Node45&#45;&gt;Node46 -->
<g id="edge184" class="edge"><title>Node45&#45;&gt;Node46</title>
<path fill="none" stroke="midnightblue" d="M2357.22,-175.938C2336.19,-166.768 2303.35,-152.445 2278.61,-141.659"/>
<polygon fill="midnightblue" stroke="midnightblue" points="2279.81,-138.36 2269.24,-137.571 2277.01,-144.776 2279.81,-138.36"/>
</g>
<!-- Node45&#45;&gt;Node50 -->
<g id="edge208" class="edge"><title>Node45&#45;&gt;Node50</title>
<path fill="none" stroke="midnightblue" d="M2367.97,-174.414C2356.54,-161.017 2340.37,-137.133 2348,-116 2351.94,-105.079 2359.65,-94.9016 2367.17,-86.8297"/>
<polygon fill="midnightblue" stroke="midnightblue" points="2369.9,-89.0551 2374.5,-79.5102 2364.95,-84.1042 2369.9,-89.0551"/>
</g>
<!-- Node45&#45;&gt;Node51 -->
<g id="edge200" class="edge"><title>Node45&#45;&gt;Node51</title>
<path fill="none" stroke="midnightblue" d="M2398.54,-182.471C2473.5,-173.24 2732.46,-141.351 2819.9,-130.583"/>
<polygon fill="midnightblue" stroke="midnightblue" points="2820.42,-134.046 2829.92,-129.35 2819.57,-127.098 2820.42,-134.046"/>
</g>
<!-- Node45&#45;&gt;Node52 -->
<g id="edge206" class="edge"><title>Node45&#45;&gt;Node52</title>
<path fill="none" stroke="midnightblue" d="M2384.79,-174.362C2389.79,-166.513 2396.75,-155.616 2402.72,-146.253"/>
<polygon fill="midnightblue" stroke="midnightblue" points="2405.83,-147.884 2408.26,-137.571 2399.93,-144.119 2405.83,-147.884"/>
</g>
<!-- Node47 -->
<g id="node140" class="node"><title>Node47</title>
<a xlink:href="string_8h.html" target="_top" xlink:title="base/std_ext/string.h">
<polygon fill="white" stroke="black" points="2177,-58.5 2177,-79.5 2285,-79.5 2285,-58.5 2177,-58.5"/>
<text text-anchor="middle" x="2231" y="-66.5" font-family="Helvetica,sans-Serif" font-size="10.00">base/std_ext/string.h</text>
</a>
</g>
<!-- Node46&#45;&gt;Node47 -->
<g id="edge186" class="edge"><title>Node46&#45;&gt;Node47</title>
<path fill="none" stroke="midnightblue" d="M2242.43,-116.362C2240.62,-108.84 2238.13,-98.5187 2235.93,-89.4308"/>
<polygon fill="midnightblue" stroke="midnightblue" points="2239.3,-88.4702 2233.55,-79.5707 2232.5,-90.1127 2239.3,-88.4702"/>
</g>
<!-- Node49 -->
<g id="node146" class="node"><title>Node49</title>
<polygon fill="white" stroke="#bfbfbf" points="2303,-58.5 2303,-79.5 2349,-79.5 2349,-58.5 2303,-58.5"/>
<text text-anchor="middle" x="2326" y="-66.5" font-family="Helvetica,sans-Serif" font-size="10.00">cstring</text>
</g>
<!-- Node46&#45;&gt;Node49 -->
<g id="edge194" class="edge"><title>Node46&#45;&gt;Node49</title>
<path fill="none" stroke="midnightblue" d="M2259.86,-116.362C2271.85,-107.777 2288.93,-95.5459 2302.73,-85.6636"/>
<polygon fill="midnightblue" stroke="midnightblue" points="2305.14,-88.2383 2311.24,-79.5707 2301.07,-82.5469 2305.14,-88.2383"/>
</g>
<!-- Node46&#45;&gt;Node50 -->
<g id="edge196" class="edge"><title>Node46&#45;&gt;Node50</title>
<path fill="none" stroke="midnightblue" d="M2270.72,-116.497C2294.85,-106.641 2330.95,-91.8923 2356.52,-81.4489"/>
<polygon fill="midnightblue" stroke="midnightblue" points="2358.16,-84.5606 2366.09,-77.5391 2355.51,-78.0803 2358.16,-84.5606"/>
</g>
<!-- Node47&#45;&gt;Node8 -->
<g id="edge188" class="edge"><title>Node47&#45;&gt;Node8</title>
<path fill="none" stroke="midnightblue" d="M2176.77,-59.0267C2173.81,-58.6398 2170.87,-58.2929 2168,-58 1858.85,-26.4674 844.082,-13.5085 654.614,-11.3364"/>
<polygon fill="midnightblue" stroke="midnightblue" points="654.563,-7.83574 644.524,-11.2221 654.484,-14.8353 654.563,-7.83574"/>
</g>
<!-- Node47&#45;&gt;Node10 -->
<g id="edge192" class="edge"><title>Node47&#45;&gt;Node10</title>
<path fill="none" stroke="midnightblue" d="M2176.77,-59.0004C2173.81,-58.6203 2170.87,-58.2821 2168,-58 1472.05,10.3317 1293.67,-51.5718 595,-22 546.715,-19.9563 491.136,-16.3153 455.109,-13.7846"/>
<polygon fill="midnightblue" stroke="midnightblue" points="455.26,-10.2866 445.037,-13.0703 454.765,-17.2691 455.26,-10.2866"/>
</g>
<!-- Node47&#45;&gt;Node48 -->
<g id="edge190" class="edge"><title>Node47&#45;&gt;Node48</title>
<path fill="none" stroke="midnightblue" d="M2285.27,-59.3905C2288.22,-58.9098 2291.15,-58.4432 2294,-58 2406.37,-40.5425 2539.88,-23.3626 2602.79,-15.4791"/>
<polygon fill="midnightblue" stroke="midnightblue" points="2603.5,-18.9187 2612.98,-14.206 2602.63,-11.9727 2603.5,-18.9187"/>
</g>
<!-- Node53&#45;&gt;Node7 -->
<g id="edge234" class="edge"><title>Node53&#45;&gt;Node7</title>
<path fill="none" stroke="midnightblue" d="M1086.81,-116.418C1100.6,-100.673 1128.94,-71.4892 1160,-58 1224.21,-30.115 1436.22,-16.7292 1517.7,-12.5198"/>
<polygon fill="midnightblue" stroke="midnightblue" points="1518.05,-16.0067 1527.87,-12.0078 1517.7,-9.01558 1518.05,-16.0067"/>
</g>
<!-- Node53&#45;&gt;Node33 -->
<g id="edge236" class="edge"><title>Node53&#45;&gt;Node33</title>
<path fill="none" stroke="midnightblue" d="M1146.74,-123.648C1349.72,-113.743 1937.21,-85.0189 2022.62,-78.7728"/>
<polygon fill="midnightblue" stroke="midnightblue" points="2023.16,-82.2378 2032.79,-77.8254 2022.51,-75.268 2023.16,-82.2378"/>
</g>
<!-- Node54&#45;&gt;Node8 -->
<g id="edge240" class="edge"><title>Node54&#45;&gt;Node8</title>
<path fill="none" stroke="midnightblue" d="M682.452,-232.29C702.558,-219.683 729.626,-197.471 719,-174 708.999,-151.909 692.94,-157.101 678,-138 660.119,-115.141 659.463,-106.662 648,-80 641.134,-64.0296 634.74,-45.3813 630.281,-31.5004"/>
<polygon fill="midnightblue" stroke="midnightblue" points="633.613,-30.427 627.273,-21.9383 626.936,-32.5278 633.613,-30.427"/>
</g>
<!-- Node54&#45;&gt;Node19 -->
<g id="edge244" class="edge"><title>Node54&#45;&gt;Node19</title>
<path fill="none" stroke="midnightblue" d="M684.731,-232.497C704.762,-222.815 734.56,-208.413 756.088,-198.007"/>
<polygon fill="midnightblue" stroke="midnightblue" points="757.852,-201.042 765.333,-193.539 754.806,-194.74 757.852,-201.042"/>
</g>
<!-- Node54&#45;&gt;Node20 -->
<g id="edge242" class="edge"><title>Node54&#45;&gt;Node20</title>
<path fill="none" stroke="midnightblue" d="M712.293,-236.983C727.279,-235.253 743.803,-233.445 759,-232 981.017,-210.887 1248.42,-193.284 1343.93,-187.242"/>
<polygon fill="midnightblue" stroke="midnightblue" points="1344.18,-190.733 1353.94,-186.611 1343.74,-183.747 1344.18,-190.733"/>
</g>
<!-- Node55&#45;&gt;Node9 -->
<g id="edge266" class="edge"><title>Node55&#45;&gt;Node9</title>
<path fill="none" stroke="midnightblue" d="M1108.7,-406.48C989.874,-387.822 753.721,-342.306 572,-254 544.377,-240.577 516.732,-218.371 499.066,-202.785"/>
<polygon fill="midnightblue" stroke="midnightblue" points="501.011,-199.826 491.239,-195.733 496.325,-205.027 501.011,-199.826"/>
</g>
<!-- Node55&#45;&gt;Node31 -->
<g id="edge270" class="edge"><title>Node55&#45;&gt;Node31</title>
<path fill="none" stroke="midnightblue" d="M1191.58,-406.184C1202.13,-391.681 1222.39,-365.708 1244,-348 1309.28,-294.509 1366.59,-326.97 1409,-254 1413.91,-245.546 1413.94,-240.44 1409,-232 1392.52,-203.829 1361.48,-224.171 1345,-196 1340.06,-187.56 1338.2,-181.026 1345,-174 1387.68,-129.906 2387.8,-142.57 2449,-138 2460.66,-137.129 2473.1,-135.893 2484.99,-134.561"/>
<polygon fill="midnightblue" stroke="midnightblue" points="2485.72,-137.999 2495.25,-133.373 2484.92,-131.046 2485.72,-137.999"/>
</g>
<!-- Node55&#45;&gt;Node56 -->
<g id="edge268" class="edge"><title>Node55&#45;&gt;Node56</title>
<path fill="none" stroke="midnightblue" d="M1201.42,-406.362C1215.89,-397.532 1236.67,-384.844 1253.08,-374.822"/>
<polygon fill="midnightblue" stroke="midnightblue" points="1254.97,-377.769 1261.69,-369.571 1251.33,-371.794 1254.97,-377.769"/>
</g>
<!-- Node57&#45;&gt;Node7 -->
<g id="edge278" class="edge"><title>Node57&#45;&gt;Node7</title>
<path fill="none" stroke="midnightblue" d="M59.9087,-464.297C72.0638,-444.404 96,-400.023 96,-359 96,-359 96,-359 96,-301 96,-185.659 172.315,-162.197 278,-116 457.12,-37.7041 519.382,-76.3886 714,-58 1026.33,-28.489 1406.19,-15.3326 1517.75,-11.9293"/>
<polygon fill="midnightblue" stroke="midnightblue" points="1518.1,-15.4204 1527.99,-11.6215 1517.89,-8.42361 1518.1,-15.4204"/>
</g>
<!-- Node58&#45;&gt;Node7 -->
<g id="edge284" class="edge"><title>Node58&#45;&gt;Node7</title>
<path fill="none" stroke="midnightblue" d="M203.268,-232.082C205.454,-217.461 211.12,-191.357 225,-174 232.783,-164.267 309.16,-119.89 321,-116 487.636,-61.2566 540.343,-104.648 714,-80 765.089,-72.7486 776.819,-64.5779 828,-58 1092.76,-23.9726 1415.47,-14.0513 1517.49,-11.6624"/>
<polygon fill="midnightblue" stroke="midnightblue" points="1517.83,-15.1557 1527.75,-11.4304 1517.67,-8.15745 1517.83,-15.1557"/>
</g>
<!-- Node58&#45;&gt;Node9 -->
<g id="edge288" class="edge"><title>Node58&#45;&gt;Node9</title>
<path fill="none" stroke="midnightblue" d="M242.629,-233.819C245.461,-233.197 248.272,-232.586 251,-232 312.551,-218.776 383.589,-204.322 430.018,-194.983"/>
<polygon fill="midnightblue" stroke="midnightblue" points="430.712,-198.413 439.827,-193.012 429.333,-191.551 430.712,-198.413"/>
</g>
<!-- Node58&#45;&gt;Node10 -->
<g id="edge286" class="edge"><title>Node58&#45;&gt;Node10</title>
<path fill="none" stroke="midnightblue" d="M178.312,-232.335C154.794,-220.093 123.87,-198.515 136,-174 183.244,-78.5153 313.759,-35.1955 378.937,-19.0456"/>
<polygon fill="midnightblue" stroke="midnightblue" points="379.902,-22.4135 388.814,-16.6831 378.274,-15.6056 379.902,-22.4135"/>
</g>
<!-- Node58&#45;&gt;Node15 -->
<g id="edge290" class="edge"><title>Node58&#45;&gt;Node15</title>
<path fill="none" stroke="midnightblue" d="M207.125,-232.354C214.7,-217.57 230.153,-190.757 250,-174 261.258,-164.495 295.01,-149.475 320.208,-138.98"/>
<polygon fill="midnightblue" stroke="midnightblue" points="321.804,-142.108 329.718,-135.063 319.138,-135.635 321.804,-142.108"/>
</g>
<!-- Node58&#45;&gt;Node18 -->
<g id="edge282" class="edge"><title>Node58&#45;&gt;Node18</title>
<path fill="none" stroke="midnightblue" d="M212.686,-232.319C230.724,-214.57 266.827,-180.321 283,-174 297.031,-168.516 1275.06,-133.862 1444.97,-127.879"/>
<polygon fill="midnightblue" stroke="midnightblue" points="1445.31,-131.37 1455.18,-127.52 1445.06,-124.374 1445.31,-131.37"/>
</g>
</g>
</svg>
