<?xml version="1.0" encoding="UTF-8" standalone="no"?>
<!DOCTYPE svg PUBLIC "-//W3C//DTD SVG 1.1//EN"
 "http://www.w3.org/Graphics/SVG/1.1/DTD/svg11.dtd">
<!-- Generated by graphviz version 2.26.3 (20100126.1600)
 -->
<!-- Title: src/analysis/plot/HistogramFactories.h Pages: 1 -->
<svg width="1559pt" height="392pt"
 viewBox="0.00 0.00 1558.89 392.00" xmlns="http://www.w3.org/2000/svg" xmlns:xlink="http://www.w3.org/1999/xlink">
<g id="graph1" class="graph" transform="scale(1 1) rotate(0) translate(4 388)">
<title>src/analysis/plot/HistogramFactories.h</title>
<polygon fill="white" stroke="white" points="-4,5 -4,-388 1555.89,-388 1555.89,5 -4,5"/>
<!-- Node1 -->
<g id="node1" class="node"><title>Node1</title>
<polygon fill="#bfbfbf" stroke="black" points="1050.89,-349 1050.89,-383 1186.89,-383 1186.89,-349 1050.89,-349"/>
<text text-anchor="start" x="1058.89" y="-370" font-family="Helvetica,sans-Serif" font-size="10.00">src/analysis/plot/Histogram</text>
<text text-anchor="middle" x="1118.89" y="-357" font-family="Helvetica,sans-Serif" font-size="10.00">Factories.h</text>
</g>
<!-- Node2 -->
<g id="node3" class="node"><title>Node2</title>
<a xlink:href="_histogram_8h.html" target="_top" xlink:title="Histogram.h">
<polygon fill="white" stroke="black" points="1048.89,-174.5 1048.89,-195.5 1118.89,-195.5 1118.89,-174.5 1048.89,-174.5"/>
<text text-anchor="middle" x="1083.89" y="-182.5" font-family="Helvetica,sans-Serif" font-size="10.00">Histogram.h</text>
</a>
</g>
<!-- Node1&#45;&gt;Node2 -->
<g id="edge2" class="edge"><title>Node1&#45;&gt;Node2</title>
<path fill="none" stroke="midnightblue" d="M1115.6,-348.972C1109.15,-315.635 1094.89,-241.869 1087.9,-205.747"/>
<polygon fill="midnightblue" stroke="midnightblue" points="1091.32,-204.985 1085.98,-195.832 1084.45,-206.314 1091.32,-204.985"/>
</g>
<!-- Node5 -->
<g id="node9" class="node"><title>Node5</title>
<polygon fill="white" stroke="#bfbfbf" points="1224.39,-58.5 1224.39,-79.5 1265.39,-79.5 1265.39,-58.5 1224.39,-58.5"/>
<text text-anchor="middle" x="1244.89" y="-66.5" font-family="Helvetica,sans-Serif" font-size="10.00">string</text>
</g>
<!-- Node1&#45;&gt;Node5 -->
<g id="edge144" class="edge"><title>Node1&#45;&gt;Node5</title>
<path fill="none" stroke="midnightblue" d="M1187.34,-360.73C1309.15,-349.453 1550.89,-317.667 1550.89,-243 1550.89,-243 1550.89,-243 1550.89,-185 1550.89,-142.869 1522.78,-136.343 1485.89,-116 1450.03,-96.2274 1332.26,-79.6619 1275.72,-72.6257"/>
<polygon fill="midnightblue" stroke="midnightblue" points="1275.94,-69.1266 1265.59,-71.3857 1275.09,-76.0747 1275.94,-69.1266"/>
</g>
<!-- Node13 -->
<g id="node26" class="node"><title>Node13</title>
<a xlink:href="_smart_hist_8h.html" target="_top" xlink:title="SmartHist.h">
<polygon fill="white" stroke="black" points="1127.39,-232.5 1127.39,-253.5 1196.39,-253.5 1196.39,-232.5 1127.39,-232.5"/>
<text text-anchor="middle" x="1161.89" y="-240.5" font-family="Helvetica,sans-Serif" font-size="10.00">SmartHist.h</text>
</a>
</g>
<!-- Node1&#45;&gt;Node13 -->
<g id="edge26" class="edge"><title>Node1&#45;&gt;Node13</title>
<path fill="none" stroke="midnightblue" d="M1124.87,-348.897C1132.71,-326.472 1146.44,-287.183 1154.8,-263.283"/>
<polygon fill="midnightblue" stroke="midnightblue" points="1158.12,-264.382 1158.12,-253.787 1151.51,-262.072 1158.12,-264.382"/>
</g>
<!-- Node26 -->
<g id="node59" class="node"><title>Node26</title>
<a xlink:href="_particle_8h.html" target="_top" xlink:title="analysis/data/Particle.h">
<polygon fill="white" stroke="black" points="571.389,-290.5 571.389,-311.5 690.389,-311.5 690.389,-290.5 571.389,-290.5"/>
<text text-anchor="middle" x="630.889" y="-298.5" font-family="Helvetica,sans-Serif" font-size="10.00">analysis/data/Particle.h</text>
</a>
</g>
<!-- Node1&#45;&gt;Node26 -->
<g id="edge66" class="edge"><title>Node1&#45;&gt;Node26</title>
<path fill="none" stroke="midnightblue" d="M1050.78,-356.928C958.314,-344.612 793.93,-322.716 700.63,-310.289"/>
<polygon fill="midnightblue" stroke="midnightblue" points="700.819,-306.784 690.444,-308.933 699.895,-313.722 700.819,-306.784"/>
</g>
<!-- Node3 -->
<g id="node5" class="node"><title>Node3</title>
<polygon fill="white" stroke="#bfbfbf" points="963.889,-116.5 963.889,-137.5 1017.89,-137.5 1017.89,-116.5 963.889,-116.5"/>
<text text-anchor="middle" x="990.889" y="-124.5" font-family="Helvetica,sans-Serif" font-size="10.00">TColor.h</text>
</g>
<!-- Node2&#45;&gt;Node3 -->
<g id="edge4" class="edge"><title>Node2&#45;&gt;Node3</title>
<path fill="none" stroke="midnightblue" d="M1066.83,-174.362C1052.8,-165.614 1032.7,-153.079 1016.71,-143.101"/>
<polygon fill="midnightblue" stroke="midnightblue" points="1018.18,-139.893 1007.84,-137.571 1014.47,-145.832 1018.18,-139.893"/>
</g>
<!-- Node4 -->
<g id="node7" class="node"><title>Node4</title>
<polygon fill="white" stroke="#bfbfbf" points="470.889,-0.5 470.889,-21.5 514.889,-21.5 514.889,-0.5 470.889,-0.5"/>
<text text-anchor="middle" x="492.889" y="-8.5" font-family="Helvetica,sans-Serif" font-size="10.00">vector</text>
</g>
<!-- Node2&#45;&gt;Node4 -->
<g id="edge6" class="edge"><title>Node2&#45;&gt;Node4</title>
<path fill="none" stroke="midnightblue" d="M1079.24,-174.433C1067.47,-149.158 1033.89,-85.2926 983.889,-58 943.689,-36.0588 627.796,-17.9669 525.055,-12.6131"/>
<polygon fill="midnightblue" stroke="midnightblue" points="525.137,-9.11277 514.97,-12.093 524.776,-16.1035 525.137,-9.11277"/>
</g>
<!-- Node2&#45;&gt;Node5 -->
<g id="edge8" class="edge"><title>Node2&#45;&gt;Node5</title>
<path fill="none" stroke="midnightblue" d="M1098.75,-174.295C1126.9,-154.009 1188.21,-109.84 1221.78,-85.6534"/>
<polygon fill="midnightblue" stroke="midnightblue" points="1224,-88.3647 1230.07,-79.6792 1219.91,-82.6852 1224,-88.3647"/>
</g>
<!-- Node6 -->
<g id="node11" class="node"><title>Node6</title>
<a xlink:href="interval_8h.html" target="_top" xlink:title="base/interval.h">
<polygon fill="white" stroke="black" points="566.889,-116.5 566.889,-137.5 646.889,-137.5 646.889,-116.5 566.889,-116.5"/>
<text text-anchor="middle" x="606.889" y="-124.5" font-family="Helvetica,sans-Serif" font-size="10.00">base/interval.h</text>
</a>
</g>
<!-- Node2&#45;&gt;Node6 -->
<g id="edge10" class="edge"><title>Node2&#45;&gt;Node6</title>
<path fill="none" stroke="midnightblue" d="M1048.79,-180.174C1034.28,-178.21 1017.28,-175.948 1001.89,-174 984.998,-171.862 759.685,-145.122 657.118,-132.956"/>
<polygon fill="midnightblue" stroke="midnightblue" points="657.341,-129.458 646.998,-131.756 656.517,-136.41 657.341,-129.458"/>
</g>
<!-- Node7 -->
<g id="node13" class="node"><title>Node7</title>
<polygon fill="white" stroke="#bfbfbf" points="644.889,-58.5 644.889,-79.5 700.889,-79.5 700.889,-58.5 644.889,-58.5"/>
<text text-anchor="middle" x="672.889" y="-66.5" font-family="Helvetica,sans-Serif" font-size="10.00">algorithm</text>
</g>
<!-- Node6&#45;&gt;Node7 -->
<g id="edge12" class="edge"><title>Node6&#45;&gt;Node7</title>
<path fill="none" stroke="midnightblue" d="M618.995,-116.362C628.577,-107.941 642.153,-96.0105 653.282,-86.2308"/>
<polygon fill="midnightblue" stroke="midnightblue" points="655.659,-88.8009 660.86,-79.5707 651.038,-83.5427 655.659,-88.8009"/>
</g>
<!-- Node8 -->
<g id="node15" class="node"><title>Node8</title>
<polygon fill="white" stroke="#bfbfbf" points="368.389,-58.5 368.389,-79.5 427.389,-79.5 427.389,-58.5 368.389,-58.5"/>
<text text-anchor="middle" x="397.889" y="-66.5" font-family="Helvetica,sans-Serif" font-size="10.00">stdexcept</text>
</g>
<!-- Node6&#45;&gt;Node8 -->
<g id="edge14" class="edge"><title>Node6&#45;&gt;Node8</title>
<path fill="none" stroke="midnightblue" d="M569.041,-116.497C531.787,-106.158 475.136,-90.4369 437.338,-79.9475"/>
<polygon fill="midnightblue" stroke="midnightblue" points="438.255,-76.5699 427.684,-77.2683 436.384,-83.315 438.255,-76.5699"/>
</g>
<!-- Node9 -->
<g id="node17" class="node"><title>Node9</title>
<a xlink:href="printable_8h.html" target="_top" xlink:title="printable.h">
<polygon fill="white" stroke="black" points="288.889,-58.5 288.889,-79.5 350.889,-79.5 350.889,-58.5 288.889,-58.5"/>
<text text-anchor="middle" x="319.889" y="-66.5" font-family="Helvetica,sans-Serif" font-size="10.00">printable.h</text>
</a>
</g>
<!-- Node6&#45;&gt;Node9 -->
<g id="edge16" class="edge"><title>Node6&#45;&gt;Node9</title>
<path fill="none" stroke="midnightblue" d="M566.465,-120.335C519.39,-112.347 439.101,-98.0243 361.245,-80.1933"/>
<polygon fill="midnightblue" stroke="midnightblue" points="361.803,-76.73 351.271,-77.8863 360.225,-83.5499 361.803,-76.73"/>
</g>
<!-- Node11 -->
<g id="node22" class="node"><title>Node11</title>
<a xlink:href="types_8h.html" target="_top" xlink:title="types.h">
<polygon fill="white" stroke="black" points="520.389,-58.5 520.389,-79.5 569.389,-79.5 569.389,-58.5 520.389,-58.5"/>
<text text-anchor="middle" x="544.889" y="-66.5" font-family="Helvetica,sans-Serif" font-size="10.00">types.h</text>
</a>
</g>
<!-- Node6&#45;&gt;Node11 -->
<g id="edge22" class="edge"><title>Node6&#45;&gt;Node11</title>
<path fill="none" stroke="midnightblue" d="M595.517,-116.362C586.603,-108.023 574.01,-96.2418 563.613,-86.5162"/>
<polygon fill="midnightblue" stroke="midnightblue" points="565.883,-83.8463 556.189,-79.5707 561.1,-88.9582 565.883,-83.8463"/>
</g>
<!-- Node12 -->
<g id="node24" class="node"><title>Node12</title>
<polygon fill="white" stroke="#bfbfbf" points="586.889,-58.5 586.889,-79.5 626.889,-79.5 626.889,-58.5 586.889,-58.5"/>
<text text-anchor="middle" x="606.889" y="-66.5" font-family="Helvetica,sans-Serif" font-size="10.00">limits</text>
</g>
<!-- Node6&#45;&gt;Node12 -->
<g id="edge24" class="edge"><title>Node6&#45;&gt;Node12</title>
<path fill="none" stroke="midnightblue" d="M606.889,-116.362C606.889,-108.922 606.889,-98.7427 606.889,-89.7276"/>
<polygon fill="midnightblue" stroke="midnightblue" points="610.389,-89.5706 606.889,-79.5707 603.389,-89.5707 610.389,-89.5706"/>
</g>
<!-- Node9&#45;&gt;Node4 -->
<g id="edge18" class="edge"><title>Node9&#45;&gt;Node4</title>
<path fill="none" stroke="midnightblue" d="M351.218,-58.4966C382.409,-48.0395 430.026,-32.0755 461.306,-21.5886"/>
<polygon fill="midnightblue" stroke="midnightblue" points="462.477,-24.8874 470.846,-18.3901 460.252,-18.2504 462.477,-24.8874"/>
</g>
<!-- Node10 -->
<g id="node20" class="node"><title>Node10</title>
<polygon fill="white" stroke="#bfbfbf" points="293.889,-0.5 293.889,-21.5 345.889,-21.5 345.889,-0.5 293.889,-0.5"/>
<text text-anchor="middle" x="319.889" y="-8.5" font-family="Helvetica,sans-Serif" font-size="10.00">ostream</text>
</g>
<!-- Node9&#45;&gt;Node10 -->
<g id="edge20" class="edge"><title>Node9&#45;&gt;Node10</title>
<path fill="none" stroke="midnightblue" d="M319.889,-58.3619C319.889,-50.9219 319.889,-40.7427 319.889,-31.7276"/>
<polygon fill="midnightblue" stroke="midnightblue" points="323.389,-31.5706 319.889,-21.5707 316.389,-31.5707 323.389,-31.5706"/>
</g>
<!-- Node13&#45;&gt;Node2 -->
<g id="edge28" class="edge"><title>Node13&#45;&gt;Node2</title>
<path fill="none" stroke="midnightblue" d="M1147.58,-232.362C1136.04,-223.777 1119.59,-211.546 1106.3,-201.664"/>
<polygon fill="midnightblue" stroke="midnightblue" points="1108.22,-198.729 1098.1,-195.571 1104.04,-204.346 1108.22,-198.729"/>
</g>
<!-- Node13&#45;&gt;Node5 -->
<g id="edge60" class="edge"><title>Node13&#45;&gt;Node5</title>
<path fill="none" stroke="midnightblue" d="M1196.5,-240.637C1277.59,-234.749 1474.54,-218.279 1493.89,-196 1516.02,-170.513 1481.14,-130.333 1461.89,-116 1432.67,-94.2493 1328.34,-78.999 1275.71,-72.5049"/>
<polygon fill="midnightblue" stroke="midnightblue" points="1275.96,-69.0095 1265.61,-71.2881 1275.12,-75.9593 1275.96,-69.0095"/>
</g>
<!-- Node14 -->
<g id="node29" class="node"><title>Node14</title>
<a xlink:href="root__draw_8h.html" target="_top" xlink:title="root_draw.h">
<polygon fill="white" stroke="black" points="1416.89,-174.5 1416.89,-195.5 1484.89,-195.5 1484.89,-174.5 1416.89,-174.5"/>
<text text-anchor="middle" x="1450.89" y="-182.5" font-family="Helvetica,sans-Serif" font-size="10.00">root_draw.h</text>
</a>
</g>
<!-- Node13&#45;&gt;Node14 -->
<g id="edge30" class="edge"><title>Node13&#45;&gt;Node14</title>
<path fill="none" stroke="midnightblue" d="M1196.66,-237.054C1242.57,-229.05 1326.13,-213.958 1406.84,-196.143"/>
<polygon fill="midnightblue" stroke="midnightblue" points="1407.67,-199.545 1416.67,-193.957 1406.15,-192.712 1407.67,-199.545"/>
</g>
<!-- Node17 -->
<g id="node37" class="node"><title>Node17</title>
<polygon fill="white" stroke="#bfbfbf" points="887.889,-116.5 887.889,-137.5 939.889,-137.5 939.889,-116.5 887.889,-116.5"/>
<text text-anchor="middle" x="913.889" y="-124.5" font-family="Helvetica,sans-Serif" font-size="10.00">memory</text>
</g>
<!-- Node13&#45;&gt;Node17 -->
<g id="edge58" class="edge"><title>Node13&#45;&gt;Node17</title>
<path fill="none" stroke="midnightblue" d="M1130.49,-232.436C1105.5,-223.669 1069.89,-210.352 1039.89,-196 1022.29,-187.577 1018.94,-183.487 1001.89,-174 982.477,-163.201 960.429,-151.426 943.258,-142.364"/>
<polygon fill="midnightblue" stroke="midnightblue" points="944.747,-139.192 934.268,-137.631 941.487,-145.386 944.747,-139.192"/>
</g>
<!-- Node20 -->
<g id="node43" class="node"><title>Node20</title>
<a xlink:href="memory_8h.html" target="_top" xlink:title="base/std_ext/memory.h">
<polygon fill="white" stroke="black" points="874.389,-174.5 874.389,-195.5 993.389,-195.5 993.389,-174.5 874.389,-174.5"/>
<text text-anchor="middle" x="933.889" y="-182.5" font-family="Helvetica,sans-Serif" font-size="10.00">base/std_ext/memory.h</text>
</a>
</g>
<!-- Node13&#45;&gt;Node20 -->
<g id="edge46" class="edge"><title>Node13&#45;&gt;Node20</title>
<path fill="none" stroke="midnightblue" d="M1127.26,-234.191C1089.47,-224.577 1028.57,-209.086 985.221,-198.058"/>
<polygon fill="midnightblue" stroke="midnightblue" points="985.982,-194.64 975.428,-195.567 984.257,-201.424 985.982,-194.64"/>
</g>
<!-- Node21 -->
<g id="node47" class="node"><title>Node21</title>
<polygon fill="white" stroke="#bfbfbf" points="1136.39,-174.5 1136.39,-195.5 1187.39,-195.5 1187.39,-174.5 1136.39,-174.5"/>
<text text-anchor="middle" x="1161.89" y="-182.5" font-family="Helvetica,sans-Serif" font-size="10.00">TH1D.h</text>
</g>
<!-- Node13&#45;&gt;Node21 -->
<g id="edge52" class="edge"><title>Node13&#45;&gt;Node21</title>
<path fill="none" stroke="midnightblue" d="M1161.89,-232.362C1161.89,-224.922 1161.89,-214.743 1161.89,-205.728"/>
<polygon fill="midnightblue" stroke="midnightblue" points="1165.39,-205.571 1161.89,-195.571 1158.39,-205.571 1165.39,-205.571"/>
</g>
<!-- Node22 -->
<g id="node49" class="node"><title>Node22</title>
<polygon fill="white" stroke="#bfbfbf" points="1204.39,-174.5 1204.39,-195.5 1255.39,-195.5 1255.39,-174.5 1204.39,-174.5"/>
<text text-anchor="middle" x="1229.89" y="-182.5" font-family="Helvetica,sans-Serif" font-size="10.00">TH2D.h</text>
</g>
<!-- Node13&#45;&gt;Node22 -->
<g id="edge54" class="edge"><title>Node13&#45;&gt;Node22</title>
<path fill="none" stroke="midnightblue" d="M1174.36,-232.362C1184.23,-223.941 1198.22,-212.011 1209.69,-202.231"/>
<polygon fill="midnightblue" stroke="midnightblue" points="1212.16,-204.723 1217.5,-195.571 1207.62,-199.397 1212.16,-204.723"/>
</g>
<!-- Node23 -->
<g id="node51" class="node"><title>Node23</title>
<polygon fill="white" stroke="#bfbfbf" points="1272.39,-174.5 1272.39,-195.5 1323.39,-195.5 1323.39,-174.5 1272.39,-174.5"/>
<text text-anchor="middle" x="1297.89" y="-182.5" font-family="Helvetica,sans-Serif" font-size="10.00">TH3D.h</text>
</g>
<!-- Node13&#45;&gt;Node23 -->
<g id="edge56" class="edge"><title>Node13&#45;&gt;Node23</title>
<path fill="none" stroke="midnightblue" d="M1186.52,-232.497C1208.05,-223.315 1239.53,-209.889 1263.53,-199.652"/>
<polygon fill="midnightblue" stroke="midnightblue" points="1265.16,-202.764 1272.98,-195.621 1262.41,-196.325 1265.16,-202.764"/>
</g>
<!-- Node24 -->
<g id="node55" class="node"><title>Node24</title>
<polygon fill="white" stroke="#bfbfbf" points="802.889,-174.5 802.889,-195.5 856.889,-195.5 856.889,-174.5 802.889,-174.5"/>
<text text-anchor="middle" x="829.889" y="-182.5" font-family="Helvetica,sans-Serif" font-size="10.00">iostream</text>
</g>
<!-- Node13&#45;&gt;Node24 -->
<g id="edge62" class="edge"><title>Node13&#45;&gt;Node24</title>
<path fill="none" stroke="midnightblue" d="M1126.95,-239.051C1073.07,-232.615 966.34,-218.496 866.822,-195.974"/>
<polygon fill="midnightblue" stroke="midnightblue" points="867.437,-192.524 856.907,-193.696 865.869,-199.347 867.437,-192.524"/>
</g>
<!-- Node25 -->
<g id="node57" class="node"><title>Node25</title>
<polygon fill="white" stroke="#bfbfbf" points="1340.39,-174.5 1340.39,-195.5 1399.39,-195.5 1399.39,-174.5 1340.39,-174.5"/>
<text text-anchor="middle" x="1369.89" y="-182.5" font-family="Helvetica,sans-Serif" font-size="10.00">exception</text>
</g>
<!-- Node13&#45;&gt;Node25 -->
<g id="edge64" class="edge"><title>Node13&#45;&gt;Node25</title>
<path fill="none" stroke="midnightblue" d="M1196.44,-233.58C1228.79,-224.727 1278.75,-210.986 1330.37,-196.411"/>
<polygon fill="midnightblue" stroke="midnightblue" points="1331.36,-199.77 1340.03,-193.681 1329.45,-193.034 1331.36,-199.77"/>
</g>
<!-- Node14&#45;&gt;Node4 -->
<g id="edge36" class="edge"><title>Node14&#45;&gt;Node4</title>
<path fill="none" stroke="midnightblue" d="M1416.66,-174.713C1320.43,-145.847 1051.81,-65.6903 1010.89,-58 829.344,-23.8861 607.177,-14.2808 525.232,-11.7982"/>
<polygon fill="midnightblue" stroke="midnightblue" points="525.156,-8.29459 515.059,-11.5053 524.954,-15.2917 525.156,-8.29459"/>
</g>
<!-- Node14&#45;&gt;Node5 -->
<g id="edge32" class="edge"><title>Node14&#45;&gt;Node5</title>
<path fill="none" stroke="midnightblue" d="M1453.23,-174.426C1455.86,-159.482 1458.1,-132.204 1443.89,-116 1421.98,-91.0212 1325.72,-77.4428 1275.55,-71.9478"/>
<polygon fill="midnightblue" stroke="midnightblue" points="1275.9,-68.4653 1265.58,-70.8967 1275.16,-75.4267 1275.9,-68.4653"/>
</g>
<!-- Node15 -->
<g id="node32" class="node"><title>Node15</title>
<polygon fill="white" stroke="#bfbfbf" points="830.389,-116.5 830.389,-137.5 859.389,-137.5 859.389,-116.5 830.389,-116.5"/>
<text text-anchor="middle" x="844.889" y="-124.5" font-family="Helvetica,sans-Serif" font-size="10.00">list</text>
</g>
<!-- Node14&#45;&gt;Node15 -->
<g id="edge34" class="edge"><title>Node14&#45;&gt;Node15</title>
<path fill="none" stroke="midnightblue" d="M1416.74,-175.665C1413.76,-175.033 1410.78,-174.464 1407.89,-174 1175.21,-136.643 1110.28,-182.604 878.889,-138 875.761,-137.397 872.521,-136.594 869.338,-135.694"/>
<polygon fill="midnightblue" stroke="midnightblue" points="870.167,-132.286 859.578,-132.622 868.066,-138.963 870.167,-132.286"/>
</g>
<!-- Node16 -->
<g id="node35" class="node"><title>Node16</title>
<polygon fill="white" stroke="#bfbfbf" points="940.389,-58.5 940.389,-79.5 975.389,-79.5 975.389,-58.5 940.389,-58.5"/>
<text text-anchor="middle" x="957.889" y="-66.5" font-family="Helvetica,sans-Serif" font-size="10.00">map</text>
</g>
<!-- Node14&#45;&gt;Node16 -->
<g id="edge38" class="edge"><title>Node14&#45;&gt;Node16</title>
<path fill="none" stroke="midnightblue" d="M1416.7,-175.893C1413.73,-175.212 1410.76,-174.569 1407.89,-174 1296.05,-151.838 1264.65,-165.063 1153.89,-138 1092.23,-122.934 1022.73,-95.9811 985.306,-80.5996"/>
<polygon fill="midnightblue" stroke="midnightblue" points="986.211,-77.1858 975.633,-76.5876 983.529,-83.6517 986.211,-77.1858"/>
</g>
<!-- Node14&#45;&gt;Node17 -->
<g id="edge40" class="edge"><title>Node14&#45;&gt;Node17</title>
<path fill="none" stroke="midnightblue" d="M1416.73,-175.701C1413.76,-175.061 1410.78,-174.481 1407.89,-174 1208.66,-140.852 1153.92,-172.311 954.889,-138 953.391,-137.742 951.869,-137.454 950.335,-137.142"/>
<polygon fill="midnightblue" stroke="midnightblue" points="950.727,-133.642 940.198,-134.818 949.162,-140.465 950.727,-133.642"/>
</g>
<!-- Node18 -->
<g id="node39" class="node"><title>Node18</title>
<polygon fill="white" stroke="#bfbfbf" points="1302.39,-116.5 1302.39,-137.5 1361.39,-137.5 1361.39,-116.5 1302.39,-116.5"/>
<text text-anchor="middle" x="1331.89" y="-124.5" font-family="Helvetica,sans-Serif" font-size="10.00">functional</text>
</g>
<!-- Node14&#45;&gt;Node18 -->
<g id="edge42" class="edge"><title>Node14&#45;&gt;Node18</title>
<path fill="none" stroke="midnightblue" d="M1429.34,-174.497C1410.75,-165.438 1383.69,-152.246 1362.79,-142.063"/>
<polygon fill="midnightblue" stroke="midnightblue" points="1364.2,-138.856 1353.68,-137.621 1361.14,-145.149 1364.2,-138.856"/>
</g>
<!-- Node19 -->
<g id="node41" class="node"><title>Node19</title>
<polygon fill="white" stroke="#bfbfbf" points="1378.89,-116.5 1378.89,-137.5 1434.89,-137.5 1434.89,-116.5 1378.89,-116.5"/>
<text text-anchor="middle" x="1406.89" y="-124.5" font-family="Helvetica,sans-Serif" font-size="10.00">Rtypes.h</text>
</g>
<!-- Node14&#45;&gt;Node19 -->
<g id="edge44" class="edge"><title>Node14&#45;&gt;Node19</title>
<path fill="none" stroke="midnightblue" d="M1442.82,-174.362C1436.74,-166.35 1428.25,-155.161 1421.05,-145.67"/>
<polygon fill="midnightblue" stroke="midnightblue" points="1423.74,-143.422 1414.91,-137.571 1418.16,-147.653 1423.74,-143.422"/>
</g>
<!-- Node20&#45;&gt;Node15 -->
<g id="edge50" class="edge"><title>Node20&#45;&gt;Node15</title>
<path fill="none" stroke="midnightblue" d="M917.565,-174.362C903.722,-165.34 883.698,-152.291 868.173,-142.174"/>
<polygon fill="midnightblue" stroke="midnightblue" points="869.921,-139.136 859.632,-136.608 866.1,-145 869.921,-139.136"/>
</g>
<!-- Node20&#45;&gt;Node17 -->
<g id="edge48" class="edge"><title>Node20&#45;&gt;Node17</title>
<path fill="none" stroke="midnightblue" d="M930.221,-174.362C927.599,-166.758 923.99,-156.294 920.832,-147.135"/>
<polygon fill="midnightblue" stroke="midnightblue" points="924.103,-145.883 917.534,-137.571 917.485,-148.165 924.103,-145.883"/>
</g>
<!-- Node26&#45;&gt;Node4 -->
<g id="edge136" class="edge"><title>Node26&#45;&gt;Node4</title>
<path fill="none" stroke="midnightblue" d="M583.042,-290.479C548.606,-281.831 506.439,-268.652 495.889,-254 446.694,-185.678 472.369,-76.2233 486.085,-31.2716"/>
<polygon fill="midnightblue" stroke="midnightblue" points="489.489,-32.1178 489.186,-21.5273 482.819,-29.9955 489.489,-32.1178"/>
</g>
<!-- Node26&#45;&gt;Node9 -->
<g id="edge108" class="edge"><title>Node26&#45;&gt;Node9</title>
<path fill="none" stroke="midnightblue" d="M571.01,-292.192C520.501,-283.824 453,-270.141 430.889,-254 372.543,-211.406 339.108,-127.987 326.166,-89.4329"/>
<polygon fill="midnightblue" stroke="midnightblue" points="329.464,-88.2565 323.056,-79.8197 322.804,-90.4116 329.464,-88.2565"/>
</g>
<!-- Node26&#45;&gt;Node11 -->
<g id="edge110" class="edge"><title>Node26&#45;&gt;Node11</title>
<path fill="none" stroke="midnightblue" d="M585.771,-290.41C552.7,-281.628 511.901,-268.304 501.889,-254 492.392,-240.433 524.281,-134.232 538.45,-89.1397"/>
<polygon fill="midnightblue" stroke="midnightblue" points="541.803,-90.1423 541.485,-79.5522 535.13,-88.0293 541.803,-90.1423"/>
</g>
<!-- Node26&#45;&gt;Node15 -->
<g id="edge138" class="edge"><title>Node26&#45;&gt;Node15</title>
<path fill="none" stroke="midnightblue" d="M630.605,-290.177C629.867,-260.272 628.197,-178.422 631.889,-174 684.985,-110.411 736.366,-160.825 820.432,-137.712"/>
<polygon fill="midnightblue" stroke="midnightblue" points="821.477,-141.052 830.026,-134.793 819.44,-134.355 821.477,-141.052"/>
</g>
<!-- Node26&#45;&gt;Node17 -->
<g id="edge142" class="edge"><title>Node26&#45;&gt;Node17</title>
<path fill="none" stroke="midnightblue" d="M647.133,-290.405C661.105,-281.143 681.669,-267.155 698.889,-254 742.754,-220.492 746.448,-202.218 793.889,-174 820.424,-158.217 853.218,-145.793 877.814,-137.693"/>
<polygon fill="midnightblue" stroke="midnightblue" points="879.023,-140.981 887.476,-134.593 876.885,-134.315 879.023,-140.981"/>
</g>
<!-- Node26&#45;&gt;Node24 -->
<g id="edge140" class="edge"><title>Node26&#45;&gt;Node24</title>
<path fill="none" stroke="midnightblue" d="M690.498,-293.946C722.339,-287.707 760.67,-275.986 788.889,-254 804.965,-241.475 816.054,-220.741 822.607,-205.265"/>
<polygon fill="midnightblue" stroke="midnightblue" points="826.023,-206.144 826.425,-195.557 819.508,-203.582 826.023,-206.144"/>
</g>
<!-- Node27 -->
<g id="node61" class="node"><title>Node27</title>
<a xlink:href="_candidate_8h.html" target="_top" xlink:title="analysis/data/Candidate.h">
<polygon fill="white" stroke="black" points="218.889,-232.5 218.889,-253.5 348.889,-253.5 348.889,-232.5 218.889,-232.5"/>
<text text-anchor="middle" x="283.889" y="-240.5" font-family="Helvetica,sans-Serif" font-size="10.00">analysis/data/Candidate.h</text>
</a>
</g>
<!-- Node26&#45;&gt;Node27 -->
<g id="edge68" class="edge"><title>Node26&#45;&gt;Node27</title>
<path fill="none" stroke="midnightblue" d="M571.238,-291.029C511.827,-281.099 420.529,-265.839 356.838,-255.193"/>
<polygon fill="midnightblue" stroke="midnightblue" points="357.302,-251.722 346.862,-253.526 356.148,-258.626 357.302,-251.722"/>
</g>
<!-- Node34 -->
<g id="node90" class="node"><title>Node34</title>
<a xlink:href="_particle_type_8h.html" target="_top" xlink:title="base/ParticleType.h">
<polygon fill="white" stroke="black" points="708.889,-116.5 708.889,-137.5 812.889,-137.5 812.889,-116.5 708.889,-116.5"/>
<text text-anchor="middle" x="760.889" y="-124.5" font-family="Helvetica,sans-Serif" font-size="10.00">base/ParticleType.h</text>
</a>
</g>
<!-- Node26&#45;&gt;Node34 -->
<g id="edge112" class="edge"><title>Node26&#45;&gt;Node34</title>
<path fill="none" stroke="midnightblue" d="M628.185,-290.167C624.713,-276.514 618.36,-252.368 611.889,-232 606.738,-215.787 601.822,-212.757 598.889,-196 597.203,-186.369 593.017,-181.818 598.889,-174 611.171,-157.649 658.269,-145.15 698.539,-137.166"/>
<polygon fill="midnightblue" stroke="midnightblue" points="699.444,-140.557 708.605,-135.234 698.124,-133.682 699.444,-140.557"/>
</g>
<!-- Node36 -->
<g id="node99" class="node"><title>Node36</title>
<a xlink:href="_tree_8h.html" target="_top" xlink:title="base/Tree.h">
<polygon fill="white" stroke="black" points="640.889,-174.5 640.889,-195.5 708.889,-195.5 708.889,-174.5 640.889,-174.5"/>
<text text-anchor="middle" x="674.889" y="-182.5" font-family="Helvetica,sans-Serif" font-size="10.00">base/Tree.h</text>
</a>
</g>
<!-- Node26&#45;&gt;Node36 -->
<g id="edge126" class="edge"><title>Node26&#45;&gt;Node36</title>
<path fill="none" stroke="midnightblue" d="M648.984,-290.386C661.071,-282.167 675.975,-269.57 682.889,-254 689.676,-238.718 686.764,-219.749 682.668,-205.569"/>
<polygon fill="midnightblue" stroke="midnightblue" points="685.903,-204.201 679.447,-195.8 679.255,-206.393 685.903,-204.201"/>
</g>
<!-- Node37 -->
<g id="node104" class="node"><title>Node37</title>
<polygon fill="white" stroke="#bfbfbf" points="510.889,-232.5 510.889,-253.5 602.889,-253.5 602.889,-232.5 510.889,-232.5"/>
<text text-anchor="middle" x="556.889" y="-240.5" font-family="Helvetica,sans-Serif" font-size="10.00">TLorentzVector.h</text>
</g>
<!-- Node26&#45;&gt;Node37 -->
<g id="edge134" class="edge"><title>Node26&#45;&gt;Node37</title>
<path fill="none" stroke="midnightblue" d="M617.316,-290.362C606.468,-281.859 591.055,-269.779 578.511,-259.947"/>
<polygon fill="midnightblue" stroke="midnightblue" points="580.405,-256.985 570.376,-253.571 576.087,-262.494 580.405,-256.985"/>
</g>
<!-- Node27&#45;&gt;Node4 -->
<g id="edge106" class="edge"><title>Node27&#45;&gt;Node4</title>
<path fill="none" stroke="midnightblue" d="M294.442,-232.142C319.497,-206.267 384.324,-138.738 435.889,-80 450.49,-63.368 466.489,-43.8831 477.81,-29.869"/>
<polygon fill="midnightblue" stroke="midnightblue" points="480.66,-31.9103 484.201,-21.9245 475.206,-27.523 480.66,-31.9103"/>
</g>
<!-- Node27&#45;&gt;Node9 -->
<g id="edge70" class="edge"><title>Node27&#45;&gt;Node9</title>
<path fill="none" stroke="midnightblue" d="M288.513,-232.224C296.295,-213.485 311.757,-173.497 317.889,-138 320.631,-122.131 321.045,-103.911 320.82,-90.1792"/>
<polygon fill="midnightblue" stroke="midnightblue" points="324.309,-89.7442 320.518,-79.8509 317.312,-89.949 324.309,-89.7442"/>
</g>
<!-- Node27&#45;&gt;Node10 -->
<g id="edge102" class="edge"><title>Node27&#45;&gt;Node10</title>
<path fill="none" stroke="midnightblue" d="M218.655,-233.111C169.18,-224.607 106.178,-211.315 84.8891,-196 29.2237,-155.955 -28.7414,-110.061 15.8891,-58 33.1516,-37.8636 206.685,-20.6766 283.561,-13.9872"/>
<polygon fill="midnightblue" stroke="midnightblue" points="284.077,-17.4559 293.741,-13.1137 283.478,-10.4815 284.077,-17.4559"/>
</g>
<!-- Node27&#45;&gt;Node11 -->
<g id="edge72" class="edge"><title>Node27&#45;&gt;Node11</title>
<path fill="none" stroke="midnightblue" d="M338.127,-232.48C366.698,-225.253 401.41,-213.692 428.889,-196 474.23,-166.807 513.325,-115.604 532.424,-87.97"/>
<polygon fill="midnightblue" stroke="midnightblue" points="535.405,-89.8103 538.115,-79.5679 529.609,-85.8849 535.405,-89.8103"/>
</g>
<!-- Node27&#45;&gt;Node17 -->
<g id="edge104" class="edge"><title>Node27&#45;&gt;Node17</title>
<path fill="none" stroke="midnightblue" d="M349.181,-238.849C452.918,-231.763 650.539,-216.127 717.889,-196 738.458,-189.853 740.997,-182.072 760.889,-174 799.869,-158.183 846.251,-144.637 877.65,-136.207"/>
<polygon fill="midnightblue" stroke="midnightblue" points="878.92,-139.492 887.691,-133.549 877.128,-132.725 878.92,-139.492"/>
</g>
<!-- Node28 -->
<g id="node65" class="node"><title>Node28</title>
<a xlink:href="_detector__t_8h.html" target="_top" xlink:title="base/Detector_t.h">
<polygon fill="white" stroke="black" points="214.389,-116.5 214.389,-137.5 309.389,-137.5 309.389,-116.5 214.389,-116.5"/>
<text text-anchor="middle" x="261.889" y="-124.5" font-family="Helvetica,sans-Serif" font-size="10.00">base/Detector_t.h</text>
</a>
</g>
<!-- Node27&#45;&gt;Node28 -->
<g id="edge74" class="edge"><title>Node27&#45;&gt;Node28</title>
<path fill="none" stroke="midnightblue" d="M281.859,-232.295C278.208,-213.045 270.478,-172.289 265.779,-147.509"/>
<polygon fill="midnightblue" stroke="midnightblue" points="269.217,-146.852 263.914,-137.679 262.339,-148.156 269.217,-146.852"/>
</g>
<!-- Node29 -->
<g id="node68" class="node"><title>Node29</title>
<polygon fill="white" stroke="#bfbfbf" points="24.3891,-58.5 24.3891,-79.5 89.3891,-79.5 89.3891,-58.5 24.3891,-58.5"/>
<text text-anchor="middle" x="56.8891" y="-66.5" font-family="Helvetica,sans-Serif" font-size="10.00">TVector3.h</text>
</g>
<!-- Node27&#45;&gt;Node29 -->
<g id="edge100" class="edge"><title>Node27&#45;&gt;Node29</title>
<path fill="none" stroke="midnightblue" d="M232.327,-232.441C201.694,-224.902 162.737,-213.049 130.889,-196 94.9663,-176.77 78.1476,-174.426 59.8891,-138 52.5122,-123.283 52.1851,-104.505 53.4678,-90.2552"/>
<polygon fill="midnightblue" stroke="midnightblue" points="56.9868,-90.3154 54.7377,-79.962 50.0395,-89.4582 56.9868,-90.3154"/>
</g>
<!-- Node32 -->
<g id="node77" class="node"><title>Node32</title>
<a xlink:href="_cluster_8h.html" target="_top" xlink:title="analysis/data/Cluster.h">
<polygon fill="white" stroke="black" points="139.389,-174.5 139.389,-195.5 256.389,-195.5 256.389,-174.5 139.389,-174.5"/>
<text text-anchor="middle" x="197.889" y="-182.5" font-family="Helvetica,sans-Serif" font-size="10.00">analysis/data/Cluster.h</text>
</a>
</g>
<!-- Node27&#45;&gt;Node32 -->
<g id="edge90" class="edge"><title>Node27&#45;&gt;Node32</title>
<path fill="none" stroke="midnightblue" d="M268.115,-232.362C255.265,-223.696 236.904,-211.313 222.179,-201.382"/>
<polygon fill="midnightblue" stroke="midnightblue" points="223.811,-198.26 213.563,-195.571 219.897,-204.064 223.811,-198.26"/>
</g>
<!-- Node28&#45;&gt;Node4 -->
<g id="edge88" class="edge"><title>Node28&#45;&gt;Node4</title>
<path fill="none" stroke="midnightblue" d="M261.462,-116.453C261.458,-101.289 263.835,-73.455 279.889,-58 305.412,-33.4292 407.412,-19.668 460.461,-14.0409"/>
<polygon fill="midnightblue" stroke="midnightblue" points="461.096,-17.4942 470.687,-12.9929 460.383,-10.5307 461.096,-17.4942"/>
</g>
<!-- Node28&#45;&gt;Node5 -->
<g id="edge84" class="edge"><title>Node28&#45;&gt;Node5</title>
<path fill="none" stroke="midnightblue" d="M309.633,-124.183C482.382,-113.99 1072.15,-79.1923 1214.01,-70.8217"/>
<polygon fill="midnightblue" stroke="midnightblue" points="1214.4,-74.3052 1224.17,-70.2222 1213.99,-67.3174 1214.4,-74.3052"/>
</g>
<!-- Node28&#45;&gt;Node8 -->
<g id="edge82" class="edge"><title>Node28&#45;&gt;Node8</title>
<path fill="none" stroke="midnightblue" d="M286.518,-116.497C308.046,-107.315 339.529,-93.8889 363.534,-83.6516"/>
<polygon fill="midnightblue" stroke="midnightblue" points="365.159,-86.7636 372.984,-79.6212 362.413,-80.3247 365.159,-86.7636"/>
</g>
<!-- Node28&#45;&gt;Node9 -->
<g id="edge76" class="edge"><title>Node28&#45;&gt;Node9</title>
<path fill="none" stroke="midnightblue" d="M272.527,-116.362C280.785,-108.104 292.417,-96.4725 302.086,-86.8029"/>
<polygon fill="midnightblue" stroke="midnightblue" points="304.722,-89.1166 309.318,-79.5707 299.772,-84.1669 304.722,-89.1166"/>
</g>
<!-- Node28&#45;&gt;Node29 -->
<g id="edge78" class="edge"><title>Node28&#45;&gt;Node29</title>
<path fill="none" stroke="midnightblue" d="M224.765,-116.497C189.54,-106.53 136.634,-91.5619 99.6574,-81.1003"/>
<polygon fill="midnightblue" stroke="midnightblue" points="100.254,-77.6317 89.6785,-78.277 98.3479,-84.3673 100.254,-77.6317"/>
</g>
<!-- Node30 -->
<g id="node70" class="node"><title>Node30</title>
<polygon fill="white" stroke="#bfbfbf" points="186.889,-58.5 186.889,-79.5 232.889,-79.5 232.889,-58.5 186.889,-58.5"/>
<text text-anchor="middle" x="209.889" y="-66.5" font-family="Helvetica,sans-Serif" font-size="10.00">cstdint</text>
</g>
<!-- Node28&#45;&gt;Node30 -->
<g id="edge80" class="edge"><title>Node28&#45;&gt;Node30</title>
<path fill="none" stroke="midnightblue" d="M252.352,-116.362C245.021,-108.186 234.726,-96.7025 226.108,-87.0907"/>
<polygon fill="midnightblue" stroke="midnightblue" points="228.648,-84.68 219.366,-79.5707 223.436,-89.3528 228.648,-84.68"/>
</g>
<!-- Node31 -->
<g id="node74" class="node"><title>Node31</title>
<polygon fill="white" stroke="#bfbfbf" points="106.889,-58.5 106.889,-79.5 168.889,-79.5 168.889,-58.5 106.889,-58.5"/>
<text text-anchor="middle" x="137.889" y="-66.5" font-family="Helvetica,sans-Serif" font-size="10.00">type_traits</text>
</g>
<!-- Node28&#45;&gt;Node31 -->
<g id="edge86" class="edge"><title>Node28&#45;&gt;Node31</title>
<path fill="none" stroke="midnightblue" d="M239.434,-116.497C219.979,-107.397 191.609,-94.1273 169.798,-83.9253"/>
<polygon fill="midnightblue" stroke="midnightblue" points="171.138,-80.6878 160.597,-79.6212 168.172,-87.0285 171.138,-80.6878"/>
</g>
<!-- Node32&#45;&gt;Node15 -->
<g id="edge94" class="edge"><title>Node32&#45;&gt;Node15</title>
<path fill="none" stroke="midnightblue" d="M256.811,-183.336C387.403,-179.212 698.621,-166.872 820.298,-137.562"/>
<polygon fill="midnightblue" stroke="midnightblue" points="821.284,-140.922 830.102,-135.049 819.546,-134.141 821.284,-140.922"/>
</g>
<!-- Node32&#45;&gt;Node28 -->
<g id="edge92" class="edge"><title>Node32&#45;&gt;Node28</title>
<path fill="none" stroke="midnightblue" d="M209.628,-174.362C218.83,-166.023 231.829,-154.242 242.561,-144.516"/>
<polygon fill="midnightblue" stroke="midnightblue" points="245.165,-146.879 250.225,-137.571 240.465,-141.692 245.165,-146.879"/>
</g>
<!-- Node32&#45;&gt;Node29 -->
<g id="edge96" class="edge"><title>Node32&#45;&gt;Node29</title>
<path fill="none" stroke="midnightblue" d="M195.832,-174.244C192.46,-159.329 184.409,-132.362 167.889,-116 157.527,-105.737 125.544,-92.7168 98.5546,-82.9843"/>
<polygon fill="midnightblue" stroke="midnightblue" points="99.4813,-79.5995 88.8865,-79.5586 97.1433,-86.1976 99.4813,-79.5995"/>
</g>
<!-- Node33 -->
<g id="node82" class="node"><title>Node33</title>
<a xlink:href="enumfield_8h.html" target="_top" xlink:title="base/enumfield.h">
<polygon fill="white" stroke="black" points="68.3891,-116.5 68.3891,-137.5 159.389,-137.5 159.389,-116.5 68.3891,-116.5"/>
<text text-anchor="middle" x="113.889" y="-124.5" font-family="Helvetica,sans-Serif" font-size="10.00">base/enumfield.h</text>
</a>
</g>
<!-- Node32&#45;&gt;Node33 -->
<g id="edge98" class="edge"><title>Node32&#45;&gt;Node33</title>
<path fill="none" stroke="midnightblue" d="M182.482,-174.362C169.931,-165.696 151.997,-153.313 137.615,-143.382"/>
<polygon fill="midnightblue" stroke="midnightblue" points="139.416,-140.372 129.198,-137.571 135.439,-146.133 139.416,-140.372"/>
</g>
<!-- Node34&#45;&gt;Node4 -->
<g id="edge124" class="edge"><title>Node34&#45;&gt;Node4</title>
<path fill="none" stroke="midnightblue" d="M778.449,-116.335C799.18,-102.444 828.829,-77.6181 811.889,-58 793.283,-36.4512 602.807,-19.4707 525.365,-13.4057"/>
<polygon fill="midnightblue" stroke="midnightblue" points="525.457,-9.90245 515.217,-12.623 524.918,-16.8817 525.457,-9.90245"/>
</g>
<!-- Node34&#45;&gt;Node5 -->
<g id="edge116" class="edge"><title>Node34&#45;&gt;Node5</title>
<path fill="none" stroke="midnightblue" d="M813.095,-117.346C816.067,-116.871 819.014,-116.418 821.889,-116 967.989,-94.7354 1143.71,-78.0331 1213.82,-71.7255"/>
<polygon fill="midnightblue" stroke="midnightblue" points="1214.49,-75.1793 1224.14,-70.8033 1213.87,-68.2071 1214.49,-75.1793"/>
</g>
<!-- Node34&#45;&gt;Node10 -->
<g id="edge118" class="edge"><title>Node34&#45;&gt;Node10</title>
<path fill="none" stroke="midnightblue" d="M756.442,-116.455C749.212,-100.759 733.32,-71.6379 709.889,-58 679.627,-40.3864 446.931,-20.7855 356.07,-13.7212"/>
<polygon fill="midnightblue" stroke="midnightblue" points="356.205,-10.2214 345.966,-12.942 355.667,-17.2007 356.205,-10.2214"/>
</g>
<!-- Node34&#45;&gt;Node11 -->
<g id="edge114" class="edge"><title>Node34&#45;&gt;Node11</title>
<path fill="none" stroke="midnightblue" d="M716.275,-116.472C681.252,-107.998 631.076,-95.3996 579.366,-80.3209"/>
<polygon fill="midnightblue" stroke="midnightblue" points="580.278,-76.9408 569.696,-77.4769 578.302,-83.6564 580.278,-76.9408"/>
</g>
<!-- Node34&#45;&gt;Node16 -->
<g id="edge120" class="edge"><title>Node34&#45;&gt;Node16</title>
<path fill="none" stroke="midnightblue" d="M796.564,-116.497C834.949,-105.196 895.18,-87.4625 930.166,-77.1621"/>
<polygon fill="midnightblue" stroke="midnightblue" points="931.557,-80.4012 940.161,-74.2194 929.58,-73.6862 931.557,-80.4012"/>
</g>
<!-- Node35 -->
<g id="node96" class="node"><title>Node35</title>
<polygon fill="white" stroke="#bfbfbf" points="756.389,-58.5 756.389,-79.5 803.389,-79.5 803.389,-58.5 756.389,-58.5"/>
<text text-anchor="middle" x="779.889" y="-66.5" font-family="Helvetica,sans-Serif" font-size="10.00">iterator</text>
</g>
<!-- Node34&#45;&gt;Node35 -->
<g id="edge122" class="edge"><title>Node34&#45;&gt;Node35</title>
<path fill="none" stroke="midnightblue" d="M764.374,-116.362C766.865,-108.758 770.293,-98.294 773.293,-89.1349"/>
<polygon fill="midnightblue" stroke="midnightblue" points="776.639,-90.1634 776.426,-79.5707 769.987,-87.9841 776.639,-90.1634"/>
</g>
<!-- Node36&#45;&gt;Node7 -->
<g id="edge132" class="edge"><title>Node36&#45;&gt;Node7</title>
<path fill="none" stroke="midnightblue" d="M674.705,-174.295C674.374,-155.131 673.676,-114.654 673.248,-89.8434"/>
<polygon fill="midnightblue" stroke="midnightblue" points="676.745,-89.6173 673.073,-79.6792 669.746,-89.7381 676.745,-89.6173"/>
</g>
<!-- Node36&#45;&gt;Node15 -->
<g id="edge130" class="edge"><title>Node36&#45;&gt;Node15</title>
<path fill="none" stroke="midnightblue" d="M708.921,-175.555C736.958,-167.459 777.841,-154.934 820.509,-138.256"/>
<polygon fill="midnightblue" stroke="midnightblue" points="821.923,-141.461 829.926,-134.518 819.34,-134.955 821.923,-141.461"/>
</g>
<!-- Node36&#45;&gt;Node17 -->
<g id="edge128" class="edge"><title>Node36&#45;&gt;Node17</title>
<path fill="none" stroke="midnightblue" d="M709.132,-176.69C754.011,-165.799 832.366,-146.784 878.032,-135.702"/>
<polygon fill="midnightblue" stroke="midnightblue" points="878.911,-139.09 887.803,-133.33 877.26,-132.288 878.911,-139.09"/>
</g>
</g>
</svg>
