<?xml version="1.0" encoding="UTF-8" standalone="no"?>
<!DOCTYPE svg PUBLIC "-//W3C//DTD SVG 1.1//EN"
 "http://www.w3.org/Graphics/SVG/1.1/DTD/svg11.dtd">
<!-- Generated by graphviz version 2.26.3 (20100126.1600)
 -->
<!-- Title: src/analysis/plot/HistogramFactories.cc Pages: 1 -->
<svg width="1579pt" height="450pt"
 viewBox="0.00 0.00 1579.06 450.00" xmlns="http://www.w3.org/2000/svg" xmlns:xlink="http://www.w3.org/1999/xlink">
<g id="graph1" class="graph" transform="scale(1 1) rotate(0) translate(4 446)">
<title>src/analysis/plot/HistogramFactories.cc</title>
<polygon fill="white" stroke="white" points="-4,5 -4,-446 1576.06,-446 1576.06,5 -4,5"/>
<!-- Node1 -->
<g id="node1" class="node"><title>Node1</title>
<polygon fill="#bfbfbf" stroke="black" points="1235,-407 1235,-441 1371,-441 1371,-407 1235,-407"/>
<text text-anchor="start" x="1243" y="-428" font-family="Helvetica,sans-Serif" font-size="10.00">src/analysis/plot/Histogram</text>
<text text-anchor="middle" x="1303" y="-415" font-family="Helvetica,sans-Serif" font-size="10.00">Factories.cc</text>
</g>
<!-- Node2 -->
<g id="node3" class="node"><title>Node2</title>
<a xlink:href="_histogram_factories_8h.html" target="_top" xlink:title="plot/HistogramFactories.h">
<polygon fill="white" stroke="black" points="1184.5,-348.5 1184.5,-369.5 1313.5,-369.5 1313.5,-348.5 1184.5,-348.5"/>
<text text-anchor="middle" x="1249" y="-356.5" font-family="Helvetica,sans-Serif" font-size="10.00">plot/HistogramFactories.h</text>
</a>
</g>
<!-- Node1&#45;&gt;Node2 -->
<g id="edge2" class="edge"><title>Node1&#45;&gt;Node2</title>
<path fill="none" stroke="midnightblue" d="M1288.81,-406.922C1281.35,-397.937 1272.18,-386.905 1264.53,-377.691"/>
<polygon fill="midnightblue" stroke="midnightblue" points="1267.1,-375.307 1258.02,-369.852 1261.71,-379.781 1267.1,-375.307"/>
</g>
<!-- Node14 -->
<g id="node28" class="node"><title>Node14</title>
<a xlink:href="_smart_hist_8h.html" target="_top" xlink:title="SmartHist.h">
<polygon fill="white" stroke="black" points="1155.5,-232.5 1155.5,-253.5 1224.5,-253.5 1224.5,-232.5 1155.5,-232.5"/>
<text text-anchor="middle" x="1190" y="-240.5" font-family="Helvetica,sans-Serif" font-size="10.00">SmartHist.h</text>
</a>
</g>
<!-- Node1&#45;&gt;Node14 -->
<g id="edge148" class="edge"><title>Node1&#45;&gt;Node14</title>
<path fill="none" stroke="midnightblue" d="M1234.72,-410.898C1212.16,-402.971 1189.42,-390.283 1176,-370 1154.5,-337.497 1169.1,-289.795 1180.38,-263.062"/>
<polygon fill="midnightblue" stroke="midnightblue" points="1183.72,-264.167 1184.6,-253.609 1177.33,-261.311 1183.72,-264.167"/>
</g>
<!-- Node27 -->
<g id="node61" class="node"><title>Node27</title>
<a xlink:href="_particle_8h.html" target="_top" xlink:title="analysis/data/Particle.h">
<polygon fill="white" stroke="black" points="524.5,-290.5 524.5,-311.5 643.5,-311.5 643.5,-290.5 524.5,-290.5"/>
<text text-anchor="middle" x="584" y="-298.5" font-family="Helvetica,sans-Serif" font-size="10.00">analysis/data/Particle.h</text>
</a>
</g>
<!-- Node1&#45;&gt;Node27 -->
<g id="edge150" class="edge"><title>Node1&#45;&gt;Node27</title>
<path fill="none" stroke="midnightblue" d="M1234.71,-412.318C1097.92,-388.917 791.64,-336.521 653.696,-312.923"/>
<polygon fill="midnightblue" stroke="midnightblue" points="654.108,-309.443 643.661,-311.206 652.928,-316.343 654.108,-309.443"/>
</g>
<!-- Node39 -->
<g id="node115" class="node"><title>Node39</title>
<polygon fill="white" stroke="#bfbfbf" points="1330.5,-348.5 1330.5,-369.5 1383.5,-369.5 1383.5,-348.5 1330.5,-348.5"/>
<text text-anchor="middle" x="1357" y="-356.5" font-family="Helvetica,sans-Serif" font-size="10.00">TMath.h</text>
</g>
<!-- Node1&#45;&gt;Node39 -->
<g id="edge152" class="edge"><title>Node1&#45;&gt;Node39</title>
<path fill="none" stroke="midnightblue" d="M1317.19,-406.922C1324.65,-397.937 1333.82,-386.905 1341.47,-377.691"/>
<polygon fill="midnightblue" stroke="midnightblue" points="1344.29,-379.781 1347.98,-369.852 1338.9,-375.307 1344.29,-379.781"/>
</g>
<!-- Node40 -->
<g id="node117" class="node"><title>Node40</title>
<polygon fill="white" stroke="#bfbfbf" points="1400.5,-348.5 1400.5,-369.5 1471.5,-369.5 1471.5,-348.5 1400.5,-348.5"/>
<text text-anchor="middle" x="1436" y="-356.5" font-family="Helvetica,sans-Serif" font-size="10.00">TDirectory.h</text>
</g>
<!-- Node1&#45;&gt;Node40 -->
<g id="edge154" class="edge"><title>Node1&#45;&gt;Node40</title>
<path fill="none" stroke="midnightblue" d="M1337.94,-406.922C1358.81,-396.726 1385.06,-383.894 1405.16,-374.074"/>
<polygon fill="midnightblue" stroke="midnightblue" points="1406.74,-377.194 1414.19,-369.658 1403.67,-370.905 1406.74,-377.194"/>
</g>
<!-- Node41 -->
<g id="node119" class="node"><title>Node41</title>
<polygon fill="white" stroke="#bfbfbf" points="1489,-348.5 1489,-369.5 1539,-369.5 1539,-348.5 1489,-348.5"/>
<text text-anchor="middle" x="1514" y="-356.5" font-family="Helvetica,sans-Serif" font-size="10.00">TTree.h</text>
</g>
<!-- Node1&#45;&gt;Node41 -->
<g id="edge156" class="edge"><title>Node1&#45;&gt;Node41</title>
<path fill="none" stroke="midnightblue" d="M1359.67,-406.975C1392.13,-397.161 1433.87,-384.443 1479.07,-370.264"/>
<polygon fill="midnightblue" stroke="midnightblue" points="1480.27,-373.554 1488.76,-367.217 1478.17,-366.876 1480.27,-373.554"/>
</g>
<!-- Node3 -->
<g id="node5" class="node"><title>Node3</title>
<a xlink:href="_histogram_8h.html" target="_top" xlink:title="Histogram.h">
<polygon fill="white" stroke="black" points="1449,-174.5 1449,-195.5 1519,-195.5 1519,-174.5 1449,-174.5"/>
<text text-anchor="middle" x="1484" y="-182.5" font-family="Helvetica,sans-Serif" font-size="10.00">Histogram.h</text>
</a>
</g>
<!-- Node2&#45;&gt;Node3 -->
<g id="edge4" class="edge"><title>Node2&#45;&gt;Node3</title>
<path fill="none" stroke="midnightblue" d="M1263.35,-348.377C1302.84,-319.134 1413.41,-237.267 1461.35,-201.77"/>
<polygon fill="midnightblue" stroke="midnightblue" points="1463.59,-204.468 1469.54,-195.705 1459.42,-198.842 1463.59,-204.468"/>
</g>
<!-- Node6 -->
<g id="node11" class="node"><title>Node6</title>
<polygon fill="white" stroke="#bfbfbf" points="1298.5,-58.5 1298.5,-79.5 1339.5,-79.5 1339.5,-58.5 1298.5,-58.5"/>
<text text-anchor="middle" x="1319" y="-66.5" font-family="Helvetica,sans-Serif" font-size="10.00">string</text>
</g>
<!-- Node2&#45;&gt;Node6 -->
<g id="edge146" class="edge"><title>Node2&#45;&gt;Node6</title>
<path fill="none" stroke="midnightblue" d="M1313.57,-349.109C1407.31,-332.903 1570,-296.997 1570,-243 1570,-243 1570,-243 1570,-185 1570,-153.192 1574.25,-137.705 1551,-116 1522.14,-89.0628 1405.94,-76.0862 1349.74,-71.2873"/>
<polygon fill="midnightblue" stroke="midnightblue" points="1349.91,-67.7899 1339.66,-70.4598 1349.34,-74.7664 1349.91,-67.7899"/>
</g>
<!-- Node2&#45;&gt;Node14 -->
<g id="edge28" class="edge"><title>Node2&#45;&gt;Node14</title>
<path fill="none" stroke="midnightblue" d="M1243.56,-348.295C1233.68,-328.872 1212.66,-287.556 1200.09,-262.846"/>
<polygon fill="midnightblue" stroke="midnightblue" points="1203.08,-261.006 1195.43,-253.679 1196.85,-264.179 1203.08,-261.006"/>
</g>
<!-- Node2&#45;&gt;Node27 -->
<g id="edge68" class="edge"><title>Node2&#45;&gt;Node27</title>
<path fill="none" stroke="midnightblue" d="M1184.33,-353.36C1058.81,-342.412 783.139,-318.369 653.71,-307.08"/>
<polygon fill="midnightblue" stroke="midnightblue" points="653.789,-303.574 643.522,-306.191 653.18,-310.547 653.789,-303.574"/>
</g>
<!-- Node4 -->
<g id="node7" class="node"><title>Node4</title>
<polygon fill="white" stroke="#bfbfbf" points="1488,-116.5 1488,-137.5 1542,-137.5 1542,-116.5 1488,-116.5"/>
<text text-anchor="middle" x="1515" y="-124.5" font-family="Helvetica,sans-Serif" font-size="10.00">TColor.h</text>
</g>
<!-- Node3&#45;&gt;Node4 -->
<g id="edge6" class="edge"><title>Node3&#45;&gt;Node4</title>
<path fill="none" stroke="midnightblue" d="M1489.69,-174.362C1493.84,-166.595 1499.58,-155.843 1504.55,-146.546"/>
<polygon fill="midnightblue" stroke="midnightblue" points="1507.72,-148.04 1509.35,-137.571 1501.55,-144.74 1507.72,-148.04"/>
</g>
<!-- Node5 -->
<g id="node9" class="node"><title>Node5</title>
<polygon fill="white" stroke="#bfbfbf" points="426,-0.5 426,-21.5 470,-21.5 470,-0.5 426,-0.5"/>
<text text-anchor="middle" x="448" y="-8.5" font-family="Helvetica,sans-Serif" font-size="10.00">vector</text>
</g>
<!-- Node3&#45;&gt;Node5 -->
<g id="edge8" class="edge"><title>Node3&#45;&gt;Node5</title>
<path fill="none" stroke="midnightblue" d="M1477.12,-174.174C1459.55,-147.72 1410,-80.3364 1348,-58 1265.07,-28.1252 630.795,-14.4277 480.064,-11.5754"/>
<polygon fill="midnightblue" stroke="midnightblue" points="480.125,-8.07601 470.061,-11.3887 479.994,-15.0748 480.125,-8.07601"/>
</g>
<!-- Node3&#45;&gt;Node6 -->
<g id="edge10" class="edge"><title>Node3&#45;&gt;Node6</title>
<path fill="none" stroke="midnightblue" d="M1471.89,-174.382C1455.61,-160.325 1425.53,-135.092 1398,-116 1381.82,-104.777 1362.88,-93.4538 1347.61,-84.7344"/>
<polygon fill="midnightblue" stroke="midnightblue" points="1349.06,-81.5327 1338.63,-79.666 1345.62,-87.6289 1349.06,-81.5327"/>
</g>
<!-- Node7 -->
<g id="node13" class="node"><title>Node7</title>
<a xlink:href="interval_8h.html" target="_top" xlink:title="base/interval.h">
<polygon fill="white" stroke="black" points="1054,-116.5 1054,-137.5 1134,-137.5 1134,-116.5 1054,-116.5"/>
<text text-anchor="middle" x="1094" y="-124.5" font-family="Helvetica,sans-Serif" font-size="10.00">base/interval.h</text>
</a>
</g>
<!-- Node3&#45;&gt;Node7 -->
<g id="edge12" class="edge"><title>Node3&#45;&gt;Node7</title>
<path fill="none" stroke="midnightblue" d="M1448.7,-179.751C1379.26,-169.423 1224.67,-146.433 1144.47,-134.505"/>
<polygon fill="midnightblue" stroke="midnightblue" points="1144.53,-130.977 1134.13,-132.968 1143.5,-137.901 1144.53,-130.977"/>
</g>
<!-- Node8 -->
<g id="node15" class="node"><title>Node8</title>
<polygon fill="white" stroke="#bfbfbf" points="952,-58.5 952,-79.5 1008,-79.5 1008,-58.5 952,-58.5"/>
<text text-anchor="middle" x="980" y="-66.5" font-family="Helvetica,sans-Serif" font-size="10.00">algorithm</text>
</g>
<!-- Node7&#45;&gt;Node8 -->
<g id="edge14" class="edge"><title>Node7&#45;&gt;Node8</title>
<path fill="none" stroke="midnightblue" d="M1073.36,-116.497C1055.63,-107.479 1029.86,-94.3649 1009.88,-84.2006"/>
<polygon fill="midnightblue" stroke="midnightblue" points="1011.38,-81.0364 1000.88,-79.6212 1008.2,-87.2753 1011.38,-81.0364"/>
</g>
<!-- Node9 -->
<g id="node17" class="node"><title>Node9</title>
<polygon fill="white" stroke="#bfbfbf" points="539.5,-58.5 539.5,-79.5 598.5,-79.5 598.5,-58.5 539.5,-58.5"/>
<text text-anchor="middle" x="569" y="-66.5" font-family="Helvetica,sans-Serif" font-size="10.00">stdexcept</text>
</g>
<!-- Node7&#45;&gt;Node9 -->
<g id="edge16" class="edge"><title>Node7&#45;&gt;Node9</title>
<path fill="none" stroke="midnightblue" d="M1053.97,-117.594C1050.94,-117.011 1047.93,-116.471 1045,-116 1034.25,-114.27 721.619,-83.8277 608.968,-72.8809"/>
<polygon fill="midnightblue" stroke="midnightblue" points="608.999,-69.3675 598.708,-71.884 608.322,-76.3347 608.999,-69.3675"/>
</g>
<!-- Node10 -->
<g id="node19" class="node"><title>Node10</title>
<a xlink:href="printable_8h.html" target="_top" xlink:title="printable.h">
<polygon fill="white" stroke="black" points="94,-58.5 94,-79.5 156,-79.5 156,-58.5 94,-58.5"/>
<text text-anchor="middle" x="125" y="-66.5" font-family="Helvetica,sans-Serif" font-size="10.00">printable.h</text>
</a>
</g>
<!-- Node7&#45;&gt;Node10 -->
<g id="edge18" class="edge"><title>Node7&#45;&gt;Node10</title>
<path fill="none" stroke="midnightblue" d="M1053.99,-117.403C1050.96,-116.865 1047.94,-116.387 1045,-116 660.225,-65.3599 553.586,-139.007 166.371,-79.8889"/>
<polygon fill="midnightblue" stroke="midnightblue" points="166.714,-76.4004 156.296,-78.3307 165.643,-83.3182 166.714,-76.4004"/>
</g>
<!-- Node12 -->
<g id="node24" class="node"><title>Node12</title>
<a xlink:href="types_8h.html" target="_top" xlink:title="types.h">
<polygon fill="white" stroke="black" points="743.5,-58.5 743.5,-79.5 792.5,-79.5 792.5,-58.5 743.5,-58.5"/>
<text text-anchor="middle" x="768" y="-66.5" font-family="Helvetica,sans-Serif" font-size="10.00">types.h</text>
</a>
</g>
<!-- Node7&#45;&gt;Node12 -->
<g id="edge24" class="edge"><title>Node7&#45;&gt;Node12</title>
<path fill="none" stroke="midnightblue" d="M1053.93,-117.823C1050.91,-117.187 1047.91,-116.573 1045,-116 958.139,-98.8936 855.211,-82.4191 802.658,-74.2788"/>
<polygon fill="midnightblue" stroke="midnightblue" points="802.952,-70.7828 792.535,-72.7175 801.884,-77.701 802.952,-70.7828"/>
</g>
<!-- Node13 -->
<g id="node26" class="node"><title>Node13</title>
<polygon fill="white" stroke="#bfbfbf" points="1074,-58.5 1074,-79.5 1114,-79.5 1114,-58.5 1074,-58.5"/>
<text text-anchor="middle" x="1094" y="-66.5" font-family="Helvetica,sans-Serif" font-size="10.00">limits</text>
</g>
<!-- Node7&#45;&gt;Node13 -->
<g id="edge26" class="edge"><title>Node7&#45;&gt;Node13</title>
<path fill="none" stroke="midnightblue" d="M1094,-116.362C1094,-108.922 1094,-98.7427 1094,-89.7276"/>
<polygon fill="midnightblue" stroke="midnightblue" points="1097.5,-89.5706 1094,-79.5707 1090.5,-89.5707 1097.5,-89.5706"/>
</g>
<!-- Node10&#45;&gt;Node5 -->
<g id="edge20" class="edge"><title>Node10&#45;&gt;Node5</title>
<path fill="none" stroke="midnightblue" d="M156.366,-60.0433C159.275,-59.3127 162.186,-58.6188 165,-58 255.105,-38.1845 362.985,-22.4373 415.739,-15.2458"/>
<polygon fill="midnightblue" stroke="midnightblue" points="416.392,-18.6895 425.834,-13.8828 415.456,-11.7525 416.392,-18.6895"/>
</g>
<!-- Node11 -->
<g id="node22" class="node"><title>Node11</title>
<polygon fill="white" stroke="#bfbfbf" points="99,-0.5 99,-21.5 151,-21.5 151,-0.5 99,-0.5"/>
<text text-anchor="middle" x="125" y="-8.5" font-family="Helvetica,sans-Serif" font-size="10.00">ostream</text>
</g>
<!-- Node10&#45;&gt;Node11 -->
<g id="edge22" class="edge"><title>Node10&#45;&gt;Node11</title>
<path fill="none" stroke="midnightblue" d="M125,-58.3619C125,-50.9219 125,-40.7427 125,-31.7276"/>
<polygon fill="midnightblue" stroke="midnightblue" points="128.5,-31.5706 125,-21.5707 121.5,-31.5707 128.5,-31.5706"/>
</g>
<!-- Node14&#45;&gt;Node3 -->
<g id="edge30" class="edge"><title>Node14&#45;&gt;Node3</title>
<path fill="none" stroke="midnightblue" d="M1224.56,-236.723C1272.06,-228.015 1360.16,-211.575 1435,-196 1436.27,-195.735 1437.56,-195.464 1438.86,-195.188"/>
<polygon fill="midnightblue" stroke="midnightblue" points="1439.93,-198.538 1448.97,-193.005 1438.45,-191.696 1439.93,-198.538"/>
</g>
<!-- Node14&#45;&gt;Node6 -->
<g id="edge62" class="edge"><title>Node14&#45;&gt;Node6</title>
<path fill="none" stroke="midnightblue" d="M1224.84,-240.435C1279.18,-235.63 1380.17,-223.196 1402,-196 1408.12,-188.374 1405.21,-183.236 1402,-174 1389.61,-138.346 1359.53,-105.664 1339.19,-86.5368"/>
<polygon fill="midnightblue" stroke="midnightblue" points="1341.41,-83.8269 1331.67,-79.6612 1336.69,-88.9926 1341.41,-83.8269"/>
</g>
<!-- Node15 -->
<g id="node31" class="node"><title>Node15</title>
<a xlink:href="root__draw_8h.html" target="_top" xlink:title="root_draw.h">
<polygon fill="white" stroke="black" points="1045,-174.5 1045,-195.5 1113,-195.5 1113,-174.5 1045,-174.5"/>
<text text-anchor="middle" x="1079" y="-182.5" font-family="Helvetica,sans-Serif" font-size="10.00">root_draw.h</text>
</a>
</g>
<!-- Node14&#45;&gt;Node15 -->
<g id="edge32" class="edge"><title>Node14&#45;&gt;Node15</title>
<path fill="none" stroke="midnightblue" d="M1169.9,-232.497C1152.72,-223.519 1127.77,-210.484 1108.36,-200.339"/>
<polygon fill="midnightblue" stroke="midnightblue" points="1109.81,-197.15 1099.33,-195.621 1106.57,-203.354 1109.81,-197.15"/>
</g>
<!-- Node18 -->
<g id="node39" class="node"><title>Node18</title>
<polygon fill="white" stroke="#bfbfbf" points="758,-116.5 758,-137.5 810,-137.5 810,-116.5 758,-116.5"/>
<text text-anchor="middle" x="784" y="-124.5" font-family="Helvetica,sans-Serif" font-size="10.00">memory</text>
</g>
<!-- Node14&#45;&gt;Node18 -->
<g id="edge60" class="edge"><title>Node14&#45;&gt;Node18</title>
<path fill="none" stroke="midnightblue" d="M1155.25,-234.822C1123.49,-226.786 1075.6,-213.235 1036,-196 1018.11,-188.212 1016.27,-180.866 998,-174 923.59,-146.033 897.118,-158.756 820.423,-139.306"/>
<polygon fill="midnightblue" stroke="midnightblue" points="820.862,-135.801 810.299,-136.628 819.071,-142.569 820.862,-135.801"/>
</g>
<!-- Node21 -->
<g id="node45" class="node"><title>Node21</title>
<a xlink:href="memory_8h.html" target="_top" xlink:title="base/std_ext/memory.h">
<polygon fill="white" stroke="black" points="870.5,-174.5 870.5,-195.5 989.5,-195.5 989.5,-174.5 870.5,-174.5"/>
<text text-anchor="middle" x="930" y="-182.5" font-family="Helvetica,sans-Serif" font-size="10.00">base/std_ext/memory.h</text>
</a>
</g>
<!-- Node14&#45;&gt;Node21 -->
<g id="edge48" class="edge"><title>Node14&#45;&gt;Node21</title>
<path fill="none" stroke="midnightblue" d="M1155.47,-235.298C1112.61,-225.736 1038.88,-209.288 987.444,-197.814"/>
<polygon fill="midnightblue" stroke="midnightblue" points="987.992,-194.351 977.469,-195.589 986.468,-201.183 987.992,-194.351"/>
</g>
<!-- Node22 -->
<g id="node49" class="node"><title>Node22</title>
<polygon fill="white" stroke="#bfbfbf" points="1130.5,-174.5 1130.5,-195.5 1181.5,-195.5 1181.5,-174.5 1130.5,-174.5"/>
<text text-anchor="middle" x="1156" y="-182.5" font-family="Helvetica,sans-Serif" font-size="10.00">TH1D.h</text>
</g>
<!-- Node14&#45;&gt;Node22 -->
<g id="edge54" class="edge"><title>Node14&#45;&gt;Node22</title>
<path fill="none" stroke="midnightblue" d="M1183.76,-232.362C1179.16,-224.513 1172.77,-213.616 1167.29,-204.253"/>
<polygon fill="midnightblue" stroke="midnightblue" points="1170.27,-202.428 1162.2,-195.571 1164.23,-205.968 1170.27,-202.428"/>
</g>
<!-- Node23 -->
<g id="node51" class="node"><title>Node23</title>
<polygon fill="white" stroke="#bfbfbf" points="1198.5,-174.5 1198.5,-195.5 1249.5,-195.5 1249.5,-174.5 1198.5,-174.5"/>
<text text-anchor="middle" x="1224" y="-182.5" font-family="Helvetica,sans-Serif" font-size="10.00">TH2D.h</text>
</g>
<!-- Node14&#45;&gt;Node23 -->
<g id="edge56" class="edge"><title>Node14&#45;&gt;Node23</title>
<path fill="none" stroke="midnightblue" d="M1196.24,-232.362C1200.84,-224.513 1207.23,-213.616 1212.71,-204.253"/>
<polygon fill="midnightblue" stroke="midnightblue" points="1215.77,-205.968 1217.8,-195.571 1209.73,-202.428 1215.77,-205.968"/>
</g>
<!-- Node24 -->
<g id="node53" class="node"><title>Node24</title>
<polygon fill="white" stroke="#bfbfbf" points="1266.5,-174.5 1266.5,-195.5 1317.5,-195.5 1317.5,-174.5 1266.5,-174.5"/>
<text text-anchor="middle" x="1292" y="-182.5" font-family="Helvetica,sans-Serif" font-size="10.00">TH3D.h</text>
</g>
<!-- Node14&#45;&gt;Node24 -->
<g id="edge58" class="edge"><title>Node14&#45;&gt;Node24</title>
<path fill="none" stroke="midnightblue" d="M1208.71,-232.362C1224.38,-223.45 1246.96,-210.609 1264.66,-200.545"/>
<polygon fill="midnightblue" stroke="midnightblue" points="1266.45,-203.556 1273.41,-195.571 1262.99,-197.471 1266.45,-203.556"/>
</g>
<!-- Node25 -->
<g id="node57" class="node"><title>Node25</title>
<polygon fill="white" stroke="#bfbfbf" points="799,-174.5 799,-195.5 853,-195.5 853,-174.5 799,-174.5"/>
<text text-anchor="middle" x="826" y="-182.5" font-family="Helvetica,sans-Serif" font-size="10.00">iostream</text>
</g>
<!-- Node14&#45;&gt;Node25 -->
<g id="edge64" class="edge"><title>Node14&#45;&gt;Node25</title>
<path fill="none" stroke="midnightblue" d="M1155.21,-239.796C1096.73,-234.028 974.964,-220.373 863.106,-195.979"/>
<polygon fill="midnightblue" stroke="midnightblue" points="863.528,-192.488 853.007,-193.741 862.013,-199.322 863.528,-192.488"/>
</g>
<!-- Node26 -->
<g id="node59" class="node"><title>Node26</title>
<polygon fill="white" stroke="#bfbfbf" points="1334.5,-174.5 1334.5,-195.5 1393.5,-195.5 1393.5,-174.5 1334.5,-174.5"/>
<text text-anchor="middle" x="1364" y="-182.5" font-family="Helvetica,sans-Serif" font-size="10.00">exception</text>
</g>
<!-- Node14&#45;&gt;Node26 -->
<g id="edge66" class="edge"><title>Node14&#45;&gt;Node26</title>
<path fill="none" stroke="midnightblue" d="M1221.51,-232.497C1250.5,-222.835 1293.58,-208.472 1324.79,-198.072"/>
<polygon fill="midnightblue" stroke="midnightblue" points="1326.08,-201.328 1334.46,-194.845 1323.87,-194.687 1326.08,-201.328"/>
</g>
<!-- Node15&#45;&gt;Node5 -->
<g id="edge38" class="edge"><title>Node15&#45;&gt;Node5</title>
<path fill="none" stroke="midnightblue" d="M1044.7,-177.123C995.222,-165.627 908.286,-144.876 895,-138 846.279,-112.784 851.12,-80.3064 801,-58 743.934,-32.602 557.032,-18.0164 480.808,-12.9977"/>
<polygon fill="midnightblue" stroke="midnightblue" points="480.598,-9.47694 470.393,-12.3265 480.147,-16.4625 480.598,-9.47694"/>
</g>
<!-- Node15&#45;&gt;Node6 -->
<g id="edge34" class="edge"><title>Node15&#45;&gt;Node6</title>
<path fill="none" stroke="midnightblue" d="M1101.15,-174.295C1144.45,-153.367 1240.34,-107.021 1289.17,-83.4186"/>
<polygon fill="midnightblue" stroke="midnightblue" points="1290.8,-86.5186 1298.28,-79.0157 1287.75,-80.2162 1290.8,-86.5186"/>
</g>
<!-- Node16 -->
<g id="node34" class="node"><title>Node16</title>
<polygon fill="white" stroke="#bfbfbf" points="673.5,-116.5 673.5,-137.5 702.5,-137.5 702.5,-116.5 673.5,-116.5"/>
<text text-anchor="middle" x="688" y="-124.5" font-family="Helvetica,sans-Serif" font-size="10.00">list</text>
</g>
<!-- Node15&#45;&gt;Node16 -->
<g id="edge36" class="edge"><title>Node15&#45;&gt;Node16</title>
<path fill="none" stroke="midnightblue" d="M1044.84,-180.298C972.457,-170.308 805.631,-147.136 749,-138 736.924,-136.052 723.545,-133.665 712.401,-131.613"/>
<polygon fill="midnightblue" stroke="midnightblue" points="712.989,-128.163 702.518,-129.774 711.709,-135.044 712.989,-128.163"/>
</g>
<!-- Node17 -->
<g id="node37" class="node"><title>Node17</title>
<polygon fill="white" stroke="#bfbfbf" points="691.5,-58.5 691.5,-79.5 726.5,-79.5 726.5,-58.5 691.5,-58.5"/>
<text text-anchor="middle" x="709" y="-66.5" font-family="Helvetica,sans-Serif" font-size="10.00">map</text>
</g>
<!-- Node15&#45;&gt;Node17 -->
<g id="edge40" class="edge"><title>Node15&#45;&gt;Node17</title>
<path fill="none" stroke="midnightblue" d="M1044.93,-177.123C1040.25,-176.062 1035.51,-174.997 1031,-174 956.014,-157.422 934.364,-163.711 862,-138 841.772,-130.813 838.438,-125.112 819,-116 811.102,-112.298 766.193,-93.2118 736.254,-80.5288"/>
<polygon fill="midnightblue" stroke="midnightblue" points="737.323,-77.1807 726.75,-76.5046 734.594,-83.6267 737.323,-77.1807"/>
</g>
<!-- Node15&#45;&gt;Node18 -->
<g id="edge42" class="edge"><title>Node15&#45;&gt;Node18</title>
<path fill="none" stroke="midnightblue" d="M1044.96,-176.964C1040.28,-175.928 1035.53,-174.911 1031,-174 939.457,-155.564 915.125,-158.404 824,-138 822.735,-137.717 821.45,-137.419 820.154,-137.11"/>
<polygon fill="midnightblue" stroke="midnightblue" points="820.713,-133.641 810.16,-134.582 818.996,-140.427 820.713,-133.641"/>
</g>
<!-- Node19 -->
<g id="node41" class="node"><title>Node19</title>
<polygon fill="white" stroke="#bfbfbf" points="903.5,-116.5 903.5,-137.5 962.5,-137.5 962.5,-116.5 903.5,-116.5"/>
<text text-anchor="middle" x="933" y="-124.5" font-family="Helvetica,sans-Serif" font-size="10.00">functional</text>
</g>
<!-- Node15&#45;&gt;Node19 -->
<g id="edge44" class="edge"><title>Node15&#45;&gt;Node19</title>
<path fill="none" stroke="midnightblue" d="M1052.56,-174.497C1029.24,-165.234 995.05,-151.65 969.196,-141.379"/>
<polygon fill="midnightblue" stroke="midnightblue" points="970.322,-138.06 959.736,-137.621 967.737,-144.566 970.322,-138.06"/>
</g>
<!-- Node20 -->
<g id="node43" class="node"><title>Node20</title>
<polygon fill="white" stroke="#bfbfbf" points="980,-116.5 980,-137.5 1036,-137.5 1036,-116.5 980,-116.5"/>
<text text-anchor="middle" x="1008" y="-124.5" font-family="Helvetica,sans-Serif" font-size="10.00">Rtypes.h</text>
</g>
<!-- Node15&#45;&gt;Node20 -->
<g id="edge46" class="edge"><title>Node15&#45;&gt;Node20</title>
<path fill="none" stroke="midnightblue" d="M1065.98,-174.362C1055.57,-165.859 1040.78,-153.779 1028.74,-143.947"/>
<polygon fill="midnightblue" stroke="midnightblue" points="1030.9,-141.187 1020.94,-137.571 1026.47,-146.608 1030.9,-141.187"/>
</g>
<!-- Node21&#45;&gt;Node16 -->
<g id="edge52" class="edge"><title>Node21&#45;&gt;Node16</title>
<path fill="none" stroke="midnightblue" d="M886.176,-174.497C835.287,-162.3 753.142,-142.612 712.454,-132.861"/>
<polygon fill="midnightblue" stroke="midnightblue" points="713.131,-129.424 702.591,-130.497 711.5,-136.231 713.131,-129.424"/>
</g>
<!-- Node21&#45;&gt;Node18 -->
<g id="edge50" class="edge"><title>Node21&#45;&gt;Node18</title>
<path fill="none" stroke="midnightblue" d="M903.561,-174.497C880.098,-165.176 845.622,-151.48 819.713,-141.187"/>
<polygon fill="midnightblue" stroke="midnightblue" points="820.829,-137.864 810.243,-137.425 818.244,-144.37 820.829,-137.864"/>
</g>
<!-- Node27&#45;&gt;Node5 -->
<g id="edge138" class="edge"><title>Node27&#45;&gt;Node5</title>
<path fill="none" stroke="midnightblue" d="M524.246,-295.385C375.404,-280.597 0,-238.042 0,-185 0,-185 0,-185 0,-127 0,-78.342 40.2844,-77.1864 85,-58 144.4,-32.5129 338.621,-17.8533 415.881,-12.9075"/>
<polygon fill="midnightblue" stroke="midnightblue" points="416.219,-16.3932 425.98,-12.2739 415.781,-9.40696 416.219,-16.3932"/>
</g>
<!-- Node27&#45;&gt;Node10 -->
<g id="edge110" class="edge"><title>Node27&#45;&gt;Node10</title>
<path fill="none" stroke="midnightblue" d="M524.352,-297C462.558,-291.641 363.767,-279.648 282,-254 225.861,-236.391 208.047,-233.849 163,-196 138.633,-175.526 130.811,-168.277 121,-138 115.921,-122.328 117.441,-103.619 119.942,-89.6391"/>
<polygon fill="midnightblue" stroke="midnightblue" points="123.422,-90.0951 122.051,-79.5895 116.571,-88.6575 123.422,-90.0951"/>
</g>
<!-- Node27&#45;&gt;Node12 -->
<g id="edge112" class="edge"><title>Node27&#45;&gt;Node12</title>
<path fill="none" stroke="midnightblue" d="M625.748,-290.488C644.542,-283.447 664.951,-272.051 676,-254 681.104,-245.66 680.373,-240.746 676,-232 664.074,-208.149 639.926,-219.851 628,-196 610.481,-160.962 635.433,-141.699 665,-116 675.918,-106.51 708.333,-92.3948 733.915,-82.1106"/>
<polygon fill="midnightblue" stroke="midnightblue" points="735.323,-85.3174 743.325,-78.3743 732.74,-78.8115 735.323,-85.3174"/>
</g>
<!-- Node27&#45;&gt;Node16 -->
<g id="edge140" class="edge"><title>Node27&#45;&gt;Node16</title>
<path fill="none" stroke="midnightblue" d="M573.834,-290.067C562.341,-276.311 546.401,-252.058 556,-232 578.242,-185.523 632.269,-153.331 663.879,-137.745"/>
<polygon fill="midnightblue" stroke="midnightblue" points="665.759,-140.727 673.286,-133.271 662.752,-134.405 665.759,-140.727"/>
</g>
<!-- Node27&#45;&gt;Node18 -->
<g id="edge144" class="edge"><title>Node27&#45;&gt;Node18</title>
<path fill="none" stroke="midnightblue" d="M643.647,-292.261C671.093,-285.651 702.48,-274.106 725,-254 757.181,-225.269 773.096,-175.35 779.834,-147.42"/>
<polygon fill="midnightblue" stroke="midnightblue" points="783.271,-148.085 782.048,-137.561 776.442,-146.551 783.271,-148.085"/>
</g>
<!-- Node27&#45;&gt;Node25 -->
<g id="edge142" class="edge"><title>Node27&#45;&gt;Node25</title>
<path fill="none" stroke="midnightblue" d="M576.07,-290.397C566.093,-275.664 551.872,-248.911 566,-232 573.116,-223.483 718.112,-200.976 788.417,-190.504"/>
<polygon fill="midnightblue" stroke="midnightblue" points="789.246,-193.919 798.624,-188.989 788.219,-186.995 789.246,-193.919"/>
</g>
<!-- Node28 -->
<g id="node63" class="node"><title>Node28</title>
<a xlink:href="_candidate_8h.html" target="_top" xlink:title="analysis/data/Candidate.h">
<polygon fill="white" stroke="black" points="291,-232.5 291,-253.5 421,-253.5 421,-232.5 291,-232.5"/>
<text text-anchor="middle" x="356" y="-240.5" font-family="Helvetica,sans-Serif" font-size="10.00">analysis/data/Candidate.h</text>
</a>
</g>
<!-- Node27&#45;&gt;Node28 -->
<g id="edge70" class="edge"><title>Node27&#45;&gt;Node28</title>
<path fill="none" stroke="midnightblue" d="M542.711,-290.497C504.656,-280.816 448.048,-266.416 407.145,-256.01"/>
<polygon fill="midnightblue" stroke="midnightblue" points="407.921,-252.597 397.367,-253.523 406.195,-259.38 407.921,-252.597"/>
</g>
<!-- Node35 -->
<g id="node92" class="node"><title>Node35</title>
<a xlink:href="_particle_type_8h.html" target="_top" xlink:title="base/ParticleType.h">
<polygon fill="white" stroke="black" points="476,-116.5 476,-137.5 580,-137.5 580,-116.5 476,-116.5"/>
<text text-anchor="middle" x="528" y="-124.5" font-family="Helvetica,sans-Serif" font-size="10.00">base/ParticleType.h</text>
</a>
</g>
<!-- Node27&#45;&gt;Node35 -->
<g id="edge114" class="edge"><title>Node27&#45;&gt;Node35</title>
<path fill="none" stroke="midnightblue" d="M544.037,-290.326C525.721,-283.216 505.735,-271.808 495,-254 474.261,-219.595 497.752,-172.327 514.379,-146.243"/>
<polygon fill="midnightblue" stroke="midnightblue" points="517.469,-147.917 520.1,-137.654 511.643,-144.037 517.469,-147.917"/>
</g>
<!-- Node37 -->
<g id="node101" class="node"><title>Node37</title>
<a xlink:href="_tree_8h.html" target="_top" xlink:title="base/Tree.h">
<polygon fill="white" stroke="black" points="637,-174.5 637,-195.5 705,-195.5 705,-174.5 637,-174.5"/>
<text text-anchor="middle" x="671" y="-182.5" font-family="Helvetica,sans-Serif" font-size="10.00">base/Tree.h</text>
</a>
</g>
<!-- Node27&#45;&gt;Node37 -->
<g id="edge128" class="edge"><title>Node27&#45;&gt;Node37</title>
<path fill="none" stroke="midnightblue" d="M626.756,-290.495C658.981,-281.611 699.234,-268.106 709,-254 720.535,-237.34 705.987,-216.85 691.685,-202.545"/>
<polygon fill="midnightblue" stroke="midnightblue" points="694.056,-199.97 684.368,-195.681 689.267,-205.075 694.056,-199.97"/>
</g>
<!-- Node38 -->
<g id="node106" class="node"><title>Node38</title>
<polygon fill="white" stroke="#bfbfbf" points="575,-232.5 575,-253.5 667,-253.5 667,-232.5 575,-232.5"/>
<text text-anchor="middle" x="621" y="-240.5" font-family="Helvetica,sans-Serif" font-size="10.00">TLorentzVector.h</text>
</g>
<!-- Node27&#45;&gt;Node38 -->
<g id="edge136" class="edge"><title>Node27&#45;&gt;Node38</title>
<path fill="none" stroke="midnightblue" d="M590.786,-290.362C595.793,-282.513 602.745,-271.616 608.718,-262.253"/>
<polygon fill="midnightblue" stroke="midnightblue" points="611.829,-263.884 614.257,-253.571 605.928,-260.119 611.829,-263.884"/>
</g>
<!-- Node28&#45;&gt;Node5 -->
<g id="edge108" class="edge"><title>Node28&#45;&gt;Node5</title>
<path fill="none" stroke="midnightblue" d="M380.071,-232.408C394.941,-224.56 413.028,-212.386 423,-196 454.775,-143.787 453.302,-68.1035 450.322,-31.866"/>
<polygon fill="midnightblue" stroke="midnightblue" points="453.774,-31.1898 449.342,-21.5663 446.805,-31.8529 453.774,-31.1898"/>
</g>
<!-- Node28&#45;&gt;Node10 -->
<g id="edge72" class="edge"><title>Node28&#45;&gt;Node10</title>
<path fill="none" stroke="midnightblue" d="M292.111,-232.457C239.08,-219.935 167.038,-193.301 133,-138 124.135,-123.596 122.582,-104.265 122.99,-89.7285"/>
<polygon fill="midnightblue" stroke="midnightblue" points="126.486,-89.901 123.596,-79.708 119.499,-89.4785 126.486,-89.901"/>
</g>
<!-- Node28&#45;&gt;Node11 -->
<g id="edge104" class="edge"><title>Node28&#45;&gt;Node11</title>
<path fill="none" stroke="midnightblue" d="M292.759,-232.471C244.968,-223.624 184.113,-210.181 163,-196 111.427,-161.359 102.035,-139.746 85,-80 82.319,-70.5969 81.6238,-67.1764 85,-58 88.9958,-47.1398 96.7392,-37.0779 104.357,-29.0736"/>
<polygon fill="midnightblue" stroke="midnightblue" points="107.089,-31.297 111.79,-21.8019 102.194,-26.2934 107.089,-31.297"/>
</g>
<!-- Node28&#45;&gt;Node12 -->
<g id="edge74" class="edge"><title>Node28&#45;&gt;Node12</title>
<path fill="none" stroke="midnightblue" d="M380.673,-232.361C423.404,-213.828 513.823,-174.143 589,-138 608.347,-128.698 612.251,-124.415 632,-116 641.584,-111.916 696.426,-93.1974 733.473,-80.651"/>
<polygon fill="midnightblue" stroke="midnightblue" points="735.047,-83.8134 743.398,-77.2933 732.804,-77.1826 735.047,-83.8134"/>
</g>
<!-- Node28&#45;&gt;Node18 -->
<g id="edge106" class="edge"><title>Node28&#45;&gt;Node18</title>
<path fill="none" stroke="midnightblue" d="M421.116,-239.413C509.942,-233.681 663.8,-220.521 714,-196 737.546,-184.499 758.031,-161.968 770.655,-145.778"/>
<polygon fill="midnightblue" stroke="midnightblue" points="773.629,-147.646 776.83,-137.546 768.029,-143.446 773.629,-147.646"/>
</g>
<!-- Node29 -->
<g id="node67" class="node"><title>Node29</title>
<a xlink:href="_detector__t_8h.html" target="_top" xlink:title="base/Detector_t.h">
<polygon fill="white" stroke="black" points="141.5,-116.5 141.5,-137.5 236.5,-137.5 236.5,-116.5 141.5,-116.5"/>
<text text-anchor="middle" x="189" y="-124.5" font-family="Helvetica,sans-Serif" font-size="10.00">base/Detector_t.h</text>
</a>
</g>
<!-- Node28&#45;&gt;Node29 -->
<g id="edge76" class="edge"><title>Node28&#45;&gt;Node29</title>
<path fill="none" stroke="midnightblue" d="M322.522,-232.363C300.623,-224.43 272.088,-212.176 250,-196 230.805,-181.943 213.316,-160.916 202.034,-145.771"/>
<polygon fill="midnightblue" stroke="midnightblue" points="204.841,-143.679 196.143,-137.63 199.17,-147.783 204.841,-143.679"/>
</g>
<!-- Node30 -->
<g id="node70" class="node"><title>Node30</title>
<polygon fill="white" stroke="#bfbfbf" points="355.5,-58.5 355.5,-79.5 420.5,-79.5 420.5,-58.5 355.5,-58.5"/>
<text text-anchor="middle" x="388" y="-66.5" font-family="Helvetica,sans-Serif" font-size="10.00">TVector3.h</text>
</g>
<!-- Node28&#45;&gt;Node30 -->
<g id="edge102" class="edge"><title>Node28&#45;&gt;Node30</title>
<path fill="none" stroke="midnightblue" d="M331.424,-232.337C316.548,-224.525 298.643,-212.417 289,-196 270.942,-165.256 263.61,-145.922 283,-116 290.416,-104.556 319.796,-91.9479 345.598,-82.6737"/>
<polygon fill="midnightblue" stroke="midnightblue" points="346.977,-85.8994 355.259,-79.2918 344.664,-79.2925 346.977,-85.8994"/>
</g>
<!-- Node33 -->
<g id="node79" class="node"><title>Node33</title>
<a xlink:href="_cluster_8h.html" target="_top" xlink:title="analysis/data/Cluster.h">
<polygon fill="white" stroke="black" points="297.5,-174.5 297.5,-195.5 414.5,-195.5 414.5,-174.5 297.5,-174.5"/>
<text text-anchor="middle" x="356" y="-182.5" font-family="Helvetica,sans-Serif" font-size="10.00">analysis/data/Cluster.h</text>
</a>
</g>
<!-- Node28&#45;&gt;Node33 -->
<g id="edge92" class="edge"><title>Node28&#45;&gt;Node33</title>
<path fill="none" stroke="midnightblue" d="M356,-232.362C356,-224.922 356,-214.743 356,-205.728"/>
<polygon fill="midnightblue" stroke="midnightblue" points="359.5,-205.571 356,-195.571 352.5,-205.571 359.5,-205.571"/>
</g>
<!-- Node29&#45;&gt;Node5 -->
<g id="edge90" class="edge"><title>Node29&#45;&gt;Node5</title>
<path fill="none" stroke="midnightblue" d="M219.624,-116.459C244.201,-107.656 279.371,-94.2779 309,-80 326.58,-71.5283 329.692,-67.0146 347,-58 369.849,-46.0998 396.264,-33.8589 416.349,-24.8536"/>
<polygon fill="midnightblue" stroke="midnightblue" points="417.946,-27.974 425.657,-20.7085 415.098,-21.5795 417.946,-27.974"/>
</g>
<!-- Node29&#45;&gt;Node6 -->
<g id="edge86" class="edge"><title>Node29&#45;&gt;Node6</title>
<path fill="none" stroke="midnightblue" d="M236.753,-120.722C251.553,-118.962 267.932,-117.203 283,-116 655.491,-86.264 749.781,-98.4697 1123,-80 1181.5,-77.1052 1249.78,-73.1402 1288.35,-70.8462"/>
<polygon fill="midnightblue" stroke="midnightblue" points="1288.63,-74.3355 1298.41,-70.2457 1288.21,-67.3479 1288.63,-74.3355"/>
</g>
<!-- Node29&#45;&gt;Node9 -->
<g id="edge84" class="edge"><title>Node29&#45;&gt;Node9</title>
<path fill="none" stroke="midnightblue" d="M236.587,-121.328C312.939,-112.089 460.482,-93.6331 529.28,-80.1028"/>
<polygon fill="midnightblue" stroke="midnightblue" points="530.141,-83.4992 539.233,-78.0599 528.733,-76.6422 530.141,-83.4992"/>
</g>
<!-- Node29&#45;&gt;Node10 -->
<g id="edge78" class="edge"><title>Node29&#45;&gt;Node10</title>
<path fill="none" stroke="midnightblue" d="M177.261,-116.362C168.059,-108.023 155.06,-96.2418 144.328,-86.5162"/>
<polygon fill="midnightblue" stroke="midnightblue" points="146.424,-83.6924 136.664,-79.5707 141.724,-88.8793 146.424,-83.6924"/>
</g>
<!-- Node29&#45;&gt;Node30 -->
<g id="edge80" class="edge"><title>Node29&#45;&gt;Node30</title>
<path fill="none" stroke="midnightblue" d="M225.037,-116.497C258.925,-106.62 309.668,-91.8304 345.513,-81.3833"/>
<polygon fill="midnightblue" stroke="midnightblue" points="346.58,-84.7179 355.201,-78.5595 344.621,-77.9975 346.58,-84.7179"/>
</g>
<!-- Node31 -->
<g id="node72" class="node"><title>Node31</title>
<polygon fill="white" stroke="#bfbfbf" points="254,-58.5 254,-79.5 300,-79.5 300,-58.5 254,-58.5"/>
<text text-anchor="middle" x="277" y="-66.5" font-family="Helvetica,sans-Serif" font-size="10.00">cstdint</text>
</g>
<!-- Node29&#45;&gt;Node31 -->
<g id="edge82" class="edge"><title>Node29&#45;&gt;Node31</title>
<path fill="none" stroke="midnightblue" d="M205.141,-116.362C218.414,-107.614 237.432,-95.0786 252.57,-85.1015"/>
<polygon fill="midnightblue" stroke="midnightblue" points="254.538,-87.9962 260.962,-79.5707 250.686,-82.1515 254.538,-87.9962"/>
</g>
<!-- Node32 -->
<g id="node76" class="node"><title>Node32</title>
<polygon fill="white" stroke="#bfbfbf" points="174,-58.5 174,-79.5 236,-79.5 236,-58.5 174,-58.5"/>
<text text-anchor="middle" x="205" y="-66.5" font-family="Helvetica,sans-Serif" font-size="10.00">type_traits</text>
</g>
<!-- Node29&#45;&gt;Node32 -->
<g id="edge88" class="edge"><title>Node29&#45;&gt;Node32</title>
<path fill="none" stroke="midnightblue" d="M191.935,-116.362C194.01,-108.84 196.857,-98.5187 199.364,-89.4308"/>
<polygon fill="midnightblue" stroke="midnightblue" points="202.799,-90.1414 202.084,-79.5707 196.051,-88.2798 202.799,-90.1414"/>
</g>
<!-- Node33&#45;&gt;Node16 -->
<g id="edge96" class="edge"><title>Node33&#45;&gt;Node16</title>
<path fill="none" stroke="midnightblue" d="M414.591,-174.764C488.105,-161.921 610.871,-140.474 663.177,-131.337"/>
<polygon fill="midnightblue" stroke="midnightblue" points="663.977,-134.75 673.226,-129.581 662.773,-127.854 663.977,-134.75"/>
</g>
<!-- Node33&#45;&gt;Node29 -->
<g id="edge94" class="edge"><title>Node33&#45;&gt;Node29</title>
<path fill="none" stroke="midnightblue" d="M325.758,-174.497C298.65,-165.082 258.69,-151.204 228.957,-140.877"/>
<polygon fill="midnightblue" stroke="midnightblue" points="229.894,-137.498 219.299,-137.523 227.597,-144.11 229.894,-137.498"/>
</g>
<!-- Node33&#45;&gt;Node30 -->
<g id="edge98" class="edge"><title>Node33&#45;&gt;Node30</title>
<path fill="none" stroke="midnightblue" d="M367.245,-174.234C375.6,-165.404 386.327,-152.099 391,-138 396.179,-122.373 394.94,-103.662 392.678,-89.6686"/>
<polygon fill="midnightblue" stroke="midnightblue" points="396.069,-88.7683 390.747,-79.6073 389.194,-90.0878 396.069,-88.7683"/>
</g>
<!-- Node34 -->
<g id="node84" class="node"><title>Node34</title>
<a xlink:href="enumfield_8h.html" target="_top" xlink:title="base/enumfield.h">
<polygon fill="white" stroke="black" points="291.5,-116.5 291.5,-137.5 382.5,-137.5 382.5,-116.5 291.5,-116.5"/>
<text text-anchor="middle" x="337" y="-124.5" font-family="Helvetica,sans-Serif" font-size="10.00">base/enumfield.h</text>
</a>
</g>
<!-- Node33&#45;&gt;Node34 -->
<g id="edge100" class="edge"><title>Node33&#45;&gt;Node34</title>
<path fill="none" stroke="midnightblue" d="M352.515,-174.362C350.024,-166.758 346.596,-156.294 343.596,-147.135"/>
<polygon fill="midnightblue" stroke="midnightblue" points="346.902,-145.984 340.463,-137.571 340.25,-148.163 346.902,-145.984"/>
</g>
<!-- Node35&#45;&gt;Node5 -->
<g id="edge126" class="edge"><title>Node35&#45;&gt;Node5</title>
<path fill="none" stroke="midnightblue" d="M575.986,-116.47C615.593,-105.519 661.995,-86.0281 640,-58 620.509,-33.1626 529.85,-19.7487 480.395,-14.1681"/>
<polygon fill="midnightblue" stroke="midnightblue" points="480.538,-10.6631 470.219,-13.0647 479.783,-17.6223 480.538,-10.6631"/>
</g>
<!-- Node35&#45;&gt;Node6 -->
<g id="edge118" class="edge"><title>Node35&#45;&gt;Node6</title>
<path fill="none" stroke="midnightblue" d="M580.036,-122.719C605.624,-120.64 636.925,-118.136 665,-116 904.931,-97.7467 1194.53,-77.593 1288.19,-71.1221"/>
<polygon fill="midnightblue" stroke="midnightblue" points="1288.64,-74.5993 1298.38,-70.4188 1288.16,-67.6159 1288.64,-74.5993"/>
</g>
<!-- Node35&#45;&gt;Node11 -->
<g id="edge120" class="edge"><title>Node35&#45;&gt;Node11</title>
<path fill="none" stroke="midnightblue" d="M556.335,-116.407C586.626,-103.563 627.678,-80.7928 607,-58 577.165,-25.1145 268.367,-14.4986 161.308,-11.7919"/>
<polygon fill="midnightblue" stroke="midnightblue" points="161.094,-8.28571 151.011,-11.5404 160.923,-15.2836 161.094,-8.28571"/>
</g>
<!-- Node35&#45;&gt;Node12 -->
<g id="edge116" class="edge"><title>Node35&#45;&gt;Node12</title>
<path fill="none" stroke="midnightblue" d="M580.249,-116.624C620.017,-108.39 676.263,-96.025 733.309,-80.3131"/>
<polygon fill="midnightblue" stroke="midnightblue" points="734.521,-83.6087 743.215,-77.5528 732.642,-76.8657 734.521,-83.6087"/>
</g>
<!-- Node35&#45;&gt;Node17 -->
<g id="edge122" class="edge"><title>Node35&#45;&gt;Node17</title>
<path fill="none" stroke="midnightblue" d="M562.974,-116.446C593.451,-107.152 638.785,-93.0963 678,-80 679.219,-79.593 680.463,-79.1726 681.718,-78.7442"/>
<polygon fill="midnightblue" stroke="midnightblue" points="683.041,-81.9898 691.334,-75.3967 680.74,-75.3789 683.041,-81.9898"/>
</g>
<!-- Node36 -->
<g id="node98" class="node"><title>Node36</title>
<polygon fill="white" stroke="#bfbfbf" points="475.5,-58.5 475.5,-79.5 522.5,-79.5 522.5,-58.5 475.5,-58.5"/>
<text text-anchor="middle" x="499" y="-66.5" font-family="Helvetica,sans-Serif" font-size="10.00">iterator</text>
</g>
<!-- Node35&#45;&gt;Node36 -->
<g id="edge124" class="edge"><title>Node35&#45;&gt;Node36</title>
<path fill="none" stroke="midnightblue" d="M522.681,-116.362C518.797,-108.595 513.421,-97.8426 508.773,-88.5458"/>
<polygon fill="midnightblue" stroke="midnightblue" points="511.888,-86.9497 504.285,-79.5707 505.627,-90.0802 511.888,-86.9497"/>
</g>
<!-- Node37&#45;&gt;Node8 -->
<g id="edge134" class="edge"><title>Node37&#45;&gt;Node8</title>
<path fill="none" stroke="midnightblue" d="M679.621,-174.463C692.848,-159.048 719.713,-130.601 749,-116 811.824,-84.679 894.165,-74.2298 941.665,-70.7442"/>
<polygon fill="midnightblue" stroke="midnightblue" points="942.076,-74.2247 951.821,-70.0669 941.61,-67.2402 942.076,-74.2247"/>
</g>
<!-- Node37&#45;&gt;Node16 -->
<g id="edge132" class="edge"><title>Node37&#45;&gt;Node16</title>
<path fill="none" stroke="midnightblue" d="M674.118,-174.362C676.323,-166.84 679.348,-156.519 682.012,-147.431"/>
<polygon fill="midnightblue" stroke="midnightblue" points="685.448,-148.151 684.902,-137.571 678.73,-146.182 685.448,-148.151"/>
</g>
<!-- Node37&#45;&gt;Node18 -->
<g id="edge130" class="edge"><title>Node37&#45;&gt;Node18</title>
<path fill="none" stroke="midnightblue" d="M691.463,-174.497C709.033,-165.479 734.582,-152.365 754.385,-142.201"/>
<polygon fill="midnightblue" stroke="midnightblue" points="756.009,-145.301 763.307,-137.621 752.812,-139.074 756.009,-145.301"/>
</g>
</g>
</svg>
