<?xml version="1.0" encoding="UTF-8" standalone="no"?>
<!DOCTYPE svg PUBLIC "-//W3C//DTD SVG 1.1//EN"
 "http://www.w3.org/Graphics/SVG/1.1/DTD/svg11.dtd">
<!-- Generated by graphviz version 2.26.3 (20100126.1600)
 -->
<!-- Title: src/calibration/gui/Indicator_traits.h Pages: 1 -->
<svg width="2131pt" height="332pt"
 viewBox="0.00 0.00 2131.00 332.00" xmlns="http://www.w3.org/2000/svg" xmlns:xlink="http://www.w3.org/1999/xlink">
<g id="graph1" class="graph" transform="scale(1 1) rotate(0) translate(4 328)">
<title>src/calibration/gui/Indicator_traits.h</title>
<polygon fill="white" stroke="white" points="-4,5 -4,-328 2128,-328 2128,5 -4,5"/>
<!-- Node1 -->
<g id="node1" class="node"><title>Node1</title>
<polygon fill="#bfbfbf" stroke="black" points="1591.5,-289 1591.5,-323 1684.5,-323 1684.5,-289 1591.5,-289"/>
<text text-anchor="start" x="1599.5" y="-310" font-family="Helvetica,sans-Serif" font-size="10.00">src/calibration/gui</text>
<text text-anchor="middle" x="1638" y="-297" font-family="Helvetica,sans-Serif" font-size="10.00">/Indicator_traits.h</text>
</g>
<!-- Node2 -->
<g id="node3" class="node"><title>Node2</title>
<a xlink:href="_knobs_t_f1_8h.html" target="_top" xlink:title="src/calibration/fitfunctions\l/KnobsTF1.h">
<polygon fill="white" stroke="black" points="1445,-217 1445,-251 1573,-251 1573,-217 1445,-217"/>
<text text-anchor="start" x="1453" y="-238" font-family="Helvetica,sans-Serif" font-size="10.00">src/calibration/fitfunctions</text>
<text text-anchor="middle" x="1509" y="-225" font-family="Helvetica,sans-Serif" font-size="10.00">/KnobsTF1.h</text>
</a>
</g>
<!-- Node1&#45;&gt;Node2 -->
<g id="edge2" class="edge"><title>Node1&#45;&gt;Node2</title>
<path fill="none" stroke="midnightblue" d="M1598.48,-283.94C1579.61,-273.413 1557.38,-261.004 1539.8,-251.19"/>
<polygon fill="midnightblue" stroke="midnightblue" points="1596.99,-287.119 1607.43,-288.937 1600.4,-281.007 1596.99,-287.119"/>
</g>
<!-- Node3 -->
<g id="node5" class="node"><title>Node3</title>
<a xlink:href="_fit_function_8h.html" target="_top" xlink:title="src/calibration/fitfunctions\l/FitFunction.h">
<polygon fill="white" stroke="black" points="1299,-145 1299,-179 1427,-179 1427,-145 1299,-145"/>
<text text-anchor="start" x="1307" y="-166" font-family="Helvetica,sans-Serif" font-size="10.00">src/calibration/fitfunctions</text>
<text text-anchor="middle" x="1363" y="-153" font-family="Helvetica,sans-Serif" font-size="10.00">/FitFunction.h</text>
</a>
</g>
<!-- Node1&#45;&gt;Node3 -->
<g id="edge70" class="edge"><title>Node1&#45;&gt;Node3</title>
<path fill="none" stroke="midnightblue" d="M1581.4,-300.423C1538.63,-294.05 1479.99,-280.523 1436,-252 1407.3,-233.392 1384.53,-199.81 1372.46,-179.347"/>
<polygon fill="midnightblue" stroke="midnightblue" points="1580.97,-303.897 1591.36,-301.822 1581.95,-296.965 1580.97,-303.897"/>
</g>
<!-- Node20 -->
<g id="node43" class="node"><title>Node20</title>
<a xlink:href="_cal_canvas_8h.html" target="_top" xlink:title="src/calibration/gui\l/CalCanvas.h">
<polygon fill="white" stroke="black" points="1444.5,-73 1444.5,-107 1537.5,-107 1537.5,-73 1444.5,-73"/>
<text text-anchor="start" x="1452.5" y="-94" font-family="Helvetica,sans-Serif" font-size="10.00">src/calibration/gui</text>
<text text-anchor="middle" x="1491" y="-81" font-family="Helvetica,sans-Serif" font-size="10.00">/CalCanvas.h</text>
</a>
</g>
<!-- Node1&#45;&gt;Node20 -->
<g id="edge72" class="edge"><title>Node1&#45;&gt;Node20</title>
<path fill="none" stroke="midnightblue" d="M1629,-279.216C1613.75,-233.902 1584.22,-146.727 1582,-144 1569.11,-128.196 1550.29,-115.945 1533.11,-107.137"/>
<polygon fill="midnightblue" stroke="midnightblue" points="1625.7,-280.363 1632.2,-288.725 1632.33,-278.131 1625.7,-280.363"/>
</g>
<!-- Node26 -->
<g id="node63" class="node"><title>Node26</title>
<a xlink:href="_indicator_8h.html" target="_top" xlink:title="src/calibration/gui\l/Indicator.h">
<polygon fill="white" stroke="black" points="1628.5,-217 1628.5,-251 1721.5,-251 1721.5,-217 1628.5,-217"/>
<text text-anchor="start" x="1636.5" y="-238" font-family="Helvetica,sans-Serif" font-size="10.00">src/calibration/gui</text>
<text text-anchor="middle" x="1675" y="-225" font-family="Helvetica,sans-Serif" font-size="10.00">/Indicator.h</text>
</a>
</g>
<!-- Node1&#45;&gt;Node26 -->
<g id="edge74" class="edge"><title>Node1&#45;&gt;Node26</title>
<path fill="none" stroke="midnightblue" d="M1651.41,-279.908C1656.27,-270.44 1661.65,-259.981 1666.04,-251.441"/>
<polygon fill="midnightblue" stroke="midnightblue" points="1648.23,-278.443 1646.77,-288.937 1654.45,-281.642 1648.23,-278.443"/>
</g>
<!-- Node28 -->
<g id="node68" class="node"><title>Node28</title>
<a xlink:href="_editor_canvas_8h.html" target="_top" xlink:title="src/calibration/gui\l/EditorCanvas.h">
<polygon fill="white" stroke="black" points="1778.5,-217 1778.5,-251 1871.5,-251 1871.5,-217 1778.5,-217"/>
<text text-anchor="start" x="1786.5" y="-238" font-family="Helvetica,sans-Serif" font-size="10.00">src/calibration/gui</text>
<text text-anchor="middle" x="1825" y="-225" font-family="Helvetica,sans-Serif" font-size="10.00">/EditorCanvas.h</text>
</a>
</g>
<!-- Node1&#45;&gt;Node28 -->
<g id="edge80" class="edge"><title>Node1&#45;&gt;Node28</title>
<path fill="none" stroke="midnightblue" d="M1692,-285.208C1720.13,-274.377 1754.11,-261.295 1780.68,-251.065"/>
<polygon fill="midnightblue" stroke="midnightblue" points="1690.39,-282.078 1682.32,-288.937 1692.91,-288.61 1690.39,-282.078"/>
</g>
<!-- Node31 -->
<g id="node74" class="node"><title>Node31</title>
<a xlink:href="_editor_window_8h.html" target="_top" xlink:title="src/calibration/gui\l/EditorWindow.h">
<polygon fill="white" stroke="black" points="1888.5,-217 1888.5,-251 1981.5,-251 1981.5,-217 1888.5,-217"/>
<text text-anchor="start" x="1896.5" y="-238" font-family="Helvetica,sans-Serif" font-size="10.00">src/calibration/gui</text>
<text text-anchor="middle" x="1935" y="-225" font-family="Helvetica,sans-Serif" font-size="10.00">/EditorWindow.h</text>
</a>
</g>
<!-- Node1&#45;&gt;Node31 -->
<g id="edge86" class="edge"><title>Node1&#45;&gt;Node31</title>
<path fill="none" stroke="midnightblue" d="M1694.56,-294.994C1743.85,-285.019 1817.09,-269.271 1880,-252 1882.71,-251.255 1885.49,-250.458 1888.29,-249.629"/>
<polygon fill="midnightblue" stroke="midnightblue" points="1693.84,-291.569 1684.72,-296.972 1695.22,-298.431 1693.84,-291.569"/>
</g>
<!-- Node2&#45;&gt;Node3 -->
<g id="edge4" class="edge"><title>Node2&#45;&gt;Node3</title>
<path fill="none" stroke="midnightblue" d="M1465.39,-212.495C1443.72,-201.807 1417.9,-189.072 1397.6,-179.065"/>
<polygon fill="midnightblue" stroke="midnightblue" points="1463.88,-215.653 1474.4,-216.937 1466.98,-209.375 1463.88,-215.653"/>
</g>
<!-- Node25 -->
<g id="node59" class="node"><title>Node25</title>
<a xlink:href="_knobs_t_f1_8cc.html" target="_top" xlink:title="src/calibration/fitfunctions\l/KnobsTF1.cc">
<polygon fill="white" stroke="black" points="1445,-145 1445,-179 1573,-179 1573,-145 1445,-145"/>
<text text-anchor="start" x="1453" y="-166" font-family="Helvetica,sans-Serif" font-size="10.00">src/calibration/fitfunctions</text>
<text text-anchor="middle" x="1509" y="-153" font-family="Helvetica,sans-Serif" font-size="10.00">/KnobsTF1.cc</text>
</a>
</g>
<!-- Node2&#45;&gt;Node25 -->
<g id="edge68" class="edge"><title>Node2&#45;&gt;Node25</title>
<path fill="none" stroke="midnightblue" d="M1509,-206.719C1509,-197.572 1509,-187.625 1509,-179.441"/>
<polygon fill="midnightblue" stroke="midnightblue" points="1505.5,-206.937 1509,-216.937 1512.5,-206.937 1505.5,-206.937"/>
</g>
<!-- Node4 -->
<g id="node7" class="node"><title>Node4</title>
<a xlink:href="_fit_function_8cc.html" target="_top" xlink:title="src/calibration/fitfunctions\l/FitFunction.cc">
<polygon fill="white" stroke="black" points="1153,-73 1153,-107 1281,-107 1281,-73 1153,-73"/>
<text text-anchor="start" x="1161" y="-94" font-family="Helvetica,sans-Serif" font-size="10.00">src/calibration/fitfunctions</text>
<text text-anchor="middle" x="1217" y="-81" font-family="Helvetica,sans-Serif" font-size="10.00">/FitFunction.cc</text>
</a>
</g>
<!-- Node3&#45;&gt;Node4 -->
<g id="edge6" class="edge"><title>Node3&#45;&gt;Node4</title>
<path fill="none" stroke="midnightblue" d="M1319.39,-140.495C1297.72,-129.807 1271.9,-117.072 1251.6,-107.065"/>
<polygon fill="midnightblue" stroke="midnightblue" points="1317.88,-143.653 1328.4,-144.937 1320.98,-137.375 1317.88,-143.653"/>
</g>
<!-- Node5 -->
<g id="node9" class="node"><title>Node5</title>
<a xlink:href="_fit_gaus_8h.html" target="_top" xlink:title="src/calibration/fitfunctions\l/FitGaus.h">
<polygon fill="white" stroke="black" points="812,-73 812,-107 940,-107 940,-73 812,-73"/>
<text text-anchor="start" x="820" y="-94" font-family="Helvetica,sans-Serif" font-size="10.00">src/calibration/fitfunctions</text>
<text text-anchor="middle" x="876" y="-81" font-family="Helvetica,sans-Serif" font-size="10.00">/FitGaus.h</text>
</a>
</g>
<!-- Node3&#45;&gt;Node5 -->
<g id="edge8" class="edge"><title>Node3&#45;&gt;Node5</title>
<path fill="none" stroke="midnightblue" d="M1288.71,-151.017C1193.6,-136.955 1030.35,-112.82 940.31,-99.5078"/>
<polygon fill="midnightblue" stroke="midnightblue" points="1288.43,-154.513 1298.83,-152.513 1289.45,-147.588 1288.43,-154.513"/>
</g>
<!-- Node10 -->
<g id="node19" class="node"><title>Node10</title>
<a xlink:href="_fit_gaus_pol0_8h.html" target="_top" xlink:title="src/calibration/fitfunctions\l/FitGausPol0.h">
<polygon fill="white" stroke="black" points="332,-73 332,-107 460,-107 460,-73 332,-73"/>
<text text-anchor="start" x="340" y="-94" font-family="Helvetica,sans-Serif" font-size="10.00">src/calibration/fitfunctions</text>
<text text-anchor="middle" x="396" y="-81" font-family="Helvetica,sans-Serif" font-size="10.00">/FitGausPol0.h</text>
</a>
</g>
<!-- Node3&#45;&gt;Node10 -->
<g id="edge18" class="edge"><title>Node3&#45;&gt;Node10</title>
<path fill="none" stroke="midnightblue" d="M1288.61,-158.833C1143.06,-152.267 810.553,-135.453 532,-108 508.535,-105.687 482.88,-102.471 460.237,-99.3968"/>
<polygon fill="midnightblue" stroke="midnightblue" points="1288.61,-162.336 1298.76,-159.288 1288.93,-155.343 1288.61,-162.336"/>
</g>
<!-- Node14 -->
<g id="node29" class="node"><title>Node14</title>
<a xlink:href="_fit_gaus_pol3_8h.html" target="_top" xlink:title="src/calibration/fitfunctions\l/FitGausPol3.h">
<polygon fill="white" stroke="black" points="541,-73 541,-107 669,-107 669,-73 541,-73"/>
<text text-anchor="start" x="549" y="-94" font-family="Helvetica,sans-Serif" font-size="10.00">src/calibration/fitfunctions</text>
<text text-anchor="middle" x="605" y="-81" font-family="Helvetica,sans-Serif" font-size="10.00">/FitGausPol3.h</text>
</a>
</g>
<!-- Node3&#45;&gt;Node14 -->
<g id="edge30" class="edge"><title>Node3&#45;&gt;Node14</title>
<path fill="none" stroke="midnightblue" d="M1288.32,-154.906C1139.64,-140.784 808.96,-109.374 669.266,-96.1045"/>
<polygon fill="midnightblue" stroke="midnightblue" points="1288.41,-158.431 1298.7,-155.892 1289.08,-151.462 1288.41,-158.431"/>
</g>
<!-- Node17 -->
<g id="node37" class="node"><title>Node17</title>
<a xlink:href="_fit_timewalk_8h.html" target="_top" xlink:title="src/calibration/fitfunctions\l/FitTimewalk.h">
<polygon fill="white" stroke="black" points="1299,-73 1299,-107 1427,-107 1427,-73 1299,-73"/>
<text text-anchor="start" x="1307" y="-94" font-family="Helvetica,sans-Serif" font-size="10.00">src/calibration/fitfunctions</text>
<text text-anchor="middle" x="1363" y="-81" font-family="Helvetica,sans-Serif" font-size="10.00">/FitTimewalk.h</text>
</a>
</g>
<!-- Node3&#45;&gt;Node17 -->
<g id="edge40" class="edge"><title>Node3&#45;&gt;Node17</title>
<path fill="none" stroke="midnightblue" d="M1363,-134.719C1363,-125.572 1363,-115.625 1363,-107.441"/>
<polygon fill="midnightblue" stroke="midnightblue" points="1359.5,-134.937 1363,-144.937 1366.5,-134.937 1359.5,-134.937"/>
</g>
<!-- Node3&#45;&gt;Node20 -->
<g id="edge46" class="edge"><title>Node3&#45;&gt;Node20</title>
<path fill="none" stroke="midnightblue" d="M1402.22,-139.94C1420.93,-129.413 1442.99,-117.004 1460.44,-107.19"/>
<polygon fill="midnightblue" stroke="midnightblue" points="1400.33,-136.984 1393.33,-144.937 1403.77,-143.085 1400.33,-136.984"/>
</g>
<!-- Node21 -->
<g id="node45" class="node"><title>Node21</title>
<a xlink:href="_cal_canvas_8cc.html" target="_top" xlink:title="src/calibration/gui\l/CalCanvas.cc">
<polygon fill="white" stroke="black" points="1873.5,-1 1873.5,-35 1966.5,-35 1966.5,-1 1873.5,-1"/>
<text text-anchor="start" x="1881.5" y="-22" font-family="Helvetica,sans-Serif" font-size="10.00">src/calibration/gui</text>
<text text-anchor="middle" x="1920" y="-9" font-family="Helvetica,sans-Serif" font-size="10.00">/CalCanvas.cc</text>
</a>
</g>
<!-- Node3&#45;&gt;Node21 -->
<g id="edge64" class="edge"><title>Node3&#45;&gt;Node21</title>
<path fill="none" stroke="midnightblue" d="M1437.01,-143.715C1500.05,-128.131 1580.57,-108.208 1581,-108 1604.34,-96.6277 1603.16,-82.2788 1627,-72 1725.24,-29.6426 1760.91,-60.7229 1865,-36 1867.74,-35.3499 1870.53,-34.6267 1873.34,-33.8541"/>
<polygon fill="midnightblue" stroke="midnightblue" points="1435.92,-140.378 1427.05,-146.175 1437.6,-147.173 1435.92,-140.378"/>
</g>
<!-- Node24 -->
<g id="node55" class="node"><title>Node24</title>
<a xlink:href="_time_8cc.html" target="_top" xlink:title="src/calibration/modules\l/Time.cc">
<polygon fill="white" stroke="black" points="1739.5,-1 1739.5,-35 1856.5,-35 1856.5,-1 1739.5,-1"/>
<text text-anchor="start" x="1747.5" y="-22" font-family="Helvetica,sans-Serif" font-size="10.00">src/calibration/modules</text>
<text text-anchor="middle" x="1798" y="-9" font-family="Helvetica,sans-Serif" font-size="10.00">/Time.cc</text>
</a>
</g>
<!-- Node3&#45;&gt;Node24 -->
<g id="edge66" class="edge"><title>Node3&#45;&gt;Node24</title>
<path fill="none" stroke="midnightblue" d="M1436.9,-143.468C1478.87,-132.306 1526.77,-118.307 1546,-108 1567.97,-96.2263 1566.81,-83.347 1589,-72 1646.97,-42.3596 1668,-52.4467 1731,-36 1733.68,-35.3002 1736.42,-34.5809 1739.19,-33.8512"/>
<polygon fill="midnightblue" stroke="midnightblue" points="1435.99,-140.087 1427.22,-146.021 1437.78,-146.856 1435.99,-140.087"/>
</g>
<!-- Node6 -->
<g id="node11" class="node"><title>Node6</title>
<a xlink:href="_fit_gaus_8cc.html" target="_top" xlink:title="src/calibration/fitfunctions\l/FitGaus.cc">
<polygon fill="white" stroke="black" points="812,-1 812,-35 940,-35 940,-1 812,-1"/>
<text text-anchor="start" x="820" y="-22" font-family="Helvetica,sans-Serif" font-size="10.00">src/calibration/fitfunctions</text>
<text text-anchor="middle" x="876" y="-9" font-family="Helvetica,sans-Serif" font-size="10.00">/FitGaus.cc</text>
</a>
</g>
<!-- Node5&#45;&gt;Node6 -->
<g id="edge10" class="edge"><title>Node5&#45;&gt;Node6</title>
<path fill="none" stroke="midnightblue" d="M876,-62.7193C876,-53.572 876,-43.6255 876,-35.4407"/>
<polygon fill="midnightblue" stroke="midnightblue" points="872.5,-62.937 876,-72.937 879.5,-62.937 872.5,-62.937"/>
</g>
<!-- Node7 -->
<g id="node13" class="node"><title>Node7</title>
<a xlink:href="_p_i_d___phi_angle_8cc.html" target="_top" xlink:title="src/calibration/modules\l/PID_PhiAngle.cc">
<polygon fill="white" stroke="black" points="1237.5,-1 1237.5,-35 1354.5,-35 1354.5,-1 1237.5,-1"/>
<text text-anchor="start" x="1245.5" y="-22" font-family="Helvetica,sans-Serif" font-size="10.00">src/calibration/modules</text>
<text text-anchor="middle" x="1296" y="-9" font-family="Helvetica,sans-Serif" font-size="10.00">/PID_PhiAngle.cc</text>
</a>
</g>
<!-- Node5&#45;&gt;Node7 -->
<g id="edge12" class="edge"><title>Node5&#45;&gt;Node7</title>
<path fill="none" stroke="midnightblue" d="M950.443,-81.0463C1022.18,-71.8456 1133.58,-56.0511 1229,-36 1231.71,-35.4303 1234.48,-34.8177 1237.26,-34.1744"/>
<polygon fill="midnightblue" stroke="midnightblue" points="949.631,-77.6213 940.153,-82.3556 950.515,-84.5653 949.631,-77.6213"/>
</g>
<!-- Node8 -->
<g id="node15" class="node"><title>Node8</title>
<a xlink:href="_setup__2014___e_p_t_8cc.html" target="_top" xlink:title="src/expconfig/setups\l/Setup_2014_EPT.cc">
<polygon fill="white" stroke="black" points="550,-1 550,-35 660,-35 660,-1 550,-1"/>
<text text-anchor="start" x="558" y="-22" font-family="Helvetica,sans-Serif" font-size="10.00">src/expconfig/setups</text>
<text text-anchor="middle" x="605" y="-9" font-family="Helvetica,sans-Serif" font-size="10.00">/Setup_2014_EPT.cc</text>
</a>
</g>
<!-- Node5&#45;&gt;Node8 -->
<g id="edge14" class="edge"><title>Node5&#45;&gt;Node8</title>
<path fill="none" stroke="midnightblue" d="M801.764,-70.998C762.286,-60.8009 712.952,-47.9124 669,-36 666.104,-35.215 663.135,-34.4037 660.14,-33.5797"/>
<polygon fill="midnightblue" stroke="midnightblue" points="801.022,-74.4211 811.58,-73.5303 802.771,-67.6431 801.022,-74.4211"/>
</g>
<!-- Node9 -->
<g id="node17" class="node"><title>Node9</title>
<a xlink:href="_setup___test_8cc.html" target="_top" xlink:title="src/expconfig/setups\l/Setup_Test.cc">
<polygon fill="white" stroke="black" points="279.5,-1 279.5,-35 386.5,-35 386.5,-1 279.5,-1"/>
<text text-anchor="start" x="287.5" y="-22" font-family="Helvetica,sans-Serif" font-size="10.00">src/expconfig/setups</text>
<text text-anchor="middle" x="333" y="-9" font-family="Helvetica,sans-Serif" font-size="10.00">/Setup_Test.cc</text>
</a>
</g>
<!-- Node5&#45;&gt;Node9 -->
<g id="edge16" class="edge"><title>Node5&#45;&gt;Node9</title>
<path fill="none" stroke="midnightblue" d="M801.607,-83.2157C686.576,-72.4597 470.89,-51.1607 395,-36 392.252,-35.4511 389.45,-34.8377 386.63,-34.1777"/>
<polygon fill="midnightblue" stroke="midnightblue" points="801.459,-86.717 811.74,-84.1603 802.108,-79.7472 801.459,-86.717"/>
</g>
<!-- Node10&#45;&gt;Node8 -->
<g id="edge26" class="edge"><title>Node10&#45;&gt;Node8</title>
<path fill="none" stroke="midnightblue" d="M455.122,-69.6326C486.799,-58.7201 525.379,-45.4292 555.464,-35.0651"/>
<polygon fill="midnightblue" stroke="midnightblue" points="453.845,-66.3707 445.53,-72.937 456.125,-72.989 453.845,-66.3707"/>
</g>
<!-- Node10&#45;&gt;Node9 -->
<g id="edge28" class="edge"><title>Node10&#45;&gt;Node9</title>
<path fill="none" stroke="midnightblue" d="M374.456,-65.3785C365.843,-55.5349 356.123,-44.4262 348.261,-35.4407"/>
<polygon fill="midnightblue" stroke="midnightblue" points="371.851,-67.716 381.07,-72.937 377.119,-63.1064 371.851,-67.716"/>
</g>
<!-- Node11 -->
<g id="node21" class="node"><title>Node11</title>
<a xlink:href="_fit_gaus_pol0_8cc.html" target="_top" xlink:title="src/calibration/fitfunctions\l/FitGausPol0.cc">
<polygon fill="white" stroke="black" points="134,-1 134,-35 262,-35 262,-1 134,-1"/>
<text text-anchor="start" x="142" y="-22" font-family="Helvetica,sans-Serif" font-size="10.00">src/calibration/fitfunctions</text>
<text text-anchor="middle" x="198" y="-9" font-family="Helvetica,sans-Serif" font-size="10.00">/FitGausPol0.cc</text>
</a>
</g>
<!-- Node10&#45;&gt;Node11 -->
<g id="edge20" class="edge"><title>Node10&#45;&gt;Node11</title>
<path fill="none" stroke="midnightblue" d="M339.601,-69.4913C309.665,-58.6055 273.308,-45.3846 244.929,-35.0651"/>
<polygon fill="midnightblue" stroke="midnightblue" points="338.483,-72.8088 349.077,-72.937 340.875,-66.2302 338.483,-72.8088"/>
</g>
<!-- Node12 -->
<g id="node23" class="node"><title>Node12</title>
<a xlink:href="_energy_8cc.html" target="_top" xlink:title="src/calibration/modules\l/Energy.cc">
<polygon fill="white" stroke="black" points="677.5,-1 677.5,-35 794.5,-35 794.5,-1 677.5,-1"/>
<text text-anchor="start" x="685.5" y="-22" font-family="Helvetica,sans-Serif" font-size="10.00">src/calibration/modules</text>
<text text-anchor="middle" x="736" y="-9" font-family="Helvetica,sans-Serif" font-size="10.00">/Energy.cc</text>
</a>
</g>
<!-- Node10&#45;&gt;Node12 -->
<g id="edge22" class="edge"><title>Node10&#45;&gt;Node12</title>
<path fill="none" stroke="midnightblue" d="M470.268,-76.7047C525.33,-66.5094 602.111,-51.5819 669,-36 671.698,-35.3715 674.452,-34.7106 677.23,-34.0283"/>
<polygon fill="midnightblue" stroke="midnightblue" points="469.446,-73.2971 460.246,-78.5524 470.715,-80.1811 469.446,-73.2971"/>
</g>
<!-- Node13 -->
<g id="node25" class="node"><title>Node13</title>
<a xlink:href="_t_a_p_s___time_8cc.html" target="_top" xlink:title="src/calibration/modules\l/TAPS_Time.cc">
<polygon fill="white" stroke="black" points="-0.5,-1 -0.5,-35 116.5,-35 116.5,-1 -0.5,-1"/>
<text text-anchor="start" x="7.5" y="-22" font-family="Helvetica,sans-Serif" font-size="10.00">src/calibration/modules</text>
<text text-anchor="middle" x="58" y="-9" font-family="Helvetica,sans-Serif" font-size="10.00">/TAPS_Time.cc</text>
</a>
</g>
<!-- Node10&#45;&gt;Node13 -->
<g id="edge24" class="edge"><title>Node10&#45;&gt;Node13</title>
<path fill="none" stroke="midnightblue" d="M322.009,-76.6164C267.372,-66.4037 191.296,-51.493 125,-36 122.302,-35.3696 119.549,-34.7072 116.771,-34.0236"/>
<polygon fill="midnightblue" stroke="midnightblue" points="321.483,-80.0785 331.955,-78.4678 322.764,-73.1967 321.483,-80.0785"/>
</g>
<!-- Node14&#45;&gt;Node8 -->
<g id="edge36" class="edge"><title>Node14&#45;&gt;Node8</title>
<path fill="none" stroke="midnightblue" d="M605,-62.7193C605,-53.572 605,-43.6255 605,-35.4407"/>
<polygon fill="midnightblue" stroke="midnightblue" points="601.5,-62.937 605,-72.937 608.5,-62.937 601.5,-62.937"/>
</g>
<!-- Node14&#45;&gt;Node9 -->
<g id="edge38" class="edge"><title>Node14&#45;&gt;Node9</title>
<path fill="none" stroke="midnightblue" d="M531.239,-71.6251C490.909,-61.4294 440.116,-48.3466 395,-36 392.297,-35.2604 389.531,-34.4935 386.74,-33.7119"/>
<polygon fill="midnightblue" stroke="midnightblue" points="530.44,-75.0332 540.993,-74.0862 532.153,-68.2459 530.44,-75.0332"/>
</g>
<!-- Node15 -->
<g id="node31" class="node"><title>Node15</title>
<a xlink:href="_fit_gaus_pol3_8cc.html" target="_top" xlink:title="src/calibration/fitfunctions\l/FitGausPol3.cc">
<polygon fill="white" stroke="black" points="404,-1 404,-35 532,-35 532,-1 404,-1"/>
<text text-anchor="start" x="412" y="-22" font-family="Helvetica,sans-Serif" font-size="10.00">src/calibration/fitfunctions</text>
<text text-anchor="middle" x="468" y="-9" font-family="Helvetica,sans-Serif" font-size="10.00">/FitGausPol3.cc</text>
</a>
</g>
<!-- Node14&#45;&gt;Node15 -->
<g id="edge32" class="edge"><title>Node14&#45;&gt;Node15</title>
<path fill="none" stroke="midnightblue" d="M563.57,-68.2264C543.423,-57.6383 519.553,-45.0936 500.709,-35.19"/>
<polygon fill="midnightblue" stroke="midnightblue" points="562.053,-71.383 572.533,-72.937 565.309,-65.1866 562.053,-71.383"/>
</g>
<!-- Node16 -->
<g id="node33" class="node"><title>Node16</title>
<a xlink:href="_c_b___energy_8cc.html" target="_top" xlink:title="src/calibration/modules\l/CB_Energy.cc">
<polygon fill="white" stroke="black" points="957.5,-1 957.5,-35 1074.5,-35 1074.5,-1 957.5,-1"/>
<text text-anchor="start" x="965.5" y="-22" font-family="Helvetica,sans-Serif" font-size="10.00">src/calibration/modules</text>
<text text-anchor="middle" x="1016" y="-9" font-family="Helvetica,sans-Serif" font-size="10.00">/CB_Energy.cc</text>
</a>
</g>
<!-- Node14&#45;&gt;Node16 -->
<g id="edge34" class="edge"><title>Node14&#45;&gt;Node16</title>
<path fill="none" stroke="midnightblue" d="M679.132,-80.692C749.084,-71.36 856.702,-55.584 949,-36 951.71,-35.425 954.474,-34.808 957.26,-34.1613"/>
<polygon fill="midnightblue" stroke="midnightblue" points="678.545,-77.2391 669.091,-82.0218 679.464,-84.1785 678.545,-77.2391"/>
</g>
<!-- Node18 -->
<g id="node39" class="node"><title>Node18</title>
<a xlink:href="_fit_timewalk_8cc.html" target="_top" xlink:title="src/calibration/fitfunctions\l/FitTimewalk.cc">
<polygon fill="white" stroke="black" points="1092,-1 1092,-35 1220,-35 1220,-1 1092,-1"/>
<text text-anchor="start" x="1100" y="-22" font-family="Helvetica,sans-Serif" font-size="10.00">src/calibration/fitfunctions</text>
<text text-anchor="middle" x="1156" y="-9" font-family="Helvetica,sans-Serif" font-size="10.00">/FitTimewalk.cc</text>
</a>
</g>
<!-- Node17&#45;&gt;Node18 -->
<g id="edge42" class="edge"><title>Node17&#45;&gt;Node18</title>
<path fill="none" stroke="midnightblue" d="M1304.44,-69.6326C1273.07,-58.7201 1234.86,-45.4292 1205.06,-35.0651"/>
<polygon fill="midnightblue" stroke="midnightblue" points="1303.35,-72.9575 1313.94,-72.937 1305.65,-66.346 1303.35,-72.9575"/>
</g>
<!-- Node19 -->
<g id="node41" class="node"><title>Node19</title>
<a xlink:href="_c_b___time_walk_8cc.html" target="_top" xlink:title="src/calibration/modules\l/CB_TimeWalk.cc">
<polygon fill="white" stroke="black" points="1371.5,-1 1371.5,-35 1488.5,-35 1488.5,-1 1371.5,-1"/>
<text text-anchor="start" x="1379.5" y="-22" font-family="Helvetica,sans-Serif" font-size="10.00">src/calibration/modules</text>
<text text-anchor="middle" x="1430" y="-9" font-family="Helvetica,sans-Serif" font-size="10.00">/CB_TimeWalk.cc</text>
</a>
</g>
<!-- Node17&#45;&gt;Node19 -->
<g id="edge44" class="edge"><title>Node17&#45;&gt;Node19</title>
<path fill="none" stroke="midnightblue" d="M1385.91,-65.3785C1395.07,-55.5349 1405.41,-44.4262 1413.77,-35.4407"/>
<polygon fill="midnightblue" stroke="midnightblue" points="1383.13,-63.232 1378.88,-72.937 1388.25,-68.0006 1383.13,-63.232"/>
</g>
<!-- Node20&#45;&gt;Node7 -->
<g id="edge60" class="edge"><title>Node20&#45;&gt;Node7</title>
<path fill="none" stroke="midnightblue" d="M1435.07,-69.3498C1405.66,-58.4911 1370.05,-45.3399 1342.22,-35.0651"/>
<polygon fill="midnightblue" stroke="midnightblue" points="1434.19,-72.7565 1444.79,-72.937 1436.62,-66.1899 1434.19,-72.7565"/>
</g>
<!-- Node20&#45;&gt;Node12 -->
<g id="edge58" class="edge"><title>Node20&#45;&gt;Node12</title>
<path fill="none" stroke="midnightblue" d="M1434.46,-71.9855C1157.25,-21.1537 1077.94,-80.2675 803,-36 800.265,-35.5597 797.481,-35.0531 794.678,-34.4959"/>
<polygon fill="midnightblue" stroke="midnightblue" points="1433.94,-75.4475 1444.41,-73.8405 1435.22,-68.5662 1433.94,-75.4475"/>
</g>
<!-- Node20&#45;&gt;Node16 -->
<g id="edge54" class="edge"><title>Node20&#45;&gt;Node16</title>
<path fill="none" stroke="midnightblue" d="M1434.52,-71.9273C1279.89,-40.2995 1234.92,-63.9652 1083,-36 1080.28,-35.4985 1077.5,-34.9418 1074.7,-34.3439"/>
<polygon fill="midnightblue" stroke="midnightblue" points="1433.87,-75.3678 1444.38,-73.9876 1435.31,-68.5159 1433.87,-75.3678"/>
</g>
<!-- Node20&#45;&gt;Node19 -->
<g id="edge56" class="edge"><title>Node20&#45;&gt;Node19</title>
<path fill="none" stroke="midnightblue" d="M1469.89,-65.0858C1461.61,-55.3151 1452.31,-44.3372 1444.78,-35.4407"/>
<polygon fill="midnightblue" stroke="midnightblue" points="1467.41,-67.5696 1476.54,-72.937 1472.75,-63.0447 1467.41,-67.5696"/>
</g>
<!-- Node20&#45;&gt;Node21 -->
<g id="edge48" class="edge"><title>Node20&#45;&gt;Node21</title>
<path fill="none" stroke="midnightblue" d="M1547.87,-79.0379C1561.33,-76.5862 1575.65,-74.0945 1589,-72 1711.21,-52.8197 1744.36,-63.3576 1865,-36 1867.74,-35.3779 1870.54,-34.6765 1873.36,-33.9207"/>
<polygon fill="midnightblue" stroke="midnightblue" points="1546.97,-75.6439 1537.77,-80.8976 1548.24,-82.5281 1546.97,-75.6439"/>
</g>
<!-- Node22 -->
<g id="node47" class="node"><title>Node22</title>
<a xlink:href="_manager_8cc.html" target="_top" xlink:title="src/calibration/gui\l/Manager.cc">
<polygon fill="white" stroke="black" points="1505.5,-1 1505.5,-35 1598.5,-35 1598.5,-1 1505.5,-1"/>
<text text-anchor="start" x="1513.5" y="-22" font-family="Helvetica,sans-Serif" font-size="10.00">src/calibration/gui</text>
<text text-anchor="middle" x="1552" y="-9" font-family="Helvetica,sans-Serif" font-size="10.00">/Manager.cc</text>
</a>
</g>
<!-- Node20&#45;&gt;Node22 -->
<g id="edge50" class="edge"><title>Node20&#45;&gt;Node22</title>
<path fill="none" stroke="midnightblue" d="M1512.11,-65.0858C1520.39,-55.3151 1529.69,-44.3372 1537.22,-35.4407"/>
<polygon fill="midnightblue" stroke="midnightblue" points="1509.25,-63.0447 1505.46,-72.937 1514.59,-67.5696 1509.25,-63.0447"/>
</g>
<!-- Node23 -->
<g id="node49" class="node"><title>Node23</title>
<a xlink:href="_manager_window_8cc.html" target="_top" xlink:title="src/calibration/gui\l/ManagerWindow.cc">
<polygon fill="white" stroke="black" points="1616,-1 1616,-35 1722,-35 1722,-1 1616,-1"/>
<text text-anchor="start" x="1624" y="-22" font-family="Helvetica,sans-Serif" font-size="10.00">src/calibration/gui</text>
<text text-anchor="middle" x="1669" y="-9" font-family="Helvetica,sans-Serif" font-size="10.00">/ManagerWindow.cc</text>
</a>
</g>
<!-- Node20&#45;&gt;Node23 -->
<g id="edge52" class="edge"><title>Node20&#45;&gt;Node23</title>
<path fill="none" stroke="midnightblue" d="M1542.75,-69.0661C1569.46,-58.2626 1601.63,-45.2505 1626.81,-35.0651"/>
<polygon fill="midnightblue" stroke="midnightblue" points="1541.14,-65.9425 1533.18,-72.937 1543.77,-72.4318 1541.14,-65.9425"/>
</g>
<!-- Node20&#45;&gt;Node24 -->
<g id="edge62" class="edge"><title>Node20&#45;&gt;Node24</title>
<path fill="none" stroke="midnightblue" d="M1547.73,-72.83C1548.83,-72.5468 1549.92,-72.2698 1551,-72 1630.16,-52.2566 1651.56,-54.5936 1731,-36 1733.7,-35.3686 1736.45,-34.7054 1739.23,-34.0212"/>
<polygon fill="midnightblue" stroke="midnightblue" points="1546.47,-69.5442 1537.72,-75.5205 1548.29,-76.3042 1546.47,-69.5442"/>
</g>
<!-- Node26&#45;&gt;Node21 -->
<g id="edge76" class="edge"><title>Node26&#45;&gt;Node21</title>
<path fill="none" stroke="midnightblue" d="M1661.52,-207.435C1653.92,-188.436 1648.11,-162.975 1660,-144 1684.24,-105.321 1805.42,-57.9541 1873.46,-33.8022"/>
<polygon fill="midnightblue" stroke="midnightblue" points="1658.36,-208.946 1665.56,-216.712 1664.77,-206.147 1658.36,-208.946"/>
</g>
<!-- Node27 -->
<g id="node66" class="node"><title>Node27</title>
<a xlink:href="_indicator_8cc.html" target="_top" xlink:title="src/calibration/gui\l/Indicator.cc">
<polygon fill="white" stroke="black" points="1668.5,-145 1668.5,-179 1761.5,-179 1761.5,-145 1668.5,-145"/>
<text text-anchor="start" x="1676.5" y="-166" font-family="Helvetica,sans-Serif" font-size="10.00">src/calibration/gui</text>
<text text-anchor="middle" x="1715" y="-153" font-family="Helvetica,sans-Serif" font-size="10.00">/Indicator.cc</text>
</a>
</g>
<!-- Node26&#45;&gt;Node27 -->
<g id="edge78" class="edge"><title>Node26&#45;&gt;Node27</title>
<path fill="none" stroke="midnightblue" d="M1689.5,-207.908C1694.76,-198.44 1700.57,-187.981 1705.31,-179.441"/>
<polygon fill="midnightblue" stroke="midnightblue" points="1686.28,-206.496 1684.48,-216.937 1692.4,-209.895 1686.28,-206.496"/>
</g>
<!-- Node29 -->
<g id="node70" class="node"><title>Node29</title>
<a xlink:href="_editor_canvas_8cc.html" target="_top" xlink:title="src/calibration/gui\l/EditorCanvas.cc">
<polygon fill="white" stroke="black" points="1778.5,-145 1778.5,-179 1871.5,-179 1871.5,-145 1778.5,-145"/>
<text text-anchor="start" x="1786.5" y="-166" font-family="Helvetica,sans-Serif" font-size="10.00">src/calibration/gui</text>
<text text-anchor="middle" x="1825" y="-153" font-family="Helvetica,sans-Serif" font-size="10.00">/EditorCanvas.cc</text>
</a>
</g>
<!-- Node28&#45;&gt;Node29 -->
<g id="edge82" class="edge"><title>Node28&#45;&gt;Node29</title>
<path fill="none" stroke="midnightblue" d="M1825,-206.719C1825,-197.572 1825,-187.625 1825,-179.441"/>
<polygon fill="midnightblue" stroke="midnightblue" points="1821.5,-206.937 1825,-216.937 1828.5,-206.937 1821.5,-206.937"/>
</g>
<!-- Node30 -->
<g id="node72" class="node"><title>Node30</title>
<a xlink:href="_editor_window_8cc.html" target="_top" xlink:title="src/calibration/gui\l/EditorWindow.cc">
<polygon fill="white" stroke="black" points="1889,-145 1889,-179 1983,-179 1983,-145 1889,-145"/>
<text text-anchor="start" x="1897" y="-166" font-family="Helvetica,sans-Serif" font-size="10.00">src/calibration/gui</text>
<text text-anchor="middle" x="1936" y="-153" font-family="Helvetica,sans-Serif" font-size="10.00">/EditorWindow.cc</text>
</a>
</g>
<!-- Node28&#45;&gt;Node30 -->
<g id="edge84" class="edge"><title>Node28&#45;&gt;Node30</title>
<path fill="none" stroke="midnightblue" d="M1859.9,-211.364C1875.93,-200.962 1894.64,-188.826 1909.5,-179.19"/>
<polygon fill="midnightblue" stroke="midnightblue" points="1857.79,-208.559 1851.31,-216.937 1861.6,-214.431 1857.79,-208.559"/>
</g>
<!-- Node31&#45;&gt;Node29 -->
<g id="edge90" class="edge"><title>Node31&#45;&gt;Node29</title>
<path fill="none" stroke="midnightblue" d="M1900.42,-211.364C1884.53,-200.962 1865.98,-188.826 1851.26,-179.19"/>
<polygon fill="midnightblue" stroke="midnightblue" points="1898.65,-214.389 1908.93,-216.937 1902.48,-208.532 1898.65,-214.389"/>
</g>
<!-- Node31&#45;&gt;Node30 -->
<g id="edge92" class="edge"><title>Node31&#45;&gt;Node30</title>
<path fill="none" stroke="midnightblue" d="M1935.38,-206.719C1935.51,-197.572 1935.64,-187.625 1935.76,-179.441"/>
<polygon fill="midnightblue" stroke="midnightblue" points="1931.88,-206.889 1935.24,-216.937 1938.88,-206.987 1931.88,-206.889"/>
</g>
<!-- Node32 -->
<g id="node76" class="node"><title>Node32</title>
<a xlink:href="_ant-calib-editor_8cc.html" target="_top" xlink:title="progs/Ant&#45;calib&#45;editor.cc">
<polygon fill="white" stroke="black" points="2001,-151.5 2001,-172.5 2123,-172.5 2123,-151.5 2001,-151.5"/>
<text text-anchor="middle" x="2062" y="-159.5" font-family="Helvetica,sans-Serif" font-size="10.00">progs/Ant&#45;calib&#45;editor.cc</text>
</a>
</g>
<!-- Node31&#45;&gt;Node32 -->
<g id="edge88" class="edge"><title>Node31&#45;&gt;Node32</title>
<path fill="none" stroke="midnightblue" d="M1973.95,-211.921C1996.92,-198.894 2024.97,-182.991 2043.15,-172.688"/>
<polygon fill="midnightblue" stroke="midnightblue" points="1972.07,-208.96 1965.1,-216.937 1975.52,-215.05 1972.07,-208.96"/>
</g>
</g>
</svg>
