<?xml version="1.0" encoding="UTF-8" standalone="no"?>
<!DOCTYPE svg PUBLIC "-//W3C//DTD SVG 1.1//EN"
 "http://www.w3.org/Graphics/SVG/1.1/DTD/svg11.dtd">
<!-- Generated by graphviz version 2.26.3 (20100126.1600)
 -->
<!-- Title: src/calibration/converters/MultiHit16bit.h Pages: 1 -->
<svg width="386pt" height="188pt"
 viewBox="0.00 0.00 386.00 188.00" xmlns="http://www.w3.org/2000/svg" xmlns:xlink="http://www.w3.org/1999/xlink">
<g id="graph1" class="graph" transform="scale(1 1) rotate(0) translate(4 184)">
<title>src/calibration/converters/MultiHit16bit.h</title>
<polygon fill="white" stroke="white" points="-4,5 -4,-184 383,-184 383,5 -4,5"/>
<!-- Node1 -->
<g id="node1" class="node"><title>Node1</title>
<polygon fill="#bfbfbf" stroke="black" points="128,-145 128,-179 254,-179 254,-145 128,-145"/>
<text text-anchor="start" x="136" y="-166" font-family="Helvetica,sans-Serif" font-size="10.00">src/calibration/converters</text>
<text text-anchor="middle" x="191" y="-153" font-family="Helvetica,sans-Serif" font-size="10.00">/MultiHit16bit.h</text>
</g>
<!-- Node2 -->
<g id="node3" class="node"><title>Node2</title>
<a xlink:href="_c_a_t_c_h___t_d_c_8h.html" target="_top" xlink:title="src/calibration/converters\l/CATCH_TDC.h">
<polygon fill="white" stroke="black" points="128,-73 128,-107 254,-107 254,-73 128,-73"/>
<text text-anchor="start" x="136" y="-94" font-family="Helvetica,sans-Serif" font-size="10.00">src/calibration/converters</text>
<text text-anchor="middle" x="191" y="-81" font-family="Helvetica,sans-Serif" font-size="10.00">/CATCH_TDC.h</text>
</a>
</g>
<!-- Node1&#45;&gt;Node2 -->
<g id="edge2" class="edge"><title>Node1&#45;&gt;Node2</title>
<path fill="none" stroke="midnightblue" d="M191,-134.719C191,-125.572 191,-115.625 191,-107.441"/>
<polygon fill="midnightblue" stroke="midnightblue" points="187.5,-134.937 191,-144.937 194.5,-134.937 187.5,-134.937"/>
</g>
<!-- Node4 -->
<g id="node7" class="node"><title>Node4</title>
<a xlink:href="_setup__2014___e_p_t_8cc.html" target="_top" xlink:title="src/expconfig/setups\l/Setup_2014_EPT.cc">
<polygon fill="white" stroke="black" points="0,-1 0,-35 110,-35 110,-1 0,-1"/>
<text text-anchor="start" x="8" y="-22" font-family="Helvetica,sans-Serif" font-size="10.00">src/expconfig/setups</text>
<text text-anchor="middle" x="55" y="-9" font-family="Helvetica,sans-Serif" font-size="10.00">/Setup_2014_EPT.cc</text>
</a>
</g>
<!-- Node1&#45;&gt;Node4 -->
<g id="edge10" class="edge"><title>Node1&#45;&gt;Node4</title>
<path fill="none" stroke="midnightblue" d="M155.802,-138.944C143.481,-130.035 129.989,-119.272 119,-108 96.7821,-85.2115 76.4679,-54.1344 64.9305,-35.0999"/>
<polygon fill="midnightblue" stroke="midnightblue" points="153.912,-141.894 164.101,-144.8 157.948,-136.175 153.912,-141.894"/>
</g>
<!-- Node5 -->
<g id="node9" class="node"><title>Node5</title>
<a xlink:href="_setup___test_8cc.html" target="_top" xlink:title="src/expconfig/setups\l/Setup_Test.cc">
<polygon fill="white" stroke="black" points="271.5,-1 271.5,-35 378.5,-35 378.5,-1 271.5,-1"/>
<text text-anchor="start" x="279.5" y="-22" font-family="Helvetica,sans-Serif" font-size="10.00">src/expconfig/setups</text>
<text text-anchor="middle" x="325" y="-9" font-family="Helvetica,sans-Serif" font-size="10.00">/Setup_Test.cc</text>
</a>
</g>
<!-- Node1&#45;&gt;Node5 -->
<g id="edge12" class="edge"><title>Node1&#45;&gt;Node5</title>
<path fill="none" stroke="midnightblue" d="M226.291,-139.035C238.622,-130.134 252.095,-119.353 263,-108 284.818,-85.2848 304.41,-54.186 315.489,-35.1271"/>
<polygon fill="midnightblue" stroke="midnightblue" points="224.147,-136.263 217.982,-144.88 228.174,-141.989 224.147,-136.263"/>
</g>
<!-- Node3 -->
<g id="node5" class="node"><title>Node3</title>
<a xlink:href="_c_a_t_c_h___t_d_c_8cc.html" target="_top" xlink:title="src/calibration/converters\l/CATCH_TDC.cc">
<polygon fill="white" stroke="black" points="128,-1 128,-35 254,-35 254,-1 128,-1"/>
<text text-anchor="start" x="136" y="-22" font-family="Helvetica,sans-Serif" font-size="10.00">src/calibration/converters</text>
<text text-anchor="middle" x="191" y="-9" font-family="Helvetica,sans-Serif" font-size="10.00">/CATCH_TDC.cc</text>
</a>
</g>
<!-- Node2&#45;&gt;Node3 -->
<g id="edge4" class="edge"><title>Node2&#45;&gt;Node3</title>
<path fill="none" stroke="midnightblue" d="M191,-62.7193C191,-53.572 191,-43.6255 191,-35.4407"/>
<polygon fill="midnightblue" stroke="midnightblue" points="187.5,-62.937 191,-72.937 194.5,-62.937 187.5,-62.937"/>
</g>
<!-- Node2&#45;&gt;Node4 -->
<g id="edge6" class="edge"><title>Node2&#45;&gt;Node4</title>
<path fill="none" stroke="midnightblue" d="M149.872,-68.2264C129.872,-57.6383 106.177,-45.0936 87.4701,-35.19"/>
<polygon fill="midnightblue" stroke="midnightblue" points="148.294,-71.3513 158.77,-72.937 151.57,-65.1648 148.294,-71.3513"/>
</g>
<!-- Node2&#45;&gt;Node5 -->
<g id="edge8" class="edge"><title>Node2&#45;&gt;Node5</title>
<path fill="none" stroke="midnightblue" d="M231.79,-68.0832C251.439,-57.5254 274.659,-45.049 293.007,-35.19"/>
<polygon fill="midnightblue" stroke="midnightblue" points="229.908,-65.1207 222.756,-72.937 233.222,-71.2869 229.908,-65.1207"/>
</g>
</g>
</svg>
