<?xml version="1.0" encoding="UTF-8" standalone="no"?>
<!DOCTYPE svg PUBLIC "-//W3C//DTD SVG 1.1//EN"
 "http://www.w3.org/Graphics/SVG/1.1/DTD/svg11.dtd">
<!-- Generated by graphviz version 2.26.3 (20100126.1600)
 -->
<!-- Title: src/base/OptionsList.cc Pages: 1 -->
<svg width="316pt" height="146pt"
 viewBox="0.00 0.00 316.00 146.00" xmlns="http://www.w3.org/2000/svg" xmlns:xlink="http://www.w3.org/1999/xlink">
<g id="graph1" class="graph" transform="scale(1 1) rotate(0) translate(4 142)">
<title>src/base/OptionsList.cc</title>
<polygon fill="white" stroke="white" points="-4,5 -4,-142 313,-142 313,5 -4,5"/>
<!-- Node1 -->
<g id="node1" class="node"><title>Node1</title>
<polygon fill="#bfbfbf" stroke="black" points="159,-116.5 159,-137.5 279,-137.5 279,-116.5 159,-116.5"/>
<text text-anchor="middle" x="219" y="-124.5" font-family="Helvetica,sans-Serif" font-size="10.00">src/base/OptionsList.cc</text>
</g>
<!-- Node2 -->
<g id="node3" class="node"><title>Node2</title>
<a xlink:href="_options_list_8h.html" target="_top" xlink:title="OptionsList.h">
<polygon fill="white" stroke="black" points="65,-58.5 65,-79.5 139,-79.5 139,-58.5 65,-58.5"/>
<text text-anchor="middle" x="102" y="-66.5" font-family="Helvetica,sans-Serif" font-size="10.00">OptionsList.h</text>
</a>
</g>
<!-- Node1&#45;&gt;Node2 -->
<g id="edge2" class="edge"><title>Node1&#45;&gt;Node2</title>
<path fill="none" stroke="midnightblue" d="M197.812,-116.497C179.538,-107.438 152.928,-94.2462 132.385,-84.0628"/>
<polygon fill="midnightblue" stroke="midnightblue" points="133.94,-80.9269 123.426,-79.6212 130.831,-87.1986 133.94,-80.9269"/>
</g>
<!-- Node6 -->
<g id="node11" class="node"><title>Node6</title>
<a xlink:href="_logger_8h.html" target="_top" xlink:title="Logger.h">
<polygon fill="white" stroke="black" points="192,-58.5 192,-79.5 246,-79.5 246,-58.5 192,-58.5"/>
<text text-anchor="middle" x="219" y="-66.5" font-family="Helvetica,sans-Serif" font-size="10.00">Logger.h</text>
</a>
</g>
<!-- Node1&#45;&gt;Node6 -->
<g id="edge10" class="edge"><title>Node1&#45;&gt;Node6</title>
<path fill="none" stroke="midnightblue" d="M219,-116.362C219,-108.922 219,-98.7427 219,-89.7276"/>
<polygon fill="midnightblue" stroke="midnightblue" points="222.5,-89.5706 219,-79.5707 215.5,-89.5707 222.5,-89.5706"/>
</g>
<!-- Node8 -->
<g id="node15" class="node"><title>Node8</title>
<polygon fill="white" stroke="#bfbfbf" points="263.5,-58.5 263.5,-79.5 308.5,-79.5 308.5,-58.5 263.5,-58.5"/>
<text text-anchor="middle" x="286" y="-66.5" font-family="Helvetica,sans-Serif" font-size="10.00">cstdlib</text>
</g>
<!-- Node1&#45;&gt;Node8 -->
<g id="edge14" class="edge"><title>Node1&#45;&gt;Node8</title>
<path fill="none" stroke="midnightblue" d="M231.289,-116.362C241.017,-107.941 254.798,-96.0105 266.095,-86.2308"/>
<polygon fill="midnightblue" stroke="midnightblue" points="268.519,-88.7619 273.789,-79.5707 263.938,-83.4695 268.519,-88.7619"/>
</g>
<!-- Node3 -->
<g id="node5" class="node"><title>Node3</title>
<polygon fill="white" stroke="#bfbfbf" points="-0.5,-0.5 -0.5,-21.5 40.5,-21.5 40.5,-0.5 -0.5,-0.5"/>
<text text-anchor="middle" x="20" y="-8.5" font-family="Helvetica,sans-Serif" font-size="10.00">string</text>
</g>
<!-- Node2&#45;&gt;Node3 -->
<g id="edge4" class="edge"><title>Node2&#45;&gt;Node3</title>
<path fill="none" stroke="midnightblue" d="M86.9599,-58.3619C74.7075,-49.6955 57.2005,-37.3126 43.1606,-27.3819"/>
<polygon fill="midnightblue" stroke="midnightblue" points="45.13,-24.4879 34.9447,-21.5707 41.0877,-30.2028 45.13,-24.4879"/>
</g>
<!-- Node4 -->
<g id="node7" class="node"><title>Node4</title>
<polygon fill="white" stroke="#bfbfbf" points="58,-0.5 58,-21.5 110,-21.5 110,-0.5 58,-0.5"/>
<text text-anchor="middle" x="84" y="-8.5" font-family="Helvetica,sans-Serif" font-size="10.00">memory</text>
</g>
<!-- Node2&#45;&gt;Node4 -->
<g id="edge6" class="edge"><title>Node2&#45;&gt;Node4</title>
<path fill="none" stroke="midnightblue" d="M98.6985,-58.3619C96.3388,-50.7584 93.0912,-40.294 90.2488,-31.1349"/>
<polygon fill="midnightblue" stroke="midnightblue" points="93.5873,-30.0839 87.2805,-21.5707 86.9019,-32.1587 93.5873,-30.0839"/>
</g>
<!-- Node5 -->
<g id="node9" class="node"><title>Node5</title>
<polygon fill="white" stroke="#bfbfbf" points="127.5,-0.5 127.5,-21.5 162.5,-21.5 162.5,-0.5 127.5,-0.5"/>
<text text-anchor="middle" x="145" y="-8.5" font-family="Helvetica,sans-Serif" font-size="10.00">map</text>
</g>
<!-- Node2&#45;&gt;Node5 -->
<g id="edge8" class="edge"><title>Node2&#45;&gt;Node5</title>
<path fill="none" stroke="midnightblue" d="M109.887,-58.3619C115.827,-50.3496 124.122,-39.1605 131.159,-29.6696"/>
<polygon fill="midnightblue" stroke="midnightblue" points="134.019,-31.6883 137.163,-21.5707 128.396,-27.5193 134.019,-31.6883"/>
</g>
<!-- Node7 -->
<g id="node13" class="node"><title>Node7</title>
<polygon fill="white" stroke="#bfbfbf" points="179.5,-0.5 179.5,-21.5 294.5,-21.5 294.5,-0.5 179.5,-0.5"/>
<text text-anchor="middle" x="237" y="-8.5" font-family="Helvetica,sans-Serif" font-size="10.00">detail/easylogging++.h</text>
</g>
<!-- Node6&#45;&gt;Node7 -->
<g id="edge12" class="edge"><title>Node6&#45;&gt;Node7</title>
<path fill="none" stroke="midnightblue" d="M222.301,-58.3619C224.661,-50.7584 227.909,-40.294 230.751,-31.1349"/>
<polygon fill="midnightblue" stroke="midnightblue" points="234.098,-32.1587 233.719,-21.5707 227.413,-30.0839 234.098,-32.1587"/>
</g>
</g>
</svg>
