<?xml version="1.0" encoding="UTF-8" standalone="no"?>
<!DOCTYPE svg PUBLIC "-//W3C//DTD SVG 1.1//EN"
 "http://www.w3.org/Graphics/SVG/1.1/DTD/svg11.dtd">
<!-- Generated by graphviz version 2.26.3 (20100126.1600)
 -->
<!-- Title: src/calibration/modules/PID_Energy.cc Pages: 1 -->
<svg width="4074pt" height="768pt"
 viewBox="0.00 0.00 4073.68 768.00" xmlns="http://www.w3.org/2000/svg" xmlns:xlink="http://www.w3.org/1999/xlink">
<g id="graph1" class="graph" transform="scale(1 1) rotate(0) translate(4 764)">
<title>src/calibration/modules/PID_Energy.cc</title>
<polygon fill="white" stroke="white" points="-4,5 -4,-764 4070.68,-764 4070.68,5 -4,5"/>
<!-- Node1 -->
<g id="node1" class="node"><title>Node1</title>
<polygon fill="#bfbfbf" stroke="black" points="2286.5,-725 2286.5,-759 2403.5,-759 2403.5,-725 2286.5,-725"/>
<text text-anchor="start" x="2294.5" y="-746" font-family="Helvetica,sans-Serif" font-size="10.00">src/calibration/modules</text>
<text text-anchor="middle" x="2345" y="-733" font-family="Helvetica,sans-Serif" font-size="10.00">/PID_Energy.cc</text>
</g>
<!-- Node2 -->
<g id="node3" class="node"><title>Node2</title>
<a xlink:href="_p_i_d___energy_8h.html" target="_top" xlink:title="PID_Energy.h">
<polygon fill="white" stroke="black" points="2306,-594.5 2306,-615.5 2384,-615.5 2384,-594.5 2306,-594.5"/>
<text text-anchor="middle" x="2345" y="-602.5" font-family="Helvetica,sans-Serif" font-size="10.00">PID_Energy.h</text>
</a>
</g>
<!-- Node1&#45;&gt;Node2 -->
<g id="edge2" class="edge"><title>Node1&#45;&gt;Node2</title>
<path fill="none" stroke="midnightblue" d="M2345,-724.926C2345,-699.821 2345,-652.998 2345,-625.881"/>
<polygon fill="midnightblue" stroke="midnightblue" points="2348.5,-625.586 2345,-615.586 2341.5,-625.586 2348.5,-625.586"/>
</g>
<!-- Node5 -->
<g id="node9" class="node"><title>Node5</title>
<a xlink:href="_histogram_factories_8h.html" target="_top" xlink:title="analysis/plot/HistogramFactories.h">
<polygon fill="white" stroke="black" points="2240,-355.5 2240,-376.5 2408,-376.5 2408,-355.5 2240,-355.5"/>
<text text-anchor="middle" x="2324" y="-363.5" font-family="Helvetica,sans-Serif" font-size="10.00">analysis/plot/HistogramFactories.h</text>
</a>
</g>
<!-- Node1&#45;&gt;Node5 -->
<g id="edge310" class="edge"><title>Node1&#45;&gt;Node5</title>
<path fill="none" stroke="midnightblue" d="M2324.36,-724.85C2298.07,-700.953 2256,-654.919 2256,-605 2256,-605 2256,-605 2256,-489 2256,-447.493 2286.03,-406.838 2306.17,-384.229"/>
<polygon fill="midnightblue" stroke="midnightblue" points="2308.87,-386.472 2313.07,-376.749 2303.72,-381.725 2308.87,-386.472"/>
</g>
<!-- Node19 -->
<g id="node40" class="node"><title>Node19</title>
<polygon fill="white" stroke="#bfbfbf" points="2012.5,-116.5 2012.5,-137.5 2041.5,-137.5 2041.5,-116.5 2012.5,-116.5"/>
<text text-anchor="middle" x="2027" y="-124.5" font-family="Helvetica,sans-Serif" font-size="10.00">list</text>
</g>
<!-- Node1&#45;&gt;Node19 -->
<g id="edge362" class="edge"><title>Node1&#45;&gt;Node19</title>
<path fill="none" stroke="midnightblue" d="M2286.38,-740.872C1968.33,-734.376 464,-698.701 464,-605 464,-605 464,-605 464,-431 464,-302.417 557.678,-286.797 674,-232 753.488,-194.555 776.386,-188.784 863,-174 1093.01,-134.741 1854.01,-128.07 2001.95,-127.136"/>
<polygon fill="midnightblue" stroke="midnightblue" points="2002.27,-130.634 2012.25,-127.074 2002.23,-123.634 2002.27,-130.634"/>
</g>
<!-- Node42 -->
<g id="node119" class="node"><title>Node42</title>
<a xlink:href="_event_8h.html" target="_top" xlink:title="analysis/data/Event.h">
<polygon fill="white" stroke="black" points="3047.5,-355.5 3047.5,-376.5 3158.5,-376.5 3158.5,-355.5 3047.5,-355.5"/>
<text text-anchor="middle" x="3103" y="-363.5" font-family="Helvetica,sans-Serif" font-size="10.00">analysis/data/Event.h</text>
</a>
</g>
<!-- Node1&#45;&gt;Node42 -->
<g id="edge312" class="edge"><title>Node1&#45;&gt;Node42</title>
<path fill="none" stroke="midnightblue" d="M2403.78,-739.113C2662.02,-726.049 3683,-670.272 3683,-605 3683,-605 3683,-605 3683,-547 3683,-440.277 3320.63,-389.183 3168.74,-372.455"/>
<polygon fill="midnightblue" stroke="midnightblue" points="3168.93,-368.955 3158.61,-371.356 3168.18,-375.914 3168.93,-368.955"/>
</g>
<!-- Node45 -->
<g id="node134" class="node"><title>Node45</title>
<a xlink:href="_t_data_record_8h.html" target="_top" xlink:title="tree/TDataRecord.h">
<polygon fill="white" stroke="black" points="3708.5,-232.5 3708.5,-253.5 3811.5,-253.5 3811.5,-232.5 3708.5,-232.5"/>
<text text-anchor="middle" x="3760" y="-240.5" font-family="Helvetica,sans-Serif" font-size="10.00">tree/TDataRecord.h</text>
</a>
</g>
<!-- Node1&#45;&gt;Node45 -->
<g id="edge356" class="edge"><title>Node1&#45;&gt;Node45</title>
<path fill="none" stroke="midnightblue" d="M2403.57,-741.379C2560.08,-739.184 3000.95,-729.491 3365,-688 3576.63,-663.881 3837,-817.996 3837,-605 3837,-605 3837,-605 3837,-366 3837,-331.183 3836.71,-319.362 3818,-290 3810.25,-277.84 3798.28,-267.372 3787.23,-259.422"/>
<polygon fill="midnightblue" stroke="midnightblue" points="3788.89,-256.323 3778.65,-253.603 3784.96,-262.115 3788.89,-256.323"/>
</g>
<!-- Node63 -->
<g id="node220" class="node"><title>Node63</title>
<a xlink:href="_p_i_d_8h.html" target="_top" xlink:title="expconfig/detectors\l/PID.h">
<polygon fill="white" stroke="black" points="223,-653 223,-687 325,-687 325,-653 223,-653"/>
<text text-anchor="start" x="231" y="-674" font-family="Helvetica,sans-Serif" font-size="10.00">expconfig/detectors</text>
<text text-anchor="middle" x="274" y="-661" font-family="Helvetica,sans-Serif" font-size="10.00">/PID.h</text>
</a>
</g>
<!-- Node1&#45;&gt;Node63 -->
<g id="edge314" class="edge"><title>Node1&#45;&gt;Node63</title>
<path fill="none" stroke="midnightblue" d="M2286.48,-740.913C2008.59,-735.661 820.302,-712.179 450,-688 411.808,-685.506 369.096,-681.175 335.314,-677.387"/>
<polygon fill="midnightblue" stroke="midnightblue" points="335.462,-673.881 325.131,-676.231 334.673,-680.837 335.462,-673.881"/>
</g>
<!-- Node67 -->
<g id="node246" class="node"><title>Node67</title>
<a xlink:href="_logger_8h.html" target="_top" xlink:title="base/Logger.h">
<polygon fill="white" stroke="black" points="3874,-659.5 3874,-680.5 3952,-680.5 3952,-659.5 3874,-659.5"/>
<text text-anchor="middle" x="3913" y="-667.5" font-family="Helvetica,sans-Serif" font-size="10.00">base/Logger.h</text>
</a>
</g>
<!-- Node1&#45;&gt;Node67 -->
<g id="edge358" class="edge"><title>Node1&#45;&gt;Node67</title>
<path fill="none" stroke="midnightblue" d="M2403.69,-741.827C2645.42,-740.814 3564.75,-733.959 3851,-688 3857.91,-686.89 3865.15,-685.249 3872.13,-683.403"/>
<polygon fill="midnightblue" stroke="midnightblue" points="3873.44,-686.67 3882.12,-680.59 3871.55,-679.932 3873.44,-686.67"/>
</g>
<!-- Node3 -->
<g id="node5" class="node"><title>Node3</title>
<a xlink:href="_calibration_8h.html" target="_top" xlink:title="calibration/Calibration.h">
<polygon fill="white" stroke="black" points="2283.5,-478.5 2283.5,-499.5 2402.5,-499.5 2402.5,-478.5 2283.5,-478.5"/>
<text text-anchor="middle" x="2343" y="-486.5" font-family="Helvetica,sans-Serif" font-size="10.00">calibration/Calibration.h</text>
</a>
</g>
<!-- Node2&#45;&gt;Node3 -->
<g id="edge4" class="edge"><title>Node2&#45;&gt;Node3</title>
<path fill="none" stroke="midnightblue" d="M2346.43,-594.241C2348.05,-580.665 2350.31,-556.597 2349,-536 2348.45,-527.421 2347.35,-518.015 2346.24,-509.885"/>
<polygon fill="midnightblue" stroke="midnightblue" points="2349.68,-509.181 2344.77,-499.79 2342.75,-510.19 2349.68,-509.181"/>
</g>
<!-- Node62 -->
<g id="node212" class="node"><title>Node62</title>
<a xlink:href="_energy_8h.html" target="_top" xlink:title="Energy.h">
<polygon fill="white" stroke="black" points="2284,-536.5 2284,-557.5 2340,-557.5 2340,-536.5 2284,-536.5"/>
<text text-anchor="middle" x="2312" y="-544.5" font-family="Helvetica,sans-Serif" font-size="10.00">Energy.h</text>
</a>
</g>
<!-- Node2&#45;&gt;Node62 -->
<g id="edge300" class="edge"><title>Node2&#45;&gt;Node62</title>
<path fill="none" stroke="midnightblue" d="M2338.95,-594.362C2334.53,-586.595 2328.41,-575.843 2323.12,-566.546"/>
<polygon fill="midnightblue" stroke="midnightblue" points="2326,-564.531 2318.01,-557.571 2319.92,-567.993 2326,-564.531"/>
</g>
<!-- Node4 -->
<g id="node7" class="node"><title>Node4</title>
<a xlink:href="_physics_8h.html" target="_top" xlink:title="analysis/physics/Physics.h">
<polygon fill="white" stroke="black" points="2025,-420.5 2025,-441.5 2161,-441.5 2161,-420.5 2025,-420.5"/>
<text text-anchor="middle" x="2093" y="-428.5" font-family="Helvetica,sans-Serif" font-size="10.00">analysis/physics/Physics.h</text>
</a>
</g>
<!-- Node3&#45;&gt;Node4 -->
<g id="edge6" class="edge"><title>Node3&#45;&gt;Node4</title>
<path fill="none" stroke="midnightblue" d="M2297.73,-478.497C2255.74,-468.755 2193.14,-454.233 2148.23,-443.813"/>
<polygon fill="midnightblue" stroke="midnightblue" points="2148.89,-440.374 2138.36,-441.523 2147.31,-447.193 2148.89,-440.374"/>
</g>
<!-- Node8 -->
<g id="node15" class="node"><title>Node8</title>
<polygon fill="white" stroke="#bfbfbf" points="2346,-0.5 2346,-21.5 2390,-21.5 2390,-0.5 2346,-0.5"/>
<text text-anchor="middle" x="2368" y="-8.5" font-family="Helvetica,sans-Serif" font-size="10.00">vector</text>
</g>
<!-- Node3&#45;&gt;Node8 -->
<g id="edge298" class="edge"><title>Node3&#45;&gt;Node8</title>
<path fill="none" stroke="midnightblue" d="M2402.69,-482.854C2512.63,-469.866 2736,-434.991 2736,-366 2736,-366 2736,-366 2736,-301 2736,-265.553 2723.06,-254.893 2696,-232 2661.21,-202.571 2639.23,-219.181 2600,-196 2559.43,-172.028 2476.61,-86.3932 2439,-58 2424.48,-47.0401 2407.52,-35.7578 2393.81,-26.995"/>
<polygon fill="midnightblue" stroke="midnightblue" points="2395.66,-24.02 2385.34,-21.6291 2391.91,-29.9348 2395.66,-24.02"/>
</g>
<!-- Node56 -->
<g id="node185" class="node"><title>Node56</title>
<a xlink:href="_reconstruct__traits_8h.html" target="_top" xlink:title="reconstruct/Reconstruct\l_traits.h">
<polygon fill="white" stroke="black" points="903,-349 903,-383 1025,-383 1025,-349 903,-349"/>
<text text-anchor="start" x="911" y="-370" font-family="Helvetica,sans-Serif" font-size="10.00">reconstruct/Reconstruct</text>
<text text-anchor="middle" x="964" y="-357" font-family="Helvetica,sans-Serif" font-size="10.00">_traits.h</text>
</a>
</g>
<!-- Node3&#45;&gt;Node56 -->
<g id="edge258" class="edge"><title>Node3&#45;&gt;Node56</title>
<path fill="none" stroke="midnightblue" d="M2283.22,-484.326C2106.52,-470.405 1571.29,-427.475 1128,-384 1097.53,-381.011 1063.91,-377.38 1035.08,-374.164"/>
<polygon fill="midnightblue" stroke="midnightblue" points="1035.43,-370.681 1025.1,-373.046 1034.65,-377.637 1035.43,-370.681"/>
</g>
<!-- Node60 -->
<g id="node202" class="node"><title>Node60</title>
<a xlink:href="_manager__traits_8h.html" target="_top" xlink:title="calibration/gui/Manager\l_traits.h">
<polygon fill="white" stroke="black" points="2763.5,-349 2763.5,-383 2880.5,-383 2880.5,-349 2763.5,-349"/>
<text text-anchor="start" x="2771.5" y="-370" font-family="Helvetica,sans-Serif" font-size="10.00">calibration/gui/Manager</text>
<text text-anchor="middle" x="2822" y="-357" font-family="Helvetica,sans-Serif" font-size="10.00">_traits.h</text>
</a>
</g>
<!-- Node3&#45;&gt;Node60 -->
<g id="edge284" class="edge"><title>Node3&#45;&gt;Node60</title>
<path fill="none" stroke="midnightblue" d="M2402.8,-487.08C2500.77,-483.113 2690.52,-471.745 2750,-442 2772.7,-430.647 2792.06,-409.063 2804.97,-391.789"/>
<polygon fill="midnightblue" stroke="midnightblue" points="2808.13,-393.391 2811.12,-383.226 2802.44,-389.31 2808.13,-393.391"/>
</g>
<!-- Node4&#45;&gt;Node5 -->
<g id="edge8" class="edge"><title>Node4&#45;&gt;Node5</title>
<path fill="none" stroke="midnightblue" d="M2130.37,-420.484C2170.29,-409.251 2233.66,-391.421 2276.95,-379.239"/>
<polygon fill="midnightblue" stroke="midnightblue" points="2278,-382.578 2286.68,-376.501 2276.11,-375.84 2278,-382.578"/>
</g>
<!-- Node9 -->
<g id="node17" class="node"><title>Node9</title>
<polygon fill="white" stroke="#bfbfbf" points="671.5,-0.5 671.5,-21.5 712.5,-21.5 712.5,-0.5 671.5,-0.5"/>
<text text-anchor="middle" x="692" y="-8.5" font-family="Helvetica,sans-Serif" font-size="10.00">string</text>
</g>
<!-- Node4&#45;&gt;Node9 -->
<g id="edge250" class="edge"><title>Node4&#45;&gt;Node9</title>
<path fill="none" stroke="midnightblue" d="M2024.81,-430.076C1773.29,-426.459 905.911,-412.059 785,-384 616.796,-344.966 504.33,-358.161 445,-196 407.375,-93.1637 587.271,-36.6108 661.34,-17.9872"/>
<polygon fill="midnightblue" stroke="midnightblue" points="662.174,-21.3865 671.055,-15.6102 660.51,-14.5871 662.174,-21.3865"/>
</g>
<!-- Node4&#45;&gt;Node19 -->
<g id="edge248" class="edge"><title>Node4&#45;&gt;Node19</title>
<path fill="none" stroke="midnightblue" d="M2112.01,-420.406C2125.55,-412.034 2143.35,-399.24 2155,-384 2196.28,-329.989 2218.25,-281.819 2172,-232 2132.38,-189.317 2086.98,-237.38 2046,-196 2033.41,-183.284 2028.97,-163.034 2027.5,-147.753"/>
<polygon fill="midnightblue" stroke="midnightblue" points="2030.98,-147.448 2026.87,-137.683 2024,-147.88 2030.98,-147.448"/>
</g>
<!-- Node20 -->
<g id="node43" class="node"><title>Node20</title>
<polygon fill="white" stroke="#bfbfbf" points="1698.5,-174.5 1698.5,-195.5 1733.5,-195.5 1733.5,-174.5 1698.5,-174.5"/>
<text text-anchor="middle" x="1716" y="-182.5" font-family="Helvetica,sans-Serif" font-size="10.00">map</text>
</g>
<!-- Node4&#45;&gt;Node20 -->
<g id="edge252" class="edge"><title>Node4&#45;&gt;Node20</title>
<path fill="none" stroke="midnightblue" d="M2090.85,-420.116C2083.49,-385.93 2055.87,-280.126 1988,-232 1899.66,-169.358 1852.08,-222.23 1747,-196 1745.75,-195.689 1744.49,-195.347 1743.21,-194.983"/>
<polygon fill="midnightblue" stroke="midnightblue" points="1744.12,-191.598 1733.52,-191.88 1741.98,-198.264 1744.12,-191.598"/>
</g>
<!-- Node21 -->
<g id="node45" class="node"><title>Node21</title>
<polygon fill="white" stroke="#bfbfbf" points="1116,-174.5 1116,-195.5 1168,-195.5 1168,-174.5 1116,-174.5"/>
<text text-anchor="middle" x="1142" y="-182.5" font-family="Helvetica,sans-Serif" font-size="10.00">memory</text>
</g>
<!-- Node4&#45;&gt;Node21 -->
<g id="edge254" class="edge"><title>Node4&#45;&gt;Node21</title>
<path fill="none" stroke="midnightblue" d="M2024.76,-426.212C1846.36,-412.975 1369.91,-372.797 1225,-312 1186.14,-295.697 1170.72,-290.694 1150,-254 1141.77,-239.416 1140.11,-220.35 1140.32,-205.956"/>
<polygon fill="midnightblue" stroke="midnightblue" points="1143.83,-205.739 1140.8,-195.589 1136.84,-205.417 1143.83,-205.739"/>
</g>
<!-- Node22 -->
<g id="node47" class="node"><title>Node22</title>
<polygon fill="white" stroke="#bfbfbf" points="1864.5,-174.5 1864.5,-195.5 1923.5,-195.5 1923.5,-174.5 1864.5,-174.5"/>
<text text-anchor="middle" x="1894" y="-182.5" font-family="Helvetica,sans-Serif" font-size="10.00">functional</text>
</g>
<!-- Node4&#45;&gt;Node22 -->
<g id="edge256" class="edge"><title>Node4&#45;&gt;Node22</title>
<path fill="none" stroke="midnightblue" d="M2102.65,-420.112C2130.25,-387.657 2204.4,-290.223 2155,-232 2123.23,-194.559 1985.05,-206.094 1937,-196 1935.91,-195.77 1934.8,-195.531 1933.68,-195.285"/>
<polygon fill="midnightblue" stroke="midnightblue" points="1934.06,-191.78 1923.53,-192.913 1932.47,-198.596 1934.06,-191.78"/>
</g>
<!-- Node4&#45;&gt;Node42 -->
<g id="edge154" class="edge"><title>Node4&#45;&gt;Node42</title>
<path fill="none" stroke="midnightblue" d="M2161.18,-427.548C2298.83,-420.454 2619.74,-403.27 2889,-384 2938.64,-380.447 2994.7,-375.705 3036.99,-371.98"/>
<polygon fill="midnightblue" stroke="midnightblue" points="3037.5,-375.448 3047.16,-371.081 3036.89,-368.476 3037.5,-375.448"/>
</g>
<!-- Node54 -->
<g id="node171" class="node"><title>Node54</title>
<a xlink:href="_slowcontrol_8h.html" target="_top" xlink:title="analysis/data/Slowcontrol.h">
<polygon fill="white" stroke="black" points="833.5,-116.5 833.5,-137.5 970.5,-137.5 970.5,-116.5 833.5,-116.5"/>
<text text-anchor="middle" x="902" y="-124.5" font-family="Helvetica,sans-Serif" font-size="10.00">analysis/data/Slowcontrol.h</text>
</a>
</g>
<!-- Node4&#45;&gt;Node54 -->
<g id="edge234" class="edge"><title>Node4&#45;&gt;Node54</title>
<path fill="none" stroke="midnightblue" d="M2024.88,-429.66C1787.4,-424.807 1004.47,-407.201 894,-384 808.464,-366.036 791.126,-346.912 711,-312 601.655,-264.357 532.549,-296.934 469,-196 414.324,-109.159 181.958,-213.497 820,-138 820.936,-137.889 821.878,-137.777 822.825,-137.663"/>
<polygon fill="midnightblue" stroke="midnightblue" points="823.621,-141.092 833.12,-136.398 822.767,-134.144 823.621,-141.092"/>
</g>
<!-- Node55 -->
<g id="node175" class="node"><title>Node55</title>
<a xlink:href="_options_list_8h.html" target="_top" xlink:title="base/OptionsList.h">
<polygon fill="white" stroke="black" points="1772,-232.5 1772,-253.5 1870,-253.5 1870,-232.5 1772,-232.5"/>
<text text-anchor="middle" x="1821" y="-240.5" font-family="Helvetica,sans-Serif" font-size="10.00">base/OptionsList.h</text>
</a>
</g>
<!-- Node4&#45;&gt;Node55 -->
<g id="edge240" class="edge"><title>Node4&#45;&gt;Node55</title>
<path fill="none" stroke="midnightblue" d="M2068.01,-420.405C2048.39,-411.669 2020.68,-398.408 1998,-384 1936.82,-345.123 1871.88,-289.041 1840.39,-260.75"/>
<polygon fill="midnightblue" stroke="midnightblue" points="1842.53,-257.975 1832.77,-253.864 1837.84,-263.167 1842.53,-257.975"/>
</g>
<!-- Node6 -->
<g id="node11" class="node"><title>Node6</title>
<a xlink:href="_histogram_8h.html" target="_top" xlink:title="Histogram.h">
<polygon fill="white" stroke="black" points="2278,-232.5 2278,-253.5 2348,-253.5 2348,-232.5 2278,-232.5"/>
<text text-anchor="middle" x="2313" y="-240.5" font-family="Helvetica,sans-Serif" font-size="10.00">Histogram.h</text>
</a>
</g>
<!-- Node5&#45;&gt;Node6 -->
<g id="edge10" class="edge"><title>Node5&#45;&gt;Node6</title>
<path fill="none" stroke="midnightblue" d="M2323.02,-355.085C2321.19,-334.609 2317.22,-290.133 2314.86,-263.778"/>
<polygon fill="midnightblue" stroke="midnightblue" points="2318.34,-263.364 2313.96,-253.715 2311.36,-263.987 2318.34,-263.364"/>
</g>
<!-- Node5&#45;&gt;Node9 -->
<g id="edge152" class="edge"><title>Node5&#45;&gt;Node9</title>
<path fill="none" stroke="midnightblue" d="M2239.79,-364.939C2000.85,-361.547 1298.27,-348.935 716,-312 439.355,-294.451 307.441,-432.071 95,-254 70.623,-233.567 76,-216.808 76,-185 76,-185 76,-185 76,-127 76,-46.281 165.733,-77.7448 244,-58 323.526,-37.9376 573.486,-19.199 661.205,-13.0833"/>
<polygon fill="midnightblue" stroke="midnightblue" points="661.575,-16.5661 671.31,-12.3847 661.092,-9.58278 661.575,-16.5661"/>
</g>
<!-- Node17 -->
<g id="node34" class="node"><title>Node17</title>
<a xlink:href="_smart_hist_8h.html" target="_top" xlink:title="SmartHist.h">
<polygon fill="white" stroke="black" points="1478.5,-290.5 1478.5,-311.5 1547.5,-311.5 1547.5,-290.5 1478.5,-290.5"/>
<text text-anchor="middle" x="1513" y="-298.5" font-family="Helvetica,sans-Serif" font-size="10.00">SmartHist.h</text>
</a>
</g>
<!-- Node5&#45;&gt;Node17 -->
<g id="edge34" class="edge"><title>Node5&#45;&gt;Node17</title>
<path fill="none" stroke="midnightblue" d="M2239.88,-359.258C2069.45,-345.598 1688.49,-315.065 1557.92,-304.6"/>
<polygon fill="midnightblue" stroke="midnightblue" points="1558.12,-301.105 1547.87,-303.795 1557.56,-308.083 1558.12,-301.105"/>
</g>
<!-- Node30 -->
<g id="node67" class="node"><title>Node30</title>
<a xlink:href="_particle_8h.html" target="_top" xlink:title="analysis/data/Particle.h">
<polygon fill="white" stroke="black" points="2574.5,-290.5 2574.5,-311.5 2693.5,-311.5 2693.5,-290.5 2574.5,-290.5"/>
<text text-anchor="middle" x="2634" y="-298.5" font-family="Helvetica,sans-Serif" font-size="10.00">analysis/data/Particle.h</text>
</a>
</g>
<!-- Node5&#45;&gt;Node30 -->
<g id="edge74" class="edge"><title>Node5&#45;&gt;Node30</title>
<path fill="none" stroke="midnightblue" d="M2374.15,-355.484C2428.63,-344.062 2515.64,-325.818 2573.77,-313.628"/>
<polygon fill="midnightblue" stroke="midnightblue" points="2574.85,-316.978 2583.92,-311.501 2573.42,-310.127 2574.85,-316.978"/>
</g>
<!-- Node7 -->
<g id="node13" class="node"><title>Node7</title>
<polygon fill="white" stroke="#bfbfbf" points="2055,-174.5 2055,-195.5 2109,-195.5 2109,-174.5 2055,-174.5"/>
<text text-anchor="middle" x="2082" y="-182.5" font-family="Helvetica,sans-Serif" font-size="10.00">TColor.h</text>
</g>
<!-- Node6&#45;&gt;Node7 -->
<g id="edge12" class="edge"><title>Node6&#45;&gt;Node7</title>
<path fill="none" stroke="midnightblue" d="M2277.93,-234.543C2239.76,-225.288 2176.96,-209.912 2123,-196 2121.76,-195.679 2120.49,-195.351 2119.21,-195.018"/>
<polygon fill="midnightblue" stroke="midnightblue" points="2119.89,-191.577 2109.33,-192.412 2118.1,-198.345 2119.89,-191.577"/>
</g>
<!-- Node6&#45;&gt;Node8 -->
<g id="edge14" class="edge"><title>Node6&#45;&gt;Node8</title>
<path fill="none" stroke="midnightblue" d="M2315.51,-232.429C2324.01,-196.573 2351.84,-79.1689 2363.15,-31.4458"/>
<polygon fill="midnightblue" stroke="midnightblue" points="2366.58,-32.1712 2365.48,-21.6335 2359.77,-30.5564 2366.58,-32.1712"/>
</g>
<!-- Node6&#45;&gt;Node9 -->
<g id="edge16" class="edge"><title>Node6&#45;&gt;Node9</title>
<path fill="none" stroke="midnightblue" d="M2277.98,-237.024C2226.92,-228.268 2129.08,-211.328 2046,-196 1995.25,-186.638 1983.28,-179.745 1932,-174 1809.7,-160.298 938.474,-185.631 825,-138 797.031,-126.26 737.306,-61.9769 708.377,-29.6207"/>
<polygon fill="midnightblue" stroke="midnightblue" points="710.662,-26.9231 701.404,-21.7716 705.429,-31.5722 710.662,-26.9231"/>
</g>
<!-- Node10 -->
<g id="node19" class="node"><title>Node10</title>
<a xlink:href="interval_8h.html" target="_top" xlink:title="base/interval.h">
<polygon fill="white" stroke="black" points="2857,-174.5 2857,-195.5 2937,-195.5 2937,-174.5 2857,-174.5"/>
<text text-anchor="middle" x="2897" y="-182.5" font-family="Helvetica,sans-Serif" font-size="10.00">base/interval.h</text>
</a>
</g>
<!-- Node6&#45;&gt;Node10 -->
<g id="edge18" class="edge"><title>Node6&#45;&gt;Node10</title>
<path fill="none" stroke="midnightblue" d="M2348.08,-237.981C2362.58,-235.987 2379.59,-233.755 2395,-232 2560.19,-213.195 2756.58,-196.423 2846.96,-189.018"/>
<polygon fill="midnightblue" stroke="midnightblue" points="2847.24,-192.507 2856.92,-188.204 2846.67,-185.53 2847.24,-192.507"/>
</g>
<!-- Node11 -->
<g id="node21" class="node"><title>Node11</title>
<polygon fill="white" stroke="#bfbfbf" points="3077,-0.5 3077,-21.5 3133,-21.5 3133,-0.5 3077,-0.5"/>
<text text-anchor="middle" x="3105" y="-8.5" font-family="Helvetica,sans-Serif" font-size="10.00">algorithm</text>
</g>
<!-- Node10&#45;&gt;Node11 -->
<g id="edge20" class="edge"><title>Node10&#45;&gt;Node11</title>
<path fill="none" stroke="midnightblue" d="M2905.77,-174.083C2917.41,-159.918 2938.94,-134.797 2960,-116 2999.08,-81.1099 3049.56,-46.6434 3079.49,-27.1693"/>
<polygon fill="midnightblue" stroke="midnightblue" points="3081.57,-29.9872 3088.08,-21.623 3077.78,-24.1062 3081.57,-29.9872"/>
</g>
<!-- Node12 -->
<g id="node23" class="node"><title>Node12</title>
<polygon fill="white" stroke="#bfbfbf" points="2849.5,-58.5 2849.5,-79.5 2908.5,-79.5 2908.5,-58.5 2849.5,-58.5"/>
<text text-anchor="middle" x="2879" y="-66.5" font-family="Helvetica,sans-Serif" font-size="10.00">stdexcept</text>
</g>
<!-- Node10&#45;&gt;Node12 -->
<g id="edge22" class="edge"><title>Node10&#45;&gt;Node12</title>
<path fill="none" stroke="midnightblue" d="M2895.34,-174.295C2892.37,-155.131 2886.08,-114.654 2882.23,-89.8434"/>
<polygon fill="midnightblue" stroke="midnightblue" points="2885.65,-89.0242 2880.66,-79.6792 2878.73,-90.0977 2885.65,-89.0242"/>
</g>
<!-- Node13 -->
<g id="node25" class="node"><title>Node13</title>
<a xlink:href="printable_8h.html" target="_top" xlink:title="printable.h">
<polygon fill="white" stroke="black" points="3162,-58.5 3162,-79.5 3224,-79.5 3224,-58.5 3162,-58.5"/>
<text text-anchor="middle" x="3193" y="-66.5" font-family="Helvetica,sans-Serif" font-size="10.00">printable.h</text>
</a>
</g>
<!-- Node10&#45;&gt;Node13 -->
<g id="edge24" class="edge"><title>Node10&#45;&gt;Node13</title>
<path fill="none" stroke="midnightblue" d="M2924.05,-174.398C2977.45,-153.471 3096.44,-106.841 3156.63,-83.2521"/>
<polygon fill="midnightblue" stroke="midnightblue" points="3158.08,-86.4427 3166.12,-79.5352 3155.53,-79.9253 3158.08,-86.4427"/>
</g>
<!-- Node15 -->
<g id="node30" class="node"><title>Node15</title>
<a xlink:href="types_8h.html" target="_top" xlink:title="types.h">
<polygon fill="white" stroke="black" points="3244.5,-116.5 3244.5,-137.5 3293.5,-137.5 3293.5,-116.5 3244.5,-116.5"/>
<text text-anchor="middle" x="3269" y="-124.5" font-family="Helvetica,sans-Serif" font-size="10.00">types.h</text>
</a>
</g>
<!-- Node10&#45;&gt;Node15 -->
<g id="edge30" class="edge"><title>Node10&#45;&gt;Node15</title>
<path fill="none" stroke="midnightblue" d="M2937.16,-178.738C3010.61,-167.287 3165.36,-143.16 3234.43,-132.39"/>
<polygon fill="midnightblue" stroke="midnightblue" points="3235.03,-135.839 3244.37,-130.84 3233.95,-128.923 3235.03,-135.839"/>
</g>
<!-- Node16 -->
<g id="node32" class="node"><title>Node16</title>
<polygon fill="white" stroke="#bfbfbf" points="2830,-116.5 2830,-137.5 2870,-137.5 2870,-116.5 2830,-116.5"/>
<text text-anchor="middle" x="2850" y="-124.5" font-family="Helvetica,sans-Serif" font-size="10.00">limits</text>
</g>
<!-- Node10&#45;&gt;Node16 -->
<g id="edge32" class="edge"><title>Node10&#45;&gt;Node16</title>
<path fill="none" stroke="midnightblue" d="M2888.38,-174.362C2881.82,-166.268 2872.63,-154.932 2864.89,-145.38"/>
<polygon fill="midnightblue" stroke="midnightblue" points="2867.58,-143.136 2858.57,-137.571 2862.14,-147.544 2867.58,-143.136"/>
</g>
<!-- Node13&#45;&gt;Node8 -->
<g id="edge26" class="edge"><title>Node13&#45;&gt;Node8</title>
<path fill="none" stroke="midnightblue" d="M3161.67,-66.7972C3031.41,-57.6397 2533.35,-22.6249 2400.65,-13.2954"/>
<polygon fill="midnightblue" stroke="midnightblue" points="2400.56,-9.78061 2390.34,-12.5706 2400.07,-16.7634 2400.56,-9.78061"/>
</g>
<!-- Node14 -->
<g id="node28" class="node"><title>Node14</title>
<polygon fill="white" stroke="#bfbfbf" points="3007,-0.5 3007,-21.5 3059,-21.5 3059,-0.5 3007,-0.5"/>
<text text-anchor="middle" x="3033" y="-8.5" font-family="Helvetica,sans-Serif" font-size="10.00">ostream</text>
</g>
<!-- Node13&#45;&gt;Node14 -->
<g id="edge28" class="edge"><title>Node13&#45;&gt;Node14</title>
<path fill="none" stroke="midnightblue" d="M3164.03,-58.4966C3137.28,-48.8017 3097.48,-34.3733 3068.76,-23.9647"/>
<polygon fill="midnightblue" stroke="midnightblue" points="3069.7,-20.5826 3059.11,-20.465 3067.32,-27.1635 3069.7,-20.5826"/>
</g>
<!-- Node17&#45;&gt;Node6 -->
<g id="edge36" class="edge"><title>Node17&#45;&gt;Node6</title>
<path fill="none" stroke="midnightblue" d="M1547.63,-298.489C1675.78,-289.198 2123.13,-256.766 2267.62,-246.29"/>
<polygon fill="midnightblue" stroke="midnightblue" points="2268.17,-249.76 2277.89,-245.546 2267.66,-242.778 2268.17,-249.76"/>
</g>
<!-- Node17&#45;&gt;Node9 -->
<g id="edge68" class="edge"><title>Node17&#45;&gt;Node9</title>
<path fill="none" stroke="midnightblue" d="M1478.46,-300.593C1333.7,-298.668 780.112,-289.058 711,-254 675.526,-236.005 654,-224.777 654,-185 654,-185 654,-185 654,-127 654,-91.7411 670.051,-53.3154 681.289,-30.7323"/>
<polygon fill="midnightblue" stroke="midnightblue" points="684.418,-32.3005 685.895,-21.809 678.198,-29.0901 684.418,-32.3005"/>
</g>
<!-- Node18 -->
<g id="node37" class="node"><title>Node18</title>
<a xlink:href="root__draw_8h.html" target="_top" xlink:title="root_draw.h">
<polygon fill="white" stroke="black" points="2078,-232.5 2078,-253.5 2146,-253.5 2146,-232.5 2078,-232.5"/>
<text text-anchor="middle" x="2112" y="-240.5" font-family="Helvetica,sans-Serif" font-size="10.00">root_draw.h</text>
</a>
</g>
<!-- Node17&#45;&gt;Node18 -->
<g id="edge38" class="edge"><title>Node17&#45;&gt;Node18</title>
<path fill="none" stroke="midnightblue" d="M1547.79,-297.631C1650.7,-287.667 1953.51,-258.346 2067.72,-247.287"/>
<polygon fill="midnightblue" stroke="midnightblue" points="2068.24,-250.754 2077.86,-246.306 2067.57,-243.786 2068.24,-250.754"/>
</g>
<!-- Node17&#45;&gt;Node21 -->
<g id="edge66" class="edge"><title>Node17&#45;&gt;Node21</title>
<path fill="none" stroke="midnightblue" d="M1478.46,-298.937C1407.14,-294.181 1246.33,-280.75 1199,-254 1178.72,-242.54 1162.65,-220.845 1152.81,-204.829"/>
<polygon fill="midnightblue" stroke="midnightblue" points="1155.57,-202.609 1147.51,-195.733 1149.52,-206.135 1155.57,-202.609"/>
</g>
<!-- Node24 -->
<g id="node51" class="node"><title>Node24</title>
<a xlink:href="memory_8h.html" target="_top" xlink:title="base/std_ext/memory.h">
<polygon fill="white" stroke="black" points="1207.5,-232.5 1207.5,-253.5 1326.5,-253.5 1326.5,-232.5 1207.5,-232.5"/>
<text text-anchor="middle" x="1267" y="-240.5" font-family="Helvetica,sans-Serif" font-size="10.00">base/std_ext/memory.h</text>
</a>
</g>
<!-- Node17&#45;&gt;Node24 -->
<g id="edge54" class="edge"><title>Node17&#45;&gt;Node24</title>
<path fill="none" stroke="midnightblue" d="M1478.28,-292.813C1437.47,-283.193 1369.28,-267.114 1321.43,-255.832"/>
<polygon fill="midnightblue" stroke="midnightblue" points="1322.08,-252.39 1311.54,-253.502 1320.47,-259.203 1322.08,-252.39"/>
</g>
<!-- Node25 -->
<g id="node55" class="node"><title>Node25</title>
<polygon fill="white" stroke="#bfbfbf" points="1487.5,-232.5 1487.5,-253.5 1538.5,-253.5 1538.5,-232.5 1487.5,-232.5"/>
<text text-anchor="middle" x="1513" y="-240.5" font-family="Helvetica,sans-Serif" font-size="10.00">TH1D.h</text>
</g>
<!-- Node17&#45;&gt;Node25 -->
<g id="edge60" class="edge"><title>Node17&#45;&gt;Node25</title>
<path fill="none" stroke="midnightblue" d="M1513,-290.362C1513,-282.922 1513,-272.743 1513,-263.728"/>
<polygon fill="midnightblue" stroke="midnightblue" points="1516.5,-263.571 1513,-253.571 1509.5,-263.571 1516.5,-263.571"/>
</g>
<!-- Node26 -->
<g id="node57" class="node"><title>Node26</title>
<polygon fill="white" stroke="#bfbfbf" points="1555.5,-232.5 1555.5,-253.5 1606.5,-253.5 1606.5,-232.5 1555.5,-232.5"/>
<text text-anchor="middle" x="1581" y="-240.5" font-family="Helvetica,sans-Serif" font-size="10.00">TH2D.h</text>
</g>
<!-- Node17&#45;&gt;Node26 -->
<g id="edge62" class="edge"><title>Node17&#45;&gt;Node26</title>
<path fill="none" stroke="midnightblue" d="M1525.47,-290.362C1535.35,-281.941 1549.33,-270.011 1560.8,-260.231"/>
<polygon fill="midnightblue" stroke="midnightblue" points="1563.27,-262.723 1568.61,-253.571 1558.73,-257.397 1563.27,-262.723"/>
</g>
<!-- Node27 -->
<g id="node59" class="node"><title>Node27</title>
<polygon fill="white" stroke="#bfbfbf" points="1343.5,-232.5 1343.5,-253.5 1394.5,-253.5 1394.5,-232.5 1343.5,-232.5"/>
<text text-anchor="middle" x="1369" y="-240.5" font-family="Helvetica,sans-Serif" font-size="10.00">TH3D.h</text>
</g>
<!-- Node17&#45;&gt;Node27 -->
<g id="edge64" class="edge"><title>Node17&#45;&gt;Node27</title>
<path fill="none" stroke="midnightblue" d="M1486.92,-290.497C1463.78,-281.176 1429.78,-267.48 1404.22,-257.187"/>
<polygon fill="midnightblue" stroke="midnightblue" points="1405.47,-253.915 1394.88,-253.425 1402.85,-260.408 1405.47,-253.915"/>
</g>
<!-- Node28 -->
<g id="node63" class="node"><title>Node28</title>
<polygon fill="white" stroke="#bfbfbf" points="1624,-232.5 1624,-253.5 1678,-253.5 1678,-232.5 1624,-232.5"/>
<text text-anchor="middle" x="1651" y="-240.5" font-family="Helvetica,sans-Serif" font-size="10.00">iostream</text>
</g>
<!-- Node17&#45;&gt;Node28 -->
<g id="edge70" class="edge"><title>Node17&#45;&gt;Node28</title>
<path fill="none" stroke="midnightblue" d="M1537.99,-290.497C1559.93,-281.275 1592.07,-267.769 1616.46,-257.515"/>
<polygon fill="midnightblue" stroke="midnightblue" points="1617.87,-260.722 1625.73,-253.621 1615.15,-254.269 1617.87,-260.722"/>
</g>
<!-- Node29 -->
<g id="node65" class="node"><title>Node29</title>
<polygon fill="white" stroke="#bfbfbf" points="1411.5,-232.5 1411.5,-253.5 1470.5,-253.5 1470.5,-232.5 1411.5,-232.5"/>
<text text-anchor="middle" x="1441" y="-240.5" font-family="Helvetica,sans-Serif" font-size="10.00">exception</text>
</g>
<!-- Node17&#45;&gt;Node29 -->
<g id="edge72" class="edge"><title>Node17&#45;&gt;Node29</title>
<path fill="none" stroke="midnightblue" d="M1499.79,-290.362C1489.24,-281.859 1474.24,-269.779 1462.04,-259.947"/>
<polygon fill="midnightblue" stroke="midnightblue" points="1464.11,-257.118 1454.12,-253.571 1459.71,-262.57 1464.11,-257.118"/>
</g>
<!-- Node18&#45;&gt;Node8 -->
<g id="edge44" class="edge"><title>Node18&#45;&gt;Node8</title>
<path fill="none" stroke="midnightblue" d="M2077.89,-235.244C2072.58,-234.109 2067.15,-232.991 2062,-232 1963.55,-213.055 1786.44,-256.09 1844,-174 1902.7,-90.2875 2231.29,-32.3697 2335.97,-15.8362"/>
<polygon fill="midnightblue" stroke="midnightblue" points="2336.6,-19.2801 2345.94,-14.2798 2335.52,-12.3638 2336.6,-19.2801"/>
</g>
<!-- Node18&#45;&gt;Node9 -->
<g id="edge40" class="edge"><title>Node18&#45;&gt;Node9</title>
<path fill="none" stroke="midnightblue" d="M2077.9,-235.199C2072.59,-234.071 2067.15,-232.966 2062,-232 1959.44,-212.781 1932.28,-216.675 1830,-196 1790.48,-188.012 1781.92,-179.654 1742,-174 1633.23,-158.595 846.094,-197.882 754,-138 734.789,-125.509 710.606,-63.6359 698.933,-31.0918"/>
<polygon fill="midnightblue" stroke="midnightblue" points="702.232,-29.9222 695.605,-21.6558 695.63,-32.2506 702.232,-29.9222"/>
</g>
<!-- Node18&#45;&gt;Node19 -->
<g id="edge42" class="edge"><title>Node18&#45;&gt;Node19</title>
<path fill="none" stroke="midnightblue" d="M2077.96,-234.961C2073.28,-233.925 2068.53,-232.91 2064,-232 2018.01,-222.757 1886.21,-231.887 1856,-196 1814.35,-146.52 1944.94,-132.164 2001.85,-128.31"/>
<polygon fill="midnightblue" stroke="midnightblue" points="2002.41,-131.782 2012.18,-127.672 2001.98,-124.795 2002.41,-131.782"/>
</g>
<!-- Node18&#45;&gt;Node20 -->
<g id="edge46" class="edge"><title>Node18&#45;&gt;Node20</title>
<path fill="none" stroke="midnightblue" d="M2077.75,-234.658C2073.14,-233.681 2068.47,-232.763 2064,-232 1924.23,-208.126 1885.16,-227.916 1747,-196 1745.91,-195.749 1744.82,-195.473 1743.71,-195.176"/>
<polygon fill="midnightblue" stroke="midnightblue" points="1744.41,-191.73 1733.83,-192.105 1742.34,-198.415 1744.41,-191.73"/>
</g>
<!-- Node18&#45;&gt;Node21 -->
<g id="edge48" class="edge"><title>Node18&#45;&gt;Node21</title>
<path fill="none" stroke="midnightblue" d="M2077.76,-240.953C1928.12,-232.005 1332.17,-196.371 1178.37,-187.175"/>
<polygon fill="midnightblue" stroke="midnightblue" points="1178.26,-183.662 1168.07,-186.559 1177.85,-190.65 1178.26,-183.662"/>
</g>
<!-- Node18&#45;&gt;Node22 -->
<g id="edge50" class="edge"><title>Node18&#45;&gt;Node22</title>
<path fill="none" stroke="midnightblue" d="M2077.94,-233.938C2038.77,-223.518 1974.6,-206.443 1933.34,-195.466"/>
<polygon fill="midnightblue" stroke="midnightblue" points="1934.19,-192.071 1923.63,-192.882 1932.39,-198.836 1934.19,-192.071"/>
</g>
<!-- Node23 -->
<g id="node49" class="node"><title>Node23</title>
<polygon fill="white" stroke="#bfbfbf" points="3562,-116.5 3562,-137.5 3618,-137.5 3618,-116.5 3562,-116.5"/>
<text text-anchor="middle" x="3590" y="-124.5" font-family="Helvetica,sans-Serif" font-size="10.00">Rtypes.h</text>
</g>
<!-- Node18&#45;&gt;Node23 -->
<g id="edge52" class="edge"><title>Node18&#45;&gt;Node23</title>
<path fill="none" stroke="midnightblue" d="M2146.29,-240.431C2178.09,-238.088 2226.73,-234.605 2269,-232 2569.74,-213.47 2645.65,-220.059 2946,-196 3176.35,-177.549 3451.89,-144.255 3551.61,-131.84"/>
<polygon fill="midnightblue" stroke="midnightblue" points="3552.31,-135.28 3561.8,-130.568 3551.45,-128.333 3552.31,-135.28"/>
</g>
<!-- Node24&#45;&gt;Node19 -->
<g id="edge58" class="edge"><title>Node24&#45;&gt;Node19</title>
<path fill="none" stroke="midnightblue" d="M1326.82,-232.794C1408.71,-218.927 1560.33,-193.615 1690,-174 1806.63,-156.356 1946.36,-137.641 2002.19,-130.261"/>
<polygon fill="midnightblue" stroke="midnightblue" points="2002.74,-133.718 2012.2,-128.94 2001.83,-126.778 2002.74,-133.718"/>
</g>
<!-- Node24&#45;&gt;Node21 -->
<g id="edge56" class="edge"><title>Node24&#45;&gt;Node21</title>
<path fill="none" stroke="midnightblue" d="M1244.36,-232.497C1224.75,-223.397 1196.15,-210.127 1174.17,-199.925"/>
<polygon fill="midnightblue" stroke="midnightblue" points="1175.43,-196.655 1164.89,-195.621 1172.49,-203.005 1175.43,-196.655"/>
</g>
<!-- Node30&#45;&gt;Node8 -->
<g id="edge144" class="edge"><title>Node30&#45;&gt;Node8</title>
<path fill="none" stroke="midnightblue" d="M2649.41,-290.487C2667.6,-276.759 2693.66,-252.109 2679,-232 2648.2,-189.748 2612.11,-222.431 2567,-196 2525.9,-171.918 2425.77,-70.6724 2385.35,-29.0178"/>
<polygon fill="midnightblue" stroke="midnightblue" points="2387.78,-26.4953 2378.31,-21.7432 2382.75,-31.3633 2387.78,-26.4953"/>
</g>
<!-- Node30&#45;&gt;Node13 -->
<g id="edge116" class="edge"><title>Node30&#45;&gt;Node13</title>
<path fill="none" stroke="midnightblue" d="M2693.54,-294.123C2748.57,-286.941 2832.27,-273.911 2903,-254 2970.61,-234.969 2987.51,-228.067 3050,-196 3092.34,-174.273 3104.99,-170.232 3140,-138 3156.04,-123.229 3170.85,-103.172 3180.71,-88.4905"/>
<polygon fill="midnightblue" stroke="midnightblue" points="3183.89,-90.0131 3186.44,-79.7279 3178.04,-86.1825 3183.89,-90.0131"/>
</g>
<!-- Node30&#45;&gt;Node15 -->
<g id="edge118" class="edge"><title>Node30&#45;&gt;Node15</title>
<path fill="none" stroke="midnightblue" d="M2693.64,-298.782C2827.13,-293.406 3141.56,-278.306 3183,-254 3224.53,-229.642 3250.29,-176.345 3261.85,-147.134"/>
<polygon fill="midnightblue" stroke="midnightblue" points="3265.2,-148.151 3265.46,-137.56 3258.66,-145.678 3265.2,-148.151"/>
</g>
<!-- Node30&#45;&gt;Node19 -->
<g id="edge146" class="edge"><title>Node30&#45;&gt;Node19</title>
<path fill="none" stroke="midnightblue" d="M2607.99,-290.483C2585.56,-281.27 2552.39,-267.31 2524,-254 2504.56,-244.888 2501.36,-238.813 2481,-232 2392.86,-202.502 2365.66,-216.481 2275,-196 2231.48,-186.167 2104.96,-149.691 2051.4,-134.12"/>
<polygon fill="midnightblue" stroke="midnightblue" points="2052.29,-130.733 2041.71,-131.298 2050.33,-137.454 2052.29,-130.733"/>
</g>
<!-- Node30&#45;&gt;Node21 -->
<g id="edge150" class="edge"><title>Node30&#45;&gt;Node21</title>
<path fill="none" stroke="midnightblue" d="M2574.22,-299.343C2385.66,-293.915 1811.01,-275.761 1730,-254 1709.27,-248.431 1707.66,-237.828 1687,-232 1486.65,-175.488 1426.95,-218.546 1220,-196 1206.38,-194.516 1191.47,-192.508 1178.36,-190.614"/>
<polygon fill="midnightblue" stroke="midnightblue" points="1178.71,-187.127 1168.3,-189.132 1177.69,-194.052 1178.71,-187.127"/>
</g>
<!-- Node30&#45;&gt;Node28 -->
<g id="edge148" class="edge"><title>Node30&#45;&gt;Node28</title>
<path fill="none" stroke="midnightblue" d="M2574.33,-299.679C2395.07,-295.45 1863.16,-280.917 1692,-254 1690.73,-253.8 1689.44,-253.577 1688.15,-253.334"/>
<polygon fill="midnightblue" stroke="midnightblue" points="1688.69,-249.87 1678.17,-251.154 1687.2,-256.708 1688.69,-249.87"/>
</g>
<!-- Node31 -->
<g id="node69" class="node"><title>Node31</title>
<a xlink:href="_candidate_8h.html" target="_top" xlink:title="analysis/data/Candidate.h">
<polygon fill="white" stroke="black" points="2764,-232.5 2764,-253.5 2894,-253.5 2894,-232.5 2764,-232.5"/>
<text text-anchor="middle" x="2829" y="-240.5" font-family="Helvetica,sans-Serif" font-size="10.00">analysis/data/Candidate.h</text>
</a>
</g>
<!-- Node30&#45;&gt;Node31 -->
<g id="edge76" class="edge"><title>Node30&#45;&gt;Node31</title>
<path fill="none" stroke="midnightblue" d="M2669.31,-290.497C2701.38,-280.959 2748.85,-266.841 2783.7,-256.475"/>
<polygon fill="midnightblue" stroke="midnightblue" points="2785.03,-259.729 2793.62,-253.523 2783.04,-253.019 2785.03,-259.729"/>
</g>
<!-- Node38 -->
<g id="node98" class="node"><title>Node38</title>
<a xlink:href="_particle_type_8h.html" target="_top" xlink:title="base/ParticleType.h">
<polygon fill="white" stroke="black" points="2566,-232.5 2566,-253.5 2670,-253.5 2670,-232.5 2566,-232.5"/>
<text text-anchor="middle" x="2618" y="-240.5" font-family="Helvetica,sans-Serif" font-size="10.00">base/ParticleType.h</text>
</a>
</g>
<!-- Node30&#45;&gt;Node38 -->
<g id="edge120" class="edge"><title>Node30&#45;&gt;Node38</title>
<path fill="none" stroke="midnightblue" d="M2631.07,-290.362C2628.99,-282.84 2626.14,-272.519 2623.64,-263.431"/>
<polygon fill="midnightblue" stroke="midnightblue" points="2626.95,-262.28 2620.92,-253.571 2620.2,-264.141 2626.95,-262.28"/>
</g>
<!-- Node40 -->
<g id="node107" class="node"><title>Node40</title>
<a xlink:href="_tree_8h.html" target="_top" xlink:title="base/Tree.h">
<polygon fill="white" stroke="black" points="2404,-232.5 2404,-253.5 2472,-253.5 2472,-232.5 2404,-232.5"/>
<text text-anchor="middle" x="2438" y="-240.5" font-family="Helvetica,sans-Serif" font-size="10.00">base/Tree.h</text>
</a>
</g>
<!-- Node30&#45;&gt;Node40 -->
<g id="edge134" class="edge"><title>Node30&#45;&gt;Node40</title>
<path fill="none" stroke="midnightblue" d="M2598.51,-290.497C2565.87,-280.84 2517.37,-266.488 2482.23,-256.089"/>
<polygon fill="midnightblue" stroke="midnightblue" points="2482.83,-252.615 2472.24,-253.134 2480.84,-259.327 2482.83,-252.615"/>
</g>
<!-- Node41 -->
<g id="node112" class="node"><title>Node41</title>
<polygon fill="white" stroke="#bfbfbf" points="3373,-174.5 3373,-195.5 3465,-195.5 3465,-174.5 3373,-174.5"/>
<text text-anchor="middle" x="3419" y="-182.5" font-family="Helvetica,sans-Serif" font-size="10.00">TLorentzVector.h</text>
</g>
<!-- Node30&#45;&gt;Node41 -->
<g id="edge142" class="edge"><title>Node30&#45;&gt;Node41</title>
<path fill="none" stroke="midnightblue" d="M2693.56,-299.491C2854.68,-295.071 3290.96,-280.753 3350,-254 3373.83,-243.203 3394.01,-220.329 3406.28,-203.874"/>
<polygon fill="midnightblue" stroke="midnightblue" points="3409.29,-205.682 3412.26,-195.511 3403.6,-201.613 3409.29,-205.682"/>
</g>
<!-- Node31&#45;&gt;Node8 -->
<g id="edge114" class="edge"><title>Node31&#45;&gt;Node8</title>
<path fill="none" stroke="midnightblue" d="M2826.87,-232.271C2819.76,-199.564 2793.53,-100.742 2729,-58 2675.4,-22.4995 2479.03,-13.7409 2400.63,-11.6408"/>
<polygon fill="midnightblue" stroke="midnightblue" points="2400.47,-8.13564 2390.38,-11.3865 2400.29,-15.1335 2400.47,-8.13564"/>
</g>
<!-- Node31&#45;&gt;Node13 -->
<g id="edge78" class="edge"><title>Node31&#45;&gt;Node13</title>
<path fill="none" stroke="midnightblue" d="M2894.15,-233.027C2931.31,-225.806 2978.1,-214.077 3017,-196 3079.78,-166.825 3143.1,-114.113 3173.85,-86.6755"/>
<polygon fill="midnightblue" stroke="midnightblue" points="3176.55,-88.9476 3181.63,-79.6475 3171.86,-83.7527 3176.55,-88.9476"/>
</g>
<!-- Node31&#45;&gt;Node14 -->
<g id="edge110" class="edge"><title>Node31&#45;&gt;Node14</title>
<path fill="none" stroke="midnightblue" d="M2877.09,-232.478C2900.22,-225.39 2926.98,-213.957 2946,-196 2995.33,-149.433 3019.5,-69.2764 3028.57,-31.6449"/>
<polygon fill="midnightblue" stroke="midnightblue" points="3032,-32.3469 3030.83,-21.8171 3025.18,-30.7798 3032,-32.3469"/>
</g>
<!-- Node31&#45;&gt;Node15 -->
<g id="edge80" class="edge"><title>Node31&#45;&gt;Node15</title>
<path fill="none" stroke="midnightblue" d="M2894.25,-238.691C2956.34,-233.235 3051.77,-221.295 3131,-196 3172.32,-182.81 3216.57,-158.704 3243.52,-142.766"/>
<polygon fill="midnightblue" stroke="midnightblue" points="3245.52,-145.646 3252.3,-137.5 3241.92,-139.643 3245.52,-145.646"/>
</g>
<!-- Node31&#45;&gt;Node21 -->
<g id="edge112" class="edge"><title>Node31&#45;&gt;Node21</title>
<path fill="none" stroke="midnightblue" d="M2763.69,-237.603C2737.4,-235.588 2706.77,-233.442 2679,-232 2079.99,-200.892 1348.5,-188.185 1178.49,-185.541"/>
<polygon fill="midnightblue" stroke="midnightblue" points="1178.38,-182.04 1168.33,-185.385 1178.28,-189.039 1178.38,-182.04"/>
</g>
<!-- Node32 -->
<g id="node73" class="node"><title>Node32</title>
<a xlink:href="_detector__t_8h.html" target="_top" xlink:title="base/Detector_t.h">
<polygon fill="white" stroke="black" points="987.5,-116.5 987.5,-137.5 1082.5,-137.5 1082.5,-116.5 987.5,-116.5"/>
<text text-anchor="middle" x="1035" y="-124.5" font-family="Helvetica,sans-Serif" font-size="10.00">base/Detector_t.h</text>
</a>
</g>
<!-- Node31&#45;&gt;Node32 -->
<g id="edge82" class="edge"><title>Node31&#45;&gt;Node32</title>
<path fill="none" stroke="midnightblue" d="M2763.98,-237.476C2693.64,-230.746 2578.48,-217.529 2481,-196 2448.74,-188.876 2442.57,-179.502 2410,-174 2279.03,-151.88 1337.62,-132.717 1092.98,-128.072"/>
<polygon fill="midnightblue" stroke="midnightblue" points="1092.93,-124.57 1082.87,-127.88 1092.8,-131.569 1092.93,-124.57"/>
</g>
<!-- Node33 -->
<g id="node76" class="node"><title>Node33</title>
<polygon fill="white" stroke="#bfbfbf" points="2655.5,-58.5 2655.5,-79.5 2720.5,-79.5 2720.5,-58.5 2655.5,-58.5"/>
<text text-anchor="middle" x="2688" y="-66.5" font-family="Helvetica,sans-Serif" font-size="10.00">TVector3.h</text>
</g>
<!-- Node31&#45;&gt;Node33 -->
<g id="edge108" class="edge"><title>Node31&#45;&gt;Node33</title>
<path fill="none" stroke="midnightblue" d="M2820.39,-232.377C2797.14,-203.688 2732.85,-124.348 2703.26,-87.8354"/>
<polygon fill="midnightblue" stroke="midnightblue" points="2705.87,-85.4935 2696.86,-79.9277 2700.43,-89.9006 2705.87,-85.4935"/>
</g>
<!-- Node36 -->
<g id="node85" class="node"><title>Node36</title>
<a xlink:href="_cluster_8h.html" target="_top" xlink:title="analysis/data/Cluster.h">
<polygon fill="white" stroke="black" points="2608.5,-174.5 2608.5,-195.5 2725.5,-195.5 2725.5,-174.5 2608.5,-174.5"/>
<text text-anchor="middle" x="2667" y="-182.5" font-family="Helvetica,sans-Serif" font-size="10.00">analysis/data/Cluster.h</text>
</a>
</g>
<!-- Node31&#45;&gt;Node36 -->
<g id="edge98" class="edge"><title>Node31&#45;&gt;Node36</title>
<path fill="none" stroke="midnightblue" d="M2799.66,-232.497C2773.48,-223.123 2734.94,-209.324 2706.14,-199.012"/>
<polygon fill="midnightblue" stroke="midnightblue" points="2706.99,-195.599 2696.39,-195.523 2704.63,-202.189 2706.99,-195.599"/>
</g>
<!-- Node32&#45;&gt;Node8 -->
<g id="edge96" class="edge"><title>Node32&#45;&gt;Node8</title>
<path fill="none" stroke="midnightblue" d="M1035.04,-116.488C1035.74,-100.835 1039.6,-71.7696 1058,-58 1110.73,-18.5424 2139.33,-12.0132 2335.75,-11.1249"/>
<polygon fill="midnightblue" stroke="midnightblue" points="2336,-14.6239 2345.98,-11.0803 2335.97,-7.62397 2336,-14.6239"/>
</g>
<!-- Node32&#45;&gt;Node9 -->
<g id="edge92" class="edge"><title>Node32&#45;&gt;Node9</title>
<path fill="none" stroke="midnightblue" d="M1030.06,-116.312C1022.25,-100.705 1005.47,-72.0153 982,-58 938.546,-32.0565 788.191,-18.0918 722.788,-13.1243"/>
<polygon fill="midnightblue" stroke="midnightblue" points="722.919,-9.62456 712.688,-12.3779 722.403,-16.6055 722.919,-9.62456"/>
</g>
<!-- Node32&#45;&gt;Node12 -->
<g id="edge90" class="edge"><title>Node32&#45;&gt;Node12</title>
<path fill="none" stroke="midnightblue" d="M1082.52,-126.473C1282.71,-124.085 2077.05,-112.932 2729,-80 2766.44,-78.1087 2809.07,-74.879 2839.28,-72.407"/>
<polygon fill="midnightblue" stroke="midnightblue" points="2839.75,-75.8805 2849.43,-71.5676 2839.17,-68.9044 2839.75,-75.8805"/>
</g>
<!-- Node32&#45;&gt;Node13 -->
<g id="edge84" class="edge"><title>Node32&#45;&gt;Node13</title>
<path fill="none" stroke="midnightblue" d="M1082.64,-126.071C1296.15,-121.853 2186.49,-103.678 2917,-80 3000.35,-77.2983 3097.83,-73.191 3151.77,-70.8346"/>
<polygon fill="midnightblue" stroke="midnightblue" points="3152.12,-74.3225 3161.96,-70.3876 3151.82,-67.3292 3152.12,-74.3225"/>
</g>
<!-- Node32&#45;&gt;Node33 -->
<g id="edge86" class="edge"><title>Node32&#45;&gt;Node33</title>
<path fill="none" stroke="midnightblue" d="M1082.69,-125.327C1324.73,-116.834 2414.76,-78.5873 2645.15,-70.5036"/>
<polygon fill="midnightblue" stroke="midnightblue" points="2645.59,-73.9903 2655.46,-70.1417 2645.35,-66.9946 2645.59,-73.9903"/>
</g>
<!-- Node34 -->
<g id="node78" class="node"><title>Node34</title>
<polygon fill="white" stroke="#bfbfbf" points="927,-58.5 927,-79.5 973,-79.5 973,-58.5 927,-58.5"/>
<text text-anchor="middle" x="950" y="-66.5" font-family="Helvetica,sans-Serif" font-size="10.00">cstdint</text>
</g>
<!-- Node32&#45;&gt;Node34 -->
<g id="edge88" class="edge"><title>Node32&#45;&gt;Node34</title>
<path fill="none" stroke="midnightblue" d="M1019.41,-116.362C1006.71,-107.696 988.562,-95.3126 974.008,-85.3819"/>
<polygon fill="midnightblue" stroke="midnightblue" points="975.724,-82.316 965.491,-79.5707 971.779,-88.0982 975.724,-82.316"/>
</g>
<!-- Node35 -->
<g id="node82" class="node"><title>Node35</title>
<polygon fill="white" stroke="#bfbfbf" points="1067,-58.5 1067,-79.5 1129,-79.5 1129,-58.5 1067,-58.5"/>
<text text-anchor="middle" x="1098" y="-66.5" font-family="Helvetica,sans-Serif" font-size="10.00">type_traits</text>
</g>
<!-- Node32&#45;&gt;Node35 -->
<g id="edge94" class="edge"><title>Node32&#45;&gt;Node35</title>
<path fill="none" stroke="midnightblue" d="M1046.56,-116.362C1055.61,-108.023 1068.41,-96.2418 1078.97,-86.5162"/>
<polygon fill="midnightblue" stroke="midnightblue" points="1081.53,-88.9187 1086.52,-79.5707 1076.79,-83.7688 1081.53,-88.9187"/>
</g>
<!-- Node36&#45;&gt;Node19 -->
<g id="edge102" class="edge"><title>Node36&#45;&gt;Node19</title>
<path fill="none" stroke="midnightblue" d="M2608.5,-179.027C2591.86,-177.361 2573.72,-175.577 2557,-174 2362.4,-155.642 2127.41,-135.523 2051.74,-129.095"/>
<polygon fill="midnightblue" stroke="midnightblue" points="2052.02,-125.606 2041.76,-128.248 2051.43,-132.581 2052.02,-125.606"/>
</g>
<!-- Node36&#45;&gt;Node32 -->
<g id="edge100" class="edge"><title>Node36&#45;&gt;Node32</title>
<path fill="none" stroke="midnightblue" d="M2608.38,-181.133C2571.77,-178.818 2523.65,-175.954 2481,-174 1941.47,-149.282 1288.12,-132.929 1092.8,-128.327"/>
<polygon fill="midnightblue" stroke="midnightblue" points="1092.84,-124.827 1082.76,-128.091 1092.68,-131.825 1092.84,-124.827"/>
</g>
<!-- Node36&#45;&gt;Node33 -->
<g id="edge104" class="edge"><title>Node36&#45;&gt;Node33</title>
<path fill="none" stroke="midnightblue" d="M2668.94,-174.295C2672.41,-155.131 2679.74,-114.654 2684.23,-89.8434"/>
<polygon fill="midnightblue" stroke="midnightblue" points="2687.73,-90.1428 2686.07,-79.6792 2680.84,-88.8957 2687.73,-90.1428"/>
</g>
<!-- Node37 -->
<g id="node90" class="node"><title>Node37</title>
<a xlink:href="enumfield_8h.html" target="_top" xlink:title="base/enumfield.h">
<polygon fill="white" stroke="black" points="2569.5,-116.5 2569.5,-137.5 2660.5,-137.5 2660.5,-116.5 2569.5,-116.5"/>
<text text-anchor="middle" x="2615" y="-124.5" font-family="Helvetica,sans-Serif" font-size="10.00">base/enumfield.h</text>
</a>
</g>
<!-- Node36&#45;&gt;Node37 -->
<g id="edge106" class="edge"><title>Node36&#45;&gt;Node37</title>
<path fill="none" stroke="midnightblue" d="M2657.46,-174.362C2650.13,-166.186 2639.84,-154.702 2631.22,-145.091"/>
<polygon fill="midnightblue" stroke="midnightblue" points="2633.76,-142.68 2624.48,-137.571 2628.55,-147.353 2633.76,-142.68"/>
</g>
<!-- Node38&#45;&gt;Node8 -->
<g id="edge132" class="edge"><title>Node38&#45;&gt;Node8</title>
<path fill="none" stroke="midnightblue" d="M2568.53,-232.475C2543.39,-225.303 2513.5,-213.794 2491,-196 2432.94,-150.069 2392.79,-69.0062 2376.34,-31.3198"/>
<polygon fill="midnightblue" stroke="midnightblue" points="2379.47,-29.736 2372.33,-21.9058 2373.03,-32.4777 2379.47,-29.736"/>
</g>
<!-- Node38&#45;&gt;Node9 -->
<g id="edge124" class="edge"><title>Node38&#45;&gt;Node9</title>
<path fill="none" stroke="midnightblue" d="M2565.89,-234.321C2489.88,-221.614 2356.46,-199.113 2346,-196 2322.34,-188.96 2318.43,-181.762 2295,-174 2188.78,-138.816 2160.56,-133.254 2050,-116 1523.47,-33.8299 871.578,-14.9607 723.075,-11.6211"/>
<polygon fill="midnightblue" stroke="midnightblue" points="722.956,-8.11772 712.882,-11.3988 722.803,-15.1161 722.956,-8.11772"/>
</g>
<!-- Node38&#45;&gt;Node14 -->
<g id="edge126" class="edge"><title>Node38&#45;&gt;Node14</title>
<path fill="none" stroke="midnightblue" d="M2658.27,-232.444C2681.92,-224.906 2711.48,-213.053 2734,-196 2795.87,-149.148 2775.9,-100.25 2841,-58 2866.48,-41.4651 2948.52,-25.3254 2996.72,-16.9398"/>
<polygon fill="midnightblue" stroke="midnightblue" points="2997.48,-20.3603 3006.75,-15.2221 2996.3,-13.4607 2997.48,-20.3603"/>
</g>
<!-- Node38&#45;&gt;Node15 -->
<g id="edge122" class="edge"><title>Node38&#45;&gt;Node15</title>
<path fill="none" stroke="midnightblue" d="M2670.28,-237.921C2740.73,-230.682 2869.9,-216.025 2979,-196 3072.25,-178.884 3180.54,-150.931 3234.6,-136.415"/>
<polygon fill="midnightblue" stroke="midnightblue" points="3235.61,-139.767 3244.36,-133.783 3233.79,-133.009 3235.61,-139.767"/>
</g>
<!-- Node38&#45;&gt;Node20 -->
<g id="edge128" class="edge"><title>Node38&#45;&gt;Node20</title>
<path fill="none" stroke="midnightblue" d="M2565.98,-238.545C2540.39,-236.425 2509.09,-233.936 2481,-232 2203.42,-212.864 2133.6,-214.898 1856,-196 1817.13,-193.354 1772.24,-189.726 1743.99,-187.372"/>
<polygon fill="midnightblue" stroke="midnightblue" points="1743.93,-183.855 1733.67,-186.507 1743.34,-190.83 1743.93,-183.855"/>
</g>
<!-- Node39 -->
<g id="node104" class="node"><title>Node39</title>
<polygon fill="white" stroke="#bfbfbf" points="2354.5,-174.5 2354.5,-195.5 2401.5,-195.5 2401.5,-174.5 2354.5,-174.5"/>
<text text-anchor="middle" x="2378" y="-182.5" font-family="Helvetica,sans-Serif" font-size="10.00">iterator</text>
</g>
<!-- Node38&#45;&gt;Node39 -->
<g id="edge130" class="edge"><title>Node38&#45;&gt;Node39</title>
<path fill="none" stroke="midnightblue" d="M2568.57,-232.446C2527.33,-223.429 2467.11,-209.766 2415,-196 2413.93,-195.718 2412.85,-195.426 2411.75,-195.127"/>
<polygon fill="midnightblue" stroke="midnightblue" points="2412.4,-191.673 2401.82,-192.317 2410.49,-198.408 2412.4,-191.673"/>
</g>
<!-- Node40&#45;&gt;Node11 -->
<g id="edge140" class="edge"><title>Node40&#45;&gt;Node11</title>
<path fill="none" stroke="midnightblue" d="M2472.12,-239.843C2586.02,-229.305 2946,-196 2946,-196 3019.55,-158.033 3073.47,-70.214 3094.86,-30.7879"/>
<polygon fill="midnightblue" stroke="midnightblue" points="3098,-32.3411 3099.59,-21.8667 3091.82,-29.0615 3098,-32.3411"/>
</g>
<!-- Node40&#45;&gt;Node19 -->
<g id="edge138" class="edge"><title>Node40&#45;&gt;Node19</title>
<path fill="none" stroke="midnightblue" d="M2403.95,-235.024C2399.27,-233.978 2394.52,-232.943 2390,-232 2305.44,-214.349 2281.32,-222.19 2199,-196 2176.64,-188.885 2172.65,-183.053 2151,-174 2116.65,-159.638 2076.22,-144.665 2051.09,-135.585"/>
<polygon fill="midnightblue" stroke="midnightblue" points="2052.23,-132.275 2041.63,-132.184 2049.86,-138.862 2052.23,-132.275"/>
</g>
<!-- Node40&#45;&gt;Node21 -->
<g id="edge136" class="edge"><title>Node40&#45;&gt;Node21</title>
<path fill="none" stroke="midnightblue" d="M2403.79,-237.611C2389.38,-235.535 2372.41,-233.341 2357,-232 2119.22,-211.304 1353.5,-190.498 1178.05,-185.925"/>
<polygon fill="midnightblue" stroke="midnightblue" points="1178.13,-182.426 1168.05,-185.665 1177.95,-189.424 1178.13,-182.426"/>
</g>
<!-- Node42&#45;&gt;Node8 -->
<g id="edge228" class="edge"><title>Node42&#45;&gt;Node8</title>
<path fill="none" stroke="midnightblue" d="M3100.34,-355.329C3088.39,-309.878 3035.02,-131.411 2917,-58 2873.08,-30.6781 2511.46,-15.9732 2400.35,-12.0693"/>
<polygon fill="midnightblue" stroke="midnightblue" points="2400.22,-8.56277 2390.1,-11.7151 2399.98,-15.5586 2400.22,-8.56277"/>
</g>
<!-- Node42&#45;&gt;Node13 -->
<g id="edge224" class="edge"><title>Node42&#45;&gt;Node13</title>
<path fill="none" stroke="midnightblue" d="M3158.73,-361.392C3258.53,-352.665 3459.65,-332.735 3484,-312 3504.55,-294.502 3495.69,-280.244 3502,-254 3510.37,-219.16 3528.82,-205.637 3512,-174 3490.35,-133.295 3468.53,-133.792 3426,-116 3362.16,-89.2942 3281.98,-77.4084 3234.26,-72.3861"/>
<polygon fill="midnightblue" stroke="midnightblue" points="3234.59,-68.9025 3224.29,-71.3883 3233.9,-75.8677 3234.59,-68.9025"/>
</g>
<!-- Node42&#45;&gt;Node15 -->
<g id="edge222" class="edge"><title>Node42&#45;&gt;Node15</title>
<path fill="none" stroke="midnightblue" d="M3158.79,-364.047C3246.58,-359.915 3411.68,-347.529 3457,-312 3506.88,-272.891 3532.95,-223.208 3493,-174 3469.59,-145.165 3360.91,-133.38 3303.99,-129.12"/>
<polygon fill="midnightblue" stroke="midnightblue" points="3303.89,-125.604 3293.66,-128.388 3303.39,-132.587 3303.89,-125.604"/>
</g>
<!-- Node42&#45;&gt;Node20 -->
<g id="edge232" class="edge"><title>Node42&#45;&gt;Node20</title>
<path fill="none" stroke="midnightblue" d="M3047.04,-361.18C2920.24,-350.214 2614.09,-323.461 2511,-312 2314.08,-290.108 2258.18,-312.871 2069,-254 2048.5,-247.621 2046.5,-238.357 2026,-232 1906.58,-194.978 1868.6,-225.069 1747,-196 1745.75,-195.701 1744.48,-195.37 1743.2,-195.014"/>
<polygon fill="midnightblue" stroke="midnightblue" points="1744.1,-191.627 1733.51,-191.943 1741.99,-198.3 1744.1,-191.627"/>
</g>
<!-- Node42&#45;&gt;Node21 -->
<g id="edge230" class="edge"><title>Node42&#45;&gt;Node21</title>
<path fill="none" stroke="midnightblue" d="M3047.19,-360.405C3004.04,-356.298 2942.79,-350.942 2889,-348 2259.07,-313.547 2097.18,-380.109 1470,-312 1334.99,-297.339 1274.9,-340.248 1170,-254 1155.54,-242.108 1148.48,-221.584 1145.07,-206.003"/>
<polygon fill="midnightblue" stroke="midnightblue" points="1148.43,-204.929 1143.19,-195.726 1141.55,-206.193 1148.43,-204.929"/>
</g>
<!-- Node42&#45;&gt;Node30 -->
<g id="edge156" class="edge"><title>Node42&#45;&gt;Node30</title>
<path fill="none" stroke="midnightblue" d="M3047.36,-358.288C2961.56,-346.397 2797.1,-323.604 2703.56,-310.641"/>
<polygon fill="midnightblue" stroke="midnightblue" points="2704.01,-307.17 2693.63,-309.264 2703.05,-314.104 2704.01,-307.17"/>
</g>
<!-- Node42&#45;&gt;Node31 -->
<g id="edge158" class="edge"><title>Node42&#45;&gt;Node31</title>
<path fill="none" stroke="midnightblue" d="M3079.16,-355.3C3030.16,-333.3 2918,-282.954 2862.03,-257.829"/>
<polygon fill="midnightblue" stroke="midnightblue" points="2863.14,-254.49 2852.59,-253.588 2860.28,-260.876 2863.14,-254.49"/>
</g>
<!-- Node42&#45;&gt;Node40 -->
<g id="edge226" class="edge"><title>Node42&#45;&gt;Node40</title>
<path fill="none" stroke="midnightblue" d="M3047.38,-360.999C2914.68,-348.987 2588.79,-318.982 2566,-312 2526.87,-300.012 2485.98,-275.542 2461.24,-259.203"/>
<polygon fill="midnightblue" stroke="midnightblue" points="2463.14,-256.264 2452.89,-253.589 2459.24,-262.073 2463.14,-256.264"/>
</g>
<!-- Node43 -->
<g id="node123" class="node"><title>Node43</title>
<a xlink:href="_tagger_hit_8h.html" target="_top" xlink:title="TaggerHit.h">
<polygon fill="white" stroke="black" points="3273,-232.5 3273,-253.5 3341,-253.5 3341,-232.5 3273,-232.5"/>
<text text-anchor="middle" x="3307" y="-240.5" font-family="Helvetica,sans-Serif" font-size="10.00">TaggerHit.h</text>
</a>
</g>
<!-- Node42&#45;&gt;Node43 -->
<g id="edge160" class="edge"><title>Node42&#45;&gt;Node43</title>
<path fill="none" stroke="midnightblue" d="M3158.69,-355.703C3190.45,-347.752 3229.64,-334.233 3259,-312 3276.08,-299.065 3289.36,-278.268 3297.58,-262.883"/>
<polygon fill="midnightblue" stroke="midnightblue" points="3300.84,-264.194 3302.24,-253.692 3294.59,-261.029 3300.84,-264.194"/>
</g>
<!-- Node44 -->
<g id="node130" class="node"><title>Node44</title>
<a xlink:href="_trigger_info_8h.html" target="_top" xlink:title="TriggerInfo.h">
<polygon fill="white" stroke="black" points="3377.5,-290.5 3377.5,-311.5 3448.5,-311.5 3448.5,-290.5 3377.5,-290.5"/>
<text text-anchor="middle" x="3413" y="-298.5" font-family="Helvetica,sans-Serif" font-size="10.00">TriggerInfo.h</text>
</a>
</g>
<!-- Node42&#45;&gt;Node44 -->
<g id="edge172" class="edge"><title>Node42&#45;&gt;Node44</title>
<path fill="none" stroke="midnightblue" d="M3153.15,-355.484C3212.48,-343.045 3310.39,-322.516 3367.57,-310.525"/>
<polygon fill="midnightblue" stroke="midnightblue" points="3368.34,-313.939 3377.41,-308.462 3366.91,-307.088 3368.34,-313.939"/>
</g>
<!-- Node43&#45;&gt;Node13 -->
<g id="edge168" class="edge"><title>Node43&#45;&gt;Node13</title>
<path fill="none" stroke="midnightblue" d="M3310.06,-232.3C3316.09,-208.863 3326.85,-152.203 3302,-116 3286.59,-93.5511 3258.05,-81.755 3234.04,-75.5954"/>
<polygon fill="midnightblue" stroke="midnightblue" points="3234.61,-72.1349 3224.08,-73.286 3233.03,-78.9541 3234.61,-72.1349"/>
</g>
<!-- Node43&#45;&gt;Node15 -->
<g id="edge166" class="edge"><title>Node43&#45;&gt;Node15</title>
<path fill="none" stroke="midnightblue" d="M3303.49,-232.295C3297.19,-213.045 3283.84,-172.289 3275.72,-147.509"/>
<polygon fill="midnightblue" stroke="midnightblue" points="3278.94,-146.093 3272.5,-137.679 3272.29,-148.272 3278.94,-146.093"/>
</g>
<!-- Node43&#45;&gt;Node19 -->
<g id="edge162" class="edge"><title>Node43&#45;&gt;Node19</title>
<path fill="none" stroke="midnightblue" d="M3272.65,-242.134C3170.09,-239.243 2857.24,-228.218 2600,-196 2546.63,-189.316 2534.24,-181.664 2481,-174 2317.92,-150.522 2120.26,-134.177 2051.77,-128.866"/>
<polygon fill="midnightblue" stroke="midnightblue" points="2051.8,-125.358 2041.56,-128.082 2051.26,-132.338 2051.8,-125.358"/>
</g>
<!-- Node43&#45;&gt;Node21 -->
<g id="edge164" class="edge"><title>Node43&#45;&gt;Node21</title>
<path fill="none" stroke="midnightblue" d="M3272.95,-242.067C3203.42,-240.162 3040.12,-235.697 2903,-232 2209.44,-213.303 1362.22,-190.835 1178.31,-185.962"/>
<polygon fill="midnightblue" stroke="midnightblue" points="1178.2,-182.458 1168.11,-185.692 1178.02,-189.455 1178.2,-182.458"/>
</g>
<!-- Node43&#45;&gt;Node41 -->
<g id="edge170" class="edge"><title>Node43&#45;&gt;Node41</title>
<path fill="none" stroke="midnightblue" d="M3327.28,-232.497C3344.62,-223.519 3369.79,-210.484 3389.38,-200.339"/>
<polygon fill="midnightblue" stroke="midnightblue" points="3391.22,-203.328 3398.49,-195.621 3388,-197.112 3391.22,-203.328"/>
</g>
<!-- Node44&#45;&gt;Node13 -->
<g id="edge176" class="edge"><title>Node44&#45;&gt;Node13</title>
<path fill="none" stroke="midnightblue" d="M3436.71,-290.426C3451.7,-282.519 3470.22,-270.272 3481,-254 3500.85,-224.026 3513.8,-203.323 3493,-174 3462.35,-130.802 3308.97,-93.3466 3234.16,-77.3127"/>
<polygon fill="midnightblue" stroke="midnightblue" points="3234.66,-73.8399 3224.15,-75.1941 3233.21,-80.6883 3234.66,-73.8399"/>
</g>
<!-- Node44&#45;&gt;Node15 -->
<g id="edge174" class="edge"><title>Node44&#45;&gt;Node15</title>
<path fill="none" stroke="midnightblue" d="M3425.62,-290.23C3451.18,-267.136 3504.18,-211.88 3474,-174 3453.14,-147.816 3356.99,-135.029 3304.1,-129.88"/>
<polygon fill="midnightblue" stroke="midnightblue" points="3304.11,-126.366 3293.83,-128.923 3303.46,-133.336 3304.11,-126.366"/>
</g>
<!-- Node44&#45;&gt;Node19 -->
<g id="edge218" class="edge"><title>Node44&#45;&gt;Node19</title>
<path fill="none" stroke="midnightblue" d="M3377.46,-299.982C3225.78,-295.51 2636.68,-276.813 2557,-254 2537.49,-248.415 2536.14,-238.742 2517,-232 2430.16,-201.404 2402.19,-218.824 2313,-196 2283.45,-188.439 2277.41,-182.075 2248,-174 2177.51,-154.647 2092.54,-138.565 2051.52,-131.247"/>
<polygon fill="midnightblue" stroke="midnightblue" points="2052.08,-127.79 2041.62,-129.498 2050.86,-134.684 2052.08,-127.79"/>
</g>
<!-- Node44&#45;&gt;Node21 -->
<g id="edge220" class="edge"><title>Node44&#45;&gt;Node21</title>
<path fill="none" stroke="midnightblue" d="M3377.39,-300.461C3144.31,-296.872 1843.54,-275.913 1763,-254 1743.42,-248.673 1742.46,-237.746 1723,-232 1508.05,-168.523 1442.87,-219.663 1220,-196 1206.37,-194.553 1191.46,-192.553 1178.36,-190.655"/>
<polygon fill="midnightblue" stroke="midnightblue" points="1178.71,-187.168 1168.3,-189.168 1177.68,-194.093 1178.71,-187.168"/>
</g>
<!-- Node44&#45;&gt;Node45 -->
<g id="edge178" class="edge"><title>Node44&#45;&gt;Node45</title>
<path fill="none" stroke="midnightblue" d="M3448.5,-295.066C3507.32,-285.235 3625.66,-265.454 3698.35,-253.304"/>
<polygon fill="midnightblue" stroke="midnightblue" points="3699.01,-256.743 3708.3,-251.642 3697.86,-249.839 3699.01,-256.743"/>
</g>
<!-- Node45&#45;&gt;Node23 -->
<g id="edge212" class="edge"><title>Node45&#45;&gt;Node23</title>
<path fill="none" stroke="midnightblue" d="M3744.6,-232.473C3724.8,-218.936 3689.35,-194.703 3659,-174 3644.12,-163.846 3627.42,-152.471 3614.17,-143.455"/>
<polygon fill="midnightblue" stroke="midnightblue" points="3615.86,-140.368 3605.62,-137.634 3611.92,-146.155 3615.86,-140.368"/>
</g>
<!-- Node46 -->
<g id="node136" class="node"><title>Node46</title>
<a xlink:href="_t_i_d_8h.html" target="_top" xlink:title="TID.h">
<polygon fill="white" stroke="black" points="3739.5,-174.5 3739.5,-195.5 3780.5,-195.5 3780.5,-174.5 3739.5,-174.5"/>
<text text-anchor="middle" x="3760" y="-182.5" font-family="Helvetica,sans-Serif" font-size="10.00">TID.h</text>
</a>
</g>
<!-- Node45&#45;&gt;Node46 -->
<g id="edge180" class="edge"><title>Node45&#45;&gt;Node46</title>
<path fill="none" stroke="midnightblue" d="M3760,-232.362C3760,-224.922 3760,-214.743 3760,-205.728"/>
<polygon fill="midnightblue" stroke="midnightblue" points="3763.5,-205.571 3760,-195.571 3756.5,-205.571 3763.5,-205.571"/>
</g>
<!-- Node51 -->
<g id="node150" class="node"><title>Node51</title>
<polygon fill="white" stroke="#bfbfbf" points="3953.5,-58.5 3953.5,-79.5 3994.5,-79.5 3994.5,-58.5 3953.5,-58.5"/>
<text text-anchor="middle" x="3974" y="-66.5" font-family="Helvetica,sans-Serif" font-size="10.00">ctime</text>
</g>
<!-- Node45&#45;&gt;Node51 -->
<g id="edge216" class="edge"><title>Node45&#45;&gt;Node51</title>
<path fill="none" stroke="midnightblue" d="M3811.8,-232.553C3889.98,-215.6 4032.11,-179.757 4061,-138 4079.41,-111.393 4036.29,-90.016 4004.4,-78.4474"/>
<polygon fill="midnightblue" stroke="midnightblue" points="4005.13,-74.9964 3994.53,-75.0418 4002.84,-81.6133 4005.13,-74.9964"/>
</g>
<!-- Node53 -->
<g id="node157" class="node"><title>Node53</title>
<polygon fill="white" stroke="#bfbfbf" points="4002,-116.5 4002,-137.5 4052,-137.5 4052,-116.5 4002,-116.5"/>
<text text-anchor="middle" x="4027" y="-124.5" font-family="Helvetica,sans-Serif" font-size="10.00">iomanip</text>
</g>
<!-- Node45&#45;&gt;Node53 -->
<g id="edge214" class="edge"><title>Node45&#45;&gt;Node53</title>
<path fill="none" stroke="midnightblue" d="M3784.64,-232.295C3832.75,-211.395 3939.2,-165.145 3993.59,-141.513"/>
<polygon fill="midnightblue" stroke="midnightblue" points="3995.03,-144.707 4002.81,-137.512 3992.24,-138.286 3995.03,-144.707"/>
</g>
<!-- Node46&#45;&gt;Node12 -->
<g id="edge206" class="edge"><title>Node46&#45;&gt;Node12</title>
<path fill="none" stroke="midnightblue" d="M3754.23,-174.482C3744.83,-158.541 3724.56,-128.767 3698,-116 3680.24,-107.463 3080.68,-78.5412 2918.89,-70.8769"/>
<polygon fill="midnightblue" stroke="midnightblue" points="2919.03,-67.3797 2908.88,-70.4032 2918.7,-74.3719 2919.03,-67.3797"/>
</g>
<!-- Node46&#45;&gt;Node13 -->
<g id="edge184" class="edge"><title>Node46&#45;&gt;Node13</title>
<path fill="none" stroke="midnightblue" d="M3759.69,-174.333C3758.61,-158.752 3754.12,-130.097 3736,-116 3696.67,-85.4016 3354.43,-73.3366 3234.39,-70.0218"/>
<polygon fill="midnightblue" stroke="midnightblue" points="3234.24,-66.5164 3224.15,-69.7453 3234.05,-73.5139 3234.24,-66.5164"/>
</g>
<!-- Node46&#45;&gt;Node23 -->
<g id="edge182" class="edge"><title>Node46&#45;&gt;Node23</title>
<path fill="none" stroke="midnightblue" d="M3739.49,-178.004C3711.93,-168.598 3662.4,-151.7 3627.94,-139.944"/>
<polygon fill="midnightblue" stroke="midnightblue" points="3628.8,-136.541 3618.21,-136.625 3626.54,-143.166 3628.8,-136.541"/>
</g>
<!-- Node46&#45;&gt;Node34 -->
<g id="edge204" class="edge"><title>Node46&#45;&gt;Node34</title>
<path fill="none" stroke="midnightblue" d="M3739.25,-176.326C3718.71,-167.489 3686.56,-152.988 3660,-138 3644.65,-129.338 3643.83,-121.226 3627,-116 3490.68,-73.6812 1200.5,-88.2394 1058,-80 1032.89,-78.5481 1004.61,-75.6207 983.289,-73.1506"/>
<polygon fill="midnightblue" stroke="midnightblue" points="983.47,-69.6476 973.127,-71.9472 982.646,-76.599 983.47,-69.6476"/>
</g>
<!-- Node46&#45;&gt;Node35 -->
<g id="edge200" class="edge"><title>Node46&#45;&gt;Node35</title>
<path fill="none" stroke="midnightblue" d="M3746.58,-174.266C3723.96,-156.437 3678.88,-122.07 3660,-116 3597.42,-95.8726 1464.99,-72.8322 1139.49,-69.4287"/>
<polygon fill="midnightblue" stroke="midnightblue" points="1139.14,-65.925 1129.1,-69.3204 1139.07,-72.9246 1139.14,-65.925"/>
</g>
<!-- Node47 -->
<g id="node140" class="node"><title>Node47</title>
<a xlink:href="time_8h.html" target="_top" xlink:title="base/std_ext/time.h">
<polygon fill="white" stroke="black" points="3843.5,-116.5 3843.5,-137.5 3946.5,-137.5 3946.5,-116.5 3843.5,-116.5"/>
<text text-anchor="middle" x="3895" y="-124.5" font-family="Helvetica,sans-Serif" font-size="10.00">base/std_ext/time.h</text>
</a>
</g>
<!-- Node46&#45;&gt;Node47 -->
<g id="edge186" class="edge"><title>Node46&#45;&gt;Node47</title>
<path fill="none" stroke="midnightblue" d="M3780.5,-176.191C3801.83,-167.03 3835.57,-152.534 3860.91,-141.646"/>
<polygon fill="midnightblue" stroke="midnightblue" points="3862.36,-144.832 3870.17,-137.669 3859.6,-138.4 3862.36,-144.832"/>
</g>
<!-- Node46&#45;&gt;Node51 -->
<g id="edge210" class="edge"><title>Node46&#45;&gt;Node51</title>
<path fill="none" stroke="midnightblue" d="M3780.66,-182.674C3825.56,-177.209 3930.05,-162.164 3955,-138 3967.93,-125.481 3972.31,-105.04 3973.68,-89.6485"/>
<polygon fill="midnightblue" stroke="midnightblue" points="3977.18,-89.6923 3974.22,-79.5195 3970.19,-89.3183 3977.18,-89.6923"/>
</g>
<!-- Node52 -->
<g id="node153" class="node"><title>Node52</title>
<polygon fill="white" stroke="#bfbfbf" points="3788,-116.5 3788,-137.5 3826,-137.5 3826,-116.5 3788,-116.5"/>
<text text-anchor="middle" x="3807" y="-124.5" font-family="Helvetica,sans-Serif" font-size="10.00">tuple</text>
</g>
<!-- Node46&#45;&gt;Node52 -->
<g id="edge202" class="edge"><title>Node46&#45;&gt;Node52</title>
<path fill="none" stroke="midnightblue" d="M3768.62,-174.362C3775.18,-166.268 3784.37,-154.932 3792.11,-145.38"/>
<polygon fill="midnightblue" stroke="midnightblue" points="3794.86,-147.544 3798.43,-137.571 3789.42,-143.136 3794.86,-147.544"/>
</g>
<!-- Node46&#45;&gt;Node53 -->
<g id="edge208" class="edge"><title>Node46&#45;&gt;Node53</title>
<path fill="none" stroke="midnightblue" d="M3780.55,-181.275C3820.64,-173.896 3912.02,-156.521 3988,-138 3989.27,-137.691 3990.56,-137.368 3991.86,-137.037"/>
<polygon fill="midnightblue" stroke="midnightblue" points="3993.13,-140.32 4001.89,-134.366 3991.33,-133.556 3993.13,-140.32"/>
</g>
<!-- Node48 -->
<g id="node142" class="node"><title>Node48</title>
<a xlink:href="string_8h.html" target="_top" xlink:title="base/std_ext/string.h">
<polygon fill="white" stroke="black" points="3567,-58.5 3567,-79.5 3675,-79.5 3675,-58.5 3567,-58.5"/>
<text text-anchor="middle" x="3621" y="-66.5" font-family="Helvetica,sans-Serif" font-size="10.00">base/std_ext/string.h</text>
</a>
</g>
<!-- Node47&#45;&gt;Node48 -->
<g id="edge188" class="edge"><title>Node47&#45;&gt;Node48</title>
<path fill="none" stroke="midnightblue" d="M3845.38,-116.497C3799.07,-106.693 3729.89,-92.0496 3680.6,-81.6165"/>
<polygon fill="midnightblue" stroke="midnightblue" points="3681.22,-78.1699 3670.71,-79.5231 3679.77,-85.0182 3681.22,-78.1699"/>
</g>
<!-- Node50 -->
<g id="node148" class="node"><title>Node50</title>
<polygon fill="white" stroke="#bfbfbf" points="3503,-58.5 3503,-79.5 3549,-79.5 3549,-58.5 3503,-58.5"/>
<text text-anchor="middle" x="3526" y="-66.5" font-family="Helvetica,sans-Serif" font-size="10.00">cstring</text>
</g>
<!-- Node47&#45;&gt;Node50 -->
<g id="edge196" class="edge"><title>Node47&#45;&gt;Node50</title>
<path fill="none" stroke="midnightblue" d="M3843.32,-117.349C3840.51,-116.879 3837.72,-116.426 3835,-116 3715.58,-97.3062 3680.7,-107.737 3559.31,-79.9465"/>
<polygon fill="midnightblue" stroke="midnightblue" points="3559.79,-76.4642 3549.26,-77.6033 3558.2,-83.2815 3559.79,-76.4642"/>
</g>
<!-- Node47&#45;&gt;Node51 -->
<g id="edge198" class="edge"><title>Node47&#45;&gt;Node51</title>
<path fill="none" stroke="midnightblue" d="M3909.49,-116.362C3921.18,-107.777 3937.84,-95.5459 3951.3,-85.6636"/>
<polygon fill="midnightblue" stroke="midnightblue" points="3953.61,-88.31 3959.6,-79.5707 3949.47,-82.6675 3953.61,-88.31"/>
</g>
<!-- Node48&#45;&gt;Node9 -->
<g id="edge190" class="edge"><title>Node48&#45;&gt;Node9</title>
<path fill="none" stroke="midnightblue" d="M3566.78,-58.9779C3563.81,-58.6036 3560.87,-58.2728 3558,-58 3261.47,-29.8556 1012.78,-13.2451 722.771,-11.2117"/>
<polygon fill="midnightblue" stroke="midnightblue" points="722.588,-7.71044 712.564,-11.1405 722.539,-14.7103 722.588,-7.71044"/>
</g>
<!-- Node48&#45;&gt;Node11 -->
<g id="edge194" class="edge"><title>Node48&#45;&gt;Node11</title>
<path fill="none" stroke="midnightblue" d="M3566.74,-59.2798C3563.79,-58.8276 3560.86,-58.3975 3558,-58 3405.04,-36.7376 3221.8,-20.5613 3143.51,-14.0868"/>
<polygon fill="midnightblue" stroke="midnightblue" points="3143.43,-10.5683 3133.18,-13.2381 3142.86,-17.5449 3143.43,-10.5683"/>
</g>
<!-- Node49 -->
<g id="node145" class="node"><title>Node49</title>
<polygon fill="white" stroke="#bfbfbf" points="3595,-0.5 3595,-21.5 3647,-21.5 3647,-0.5 3595,-0.5"/>
<text text-anchor="middle" x="3621" y="-8.5" font-family="Helvetica,sans-Serif" font-size="10.00">sstream</text>
</g>
<!-- Node48&#45;&gt;Node49 -->
<g id="edge192" class="edge"><title>Node48&#45;&gt;Node49</title>
<path fill="none" stroke="midnightblue" d="M3621,-58.3619C3621,-50.9219 3621,-40.7427 3621,-31.7276"/>
<polygon fill="midnightblue" stroke="midnightblue" points="3624.5,-31.5706 3621,-21.5707 3617.5,-31.5707 3624.5,-31.5706"/>
</g>
<!-- Node54&#45;&gt;Node8 -->
<g id="edge236" class="edge"><title>Node54&#45;&gt;Node8</title>
<path fill="none" stroke="midnightblue" d="M900.887,-116.341C899.924,-100.771 900.801,-72.1278 918,-58 946.351,-34.7116 2124.98,-14.8702 2335.87,-11.503"/>
<polygon fill="midnightblue" stroke="midnightblue" points="2336.04,-15.0009 2345.99,-11.3424 2335.93,-8.0018 2336.04,-15.0009"/>
</g>
<!-- Node54&#45;&gt;Node34 -->
<g id="edge238" class="edge"><title>Node54&#45;&gt;Node34</title>
<path fill="none" stroke="midnightblue" d="M910.804,-116.362C917.502,-108.268 926.884,-96.9318 934.789,-87.3796"/>
<polygon fill="midnightblue" stroke="midnightblue" points="937.573,-89.5061 941.252,-79.5707 932.18,-85.0431 937.573,-89.5061"/>
</g>
<!-- Node55&#45;&gt;Node9 -->
<g id="edge242" class="edge"><title>Node55&#45;&gt;Node9</title>
<path fill="none" stroke="midnightblue" d="M1771.79,-234.181C1766.8,-233.396 1761.8,-232.652 1757,-232 1500.29,-197.148 1435.04,-196.975 1177,-174 1125.82,-169.444 754.252,-172.3 716,-138 686.208,-111.286 686.276,-60.1638 689.06,-31.6013"/>
<polygon fill="midnightblue" stroke="midnightblue" points="692.552,-31.8706 690.248,-21.5293 685.601,-31.0502 692.552,-31.8706"/>
</g>
<!-- Node55&#45;&gt;Node20 -->
<g id="edge246" class="edge"><title>Node55&#45;&gt;Node20</title>
<path fill="none" stroke="midnightblue" d="M1801.74,-232.362C1785.13,-223.186 1760.97,-209.842 1742.53,-199.655"/>
<polygon fill="midnightblue" stroke="midnightblue" points="1744.18,-196.569 1733.74,-194.798 1740.8,-202.697 1744.18,-196.569"/>
</g>
<!-- Node55&#45;&gt;Node21 -->
<g id="edge244" class="edge"><title>Node55&#45;&gt;Node21</title>
<path fill="none" stroke="midnightblue" d="M1771.89,-233.908C1767.21,-233.196 1762.52,-232.544 1758,-232 1520.07,-203.35 1458.36,-220.749 1220,-196 1206.37,-194.585 1191.46,-192.592 1178.36,-190.691"/>
<polygon fill="midnightblue" stroke="midnightblue" points="1178.7,-187.204 1168.3,-189.198 1177.68,-194.128 1178.7,-187.204"/>
</g>
<!-- Node56&#45;&gt;Node19 -->
<g id="edge282" class="edge"><title>Node56&#45;&gt;Node19</title>
<path fill="none" stroke="midnightblue" d="M1025.25,-365.134C1258.47,-361.191 2081.57,-341.153 2155,-254 2161.3,-246.523 2161,-239.717 2155,-232 2115.02,-180.615 2052.98,-247.385 2013,-196 2002.04,-181.914 2008.14,-161.449 2015.4,-146.465"/>
<polygon fill="midnightblue" stroke="midnightblue" points="2018.55,-148 2020.17,-137.531 2012.37,-144.702 2018.55,-148"/>
</g>
<!-- Node56&#45;&gt;Node20 -->
<g id="edge280" class="edge"><title>Node56&#45;&gt;Node20</title>
<path fill="none" stroke="midnightblue" d="M1025.1,-356.459C1045.68,-353.461 1068.8,-350.33 1090,-348 1265.52,-328.704 1765.71,-389.441 1879,-254 1939.54,-181.616 1938.1,-255.871 1747,-196 1745.77,-195.616 1744.52,-195.214 1743.26,-194.801"/>
<polygon fill="midnightblue" stroke="midnightblue" points="1744.22,-191.43 1733.63,-191.512 1741.96,-198.055 1744.22,-191.43"/>
</g>
<!-- Node56&#45;&gt;Node21 -->
<g id="edge278" class="edge"><title>Node56&#45;&gt;Node21</title>
<path fill="none" stroke="midnightblue" d="M979.943,-348.709C989.008,-338.445 1000.26,-324.945 1009,-312 1031.59,-278.547 1023.29,-260.372 1052,-232 1067.23,-216.946 1088.28,-205.595 1106.19,-197.822"/>
<polygon fill="midnightblue" stroke="midnightblue" points="1107.85,-200.923 1115.76,-193.872 1105.18,-194.452 1107.85,-200.923"/>
</g>
<!-- Node56&#45;&gt;Node32 -->
<g id="edge260" class="edge"><title>Node56&#45;&gt;Node32</title>
<path fill="none" stroke="midnightblue" d="M902.818,-358.166C812.76,-343.938 660.358,-308.005 711,-232 748.118,-176.293 786.501,-195.187 850,-174 891.951,-160.003 940.438,-147.827 977.247,-139.377"/>
<polygon fill="midnightblue" stroke="midnightblue" points="978.327,-142.721 987.304,-137.094 976.777,-135.894 978.327,-142.721"/>
</g>
<!-- Node57 -->
<g id="node188" class="node"><title>Node57</title>
<a xlink:href="_memory_pool_8h.html" target="_top" xlink:title="tree/MemoryPool.h">
<polygon fill="white" stroke="black" points="901.5,-290.5 901.5,-311.5 1000.5,-311.5 1000.5,-290.5 901.5,-290.5"/>
<text text-anchor="middle" x="951" y="-298.5" font-family="Helvetica,sans-Serif" font-size="10.00">tree/MemoryPool.h</text>
</a>
</g>
<!-- Node56&#45;&gt;Node57 -->
<g id="edge262" class="edge"><title>Node56&#45;&gt;Node57</title>
<path fill="none" stroke="midnightblue" d="M960.584,-348.922C958.916,-340.579 956.894,-330.47 955.138,-321.692"/>
<polygon fill="midnightblue" stroke="midnightblue" points="958.564,-320.971 953.17,-311.852 951.7,-322.344 958.564,-320.971"/>
</g>
<!-- Node59 -->
<g id="node194" class="node"><title>Node59</title>
<a xlink:href="mapped__vectors_8h.html" target="_top" xlink:title="base/mapped_vectors.h">
<polygon fill="white" stroke="black" points="719.5,-232.5 719.5,-253.5 840.5,-253.5 840.5,-232.5 719.5,-232.5"/>
<text text-anchor="middle" x="780" y="-240.5" font-family="Helvetica,sans-Serif" font-size="10.00">base/mapped_vectors.h</text>
</a>
</g>
<!-- Node56&#45;&gt;Node59 -->
<g id="edge270" class="edge"><title>Node56&#45;&gt;Node59</title>
<path fill="none" stroke="midnightblue" d="M938.416,-348.897C903.064,-325.265 839.696,-282.906 804.777,-259.563"/>
<polygon fill="midnightblue" stroke="midnightblue" points="806.396,-256.435 796.137,-253.787 802.506,-262.255 806.396,-256.435"/>
</g>
<!-- Node57&#45;&gt;Node21 -->
<g id="edge266" class="edge"><title>Node57&#45;&gt;Node21</title>
<path fill="none" stroke="midnightblue" d="M958.128,-290.421C968.698,-275.472 989.895,-248.187 1014,-232 1042.23,-213.042 1079.08,-200.561 1105.99,-193.258"/>
<polygon fill="midnightblue" stroke="midnightblue" points="1106.98,-196.616 1115.78,-190.709 1105.22,-189.842 1106.98,-196.616"/>
</g>
<!-- Node57&#45;&gt;Node24 -->
<g id="edge264" class="edge"><title>Node57&#45;&gt;Node24</title>
<path fill="none" stroke="midnightblue" d="M1000.72,-291.874C1054.29,-282.043 1139.84,-266.34 1199.46,-255.396"/>
<polygon fill="midnightblue" stroke="midnightblue" points="1200.34,-258.794 1209.54,-253.546 1199.07,-251.909 1200.34,-258.794"/>
</g>
<!-- Node58 -->
<g id="node192" class="node"><title>Node58</title>
<polygon fill="white" stroke="#bfbfbf" points="895.5,-232.5 895.5,-253.5 962.5,-253.5 962.5,-232.5 895.5,-232.5"/>
<text text-anchor="middle" x="929" y="-240.5" font-family="Helvetica,sans-Serif" font-size="10.00">forward_list</text>
</g>
<!-- Node57&#45;&gt;Node58 -->
<g id="edge268" class="edge"><title>Node57&#45;&gt;Node58</title>
<path fill="none" stroke="midnightblue" d="M946.965,-290.362C944.081,-282.758 940.112,-272.294 936.637,-263.135"/>
<polygon fill="midnightblue" stroke="midnightblue" points="939.829,-261.679 933.01,-253.571 933.284,-264.162 939.829,-261.679"/>
</g>
<!-- Node59&#45;&gt;Node8 -->
<g id="edge272" class="edge"><title>Node59&#45;&gt;Node8</title>
<path fill="none" stroke="midnightblue" d="M824.479,-232.442C887.195,-217.823 1005.32,-191.271 1107,-174 1593.24,-91.4066 2191.27,-28.8217 2335.57,-14.2333"/>
<polygon fill="midnightblue" stroke="midnightblue" points="2336.32,-17.676 2345.91,-13.1914 2335.61,-10.7113 2336.32,-17.676"/>
</g>
<!-- Node59&#45;&gt;Node21 -->
<g id="edge274" class="edge"><title>Node59&#45;&gt;Node21</title>
<path fill="none" stroke="midnightblue" d="M840.591,-233.292C916.317,-221.159 1043.51,-200.781 1105.63,-190.827"/>
<polygon fill="midnightblue" stroke="midnightblue" points="1106.42,-194.245 1115.74,-189.207 1105.31,-187.334 1106.42,-194.245"/>
</g>
<!-- Node59&#45;&gt;Node35 -->
<g id="edge276" class="edge"><title>Node59&#45;&gt;Node35</title>
<path fill="none" stroke="midnightblue" d="M794.861,-232.343C816.926,-217.042 860.152,-189.038 901,-174 981.655,-144.307 1032.9,-201.334 1091,-138 1102.72,-125.22 1103.47,-104.977 1101.88,-89.7159"/>
<polygon fill="midnightblue" stroke="midnightblue" points="1105.32,-89.0611 1100.44,-79.6614 1098.4,-90.0579 1105.32,-89.0611"/>
</g>
<!-- Node60&#45;&gt;Node9 -->
<g id="edge294" class="edge"><title>Node60&#45;&gt;Node9</title>
<path fill="none" stroke="midnightblue" d="M2763.33,-363.009C2684.57,-359.082 2540.27,-352.195 2417,-348 2078.43,-336.479 1228.47,-359.132 893,-312 792.013,-297.812 746.344,-322.724 671,-254 624.556,-211.637 630.091,-178.076 640,-116 644.276,-89.2134 646.852,-82.2533 659,-58 663.971,-48.0757 670.859,-37.8946 677.057,-29.5569"/>
<polygon fill="midnightblue" stroke="midnightblue" points="679.836,-31.6845 683.157,-21.6235 674.287,-27.4178 679.836,-31.6845"/>
</g>
<!-- Node60&#45;&gt;Node10 -->
<g id="edge286" class="edge"><title>Node60&#45;&gt;Node10</title>
<path fill="none" stroke="midnightblue" d="M2839.73,-348.992C2859.58,-328.603 2890.58,-292.355 2903,-254 2908.08,-238.293 2905.99,-219.587 2902.95,-205.617"/>
<polygon fill="midnightblue" stroke="midnightblue" points="2906.26,-204.425 2900.44,-195.576 2899.47,-206.127 2906.26,-204.425"/>
</g>
<!-- Node60&#45;&gt;Node19 -->
<g id="edge296" class="edge"><title>Node60&#45;&gt;Node19</title>
<path fill="none" stroke="midnightblue" d="M2763.45,-360.971C2700,-354.346 2596.37,-340.082 2511,-312 2456.25,-293.989 2445.74,-281.342 2395,-254 2377.82,-244.743 2375.34,-238.672 2357,-232 2269.66,-200.226 2237.3,-230.518 2151,-196 2134.63,-189.453 2133.19,-182.947 2118,-174 2095.79,-160.918 2069.56,-147.582 2050.98,-138.474"/>
<polygon fill="midnightblue" stroke="midnightblue" points="2052.29,-135.222 2041.77,-133.999 2049.23,-141.518 2052.29,-135.222"/>
</g>
<!-- Node61 -->
<g id="node205" class="node"><title>Node61</title>
<a xlink:href="_t_header_info_8h.html" target="_top" xlink:title="tree/THeaderInfo.h">
<polygon fill="white" stroke="black" points="3711,-290.5 3711,-311.5 3809,-311.5 3809,-290.5 3711,-290.5"/>
<text text-anchor="middle" x="3760" y="-298.5" font-family="Helvetica,sans-Serif" font-size="10.00">tree/THeaderInfo.h</text>
</a>
</g>
<!-- Node60&#45;&gt;Node61 -->
<g id="edge288" class="edge"><title>Node60&#45;&gt;Node61</title>
<path fill="none" stroke="midnightblue" d="M2880.92,-360.829C2924.56,-357.069 2985.47,-351.965 3039,-348 3284.48,-329.819 3577.27,-311.895 3700.59,-304.516"/>
<polygon fill="midnightblue" stroke="midnightblue" points="3700.82,-308.009 3710.59,-303.919 3700.4,-301.022 3700.82,-308.009"/>
</g>
<!-- Node61&#45;&gt;Node45 -->
<g id="edge290" class="edge"><title>Node61&#45;&gt;Node45</title>
<path fill="none" stroke="midnightblue" d="M3760,-290.362C3760,-282.922 3760,-272.743 3760,-263.728"/>
<polygon fill="midnightblue" stroke="midnightblue" points="3763.5,-263.571 3760,-253.571 3756.5,-263.571 3763.5,-263.571"/>
</g>
<!-- Node61&#45;&gt;Node47 -->
<g id="edge292" class="edge"><title>Node61&#45;&gt;Node47</title>
<path fill="none" stroke="midnightblue" d="M3776.66,-290.47C3789.54,-281.77 3807.26,-268.526 3820,-254 3849.51,-220.346 3873.69,-173.441 3886.06,-147.07"/>
<polygon fill="midnightblue" stroke="midnightblue" points="3889.35,-148.281 3890.34,-137.733 3882.99,-145.361 3889.35,-148.281"/>
</g>
<!-- Node62&#45;&gt;Node3 -->
<g id="edge302" class="edge"><title>Node62&#45;&gt;Node3</title>
<path fill="none" stroke="midnightblue" d="M2317.69,-536.362C2321.84,-528.595 2327.58,-517.843 2332.55,-508.546"/>
<polygon fill="midnightblue" stroke="midnightblue" points="2335.72,-510.04 2337.35,-499.571 2329.55,-506.74 2335.72,-510.04"/>
</g>
<!-- Node62&#45;&gt;Node21 -->
<g id="edge308" class="edge"><title>Node62&#45;&gt;Node21</title>
<path fill="none" stroke="midnightblue" d="M2283.86,-544.323C2167.95,-532.85 1716.71,-483.817 1359,-384 1274.81,-360.509 1243.47,-367.56 1176,-312 1152.4,-292.563 1147.57,-283.352 1139,-254 1134.39,-238.197 1135.59,-219.498 1137.69,-205.555"/>
<polygon fill="midnightblue" stroke="midnightblue" points="1141.16,-205.997 1139.47,-195.538 1134.27,-204.768 1141.16,-205.997"/>
</g>
<!-- Node62&#45;&gt;Node32 -->
<g id="edge304" class="edge"><title>Node62&#45;&gt;Node32</title>
<path fill="none" stroke="midnightblue" d="M2283.83,-544.828C2205.77,-538.726 1980.06,-520.531 1793,-500 1225.52,-437.716 808.846,-702.256 545,-196 501.391,-112.326 859.855,-149.012 977.142,-137.908"/>
<polygon fill="midnightblue" stroke="midnightblue" points="977.869,-141.348 987.402,-136.724 977.066,-134.394 977.869,-141.348"/>
</g>
<!-- Node62&#45;&gt;Node45 -->
<g id="edge306" class="edge"><title>Node62&#45;&gt;Node45</title>
<path fill="none" stroke="midnightblue" d="M2340.19,-546.863C2525.84,-545.85 3567.04,-538.464 3621,-500 3702.46,-441.935 3643.15,-370.893 3702,-290 3710.6,-278.174 3722.89,-267.642 3733.94,-259.561"/>
<polygon fill="midnightblue" stroke="midnightblue" points="3736.25,-262.22 3742.45,-253.628 3732.24,-256.479 3736.25,-262.22"/>
</g>
<!-- Node63&#45;&gt;Node32 -->
<g id="edge316" class="edge"><title>Node63&#45;&gt;Node32</title>
<path fill="none" stroke="midnightblue" d="M236.888,-652.909C222.298,-644.109 207.119,-631.851 199,-616 194.542,-607.297 198.358,-603.757 199,-594 211.967,-396.948 161.839,-250.254 344,-174 471.447,-120.649 822.519,-154.081 977.076,-137.998"/>
<polygon fill="midnightblue" stroke="midnightblue" points="977.878,-141.429 987.413,-136.809 977.079,-134.474 977.878,-141.429"/>
</g>
<!-- Node64 -->
<g id="node223" class="node"><title>Node64</title>
<a xlink:href="_unpacker_acqu_8h.html" target="_top" xlink:title="unpacker/UnpackerAcqu.h">
<polygon fill="white" stroke="black" points="208,-594.5 208,-615.5 340,-615.5 340,-594.5 208,-594.5"/>
<text text-anchor="middle" x="274" y="-602.5" font-family="Helvetica,sans-Serif" font-size="10.00">unpacker/UnpackerAcqu.h</text>
</a>
</g>
<!-- Node63&#45;&gt;Node64 -->
<g id="edge318" class="edge"><title>Node63&#45;&gt;Node64</title>
<path fill="none" stroke="midnightblue" d="M274,-652.922C274,-644.67 274,-634.692 274,-625.982"/>
<polygon fill="midnightblue" stroke="midnightblue" points="277.5,-625.852 274,-615.852 270.5,-625.852 277.5,-625.852"/>
</g>
<!-- Node64&#45;&gt;Node8 -->
<g id="edge350" class="edge"><title>Node64&#45;&gt;Node8</title>
<path fill="none" stroke="midnightblue" d="M267.895,-594.191C257.153,-574.127 236,-529.477 236,-489 236,-489 236,-489 236,-366 236,-268.093 256.744,-218.41 344,-174 569.358,-59.3018 649.912,-87.9387 901,-58 1192.49,-23.2441 2147.59,-12.9787 2335.67,-11.2733"/>
<polygon fill="midnightblue" stroke="midnightblue" points="2335.78,-14.7726 2345.75,-11.1835 2335.72,-7.77284 2335.78,-14.7726"/>
</g>
<!-- Node64&#45;&gt;Node16 -->
<g id="edge354" class="edge"><title>Node64&#45;&gt;Node16</title>
<path fill="none" stroke="midnightblue" d="M235.029,-594.493C167.999,-575.261 38,-532.371 38,-489 38,-489 38,-489 38,-301 38,-261.223 59.5144,-249.972 95,-232 295.955,-130.225 881.924,-183.041 1107,-174 1800.85,-146.13 1975.2,-167.067 2669,-138 2722.02,-135.779 2783.69,-131.714 2819.63,-129.196"/>
<polygon fill="midnightblue" stroke="midnightblue" points="2820.2,-132.665 2829.92,-128.468 2819.7,-125.682 2820.2,-132.665"/>
</g>
<!-- Node64&#45;&gt;Node19 -->
<g id="edge346" class="edge"><title>Node64&#45;&gt;Node19</title>
<path fill="none" stroke="midnightblue" d="M278.754,-594.239C306.711,-531.556 451.693,-214.876 545,-174 614.499,-143.554 1813.34,-129.319 2002.08,-127.263"/>
<polygon fill="midnightblue" stroke="midnightblue" points="2002.18,-130.762 2012.14,-127.155 2002.1,-123.763 2002.18,-130.762"/>
</g>
<!-- Node64&#45;&gt;Node20 -->
<g id="edge348" class="edge"><title>Node64&#45;&gt;Node20</title>
<path fill="none" stroke="midnightblue" d="M340.442,-601.797C602.298,-588.229 1561.35,-529.365 1823,-384 1893.9,-344.609 1975.62,-294.565 1924,-232 1872.51,-169.587 1821.85,-218.886 1743.31,-197.308"/>
<polygon fill="midnightblue" stroke="midnightblue" points="1744.18,-193.914 1733.59,-194.313 1742.12,-200.603 1744.18,-193.914"/>
</g>
<!-- Node64&#45;&gt;Node21 -->
<g id="edge344" class="edge"><title>Node64&#45;&gt;Node21</title>
<path fill="none" stroke="midnightblue" d="M335.153,-594.482C423.926,-577.45 578,-540.476 578,-489 578,-489 578,-489 578,-366 578,-282.089 635.402,-268.414 711,-232 728.725,-223.462 1005.04,-197.515 1105.69,-188.295"/>
<polygon fill="midnightblue" stroke="midnightblue" points="1106.05,-191.776 1115.69,-187.38 1105.42,-184.805 1106.05,-191.776"/>
</g>
<!-- Node64&#45;&gt;Node32 -->
<g id="edge342" class="edge"><title>Node64&#45;&gt;Node32</title>
<path fill="none" stroke="midnightblue" d="M274,-594.444C274,-574.062 274,-527.868 274,-489 274,-489 274,-489 274,-301 274,-220.227 327.532,-200.016 404,-174 522.246,-133.77 836.188,-153.356 977.158,-138.009"/>
<polygon fill="midnightblue" stroke="midnightblue" points="977.894,-141.446 987.411,-136.79 977.067,-134.495 977.894,-141.446"/>
</g>
<!-- Node64&#45;&gt;Node34 -->
<g id="edge352" class="edge"><title>Node64&#45;&gt;Node34</title>
<path fill="none" stroke="midnightblue" d="M207.944,-596.939C169.092,-590.299 119.916,-578.512 80,-558 38.238,-536.539 0,-535.954 0,-489 0,-489 0,-489 0,-301 0,-108.082 748.67,-74.851 916.769,-69.8212"/>
<polygon fill="midnightblue" stroke="midnightblue" points="917.091,-73.3135 926.987,-69.5292 916.892,-66.3163 917.091,-73.3135"/>
</g>
<!-- Node65 -->
<g id="node225" class="node"><title>Node65</title>
<a xlink:href="_unpacker_8h.html" target="_top" xlink:title="Unpacker.h">
<polygon fill="white" stroke="black" points="103.5,-232.5 103.5,-253.5 170.5,-253.5 170.5,-232.5 103.5,-232.5"/>
<text text-anchor="middle" x="137" y="-240.5" font-family="Helvetica,sans-Serif" font-size="10.00">Unpacker.h</text>
</a>
</g>
<!-- Node64&#45;&gt;Node65 -->
<g id="edge320" class="edge"><title>Node64&#45;&gt;Node65</title>
<path fill="none" stroke="midnightblue" d="M258.106,-594.463C246.464,-585.945 231.155,-572.942 222,-558 161.346,-459.007 143.329,-316.61 138.556,-263.766"/>
<polygon fill="midnightblue" stroke="midnightblue" points="142.03,-263.305 137.708,-253.632 135.054,-263.889 142.03,-263.305"/>
</g>
<!-- Node66 -->
<g id="node229" class="node"><title>Node66</title>
<a xlink:href="_exp_config_8h.html" target="_top" xlink:title="expconfig/ExpConfig.h">
<polygon fill="white" stroke="black" points="807,-536.5 807,-557.5 923,-557.5 923,-536.5 807,-536.5"/>
<text text-anchor="middle" x="865" y="-544.5" font-family="Helvetica,sans-Serif" font-size="10.00">expconfig/ExpConfig.h</text>
</a>
</g>
<!-- Node64&#45;&gt;Node66 -->
<g id="edge326" class="edge"><title>Node64&#45;&gt;Node66</title>
<path fill="none" stroke="midnightblue" d="M340.075,-598.515C453.082,-587.425 682.331,-564.927 796.786,-553.694"/>
<polygon fill="midnightblue" stroke="midnightblue" points="797.219,-557.169 806.829,-552.709 796.535,-550.202 797.219,-557.169"/>
</g>
<!-- Node65&#45;&gt;Node9 -->
<g id="edge322" class="edge"><title>Node65&#45;&gt;Node9</title>
<path fill="none" stroke="midnightblue" d="M141.463,-232.123C155.709,-198.99 203.629,-99.0732 279,-58 345.017,-22.0242 577.174,-13.4753 661.282,-11.5395"/>
<polygon fill="midnightblue" stroke="midnightblue" points="661.54,-15.0349 671.462,-11.3213 661.39,-8.03647 661.54,-15.0349"/>
</g>
<!-- Node65&#45;&gt;Node21 -->
<g id="edge324" class="edge"><title>Node65&#45;&gt;Node21</title>
<path fill="none" stroke="midnightblue" d="M170.532,-241.499C286.333,-236.248 680.133,-217.834 1005,-196 1039.2,-193.702 1078.15,-190.519 1105.76,-188.168"/>
<polygon fill="midnightblue" stroke="midnightblue" points="1106.09,-191.653 1115.75,-187.312 1105.49,-184.679 1106.09,-191.653"/>
</g>
<!-- Node66&#45;&gt;Node3 -->
<g id="edge332" class="edge"><title>Node66&#45;&gt;Node3</title>
<path fill="none" stroke="midnightblue" d="M923.395,-544.708C1156.5,-535.561 2020,-501.675 2272.94,-491.749"/>
<polygon fill="midnightblue" stroke="midnightblue" points="2273.25,-495.24 2283.11,-491.35 2272.98,-488.245 2273.25,-495.24"/>
</g>
<!-- Node66&#45;&gt;Node13 -->
<g id="edge334" class="edge"><title>Node66&#45;&gt;Node13</title>
<path fill="none" stroke="midnightblue" d="M923.032,-546.184C1167.41,-542.6 2113.84,-527.213 2411,-500 2749.52,-469 2832.62,-445.214 3167,-384 3318.08,-356.341 3394.07,-418.236 3505,-312 3550.02,-268.887 3555.04,-231.082 3530,-174 3514.71,-139.146 3501.15,-132.794 3467,-116 3426.71,-96.1893 3300.27,-80.3498 3234.17,-73.1726"/>
<polygon fill="midnightblue" stroke="midnightblue" points="3234.42,-69.6793 3224.1,-72.0958 3233.67,-76.6396 3234.42,-69.6793"/>
</g>
<!-- Node66&#45;&gt;Node19 -->
<g id="edge338" class="edge"><title>Node66&#45;&gt;Node19</title>
<path fill="none" stroke="midnightblue" d="M822.195,-536.434C751.003,-517.596 616,-475.948 616,-431 616,-431 616,-431 616,-366 616,-292.996 648.753,-270.143 711,-232 825.378,-161.912 1831.12,-132.203 2002.29,-127.635"/>
<polygon fill="midnightblue" stroke="midnightblue" points="2002.43,-131.132 2012.34,-127.37 2002.25,-124.134 2002.43,-131.132"/>
</g>
<!-- Node66&#45;&gt;Node20 -->
<g id="edge340" class="edge"><title>Node66&#45;&gt;Node20</title>
<path fill="none" stroke="midnightblue" d="M884.247,-536.438C929.622,-512.005 1047.43,-451.292 1153,-420 1480.74,-322.854 1743.51,-555.817 1904,-254 1951.71,-164.27 1886.51,-243.703 1743.16,-197.505"/>
<polygon fill="midnightblue" stroke="midnightblue" points="1744.2,-194.162 1733.6,-194.277 1741.96,-200.794 1744.2,-194.162"/>
</g>
<!-- Node66&#45;&gt;Node21 -->
<g id="edge336" class="edge"><title>Node66&#45;&gt;Node21</title>
<path fill="none" stroke="midnightblue" d="M860.469,-536.348C852.312,-516.178 836,-470.857 836,-431 836,-431 836,-431 836,-366 836,-302.277 838.045,-272.793 887,-232 919.693,-204.758 1043.18,-192.119 1105.52,-187.372"/>
<polygon fill="midnightblue" stroke="midnightblue" points="1105.98,-190.848 1115.7,-186.626 1105.47,-183.867 1105.98,-190.848"/>
</g>
<!-- Node66&#45;&gt;Node32 -->
<g id="edge328" class="edge"><title>Node66&#45;&gt;Node32</title>
<path fill="none" stroke="midnightblue" d="M806.865,-540.513C664.884,-523.06 312,-469.292 312,-366 312,-366 312,-366 312,-301 312,-211.251 385.498,-206.899 469,-174 571.816,-133.492 850.565,-151.897 977.104,-138.013"/>
<polygon fill="midnightblue" stroke="midnightblue" points="977.901,-141.442 987.407,-136.764 977.059,-134.493 977.901,-141.442"/>
</g>
<!-- Node66&#45;&gt;Node56 -->
<g id="edge330" class="edge"><title>Node66&#45;&gt;Node56</title>
<path fill="none" stroke="midnightblue" d="M870.751,-536.486C885.956,-508.686 927.57,-432.605 949.708,-392.131"/>
<polygon fill="midnightblue" stroke="midnightblue" points="952.905,-393.579 954.633,-383.126 946.763,-390.22 952.905,-393.579"/>
</g>
<!-- Node68 -->
<g id="node248" class="node"><title>Node68</title>
<polygon fill="white" stroke="#bfbfbf" points="3864.5,-594.5 3864.5,-615.5 3979.5,-615.5 3979.5,-594.5 3864.5,-594.5"/>
<text text-anchor="middle" x="3922" y="-602.5" font-family="Helvetica,sans-Serif" font-size="10.00">detail/easylogging++.h</text>
</g>
<!-- Node67&#45;&gt;Node68 -->
<g id="edge360" class="edge"><title>Node67&#45;&gt;Node68</title>
<path fill="none" stroke="midnightblue" d="M3914.49,-659.267C3915.74,-650.18 3917.58,-636.892 3919.13,-625.74"/>
<polygon fill="midnightblue" stroke="midnightblue" points="3922.64,-625.919 3920.54,-615.534 3915.7,-624.959 3922.64,-625.919"/>
</g>
</g>
</svg>
