<?xml version="1.0" encoding="UTF-8" standalone="no"?>
<!DOCTYPE svg PUBLIC "-//W3C//DTD SVG 1.1//EN"
 "http://www.w3.org/Graphics/SVG/1.1/DTD/svg11.dtd">
<!-- Generated by graphviz version 2.26.3 (20100126.1600)
 -->
<!-- Title: src/expconfig/detectors/PID.h Pages: 1 -->
<svg width="1542pt" height="188pt"
 viewBox="0.00 0.00 1542.00 188.00" xmlns="http://www.w3.org/2000/svg" xmlns:xlink="http://www.w3.org/1999/xlink">
<g id="graph1" class="graph" transform="scale(1 1) rotate(0) translate(4 184)">
<title>src/expconfig/detectors/PID.h</title>
<polygon fill="white" stroke="white" points="-4,5 -4,-184 1539,-184 1539,5 -4,5"/>
<!-- Node1 -->
<g id="node1" class="node"><title>Node1</title>
<polygon fill="#bfbfbf" stroke="black" points="661.5,-145 661.5,-179 780.5,-179 780.5,-145 661.5,-145"/>
<text text-anchor="start" x="669.5" y="-166" font-family="Helvetica,sans-Serif" font-size="10.00">src/expconfig/detectors</text>
<text text-anchor="middle" x="721" y="-153" font-family="Helvetica,sans-Serif" font-size="10.00">/PID.h</text>
</g>
<!-- Node2 -->
<g id="node3" class="node"><title>Node2</title>
<a xlink:href="_p_i_d___energy_8cc.html" target="_top" xlink:title="src/calibration/modules\l/PID_Energy.cc">
<polygon fill="white" stroke="black" points="-0.5,-73 -0.5,-107 116.5,-107 116.5,-73 -0.5,-73"/>
<text text-anchor="start" x="7.5" y="-94" font-family="Helvetica,sans-Serif" font-size="10.00">src/calibration/modules</text>
<text text-anchor="middle" x="58" y="-81" font-family="Helvetica,sans-Serif" font-size="10.00">/PID_Energy.cc</text>
</a>
</g>
<!-- Node1&#45;&gt;Node2 -->
<g id="edge2" class="edge"><title>Node1&#45;&gt;Node2</title>
<path fill="none" stroke="midnightblue" d="M651.199,-159.569C539.366,-154.803 313.456,-141.594 125,-108 122.273,-107.514 119.495,-106.97 116.697,-106.382"/>
<polygon fill="midnightblue" stroke="midnightblue" points="651.197,-163.072 661.334,-159.991 651.489,-156.078 651.197,-163.072"/>
</g>
<!-- Node3 -->
<g id="node5" class="node"><title>Node3</title>
<a xlink:href="_p_i_d___phi_angle_8cc.html" target="_top" xlink:title="src/calibration/modules\l/PID_PhiAngle.cc">
<polygon fill="white" stroke="black" points="133.5,-73 133.5,-107 250.5,-107 250.5,-73 133.5,-73"/>
<text text-anchor="start" x="141.5" y="-94" font-family="Helvetica,sans-Serif" font-size="10.00">src/calibration/modules</text>
<text text-anchor="middle" x="192" y="-81" font-family="Helvetica,sans-Serif" font-size="10.00">/PID_PhiAngle.cc</text>
</a>
</g>
<!-- Node1&#45;&gt;Node3 -->
<g id="edge4" class="edge"><title>Node1&#45;&gt;Node3</title>
<path fill="none" stroke="midnightblue" d="M650.95,-157.017C560.012,-149.817 396.652,-134.389 259,-108 256.279,-107.478 253.507,-106.905 250.713,-106.294"/>
<polygon fill="midnightblue" stroke="midnightblue" points="650.894,-160.523 661.136,-157.813 651.439,-153.544 650.894,-160.523"/>
</g>
<!-- Node4 -->
<g id="node7" class="node"><title>Node4</title>
<a xlink:href="_p_i_d__2004__elements_8h.html" target="_top" xlink:title="src/expconfig/detectors\l/detail/PID_2004_elements.h">
<polygon fill="white" stroke="black" points="267.5,-73 267.5,-107 410.5,-107 410.5,-73 267.5,-73"/>
<text text-anchor="start" x="275.5" y="-94" font-family="Helvetica,sans-Serif" font-size="10.00">src/expconfig/detectors</text>
<text text-anchor="middle" x="339" y="-81" font-family="Helvetica,sans-Serif" font-size="10.00">/detail/PID_2004_elements.h</text>
</a>
</g>
<!-- Node1&#45;&gt;Node4 -->
<g id="edge6" class="edge"><title>Node1&#45;&gt;Node4</title>
<path fill="none" stroke="midnightblue" d="M651.298,-149.912C591.042,-139.322 501.654,-123.278 424,-108 419.708,-107.156 415.297,-106.271 410.85,-105.367"/>
<polygon fill="midnightblue" stroke="midnightblue" points="651.001,-153.413 661.456,-151.694 652.211,-146.519 651.001,-153.413"/>
</g>
<!-- Node5 -->
<g id="node9" class="node"><title>Node5</title>
<a xlink:href="_p_i_d_8cc.html" target="_top" xlink:title="src/expconfig/detectors\l/PID.cc">
<polygon fill="white" stroke="black" points="573.5,-1 573.5,-35 692.5,-35 692.5,-1 573.5,-1"/>
<text text-anchor="start" x="581.5" y="-22" font-family="Helvetica,sans-Serif" font-size="10.00">src/expconfig/detectors</text>
<text text-anchor="middle" x="633" y="-9" font-family="Helvetica,sans-Serif" font-size="10.00">/PID.cc</text>
</a>
</g>
<!-- Node1&#45;&gt;Node5 -->
<g id="edge26" class="edge"><title>Node1&#45;&gt;Node5</title>
<path fill="none" stroke="midnightblue" d="M651.316,-157.491C581.525,-151.351 481.106,-137.536 457,-108 420.273,-63.0004 509.038,-38.1635 573.414,-26.4981"/>
<polygon fill="midnightblue" stroke="midnightblue" points="651.119,-160.987 661.378,-158.342 651.709,-154.012 651.119,-160.987"/>
</g>
<!-- Node6 -->
<g id="node11" class="node"><title>Node6</title>
<a xlink:href="_p_i_d__2009__05__elements_8h.html" target="_top" xlink:title="src/expconfig/detectors\l/detail/PID_2009_05_elements.h">
<polygon fill="white" stroke="black" points="466,-73 466,-107 624,-107 624,-73 466,-73"/>
<text text-anchor="start" x="474" y="-94" font-family="Helvetica,sans-Serif" font-size="10.00">src/expconfig/detectors</text>
<text text-anchor="middle" x="545" y="-81" font-family="Helvetica,sans-Serif" font-size="10.00">/detail/PID_2009_05_elements.h</text>
</a>
</g>
<!-- Node1&#45;&gt;Node6 -->
<g id="edge10" class="edge"><title>Node1&#45;&gt;Node6</title>
<path fill="none" stroke="midnightblue" d="M669.828,-141.066C643.42,-130.263 611.612,-117.251 586.715,-107.065"/>
<polygon fill="midnightblue" stroke="midnightblue" points="668.71,-144.39 679.29,-144.937 671.36,-137.911 668.71,-144.39"/>
</g>
<!-- Node7 -->
<g id="node14" class="node"><title>Node7</title>
<a xlink:href="_p_i_d__2009__06__elements_8h.html" target="_top" xlink:title="src/expconfig/detectors\l/detail/PID_2009_06_elements.h">
<polygon fill="white" stroke="black" points="642,-73 642,-107 800,-107 800,-73 642,-73"/>
<text text-anchor="start" x="650" y="-94" font-family="Helvetica,sans-Serif" font-size="10.00">src/expconfig/detectors</text>
<text text-anchor="middle" x="721" y="-81" font-family="Helvetica,sans-Serif" font-size="10.00">/detail/PID_2009_06_elements.h</text>
</a>
</g>
<!-- Node1&#45;&gt;Node7 -->
<g id="edge14" class="edge"><title>Node1&#45;&gt;Node7</title>
<path fill="none" stroke="midnightblue" d="M721,-134.719C721,-125.572 721,-115.625 721,-107.441"/>
<polygon fill="midnightblue" stroke="midnightblue" points="717.5,-134.937 721,-144.937 724.5,-134.937 717.5,-134.937"/>
</g>
<!-- Node8 -->
<g id="node17" class="node"><title>Node8</title>
<a xlink:href="_p_i_d__2009__07__elements_8h.html" target="_top" xlink:title="src/expconfig/detectors\l/detail/PID_2009_07_elements.h">
<polygon fill="white" stroke="black" points="818,-73 818,-107 976,-107 976,-73 818,-73"/>
<text text-anchor="start" x="826" y="-94" font-family="Helvetica,sans-Serif" font-size="10.00">src/expconfig/detectors</text>
<text text-anchor="middle" x="897" y="-81" font-family="Helvetica,sans-Serif" font-size="10.00">/detail/PID_2009_07_elements.h</text>
</a>
</g>
<!-- Node1&#45;&gt;Node8 -->
<g id="edge18" class="edge"><title>Node1&#45;&gt;Node8</title>
<path fill="none" stroke="midnightblue" d="M772.172,-141.066C798.58,-130.263 830.388,-117.251 855.285,-107.065"/>
<polygon fill="midnightblue" stroke="midnightblue" points="770.64,-137.911 762.71,-144.937 773.29,-144.39 770.64,-137.911"/>
</g>
<!-- Node9 -->
<g id="node20" class="node"><title>Node9</title>
<a xlink:href="_p_i_d__2014__elements_8h.html" target="_top" xlink:title="src/expconfig/detectors\l/detail/PID_2014_elements.h">
<polygon fill="white" stroke="black" points="993.5,-73 993.5,-107 1136.5,-107 1136.5,-73 993.5,-73"/>
<text text-anchor="start" x="1001.5" y="-94" font-family="Helvetica,sans-Serif" font-size="10.00">src/expconfig/detectors</text>
<text text-anchor="middle" x="1065" y="-81" font-family="Helvetica,sans-Serif" font-size="10.00">/detail/PID_2014_elements.h</text>
</a>
</g>
<!-- Node1&#45;&gt;Node9 -->
<g id="edge22" class="edge"><title>Node1&#45;&gt;Node9</title>
<path fill="none" stroke="midnightblue" d="M790.59,-148.152C843.867,-137.456 919.148,-122.142 985,-108 987.784,-107.402 990.621,-106.788 993.486,-106.163"/>
<polygon fill="midnightblue" stroke="midnightblue" points="789.688,-144.763 780.572,-150.161 791.065,-151.626 789.688,-144.763"/>
</g>
<!-- Node10 -->
<g id="node24" class="node"><title>Node10</title>
<a xlink:href="_setup__2014___e_p_t_8cc.html" target="_top" xlink:title="src/expconfig/setups\l/Setup_2014_EPT.cc">
<polygon fill="white" stroke="black" points="1154,-73 1154,-107 1264,-107 1264,-73 1154,-73"/>
<text text-anchor="start" x="1162" y="-94" font-family="Helvetica,sans-Serif" font-size="10.00">src/expconfig/setups</text>
<text text-anchor="middle" x="1209" y="-81" font-family="Helvetica,sans-Serif" font-size="10.00">/Setup_2014_EPT.cc</text>
</a>
</g>
<!-- Node1&#45;&gt;Node10 -->
<g id="edge28" class="edge"><title>Node1&#45;&gt;Node10</title>
<path fill="none" stroke="midnightblue" d="M790.776,-156.294C875.23,-148.658 1021.49,-133.091 1145,-108 1147.94,-107.403 1150.94,-106.741 1153.97,-106.034"/>
<polygon fill="midnightblue" stroke="midnightblue" points="790.438,-152.81 780.789,-157.186 791.061,-159.783 790.438,-152.81"/>
</g>
<!-- Node11 -->
<g id="node26" class="node"><title>Node11</title>
<a xlink:href="_setup___test_8cc.html" target="_top" xlink:title="src/expconfig/setups\l/Setup_Test.cc">
<polygon fill="white" stroke="black" points="1281.5,-73 1281.5,-107 1388.5,-107 1388.5,-73 1281.5,-73"/>
<text text-anchor="start" x="1289.5" y="-94" font-family="Helvetica,sans-Serif" font-size="10.00">src/expconfig/setups</text>
<text text-anchor="middle" x="1335" y="-81" font-family="Helvetica,sans-Serif" font-size="10.00">/Setup_Test.cc</text>
</a>
</g>
<!-- Node1&#45;&gt;Node11 -->
<g id="edge30" class="edge"><title>Node1&#45;&gt;Node11</title>
<path fill="none" stroke="midnightblue" d="M790.929,-159.306C896.288,-154.316 1101.65,-140.961 1273,-108 1275.75,-107.471 1278.56,-106.873 1281.38,-106.226"/>
<polygon fill="midnightblue" stroke="midnightblue" points="790.569,-155.819 780.741,-159.777 790.892,-162.811 790.569,-155.819"/>
</g>
<!-- Node12 -->
<g id="node28" class="node"><title>Node12</title>
<a xlink:href="_candidate_builder_8cc.html" target="_top" xlink:title="src/reconstruct/Candidate\lBuilder.cc">
<polygon fill="white" stroke="black" points="1405.5,-73 1405.5,-107 1534.5,-107 1534.5,-73 1405.5,-73"/>
<text text-anchor="start" x="1413.5" y="-94" font-family="Helvetica,sans-Serif" font-size="10.00">src/reconstruct/Candidate</text>
<text text-anchor="middle" x="1470" y="-81" font-family="Helvetica,sans-Serif" font-size="10.00">Builder.cc</text>
</a>
</g>
<!-- Node1&#45;&gt;Node12 -->
<g id="edge32" class="edge"><title>Node1&#45;&gt;Node12</title>
<path fill="none" stroke="midnightblue" d="M790.658,-160.154C913.738,-156.066 1177.42,-143.601 1397,-108 1399.71,-107.561 1402.46,-107.073 1405.23,-106.547"/>
<polygon fill="midnightblue" stroke="midnightblue" points="790.497,-156.657 780.616,-160.479 790.724,-163.653 790.497,-156.657"/>
</g>
<!-- Node4&#45;&gt;Node5 -->
<g id="edge8" class="edge"><title>Node4&#45;&gt;Node5</title>
<path fill="none" stroke="midnightblue" d="M418.559,-70.5162C467.302,-58.579 528.677,-43.5485 573.264,-32.6292"/>
<polygon fill="midnightblue" stroke="midnightblue" points="417.554,-67.1587 408.674,-72.937 419.219,-73.9578 417.554,-67.1587"/>
</g>
<!-- Node6&#45;&gt;Node5 -->
<g id="edge12" class="edge"><title>Node6&#45;&gt;Node5</title>
<path fill="none" stroke="midnightblue" d="M573.731,-66.493C586.201,-56.2899 600.54,-44.5583 611.99,-35.19"/>
<polygon fill="midnightblue" stroke="midnightblue" points="571.378,-63.8957 565.855,-72.937 575.811,-69.3134 571.378,-63.8957"/>
</g>
<!-- Node7&#45;&gt;Node5 -->
<g id="edge16" class="edge"><title>Node7&#45;&gt;Node5</title>
<path fill="none" stroke="midnightblue" d="M692.269,-66.493C679.799,-56.2899 665.46,-44.5583 654.01,-35.19"/>
<polygon fill="midnightblue" stroke="midnightblue" points="690.189,-69.3134 700.145,-72.937 694.622,-63.8957 690.189,-69.3134"/>
</g>
<!-- Node8&#45;&gt;Node5 -->
<g id="edge20" class="edge"><title>Node8&#45;&gt;Node5</title>
<path fill="none" stroke="midnightblue" d="M824.682,-70.2768C783.283,-58.9862 731.963,-44.9899 692.846,-34.3217"/>
<polygon fill="midnightblue" stroke="midnightblue" points="823.867,-73.6824 834.436,-72.937 825.709,-66.9291 823.867,-73.6824"/>
</g>
<!-- Node9&#45;&gt;Node5 -->
<g id="edge24" class="edge"><title>Node9&#45;&gt;Node5</title>
<path fill="none" stroke="midnightblue" d="M983.048,-71.6871C875.572,-51.6472 760.758,-35.144 692.692,-25.8761"/>
<polygon fill="midnightblue" stroke="midnightblue" points="982.616,-75.1671 993.09,-73.5741 983.909,-68.2875 982.616,-75.1671"/>
</g>
</g>
</svg>
