<?xml version="1.0" encoding="UTF-8" standalone="no"?>
<!DOCTYPE svg PUBLIC "-//W3C//DTD SVG 1.1//EN"
 "http://www.w3.org/Graphics/SVG/1.1/DTD/svg11.dtd">
<!-- Generated by graphviz version 2.26.3 (20100126.1600)
 -->
<!-- Title: src/base/ParticleTypeTree.h Pages: 1 -->
<svg width="576pt" height="146pt"
 viewBox="0.00 0.00 576.00 146.00" xmlns="http://www.w3.org/2000/svg" xmlns:xlink="http://www.w3.org/1999/xlink">
<g id="graph1" class="graph" transform="scale(1 1) rotate(0) translate(4 142)">
<title>src/base/ParticleTypeTree.h</title>
<polygon fill="white" stroke="white" points="-4,5 -4,-142 573,-142 573,5 -4,5"/>
<!-- Node1 -->
<g id="node1" class="node"><title>Node1</title>
<polygon fill="#bfbfbf" stroke="black" points="291,-116.5 291,-137.5 431,-137.5 431,-116.5 291,-116.5"/>
<text text-anchor="middle" x="361" y="-124.5" font-family="Helvetica,sans-Serif" font-size="10.00">src/base/ParticleTypeTree.h</text>
</g>
<!-- Node2 -->
<g id="node3" class="node"><title>Node2</title>
<a xlink:href="_particle_type_8h.html" target="_top" xlink:title="ParticleType.h">
<polygon fill="white" stroke="black" points="201,-58.5 201,-79.5 281,-79.5 281,-58.5 201,-58.5"/>
<text text-anchor="middle" x="241" y="-66.5" font-family="Helvetica,sans-Serif" font-size="10.00">ParticleType.h</text>
</a>
</g>
<!-- Node1&#45;&gt;Node2 -->
<g id="edge2" class="edge"><title>Node1&#45;&gt;Node2</title>
<path fill="none" stroke="midnightblue" d="M339.269,-116.497C320.526,-107.438 293.233,-94.2462 272.164,-84.0628"/>
<polygon fill="midnightblue" stroke="midnightblue" points="273.502,-80.8217 262.975,-79.6212 270.455,-87.1242 273.502,-80.8217"/>
</g>
<!-- Node6 -->
<g id="node11" class="node"><title>Node6</title>
<polygon fill="white" stroke="#bfbfbf" points="343.5,-0.5 343.5,-21.5 378.5,-21.5 378.5,-0.5 343.5,-0.5"/>
<text text-anchor="middle" x="361" y="-8.5" font-family="Helvetica,sans-Serif" font-size="10.00">map</text>
</g>
<!-- Node1&#45;&gt;Node6 -->
<g id="edge24" class="edge"><title>Node1&#45;&gt;Node6</title>
<path fill="none" stroke="midnightblue" d="M361,-116.295C361,-97.1314 361,-56.654 361,-31.8434"/>
<polygon fill="midnightblue" stroke="midnightblue" points="364.5,-31.6792 361,-21.6792 357.5,-31.6792 364.5,-31.6792"/>
</g>
<!-- Node9 -->
<g id="node17" class="node"><title>Node9</title>
<a xlink:href="_tree_8h.html" target="_top" xlink:title="Tree.h">
<polygon fill="white" stroke="black" points="429,-58.5 429,-79.5 473,-79.5 473,-58.5 429,-58.5"/>
<text text-anchor="middle" x="451" y="-66.5" font-family="Helvetica,sans-Serif" font-size="10.00">Tree.h</text>
</a>
</g>
<!-- Node1&#45;&gt;Node9 -->
<g id="edge16" class="edge"><title>Node1&#45;&gt;Node9</title>
<path fill="none" stroke="midnightblue" d="M377.507,-116.362C391.082,-107.614 410.533,-95.0786 426.015,-85.1015"/>
<polygon fill="midnightblue" stroke="midnightblue" points="428.088,-87.9297 434.597,-79.5707 424.296,-82.0457 428.088,-87.9297"/>
</g>
<!-- Node3 -->
<g id="node5" class="node"><title>Node3</title>
<a xlink:href="types_8h.html" target="_top" xlink:title="base/types.h">
<polygon fill="white" stroke="black" points="-0.5,-0.5 -0.5,-21.5 72.5,-21.5 72.5,-0.5 -0.5,-0.5"/>
<text text-anchor="middle" x="36" y="-8.5" font-family="Helvetica,sans-Serif" font-size="10.00">base/types.h</text>
</a>
</g>
<!-- Node2&#45;&gt;Node3 -->
<g id="edge4" class="edge"><title>Node2&#45;&gt;Node3</title>
<path fill="none" stroke="midnightblue" d="M203.876,-58.4966C169.811,-48.8586 119.21,-34.5425 82.4723,-24.1483"/>
<polygon fill="midnightblue" stroke="midnightblue" points="83.0783,-20.6824 72.5031,-21.3277 81.1725,-27.418 83.0783,-20.6824"/>
</g>
<!-- Node4 -->
<g id="node7" class="node"><title>Node4</title>
<polygon fill="white" stroke="#bfbfbf" points="89.5,-0.5 89.5,-21.5 130.5,-21.5 130.5,-0.5 89.5,-0.5"/>
<text text-anchor="middle" x="110" y="-8.5" font-family="Helvetica,sans-Serif" font-size="10.00">string</text>
</g>
<!-- Node2&#45;&gt;Node4 -->
<g id="edge6" class="edge"><title>Node2&#45;&gt;Node4</title>
<path fill="none" stroke="midnightblue" d="M217.277,-58.4966C195.503,-48.8563 163.158,-34.5356 139.68,-24.1408"/>
<polygon fill="midnightblue" stroke="midnightblue" points="141.093,-20.9385 130.532,-20.0904 138.259,-27.3392 141.093,-20.9385"/>
</g>
<!-- Node5 -->
<g id="node9" class="node"><title>Node5</title>
<polygon fill="white" stroke="#bfbfbf" points="148,-0.5 148,-21.5 200,-21.5 200,-0.5 148,-0.5"/>
<text text-anchor="middle" x="174" y="-8.5" font-family="Helvetica,sans-Serif" font-size="10.00">ostream</text>
</g>
<!-- Node2&#45;&gt;Node5 -->
<g id="edge8" class="edge"><title>Node2&#45;&gt;Node5</title>
<path fill="none" stroke="midnightblue" d="M228.711,-58.3619C218.983,-49.9408 205.202,-38.0105 193.905,-28.2308"/>
<polygon fill="midnightblue" stroke="midnightblue" points="196.062,-25.4695 186.211,-21.5707 191.481,-30.7619 196.062,-25.4695"/>
</g>
<!-- Node2&#45;&gt;Node6 -->
<g id="edge10" class="edge"><title>Node2&#45;&gt;Node6</title>
<path fill="none" stroke="midnightblue" d="M262.731,-58.4966C282.762,-48.815 312.56,-34.4128 334.088,-24.0074"/>
<polygon fill="midnightblue" stroke="midnightblue" points="335.852,-27.0421 343.333,-19.5391 332.806,-20.7396 335.852,-27.0421"/>
</g>
<!-- Node7 -->
<g id="node13" class="node"><title>Node7</title>
<polygon fill="white" stroke="#bfbfbf" points="217.5,-0.5 217.5,-21.5 264.5,-21.5 264.5,-0.5 217.5,-0.5"/>
<text text-anchor="middle" x="241" y="-8.5" font-family="Helvetica,sans-Serif" font-size="10.00">iterator</text>
</g>
<!-- Node2&#45;&gt;Node7 -->
<g id="edge12" class="edge"><title>Node2&#45;&gt;Node7</title>
<path fill="none" stroke="midnightblue" d="M241,-58.3619C241,-50.9219 241,-40.7427 241,-31.7276"/>
<polygon fill="midnightblue" stroke="midnightblue" points="244.5,-31.5706 241,-21.5707 237.5,-31.5707 244.5,-31.5706"/>
</g>
<!-- Node8 -->
<g id="node15" class="node"><title>Node8</title>
<polygon fill="white" stroke="#bfbfbf" points="282,-0.5 282,-21.5 326,-21.5 326,-0.5 282,-0.5"/>
<text text-anchor="middle" x="304" y="-8.5" font-family="Helvetica,sans-Serif" font-size="10.00">vector</text>
</g>
<!-- Node2&#45;&gt;Node8 -->
<g id="edge14" class="edge"><title>Node2&#45;&gt;Node8</title>
<path fill="none" stroke="midnightblue" d="M252.555,-58.3619C261.613,-50.0226 274.41,-38.2418 284.974,-28.5162"/>
<polygon fill="midnightblue" stroke="midnightblue" points="287.532,-30.9187 292.518,-21.5707 282.79,-25.7688 287.532,-30.9187"/>
</g>
<!-- Node10 -->
<g id="node19" class="node"><title>Node10</title>
<polygon fill="white" stroke="#bfbfbf" points="396,-0.5 396,-21.5 448,-21.5 448,-0.5 396,-0.5"/>
<text text-anchor="middle" x="422" y="-8.5" font-family="Helvetica,sans-Serif" font-size="10.00">memory</text>
</g>
<!-- Node9&#45;&gt;Node10 -->
<g id="edge18" class="edge"><title>Node9&#45;&gt;Node10</title>
<path fill="none" stroke="midnightblue" d="M445.681,-58.3619C441.797,-50.5949 436.421,-39.8426 431.773,-30.5458"/>
<polygon fill="midnightblue" stroke="midnightblue" points="434.888,-28.9497 427.285,-21.5707 428.627,-32.0802 434.888,-28.9497"/>
</g>
<!-- Node11 -->
<g id="node21" class="node"><title>Node11</title>
<polygon fill="white" stroke="#bfbfbf" points="465.5,-0.5 465.5,-21.5 494.5,-21.5 494.5,-0.5 465.5,-0.5"/>
<text text-anchor="middle" x="480" y="-8.5" font-family="Helvetica,sans-Serif" font-size="10.00">list</text>
</g>
<!-- Node9&#45;&gt;Node11 -->
<g id="edge20" class="edge"><title>Node9&#45;&gt;Node11</title>
<path fill="none" stroke="midnightblue" d="M456.319,-58.3619C460.203,-50.5949 465.579,-39.8426 470.227,-30.5458"/>
<polygon fill="midnightblue" stroke="midnightblue" points="473.373,-32.0802 474.715,-21.5707 467.112,-28.9497 473.373,-32.0802"/>
</g>
<!-- Node12 -->
<g id="node23" class="node"><title>Node12</title>
<polygon fill="white" stroke="#bfbfbf" points="512,-0.5 512,-21.5 568,-21.5 568,-0.5 512,-0.5"/>
<text text-anchor="middle" x="540" y="-8.5" font-family="Helvetica,sans-Serif" font-size="10.00">algorithm</text>
</g>
<!-- Node9&#45;&gt;Node12 -->
<g id="edge22" class="edge"><title>Node9&#45;&gt;Node12</title>
<path fill="none" stroke="midnightblue" d="M467.324,-58.3619C480.748,-49.6138 499.983,-37.0786 515.293,-27.1015"/>
<polygon fill="midnightblue" stroke="midnightblue" points="517.312,-29.9628 523.78,-21.5707 513.491,-24.0982 517.312,-29.9628"/>
</g>
</g>
</svg>
