<?xml version="1.0" encoding="UTF-8" standalone="no"?>
<!DOCTYPE svg PUBLIC "-//W3C//DTD SVG 1.1//EN"
 "http://www.w3.org/Graphics/SVG/1.1/DTD/svg11.dtd">
<!-- Generated by graphviz version 2.26.3 (20100126.1600)
 -->
<!-- Title: src/analysis/data/Particle.h Pages: 1 -->
<svg width="1097pt" height="320pt"
 viewBox="0.00 0.00 1096.73 320.00" xmlns="http://www.w3.org/2000/svg" xmlns:xlink="http://www.w3.org/1999/xlink">
<g id="graph1" class="graph" transform="scale(1 1) rotate(0) translate(4 316)">
<title>src/analysis/data/Particle.h</title>
<polygon fill="white" stroke="white" points="-4,5 -4,-316 1093.73,-316 1093.73,5 -4,5"/>
<!-- Node1 -->
<g id="node1" class="node"><title>Node1</title>
<polygon fill="#bfbfbf" stroke="black" points="589.231,-290.5 589.231,-311.5 724.231,-311.5 724.231,-290.5 589.231,-290.5"/>
<text text-anchor="middle" x="656.731" y="-298.5" font-family="Helvetica,sans-Serif" font-size="10.00">src/analysis/data/Particle.h</text>
</g>
<!-- Node2 -->
<g id="node3" class="node"><title>Node2</title>
<a xlink:href="_candidate_8h.html" target="_top" xlink:title="analysis/data/Candidate.h">
<polygon fill="white" stroke="black" points="215.731,-232.5 215.731,-253.5 345.731,-253.5 345.731,-232.5 215.731,-232.5"/>
<text text-anchor="middle" x="280.731" y="-240.5" font-family="Helvetica,sans-Serif" font-size="10.00">analysis/data/Candidate.h</text>
</a>
</g>
<!-- Node1&#45;&gt;Node2 -->
<g id="edge2" class="edge"><title>Node1&#45;&gt;Node2</title>
<path fill="none" stroke="midnightblue" d="M589.076,-290.564C523.515,-280.451 424.268,-265.141 356.185,-254.639"/>
<polygon fill="midnightblue" stroke="midnightblue" points="356.372,-251.127 345.955,-253.061 355.305,-258.045 356.372,-251.127"/>
</g>
<!-- Node3 -->
<g id="node5" class="node"><title>Node3</title>
<a xlink:href="printable_8h.html" target="_top" xlink:title="base/printable.h">
<polygon fill="white" stroke="black" points="11.7312,-58.5 11.7312,-79.5 97.7312,-79.5 97.7312,-58.5 11.7312,-58.5"/>
<text text-anchor="middle" x="54.7312" y="-66.5" font-family="Helvetica,sans-Serif" font-size="10.00">base/printable.h</text>
</a>
</g>
<!-- Node1&#45;&gt;Node3 -->
<g id="edge46" class="edge"><title>Node1&#45;&gt;Node3</title>
<path fill="none" stroke="midnightblue" d="M589.095,-296.779C481.621,-289.594 276.838,-273.82 206.731,-254 149.344,-237.776 127.049,-239.005 85.7312,-196 57.9528,-167.087 53.7505,-117.6 53.8139,-89.703"/>
<polygon fill="midnightblue" stroke="midnightblue" points="57.3171,-89.5848 54.0325,-79.512 50.3187,-89.4346 57.3171,-89.5848"/>
</g>
<!-- Node4 -->
<g id="node7" class="node"><title>Node4</title>
<polygon fill="white" stroke="#bfbfbf" points="539.731,-0.5 539.731,-21.5 583.731,-21.5 583.731,-0.5 539.731,-0.5"/>
<text text-anchor="middle" x="561.731" y="-8.5" font-family="Helvetica,sans-Serif" font-size="10.00">vector</text>
</g>
<!-- Node1&#45;&gt;Node4 -->
<g id="edge74" class="edge"><title>Node1&#45;&gt;Node4</title>
<path fill="none" stroke="midnightblue" d="M709.31,-290.423C740.283,-282.905 779.569,-271.078 811.731,-254 854.706,-231.18 896.731,-233.658 896.731,-185 896.731,-185 896.731,-185 896.731,-127 896.731,-63.3286 677.91,-26.8055 593.973,-15.1379"/>
<polygon fill="midnightblue" stroke="midnightblue" points="594.352,-11.6572 583.971,-13.7771 593.408,-18.5933 594.352,-11.6572"/>
</g>
<!-- Node6 -->
<g id="node11" class="node"><title>Node6</title>
<a xlink:href="types_8h.html" target="_top" xlink:title="base/types.h">
<polygon fill="white" stroke="black" points="346.231,-174.5 346.231,-195.5 419.231,-195.5 419.231,-174.5 346.231,-174.5"/>
<text text-anchor="middle" x="382.731" y="-182.5" font-family="Helvetica,sans-Serif" font-size="10.00">base/types.h</text>
</a>
</g>
<!-- Node1&#45;&gt;Node6 -->
<g id="edge48" class="edge"><title>Node1&#45;&gt;Node6</title>
<path fill="none" stroke="midnightblue" d="M611.035,-290.443C579.144,-282.328 535.973,-269.832 499.731,-254 465.773,-239.166 429.42,-216.545 406.407,-201.286"/>
<polygon fill="midnightblue" stroke="midnightblue" points="408.238,-198.3 397.985,-195.634 404.338,-204.112 408.238,-198.3"/>
</g>
<!-- Node14 -->
<g id="node30" class="node"><title>Node14</title>
<polygon fill="white" stroke="#bfbfbf" points="732.231,-116.5 732.231,-137.5 761.231,-137.5 761.231,-116.5 732.231,-116.5"/>
<text text-anchor="middle" x="746.731" y="-124.5" font-family="Helvetica,sans-Serif" font-size="10.00">list</text>
</g>
<!-- Node1&#45;&gt;Node14 -->
<g id="edge76" class="edge"><title>Node1&#45;&gt;Node14</title>
<path fill="none" stroke="midnightblue" d="M702.057,-290.472C747.249,-277.167 813.587,-249.269 839.731,-196 855.557,-163.755 803.995,-142.91 771.398,-133.258"/>
<polygon fill="midnightblue" stroke="midnightblue" points="772.163,-129.838 761.59,-130.518 770.279,-136.58 772.163,-129.838"/>
</g>
<!-- Node16 -->
<g id="node37" class="node"><title>Node16</title>
<polygon fill="white" stroke="#bfbfbf" points="436.731,-174.5 436.731,-195.5 488.731,-195.5 488.731,-174.5 436.731,-174.5"/>
<text text-anchor="middle" x="462.731" y="-182.5" font-family="Helvetica,sans-Serif" font-size="10.00">memory</text>
</g>
<!-- Node1&#45;&gt;Node16 -->
<g id="edge80" class="edge"><title>Node1&#45;&gt;Node16</title>
<path fill="none" stroke="midnightblue" d="M615.841,-290.446C590.376,-282.739 557.65,-270.705 531.731,-254 510.345,-240.216 490.304,-218.857 477.39,-203.555"/>
<polygon fill="midnightblue" stroke="midnightblue" points="480.039,-201.266 470.985,-195.764 474.632,-205.711 480.039,-201.266"/>
</g>
<!-- Node17 -->
<g id="node42" class="node"><title>Node17</title>
<a xlink:href="_particle_type_8h.html" target="_top" xlink:title="base/ParticleType.h">
<polygon fill="white" stroke="black" points="540.731,-232.5 540.731,-253.5 644.731,-253.5 644.731,-232.5 540.731,-232.5"/>
<text text-anchor="middle" x="592.731" y="-240.5" font-family="Helvetica,sans-Serif" font-size="10.00">base/ParticleType.h</text>
</a>
</g>
<!-- Node1&#45;&gt;Node17 -->
<g id="edge50" class="edge"><title>Node1&#45;&gt;Node17</title>
<path fill="none" stroke="midnightblue" d="M644.993,-290.362C635.791,-282.023 622.791,-270.242 612.059,-260.516"/>
<polygon fill="midnightblue" stroke="midnightblue" points="614.156,-257.692 604.395,-253.571 609.455,-262.879 614.156,-257.692"/>
</g>
<!-- Node20 -->
<g id="node52" class="node"><title>Node20</title>
<a xlink:href="_tree_8h.html" target="_top" xlink:title="base/Tree.h">
<polygon fill="white" stroke="black" points="687.731,-232.5 687.731,-253.5 755.731,-253.5 755.731,-232.5 687.731,-232.5"/>
<text text-anchor="middle" x="721.731" y="-240.5" font-family="Helvetica,sans-Serif" font-size="10.00">base/Tree.h</text>
</a>
</g>
<!-- Node1&#45;&gt;Node20 -->
<g id="edge64" class="edge"><title>Node1&#45;&gt;Node20</title>
<path fill="none" stroke="midnightblue" d="M668.653,-290.362C678.091,-281.941 691.461,-270.011 702.421,-260.231"/>
<polygon fill="midnightblue" stroke="midnightblue" points="704.754,-262.84 709.885,-253.571 700.093,-257.617 704.754,-262.84"/>
</g>
<!-- Node22 -->
<g id="node58" class="node"><title>Node22</title>
<polygon fill="white" stroke="#bfbfbf" points="924.731,-232.5 924.731,-253.5 1016.73,-253.5 1016.73,-232.5 924.731,-232.5"/>
<text text-anchor="middle" x="970.731" y="-240.5" font-family="Helvetica,sans-Serif" font-size="10.00">TLorentzVector.h</text>
</g>
<!-- Node1&#45;&gt;Node22 -->
<g id="edge72" class="edge"><title>Node1&#45;&gt;Node22</title>
<path fill="none" stroke="midnightblue" d="M713.594,-290.497C770.613,-279.965 857.874,-263.846 914.623,-253.364"/>
<polygon fill="midnightblue" stroke="midnightblue" points="915.304,-256.797 924.502,-251.539 914.033,-249.914 915.304,-256.797"/>
</g>
<!-- Node23 -->
<g id="node62" class="node"><title>Node23</title>
<polygon fill="white" stroke="#bfbfbf" points="1034.73,-232.5 1034.73,-253.5 1088.73,-253.5 1088.73,-232.5 1034.73,-232.5"/>
<text text-anchor="middle" x="1061.73" y="-240.5" font-family="Helvetica,sans-Serif" font-size="10.00">iostream</text>
</g>
<!-- Node1&#45;&gt;Node23 -->
<g id="edge78" class="edge"><title>Node1&#45;&gt;Node23</title>
<path fill="none" stroke="midnightblue" d="M724.308,-295.86C796.568,-289.586 914.546,-277.106 1024.42,-254.014"/>
<polygon fill="midnightblue" stroke="midnightblue" points="1025.29,-257.406 1034.34,-251.894 1023.83,-250.561 1025.29,-257.406"/>
</g>
<!-- Node2&#45;&gt;Node3 -->
<g id="edge4" class="edge"><title>Node2&#45;&gt;Node3</title>
<path fill="none" stroke="midnightblue" d="M222.108,-232.499C179.568,-223.862 126.642,-210.688 109.731,-196 77.5421,-168.042 63.5517,-117.825 57.9965,-89.6383"/>
<polygon fill="midnightblue" stroke="midnightblue" points="61.4209,-88.9052 56.2074,-79.6819 54.5313,-90.1433 61.4209,-88.9052"/>
</g>
<!-- Node2&#45;&gt;Node4 -->
<g id="edge44" class="edge"><title>Node2&#45;&gt;Node4</title>
<path fill="none" stroke="midnightblue" d="M287.806,-232.136C297.679,-217.578 316.754,-191.544 337.731,-174 403.066,-119.358 439.397,-134.642 504.731,-80 522.103,-65.4712 538.17,-45.12 548.787,-30.2857"/>
<polygon fill="midnightblue" stroke="midnightblue" points="551.811,-32.069 554.657,-21.8635 546.068,-28.0667 551.811,-32.069"/>
</g>
<!-- Node5 -->
<g id="node9" class="node"><title>Node5</title>
<polygon fill="white" stroke="#bfbfbf" points="28.7312,-0.5 28.7312,-21.5 80.7312,-21.5 80.7312,-0.5 28.7312,-0.5"/>
<text text-anchor="middle" x="54.7312" y="-8.5" font-family="Helvetica,sans-Serif" font-size="10.00">ostream</text>
</g>
<!-- Node2&#45;&gt;Node5 -->
<g id="edge40" class="edge"><title>Node2&#45;&gt;Node5</title>
<path fill="none" stroke="midnightblue" d="M216.324,-232.475C168.101,-223.68 106.955,-210.307 85.7312,-196 33.1652,-160.566 22.1021,-140.362 2.73119,-80 -0.256562,-70.6899 -1.23731,-66.9362 2.73119,-58 8.1332,-45.8358 18.4113,-35.4865 28.4128,-27.6217"/>
<polygon fill="midnightblue" stroke="midnightblue" points="30.6258,-30.3395 36.6359,-21.6143 26.4964,-24.6872 30.6258,-30.3395"/>
</g>
<!-- Node2&#45;&gt;Node6 -->
<g id="edge10" class="edge"><title>Node2&#45;&gt;Node6</title>
<path fill="none" stroke="midnightblue" d="M299.44,-232.362C315.112,-223.45 337.695,-210.609 355.394,-200.545"/>
<polygon fill="midnightblue" stroke="midnightblue" points="357.179,-203.556 364.141,-195.571 353.718,-197.471 357.179,-203.556"/>
</g>
<!-- Node7 -->
<g id="node13" class="node"><title>Node7</title>
<a xlink:href="_detector__t_8h.html" target="_top" xlink:title="base/Detector_t.h">
<polygon fill="white" stroke="black" points="273.231,-116.5 273.231,-137.5 368.231,-137.5 368.231,-116.5 273.231,-116.5"/>
<text text-anchor="middle" x="320.731" y="-124.5" font-family="Helvetica,sans-Serif" font-size="10.00">base/Detector_t.h</text>
</a>
</g>
<!-- Node2&#45;&gt;Node7 -->
<g id="edge12" class="edge"><title>Node2&#45;&gt;Node7</title>
<path fill="none" stroke="midnightblue" d="M284.423,-232.295C291.09,-212.959 305.241,-171.923 313.774,-147.177"/>
<polygon fill="midnightblue" stroke="midnightblue" points="317.098,-148.274 317.049,-137.679 310.48,-145.992 317.098,-148.274"/>
</g>
<!-- Node8 -->
<g id="node16" class="node"><title>Node8</title>
<polygon fill="white" stroke="#bfbfbf" points="115.231,-58.5 115.231,-79.5 180.231,-79.5 180.231,-58.5 115.231,-58.5"/>
<text text-anchor="middle" x="147.731" y="-66.5" font-family="Helvetica,sans-Serif" font-size="10.00">TVector3.h</text>
</g>
<!-- Node2&#45;&gt;Node8 -->
<g id="edge38" class="edge"><title>Node2&#45;&gt;Node8</title>
<path fill="none" stroke="midnightblue" d="M225.617,-232.482C187.272,-224.019 140.778,-211.076 127.731,-196 104.318,-168.944 108.966,-150.422 118.731,-116 121.545,-106.081 127.112,-96.2026 132.622,-88.0804"/>
<polygon fill="midnightblue" stroke="midnightblue" points="135.628,-89.8969 138.67,-79.748 129.963,-85.7851 135.628,-89.8969"/>
</g>
<!-- Node13 -->
<g id="node27" class="node"><title>Node13</title>
<a xlink:href="_cluster_8h.html" target="_top" xlink:title="analysis/data/Cluster.h">
<polygon fill="white" stroke="black" points="136.231,-174.5 136.231,-195.5 253.231,-195.5 253.231,-174.5 136.231,-174.5"/>
<text text-anchor="middle" x="194.731" y="-182.5" font-family="Helvetica,sans-Serif" font-size="10.00">analysis/data/Cluster.h</text>
</a>
</g>
<!-- Node2&#45;&gt;Node13 -->
<g id="edge28" class="edge"><title>Node2&#45;&gt;Node13</title>
<path fill="none" stroke="midnightblue" d="M264.957,-232.362C252.107,-223.696 233.746,-211.313 219.022,-201.382"/>
<polygon fill="midnightblue" stroke="midnightblue" points="220.653,-198.26 210.405,-195.571 216.739,-204.064 220.653,-198.26"/>
</g>
<!-- Node2&#45;&gt;Node16 -->
<g id="edge42" class="edge"><title>Node2&#45;&gt;Node16</title>
<path fill="none" stroke="midnightblue" d="M313.69,-232.497C345.625,-222.32 393.926,-206.927 426.824,-196.443"/>
<polygon fill="midnightblue" stroke="midnightblue" points="428.039,-199.729 436.504,-193.358 425.913,-193.06 428.039,-199.729"/>
</g>
<!-- Node3&#45;&gt;Node4 -->
<g id="edge6" class="edge"><title>Node3&#45;&gt;Node4</title>
<path fill="none" stroke="midnightblue" d="M97.7966,-59.5244C100.814,-58.9732 103.814,-58.4579 106.731,-58 264.133,-33.2928 454.286,-18.4444 529.176,-13.1773"/>
<polygon fill="midnightblue" stroke="midnightblue" points="529.637,-16.6538 539.371,-12.4697 529.153,-9.67062 529.637,-16.6538"/>
</g>
<!-- Node3&#45;&gt;Node5 -->
<g id="edge8" class="edge"><title>Node3&#45;&gt;Node5</title>
<path fill="none" stroke="midnightblue" d="M54.7312,-58.3619C54.7312,-50.9219 54.7312,-40.7427 54.7312,-31.7276"/>
<polygon fill="midnightblue" stroke="midnightblue" points="58.2313,-31.5706 54.7312,-21.5707 51.2313,-31.5707 58.2313,-31.5706"/>
</g>
<!-- Node7&#45;&gt;Node3 -->
<g id="edge14" class="edge"><title>Node7&#45;&gt;Node3</title>
<path fill="none" stroke="midnightblue" d="M273.176,-116.631C226.718,-106.501 156.14,-91.1117 107.862,-80.5848"/>
<polygon fill="midnightblue" stroke="midnightblue" points="108.431,-77.1268 97.9147,-78.416 106.94,-83.9661 108.431,-77.1268"/>
</g>
<!-- Node7&#45;&gt;Node4 -->
<g id="edge26" class="edge"><title>Node7&#45;&gt;Node4</title>
<path fill="none" stroke="midnightblue" d="M341.11,-116.369C359.015,-106.968 385.725,-92.7986 408.731,-80 425.785,-70.5129 429.213,-66.6005 446.731,-58 474.345,-44.443 506.885,-31.4035 530.291,-22.5129"/>
<polygon fill="midnightblue" stroke="midnightblue" points="531.593,-25.7625 539.722,-18.9673 529.13,-19.2103 531.593,-25.7625"/>
</g>
<!-- Node7&#45;&gt;Node8 -->
<g id="edge16" class="edge"><title>Node7&#45;&gt;Node8</title>
<path fill="none" stroke="midnightblue" d="M289.402,-116.497C261.199,-107.041 219.565,-93.0829 188.723,-82.7428"/>
<polygon fill="midnightblue" stroke="midnightblue" points="189.713,-79.3834 179.119,-79.5231 187.488,-86.0203 189.713,-79.3834"/>
</g>
<!-- Node9 -->
<g id="node18" class="node"><title>Node9</title>
<polygon fill="white" stroke="#bfbfbf" points="197.731,-58.5 197.731,-79.5 243.731,-79.5 243.731,-58.5 197.731,-58.5"/>
<text text-anchor="middle" x="220.731" y="-66.5" font-family="Helvetica,sans-Serif" font-size="10.00">cstdint</text>
</g>
<!-- Node7&#45;&gt;Node9 -->
<g id="edge18" class="edge"><title>Node7&#45;&gt;Node9</title>
<path fill="none" stroke="midnightblue" d="M302.39,-116.362C287.166,-107.532 265.29,-94.844 248.011,-84.8224"/>
<polygon fill="midnightblue" stroke="midnightblue" points="249.363,-81.5603 238.956,-79.5707 245.851,-87.6155 249.363,-81.5603"/>
</g>
<!-- Node10 -->
<g id="node20" class="node"><title>Node10</title>
<polygon fill="white" stroke="#bfbfbf" points="261.231,-58.5 261.231,-79.5 320.231,-79.5 320.231,-58.5 261.231,-58.5"/>
<text text-anchor="middle" x="290.731" y="-66.5" font-family="Helvetica,sans-Serif" font-size="10.00">stdexcept</text>
</g>
<!-- Node7&#45;&gt;Node10 -->
<g id="edge20" class="edge"><title>Node7&#45;&gt;Node10</title>
<path fill="none" stroke="midnightblue" d="M315.229,-116.362C311.211,-108.595 305.65,-97.8426 300.841,-88.5458"/>
<polygon fill="midnightblue" stroke="midnightblue" points="303.902,-86.8448 296.199,-79.5707 297.684,-90.0608 303.902,-86.8448"/>
</g>
<!-- Node11 -->
<g id="node22" class="node"><title>Node11</title>
<polygon fill="white" stroke="#bfbfbf" points="455.231,-58.5 455.231,-79.5 496.231,-79.5 496.231,-58.5 455.231,-58.5"/>
<text text-anchor="middle" x="475.731" y="-66.5" font-family="Helvetica,sans-Serif" font-size="10.00">string</text>
</g>
<!-- Node7&#45;&gt;Node11 -->
<g id="edge22" class="edge"><title>Node7&#45;&gt;Node11</title>
<path fill="none" stroke="midnightblue" d="M348.801,-116.497C375.995,-106.321 417.125,-90.93 445.142,-80.4462"/>
<polygon fill="midnightblue" stroke="midnightblue" points="446.682,-83.6072 454.821,-76.8245 444.228,-77.0511 446.682,-83.6072"/>
</g>
<!-- Node12 -->
<g id="node24" class="node"><title>Node12</title>
<polygon fill="white" stroke="#bfbfbf" points="337.731,-58.5 337.731,-79.5 399.731,-79.5 399.731,-58.5 337.731,-58.5"/>
<text text-anchor="middle" x="368.731" y="-66.5" font-family="Helvetica,sans-Serif" font-size="10.00">type_traits</text>
</g>
<!-- Node7&#45;&gt;Node12 -->
<g id="edge24" class="edge"><title>Node7&#45;&gt;Node12</title>
<path fill="none" stroke="midnightblue" d="M329.535,-116.362C336.234,-108.268 345.615,-96.9318 353.521,-87.3796"/>
<polygon fill="midnightblue" stroke="midnightblue" points="356.304,-89.5061 359.983,-79.5707 350.911,-85.0431 356.304,-89.5061"/>
</g>
<!-- Node13&#45;&gt;Node7 -->
<g id="edge30" class="edge"><title>Node13&#45;&gt;Node7</title>
<path fill="none" stroke="midnightblue" d="M217.549,-174.497C237.317,-165.397 266.144,-152.127 288.307,-141.925"/>
<polygon fill="midnightblue" stroke="midnightblue" points="290.037,-144.982 297.658,-137.621 287.11,-138.623 290.037,-144.982"/>
</g>
<!-- Node13&#45;&gt;Node8 -->
<g id="edge34" class="edge"><title>Node13&#45;&gt;Node8</title>
<path fill="none" stroke="midnightblue" d="M205.973,-174.445C219.224,-160.671 238.089,-135.973 226.731,-116 218.577,-101.661 204.13,-91.2393 189.8,-83.9088"/>
<polygon fill="midnightblue" stroke="midnightblue" points="191.007,-80.609 180.467,-79.528 188.032,-86.9456 191.007,-80.609"/>
</g>
<!-- Node13&#45;&gt;Node14 -->
<g id="edge32" class="edge"><title>Node13&#45;&gt;Node14</title>
<path fill="none" stroke="midnightblue" d="M253.282,-178.848C372.512,-166.32 639.184,-138.3 721.827,-129.617"/>
<polygon fill="midnightblue" stroke="midnightblue" points="722.236,-133.093 731.815,-128.567 721.504,-126.131 722.236,-133.093"/>
</g>
<!-- Node15 -->
<g id="node33" class="node"><title>Node15</title>
<a xlink:href="enumfield_8h.html" target="_top" xlink:title="base/enumfield.h">
<polygon fill="white" stroke="black" points="127.231,-116.5 127.231,-137.5 218.231,-137.5 218.231,-116.5 127.231,-116.5"/>
<text text-anchor="middle" x="172.731" y="-124.5" font-family="Helvetica,sans-Serif" font-size="10.00">base/enumfield.h</text>
</a>
</g>
<!-- Node13&#45;&gt;Node15 -->
<g id="edge36" class="edge"><title>Node13&#45;&gt;Node15</title>
<path fill="none" stroke="midnightblue" d="M190.696,-174.362C187.812,-166.758 183.843,-156.294 180.369,-147.135"/>
<polygon fill="midnightblue" stroke="midnightblue" points="183.56,-145.679 176.741,-137.571 177.015,-148.162 183.56,-145.679"/>
</g>
<!-- Node17&#45;&gt;Node4 -->
<g id="edge62" class="edge"><title>Node17&#45;&gt;Node4</title>
<path fill="none" stroke="midnightblue" d="M592.491,-232.467C591.687,-204.053 588.378,-123.556 575.731,-58 574.027,-49.1646 571.344,-39.6139 568.78,-31.4443"/>
<polygon fill="midnightblue" stroke="midnightblue" points="572.018,-30.085 565.572,-21.6766 565.367,-32.2695 572.018,-30.085"/>
</g>
<!-- Node17&#45;&gt;Node5 -->
<g id="edge56" class="edge"><title>Node17&#45;&gt;Node5</title>
<path fill="none" stroke="midnightblue" d="M591.282,-232.341C586.244,-199.835 566.298,-101.53 504.731,-58 471.164,-34.2671 191.581,-17.92 90.7821,-12.7496"/>
<polygon fill="midnightblue" stroke="midnightblue" points="90.9353,-9.25295 80.7711,-12.2428 90.5814,-16.244 90.9353,-9.25295"/>
</g>
<!-- Node17&#45;&gt;Node6 -->
<g id="edge52" class="edge"><title>Node17&#45;&gt;Node6</title>
<path fill="none" stroke="midnightblue" d="M554.702,-232.497C519.439,-222.757 466.882,-208.242 429.157,-197.822"/>
<polygon fill="midnightblue" stroke="midnightblue" points="429.993,-194.422 419.422,-195.134 428.129,-201.17 429.993,-194.422"/>
</g>
<!-- Node17&#45;&gt;Node11 -->
<g id="edge54" class="edge"><title>Node17&#45;&gt;Node11</title>
<path fill="none" stroke="midnightblue" d="M578.17,-232.232C566.939,-223.4 551.546,-210.096 540.731,-196 514.493,-161.803 493.891,-115.412 483.387,-89.2081"/>
<polygon fill="midnightblue" stroke="midnightblue" points="486.535,-87.6486 479.632,-79.6114 480.016,-90.1993 486.535,-87.6486"/>
</g>
<!-- Node18 -->
<g id="node47" class="node"><title>Node18</title>
<polygon fill="white" stroke="#bfbfbf" points="620.231,-174.5 620.231,-195.5 655.231,-195.5 655.231,-174.5 620.231,-174.5"/>
<text text-anchor="middle" x="637.731" y="-182.5" font-family="Helvetica,sans-Serif" font-size="10.00">map</text>
</g>
<!-- Node17&#45;&gt;Node18 -->
<g id="edge58" class="edge"><title>Node17&#45;&gt;Node18</title>
<path fill="none" stroke="midnightblue" d="M600.985,-232.362C607.201,-224.35 615.883,-213.161 623.246,-203.67"/>
<polygon fill="midnightblue" stroke="midnightblue" points="626.165,-205.617 629.53,-195.571 620.635,-201.326 626.165,-205.617"/>
</g>
<!-- Node19 -->
<g id="node49" class="node"><title>Node19</title>
<polygon fill="white" stroke="#bfbfbf" points="672.231,-174.5 672.231,-195.5 719.231,-195.5 719.231,-174.5 672.231,-174.5"/>
<text text-anchor="middle" x="695.731" y="-182.5" font-family="Helvetica,sans-Serif" font-size="10.00">iterator</text>
</g>
<!-- Node17&#45;&gt;Node19 -->
<g id="edge60" class="edge"><title>Node17&#45;&gt;Node19</title>
<path fill="none" stroke="midnightblue" d="M611.623,-232.362C627.449,-223.45 650.254,-210.609 668.126,-200.545"/>
<polygon fill="midnightblue" stroke="midnightblue" points="669.963,-203.527 676.959,-195.571 666.528,-197.428 669.963,-203.527"/>
</g>
<!-- Node20&#45;&gt;Node14 -->
<g id="edge68" class="edge"><title>Node20&#45;&gt;Node14</title>
<path fill="none" stroke="midnightblue" d="M724.038,-232.295C728.187,-213.045 736.971,-172.289 742.311,-147.509"/>
<polygon fill="midnightblue" stroke="midnightblue" points="745.744,-148.192 744.43,-137.679 738.901,-146.717 745.744,-148.192"/>
</g>
<!-- Node20&#45;&gt;Node16 -->
<g id="edge66" class="edge"><title>Node20&#45;&gt;Node16</title>
<path fill="none" stroke="midnightblue" d="M687.605,-235.358C638.745,-224.416 549.24,-204.373 499.146,-193.155"/>
<polygon fill="midnightblue" stroke="midnightblue" points="499.607,-189.671 489.083,-190.901 498.077,-196.502 499.607,-189.671"/>
</g>
<!-- Node21 -->
<g id="node56" class="node"><title>Node21</title>
<polygon fill="white" stroke="#bfbfbf" points="774.731,-174.5 774.731,-195.5 830.731,-195.5 830.731,-174.5 774.731,-174.5"/>
<text text-anchor="middle" x="802.731" y="-182.5" font-family="Helvetica,sans-Serif" font-size="10.00">algorithm</text>
</g>
<!-- Node20&#45;&gt;Node21 -->
<g id="edge70" class="edge"><title>Node20&#45;&gt;Node21</title>
<path fill="none" stroke="midnightblue" d="M736.588,-232.362C748.577,-223.777 765.659,-211.546 779.46,-201.664"/>
<polygon fill="midnightblue" stroke="midnightblue" points="781.876,-204.238 787.969,-195.571 777.8,-198.547 781.876,-204.238"/>
</g>
</g>
</svg>
