<?xml version="1.0" encoding="UTF-8" standalone="no"?>
<!DOCTYPE svg PUBLIC "-//W3C//DTD SVG 1.1//EN"
 "http://www.w3.org/Graphics/SVG/1.1/DTD/svg11.dtd">
<!-- Generated by graphviz version 2.26.3 (20100126.1600)
 -->
<!-- Title: src/analysis/data/Particle.cc Pages: 1 -->
<svg width="1232pt" height="378pt"
 viewBox="0.00 0.00 1232.00 378.00" xmlns="http://www.w3.org/2000/svg" xmlns:xlink="http://www.w3.org/1999/xlink">
<g id="graph1" class="graph" transform="scale(1 1) rotate(0) translate(4 374)">
<title>src/analysis/data/Particle.cc</title>
<polygon fill="white" stroke="white" points="-4,5 -4,-374 1229,-374 1229,5 -4,5"/>
<!-- Node1 -->
<g id="node1" class="node"><title>Node1</title>
<polygon fill="#bfbfbf" stroke="black" points="827,-348.5 827,-369.5 967,-369.5 967,-348.5 827,-348.5"/>
<text text-anchor="middle" x="897" y="-356.5" font-family="Helvetica,sans-Serif" font-size="10.00">src/analysis/data/Particle.cc</text>
</g>
<!-- Node2 -->
<g id="node3" class="node"><title>Node2</title>
<a xlink:href="_particle_8h.html" target="_top" xlink:title="Particle.h">
<polygon fill="white" stroke="black" points="621,-290.5 621,-311.5 679,-311.5 679,-290.5 621,-290.5"/>
<text text-anchor="middle" x="650" y="-298.5" font-family="Helvetica,sans-Serif" font-size="10.00">Particle.h</text>
</a>
</g>
<!-- Node1&#45;&gt;Node2 -->
<g id="edge2" class="edge"><title>Node1&#45;&gt;Node2</title>
<path fill="none" stroke="midnightblue" d="M852.27,-348.497C805.71,-337.564 733.515,-320.611 689.144,-310.192"/>
<polygon fill="midnightblue" stroke="midnightblue" points="689.842,-306.761 679.307,-307.882 688.242,-313.575 689.842,-306.761"/>
</g>
<!-- Node25 -->
<g id="node67" class="node"><title>Node25</title>
<a xlink:href="math_8h.html" target="_top" xlink:title="base/std_ext/math.h">
<polygon fill="white" stroke="black" points="1091,-290.5 1091,-311.5 1197,-311.5 1197,-290.5 1091,-290.5"/>
<text text-anchor="middle" x="1144" y="-298.5" font-family="Helvetica,sans-Serif" font-size="10.00">base/std_ext/math.h</text>
</a>
</g>
<!-- Node1&#45;&gt;Node25 -->
<g id="edge84" class="edge"><title>Node1&#45;&gt;Node25</title>
<path fill="none" stroke="midnightblue" d="M941.73,-348.497C983.218,-338.755 1045.06,-324.233 1089.43,-313.813"/>
<polygon fill="midnightblue" stroke="midnightblue" points="1090.25,-317.216 1099.19,-311.523 1088.65,-310.402 1090.25,-317.216"/>
</g>
<!-- Node3 -->
<g id="node5" class="node"><title>Node3</title>
<a xlink:href="_candidate_8h.html" target="_top" xlink:title="analysis/data/Candidate.h">
<polygon fill="white" stroke="black" points="365,-232.5 365,-253.5 495,-253.5 495,-232.5 365,-232.5"/>
<text text-anchor="middle" x="430" y="-240.5" font-family="Helvetica,sans-Serif" font-size="10.00">analysis/data/Candidate.h</text>
</a>
</g>
<!-- Node2&#45;&gt;Node3 -->
<g id="edge4" class="edge"><title>Node2&#45;&gt;Node3</title>
<path fill="none" stroke="midnightblue" d="M620.786,-293.298C584.893,-283.835 523.426,-267.63 479.972,-256.175"/>
<polygon fill="midnightblue" stroke="midnightblue" points="480.728,-252.754 470.166,-253.589 478.944,-259.523 480.728,-252.754"/>
</g>
<!-- Node4 -->
<g id="node7" class="node"><title>Node4</title>
<a xlink:href="printable_8h.html" target="_top" xlink:title="base/printable.h">
<polygon fill="white" stroke="black" points="214,-58.5 214,-79.5 300,-79.5 300,-58.5 214,-58.5"/>
<text text-anchor="middle" x="257" y="-66.5" font-family="Helvetica,sans-Serif" font-size="10.00">base/printable.h</text>
</a>
</g>
<!-- Node2&#45;&gt;Node4 -->
<g id="edge48" class="edge"><title>Node2&#45;&gt;Node4</title>
<path fill="none" stroke="midnightblue" d="M620.821,-298.038C556.385,-291.223 403.866,-273.512 356,-254 314.663,-237.15 300.229,-232.121 274,-196 251.241,-164.657 251.577,-117.196 254.12,-90.0442"/>
<polygon fill="midnightblue" stroke="midnightblue" points="257.638,-90.0873 255.285,-79.7571 250.682,-89.3001 257.638,-90.0873"/>
</g>
<!-- Node5 -->
<g id="node9" class="node"><title>Node5</title>
<polygon fill="white" stroke="#bfbfbf" points="663,-0.5 663,-21.5 707,-21.5 707,-0.5 663,-0.5"/>
<text text-anchor="middle" x="685" y="-8.5" font-family="Helvetica,sans-Serif" font-size="10.00">vector</text>
</g>
<!-- Node2&#45;&gt;Node5 -->
<g id="edge76" class="edge"><title>Node2&#45;&gt;Node5</title>
<path fill="none" stroke="midnightblue" d="M679.132,-299.691C777.91,-294.471 1094,-271.044 1094,-185 1094,-185 1094,-185 1094,-127 1094,-48.8341 814.015,-20.6053 717.353,-13.1887"/>
<polygon fill="midnightblue" stroke="midnightblue" points="717.512,-9.69095 707.28,-12.4409 716.993,-16.6717 717.512,-9.69095"/>
</g>
<!-- Node7 -->
<g id="node13" class="node"><title>Node7</title>
<a xlink:href="types_8h.html" target="_top" xlink:title="base/types.h">
<polygon fill="white" stroke="black" points="613.5,-174.5 613.5,-195.5 686.5,-195.5 686.5,-174.5 613.5,-174.5"/>
<text text-anchor="middle" x="650" y="-182.5" font-family="Helvetica,sans-Serif" font-size="10.00">base/types.h</text>
</a>
</g>
<!-- Node2&#45;&gt;Node7 -->
<g id="edge50" class="edge"><title>Node2&#45;&gt;Node7</title>
<path fill="none" stroke="midnightblue" d="M650,-290.295C650,-271.131 650,-230.654 650,-205.843"/>
<polygon fill="midnightblue" stroke="midnightblue" points="653.5,-205.679 650,-195.679 646.5,-205.679 653.5,-205.679"/>
</g>
<!-- Node15 -->
<g id="node32" class="node"><title>Node15</title>
<polygon fill="white" stroke="#bfbfbf" points="699.5,-116.5 699.5,-137.5 728.5,-137.5 728.5,-116.5 699.5,-116.5"/>
<text text-anchor="middle" x="714" y="-124.5" font-family="Helvetica,sans-Serif" font-size="10.00">list</text>
</g>
<!-- Node2&#45;&gt;Node15 -->
<g id="edge78" class="edge"><title>Node2&#45;&gt;Node15</title>
<path fill="none" stroke="midnightblue" d="M679.107,-292.907C718.546,-280.043 786.404,-250.613 807,-196 810.45,-186.851 812.123,-182.328 807,-174 792.191,-149.923 760.813,-137.728 738.609,-131.88"/>
<polygon fill="midnightblue" stroke="midnightblue" points="739.391,-128.468 728.852,-129.557 737.77,-135.278 739.391,-128.468"/>
</g>
<!-- Node17 -->
<g id="node39" class="node"><title>Node17</title>
<polygon fill="white" stroke="#bfbfbf" points="544,-174.5 544,-195.5 596,-195.5 596,-174.5 544,-174.5"/>
<text text-anchor="middle" x="570" y="-182.5" font-family="Helvetica,sans-Serif" font-size="10.00">memory</text>
</g>
<!-- Node2&#45;&gt;Node17 -->
<g id="edge82" class="edge"><title>Node2&#45;&gt;Node17</title>
<path fill="none" stroke="midnightblue" d="M642.617,-290.295C629.103,-270.7 600.221,-228.82 583.235,-204.191"/>
<polygon fill="midnightblue" stroke="midnightblue" points="585.924,-201.924 577.365,-195.679 580.161,-205.898 585.924,-201.924"/>
</g>
<!-- Node18 -->
<g id="node44" class="node"><title>Node18</title>
<a xlink:href="_particle_type_8h.html" target="_top" xlink:title="base/ParticleType.h">
<polygon fill="white" stroke="black" points="854,-232.5 854,-253.5 958,-253.5 958,-232.5 854,-232.5"/>
<text text-anchor="middle" x="906" y="-240.5" font-family="Helvetica,sans-Serif" font-size="10.00">base/ParticleType.h</text>
</a>
</g>
<!-- Node2&#45;&gt;Node18 -->
<g id="edge52" class="edge"><title>Node2&#45;&gt;Node18</title>
<path fill="none" stroke="midnightblue" d="M679.366,-294.347C720.699,-284.982 796.849,-267.73 849.396,-255.824"/>
<polygon fill="midnightblue" stroke="midnightblue" points="850.266,-259.216 859.246,-253.593 848.72,-252.389 850.266,-259.216"/>
</g>
<!-- Node21 -->
<g id="node54" class="node"><title>Node21</title>
<a xlink:href="_tree_8h.html" target="_top" xlink:title="base/Tree.h">
<polygon fill="white" stroke="black" points="679,-232.5 679,-253.5 747,-253.5 747,-232.5 679,-232.5"/>
<text text-anchor="middle" x="713" y="-240.5" font-family="Helvetica,sans-Serif" font-size="10.00">base/Tree.h</text>
</a>
</g>
<!-- Node2&#45;&gt;Node21 -->
<g id="edge66" class="edge"><title>Node2&#45;&gt;Node21</title>
<path fill="none" stroke="midnightblue" d="M661.555,-290.362C670.613,-282.023 683.41,-270.242 693.974,-260.516"/>
<polygon fill="midnightblue" stroke="midnightblue" points="696.532,-262.919 701.518,-253.571 691.79,-257.769 696.532,-262.919"/>
</g>
<!-- Node23 -->
<g id="node60" class="node"><title>Node23</title>
<polygon fill="white" stroke="#bfbfbf" points="0,-232.5 0,-253.5 92,-253.5 92,-232.5 0,-232.5"/>
<text text-anchor="middle" x="46" y="-240.5" font-family="Helvetica,sans-Serif" font-size="10.00">TLorentzVector.h</text>
</g>
<!-- Node2&#45;&gt;Node23 -->
<g id="edge74" class="edge"><title>Node2&#45;&gt;Node23</title>
<path fill="none" stroke="midnightblue" d="M620.706,-299.649C539.773,-295.673 306.156,-282.541 102.148,-254.033"/>
<polygon fill="midnightblue" stroke="midnightblue" points="102.54,-250.554 92.149,-252.62 101.561,-257.485 102.54,-250.554"/>
</g>
<!-- Node24 -->
<g id="node64" class="node"><title>Node24</title>
<polygon fill="white" stroke="#bfbfbf" points="110,-232.5 110,-253.5 164,-253.5 164,-232.5 110,-232.5"/>
<text text-anchor="middle" x="137" y="-240.5" font-family="Helvetica,sans-Serif" font-size="10.00">iostream</text>
</g>
<!-- Node2&#45;&gt;Node24 -->
<g id="edge80" class="edge"><title>Node2&#45;&gt;Node24</title>
<path fill="none" stroke="midnightblue" d="M620.766,-299.746C546.344,-296.197 343.866,-284.3 178,-254 176.736,-253.769 175.454,-253.519 174.162,-253.252"/>
<polygon fill="midnightblue" stroke="midnightblue" points="174.736,-249.793 164.206,-250.962 173.167,-256.615 174.736,-249.793"/>
</g>
<!-- Node3&#45;&gt;Node4 -->
<g id="edge6" class="edge"><title>Node3&#45;&gt;Node4</title>
<path fill="none" stroke="midnightblue" d="M384.605,-232.423C349.559,-223.393 304.932,-209.723 292,-196 264.429,-166.742 258.219,-117.785 257.034,-89.9769"/>
<polygon fill="midnightblue" stroke="midnightblue" points="260.529,-89.7064 256.788,-79.7939 253.531,-89.8755 260.529,-89.7064"/>
</g>
<!-- Node3&#45;&gt;Node5 -->
<g id="edge46" class="edge"><title>Node3&#45;&gt;Node5</title>
<path fill="none" stroke="midnightblue" d="M399.194,-232.417C382.509,-224.973 363.259,-213.223 353,-196 321.583,-143.257 306.69,-104.303 347,-58 366.964,-35.0675 572.252,-18.6915 652.809,-13.1029"/>
<polygon fill="midnightblue" stroke="midnightblue" points="653.139,-16.5887 662.877,-12.4158 652.662,-9.60492 653.139,-16.5887"/>
</g>
<!-- Node6 -->
<g id="node11" class="node"><title>Node6</title>
<polygon fill="white" stroke="#bfbfbf" points="231,-0.5 231,-21.5 283,-21.5 283,-0.5 231,-0.5"/>
<text text-anchor="middle" x="257" y="-8.5" font-family="Helvetica,sans-Serif" font-size="10.00">ostream</text>
</g>
<!-- Node3&#45;&gt;Node6 -->
<g id="edge42" class="edge"><title>Node3&#45;&gt;Node6</title>
<path fill="none" stroke="midnightblue" d="M364.645,-234.419C334.603,-227.849 299.964,-216.293 274,-196 226.737,-159.06 220.902,-137.841 205,-80 202.408,-70.5721 201.031,-66.9362 205,-58 210.402,-45.8358 220.68,-35.4865 230.682,-27.6217"/>
<polygon fill="midnightblue" stroke="midnightblue" points="232.895,-30.3395 238.905,-21.6143 228.765,-24.6872 232.895,-30.3395"/>
</g>
<!-- Node3&#45;&gt;Node7 -->
<g id="edge12" class="edge"><title>Node3&#45;&gt;Node7</title>
<path fill="none" stroke="midnightblue" d="M469.84,-232.497C507.51,-222.566 564.019,-207.668 603.681,-197.211"/>
<polygon fill="midnightblue" stroke="midnightblue" points="604.603,-200.588 613.38,-194.654 602.818,-193.819 604.603,-200.588"/>
</g>
<!-- Node8 -->
<g id="node15" class="node"><title>Node8</title>
<a xlink:href="_detector__t_8h.html" target="_top" xlink:title="base/Detector_t.h">
<polygon fill="white" stroke="black" points="517.5,-116.5 517.5,-137.5 612.5,-137.5 612.5,-116.5 517.5,-116.5"/>
<text text-anchor="middle" x="565" y="-124.5" font-family="Helvetica,sans-Serif" font-size="10.00">base/Detector_t.h</text>
</a>
</g>
<!-- Node3&#45;&gt;Node8 -->
<g id="edge14" class="edge"><title>Node3&#45;&gt;Node8</title>
<path fill="none" stroke="midnightblue" d="M446.859,-232.398C460.793,-223.353 480.838,-209.674 497,-196 515.676,-180.199 535.081,-160.079 548.358,-145.648"/>
<polygon fill="midnightblue" stroke="midnightblue" points="551.279,-147.639 555.416,-137.885 546.099,-142.93 551.279,-147.639"/>
</g>
<!-- Node9 -->
<g id="node18" class="node"><title>Node9</title>
<polygon fill="white" stroke="#bfbfbf" points="355.5,-58.5 355.5,-79.5 420.5,-79.5 420.5,-58.5 355.5,-58.5"/>
<text text-anchor="middle" x="388" y="-66.5" font-family="Helvetica,sans-Serif" font-size="10.00">TVector3.h</text>
</g>
<!-- Node3&#45;&gt;Node9 -->
<g id="edge40" class="edge"><title>Node3&#45;&gt;Node9</title>
<path fill="none" stroke="midnightblue" d="M404.5,-232.488C389.462,-224.797 371.719,-212.766 363,-196 344.797,-160.996 363.321,-114.271 376.757,-88.3653"/>
<polygon fill="midnightblue" stroke="midnightblue" points="379.863,-89.9805 381.571,-79.5241 373.715,-86.6334 379.863,-89.9805"/>
</g>
<!-- Node14 -->
<g id="node29" class="node"><title>Node14</title>
<a xlink:href="_cluster_8h.html" target="_top" xlink:title="analysis/data/Cluster.h">
<polygon fill="white" stroke="black" points="371.5,-174.5 371.5,-195.5 488.5,-195.5 488.5,-174.5 371.5,-174.5"/>
<text text-anchor="middle" x="430" y="-182.5" font-family="Helvetica,sans-Serif" font-size="10.00">analysis/data/Cluster.h</text>
</a>
</g>
<!-- Node3&#45;&gt;Node14 -->
<g id="edge30" class="edge"><title>Node3&#45;&gt;Node14</title>
<path fill="none" stroke="midnightblue" d="M430,-232.362C430,-224.922 430,-214.743 430,-205.728"/>
<polygon fill="midnightblue" stroke="midnightblue" points="433.5,-205.571 430,-195.571 426.5,-205.571 433.5,-205.571"/>
</g>
<!-- Node3&#45;&gt;Node17 -->
<g id="edge44" class="edge"><title>Node3&#45;&gt;Node17</title>
<path fill="none" stroke="midnightblue" d="M455.353,-232.497C477.613,-223.275 510.212,-209.769 534.963,-199.515"/>
<polygon fill="midnightblue" stroke="midnightblue" points="536.464,-202.682 544.363,-195.621 533.784,-196.215 536.464,-202.682"/>
</g>
<!-- Node4&#45;&gt;Node5 -->
<g id="edge8" class="edge"><title>Node4&#45;&gt;Node5</title>
<path fill="none" stroke="midnightblue" d="M300.208,-60.3575C304.856,-59.5186 309.521,-58.7151 314,-58 438.803,-38.0736 588.322,-21.2754 652.806,-14.3697"/>
<polygon fill="midnightblue" stroke="midnightblue" points="653.192,-17.8484 662.766,-13.3095 652.451,-10.8877 653.192,-17.8484"/>
</g>
<!-- Node4&#45;&gt;Node6 -->
<g id="edge10" class="edge"><title>Node4&#45;&gt;Node6</title>
<path fill="none" stroke="midnightblue" d="M257,-58.3619C257,-50.9219 257,-40.7427 257,-31.7276"/>
<polygon fill="midnightblue" stroke="midnightblue" points="260.5,-31.5706 257,-21.5707 253.5,-31.5707 260.5,-31.5706"/>
</g>
<!-- Node8&#45;&gt;Node4 -->
<g id="edge16" class="edge"><title>Node8&#45;&gt;Node4</title>
<path fill="none" stroke="midnightblue" d="M517.347,-117.607C514.523,-117.061 511.725,-116.522 509,-116 440.504,-102.885 361.44,-88.2156 310.412,-78.8086"/>
<polygon fill="midnightblue" stroke="midnightblue" points="310.746,-75.3112 300.277,-76.9415 309.478,-82.1954 310.746,-75.3112"/>
</g>
<!-- Node8&#45;&gt;Node5 -->
<g id="edge28" class="edge"><title>Node8&#45;&gt;Node5</title>
<path fill="none" stroke="midnightblue" d="M607.032,-116.482C627.499,-109.346 650.889,-97.8688 666,-80 677.38,-66.5428 681.983,-46.8152 683.824,-31.8971"/>
<polygon fill="midnightblue" stroke="midnightblue" points="687.339,-31.8863 684.761,-21.6101 680.368,-31.2516 687.339,-31.8863"/>
</g>
<!-- Node8&#45;&gt;Node9 -->
<g id="edge18" class="edge"><title>Node8&#45;&gt;Node9</title>
<path fill="none" stroke="midnightblue" d="M532.947,-116.497C504.091,-107.041 461.494,-93.0829 429.939,-82.7428"/>
<polygon fill="midnightblue" stroke="midnightblue" points="430.706,-79.3111 420.113,-79.5231 428.526,-85.963 430.706,-79.3111"/>
</g>
<!-- Node10 -->
<g id="node20" class="node"><title>Node10</title>
<polygon fill="white" stroke="#bfbfbf" points="455,-58.5 455,-79.5 501,-79.5 501,-58.5 455,-58.5"/>
<text text-anchor="middle" x="478" y="-66.5" font-family="Helvetica,sans-Serif" font-size="10.00">cstdint</text>
</g>
<!-- Node8&#45;&gt;Node10 -->
<g id="edge20" class="edge"><title>Node8&#45;&gt;Node10</title>
<path fill="none" stroke="midnightblue" d="M549.043,-116.362C536.043,-107.696 517.469,-95.3126 502.573,-85.3819"/>
<polygon fill="midnightblue" stroke="midnightblue" points="504.118,-82.2055 493.856,-79.5707 500.235,-88.0299 504.118,-82.2055"/>
</g>
<!-- Node11 -->
<g id="node22" class="node"><title>Node11</title>
<polygon fill="white" stroke="#bfbfbf" points="518.5,-58.5 518.5,-79.5 577.5,-79.5 577.5,-58.5 518.5,-58.5"/>
<text text-anchor="middle" x="548" y="-66.5" font-family="Helvetica,sans-Serif" font-size="10.00">stdexcept</text>
</g>
<!-- Node8&#45;&gt;Node11 -->
<g id="edge22" class="edge"><title>Node8&#45;&gt;Node11</title>
<path fill="none" stroke="midnightblue" d="M561.882,-116.362C559.677,-108.84 556.652,-98.5187 553.988,-89.4308"/>
<polygon fill="midnightblue" stroke="midnightblue" points="557.27,-88.1825 551.098,-79.5707 550.552,-90.1514 557.27,-88.1825"/>
</g>
<!-- Node12 -->
<g id="node24" class="node"><title>Node12</title>
<polygon fill="white" stroke="#bfbfbf" points="773.5,-58.5 773.5,-79.5 814.5,-79.5 814.5,-58.5 773.5,-58.5"/>
<text text-anchor="middle" x="794" y="-66.5" font-family="Helvetica,sans-Serif" font-size="10.00">string</text>
</g>
<!-- Node8&#45;&gt;Node12 -->
<g id="edge24" class="edge"><title>Node8&#45;&gt;Node12</title>
<path fill="none" stroke="midnightblue" d="M606.47,-116.497C651.763,-105.025 723.223,-86.926 763.594,-76.701"/>
<polygon fill="midnightblue" stroke="midnightblue" points="764.558,-80.0675 773.393,-74.2194 762.839,-73.2818 764.558,-80.0675"/>
</g>
<!-- Node13 -->
<g id="node26" class="node"><title>Node13</title>
<polygon fill="white" stroke="#bfbfbf" points="595,-58.5 595,-79.5 657,-79.5 657,-58.5 595,-58.5"/>
<text text-anchor="middle" x="626" y="-66.5" font-family="Helvetica,sans-Serif" font-size="10.00">type_traits</text>
</g>
<!-- Node8&#45;&gt;Node13 -->
<g id="edge26" class="edge"><title>Node8&#45;&gt;Node13</title>
<path fill="none" stroke="midnightblue" d="M576.188,-116.362C584.959,-108.023 597.349,-96.2418 607.578,-86.5162"/>
<polygon fill="midnightblue" stroke="midnightblue" points="610.047,-88.9978 614.883,-79.5707 605.224,-83.9248 610.047,-88.9978"/>
</g>
<!-- Node14&#45;&gt;Node8 -->
<g id="edge32" class="edge"><title>Node14&#45;&gt;Node8</title>
<path fill="none" stroke="midnightblue" d="M454.447,-174.497C475.818,-165.315 507.069,-151.889 530.897,-141.652"/>
<polygon fill="midnightblue" stroke="midnightblue" points="532.472,-144.784 540.278,-137.621 529.709,-138.353 532.472,-144.784"/>
</g>
<!-- Node14&#45;&gt;Node9 -->
<g id="edge36" class="edge"><title>Node14&#45;&gt;Node9</title>
<path fill="none" stroke="midnightblue" d="M421.873,-174.397C415.258,-165.242 406.194,-151.411 401,-138 394.955,-122.393 391.655,-103.68 389.894,-89.6815"/>
<polygon fill="midnightblue" stroke="midnightblue" points="393.359,-89.1734 388.789,-79.6151 386.401,-89.9374 393.359,-89.1734"/>
</g>
<!-- Node14&#45;&gt;Node15 -->
<g id="edge34" class="edge"><title>Node14&#45;&gt;Node15</title>
<path fill="none" stroke="midnightblue" d="M481.43,-174.497C542.843,-161.955 643.045,-141.491 689.242,-132.056"/>
<polygon fill="midnightblue" stroke="midnightblue" points="690.166,-135.44 699.263,-130.01 688.765,-128.581 690.166,-135.44"/>
</g>
<!-- Node16 -->
<g id="node35" class="node"><title>Node16</title>
<a xlink:href="enumfield_8h.html" target="_top" xlink:title="base/enumfield.h">
<polygon fill="white" stroke="black" points="409.5,-116.5 409.5,-137.5 500.5,-137.5 500.5,-116.5 409.5,-116.5"/>
<text text-anchor="middle" x="455" y="-124.5" font-family="Helvetica,sans-Serif" font-size="10.00">base/enumfield.h</text>
</a>
</g>
<!-- Node14&#45;&gt;Node16 -->
<g id="edge38" class="edge"><title>Node14&#45;&gt;Node16</title>
<path fill="none" stroke="midnightblue" d="M434.585,-174.362C437.898,-166.677 442.47,-156.069 446.448,-146.84"/>
<polygon fill="midnightblue" stroke="midnightblue" points="449.699,-148.139 450.444,-137.571 443.271,-145.368 449.699,-148.139"/>
</g>
<!-- Node18&#45;&gt;Node5 -->
<g id="edge64" class="edge"><title>Node18&#45;&gt;Node5</title>
<path fill="none" stroke="midnightblue" d="M910.992,-232.294C924.629,-201.287 958.737,-110.308 916,-58 891.258,-27.7167 774.726,-16.455 717.236,-12.6914"/>
<polygon fill="midnightblue" stroke="midnightblue" points="717.421,-9.19623 707.224,-12.073 716.989,-16.1829 717.421,-9.19623"/>
</g>
<!-- Node18&#45;&gt;Node6 -->
<g id="edge58" class="edge"><title>Node18&#45;&gt;Node6</title>
<path fill="none" stroke="midnightblue" d="M904.99,-232.153C901.264,-199.105 885.089,-99.4059 823,-58 779.048,-28.6896 412.024,-15.5151 293.647,-12.0015"/>
<polygon fill="midnightblue" stroke="midnightblue" points="293.402,-8.49294 283.305,-11.7004 293.198,-15.49 293.402,-8.49294"/>
</g>
<!-- Node18&#45;&gt;Node7 -->
<g id="edge54" class="edge"><title>Node18&#45;&gt;Node7</title>
<path fill="none" stroke="midnightblue" d="M859.64,-232.497C813.463,-222.035 742.956,-206.06 696.67,-195.574"/>
<polygon fill="midnightblue" stroke="midnightblue" points="697.418,-192.154 686.891,-193.358 695.871,-198.981 697.418,-192.154"/>
</g>
<!-- Node18&#45;&gt;Node12 -->
<g id="edge56" class="edge"><title>Node18&#45;&gt;Node12</title>
<path fill="none" stroke="midnightblue" d="M899.162,-232.377C880.851,-203.93 830.486,-125.684 806.725,-88.7689"/>
<polygon fill="midnightblue" stroke="midnightblue" points="809.389,-86.442 801.034,-79.9277 803.503,-90.2308 809.389,-86.442"/>
</g>
<!-- Node19 -->
<g id="node49" class="node"><title>Node19</title>
<polygon fill="white" stroke="#bfbfbf" points="967.5,-174.5 967.5,-195.5 1002.5,-195.5 1002.5,-174.5 967.5,-174.5"/>
<text text-anchor="middle" x="985" y="-182.5" font-family="Helvetica,sans-Serif" font-size="10.00">map</text>
</g>
<!-- Node18&#45;&gt;Node19 -->
<g id="edge60" class="edge"><title>Node18&#45;&gt;Node19</title>
<path fill="none" stroke="midnightblue" d="M920.49,-232.362C932.183,-223.777 948.843,-211.546 962.303,-201.664"/>
<polygon fill="midnightblue" stroke="midnightblue" points="964.613,-204.31 970.602,-195.571 960.47,-198.667 964.613,-204.31"/>
</g>
<!-- Node20 -->
<g id="node51" class="node"><title>Node20</title>
<polygon fill="white" stroke="#bfbfbf" points="1019.5,-174.5 1019.5,-195.5 1066.5,-195.5 1066.5,-174.5 1019.5,-174.5"/>
<text text-anchor="middle" x="1043" y="-182.5" font-family="Helvetica,sans-Serif" font-size="10.00">iterator</text>
</g>
<!-- Node18&#45;&gt;Node20 -->
<g id="edge62" class="edge"><title>Node18&#45;&gt;Node20</title>
<path fill="none" stroke="midnightblue" d="M930.81,-232.497C953.001,-223.102 985.693,-209.262 1010.07,-198.942"/>
<polygon fill="midnightblue" stroke="midnightblue" points="1011.45,-202.159 1019.29,-195.037 1008.72,-195.713 1011.45,-202.159"/>
</g>
<!-- Node21&#45;&gt;Node15 -->
<g id="edge70" class="edge"><title>Node21&#45;&gt;Node15</title>
<path fill="none" stroke="midnightblue" d="M713.092,-232.295C713.257,-213.131 713.606,-172.654 713.82,-147.843"/>
<polygon fill="midnightblue" stroke="midnightblue" points="717.322,-147.709 713.908,-137.679 710.322,-147.649 717.322,-147.709"/>
</g>
<!-- Node21&#45;&gt;Node17 -->
<g id="edge68" class="edge"><title>Node21&#45;&gt;Node17</title>
<path fill="none" stroke="midnightblue" d="M687.104,-232.497C664.367,-223.275 631.07,-209.769 605.788,-199.515"/>
<polygon fill="midnightblue" stroke="midnightblue" points="606.769,-196.136 596.187,-195.621 604.138,-202.623 606.769,-196.136"/>
</g>
<!-- Node22 -->
<g id="node58" class="node"><title>Node22</title>
<polygon fill="white" stroke="#bfbfbf" points="742,-174.5 742,-195.5 798,-195.5 798,-174.5 742,-174.5"/>
<text text-anchor="middle" x="770" y="-182.5" font-family="Helvetica,sans-Serif" font-size="10.00">algorithm</text>
</g>
<!-- Node21&#45;&gt;Node22 -->
<g id="edge72" class="edge"><title>Node21&#45;&gt;Node22</title>
<path fill="none" stroke="midnightblue" d="M723.455,-232.362C731.57,-224.104 743.001,-212.472 752.504,-202.803"/>
<polygon fill="midnightblue" stroke="midnightblue" points="755.099,-205.156 759.612,-195.571 750.106,-200.25 755.099,-205.156"/>
</g>
<!-- Node26 -->
<g id="node69" class="node"><title>Node26</title>
<polygon fill="white" stroke="#bfbfbf" points="1122,-232.5 1122,-253.5 1166,-253.5 1166,-232.5 1122,-232.5"/>
<text text-anchor="middle" x="1144" y="-240.5" font-family="Helvetica,sans-Serif" font-size="10.00">cmath</text>
</g>
<!-- Node25&#45;&gt;Node26 -->
<g id="edge86" class="edge"><title>Node25&#45;&gt;Node26</title>
<path fill="none" stroke="midnightblue" d="M1144,-290.362C1144,-282.922 1144,-272.743 1144,-263.728"/>
<polygon fill="midnightblue" stroke="midnightblue" points="1147.5,-263.571 1144,-253.571 1140.5,-263.571 1147.5,-263.571"/>
</g>
<!-- Node27 -->
<g id="node71" class="node"><title>Node27</title>
<polygon fill="white" stroke="#bfbfbf" points="1184,-232.5 1184,-253.5 1224,-253.5 1224,-232.5 1184,-232.5"/>
<text text-anchor="middle" x="1204" y="-240.5" font-family="Helvetica,sans-Serif" font-size="10.00">limits</text>
</g>
<!-- Node25&#45;&gt;Node27 -->
<g id="edge88" class="edge"><title>Node25&#45;&gt;Node27</title>
<path fill="none" stroke="midnightblue" d="M1155,-290.362C1163.55,-282.104 1175.58,-270.472 1185.58,-260.803"/>
<polygon fill="midnightblue" stroke="midnightblue" points="1188.31,-263.037 1193.06,-253.571 1183.44,-258.004 1188.31,-263.037"/>
</g>
</g>
</svg>
