<?xml version="1.0" encoding="UTF-8" standalone="no"?>
<!DOCTYPE svg PUBLIC "-//W3C//DTD SVG 1.1//EN"
 "http://www.w3.org/Graphics/SVG/1.1/DTD/svg11.dtd">
<!-- Generated by graphviz version 2.26.3 (20100126.1600)
 -->
<!-- Title: src/analysis/input/goat/detail/ParticleInput.h Pages: 1 -->
<svg width="444pt" height="188pt"
 viewBox="0.00 0.00 444.00 188.00" xmlns="http://www.w3.org/2000/svg" xmlns:xlink="http://www.w3.org/1999/xlink">
<g id="graph1" class="graph" transform="scale(1 1) rotate(0) translate(4 184)">
<title>src/analysis/input/goat/detail/ParticleInput.h</title>
<polygon fill="white" stroke="white" points="-4,5 -4,-184 441,-184 441,5 -4,5"/>
<!-- Node1 -->
<g id="node1" class="node"><title>Node1</title>
<polygon fill="#bfbfbf" stroke="black" points="139.5,-145 139.5,-179 270.5,-179 270.5,-145 139.5,-145"/>
<text text-anchor="start" x="147.5" y="-166" font-family="Helvetica,sans-Serif" font-size="10.00">src/analysis/input</text>
<text text-anchor="middle" x="205" y="-153" font-family="Helvetica,sans-Serif" font-size="10.00">/goat/detail/ParticleInput.h</text>
</g>
<!-- Node2 -->
<g id="node3" class="node"><title>Node2</title>
<a xlink:href="_particle_input_8cc.html" target="_top" xlink:title="src/analysis/input\l/goat/detail/ParticleInput.cc">
<polygon fill="white" stroke="black" points="0,-73 0,-107 136,-107 136,-73 0,-73"/>
<text text-anchor="start" x="8" y="-94" font-family="Helvetica,sans-Serif" font-size="10.00">src/analysis/input</text>
<text text-anchor="middle" x="68" y="-81" font-family="Helvetica,sans-Serif" font-size="10.00">/goat/detail/ParticleInput.cc</text>
</a>
</g>
<!-- Node1&#45;&gt;Node2 -->
<g id="edge2" class="edge"><title>Node1&#45;&gt;Node2</title>
<path fill="none" stroke="midnightblue" d="M163.57,-140.226C143.423,-129.638 119.553,-117.094 100.709,-107.19"/>
<polygon fill="midnightblue" stroke="midnightblue" points="162.053,-143.383 172.533,-144.937 165.309,-137.187 162.053,-143.383"/>
</g>
<!-- Node3 -->
<g id="node5" class="node"><title>Node3</title>
<a xlink:href="_goat_reader_8h.html" target="_top" xlink:title="src/analysis/input\l/goat/GoatReader.h">
<polygon fill="white" stroke="black" points="154,-73 154,-107 256,-107 256,-73 154,-73"/>
<text text-anchor="start" x="162" y="-94" font-family="Helvetica,sans-Serif" font-size="10.00">src/analysis/input</text>
<text text-anchor="middle" x="205" y="-81" font-family="Helvetica,sans-Serif" font-size="10.00">/goat/GoatReader.h</text>
</a>
</g>
<!-- Node1&#45;&gt;Node3 -->
<g id="edge4" class="edge"><title>Node1&#45;&gt;Node3</title>
<path fill="none" stroke="midnightblue" d="M205,-134.719C205,-125.572 205,-115.625 205,-107.441"/>
<polygon fill="midnightblue" stroke="midnightblue" points="201.5,-134.937 205,-144.937 208.5,-134.937 201.5,-134.937"/>
</g>
<!-- Node7 -->
<g id="node13" class="node"><title>Node7</title>
<a xlink:href="_test_input_module_8cc.html" target="_top" xlink:title="test/analysis/TestInputModule.cc">
<polygon fill="white" stroke="black" points="273.5,-79.5 273.5,-100.5 434.5,-100.5 434.5,-79.5 273.5,-79.5"/>
<text text-anchor="middle" x="354" y="-87.5" font-family="Helvetica,sans-Serif" font-size="10.00">test/analysis/TestInputModule.cc</text>
</a>
</g>
<!-- Node1&#45;&gt;Node7 -->
<g id="edge12" class="edge"><title>Node1&#45;&gt;Node7</title>
<path fill="none" stroke="midnightblue" d="M249.621,-140.438C276.775,-127.317 310.277,-111.128 331.882,-100.688"/>
<polygon fill="midnightblue" stroke="midnightblue" points="247.792,-137.435 240.311,-144.937 250.838,-143.737 247.792,-137.435"/>
</g>
<!-- Node4 -->
<g id="node7" class="node"><title>Node4</title>
<a xlink:href="_ant_8cc.html" target="_top" xlink:title="Main Ant executable. ">
<polygon fill="white" stroke="black" points="62,-7.5 62,-28.5 134,-28.5 134,-7.5 62,-7.5"/>
<text text-anchor="middle" x="98" y="-15.5" font-family="Helvetica,sans-Serif" font-size="10.00">progs/Ant.cc</text>
</a>
</g>
<!-- Node3&#45;&gt;Node4 -->
<g id="edge6" class="edge"><title>Node3&#45;&gt;Node4</title>
<path fill="none" stroke="midnightblue" d="M171.156,-67.2265C151.994,-54.3324 128.924,-38.8088 113.884,-28.688"/>
<polygon fill="midnightblue" stroke="midnightblue" points="169.392,-70.258 179.642,-72.937 173.3,-64.4504 169.392,-70.258"/>
</g>
<!-- Node5 -->
<g id="node9" class="node"><title>Node5</title>
<a xlink:href="_goat_reader_8cc.html" target="_top" xlink:title="src/analysis/input\l/goat/GoatReader.cc">
<polygon fill="white" stroke="black" points="151.5,-1 151.5,-35 258.5,-35 258.5,-1 151.5,-1"/>
<text text-anchor="start" x="159.5" y="-22" font-family="Helvetica,sans-Serif" font-size="10.00">src/analysis/input</text>
<text text-anchor="middle" x="205" y="-9" font-family="Helvetica,sans-Serif" font-size="10.00">/goat/GoatReader.cc</text>
</a>
</g>
<!-- Node3&#45;&gt;Node5 -->
<g id="edge8" class="edge"><title>Node3&#45;&gt;Node5</title>
<path fill="none" stroke="midnightblue" d="M205,-62.7193C205,-53.572 205,-43.6255 205,-35.4407"/>
<polygon fill="midnightblue" stroke="midnightblue" points="201.5,-62.937 205,-72.937 208.5,-62.937 201.5,-62.937"/>
</g>
<!-- Node6 -->
<g id="node11" class="node"><title>Node6</title>
<a xlink:href="_test_goat_reader_8cc.html" target="_top" xlink:title="test/analysis/TestGoatReader.cc">
<polygon fill="white" stroke="black" points="275.5,-7.5 275.5,-28.5 436.5,-28.5 436.5,-7.5 275.5,-7.5"/>
<text text-anchor="middle" x="356" y="-15.5" font-family="Helvetica,sans-Serif" font-size="10.00">test/analysis/TestGoatReader.cc</text>
</a>
</g>
<!-- Node3&#45;&gt;Node6 -->
<g id="edge10" class="edge"><title>Node3&#45;&gt;Node6</title>
<path fill="none" stroke="midnightblue" d="M249.86,-68.6099C277.442,-55.4582 311.594,-39.1736 333.585,-28.688"/>
<polygon fill="midnightblue" stroke="midnightblue" points="248.305,-65.4737 240.785,-72.937 251.318,-71.7922 248.305,-65.4737"/>
</g>
</g>
</svg>
