<?xml version="1.0" encoding="UTF-8" standalone="no"?>
<!DOCTYPE svg PUBLIC "-//W3C//DTD SVG 1.1//EN"
 "http://www.w3.org/Graphics/SVG/1.1/DTD/svg11.dtd">
<!-- Generated by graphviz version 2.26.3 (20100126.1600)
 -->
<!-- Title: src/base/ParticleTypeTree.h Pages: 1 -->
<svg width="1378pt" height="270pt"
 viewBox="0.00 0.00 1378.00 270.00" xmlns="http://www.w3.org/2000/svg" xmlns:xlink="http://www.w3.org/1999/xlink">
<g id="graph1" class="graph" transform="scale(1 1) rotate(0) translate(4 266)">
<title>src/base/ParticleTypeTree.h</title>
<polygon fill="white" stroke="white" points="-4,5 -4,-266 1375,-266 1375,5 -4,5"/>
<!-- Node1 -->
<g id="node1" class="node"><title>Node1</title>
<polygon fill="#bfbfbf" stroke="black" points="863,-240.5 863,-261.5 1003,-261.5 1003,-240.5 863,-240.5"/>
<text text-anchor="middle" x="933" y="-248.5" font-family="Helvetica,sans-Serif" font-size="10.00">src/base/ParticleTypeTree.h</text>
</g>
<!-- Node2 -->
<g id="node3" class="node"><title>Node2</title>
<a xlink:href="etaprime__omega__gamma_8h.html" target="_top" xlink:title="src/analysis/physics\l/etaprime/etaprime_omega\l_gamma.h">
<polygon fill="white" stroke="black" points="0,-84.5 0,-131.5 132,-131.5 132,-84.5 0,-84.5"/>
<text text-anchor="start" x="8" y="-118.5" font-family="Helvetica,sans-Serif" font-size="10.00">src/analysis/physics</text>
<text text-anchor="start" x="8" y="-105.5" font-family="Helvetica,sans-Serif" font-size="10.00">/etaprime/etaprime_omega</text>
<text text-anchor="middle" x="66" y="-92.5" font-family="Helvetica,sans-Serif" font-size="10.00">_gamma.h</text>
</a>
</g>
<!-- Node1&#45;&gt;Node2 -->
<g id="edge2" class="edge"><title>Node1&#45;&gt;Node2</title>
<path fill="none" stroke="midnightblue" d="M852.692,-243.416C708.551,-228.818 397.001,-192.767 140,-132 137.371,-131.378 134.702,-130.708 132.014,-129.999"/>
<polygon fill="midnightblue" stroke="midnightblue" points="852.477,-246.912 862.777,-244.43 853.178,-239.947 852.477,-246.912"/>
</g>
<!-- Node4 -->
<g id="node7" class="node"><title>Node4</title>
<a xlink:href="omega_8cc.html" target="_top" xlink:title="src/analysis/physics\l/omega/omega.cc">
<polygon fill="white" stroke="black" points="1104,-7 1104,-41 1210,-41 1210,-7 1104,-7"/>
<text text-anchor="start" x="1112" y="-28" font-family="Helvetica,sans-Serif" font-size="10.00">src/analysis/physics</text>
<text text-anchor="middle" x="1157" y="-15" font-family="Helvetica,sans-Serif" font-size="10.00">/omega/omega.cc</text>
</a>
</g>
<!-- Node1&#45;&gt;Node4 -->
<g id="edge6" class="edge"><title>Node1&#45;&gt;Node4</title>
<path fill="none" stroke="midnightblue" d="M1003.71,-238.068C1061.93,-223.289 1140.88,-192.792 1179,-132 1196.79,-103.631 1179.98,-63.5791 1167.56,-41.0741"/>
<polygon fill="midnightblue" stroke="midnightblue" points="1002.71,-234.709 993.822,-240.478 1004.37,-241.51 1002.71,-234.709"/>
</g>
<!-- Node5 -->
<g id="node9" class="node"><title>Node5</title>
<a xlink:href="particle__tools_8h.html" target="_top" xlink:title="src/analysis/utils\l/particle_tools.h">
<polygon fill="white" stroke="black" points="623,-169 623,-203 713,-203 713,-169 623,-169"/>
<text text-anchor="start" x="631" y="-190" font-family="Helvetica,sans-Serif" font-size="10.00">src/analysis/utils</text>
<text text-anchor="middle" x="668" y="-177" font-family="Helvetica,sans-Serif" font-size="10.00">/particle_tools.h</text>
</a>
</g>
<!-- Node1&#45;&gt;Node5 -->
<g id="edge8" class="edge"><title>Node1&#45;&gt;Node5</title>
<path fill="none" stroke="midnightblue" d="M880.363,-238.089C831.439,-226.089 759.344,-208.405 713.026,-197.044"/>
<polygon fill="midnightblue" stroke="midnightblue" points="879.583,-241.501 890.129,-240.484 881.25,-234.703 879.583,-241.501"/>
</g>
<!-- Node15 -->
<g id="node34" class="node"><title>Node15</title>
<a xlink:href="_particle_type_tree_8cc.html" target="_top" xlink:title="src/base/ParticleTypeTree.cc">
<polygon fill="white" stroke="black" points="1225.5,-175.5 1225.5,-196.5 1370.5,-196.5 1370.5,-175.5 1225.5,-175.5"/>
<text text-anchor="middle" x="1298" y="-183.5" font-family="Helvetica,sans-Serif" font-size="10.00">src/base/ParticleTypeTree.cc</text>
</a>
</g>
<!-- Node1&#45;&gt;Node15 -->
<g id="edge38" class="edge"><title>Node1&#45;&gt;Node15</title>
<path fill="none" stroke="midnightblue" d="M1010.15,-238.842C1066.24,-229.798 1143.96,-216.847 1212,-204 1224.14,-201.708 1237.21,-199.064 1249.4,-196.521"/>
<polygon fill="midnightblue" stroke="midnightblue" points="1009.25,-235.441 999.934,-240.484 1010.36,-242.353 1009.25,-235.441"/>
</g>
<!-- Node3 -->
<g id="node5" class="node"><title>Node3</title>
<a xlink:href="etaprime__omega__gamma_8cc.html" target="_top" xlink:title="src/analysis/physics\l/etaprime/etaprime_omega\l_gamma.cc">
<polygon fill="white" stroke="black" points="47,-0.5 47,-47.5 179,-47.5 179,-0.5 47,-0.5"/>
<text text-anchor="start" x="55" y="-34.5" font-family="Helvetica,sans-Serif" font-size="10.00">src/analysis/physics</text>
<text text-anchor="start" x="55" y="-21.5" font-family="Helvetica,sans-Serif" font-size="10.00">/etaprime/etaprime_omega</text>
<text text-anchor="middle" x="113" y="-8.5" font-family="Helvetica,sans-Serif" font-size="10.00">_gamma.cc</text>
</a>
</g>
<!-- Node2&#45;&gt;Node3 -->
<g id="edge4" class="edge"><title>Node2&#45;&gt;Node3</title>
<path fill="none" stroke="midnightblue" d="M84.3407,-75.2208C89.4941,-66.0105 94.9958,-56.1778 99.7867,-47.6152"/>
<polygon fill="midnightblue" stroke="midnightblue" points="81.1711,-73.7178 79.3426,-84.1537 87.2799,-77.1358 81.1711,-73.7178"/>
</g>
<!-- Node5&#45;&gt;Node2 -->
<g id="edge16" class="edge"><title>Node5&#45;&gt;Node2</title>
<path fill="none" stroke="midnightblue" d="M612.848,-183.711C517.06,-178.977 314.091,-165.596 146,-132 141.45,-131.091 136.787,-130.033 132.111,-128.88"/>
<polygon fill="midnightblue" stroke="midnightblue" points="612.728,-187.209 622.885,-184.194 613.065,-180.217 612.728,-187.209"/>
</g>
<!-- Node5&#45;&gt;Node3 -->
<g id="edge18" class="edge"><title>Node5&#45;&gt;Node3</title>
<path fill="none" stroke="midnightblue" d="M612.636,-182.63C492.342,-174.916 214.986,-154.869 179,-132 163.051,-121.864 138.74,-76.5954 124.503,-47.9791"/>
<polygon fill="midnightblue" stroke="midnightblue" points="612.542,-186.131 622.744,-183.273 612.987,-179.145 612.542,-186.131"/>
</g>
<!-- Node5&#45;&gt;Node4 -->
<g id="edge32" class="edge"><title>Node5&#45;&gt;Node4</title>
<path fill="none" stroke="midnightblue" d="M722.453,-166.569C742.66,-157.835 765.017,-146.25 783,-132 804.326,-115.102 797.332,-97.4228 821,-84 927.839,-23.4088 975.994,-78.3856 1095,-48 1102.27,-46.144 1109.84,-43.6832 1117.1,-41.0445"/>
<polygon fill="midnightblue" stroke="midnightblue" points="720.917,-163.417 713.04,-170.503 723.616,-169.876 720.917,-163.417"/>
</g>
<!-- Node6 -->
<g id="node11" class="node"><title>Node6</title>
<a xlink:href="_pluto_reader_8cc.html" target="_top" xlink:title="src/analysis/input\l/pluto/PlutoReader.cc">
<polygon fill="white" stroke="black" points="187.5,-91 187.5,-125 298.5,-125 298.5,-91 187.5,-91"/>
<text text-anchor="start" x="195.5" y="-112" font-family="Helvetica,sans-Serif" font-size="10.00">src/analysis/input</text>
<text text-anchor="middle" x="243" y="-99" font-family="Helvetica,sans-Serif" font-size="10.00">/pluto/PlutoReader.cc</text>
</a>
</g>
<!-- Node5&#45;&gt;Node6 -->
<g id="edge10" class="edge"><title>Node5&#45;&gt;Node6</title>
<path fill="none" stroke="midnightblue" d="M612.811,-181.382C541.368,-174.579 413.412,-159.583 307,-132 299.648,-130.094 291.972,-127.642 284.594,-125.034"/>
<polygon fill="midnightblue" stroke="midnightblue" points="612.651,-184.882 622.933,-182.327 613.301,-177.912 612.651,-184.882"/>
</g>
<!-- Node7 -->
<g id="node13" class="node"><title>Node7</title>
<a xlink:href="_m_c_smearing_8cc.html" target="_top" xlink:title="src/analysis/physics\l/common/MCSmearing.cc">
<polygon fill="white" stroke="black" points="315.5,-91 315.5,-125 446.5,-125 446.5,-91 315.5,-91"/>
<text text-anchor="start" x="323.5" y="-112" font-family="Helvetica,sans-Serif" font-size="10.00">src/analysis/physics</text>
<text text-anchor="middle" x="381" y="-99" font-family="Helvetica,sans-Serif" font-size="10.00">/common/MCSmearing.cc</text>
</a>
</g>
<!-- Node5&#45;&gt;Node7 -->
<g id="edge12" class="edge"><title>Node5&#45;&gt;Node7</title>
<path fill="none" stroke="midnightblue" d="M613.151,-173.138C569.976,-162.763 508.387,-147.407 455,-132 447.603,-129.865 439.832,-127.492 432.219,-125.091"/>
<polygon fill="midnightblue" stroke="midnightblue" points="612.352,-176.546 622.892,-175.47 613.982,-169.738 612.352,-176.546"/>
</g>
<!-- Node8 -->
<g id="node15" class="node"><title>Node8</title>
<a xlink:href="etaprime-3pi0_8cc.html" target="_top" xlink:title="src/analysis/physics\l/etaprime/etaprime&#45;3pi0.cc">
<polygon fill="white" stroke="black" points="464,-91 464,-125 596,-125 596,-91 464,-91"/>
<text text-anchor="start" x="472" y="-112" font-family="Helvetica,sans-Serif" font-size="10.00">src/analysis/physics</text>
<text text-anchor="middle" x="530" y="-99" font-family="Helvetica,sans-Serif" font-size="10.00">/etaprime/etaprime&#45;3pi0.cc</text>
</a>
</g>
<!-- Node5&#45;&gt;Node8 -->
<g id="edge14" class="edge"><title>Node5&#45;&gt;Node8</title>
<path fill="none" stroke="midnightblue" d="M628.722,-163.799C606.964,-151.501 580.332,-136.448 560.214,-125.078"/>
<polygon fill="midnightblue" stroke="midnightblue" points="627.287,-167.009 637.715,-168.883 630.732,-160.915 627.287,-167.009"/>
</g>
<!-- Node9 -->
<g id="node19" class="node"><title>Node9</title>
<a xlink:href="mctrue__3pi0_8h.html" target="_top" xlink:title="src/analysis/physics\l/etaprime/mctrue_3pi0.h">
<polygon fill="white" stroke="black" points="652,-91 652,-125 774,-125 774,-91 652,-91"/>
<text text-anchor="start" x="660" y="-112" font-family="Helvetica,sans-Serif" font-size="10.00">src/analysis/physics</text>
<text text-anchor="middle" x="713" y="-99" font-family="Helvetica,sans-Serif" font-size="10.00">/etaprime/mctrue_3pi0.h</text>
</a>
</g>
<!-- Node5&#45;&gt;Node9 -->
<g id="edge20" class="edge"><title>Node5&#45;&gt;Node9</title>
<path fill="none" stroke="midnightblue" d="M683.014,-159.975C689.605,-148.552 697.162,-135.453 703.041,-125.262"/>
<polygon fill="midnightblue" stroke="midnightblue" points="679.953,-158.278 677.987,-168.689 686.016,-161.776 679.953,-158.278"/>
</g>
<!-- Node10 -->
<g id="node21" class="node"><title>Node10</title>
<a xlink:href="mctrue__3pi0_8cc.html" target="_top" xlink:title="src/analysis/physics\l/etaprime/mctrue_3pi0.cc">
<polygon fill="white" stroke="black" points="605.5,-7 605.5,-41 732.5,-41 732.5,-7 605.5,-7"/>
<text text-anchor="start" x="613.5" y="-28" font-family="Helvetica,sans-Serif" font-size="10.00">src/analysis/physics</text>
<text text-anchor="middle" x="669" y="-15" font-family="Helvetica,sans-Serif" font-size="10.00">/etaprime/mctrue_3pi0.cc</text>
</a>
</g>
<!-- Node5&#45;&gt;Node10 -->
<g id="edge24" class="edge"><title>Node5&#45;&gt;Node10</title>
<path fill="none" stroke="midnightblue" d="M653.014,-159.614C648.931,-151.075 645.067,-141.383 643,-132 638.411,-111.166 638.669,-104.889 643,-84 646.135,-68.882 653.277,-52.8933 659.284,-41.2257"/>
<polygon fill="midnightblue" stroke="midnightblue" points="649.977,-161.362 657.633,-168.686 656.215,-158.186 649.977,-161.362"/>
</g>
<!-- Node11 -->
<g id="node24" class="node"><title>Node11</title>
<a xlink:href="omega_8h.html" target="_top" xlink:title="src/analysis/physics\l/omega/omega.h">
<polygon fill="white" stroke="black" points="1064,-91 1064,-125 1170,-125 1170,-91 1064,-91"/>
<text text-anchor="start" x="1072" y="-112" font-family="Helvetica,sans-Serif" font-size="10.00">src/analysis/physics</text>
<text text-anchor="middle" x="1117" y="-99" font-family="Helvetica,sans-Serif" font-size="10.00">/omega/omega.h</text>
</a>
</g>
<!-- Node5&#45;&gt;Node11 -->
<g id="edge26" class="edge"><title>Node5&#45;&gt;Node11</title>
<path fill="none" stroke="midnightblue" d="M723.319,-182.31C799.139,-176.346 939.139,-162.077 1055,-132 1062.15,-130.144 1069.6,-127.716 1076.75,-125.118"/>
<polygon fill="midnightblue" stroke="midnightblue" points="722.759,-178.843 713.056,-183.098 723.294,-185.823 722.759,-178.843"/>
</g>
<!-- Node13 -->
<g id="node30" class="node"><title>Node13</title>
<a xlink:href="_physics_stats_8cc.html" target="_top" xlink:title="src/analysis/physics\l/tpc/PhysicsStats.cc">
<polygon fill="white" stroke="black" points="830,-91 830,-125 938,-125 938,-91 830,-91"/>
<text text-anchor="start" x="838" y="-112" font-family="Helvetica,sans-Serif" font-size="10.00">src/analysis/physics</text>
<text text-anchor="middle" x="884" y="-99" font-family="Helvetica,sans-Serif" font-size="10.00">/tpc/PhysicsStats.cc</text>
</a>
</g>
<!-- Node5&#45;&gt;Node13 -->
<g id="edge34" class="edge"><title>Node5&#45;&gt;Node13</title>
<path fill="none" stroke="midnightblue" d="M722.661,-166.261C757.865,-153.549 803.165,-137.19 836.798,-125.045"/>
<polygon fill="midnightblue" stroke="midnightblue" points="721.235,-163.055 713.018,-169.744 723.612,-169.639 721.235,-163.055"/>
</g>
<!-- Node14 -->
<g id="node32" class="node"><title>Node14</title>
<a xlink:href="particle__tools_8cc.html" target="_top" xlink:title="src/analysis/utils\l/particle_tools.cc">
<polygon fill="white" stroke="black" points="955.5,-91 955.5,-125 1046.5,-125 1046.5,-91 955.5,-91"/>
<text text-anchor="start" x="963.5" y="-112" font-family="Helvetica,sans-Serif" font-size="10.00">src/analysis/utils</text>
<text text-anchor="middle" x="1001" y="-99" font-family="Helvetica,sans-Serif" font-size="10.00">/particle_tools.cc</text>
</a>
</g>
<!-- Node5&#45;&gt;Node14 -->
<g id="edge36" class="edge"><title>Node5&#45;&gt;Node14</title>
<path fill="none" stroke="midnightblue" d="M723.465,-179.052C780.434,-171.041 871.237,-155.827 947,-132 953.166,-130.061 959.567,-127.623 965.715,-125.049"/>
<polygon fill="midnightblue" stroke="midnightblue" points="722.66,-175.63 713.232,-180.465 723.617,-182.564 722.66,-175.63"/>
</g>
<!-- Node9&#45;&gt;Node10 -->
<g id="edge22" class="edge"><title>Node9&#45;&gt;Node10</title>
<path fill="none" stroke="midnightblue" d="M699.114,-81.4902C692.197,-68.2847 684.035,-52.7033 677.955,-41.0952"/>
<polygon fill="midnightblue" stroke="midnightblue" points="696.143,-83.3609 703.883,-90.5951 702.343,-80.1128 696.143,-83.3609"/>
</g>
<!-- Node11&#45;&gt;Node4 -->
<g id="edge30" class="edge"><title>Node11&#45;&gt;Node4</title>
<path fill="none" stroke="midnightblue" d="M1129.62,-81.4902C1135.91,-68.2847 1143.33,-52.7033 1148.86,-41.0952"/>
<polygon fill="midnightblue" stroke="midnightblue" points="1126.43,-80.0617 1125.29,-90.5951 1132.75,-83.0713 1126.43,-80.0617"/>
</g>
<!-- Node12 -->
<g id="node26" class="node"><title>Node12</title>
<a xlink:href="omega__histograms_8cc.html" target="_top" xlink:title="progs/omega_histograms.cc">
<polygon fill="white" stroke="black" points="946,-13.5 946,-34.5 1086,-34.5 1086,-13.5 946,-13.5"/>
<text text-anchor="middle" x="1016" y="-21.5" font-family="Helvetica,sans-Serif" font-size="10.00">progs/omega_histograms.cc</text>
</a>
</g>
<!-- Node11&#45;&gt;Node12 -->
<g id="edge28" class="edge"><title>Node11&#45;&gt;Node12</title>
<path fill="none" stroke="midnightblue" d="M1088.34,-84.1613C1068.78,-67.8938 1043.8,-47.1242 1028.9,-34.7307"/>
<polygon fill="midnightblue" stroke="midnightblue" points="1086.15,-86.8917 1096.07,-90.5951 1090.62,-81.5098 1086.15,-86.8917"/>
</g>
</g>
</svg>
