<?xml version="1.0" encoding="UTF-8" standalone="no"?>
<!DOCTYPE svg PUBLIC "-//W3C//DTD SVG 1.1//EN"
 "http://www.w3.org/Graphics/SVG/1.1/DTD/svg11.dtd">
<!-- Generated by graphviz version 2.26.3 (20100126.1600)
 -->
<!-- Title: src/analysis/physics/tpc/PhysicsStats.cc Pages: 1 -->
<svg width="2764pt" height="566pt"
 viewBox="0.00 0.00 2764.33 566.00" xmlns="http://www.w3.org/2000/svg" xmlns:xlink="http://www.w3.org/1999/xlink">
<g id="graph1" class="graph" transform="scale(1 1) rotate(0) translate(4 562)">
<title>src/analysis/physics/tpc/PhysicsStats.cc</title>
<polygon fill="white" stroke="white" points="-4,5 -4,-562 2761.33,-562 2761.33,5 -4,5"/>
<!-- Node1 -->
<g id="node1" class="node"><title>Node1</title>
<polygon fill="#bfbfbf" stroke="black" points="624.325,-523 624.325,-557 732.325,-557 732.325,-523 624.325,-523"/>
<text text-anchor="start" x="632.325" y="-544" font-family="Helvetica,sans-Serif" font-size="10.00">src/analysis/physics</text>
<text text-anchor="middle" x="678.325" y="-531" font-family="Helvetica,sans-Serif" font-size="10.00">/tpc/PhysicsStats.cc</text>
</g>
<!-- Node2 -->
<g id="node3" class="node"><title>Node2</title>
<a xlink:href="_physics_stats_8h.html" target="_top" xlink:title="PhysicsStats.h">
<polygon fill="white" stroke="black" points="797.825,-464.5 797.825,-485.5 880.825,-485.5 880.825,-464.5 797.825,-464.5"/>
<text text-anchor="middle" x="839.325" y="-472.5" font-family="Helvetica,sans-Serif" font-size="10.00">PhysicsStats.h</text>
</a>
</g>
<!-- Node1&#45;&gt;Node2 -->
<g id="edge2" class="edge"><title>Node1&#45;&gt;Node2</title>
<path fill="none" stroke="midnightblue" d="M720.626,-522.922C746.452,-512.495 779.107,-499.312 803.626,-489.413"/>
<polygon fill="midnightblue" stroke="midnightblue" points="804.963,-492.648 812.925,-485.658 802.342,-486.157 804.963,-492.648"/>
</g>
<!-- Node17 -->
<g id="node35" class="node"><title>Node17</title>
<a xlink:href="root__draw_8h.html" target="_top" xlink:title="root_draw.h">
<polygon fill="white" stroke="black" points="1956.33,-232.5 1956.33,-253.5 2024.33,-253.5 2024.33,-232.5 1956.33,-232.5"/>
<text text-anchor="middle" x="1990.33" y="-240.5" font-family="Helvetica,sans-Serif" font-size="10.00">root_draw.h</text>
</a>
</g>
<!-- Node1&#45;&gt;Node17 -->
<g id="edge260" class="edge"><title>Node1&#45;&gt;Node17</title>
<path fill="none" stroke="midnightblue" d="M732.488,-537.759C978.333,-527.237 1977.33,-480.57 1977.33,-417 1977.33,-417 1977.33,-417 1977.33,-359 1977.33,-325.389 1982.78,-286.638 1986.62,-263.516"/>
<polygon fill="midnightblue" stroke="midnightblue" points="1990.1,-263.961 1988.35,-253.512 1983.2,-262.771 1990.1,-263.961"/>
</g>
<!-- Node29 -->
<g id="node65" class="node"><title>Node29</title>
<a xlink:href="_particle_8h.html" target="_top" xlink:title="analysis/data/Particle.h">
<polygon fill="white" stroke="black" points="430.825,-290.5 430.825,-311.5 549.825,-311.5 549.825,-290.5 430.825,-290.5"/>
<text text-anchor="middle" x="490.325" y="-298.5" font-family="Helvetica,sans-Serif" font-size="10.00">analysis/data/Particle.h</text>
</a>
</g>
<!-- Node1&#45;&gt;Node29 -->
<g id="edge256" class="edge"><title>Node1&#45;&gt;Node29</title>
<path fill="none" stroke="midnightblue" d="M664.805,-522.812C630.549,-479.263 540.552,-364.852 505.039,-319.705"/>
<polygon fill="midnightblue" stroke="midnightblue" points="507.629,-317.337 498.696,-311.641 502.127,-321.665 507.629,-317.337"/>
</g>
<!-- Node37 -->
<g id="node96" class="node"><title>Node37</title>
<a xlink:href="_particle_type_8h.html" target="_top" xlink:title="base/ParticleType.h">
<polygon fill="white" stroke="black" points="100.325,-232.5 100.325,-253.5 204.325,-253.5 204.325,-232.5 100.325,-232.5"/>
<text text-anchor="middle" x="152.325" y="-240.5" font-family="Helvetica,sans-Serif" font-size="10.00">base/ParticleType.h</text>
</a>
</g>
<!-- Node1&#45;&gt;Node37 -->
<g id="edge258" class="edge"><title>Node1&#45;&gt;Node37</title>
<path fill="none" stroke="midnightblue" d="M624.12,-533.975C482.146,-517.467 110.325,-469.246 110.325,-417 110.325,-417 110.325,-417 110.325,-359 110.325,-323.364 128.066,-285.052 140.487,-262.594"/>
<polygon fill="midnightblue" stroke="midnightblue" points="143.635,-264.141 145.577,-253.725 137.564,-260.656 143.635,-264.141"/>
</g>
<!-- Node48 -->
<g id="node143" class="node"><title>Node48</title>
<polygon fill="white" stroke="#bfbfbf" points="2405.33,-0.5 2405.33,-21.5 2457.33,-21.5 2457.33,-0.5 2405.33,-0.5"/>
<text text-anchor="middle" x="2431.33" y="-8.5" font-family="Helvetica,sans-Serif" font-size="10.00">sstream</text>
</g>
<!-- Node1&#45;&gt;Node48 -->
<g id="edge278" class="edge"><title>Node1&#45;&gt;Node48</title>
<path fill="none" stroke="midnightblue" d="M732.573,-539.704C1059.79,-537.575 2756.33,-521.494 2756.33,-417 2756.33,-417 2756.33,-417 2756.33,-127 2756.33,-66.1819 2551.9,-28.8691 2467.31,-16.0321"/>
<polygon fill="midnightblue" stroke="midnightblue" points="2467.78,-12.5636 2457.37,-14.5537 2466.75,-19.4874 2467.78,-12.5636"/>
</g>
<!-- Node55 -->
<g id="node186" class="node"><title>Node55</title>
<a xlink:href="particle__tools_8h.html" target="_top" xlink:title="utils/particle_tools.h">
<polygon fill="white" stroke="black" points="294.325,-348.5 294.325,-369.5 398.325,-369.5 398.325,-348.5 294.325,-348.5"/>
<text text-anchor="middle" x="346.325" y="-356.5" font-family="Helvetica,sans-Serif" font-size="10.00">utils/particle_tools.h</text>
</a>
</g>
<!-- Node1&#45;&gt;Node55 -->
<g id="edge262" class="edge"><title>Node1&#45;&gt;Node55</title>
<path fill="none" stroke="midnightblue" d="M624.112,-528.752C588.691,-520.081 542.161,-506.132 504.325,-486 447.77,-455.908 391.757,-404.398 364.11,-377.144"/>
<polygon fill="midnightblue" stroke="midnightblue" points="366.329,-374.414 356.779,-369.826 361.384,-379.368 366.329,-374.414"/>
</g>
<!-- Node3 -->
<g id="node5" class="node"><title>Node3</title>
<a xlink:href="_physics_8h.html" target="_top" xlink:title="physics/Physics.h">
<polygon fill="white" stroke="black" points="1041.83,-406.5 1041.83,-427.5 1138.83,-427.5 1138.83,-406.5 1041.83,-406.5"/>
<text text-anchor="middle" x="1090.33" y="-414.5" font-family="Helvetica,sans-Serif" font-size="10.00">physics/Physics.h</text>
</a>
</g>
<!-- Node2&#45;&gt;Node3 -->
<g id="edge4" class="edge"><title>Node2&#45;&gt;Node3</title>
<path fill="none" stroke="midnightblue" d="M881.055,-465.357C923.133,-455.634 988.333,-440.568 1034.77,-429.838"/>
<polygon fill="midnightblue" stroke="midnightblue" points="1035.71,-433.212 1044.67,-427.55 1034.14,-426.391 1035.71,-433.212"/>
</g>
<!-- Node4 -->
<g id="node7" class="node"><title>Node4</title>
<a xlink:href="_histogram_factories_8h.html" target="_top" xlink:title="analysis/plot/HistogramFactories.h">
<polygon fill="white" stroke="black" points="1062.33,-348.5 1062.33,-369.5 1230.33,-369.5 1230.33,-348.5 1062.33,-348.5"/>
<text text-anchor="middle" x="1146.33" y="-356.5" font-family="Helvetica,sans-Serif" font-size="10.00">analysis/plot/HistogramFactories.h</text>
</a>
</g>
<!-- Node3&#45;&gt;Node4 -->
<g id="edge6" class="edge"><title>Node3&#45;&gt;Node4</title>
<path fill="none" stroke="midnightblue" d="M1100.6,-406.362C1108.57,-398.104 1119.8,-386.472 1129.14,-376.803"/>
<polygon fill="midnightblue" stroke="midnightblue" points="1131.69,-379.196 1136.12,-369.571 1126.66,-374.334 1131.69,-379.196"/>
</g>
<!-- Node8 -->
<g id="node15" class="node"><title>Node8</title>
<polygon fill="white" stroke="#bfbfbf" points="827.825,-0.5 827.825,-21.5 868.825,-21.5 868.825,-0.5 827.825,-0.5"/>
<text text-anchor="middle" x="848.325" y="-8.5" font-family="Helvetica,sans-Serif" font-size="10.00">string</text>
</g>
<!-- Node3&#45;&gt;Node8 -->
<g id="edge248" class="edge"><title>Node3&#45;&gt;Node8</title>
<path fill="none" stroke="midnightblue" d="M1041.67,-415.509C878.574,-410.326 357.41,-392.189 285.325,-370 189.311,-340.445 142.387,-340.516 91.3252,-254 58.2441,-197.949 86.4505,-152.518 140.325,-116 203.975,-72.856 228.184,-74.3256 303.325,-58 402.828,-36.3813 718.032,-18.0028 817.76,-12.6049"/>
<polygon fill="midnightblue" stroke="midnightblue" points="817.985,-16.0979 827.783,-12.067 817.609,-9.10801 817.985,-16.0979"/>
</g>
<!-- Node18 -->
<g id="node38" class="node"><title>Node18</title>
<polygon fill="white" stroke="#bfbfbf" points="1231.83,-116.5 1231.83,-137.5 1260.83,-137.5 1260.83,-116.5 1231.83,-116.5"/>
<text text-anchor="middle" x="1246.33" y="-124.5" font-family="Helvetica,sans-Serif" font-size="10.00">list</text>
</g>
<!-- Node3&#45;&gt;Node18 -->
<g id="edge246" class="edge"><title>Node3&#45;&gt;Node18</title>
<path fill="none" stroke="midnightblue" d="M1078.45,-406.36C1069.62,-397.599 1058.29,-384.327 1053.33,-370 1037.11,-323.174 1055.04,-271.993 1091.33,-232 1118.07,-202.523 1140.15,-217.994 1173.33,-196 1195.15,-181.527 1216.5,-160.287 1230.41,-145.202"/>
<polygon fill="midnightblue" stroke="midnightblue" points="1233.23,-147.304 1237.33,-137.536 1228.03,-142.613 1233.23,-147.304"/>
</g>
<!-- Node19 -->
<g id="node41" class="node"><title>Node19</title>
<polygon fill="white" stroke="#bfbfbf" points="583.825,-174.5 583.825,-195.5 618.825,-195.5 618.825,-174.5 583.825,-174.5"/>
<text text-anchor="middle" x="601.325" y="-182.5" font-family="Helvetica,sans-Serif" font-size="10.00">map</text>
</g>
<!-- Node3&#45;&gt;Node19 -->
<g id="edge250" class="edge"><title>Node3&#45;&gt;Node19</title>
<path fill="none" stroke="midnightblue" d="M1047.62,-406.421C1012.63,-397.494 961.959,-383.967 918.325,-370 776.236,-324.517 690.431,-375.122 603.325,-254 593.512,-240.354 593.851,-220.951 596.163,-206.193"/>
<polygon fill="midnightblue" stroke="midnightblue" points="599.675,-206.476 598.181,-195.987 592.808,-205.118 599.675,-206.476"/>
</g>
<!-- Node20 -->
<g id="node43" class="node"><title>Node20</title>
<polygon fill="white" stroke="#bfbfbf" points="1312.33,-174.5 1312.33,-195.5 1364.33,-195.5 1364.33,-174.5 1312.33,-174.5"/>
<text text-anchor="middle" x="1338.33" y="-182.5" font-family="Helvetica,sans-Serif" font-size="10.00">memory</text>
</g>
<!-- Node3&#45;&gt;Node20 -->
<g id="edge252" class="edge"><title>Node3&#45;&gt;Node20</title>
<path fill="none" stroke="midnightblue" d="M1139.25,-416.061C1259.19,-413.254 1560.32,-402.961 1590.33,-370 1612.64,-345.491 1703.16,-364.915 1588.33,-232 1557.97,-196.867 1433.01,-206.875 1374.69,-196.813"/>
<polygon fill="midnightblue" stroke="midnightblue" points="1375.12,-193.327 1364.61,-194.685 1373.67,-200.176 1375.12,-193.327"/>
</g>
<!-- Node21 -->
<g id="node45" class="node"><title>Node21</title>
<polygon fill="white" stroke="#bfbfbf" points="2045.83,-174.5 2045.83,-195.5 2104.83,-195.5 2104.83,-174.5 2045.83,-174.5"/>
<text text-anchor="middle" x="2075.33" y="-182.5" font-family="Helvetica,sans-Serif" font-size="10.00">functional</text>
</g>
<!-- Node3&#45;&gt;Node21 -->
<g id="edge254" class="edge"><title>Node3&#45;&gt;Node21</title>
<path fill="none" stroke="midnightblue" d="M1138.88,-415.791C1333.49,-410.453 2049.68,-385.879 2115.33,-312 2143.04,-280.815 2111.8,-230.484 2090.95,-203.499"/>
<polygon fill="midnightblue" stroke="midnightblue" points="2093.62,-201.23 2084.64,-195.612 2088.16,-205.605 2093.62,-201.23"/>
</g>
<!-- Node41 -->
<g id="node117" class="node"><title>Node41</title>
<a xlink:href="_event_8h.html" target="_top" xlink:title="analysis/data/Event.h">
<polygon fill="white" stroke="black" points="1470.83,-348.5 1470.83,-369.5 1581.83,-369.5 1581.83,-348.5 1470.83,-348.5"/>
<text text-anchor="middle" x="1526.33" y="-356.5" font-family="Helvetica,sans-Serif" font-size="10.00">analysis/data/Event.h</text>
</a>
</g>
<!-- Node3&#45;&gt;Node41 -->
<g id="edge152" class="edge"><title>Node3&#45;&gt;Node41</title>
<path fill="none" stroke="midnightblue" d="M1139.07,-410.515C1217.62,-400.066 1372.31,-379.488 1460.55,-367.75"/>
<polygon fill="midnightblue" stroke="midnightblue" points="1461.26,-371.186 1470.71,-366.398 1460.34,-364.247 1461.26,-371.186"/>
</g>
<!-- Node53 -->
<g id="node169" class="node"><title>Node53</title>
<a xlink:href="_slowcontrol_8h.html" target="_top" xlink:title="analysis/data/Slowcontrol.h">
<polygon fill="white" stroke="black" points="2591.83,-116.5 2591.83,-137.5 2728.83,-137.5 2728.83,-116.5 2591.83,-116.5"/>
<text text-anchor="middle" x="2660.33" y="-124.5" font-family="Helvetica,sans-Serif" font-size="10.00">analysis/data/Slowcontrol.h</text>
</a>
</g>
<!-- Node3&#45;&gt;Node53 -->
<g id="edge232" class="edge"><title>Node3&#45;&gt;Node53</title>
<path fill="none" stroke="midnightblue" d="M1138.99,-415.944C1400.93,-409.951 2631.33,-377.715 2631.33,-301 2631.33,-301 2631.33,-301 2631.33,-243 2631.33,-208.592 2643.48,-170.112 2652.05,-147.257"/>
<polygon fill="midnightblue" stroke="midnightblue" points="2655.43,-148.24 2655.79,-137.652 2648.9,-145.7 2655.43,-148.24"/>
</g>
<!-- Node54 -->
<g id="node173" class="node"><title>Node54</title>
<a xlink:href="_options_list_8h.html" target="_top" xlink:title="base/OptionsList.h">
<polygon fill="white" stroke="black" points="612.325,-232.5 612.325,-253.5 710.325,-253.5 710.325,-232.5 612.325,-232.5"/>
<text text-anchor="middle" x="661.325" y="-240.5" font-family="Helvetica,sans-Serif" font-size="10.00">base/OptionsList.h</text>
</a>
</g>
<!-- Node3&#45;&gt;Node54 -->
<g id="edge238" class="edge"><title>Node3&#45;&gt;Node54</title>
<path fill="none" stroke="midnightblue" d="M1064.14,-406.377C990.377,-376.462 780.838,-291.474 696.818,-257.396"/>
<polygon fill="midnightblue" stroke="midnightblue" points="698.027,-254.109 687.444,-253.594 695.396,-260.596 698.027,-254.109"/>
</g>
<!-- Node5 -->
<g id="node9" class="node"><title>Node5</title>
<a xlink:href="_histogram_8h.html" target="_top" xlink:title="Histogram.h">
<polygon fill="white" stroke="black" points="1792.33,-232.5 1792.33,-253.5 1862.33,-253.5 1862.33,-232.5 1792.33,-232.5"/>
<text text-anchor="middle" x="1827.33" y="-240.5" font-family="Helvetica,sans-Serif" font-size="10.00">Histogram.h</text>
</a>
</g>
<!-- Node4&#45;&gt;Node5 -->
<g id="edge8" class="edge"><title>Node4&#45;&gt;Node5</title>
<path fill="none" stroke="midnightblue" d="M1222.69,-348.47C1340.74,-331.737 1574.74,-296.759 1782.45,-254.064"/>
<polygon fill="midnightblue" stroke="midnightblue" points="1783.23,-257.476 1792.32,-252.025 1781.82,-250.62 1783.23,-257.476"/>
</g>
<!-- Node4&#45;&gt;Node8 -->
<g id="edge150" class="edge"><title>Node4&#45;&gt;Node8</title>
<path fill="none" stroke="midnightblue" d="M1093.73,-348.488C992.36,-327.705 778.033,-281.039 757.325,-254 701.872,-181.594 791.039,-71.7347 830.768,-28.944"/>
<polygon fill="midnightblue" stroke="midnightblue" points="833.449,-31.2029 837.781,-21.5342 828.365,-26.3909 833.449,-31.2029"/>
</g>
<!-- Node16 -->
<g id="node32" class="node"><title>Node16</title>
<a xlink:href="_smart_hist_8h.html" target="_top" xlink:title="SmartHist.h">
<polygon fill="white" stroke="black" points="1234.83,-290.5 1234.83,-311.5 1303.83,-311.5 1303.83,-290.5 1234.83,-290.5"/>
<text text-anchor="middle" x="1269.33" y="-298.5" font-family="Helvetica,sans-Serif" font-size="10.00">SmartHist.h</text>
</a>
</g>
<!-- Node4&#45;&gt;Node16 -->
<g id="edge32" class="edge"><title>Node4&#45;&gt;Node16</title>
<path fill="none" stroke="midnightblue" d="M1168.6,-348.497C1187.9,-339.397 1216.04,-326.127 1237.67,-315.925"/>
<polygon fill="midnightblue" stroke="midnightblue" points="1239.25,-319.052 1246.8,-311.621 1236.26,-312.721 1239.25,-319.052"/>
</g>
<!-- Node4&#45;&gt;Node29 -->
<g id="edge72" class="edge"><title>Node4&#45;&gt;Node29</title>
<path fill="none" stroke="midnightblue" d="M1062.24,-351.566C931.563,-340.012 682.13,-317.958 560.505,-307.205"/>
<polygon fill="midnightblue" stroke="midnightblue" points="560.471,-303.688 550.202,-306.294 559.855,-310.661 560.471,-303.688"/>
</g>
<!-- Node6 -->
<g id="node11" class="node"><title>Node6</title>
<polygon fill="white" stroke="#bfbfbf" points="1496.33,-174.5 1496.33,-195.5 1550.33,-195.5 1550.33,-174.5 1496.33,-174.5"/>
<text text-anchor="middle" x="1523.33" y="-182.5" font-family="Helvetica,sans-Serif" font-size="10.00">TColor.h</text>
</g>
<!-- Node5&#45;&gt;Node6 -->
<g id="edge10" class="edge"><title>Node5&#45;&gt;Node6</title>
<path fill="none" stroke="midnightblue" d="M1792.32,-233.974C1789.29,-233.275 1786.26,-232.606 1783.33,-232 1686.73,-212.021 1660.75,-216.806 1564.33,-196 1563.07,-195.729 1561.79,-195.444 1560.51,-195.148"/>
<polygon fill="midnightblue" stroke="midnightblue" points="1561.13,-191.696 1550.58,-192.716 1559.46,-198.495 1561.13,-191.696"/>
</g>
<!-- Node7 -->
<g id="node13" class="node"><title>Node7</title>
<polygon fill="white" stroke="#bfbfbf" points="1636.33,-0.5 1636.33,-21.5 1680.33,-21.5 1680.33,-0.5 1636.33,-0.5"/>
<text text-anchor="middle" x="1658.33" y="-8.5" font-family="Helvetica,sans-Serif" font-size="10.00">vector</text>
</g>
<!-- Node5&#45;&gt;Node7 -->
<g id="edge12" class="edge"><title>Node5&#45;&gt;Node7</title>
<path fill="none" stroke="midnightblue" d="M1837.46,-232.133C1864.82,-201.463 1935.21,-112.895 1890.33,-58 1865.47,-27.6012 1748.44,-16.3964 1690.7,-12.6691"/>
<polygon fill="midnightblue" stroke="midnightblue" points="1690.84,-9.17123 1680.64,-12.0573 1690.41,-16.1583 1690.84,-9.17123"/>
</g>
<!-- Node5&#45;&gt;Node8 -->
<g id="edge14" class="edge"><title>Node5&#45;&gt;Node8</title>
<path fill="none" stroke="midnightblue" d="M1791.87,-233.734C1788.99,-233.104 1786.11,-232.516 1783.33,-232 1718.17,-219.941 1541.09,-234.726 1487.33,-196 1455.38,-172.995 1480.66,-139.827 1449.33,-116 1357.74,-46.3504 988.721,-19.2937 879.149,-12.7005"/>
<polygon fill="midnightblue" stroke="midnightblue" points="879.274,-9.20188 869.086,-12.1091 878.863,-16.1898 879.274,-9.20188"/>
</g>
<!-- Node9 -->
<g id="node17" class="node"><title>Node9</title>
<a xlink:href="interval_8h.html" target="_top" xlink:title="base/interval.h">
<polygon fill="white" stroke="black" points="1720.33,-174.5 1720.33,-195.5 1800.33,-195.5 1800.33,-174.5 1720.33,-174.5"/>
<text text-anchor="middle" x="1760.33" y="-182.5" font-family="Helvetica,sans-Serif" font-size="10.00">base/interval.h</text>
</a>
</g>
<!-- Node5&#45;&gt;Node9 -->
<g id="edge16" class="edge"><title>Node5&#45;&gt;Node9</title>
<path fill="none" stroke="midnightblue" d="M1815.04,-232.362C1805.31,-223.941 1791.53,-212.011 1780.23,-202.231"/>
<polygon fill="midnightblue" stroke="midnightblue" points="1782.39,-199.469 1772.54,-195.571 1777.81,-204.762 1782.39,-199.469"/>
</g>
<!-- Node10 -->
<g id="node19" class="node"><title>Node10</title>
<polygon fill="white" stroke="#bfbfbf" points="1562.33,-0.5 1562.33,-21.5 1618.33,-21.5 1618.33,-0.5 1562.33,-0.5"/>
<text text-anchor="middle" x="1590.33" y="-8.5" font-family="Helvetica,sans-Serif" font-size="10.00">algorithm</text>
</g>
<!-- Node9&#45;&gt;Node10 -->
<g id="edge18" class="edge"><title>Node9&#45;&gt;Node10</title>
<path fill="none" stroke="midnightblue" d="M1727.91,-174.347C1707.16,-166.475 1680.45,-154.296 1660.33,-138 1625.45,-109.765 1605.21,-59.2867 1596.13,-31.2231"/>
<polygon fill="midnightblue" stroke="midnightblue" points="1599.47,-30.1876 1593.18,-21.658 1592.78,-32.245 1599.47,-30.1876"/>
</g>
<!-- Node11 -->
<g id="node21" class="node"><title>Node11</title>
<polygon fill="white" stroke="#bfbfbf" points="1704.83,-58.5 1704.83,-79.5 1763.83,-79.5 1763.83,-58.5 1704.83,-58.5"/>
<text text-anchor="middle" x="1734.33" y="-66.5" font-family="Helvetica,sans-Serif" font-size="10.00">stdexcept</text>
</g>
<!-- Node9&#45;&gt;Node11 -->
<g id="edge20" class="edge"><title>Node9&#45;&gt;Node11</title>
<path fill="none" stroke="midnightblue" d="M1757.93,-174.295C1753.61,-155.045 1744.48,-114.289 1738.92,-89.5091"/>
<polygon fill="midnightblue" stroke="midnightblue" points="1742.32,-88.6716 1736.72,-79.6792 1735.49,-90.2026 1742.32,-88.6716"/>
</g>
<!-- Node12 -->
<g id="node23" class="node"><title>Node12</title>
<a xlink:href="printable_8h.html" target="_top" xlink:title="printable.h">
<polygon fill="white" stroke="black" points="1625.33,-58.5 1625.33,-79.5 1687.33,-79.5 1687.33,-58.5 1625.33,-58.5"/>
<text text-anchor="middle" x="1656.33" y="-66.5" font-family="Helvetica,sans-Serif" font-size="10.00">printable.h</text>
</a>
</g>
<!-- Node9&#45;&gt;Node12 -->
<g id="edge22" class="edge"><title>Node9&#45;&gt;Node12</title>
<path fill="none" stroke="midnightblue" d="M1728.26,-174.392C1710.26,-166.889 1688.79,-155.088 1675.33,-138 1664.54,-124.311 1659.87,-104.911 1657.85,-90.1667"/>
<polygon fill="midnightblue" stroke="midnightblue" points="1661.31,-89.5443 1656.77,-79.9706 1654.35,-90.2848 1661.31,-89.5443"/>
</g>
<!-- Node14 -->
<g id="node28" class="node"><title>Node14</title>
<a xlink:href="types_8h.html" target="_top" xlink:title="types.h">
<polygon fill="white" stroke="black" points="1391.83,-116.5 1391.83,-137.5 1440.83,-137.5 1440.83,-116.5 1391.83,-116.5"/>
<text text-anchor="middle" x="1416.33" y="-124.5" font-family="Helvetica,sans-Serif" font-size="10.00">types.h</text>
</a>
</g>
<!-- Node9&#45;&gt;Node14 -->
<g id="edge28" class="edge"><title>Node9&#45;&gt;Node14</title>
<path fill="none" stroke="midnightblue" d="M1720.26,-176.651C1715.56,-175.729 1710.84,-174.826 1706.33,-174 1614.6,-157.232 1505.99,-140.445 1451.39,-132.216"/>
<polygon fill="midnightblue" stroke="midnightblue" points="1451.62,-128.712 1441.21,-130.687 1450.58,-135.634 1451.62,-128.712"/>
</g>
<!-- Node15 -->
<g id="node30" class="node"><title>Node15</title>
<polygon fill="white" stroke="#bfbfbf" points="1684.33,-116.5 1684.33,-137.5 1724.33,-137.5 1724.33,-116.5 1684.33,-116.5"/>
<text text-anchor="middle" x="1704.33" y="-124.5" font-family="Helvetica,sans-Serif" font-size="10.00">limits</text>
</g>
<!-- Node9&#45;&gt;Node15 -->
<g id="edge30" class="edge"><title>Node9&#45;&gt;Node15</title>
<path fill="none" stroke="midnightblue" d="M1750.05,-174.362C1742.08,-166.104 1730.85,-154.472 1721.51,-144.803"/>
<polygon fill="midnightblue" stroke="midnightblue" points="1724,-142.334 1714.53,-137.571 1718.96,-147.196 1724,-142.334"/>
</g>
<!-- Node12&#45;&gt;Node7 -->
<g id="edge24" class="edge"><title>Node12&#45;&gt;Node7</title>
<path fill="none" stroke="midnightblue" d="M1656.69,-58.3619C1656.95,-50.9219 1657.3,-40.7427 1657.61,-31.7276"/>
<polygon fill="midnightblue" stroke="midnightblue" points="1661.11,-31.6854 1657.96,-21.5707 1654.12,-31.4441 1661.11,-31.6854"/>
</g>
<!-- Node13 -->
<g id="node26" class="node"><title>Node13</title>
<polygon fill="white" stroke="#bfbfbf" points="578.325,-0.5 578.325,-21.5 630.325,-21.5 630.325,-0.5 578.325,-0.5"/>
<text text-anchor="middle" x="604.325" y="-8.5" font-family="Helvetica,sans-Serif" font-size="10.00">ostream</text>
</g>
<!-- Node12&#45;&gt;Node13 -->
<g id="edge26" class="edge"><title>Node12&#45;&gt;Node13</title>
<path fill="none" stroke="midnightblue" d="M1625.13,-67.2799C1472.47,-58.8634 804.948,-22.0609 640.858,-13.0142"/>
<polygon fill="midnightblue" stroke="midnightblue" points="640.966,-9.51492 630.789,-12.459 640.581,-16.5043 640.966,-9.51492"/>
</g>
<!-- Node16&#45;&gt;Node5 -->
<g id="edge34" class="edge"><title>Node16&#45;&gt;Node5</title>
<path fill="none" stroke="midnightblue" d="M1303.85,-299.677C1385.48,-296.159 1596.82,-284.767 1781.97,-254.027"/>
<polygon fill="midnightblue" stroke="midnightblue" points="1782.6,-257.47 1791.88,-252.358 1781.44,-250.567 1782.6,-257.47"/>
</g>
<!-- Node16&#45;&gt;Node8 -->
<g id="edge66" class="edge"><title>Node16&#45;&gt;Node8</title>
<path fill="none" stroke="midnightblue" d="M1234.77,-294.857C1189.81,-286.364 1114.29,-270.239 1091.33,-254 1030.73,-211.154 1049.38,-168.89 997.325,-116 960.352,-78.434 908.417,-45.3033 876.64,-26.7383"/>
<polygon fill="midnightblue" stroke="midnightblue" points="878.265,-23.6352 867.853,-21.6761 874.771,-29.7007 878.265,-23.6352"/>
</g>
<!-- Node16&#45;&gt;Node17 -->
<g id="edge36" class="edge"><title>Node16&#45;&gt;Node17</title>
<path fill="none" stroke="midnightblue" d="M1303.95,-298.47C1396.21,-291.693 1655.63,-272.388 1871.33,-254 1896.04,-251.893 1923.63,-249.354 1946.01,-247.247"/>
<polygon fill="midnightblue" stroke="midnightblue" points="1946.6,-250.708 1956.23,-246.282 1945.94,-243.739 1946.6,-250.708"/>
</g>
<!-- Node16&#45;&gt;Node20 -->
<g id="edge64" class="edge"><title>Node16&#45;&gt;Node20</title>
<path fill="none" stroke="midnightblue" d="M1304.09,-297.576C1374.77,-290.264 1529.88,-272.293 1545.33,-254 1619.56,-166.051 1722.58,-280.37 1378.33,-196 1377.07,-195.691 1375.79,-195.372 1374.49,-195.044"/>
<polygon fill="midnightblue" stroke="midnightblue" points="1375.08,-191.58 1364.52,-192.43 1373.31,-198.351 1375.08,-191.58"/>
</g>
<!-- Node23 -->
<g id="node49" class="node"><title>Node23</title>
<a xlink:href="memory_8h.html" target="_top" xlink:title="base/std_ext/memory.h">
<polygon fill="white" stroke="black" points="1417.83,-232.5 1417.83,-253.5 1536.83,-253.5 1536.83,-232.5 1417.83,-232.5"/>
<text text-anchor="middle" x="1477.33" y="-240.5" font-family="Helvetica,sans-Serif" font-size="10.00">base/std_ext/memory.h</text>
</a>
</g>
<!-- Node16&#45;&gt;Node23 -->
<g id="edge52" class="edge"><title>Node16&#45;&gt;Node23</title>
<path fill="none" stroke="midnightblue" d="M1304.14,-291.292C1338.54,-281.701 1391.41,-266.957 1429.69,-256.283"/>
<polygon fill="midnightblue" stroke="midnightblue" points="1430.89,-259.583 1439.58,-253.525 1429.01,-252.84 1430.89,-259.583"/>
</g>
<!-- Node24 -->
<g id="node53" class="node"><title>Node24</title>
<polygon fill="white" stroke="#bfbfbf" points="1175.83,-232.5 1175.83,-253.5 1226.83,-253.5 1226.83,-232.5 1175.83,-232.5"/>
<text text-anchor="middle" x="1201.33" y="-240.5" font-family="Helvetica,sans-Serif" font-size="10.00">TH1D.h</text>
</g>
<!-- Node16&#45;&gt;Node24 -->
<g id="edge58" class="edge"><title>Node16&#45;&gt;Node24</title>
<path fill="none" stroke="midnightblue" d="M1256.85,-290.362C1246.98,-281.941 1232.99,-270.011 1221.53,-260.231"/>
<polygon fill="midnightblue" stroke="midnightblue" points="1223.6,-257.397 1213.72,-253.571 1219.06,-262.723 1223.6,-257.397"/>
</g>
<!-- Node25 -->
<g id="node55" class="node"><title>Node25</title>
<polygon fill="white" stroke="#bfbfbf" points="1243.83,-232.5 1243.83,-253.5 1294.83,-253.5 1294.83,-232.5 1243.83,-232.5"/>
<text text-anchor="middle" x="1269.33" y="-240.5" font-family="Helvetica,sans-Serif" font-size="10.00">TH2D.h</text>
</g>
<!-- Node16&#45;&gt;Node25 -->
<g id="edge60" class="edge"><title>Node16&#45;&gt;Node25</title>
<path fill="none" stroke="midnightblue" d="M1269.33,-290.362C1269.33,-282.922 1269.33,-272.743 1269.33,-263.728"/>
<polygon fill="midnightblue" stroke="midnightblue" points="1272.83,-263.571 1269.33,-253.571 1265.83,-263.571 1272.83,-263.571"/>
</g>
<!-- Node26 -->
<g id="node57" class="node"><title>Node26</title>
<polygon fill="white" stroke="#bfbfbf" points="1311.83,-232.5 1311.83,-253.5 1362.83,-253.5 1362.83,-232.5 1311.83,-232.5"/>
<text text-anchor="middle" x="1337.33" y="-240.5" font-family="Helvetica,sans-Serif" font-size="10.00">TH3D.h</text>
</g>
<!-- Node16&#45;&gt;Node26 -->
<g id="edge62" class="edge"><title>Node16&#45;&gt;Node26</title>
<path fill="none" stroke="midnightblue" d="M1281.8,-290.362C1291.67,-281.941 1305.66,-270.011 1317.12,-260.231"/>
<polygon fill="midnightblue" stroke="midnightblue" points="1319.59,-262.723 1324.93,-253.571 1315.05,-257.397 1319.59,-262.723"/>
</g>
<!-- Node27 -->
<g id="node61" class="node"><title>Node27</title>
<polygon fill="white" stroke="#bfbfbf" points="952.325,-232.5 952.325,-253.5 1006.33,-253.5 1006.33,-232.5 952.325,-232.5"/>
<text text-anchor="middle" x="979.325" y="-240.5" font-family="Helvetica,sans-Serif" font-size="10.00">iostream</text>
</g>
<!-- Node16&#45;&gt;Node27 -->
<g id="edge68" class="edge"><title>Node16&#45;&gt;Node27</title>
<path fill="none" stroke="midnightblue" d="M1234.63,-294.061C1179.72,-283.078 1073.22,-261.778 1016.68,-250.472"/>
<polygon fill="midnightblue" stroke="midnightblue" points="1017.22,-247.011 1006.73,-248.481 1015.85,-253.875 1017.22,-247.011"/>
</g>
<!-- Node28 -->
<g id="node63" class="node"><title>Node28</title>
<polygon fill="white" stroke="#bfbfbf" points="1099.83,-232.5 1099.83,-253.5 1158.83,-253.5 1158.83,-232.5 1099.83,-232.5"/>
<text text-anchor="middle" x="1129.33" y="-240.5" font-family="Helvetica,sans-Serif" font-size="10.00">exception</text>
</g>
<!-- Node16&#45;&gt;Node28 -->
<g id="edge70" class="edge"><title>Node16&#45;&gt;Node28</title>
<path fill="none" stroke="midnightblue" d="M1243.97,-290.497C1221.71,-281.275 1189.11,-267.769 1164.36,-257.515"/>
<polygon fill="midnightblue" stroke="midnightblue" points="1165.54,-254.215 1154.96,-253.621 1162.86,-260.682 1165.54,-254.215"/>
</g>
<!-- Node17&#45;&gt;Node7 -->
<g id="edge42" class="edge"><title>Node17&#45;&gt;Node7</title>
<path fill="none" stroke="midnightblue" d="M1989.67,-232.331C1986.95,-198.915 1973.48,-96.2325 1909.33,-58 1872.76,-36.2062 1749.8,-20.6607 1690.65,-14.2537"/>
<polygon fill="midnightblue" stroke="midnightblue" points="1690.69,-10.7391 1680.38,-13.1643 1689.95,-17.7 1690.69,-10.7391"/>
</g>
<!-- Node17&#45;&gt;Node8 -->
<g id="edge38" class="edge"><title>Node17&#45;&gt;Node8</title>
<path fill="none" stroke="midnightblue" d="M1979.68,-232.287C1943.13,-195.784 1822.28,-77.4546 1772.33,-58 1687.63,-25.0175 1030.43,-13.6175 879.258,-11.4184"/>
<polygon fill="midnightblue" stroke="midnightblue" points="878.926,-7.91339 868.877,-11.2704 878.826,-14.9127 878.926,-7.91339"/>
</g>
<!-- Node17&#45;&gt;Node18 -->
<g id="edge40" class="edge"><title>Node17&#45;&gt;Node18</title>
<path fill="none" stroke="midnightblue" d="M1956.17,-239.557C1867.74,-230.542 1635.82,-206.242 1602.33,-196 1581.8,-189.723 1579.76,-180.569 1559.33,-174 1505.3,-156.635 1334.69,-136.695 1270.8,-129.64"/>
<polygon fill="midnightblue" stroke="midnightblue" points="1271.15,-126.157 1260.83,-128.548 1270.39,-133.115 1271.15,-126.157"/>
</g>
<!-- Node17&#45;&gt;Node19 -->
<g id="edge44" class="edge"><title>Node17&#45;&gt;Node19</title>
<path fill="none" stroke="midnightblue" d="M1956.25,-239.34C1932.48,-236.911 1900,-233.843 1871.33,-232 1429.72,-203.623 1318.52,-212.843 876.325,-196 785.993,-192.559 678.982,-188.196 629.281,-186.153"/>
<polygon fill="midnightblue" stroke="midnightblue" points="629.155,-182.645 619.019,-185.731 628.867,-189.639 629.155,-182.645"/>
</g>
<!-- Node17&#45;&gt;Node20 -->
<g id="edge46" class="edge"><title>Node17&#45;&gt;Node20</title>
<path fill="none" stroke="midnightblue" d="M1956.22,-239.809C1932.43,-237.592 1899.94,-234.585 1871.33,-232 1684.37,-215.117 1460.47,-195.603 1374.43,-188.131"/>
<polygon fill="midnightblue" stroke="midnightblue" points="1374.66,-184.638 1364.4,-187.26 1374.06,-191.612 1374.66,-184.638"/>
</g>
<!-- Node17&#45;&gt;Node21 -->
<g id="edge48" class="edge"><title>Node17&#45;&gt;Node21</title>
<path fill="none" stroke="midnightblue" d="M2005.92,-232.362C2018.62,-223.696 2036.76,-211.313 2051.32,-201.382"/>
<polygon fill="midnightblue" stroke="midnightblue" points="2053.55,-204.098 2059.83,-195.571 2049.6,-198.316 2053.55,-204.098"/>
</g>
<!-- Node22 -->
<g id="node47" class="node"><title>Node22</title>
<polygon fill="white" stroke="#bfbfbf" points="2008.33,-116.5 2008.33,-137.5 2064.33,-137.5 2064.33,-116.5 2008.33,-116.5"/>
<text text-anchor="middle" x="2036.33" y="-124.5" font-family="Helvetica,sans-Serif" font-size="10.00">Rtypes.h</text>
</g>
<!-- Node17&#45;&gt;Node22 -->
<g id="edge50" class="edge"><title>Node17&#45;&gt;Node22</title>
<path fill="none" stroke="midnightblue" d="M1994.57,-232.295C2002.24,-212.959 2018.51,-171.923 2028.32,-147.177"/>
<polygon fill="midnightblue" stroke="midnightblue" points="2031.66,-148.265 2032.09,-137.679 2025.15,-145.685 2031.66,-148.265"/>
</g>
<!-- Node23&#45;&gt;Node18 -->
<g id="edge56" class="edge"><title>Node23&#45;&gt;Node18</title>
<path fill="none" stroke="midnightblue" d="M1424.84,-232.499C1381.29,-223.123 1323.39,-208.917 1303.33,-196 1283.85,-183.461 1267.73,-162.13 1257.66,-146.497"/>
<polygon fill="midnightblue" stroke="midnightblue" points="1260.42,-144.307 1252.2,-137.63 1254.46,-147.979 1260.42,-144.307"/>
</g>
<!-- Node23&#45;&gt;Node20 -->
<g id="edge54" class="edge"><title>Node23&#45;&gt;Node20</title>
<path fill="none" stroke="midnightblue" d="M1452.15,-232.497C1430.05,-223.275 1397.69,-209.769 1373.11,-199.515"/>
<polygon fill="midnightblue" stroke="midnightblue" points="1374.36,-196.242 1363.78,-195.621 1371.66,-202.702 1374.36,-196.242"/>
</g>
<!-- Node29&#45;&gt;Node7 -->
<g id="edge142" class="edge"><title>Node29&#45;&gt;Node7</title>
<path fill="none" stroke="midnightblue" d="M465.894,-290.473C451.227,-282.715 433.816,-270.617 425.325,-254 415.541,-234.851 426.558,-184.791 436.325,-174 443.963,-165.561 818.099,-59.8813 829.325,-58 1176.22,0.136951 1277.03,-88.4347 1626.32,-21.6547"/>
<polygon fill="midnightblue" stroke="midnightblue" points="1627.04,-25.0788 1636.19,-19.7376 1625.71,-18.207 1627.04,-25.0788"/>
</g>
<!-- Node29&#45;&gt;Node12 -->
<g id="edge114" class="edge"><title>Node29&#45;&gt;Node12</title>
<path fill="none" stroke="midnightblue" d="M470.94,-290.458C458.219,-282.35 442.632,-269.856 435.325,-254 419.496,-219.652 433.373,-195.732 464.325,-174 520.362,-134.657 702.625,-148.229 770.325,-138 823.507,-129.965 835.94,-122.546 889.325,-116 1165.08,-82.188 1499.75,-72.2846 1615.01,-69.7665"/>
<polygon fill="midnightblue" stroke="midnightblue" points="1615.23,-73.2627 1625.15,-69.5518 1615.08,-66.2643 1615.23,-73.2627"/>
</g>
<!-- Node29&#45;&gt;Node14 -->
<g id="edge116" class="edge"><title>Node29&#45;&gt;Node14</title>
<path fill="none" stroke="midnightblue" d="M499.247,-290.466C507.001,-281.128 518.365,-266.995 527.325,-254 550.863,-219.864 539.784,-195.358 575.325,-174 641.509,-134.228 1192.26,-142.881 1269.33,-138 1307.65,-135.572 1351.56,-132.211 1381.33,-129.844"/>
<polygon fill="midnightblue" stroke="midnightblue" points="1381.94,-133.307 1391.63,-129.021 1381.38,-126.33 1381.94,-133.307"/>
</g>
<!-- Node29&#45;&gt;Node18 -->
<g id="edge144" class="edge"><title>Node29&#45;&gt;Node18</title>
<path fill="none" stroke="midnightblue" d="M473.507,-290.282C455.447,-277.319 430.684,-254.434 441.325,-232 458.788,-195.186 474.348,-188.765 512.325,-174 644.057,-122.785 1006.48,-149.808 1147.33,-138 1172.63,-135.879 1201.47,-132.573 1221.47,-130.139"/>
<polygon fill="midnightblue" stroke="midnightblue" points="1222.09,-133.588 1231.59,-128.889 1221.24,-126.641 1222.09,-133.588"/>
</g>
<!-- Node29&#45;&gt;Node20 -->
<g id="edge148" class="edge"><title>Node29&#45;&gt;Node20</title>
<path fill="none" stroke="midnightblue" d="M550.092,-297.255C648.67,-290.573 840.859,-275.277 905.325,-254 923.857,-247.884 924.811,-238.169 943.325,-232 951.821,-229.169 1205.99,-200.057 1302.04,-189.121"/>
<polygon fill="midnightblue" stroke="midnightblue" points="1302.62,-192.578 1312.16,-187.97 1301.82,-185.623 1302.62,-192.578"/>
</g>
<!-- Node29&#45;&gt;Node27 -->
<g id="edge146" class="edge"><title>Node29&#45;&gt;Node27</title>
<path fill="none" stroke="midnightblue" d="M550.178,-297.728C636.496,-292.33 800.685,-279.519 938.325,-254 939.589,-253.766 940.87,-253.512 942.162,-253.244"/>
<polygon fill="midnightblue" stroke="midnightblue" points="943.161,-256.605 952.115,-250.942 941.584,-249.785 943.161,-256.605"/>
</g>
<!-- Node30 -->
<g id="node67" class="node"><title>Node30</title>
<a xlink:href="_candidate_8h.html" target="_top" xlink:title="analysis/data/Candidate.h">
<polygon fill="white" stroke="black" points="766.325,-232.5 766.325,-253.5 896.325,-253.5 896.325,-232.5 766.325,-232.5"/>
<text text-anchor="middle" x="831.325" y="-240.5" font-family="Helvetica,sans-Serif" font-size="10.00">analysis/data/Candidate.h</text>
</a>
</g>
<!-- Node29&#45;&gt;Node30 -->
<g id="edge74" class="edge"><title>Node29&#45;&gt;Node30</title>
<path fill="none" stroke="midnightblue" d="M550.113,-290.831C608.465,-280.906 697.299,-265.796 759.465,-255.223"/>
<polygon fill="midnightblue" stroke="midnightblue" points="760.318,-258.628 769.589,-253.501 759.144,-251.727 760.318,-258.628"/>
</g>
<!-- Node29&#45;&gt;Node37 -->
<g id="edge118" class="edge"><title>Node29&#45;&gt;Node37</title>
<path fill="none" stroke="midnightblue" d="M430.676,-290.764C369.907,-280.336 276.081,-264.236 214.437,-253.658"/>
<polygon fill="midnightblue" stroke="midnightblue" points="214.9,-250.187 204.453,-251.945 213.717,-257.086 214.9,-250.187"/>
</g>
<!-- Node39 -->
<g id="node105" class="node"><title>Node39</title>
<a xlink:href="_tree_8h.html" target="_top" xlink:title="base/Tree.h">
<polygon fill="white" stroke="black" points="450.325,-232.5 450.325,-253.5 518.325,-253.5 518.325,-232.5 450.325,-232.5"/>
<text text-anchor="middle" x="484.325" y="-240.5" font-family="Helvetica,sans-Serif" font-size="10.00">base/Tree.h</text>
</a>
</g>
<!-- Node29&#45;&gt;Node39 -->
<g id="edge132" class="edge"><title>Node29&#45;&gt;Node39</title>
<path fill="none" stroke="midnightblue" d="M489.225,-290.362C488.455,-282.922 487.402,-272.743 486.469,-263.728"/>
<polygon fill="midnightblue" stroke="midnightblue" points="489.929,-263.157 485.419,-253.571 482.966,-263.878 489.929,-263.157"/>
</g>
<!-- Node40 -->
<g id="node110" class="node"><title>Node40</title>
<polygon fill="white" stroke="#bfbfbf" points="246.325,-174.5 246.325,-195.5 338.325,-195.5 338.325,-174.5 246.325,-174.5"/>
<text text-anchor="middle" x="292.325" y="-182.5" font-family="Helvetica,sans-Serif" font-size="10.00">TLorentzVector.h</text>
</g>
<!-- Node29&#45;&gt;Node40 -->
<g id="edge140" class="edge"><title>Node29&#45;&gt;Node40</title>
<path fill="none" stroke="midnightblue" d="M430.751,-290.472C376.349,-280.263 303.081,-264.779 294.325,-254 283.502,-240.676 284.164,-220.662 286.847,-205.614"/>
<polygon fill="midnightblue" stroke="midnightblue" points="290.298,-206.22 289.023,-195.702 283.461,-204.719 290.298,-206.22"/>
</g>
<!-- Node30&#45;&gt;Node7 -->
<g id="edge112" class="edge"><title>Node30&#45;&gt;Node7</title>
<path fill="none" stroke="midnightblue" d="M896.757,-232.719C938.361,-225.09 992.932,-213.04 1039.33,-196 1075.34,-182.772 1156.25,-129.059 1192.33,-116 1375.22,-49.7958 1435.08,-75.1888 1626.29,-22.0362"/>
<polygon fill="midnightblue" stroke="midnightblue" points="1627.41,-25.3567 1636.08,-19.2763 1625.51,-18.6189 1627.41,-25.3567"/>
</g>
<!-- Node30&#45;&gt;Node12 -->
<g id="edge76" class="edge"><title>Node30&#45;&gt;Node12</title>
<path fill="none" stroke="midnightblue" d="M896.528,-232.732C898.143,-232.485 899.744,-232.24 901.325,-232 1010.13,-215.457 1048.46,-246.353 1146.33,-196 1190.21,-173.422 1179.03,-137.745 1223.33,-116 1291.7,-82.4396 1520.59,-72.5935 1615.03,-69.9212"/>
<polygon fill="midnightblue" stroke="midnightblue" points="1615.17,-73.4189 1625.07,-69.6501 1614.98,-66.4215 1615.17,-73.4189"/>
</g>
<!-- Node30&#45;&gt;Node13 -->
<g id="edge108" class="edge"><title>Node30&#45;&gt;Node13</title>
<path fill="none" stroke="midnightblue" d="M817.071,-232.198C784.997,-207.479 705.636,-143.982 650.325,-80 637.014,-64.602 624.376,-45.1677 615.727,-30.8511"/>
<polygon fill="midnightblue" stroke="midnightblue" points="618.52,-28.6969 610.418,-21.8697 612.494,-32.2592 618.52,-28.6969"/>
</g>
<!-- Node30&#45;&gt;Node14 -->
<g id="edge78" class="edge"><title>Node30&#45;&gt;Node14</title>
<path fill="none" stroke="midnightblue" d="M896.417,-233.896C901.123,-233.25 905.797,-232.613 910.325,-232 1032.04,-215.531 1064.2,-221.587 1184.33,-196 1255.78,-180.781 1337.18,-154.411 1382.06,-139.054"/>
<polygon fill="midnightblue" stroke="midnightblue" points="1383.28,-142.335 1391.6,-135.768 1381,-135.716 1383.28,-142.335"/>
</g>
<!-- Node30&#45;&gt;Node20 -->
<g id="edge110" class="edge"><title>Node30&#45;&gt;Node20</title>
<path fill="none" stroke="midnightblue" d="M896.392,-233.699C901.104,-233.1 905.786,-232.526 910.325,-232 1082.36,-212.053 1127.95,-227.081 1298.33,-196 1299.6,-195.767 1300.89,-195.513 1302.2,-195.241"/>
<polygon fill="midnightblue" stroke="midnightblue" points="1303.29,-198.579 1312.23,-192.885 1301.69,-191.765 1303.29,-198.579"/>
</g>
<!-- Node31 -->
<g id="node71" class="node"><title>Node31</title>
<a xlink:href="_detector__t_8h.html" target="_top" xlink:title="base/Detector_t.h">
<polygon fill="white" stroke="black" points="1043.83,-116.5 1043.83,-137.5 1138.83,-137.5 1138.83,-116.5 1043.83,-116.5"/>
<text text-anchor="middle" x="1091.33" y="-124.5" font-family="Helvetica,sans-Serif" font-size="10.00">base/Detector_t.h</text>
</a>
</g>
<!-- Node30&#45;&gt;Node31 -->
<g id="edge80" class="edge"><title>Node30&#45;&gt;Node31</title>
<path fill="none" stroke="midnightblue" d="M896.426,-233.191C931.56,-226.136 974.866,-214.513 1010.33,-196 1035.43,-182.895 1059.51,-160.746 1074.79,-145.082"/>
<polygon fill="midnightblue" stroke="midnightblue" points="1077.59,-147.223 1081.94,-137.564 1072.51,-142.399 1077.59,-147.223"/>
</g>
<!-- Node32 -->
<g id="node74" class="node"><title>Node32</title>
<polygon fill="white" stroke="#bfbfbf" points="837.825,-58.5 837.825,-79.5 902.825,-79.5 902.825,-58.5 837.825,-58.5"/>
<text text-anchor="middle" x="870.325" y="-66.5" font-family="Helvetica,sans-Serif" font-size="10.00">TVector3.h</text>
</g>
<!-- Node30&#45;&gt;Node32 -->
<g id="edge106" class="edge"><title>Node30&#45;&gt;Node32</title>
<path fill="none" stroke="midnightblue" d="M833.706,-232.377C840.028,-204.172 857.322,-127.012 865.681,-89.7203"/>
<polygon fill="midnightblue" stroke="midnightblue" points="869.104,-90.4511 867.876,-79.9277 862.273,-88.9201 869.104,-90.4511"/>
</g>
<!-- Node35 -->
<g id="node83" class="node"><title>Node35</title>
<a xlink:href="_cluster_8h.html" target="_top" xlink:title="analysis/data/Cluster.h">
<polygon fill="white" stroke="black" points="884.825,-174.5 884.825,-195.5 1001.83,-195.5 1001.83,-174.5 884.825,-174.5"/>
<text text-anchor="middle" x="943.325" y="-182.5" font-family="Helvetica,sans-Serif" font-size="10.00">analysis/data/Cluster.h</text>
</a>
</g>
<!-- Node30&#45;&gt;Node35 -->
<g id="edge96" class="edge"><title>Node30&#45;&gt;Node35</title>
<path fill="none" stroke="midnightblue" d="M851.608,-232.497C868.943,-223.519 894.116,-210.484 913.706,-200.339"/>
<polygon fill="midnightblue" stroke="midnightblue" points="915.545,-203.328 922.815,-195.621 912.326,-197.112 915.545,-203.328"/>
</g>
<!-- Node31&#45;&gt;Node7 -->
<g id="edge94" class="edge"><title>Node31&#45;&gt;Node7</title>
<path fill="none" stroke="midnightblue" d="M1097.14,-116.283C1106.43,-100.363 1126.27,-70.9517 1152.33,-58 1244.44,-12.22 1508.23,-42.0871 1626.24,-21.5777"/>
<polygon fill="midnightblue" stroke="midnightblue" points="1627.03,-24.9904 1636.18,-19.6529 1625.69,-18.1181 1627.03,-24.9904"/>
</g>
<!-- Node31&#45;&gt;Node8 -->
<g id="edge90" class="edge"><title>Node31&#45;&gt;Node8</title>
<path fill="none" stroke="midnightblue" d="M1084.88,-116.343C1075.05,-101.041 1054.86,-73.0381 1030.33,-58 982.715,-28.8234 917.44,-17.6525 879.385,-13.4521"/>
<polygon fill="midnightblue" stroke="midnightblue" points="879.255,-9.92133 868.955,-12.4013 878.553,-16.8861 879.255,-9.92133"/>
</g>
<!-- Node31&#45;&gt;Node11 -->
<g id="edge88" class="edge"><title>Node31&#45;&gt;Node11</title>
<path fill="none" stroke="midnightblue" d="M1138.98,-122.946C1164.07,-120.832 1195.36,-118.23 1223.33,-116 1430.2,-99.5074 1487.09,-116.948 1694.6,-80.0336"/>
<polygon fill="midnightblue" stroke="midnightblue" points="1695.37,-83.4506 1704.59,-78.2344 1694.13,-76.5613 1695.37,-83.4506"/>
</g>
<!-- Node31&#45;&gt;Node12 -->
<g id="edge82" class="edge"><title>Node31&#45;&gt;Node12</title>
<path fill="none" stroke="midnightblue" d="M1138.9,-121.615C1155.2,-119.796 1173.56,-117.777 1190.33,-116 1347.03,-99.3919 1533.54,-80.9942 1614.92,-73.0343"/>
<polygon fill="midnightblue" stroke="midnightblue" points="1615.62,-76.4825 1625.23,-72.0264 1614.94,-69.5157 1615.62,-76.4825"/>
</g>
<!-- Node31&#45;&gt;Node32 -->
<g id="edge84" class="edge"><title>Node31&#45;&gt;Node32</title>
<path fill="none" stroke="midnightblue" d="M1051.3,-116.497C1012.09,-106.204 952.543,-90.5775 912.577,-80.0887"/>
<polygon fill="midnightblue" stroke="midnightblue" points="913.423,-76.6923 902.862,-77.5391 911.646,-83.463 913.423,-76.6923"/>
</g>
<!-- Node33 -->
<g id="node76" class="node"><title>Node33</title>
<polygon fill="white" stroke="#bfbfbf" points="2347.33,-58.5 2347.33,-79.5 2393.33,-79.5 2393.33,-58.5 2347.33,-58.5"/>
<text text-anchor="middle" x="2370.33" y="-66.5" font-family="Helvetica,sans-Serif" font-size="10.00">cstdint</text>
</g>
<!-- Node31&#45;&gt;Node33 -->
<g id="edge86" class="edge"><title>Node31&#45;&gt;Node33</title>
<path fill="none" stroke="midnightblue" d="M1138.94,-122.464C1164.03,-120.219 1195.32,-117.643 1223.33,-116 1692.12,-88.4924 1811.12,-116.211 2279.33,-80 2298.51,-78.5164 2319.87,-75.9805 2337.07,-73.7173"/>
<polygon fill="midnightblue" stroke="midnightblue" points="2337.75,-77.1582 2347.19,-72.3552 2336.81,-70.2208 2337.75,-77.1582"/>
</g>
<!-- Node34 -->
<g id="node80" class="node"><title>Node34</title>
<polygon fill="white" stroke="#bfbfbf" points="1819.33,-58.5 1819.33,-79.5 1881.33,-79.5 1881.33,-58.5 1819.33,-58.5"/>
<text text-anchor="middle" x="1850.33" y="-66.5" font-family="Helvetica,sans-Serif" font-size="10.00">type_traits</text>
</g>
<!-- Node31&#45;&gt;Node34 -->
<g id="edge92" class="edge"><title>Node31&#45;&gt;Node34</title>
<path fill="none" stroke="midnightblue" d="M1138.97,-122.826C1164.06,-120.679 1195.35,-118.083 1223.33,-116 1467.17,-97.846 1529.09,-105.091 1772.33,-80 1784.32,-78.7627 1797.3,-77.0728 1809.17,-75.3889"/>
<polygon fill="midnightblue" stroke="midnightblue" points="1809.87,-78.8242 1819.27,-73.9222 1808.87,-71.897 1809.87,-78.8242"/>
</g>
<!-- Node35&#45;&gt;Node18 -->
<g id="edge100" class="edge"><title>Node35&#45;&gt;Node18</title>
<path fill="none" stroke="midnightblue" d="M998.196,-174.497C1064.63,-161.78 1173.6,-140.92 1221.93,-131.669"/>
<polygon fill="midnightblue" stroke="midnightblue" points="1222.65,-135.096 1231.81,-129.778 1221.33,-128.221 1222.65,-135.096"/>
</g>
<!-- Node35&#45;&gt;Node31 -->
<g id="edge98" class="edge"><title>Node35&#45;&gt;Node31</title>
<path fill="none" stroke="midnightblue" d="M970.127,-174.497C993.763,-165.234 1028.43,-151.65 1054.63,-141.379"/>
<polygon fill="midnightblue" stroke="midnightblue" points="1056.19,-144.529 1064.22,-137.621 1053.64,-138.011 1056.19,-144.529"/>
</g>
<!-- Node35&#45;&gt;Node32 -->
<g id="edge102" class="edge"><title>Node35&#45;&gt;Node32</title>
<path fill="none" stroke="midnightblue" d="M926.582,-174.405C914.531,-165.945 898.791,-153.043 889.325,-138 880.044,-123.251 875.23,-103.953 872.774,-89.5167"/>
<polygon fill="midnightblue" stroke="midnightblue" points="876.231,-88.9689 871.32,-79.581 869.304,-89.9823 876.231,-88.9689"/>
</g>
<!-- Node36 -->
<g id="node88" class="node"><title>Node36</title>
<a xlink:href="enumfield_8h.html" target="_top" xlink:title="base/enumfield.h">
<polygon fill="white" stroke="black" points="897.825,-116.5 897.825,-137.5 988.825,-137.5 988.825,-116.5 897.825,-116.5"/>
<text text-anchor="middle" x="943.325" y="-124.5" font-family="Helvetica,sans-Serif" font-size="10.00">base/enumfield.h</text>
</a>
</g>
<!-- Node35&#45;&gt;Node36 -->
<g id="edge104" class="edge"><title>Node35&#45;&gt;Node36</title>
<path fill="none" stroke="midnightblue" d="M943.325,-174.362C943.325,-166.922 943.325,-156.743 943.325,-147.728"/>
<polygon fill="midnightblue" stroke="midnightblue" points="946.825,-147.571 943.325,-137.571 939.825,-147.571 946.825,-147.571"/>
</g>
<!-- Node37&#45;&gt;Node7 -->
<g id="edge130" class="edge"><title>Node37&#45;&gt;Node7</title>
<path fill="none" stroke="midnightblue" d="M156.128,-232.437C162.266,-216.99 175.883,-188.502 197.325,-174 416.166,-25.9956 518.017,-89.4803 780.325,-58 1151.14,-13.4978 1255.61,-92.3896 1626.27,-21.6617"/>
<polygon fill="midnightblue" stroke="midnightblue" points="1627.04,-25.0781 1636.2,-19.7448 1625.71,-18.2051 1627.04,-25.0781"/>
</g>
<!-- Node37&#45;&gt;Node8 -->
<g id="edge122" class="edge"><title>Node37&#45;&gt;Node8</title>
<path fill="none" stroke="midnightblue" d="M133.522,-232.48C111.734,-218.952 80.8113,-194.728 97.3252,-174 189.709,-58.0402 687.728,-20.5697 817.429,-12.7056"/>
<polygon fill="midnightblue" stroke="midnightblue" points="817.701,-16.1957 827.477,-12.1115 817.288,-9.20795 817.701,-16.1957"/>
</g>
<!-- Node37&#45;&gt;Node13 -->
<g id="edge124" class="edge"><title>Node37&#45;&gt;Node13</title>
<path fill="none" stroke="midnightblue" d="M119.448,-232.41C100.925,-224.912 78.6918,-213.112 64.3252,-196 23.42,-147.279 -16.7968,-104.771 26.3252,-58 44.7682,-37.9965 444.304,-18.2584 568.093,-12.6044"/>
<polygon fill="midnightblue" stroke="midnightblue" points="568.366,-16.0957 578.197,-12.1463 568.049,-9.10289 568.366,-16.0957"/>
</g>
<!-- Node37&#45;&gt;Node14 -->
<g id="edge120" class="edge"><title>Node37&#45;&gt;Node14</title>
<path fill="none" stroke="midnightblue" d="M161.173,-232.344C175.313,-216.217 204.752,-186.2 237.325,-174 344.772,-133.756 1154.76,-144.282 1269.33,-138 1307.67,-135.897 1351.58,-132.48 1381.34,-130.011"/>
<polygon fill="midnightblue" stroke="midnightblue" points="1381.96,-133.472 1391.64,-129.149 1381.38,-126.496 1381.96,-133.472"/>
</g>
<!-- Node37&#45;&gt;Node19 -->
<g id="edge126" class="edge"><title>Node37&#45;&gt;Node19</title>
<path fill="none" stroke="midnightblue" d="M204.71,-236.233C300.205,-223.897 499.537,-198.149 573.188,-188.635"/>
<polygon fill="midnightblue" stroke="midnightblue" points="574.036,-192.054 583.505,-187.302 573.139,-185.112 574.036,-192.054"/>
</g>
<!-- Node38 -->
<g id="node102" class="node"><title>Node38</title>
<polygon fill="white" stroke="#bfbfbf" points="105.825,-174.5 105.825,-195.5 152.825,-195.5 152.825,-174.5 105.825,-174.5"/>
<text text-anchor="middle" x="129.325" y="-182.5" font-family="Helvetica,sans-Serif" font-size="10.00">iterator</text>
</g>
<!-- Node37&#45;&gt;Node38 -->
<g id="edge128" class="edge"><title>Node37&#45;&gt;Node38</title>
<path fill="none" stroke="midnightblue" d="M148.107,-232.362C145.091,-224.758 140.942,-214.294 137.31,-205.135"/>
<polygon fill="midnightblue" stroke="midnightblue" points="140.457,-203.576 133.517,-195.571 133.95,-206.157 140.457,-203.576"/>
</g>
<!-- Node39&#45;&gt;Node10 -->
<g id="edge138" class="edge"><title>Node39&#45;&gt;Node10</title>
<path fill="none" stroke="midnightblue" d="M486.06,-232.27C488.987,-217.388 496.242,-190.458 512.325,-174 603.039,-81.1755 654.049,-87.9965 780.325,-58 929.755,-22.5035 1412.36,-13.3771 1552.09,-11.4519"/>
<polygon fill="midnightblue" stroke="midnightblue" points="1552.35,-14.9488 1562.3,-11.3157 1552.25,-7.94945 1552.35,-14.9488"/>
</g>
<!-- Node39&#45;&gt;Node18 -->
<g id="edge136" class="edge"><title>Node39&#45;&gt;Node18</title>
<path fill="none" stroke="midnightblue" d="M489.683,-232.242C498.297,-216.268 516.876,-186.787 542.325,-174 602.498,-143.766 1080.23,-143.72 1147.33,-138 1172.62,-135.843 1201.46,-132.543 1221.46,-130.119"/>
<polygon fill="midnightblue" stroke="midnightblue" points="1222.09,-133.569 1231.59,-128.876 1221.24,-126.621 1222.09,-133.569"/>
</g>
<!-- Node39&#45;&gt;Node20 -->
<g id="edge134" class="edge"><title>Node39&#45;&gt;Node20</title>
<path fill="none" stroke="midnightblue" d="M518.415,-239.591C542.196,-237.276 574.677,-234.24 603.325,-232 871.379,-211.045 1194.98,-192.804 1302.02,-186.957"/>
<polygon fill="midnightblue" stroke="midnightblue" points="1302.47,-190.437 1312.27,-186.399 1302.09,-183.448 1302.47,-190.437"/>
</g>
<!-- Node41&#45;&gt;Node7 -->
<g id="edge226" class="edge"><title>Node41&#45;&gt;Node7</title>
<path fill="none" stroke="midnightblue" d="M1581.87,-356.516C1749.81,-348.354 2249.67,-319.067 2397.33,-254 2466.68,-223.436 2497.77,-209.704 2522.33,-138 2536.9,-95.4427 2501.66,-75.737 2460.33,-58 2388.73,-27.2812 1831.2,-14.3821 1690.49,-11.5971"/>
<polygon fill="midnightblue" stroke="midnightblue" points="1690.43,-8.0952 1680.36,-11.3998 1690.29,-15.0939 1690.43,-8.0952"/>
</g>
<!-- Node41&#45;&gt;Node12 -->
<g id="edge222" class="edge"><title>Node41&#45;&gt;Node12</title>
<path fill="none" stroke="midnightblue" d="M1581.99,-355.042C1675.7,-347.874 1856.87,-331.65 1878.33,-312 1949.71,-246.617 1863.88,-169.679 1783.33,-116 1768.85,-106.354 1728.67,-92.1546 1697.34,-81.8894"/>
<polygon fill="midnightblue" stroke="midnightblue" points="1698.12,-78.4614 1687.53,-78.7055 1695.96,-85.12 1698.12,-78.4614"/>
</g>
<!-- Node41&#45;&gt;Node14 -->
<g id="edge220" class="edge"><title>Node41&#45;&gt;Node14</title>
<path fill="none" stroke="midnightblue" d="M1582.15,-357.392C1699.19,-352.087 1952.92,-329.337 1871.33,-232 1841.89,-196.889 1713.02,-206.06 1668.33,-196 1589.83,-178.332 1499.12,-152.021 1450.82,-137.526"/>
<polygon fill="midnightblue" stroke="midnightblue" points="1451.76,-134.154 1441.17,-134.62 1449.74,-140.857 1451.76,-134.154"/>
</g>
<!-- Node41&#45;&gt;Node19 -->
<g id="edge230" class="edge"><title>Node41&#45;&gt;Node19</title>
<path fill="none" stroke="midnightblue" d="M1515.15,-348.267C1485.5,-320.068 1404.85,-245.145 1371.33,-232 1336.12,-218.194 763.474,-192.156 629.298,-186.224"/>
<polygon fill="midnightblue" stroke="midnightblue" points="629.187,-182.716 619.043,-185.772 628.879,-189.709 629.187,-182.716"/>
</g>
<!-- Node41&#45;&gt;Node20 -->
<g id="edge228" class="edge"><title>Node41&#45;&gt;Node20</title>
<path fill="none" stroke="midnightblue" d="M1536.33,-348.212C1557.01,-324.6 1600.13,-267.612 1570.33,-232 1543.02,-199.375 1428.8,-206.5 1374.61,-196.833"/>
<polygon fill="midnightblue" stroke="midnightblue" points="1375.13,-193.365 1364.62,-194.659 1373.64,-200.205 1375.13,-193.365"/>
</g>
<!-- Node41&#45;&gt;Node29 -->
<g id="edge154" class="edge"><title>Node41&#45;&gt;Node29</title>
<path fill="none" stroke="midnightblue" d="M1470.63,-355.882C1295.14,-346.057 753.949,-315.759 560.209,-304.912"/>
<polygon fill="midnightblue" stroke="midnightblue" points="560.328,-301.414 550.148,-304.349 559.936,-308.403 560.328,-301.414"/>
</g>
<!-- Node41&#45;&gt;Node30 -->
<g id="edge156" class="edge"><title>Node41&#45;&gt;Node30</title>
<path fill="none" stroke="midnightblue" d="M1470.6,-351.239C1410.24,-342.608 1311.2,-327.788 1226.33,-312 1180.73,-303.519 1169.9,-298.565 1124.33,-290 1050.5,-276.127 965.713,-262.809 906.407,-253.916"/>
<polygon fill="midnightblue" stroke="midnightblue" points="906.785,-250.433 896.377,-252.417 905.75,-257.356 906.785,-250.433"/>
</g>
<!-- Node41&#45;&gt;Node39 -->
<g id="edge224" class="edge"><title>Node41&#45;&gt;Node39</title>
<path fill="none" stroke="midnightblue" d="M1470.67,-352.804C1286,-332.246 695.749,-266.537 528.736,-247.944"/>
<polygon fill="midnightblue" stroke="midnightblue" points="528.682,-244.416 518.356,-246.788 527.908,-251.373 528.682,-244.416"/>
</g>
<!-- Node42 -->
<g id="node121" class="node"><title>Node42</title>
<a xlink:href="_tagger_hit_8h.html" target="_top" xlink:title="TaggerHit.h">
<polygon fill="white" stroke="black" points="1706.33,-232.5 1706.33,-253.5 1774.33,-253.5 1774.33,-232.5 1706.33,-232.5"/>
<text text-anchor="middle" x="1740.33" y="-240.5" font-family="Helvetica,sans-Serif" font-size="10.00">TaggerHit.h</text>
</a>
</g>
<!-- Node41&#45;&gt;Node42 -->
<g id="edge158" class="edge"><title>Node41&#45;&gt;Node42</title>
<path fill="none" stroke="midnightblue" d="M1546.07,-348.295C1584.15,-327.655 1667.84,-282.29 1711.91,-258.404"/>
<polygon fill="midnightblue" stroke="midnightblue" points="1713.81,-261.354 1720.93,-253.512 1710.47,-255.2 1713.81,-261.354"/>
</g>
<!-- Node43 -->
<g id="node128" class="node"><title>Node43</title>
<a xlink:href="_trigger_info_8h.html" target="_top" xlink:title="TriggerInfo.h">
<polygon fill="white" stroke="black" points="2035.83,-290.5 2035.83,-311.5 2106.83,-311.5 2106.83,-290.5 2035.83,-290.5"/>
<text text-anchor="middle" x="2071.33" y="-298.5" font-family="Helvetica,sans-Serif" font-size="10.00">TriggerInfo.h</text>
</a>
</g>
<!-- Node41&#45;&gt;Node43 -->
<g id="edge170" class="edge"><title>Node41&#45;&gt;Node43</title>
<path fill="none" stroke="midnightblue" d="M1581.84,-353.093C1689.78,-341.604 1926.11,-316.454 2025.67,-305.859"/>
<polygon fill="midnightblue" stroke="midnightblue" points="2026.14,-309.328 2035.71,-304.79 2025.4,-302.368 2026.14,-309.328"/>
</g>
<!-- Node42&#45;&gt;Node12 -->
<g id="edge166" class="edge"><title>Node42&#45;&gt;Node12</title>
<path fill="none" stroke="midnightblue" d="M1765.43,-232.319C1789.86,-220.216 1821.65,-198.902 1809.33,-174 1786.83,-128.542 1734.14,-99.2848 1696.9,-83.4942"/>
<polygon fill="midnightblue" stroke="midnightblue" points="1697.9,-80.122 1687.32,-79.5816 1695.26,-86.6025 1697.9,-80.122"/>
</g>
<!-- Node42&#45;&gt;Node14 -->
<g id="edge164" class="edge"><title>Node42&#45;&gt;Node14</title>
<path fill="none" stroke="midnightblue" d="M1706.3,-234.871C1701.62,-233.849 1696.86,-232.861 1692.33,-232 1587.22,-212.037 1542.09,-257.177 1454.33,-196 1437.83,-184.499 1427.74,-163.441 1422.15,-147.602"/>
<polygon fill="midnightblue" stroke="midnightblue" points="1425.35,-146.112 1418.97,-137.652 1418.68,-148.243 1425.35,-146.112"/>
</g>
<!-- Node42&#45;&gt;Node18 -->
<g id="edge160" class="edge"><title>Node42&#45;&gt;Node18</title>
<path fill="none" stroke="midnightblue" d="M1706.31,-234.813C1701.63,-233.8 1696.87,-232.831 1692.33,-232 1576.7,-210.852 1544.14,-225.358 1430.33,-196 1404.03,-189.217 1398.73,-183.601 1373.33,-174 1337.76,-160.557 1296.45,-145.342 1270.84,-135.959"/>
<polygon fill="midnightblue" stroke="midnightblue" points="1271.8,-132.583 1261.21,-132.432 1269.4,-139.157 1271.8,-132.583"/>
</g>
<!-- Node42&#45;&gt;Node20 -->
<g id="edge162" class="edge"><title>Node42&#45;&gt;Node20</title>
<path fill="none" stroke="midnightblue" d="M1706.07,-234.663C1701.47,-233.685 1696.79,-232.765 1692.33,-232 1553.87,-208.275 1516.23,-222.703 1378.33,-196 1377.05,-195.754 1375.76,-195.487 1374.46,-195.205"/>
<polygon fill="midnightblue" stroke="midnightblue" points="1374.98,-191.731 1364.44,-192.803 1373.35,-198.538 1374.98,-191.731"/>
</g>
<!-- Node42&#45;&gt;Node40 -->
<g id="edge168" class="edge"><title>Node42&#45;&gt;Node40</title>
<path fill="none" stroke="midnightblue" d="M1706.17,-240.874C1667.24,-238.497 1601.72,-234.637 1545.33,-232 1114.39,-211.85 1006.42,-212.378 575.325,-196 496.692,-193.013 405.774,-189.461 348.661,-187.219"/>
<polygon fill="midnightblue" stroke="midnightblue" points="348.531,-183.711 338.401,-186.816 348.256,-190.706 348.531,-183.711"/>
</g>
<!-- Node43&#45;&gt;Node12 -->
<g id="edge174" class="edge"><title>Node43&#45;&gt;Node12</title>
<path fill="none" stroke="midnightblue" d="M2080.94,-290.283C2100.8,-266.814 2142.19,-210.093 2113.33,-174 2099.42,-156.612 1765.33,-94.2728 1697.56,-79.9767"/>
<polygon fill="midnightblue" stroke="midnightblue" points="1698.25,-76.5452 1687.73,-77.7856 1696.73,-83.3775 1698.25,-76.5452"/>
</g>
<!-- Node43&#45;&gt;Node14 -->
<g id="edge172" class="edge"><title>Node43&#45;&gt;Node14</title>
<path fill="none" stroke="midnightblue" d="M2074.25,-290.466C2077.74,-275.319 2081.39,-247.505 2066.33,-232 2011.07,-175.132 1787.38,-218.445 1711.33,-196 1690.74,-189.923 1688.64,-180.929 1668.33,-174 1593.17,-148.373 1500.38,-135.638 1451.03,-130.273"/>
<polygon fill="midnightblue" stroke="midnightblue" points="1451.2,-126.772 1440.89,-129.209 1450.47,-133.734 1451.2,-126.772"/>
</g>
<!-- Node43&#45;&gt;Node18 -->
<g id="edge216" class="edge"><title>Node43&#45;&gt;Node18</title>
<path fill="none" stroke="midnightblue" d="M2068.85,-290.468C2064.55,-274.788 2054.11,-245.689 2033.33,-232 1964.51,-186.689 1745.06,-212.439 1664.33,-196 1632.37,-189.493 1626.16,-181.097 1594.33,-174 1474.95,-147.382 1328.95,-133.619 1271.37,-128.91"/>
<polygon fill="midnightblue" stroke="midnightblue" points="1271.32,-125.394 1261.07,-128.087 1270.76,-132.372 1271.32,-125.394"/>
</g>
<!-- Node43&#45;&gt;Node20 -->
<g id="edge218" class="edge"><title>Node43&#45;&gt;Node20</title>
<path fill="none" stroke="midnightblue" d="M2035.66,-298.106C1954.89,-291.297 1760.18,-273.371 1697.33,-254 1676.81,-247.677 1674.84,-238.329 1654.33,-232 1535.54,-195.351 1495.64,-223.923 1374.61,-197.061"/>
<polygon fill="midnightblue" stroke="midnightblue" points="1375.12,-193.588 1364.59,-194.754 1373.55,-200.41 1375.12,-193.588"/>
</g>
<!-- Node44 -->
<g id="node132" class="node"><title>Node44</title>
<a xlink:href="_t_data_record_8h.html" target="_top" xlink:title="tree/TDataRecord.h">
<polygon fill="white" stroke="black" points="2285.83,-232.5 2285.83,-253.5 2388.83,-253.5 2388.83,-232.5 2285.83,-232.5"/>
<text text-anchor="middle" x="2337.33" y="-240.5" font-family="Helvetica,sans-Serif" font-size="10.00">tree/TDataRecord.h</text>
</a>
</g>
<!-- Node43&#45;&gt;Node44 -->
<g id="edge176" class="edge"><title>Node43&#45;&gt;Node44</title>
<path fill="none" stroke="midnightblue" d="M2106.92,-293.238C2150.94,-283.639 2226.48,-267.169 2279.01,-255.715"/>
<polygon fill="midnightblue" stroke="midnightblue" points="2279.84,-259.116 2288.87,-253.566 2278.35,-252.276 2279.84,-259.116"/>
</g>
<!-- Node44&#45;&gt;Node22 -->
<g id="edge210" class="edge"><title>Node44&#45;&gt;Node22</title>
<path fill="none" stroke="midnightblue" d="M2309.82,-232.398C2255.51,-211.471 2134.52,-164.841 2073.31,-141.252"/>
<polygon fill="midnightblue" stroke="midnightblue" points="2074.25,-137.865 2063.66,-137.535 2071.73,-144.397 2074.25,-137.865"/>
</g>
<!-- Node45 -->
<g id="node134" class="node"><title>Node45</title>
<a xlink:href="_t_i_d_8h.html" target="_top" xlink:title="TID.h">
<polygon fill="white" stroke="black" points="2270.83,-174.5 2270.83,-195.5 2311.83,-195.5 2311.83,-174.5 2270.83,-174.5"/>
<text text-anchor="middle" x="2291.33" y="-182.5" font-family="Helvetica,sans-Serif" font-size="10.00">TID.h</text>
</a>
</g>
<!-- Node44&#45;&gt;Node45 -->
<g id="edge178" class="edge"><title>Node44&#45;&gt;Node45</title>
<path fill="none" stroke="midnightblue" d="M2328.89,-232.362C2322.53,-224.35 2313.66,-213.161 2306.13,-203.67"/>
<polygon fill="midnightblue" stroke="midnightblue" points="2308.67,-201.231 2299.71,-195.571 2303.18,-205.581 2308.67,-201.231"/>
</g>
<!-- Node50 -->
<g id="node148" class="node"><title>Node50</title>
<polygon fill="white" stroke="#bfbfbf" points="2410.83,-58.5 2410.83,-79.5 2451.83,-79.5 2451.83,-58.5 2410.83,-58.5"/>
<text text-anchor="middle" x="2431.33" y="-66.5" font-family="Helvetica,sans-Serif" font-size="10.00">ctime</text>
</g>
<!-- Node44&#45;&gt;Node50 -->
<g id="edge214" class="edge"><title>Node44&#45;&gt;Node50</title>
<path fill="none" stroke="midnightblue" d="M2373.98,-232.497C2415.11,-218.496 2479.69,-189.31 2507.33,-138 2520.8,-112.986 2488.02,-92.368 2461.37,-80.3713"/>
<polygon fill="midnightblue" stroke="midnightblue" points="2462.49,-77.0473 2451.92,-76.3493 2459.75,-83.4876 2462.49,-77.0473"/>
</g>
<!-- Node52 -->
<g id="node155" class="node"><title>Node52</title>
<polygon fill="white" stroke="#bfbfbf" points="2448.33,-116.5 2448.33,-137.5 2498.33,-137.5 2498.33,-116.5 2448.33,-116.5"/>
<text text-anchor="middle" x="2473.33" y="-124.5" font-family="Helvetica,sans-Serif" font-size="10.00">iomanip</text>
</g>
<!-- Node44&#45;&gt;Node52 -->
<g id="edge212" class="edge"><title>Node44&#45;&gt;Node52</title>
<path fill="none" stroke="midnightblue" d="M2349.88,-232.295C2373.46,-212.182 2424.56,-168.59 2453.07,-144.275"/>
<polygon fill="midnightblue" stroke="midnightblue" points="2455.47,-146.832 2460.8,-137.679 2450.93,-141.506 2455.47,-146.832"/>
</g>
<!-- Node45&#45;&gt;Node11 -->
<g id="edge204" class="edge"><title>Node45&#45;&gt;Node11</title>
<path fill="none" stroke="midnightblue" d="M2270.36,-179.824C2241.36,-172.326 2187.68,-157.213 2144.33,-138 2126.48,-130.094 2124.83,-122.193 2106.33,-116 1980.65,-73.946 1941.69,-97.4928 1810.33,-80 1798.47,-78.4212 1785.59,-76.5979 1773.86,-74.8955"/>
<polygon fill="midnightblue" stroke="midnightblue" points="1774.3,-71.4231 1763.9,-73.4397 1773.29,-78.3495 1774.3,-71.4231"/>
</g>
<!-- Node45&#45;&gt;Node12 -->
<g id="edge182" class="edge"><title>Node45&#45;&gt;Node12</title>
<path fill="none" stroke="midnightblue" d="M2270.59,-182.085C2235.56,-176.651 2162.95,-163.178 2106.33,-138 2090.22,-130.838 2089.93,-121.905 2073.33,-116 1917.83,-60.7153 1863.97,-108.485 1697.72,-79.9627"/>
<polygon fill="midnightblue" stroke="midnightblue" points="1698.11,-76.4768 1687.65,-78.1659 1696.88,-83.368 1698.11,-76.4768"/>
</g>
<!-- Node45&#45;&gt;Node22 -->
<g id="edge180" class="edge"><title>Node45&#45;&gt;Node22</title>
<path fill="none" stroke="midnightblue" d="M2270.7,-180.728C2232.6,-172.775 2148.64,-154.958 2078.33,-138 2077.09,-137.702 2075.83,-137.395 2074.57,-137.082"/>
<polygon fill="midnightblue" stroke="midnightblue" points="2075.31,-133.66 2064.75,-134.606 2073.59,-140.447 2075.31,-133.66"/>
</g>
<!-- Node45&#45;&gt;Node33 -->
<g id="edge202" class="edge"><title>Node45&#45;&gt;Node33</title>
<path fill="none" stroke="midnightblue" d="M2312.15,-177.337C2328.96,-169.975 2351.68,-157.127 2363.33,-138 2372.11,-123.575 2373.37,-104.246 2372.71,-89.7155"/>
<polygon fill="midnightblue" stroke="midnightblue" points="2376.2,-89.3975 2371.93,-79.7002 2369.22,-89.9422 2376.2,-89.3975"/>
</g>
<!-- Node45&#45;&gt;Node34 -->
<g id="edge198" class="edge"><title>Node45&#45;&gt;Node34</title>
<path fill="none" stroke="midnightblue" d="M2270.47,-175.93C2249.37,-166.673 2215.89,-151.752 2187.33,-138 2167.98,-128.688 2164.73,-122.665 2144.33,-116 2057.13,-87.5194 1949.55,-75.9397 1891.75,-71.5151"/>
<polygon fill="midnightblue" stroke="midnightblue" points="1891.78,-68.008 1881.55,-70.7697 1891.27,-74.9894 1891.78,-68.008"/>
</g>
<!-- Node46 -->
<g id="node138" class="node"><title>Node46</title>
<a xlink:href="time_8h.html" target="_top" xlink:title="base/std_ext/time.h">
<polygon fill="white" stroke="black" points="2195.83,-116.5 2195.83,-137.5 2298.83,-137.5 2298.83,-116.5 2195.83,-116.5"/>
<text text-anchor="middle" x="2247.33" y="-124.5" font-family="Helvetica,sans-Serif" font-size="10.00">base/std_ext/time.h</text>
</a>
</g>
<!-- Node45&#45;&gt;Node46 -->
<g id="edge184" class="edge"><title>Node45&#45;&gt;Node46</title>
<path fill="none" stroke="midnightblue" d="M2283.25,-174.362C2277.18,-166.35 2268.69,-155.161 2261.49,-145.67"/>
<polygon fill="midnightblue" stroke="midnightblue" points="2264.18,-143.422 2255.34,-137.571 2258.6,-147.653 2264.18,-143.422"/>
</g>
<!-- Node45&#45;&gt;Node50 -->
<g id="edge208" class="edge"><title>Node45&#45;&gt;Node50</title>
<path fill="none" stroke="midnightblue" d="M2311.99,-177.222C2331.13,-169.336 2359.65,-155.77 2380.33,-138 2396.63,-123.98 2410.77,-103.828 2419.99,-88.9191"/>
<polygon fill="midnightblue" stroke="midnightblue" points="2423.2,-90.3767 2425.32,-79.9963 2417.19,-86.7883 2423.2,-90.3767"/>
</g>
<!-- Node51 -->
<g id="node151" class="node"><title>Node51</title>
<polygon fill="white" stroke="#bfbfbf" points="2316.33,-116.5 2316.33,-137.5 2354.33,-137.5 2354.33,-116.5 2316.33,-116.5"/>
<text text-anchor="middle" x="2335.33" y="-124.5" font-family="Helvetica,sans-Serif" font-size="10.00">tuple</text>
</g>
<!-- Node45&#45;&gt;Node51 -->
<g id="edge200" class="edge"><title>Node45&#45;&gt;Node51</title>
<path fill="none" stroke="midnightblue" d="M2299.4,-174.362C2305.47,-166.35 2313.96,-155.161 2321.16,-145.67"/>
<polygon fill="midnightblue" stroke="midnightblue" points="2324.05,-147.653 2327.31,-137.571 2318.47,-143.422 2324.05,-147.653"/>
</g>
<!-- Node45&#45;&gt;Node52 -->
<g id="edge206" class="edge"><title>Node45&#45;&gt;Node52</title>
<path fill="none" stroke="midnightblue" d="M2311.85,-178.459C2342.53,-168.684 2400.73,-150.134 2438.24,-138.181"/>
<polygon fill="midnightblue" stroke="midnightblue" points="2439.77,-141.368 2448.23,-134.997 2437.64,-134.699 2439.77,-141.368"/>
</g>
<!-- Node47 -->
<g id="node140" class="node"><title>Node47</title>
<a xlink:href="string_8h.html" target="_top" xlink:title="base/std_ext/string.h">
<polygon fill="white" stroke="black" points="2053.33,-58.5 2053.33,-79.5 2161.33,-79.5 2161.33,-58.5 2053.33,-58.5"/>
<text text-anchor="middle" x="2107.33" y="-66.5" font-family="Helvetica,sans-Serif" font-size="10.00">base/std_ext/string.h</text>
</a>
</g>
<!-- Node46&#45;&gt;Node47 -->
<g id="edge186" class="edge"><title>Node46&#45;&gt;Node47</title>
<path fill="none" stroke="midnightblue" d="M2221.97,-116.497C2199.71,-107.275 2167.11,-93.7695 2142.36,-83.5153"/>
<polygon fill="midnightblue" stroke="midnightblue" points="2143.54,-80.2152 2132.96,-79.6212 2140.86,-86.6822 2143.54,-80.2152"/>
</g>
<!-- Node49 -->
<g id="node146" class="node"><title>Node49</title>
<polygon fill="white" stroke="#bfbfbf" points="2224.33,-58.5 2224.33,-79.5 2270.33,-79.5 2270.33,-58.5 2224.33,-58.5"/>
<text text-anchor="middle" x="2247.33" y="-66.5" font-family="Helvetica,sans-Serif" font-size="10.00">cstring</text>
</g>
<!-- Node46&#45;&gt;Node49 -->
<g id="edge194" class="edge"><title>Node46&#45;&gt;Node49</title>
<path fill="none" stroke="midnightblue" d="M2247.33,-116.362C2247.33,-108.922 2247.33,-98.7427 2247.33,-89.7276"/>
<polygon fill="midnightblue" stroke="midnightblue" points="2250.83,-89.5706 2247.33,-79.5707 2243.83,-89.5707 2250.83,-89.5706"/>
</g>
<!-- Node46&#45;&gt;Node50 -->
<g id="edge196" class="edge"><title>Node46&#45;&gt;Node50</title>
<path fill="none" stroke="midnightblue" d="M2284.51,-116.498C2313.95,-108.009 2356.31,-95.419 2401.18,-80.2594"/>
<polygon fill="midnightblue" stroke="midnightblue" points="2402.46,-83.5235 2410.79,-76.986 2400.2,-76.8973 2402.46,-83.5235"/>
</g>
<!-- Node47&#45;&gt;Node8 -->
<g id="edge188" class="edge"><title>Node47&#45;&gt;Node8</title>
<path fill="none" stroke="midnightblue" d="M2052.93,-66.1585C2009.04,-63.8862 1945.71,-60.653 1890.33,-58 1490.48,-38.8481 1004.21,-17.7266 878.917,-12.3175"/>
<polygon fill="midnightblue" stroke="midnightblue" points="879.034,-8.81936 868.893,-11.885 878.733,-15.8129 879.034,-8.81936"/>
</g>
<!-- Node47&#45;&gt;Node10 -->
<g id="edge192" class="edge"><title>Node47&#45;&gt;Node10</title>
<path fill="none" stroke="midnightblue" d="M2053.21,-67.074C1965.64,-63.2218 1787.46,-52.335 1628.43,-21.9085"/>
<polygon fill="midnightblue" stroke="midnightblue" points="1628.95,-18.4444 1618.47,-19.9715 1627.62,-25.3157 1628.95,-18.4444"/>
</g>
<!-- Node47&#45;&gt;Node48 -->
<g id="edge190" class="edge"><title>Node47&#45;&gt;Node48</title>
<path fill="none" stroke="midnightblue" d="M2161.56,-59.2921C2227.87,-47.4218 2338.26,-27.6593 2395.08,-17.4876"/>
<polygon fill="midnightblue" stroke="midnightblue" points="2395.82,-20.9114 2405.05,-15.704 2394.59,-14.0209 2395.82,-20.9114"/>
</g>
<!-- Node53&#45;&gt;Node7 -->
<g id="edge234" class="edge"><title>Node53&#45;&gt;Node7</title>
<path fill="none" stroke="midnightblue" d="M2651.85,-116.412C2638.29,-100.376 2610,-70.4798 2578.33,-58 2494.41,-24.9405 1844,-13.649 1690.64,-11.4327"/>
<polygon fill="midnightblue" stroke="midnightblue" points="1690.52,-7.93072 1680.47,-11.2886 1690.42,-14.93 1690.52,-7.93072"/>
</g>
<!-- Node53&#45;&gt;Node33 -->
<g id="edge236" class="edge"><title>Node53&#45;&gt;Node33</title>
<path fill="none" stroke="midnightblue" d="M2591.81,-117.403C2541.81,-109.738 2472.33,-97.7188 2403.35,-80.0003"/>
<polygon fill="midnightblue" stroke="midnightblue" points="2404.18,-76.6 2393.62,-77.4622 2402.41,-83.3733 2404.18,-76.6"/>
</g>
<!-- Node54&#45;&gt;Node8 -->
<g id="edge240" class="edge"><title>Node54&#45;&gt;Node8</title>
<path fill="none" stroke="midnightblue" d="M657.68,-232.339C647.855,-201.456 624.291,-110.78 666.325,-58 684.998,-34.5542 770.58,-20.5563 817.436,-14.5193"/>
<polygon fill="midnightblue" stroke="midnightblue" points="818.139,-17.959 827.631,-13.2527 817.276,-11.0124 818.139,-17.959"/>
</g>
<!-- Node54&#45;&gt;Node19 -->
<g id="edge244" class="edge"><title>Node54&#45;&gt;Node19</title>
<path fill="none" stroke="midnightblue" d="M650.32,-232.362C641.778,-224.104 629.745,-212.472 619.742,-202.803"/>
<polygon fill="midnightblue" stroke="midnightblue" points="621.883,-200.004 612.26,-195.571 617.018,-205.037 621.883,-200.004"/>
</g>
<!-- Node54&#45;&gt;Node20 -->
<g id="edge242" class="edge"><title>Node54&#45;&gt;Node20</title>
<path fill="none" stroke="midnightblue" d="M710.623,-237.032C725.609,-235.304 742.132,-233.485 757.325,-232 963.199,-211.884 1210.72,-193.927 1302.13,-187.506"/>
<polygon fill="midnightblue" stroke="midnightblue" points="1302.51,-190.988 1312.24,-186.798 1302.02,-184.005 1302.51,-190.988"/>
</g>
<!-- Node55&#45;&gt;Node8 -->
<g id="edge274" class="edge"><title>Node55&#45;&gt;Node8</title>
<path fill="none" stroke="midnightblue" d="M294.167,-350.317C237.127,-338.23 146.502,-311.034 91.3252,-254 27.5122,-188.039 -36.6911,-124.722 26.3252,-58 29.7924,-54.3288 668.289,-20.4825 817.431,-12.6243"/>
<polygon fill="midnightblue" stroke="midnightblue" points="817.888,-16.1051 827.691,-12.084 817.52,-9.11479 817.888,-16.1051"/>
</g>
<!-- Node55&#45;&gt;Node29 -->
<g id="edge264" class="edge"><title>Node55&#45;&gt;Node29</title>
<path fill="none" stroke="midnightblue" d="M372.403,-348.497C395.4,-339.234 429.126,-325.65 454.625,-315.379"/>
<polygon fill="midnightblue" stroke="midnightblue" points="455.987,-318.604 463.955,-311.621 453.372,-312.111 455.987,-318.604"/>
</g>
<!-- Node55&#45;&gt;Node40 -->
<g id="edge276" class="edge"><title>Node55&#45;&gt;Node40</title>
<path fill="none" stroke="midnightblue" d="M319.007,-348.429C303.464,-340.832 285.346,-328.922 276.325,-312 258.052,-277.721 272.192,-231.044 283.001,-204.881"/>
<polygon fill="midnightblue" stroke="midnightblue" points="286.25,-206.189 287.046,-195.624 279.835,-203.386 286.25,-206.189"/>
</g>
<!-- Node56 -->
<g id="node189" class="node"><title>Node56</title>
<a xlink:href="_particle_type_tree_8h.html" target="_top" xlink:title="base/ParticleTypeTree.h">
<polygon fill="white" stroke="black" points="284.825,-290.5 284.825,-311.5 407.825,-311.5 407.825,-290.5 284.825,-290.5"/>
<text text-anchor="middle" x="346.325" y="-298.5" font-family="Helvetica,sans-Serif" font-size="10.00">base/ParticleTypeTree.h</text>
</a>
</g>
<!-- Node55&#45;&gt;Node56 -->
<g id="edge266" class="edge"><title>Node55&#45;&gt;Node56</title>
<path fill="none" stroke="midnightblue" d="M346.325,-348.362C346.325,-340.922 346.325,-330.743 346.325,-321.728"/>
<polygon fill="midnightblue" stroke="midnightblue" points="349.825,-321.571 346.325,-311.571 342.825,-321.571 349.825,-321.571"/>
</g>
<!-- Node56&#45;&gt;Node19 -->
<g id="edge272" class="edge"><title>Node56&#45;&gt;Node19</title>
<path fill="none" stroke="midnightblue" d="M358.052,-290.397C375.181,-275.419 408.581,-248.099 441.325,-232 485.209,-210.425 540.836,-196.86 573.607,-190.127"/>
<polygon fill="midnightblue" stroke="midnightblue" points="574.668,-193.485 583.794,-188.104 573.304,-186.619 574.668,-193.485"/>
</g>
<!-- Node56&#45;&gt;Node37 -->
<g id="edge268" class="edge"><title>Node56&#45;&gt;Node37</title>
<path fill="none" stroke="midnightblue" d="M311.193,-290.497C279.292,-280.959 232.069,-266.841 197.397,-256.475"/>
<polygon fill="midnightblue" stroke="midnightblue" points="198.107,-253.034 187.523,-253.523 196.101,-259.741 198.107,-253.034"/>
</g>
<!-- Node56&#45;&gt;Node39 -->
<g id="edge270" class="edge"><title>Node56&#45;&gt;Node39</title>
<path fill="none" stroke="midnightblue" d="M371.316,-290.497C393.258,-281.275 425.391,-267.769 449.789,-257.515"/>
<polygon fill="midnightblue" stroke="midnightblue" points="451.191,-260.722 459.054,-253.621 448.479,-254.269 451.191,-260.722"/>
</g>
</g>
</svg>
