<?xml version="1.0" encoding="UTF-8" standalone="no"?>
<!DOCTYPE svg PUBLIC "-//W3C//DTD SVG 1.1//EN"
 "http://www.w3.org/Graphics/SVG/1.1/DTD/svg11.dtd">
<!-- Generated by graphviz version 2.26.3 (20100126.1600)
 -->
<!-- Title: src/simulation/mc/utils/PlutoTID.h Pages: 1 -->
<svg width="246pt" height="116pt"
 viewBox="0.00 0.00 246.00 116.00" xmlns="http://www.w3.org/2000/svg" xmlns:xlink="http://www.w3.org/1999/xlink">
<g id="graph1" class="graph" transform="scale(1 1) rotate(0) translate(4 112)">
<title>src/simulation/mc/utils/PlutoTID.h</title>
<polygon fill="white" stroke="white" points="-4,5 -4,-112 243,-112 243,5 -4,5"/>
<!-- Node1 -->
<g id="node1" class="node"><title>Node1</title>
<polygon fill="#bfbfbf" stroke="black" points="59.5,-73 59.5,-107 174.5,-107 174.5,-73 59.5,-73"/>
<text text-anchor="start" x="67.5" y="-94" font-family="Helvetica,sans-Serif" font-size="10.00">src/simulation/mc/utils</text>
<text text-anchor="middle" x="117" y="-81" font-family="Helvetica,sans-Serif" font-size="10.00">/PlutoTID.h</text>
</g>
<!-- Node2 -->
<g id="node3" class="node"><title>Node2</title>
<a xlink:href="_ant-add_t_i_d_8cc.html" target="_top" xlink:title="progs/Ant&#45;addTID.cc">
<polygon fill="white" stroke="black" points="-0.5,-7.5 -0.5,-28.5 106.5,-28.5 106.5,-7.5 -0.5,-7.5"/>
<text text-anchor="middle" x="53" y="-15.5" font-family="Helvetica,sans-Serif" font-size="10.00">progs/Ant&#45;addTID.cc</text>
</a>
</g>
<!-- Node1&#45;&gt;Node2 -->
<g id="edge2" class="edge"><title>Node1&#45;&gt;Node2</title>
<path fill="none" stroke="midnightblue" d="M94.923,-65.1634C83.9334,-52.8001 71.211,-38.4874 62.6898,-28.901"/>
<polygon fill="midnightblue" stroke="midnightblue" points="92.5733,-67.7882 101.833,-72.937 97.8052,-63.1376 92.5733,-67.7882"/>
</g>
<!-- Node3 -->
<g id="node5" class="node"><title>Node3</title>
<a xlink:href="_pluto_t_i_d_8cc.html" target="_top" xlink:title="src/simulation/mc/utils\l/PlutoTID.cc">
<polygon fill="white" stroke="black" points="123.5,-1 123.5,-35 238.5,-35 238.5,-1 123.5,-1"/>
<text text-anchor="start" x="131.5" y="-22" font-family="Helvetica,sans-Serif" font-size="10.00">src/simulation/mc/utils</text>
<text text-anchor="middle" x="181" y="-9" font-family="Helvetica,sans-Serif" font-size="10.00">/PlutoTID.cc</text>
</a>
</g>
<!-- Node1&#45;&gt;Node3 -->
<g id="edge4" class="edge"><title>Node1&#45;&gt;Node3</title>
<path fill="none" stroke="midnightblue" d="M138.886,-65.3785C147.636,-55.5349 157.51,-44.4262 165.497,-35.4407"/>
<polygon fill="midnightblue" stroke="midnightblue" points="136.195,-63.1376 132.167,-72.937 141.427,-67.7882 136.195,-63.1376"/>
</g>
</g>
</svg>
