<?xml version="1.0" encoding="UTF-8" standalone="no"?>
<!DOCTYPE svg PUBLIC "-//W3C//DTD SVG 1.1//EN"
 "http://www.w3.org/Graphics/SVG/1.1/DTD/svg11.dtd">
<!-- Generated by graphviz version 2.26.3 (20100126.1600)
 -->
<!-- Title: src/simulation/mc/PlutoExtensions.h Pages: 1 -->
<svg width="280pt" height="88pt"
 viewBox="0.00 0.00 280.00 88.00" xmlns="http://www.w3.org/2000/svg" xmlns:xlink="http://www.w3.org/1999/xlink">
<g id="graph1" class="graph" transform="scale(1 1) rotate(0) translate(4 84)">
<title>src/simulation/mc/PlutoExtensions.h</title>
<polygon fill="white" stroke="white" points="-4,5 -4,-84 277,-84 277,5 -4,5"/>
<!-- Node1 -->
<g id="node1" class="node"><title>Node1</title>
<polygon fill="#bfbfbf" stroke="black" points="32,-58.5 32,-79.5 208,-79.5 208,-58.5 32,-58.5"/>
<text text-anchor="middle" x="120" y="-66.5" font-family="Helvetica,sans-Serif" font-size="10.00">src/simulation/mc/PlutoExtensions.h</text>
</g>
<!-- Node2 -->
<g id="node3" class="node"><title>Node2</title>
<a xlink:href="_ant-pluto_8cc.html" target="_top" xlink:title="Pluto generator forntend. ">
<polygon fill="white" stroke="black" points="0,-0.5 0,-21.5 96,-21.5 96,-0.5 0,-0.5"/>
<text text-anchor="middle" x="48" y="-8.5" font-family="Helvetica,sans-Serif" font-size="10.00">progs/Ant&#45;pluto.cc</text>
</a>
</g>
<!-- Node1&#45;&gt;Node2 -->
<g id="edge2" class="edge"><title>Node1&#45;&gt;Node2</title>
<path fill="none" stroke="midnightblue" d="M98.8659,-51.9753C86.646,-42.1315 71.6539,-30.0545 61.1222,-21.5707"/>
<polygon fill="midnightblue" stroke="midnightblue" points="96.8109,-54.8142 106.794,-58.3619 101.202,-49.3629 96.8109,-54.8142"/>
</g>
<!-- Node3 -->
<g id="node5" class="node"><title>Node3</title>
<a xlink:href="_a2_cocktail_8cc.html" target="_top" xlink:title="src/simulation/mc/A2Cocktail.cc">
<polygon fill="white" stroke="black" points="114,-0.5 114,-21.5 272,-21.5 272,-0.5 114,-0.5"/>
<text text-anchor="middle" x="193" y="-8.5" font-family="Helvetica,sans-Serif" font-size="10.00">src/simulation/mc/A2Cocktail.cc</text>
</a>
</g>
<!-- Node1&#45;&gt;Node3 -->
<g id="edge4" class="edge"><title>Node1&#45;&gt;Node3</title>
<path fill="none" stroke="midnightblue" d="M141.428,-51.9753C153.817,-42.1315 169.018,-30.0545 179.696,-21.5707"/>
<polygon fill="midnightblue" stroke="midnightblue" points="139.042,-49.4008 133.389,-58.3619 143.396,-54.8815 139.042,-49.4008"/>
</g>
</g>
</svg>
