<?xml version="1.0" encoding="UTF-8" standalone="no"?>
<!DOCTYPE svg PUBLIC "-//W3C//DTD SVG 1.1//EN"
 "http://www.w3.org/Graphics/SVG/1.1/DTD/svg11.dtd">
<!-- Generated by graphviz version 2.26.3 (20100126.1600)
 -->
<!-- Title: src/simulation/mc/PlutoExtensions.h Pages: 1 -->
<svg width="184pt" height="88pt"
 viewBox="0.00 0.00 184.00 88.00" xmlns="http://www.w3.org/2000/svg" xmlns:xlink="http://www.w3.org/1999/xlink">
<g id="graph1" class="graph" transform="scale(1 1) rotate(0) translate(4 84)">
<title>src/simulation/mc/PlutoExtensions.h</title>
<polygon fill="white" stroke="white" points="-4,5 -4,-84 181,-84 181,5 -4,5"/>
<!-- Node1 -->
<g id="node1" class="node"><title>Node1</title>
<polygon fill="#bfbfbf" stroke="black" points="0,-58.5 0,-79.5 176,-79.5 176,-58.5 0,-58.5"/>
<text text-anchor="middle" x="88" y="-66.5" font-family="Helvetica,sans-Serif" font-size="10.00">src/simulation/mc/PlutoExtensions.h</text>
</g>
<!-- Node2 -->
<g id="node3" class="node"><title>Node2</title>
<polygon fill="white" stroke="#bfbfbf" points="7,-0.5 7,-21.5 85,-21.5 85,-0.5 7,-0.5"/>
<text text-anchor="middle" x="46" y="-8.5" font-family="Helvetica,sans-Serif" font-size="10.00">PStaticData.h</text>
</g>
<!-- Node1&#45;&gt;Node2 -->
<g id="edge2" class="edge"><title>Node1&#45;&gt;Node2</title>
<path fill="none" stroke="midnightblue" d="M80.2966,-58.3619C74.5537,-50.4313 66.5572,-39.3885 59.7301,-29.9606"/>
<polygon fill="midnightblue" stroke="midnightblue" points="62.3546,-27.6173 53.6546,-21.5707 56.6849,-31.7229 62.3546,-27.6173"/>
</g>
<!-- Node3 -->
<g id="node5" class="node"><title>Node3</title>
<polygon fill="white" stroke="#bfbfbf" points="103,-0.5 103,-21.5 157,-21.5 157,-0.5 103,-0.5"/>
<text text-anchor="middle" x="130" y="-8.5" font-family="Helvetica,sans-Serif" font-size="10.00">iostream</text>
</g>
<!-- Node1&#45;&gt;Node3 -->
<g id="edge4" class="edge"><title>Node1&#45;&gt;Node3</title>
<path fill="none" stroke="midnightblue" d="M95.7034,-58.3619C101.446,-50.4313 109.443,-39.3885 116.27,-29.9606"/>
<polygon fill="midnightblue" stroke="midnightblue" points="119.315,-31.7229 122.345,-21.5707 113.645,-27.6173 119.315,-31.7229"/>
</g>
</g>
</svg>
