<?xml version="1.0" encoding="UTF-8" standalone="no"?>
<!DOCTYPE svg PUBLIC "-//W3C//DTD SVG 1.1//EN"
 "http://www.w3.org/Graphics/SVG/1.1/DTD/svg11.dtd">
<!-- Generated by graphviz version 2.26.3 (20100126.1600)
 -->
<!-- Title: src/simulation/mc/utils/PlutoTID.cc Pages: 1 -->
<svg width="1392pt" height="334pt"
 viewBox="0.00 0.00 1391.75 334.00" xmlns="http://www.w3.org/2000/svg" xmlns:xlink="http://www.w3.org/1999/xlink">
<g id="graph1" class="graph" transform="scale(1 1) rotate(0) translate(4 330)">
<title>src/simulation/mc/utils/PlutoTID.cc</title>
<polygon fill="white" stroke="white" points="-4,5 -4,-330 1388.75,-330 1388.75,5 -4,5"/>
<!-- Node1 -->
<g id="node1" class="node"><title>Node1</title>
<polygon fill="#bfbfbf" stroke="black" points="983.248,-291 983.248,-325 1098.25,-325 1098.25,-291 983.248,-291"/>
<text text-anchor="start" x="991.248" y="-312" font-family="Helvetica,sans-Serif" font-size="10.00">src/simulation/mc/utils</text>
<text text-anchor="middle" x="1040.75" y="-299" font-family="Helvetica,sans-Serif" font-size="10.00">/PlutoTID.cc</text>
</g>
<!-- Node2 -->
<g id="node3" class="node"><title>Node2</title>
<a xlink:href="_pluto_t_i_d_8h.html" target="_top" xlink:title="PlutoTID.h">
<polygon fill="white" stroke="black" points="166.748,-174.5 166.748,-195.5 230.748,-195.5 230.748,-174.5 166.748,-174.5"/>
<text text-anchor="middle" x="198.748" y="-182.5" font-family="Helvetica,sans-Serif" font-size="10.00">PlutoTID.h</text>
</a>
</g>
<!-- Node1&#45;&gt;Node2 -->
<g id="edge2" class="edge"><title>Node1&#45;&gt;Node2</title>
<path fill="none" stroke="midnightblue" d="M982.93,-302.766C893.47,-294.362 716.218,-276.497 566.748,-254 448.137,-236.148 309.318,-208.181 241.049,-193.957"/>
<polygon fill="midnightblue" stroke="midnightblue" points="241.61,-190.499 231.105,-191.879 240.177,-197.351 241.61,-190.499"/>
</g>
<!-- Node4 -->
<g id="node7" class="node"><title>Node4</title>
<a xlink:href="_wrap_t_file_8h.html" target="_top" xlink:title="base/WrapTFile.h">
<polygon fill="white" stroke="black" points="333.748,-116.5 333.748,-137.5 427.748,-137.5 427.748,-116.5 333.748,-116.5"/>
<text text-anchor="middle" x="380.748" y="-124.5" font-family="Helvetica,sans-Serif" font-size="10.00">base/WrapTFile.h</text>
</a>
</g>
<!-- Node1&#45;&gt;Node4 -->
<g id="edge6" class="edge"><title>Node1&#45;&gt;Node4</title>
<path fill="none" stroke="midnightblue" d="M983.044,-292.175C854.863,-257.022 548.362,-172.967 429.25,-140.301"/>
<polygon fill="midnightblue" stroke="midnightblue" points="429.891,-136.848 419.322,-137.579 428.04,-143.599 429.891,-136.848"/>
</g>
<!-- Node16 -->
<g id="node33" class="node"><title>Node16</title>
<a xlink:href="_logger_8h.html" target="_top" xlink:title="base/Logger.h">
<polygon fill="white" stroke="black" points="881.748,-232.5 881.748,-253.5 959.748,-253.5 959.748,-232.5 881.748,-232.5"/>
<text text-anchor="middle" x="920.748" y="-240.5" font-family="Helvetica,sans-Serif" font-size="10.00">base/Logger.h</text>
</a>
</g>
<!-- Node1&#45;&gt;Node16 -->
<g id="edge34" class="edge"><title>Node1&#45;&gt;Node16</title>
<path fill="none" stroke="midnightblue" d="M1009.22,-290.922C990.652,-280.864 967.348,-268.242 949.319,-258.476"/>
<polygon fill="midnightblue" stroke="midnightblue" points="950.885,-255.344 940.425,-253.658 947.551,-261.499 950.885,-255.344"/>
</g>
<!-- Node18 -->
<g id="node37" class="node"><title>Node18</title>
<a xlink:href="_t_data_record_8h.html" target="_top" xlink:title="tree/TDataRecord.h">
<polygon fill="white" stroke="black" points="989.248,-232.5 989.248,-253.5 1092.25,-253.5 1092.25,-232.5 989.248,-232.5"/>
<text text-anchor="middle" x="1040.75" y="-240.5" font-family="Helvetica,sans-Serif" font-size="10.00">tree/TDataRecord.h</text>
</a>
</g>
<!-- Node1&#45;&gt;Node18 -->
<g id="edge38" class="edge"><title>Node1&#45;&gt;Node18</title>
<path fill="none" stroke="midnightblue" d="M1040.75,-290.922C1040.75,-282.67 1040.75,-272.692 1040.75,-263.982"/>
<polygon fill="midnightblue" stroke="midnightblue" points="1044.25,-263.852 1040.75,-253.852 1037.25,-263.852 1044.25,-263.852"/>
</g>
<!-- Node26 -->
<g id="node54" class="node"><title>Node26</title>
<polygon fill="white" stroke="#bfbfbf" points="1104.25,-58.5 1104.25,-79.5 1145.25,-79.5 1145.25,-58.5 1104.25,-58.5"/>
<text text-anchor="middle" x="1124.75" y="-66.5" font-family="Helvetica,sans-Serif" font-size="10.00">ctime</text>
</g>
<!-- Node1&#45;&gt;Node26 -->
<g id="edge80" class="edge"><title>Node1&#45;&gt;Node26</title>
<path fill="none" stroke="midnightblue" d="M1061.91,-290.957C1094.41,-263.12 1154.84,-204.308 1173.75,-138 1176.43,-128.597 1177.58,-124.994 1173.75,-116 1168.67,-104.092 1158.93,-93.7503 1149.46,-85.8235"/>
<polygon fill="midnightblue" stroke="midnightblue" points="1151.38,-82.8799 1141.34,-79.5002 1147.08,-88.4041 1151.38,-82.8799"/>
</g>
<!-- Node32 -->
<g id="node70" class="node"><title>Node32</title>
<polygon fill="white" stroke="#bfbfbf" points="1243.75,-232.5 1243.75,-253.5 1293.75,-253.5 1293.75,-232.5 1243.75,-232.5"/>
<text text-anchor="middle" x="1268.75" y="-240.5" font-family="Helvetica,sans-Serif" font-size="10.00">TTree.h</text>
</g>
<!-- Node1&#45;&gt;Node32 -->
<g id="edge76" class="edge"><title>Node1&#45;&gt;Node32</title>
<path fill="none" stroke="midnightblue" d="M1098.28,-291.598C1140.91,-279.446 1197.62,-263.278 1233.67,-253.002"/>
<polygon fill="midnightblue" stroke="midnightblue" points="1235.05,-256.248 1243.7,-250.14 1233.13,-249.516 1235.05,-256.248"/>
</g>
<!-- Node33 -->
<g id="node72" class="node"><title>Node33</title>
<polygon fill="white" stroke="#bfbfbf" points="1311.25,-232.5 1311.25,-253.5 1384.25,-253.5 1384.25,-232.5 1311.25,-232.5"/>
<text text-anchor="middle" x="1347.75" y="-240.5" font-family="Helvetica,sans-Serif" font-size="10.00">TRandom2.h</text>
</g>
<!-- Node1&#45;&gt;Node33 -->
<g id="edge78" class="edge"><title>Node1&#45;&gt;Node33</title>
<path fill="none" stroke="midnightblue" d="M1098.38,-296.75C1149.27,-286.674 1225.72,-271.191 1300.83,-254.385"/>
<polygon fill="midnightblue" stroke="midnightblue" points="1301.95,-257.722 1310.94,-252.114 1300.41,-250.892 1301.95,-257.722"/>
</g>
<!-- Node3 -->
<g id="node5" class="node"><title>Node3</title>
<polygon fill="white" stroke="#bfbfbf" points="570.248,-0.5 570.248,-21.5 611.248,-21.5 611.248,-0.5 570.248,-0.5"/>
<text text-anchor="middle" x="590.748" y="-8.5" font-family="Helvetica,sans-Serif" font-size="10.00">string</text>
</g>
<!-- Node2&#45;&gt;Node3 -->
<g id="edge4" class="edge"><title>Node2&#45;&gt;Node3</title>
<path fill="none" stroke="midnightblue" d="M166.692,-177.325C100.456,-160.083 -41.0603,-115.269 11.7483,-58 30.5187,-37.6442 443.3,-17.62 560.167,-12.3429"/>
<polygon fill="midnightblue" stroke="midnightblue" points="560.393,-15.8364 570.226,-11.8923 560.079,-8.84344 560.393,-15.8364"/>
</g>
<!-- Node4&#45;&gt;Node3 -->
<g id="edge10" class="edge"><title>Node4&#45;&gt;Node3</title>
<path fill="none" stroke="midnightblue" d="M427.888,-120.92C477.601,-113.576 551.495,-99.7057 571.748,-80 584.647,-67.45 589.032,-47.0128 590.408,-31.6311"/>
<polygon fill="midnightblue" stroke="midnightblue" points="593.911,-31.6843 590.957,-21.5094 586.921,-31.3052 593.911,-31.6843"/>
</g>
<!-- Node5 -->
<g id="node9" class="node"><title>Node5</title>
<polygon fill="white" stroke="#bfbfbf" points="86.7483,-58.5 86.7483,-79.5 138.748,-79.5 138.748,-58.5 86.7483,-58.5"/>
<text text-anchor="middle" x="112.748" y="-66.5" font-family="Helvetica,sans-Serif" font-size="10.00">memory</text>
</g>
<!-- Node4&#45;&gt;Node5 -->
<g id="edge8" class="edge"><title>Node4&#45;&gt;Node5</title>
<path fill="none" stroke="midnightblue" d="M333.558,-118.99C288.378,-110.983 218.154,-97.6623 148.812,-80.0954"/>
<polygon fill="midnightblue" stroke="midnightblue" points="149.592,-76.6823 139.036,-77.5886 147.853,-83.4629 149.592,-76.6823"/>
</g>
<!-- Node6 -->
<g id="node12" class="node"><title>Node6</title>
<polygon fill="white" stroke="#bfbfbf" points="156.248,-58.5 156.248,-79.5 185.248,-79.5 185.248,-58.5 156.248,-58.5"/>
<text text-anchor="middle" x="170.748" y="-66.5" font-family="Helvetica,sans-Serif" font-size="10.00">list</text>
</g>
<!-- Node4&#45;&gt;Node6 -->
<g id="edge12" class="edge"><title>Node4&#45;&gt;Node6</title>
<path fill="none" stroke="midnightblue" d="M333.479,-117.857C297.441,-110.275 246.583,-98.2653 195.246,-80.1193"/>
<polygon fill="midnightblue" stroke="midnightblue" points="196.252,-76.7616 185.658,-76.6593 193.876,-83.346 196.252,-76.7616"/>
</g>
<!-- Node7 -->
<g id="node14" class="node"><title>Node7</title>
<a xlink:href="string_8h.html" target="_top" xlink:title="base/std_ext/string.h">
<polygon fill="white" stroke="black" points="618.748,-58.5 618.748,-79.5 726.748,-79.5 726.748,-58.5 618.748,-58.5"/>
<text text-anchor="middle" x="672.748" y="-66.5" font-family="Helvetica,sans-Serif" font-size="10.00">base/std_ext/string.h</text>
</a>
</g>
<!-- Node4&#45;&gt;Node7 -->
<g id="edge14" class="edge"><title>Node4&#45;&gt;Node7</title>
<path fill="none" stroke="midnightblue" d="M427.988,-117.617C477.372,-107.808 555.138,-92.361 609.729,-81.5175"/>
<polygon fill="midnightblue" stroke="midnightblue" points="610.515,-84.9299 619.641,-79.5487 609.151,-78.0641 610.515,-84.9299"/>
</g>
<!-- Node10 -->
<g id="node21" class="node"><title>Node10</title>
<polygon fill="white" stroke="#bfbfbf" points="202.248,-58.5 202.248,-79.5 249.248,-79.5 249.248,-58.5 202.248,-58.5"/>
<text text-anchor="middle" x="225.748" y="-66.5" font-family="Helvetica,sans-Serif" font-size="10.00">TFile.h</text>
</g>
<!-- Node4&#45;&gt;Node10 -->
<g id="edge22" class="edge"><title>Node4&#45;&gt;Node10</title>
<path fill="none" stroke="midnightblue" d="M352.679,-116.497C326.417,-106.67 287.158,-91.9792 259.264,-81.5414"/>
<polygon fill="midnightblue" stroke="midnightblue" points="260.139,-78.1319 249.547,-77.9052 257.686,-84.6879 260.139,-78.1319"/>
</g>
<!-- Node11 -->
<g id="node23" class="node"><title>Node11</title>
<polygon fill="white" stroke="#bfbfbf" points="266.248,-58.5 266.248,-79.5 337.248,-79.5 337.248,-58.5 266.248,-58.5"/>
<text text-anchor="middle" x="301.748" y="-66.5" font-family="Helvetica,sans-Serif" font-size="10.00">TDirectory.h</text>
</g>
<!-- Node4&#45;&gt;Node11 -->
<g id="edge24" class="edge"><title>Node4&#45;&gt;Node11</title>
<path fill="none" stroke="midnightblue" d="M366.258,-116.362C354.566,-107.777 337.906,-95.5459 324.445,-85.6636"/>
<polygon fill="midnightblue" stroke="midnightblue" points="326.278,-82.6675 316.146,-79.5707 322.136,-88.31 326.278,-82.6675"/>
</g>
<!-- Node12 -->
<g id="node25" class="node"><title>Node12</title>
<polygon fill="white" stroke="#bfbfbf" points="354.748,-58.5 354.748,-79.5 406.748,-79.5 406.748,-58.5 354.748,-58.5"/>
<text text-anchor="middle" x="380.748" y="-66.5" font-family="Helvetica,sans-Serif" font-size="10.00">TError.h</text>
</g>
<!-- Node4&#45;&gt;Node12 -->
<g id="edge26" class="edge"><title>Node4&#45;&gt;Node12</title>
<path fill="none" stroke="midnightblue" d="M380.748,-116.362C380.748,-108.922 380.748,-98.7427 380.748,-89.7276"/>
<polygon fill="midnightblue" stroke="midnightblue" points="384.248,-89.5706 380.748,-79.5707 377.248,-89.5707 384.248,-89.5706"/>
</g>
<!-- Node13 -->
<g id="node27" class="node"><title>Node13</title>
<polygon fill="white" stroke="#bfbfbf" points="424.248,-58.5 424.248,-79.5 471.248,-79.5 471.248,-58.5 424.248,-58.5"/>
<text text-anchor="middle" x="447.748" y="-66.5" font-family="Helvetica,sans-Serif" font-size="10.00">TList.h</text>
</g>
<!-- Node4&#45;&gt;Node13 -->
<g id="edge28" class="edge"><title>Node4&#45;&gt;Node13</title>
<path fill="none" stroke="midnightblue" d="M393.037,-116.362C402.765,-107.941 416.547,-96.0105 427.844,-86.2308"/>
<polygon fill="midnightblue" stroke="midnightblue" points="430.268,-88.7619 435.537,-79.5707 425.686,-83.4695 430.268,-88.7619"/>
</g>
<!-- Node14 -->
<g id="node29" class="node"><title>Node14</title>
<polygon fill="white" stroke="#bfbfbf" points="488.748,-58.5 488.748,-79.5 562.748,-79.5 562.748,-58.5 488.748,-58.5"/>
<text text-anchor="middle" x="525.748" y="-66.5" font-family="Helvetica,sans-Serif" font-size="10.00">TCollection.h</text>
</g>
<!-- Node4&#45;&gt;Node14 -->
<g id="edge30" class="edge"><title>Node4&#45;&gt;Node14</title>
<path fill="none" stroke="midnightblue" d="M407.007,-116.497C430.164,-107.234 464.124,-93.6499 489.8,-83.3793"/>
<polygon fill="midnightblue" stroke="midnightblue" points="491.21,-86.5849 499.195,-79.6212 488.611,-80.0855 491.21,-86.5849"/>
</g>
<!-- Node15 -->
<g id="node31" class="node"><title>Node15</title>
<polygon fill="white" stroke="#bfbfbf" points="20.7483,-58.5 20.7483,-79.5 68.7483,-79.5 68.7483,-58.5 20.7483,-58.5"/>
<text text-anchor="middle" x="44.7483" y="-66.5" font-family="Helvetica,sans-Serif" font-size="10.00">TKey.h</text>
</g>
<!-- Node4&#45;&gt;Node15 -->
<g id="edge32" class="edge"><title>Node4&#45;&gt;Node15</title>
<path fill="none" stroke="midnightblue" d="M333.553,-122.166C275.533,-115.675 174.015,-102.543 78.5729,-79.8909"/>
<polygon fill="midnightblue" stroke="midnightblue" points="79.305,-76.4671 68.763,-77.5232 77.6627,-83.2717 79.305,-76.4671"/>
</g>
<!-- Node7&#45;&gt;Node3 -->
<g id="edge16" class="edge"><title>Node7&#45;&gt;Node3</title>
<path fill="none" stroke="midnightblue" d="M657.708,-58.3619C645.456,-49.6955 627.949,-37.3126 613.909,-27.3819"/>
<polygon fill="midnightblue" stroke="midnightblue" points="615.878,-24.4879 605.693,-21.5707 611.836,-30.2028 615.878,-24.4879"/>
</g>
<!-- Node8 -->
<g id="node17" class="node"><title>Node8</title>
<polygon fill="white" stroke="#bfbfbf" points="710.748,-0.5 710.748,-21.5 762.748,-21.5 762.748,-0.5 710.748,-0.5"/>
<text text-anchor="middle" x="736.748" y="-8.5" font-family="Helvetica,sans-Serif" font-size="10.00">sstream</text>
</g>
<!-- Node7&#45;&gt;Node8 -->
<g id="edge18" class="edge"><title>Node7&#45;&gt;Node8</title>
<path fill="none" stroke="midnightblue" d="M684.487,-58.3619C693.689,-50.0226 706.688,-38.2418 717.42,-28.5162"/>
<polygon fill="midnightblue" stroke="midnightblue" points="720.025,-30.8793 725.084,-21.5707 715.324,-25.6924 720.025,-30.8793"/>
</g>
<!-- Node9 -->
<g id="node19" class="node"><title>Node9</title>
<polygon fill="white" stroke="#bfbfbf" points="636.748,-0.5 636.748,-21.5 692.748,-21.5 692.748,-0.5 636.748,-0.5"/>
<text text-anchor="middle" x="664.748" y="-8.5" font-family="Helvetica,sans-Serif" font-size="10.00">algorithm</text>
</g>
<!-- Node7&#45;&gt;Node9 -->
<g id="edge20" class="edge"><title>Node7&#45;&gt;Node9</title>
<path fill="none" stroke="midnightblue" d="M671.281,-58.3619C670.255,-50.9219 668.851,-40.7427 667.607,-31.7276"/>
<polygon fill="midnightblue" stroke="midnightblue" points="671.04,-30.9986 666.206,-21.5707 664.106,-31.9551 671.04,-30.9986"/>
</g>
<!-- Node17 -->
<g id="node35" class="node"><title>Node17</title>
<polygon fill="white" stroke="#bfbfbf" points="766.248,-174.5 766.248,-195.5 881.248,-195.5 881.248,-174.5 766.248,-174.5"/>
<text text-anchor="middle" x="823.748" y="-182.5" font-family="Helvetica,sans-Serif" font-size="10.00">detail/easylogging++.h</text>
</g>
<!-- Node16&#45;&gt;Node17 -->
<g id="edge36" class="edge"><title>Node16&#45;&gt;Node17</title>
<path fill="none" stroke="midnightblue" d="M902.957,-232.362C888.19,-223.532 866.97,-210.844 850.21,-200.822"/>
<polygon fill="midnightblue" stroke="midnightblue" points="851.806,-197.699 841.427,-195.571 848.213,-203.707 851.806,-197.699"/>
</g>
<!-- Node19 -->
<g id="node39" class="node"><title>Node19</title>
<a xlink:href="_t_i_d_8h.html" target="_top" xlink:title="TID.h">
<polygon fill="white" stroke="black" points="936.248,-174.5 936.248,-195.5 977.248,-195.5 977.248,-174.5 936.248,-174.5"/>
<text text-anchor="middle" x="956.748" y="-182.5" font-family="Helvetica,sans-Serif" font-size="10.00">TID.h</text>
</a>
</g>
<!-- Node18&#45;&gt;Node19 -->
<g id="edge40" class="edge"><title>Node18&#45;&gt;Node19</title>
<path fill="none" stroke="midnightblue" d="M1025.34,-232.362C1012.79,-223.696 994.856,-211.313 980.474,-201.382"/>
<polygon fill="midnightblue" stroke="midnightblue" points="982.275,-198.372 972.058,-195.571 978.298,-204.133 982.275,-198.372"/>
</g>
<!-- Node20 -->
<g id="node41" class="node"><title>Node20</title>
<polygon fill="white" stroke="#bfbfbf" points="487.748,-116.5 487.748,-137.5 543.748,-137.5 543.748,-116.5 487.748,-116.5"/>
<text text-anchor="middle" x="515.748" y="-124.5" font-family="Helvetica,sans-Serif" font-size="10.00">Rtypes.h</text>
</g>
<!-- Node18&#45;&gt;Node20 -->
<g id="edge70" class="edge"><title>Node18&#45;&gt;Node20</title>
<path fill="none" stroke="midnightblue" d="M1012.43,-232.409C989.297,-223.475 955.933,-209.946 927.748,-196 910.257,-187.345 908.3,-180.057 889.748,-174 749.635,-128.25 702.47,-165.893 553.836,-137.887"/>
<polygon fill="midnightblue" stroke="midnightblue" points="554.382,-134.427 543.897,-135.945 553.04,-141.297 554.382,-134.427"/>
</g>
<!-- Node18&#45;&gt;Node26 -->
<g id="edge74" class="edge"><title>Node18&#45;&gt;Node26</title>
<path fill="none" stroke="midnightblue" d="M1061.05,-232.438C1089.3,-216.424 1139.21,-183.03 1158.75,-138 1166.39,-120.385 1154.72,-100.791 1143.03,-86.9977"/>
<polygon fill="midnightblue" stroke="midnightblue" points="1145.61,-84.6334 1136.28,-79.6054 1140.44,-89.3516 1145.61,-84.6334"/>
</g>
<!-- Node31 -->
<g id="node64" class="node"><title>Node31</title>
<polygon fill="white" stroke="#bfbfbf" points="1099.75,-116.5 1099.75,-137.5 1149.75,-137.5 1149.75,-116.5 1099.75,-116.5"/>
<text text-anchor="middle" x="1124.75" y="-124.5" font-family="Helvetica,sans-Serif" font-size="10.00">iomanip</text>
</g>
<!-- Node18&#45;&gt;Node31 -->
<g id="edge72" class="edge"><title>Node18&#45;&gt;Node31</title>
<path fill="none" stroke="midnightblue" d="M1048.5,-232.295C1062.75,-212.613 1093.28,-170.45 1111.09,-145.867"/>
<polygon fill="midnightblue" stroke="midnightblue" points="1113.98,-147.831 1117.02,-137.679 1108.32,-143.726 1113.98,-147.831"/>
</g>
<!-- Node19&#45;&gt;Node20 -->
<g id="edge42" class="edge"><title>Node19&#45;&gt;Node20</title>
<path fill="none" stroke="midnightblue" d="M936.082,-177.53C931.725,-176.177 927.122,-174.909 922.748,-174 764.145,-141.032 716.746,-168.566 553.77,-137.878"/>
<polygon fill="midnightblue" stroke="midnightblue" points="554.373,-134.429 543.891,-135.973 553.048,-141.303 554.373,-134.429"/>
</g>
<!-- Node21 -->
<g id="node43" class="node"><title>Node21</title>
<a xlink:href="printable_8h.html" target="_top" xlink:title="base/printable.h">
<polygon fill="white" stroke="black" points="561.748,-116.5 561.748,-137.5 647.748,-137.5 647.748,-116.5 561.748,-116.5"/>
<text text-anchor="middle" x="604.748" y="-124.5" font-family="Helvetica,sans-Serif" font-size="10.00">base/printable.h</text>
</a>
</g>
<!-- Node19&#45;&gt;Node21 -->
<g id="edge44" class="edge"><title>Node19&#45;&gt;Node21</title>
<path fill="none" stroke="midnightblue" d="M936.054,-177.657C931.699,-176.295 927.104,-174.991 922.748,-174 809.602,-148.257 776.118,-157.795 657.997,-138.102"/>
<polygon fill="midnightblue" stroke="midnightblue" points="658.277,-134.599 647.831,-136.37 657.101,-141.499 658.277,-134.599"/>
</g>
<!-- Node24 -->
<g id="node49" class="node"><title>Node24</title>
<a xlink:href="time_8h.html" target="_top" xlink:title="base/std_ext/time.h">
<polygon fill="white" stroke="black" points="805.248,-116.5 805.248,-137.5 908.248,-137.5 908.248,-116.5 805.248,-116.5"/>
<text text-anchor="middle" x="856.748" y="-124.5" font-family="Helvetica,sans-Serif" font-size="10.00">base/std_ext/time.h</text>
</a>
</g>
<!-- Node19&#45;&gt;Node24 -->
<g id="edge50" class="edge"><title>Node19&#45;&gt;Node24</title>
<path fill="none" stroke="midnightblue" d="M938.407,-174.362C923.183,-165.532 901.307,-152.844 884.028,-142.822"/>
<polygon fill="midnightblue" stroke="midnightblue" points="885.38,-139.56 874.974,-137.571 881.868,-145.615 885.38,-139.56"/>
</g>
<!-- Node19&#45;&gt;Node26 -->
<g id="edge68" class="edge"><title>Node19&#45;&gt;Node26</title>
<path fill="none" stroke="midnightblue" d="M977.615,-176.992C997.777,-168.758 1028.71,-154.789 1052.75,-138 1073.83,-123.278 1094.68,-102.418 1108.47,-87.4946"/>
<polygon fill="midnightblue" stroke="midnightblue" points="1111.24,-89.6504 1115.37,-79.8915 1106.06,-84.9481 1111.24,-89.6504"/>
</g>
<!-- Node27 -->
<g id="node56" class="node"><title>Node27</title>
<polygon fill="white" stroke="#bfbfbf" points="925.748,-116.5 925.748,-137.5 987.748,-137.5 987.748,-116.5 925.748,-116.5"/>
<text text-anchor="middle" x="956.748" y="-124.5" font-family="Helvetica,sans-Serif" font-size="10.00">type_traits</text>
</g>
<!-- Node19&#45;&gt;Node27 -->
<g id="edge58" class="edge"><title>Node19&#45;&gt;Node27</title>
<path fill="none" stroke="midnightblue" d="M956.748,-174.362C956.748,-166.922 956.748,-156.743 956.748,-147.728"/>
<polygon fill="midnightblue" stroke="midnightblue" points="960.248,-147.571 956.748,-137.571 953.248,-147.571 960.248,-147.571"/>
</g>
<!-- Node28 -->
<g id="node58" class="node"><title>Node28</title>
<polygon fill="white" stroke="#bfbfbf" points="1005.75,-116.5 1005.75,-137.5 1043.75,-137.5 1043.75,-116.5 1005.75,-116.5"/>
<text text-anchor="middle" x="1024.75" y="-124.5" font-family="Helvetica,sans-Serif" font-size="10.00">tuple</text>
</g>
<!-- Node19&#45;&gt;Node28 -->
<g id="edge60" class="edge"><title>Node19&#45;&gt;Node28</title>
<path fill="none" stroke="midnightblue" d="M969.221,-174.362C979.094,-165.941 993.081,-154.011 1004.55,-144.231"/>
<polygon fill="midnightblue" stroke="midnightblue" points="1007.02,-146.723 1012.36,-137.571 1002.48,-141.397 1007.02,-146.723"/>
</g>
<!-- Node29 -->
<g id="node60" class="node"><title>Node29</title>
<polygon fill="white" stroke="#bfbfbf" points="665.748,-116.5 665.748,-137.5 711.748,-137.5 711.748,-116.5 665.748,-116.5"/>
<text text-anchor="middle" x="688.748" y="-124.5" font-family="Helvetica,sans-Serif" font-size="10.00">cstdint</text>
</g>
<!-- Node19&#45;&gt;Node29 -->
<g id="edge62" class="edge"><title>Node19&#45;&gt;Node29</title>
<path fill="none" stroke="midnightblue" d="M936.021,-177.798C931.668,-176.425 927.082,-175.082 922.748,-174 837.295,-152.668 810.821,-160.313 721.738,-137.961"/>
<polygon fill="midnightblue" stroke="midnightblue" points="722.596,-134.568 712.04,-135.473 720.856,-141.348 722.596,-134.568"/>
</g>
<!-- Node30 -->
<g id="node62" class="node"><title>Node30</title>
<polygon fill="white" stroke="#bfbfbf" points="729.248,-116.5 729.248,-137.5 788.248,-137.5 788.248,-116.5 729.248,-116.5"/>
<text text-anchor="middle" x="758.748" y="-124.5" font-family="Helvetica,sans-Serif" font-size="10.00">stdexcept</text>
</g>
<!-- Node19&#45;&gt;Node30 -->
<g id="edge64" class="edge"><title>Node19&#45;&gt;Node30</title>
<path fill="none" stroke="midnightblue" d="M935.926,-178.138C931.58,-176.741 927.021,-175.301 922.748,-174 869.972,-157.928 854.345,-154.446 798.356,-138.449"/>
<polygon fill="midnightblue" stroke="midnightblue" points="799.194,-135.048 788.616,-135.657 797.264,-141.777 799.194,-135.048"/>
</g>
<!-- Node19&#45;&gt;Node31 -->
<g id="edge66" class="edge"><title>Node19&#45;&gt;Node31</title>
<path fill="none" stroke="midnightblue" d="M977.348,-177.888C1005.42,-168.197 1056.07,-150.709 1090.06,-138.976"/>
<polygon fill="midnightblue" stroke="midnightblue" points="1091.29,-142.255 1099.6,-135.683 1089,-135.638 1091.29,-142.255"/>
</g>
<!-- Node22 -->
<g id="node45" class="node"><title>Node22</title>
<polygon fill="white" stroke="#bfbfbf" points="814.748,-58.5 814.748,-79.5 858.748,-79.5 858.748,-58.5 814.748,-58.5"/>
<text text-anchor="middle" x="836.748" y="-66.5" font-family="Helvetica,sans-Serif" font-size="10.00">vector</text>
</g>
<!-- Node21&#45;&gt;Node22 -->
<g id="edge46" class="edge"><title>Node21&#45;&gt;Node22</title>
<path fill="none" stroke="midnightblue" d="M648.103,-117.456C693.947,-107.269 764.19,-91.3619 804.643,-80.0681"/>
<polygon fill="midnightblue" stroke="midnightblue" points="805.854,-83.3617 814.494,-77.2304 803.916,-76.6352 805.854,-83.3617"/>
</g>
<!-- Node23 -->
<g id="node47" class="node"><title>Node23</title>
<polygon fill="white" stroke="#bfbfbf" points="744.748,-58.5 744.748,-79.5 796.748,-79.5 796.748,-58.5 744.748,-58.5"/>
<text text-anchor="middle" x="770.748" y="-66.5" font-family="Helvetica,sans-Serif" font-size="10.00">ostream</text>
</g>
<!-- Node21&#45;&gt;Node23 -->
<g id="edge48" class="edge"><title>Node21&#45;&gt;Node23</title>
<path fill="none" stroke="midnightblue" d="M634.81,-116.497C663.014,-106.642 705.216,-91.8969 735.105,-81.4538"/>
<polygon fill="midnightblue" stroke="midnightblue" points="736.445,-84.693 744.731,-78.0904 734.136,-78.0848 736.445,-84.693"/>
</g>
<!-- Node24&#45;&gt;Node7 -->
<g id="edge52" class="edge"><title>Node24&#45;&gt;Node7</title>
<path fill="none" stroke="midnightblue" d="M823.427,-116.497C793.3,-107 748.766,-92.9619 715.921,-82.6087"/>
<polygon fill="midnightblue" stroke="midnightblue" points="716.721,-79.1914 706.132,-79.5231 714.617,-85.8676 716.721,-79.1914"/>
</g>
<!-- Node25 -->
<g id="node52" class="node"><title>Node25</title>
<polygon fill="white" stroke="#bfbfbf" points="876.748,-58.5 876.748,-79.5 922.748,-79.5 922.748,-58.5 876.748,-58.5"/>
<text text-anchor="middle" x="899.748" y="-66.5" font-family="Helvetica,sans-Serif" font-size="10.00">cstring</text>
</g>
<!-- Node24&#45;&gt;Node25 -->
<g id="edge54" class="edge"><title>Node24&#45;&gt;Node25</title>
<path fill="none" stroke="midnightblue" d="M864.635,-116.362C870.575,-108.35 878.871,-97.1605 885.907,-87.6696"/>
<polygon fill="midnightblue" stroke="midnightblue" points="888.767,-89.6883 891.911,-79.5707 883.144,-85.5193 888.767,-89.6883"/>
</g>
<!-- Node24&#45;&gt;Node26 -->
<g id="edge56" class="edge"><title>Node24&#45;&gt;Node26</title>
<path fill="none" stroke="midnightblue" d="M905.281,-116.497C960.137,-104.625 1047.79,-85.6549 1093.97,-75.6601"/>
<polygon fill="midnightblue" stroke="midnightblue" points="1094.94,-79.0315 1103.98,-73.4954 1093.46,-72.1899 1094.94,-79.0315"/>
</g>
</g>
</svg>
