<?xml version="1.0" encoding="UTF-8" standalone="no"?>
<!DOCTYPE svg PUBLIC "-//W3C//DTD SVG 1.1//EN"
 "http://www.w3.org/Graphics/SVG/1.1/DTD/svg11.dtd">
<!-- Generated by graphviz version 2.26.3 (20100126.1600)
 -->
<!-- Title: src/analysis/physics/misc/RecoCheck.cc Pages: 1 -->
<svg width="1442pt" height="392pt"
 viewBox="0.00 0.00 1442.48 392.00" xmlns="http://www.w3.org/2000/svg" xmlns:xlink="http://www.w3.org/1999/xlink">
<g id="graph1" class="graph" transform="scale(1 1) rotate(0) translate(4 388)">
<title>src/analysis/physics/misc/RecoCheck.cc</title>
<polygon fill="white" stroke="white" points="-4,5 -4,-388 1439.48,-388 1439.48,5 -4,5"/>
<!-- Node1 -->
<g id="node1" class="node"><title>Node1</title>
<polygon fill="#bfbfbf" stroke="black" points="671.5,-349 671.5,-383 780.5,-383 780.5,-349 671.5,-349"/>
<text text-anchor="start" x="679.5" y="-370" font-family="Helvetica,sans-Serif" font-size="10.00">src/analysis/physics</text>
<text text-anchor="middle" x="726" y="-357" font-family="Helvetica,sans-Serif" font-size="10.00">/misc/RecoCheck.cc</text>
</g>
<!-- Node2 -->
<g id="node3" class="node"><title>Node2</title>
<a xlink:href="_reco_check_8h.html" target="_top" xlink:title="RecoCheck.h">
<polygon fill="white" stroke="black" points="-0.5,-174.5 -0.5,-195.5 76.5,-195.5 76.5,-174.5 -0.5,-174.5"/>
<text text-anchor="middle" x="38" y="-182.5" font-family="Helvetica,sans-Serif" font-size="10.00">RecoCheck.h</text>
</a>
</g>
<!-- Node1&#45;&gt;Node2 -->
<g id="edge2" class="edge"><title>Node1&#45;&gt;Node2</title>
<path fill="none" stroke="midnightblue" d="M671.319,-353.396C625.681,-342.751 558.971,-326.903 501,-312 347.988,-272.664 167.739,-221.955 84.4689,-198.279"/>
<polygon fill="midnightblue" stroke="midnightblue" points="85.3792,-194.899 74.8031,-195.528 83.4632,-201.632 85.3792,-194.899"/>
</g>
<!-- Node12 -->
<g id="node23" class="node"><title>Node12</title>
<polygon fill="white" stroke="#bfbfbf" points="1186.5,-290.5 1186.5,-311.5 1237.5,-311.5 1237.5,-290.5 1186.5,-290.5"/>
<text text-anchor="middle" x="1212" y="-298.5" font-family="Helvetica,sans-Serif" font-size="10.00">TH1D.h</text>
</g>
<!-- Node1&#45;&gt;Node12 -->
<g id="edge22" class="edge"><title>Node1&#45;&gt;Node12</title>
<path fill="none" stroke="midnightblue" d="M780.791,-362.127C865.506,-355.522 1033.12,-340.001 1173,-312 1174.07,-311.786 1175.15,-311.558 1176.24,-311.317"/>
<polygon fill="midnightblue" stroke="midnightblue" points="1177.24,-314.677 1186.12,-308.902 1175.58,-307.877 1177.24,-314.677"/>
</g>
<!-- Node13 -->
<g id="node25" class="node"><title>Node13</title>
<a xlink:href="matcher_8h.html" target="_top" xlink:title="utils/matcher.h">
<polygon fill="white" stroke="black" points="192.5,-174.5 192.5,-195.5 273.5,-195.5 273.5,-174.5 192.5,-174.5"/>
<text text-anchor="middle" x="233" y="-182.5" font-family="Helvetica,sans-Serif" font-size="10.00">utils/matcher.h</text>
</a>
</g>
<!-- Node1&#45;&gt;Node13 -->
<g id="edge24" class="edge"><title>Node1&#45;&gt;Node13</title>
<path fill="none" stroke="midnightblue" d="M672.899,-348.961C641.173,-338.616 600.142,-324.95 564,-312 455.872,-273.257 329.501,-223.514 268.939,-199.394"/>
<polygon fill="midnightblue" stroke="midnightblue" points="270.036,-196.064 259.451,-195.61 267.443,-202.566 270.036,-196.064"/>
</g>
<!-- Node15 -->
<g id="node33" class="node"><title>Node15</title>
<polygon fill="white" stroke="#bfbfbf" points="1039,-232.5 1039,-253.5 1131,-253.5 1131,-232.5 1039,-232.5"/>
<text text-anchor="middle" x="1085" y="-240.5" font-family="Helvetica,sans-Serif" font-size="10.00">TLorentzVector.h</text>
</g>
<!-- Node1&#45;&gt;Node15 -->
<g id="edge36" class="edge"><title>Node1&#45;&gt;Node15</title>
<path fill="none" stroke="midnightblue" d="M775.917,-348.897C847.57,-324.348 978.21,-279.588 1044.34,-256.932"/>
<polygon fill="midnightblue" stroke="midnightblue" points="1045.67,-260.176 1053.99,-253.623 1043.4,-253.554 1045.67,-260.176"/>
</g>
<!-- Node16 -->
<g id="node35" class="node"><title>Node16</title>
<a xlink:href="_particle_8h.html" target="_top" xlink:title="Particle.h">
<polygon fill="white" stroke="black" points="697,-290.5 697,-311.5 755,-311.5 755,-290.5 697,-290.5"/>
<text text-anchor="middle" x="726" y="-298.5" font-family="Helvetica,sans-Serif" font-size="10.00">Particle.h</text>
</a>
</g>
<!-- Node1&#45;&gt;Node16 -->
<g id="edge38" class="edge"><title>Node1&#45;&gt;Node16</title>
<path fill="none" stroke="midnightblue" d="M726,-348.922C726,-340.67 726,-330.692 726,-321.982"/>
<polygon fill="midnightblue" stroke="midnightblue" points="729.5,-321.852 726,-311.852 722.5,-321.852 729.5,-321.852"/>
</g>
<!-- Node31 -->
<g id="node89" class="node"><title>Node31</title>
<a xlink:href="root__draw_8h.html" target="_top" xlink:title="plot/root_draw.h">
<polygon fill="white" stroke="black" points="1131,-174.5 1131,-195.5 1217,-195.5 1217,-174.5 1131,-174.5"/>
<text text-anchor="middle" x="1174" y="-182.5" font-family="Helvetica,sans-Serif" font-size="10.00">plot/root_draw.h</text>
</a>
</g>
<!-- Node1&#45;&gt;Node31 -->
<g id="edge116" class="edge"><title>Node1&#45;&gt;Node31</title>
<path fill="none" stroke="midnightblue" d="M780.727,-356.949C880.063,-339.606 1084.88,-299.363 1140,-254 1155.08,-241.589 1164.03,-220.839 1168.93,-205.328"/>
<polygon fill="midnightblue" stroke="midnightblue" points="1172.33,-206.171 1171.7,-195.594 1165.59,-204.254 1172.33,-206.171"/>
</g>
<!-- Node34 -->
<g id="node100" class="node"><title>Node34</title>
<a xlink:href="_histogram_8h.html" target="_top" xlink:title="plot/Histogram.h">
<polygon fill="white" stroke="black" points="381.5,-174.5 381.5,-195.5 470.5,-195.5 470.5,-174.5 381.5,-174.5"/>
<text text-anchor="middle" x="426" y="-182.5" font-family="Helvetica,sans-Serif" font-size="10.00">plot/Histogram.h</text>
</a>
</g>
<!-- Node1&#45;&gt;Node34 -->
<g id="edge132" class="edge"><title>Node1&#45;&gt;Node34</title>
<path fill="none" stroke="midnightblue" d="M685.447,-348.91C640.035,-328.979 565.067,-293.66 506,-254 483.178,-238.677 459.658,-217.645 444.08,-202.842"/>
<polygon fill="midnightblue" stroke="midnightblue" points="446.332,-200.151 436.703,-195.732 441.474,-205.191 446.332,-200.151"/>
</g>
<!-- Node3 -->
<g id="node5" class="node"><title>Node3</title>
<polygon fill="white" stroke="#bfbfbf" points="0.5,-116.5 0.5,-137.5 75.5,-137.5 75.5,-116.5 0.5,-116.5"/>
<text text-anchor="middle" x="38" y="-124.5" font-family="Helvetica,sans-Serif" font-size="10.00">AntPhysics.h</text>
</g>
<!-- Node2&#45;&gt;Node3 -->
<g id="edge4" class="edge"><title>Node2&#45;&gt;Node3</title>
<path fill="none" stroke="midnightblue" d="M38,-174.362C38,-166.922 38,-156.743 38,-147.728"/>
<polygon fill="midnightblue" stroke="midnightblue" points="41.5001,-147.571 38,-137.571 34.5001,-147.571 41.5001,-147.571"/>
</g>
<!-- Node4 -->
<g id="node7" class="node"><title>Node4</title>
<a xlink:href="interval_8h.html" target="_top" xlink:title="base/interval.h">
<polygon fill="white" stroke="black" points="246,-116.5 246,-137.5 326,-137.5 326,-116.5 246,-116.5"/>
<text text-anchor="middle" x="286" y="-124.5" font-family="Helvetica,sans-Serif" font-size="10.00">base/interval.h</text>
</a>
</g>
<!-- Node2&#45;&gt;Node4 -->
<g id="edge6" class="edge"><title>Node2&#45;&gt;Node4</title>
<path fill="none" stroke="midnightblue" d="M76.75,-175.938C119.648,-165.905 188.93,-149.702 235.916,-138.713"/>
<polygon fill="midnightblue" stroke="midnightblue" points="236.939,-142.069 245.879,-136.383 235.345,-135.252 236.939,-142.069"/>
</g>
<!-- Node5 -->
<g id="node9" class="node"><title>Node5</title>
<polygon fill="white" stroke="#bfbfbf" points="258,-58.5 258,-79.5 314,-79.5 314,-58.5 258,-58.5"/>
<text text-anchor="middle" x="286" y="-66.5" font-family="Helvetica,sans-Serif" font-size="10.00">algorithm</text>
</g>
<!-- Node4&#45;&gt;Node5 -->
<g id="edge8" class="edge"><title>Node4&#45;&gt;Node5</title>
<path fill="none" stroke="midnightblue" d="M286,-116.362C286,-108.922 286,-98.7427 286,-89.7276"/>
<polygon fill="midnightblue" stroke="midnightblue" points="289.5,-89.5706 286,-79.5707 282.5,-89.5707 289.5,-89.5706"/>
</g>
<!-- Node6 -->
<g id="node11" class="node"><title>Node6</title>
<polygon fill="white" stroke="#bfbfbf" points="684.5,-58.5 684.5,-79.5 743.5,-79.5 743.5,-58.5 684.5,-58.5"/>
<text text-anchor="middle" x="714" y="-66.5" font-family="Helvetica,sans-Serif" font-size="10.00">stdexcept</text>
</g>
<!-- Node4&#45;&gt;Node6 -->
<g id="edge10" class="edge"><title>Node4&#45;&gt;Node6</title>
<path fill="none" stroke="midnightblue" d="M326.14,-121.787C391.511,-113.263 525.029,-95.7171 638,-80 649.847,-78.3518 662.725,-76.5077 674.456,-74.8076"/>
<polygon fill="midnightblue" stroke="midnightblue" points="675.023,-78.2621 684.415,-73.3592 674.015,-71.335 675.023,-78.2621"/>
</g>
<!-- Node7 -->
<g id="node13" class="node"><title>Node7</title>
<a xlink:href="printable_8h.html" target="_top" xlink:title="printable.h">
<polygon fill="white" stroke="black" points="567,-58.5 567,-79.5 629,-79.5 629,-58.5 567,-58.5"/>
<text text-anchor="middle" x="598" y="-66.5" font-family="Helvetica,sans-Serif" font-size="10.00">printable.h</text>
</a>
</g>
<!-- Node4&#45;&gt;Node7 -->
<g id="edge12" class="edge"><title>Node4&#45;&gt;Node7</title>
<path fill="none" stroke="midnightblue" d="M326.15,-119.536C385.738,-108.459 496.989,-87.7777 557.041,-76.6142"/>
<polygon fill="midnightblue" stroke="midnightblue" points="557.737,-80.0448 566.929,-74.776 556.458,-73.1627 557.737,-80.0448"/>
</g>
<!-- Node10 -->
<g id="node19" class="node"><title>Node10</title>
<a xlink:href="types_8h.html" target="_top" xlink:title="types.h">
<polygon fill="white" stroke="black" points="378.5,-58.5 378.5,-79.5 427.5,-79.5 427.5,-58.5 378.5,-58.5"/>
<text text-anchor="middle" x="403" y="-66.5" font-family="Helvetica,sans-Serif" font-size="10.00">types.h</text>
</a>
</g>
<!-- Node4&#45;&gt;Node10 -->
<g id="edge18" class="edge"><title>Node4&#45;&gt;Node10</title>
<path fill="none" stroke="midnightblue" d="M307.188,-116.497C325.462,-107.438 352.072,-94.2462 372.615,-84.0628"/>
<polygon fill="midnightblue" stroke="midnightblue" points="374.169,-87.1986 381.574,-79.6212 371.06,-80.9269 374.169,-87.1986"/>
</g>
<!-- Node11 -->
<g id="node21" class="node"><title>Node11</title>
<polygon fill="white" stroke="#bfbfbf" points="185,-58.5 185,-79.5 225,-79.5 225,-58.5 185,-58.5"/>
<text text-anchor="middle" x="205" y="-66.5" font-family="Helvetica,sans-Serif" font-size="10.00">limits</text>
</g>
<!-- Node4&#45;&gt;Node11 -->
<g id="edge20" class="edge"><title>Node4&#45;&gt;Node11</title>
<path fill="none" stroke="midnightblue" d="M271.143,-116.362C259.154,-107.777 242.073,-95.5459 228.272,-85.6636"/>
<polygon fill="midnightblue" stroke="midnightblue" points="229.931,-82.5469 219.762,-79.5707 225.855,-88.2383 229.931,-82.5469"/>
</g>
<!-- Node8 -->
<g id="node15" class="node"><title>Node8</title>
<polygon fill="white" stroke="#bfbfbf" points="961,-0.5 961,-21.5 1005,-21.5 1005,-0.5 961,-0.5"/>
<text text-anchor="middle" x="983" y="-8.5" font-family="Helvetica,sans-Serif" font-size="10.00">vector</text>
</g>
<!-- Node7&#45;&gt;Node8 -->
<g id="edge14" class="edge"><title>Node7&#45;&gt;Node8</title>
<path fill="none" stroke="midnightblue" d="M629.18,-64.3027C701.012,-53.4813 877.575,-26.8822 950.588,-15.8828"/>
<polygon fill="midnightblue" stroke="midnightblue" points="951.217,-19.3276 960.584,-14.3769 950.174,-12.4057 951.217,-19.3276"/>
</g>
<!-- Node9 -->
<g id="node17" class="node"><title>Node9</title>
<polygon fill="white" stroke="#bfbfbf" points="572,-0.5 572,-21.5 624,-21.5 624,-0.5 572,-0.5"/>
<text text-anchor="middle" x="598" y="-8.5" font-family="Helvetica,sans-Serif" font-size="10.00">ostream</text>
</g>
<!-- Node7&#45;&gt;Node9 -->
<g id="edge16" class="edge"><title>Node7&#45;&gt;Node9</title>
<path fill="none" stroke="midnightblue" d="M598,-58.3619C598,-50.9219 598,-40.7427 598,-31.7276"/>
<polygon fill="midnightblue" stroke="midnightblue" points="601.5,-31.5706 598,-21.5707 594.5,-31.5707 601.5,-31.5706"/>
</g>
<!-- Node13&#45;&gt;Node4 -->
<g id="edge32" class="edge"><title>Node13&#45;&gt;Node4</title>
<path fill="none" stroke="midnightblue" d="M242.721,-174.362C250.192,-166.186 260.686,-154.702 269.469,-145.091"/>
<polygon fill="midnightblue" stroke="midnightblue" points="272.179,-147.314 276.341,-137.571 267.011,-142.592 272.179,-147.314"/>
</g>
<!-- Node13&#45;&gt;Node5 -->
<g id="edge30" class="edge"><title>Node13&#45;&gt;Node5</title>
<path fill="none" stroke="midnightblue" d="M231.277,-174.133C229.551,-160.023 228.257,-134.96 237,-116 242.421,-104.244 252.21,-93.9239 261.62,-85.9721"/>
<polygon fill="midnightblue" stroke="midnightblue" points="263.991,-88.5595 269.673,-79.6171 259.655,-83.0643 263.991,-88.5595"/>
</g>
<!-- Node13&#45;&gt;Node8 -->
<g id="edge28" class="edge"><title>Node13&#45;&gt;Node8</title>
<path fill="none" stroke="midnightblue" d="M221.249,-174.474C196.278,-150.896 142.83,-93.1576 176,-58 189.536,-43.653 801.974,-18.2458 950.709,-12.2793"/>
<polygon fill="midnightblue" stroke="midnightblue" points="951.135,-15.7651 960.987,-11.8684 950.855,-8.77073 951.135,-15.7651"/>
</g>
<!-- Node13&#45;&gt;Node11 -->
<g id="edge34" class="edge"><title>Node13&#45;&gt;Node11</title>
<path fill="none" stroke="midnightblue" d="M223.939,-174.252C216.96,-165.227 207.873,-151.652 204,-138 199.511,-122.176 200.125,-103.478 201.659,-89.5411"/>
<polygon fill="midnightblue" stroke="midnightblue" points="205.141,-89.9078 203.007,-79.5302 198.204,-88.9737 205.141,-89.9078"/>
</g>
<!-- Node14 -->
<g id="node27" class="node"><title>Node14</title>
<polygon fill="white" stroke="#bfbfbf" points="567.5,-116.5 567.5,-137.5 596.5,-137.5 596.5,-116.5 567.5,-116.5"/>
<text text-anchor="middle" x="582" y="-124.5" font-family="Helvetica,sans-Serif" font-size="10.00">list</text>
</g>
<!-- Node13&#45;&gt;Node14 -->
<g id="edge26" class="edge"><title>Node13&#45;&gt;Node14</title>
<path fill="none" stroke="midnightblue" d="M273.718,-178.233C346.844,-166.08 498.305,-140.909 557.519,-131.069"/>
<polygon fill="midnightblue" stroke="midnightblue" points="558.171,-134.508 567.462,-129.416 557.023,-127.603 558.171,-134.508"/>
</g>
<!-- Node16&#45;&gt;Node7 -->
<g id="edge80" class="edge"><title>Node16&#45;&gt;Node7</title>
<path fill="none" stroke="midnightblue" d="M696.647,-295.567C651.491,-285.352 567.242,-258.417 539,-196 521.275,-156.826 556.2,-111.164 579.488,-86.6761"/>
<polygon fill="midnightblue" stroke="midnightblue" points="582.031,-89.0828 586.559,-79.5045 577.046,-84.1682 582.031,-89.0828"/>
</g>
<!-- Node16&#45;&gt;Node8 -->
<g id="edge108" class="edge"><title>Node16&#45;&gt;Node8</title>
<path fill="none" stroke="midnightblue" d="M755.079,-296.405C800.033,-289.039 888.951,-273.423 963,-254 993.316,-246.048 999.374,-238.66 1030,-232 1171.15,-201.306 1218.94,-249.77 1353,-196 1392.44,-180.183 1410.16,-176.084 1429,-138 1448.36,-98.8702 1411.17,-77.2707 1372,-58 1309.35,-27.1797 1097.04,-15.5661 1015.38,-12.1742"/>
<polygon fill="midnightblue" stroke="midnightblue" points="1015.32,-8.66938 1005.19,-11.766 1015.04,-15.6638 1015.32,-8.66938"/>
</g>
<!-- Node16&#45;&gt;Node10 -->
<g id="edge82" class="edge"><title>Node16&#45;&gt;Node10</title>
<path fill="none" stroke="midnightblue" d="M696.757,-296.824C619.357,-285.11 412.383,-249.281 373,-196 351.866,-167.407 363.036,-150.131 373,-116 375.949,-105.9 381.801,-95.9047 387.56,-87.7452"/>
<polygon fill="midnightblue" stroke="midnightblue" points="390.405,-89.7858 393.631,-79.694 384.816,-85.5714 390.405,-89.7858"/>
</g>
<!-- Node16&#45;&gt;Node14 -->
<g id="edge110" class="edge"><title>Node16&#45;&gt;Node14</title>
<path fill="none" stroke="midnightblue" d="M707.243,-290.433C693.579,-281.988 675.371,-269.091 663,-254 638.046,-223.558 646.972,-206.66 625,-174 618.076,-163.708 608.966,-153.413 600.914,-145.093"/>
<polygon fill="midnightblue" stroke="midnightblue" points="603.164,-142.393 593.624,-137.786 598.208,-147.337 603.164,-142.393"/>
</g>
<!-- Node16&#45;&gt;Node15 -->
<g id="edge106" class="edge"><title>Node16&#45;&gt;Node15</title>
<path fill="none" stroke="midnightblue" d="M755.324,-296.643C808.932,-288.622 926.317,-270.799 1025,-254 1026.26,-253.785 1027.54,-253.566 1028.83,-253.343"/>
<polygon fill="midnightblue" stroke="midnightblue" points="1029.59,-256.763 1038.83,-251.586 1028.38,-249.869 1029.59,-256.763"/>
</g>
<!-- Node17 -->
<g id="node37" class="node"><title>Node17</title>
<a xlink:href="_candidate_8h.html" target="_top" xlink:title="analysis/data/Candidate.h">
<polygon fill="white" stroke="black" points="824,-232.5 824,-253.5 954,-253.5 954,-232.5 824,-232.5"/>
<text text-anchor="middle" x="889" y="-240.5" font-family="Helvetica,sans-Serif" font-size="10.00">analysis/data/Candidate.h</text>
</a>
</g>
<!-- Node16&#45;&gt;Node17 -->
<g id="edge40" class="edge"><title>Node16&#45;&gt;Node17</title>
<path fill="none" stroke="midnightblue" d="M755.141,-290.631C781.55,-281.234 820.679,-267.311 849.819,-256.942"/>
<polygon fill="midnightblue" stroke="midnightblue" points="851.037,-260.223 859.285,-253.573 848.691,-253.628 851.037,-260.223"/>
</g>
<!-- Node25 -->
<g id="node63" class="node"><title>Node25</title>
<polygon fill="white" stroke="#bfbfbf" points="850,-116.5 850,-137.5 902,-137.5 902,-116.5 850,-116.5"/>
<text text-anchor="middle" x="876" y="-124.5" font-family="Helvetica,sans-Serif" font-size="10.00">memory</text>
</g>
<!-- Node16&#45;&gt;Node25 -->
<g id="edge114" class="edge"><title>Node16&#45;&gt;Node25</title>
<path fill="none" stroke="midnightblue" d="M735.157,-290.377C759.89,-261.688 828.286,-182.348 859.763,-145.835"/>
<polygon fill="midnightblue" stroke="midnightblue" points="862.701,-147.787 866.58,-137.928 857.399,-143.217 862.701,-147.787"/>
</g>
<!-- Node26 -->
<g id="node68" class="node"><title>Node26</title>
<a xlink:href="_particle_type_8h.html" target="_top" xlink:title="base/ParticleType.h">
<polygon fill="white" stroke="black" points="690,-116.5 690,-137.5 794,-137.5 794,-116.5 690,-116.5"/>
<text text-anchor="middle" x="742" y="-124.5" font-family="Helvetica,sans-Serif" font-size="10.00">base/ParticleType.h</text>
</a>
</g>
<!-- Node16&#45;&gt;Node26 -->
<g id="edge84" class="edge"><title>Node16&#45;&gt;Node26</title>
<path fill="none" stroke="midnightblue" d="M728.487,-290.238C730.577,-280.753 733.462,-266.534 735,-254 739.572,-216.747 741.159,-172.978 741.709,-147.767"/>
<polygon fill="midnightblue" stroke="midnightblue" points="745.212,-147.642 741.896,-137.579 738.213,-147.514 745.212,-147.642"/>
</g>
<!-- Node29 -->
<g id="node78" class="node"><title>Node29</title>
<a xlink:href="_tree_8h.html" target="_top" xlink:title="base/Tree.h">
<polygon fill="white" stroke="black" points="548,-174.5 548,-195.5 616,-195.5 616,-174.5 548,-174.5"/>
<text text-anchor="middle" x="582" y="-182.5" font-family="Helvetica,sans-Serif" font-size="10.00">base/Tree.h</text>
</a>
</g>
<!-- Node16&#45;&gt;Node29 -->
<g id="edge98" class="edge"><title>Node16&#45;&gt;Node29</title>
<path fill="none" stroke="midnightblue" d="M696.875,-291.216C676.579,-283.388 649.717,-270.917 630,-254 613.829,-240.125 600.49,-219.63 592.012,-204.581"/>
<polygon fill="midnightblue" stroke="midnightblue" points="594.995,-202.738 587.163,-195.603 588.835,-206.065 594.995,-202.738"/>
</g>
<!-- Node30 -->
<g id="node86" class="node"><title>Node30</title>
<polygon fill="white" stroke="#bfbfbf" points="672,-232.5 672,-253.5 726,-253.5 726,-232.5 672,-232.5"/>
<text text-anchor="middle" x="699" y="-240.5" font-family="Helvetica,sans-Serif" font-size="10.00">iostream</text>
</g>
<!-- Node16&#45;&gt;Node30 -->
<g id="edge112" class="edge"><title>Node16&#45;&gt;Node30</title>
<path fill="none" stroke="midnightblue" d="M721.048,-290.362C717.47,-282.677 712.532,-272.069 708.236,-262.84"/>
<polygon fill="midnightblue" stroke="midnightblue" points="711.314,-261.159 703.921,-253.571 704.968,-264.114 711.314,-261.159"/>
</g>
<!-- Node17&#45;&gt;Node7 -->
<g id="edge42" class="edge"><title>Node17&#45;&gt;Node7</title>
<path fill="none" stroke="midnightblue" d="M863.665,-232.442C823.462,-215.206 743.237,-178.822 681,-138 657.516,-122.597 633.081,-101.579 616.858,-86.8008"/>
<polygon fill="midnightblue" stroke="midnightblue" points="618.893,-83.916 609.171,-79.7041 614.144,-89.0592 618.893,-83.916"/>
</g>
<!-- Node17&#45;&gt;Node8 -->
<g id="edge78" class="edge"><title>Node17&#45;&gt;Node8</title>
<path fill="none" stroke="midnightblue" d="M954.251,-236.263C1066.92,-224.537 1287.56,-201.135 1304,-196 1356.01,-179.753 1384.04,-184.76 1412,-138 1444.46,-83.7179 1358.58,-69.8557 1328,-58 1271.19,-35.9758 1089.93,-19.494 1015.43,-13.4825"/>
<polygon fill="midnightblue" stroke="midnightblue" points="1015.49,-9.97612 1005.25,-12.6721 1014.94,-16.9541 1015.49,-9.97612"/>
</g>
<!-- Node17&#45;&gt;Node9 -->
<g id="edge74" class="edge"><title>Node17&#45;&gt;Node9</title>
<path fill="none" stroke="midnightblue" d="M823.815,-238.256C796.394,-236.283 764.149,-233.993 735,-232 673.79,-227.814 230.286,-236.271 184,-196 137.144,-155.234 120.503,-104.21 162,-58 188.533,-28.4526 461.439,-15.8484 561.49,-12.1965"/>
<polygon fill="midnightblue" stroke="midnightblue" points="561.849,-15.686 571.718,-11.8326 561.6,-8.69046 561.849,-15.686"/>
</g>
<!-- Node17&#45;&gt;Node10 -->
<g id="edge44" class="edge"><title>Node17&#45;&gt;Node10</title>
<path fill="none" stroke="midnightblue" d="M846.322,-232.499C815.76,-224.294 773.996,-211.667 739,-196 707.346,-181.829 637.163,-128.974 605,-116 548.633,-93.2627 478.772,-80.0754 437.721,-73.7299"/>
<polygon fill="midnightblue" stroke="midnightblue" points="438.092,-70.2465 427.684,-72.2265 437.055,-77.1693 438.092,-70.2465"/>
</g>
<!-- Node18 -->
<g id="node41" class="node"><title>Node18</title>
<a xlink:href="_detector__t_8h.html" target="_top" xlink:title="base/Detector_t.h">
<polygon fill="white" stroke="black" points="1065.5,-116.5 1065.5,-137.5 1160.5,-137.5 1160.5,-116.5 1065.5,-116.5"/>
<text text-anchor="middle" x="1113" y="-124.5" font-family="Helvetica,sans-Serif" font-size="10.00">base/Detector_t.h</text>
</a>
</g>
<!-- Node17&#45;&gt;Node18 -->
<g id="edge46" class="edge"><title>Node17&#45;&gt;Node18</title>
<path fill="none" stroke="midnightblue" d="M935.978,-232.487C964.841,-224.855 1001.92,-212.887 1032,-196 1056.55,-182.215 1080.58,-160.383 1096.01,-144.974"/>
<polygon fill="midnightblue" stroke="midnightblue" points="1098.76,-147.173 1103.25,-137.579 1093.75,-142.277 1098.76,-147.173"/>
</g>
<!-- Node19 -->
<g id="node44" class="node"><title>Node19</title>
<polygon fill="white" stroke="#bfbfbf" points="1193.5,-58.5 1193.5,-79.5 1258.5,-79.5 1258.5,-58.5 1193.5,-58.5"/>
<text text-anchor="middle" x="1226" y="-66.5" font-family="Helvetica,sans-Serif" font-size="10.00">TVector3.h</text>
</g>
<!-- Node17&#45;&gt;Node19 -->
<g id="edge72" class="edge"><title>Node17&#45;&gt;Node19</title>
<path fill="none" stroke="midnightblue" d="M954.121,-235.428C1037.1,-225.516 1175.8,-207.997 1226,-196 1303.24,-177.542 1348.85,-202.627 1395,-138 1428.51,-91.067 1328.99,-75.9925 1268.63,-71.1988"/>
<polygon fill="midnightblue" stroke="midnightblue" points="1268.81,-67.7027 1258.58,-70.4659 1268.3,-74.6841 1268.81,-67.7027"/>
</g>
<!-- Node23 -->
<g id="node54" class="node"><title>Node23</title>
<a xlink:href="_cluster_8h.html" target="_top" xlink:title="analysis/data/Cluster.h">
<polygon fill="white" stroke="black" points="906.5,-174.5 906.5,-195.5 1023.5,-195.5 1023.5,-174.5 906.5,-174.5"/>
<text text-anchor="middle" x="965" y="-182.5" font-family="Helvetica,sans-Serif" font-size="10.00">analysis/data/Cluster.h</text>
</a>
</g>
<!-- Node17&#45;&gt;Node23 -->
<g id="edge62" class="edge"><title>Node17&#45;&gt;Node23</title>
<path fill="none" stroke="midnightblue" d="M902.94,-232.362C914.188,-223.777 930.216,-211.546 943.165,-201.664"/>
<polygon fill="midnightblue" stroke="midnightblue" points="945.323,-204.42 951.149,-195.571 941.076,-198.855 945.323,-204.42"/>
</g>
<!-- Node17&#45;&gt;Node25 -->
<g id="edge76" class="edge"><title>Node17&#45;&gt;Node25</title>
<path fill="none" stroke="midnightblue" d="M887.8,-232.295C885.653,-213.131 881.116,-172.654 878.336,-147.843"/>
<polygon fill="midnightblue" stroke="midnightblue" points="881.789,-147.227 877.197,-137.679 874.832,-148.007 881.789,-147.227"/>
</g>
<!-- Node18&#45;&gt;Node6 -->
<g id="edge54" class="edge"><title>Node18&#45;&gt;Node6</title>
<path fill="none" stroke="midnightblue" d="M1065.37,-121.209C980.567,-110.844 807.864,-89.4636 753.692,-79.9692"/>
<polygon fill="midnightblue" stroke="midnightblue" points="754.241,-76.511 743.763,-78.0803 752.933,-83.3877 754.241,-76.511"/>
</g>
<!-- Node18&#45;&gt;Node7 -->
<g id="edge48" class="edge"><title>Node18&#45;&gt;Node7</title>
<path fill="none" stroke="midnightblue" d="M1065.19,-121.294C1050.39,-119.557 1034.02,-117.667 1019,-116 866.654,-99.0919 828.136,-98.7054 676,-80 664.032,-78.5285 651.055,-76.7658 639.184,-75.0869"/>
<polygon fill="midnightblue" stroke="midnightblue" points="639.485,-71.5944 629.09,-73.6427 638.494,-78.5238 639.485,-71.5944"/>
</g>
<!-- Node18&#45;&gt;Node8 -->
<g id="edge60" class="edge"><title>Node18&#45;&gt;Node8</title>
<path fill="none" stroke="midnightblue" d="M1112.84,-116.32C1112.07,-101.496 1108.57,-74.6349 1094,-58 1073.73,-34.8618 1040.14,-22.7992 1015.21,-16.7218"/>
<polygon fill="midnightblue" stroke="midnightblue" points="1015.64,-13.2324 1005.12,-14.4689 1014.11,-20.0641 1015.64,-13.2324"/>
</g>
<!-- Node18&#45;&gt;Node19 -->
<g id="edge50" class="edge"><title>Node18&#45;&gt;Node19</title>
<path fill="none" stroke="midnightblue" d="M1133.46,-116.497C1151.03,-107.479 1176.58,-94.3649 1196.39,-84.2006"/>
<polygon fill="midnightblue" stroke="midnightblue" points="1198.01,-87.3014 1205.31,-79.6212 1194.81,-81.0738 1198.01,-87.3014"/>
</g>
<!-- Node20 -->
<g id="node46" class="node"><title>Node20</title>
<polygon fill="white" stroke="#bfbfbf" points="959,-58.5 959,-79.5 1005,-79.5 1005,-58.5 959,-58.5"/>
<text text-anchor="middle" x="982" y="-66.5" font-family="Helvetica,sans-Serif" font-size="10.00">cstdint</text>
</g>
<!-- Node18&#45;&gt;Node20 -->
<g id="edge52" class="edge"><title>Node18&#45;&gt;Node20</title>
<path fill="none" stroke="midnightblue" d="M1089.28,-116.497C1068.37,-107.242 1037.73,-93.6738 1014.54,-83.4065"/>
<polygon fill="midnightblue" stroke="midnightblue" points="1015.67,-80.0787 1005.11,-79.2305 1012.83,-86.4794 1015.67,-80.0787"/>
</g>
<!-- Node21 -->
<g id="node49" class="node"><title>Node21</title>
<polygon fill="white" stroke="#bfbfbf" points="891.5,-58.5 891.5,-79.5 932.5,-79.5 932.5,-58.5 891.5,-58.5"/>
<text text-anchor="middle" x="912" y="-66.5" font-family="Helvetica,sans-Serif" font-size="10.00">string</text>
</g>
<!-- Node18&#45;&gt;Node21 -->
<g id="edge56" class="edge"><title>Node18&#45;&gt;Node21</title>
<path fill="none" stroke="midnightblue" d="M1076.42,-116.464C1043.38,-106.946 993.432,-92.5478 950,-80 947.517,-79.2828 944.944,-78.5387 942.359,-77.7913"/>
<polygon fill="midnightblue" stroke="midnightblue" points="943.088,-74.3586 932.509,-74.9411 941.142,-81.0827 943.088,-74.3586"/>
</g>
<!-- Node22 -->
<g id="node51" class="node"><title>Node22</title>
<polygon fill="white" stroke="#bfbfbf" points="1023,-58.5 1023,-79.5 1085,-79.5 1085,-58.5 1023,-58.5"/>
<text text-anchor="middle" x="1054" y="-66.5" font-family="Helvetica,sans-Serif" font-size="10.00">type_traits</text>
</g>
<!-- Node18&#45;&gt;Node22 -->
<g id="edge58" class="edge"><title>Node18&#45;&gt;Node22</title>
<path fill="none" stroke="midnightblue" d="M1102.18,-116.362C1093.78,-108.104 1081.95,-96.4725 1072.11,-86.8029"/>
<polygon fill="midnightblue" stroke="midnightblue" points="1074.34,-84.0851 1064.75,-79.5707 1069.43,-89.077 1074.34,-84.0851"/>
</g>
<!-- Node23&#45;&gt;Node14 -->
<g id="edge66" class="edge"><title>Node23&#45;&gt;Node14</title>
<path fill="none" stroke="midnightblue" d="M906.414,-176.128C821.192,-163.222 666.673,-139.823 606.713,-130.742"/>
<polygon fill="midnightblue" stroke="midnightblue" points="607.067,-127.256 596.655,-129.219 606.019,-134.177 607.067,-127.256"/>
</g>
<!-- Node23&#45;&gt;Node18 -->
<g id="edge64" class="edge"><title>Node23&#45;&gt;Node18</title>
<path fill="none" stroke="midnightblue" d="M991.802,-174.497C1015.44,-165.234 1050.1,-151.65 1076.31,-141.379"/>
<polygon fill="midnightblue" stroke="midnightblue" points="1077.86,-144.529 1085.9,-137.621 1075.31,-138.011 1077.86,-144.529"/>
</g>
<!-- Node23&#45;&gt;Node19 -->
<g id="edge68" class="edge"><title>Node23&#45;&gt;Node19</title>
<path fill="none" stroke="midnightblue" d="M1023.52,-175.823C1074.86,-167.002 1144.96,-152.852 1169,-138 1188.7,-125.827 1204.79,-104.436 1214.79,-88.689"/>
<polygon fill="midnightblue" stroke="midnightblue" points="1218.02,-90.113 1220.2,-79.7465 1212.03,-86.4862 1218.02,-90.113"/>
</g>
<!-- Node24 -->
<g id="node59" class="node"><title>Node24</title>
<a xlink:href="enumfield_8h.html" target="_top" xlink:title="base/enumfield.h">
<polygon fill="white" stroke="black" points="919.5,-116.5 919.5,-137.5 1010.5,-137.5 1010.5,-116.5 919.5,-116.5"/>
<text text-anchor="middle" x="965" y="-124.5" font-family="Helvetica,sans-Serif" font-size="10.00">base/enumfield.h</text>
</a>
</g>
<!-- Node23&#45;&gt;Node24 -->
<g id="edge70" class="edge"><title>Node23&#45;&gt;Node24</title>
<path fill="none" stroke="midnightblue" d="M965,-174.362C965,-166.922 965,-156.743 965,-147.728"/>
<polygon fill="midnightblue" stroke="midnightblue" points="968.5,-147.571 965,-137.571 961.5,-147.571 968.5,-147.571"/>
</g>
<!-- Node26&#45;&gt;Node8 -->
<g id="edge96" class="edge"><title>Node26&#45;&gt;Node8</title>
<path fill="none" stroke="midnightblue" d="M763.448,-116.374C791.043,-102.733 840.489,-78.39 883,-58 905.891,-47.0206 931.839,-34.8322 951.567,-25.6191"/>
<polygon fill="midnightblue" stroke="midnightblue" points="953.128,-28.7531 960.711,-21.3537 950.169,-22.4093 953.128,-28.7531"/>
</g>
<!-- Node26&#45;&gt;Node9 -->
<g id="edge90" class="edge"><title>Node26&#45;&gt;Node9</title>
<path fill="none" stroke="midnightblue" d="M726.191,-116.436C712.603,-107.193 692.629,-93.2158 676,-80 655.028,-63.3322 632.202,-42.8436 616.695,-28.5409"/>
<polygon fill="midnightblue" stroke="midnightblue" points="619.012,-25.9159 609.301,-21.6783 614.25,-31.0465 619.012,-25.9159"/>
</g>
<!-- Node26&#45;&gt;Node10 -->
<g id="edge86" class="edge"><title>Node26&#45;&gt;Node10</title>
<path fill="none" stroke="midnightblue" d="M689.774,-118.065C619.866,-106.104 497.756,-85.212 437.98,-74.9847"/>
<polygon fill="midnightblue" stroke="midnightblue" points="438.358,-71.4987 427.911,-73.2621 437.178,-78.3985 438.358,-71.4987"/>
</g>
<!-- Node26&#45;&gt;Node21 -->
<g id="edge88" class="edge"><title>Node26&#45;&gt;Node21</title>
<path fill="none" stroke="midnightblue" d="M772.786,-116.497C803.561,-105.997 850.61,-89.945 881.34,-79.4603"/>
<polygon fill="midnightblue" stroke="midnightblue" points="882.755,-82.6758 891.089,-76.1342 880.495,-76.0507 882.755,-82.6758"/>
</g>
<!-- Node27 -->
<g id="node73" class="node"><title>Node27</title>
<polygon fill="white" stroke="#bfbfbf" points="1141.5,-58.5 1141.5,-79.5 1176.5,-79.5 1176.5,-58.5 1141.5,-58.5"/>
<text text-anchor="middle" x="1159" y="-66.5" font-family="Helvetica,sans-Serif" font-size="10.00">map</text>
</g>
<!-- Node26&#45;&gt;Node27 -->
<g id="edge92" class="edge"><title>Node26&#45;&gt;Node27</title>
<path fill="none" stroke="midnightblue" d="M794.265,-120.6C863.076,-112.042 987.778,-96.0745 1094,-80 1106.3,-78.1382 1119.88,-75.8738 1131.43,-73.8846"/>
<polygon fill="midnightblue" stroke="midnightblue" points="1132.12,-77.3172 1141.37,-72.1546 1130.92,-70.4209 1132.12,-77.3172"/>
</g>
<!-- Node28 -->
<g id="node75" class="node"><title>Node28</title>
<polygon fill="white" stroke="#bfbfbf" points="760.5,-58.5 760.5,-79.5 807.5,-79.5 807.5,-58.5 760.5,-58.5"/>
<text text-anchor="middle" x="784" y="-66.5" font-family="Helvetica,sans-Serif" font-size="10.00">iterator</text>
</g>
<!-- Node26&#45;&gt;Node28 -->
<g id="edge94" class="edge"><title>Node26&#45;&gt;Node28</title>
<path fill="none" stroke="midnightblue" d="M749.703,-116.362C755.446,-108.431 763.443,-97.3885 770.27,-87.9606"/>
<polygon fill="midnightblue" stroke="midnightblue" points="773.315,-89.7229 776.345,-79.5707 767.645,-85.6173 773.315,-89.7229"/>
</g>
<!-- Node29&#45;&gt;Node5 -->
<g id="edge104" class="edge"><title>Node29&#45;&gt;Node5</title>
<path fill="none" stroke="midnightblue" d="M563.434,-174.3C537.541,-159.694 488.827,-133.352 445,-116 404.67,-100.032 356.727,-86.5777 324.107,-78.2103"/>
<polygon fill="midnightblue" stroke="midnightblue" points="324.637,-74.7342 314.084,-75.6757 322.921,-81.5206 324.637,-74.7342"/>
</g>
<!-- Node29&#45;&gt;Node14 -->
<g id="edge102" class="edge"><title>Node29&#45;&gt;Node14</title>
<path fill="none" stroke="midnightblue" d="M582,-174.362C582,-166.922 582,-156.743 582,-147.728"/>
<polygon fill="midnightblue" stroke="midnightblue" points="585.5,-147.571 582,-137.571 578.5,-147.571 585.5,-147.571"/>
</g>
<!-- Node29&#45;&gt;Node25 -->
<g id="edge100" class="edge"><title>Node29&#45;&gt;Node25</title>
<path fill="none" stroke="midnightblue" d="M616.29,-179.61C665.272,-171.695 757.98,-155.912 836,-138 837.264,-137.71 838.547,-137.406 839.842,-137.092"/>
<polygon fill="midnightblue" stroke="midnightblue" points="841.008,-140.407 849.831,-134.541 839.276,-133.625 841.008,-140.407"/>
</g>
<!-- Node31&#45;&gt;Node8 -->
<g id="edge122" class="edge"><title>Node31&#45;&gt;Node8</title>
<path fill="none" stroke="midnightblue" d="M1217.42,-182.084C1275.32,-177.188 1373.09,-165.056 1395,-138 1401.15,-130.401 1400.3,-124.218 1395,-116 1353.2,-51.1696 1105.04,-22.2099 1015.33,-13.7621"/>
<polygon fill="midnightblue" stroke="midnightblue" points="1015.48,-10.261 1005.2,-12.8325 1014.84,-17.2317 1015.48,-10.261"/>
</g>
<!-- Node31&#45;&gt;Node14 -->
<g id="edge120" class="edge"><title>Node31&#45;&gt;Node14</title>
<path fill="none" stroke="midnightblue" d="M1130.78,-181.109C1045,-173.333 847.13,-155.147 681,-138 655.745,-135.393 626.897,-132.159 606.883,-129.874"/>
<polygon fill="midnightblue" stroke="midnightblue" points="607.086,-126.374 596.752,-128.712 606.288,-133.328 607.086,-126.374"/>
</g>
<!-- Node31&#45;&gt;Node21 -->
<g id="edge118" class="edge"><title>Node31&#45;&gt;Node21</title>
<path fill="none" stroke="midnightblue" d="M1144.16,-174.36C1120.21,-165.5 1085.93,-152.095 1057,-138 1039.46,-129.452 1036.4,-124.827 1019,-116 993.579,-103.108 963.835,-90.2115 942.169,-81.1979"/>
<polygon fill="midnightblue" stroke="midnightblue" points="943.407,-77.9223 932.828,-77.3437 940.737,-84.3932 943.407,-77.9223"/>
</g>
<!-- Node31&#45;&gt;Node25 -->
<g id="edge126" class="edge"><title>Node31&#45;&gt;Node25</title>
<path fill="none" stroke="midnightblue" d="M1130.83,-179.015C1080.42,-171.646 994.443,-157.894 912.04,-138.039"/>
<polygon fill="midnightblue" stroke="midnightblue" points="912.817,-134.626 902.272,-135.652 911.155,-141.426 912.817,-134.626"/>
</g>
<!-- Node31&#45;&gt;Node27 -->
<g id="edge124" class="edge"><title>Node31&#45;&gt;Node27</title>
<path fill="none" stroke="midnightblue" d="M1173.68,-174.195C1173.16,-160.57 1171.9,-136.453 1169,-116 1167.76,-107.271 1165.84,-97.7384 1164.01,-89.554"/>
<polygon fill="midnightblue" stroke="midnightblue" points="1167.41,-88.6965 1161.73,-79.7521 1160.59,-90.2856 1167.41,-88.6965"/>
</g>
<!-- Node32 -->
<g id="node96" class="node"><title>Node32</title>
<polygon fill="white" stroke="#bfbfbf" points="1253.5,-116.5 1253.5,-137.5 1312.5,-137.5 1312.5,-116.5 1253.5,-116.5"/>
<text text-anchor="middle" x="1283" y="-124.5" font-family="Helvetica,sans-Serif" font-size="10.00">functional</text>
</g>
<!-- Node31&#45;&gt;Node32 -->
<g id="edge128" class="edge"><title>Node31&#45;&gt;Node32</title>
<path fill="none" stroke="midnightblue" d="M1193.74,-174.497C1210.61,-165.519 1235.11,-152.484 1254.17,-142.339"/>
<polygon fill="midnightblue" stroke="midnightblue" points="1255.86,-145.409 1263.04,-137.621 1252.57,-139.229 1255.86,-145.409"/>
</g>
<!-- Node33 -->
<g id="node98" class="node"><title>Node33</title>
<polygon fill="white" stroke="#bfbfbf" points="1330,-116.5 1330,-137.5 1386,-137.5 1386,-116.5 1330,-116.5"/>
<text text-anchor="middle" x="1358" y="-124.5" font-family="Helvetica,sans-Serif" font-size="10.00">Rtypes.h</text>
</g>
<!-- Node31&#45;&gt;Node33 -->
<g id="edge130" class="edge"><title>Node31&#45;&gt;Node33</title>
<path fill="none" stroke="midnightblue" d="M1207.32,-174.497C1239.04,-164.497 1286.74,-149.462 1319.94,-138.996"/>
<polygon fill="midnightblue" stroke="midnightblue" points="1321.26,-142.25 1329.75,-135.905 1319.16,-135.574 1321.26,-142.25"/>
</g>
<!-- Node34&#45;&gt;Node4 -->
<g id="edge140" class="edge"><title>Node34&#45;&gt;Node4</title>
<path fill="none" stroke="midnightblue" d="M400.647,-174.497C378.387,-165.275 345.788,-151.769 321.037,-141.515"/>
<polygon fill="midnightblue" stroke="midnightblue" points="322.216,-138.215 311.637,-137.621 319.536,-144.682 322.216,-138.215"/>
</g>
<!-- Node34&#45;&gt;Node8 -->
<g id="edge136" class="edge"><title>Node34&#45;&gt;Node8</title>
<path fill="none" stroke="midnightblue" d="M433.114,-174.445C450.793,-149.198 499.541,-85.3871 558,-58 627.856,-25.2738 864.4,-14.7075 950.942,-11.8899"/>
<polygon fill="midnightblue" stroke="midnightblue" points="951.079,-15.3874 960.965,-11.5767 950.861,-8.39079 951.079,-15.3874"/>
</g>
<!-- Node34&#45;&gt;Node21 -->
<g id="edge138" class="edge"><title>Node34&#45;&gt;Node21</title>
<path fill="none" stroke="midnightblue" d="M470.553,-180.552C563.55,-171.108 772.266,-149.017 803,-138 812.076,-134.747 858.254,-104.654 887.519,-85.2987"/>
<polygon fill="midnightblue" stroke="midnightblue" points="889.596,-88.1205 895.998,-79.6781 885.729,-82.2859 889.596,-88.1205"/>
</g>
<!-- Node35 -->
<g id="node102" class="node"><title>Node35</title>
<polygon fill="white" stroke="#bfbfbf" points="382,-116.5 382,-137.5 436,-137.5 436,-116.5 382,-116.5"/>
<text text-anchor="middle" x="409" y="-124.5" font-family="Helvetica,sans-Serif" font-size="10.00">TColor.h</text>
</g>
<!-- Node34&#45;&gt;Node35 -->
<g id="edge134" class="edge"><title>Node34&#45;&gt;Node35</title>
<path fill="none" stroke="midnightblue" d="M422.882,-174.362C420.677,-166.84 417.652,-156.519 414.988,-147.431"/>
<polygon fill="midnightblue" stroke="midnightblue" points="418.27,-146.182 412.098,-137.571 411.552,-148.151 418.27,-146.182"/>
</g>
</g>
</svg>
