<?xml version="1.0" encoding="UTF-8" standalone="no"?>
<!DOCTYPE svg PUBLIC "-//W3C//DTD SVG 1.1//EN"
 "http://www.w3.org/Graphics/SVG/1.1/DTD/svg11.dtd">
<!-- Generated by graphviz version 2.26.3 (20100126.1600)
 -->
<!-- Title: src/reconstruct/Reconstruct.h Pages: 1 -->
<svg width="932pt" height="102pt"
 viewBox="0.00 0.00 932.00 102.00" xmlns="http://www.w3.org/2000/svg" xmlns:xlink="http://www.w3.org/1999/xlink">
<g id="graph1" class="graph" transform="scale(1 1) rotate(0) translate(4 98)">
<title>src/reconstruct/Reconstruct.h</title>
<polygon fill="white" stroke="white" points="-4,5 -4,-98 929,-98 929,5 -4,5"/>
<!-- Node1 -->
<g id="node1" class="node"><title>Node1</title>
<polygon fill="#bfbfbf" stroke="black" points="344,-72.5 344,-93.5 490,-93.5 490,-72.5 344,-72.5"/>
<text text-anchor="middle" x="417" y="-80.5" font-family="Helvetica,sans-Serif" font-size="10.00">src/reconstruct/Reconstruct.h</text>
</g>
<!-- Node2 -->
<g id="node3" class="node"><title>Node2</title>
<a xlink:href="_ant_8cc.html" target="_top" xlink:title="Main Ant executable. ">
<polygon fill="white" stroke="black" points="0,-7.5 0,-28.5 72,-28.5 72,-7.5 0,-7.5"/>
<text text-anchor="middle" x="36" y="-15.5" font-family="Helvetica,sans-Serif" font-size="10.00">progs/Ant.cc</text>
</a>
</g>
<!-- Node1&#45;&gt;Node2 -->
<g id="edge2" class="edge"><title>Node1&#45;&gt;Node2</title>
<path fill="none" stroke="midnightblue" d="M333.571,-76.9662C264.899,-70.6626 165.468,-58.4469 81,-36 73.8438,-34.0983 66.2901,-31.377 59.4578,-28.6244"/>
<polygon fill="midnightblue" stroke="midnightblue" points="333.625,-80.4849 343.897,-77.8908 334.249,-73.5128 333.625,-80.4849"/>
</g>
<!-- Node3 -->
<g id="node5" class="node"><title>Node3</title>
<a xlink:href="_reconstruct_8cc.html" target="_top" xlink:title="src/reconstruct/Reconstruct.cc">
<polygon fill="white" stroke="black" points="90,-7.5 90,-28.5 242,-28.5 242,-7.5 90,-7.5"/>
<text text-anchor="middle" x="166" y="-15.5" font-family="Helvetica,sans-Serif" font-size="10.00">src/reconstruct/Reconstruct.cc</text>
</a>
</g>
<!-- Node1&#45;&gt;Node3 -->
<g id="edge4" class="edge"><title>Node1&#45;&gt;Node3</title>
<path fill="none" stroke="midnightblue" d="M366.704,-69.9752C319.626,-57.7835 250.178,-39.799 206.548,-28.5005"/>
<polygon fill="midnightblue" stroke="midnightblue" points="365.835,-73.3656 376.394,-72.4844 367.59,-66.5891 365.835,-73.3656"/>
</g>
<!-- Node4 -->
<g id="node7" class="node"><title>Node4</title>
<a xlink:href="_test_ant_reader_8cc.html" target="_top" xlink:title="test/analysis/TestAntReader.cc">
<polygon fill="white" stroke="black" points="259.5,-7.5 259.5,-28.5 414.5,-28.5 414.5,-7.5 259.5,-7.5"/>
<text text-anchor="middle" x="337" y="-15.5" font-family="Helvetica,sans-Serif" font-size="10.00">test/analysis/TestAntReader.cc</text>
</a>
</g>
<!-- Node1&#45;&gt;Node4 -->
<g id="edge6" class="edge"><title>Node1&#45;&gt;Node4</title>
<path fill="none" stroke="midnightblue" d="M395.79,-65.7667C381.219,-53.9281 362.344,-38.5923 349.965,-28.5337"/>
<polygon fill="midnightblue" stroke="midnightblue" points="393.821,-68.677 403.79,-72.2666 398.236,-63.2442 393.821,-68.677"/>
</g>
<!-- Node5 -->
<g id="node9" class="node"><title>Node5</title>
<a xlink:href="_test_physics_manager_8cc.html" target="_top" xlink:title="test/analysis/TestPhysics\lManager.cc">
<polygon fill="white" stroke="black" points="432,-1 432,-35 562,-35 562,-1 432,-1"/>
<text text-anchor="start" x="440" y="-22" font-family="Helvetica,sans-Serif" font-size="10.00">test/analysis/TestPhysics</text>
<text text-anchor="middle" x="497" y="-9" font-family="Helvetica,sans-Serif" font-size="10.00">Manager.cc</text>
</a>
</g>
<!-- Node1&#45;&gt;Node5 -->
<g id="edge8" class="edge"><title>Node1&#45;&gt;Node5</title>
<path fill="none" stroke="midnightblue" d="M438.142,-65.8219C449.82,-56.334 464.278,-44.5869 475.942,-35.1099"/>
<polygon fill="midnightblue" stroke="midnightblue" points="435.764,-63.2442 430.21,-72.2666 440.179,-68.677 435.764,-63.2442"/>
</g>
<!-- Node6 -->
<g id="node11" class="node"><title>Node6</title>
<a xlink:href="_test_candidate_builder_8cc.html" target="_top" xlink:title="test/reconstruct/TestCandidate\lBuilder.cc">
<polygon fill="white" stroke="black" points="580,-1 580,-35 732,-35 732,-1 580,-1"/>
<text text-anchor="start" x="588" y="-22" font-family="Helvetica,sans-Serif" font-size="10.00">test/reconstruct/TestCandidate</text>
<text text-anchor="middle" x="656" y="-9" font-family="Helvetica,sans-Serif" font-size="10.00">Builder.cc</text>
</a>
</g>
<!-- Node1&#45;&gt;Node6 -->
<g id="edge10" class="edge"><title>Node1&#45;&gt;Node6</title>
<path fill="none" stroke="midnightblue" d="M465.649,-69.769C502.441,-59.763 553.256,-45.943 593.129,-35.0987"/>
<polygon fill="midnightblue" stroke="midnightblue" points="464.396,-66.4826 455.665,-72.4844 466.233,-73.2373 464.396,-66.4826"/>
</g>
<!-- Node7 -->
<g id="node13" class="node"><title>Node7</title>
<a xlink:href="_test_reconstruct_8cc.html" target="_top" xlink:title="test/reconstruct/TestReconstruct.cc">
<polygon fill="white" stroke="black" points="750,-7.5 750,-28.5 924,-28.5 924,-7.5 750,-7.5"/>
<text text-anchor="middle" x="837" y="-15.5" font-family="Helvetica,sans-Serif" font-size="10.00">test/reconstruct/TestReconstruct.cc</text>
</a>
</g>
<!-- Node1&#45;&gt;Node7 -->
<g id="edge12" class="edge"><title>Node1&#45;&gt;Node7</title>
<path fill="none" stroke="midnightblue" d="M500.429,-71.8623C565.951,-62.8822 659.437,-49.5565 741,-36 754.633,-33.7341 769.315,-31.0866 782.997,-28.5301"/>
<polygon fill="midnightblue" stroke="midnightblue" points="499.593,-68.4439 490.159,-73.2656 500.541,-75.3794 499.593,-68.4439"/>
</g>
</g>
</svg>
