<?xml version="1.0" encoding="UTF-8" standalone="no"?>
<!DOCTYPE svg PUBLIC "-//W3C//DTD SVG 1.1//EN"
 "http://www.w3.org/Graphics/SVG/1.1/DTD/svg11.dtd">
<!-- Generated by graphviz version 2.26.3 (20100126.1600)
 -->
<!-- Title: src/expconfig/setups/SetupRegistry.h Pages: 1 -->
<svg width="234pt" height="102pt"
 viewBox="0.00 0.00 234.00 102.00" xmlns="http://www.w3.org/2000/svg" xmlns:xlink="http://www.w3.org/1999/xlink">
<g id="graph1" class="graph" transform="scale(1 1) rotate(0) translate(4 98)">
<title>src/expconfig/setups/SetupRegistry.h</title>
<polygon fill="white" stroke="white" points="-4,5 -4,-98 231,-98 231,5 -4,5"/>
<!-- Node1 -->
<g id="node1" class="node"><title>Node1</title>
<polygon fill="#bfbfbf" stroke="black" points="41.5,-59 41.5,-93 148.5,-93 148.5,-59 41.5,-59"/>
<text text-anchor="start" x="49.5" y="-80" font-family="Helvetica,sans-Serif" font-size="10.00">src/expconfig/setups</text>
<text text-anchor="middle" x="95" y="-67" font-family="Helvetica,sans-Serif" font-size="10.00">/SetupRegistry.h</text>
</g>
<!-- Node2 -->
<g id="node3" class="node"><title>Node2</title>
<polygon fill="white" stroke="#bfbfbf" points="-0.5,-0.5 -0.5,-21.5 34.5,-21.5 34.5,-0.5 -0.5,-0.5"/>
<text text-anchor="middle" x="17" y="-8.5" font-family="Helvetica,sans-Serif" font-size="10.00">map</text>
</g>
<!-- Node1&#45;&gt;Node2 -->
<g id="edge2" class="edge"><title>Node1&#45;&gt;Node2</title>
<path fill="none" stroke="midnightblue" d="M74.5064,-58.922C63.1743,-49.4785 49.1283,-37.7736 37.7548,-28.2957"/>
<polygon fill="midnightblue" stroke="midnightblue" points="39.9454,-25.5652 30.0225,-21.8521 35.4641,-30.9428 39.9454,-25.5652"/>
</g>
<!-- Node3 -->
<g id="node5" class="node"><title>Node3</title>
<polygon fill="white" stroke="#bfbfbf" points="51.5,-0.5 51.5,-21.5 80.5,-21.5 80.5,-0.5 51.5,-0.5"/>
<text text-anchor="middle" x="66" y="-8.5" font-family="Helvetica,sans-Serif" font-size="10.00">list</text>
</g>
<!-- Node1&#45;&gt;Node3 -->
<g id="edge4" class="edge"><title>Node1&#45;&gt;Node3</title>
<path fill="none" stroke="midnightblue" d="M87.3806,-58.922C83.5764,-50.3954 78.9496,-40.0251 74.9744,-31.1151"/>
<polygon fill="midnightblue" stroke="midnightblue" points="78.1125,-29.5583 70.8417,-21.8521 71.7199,-32.4105 78.1125,-29.5583"/>
</g>
<!-- Node4 -->
<g id="node7" class="node"><title>Node4</title>
<polygon fill="white" stroke="#bfbfbf" points="98,-0.5 98,-21.5 150,-21.5 150,-0.5 98,-0.5"/>
<text text-anchor="middle" x="124" y="-8.5" font-family="Helvetica,sans-Serif" font-size="10.00">memory</text>
</g>
<!-- Node1&#45;&gt;Node4 -->
<g id="edge6" class="edge"><title>Node1&#45;&gt;Node4</title>
<path fill="none" stroke="midnightblue" d="M102.619,-58.922C106.424,-50.3954 111.05,-40.0251 115.026,-31.1151"/>
<polygon fill="midnightblue" stroke="midnightblue" points="118.28,-32.4105 119.158,-21.8521 111.888,-29.5583 118.28,-32.4105"/>
</g>
<!-- Node5 -->
<g id="node9" class="node"><title>Node5</title>
<polygon fill="white" stroke="#bfbfbf" points="167.5,-0.5 167.5,-21.5 226.5,-21.5 226.5,-0.5 167.5,-0.5"/>
<text text-anchor="middle" x="197" y="-8.5" font-family="Helvetica,sans-Serif" font-size="10.00">functional</text>
</g>
<!-- Node1&#45;&gt;Node5 -->
<g id="edge8" class="edge"><title>Node1&#45;&gt;Node5</title>
<path fill="none" stroke="midnightblue" d="M121.799,-58.922C137.148,-49.1412 156.303,-36.9344 171.439,-27.2887"/>
<polygon fill="midnightblue" stroke="midnightblue" points="173.722,-29.9841 180.275,-21.6584 169.96,-24.0809 173.722,-29.9841"/>
</g>
</g>
</svg>
