<?xml version="1.0" encoding="UTF-8" standalone="no"?>
<!DOCTYPE svg PUBLIC "-//W3C//DTD SVG 1.1//EN"
 "http://www.w3.org/Graphics/SVG/1.1/DTD/svg11.dtd">
<!-- Generated by graphviz version 2.26.3 (20100126.1600)
 -->
<!-- Title: src/expconfig/setups/SetupRegistry.h Pages: 1 -->
<svg width="640pt" height="260pt"
 viewBox="0.00 0.00 640.00 260.00" xmlns="http://www.w3.org/2000/svg" xmlns:xlink="http://www.w3.org/1999/xlink">
<g id="graph1" class="graph" transform="scale(1 1) rotate(0) translate(4 256)">
<title>src/expconfig/setups/SetupRegistry.h</title>
<polygon fill="white" stroke="white" points="-4,5 -4,-256 637,-256 637,5 -4,5"/>
<!-- Node1 -->
<g id="node1" class="node"><title>Node1</title>
<polygon fill="#bfbfbf" stroke="black" points="319.5,-217 319.5,-251 426.5,-251 426.5,-217 319.5,-217"/>
<text text-anchor="start" x="327.5" y="-238" font-family="Helvetica,sans-Serif" font-size="10.00">src/expconfig/setups</text>
<text text-anchor="middle" x="373" y="-225" font-family="Helvetica,sans-Serif" font-size="10.00">/SetupRegistry.h</text>
</g>
<!-- Node2 -->
<g id="node3" class="node"><title>Node2</title>
<a xlink:href="_ant_8cc.html" target="_top" xlink:title="Main Ant executable. ">
<polygon fill="white" stroke="black" points="230,-151.5 230,-172.5 302,-172.5 302,-151.5 230,-151.5"/>
<text text-anchor="middle" x="266" y="-159.5" font-family="Helvetica,sans-Serif" font-size="10.00">progs/Ant.cc</text>
</a>
</g>
<!-- Node1&#45;&gt;Node2 -->
<g id="edge2" class="edge"><title>Node1&#45;&gt;Node2</title>
<path fill="none" stroke="midnightblue" d="M339.156,-211.227C319.994,-198.332 296.924,-182.809 281.884,-172.688"/>
<polygon fill="midnightblue" stroke="midnightblue" points="337.392,-214.258 347.642,-216.937 341.3,-208.45 337.392,-214.258"/>
</g>
<!-- Node3 -->
<g id="node5" class="node"><title>Node3</title>
<a xlink:href="_setup_8h.html" target="_top" xlink:title="src/expconfig/setups\l/Setup.h">
<polygon fill="white" stroke="black" points="319.5,-145 319.5,-179 426.5,-179 426.5,-145 319.5,-145"/>
<text text-anchor="start" x="327.5" y="-166" font-family="Helvetica,sans-Serif" font-size="10.00">src/expconfig/setups</text>
<text text-anchor="middle" x="373" y="-153" font-family="Helvetica,sans-Serif" font-size="10.00">/Setup.h</text>
</a>
</g>
<!-- Node1&#45;&gt;Node3 -->
<g id="edge4" class="edge"><title>Node1&#45;&gt;Node3</title>
<path fill="none" stroke="midnightblue" d="M373,-206.719C373,-197.572 373,-187.625 373,-179.441"/>
<polygon fill="midnightblue" stroke="midnightblue" points="369.5,-206.937 373,-216.937 376.5,-206.937 369.5,-206.937"/>
</g>
<!-- Node12 -->
<g id="node23" class="node"><title>Node12</title>
<a xlink:href="_setup_registry_8cc.html" target="_top" xlink:title="src/expconfig/setups\l/SetupRegistry.cc">
<polygon fill="white" stroke="black" points="525.5,-73 525.5,-107 632.5,-107 632.5,-73 525.5,-73"/>
<text text-anchor="start" x="533.5" y="-94" font-family="Helvetica,sans-Serif" font-size="10.00">src/expconfig/setups</text>
<text text-anchor="middle" x="579" y="-81" font-family="Helvetica,sans-Serif" font-size="10.00">/SetupRegistry.cc</text>
</a>
</g>
<!-- Node1&#45;&gt;Node12 -->
<g id="edge24" class="edge"><title>Node1&#45;&gt;Node12</title>
<path fill="none" stroke="midnightblue" d="M405.822,-211.057C447.261,-182.089 517.597,-132.922 554.592,-107.062"/>
<polygon fill="midnightblue" stroke="midnightblue" points="403.631,-208.318 397.44,-216.916 407.641,-214.055 403.631,-208.318"/>
</g>
<!-- Node4 -->
<g id="node7" class="node"><title>Node4</title>
<a xlink:href="_exp_config_8cc.html" target="_top" xlink:title="src/expconfig/ExpConfig.cc">
<polygon fill="white" stroke="black" points="-0.5,-79.5 -0.5,-100.5 136.5,-100.5 136.5,-79.5 -0.5,-79.5"/>
<text text-anchor="middle" x="68" y="-87.5" font-family="Helvetica,sans-Serif" font-size="10.00">src/expconfig/ExpConfig.cc</text>
</a>
</g>
<!-- Node3&#45;&gt;Node4 -->
<g id="edge6" class="edge"><title>Node3&#45;&gt;Node4</title>
<path fill="none" stroke="midnightblue" d="M309.575,-143.713C236.154,-125.367 215.626,-123.912 145,-108 134.554,-105.646 123.325,-103.056 112.76,-100.592"/>
<polygon fill="midnightblue" stroke="midnightblue" points="308.741,-147.112 319.293,-146.162 310.452,-140.324 308.741,-147.112"/>
</g>
<!-- Node5 -->
<g id="node9" class="node"><title>Node5</title>
<a xlink:href="_setup_8cc.html" target="_top" xlink:title="src/expconfig/setups\l/Setup.cc">
<polygon fill="white" stroke="black" points="153.5,-73 153.5,-107 260.5,-107 260.5,-73 153.5,-73"/>
<text text-anchor="start" x="161.5" y="-94" font-family="Helvetica,sans-Serif" font-size="10.00">src/expconfig/setups</text>
<text text-anchor="middle" x="207" y="-81" font-family="Helvetica,sans-Serif" font-size="10.00">/Setup.cc</text>
</a>
</g>
<!-- Node3&#45;&gt;Node5 -->
<g id="edge8" class="edge"><title>Node3&#45;&gt;Node5</title>
<path fill="none" stroke="midnightblue" d="M324.408,-140.924C299.565,-130.149 269.725,-117.206 246.345,-107.065"/>
<polygon fill="midnightblue" stroke="midnightblue" points="323.093,-144.169 333.66,-144.937 325.879,-137.747 323.093,-144.169"/>
</g>
<!-- Node6 -->
<g id="node11" class="node"><title>Node6</title>
<a xlink:href="_setup__2014___e_p_t_8h.html" target="_top" xlink:title="src/expconfig/setups\l/Setup_2014_EPT.h">
<polygon fill="white" stroke="black" points="277.5,-73 277.5,-107 384.5,-107 384.5,-73 277.5,-73"/>
<text text-anchor="start" x="285.5" y="-94" font-family="Helvetica,sans-Serif" font-size="10.00">src/expconfig/setups</text>
<text text-anchor="middle" x="331" y="-81" font-family="Helvetica,sans-Serif" font-size="10.00">/Setup_2014_EPT.h</text>
</a>
</g>
<!-- Node3&#45;&gt;Node6 -->
<g id="edge10" class="edge"><title>Node3&#45;&gt;Node6</title>
<path fill="none" stroke="midnightblue" d="M357.952,-136.203C352.384,-126.658 346.208,-116.07 341.174,-107.441"/>
<polygon fill="midnightblue" stroke="midnightblue" points="354.985,-138.063 363.047,-144.937 361.031,-134.536 354.985,-138.063"/>
</g>
<!-- Node11 -->
<g id="node21" class="node"><title>Node11</title>
<a xlink:href="_setup___test_8cc.html" target="_top" xlink:title="src/expconfig/setups\l/Setup_Test.cc">
<polygon fill="white" stroke="black" points="401.5,-73 401.5,-107 508.5,-107 508.5,-73 401.5,-73"/>
<text text-anchor="start" x="409.5" y="-94" font-family="Helvetica,sans-Serif" font-size="10.00">src/expconfig/setups</text>
<text text-anchor="middle" x="455" y="-81" font-family="Helvetica,sans-Serif" font-size="10.00">/Setup_Test.cc</text>
</a>
</g>
<!-- Node3&#45;&gt;Node11 -->
<g id="edge20" class="edge"><title>Node3&#45;&gt;Node11</title>
<path fill="none" stroke="midnightblue" d="M400.104,-138.201C411.646,-128.067 424.855,-116.469 435.422,-107.19"/>
<polygon fill="midnightblue" stroke="midnightblue" points="397.638,-135.709 392.433,-144.937 402.257,-140.969 397.638,-135.709"/>
</g>
<!-- Node3&#45;&gt;Node12 -->
<g id="edge22" class="edge"><title>Node3&#45;&gt;Node12</title>
<path fill="none" stroke="midnightblue" d="M431.273,-141.633C462.495,-130.72 500.522,-117.429 530.175,-107.065"/>
<polygon fill="midnightblue" stroke="midnightblue" points="430.104,-138.334 421.819,-144.937 432.414,-144.942 430.104,-138.334"/>
</g>
<!-- Node7 -->
<g id="node13" class="node"><title>Node7</title>
<a xlink:href="_setup__2014__07___e_p_t___prod_8cc.html" target="_top" xlink:title="src/expconfig/setups\l/Setup_2014_07_EPT_Prod.cc">
<polygon fill="white" stroke="black" points="3.5,-1 3.5,-35 154.5,-35 154.5,-1 3.5,-1"/>
<text text-anchor="start" x="11.5" y="-22" font-family="Helvetica,sans-Serif" font-size="10.00">src/expconfig/setups</text>
<text text-anchor="middle" x="79" y="-9" font-family="Helvetica,sans-Serif" font-size="10.00">/Setup_2014_07_EPT_Prod.cc</text>
</a>
</g>
<!-- Node6&#45;&gt;Node7 -->
<g id="edge12" class="edge"><title>Node6&#45;&gt;Node7</title>
<path fill="none" stroke="midnightblue" d="M267.599,-71.6034C219.585,-57.824 174.375,-44.9801 139.352,-35.0586"/>
<polygon fill="midnightblue" stroke="midnightblue" points="266.659,-74.975 277.237,-74.3712 268.591,-68.2469 266.659,-74.975"/>
</g>
<!-- Node8 -->
<g id="node15" class="node"><title>Node8</title>
<a xlink:href="_setup__2014__10___e_p_t___prod_8cc.html" target="_top" xlink:title="src/expconfig/setups\l/Setup_2014_10_EPT_Prod.cc">
<polygon fill="white" stroke="black" points="171.5,-1 171.5,-35 322.5,-35 322.5,-1 171.5,-1"/>
<text text-anchor="start" x="179.5" y="-22" font-family="Helvetica,sans-Serif" font-size="10.00">src/expconfig/setups</text>
<text text-anchor="middle" x="247" y="-9" font-family="Helvetica,sans-Serif" font-size="10.00">/Setup_2014_10_EPT_Prod.cc</text>
</a>
</g>
<!-- Node6&#45;&gt;Node8 -->
<g id="edge14" class="edge"><title>Node6&#45;&gt;Node8</title>
<path fill="none" stroke="midnightblue" d="M303.235,-66.2011C291.411,-56.0666 277.881,-44.4691 267.055,-35.19"/>
<polygon fill="midnightblue" stroke="midnightblue" points="301.223,-69.0865 311.093,-72.937 305.778,-63.7717 301.223,-69.0865"/>
</g>
<!-- Node9 -->
<g id="node17" class="node"><title>Node9</title>
<a xlink:href="_setup__2014__12___e_p_t___prod_8cc.html" target="_top" xlink:title="src/expconfig/setups\l/Setup_2014_12_EPT_Prod.cc">
<polygon fill="white" stroke="black" points="339.5,-1 339.5,-35 490.5,-35 490.5,-1 339.5,-1"/>
<text text-anchor="start" x="347.5" y="-22" font-family="Helvetica,sans-Serif" font-size="10.00">src/expconfig/setups</text>
<text text-anchor="middle" x="415" y="-9" font-family="Helvetica,sans-Serif" font-size="10.00">/Setup_2014_12_EPT_Prod.cc</text>
</a>
</g>
<!-- Node6&#45;&gt;Node9 -->
<g id="edge16" class="edge"><title>Node6&#45;&gt;Node9</title>
<path fill="none" stroke="midnightblue" d="M358.765,-66.2011C370.589,-56.0666 384.119,-44.4691 394.945,-35.19"/>
<polygon fill="midnightblue" stroke="midnightblue" points="356.222,-63.7717 350.907,-72.937 360.777,-69.0865 356.222,-63.7717"/>
</g>
<!-- Node10 -->
<g id="node19" class="node"><title>Node10</title>
<a xlink:href="_setup__2014___e_p_t_8cc.html" target="_top" xlink:title="src/expconfig/setups\l/Setup_2014_EPT.cc">
<polygon fill="white" stroke="black" points="508,-1 508,-35 618,-35 618,-1 508,-1"/>
<text text-anchor="start" x="516" y="-22" font-family="Helvetica,sans-Serif" font-size="10.00">src/expconfig/setups</text>
<text text-anchor="middle" x="563" y="-9" font-family="Helvetica,sans-Serif" font-size="10.00">/Setup_2014_EPT.cc</text>
</a>
</g>
<!-- Node6&#45;&gt;Node10 -->
<g id="edge18" class="edge"><title>Node6&#45;&gt;Node10</title>
<path fill="none" stroke="midnightblue" d="M394.327,-70.3468C429.954,-59.2903 473.996,-45.622 508.142,-35.025"/>
<polygon fill="midnightblue" stroke="midnightblue" points="393.03,-67.0846 384.517,-73.3913 395.105,-73.77 393.03,-67.0846"/>
</g>
</g>
</svg>
