<?xml version="1.0" encoding="UTF-8" standalone="no"?>
<!DOCTYPE svg PUBLIC "-//W3C//DTD SVG 1.1//EN"
 "http://www.w3.org/Graphics/SVG/1.1/DTD/svg11.dtd">
<!-- Generated by graphviz version 2.26.3 (20100126.1600)
 -->
<!-- Title: src/expconfig/setups/Setup.h Pages: 1 -->
<svg width="640pt" height="188pt"
 viewBox="0.00 0.00 640.00 188.00" xmlns="http://www.w3.org/2000/svg" xmlns:xlink="http://www.w3.org/1999/xlink">
<g id="graph1" class="graph" transform="scale(1 1) rotate(0) translate(4 184)">
<title>src/expconfig/setups/Setup.h</title>
<polygon fill="white" stroke="white" points="-4,5 -4,-184 637,-184 637,5 -4,5"/>
<!-- Node1 -->
<g id="node1" class="node"><title>Node1</title>
<polygon fill="#bfbfbf" stroke="black" points="277.5,-145 277.5,-179 384.5,-179 384.5,-145 277.5,-145"/>
<text text-anchor="start" x="285.5" y="-166" font-family="Helvetica,sans-Serif" font-size="10.00">src/expconfig/setups</text>
<text text-anchor="middle" x="331" y="-153" font-family="Helvetica,sans-Serif" font-size="10.00">/Setup.h</text>
</g>
<!-- Node2 -->
<g id="node3" class="node"><title>Node2</title>
<a xlink:href="_exp_config_8cc.html" target="_top" xlink:title="src/expconfig/ExpConfig.cc">
<polygon fill="white" stroke="black" points="-0.5,-79.5 -0.5,-100.5 136.5,-100.5 136.5,-79.5 -0.5,-79.5"/>
<text text-anchor="middle" x="68" y="-87.5" font-family="Helvetica,sans-Serif" font-size="10.00">src/expconfig/ExpConfig.cc</text>
</a>
</g>
<!-- Node1&#45;&gt;Node2 -->
<g id="edge2" class="edge"><title>Node1&#45;&gt;Node2</title>
<path fill="none" stroke="midnightblue" d="M267.672,-144.663C217.436,-130.91 148.852,-112.134 106.543,-100.552"/>
<polygon fill="midnightblue" stroke="midnightblue" points="266.892,-148.078 277.461,-147.343 268.74,-141.327 266.892,-148.078"/>
</g>
<!-- Node3 -->
<g id="node5" class="node"><title>Node3</title>
<a xlink:href="_setup_8cc.html" target="_top" xlink:title="src/expconfig/setups\l/Setup.cc">
<polygon fill="white" stroke="black" points="153.5,-73 153.5,-107 260.5,-107 260.5,-73 153.5,-73"/>
<text text-anchor="start" x="161.5" y="-94" font-family="Helvetica,sans-Serif" font-size="10.00">src/expconfig/setups</text>
<text text-anchor="middle" x="207" y="-81" font-family="Helvetica,sans-Serif" font-size="10.00">/Setup.cc</text>
</a>
</g>
<!-- Node1&#45;&gt;Node3 -->
<g id="edge4" class="edge"><title>Node1&#45;&gt;Node3</title>
<path fill="none" stroke="midnightblue" d="M292.512,-139.652C274.489,-129.187 253.354,-116.915 236.605,-107.19"/>
<polygon fill="midnightblue" stroke="midnightblue" points="291.208,-142.942 301.614,-144.937 294.723,-136.889 291.208,-142.942"/>
</g>
<!-- Node4 -->
<g id="node7" class="node"><title>Node4</title>
<a xlink:href="_setup__2014___e_p_t_8h.html" target="_top" xlink:title="src/expconfig/setups\l/Setup_2014_EPT.h">
<polygon fill="white" stroke="black" points="277.5,-73 277.5,-107 384.5,-107 384.5,-73 277.5,-73"/>
<text text-anchor="start" x="285.5" y="-94" font-family="Helvetica,sans-Serif" font-size="10.00">src/expconfig/setups</text>
<text text-anchor="middle" x="331" y="-81" font-family="Helvetica,sans-Serif" font-size="10.00">/Setup_2014_EPT.h</text>
</a>
</g>
<!-- Node1&#45;&gt;Node4 -->
<g id="edge6" class="edge"><title>Node1&#45;&gt;Node4</title>
<path fill="none" stroke="midnightblue" d="M331,-134.719C331,-125.572 331,-115.625 331,-107.441"/>
<polygon fill="midnightblue" stroke="midnightblue" points="327.5,-134.937 331,-144.937 334.5,-134.937 327.5,-134.937"/>
</g>
<!-- Node9 -->
<g id="node17" class="node"><title>Node9</title>
<a xlink:href="_setup___test_8cc.html" target="_top" xlink:title="src/expconfig/setups\l/Setup_Test.cc">
<polygon fill="white" stroke="black" points="401.5,-73 401.5,-107 508.5,-107 508.5,-73 401.5,-73"/>
<text text-anchor="start" x="409.5" y="-94" font-family="Helvetica,sans-Serif" font-size="10.00">src/expconfig/setups</text>
<text text-anchor="middle" x="455" y="-81" font-family="Helvetica,sans-Serif" font-size="10.00">/Setup_Test.cc</text>
</a>
</g>
<!-- Node1&#45;&gt;Node9 -->
<g id="edge16" class="edge"><title>Node1&#45;&gt;Node9</title>
<path fill="none" stroke="midnightblue" d="M369.488,-139.652C387.511,-129.187 408.646,-116.915 425.395,-107.19"/>
<polygon fill="midnightblue" stroke="midnightblue" points="367.277,-136.889 360.386,-144.937 370.792,-142.942 367.277,-136.889"/>
</g>
<!-- Node10 -->
<g id="node19" class="node"><title>Node10</title>
<a xlink:href="_setup_registry_8cc.html" target="_top" xlink:title="src/expconfig/setups\l/SetupRegistry.cc">
<polygon fill="white" stroke="black" points="525.5,-73 525.5,-107 632.5,-107 632.5,-73 525.5,-73"/>
<text text-anchor="start" x="533.5" y="-94" font-family="Helvetica,sans-Serif" font-size="10.00">src/expconfig/setups</text>
<text text-anchor="middle" x="579" y="-81" font-family="Helvetica,sans-Serif" font-size="10.00">/SetupRegistry.cc</text>
</a>
</g>
<!-- Node1&#45;&gt;Node10 -->
<g id="edge18" class="edge"><title>Node1&#45;&gt;Node10</title>
<path fill="none" stroke="midnightblue" d="M394.27,-143.631C434.741,-131.882 486.672,-116.805 525.161,-105.631"/>
<polygon fill="midnightblue" stroke="midnightblue" points="393.135,-140.316 384.507,-146.466 395.086,-147.039 393.135,-140.316"/>
</g>
<!-- Node5 -->
<g id="node9" class="node"><title>Node5</title>
<a xlink:href="_setup__2014__07___e_p_t___prod_8cc.html" target="_top" xlink:title="src/expconfig/setups\l/Setup_2014_07_EPT_Prod.cc">
<polygon fill="white" stroke="black" points="3.5,-1 3.5,-35 154.5,-35 154.5,-1 3.5,-1"/>
<text text-anchor="start" x="11.5" y="-22" font-family="Helvetica,sans-Serif" font-size="10.00">src/expconfig/setups</text>
<text text-anchor="middle" x="79" y="-9" font-family="Helvetica,sans-Serif" font-size="10.00">/Setup_2014_07_EPT_Prod.cc</text>
</a>
</g>
<!-- Node4&#45;&gt;Node5 -->
<g id="edge8" class="edge"><title>Node4&#45;&gt;Node5</title>
<path fill="none" stroke="midnightblue" d="M267.599,-71.6034C219.585,-57.824 174.375,-44.9801 139.352,-35.0586"/>
<polygon fill="midnightblue" stroke="midnightblue" points="266.659,-74.975 277.237,-74.3712 268.591,-68.2469 266.659,-74.975"/>
</g>
<!-- Node6 -->
<g id="node11" class="node"><title>Node6</title>
<a xlink:href="_setup__2014__10___e_p_t___prod_8cc.html" target="_top" xlink:title="src/expconfig/setups\l/Setup_2014_10_EPT_Prod.cc">
<polygon fill="white" stroke="black" points="171.5,-1 171.5,-35 322.5,-35 322.5,-1 171.5,-1"/>
<text text-anchor="start" x="179.5" y="-22" font-family="Helvetica,sans-Serif" font-size="10.00">src/expconfig/setups</text>
<text text-anchor="middle" x="247" y="-9" font-family="Helvetica,sans-Serif" font-size="10.00">/Setup_2014_10_EPT_Prod.cc</text>
</a>
</g>
<!-- Node4&#45;&gt;Node6 -->
<g id="edge10" class="edge"><title>Node4&#45;&gt;Node6</title>
<path fill="none" stroke="midnightblue" d="M303.235,-66.2011C291.411,-56.0666 277.881,-44.4691 267.055,-35.19"/>
<polygon fill="midnightblue" stroke="midnightblue" points="301.223,-69.0865 311.093,-72.937 305.778,-63.7717 301.223,-69.0865"/>
</g>
<!-- Node7 -->
<g id="node13" class="node"><title>Node7</title>
<a xlink:href="_setup__2014__12___e_p_t___prod_8cc.html" target="_top" xlink:title="src/expconfig/setups\l/Setup_2014_12_EPT_Prod.cc">
<polygon fill="white" stroke="black" points="339.5,-1 339.5,-35 490.5,-35 490.5,-1 339.5,-1"/>
<text text-anchor="start" x="347.5" y="-22" font-family="Helvetica,sans-Serif" font-size="10.00">src/expconfig/setups</text>
<text text-anchor="middle" x="415" y="-9" font-family="Helvetica,sans-Serif" font-size="10.00">/Setup_2014_12_EPT_Prod.cc</text>
</a>
</g>
<!-- Node4&#45;&gt;Node7 -->
<g id="edge12" class="edge"><title>Node4&#45;&gt;Node7</title>
<path fill="none" stroke="midnightblue" d="M358.765,-66.2011C370.589,-56.0666 384.119,-44.4691 394.945,-35.19"/>
<polygon fill="midnightblue" stroke="midnightblue" points="356.222,-63.7717 350.907,-72.937 360.777,-69.0865 356.222,-63.7717"/>
</g>
<!-- Node8 -->
<g id="node15" class="node"><title>Node8</title>
<a xlink:href="_setup__2014___e_p_t_8cc.html" target="_top" xlink:title="src/expconfig/setups\l/Setup_2014_EPT.cc">
<polygon fill="white" stroke="black" points="508,-1 508,-35 618,-35 618,-1 508,-1"/>
<text text-anchor="start" x="516" y="-22" font-family="Helvetica,sans-Serif" font-size="10.00">src/expconfig/setups</text>
<text text-anchor="middle" x="563" y="-9" font-family="Helvetica,sans-Serif" font-size="10.00">/Setup_2014_EPT.cc</text>
</a>
</g>
<!-- Node4&#45;&gt;Node8 -->
<g id="edge14" class="edge"><title>Node4&#45;&gt;Node8</title>
<path fill="none" stroke="midnightblue" d="M394.327,-70.3468C429.954,-59.2903 473.996,-45.622 508.142,-35.025"/>
<polygon fill="midnightblue" stroke="midnightblue" points="393.03,-67.0846 384.517,-73.3913 395.105,-73.77 393.03,-67.0846"/>
</g>
</g>
</svg>
