<?xml version="1.0" encoding="UTF-8" standalone="no"?>
<!DOCTYPE svg PUBLIC "-//W3C//DTD SVG 1.1//EN"
 "http://www.w3.org/Graphics/SVG/1.1/DTD/svg11.dtd">
<!-- Generated by graphviz version 2.26.3 (20100126.1600)
 -->
<!-- Title: src/analysis/physics/SlowcontrolManager.cc Pages: 1 -->
<svg width="796pt" height="464pt"
 viewBox="0.00 0.00 796.00 464.00" xmlns="http://www.w3.org/2000/svg" xmlns:xlink="http://www.w3.org/1999/xlink">
<g id="graph1" class="graph" transform="scale(1 1) rotate(0) translate(4 460)">
<title>src/analysis/physics/SlowcontrolManager.cc</title>
<polygon fill="white" stroke="white" points="-4,5 -4,-460 793,-460 793,5 -4,5"/>
<!-- Node1 -->
<g id="node1" class="node"><title>Node1</title>
<polygon fill="#bfbfbf" stroke="black" points="349,-421 349,-455 471,-455 471,-421 349,-421"/>
<text text-anchor="start" x="357" y="-442" font-family="Helvetica,sans-Serif" font-size="10.00">src/analysis/physics</text>
<text text-anchor="middle" x="410" y="-429" font-family="Helvetica,sans-Serif" font-size="10.00">/SlowcontrolManager.cc</text>
</g>
<!-- Node2 -->
<g id="node3" class="node"><title>Node2</title>
<a xlink:href="_slowcontrol_manager_8h.html" target="_top" xlink:title="SlowcontrolManager.h">
<polygon fill="white" stroke="black" points="530.5,-355.5 530.5,-376.5 643.5,-376.5 643.5,-355.5 530.5,-355.5"/>
<text text-anchor="middle" x="587" y="-363.5" font-family="Helvetica,sans-Serif" font-size="10.00">SlowcontrolManager.h</text>
</a>
</g>
<!-- Node1&#45;&gt;Node2 -->
<g id="edge2" class="edge"><title>Node1&#45;&gt;Node2</title>
<path fill="none" stroke="midnightblue" d="M451.947,-420.937C482.216,-408.624 522.641,-392.18 551.354,-380.5"/>
<polygon fill="midnightblue" stroke="midnightblue" points="553.041,-383.592 560.986,-376.582 550.404,-377.108 553.041,-383.592"/>
</g>
<!-- Node3 -->
<g id="node5" class="node"><title>Node3</title>
<a xlink:href="_t_slow_control_8h.html" target="_top" xlink:title="tree/TSlowControl.h">
<polygon fill="white" stroke="black" points="322,-290.5 322,-311.5 426,-311.5 426,-290.5 322,-290.5"/>
<text text-anchor="middle" x="374" y="-298.5" font-family="Helvetica,sans-Serif" font-size="10.00">tree/TSlowControl.h</text>
</a>
</g>
<!-- Node1&#45;&gt;Node3 -->
<g id="edge68" class="edge"><title>Node1&#45;&gt;Node3</title>
<path fill="none" stroke="midnightblue" d="M400.968,-420.945C395.829,-410.539 389.697,-396.814 386,-384 380.064,-363.428 376.988,-339.101 375.445,-322.122"/>
<polygon fill="midnightblue" stroke="midnightblue" points="378.896,-321.365 374.605,-311.678 371.918,-321.926 378.896,-321.365"/>
</g>
<!-- Node20 -->
<g id="node39" class="node"><title>Node20</title>
<polygon fill="white" stroke="#bfbfbf" points="42.5,-116.5 42.5,-137.5 101.5,-137.5 101.5,-116.5 42.5,-116.5"/>
<text text-anchor="middle" x="72" y="-124.5" font-family="Helvetica,sans-Serif" font-size="10.00">stdexcept</text>
</g>
<!-- Node1&#45;&gt;Node20 -->
<g id="edge78" class="edge"><title>Node1&#45;&gt;Node20</title>
<path fill="none" stroke="midnightblue" d="M348.822,-422.942C261.879,-399.727 113,-352.46 113,-301 113,-301 113,-301 113,-243 113,-207.462 95.6819,-169.12 83.5564,-146.63"/>
<polygon fill="midnightblue" stroke="midnightblue" points="86.5241,-144.766 78.5874,-137.747 80.415,-148.183 86.5241,-144.766"/>
</g>
<!-- Node27 -->
<g id="node62" class="node"><title>Node27</title>
<a xlink:href="_slowcontrol_creator_8h.html" target="_top" xlink:title="input/detail/Slowcontrol\lCreator.h">
<polygon fill="white" stroke="black" points="395,-349 395,-383 513,-383 513,-349 395,-349"/>
<text text-anchor="start" x="403" y="-370" font-family="Helvetica,sans-Serif" font-size="10.00">input/detail/Slowcontrol</text>
<text text-anchor="middle" x="454" y="-357" font-family="Helvetica,sans-Serif" font-size="10.00">Creator.h</text>
</a>
</g>
<!-- Node1&#45;&gt;Node27 -->
<g id="edge70" class="edge"><title>Node1&#45;&gt;Node27</title>
<path fill="none" stroke="midnightblue" d="M420.427,-420.937C425.666,-412.365 432.127,-401.791 437.979,-392.217"/>
<polygon fill="midnightblue" stroke="midnightblue" points="441.114,-393.799 443.342,-383.441 435.141,-390.148 441.114,-393.799"/>
</g>
<!-- Node2&#45;&gt;Node3 -->
<g id="edge4" class="edge"><title>Node2&#45;&gt;Node3</title>
<path fill="none" stroke="midnightblue" d="M552.304,-355.412C515.79,-344.269 458.197,-326.694 418.394,-314.547"/>
<polygon fill="midnightblue" stroke="midnightblue" points="419.267,-311.155 408.681,-311.584 417.224,-317.85 419.267,-311.155"/>
</g>
<!-- Node22 -->
<g id="node49" class="node"><title>Node22</title>
<a xlink:href="_slowcontrol_8h.html" target="_top" xlink:title="analysis/data/Slowcontrol.h">
<polygon fill="white" stroke="black" points="651.5,-232.5 651.5,-253.5 788.5,-253.5 788.5,-232.5 651.5,-232.5"/>
<text text-anchor="middle" x="720" y="-240.5" font-family="Helvetica,sans-Serif" font-size="10.00">analysis/data/Slowcontrol.h</text>
</a>
</g>
<!-- Node2&#45;&gt;Node22 -->
<g id="edge54" class="edge"><title>Node2&#45;&gt;Node22</title>
<path fill="none" stroke="midnightblue" d="M629.358,-355.477C653.579,-347.386 682.691,-333.801 701,-312 712.334,-298.504 716.942,-278.781 718.797,-263.874"/>
<polygon fill="midnightblue" stroke="midnightblue" points="722.311,-263.876 719.745,-253.597 715.341,-263.233 722.311,-263.876"/>
</g>
<!-- Node23 -->
<g id="node53" class="node"><title>Node23</title>
<polygon fill="white" stroke="#bfbfbf" points="527.5,-290.5 527.5,-311.5 562.5,-311.5 562.5,-290.5 527.5,-290.5"/>
<text text-anchor="middle" x="545" y="-298.5" font-family="Helvetica,sans-Serif" font-size="10.00">map</text>
</g>
<!-- Node2&#45;&gt;Node23 -->
<g id="edge60" class="edge"><title>Node2&#45;&gt;Node23</title>
<path fill="none" stroke="midnightblue" d="M580.065,-355.267C573.887,-345.707 564.705,-331.496 557.287,-320.015"/>
<polygon fill="midnightblue" stroke="midnightblue" points="560.173,-318.033 551.806,-311.534 554.294,-321.832 560.173,-318.033"/>
</g>
<!-- Node24 -->
<g id="node55" class="node"><title>Node24</title>
<polygon fill="white" stroke="#bfbfbf" points="579.5,-290.5 579.5,-311.5 622.5,-311.5 622.5,-290.5 579.5,-290.5"/>
<text text-anchor="middle" x="601" y="-298.5" font-family="Helvetica,sans-Serif" font-size="10.00">queue</text>
</g>
<!-- Node2&#45;&gt;Node24 -->
<g id="edge62" class="edge"><title>Node2&#45;&gt;Node24</title>
<path fill="none" stroke="midnightblue" d="M589.312,-355.267C591.289,-346.085 594.191,-332.615 596.608,-321.392"/>
<polygon fill="midnightblue" stroke="midnightblue" points="600.047,-322.046 598.731,-311.534 593.204,-320.573 600.047,-322.046"/>
</g>
<!-- Node25 -->
<g id="node57" class="node"><title>Node25</title>
<polygon fill="white" stroke="#bfbfbf" points="640,-290.5 640,-311.5 692,-311.5 692,-290.5 640,-290.5"/>
<text text-anchor="middle" x="666" y="-298.5" font-family="Helvetica,sans-Serif" font-size="10.00">memory</text>
</g>
<!-- Node2&#45;&gt;Node25 -->
<g id="edge64" class="edge"><title>Node2&#45;&gt;Node25</title>
<path fill="none" stroke="midnightblue" d="M600.045,-355.267C612.354,-345.139 631.007,-329.792 645.339,-318"/>
<polygon fill="midnightblue" stroke="midnightblue" points="647.699,-320.59 653.197,-311.534 643.252,-315.185 647.699,-320.59"/>
</g>
<!-- Node26 -->
<g id="node59" class="node"><title>Node26</title>
<polygon fill="white" stroke="#bfbfbf" points="481.5,-290.5 481.5,-311.5 510.5,-311.5 510.5,-290.5 481.5,-290.5"/>
<text text-anchor="middle" x="496" y="-298.5" font-family="Helvetica,sans-Serif" font-size="10.00">list</text>
</g>
<!-- Node2&#45;&gt;Node26 -->
<g id="edge66" class="edge"><title>Node2&#45;&gt;Node26</title>
<path fill="none" stroke="midnightblue" d="M571.973,-355.267C557.662,-345.044 535.906,-329.504 519.338,-317.67"/>
<polygon fill="midnightblue" stroke="midnightblue" points="520.919,-314.498 510.747,-311.534 516.85,-320.194 520.919,-314.498"/>
</g>
<!-- Node4 -->
<g id="node7" class="node"><title>Node4</title>
<a xlink:href="_t_data_record_8h.html" target="_top" xlink:title="TDataRecord.h">
<polygon fill="white" stroke="black" points="332.5,-232.5 332.5,-253.5 415.5,-253.5 415.5,-232.5 332.5,-232.5"/>
<text text-anchor="middle" x="374" y="-240.5" font-family="Helvetica,sans-Serif" font-size="10.00">TDataRecord.h</text>
</a>
</g>
<!-- Node3&#45;&gt;Node4 -->
<g id="edge6" class="edge"><title>Node3&#45;&gt;Node4</title>
<path fill="none" stroke="midnightblue" d="M374,-290.362C374,-282.922 374,-272.743 374,-263.728"/>
<polygon fill="midnightblue" stroke="midnightblue" points="377.5,-263.571 374,-253.571 370.5,-263.571 377.5,-263.571"/>
</g>
<!-- Node10 -->
<g id="node19" class="node"><title>Node10</title>
<a xlink:href="time_8h.html" target="_top" xlink:title="base/std_ext/time.h">
<polygon fill="white" stroke="black" points="118.5,-116.5 118.5,-137.5 221.5,-137.5 221.5,-116.5 118.5,-116.5"/>
<text text-anchor="middle" x="170" y="-124.5" font-family="Helvetica,sans-Serif" font-size="10.00">base/std_ext/time.h</text>
</a>
</g>
<!-- Node3&#45;&gt;Node10 -->
<g id="edge50" class="edge"><title>Node3&#45;&gt;Node10</title>
<path fill="none" stroke="midnightblue" d="M361.546,-290.377C327.403,-261.255 232.074,-179.946 190.182,-144.214"/>
<polygon fill="midnightblue" stroke="midnightblue" points="192.43,-141.531 182.55,-137.705 187.887,-146.857 192.43,-141.531"/>
</g>
<!-- Node18 -->
<g id="node35" class="node"><title>Node18</title>
<polygon fill="white" stroke="#bfbfbf" points="641,-116.5 641,-137.5 679,-137.5 679,-116.5 641,-116.5"/>
<text text-anchor="middle" x="660" y="-124.5" font-family="Helvetica,sans-Serif" font-size="10.00">tuple</text>
</g>
<!-- Node3&#45;&gt;Node18 -->
<g id="edge52" class="edge"><title>Node3&#45;&gt;Node18</title>
<path fill="none" stroke="midnightblue" d="M391.46,-290.377C439.826,-260.952 575.768,-178.246 633.516,-143.113"/>
<polygon fill="midnightblue" stroke="midnightblue" points="635.681,-145.892 642.405,-137.705 632.043,-139.912 635.681,-145.892"/>
</g>
<!-- Node5 -->
<g id="node9" class="node"><title>Node5</title>
<a xlink:href="_t_i_d_8h.html" target="_top" xlink:title="TID.h">
<polygon fill="white" stroke="black" points="415.5,-174.5 415.5,-195.5 456.5,-195.5 456.5,-174.5 415.5,-174.5"/>
<text text-anchor="middle" x="436" y="-182.5" font-family="Helvetica,sans-Serif" font-size="10.00">TID.h</text>
</a>
</g>
<!-- Node4&#45;&gt;Node5 -->
<g id="edge8" class="edge"><title>Node4&#45;&gt;Node5</title>
<path fill="none" stroke="midnightblue" d="M385.372,-232.362C394.286,-224.023 406.879,-212.242 417.276,-202.516"/>
<polygon fill="midnightblue" stroke="midnightblue" points="419.789,-204.958 424.7,-195.571 415.007,-199.846 419.789,-204.958"/>
</g>
<!-- Node6 -->
<g id="node11" class="node"><title>Node6</title>
<polygon fill="white" stroke="#bfbfbf" points="277,-116.5 277,-137.5 333,-137.5 333,-116.5 277,-116.5"/>
<text text-anchor="middle" x="305" y="-124.5" font-family="Helvetica,sans-Serif" font-size="10.00">Rtypes.h</text>
</g>
<!-- Node4&#45;&gt;Node6 -->
<g id="edge44" class="edge"><title>Node4&#45;&gt;Node6</title>
<path fill="none" stroke="midnightblue" d="M367.632,-232.295C356.028,-212.786 331.284,-171.188 316.61,-146.518"/>
<polygon fill="midnightblue" stroke="midnightblue" points="319.473,-144.484 311.352,-137.679 313.456,-148.063 319.473,-144.484"/>
</g>
<!-- Node16 -->
<g id="node31" class="node"><title>Node16</title>
<polygon fill="white" stroke="#bfbfbf" points="228.5,-58.5 228.5,-79.5 269.5,-79.5 269.5,-58.5 228.5,-58.5"/>
<text text-anchor="middle" x="249" y="-66.5" font-family="Helvetica,sans-Serif" font-size="10.00">ctime</text>
</g>
<!-- Node4&#45;&gt;Node16 -->
<g id="edge48" class="edge"><title>Node4&#45;&gt;Node16</title>
<path fill="none" stroke="midnightblue" d="M358.898,-232.236C335.819,-214.988 291.94,-178.913 268,-138 259.385,-123.276 254.545,-104.499 251.91,-90.2509"/>
<polygon fill="midnightblue" stroke="midnightblue" points="255.296,-89.2692 250.239,-79.9595 248.387,-90.3912 255.296,-89.2692"/>
</g>
<!-- Node21 -->
<g id="node41" class="node"><title>Node21</title>
<polygon fill="white" stroke="#bfbfbf" points="351,-116.5 351,-137.5 401,-137.5 401,-116.5 351,-116.5"/>
<text text-anchor="middle" x="376" y="-124.5" font-family="Helvetica,sans-Serif" font-size="10.00">iomanip</text>
</g>
<!-- Node4&#45;&gt;Node21 -->
<g id="edge46" class="edge"><title>Node4&#45;&gt;Node21</title>
<path fill="none" stroke="midnightblue" d="M374.185,-232.295C374.515,-213.131 375.213,-172.654 375.641,-147.843"/>
<polygon fill="midnightblue" stroke="midnightblue" points="379.143,-147.738 375.816,-137.679 372.144,-147.617 379.143,-147.738"/>
</g>
<!-- Node5&#45;&gt;Node6 -->
<g id="edge10" class="edge"><title>Node5&#45;&gt;Node6</title>
<path fill="none" stroke="midnightblue" d="M415.243,-175.81C394.479,-166.617 362.226,-152.337 337.96,-141.593"/>
<polygon fill="midnightblue" stroke="midnightblue" points="339.325,-138.37 328.765,-137.522 336.492,-144.771 339.325,-138.37"/>
</g>
<!-- Node7 -->
<g id="node13" class="node"><title>Node7</title>
<a xlink:href="printable_8h.html" target="_top" xlink:title="base/printable.h">
<polygon fill="white" stroke="black" points="537,-116.5 537,-137.5 623,-137.5 623,-116.5 537,-116.5"/>
<text text-anchor="middle" x="580" y="-124.5" font-family="Helvetica,sans-Serif" font-size="10.00">base/printable.h</text>
</a>
</g>
<!-- Node5&#45;&gt;Node7 -->
<g id="edge12" class="edge"><title>Node5&#45;&gt;Node7</title>
<path fill="none" stroke="midnightblue" d="M456.632,-176.69C479.519,-167.472 516.856,-152.433 544.469,-141.311"/>
<polygon fill="midnightblue" stroke="midnightblue" points="545.823,-144.539 553.791,-137.556 543.207,-138.046 545.823,-144.539"/>
</g>
<!-- Node5&#45;&gt;Node10 -->
<g id="edge18" class="edge"><title>Node5&#45;&gt;Node10</title>
<path fill="none" stroke="midnightblue" d="M415.127,-180.449C375.3,-171.765 287.182,-152.551 228.18,-139.686"/>
<polygon fill="midnightblue" stroke="midnightblue" points="228.764,-136.231 218.248,-137.52 227.272,-143.07 228.764,-136.231"/>
</g>
<!-- Node5&#45;&gt;Node16 -->
<g id="edge42" class="edge"><title>Node5&#45;&gt;Node16</title>
<path fill="none" stroke="midnightblue" d="M454.625,-174.349C476.189,-160.681 506.733,-136.311 490,-116 463.718,-84.097 338.954,-73.5579 279.998,-70.3227"/>
<polygon fill="midnightblue" stroke="midnightblue" points="279.96,-66.8163 269.794,-69.8001 279.602,-73.8071 279.96,-66.8163"/>
</g>
<!-- Node17 -->
<g id="node33" class="node"><title>Node17</title>
<polygon fill="white" stroke="#bfbfbf" points="419,-116.5 419,-137.5 481,-137.5 481,-116.5 419,-116.5"/>
<text text-anchor="middle" x="450" y="-124.5" font-family="Helvetica,sans-Serif" font-size="10.00">type_traits</text>
</g>
<!-- Node5&#45;&gt;Node17 -->
<g id="edge32" class="edge"><title>Node5&#45;&gt;Node17</title>
<path fill="none" stroke="midnightblue" d="M438.568,-174.362C440.383,-166.84 442.875,-156.519 445.068,-147.431"/>
<polygon fill="midnightblue" stroke="midnightblue" points="448.504,-148.113 447.448,-137.571 441.7,-146.47 448.504,-148.113"/>
</g>
<!-- Node5&#45;&gt;Node18 -->
<g id="edge34" class="edge"><title>Node5&#45;&gt;Node18</title>
<path fill="none" stroke="midnightblue" d="M456.571,-181.05C490.936,-174.243 562.287,-159.228 631.15,-137.971"/>
<polygon fill="midnightblue" stroke="midnightblue" points="632.352,-141.262 640.846,-134.93 630.257,-134.583 632.352,-141.262"/>
</g>
<!-- Node19 -->
<g id="node37" class="node"><title>Node19</title>
<polygon fill="white" stroke="#bfbfbf" points="697,-116.5 697,-137.5 743,-137.5 743,-116.5 697,-116.5"/>
<text text-anchor="middle" x="720" y="-124.5" font-family="Helvetica,sans-Serif" font-size="10.00">cstdint</text>
</g>
<!-- Node5&#45;&gt;Node19 -->
<g id="edge36" class="edge"><title>Node5&#45;&gt;Node19</title>
<path fill="none" stroke="midnightblue" d="M456.807,-182.176C498.693,-176.268 596.254,-161.388 686.832,-138.037"/>
<polygon fill="midnightblue" stroke="midnightblue" points="687.916,-141.371 696.703,-135.451 686.142,-134.6 687.916,-141.371"/>
</g>
<!-- Node5&#45;&gt;Node20 -->
<g id="edge38" class="edge"><title>Node5&#45;&gt;Node20</title>
<path fill="none" stroke="midnightblue" d="M415.227,-183.015C364.756,-177.981 231.582,-163.426 111.836,-138.194"/>
<polygon fill="midnightblue" stroke="midnightblue" points="112.282,-134.711 101.771,-136.041 110.818,-141.556 112.282,-134.711"/>
</g>
<!-- Node5&#45;&gt;Node21 -->
<g id="edge40" class="edge"><title>Node5&#45;&gt;Node21</title>
<path fill="none" stroke="midnightblue" d="M424.995,-174.362C416.453,-166.104 404.42,-154.472 394.417,-144.803"/>
<polygon fill="midnightblue" stroke="midnightblue" points="396.558,-142.004 386.935,-137.571 391.692,-147.037 396.558,-142.004"/>
</g>
<!-- Node8 -->
<g id="node15" class="node"><title>Node8</title>
<polygon fill="white" stroke="#bfbfbf" points="686,-58.5 686,-79.5 730,-79.5 730,-58.5 686,-58.5"/>
<text text-anchor="middle" x="708" y="-66.5" font-family="Helvetica,sans-Serif" font-size="10.00">vector</text>
</g>
<!-- Node7&#45;&gt;Node8 -->
<g id="edge14" class="edge"><title>Node7&#45;&gt;Node8</title>
<path fill="none" stroke="midnightblue" d="M603.18,-116.497C623.73,-107.185 653.918,-93.5061 676.625,-83.2167"/>
<polygon fill="midnightblue" stroke="midnightblue" points="678.185,-86.3525 685.849,-79.0371 675.296,-79.9765 678.185,-86.3525"/>
</g>
<!-- Node9 -->
<g id="node17" class="node"><title>Node9</title>
<polygon fill="white" stroke="#bfbfbf" points="554,-58.5 554,-79.5 606,-79.5 606,-58.5 554,-58.5"/>
<text text-anchor="middle" x="580" y="-66.5" font-family="Helvetica,sans-Serif" font-size="10.00">ostream</text>
</g>
<!-- Node7&#45;&gt;Node9 -->
<g id="edge16" class="edge"><title>Node7&#45;&gt;Node9</title>
<path fill="none" stroke="midnightblue" d="M580,-116.362C580,-108.922 580,-98.7427 580,-89.7276"/>
<polygon fill="midnightblue" stroke="midnightblue" points="583.5,-89.5706 580,-79.5707 576.5,-89.5707 583.5,-89.5706"/>
</g>
<!-- Node11 -->
<g id="node21" class="node"><title>Node11</title>
<a xlink:href="string_8h.html" target="_top" xlink:title="base/std_ext/string.h">
<polygon fill="white" stroke="black" points="30,-58.5 30,-79.5 138,-79.5 138,-58.5 30,-58.5"/>
<text text-anchor="middle" x="84" y="-66.5" font-family="Helvetica,sans-Serif" font-size="10.00">base/std_ext/string.h</text>
</a>
</g>
<!-- Node10&#45;&gt;Node11 -->
<g id="edge20" class="edge"><title>Node10&#45;&gt;Node11</title>
<path fill="none" stroke="midnightblue" d="M154.226,-116.362C141.376,-107.696 123.015,-95.3126 108.29,-85.3819"/>
<polygon fill="midnightblue" stroke="midnightblue" points="109.921,-82.2604 99.6737,-79.5707 106.007,-88.0639 109.921,-82.2604"/>
</g>
<!-- Node15 -->
<g id="node29" class="node"><title>Node15</title>
<polygon fill="white" stroke="#bfbfbf" points="156,-58.5 156,-79.5 202,-79.5 202,-58.5 156,-58.5"/>
<text text-anchor="middle" x="179" y="-66.5" font-family="Helvetica,sans-Serif" font-size="10.00">cstring</text>
</g>
<!-- Node10&#45;&gt;Node15 -->
<g id="edge28" class="edge"><title>Node10&#45;&gt;Node15</title>
<path fill="none" stroke="midnightblue" d="M171.651,-116.362C172.805,-108.922 174.385,-98.7427 175.784,-89.7276"/>
<polygon fill="midnightblue" stroke="midnightblue" points="179.285,-89.9891 177.36,-79.5707 172.368,-88.9157 179.285,-89.9891"/>
</g>
<!-- Node10&#45;&gt;Node16 -->
<g id="edge30" class="edge"><title>Node10&#45;&gt;Node16</title>
<path fill="none" stroke="midnightblue" d="M184.49,-116.362C196.183,-107.777 212.843,-95.5459 226.303,-85.6636"/>
<polygon fill="midnightblue" stroke="midnightblue" points="228.613,-88.31 234.602,-79.5707 224.47,-82.6675 228.613,-88.31"/>
</g>
<!-- Node12 -->
<g id="node23" class="node"><title>Node12</title>
<polygon fill="white" stroke="#bfbfbf" points="-0.5,-0.5 -0.5,-21.5 40.5,-21.5 40.5,-0.5 -0.5,-0.5"/>
<text text-anchor="middle" x="20" y="-8.5" font-family="Helvetica,sans-Serif" font-size="10.00">string</text>
</g>
<!-- Node11&#45;&gt;Node12 -->
<g id="edge22" class="edge"><title>Node11&#45;&gt;Node12</title>
<path fill="none" stroke="midnightblue" d="M72.2614,-58.3619C63.0594,-50.0226 50.0599,-38.2418 39.3283,-28.5162"/>
<polygon fill="midnightblue" stroke="midnightblue" points="41.4244,-25.6924 31.6642,-21.5707 36.7237,-30.8793 41.4244,-25.6924"/>
</g>
<!-- Node13 -->
<g id="node25" class="node"><title>Node13</title>
<polygon fill="white" stroke="#bfbfbf" points="58,-0.5 58,-21.5 110,-21.5 110,-0.5 58,-0.5"/>
<text text-anchor="middle" x="84" y="-8.5" font-family="Helvetica,sans-Serif" font-size="10.00">sstream</text>
</g>
<!-- Node11&#45;&gt;Node13 -->
<g id="edge24" class="edge"><title>Node11&#45;&gt;Node13</title>
<path fill="none" stroke="midnightblue" d="M84,-58.3619C84,-50.9219 84,-40.7427 84,-31.7276"/>
<polygon fill="midnightblue" stroke="midnightblue" points="87.5001,-31.5706 84,-21.5707 80.5001,-31.5707 87.5001,-31.5706"/>
</g>
<!-- Node14 -->
<g id="node27" class="node"><title>Node14</title>
<polygon fill="white" stroke="#bfbfbf" points="128,-0.5 128,-21.5 184,-21.5 184,-0.5 128,-0.5"/>
<text text-anchor="middle" x="156" y="-8.5" font-family="Helvetica,sans-Serif" font-size="10.00">algorithm</text>
</g>
<!-- Node11&#45;&gt;Node14 -->
<g id="edge26" class="edge"><title>Node11&#45;&gt;Node14</title>
<path fill="none" stroke="midnightblue" d="M97.2059,-58.3619C107.761,-49.859 122.758,-37.7785 134.963,-27.9466"/>
<polygon fill="midnightblue" stroke="midnightblue" points="137.286,-30.5696 142.878,-21.5707 132.895,-25.1183 137.286,-30.5696"/>
</g>
<!-- Node22&#45;&gt;Node8 -->
<g id="edge56" class="edge"><title>Node22&#45;&gt;Node8</title>
<path fill="none" stroke="midnightblue" d="M727.148,-232.172C740.917,-209.874 768.374,-157.449 752,-116 747.472,-104.539 738.684,-94.2323 730.144,-86.2117"/>
<polygon fill="midnightblue" stroke="midnightblue" points="732.33,-83.474 722.501,-79.5208 727.72,-88.7411 732.33,-83.474"/>
</g>
<!-- Node22&#45;&gt;Node19 -->
<g id="edge58" class="edge"><title>Node22&#45;&gt;Node19</title>
<path fill="none" stroke="midnightblue" d="M720,-232.295C720,-213.131 720,-172.654 720,-147.843"/>
<polygon fill="midnightblue" stroke="midnightblue" points="723.5,-147.679 720,-137.679 716.5,-147.679 723.5,-147.679"/>
</g>
<!-- Node27&#45;&gt;Node3 -->
<g id="edge74" class="edge"><title>Node27&#45;&gt;Node3</title>
<path fill="none" stroke="midnightblue" d="M432.981,-348.922C421.358,-339.479 406.952,-327.774 395.287,-318.296"/>
<polygon fill="midnightblue" stroke="midnightblue" points="397.325,-315.442 387.356,-311.852 392.91,-320.874 397.325,-315.442"/>
</g>
<!-- Node27&#45;&gt;Node22 -->
<g id="edge72" class="edge"><title>Node27&#45;&gt;Node22</title>
<path fill="none" stroke="midnightblue" d="M453.325,-348.904C453.629,-331.545 456.983,-305.13 473,-290 496.897,-267.427 578.173,-255.146 641.039,-248.861"/>
<polygon fill="midnightblue" stroke="midnightblue" points="641.736,-252.31 651.354,-247.866 641.064,-245.342 641.736,-252.31"/>
</g>
<!-- Node27&#45;&gt;Node26 -->
<g id="edge76" class="edge"><title>Node27&#45;&gt;Node26</title>
<path fill="none" stroke="midnightblue" d="M465.035,-348.922C470.722,-340.12 477.679,-329.354 483.557,-320.258"/>
<polygon fill="midnightblue" stroke="midnightblue" points="486.5,-322.151 488.988,-311.852 480.621,-318.352 486.5,-322.151"/>
</g>
</g>
</svg>
