<?xml version="1.0" encoding="UTF-8" standalone="no"?>
<!DOCTYPE svg PUBLIC "-//W3C//DTD SVG 1.1//EN"
 "http://www.w3.org/Graphics/SVG/1.1/DTD/svg11.dtd">
<!-- Generated by graphviz version 2.26.3 (20100126.1600)
 -->
<!-- Title: src/analysis/input/detail/SlowcontrolCreator.h Pages: 1 -->
<svg width="715pt" height="392pt"
 viewBox="0.00 0.00 715.24 392.00" xmlns="http://www.w3.org/2000/svg" xmlns:xlink="http://www.w3.org/1999/xlink">
<g id="graph1" class="graph" transform="scale(1 1) rotate(0) translate(4 388)">
<title>src/analysis/input/detail/SlowcontrolCreator.h</title>
<polygon fill="white" stroke="white" points="-4,5 -4,-388 712.241,-388 712.241,5 -4,5"/>
<!-- Node1 -->
<g id="node1" class="node"><title>Node1</title>
<polygon fill="#bfbfbf" stroke="black" points="359.741,-349 359.741,-383 496.741,-383 496.741,-349 359.741,-349"/>
<text text-anchor="start" x="367.741" y="-370" font-family="Helvetica,sans-Serif" font-size="10.00">src/analysis/input</text>
<text text-anchor="middle" x="428.241" y="-357" font-family="Helvetica,sans-Serif" font-size="10.00">/detail/SlowcontrolCreator.h</text>
</g>
<!-- Node2 -->
<g id="node3" class="node"><title>Node2</title>
<a xlink:href="_slowcontrol_8h.html" target="_top" xlink:title="data/Slowcontrol.h">
<polygon fill="white" stroke="black" points="609.241,-174.5 609.241,-195.5 707.241,-195.5 707.241,-174.5 609.241,-174.5"/>
<text text-anchor="middle" x="658.241" y="-182.5" font-family="Helvetica,sans-Serif" font-size="10.00">data/Slowcontrol.h</text>
</a>
</g>
<!-- Node1&#45;&gt;Node2 -->
<g id="edge2" class="edge"><title>Node1&#45;&gt;Node2</title>
<path fill="none" stroke="midnightblue" d="M428.522,-348.795C429.645,-332.091 433.693,-306.855 447.241,-290 486.689,-240.918 554.962,-212.902 603.147,-198.362"/>
<polygon fill="midnightblue" stroke="midnightblue" points="604.183,-201.705 612.804,-195.546 602.224,-194.985 604.183,-201.705"/>
</g>
<!-- Node5 -->
<g id="node9" class="node"><title>Node5</title>
<a xlink:href="_t_slow_control_8h.html" target="_top" xlink:title="tree/TSlowControl.h">
<polygon fill="white" stroke="black" points="209.241,-290.5 209.241,-311.5 313.241,-311.5 313.241,-290.5 209.241,-290.5"/>
<text text-anchor="middle" x="261.241" y="-298.5" font-family="Helvetica,sans-Serif" font-size="10.00">tree/TSlowControl.h</text>
</a>
</g>
<!-- Node1&#45;&gt;Node5 -->
<g id="edge8" class="edge"><title>Node1&#45;&gt;Node5</title>
<path fill="none" stroke="midnightblue" d="M384.363,-348.922C357.575,-338.495 323.703,-325.312 298.27,-315.413"/>
<polygon fill="midnightblue" stroke="midnightblue" points="299.213,-312.024 288.624,-311.658 296.674,-318.547 299.213,-312.024"/>
</g>
<!-- Node22 -->
<g id="node51" class="node"><title>Node22</title>
<polygon fill="white" stroke="#bfbfbf" points="455.741,-290.5 455.741,-311.5 484.741,-311.5 484.741,-290.5 455.741,-290.5"/>
<text text-anchor="middle" x="470.241" y="-298.5" font-family="Helvetica,sans-Serif" font-size="10.00">list</text>
</g>
<!-- Node1&#45;&gt;Node22 -->
<g id="edge58" class="edge"><title>Node1&#45;&gt;Node22</title>
<path fill="none" stroke="midnightblue" d="M439.276,-348.922C444.963,-340.12 451.919,-329.354 457.797,-320.258"/>
<polygon fill="midnightblue" stroke="midnightblue" points="460.741,-322.151 463.228,-311.852 454.862,-318.352 460.741,-322.151"/>
</g>
<!-- Node3 -->
<g id="node5" class="node"><title>Node3</title>
<polygon fill="white" stroke="#bfbfbf" points="652.241,-58.5 652.241,-79.5 696.241,-79.5 696.241,-58.5 652.241,-58.5"/>
<text text-anchor="middle" x="674.241" y="-66.5" font-family="Helvetica,sans-Serif" font-size="10.00">vector</text>
</g>
<!-- Node2&#45;&gt;Node3 -->
<g id="edge4" class="edge"><title>Node2&#45;&gt;Node3</title>
<path fill="none" stroke="midnightblue" d="M668.224,-174.418C675.916,-165.489 685.939,-151.962 690.241,-138 695.252,-121.735 690.168,-102.888 684.439,-89.006"/>
<polygon fill="midnightblue" stroke="midnightblue" points="687.616,-87.5362 680.29,-79.8828 681.244,-90.4345 687.616,-87.5362"/>
</g>
<!-- Node4 -->
<g id="node7" class="node"><title>Node4</title>
<polygon fill="white" stroke="#bfbfbf" points="635.241,-116.5 635.241,-137.5 681.241,-137.5 681.241,-116.5 635.241,-116.5"/>
<text text-anchor="middle" x="658.241" y="-124.5" font-family="Helvetica,sans-Serif" font-size="10.00">cstdint</text>
</g>
<!-- Node2&#45;&gt;Node4 -->
<g id="edge6" class="edge"><title>Node2&#45;&gt;Node4</title>
<path fill="none" stroke="midnightblue" d="M658.241,-174.362C658.241,-166.922 658.241,-156.743 658.241,-147.728"/>
<polygon fill="midnightblue" stroke="midnightblue" points="661.741,-147.571 658.241,-137.571 654.741,-147.571 661.741,-147.571"/>
</g>
<!-- Node6 -->
<g id="node11" class="node"><title>Node6</title>
<a xlink:href="_t_data_record_8h.html" target="_top" xlink:title="TDataRecord.h">
<polygon fill="white" stroke="black" points="132.741,-232.5 132.741,-253.5 215.741,-253.5 215.741,-232.5 132.741,-232.5"/>
<text text-anchor="middle" x="174.241" y="-240.5" font-family="Helvetica,sans-Serif" font-size="10.00">TDataRecord.h</text>
</a>
</g>
<!-- Node5&#45;&gt;Node6 -->
<g id="edge10" class="edge"><title>Node5&#45;&gt;Node6</title>
<path fill="none" stroke="midnightblue" d="M245.283,-290.362C232.284,-281.696 213.709,-269.313 198.813,-259.382"/>
<polygon fill="midnightblue" stroke="midnightblue" points="200.359,-256.206 190.097,-253.571 196.476,-262.03 200.359,-256.206"/>
</g>
<!-- Node11 -->
<g id="node22" class="node"><title>Node11</title>
<a xlink:href="time_8h.html" target="_top" xlink:title="base/std_ext/time.h">
<polygon fill="white" stroke="black" points="410.741,-116.5 410.741,-137.5 513.741,-137.5 513.741,-116.5 410.741,-116.5"/>
<text text-anchor="middle" x="462.241" y="-124.5" font-family="Helvetica,sans-Serif" font-size="10.00">base/std_ext/time.h</text>
</a>
</g>
<!-- Node5&#45;&gt;Node11 -->
<g id="edge54" class="edge"><title>Node5&#45;&gt;Node11</title>
<path fill="none" stroke="midnightblue" d="M273.511,-290.377C307.082,-261.316 400.688,-180.284 442.096,-144.438"/>
<polygon fill="midnightblue" stroke="midnightblue" points="444.605,-146.896 449.875,-137.705 440.023,-141.603 444.605,-146.896"/>
</g>
<!-- Node19 -->
<g id="node38" class="node"><title>Node19</title>
<polygon fill="white" stroke="#bfbfbf" points="19.2406,-116.5 19.2406,-137.5 57.2406,-137.5 57.2406,-116.5 19.2406,-116.5"/>
<text text-anchor="middle" x="38.2406" y="-124.5" font-family="Helvetica,sans-Serif" font-size="10.00">tuple</text>
</g>
<!-- Node5&#45;&gt;Node19 -->
<g id="edge56" class="edge"><title>Node5&#45;&gt;Node19</title>
<path fill="none" stroke="midnightblue" d="M208.952,-291.425C181.657,-284.47 148.906,-272.868 124.241,-254 86.5457,-225.164 59.6529,-174.922 46.7922,-147.057"/>
<polygon fill="midnightblue" stroke="midnightblue" points="49.8278,-145.27 42.557,-137.564 43.4352,-148.123 49.8278,-145.27"/>
</g>
<!-- Node7 -->
<g id="node13" class="node"><title>Node7</title>
<a xlink:href="_t_i_d_8h.html" target="_top" xlink:title="TID.h">
<polygon fill="white" stroke="black" points="235.741,-174.5 235.741,-195.5 276.741,-195.5 276.741,-174.5 235.741,-174.5"/>
<text text-anchor="middle" x="256.241" y="-182.5" font-family="Helvetica,sans-Serif" font-size="10.00">TID.h</text>
</a>
</g>
<!-- Node6&#45;&gt;Node7 -->
<g id="edge12" class="edge"><title>Node6&#45;&gt;Node7</title>
<path fill="none" stroke="midnightblue" d="M189.281,-232.362C201.533,-223.696 219.04,-211.313 233.08,-201.382"/>
<polygon fill="midnightblue" stroke="midnightblue" points="235.153,-204.203 241.296,-195.571 231.111,-198.488 235.153,-204.203"/>
</g>
<!-- Node8 -->
<g id="node15" class="node"><title>Node8</title>
<polygon fill="white" stroke="#bfbfbf" points="75.2406,-116.5 75.2406,-137.5 131.241,-137.5 131.241,-116.5 75.2406,-116.5"/>
<text text-anchor="middle" x="103.241" y="-124.5" font-family="Helvetica,sans-Serif" font-size="10.00">Rtypes.h</text>
</g>
<!-- Node6&#45;&gt;Node8 -->
<g id="edge48" class="edge"><title>Node6&#45;&gt;Node8</title>
<path fill="none" stroke="midnightblue" d="M167.688,-232.295C155.748,-212.786 130.287,-171.188 115.187,-146.518"/>
<polygon fill="midnightblue" stroke="midnightblue" points="117.983,-144.381 109.777,-137.679 112.012,-148.036 117.983,-144.381"/>
</g>
<!-- Node17 -->
<g id="node34" class="node"><title>Node17</title>
<polygon fill="white" stroke="#bfbfbf" points="206.741,-58.5 206.741,-79.5 247.741,-79.5 247.741,-58.5 206.741,-58.5"/>
<text text-anchor="middle" x="227.241" y="-66.5" font-family="Helvetica,sans-Serif" font-size="10.00">ctime</text>
</g>
<!-- Node6&#45;&gt;Node17 -->
<g id="edge52" class="edge"><title>Node6&#45;&gt;Node17</title>
<path fill="none" stroke="midnightblue" d="M138.118,-232.496C77.8454,-213.185 -32.6028,-169.116 10.2406,-116 33.3258,-87.3795 142.521,-75.3143 196.66,-71.0244"/>
<polygon fill="midnightblue" stroke="midnightblue" points="197.003,-74.5086 206.712,-70.2675 196.477,-67.5283 197.003,-74.5086"/>
</g>
<!-- Node21 -->
<g id="node43" class="node"><title>Node21</title>
<polygon fill="white" stroke="#bfbfbf" points="149.241,-116.5 149.241,-137.5 199.241,-137.5 199.241,-116.5 149.241,-116.5"/>
<text text-anchor="middle" x="174.241" y="-124.5" font-family="Helvetica,sans-Serif" font-size="10.00">iomanip</text>
</g>
<!-- Node6&#45;&gt;Node21 -->
<g id="edge50" class="edge"><title>Node6&#45;&gt;Node21</title>
<path fill="none" stroke="midnightblue" d="M174.241,-232.295C174.241,-213.131 174.241,-172.654 174.241,-147.843"/>
<polygon fill="midnightblue" stroke="midnightblue" points="177.741,-147.679 174.241,-137.679 170.741,-147.679 177.741,-147.679"/>
</g>
<!-- Node7&#45;&gt;Node4 -->
<g id="edge40" class="edge"><title>Node7&#45;&gt;Node4</title>
<path fill="none" stroke="midnightblue" d="M276.958,-183.859C332.244,-180.502 487.852,-169.02 625.132,-137.887"/>
<polygon fill="midnightblue" stroke="midnightblue" points="626.028,-141.272 634.983,-135.611 624.452,-134.452 626.028,-141.272"/>
</g>
<!-- Node7&#45;&gt;Node8 -->
<g id="edge14" class="edge"><title>Node7&#45;&gt;Node8</title>
<path fill="none" stroke="midnightblue" d="M235.606,-177.178C211.35,-167.983 170.616,-152.541 140.729,-141.211"/>
<polygon fill="midnightblue" stroke="midnightblue" points="141.64,-137.814 131.049,-137.542 139.159,-144.359 141.64,-137.814"/>
</g>
<!-- Node9 -->
<g id="node17" class="node"><title>Node9</title>
<a xlink:href="printable_8h.html" target="_top" xlink:title="base/printable.h">
<polygon fill="white" stroke="black" points="531.241,-116.5 531.241,-137.5 617.241,-137.5 617.241,-116.5 531.241,-116.5"/>
<text text-anchor="middle" x="574.241" y="-124.5" font-family="Helvetica,sans-Serif" font-size="10.00">base/printable.h</text>
</a>
</g>
<!-- Node7&#45;&gt;Node9 -->
<g id="edge16" class="edge"><title>Node7&#45;&gt;Node9</title>
<path fill="none" stroke="midnightblue" d="M276.979,-181.58C320.325,-174.378 423.902,-156.902 521.14,-138.169"/>
<polygon fill="midnightblue" stroke="midnightblue" points="521.98,-141.572 531.133,-136.235 520.65,-134.699 521.98,-141.572"/>
</g>
<!-- Node7&#45;&gt;Node11 -->
<g id="edge22" class="edge"><title>Node7&#45;&gt;Node11</title>
<path fill="none" stroke="midnightblue" d="M276.746,-179.227C308.752,-170.215 371.428,-152.569 415.019,-140.295"/>
<polygon fill="midnightblue" stroke="midnightblue" points="416.158,-143.611 424.835,-137.532 414.26,-136.873 416.158,-143.611"/>
</g>
<!-- Node7&#45;&gt;Node17 -->
<g id="edge46" class="edge"><title>Node7&#45;&gt;Node17</title>
<path fill="none" stroke="midnightblue" d="M253.564,-174.295C248.752,-155.045 238.563,-114.289 232.368,-89.5091"/>
<polygon fill="midnightblue" stroke="midnightblue" points="235.731,-88.5317 229.91,-79.6792 228.94,-90.2295 235.731,-88.5317"/>
</g>
<!-- Node18 -->
<g id="node36" class="node"><title>Node18</title>
<polygon fill="white" stroke="#bfbfbf" points="255.241,-116.5 255.241,-137.5 317.241,-137.5 317.241,-116.5 255.241,-116.5"/>
<text text-anchor="middle" x="286.241" y="-124.5" font-family="Helvetica,sans-Serif" font-size="10.00">type_traits</text>
</g>
<!-- Node7&#45;&gt;Node18 -->
<g id="edge36" class="edge"><title>Node7&#45;&gt;Node18</title>
<path fill="none" stroke="midnightblue" d="M261.743,-174.362C265.76,-166.595 271.322,-155.843 276.131,-146.546"/>
<polygon fill="midnightblue" stroke="midnightblue" points="279.287,-148.061 280.773,-137.571 273.07,-144.845 279.287,-148.061"/>
</g>
<!-- Node7&#45;&gt;Node19 -->
<g id="edge38" class="edge"><title>Node7&#45;&gt;Node19</title>
<path fill="none" stroke="midnightblue" d="M235.468,-180.801C201.91,-173.82 133.59,-158.787 67.1802,-138.017"/>
<polygon fill="midnightblue" stroke="midnightblue" points="67.9906,-134.603 57.4003,-134.912 65.8719,-141.274 67.9906,-134.603"/>
</g>
<!-- Node20 -->
<g id="node41" class="node"><title>Node20</title>
<polygon fill="white" stroke="#bfbfbf" points="334.741,-116.5 334.741,-137.5 393.741,-137.5 393.741,-116.5 334.741,-116.5"/>
<text text-anchor="middle" x="364.241" y="-124.5" font-family="Helvetica,sans-Serif" font-size="10.00">stdexcept</text>
</g>
<!-- Node7&#45;&gt;Node20 -->
<g id="edge42" class="edge"><title>Node7&#45;&gt;Node20</title>
<path fill="none" stroke="midnightblue" d="M275.799,-174.497C292.439,-165.56 316.568,-152.602 335.421,-142.477"/>
<polygon fill="midnightblue" stroke="midnightblue" points="337.309,-145.436 344.463,-137.621 333.997,-139.269 337.309,-145.436"/>
</g>
<!-- Node7&#45;&gt;Node21 -->
<g id="edge44" class="edge"><title>Node7&#45;&gt;Node21</title>
<path fill="none" stroke="midnightblue" d="M241.2,-174.362C228.948,-165.696 211.441,-153.313 197.401,-143.382"/>
<polygon fill="midnightblue" stroke="midnightblue" points="199.371,-140.488 189.185,-137.571 195.328,-146.203 199.371,-140.488"/>
</g>
<!-- Node9&#45;&gt;Node3 -->
<g id="edge18" class="edge"><title>Node9&#45;&gt;Node3</title>
<path fill="none" stroke="midnightblue" d="M592.582,-116.362C607.806,-107.532 629.682,-94.844 646.961,-84.8224"/>
<polygon fill="midnightblue" stroke="midnightblue" points="649.121,-87.6155 656.015,-79.5707 645.609,-81.5603 649.121,-87.6155"/>
</g>
<!-- Node10 -->
<g id="node20" class="node"><title>Node10</title>
<polygon fill="white" stroke="#bfbfbf" points="548.241,-58.5 548.241,-79.5 600.241,-79.5 600.241,-58.5 548.241,-58.5"/>
<text text-anchor="middle" x="574.241" y="-66.5" font-family="Helvetica,sans-Serif" font-size="10.00">ostream</text>
</g>
<!-- Node9&#45;&gt;Node10 -->
<g id="edge20" class="edge"><title>Node9&#45;&gt;Node10</title>
<path fill="none" stroke="midnightblue" d="M574.241,-116.362C574.241,-108.922 574.241,-98.7427 574.241,-89.7276"/>
<polygon fill="midnightblue" stroke="midnightblue" points="577.741,-89.5706 574.241,-79.5707 570.741,-89.5707 577.741,-89.5706"/>
</g>
<!-- Node12 -->
<g id="node24" class="node"><title>Node12</title>
<a xlink:href="string_8h.html" target="_top" xlink:title="base/std_ext/string.h">
<polygon fill="white" stroke="black" points="335.241,-58.5 335.241,-79.5 443.241,-79.5 443.241,-58.5 335.241,-58.5"/>
<text text-anchor="middle" x="389.241" y="-66.5" font-family="Helvetica,sans-Serif" font-size="10.00">base/std_ext/string.h</text>
</a>
</g>
<!-- Node11&#45;&gt;Node12 -->
<g id="edge24" class="edge"><title>Node11&#45;&gt;Node12</title>
<path fill="none" stroke="midnightblue" d="M448.851,-116.362C438.149,-107.859 422.945,-95.7785 410.57,-85.9466"/>
<polygon fill="midnightblue" stroke="midnightblue" points="412.552,-83.0511 402.545,-79.5707 408.197,-88.5318 412.552,-83.0511"/>
</g>
<!-- Node16 -->
<g id="node32" class="node"><title>Node16</title>
<polygon fill="white" stroke="#bfbfbf" points="461.241,-58.5 461.241,-79.5 507.241,-79.5 507.241,-58.5 461.241,-58.5"/>
<text text-anchor="middle" x="484.241" y="-66.5" font-family="Helvetica,sans-Serif" font-size="10.00">cstring</text>
</g>
<!-- Node11&#45;&gt;Node16 -->
<g id="edge32" class="edge"><title>Node11&#45;&gt;Node16</title>
<path fill="none" stroke="midnightblue" d="M466.276,-116.362C469.16,-108.758 473.129,-98.294 476.603,-89.1349"/>
<polygon fill="midnightblue" stroke="midnightblue" points="479.957,-90.1619 480.231,-79.5707 473.412,-87.6793 479.957,-90.1619"/>
</g>
<!-- Node11&#45;&gt;Node17 -->
<g id="edge34" class="edge"><title>Node11&#45;&gt;Node17</title>
<path fill="none" stroke="midnightblue" d="M419.684,-116.497C372.861,-104.94 298.79,-86.6589 257.532,-76.4762"/>
<polygon fill="midnightblue" stroke="midnightblue" points="258.334,-73.0692 247.787,-74.0709 256.657,-79.8652 258.334,-73.0692"/>
</g>
<!-- Node13 -->
<g id="node26" class="node"><title>Node13</title>
<polygon fill="white" stroke="#bfbfbf" points="304.741,-0.5 304.741,-21.5 345.741,-21.5 345.741,-0.5 304.741,-0.5"/>
<text text-anchor="middle" x="325.241" y="-8.5" font-family="Helvetica,sans-Serif" font-size="10.00">string</text>
</g>
<!-- Node12&#45;&gt;Node13 -->
<g id="edge26" class="edge"><title>Node12&#45;&gt;Node13</title>
<path fill="none" stroke="midnightblue" d="M377.502,-58.3619C368.3,-50.0226 355.3,-38.2418 344.569,-28.5162"/>
<polygon fill="midnightblue" stroke="midnightblue" points="346.665,-25.6924 336.905,-21.5707 341.964,-30.8793 346.665,-25.6924"/>
</g>
<!-- Node14 -->
<g id="node28" class="node"><title>Node14</title>
<polygon fill="white" stroke="#bfbfbf" points="363.241,-0.5 363.241,-21.5 415.241,-21.5 415.241,-0.5 363.241,-0.5"/>
<text text-anchor="middle" x="389.241" y="-8.5" font-family="Helvetica,sans-Serif" font-size="10.00">sstream</text>
</g>
<!-- Node12&#45;&gt;Node14 -->
<g id="edge28" class="edge"><title>Node12&#45;&gt;Node14</title>
<path fill="none" stroke="midnightblue" d="M389.241,-58.3619C389.241,-50.9219 389.241,-40.7427 389.241,-31.7276"/>
<polygon fill="midnightblue" stroke="midnightblue" points="392.741,-31.5706 389.241,-21.5707 385.741,-31.5707 392.741,-31.5706"/>
</g>
<!-- Node15 -->
<g id="node30" class="node"><title>Node15</title>
<polygon fill="white" stroke="#bfbfbf" points="433.241,-0.5 433.241,-21.5 489.241,-21.5 489.241,-0.5 433.241,-0.5"/>
<text text-anchor="middle" x="461.241" y="-8.5" font-family="Helvetica,sans-Serif" font-size="10.00">algorithm</text>
</g>
<!-- Node12&#45;&gt;Node15 -->
<g id="edge30" class="edge"><title>Node12&#45;&gt;Node15</title>
<path fill="none" stroke="midnightblue" d="M402.446,-58.3619C413.002,-49.859 427.998,-37.7785 440.203,-27.9466"/>
<polygon fill="midnightblue" stroke="midnightblue" points="442.526,-30.5696 448.118,-21.5707 438.135,-25.1183 442.526,-30.5696"/>
</g>
</g>
</svg>
