<?xml version="1.0" encoding="UTF-8" standalone="no"?>
<!DOCTYPE svg PUBLIC "-//W3C//DTD SVG 1.1//EN"
 "http://www.w3.org/Graphics/SVG/1.1/DTD/svg11.dtd">
<!-- Generated by graphviz version 2.26.3 (20100126.1600)
 -->
<!-- Title: src/analysis/physics/SlowcontrolManager.h Pages: 1 -->
<svg width="888pt" height="392pt"
 viewBox="0.00 0.00 888.00 392.00" xmlns="http://www.w3.org/2000/svg" xmlns:xlink="http://www.w3.org/1999/xlink">
<g id="graph1" class="graph" transform="scale(1 1) rotate(0) translate(4 388)">
<title>src/analysis/physics/SlowcontrolManager.h</title>
<polygon fill="white" stroke="white" points="-4,5 -4,-388 885,-388 885,5 -4,5"/>
<!-- Node1 -->
<g id="node1" class="node"><title>Node1</title>
<polygon fill="#bfbfbf" stroke="black" points="338,-349 338,-383 454,-383 454,-349 338,-349"/>
<text text-anchor="start" x="346" y="-370" font-family="Helvetica,sans-Serif" font-size="10.00">src/analysis/physics</text>
<text text-anchor="middle" x="396" y="-357" font-family="Helvetica,sans-Serif" font-size="10.00">/SlowcontrolManager.h</text>
</g>
<!-- Node2 -->
<g id="node3" class="node"><title>Node2</title>
<a xlink:href="_t_slow_control_8h.html" target="_top" xlink:title="tree/TSlowControl.h">
<polygon fill="white" stroke="black" points="229,-290.5 229,-311.5 333,-311.5 333,-290.5 229,-290.5"/>
<text text-anchor="middle" x="281" y="-298.5" font-family="Helvetica,sans-Serif" font-size="10.00">tree/TSlowControl.h</text>
</a>
</g>
<!-- Node1&#45;&gt;Node2 -->
<g id="edge2" class="edge"><title>Node1&#45;&gt;Node2</title>
<path fill="none" stroke="midnightblue" d="M365.785,-348.922C348.154,-338.957 326.067,-326.473 308.857,-316.745"/>
<polygon fill="midnightblue" stroke="midnightblue" points="310.285,-313.532 299.857,-311.658 306.841,-319.626 310.285,-313.532"/>
</g>
<!-- Node21 -->
<g id="node47" class="node"><title>Node21</title>
<a xlink:href="_slowcontrol_8h.html" target="_top" xlink:title="analysis/data/Slowcontrol.h">
<polygon fill="white" stroke="black" points="-0.5,-174.5 -0.5,-195.5 136.5,-195.5 136.5,-174.5 -0.5,-174.5"/>
<text text-anchor="middle" x="68" y="-182.5" font-family="Helvetica,sans-Serif" font-size="10.00">analysis/data/Slowcontrol.h</text>
</a>
</g>
<!-- Node1&#45;&gt;Node21 -->
<g id="edge52" class="edge"><title>Node1&#45;&gt;Node21</title>
<path fill="none" stroke="midnightblue" d="M337.824,-354.322C302.376,-345.735 256.947,-332.034 220,-312 164.698,-282.013 110.813,-230.029 84.5606,-202.8"/>
<polygon fill="midnightblue" stroke="midnightblue" points="87.0483,-200.337 77.6194,-195.505 81.9772,-205.162 87.0483,-200.337"/>
</g>
<!-- Node22 -->
<g id="node51" class="node"><title>Node22</title>
<polygon fill="white" stroke="#bfbfbf" points="350.5,-290.5 350.5,-311.5 385.5,-311.5 385.5,-290.5 350.5,-290.5"/>
<text text-anchor="middle" x="368" y="-298.5" font-family="Helvetica,sans-Serif" font-size="10.00">map</text>
</g>
<!-- Node1&#45;&gt;Node22 -->
<g id="edge58" class="edge"><title>Node1&#45;&gt;Node22</title>
<path fill="none" stroke="midnightblue" d="M388.643,-348.922C384.97,-340.395 380.503,-330.025 376.665,-321.115"/>
<polygon fill="midnightblue" stroke="midnightblue" points="379.845,-319.652 372.675,-311.852 373.417,-322.421 379.845,-319.652"/>
</g>
<!-- Node23 -->
<g id="node53" class="node"><title>Node23</title>
<polygon fill="white" stroke="#bfbfbf" points="402.5,-290.5 402.5,-311.5 445.5,-311.5 445.5,-290.5 402.5,-290.5"/>
<text text-anchor="middle" x="424" y="-298.5" font-family="Helvetica,sans-Serif" font-size="10.00">queue</text>
</g>
<!-- Node1&#45;&gt;Node23 -->
<g id="edge60" class="edge"><title>Node1&#45;&gt;Node23</title>
<path fill="none" stroke="midnightblue" d="M403.357,-348.922C407.03,-340.395 411.497,-330.025 415.335,-321.115"/>
<polygon fill="midnightblue" stroke="midnightblue" points="418.583,-322.421 419.325,-311.852 412.155,-319.652 418.583,-322.421"/>
</g>
<!-- Node24 -->
<g id="node55" class="node"><title>Node24</title>
<polygon fill="white" stroke="#bfbfbf" points="463,-290.5 463,-311.5 515,-311.5 515,-290.5 463,-290.5"/>
<text text-anchor="middle" x="489" y="-298.5" font-family="Helvetica,sans-Serif" font-size="10.00">memory</text>
</g>
<!-- Node1&#45;&gt;Node24 -->
<g id="edge62" class="edge"><title>Node1&#45;&gt;Node24</title>
<path fill="none" stroke="midnightblue" d="M420.435,-348.922C434.297,-339.233 451.565,-327.165 465.303,-317.562"/>
<polygon fill="midnightblue" stroke="midnightblue" points="467.559,-320.256 473.75,-311.658 463.549,-314.518 467.559,-320.256"/>
</g>
<!-- Node25 -->
<g id="node57" class="node"><title>Node25</title>
<polygon fill="white" stroke="#bfbfbf" points="532.5,-290.5 532.5,-311.5 561.5,-311.5 561.5,-290.5 532.5,-290.5"/>
<text text-anchor="middle" x="547" y="-298.5" font-family="Helvetica,sans-Serif" font-size="10.00">list</text>
</g>
<!-- Node1&#45;&gt;Node25 -->
<g id="edge64" class="edge"><title>Node1&#45;&gt;Node25</title>
<path fill="none" stroke="midnightblue" d="M437.719,-348.98C460.685,-339.479 489.863,-327.196 522.999,-312.343"/>
<polygon fill="midnightblue" stroke="midnightblue" points="524.768,-315.385 532.447,-308.086 521.892,-309.003 524.768,-315.385"/>
</g>
<!-- Node3 -->
<g id="node5" class="node"><title>Node3</title>
<a xlink:href="_t_data_record_8h.html" target="_top" xlink:title="TDataRecord.h">
<polygon fill="white" stroke="black" points="310.5,-232.5 310.5,-253.5 393.5,-253.5 393.5,-232.5 310.5,-232.5"/>
<text text-anchor="middle" x="352" y="-240.5" font-family="Helvetica,sans-Serif" font-size="10.00">TDataRecord.h</text>
</a>
</g>
<!-- Node2&#45;&gt;Node3 -->
<g id="edge4" class="edge"><title>Node2&#45;&gt;Node3</title>
<path fill="none" stroke="midnightblue" d="M294.022,-290.362C304.431,-281.859 319.219,-269.779 331.255,-259.947"/>
<polygon fill="midnightblue" stroke="midnightblue" points="333.53,-262.608 339.06,-253.571 329.101,-257.187 333.53,-262.608"/>
</g>
<!-- Node9 -->
<g id="node17" class="node"><title>Node9</title>
<a xlink:href="time_8h.html" target="_top" xlink:title="base/std_ext/time.h">
<polygon fill="white" stroke="black" points="642.5,-116.5 642.5,-137.5 745.5,-137.5 745.5,-116.5 642.5,-116.5"/>
<text text-anchor="middle" x="694" y="-124.5" font-family="Helvetica,sans-Serif" font-size="10.00">base/std_ext/time.h</text>
</a>
</g>
<!-- Node2&#45;&gt;Node9 -->
<g id="edge48" class="edge"><title>Node2&#45;&gt;Node9</title>
<path fill="none" stroke="midnightblue" d="M308.401,-290.384C332.932,-280.873 369.878,-266.533 402,-254 467.816,-228.321 485.212,-224.172 550,-196 589.971,-178.619 635.161,-156.561 664.082,-142.127"/>
<polygon fill="midnightblue" stroke="midnightblue" points="665.862,-145.15 673.236,-137.542 662.727,-138.891 665.862,-145.15"/>
</g>
<!-- Node17 -->
<g id="node33" class="node"><title>Node17</title>
<polygon fill="white" stroke="#bfbfbf" points="109,-116.5 109,-137.5 147,-137.5 147,-116.5 109,-116.5"/>
<text text-anchor="middle" x="128" y="-124.5" font-family="Helvetica,sans-Serif" font-size="10.00">tuple</text>
</g>
<!-- Node2&#45;&gt;Node17 -->
<g id="edge50" class="edge"><title>Node2&#45;&gt;Node17</title>
<path fill="none" stroke="midnightblue" d="M271.659,-290.377C246.432,-261.688 176.668,-182.348 144.562,-145.835"/>
<polygon fill="midnightblue" stroke="midnightblue" points="146.841,-143.126 137.609,-137.928 141.584,-147.749 146.841,-143.126"/>
</g>
<!-- Node4 -->
<g id="node7" class="node"><title>Node4</title>
<a xlink:href="_t_i_d_8h.html" target="_top" xlink:title="TID.h">
<polygon fill="white" stroke="black" points="331.5,-174.5 331.5,-195.5 372.5,-195.5 372.5,-174.5 331.5,-174.5"/>
<text text-anchor="middle" x="352" y="-182.5" font-family="Helvetica,sans-Serif" font-size="10.00">TID.h</text>
</a>
</g>
<!-- Node3&#45;&gt;Node4 -->
<g id="edge6" class="edge"><title>Node3&#45;&gt;Node4</title>
<path fill="none" stroke="midnightblue" d="M352,-232.362C352,-224.922 352,-214.743 352,-205.728"/>
<polygon fill="midnightblue" stroke="midnightblue" points="355.5,-205.571 352,-195.571 348.5,-205.571 355.5,-205.571"/>
</g>
<!-- Node5 -->
<g id="node9" class="node"><title>Node5</title>
<polygon fill="white" stroke="#bfbfbf" points="531,-116.5 531,-137.5 587,-137.5 587,-116.5 531,-116.5"/>
<text text-anchor="middle" x="559" y="-124.5" font-family="Helvetica,sans-Serif" font-size="10.00">Rtypes.h</text>
</g>
<!-- Node3&#45;&gt;Node5 -->
<g id="edge42" class="edge"><title>Node3&#45;&gt;Node5</title>
<path fill="none" stroke="midnightblue" d="M371.103,-232.295C407.935,-211.655 488.888,-166.29 531.511,-142.404"/>
<polygon fill="midnightblue" stroke="midnightblue" points="533.23,-145.454 540.242,-137.512 529.807,-139.347 533.23,-145.454"/>
</g>
<!-- Node15 -->
<g id="node29" class="node"><title>Node15</title>
<polygon fill="white" stroke="#bfbfbf" points="594.5,-58.5 594.5,-79.5 635.5,-79.5 635.5,-58.5 594.5,-58.5"/>
<text text-anchor="middle" x="615" y="-66.5" font-family="Helvetica,sans-Serif" font-size="10.00">ctime</text>
</g>
<!-- Node3&#45;&gt;Node15 -->
<g id="edge46" class="edge"><title>Node3&#45;&gt;Node15</title>
<path fill="none" stroke="midnightblue" d="M393.639,-236.659C448.32,-226.096 543.518,-199.612 596,-138 607.428,-124.584 612.025,-104.851 613.853,-89.9213"/>
<polygon fill="midnightblue" stroke="midnightblue" points="617.369,-89.8974 614.777,-79.6243 610.397,-89.2712 617.369,-89.8974"/>
</g>
<!-- Node20 -->
<g id="node39" class="node"><title>Node20</title>
<polygon fill="white" stroke="#bfbfbf" points="165,-116.5 165,-137.5 215,-137.5 215,-116.5 165,-116.5"/>
<text text-anchor="middle" x="190" y="-124.5" font-family="Helvetica,sans-Serif" font-size="10.00">iomanip</text>
</g>
<!-- Node3&#45;&gt;Node20 -->
<g id="edge44" class="edge"><title>Node3&#45;&gt;Node20</title>
<path fill="none" stroke="midnightblue" d="M337.05,-232.295C308.72,-212.009 247.036,-167.84 213.257,-143.653"/>
<polygon fill="midnightblue" stroke="midnightblue" points="215.082,-140.655 204.914,-137.679 211.007,-146.347 215.082,-140.655"/>
</g>
<!-- Node4&#45;&gt;Node5 -->
<g id="edge8" class="edge"><title>Node4&#45;&gt;Node5</title>
<path fill="none" stroke="midnightblue" d="M372.605,-179.227C407.233,-169.524 477.589,-149.811 521.267,-137.573"/>
<polygon fill="midnightblue" stroke="midnightblue" points="522.274,-140.925 530.959,-134.857 520.385,-134.185 522.274,-140.925"/>
</g>
<!-- Node6 -->
<g id="node11" class="node"><title>Node6</title>
<a xlink:href="printable_8h.html" target="_top" xlink:title="base/printable.h">
<polygon fill="white" stroke="black" points="309,-116.5 309,-137.5 395,-137.5 395,-116.5 309,-116.5"/>
<text text-anchor="middle" x="352" y="-124.5" font-family="Helvetica,sans-Serif" font-size="10.00">base/printable.h</text>
</a>
</g>
<!-- Node4&#45;&gt;Node6 -->
<g id="edge10" class="edge"><title>Node4&#45;&gt;Node6</title>
<path fill="none" stroke="midnightblue" d="M352,-174.362C352,-166.922 352,-156.743 352,-147.728"/>
<polygon fill="midnightblue" stroke="midnightblue" points="355.5,-147.571 352,-137.571 348.5,-147.571 355.5,-147.571"/>
</g>
<!-- Node4&#45;&gt;Node9 -->
<g id="edge16" class="edge"><title>Node4&#45;&gt;Node9</title>
<path fill="none" stroke="midnightblue" d="M372.623,-181.502C423.001,-172.959 553.915,-150.757 632.238,-137.474"/>
<polygon fill="midnightblue" stroke="midnightblue" points="633.183,-140.864 642.457,-135.741 632.013,-133.963 633.183,-140.864"/>
</g>
<!-- Node4&#45;&gt;Node15 -->
<g id="edge40" class="edge"><title>Node4&#45;&gt;Node15</title>
<path fill="none" stroke="midnightblue" d="M372.585,-178.956C398.953,-170.925 445.807,-155.675 484,-138 501.711,-129.804 504.84,-125.294 522,-116 542.861,-104.702 566.754,-92.6453 585.098,-83.5723"/>
<polygon fill="midnightblue" stroke="midnightblue" points="586.715,-86.6775 594.14,-79.1195 583.623,-80.3977 586.715,-86.6775"/>
</g>
<!-- Node16 -->
<g id="node31" class="node"><title>Node16</title>
<polygon fill="white" stroke="#bfbfbf" points="413,-116.5 413,-137.5 475,-137.5 475,-116.5 413,-116.5"/>
<text text-anchor="middle" x="444" y="-124.5" font-family="Helvetica,sans-Serif" font-size="10.00">type_traits</text>
</g>
<!-- Node4&#45;&gt;Node16 -->
<g id="edge30" class="edge"><title>Node4&#45;&gt;Node16</title>
<path fill="none" stroke="midnightblue" d="M368.874,-174.362C382.751,-165.614 402.634,-153.079 418.46,-143.101"/>
<polygon fill="midnightblue" stroke="midnightblue" points="420.64,-145.864 427.233,-137.571 416.907,-139.943 420.64,-145.864"/>
</g>
<!-- Node4&#45;&gt;Node17 -->
<g id="edge32" class="edge"><title>Node4&#45;&gt;Node17</title>
<path fill="none" stroke="midnightblue" d="M331.429,-181.05C297.064,-174.243 225.713,-159.228 156.85,-137.971"/>
<polygon fill="midnightblue" stroke="midnightblue" points="157.743,-134.583 147.154,-134.93 155.648,-141.262 157.743,-134.583"/>
</g>
<!-- Node18 -->
<g id="node35" class="node"><title>Node18</title>
<polygon fill="white" stroke="#bfbfbf" points="45,-116.5 45,-137.5 91,-137.5 91,-116.5 45,-116.5"/>
<text text-anchor="middle" x="68" y="-124.5" font-family="Helvetica,sans-Serif" font-size="10.00">cstdint</text>
</g>
<!-- Node4&#45;&gt;Node18 -->
<g id="edge34" class="edge"><title>Node4&#45;&gt;Node18</title>
<path fill="none" stroke="midnightblue" d="M331.193,-182.176C289.307,-176.268 191.746,-161.388 101.168,-138.037"/>
<polygon fill="midnightblue" stroke="midnightblue" points="101.858,-134.6 91.2973,-135.451 100.084,-141.371 101.858,-134.6"/>
</g>
<!-- Node19 -->
<g id="node37" class="node"><title>Node19</title>
<polygon fill="white" stroke="#bfbfbf" points="232.5,-116.5 232.5,-137.5 291.5,-137.5 291.5,-116.5 232.5,-116.5"/>
<text text-anchor="middle" x="262" y="-124.5" font-family="Helvetica,sans-Serif" font-size="10.00">stdexcept</text>
</g>
<!-- Node4&#45;&gt;Node19 -->
<g id="edge36" class="edge"><title>Node4&#45;&gt;Node19</title>
<path fill="none" stroke="midnightblue" d="M335.493,-174.362C321.918,-165.614 302.467,-153.079 286.985,-143.101"/>
<polygon fill="midnightblue" stroke="midnightblue" points="288.704,-140.046 278.403,-137.571 284.912,-145.93 288.704,-140.046"/>
</g>
<!-- Node4&#45;&gt;Node20 -->
<g id="edge38" class="edge"><title>Node4&#45;&gt;Node20</title>
<path fill="none" stroke="midnightblue" d="M331.483,-177.654C304.631,-168.041 257.178,-151.052 224.692,-139.42"/>
<polygon fill="midnightblue" stroke="midnightblue" points="225.724,-136.072 215.129,-135.997 223.364,-142.663 225.724,-136.072"/>
</g>
<!-- Node7 -->
<g id="node13" class="node"><title>Node7</title>
<polygon fill="white" stroke="#bfbfbf" points="130,-58.5 130,-79.5 174,-79.5 174,-58.5 130,-58.5"/>
<text text-anchor="middle" x="152" y="-66.5" font-family="Helvetica,sans-Serif" font-size="10.00">vector</text>
</g>
<!-- Node6&#45;&gt;Node7 -->
<g id="edge12" class="edge"><title>Node6&#45;&gt;Node7</title>
<path fill="none" stroke="midnightblue" d="M315.782,-116.497C278.181,-105.592 219.932,-88.7004 183.981,-78.2744"/>
<polygon fill="midnightblue" stroke="midnightblue" points="184.606,-74.8117 174.027,-75.3879 182.657,-81.5347 184.606,-74.8117"/>
</g>
<!-- Node8 -->
<g id="node15" class="node"><title>Node8</title>
<polygon fill="white" stroke="#bfbfbf" points="326,-58.5 326,-79.5 378,-79.5 378,-58.5 326,-58.5"/>
<text text-anchor="middle" x="352" y="-66.5" font-family="Helvetica,sans-Serif" font-size="10.00">ostream</text>
</g>
<!-- Node6&#45;&gt;Node8 -->
<g id="edge14" class="edge"><title>Node6&#45;&gt;Node8</title>
<path fill="none" stroke="midnightblue" d="M352,-116.362C352,-108.922 352,-98.7427 352,-89.7276"/>
<polygon fill="midnightblue" stroke="midnightblue" points="355.5,-89.5706 352,-79.5707 348.5,-89.5707 355.5,-89.5706"/>
</g>
<!-- Node10 -->
<g id="node19" class="node"><title>Node10</title>
<a xlink:href="string_8h.html" target="_top" xlink:title="base/std_ext/string.h">
<polygon fill="white" stroke="black" points="726,-58.5 726,-79.5 834,-79.5 834,-58.5 726,-58.5"/>
<text text-anchor="middle" x="780" y="-66.5" font-family="Helvetica,sans-Serif" font-size="10.00">base/std_ext/string.h</text>
</a>
</g>
<!-- Node9&#45;&gt;Node10 -->
<g id="edge18" class="edge"><title>Node9&#45;&gt;Node10</title>
<path fill="none" stroke="midnightblue" d="M709.774,-116.362C722.624,-107.696 740.985,-95.3126 755.71,-85.3819"/>
<polygon fill="midnightblue" stroke="midnightblue" points="757.993,-88.0639 764.326,-79.5707 754.079,-82.2604 757.993,-88.0639"/>
</g>
<!-- Node14 -->
<g id="node27" class="node"><title>Node14</title>
<polygon fill="white" stroke="#bfbfbf" points="662,-58.5 662,-79.5 708,-79.5 708,-58.5 662,-58.5"/>
<text text-anchor="middle" x="685" y="-66.5" font-family="Helvetica,sans-Serif" font-size="10.00">cstring</text>
</g>
<!-- Node9&#45;&gt;Node14 -->
<g id="edge26" class="edge"><title>Node9&#45;&gt;Node14</title>
<path fill="none" stroke="midnightblue" d="M692.349,-116.362C691.195,-108.922 689.615,-98.7427 688.216,-89.7276"/>
<polygon fill="midnightblue" stroke="midnightblue" points="691.632,-88.9157 686.64,-79.5707 684.715,-89.9891 691.632,-88.9157"/>
</g>
<!-- Node9&#45;&gt;Node15 -->
<g id="edge28" class="edge"><title>Node9&#45;&gt;Node15</title>
<path fill="none" stroke="midnightblue" d="M679.51,-116.362C667.817,-107.777 651.157,-95.5459 637.697,-85.6636"/>
<polygon fill="midnightblue" stroke="midnightblue" points="639.53,-82.6675 629.398,-79.5707 635.387,-88.31 639.53,-82.6675"/>
</g>
<!-- Node11 -->
<g id="node21" class="node"><title>Node11</title>
<polygon fill="white" stroke="#bfbfbf" points="695.5,-0.5 695.5,-21.5 736.5,-21.5 736.5,-0.5 695.5,-0.5"/>
<text text-anchor="middle" x="716" y="-8.5" font-family="Helvetica,sans-Serif" font-size="10.00">string</text>
</g>
<!-- Node10&#45;&gt;Node11 -->
<g id="edge20" class="edge"><title>Node10&#45;&gt;Node11</title>
<path fill="none" stroke="midnightblue" d="M768.261,-58.3619C759.059,-50.0226 746.06,-38.2418 735.328,-28.5162"/>
<polygon fill="midnightblue" stroke="midnightblue" points="737.424,-25.6924 727.664,-21.5707 732.724,-30.8793 737.424,-25.6924"/>
</g>
<!-- Node12 -->
<g id="node23" class="node"><title>Node12</title>
<polygon fill="white" stroke="#bfbfbf" points="754,-0.5 754,-21.5 806,-21.5 806,-0.5 754,-0.5"/>
<text text-anchor="middle" x="780" y="-8.5" font-family="Helvetica,sans-Serif" font-size="10.00">sstream</text>
</g>
<!-- Node10&#45;&gt;Node12 -->
<g id="edge22" class="edge"><title>Node10&#45;&gt;Node12</title>
<path fill="none" stroke="midnightblue" d="M780,-58.3619C780,-50.9219 780,-40.7427 780,-31.7276"/>
<polygon fill="midnightblue" stroke="midnightblue" points="783.5,-31.5706 780,-21.5707 776.5,-31.5707 783.5,-31.5706"/>
</g>
<!-- Node13 -->
<g id="node25" class="node"><title>Node13</title>
<polygon fill="white" stroke="#bfbfbf" points="824,-0.5 824,-21.5 880,-21.5 880,-0.5 824,-0.5"/>
<text text-anchor="middle" x="852" y="-8.5" font-family="Helvetica,sans-Serif" font-size="10.00">algorithm</text>
</g>
<!-- Node10&#45;&gt;Node13 -->
<g id="edge24" class="edge"><title>Node10&#45;&gt;Node13</title>
<path fill="none" stroke="midnightblue" d="M793.206,-58.3619C803.761,-49.859 818.758,-37.7785 830.963,-27.9466"/>
<polygon fill="midnightblue" stroke="midnightblue" points="833.286,-30.5696 838.878,-21.5707 828.895,-25.1183 833.286,-30.5696"/>
</g>
<!-- Node21&#45;&gt;Node7 -->
<g id="edge54" class="edge"><title>Node21&#45;&gt;Node7</title>
<path fill="none" stroke="midnightblue" d="M56.3019,-174.162C42.5584,-160.083 23.1612,-135.054 36,-116 54.626,-88.3565 92.5821,-76.966 120.014,-72.2761"/>
<polygon fill="midnightblue" stroke="midnightblue" points="120.579,-75.7306 129.95,-70.7868 119.542,-68.8079 120.579,-75.7306"/>
</g>
<!-- Node21&#45;&gt;Node18 -->
<g id="edge56" class="edge"><title>Node21&#45;&gt;Node18</title>
<path fill="none" stroke="midnightblue" d="M68,-174.362C68,-166.922 68,-156.743 68,-147.728"/>
<polygon fill="midnightblue" stroke="midnightblue" points="71.5001,-147.571 68,-137.571 64.5001,-147.571 71.5001,-147.571"/>
</g>
</g>
</svg>
