<?xml version="1.0" encoding="UTF-8" standalone="no"?>
<!DOCTYPE svg PUBLIC "-//W3C//DTD SVG 1.1//EN"
 "http://www.w3.org/Graphics/SVG/1.1/DTD/svg11.dtd">
<!-- Generated by graphviz version 2.26.3 (20100126.1600)
 -->
<!-- Title: src/analysis/data/Slowcontrol.cc Pages: 1 -->
<svg width="849pt" height="378pt"
 viewBox="0.00 0.00 849.00 378.00" xmlns="http://www.w3.org/2000/svg" xmlns:xlink="http://www.w3.org/1999/xlink">
<g id="graph1" class="graph" transform="scale(1 1) rotate(0) translate(4 374)">
<title>src/analysis/data/Slowcontrol.cc</title>
<polygon fill="white" stroke="white" points="-4,5 -4,-374 846,-374 846,5 -4,5"/>
<!-- Node1 -->
<g id="node1" class="node"><title>Node1</title>
<polygon fill="#bfbfbf" stroke="black" points="549,-348.5 549,-369.5 707,-369.5 707,-348.5 549,-348.5"/>
<text text-anchor="middle" x="628" y="-356.5" font-family="Helvetica,sans-Serif" font-size="10.00">src/analysis/data/Slowcontrol.cc</text>
</g>
<!-- Node2 -->
<g id="node3" class="node"><title>Node2</title>
<a xlink:href="_slowcontrol_8h.html" target="_top" xlink:title="Slowcontrol.h">
<polygon fill="white" stroke="black" points="0,-174.5 0,-195.5 76,-195.5 76,-174.5 0,-174.5"/>
<text text-anchor="middle" x="38" y="-182.5" font-family="Helvetica,sans-Serif" font-size="10.00">Slowcontrol.h</text>
</a>
</g>
<!-- Node1&#45;&gt;Node2 -->
<g id="edge2" class="edge"><title>Node1&#45;&gt;Node2</title>
<path fill="none" stroke="midnightblue" d="M574.634,-348.456C532.401,-339.748 472.07,-326.5 420,-312 292.3,-276.438 144.132,-223.857 75.9252,-198.997"/>
<polygon fill="midnightblue" stroke="midnightblue" points="77.0479,-195.681 66.454,-195.536 74.645,-202.256 77.0479,-195.681"/>
</g>
<!-- Node5 -->
<g id="node9" class="node"><title>Node5</title>
<a xlink:href="memory_8h.html" target="_top" xlink:title="base/std_ext/memory.h">
<polygon fill="white" stroke="black" points="612.5,-290.5 612.5,-311.5 731.5,-311.5 731.5,-290.5 612.5,-290.5"/>
<text text-anchor="middle" x="672" y="-298.5" font-family="Helvetica,sans-Serif" font-size="10.00">base/std_ext/memory.h</text>
</a>
</g>
<!-- Node1&#45;&gt;Node5 -->
<g id="edge8" class="edge"><title>Node1&#45;&gt;Node5</title>
<path fill="none" stroke="midnightblue" d="M636.07,-348.362C642.149,-340.35 650.637,-329.161 657.837,-319.67"/>
<polygon fill="midnightblue" stroke="midnightblue" points="660.725,-321.653 663.981,-311.571 655.149,-317.422 660.725,-321.653"/>
</g>
<!-- Node8 -->
<g id="node15" class="node"><title>Node8</title>
<a xlink:href="_t_slow_control_8h.html" target="_top" xlink:title="tree/TSlowControl.h">
<polygon fill="white" stroke="black" points="429,-290.5 429,-311.5 533,-311.5 533,-290.5 429,-290.5"/>
<text text-anchor="middle" x="481" y="-298.5" font-family="Helvetica,sans-Serif" font-size="10.00">tree/TSlowControl.h</text>
</a>
</g>
<!-- Node1&#45;&gt;Node8 -->
<g id="edge14" class="edge"><title>Node1&#45;&gt;Node8</title>
<path fill="none" stroke="midnightblue" d="M601.379,-348.497C577.903,-339.234 543.475,-325.65 517.444,-315.379"/>
<polygon fill="midnightblue" stroke="midnightblue" points="518.506,-312.036 507.919,-311.621 515.937,-318.547 518.506,-312.036"/>
</g>
<!-- Node23 -->
<g id="node47" class="node"><title>Node23</title>
<polygon fill="white" stroke="#bfbfbf" points="656.5,-116.5 656.5,-137.5 715.5,-137.5 715.5,-116.5 656.5,-116.5"/>
<text text-anchor="middle" x="686" y="-124.5" font-family="Helvetica,sans-Serif" font-size="10.00">stdexcept</text>
</g>
<!-- Node1&#45;&gt;Node23 -->
<g id="edge66" class="edge"><title>Node1&#45;&gt;Node23</title>
<path fill="none" stroke="midnightblue" d="M620.716,-348.372C614.901,-339.201 607.214,-325.362 604,-312 601.713,-302.493 602.611,-299.679 604,-290 607.816,-263.41 610.054,-256.531 621,-232 635.167,-200.251 657.468,-166.592 671.913,-146.183"/>
<polygon fill="midnightblue" stroke="midnightblue" points="674.949,-147.956 677.94,-137.793 669.263,-143.873 674.949,-147.956"/>
</g>
<!-- Node25 -->
<g id="node57" class="node"><title>Node25</title>
<polygon fill="white" stroke="#bfbfbf" points="748.5,-290.5 748.5,-311.5 783.5,-311.5 783.5,-290.5 748.5,-290.5"/>
<text text-anchor="middle" x="766" y="-298.5" font-family="Helvetica,sans-Serif" font-size="10.00">map</text>
</g>
<!-- Node1&#45;&gt;Node25 -->
<g id="edge64" class="edge"><title>Node1&#45;&gt;Node25</title>
<path fill="none" stroke="midnightblue" d="M653.363,-348.381C674.207,-339.649 704.735,-326.848 739.085,-312.379"/>
<polygon fill="midnightblue" stroke="midnightblue" points="740.525,-315.571 748.381,-308.462 737.806,-309.12 740.525,-315.571"/>
</g>
<!-- Node26 -->
<g id="node60" class="node"><title>Node26</title>
<polygon fill="white" stroke="#bfbfbf" points="801,-290.5 801,-311.5 841,-311.5 841,-290.5 801,-290.5"/>
<text text-anchor="middle" x="821" y="-298.5" font-family="Helvetica,sans-Serif" font-size="10.00">limits</text>
</g>
<!-- Node1&#45;&gt;Node26 -->
<g id="edge68" class="edge"><title>Node1&#45;&gt;Node26</title>
<path fill="none" stroke="midnightblue" d="M668.389,-348.435C699.61,-340.042 744.072,-327.603 791.053,-312.147"/>
<polygon fill="midnightblue" stroke="midnightblue" points="792.409,-315.385 800.796,-308.91 790.202,-308.742 792.409,-315.385"/>
</g>
<!-- Node3 -->
<g id="node5" class="node"><title>Node3</title>
<polygon fill="white" stroke="#bfbfbf" points="65,-58.5 65,-79.5 109,-79.5 109,-58.5 65,-58.5"/>
<text text-anchor="middle" x="87" y="-66.5" font-family="Helvetica,sans-Serif" font-size="10.00">vector</text>
</g>
<!-- Node2&#45;&gt;Node3 -->
<g id="edge4" class="edge"><title>Node2&#45;&gt;Node3</title>
<path fill="none" stroke="midnightblue" d="M26.7243,-174.425C13.4375,-160.631 -5.46651,-135.91 6,-116 16.6115,-97.5743 37.5205,-85.7084 55.4363,-78.5089"/>
<polygon fill="midnightblue" stroke="midnightblue" points="56.8295,-81.7255 64.9972,-74.9772 54.4039,-75.1591 56.8295,-81.7255"/>
</g>
<!-- Node4 -->
<g id="node7" class="node"><title>Node4</title>
<polygon fill="white" stroke="#bfbfbf" points="15,-116.5 15,-137.5 61,-137.5 61,-116.5 15,-116.5"/>
<text text-anchor="middle" x="38" y="-124.5" font-family="Helvetica,sans-Serif" font-size="10.00">cstdint</text>
</g>
<!-- Node2&#45;&gt;Node4 -->
<g id="edge6" class="edge"><title>Node2&#45;&gt;Node4</title>
<path fill="none" stroke="midnightblue" d="M38,-174.362C38,-166.922 38,-156.743 38,-147.728"/>
<polygon fill="midnightblue" stroke="midnightblue" points="41.5001,-147.571 38,-137.571 34.5001,-147.571 41.5001,-147.571"/>
</g>
<!-- Node6 -->
<g id="node11" class="node"><title>Node6</title>
<polygon fill="white" stroke="#bfbfbf" points="630,-232.5 630,-253.5 682,-253.5 682,-232.5 630,-232.5"/>
<text text-anchor="middle" x="656" y="-240.5" font-family="Helvetica,sans-Serif" font-size="10.00">memory</text>
</g>
<!-- Node5&#45;&gt;Node6 -->
<g id="edge10" class="edge"><title>Node5&#45;&gt;Node6</title>
<path fill="none" stroke="midnightblue" d="M669.065,-290.362C666.99,-282.84 664.143,-272.519 661.636,-263.431"/>
<polygon fill="midnightblue" stroke="midnightblue" points="664.949,-262.28 658.916,-253.571 658.201,-264.141 664.949,-262.28"/>
</g>
<!-- Node7 -->
<g id="node13" class="node"><title>Node7</title>
<polygon fill="white" stroke="#bfbfbf" points="699.5,-232.5 699.5,-253.5 728.5,-253.5 728.5,-232.5 699.5,-232.5"/>
<text text-anchor="middle" x="714" y="-240.5" font-family="Helvetica,sans-Serif" font-size="10.00">list</text>
</g>
<!-- Node5&#45;&gt;Node7 -->
<g id="edge12" class="edge"><title>Node5&#45;&gt;Node7</title>
<path fill="none" stroke="midnightblue" d="M679.703,-290.362C685.446,-282.431 693.443,-271.389 700.27,-261.961"/>
<polygon fill="midnightblue" stroke="midnightblue" points="703.315,-263.723 706.345,-253.571 697.645,-259.617 703.315,-263.723"/>
</g>
<!-- Node9 -->
<g id="node17" class="node"><title>Node9</title>
<a xlink:href="_t_data_record_8h.html" target="_top" xlink:title="TDataRecord.h">
<polygon fill="white" stroke="black" points="414.5,-232.5 414.5,-253.5 497.5,-253.5 497.5,-232.5 414.5,-232.5"/>
<text text-anchor="middle" x="456" y="-240.5" font-family="Helvetica,sans-Serif" font-size="10.00">TDataRecord.h</text>
</a>
</g>
<!-- Node8&#45;&gt;Node9 -->
<g id="edge16" class="edge"><title>Node8&#45;&gt;Node9</title>
<path fill="none" stroke="midnightblue" d="M476.415,-290.362C473.102,-282.677 468.53,-272.069 464.552,-262.84"/>
<polygon fill="midnightblue" stroke="midnightblue" points="467.729,-261.368 460.556,-253.571 461.301,-264.139 467.729,-261.368"/>
</g>
<!-- Node14 -->
<g id="node28" class="node"><title>Node14</title>
<a xlink:href="time_8h.html" target="_top" xlink:title="base/std_ext/time.h">
<polygon fill="white" stroke="black" points="536.5,-116.5 536.5,-137.5 639.5,-137.5 639.5,-116.5 536.5,-116.5"/>
<text text-anchor="middle" x="588" y="-124.5" font-family="Helvetica,sans-Serif" font-size="10.00">base/std_ext/time.h</text>
</a>
</g>
<!-- Node8&#45;&gt;Node14 -->
<g id="edge60" class="edge"><title>Node8&#45;&gt;Node14</title>
<path fill="none" stroke="midnightblue" d="M487.532,-290.377C505.026,-261.93 553.143,-183.684 575.843,-146.769"/>
<polygon fill="midnightblue" stroke="midnightblue" points="579.023,-148.279 581.28,-137.928 573.06,-144.613 579.023,-148.279"/>
</g>
<!-- Node22 -->
<g id="node44" class="node"><title>Node22</title>
<polygon fill="white" stroke="#bfbfbf" points="79,-116.5 79,-137.5 117,-137.5 117,-116.5 79,-116.5"/>
<text text-anchor="middle" x="98" y="-124.5" font-family="Helvetica,sans-Serif" font-size="10.00">tuple</text>
</g>
<!-- Node8&#45;&gt;Node22 -->
<g id="edge62" class="edge"><title>Node8&#45;&gt;Node22</title>
<path fill="none" stroke="midnightblue" d="M457.618,-290.377C390.918,-260.075 199.846,-173.269 126.837,-140.101"/>
<polygon fill="midnightblue" stroke="midnightblue" points="127.896,-136.738 117.344,-135.788 125.001,-143.111 127.896,-136.738"/>
</g>
<!-- Node10 -->
<g id="node19" class="node"><title>Node10</title>
<a xlink:href="_t_i_d_8h.html" target="_top" xlink:title="TID.h">
<polygon fill="white" stroke="black" points="367.5,-174.5 367.5,-195.5 408.5,-195.5 408.5,-174.5 367.5,-174.5"/>
<text text-anchor="middle" x="388" y="-182.5" font-family="Helvetica,sans-Serif" font-size="10.00">TID.h</text>
</a>
</g>
<!-- Node9&#45;&gt;Node10 -->
<g id="edge18" class="edge"><title>Node9&#45;&gt;Node10</title>
<path fill="none" stroke="midnightblue" d="M443.528,-232.362C433.655,-223.941 419.667,-212.011 408.202,-202.231"/>
<polygon fill="midnightblue" stroke="midnightblue" points="410.273,-199.397 400.393,-195.571 405.73,-204.723 410.273,-199.397"/>
</g>
<!-- Node11 -->
<g id="node21" class="node"><title>Node11</title>
<polygon fill="white" stroke="#bfbfbf" points="135,-116.5 135,-137.5 191,-137.5 191,-116.5 135,-116.5"/>
<text text-anchor="middle" x="163" y="-124.5" font-family="Helvetica,sans-Serif" font-size="10.00">Rtypes.h</text>
</g>
<!-- Node9&#45;&gt;Node11 -->
<g id="edge54" class="edge"><title>Node9&#45;&gt;Node11</title>
<path fill="none" stroke="midnightblue" d="M429.221,-232.398C376.362,-211.471 258.581,-164.841 198.999,-141.252"/>
<polygon fill="midnightblue" stroke="midnightblue" points="200.197,-137.962 189.61,-137.535 197.62,-144.471 200.197,-137.962"/>
</g>
<!-- Node20 -->
<g id="node40" class="node"><title>Node20</title>
<polygon fill="white" stroke="#bfbfbf" points="488.5,-58.5 488.5,-79.5 529.5,-79.5 529.5,-58.5 488.5,-58.5"/>
<text text-anchor="middle" x="509" y="-66.5" font-family="Helvetica,sans-Serif" font-size="10.00">ctime</text>
</g>
<!-- Node9&#45;&gt;Node20 -->
<g id="edge58" class="edge"><title>Node9&#45;&gt;Node20</title>
<path fill="none" stroke="midnightblue" d="M459.633,-232.317C466.031,-213.391 479.612,-172.693 490,-138 494.837,-121.846 499.886,-103.427 503.562,-89.6844"/>
<polygon fill="midnightblue" stroke="midnightblue" points="507.003,-90.3621 506.186,-79.7989 500.237,-88.5663 507.003,-90.3621"/>
</g>
<!-- Node24 -->
<g id="node49" class="node"><title>Node24</title>
<polygon fill="white" stroke="#bfbfbf" points="431,-116.5 431,-137.5 481,-137.5 481,-116.5 431,-116.5"/>
<text text-anchor="middle" x="456" y="-124.5" font-family="Helvetica,sans-Serif" font-size="10.00">iomanip</text>
</g>
<!-- Node9&#45;&gt;Node24 -->
<g id="edge56" class="edge"><title>Node9&#45;&gt;Node24</title>
<path fill="none" stroke="midnightblue" d="M456,-232.295C456,-213.131 456,-172.654 456,-147.843"/>
<polygon fill="midnightblue" stroke="midnightblue" points="459.5,-147.679 456,-137.679 452.5,-147.679 459.5,-147.679"/>
</g>
<!-- Node10&#45;&gt;Node4 -->
<g id="edge46" class="edge"><title>Node10&#45;&gt;Node4</title>
<path fill="none" stroke="midnightblue" d="M367.285,-183.272C317.599,-178.847 187.71,-165.626 71.0741,-137.925"/>
<polygon fill="midnightblue" stroke="midnightblue" points="71.8134,-134.503 61.2709,-135.555 70.168,-141.307 71.8134,-134.503"/>
</g>
<!-- Node10&#45;&gt;Node11 -->
<g id="edge20" class="edge"><title>Node10&#45;&gt;Node11</title>
<path fill="none" stroke="midnightblue" d="M367.337,-180.149C334.266,-172.318 267.201,-156.162 201.002,-138.199"/>
<polygon fill="midnightblue" stroke="midnightblue" points="201.814,-134.793 191.245,-135.536 199.971,-141.546 201.814,-134.793"/>
</g>
<!-- Node12 -->
<g id="node23" class="node"><title>Node12</title>
<a xlink:href="printable_8h.html" target="_top" xlink:title="base/printable.h">
<polygon fill="white" stroke="black" points="209,-116.5 209,-137.5 295,-137.5 295,-116.5 209,-116.5"/>
<text text-anchor="middle" x="252" y="-124.5" font-family="Helvetica,sans-Serif" font-size="10.00">base/printable.h</text>
</a>
</g>
<!-- Node10&#45;&gt;Node12 -->
<g id="edge22" class="edge"><title>Node10&#45;&gt;Node12</title>
<path fill="none" stroke="midnightblue" d="M367.345,-176.191C345.864,-167.03 311.872,-152.534 286.342,-141.646"/>
<polygon fill="midnightblue" stroke="midnightblue" points="287.588,-138.372 277.016,-137.669 284.842,-144.811 287.588,-138.372"/>
</g>
<!-- Node10&#45;&gt;Node14 -->
<g id="edge28" class="edge"><title>Node10&#45;&gt;Node14</title>
<path fill="none" stroke="midnightblue" d="M408.65,-179.011C439.88,-169.955 499.927,-152.541 541.903,-140.368"/>
<polygon fill="midnightblue" stroke="midnightblue" points="542.996,-143.695 551.626,-137.549 541.047,-136.972 542.996,-143.695"/>
</g>
<!-- Node10&#45;&gt;Node20 -->
<g id="edge52" class="edge"><title>Node10&#45;&gt;Node20</title>
<path fill="none" stroke="midnightblue" d="M390.953,-174.455C395.513,-159.792 405.509,-133.121 422,-116 437.849,-99.5451 460.732,-87.4969 479.051,-79.7206"/>
<polygon fill="midnightblue" stroke="midnightblue" points="480.455,-82.9283 488.419,-75.941 477.836,-76.4368 480.455,-82.9283"/>
</g>
<!-- Node21 -->
<g id="node42" class="node"><title>Node21</title>
<polygon fill="white" stroke="#bfbfbf" points="313,-116.5 313,-137.5 375,-137.5 375,-116.5 313,-116.5"/>
<text text-anchor="middle" x="344" y="-124.5" font-family="Helvetica,sans-Serif" font-size="10.00">type_traits</text>
</g>
<!-- Node10&#45;&gt;Node21 -->
<g id="edge42" class="edge"><title>Node10&#45;&gt;Node21</title>
<path fill="none" stroke="midnightblue" d="M379.93,-174.362C373.851,-166.35 365.363,-155.161 358.163,-145.67"/>
<polygon fill="midnightblue" stroke="midnightblue" points="360.851,-143.422 352.019,-137.571 355.275,-147.653 360.851,-143.422"/>
</g>
<!-- Node10&#45;&gt;Node22 -->
<g id="edge44" class="edge"><title>Node10&#45;&gt;Node22</title>
<path fill="none" stroke="midnightblue" d="M367.305,-182.694C324.106,-177.586 221.179,-163.879 126.8,-137.811"/>
<polygon fill="midnightblue" stroke="midnightblue" points="127.683,-134.423 117.109,-135.081 125.785,-141.161 127.683,-134.423"/>
</g>
<!-- Node10&#45;&gt;Node23 -->
<g id="edge48" class="edge"><title>Node10&#45;&gt;Node23</title>
<path fill="none" stroke="midnightblue" d="M408.708,-181.999C451.428,-175.65 552.566,-159.813 646.286,-138.25"/>
<polygon fill="midnightblue" stroke="midnightblue" points="647.261,-141.616 656.206,-135.939 645.672,-134.799 647.261,-141.616"/>
</g>
<!-- Node10&#45;&gt;Node24 -->
<g id="edge50" class="edge"><title>Node10&#45;&gt;Node24</title>
<path fill="none" stroke="midnightblue" d="M400.472,-174.362C410.345,-165.941 424.333,-154.011 435.798,-144.231"/>
<polygon fill="midnightblue" stroke="midnightblue" points="438.27,-146.723 443.607,-137.571 433.727,-141.397 438.27,-146.723"/>
</g>
<!-- Node12&#45;&gt;Node3 -->
<g id="edge24" class="edge"><title>Node12&#45;&gt;Node3</title>
<path fill="none" stroke="midnightblue" d="M222.12,-116.497C192.834,-106.202 148.365,-90.5706 118.525,-80.0817"/>
<polygon fill="midnightblue" stroke="midnightblue" points="119.605,-76.7512 109.01,-76.7369 117.283,-83.3551 119.605,-76.7512"/>
</g>
<!-- Node13 -->
<g id="node26" class="node"><title>Node13</title>
<polygon fill="white" stroke="#bfbfbf" points="226,-58.5 226,-79.5 278,-79.5 278,-58.5 226,-58.5"/>
<text text-anchor="middle" x="252" y="-66.5" font-family="Helvetica,sans-Serif" font-size="10.00">ostream</text>
</g>
<!-- Node12&#45;&gt;Node13 -->
<g id="edge26" class="edge"><title>Node12&#45;&gt;Node13</title>
<path fill="none" stroke="midnightblue" d="M252,-116.362C252,-108.922 252,-98.7427 252,-89.7276"/>
<polygon fill="midnightblue" stroke="midnightblue" points="255.5,-89.5706 252,-79.5707 248.5,-89.5707 255.5,-89.5706"/>
</g>
<!-- Node15 -->
<g id="node30" class="node"><title>Node15</title>
<a xlink:href="string_8h.html" target="_top" xlink:title="base/std_ext/string.h">
<polygon fill="white" stroke="black" points="620,-58.5 620,-79.5 728,-79.5 728,-58.5 620,-58.5"/>
<text text-anchor="middle" x="674" y="-66.5" font-family="Helvetica,sans-Serif" font-size="10.00">base/std_ext/string.h</text>
</a>
</g>
<!-- Node14&#45;&gt;Node15 -->
<g id="edge30" class="edge"><title>Node14&#45;&gt;Node15</title>
<path fill="none" stroke="midnightblue" d="M603.774,-116.362C616.624,-107.696 634.985,-95.3126 649.71,-85.3819"/>
<polygon fill="midnightblue" stroke="midnightblue" points="651.993,-88.0639 658.326,-79.5707 648.079,-82.2604 651.993,-88.0639"/>
</g>
<!-- Node19 -->
<g id="node38" class="node"><title>Node19</title>
<polygon fill="white" stroke="#bfbfbf" points="556,-58.5 556,-79.5 602,-79.5 602,-58.5 556,-58.5"/>
<text text-anchor="middle" x="579" y="-66.5" font-family="Helvetica,sans-Serif" font-size="10.00">cstring</text>
</g>
<!-- Node14&#45;&gt;Node19 -->
<g id="edge38" class="edge"><title>Node14&#45;&gt;Node19</title>
<path fill="none" stroke="midnightblue" d="M586.349,-116.362C585.195,-108.922 583.615,-98.7427 582.216,-89.7276"/>
<polygon fill="midnightblue" stroke="midnightblue" points="585.632,-88.9157 580.64,-79.5707 578.715,-89.9891 585.632,-88.9157"/>
</g>
<!-- Node14&#45;&gt;Node20 -->
<g id="edge40" class="edge"><title>Node14&#45;&gt;Node20</title>
<path fill="none" stroke="midnightblue" d="M573.51,-116.362C561.817,-107.777 545.157,-95.5459 531.697,-85.6636"/>
<polygon fill="midnightblue" stroke="midnightblue" points="533.53,-82.6675 523.398,-79.5707 529.387,-88.31 533.53,-82.6675"/>
</g>
<!-- Node16 -->
<g id="node32" class="node"><title>Node16</title>
<polygon fill="white" stroke="#bfbfbf" points="589.5,-0.5 589.5,-21.5 630.5,-21.5 630.5,-0.5 589.5,-0.5"/>
<text text-anchor="middle" x="610" y="-8.5" font-family="Helvetica,sans-Serif" font-size="10.00">string</text>
</g>
<!-- Node15&#45;&gt;Node16 -->
<g id="edge32" class="edge"><title>Node15&#45;&gt;Node16</title>
<path fill="none" stroke="midnightblue" d="M662.261,-58.3619C653.059,-50.0226 640.06,-38.2418 629.328,-28.5162"/>
<polygon fill="midnightblue" stroke="midnightblue" points="631.424,-25.6924 621.664,-21.5707 626.724,-30.8793 631.424,-25.6924"/>
</g>
<!-- Node17 -->
<g id="node34" class="node"><title>Node17</title>
<polygon fill="white" stroke="#bfbfbf" points="648,-0.5 648,-21.5 700,-21.5 700,-0.5 648,-0.5"/>
<text text-anchor="middle" x="674" y="-8.5" font-family="Helvetica,sans-Serif" font-size="10.00">sstream</text>
</g>
<!-- Node15&#45;&gt;Node17 -->
<g id="edge34" class="edge"><title>Node15&#45;&gt;Node17</title>
<path fill="none" stroke="midnightblue" d="M674,-58.3619C674,-50.9219 674,-40.7427 674,-31.7276"/>
<polygon fill="midnightblue" stroke="midnightblue" points="677.5,-31.5706 674,-21.5707 670.5,-31.5707 677.5,-31.5706"/>
</g>
<!-- Node18 -->
<g id="node36" class="node"><title>Node18</title>
<polygon fill="white" stroke="#bfbfbf" points="718,-0.5 718,-21.5 774,-21.5 774,-0.5 718,-0.5"/>
<text text-anchor="middle" x="746" y="-8.5" font-family="Helvetica,sans-Serif" font-size="10.00">algorithm</text>
</g>
<!-- Node15&#45;&gt;Node18 -->
<g id="edge36" class="edge"><title>Node15&#45;&gt;Node18</title>
<path fill="none" stroke="midnightblue" d="M687.206,-58.3619C697.761,-49.859 712.758,-37.7785 724.963,-27.9466"/>
<polygon fill="midnightblue" stroke="midnightblue" points="727.286,-30.5696 732.878,-21.5707 722.895,-25.1183 727.286,-30.5696"/>
</g>
</g>
</svg>
