<?xml version="1.0" encoding="UTF-8" standalone="no"?>
<!DOCTYPE svg PUBLIC "-//W3C//DTD SVG 1.1//EN"
 "http://www.w3.org/Graphics/SVG/1.1/DTD/svg11.dtd">
<!-- Generated by graphviz version 2.26.3 (20100126.1600)
 -->
<!-- Title: src/analysis/data/Slowcontrol.h Pages: 1 -->
<svg width="160pt" height="88pt"
 viewBox="0.00 0.00 160.00 88.00" xmlns="http://www.w3.org/2000/svg" xmlns:xlink="http://www.w3.org/1999/xlink">
<g id="graph1" class="graph" transform="scale(1 1) rotate(0) translate(4 84)">
<title>src/analysis/data/Slowcontrol.h</title>
<polygon fill="white" stroke="white" points="-4,5 -4,-84 157,-84 157,5 -4,5"/>
<!-- Node1 -->
<g id="node1" class="node"><title>Node1</title>
<polygon fill="#bfbfbf" stroke="black" points="-0.5,-58.5 -0.5,-79.5 152.5,-79.5 152.5,-58.5 -0.5,-58.5"/>
<text text-anchor="middle" x="76" y="-66.5" font-family="Helvetica,sans-Serif" font-size="10.00">src/analysis/data/Slowcontrol.h</text>
</g>
<!-- Node2 -->
<g id="node3" class="node"><title>Node2</title>
<polygon fill="white" stroke="#bfbfbf" points="23,-0.5 23,-21.5 67,-21.5 67,-0.5 23,-0.5"/>
<text text-anchor="middle" x="45" y="-8.5" font-family="Helvetica,sans-Serif" font-size="10.00">vector</text>
</g>
<!-- Node1&#45;&gt;Node2 -->
<g id="edge2" class="edge"><title>Node1&#45;&gt;Node2</title>
<path fill="none" stroke="midnightblue" d="M70.3141,-58.3619C66.1628,-50.5949 60.4159,-39.8426 55.4469,-30.5458"/>
<polygon fill="midnightblue" stroke="midnightblue" points="58.4504,-28.7401 50.6498,-21.5707 52.2769,-32.0398 58.4504,-28.7401"/>
</g>
<!-- Node3 -->
<g id="node5" class="node"><title>Node3</title>
<polygon fill="white" stroke="#bfbfbf" points="85,-0.5 85,-21.5 131,-21.5 131,-0.5 85,-0.5"/>
<text text-anchor="middle" x="108" y="-8.5" font-family="Helvetica,sans-Serif" font-size="10.00">cstdint</text>
</g>
<!-- Node1&#45;&gt;Node3 -->
<g id="edge4" class="edge"><title>Node1&#45;&gt;Node3</title>
<path fill="none" stroke="midnightblue" d="M81.8693,-58.3619C86.1546,-50.5949 92.0869,-39.8426 97.2161,-30.5458"/>
<polygon fill="midnightblue" stroke="midnightblue" points="100.402,-32.0172 102.168,-21.5707 94.2726,-28.6357 100.402,-32.0172"/>
</g>
</g>
</svg>
