<?xml version="1.0" encoding="UTF-8" standalone="no"?>
<!DOCTYPE svg PUBLIC "-//W3C//DTD SVG 1.1//EN"
 "http://www.w3.org/Graphics/SVG/1.1/DTD/svg11.dtd">
<!-- Generated by graphviz version 2.26.3 (20100126.1600)
 -->
<!-- Title: src/analysis/input/detail/SlowcontrolCreator.h Pages: 1 -->
<svg width="414pt" height="116pt"
 viewBox="0.00 0.00 414.00 116.00" xmlns="http://www.w3.org/2000/svg" xmlns:xlink="http://www.w3.org/1999/xlink">
<g id="graph1" class="graph" transform="scale(1 1) rotate(0) translate(4 112)">
<title>src/analysis/input/detail/SlowcontrolCreator.h</title>
<polygon fill="white" stroke="white" points="-4,5 -4,-112 411,-112 411,5 -4,5"/>
<!-- Node1 -->
<g id="node1" class="node"><title>Node1</title>
<polygon fill="#bfbfbf" stroke="black" points="144.5,-73 144.5,-107 281.5,-107 281.5,-73 144.5,-73"/>
<text text-anchor="start" x="152.5" y="-94" font-family="Helvetica,sans-Serif" font-size="10.00">src/analysis/input</text>
<text text-anchor="middle" x="213" y="-81" font-family="Helvetica,sans-Serif" font-size="10.00">/detail/SlowcontrolCreator.h</text>
</g>
<!-- Node2 -->
<g id="node3" class="node"><title>Node2</title>
<a xlink:href="_slowcontrol_creator_8cc.html" target="_top" xlink:title="src/analysis/input\l/detail/SlowcontrolCreator.cc">
<polygon fill="white" stroke="black" points="-0.5,-1 -0.5,-35 142.5,-35 142.5,-1 -0.5,-1"/>
<text text-anchor="start" x="7.5" y="-22" font-family="Helvetica,sans-Serif" font-size="10.00">src/analysis/input</text>
<text text-anchor="middle" x="71" y="-9" font-family="Helvetica,sans-Serif" font-size="10.00">/detail/SlowcontrolCreator.cc</text>
</a>
</g>
<!-- Node1&#45;&gt;Node2 -->
<g id="edge2" class="edge"><title>Node1&#45;&gt;Node2</title>
<path fill="none" stroke="midnightblue" d="M170.34,-68.3694C149.399,-57.7514 124.523,-45.1383 104.903,-35.19"/>
<polygon fill="midnightblue" stroke="midnightblue" points="168.846,-71.5363 179.348,-72.937 172.012,-65.293 168.846,-71.5363"/>
</g>
<!-- Node3 -->
<g id="node5" class="node"><title>Node3</title>
<a xlink:href="_physics_manager_8cc.html" target="_top" xlink:title="src/analysis/physics\l/PhysicsManager.cc">
<polygon fill="white" stroke="black" points="160,-1 160,-35 266,-35 266,-1 160,-1"/>
<text text-anchor="start" x="168" y="-22" font-family="Helvetica,sans-Serif" font-size="10.00">src/analysis/physics</text>
<text text-anchor="middle" x="213" y="-9" font-family="Helvetica,sans-Serif" font-size="10.00">/PhysicsManager.cc</text>
</a>
</g>
<!-- Node1&#45;&gt;Node3 -->
<g id="edge4" class="edge"><title>Node1&#45;&gt;Node3</title>
<path fill="none" stroke="midnightblue" d="M213,-62.7193C213,-53.572 213,-43.6255 213,-35.4407"/>
<polygon fill="midnightblue" stroke="midnightblue" points="209.5,-62.937 213,-72.937 216.5,-62.937 209.5,-62.937"/>
</g>
<!-- Node4 -->
<g id="node7" class="node"><title>Node4</title>
<a xlink:href="_slowcontrol_manager_8cc.html" target="_top" xlink:title="src/analysis/physics\l/SlowcontrolManager.cc">
<polygon fill="white" stroke="black" points="284,-1 284,-35 406,-35 406,-1 284,-1"/>
<text text-anchor="start" x="292" y="-22" font-family="Helvetica,sans-Serif" font-size="10.00">src/analysis/physics</text>
<text text-anchor="middle" x="345" y="-9" font-family="Helvetica,sans-Serif" font-size="10.00">/SlowcontrolManager.cc</text>
</a>
</g>
<!-- Node1&#45;&gt;Node4 -->
<g id="edge6" class="edge"><title>Node1&#45;&gt;Node4</title>
<path fill="none" stroke="midnightblue" d="M253.181,-68.0832C272.537,-57.5254 295.41,-45.049 313.485,-35.19"/>
<polygon fill="midnightblue" stroke="midnightblue" points="251.385,-65.0758 244.282,-72.937 254.737,-71.2211 251.385,-65.0758"/>
</g>
</g>
</svg>
