<?xml version="1.0" encoding="UTF-8" standalone="no"?>
<!DOCTYPE svg PUBLIC "-//W3C//DTD SVG 1.1//EN"
 "http://www.w3.org/Graphics/SVG/1.1/DTD/svg11.dtd">
<!-- Generated by graphviz version 2.26.3 (20100126.1600)
 -->
<!-- Title: src/expconfig/detectors/detail/TAPS_2013_BaF2_elements.h Pages: 1 -->
<svg width="3758pt" height="766pt"
 viewBox="0.00 0.00 3758.00 766.00" xmlns="http://www.w3.org/2000/svg" xmlns:xlink="http://www.w3.org/1999/xlink">
<g id="graph1" class="graph" transform="scale(1 1) rotate(0) translate(4 762)">
<title>src/expconfig/detectors/detail/TAPS_2013_BaF2_elements.h</title>
<polygon fill="white" stroke="white" points="-4,5 -4,-762 3755,-762 3755,5 -4,5"/>
<!-- Node1 -->
<g id="node1" class="node"><title>Node1</title>
<polygon fill="#bfbfbf" stroke="black" points="3186.5,-710.5 3186.5,-757.5 3313.5,-757.5 3313.5,-710.5 3186.5,-710.5"/>
<text text-anchor="start" x="3194.5" y="-744.5" font-family="Helvetica,sans-Serif" font-size="10.00">src/expconfig/detectors</text>
<text text-anchor="start" x="3194.5" y="-731.5" font-family="Helvetica,sans-Serif" font-size="10.00">/detail/TAPS_2013_BaF2</text>
<text text-anchor="middle" x="3250" y="-718.5" font-family="Helvetica,sans-Serif" font-size="10.00">_elements.h</text>
</g>
<!-- Node2 -->
<g id="node3" class="node"><title>Node2</title>
<a xlink:href="_t_a_p_s_8h.html" target="_top" xlink:title="detectors/TAPS.h">
<polygon fill="white" stroke="black" points="3202.5,-652.5 3202.5,-673.5 3297.5,-673.5 3297.5,-652.5 3202.5,-652.5"/>
<text text-anchor="middle" x="3250" y="-660.5" font-family="Helvetica,sans-Serif" font-size="10.00">detectors/TAPS.h</text>
</a>
</g>
<!-- Node1&#45;&gt;Node2 -->
<g id="edge2" class="edge"><title>Node1&#45;&gt;Node2</title>
<path fill="none" stroke="midnightblue" d="M3250,-710.358C3250,-701.719 3250,-692.022 3250,-683.662"/>
<polygon fill="midnightblue" stroke="midnightblue" points="3253.5,-683.646 3250,-673.646 3246.5,-683.646 3253.5,-683.646"/>
</g>
<!-- Node3 -->
<g id="node5" class="node"><title>Node3</title>
<a xlink:href="_detector__t_8h.html" target="_top" xlink:title="base/Detector_t.h">
<polygon fill="white" stroke="black" points="1973.5,-116.5 1973.5,-137.5 2068.5,-137.5 2068.5,-116.5 1973.5,-116.5"/>
<text text-anchor="middle" x="2021" y="-124.5" font-family="Helvetica,sans-Serif" font-size="10.00">base/Detector_t.h</text>
</a>
</g>
<!-- Node2&#45;&gt;Node3 -->
<g id="edge4" class="edge"><title>Node2&#45;&gt;Node3</title>
<path fill="none" stroke="midnightblue" d="M3202.34,-662.309C2906.99,-657.801 1336.73,-630.466 1268,-558 1134.59,-417.334 1496.16,-473.766 1668,-384 1799.23,-315.448 1826.22,-287.002 1943,-196 1964.25,-179.439 1987.19,-158.777 2002.66,-144.401"/>
<polygon fill="midnightblue" stroke="midnightblue" points="2005.11,-146.902 2010.01,-137.511 2000.32,-141.793 2005.11,-146.902"/>
</g>
<!-- Node12 -->
<g id="node24" class="node"><title>Node12</title>
<a xlink:href="_unpacker_acqu_8h.html" target="_top" xlink:title="unpacker/UnpackerAcqu.h">
<polygon fill="white" stroke="black" points="2775,-594.5 2775,-615.5 2907,-615.5 2907,-594.5 2775,-594.5"/>
<text text-anchor="middle" x="2841" y="-602.5" font-family="Helvetica,sans-Serif" font-size="10.00">unpacker/UnpackerAcqu.h</text>
</a>
</g>
<!-- Node2&#45;&gt;Node12 -->
<g id="edge24" class="edge"><title>Node2&#45;&gt;Node12</title>
<path fill="none" stroke="midnightblue" d="M3202.28,-656.233C3132.22,-646.298 3000.8,-627.661 2917.26,-615.814"/>
<polygon fill="midnightblue" stroke="midnightblue" points="2917.71,-612.343 2907.31,-614.404 2916.72,-619.273 2917.71,-612.343"/>
</g>
<!-- Node31 -->
<g id="node76" class="node"><title>Node31</title>
<polygon fill="white" stroke="#bfbfbf" points="3544,-116.5 3544,-137.5 3584,-137.5 3584,-116.5 3544,-116.5"/>
<text text-anchor="middle" x="3564" y="-124.5" font-family="Helvetica,sans-Serif" font-size="10.00">limits</text>
</g>
<!-- Node2&#45;&gt;Node31 -->
<g id="edge340" class="edge"><title>Node2&#45;&gt;Node31</title>
<path fill="none" stroke="midnightblue" d="M3297.55,-656.996C3391.53,-643.799 3592,-608.443 3592,-547 3592,-547 3592,-547 3592,-243 3592,-208.661 3580.26,-170.161 3571.99,-147.282"/>
<polygon fill="midnightblue" stroke="midnightblue" points="3575.17,-145.798 3568.38,-137.667 3568.61,-148.259 3575.17,-145.798"/>
</g>
<!-- Node39 -->
<g id="node101" class="node"><title>Node39</title>
<polygon fill="white" stroke="#bfbfbf" points="562,-232.5 562,-253.5 616,-253.5 616,-232.5 562,-232.5"/>
<text text-anchor="middle" x="589" y="-240.5" font-family="Helvetica,sans-Serif" font-size="10.00">iostream</text>
</g>
<!-- Node2&#45;&gt;Node39 -->
<g id="edge344" class="edge"><title>Node2&#45;&gt;Node39</title>
<path fill="none" stroke="midnightblue" d="M3202.24,-662.436C2819.6,-657.762 267,-623.709 267,-547 267,-547 267,-547 267,-431 267,-300.347 467.15,-258.852 551.851,-247.141"/>
<polygon fill="midnightblue" stroke="midnightblue" points="552.367,-250.603 561.824,-245.826 551.452,-243.663 552.367,-250.603"/>
</g>
<!-- Node65 -->
<g id="node234" class="node"><title>Node65</title>
<polygon fill="white" stroke="#bfbfbf" points="3619.5,-594.5 3619.5,-615.5 3684.5,-615.5 3684.5,-594.5 3619.5,-594.5"/>
<text text-anchor="middle" x="3652" y="-602.5" font-family="Helvetica,sans-Serif" font-size="10.00">TVector2.h</text>
</g>
<!-- Node2&#45;&gt;Node65 -->
<g id="edge338" class="edge"><title>Node2&#45;&gt;Node65</title>
<path fill="none" stroke="midnightblue" d="M3297.75,-658.283C3366.3,-651.153 3496.42,-636.278 3606,-616 3607.09,-615.798 3608.19,-615.587 3609.3,-615.368"/>
<polygon fill="midnightblue" stroke="midnightblue" points="3610.36,-618.723 3619.42,-613.231 3608.91,-611.874 3610.36,-618.723"/>
</g>
<!-- Node66 -->
<g id="node237" class="node"><title>Node66</title>
<polygon fill="white" stroke="#bfbfbf" points="3701.5,-594.5 3701.5,-615.5 3750.5,-615.5 3750.5,-594.5 3701.5,-594.5"/>
<text text-anchor="middle" x="3726" y="-602.5" font-family="Helvetica,sans-Serif" font-size="10.00">cassert</text>
</g>
<!-- Node2&#45;&gt;Node66 -->
<g id="edge342" class="edge"><title>Node2&#45;&gt;Node66</title>
<path fill="none" stroke="midnightblue" d="M3297.74,-661.312C3377.68,-657.755 3543.61,-647.245 3691.15,-616.055"/>
<polygon fill="midnightblue" stroke="midnightblue" points="3692.25,-619.399 3701.29,-613.873 3690.78,-612.556 3692.25,-619.399"/>
</g>
<!-- Node4 -->
<g id="node7" class="node"><title>Node4</title>
<a xlink:href="printable_8h.html" target="_top" xlink:title="base/printable.h">
<polygon fill="white" stroke="black" points="1245,-58.5 1245,-79.5 1331,-79.5 1331,-58.5 1245,-58.5"/>
<text text-anchor="middle" x="1288" y="-66.5" font-family="Helvetica,sans-Serif" font-size="10.00">base/printable.h</text>
</a>
</g>
<!-- Node3&#45;&gt;Node4 -->
<g id="edge6" class="edge"><title>Node3&#45;&gt;Node4</title>
<path fill="none" stroke="midnightblue" d="M1973.47,-123.239C1842.84,-112.903 1478.96,-84.11 1341.5,-73.2334"/>
<polygon fill="midnightblue" stroke="midnightblue" points="1341.47,-69.7202 1331.23,-72.4204 1340.92,-76.6984 1341.47,-69.7202"/>
</g>
<!-- Node5 -->
<g id="node9" class="node"><title>Node5</title>
<polygon fill="white" stroke="#bfbfbf" points="1556,-0.5 1556,-21.5 1600,-21.5 1600,-0.5 1556,-0.5"/>
<text text-anchor="middle" x="1578" y="-8.5" font-family="Helvetica,sans-Serif" font-size="10.00">vector</text>
</g>
<!-- Node3&#45;&gt;Node5 -->
<g id="edge22" class="edge"><title>Node3&#45;&gt;Node5</title>
<path fill="none" stroke="midnightblue" d="M2004.7,-116.468C1980.05,-101.061 1931.34,-72.6226 1886,-58 1788.79,-26.6503 1667.41,-15.977 1610.41,-12.5343"/>
<polygon fill="midnightblue" stroke="midnightblue" points="1610.39,-9.02804 1600.21,-11.9552 1610,-16.0168 1610.39,-9.02804"/>
</g>
<!-- Node7 -->
<g id="node13" class="node"><title>Node7</title>
<polygon fill="white" stroke="#bfbfbf" points="1581.5,-58.5 1581.5,-79.5 1646.5,-79.5 1646.5,-58.5 1581.5,-58.5"/>
<text text-anchor="middle" x="1614" y="-66.5" font-family="Helvetica,sans-Serif" font-size="10.00">TVector3.h</text>
</g>
<!-- Node3&#45;&gt;Node7 -->
<g id="edge12" class="edge"><title>Node3&#45;&gt;Node7</title>
<path fill="none" stroke="midnightblue" d="M1973.12,-120.176C1893.04,-108.765 1733.22,-85.9903 1656.73,-75.089"/>
<polygon fill="midnightblue" stroke="midnightblue" points="1656.9,-71.5779 1646.5,-73.6321 1655.91,-78.5079 1656.9,-71.5779"/>
</g>
<!-- Node8 -->
<g id="node15" class="node"><title>Node8</title>
<polygon fill="white" stroke="#bfbfbf" points="2988,-58.5 2988,-79.5 3034,-79.5 3034,-58.5 2988,-58.5"/>
<text text-anchor="middle" x="3011" y="-66.5" font-family="Helvetica,sans-Serif" font-size="10.00">cstdint</text>
</g>
<!-- Node3&#45;&gt;Node8 -->
<g id="edge14" class="edge"><title>Node3&#45;&gt;Node8</title>
<path fill="none" stroke="midnightblue" d="M2068.75,-124.203C2241.33,-114.092 2830.3,-79.5864 2977.47,-70.9646"/>
<polygon fill="midnightblue" stroke="midnightblue" points="2977.89,-74.4457 2987.67,-70.3668 2977.48,-67.4577 2977.89,-74.4457"/>
</g>
<!-- Node9 -->
<g id="node17" class="node"><title>Node9</title>
<polygon fill="white" stroke="#bfbfbf" points="2501.5,-58.5 2501.5,-79.5 2560.5,-79.5 2560.5,-58.5 2501.5,-58.5"/>
<text text-anchor="middle" x="2531" y="-66.5" font-family="Helvetica,sans-Serif" font-size="10.00">stdexcept</text>
</g>
<!-- Node3&#45;&gt;Node9 -->
<g id="edge16" class="edge"><title>Node3&#45;&gt;Node9</title>
<path fill="none" stroke="midnightblue" d="M2068.52,-121.596C2168.41,-110.236 2398.54,-84.0642 2491.24,-73.5221"/>
<polygon fill="midnightblue" stroke="midnightblue" points="2491.79,-76.9823 2501.33,-72.3746 2491,-70.0271 2491.79,-76.9823"/>
</g>
<!-- Node10 -->
<g id="node19" class="node"><title>Node10</title>
<polygon fill="white" stroke="#bfbfbf" points="554.5,-0.5 554.5,-21.5 595.5,-21.5 595.5,-0.5 554.5,-0.5"/>
<text text-anchor="middle" x="575" y="-8.5" font-family="Helvetica,sans-Serif" font-size="10.00">string</text>
</g>
<!-- Node3&#45;&gt;Node10 -->
<g id="edge18" class="edge"><title>Node3&#45;&gt;Node10</title>
<path fill="none" stroke="midnightblue" d="M1976.52,-116.484C1907.95,-100.756 1772.07,-71.5123 1655,-58 1443.57,-33.5963 759.053,-15.5424 605.682,-11.7422"/>
<polygon fill="midnightblue" stroke="midnightblue" points="605.655,-8.2405 595.571,-11.4933 605.482,-15.2384 605.655,-8.2405"/>
</g>
<!-- Node11 -->
<g id="node21" class="node"><title>Node11</title>
<polygon fill="white" stroke="#bfbfbf" points="2654,-58.5 2654,-79.5 2716,-79.5 2716,-58.5 2654,-58.5"/>
<text text-anchor="middle" x="2685" y="-66.5" font-family="Helvetica,sans-Serif" font-size="10.00">type_traits</text>
</g>
<!-- Node3&#45;&gt;Node11 -->
<g id="edge20" class="edge"><title>Node3&#45;&gt;Node11</title>
<path fill="none" stroke="midnightblue" d="M2068.66,-123.058C2163.8,-115.155 2384.03,-96.7021 2569,-80 2593.87,-77.7542 2621.73,-75.1164 2643.91,-72.987"/>
<polygon fill="midnightblue" stroke="midnightblue" points="2644.37,-76.4591 2653.99,-72.017 2643.7,-69.4913 2644.37,-76.4591"/>
</g>
<!-- Node4&#45;&gt;Node5 -->
<g id="edge8" class="edge"><title>Node4&#45;&gt;Node5</title>
<path fill="none" stroke="midnightblue" d="M1331.1,-60.3794C1389.71,-48.6589 1493.21,-27.9581 1545.63,-17.4735"/>
<polygon fill="midnightblue" stroke="midnightblue" points="1546.59,-20.8516 1555.71,-15.4583 1545.22,-13.9875 1546.59,-20.8516"/>
</g>
<!-- Node6 -->
<g id="node11" class="node"><title>Node6</title>
<polygon fill="white" stroke="#bfbfbf" points="1067,-0.5 1067,-21.5 1119,-21.5 1119,-0.5 1067,-0.5"/>
<text text-anchor="middle" x="1093" y="-8.5" font-family="Helvetica,sans-Serif" font-size="10.00">ostream</text>
</g>
<!-- Node4&#45;&gt;Node6 -->
<g id="edge10" class="edge"><title>Node4&#45;&gt;Node6</title>
<path fill="none" stroke="midnightblue" d="M1252.69,-58.4966C1217.62,-48.0679 1164.15,-32.1619 1128.89,-21.6739"/>
<polygon fill="midnightblue" stroke="midnightblue" points="1129.59,-18.2331 1119.01,-18.7369 1127.6,-24.9426 1129.59,-18.2331"/>
</g>
<!-- Node12&#45;&gt;Node3 -->
<g id="edge324" class="edge"><title>Node12&#45;&gt;Node3</title>
<path fill="none" stroke="midnightblue" d="M2774.96,-603.633C2622.6,-599.997 2250.26,-588.217 2129,-558 2068,-542.8 2034.14,-552.783 2000,-500 1931.76,-394.491 1731.57,-557.848 2212,-348 2353.71,-286.102 2453.58,-377.235 2547,-254 2552.91,-246.208 2553.2,-239.56 2547,-232 2532.07,-213.798 2212.48,-158.829 2078.89,-136.541"/>
<polygon fill="midnightblue" stroke="midnightblue" points="2079.27,-133.057 2068.84,-134.867 2078.12,-139.962 2079.27,-133.057"/>
</g>
<!-- Node12&#45;&gt;Node5 -->
<g id="edge332" class="edge"><title>Node12&#45;&gt;Node5</title>
<path fill="none" stroke="midnightblue" d="M2907.26,-600.529C3077.33,-588.17 3516,-550.348 3516,-489 3516,-489 3516,-489 3516,-185 3516,-145.223 3490.89,-139.77 3459,-116 3426.1,-91.4832 3410.71,-98.3131 3374,-80 3356.54,-71.2889 3354.78,-63.3136 3336,-58 3249.78,-33.6035 1843.15,-14.4253 1610.48,-11.4126"/>
<polygon fill="midnightblue" stroke="midnightblue" points="1610.34,-7.91065 1600.29,-11.2814 1610.25,-14.9101 1610.34,-7.91065"/>
</g>
<!-- Node12&#45;&gt;Node8 -->
<g id="edge334" class="edge"><title>Node12&#45;&gt;Node8</title>
<path fill="none" stroke="midnightblue" d="M2907.1,-602.713C3038.5,-596.363 3320,-572.959 3320,-489 3320,-489 3320,-489 3320,-185 3320,-145.223 3297.27,-136.19 3263,-116 3226.37,-94.4237 3104.09,-78.8773 3044.38,-72.376"/>
<polygon fill="midnightblue" stroke="midnightblue" points="3044.65,-68.8848 3034.33,-71.3034 3043.9,-75.8453 3044.65,-68.8848"/>
</g>
<!-- Node13 -->
<g id="node26" class="node"><title>Node13</title>
<a xlink:href="_unpacker_8h.html" target="_top" xlink:title="Unpacker.h">
<polygon fill="white" stroke="black" points="1209.5,-232.5 1209.5,-253.5 1276.5,-253.5 1276.5,-232.5 1209.5,-232.5"/>
<text text-anchor="middle" x="1243" y="-240.5" font-family="Helvetica,sans-Serif" font-size="10.00">Unpacker.h</text>
</a>
</g>
<!-- Node12&#45;&gt;Node13 -->
<g id="edge26" class="edge"><title>Node12&#45;&gt;Node13</title>
<path fill="none" stroke="midnightblue" d="M2774.8,-604.012C2482.49,-599.521 1320.37,-580.292 1290,-558 1263.83,-538.788 1266,-521.469 1266,-489 1266,-489 1266,-489 1266,-366 1266,-329.452 1256.07,-287.821 1249.26,-263.571"/>
<polygon fill="midnightblue" stroke="midnightblue" points="1252.55,-262.357 1246.39,-253.733 1245.83,-264.313 1252.55,-262.357"/>
</g>
<!-- Node14 -->
<g id="node29" class="node"><title>Node14</title>
<polygon fill="white" stroke="#bfbfbf" points="2125,-174.5 2125,-195.5 2177,-195.5 2177,-174.5 2125,-174.5"/>
<text text-anchor="middle" x="2151" y="-182.5" font-family="Helvetica,sans-Serif" font-size="10.00">memory</text>
</g>
<!-- Node12&#45;&gt;Node14 -->
<g id="edge326" class="edge"><title>Node12&#45;&gt;Node14</title>
<path fill="none" stroke="midnightblue" d="M2836.38,-594.248C2813.77,-543.072 2709.21,-322.884 2547,-232 2485.76,-197.687 2273.05,-188.243 2187.27,-185.8"/>
<polygon fill="midnightblue" stroke="midnightblue" points="2187.31,-182.3 2177.22,-185.53 2187.12,-189.298 2187.31,-182.3"/>
</g>
<!-- Node15 -->
<g id="node31" class="node"><title>Node15</title>
<a xlink:href="_exp_config_8h.html" target="_top" xlink:title="expconfig/ExpConfig.h">
<polygon fill="white" stroke="black" points="2138,-536.5 2138,-557.5 2254,-557.5 2254,-536.5 2138,-536.5"/>
<text text-anchor="middle" x="2196" y="-544.5" font-family="Helvetica,sans-Serif" font-size="10.00">expconfig/ExpConfig.h</text>
</a>
</g>
<!-- Node12&#45;&gt;Node15 -->
<g id="edge32" class="edge"><title>Node12&#45;&gt;Node15</title>
<path fill="none" stroke="midnightblue" d="M2774.7,-599.039C2651.66,-587.974 2389.19,-564.372 2264.5,-553.16"/>
<polygon fill="midnightblue" stroke="midnightblue" points="2264.59,-549.654 2254.32,-552.244 2263.97,-556.626 2264.59,-549.654"/>
</g>
<!-- Node19 -->
<g id="node42" class="node"><title>Node19</title>
<polygon fill="white" stroke="#bfbfbf" points="2455.5,-116.5 2455.5,-137.5 2484.5,-137.5 2484.5,-116.5 2455.5,-116.5"/>
<text text-anchor="middle" x="2470" y="-124.5" font-family="Helvetica,sans-Serif" font-size="10.00">list</text>
</g>
<!-- Node12&#45;&gt;Node19 -->
<g id="edge328" class="edge"><title>Node12&#45;&gt;Node19</title>
<path fill="none" stroke="midnightblue" d="M2852.37,-594.355C2871.48,-575.235 2908,-532.955 2908,-489 2908,-489 2908,-489 2908,-301 2908,-227.762 2869.35,-205.007 2803,-174 2678.72,-115.922 2624.9,-179.018 2494.21,-139.296"/>
<polygon fill="midnightblue" stroke="midnightblue" points="2495.25,-135.956 2484.66,-136.256 2493.13,-142.626 2495.25,-135.956"/>
</g>
<!-- Node22 -->
<g id="node53" class="node"><title>Node22</title>
<polygon fill="white" stroke="#bfbfbf" points="413.5,-174.5 413.5,-195.5 448.5,-195.5 448.5,-174.5 413.5,-174.5"/>
<text text-anchor="middle" x="431" y="-182.5" font-family="Helvetica,sans-Serif" font-size="10.00">map</text>
</g>
<!-- Node12&#45;&gt;Node22 -->
<g id="edge330" class="edge"><title>Node12&#45;&gt;Node22</title>
<path fill="none" stroke="midnightblue" d="M2774.94,-603.966C2358.48,-597.238 114,-557.785 114,-489 114,-489 114,-489 114,-301 114,-239.712 325.614,-201.137 403.049,-189.073"/>
<polygon fill="midnightblue" stroke="midnightblue" points="403.691,-192.516 413.048,-187.548 402.635,-185.596 403.691,-192.516"/>
</g>
<!-- Node12&#45;&gt;Node31 -->
<g id="edge336" class="edge"><title>Node12&#45;&gt;Node31</title>
<path fill="none" stroke="midnightblue" d="M2907.22,-604.578C3070.23,-602.968 3481.25,-595.22 3530,-558 3555.81,-538.296 3554,-521.469 3554,-489 3554,-489 3554,-489 3554,-243 3554,-209.474 3558.2,-170.698 3561.15,-147.548"/>
<polygon fill="midnightblue" stroke="midnightblue" points="3564.64,-147.903 3562.48,-137.53 3557.7,-146.983 3564.64,-147.903"/>
</g>
<!-- Node13&#45;&gt;Node10 -->
<g id="edge28" class="edge"><title>Node13&#45;&gt;Node10</title>
<path fill="none" stroke="midnightblue" d="M1218.26,-232.487C1185.16,-218.546 1124.54,-193.441 1072,-174 920.678,-118.011 881.576,-107.472 728,-58 685.702,-44.3744 636.543,-29.4311 605.602,-20.1336"/>
<polygon fill="midnightblue" stroke="midnightblue" points="606.428,-16.7272 595.844,-17.2071 604.417,-23.4322 606.428,-16.7272"/>
</g>
<!-- Node13&#45;&gt;Node14 -->
<g id="edge30" class="edge"><title>Node13&#45;&gt;Node14</title>
<path fill="none" stroke="midnightblue" d="M1276.64,-241.059C1315.33,-238.834 1380.75,-235.097 1437,-232 1736.53,-215.509 1814.89,-244.049 2111,-196 2112.28,-195.792 2113.58,-195.56 2114.88,-195.306"/>
<polygon fill="midnightblue" stroke="midnightblue" points="2115.95,-198.654 2124.93,-193.035 2114.4,-191.827 2115.95,-198.654"/>
</g>
<!-- Node15&#45;&gt;Node3 -->
<g id="edge34" class="edge"><title>Node15&#45;&gt;Node3</title>
<path fill="none" stroke="midnightblue" d="M2243.16,-536.454C2377.53,-504.126 2745.97,-398.394 2638,-232 2603.56,-178.926 2569.17,-190.138 2508,-174 2428.26,-152.963 2189.27,-136.798 2078.52,-130.218"/>
<polygon fill="midnightblue" stroke="midnightblue" points="2078.72,-126.723 2068.53,-129.63 2078.31,-133.711 2078.72,-126.723"/>
</g>
<!-- Node15&#45;&gt;Node4 -->
<g id="edge316" class="edge"><title>Node15&#45;&gt;Node4</title>
<path fill="none" stroke="midnightblue" d="M2137.73,-545.199C1836.29,-535.456 461.781,-485.699 304,-384 248.303,-348.1 247.768,-318.107 231,-254 209.462,-171.655 321.937,-192.579 405,-174 714.446,-104.784 1095.76,-79.044 1234.41,-71.5725"/>
<polygon fill="midnightblue" stroke="midnightblue" points="1234.95,-75.0492 1244.75,-71.0253 1234.58,-68.0589 1234.95,-75.0492"/>
</g>
<!-- Node15&#45;&gt;Node14 -->
<g id="edge318" class="edge"><title>Node15&#45;&gt;Node14</title>
<path fill="none" stroke="midnightblue" d="M2188.53,-536.435C2166.47,-504.512 2101.82,-405.49 2080,-312 2074.75,-289.506 2088.49,-232.847 2089,-232 2096.61,-219.245 2109.12,-208.776 2120.92,-200.982"/>
<polygon fill="midnightblue" stroke="midnightblue" points="2123.05,-203.784 2129.71,-195.549 2119.37,-197.829 2123.05,-203.784"/>
</g>
<!-- Node16 -->
<g id="node34" class="node"><title>Node16</title>
<a xlink:href="_reconstruct__traits_8h.html" target="_top" xlink:title="reconstruct/Reconstruct\l_traits.h">
<polygon fill="white" stroke="black" points="2221,-349 2221,-383 2343,-383 2343,-349 2221,-349"/>
<text text-anchor="start" x="2229" y="-370" font-family="Helvetica,sans-Serif" font-size="10.00">reconstruct/Reconstruct</text>
<text text-anchor="middle" x="2282" y="-357" font-family="Helvetica,sans-Serif" font-size="10.00">_traits.h</text>
</a>
</g>
<!-- Node15&#45;&gt;Node16 -->
<g id="edge36" class="edge"><title>Node15&#45;&gt;Node16</title>
<path fill="none" stroke="midnightblue" d="M2201,-536.486C2214.18,-508.745 2250.2,-432.925 2269.46,-392.387"/>
<polygon fill="midnightblue" stroke="midnightblue" points="2272.73,-393.661 2273.86,-383.126 2266.41,-390.656 2272.73,-393.661"/>
</g>
<!-- Node15&#45;&gt;Node19 -->
<g id="edge320" class="edge"><title>Node15&#45;&gt;Node19</title>
<path fill="none" stroke="midnightblue" d="M2254.37,-540.107C2380.59,-521.471 2673.63,-456.944 2749,-254 2762.11,-218.686 2751.27,-196.421 2721,-174 2639.85,-113.897 2590.64,-168.942 2494.45,-139.431"/>
<polygon fill="midnightblue" stroke="midnightblue" points="2495.28,-136.017 2484.68,-136.194 2493.07,-142.662 2495.28,-136.017"/>
</g>
<!-- Node15&#45;&gt;Node22 -->
<g id="edge322" class="edge"><title>Node15&#45;&gt;Node22</title>
<path fill="none" stroke="midnightblue" d="M2137.54,-545.478C1835.15,-537.142 456.586,-493.339 304,-384 245.353,-341.975 202.744,-288.982 247,-232 266.044,-207.48 356.649,-193.601 403.219,-187.976"/>
<polygon fill="midnightblue" stroke="midnightblue" points="403.716,-191.442 413.245,-186.811 402.908,-184.489 403.716,-191.442"/>
</g>
<!-- Node23 -->
<g id="node56" class="node"><title>Node23</title>
<a xlink:href="_calibration_8h.html" target="_top" xlink:title="calibration/Calibration.h">
<polygon fill="white" stroke="black" points="2008.5,-478.5 2008.5,-499.5 2127.5,-499.5 2127.5,-478.5 2008.5,-478.5"/>
<text text-anchor="middle" x="2068" y="-486.5" font-family="Helvetica,sans-Serif" font-size="10.00">calibration/Calibration.h</text>
</a>
</g>
<!-- Node15&#45;&gt;Node23 -->
<g id="edge66" class="edge"><title>Node15&#45;&gt;Node23</title>
<path fill="none" stroke="midnightblue" d="M2172.82,-536.497C2152.65,-527.356 2123.19,-514.008 2100.64,-503.788"/>
<polygon fill="midnightblue" stroke="midnightblue" points="2101.99,-500.561 2091.44,-499.621 2099.1,-506.937 2101.99,-500.561"/>
</g>
<!-- Node16&#45;&gt;Node3 -->
<g id="edge38" class="edge"><title>Node16&#45;&gt;Node3</title>
<path fill="none" stroke="midnightblue" d="M2343.2,-363.386C2458.94,-356.161 2691.96,-329.407 2618,-232 2559.96,-155.566 2504.13,-192.699 2410,-174 2293.7,-150.898 2155.44,-137.467 2079.03,-131.247"/>
<polygon fill="midnightblue" stroke="midnightblue" points="2078.92,-127.726 2068.67,-130.417 2078.36,-134.704 2078.92,-127.726"/>
</g>
<!-- Node16&#45;&gt;Node14 -->
<g id="edge60" class="edge"><title>Node16&#45;&gt;Node14</title>
<path fill="none" stroke="midnightblue" d="M2220.7,-356.713C2171.33,-347.834 2107.66,-332.727 2092,-312 2065.71,-277.191 2105.26,-228.784 2131.27,-202.943"/>
<polygon fill="midnightblue" stroke="midnightblue" points="2134.03,-205.141 2138.82,-195.688 2129.18,-200.094 2134.03,-205.141"/>
</g>
<!-- Node17 -->
<g id="node37" class="node"><title>Node17</title>
<a xlink:href="_memory_pool_8h.html" target="_top" xlink:title="tree/MemoryPool.h">
<polygon fill="white" stroke="black" points="2232.5,-290.5 2232.5,-311.5 2331.5,-311.5 2331.5,-290.5 2232.5,-290.5"/>
<text text-anchor="middle" x="2282" y="-298.5" font-family="Helvetica,sans-Serif" font-size="10.00">tree/MemoryPool.h</text>
</a>
</g>
<!-- Node16&#45;&gt;Node17 -->
<g id="edge40" class="edge"><title>Node16&#45;&gt;Node17</title>
<path fill="none" stroke="midnightblue" d="M2282,-348.922C2282,-340.67 2282,-330.692 2282,-321.982"/>
<polygon fill="midnightblue" stroke="midnightblue" points="2285.5,-321.852 2282,-311.852 2278.5,-321.852 2285.5,-321.852"/>
</g>
<!-- Node16&#45;&gt;Node19 -->
<g id="edge64" class="edge"><title>Node16&#45;&gt;Node19</title>
<path fill="none" stroke="midnightblue" d="M2343.14,-360.935C2434.24,-352.755 2600.81,-335.181 2656,-312 2695.18,-295.546 2713.16,-292.084 2732,-254 2749.54,-218.547 2726.16,-195.57 2693,-174 2618.61,-125.609 2578.46,-166.366 2494.34,-139.48"/>
<polygon fill="midnightblue" stroke="midnightblue" points="2495.29,-136.104 2484.69,-136.163 2493.01,-142.723 2495.29,-136.104"/>
</g>
<!-- Node21 -->
<g id="node47" class="node"><title>Node21</title>
<a xlink:href="mapped__vectors_8h.html" target="_top" xlink:title="base/mapped_vectors.h">
<polygon fill="white" stroke="black" points="2935.5,-232.5 2935.5,-253.5 3056.5,-253.5 3056.5,-232.5 2935.5,-232.5"/>
<text text-anchor="middle" x="2996" y="-240.5" font-family="Helvetica,sans-Serif" font-size="10.00">base/mapped_vectors.h</text>
</a>
</g>
<!-- Node16&#45;&gt;Node21 -->
<g id="edge52" class="edge"><title>Node16&#45;&gt;Node21</title>
<path fill="none" stroke="midnightblue" d="M2343.05,-362.9C2436.01,-357.36 2618.27,-343.274 2770,-312 2837.42,-298.103 2913.56,-272.777 2958.02,-256.977"/>
<polygon fill="midnightblue" stroke="midnightblue" points="2959.31,-260.232 2967.55,-253.564 2956.95,-253.642 2959.31,-260.232"/>
</g>
<!-- Node16&#45;&gt;Node22 -->
<g id="edge62" class="edge"><title>Node16&#45;&gt;Node22</title>
<path fill="none" stroke="midnightblue" d="M2220.59,-364.012C1952.86,-355.31 898.003,-320.618 828,-312 704.025,-296.738 669.847,-298.154 553,-254 516.669,-240.271 478.217,-216.84 454.411,-201.141"/>
<polygon fill="midnightblue" stroke="midnightblue" points="456.297,-198.192 446.04,-195.539 452.404,-204.01 456.297,-198.192"/>
</g>
<!-- Node17&#45;&gt;Node14 -->
<g id="edge48" class="edge"><title>Node17&#45;&gt;Node14</title>
<path fill="none" stroke="midnightblue" d="M2281.85,-290.313C2281.08,-275.481 2277.6,-248.611 2263,-232 2243.42,-209.727 2211.56,-197.742 2186.81,-191.463"/>
<polygon fill="midnightblue" stroke="midnightblue" points="2187.57,-188.047 2177.04,-189.18 2185.98,-194.863 2187.57,-188.047"/>
</g>
<!-- Node18 -->
<g id="node39" class="node"><title>Node18</title>
<a xlink:href="memory_8h.html" target="_top" xlink:title="base/std_ext/memory.h">
<polygon fill="white" stroke="black" points="2135.5,-232.5 2135.5,-253.5 2254.5,-253.5 2254.5,-232.5 2135.5,-232.5"/>
<text text-anchor="middle" x="2195" y="-240.5" font-family="Helvetica,sans-Serif" font-size="10.00">base/std_ext/memory.h</text>
</a>
</g>
<!-- Node17&#45;&gt;Node18 -->
<g id="edge42" class="edge"><title>Node17&#45;&gt;Node18</title>
<path fill="none" stroke="midnightblue" d="M2266.04,-290.362C2253.04,-281.696 2234.47,-269.313 2219.57,-259.382"/>
<polygon fill="midnightblue" stroke="midnightblue" points="2221.12,-256.206 2210.86,-253.571 2217.24,-262.03 2221.12,-256.206"/>
</g>
<!-- Node20 -->
<g id="node45" class="node"><title>Node20</title>
<polygon fill="white" stroke="#bfbfbf" points="2471.5,-232.5 2471.5,-253.5 2538.5,-253.5 2538.5,-232.5 2471.5,-232.5"/>
<text text-anchor="middle" x="2505" y="-240.5" font-family="Helvetica,sans-Serif" font-size="10.00">forward_list</text>
</g>
<!-- Node17&#45;&gt;Node20 -->
<g id="edge50" class="edge"><title>Node17&#45;&gt;Node20</title>
<path fill="none" stroke="midnightblue" d="M2322.38,-290.497C2361.72,-280.265 2421.34,-264.76 2461.66,-254.273"/>
<polygon fill="midnightblue" stroke="midnightblue" points="2462.67,-257.626 2471.47,-251.721 2460.91,-250.851 2462.67,-257.626"/>
</g>
<!-- Node18&#45;&gt;Node14 -->
<g id="edge44" class="edge"><title>Node18&#45;&gt;Node14</title>
<path fill="none" stroke="midnightblue" d="M2186.93,-232.362C2180.85,-224.35 2172.36,-213.161 2165.16,-203.67"/>
<polygon fill="midnightblue" stroke="midnightblue" points="2167.85,-201.422 2159.02,-195.571 2162.27,-205.653 2167.85,-201.422"/>
</g>
<!-- Node18&#45;&gt;Node19 -->
<g id="edge46" class="edge"><title>Node18&#45;&gt;Node19</title>
<path fill="none" stroke="midnightblue" d="M2220.38,-232.295C2273.23,-210 2394.48,-158.857 2446.06,-137.098"/>
<polygon fill="midnightblue" stroke="midnightblue" points="2447.56,-140.266 2455.41,-133.155 2444.83,-133.817 2447.56,-140.266"/>
</g>
<!-- Node21&#45;&gt;Node5 -->
<g id="edge54" class="edge"><title>Node21&#45;&gt;Node5</title>
<path fill="none" stroke="midnightblue" d="M3056.81,-236.45C3097.87,-230.209 3152.32,-218.306 3196,-196 3231.08,-178.087 3246.63,-173.822 3263,-138 3281.25,-98.0562 3245.33,-75.3904 3205,-58 3129.09,-25.2639 1832.11,-13.1011 1610.18,-11.2555"/>
<polygon fill="midnightblue" stroke="midnightblue" points="1610.18,-7.75548 1600.15,-11.1731 1610.12,-14.7552 1610.18,-7.75548"/>
</g>
<!-- Node21&#45;&gt;Node11 -->
<g id="edge58" class="edge"><title>Node21&#45;&gt;Node11</title>
<path fill="none" stroke="midnightblue" d="M2997.13,-232.294C2998.1,-216.932 2997.32,-188.854 2981,-174 2882.35,-84.1949 2771.5,-237.83 2683,-138 2671.44,-124.957 2673.66,-104.464 2677.73,-89.1954"/>
<polygon fill="midnightblue" stroke="midnightblue" points="2681.09,-90.2032 2680.7,-79.6152 2674.4,-88.13 2681.09,-90.2032"/>
</g>
<!-- Node21&#45;&gt;Node14 -->
<g id="edge56" class="edge"><title>Node21&#45;&gt;Node14</title>
<path fill="none" stroke="midnightblue" d="M2935.23,-238.829C2770.52,-227.523 2319.09,-196.537 2187.47,-187.503"/>
<polygon fill="midnightblue" stroke="midnightblue" points="2187.36,-183.987 2177.14,-186.794 2186.88,-190.971 2187.36,-183.987"/>
</g>
<!-- Node23&#45;&gt;Node5 -->
<g id="edge314" class="edge"><title>Node23&#45;&gt;Node5</title>
<path fill="none" stroke="midnightblue" d="M2008.36,-483.811C1908.57,-473.679 1702.7,-446.53 1540,-384 1416.84,-336.668 1400.2,-296.319 1285,-232 1254.8,-215.138 1233.93,-225.579 1216,-196 1183.87,-143.003 1188.73,-98.0774 1236,-58 1259.46,-38.1093 1465.21,-19.8967 1545.81,-13.4611"/>
<polygon fill="midnightblue" stroke="midnightblue" points="1546.19,-16.9422 1555.88,-12.6664 1545.64,-9.96391 1546.19,-16.9422"/>
</g>
<!-- Node23&#45;&gt;Node16 -->
<g id="edge298" class="edge"><title>Node23&#45;&gt;Node16</title>
<path fill="none" stroke="midnightblue" d="M2086.62,-478.3C2121.41,-458.3 2196.97,-414.872 2243.26,-388.265"/>
<polygon fill="midnightblue" stroke="midnightblue" points="2245.18,-391.198 2252.11,-383.18 2241.7,-385.129 2245.18,-391.198"/>
</g>
<!-- Node24 -->
<g id="node58" class="node"><title>Node24</title>
<a xlink:href="_physics_8h.html" target="_top" xlink:title="analysis/physics/Physics.h">
<polygon fill="white" stroke="black" points="1064,-420.5 1064,-441.5 1200,-441.5 1200,-420.5 1064,-420.5"/>
<text text-anchor="middle" x="1132" y="-428.5" font-family="Helvetica,sans-Serif" font-size="10.00">analysis/physics/Physics.h</text>
</a>
</g>
<!-- Node23&#45;&gt;Node24 -->
<g id="edge68" class="edge"><title>Node23&#45;&gt;Node24</title>
<path fill="none" stroke="midnightblue" d="M2008.38,-485.306C1845.56,-475.216 1393.3,-447.192 1210.33,-435.854"/>
<polygon fill="midnightblue" stroke="midnightblue" points="1210.45,-432.354 1200.25,-435.229 1210.01,-439.341 1210.45,-432.354"/>
</g>
<!-- Node63 -->
<g id="node213" class="node"><title>Node63</title>
<a xlink:href="_manager__traits_8h.html" target="_top" xlink:title="calibration/gui/Manager\l_traits.h">
<polygon fill="white" stroke="black" points="2763.5,-349 2763.5,-383 2880.5,-383 2880.5,-349 2763.5,-349"/>
<text text-anchor="start" x="2771.5" y="-370" font-family="Helvetica,sans-Serif" font-size="10.00">calibration/gui/Manager</text>
<text text-anchor="middle" x="2822" y="-357" font-family="Helvetica,sans-Serif" font-size="10.00">_traits.h</text>
</a>
</g>
<!-- Node23&#45;&gt;Node63 -->
<g id="edge300" class="edge"><title>Node23&#45;&gt;Node63</title>
<path fill="none" stroke="midnightblue" d="M2127.8,-479.246C2265.98,-456.703 2606.82,-401.102 2753.29,-377.208"/>
<polygon fill="midnightblue" stroke="midnightblue" points="2754.19,-380.608 2763.5,-375.543 2753.07,-373.699 2754.19,-380.608"/>
</g>
<!-- Node24&#45;&gt;Node10 -->
<g id="edge290" class="edge"><title>Node24&#45;&gt;Node10</title>
<path fill="none" stroke="midnightblue" d="M1063.94,-427.814C872.461,-418.76 340.648,-392.96 304,-384 147.135,-345.649 0,-346.485 0,-185 0,-185 0,-185 0,-127 0,-74.8161 46.2145,-76.524 95,-58 177.827,-26.5502 451.721,-14.979 544.194,-11.9122"/>
<polygon fill="midnightblue" stroke="midnightblue" points="544.419,-15.4069 554.302,-11.5873 544.194,-8.41051 544.419,-15.4069"/>
</g>
<!-- Node24&#45;&gt;Node14 -->
<g id="edge294" class="edge"><title>Node24&#45;&gt;Node14</title>
<path fill="none" stroke="midnightblue" d="M1200.24,-426.248C1334.49,-416.719 1623.75,-395.233 1668,-384 1832.38,-342.275 1860.18,-294.069 2018,-232 2050.54,-219.204 2088.15,-206.064 2115.05,-196.942"/>
<polygon fill="midnightblue" stroke="midnightblue" points="2116.45,-200.164 2124.81,-193.652 2114.21,-193.531 2116.45,-200.164"/>
</g>
<!-- Node24&#45;&gt;Node19 -->
<g id="edge288" class="edge"><title>Node24&#45;&gt;Node19</title>
<path fill="none" stroke="midnightblue" d="M1200.02,-426.62C1311.92,-419.208 1541.83,-403.119 1736,-384 1826.82,-375.057 2491.86,-326.718 2547,-254 2575.32,-216.657 2524.61,-168.321 2492.82,-143.426"/>
<polygon fill="midnightblue" stroke="midnightblue" points="2494.89,-140.609 2484.82,-137.339 2490.66,-146.18 2494.89,-140.609"/>
</g>
<!-- Node24&#45;&gt;Node22 -->
<g id="edge292" class="edge"><title>Node24&#45;&gt;Node22</title>
<path fill="none" stroke="midnightblue" d="M1063.77,-427.966C924.371,-421.376 616.316,-404.672 573,-384 497.08,-347.768 453.6,-248.353 437.836,-205.31"/>
<polygon fill="midnightblue" stroke="midnightblue" points="441.056,-203.915 434.423,-195.654 434.456,-206.249 441.056,-203.915"/>
</g>
<!-- Node25 -->
<g id="node60" class="node"><title>Node25</title>
<a xlink:href="_histogram_factories_8h.html" target="_top" xlink:title="analysis/plot/HistogramFactories.h">
<polygon fill="white" stroke="black" points="1048,-355.5 1048,-376.5 1216,-376.5 1216,-355.5 1048,-355.5"/>
<text text-anchor="middle" x="1132" y="-363.5" font-family="Helvetica,sans-Serif" font-size="10.00">analysis/plot/HistogramFactories.h</text>
</a>
</g>
<!-- Node24&#45;&gt;Node25 -->
<g id="edge70" class="edge"><title>Node24&#45;&gt;Node25</title>
<path fill="none" stroke="midnightblue" d="M1132,-420.267C1132,-411.18 1132,-397.892 1132,-386.74"/>
<polygon fill="midnightblue" stroke="midnightblue" points="1135.5,-386.534 1132,-376.534 1128.5,-386.534 1135.5,-386.534"/>
</g>
<!-- Node34 -->
<g id="node88" class="node"><title>Node34</title>
<polygon fill="white" stroke="#bfbfbf" points="602.5,-174.5 602.5,-195.5 661.5,-195.5 661.5,-174.5 602.5,-174.5"/>
<text text-anchor="middle" x="632" y="-182.5" font-family="Helvetica,sans-Serif" font-size="10.00">functional</text>
</g>
<!-- Node24&#45;&gt;Node34 -->
<g id="edge296" class="edge"><title>Node24&#45;&gt;Node34</title>
<path fill="none" stroke="midnightblue" d="M1063.86,-428.247C919.064,-420.818 588.373,-394.949 520,-312 497.385,-284.564 500.315,-261.609 520,-232 536.007,-207.923 566.995,-196.155 592.325,-190.417"/>
<polygon fill="midnightblue" stroke="midnightblue" points="593.313,-193.788 602.419,-188.372 591.923,-186.927 593.313,-193.788"/>
</g>
<!-- Node49 -->
<g id="node146" class="node"><title>Node49</title>
<a xlink:href="_event_8h.html" target="_top" xlink:title="analysis/data/Event.h">
<polygon fill="white" stroke="black" points="1548.5,-355.5 1548.5,-376.5 1659.5,-376.5 1659.5,-355.5 1548.5,-355.5"/>
<text text-anchor="middle" x="1604" y="-363.5" font-family="Helvetica,sans-Serif" font-size="10.00">analysis/data/Event.h</text>
</a>
</g>
<!-- Node24&#45;&gt;Node49 -->
<g id="edge194" class="edge"><title>Node24&#45;&gt;Node49</title>
<path fill="none" stroke="midnightblue" d="M1200.13,-421.618C1290.59,-409.16 1449.28,-387.306 1538.43,-375.029"/>
<polygon fill="midnightblue" stroke="midnightblue" points="1539,-378.485 1548.42,-373.653 1538.04,-371.551 1539,-378.485"/>
</g>
<!-- Node61 -->
<g id="node198" class="node"><title>Node61</title>
<a xlink:href="_slowcontrol_8h.html" target="_top" xlink:title="analysis/data/Slowcontrol.h">
<polygon fill="white" stroke="black" points="2879.5,-116.5 2879.5,-137.5 3016.5,-137.5 3016.5,-116.5 2879.5,-116.5"/>
<text text-anchor="middle" x="2948" y="-124.5" font-family="Helvetica,sans-Serif" font-size="10.00">analysis/data/Slowcontrol.h</text>
</a>
</g>
<!-- Node24&#45;&gt;Node61 -->
<g id="edge274" class="edge"><title>Node24&#45;&gt;Node61</title>
<path fill="none" stroke="midnightblue" d="M1200.17,-430.004C1513.75,-425.318 2805.81,-404.816 2889,-384 2988.97,-358.984 3046.08,-350.958 3081,-254 3099.83,-201.699 3031.53,-161.793 2985.9,-141.616"/>
<polygon fill="midnightblue" stroke="midnightblue" points="2987.12,-138.33 2976.55,-137.612 2984.36,-144.765 2987.12,-138.33"/>
</g>
<!-- Node62 -->
<g id="node202" class="node"><title>Node62</title>
<a xlink:href="_options_list_8h.html" target="_top" xlink:title="base/OptionsList.h">
<polygon fill="white" stroke="black" points="256,-232.5 256,-253.5 354,-253.5 354,-232.5 256,-232.5"/>
<text text-anchor="middle" x="305" y="-240.5" font-family="Helvetica,sans-Serif" font-size="10.00">base/OptionsList.h</text>
</a>
</g>
<!-- Node24&#45;&gt;Node62 -->
<g id="edge280" class="edge"><title>Node24&#45;&gt;Node62</title>
<path fill="none" stroke="midnightblue" d="M1063.83,-428.133C872.359,-419.936 342.63,-396.206 329,-384 295.226,-353.755 297.42,-294.932 301.456,-263.678"/>
<polygon fill="midnightblue" stroke="midnightblue" points="304.958,-263.92 302.963,-253.515 298.034,-262.893 304.958,-263.92"/>
</g>
<!-- Node25&#45;&gt;Node10 -->
<g id="edge192" class="edge"><title>Node25&#45;&gt;Node10</title>
<path fill="none" stroke="midnightblue" d="M1047.9,-363.569C912.073,-358.787 636.248,-345.537 405,-312 249.884,-289.504 76,-341.738 76,-185 76,-185 76,-185 76,-127 76,-85.7719 101.298,-76.7804 138,-58 209.241,-21.5462 457.108,-13.2766 544.341,-11.4784"/>
<polygon fill="midnightblue" stroke="midnightblue" points="544.462,-14.9768 554.393,-11.2856 544.328,-7.97806 544.462,-14.9768"/>
</g>
<!-- Node26 -->
<g id="node62" class="node"><title>Node26</title>
<a xlink:href="_histogram_8h.html" target="_top" xlink:title="Histogram.h">
<polygon fill="white" stroke="black" points="1122,-232.5 1122,-253.5 1192,-253.5 1192,-232.5 1122,-232.5"/>
<text text-anchor="middle" x="1157" y="-240.5" font-family="Helvetica,sans-Serif" font-size="10.00">Histogram.h</text>
</a>
</g>
<!-- Node25&#45;&gt;Node26 -->
<g id="edge72" class="edge"><title>Node25&#45;&gt;Node26</title>
<path fill="none" stroke="midnightblue" d="M1134.22,-355.085C1138.38,-334.609 1147.42,-290.133 1152.78,-263.778"/>
<polygon fill="midnightblue" stroke="midnightblue" points="1156.26,-264.212 1154.82,-253.715 1149.4,-262.818 1156.26,-264.212"/>
</g>
<!-- Node32 -->
<g id="node78" class="node"><title>Node32</title>
<a xlink:href="_smart_hist_8h.html" target="_top" xlink:title="SmartHist.h">
<polygon fill="white" stroke="black" points="836.5,-290.5 836.5,-311.5 905.5,-311.5 905.5,-290.5 836.5,-290.5"/>
<text text-anchor="middle" x="871" y="-298.5" font-family="Helvetica,sans-Serif" font-size="10.00">SmartHist.h</text>
</a>
</g>
<!-- Node25&#45;&gt;Node32 -->
<g id="edge92" class="edge"><title>Node25&#45;&gt;Node32</title>
<path fill="none" stroke="midnightblue" d="M1089.78,-355.484C1041.96,-343.576 964.377,-324.255 915.6,-312.107"/>
<polygon fill="midnightblue" stroke="midnightblue" points="916.199,-308.65 905.65,-309.629 914.508,-315.442 916.199,-308.65"/>
</g>
<!-- Node41 -->
<g id="node105" class="node"><title>Node41</title>
<a xlink:href="_particle_8h.html" target="_top" xlink:title="analysis/data/Particle.h">
<polygon fill="white" stroke="black" points="1544.5,-290.5 1544.5,-311.5 1663.5,-311.5 1663.5,-290.5 1544.5,-290.5"/>
<text text-anchor="middle" x="1604" y="-298.5" font-family="Helvetica,sans-Serif" font-size="10.00">analysis/data/Particle.h</text>
</a>
</g>
<!-- Node25&#45;&gt;Node41 -->
<g id="edge128" class="edge"><title>Node25&#45;&gt;Node41</title>
<path fill="none" stroke="midnightblue" d="M1208.36,-355.484C1298.46,-343.077 1447,-322.621 1534.16,-310.618"/>
<polygon fill="midnightblue" stroke="midnightblue" points="1534.79,-314.064 1544.22,-309.233 1533.83,-307.13 1534.79,-314.064"/>
</g>
<!-- Node26&#45;&gt;Node5 -->
<g id="edge76" class="edge"><title>Node26&#45;&gt;Node5</title>
<path fill="none" stroke="midnightblue" d="M1152.47,-232.095C1140.18,-200.551 1110.01,-108.26 1155,-58 1180.98,-28.9749 1451.17,-15.8767 1545.62,-12.1607"/>
<polygon fill="midnightblue" stroke="midnightblue" points="1545.88,-15.6536 1555.74,-11.7725 1545.61,-8.65879 1545.88,-15.6536"/>
</g>
<!-- Node26&#45;&gt;Node10 -->
<g id="edge78" class="edge"><title>Node26&#45;&gt;Node10</title>
<path fill="none" stroke="midnightblue" d="M1121.97,-233.896C1089.87,-225.23 1041.22,-211.273 1000,-196 858.583,-143.6 828.707,-117.201 690,-58 661.36,-45.7763 628.448,-32.3914 605.191,-23.0429"/>
<polygon fill="midnightblue" stroke="midnightblue" points="606.439,-19.7728 595.855,-19.2987 603.834,-26.2697 606.439,-19.7728"/>
</g>
<!-- Node27 -->
<g id="node64" class="node"><title>Node27</title>
<polygon fill="white" stroke="#bfbfbf" points="1009,-174.5 1009,-195.5 1063,-195.5 1063,-174.5 1009,-174.5"/>
<text text-anchor="middle" x="1036" y="-182.5" font-family="Helvetica,sans-Serif" font-size="10.00">TColor.h</text>
</g>
<!-- Node26&#45;&gt;Node27 -->
<g id="edge74" class="edge"><title>Node26&#45;&gt;Node27</title>
<path fill="none" stroke="midnightblue" d="M1135.09,-232.497C1116.19,-223.438 1088.67,-210.246 1067.42,-200.063"/>
<polygon fill="midnightblue" stroke="midnightblue" points="1068.69,-196.788 1058.16,-195.621 1065.66,-203.1 1068.69,-196.788"/>
</g>
<!-- Node28 -->
<g id="node68" class="node"><title>Node28</title>
<a xlink:href="interval_8h.html" target="_top" xlink:title="base/interval.h">
<polygon fill="white" stroke="black" points="2859,-174.5 2859,-195.5 2939,-195.5 2939,-174.5 2859,-174.5"/>
<text text-anchor="middle" x="2899" y="-182.5" font-family="Helvetica,sans-Serif" font-size="10.00">base/interval.h</text>
</a>
</g>
<!-- Node26&#45;&gt;Node28 -->
<g id="edge80" class="edge"><title>Node26&#45;&gt;Node28</title>
<path fill="none" stroke="midnightblue" d="M1192.41,-233.445C1195.3,-232.88 1198.19,-232.385 1201,-232 1367.59,-209.147 2585.14,-189.708 2848.75,-185.74"/>
<polygon fill="midnightblue" stroke="midnightblue" points="2848.86,-189.239 2858.8,-185.589 2848.75,-182.24 2848.86,-189.239"/>
</g>
<!-- Node28&#45;&gt;Node4 -->
<g id="edge86" class="edge"><title>Node28&#45;&gt;Node4</title>
<path fill="none" stroke="midnightblue" d="M2858.96,-176.473C2854.26,-175.583 2849.53,-174.736 2845,-174 2714.19,-152.757 2677.48,-170.489 2549,-138 2523.08,-131.444 2519.17,-121.487 2493,-116 2491.21,-115.625 1574.57,-80.0997 1341.43,-71.0692"/>
<polygon fill="midnightblue" stroke="midnightblue" points="1341.3,-67.5616 1331.17,-70.6718 1341.03,-74.5563 1341.3,-67.5616"/>
</g>
<!-- Node28&#45;&gt;Node9 -->
<g id="edge84" class="edge"><title>Node28&#45;&gt;Node9</title>
<path fill="none" stroke="midnightblue" d="M2858.95,-176.523C2854.26,-175.624 2849.53,-174.761 2845,-174 2725.18,-153.862 2676.11,-203.851 2574,-138 2556.39,-126.642 2544.74,-105.248 2538.06,-89.2808"/>
<polygon fill="midnightblue" stroke="midnightblue" points="2541.24,-87.8024 2534.38,-79.7315 2534.71,-90.3211 2541.24,-87.8024"/>
</g>
<!-- Node29 -->
<g id="node70" class="node"><title>Node29</title>
<polygon fill="white" stroke="#bfbfbf" points="3373,-0.5 3373,-21.5 3429,-21.5 3429,-0.5 3373,-0.5"/>
<text text-anchor="middle" x="3401" y="-8.5" font-family="Helvetica,sans-Serif" font-size="10.00">algorithm</text>
</g>
<!-- Node28&#45;&gt;Node29 -->
<g id="edge82" class="edge"><title>Node28&#45;&gt;Node29</title>
<path fill="none" stroke="midnightblue" d="M2858.86,-176.785C2793.56,-163.411 2671.46,-138.371 2671,-138 2641.84,-114.599 2619.4,-85.2439 2645,-58 2669.82,-31.5922 3212.55,-15.8118 3362.77,-11.9392"/>
<polygon fill="midnightblue" stroke="midnightblue" points="3362.98,-15.4349 3372.89,-11.6809 3362.81,-8.43714 3362.98,-15.4349"/>
</g>
<!-- Node30 -->
<g id="node74" class="node"><title>Node30</title>
<a xlink:href="types_8h.html" target="_top" xlink:title="types.h">
<polygon fill="white" stroke="black" points="1658.5,-116.5 1658.5,-137.5 1707.5,-137.5 1707.5,-116.5 1658.5,-116.5"/>
<text text-anchor="middle" x="1683" y="-124.5" font-family="Helvetica,sans-Serif" font-size="10.00">types.h</text>
</a>
</g>
<!-- Node28&#45;&gt;Node30 -->
<g id="edge88" class="edge"><title>Node28&#45;&gt;Node30</title>
<path fill="none" stroke="midnightblue" d="M2858.89,-183.087C2672.43,-174.193 1892.1,-136.973 1717.68,-128.654"/>
<polygon fill="midnightblue" stroke="midnightblue" points="1717.69,-125.151 1707.53,-128.17 1717.35,-132.143 1717.69,-125.151"/>
</g>
<!-- Node28&#45;&gt;Node31 -->
<g id="edge90" class="edge"><title>Node28&#45;&gt;Node31</title>
<path fill="none" stroke="midnightblue" d="M2939.09,-181.921C3031.05,-174.796 3264.25,-156.372 3459,-138 3484.17,-135.625 3512.71,-132.616 3533.67,-130.345"/>
<polygon fill="midnightblue" stroke="midnightblue" points="3534.32,-133.795 3543.88,-129.232 3533.56,-126.836 3534.32,-133.795"/>
</g>
<!-- Node32&#45;&gt;Node10 -->
<g id="edge122" class="edge"><title>Node32&#45;&gt;Node10</title>
<path fill="none" stroke="midnightblue" d="M836.43,-300.683C712.107,-299.235 292.664,-291.583 247,-254 222.441,-233.786 228,-216.808 228,-185 228,-185 228,-185 228,-127 228,-60.6029 459.412,-25.2906 544.277,-14.573"/>
<polygon fill="midnightblue" stroke="midnightblue" points="544.837,-18.0307 554.333,-13.3323 543.979,-11.0833 544.837,-18.0307"/>
</g>
<!-- Node32&#45;&gt;Node14 -->
<g id="edge120" class="edge"><title>Node32&#45;&gt;Node14</title>
<path fill="none" stroke="midnightblue" d="M905.895,-300.367C1051.53,-297.544 1611.35,-284.868 1785,-254 1817.53,-248.218 1823.76,-239.221 1856,-232 1967.69,-206.981 1998.92,-219.222 2111,-196 2112.27,-195.737 2113.56,-195.457 2114.86,-195.162"/>
<polygon fill="midnightblue" stroke="midnightblue" points="2115.99,-198.488 2124.87,-192.703 2114.32,-191.69 2115.99,-198.488"/>
</g>
<!-- Node32&#45;&gt;Node18 -->
<g id="edge112" class="edge"><title>Node32&#45;&gt;Node18</title>
<path fill="none" stroke="midnightblue" d="M905.733,-299.478C1082.41,-291.739 1882.46,-256.691 2125.06,-246.064"/>
<polygon fill="midnightblue" stroke="midnightblue" points="2125.33,-249.556 2135.16,-245.621 2125.02,-242.562 2125.33,-249.556"/>
</g>
<!-- Node32&#45;&gt;Node26 -->
<g id="edge94" class="edge"><title>Node32&#45;&gt;Node26</title>
<path fill="none" stroke="midnightblue" d="M905.584,-294.881C950.726,-286.763 1032.41,-271.628 1111.8,-254.185"/>
<polygon fill="midnightblue" stroke="midnightblue" points="1112.97,-257.512 1121.98,-251.934 1111.46,-250.677 1112.97,-257.512"/>
</g>
<!-- Node33 -->
<g id="node81" class="node"><title>Node33</title>
<a xlink:href="root__draw_8h.html" target="_top" xlink:title="root_draw.h">
<polygon fill="white" stroke="black" points="1036,-232.5 1036,-253.5 1104,-253.5 1104,-232.5 1036,-232.5"/>
<text text-anchor="middle" x="1070" y="-240.5" font-family="Helvetica,sans-Serif" font-size="10.00">root_draw.h</text>
</a>
</g>
<!-- Node32&#45;&gt;Node33 -->
<g id="edge96" class="edge"><title>Node32&#45;&gt;Node33</title>
<path fill="none" stroke="midnightblue" d="M905.663,-290.897C939.049,-281.167 989.686,-266.408 1025.92,-255.847"/>
<polygon fill="midnightblue" stroke="midnightblue" points="1027.11,-259.145 1035.73,-252.987 1025.15,-252.425 1027.11,-259.145"/>
</g>
<!-- Node36 -->
<g id="node93" class="node"><title>Node36</title>
<polygon fill="white" stroke="#bfbfbf" points="777.5,-232.5 777.5,-253.5 828.5,-253.5 828.5,-232.5 777.5,-232.5"/>
<text text-anchor="middle" x="803" y="-240.5" font-family="Helvetica,sans-Serif" font-size="10.00">TH1D.h</text>
</g>
<!-- Node32&#45;&gt;Node36 -->
<g id="edge114" class="edge"><title>Node32&#45;&gt;Node36</title>
<path fill="none" stroke="midnightblue" d="M858.528,-290.362C848.655,-281.941 834.667,-270.011 823.202,-260.231"/>
<polygon fill="midnightblue" stroke="midnightblue" points="825.273,-257.397 815.393,-253.571 820.73,-262.723 825.273,-257.397"/>
</g>
<!-- Node37 -->
<g id="node95" class="node"><title>Node37</title>
<polygon fill="white" stroke="#bfbfbf" points="845.5,-232.5 845.5,-253.5 896.5,-253.5 896.5,-232.5 845.5,-232.5"/>
<text text-anchor="middle" x="871" y="-240.5" font-family="Helvetica,sans-Serif" font-size="10.00">TH2D.h</text>
</g>
<!-- Node32&#45;&gt;Node37 -->
<g id="edge116" class="edge"><title>Node32&#45;&gt;Node37</title>
<path fill="none" stroke="midnightblue" d="M871,-290.362C871,-282.922 871,-272.743 871,-263.728"/>
<polygon fill="midnightblue" stroke="midnightblue" points="874.5,-263.571 871,-253.571 867.5,-263.571 874.5,-263.571"/>
</g>
<!-- Node38 -->
<g id="node97" class="node"><title>Node38</title>
<polygon fill="white" stroke="#bfbfbf" points="633.5,-232.5 633.5,-253.5 684.5,-253.5 684.5,-232.5 633.5,-232.5"/>
<text text-anchor="middle" x="659" y="-240.5" font-family="Helvetica,sans-Serif" font-size="10.00">TH3D.h</text>
</g>
<!-- Node32&#45;&gt;Node38 -->
<g id="edge118" class="edge"><title>Node32&#45;&gt;Node38</title>
<path fill="none" stroke="midnightblue" d="M836.389,-292.458C802.445,-283.95 749.015,-270.208 694.416,-254.323"/>
<polygon fill="midnightblue" stroke="midnightblue" points="695.154,-250.892 684.573,-251.439 693.186,-257.61 695.154,-250.892"/>
</g>
<!-- Node32&#45;&gt;Node39 -->
<g id="edge124" class="edge"><title>Node32&#45;&gt;Node39</title>
<path fill="none" stroke="midnightblue" d="M836.115,-295.552C790.075,-288.098 706.363,-273.629 625.841,-254.02"/>
<polygon fill="midnightblue" stroke="midnightblue" points="626.587,-250.6 616.04,-251.604 624.911,-257.396 626.587,-250.6"/>
</g>
<!-- Node40 -->
<g id="node103" class="node"><title>Node40</title>
<polygon fill="white" stroke="#bfbfbf" points="701.5,-232.5 701.5,-253.5 760.5,-253.5 760.5,-232.5 701.5,-232.5"/>
<text text-anchor="middle" x="731" y="-240.5" font-family="Helvetica,sans-Serif" font-size="10.00">exception</text>
</g>
<!-- Node32&#45;&gt;Node40 -->
<g id="edge126" class="edge"><title>Node32&#45;&gt;Node40</title>
<path fill="none" stroke="midnightblue" d="M845.647,-290.497C823.387,-281.275 790.788,-267.769 766.037,-257.515"/>
<polygon fill="midnightblue" stroke="midnightblue" points="767.216,-254.215 756.637,-253.621 764.536,-260.682 767.216,-254.215"/>
</g>
<!-- Node33&#45;&gt;Node5 -->
<g id="edge102" class="edge"><title>Node33&#45;&gt;Node5</title>
<path fill="none" stroke="midnightblue" d="M1042.68,-232.429C1027.14,-224.832 1009.02,-212.922 1000,-196 995.4,-187.372 995.872,-182.863 1000,-174 1033.83,-101.369 1064.29,-89.4012 1138,-58 1211.69,-26.609 1457.26,-15.173 1545.82,-12.011"/>
<polygon fill="midnightblue" stroke="midnightblue" points="1545.94,-15.5088 1555.82,-11.6656 1545.7,-8.513 1545.94,-15.5088"/>
</g>
<!-- Node33&#45;&gt;Node10 -->
<g id="edge98" class="edge"><title>Node33&#45;&gt;Node10</title>
<path fill="none" stroke="midnightblue" d="M1035.82,-233.282C1006.91,-224.667 964.625,-211.131 929,-196 802.638,-142.328 660.002,-61.027 601.837,-26.9307"/>
<polygon fill="midnightblue" stroke="midnightblue" points="603.32,-23.7421 592.926,-21.6881 599.77,-29.7755 603.32,-23.7421"/>
</g>
<!-- Node33&#45;&gt;Node14 -->
<g id="edge106" class="edge"><title>Node33&#45;&gt;Node14</title>
<path fill="none" stroke="midnightblue" d="M1104.13,-233.565C1107.12,-232.954 1110.1,-232.418 1113,-232 1552.3,-168.637 1672.29,-263.298 2111,-196 2112.28,-195.803 2113.58,-195.58 2114.89,-195.335"/>
<polygon fill="midnightblue" stroke="midnightblue" points="2115.94,-198.687 2124.94,-193.102 2114.42,-191.854 2115.94,-198.687"/>
</g>
<!-- Node33&#45;&gt;Node19 -->
<g id="edge100" class="edge"><title>Node33&#45;&gt;Node19</title>
<path fill="none" stroke="midnightblue" d="M1104.15,-233.656C1107.13,-233.026 1110.11,-232.46 1113,-232 1355.36,-193.424 1419.93,-221.597 1664,-196 1731.89,-188.88 1748.14,-181.34 1816,-174 2060.49,-147.556 2358.07,-132.273 2445.03,-128.145"/>
<polygon fill="midnightblue" stroke="midnightblue" points="2445.41,-131.632 2455.23,-127.667 2445.08,-124.64 2445.41,-131.632"/>
</g>
<!-- Node33&#45;&gt;Node22 -->
<g id="edge104" class="edge"><title>Node33&#45;&gt;Node22</title>
<path fill="none" stroke="midnightblue" d="M1035.85,-233.699C1032.87,-233.059 1029.89,-232.48 1027,-232 970.518,-222.62 568.627,-194.493 458.72,-186.904"/>
<polygon fill="midnightblue" stroke="midnightblue" points="458.952,-183.412 448.735,-186.216 458.471,-190.395 458.952,-183.412"/>
</g>
<!-- Node33&#45;&gt;Node34 -->
<g id="edge108" class="edge"><title>Node33&#45;&gt;Node34</title>
<path fill="none" stroke="midnightblue" d="M1035.82,-233.823C1032.85,-233.157 1029.88,-232.537 1027,-232 959.385,-219.386 757.847,-197.947 671.731,-189.053"/>
<polygon fill="midnightblue" stroke="midnightblue" points="671.882,-185.55 661.576,-188.007 671.165,-192.513 671.882,-185.55"/>
</g>
<!-- Node35 -->
<g id="node90" class="node"><title>Node35</title>
<polygon fill="white" stroke="#bfbfbf" points="2692,-116.5 2692,-137.5 2748,-137.5 2748,-116.5 2692,-116.5"/>
<text text-anchor="middle" x="2720" y="-124.5" font-family="Helvetica,sans-Serif" font-size="10.00">Rtypes.h</text>
</g>
<!-- Node33&#45;&gt;Node35 -->
<g id="edge110" class="edge"><title>Node33&#45;&gt;Node35</title>
<path fill="none" stroke="midnightblue" d="M1104.14,-233.59C1107.12,-232.975 1110.1,-232.43 1113,-232 1470.77,-178.899 1565.46,-224.819 1926,-196 2010.74,-189.227 2031.39,-182.188 2116,-174 2329.67,-153.324 2586.56,-135.742 2681.94,-129.463"/>
<polygon fill="midnightblue" stroke="midnightblue" points="2682.22,-132.952 2691.97,-128.805 2681.76,-125.967 2682.22,-132.952"/>
</g>
<!-- Node41&#45;&gt;Node4 -->
<g id="edge156" class="edge"><title>Node41&#45;&gt;Node4</title>
<path fill="none" stroke="midnightblue" d="M1553.53,-290.496C1512.89,-281.714 1454.43,-268.346 1404,-254 1384.5,-248.453 1242.84,-212.457 1231,-196 1210.24,-167.138 1215.84,-148.159 1231,-116 1236.96,-103.368 1248.16,-92.9782 1259.07,-85.2091"/>
<polygon fill="midnightblue" stroke="midnightblue" points="1261.23,-87.977 1267.64,-79.5475 1257.37,-82.1346 1261.23,-87.977"/>
</g>
<!-- Node41&#45;&gt;Node5 -->
<g id="edge184" class="edge"><title>Node41&#45;&gt;Node5</title>
<path fill="none" stroke="midnightblue" d="M1612.66,-290.479C1637.32,-260.21 1706.78,-172.853 1716,-138 1718.5,-128.547 1719.86,-124.986 1716,-116 1696.28,-70.046 1644.06,-39.5212 1609.81,-23.7498"/>
<polygon fill="midnightblue" stroke="midnightblue" points="1610.8,-20.3613 1600.24,-19.5099 1607.96,-26.7611 1610.8,-20.3613"/>
</g>
<!-- Node41&#45;&gt;Node14 -->
<g id="edge190" class="edge"><title>Node41&#45;&gt;Node14</title>
<path fill="none" stroke="midnightblue" d="M1663.54,-291.038C1714.75,-282.198 1790.49,-268.472 1856,-254 1894.52,-245.49 1903.59,-241.001 1942,-232 2016.77,-214.48 2036.39,-214.189 2111,-196 2112.26,-195.693 2113.54,-195.375 2114.83,-195.048"/>
<polygon fill="midnightblue" stroke="midnightblue" points="2116.02,-198.356 2124.81,-192.439 2114.25,-191.584 2116.02,-198.356"/>
</g>
<!-- Node41&#45;&gt;Node19 -->
<g id="edge186" class="edge"><title>Node41&#45;&gt;Node19</title>
<path fill="none" stroke="midnightblue" d="M1647.73,-290.466C1684.52,-281.409 1738.43,-267.677 1785,-254 1815.07,-245.168 1821.77,-240.262 1852,-232 1866.49,-228.041 2101.21,-176.602 2116,-174 2239.04,-152.355 2387.72,-135.664 2445.44,-129.54"/>
<polygon fill="midnightblue" stroke="midnightblue" points="2445.85,-133.015 2455.43,-128.489 2445.12,-126.054 2445.85,-133.015"/>
</g>
<!-- Node41&#45;&gt;Node30 -->
<g id="edge158" class="edge"><title>Node41&#45;&gt;Node30</title>
<path fill="none" stroke="midnightblue" d="M1606.2,-290.052C1609.4,-275.854 1616.28,-250.697 1628,-232 1640.02,-212.83 1652.62,-215.557 1664,-196 1672.58,-181.256 1677.42,-162.48 1680.07,-148.238"/>
<polygon fill="midnightblue" stroke="midnightblue" points="1683.59,-148.385 1681.75,-137.952 1676.68,-147.257 1683.59,-148.385"/>
</g>
<!-- Node41&#45;&gt;Node39 -->
<g id="edge188" class="edge"><title>Node41&#45;&gt;Node39</title>
<path fill="none" stroke="midnightblue" d="M1544.23,-300.074C1363.24,-296.97 822.049,-285.395 626.243,-253.79"/>
<polygon fill="midnightblue" stroke="midnightblue" points="626.789,-250.332 616.347,-252.123 625.626,-257.235 626.789,-250.332"/>
</g>
<!-- Node42 -->
<g id="node107" class="node"><title>Node42</title>
<a xlink:href="_candidate_8h.html" target="_top" xlink:title="analysis/data/Candidate.h">
<polygon fill="white" stroke="black" points="1446,-232.5 1446,-253.5 1576,-253.5 1576,-232.5 1446,-232.5"/>
<text text-anchor="middle" x="1511" y="-240.5" font-family="Helvetica,sans-Serif" font-size="10.00">analysis/data/Candidate.h</text>
</a>
</g>
<!-- Node41&#45;&gt;Node42 -->
<g id="edge130" class="edge"><title>Node41&#45;&gt;Node42</title>
<path fill="none" stroke="midnightblue" d="M1586.94,-290.362C1572.92,-281.614 1552.82,-269.079 1536.82,-259.101"/>
<polygon fill="midnightblue" stroke="midnightblue" points="1538.29,-255.893 1527.95,-253.571 1534.58,-261.832 1538.29,-255.893"/>
</g>
<!-- Node45 -->
<g id="node125" class="node"><title>Node45</title>
<a xlink:href="_particle_type_8h.html" target="_top" xlink:title="base/ParticleType.h">
<polygon fill="white" stroke="black" points="914,-232.5 914,-253.5 1018,-253.5 1018,-232.5 914,-232.5"/>
<text text-anchor="middle" x="966" y="-240.5" font-family="Helvetica,sans-Serif" font-size="10.00">base/ParticleType.h</text>
</a>
</g>
<!-- Node41&#45;&gt;Node45 -->
<g id="edge160" class="edge"><title>Node41&#45;&gt;Node45</title>
<path fill="none" stroke="midnightblue" d="M1544.41,-298.059C1441.29,-292.551 1222.74,-279.035 1028.31,-254.068"/>
<polygon fill="midnightblue" stroke="midnightblue" points="1028.56,-250.571 1018.19,-252.756 1027.66,-257.513 1028.56,-250.571"/>
</g>
<!-- Node47 -->
<g id="node134" class="node"><title>Node47</title>
<a xlink:href="_tree_8h.html" target="_top" xlink:title="base/Tree.h">
<polygon fill="white" stroke="black" points="2348,-232.5 2348,-253.5 2416,-253.5 2416,-232.5 2348,-232.5"/>
<text text-anchor="middle" x="2382" y="-240.5" font-family="Helvetica,sans-Serif" font-size="10.00">base/Tree.h</text>
</a>
</g>
<!-- Node41&#45;&gt;Node47 -->
<g id="edge174" class="edge"><title>Node41&#45;&gt;Node47</title>
<path fill="none" stroke="midnightblue" d="M1663.55,-297.173C1779.17,-289.65 2042.08,-272.087 2263,-254 2287.72,-251.976 2315.31,-249.443 2337.69,-247.318"/>
<polygon fill="midnightblue" stroke="midnightblue" points="2338.28,-250.778 2347.91,-246.343 2337.62,-243.81 2338.28,-250.778"/>
</g>
<!-- Node48 -->
<g id="node139" class="node"><title>Node48</title>
<polygon fill="white" stroke="#bfbfbf" points="1825,-174.5 1825,-195.5 1917,-195.5 1917,-174.5 1825,-174.5"/>
<text text-anchor="middle" x="1871" y="-182.5" font-family="Helvetica,sans-Serif" font-size="10.00">TLorentzVector.h</text>
</g>
<!-- Node41&#45;&gt;Node48 -->
<g id="edge182" class="edge"><title>Node41&#45;&gt;Node48</title>
<path fill="none" stroke="midnightblue" d="M1615.69,-290.313C1632.77,-275.232 1666.1,-247.787 1699,-232 1719.54,-222.142 1773.33,-208.082 1815.33,-197.911"/>
<polygon fill="midnightblue" stroke="midnightblue" points="1816.28,-201.283 1825.19,-195.544 1814.65,-194.476 1816.28,-201.283"/>
</g>
<!-- Node42&#45;&gt;Node3 -->
<g id="edge136" class="edge"><title>Node42&#45;&gt;Node3</title>
<path fill="none" stroke="midnightblue" d="M1557.61,-232.398C1651.52,-211.04 1863.13,-162.907 1964.62,-139.823"/>
<polygon fill="midnightblue" stroke="midnightblue" points="1965.71,-143.166 1974.68,-137.535 1964.15,-136.34 1965.71,-143.166"/>
</g>
<!-- Node42&#45;&gt;Node4 -->
<g id="edge132" class="edge"><title>Node42&#45;&gt;Node4</title>
<path fill="none" stroke="midnightblue" d="M1454.98,-232.431C1413.57,-223.661 1361.6,-210.341 1345,-196 1312.55,-167.968 1297.7,-117.779 1291.64,-89.6175"/>
<polygon fill="midnightblue" stroke="midnightblue" points="1295.05,-88.8009 1289.67,-79.6703 1288.18,-90.1595 1295.05,-88.8009"/>
</g>
<!-- Node42&#45;&gt;Node5 -->
<g id="edge154" class="edge"><title>Node42&#45;&gt;Node5</title>
<path fill="none" stroke="midnightblue" d="M1500.6,-232.468C1492.55,-223.569 1481.96,-210.057 1477,-196 1465.17,-162.444 1460.46,-148.905 1474,-116 1489.81,-77.5822 1527.22,-45.7592 1552.59,-27.5564"/>
<polygon fill="midnightblue" stroke="midnightblue" points="1554.79,-30.2839 1561,-21.6975 1550.79,-24.5391 1554.79,-30.2839"/>
</g>
<!-- Node42&#45;&gt;Node6 -->
<g id="edge150" class="edge"><title>Node42&#45;&gt;Node6</title>
<path fill="none" stroke="midnightblue" d="M1445.56,-233.958C1408,-227.027 1360.75,-215.277 1322,-196 1232.24,-151.345 1145.58,-66.4998 1109.97,-29.2771"/>
<polygon fill="midnightblue" stroke="midnightblue" points="1112.21,-26.5451 1102.79,-21.6868 1107.12,-31.3562 1112.21,-26.5451"/>
</g>
<!-- Node42&#45;&gt;Node7 -->
<g id="edge148" class="edge"><title>Node42&#45;&gt;Node7</title>
<path fill="none" stroke="midnightblue" d="M1504.17,-232.366C1490.14,-209.061 1461.49,-152.647 1487,-116 1497.04,-101.574 1538.68,-87.9654 1571.58,-79.1409"/>
<polygon fill="midnightblue" stroke="midnightblue" points="1572.68,-82.4729 1581.47,-76.5603 1570.91,-75.6999 1572.68,-82.4729"/>
</g>
<!-- Node42&#45;&gt;Node14 -->
<g id="edge152" class="edge"><title>Node42&#45;&gt;Node14</title>
<path fill="none" stroke="midnightblue" d="M1576.1,-238.604C1720.59,-228.745 2059.41,-205.029 2111,-196 2112.28,-195.776 2113.57,-195.53 2114.88,-195.265"/>
<polygon fill="midnightblue" stroke="midnightblue" points="2115.96,-198.607 2124.91,-192.94 2114.38,-191.787 2115.96,-198.607"/>
</g>
<!-- Node42&#45;&gt;Node30 -->
<g id="edge134" class="edge"><title>Node42&#45;&gt;Node30</title>
<path fill="none" stroke="midnightblue" d="M1510.92,-232.359C1511.39,-217.333 1514.51,-189.956 1530,-174 1546.47,-157.037 1608.66,-141.856 1648.5,-133.585"/>
<polygon fill="midnightblue" stroke="midnightblue" points="1649.25,-137.005 1658.35,-131.585 1647.86,-130.144 1649.25,-137.005"/>
</g>
<!-- Node43 -->
<g id="node112" class="node"><title>Node43</title>
<a xlink:href="_cluster_8h.html" target="_top" xlink:title="analysis/data/Cluster.h">
<polygon fill="white" stroke="black" points="1538.5,-174.5 1538.5,-195.5 1655.5,-195.5 1655.5,-174.5 1538.5,-174.5"/>
<text text-anchor="middle" x="1597" y="-182.5" font-family="Helvetica,sans-Serif" font-size="10.00">analysis/data/Cluster.h</text>
</a>
</g>
<!-- Node42&#45;&gt;Node43 -->
<g id="edge138" class="edge"><title>Node42&#45;&gt;Node43</title>
<path fill="none" stroke="midnightblue" d="M1526.77,-232.362C1539.62,-223.696 1557.98,-211.313 1572.71,-201.382"/>
<polygon fill="midnightblue" stroke="midnightblue" points="1574.99,-204.064 1581.33,-195.571 1571.08,-198.26 1574.99,-204.064"/>
</g>
<!-- Node43&#45;&gt;Node3 -->
<g id="edge140" class="edge"><title>Node43&#45;&gt;Node3</title>
<path fill="none" stroke="midnightblue" d="M1655.51,-176.996C1736.66,-165.895 1882.49,-145.947 1963.24,-134.901"/>
<polygon fill="midnightblue" stroke="midnightblue" points="1963.8,-138.357 1973.23,-133.534 1962.85,-131.422 1963.8,-138.357"/>
</g>
<!-- Node43&#45;&gt;Node7 -->
<g id="edge144" class="edge"><title>Node43&#45;&gt;Node7</title>
<path fill="none" stroke="midnightblue" d="M1598.57,-174.295C1601.38,-155.131 1607.31,-114.654 1610.95,-89.8434"/>
<polygon fill="midnightblue" stroke="midnightblue" points="1614.45,-90.0811 1612.43,-79.6792 1607.52,-89.066 1614.45,-90.0811"/>
</g>
<!-- Node43&#45;&gt;Node19 -->
<g id="edge142" class="edge"><title>Node43&#45;&gt;Node19</title>
<path fill="none" stroke="midnightblue" d="M1655.69,-180.51C1682.86,-178.464 1715.57,-176.048 1745,-174 2019.47,-154.904 2352.58,-134.227 2445.12,-128.527"/>
<polygon fill="midnightblue" stroke="midnightblue" points="2445.43,-132.015 2455.19,-127.908 2445,-125.028 2445.43,-132.015"/>
</g>
<!-- Node44 -->
<g id="node117" class="node"><title>Node44</title>
<a xlink:href="enumfield_8h.html" target="_top" xlink:title="base/enumfield.h">
<polygon fill="white" stroke="black" points="1495.5,-116.5 1495.5,-137.5 1586.5,-137.5 1586.5,-116.5 1495.5,-116.5"/>
<text text-anchor="middle" x="1541" y="-124.5" font-family="Helvetica,sans-Serif" font-size="10.00">base/enumfield.h</text>
</a>
</g>
<!-- Node43&#45;&gt;Node44 -->
<g id="edge146" class="edge"><title>Node43&#45;&gt;Node44</title>
<path fill="none" stroke="midnightblue" d="M1586.73,-174.362C1578.76,-166.104 1567.53,-154.472 1558.19,-144.803"/>
<polygon fill="midnightblue" stroke="midnightblue" points="1560.67,-142.334 1551.21,-137.571 1555.63,-147.196 1560.67,-142.334"/>
</g>
<!-- Node45&#45;&gt;Node5 -->
<g id="edge172" class="edge"><title>Node45&#45;&gt;Node5</title>
<path fill="none" stroke="midnightblue" d="M969.638,-232.416C974.867,-218.175 985.5,-192.498 1000,-174 1049.43,-110.94 1064.29,-89.4012 1138,-58 1211.69,-26.609 1457.26,-15.173 1545.82,-12.011"/>
<polygon fill="midnightblue" stroke="midnightblue" points="1545.94,-15.5088 1555.82,-11.6656 1545.7,-8.513 1545.94,-15.5088"/>
</g>
<!-- Node45&#45;&gt;Node6 -->
<g id="edge166" class="edge"><title>Node45&#45;&gt;Node6</title>
<path fill="none" stroke="midnightblue" d="M913.842,-233.554C850.485,-221.833 751.327,-202.585 746,-196 739.851,-188.398 741.531,-182.697 746,-174 806.216,-56.8207 980.765,-23.3998 1056.84,-14.2676"/>
<polygon fill="midnightblue" stroke="midnightblue" points="1057.36,-17.7319 1066.9,-13.134 1056.57,-10.7759 1057.36,-17.7319"/>
</g>
<!-- Node45&#45;&gt;Node10 -->
<g id="edge164" class="edge"><title>Node45&#45;&gt;Node10</title>
<path fill="none" stroke="midnightblue" d="M913.792,-233.362C910.821,-232.883 907.874,-232.425 905,-232 836.176,-221.822 642.877,-245.512 594,-196 550.44,-151.874 561.542,-69.8428 569.809,-31.6088"/>
<polygon fill="midnightblue" stroke="midnightblue" points="573.27,-32.1773 572.118,-21.6452 566.45,-30.5964 573.27,-32.1773"/>
</g>
<!-- Node45&#45;&gt;Node22 -->
<g id="edge168" class="edge"><title>Node45&#45;&gt;Node22</title>
<path fill="none" stroke="midnightblue" d="M913.8,-233.305C910.827,-232.841 907.878,-232.401 905,-232 817.532,-219.797 546.057,-195.239 458.513,-187.437"/>
<polygon fill="midnightblue" stroke="midnightblue" points="458.816,-183.951 448.545,-186.551 458.196,-190.923 458.816,-183.951"/>
</g>
<!-- Node45&#45;&gt;Node30 -->
<g id="edge162" class="edge"><title>Node45&#45;&gt;Node30</title>
<path fill="none" stroke="midnightblue" d="M967.807,-232.41C971.114,-216.654 979.759,-187.456 1000,-174 1055.16,-137.333 1529.05,-144.111 1595,-138 1612.61,-136.369 1632.13,-133.987 1648.3,-131.857"/>
<polygon fill="midnightblue" stroke="midnightblue" points="1648.94,-135.302 1658.39,-130.504 1648.01,-128.364 1648.94,-135.302"/>
</g>
<!-- Node46 -->
<g id="node131" class="node"><title>Node46</title>
<polygon fill="white" stroke="#bfbfbf" points="754.5,-174.5 754.5,-195.5 801.5,-195.5 801.5,-174.5 754.5,-174.5"/>
<text text-anchor="middle" x="778" y="-182.5" font-family="Helvetica,sans-Serif" font-size="10.00">iterator</text>
</g>
<!-- Node45&#45;&gt;Node46 -->
<g id="edge170" class="edge"><title>Node45&#45;&gt;Node46</title>
<path fill="none" stroke="midnightblue" d="M931.955,-232.497C897.817,-221.965 845.572,-205.847 811.594,-195.364"/>
<polygon fill="midnightblue" stroke="midnightblue" points="812.264,-191.908 801.676,-192.304 810.2,-198.597 812.264,-191.908"/>
</g>
<!-- Node47&#45;&gt;Node14 -->
<g id="edge176" class="edge"><title>Node47&#45;&gt;Node14</title>
<path fill="none" stroke="midnightblue" d="M2347.92,-234.442C2304.84,-223.625 2231.01,-205.089 2187.03,-194.046"/>
<polygon fill="midnightblue" stroke="midnightblue" points="2187.87,-190.65 2177.32,-191.609 2186.17,-197.439 2187.87,-190.65"/>
</g>
<!-- Node47&#45;&gt;Node19 -->
<g id="edge178" class="edge"><title>Node47&#45;&gt;Node19</title>
<path fill="none" stroke="midnightblue" d="M2390.12,-232.295C2405.05,-212.613 2437.04,-170.45 2455.69,-145.867"/>
<polygon fill="midnightblue" stroke="midnightblue" points="2458.64,-147.762 2461.9,-137.679 2453.07,-143.531 2458.64,-147.762"/>
</g>
<!-- Node47&#45;&gt;Node29 -->
<g id="edge180" class="edge"><title>Node47&#45;&gt;Node29</title>
<path fill="none" stroke="midnightblue" d="M2416.21,-237.691C2430.63,-235.627 2447.6,-233.422 2463,-232 2684.38,-211.57 3273.81,-260.996 3459,-138 3492.28,-115.896 3521.35,-91.77 3500,-58 3492.86,-46.7133 3463.79,-33.6736 3438.98,-24.1965"/>
<polygon fill="midnightblue" stroke="midnightblue" points="3439.98,-20.834 3429.39,-20.6232 3437.54,-27.3937 3439.98,-20.834"/>
</g>
<!-- Node49&#45;&gt;Node4 -->
<g id="edge264" class="edge"><title>Node49&#45;&gt;Node4</title>
<path fill="none" stroke="midnightblue" d="M1548.44,-363.137C1395,-355.07 967.52,-331.472 828,-312 704.288,-294.734 631.686,-351.012 553,-254 546.841,-246.406 547.165,-239.846 553,-232 554.67,-229.754 743.262,-174.58 746,-174 870.9,-147.536 905.721,-162.61 1031,-138 1107.28,-123.014 1194.33,-97.9149 1245.03,-82.4736"/>
<polygon fill="midnightblue" stroke="midnightblue" points="1246.13,-85.7959 1254.67,-79.52 1244.08,-79.103 1246.13,-85.7959"/>
</g>
<!-- Node49&#45;&gt;Node5 -->
<g id="edge268" class="edge"><title>Node49&#45;&gt;Node5</title>
<path fill="none" stroke="midnightblue" d="M1659.64,-357.181C1682.07,-353.886 1708.22,-350.372 1732,-348 2001.36,-321.13 2071.38,-345.435 2340,-312 2477.49,-294.887 3039.44,-278.09 2948,-174 2907.03,-127.365 2728.24,-162.011 2671,-138 2617.87,-115.714 2623,-78.0932 2569,-58 2477.48,-23.9414 1770.37,-13.3414 1610.19,-11.3658"/>
<polygon fill="midnightblue" stroke="midnightblue" points="1610.07,-7.86424 1600.03,-11.2431 1609.99,-14.8637 1610.07,-7.86424"/>
</g>
<!-- Node49&#45;&gt;Node14 -->
<g id="edge270" class="edge"><title>Node49&#45;&gt;Node14</title>
<path fill="none" stroke="midnightblue" d="M1632.81,-355.421C1708.47,-327.686 1911.67,-253.532 1980,-232 2026.24,-217.429 2080.29,-203.002 2115.05,-194.054"/>
<polygon fill="midnightblue" stroke="midnightblue" points="2115.93,-197.44 2124.75,-191.569 2114.19,-190.659 2115.93,-197.44"/>
</g>
<!-- Node49&#45;&gt;Node22 -->
<g id="edge272" class="edge"><title>Node49&#45;&gt;Node22</title>
<path fill="none" stroke="midnightblue" d="M1548.16,-363.3C1326.81,-352.585 522.845,-313.571 520,-312 477.391,-288.464 450.575,-234.828 438.498,-205.347"/>
<polygon fill="midnightblue" stroke="midnightblue" points="441.617,-203.714 434.713,-195.678 435.099,-206.266 441.617,-203.714"/>
</g>
<!-- Node49&#45;&gt;Node30 -->
<g id="edge262" class="edge"><title>Node49&#45;&gt;Node30</title>
<path fill="none" stroke="midnightblue" d="M1566.92,-355.451C1508.83,-336.804 1406.06,-294.04 1437,-232 1456.12,-193.659 1475.58,-192.96 1514,-174 1557.81,-152.383 1613.07,-139.403 1648.23,-132.724"/>
<polygon fill="midnightblue" stroke="midnightblue" points="1649.25,-136.094 1658.46,-130.85 1647.99,-129.208 1649.25,-136.094"/>
</g>
<!-- Node49&#45;&gt;Node41 -->
<g id="edge196" class="edge"><title>Node49&#45;&gt;Node41</title>
<path fill="none" stroke="midnightblue" d="M1604,-355.267C1604,-346.18 1604,-332.892 1604,-321.74"/>
<polygon fill="midnightblue" stroke="midnightblue" points="1607.5,-321.534 1604,-311.534 1600.5,-321.534 1607.5,-321.534"/>
</g>
<!-- Node49&#45;&gt;Node42 -->
<g id="edge198" class="edge"><title>Node49&#45;&gt;Node42</title>
<path fill="none" stroke="midnightblue" d="M1585.47,-355.334C1570.28,-345.741 1549.21,-330.356 1536,-312 1525.56,-297.494 1519.06,-278.173 1515.31,-263.666"/>
<polygon fill="midnightblue" stroke="midnightblue" points="1518.66,-262.604 1512.96,-253.67 1511.84,-264.206 1518.66,-262.604"/>
</g>
<!-- Node49&#45;&gt;Node47 -->
<g id="edge266" class="edge"><title>Node49&#45;&gt;Node47</title>
<path fill="none" stroke="midnightblue" d="M1659.83,-363.39C1784.7,-357.129 2083.19,-339.687 2180,-312 2201.02,-305.988 2203.67,-298.036 2224,-290 2261.58,-275.145 2305.78,-262.377 2337.86,-253.914"/>
<polygon fill="midnightblue" stroke="midnightblue" points="2339.03,-257.226 2347.83,-251.32 2337.27,-250.452 2339.03,-257.226"/>
</g>
<!-- Node50 -->
<g id="node150" class="node"><title>Node50</title>
<a xlink:href="_tagger_hit_8h.html" target="_top" xlink:title="TaggerHit.h">
<polygon fill="white" stroke="black" points="1708,-232.5 1708,-253.5 1776,-253.5 1776,-232.5 1708,-232.5"/>
<text text-anchor="middle" x="1742" y="-240.5" font-family="Helvetica,sans-Serif" font-size="10.00">TaggerHit.h</text>
</a>
</g>
<!-- Node49&#45;&gt;Node50 -->
<g id="edge200" class="edge"><title>Node49&#45;&gt;Node50</title>
<path fill="none" stroke="midnightblue" d="M1618.16,-355.46C1632.17,-344.872 1654.05,-327.889 1672,-312 1690.76,-295.393 1711.02,-275.141 1724.9,-260.886"/>
<polygon fill="midnightblue" stroke="midnightblue" points="1727.46,-263.267 1731.9,-253.645 1722.43,-258.401 1727.46,-263.267"/>
</g>
<!-- Node51 -->
<g id="node157" class="node"><title>Node51</title>
<a xlink:href="_trigger_info_8h.html" target="_top" xlink:title="TriggerInfo.h">
<polygon fill="white" stroke="black" points="2100.5,-290.5 2100.5,-311.5 2171.5,-311.5 2171.5,-290.5 2100.5,-290.5"/>
<text text-anchor="middle" x="2136" y="-298.5" font-family="Helvetica,sans-Serif" font-size="10.00">TriggerInfo.h</text>
</a>
</g>
<!-- Node49&#45;&gt;Node51 -->
<g id="edge212" class="edge"><title>Node49&#45;&gt;Node51</title>
<path fill="none" stroke="midnightblue" d="M1659.68,-359.197C1765.34,-346.287 1993.06,-318.464 2090.38,-306.573"/>
<polygon fill="midnightblue" stroke="midnightblue" points="2090.99,-310.026 2100.49,-305.339 2090.14,-303.077 2090.99,-310.026"/>
</g>
<!-- Node50&#45;&gt;Node4 -->
<g id="edge208" class="edge"><title>Node50&#45;&gt;Node4</title>
<path fill="none" stroke="midnightblue" d="M1707.8,-238.279C1665.23,-231.758 1590.72,-218.214 1530,-196 1446.56,-165.473 1355.7,-111.652 1312.93,-84.9498"/>
<polygon fill="midnightblue" stroke="midnightblue" points="1314.64,-81.8911 1304.31,-79.5299 1310.91,-87.8166 1314.64,-81.8911"/>
</g>
<!-- Node50&#45;&gt;Node14 -->
<g id="edge204" class="edge"><title>Node50&#45;&gt;Node14</title>
<path fill="none" stroke="midnightblue" d="M1776.32,-238.605C1792.06,-236.59 1810.98,-234.171 1828,-232 1953.77,-215.957 1986.67,-220.872 2111,-196 2112.27,-195.746 2113.56,-195.473 2114.86,-195.185"/>
<polygon fill="midnightblue" stroke="midnightblue" points="2115.98,-198.514 2124.88,-192.755 2114.33,-191.712 2115.98,-198.514"/>
</g>
<!-- Node50&#45;&gt;Node19 -->
<g id="edge202" class="edge"><title>Node50&#45;&gt;Node19</title>
<path fill="none" stroke="midnightblue" d="M1776.09,-235.181C1780.76,-234.111 1785.5,-233.028 1790,-232 1818.33,-225.532 2016.35,-178.827 2045,-174 2195.86,-148.587 2379.24,-133.632 2445.03,-128.766"/>
<polygon fill="midnightblue" stroke="midnightblue" points="2445.52,-132.239 2455.24,-128.022 2445.01,-125.258 2445.52,-132.239"/>
</g>
<!-- Node50&#45;&gt;Node30 -->
<g id="edge206" class="edge"><title>Node50&#45;&gt;Node30</title>
<path fill="none" stroke="midnightblue" d="M1776.07,-234.854C1828.61,-222.215 1923.66,-199.011 1926,-196 1932,-188.278 1932.22,-181.542 1926,-174 1900.01,-142.499 1778.64,-131.866 1717.86,-128.478"/>
<polygon fill="midnightblue" stroke="midnightblue" points="1717.77,-124.969 1707.6,-127.943 1717.41,-131.959 1717.77,-124.969"/>
</g>
<!-- Node50&#45;&gt;Node48 -->
<g id="edge210" class="edge"><title>Node50&#45;&gt;Node48</title>
<path fill="none" stroke="midnightblue" d="M1765.36,-232.497C1785.69,-223.356 1815.38,-210.008 1838.11,-199.788"/>
<polygon fill="midnightblue" stroke="midnightblue" points="1839.69,-202.914 1847.38,-195.621 1836.82,-196.53 1839.69,-202.914"/>
</g>
<!-- Node51&#45;&gt;Node4 -->
<g id="edge216" class="edge"><title>Node51&#45;&gt;Node4</title>
<path fill="none" stroke="midnightblue" d="M2100.28,-300.471C1976.12,-298.34 1563.99,-288.754 1437,-254 1409.39,-246.445 1341.92,-216.554 1322,-196 1293.94,-167.043 1288.42,-117.573 1287.69,-89.6902"/>
<polygon fill="midnightblue" stroke="midnightblue" points="1291.19,-89.4792 1287.61,-79.505 1284.19,-89.5304 1291.19,-89.4792"/>
</g>
<!-- Node51&#45;&gt;Node14 -->
<g id="edge260" class="edge"><title>Node51&#45;&gt;Node14</title>
<path fill="none" stroke="midnightblue" d="M2132.16,-290.114C2127.87,-276.406 2122.14,-252.202 2127,-232 2129.31,-222.396 2133.93,-212.546 2138.51,-204.359"/>
<polygon fill="midnightblue" stroke="midnightblue" points="2141.6,-206.009 2143.72,-195.628 2135.59,-202.423 2141.6,-206.009"/>
</g>
<!-- Node51&#45;&gt;Node19 -->
<g id="edge258" class="edge"><title>Node51&#45;&gt;Node19</title>
<path fill="none" stroke="midnightblue" d="M2171.72,-296.175C2246.9,-285.889 2415.32,-262.084 2425,-254 2457.02,-227.263 2466.27,-176.15 2468.93,-147.595"/>
<polygon fill="midnightblue" stroke="midnightblue" points="2472.43,-147.758 2469.68,-137.526 2465.45,-147.238 2472.43,-147.758"/>
</g>
<!-- Node51&#45;&gt;Node30 -->
<g id="edge214" class="edge"><title>Node51&#45;&gt;Node30</title>
<path fill="none" stroke="midnightblue" d="M2170.63,-290.423C2206.3,-279.183 2257.46,-261.959 2263,-254 2297.52,-204.417 2226.78,-189.789 2186,-174 2100.18,-140.775 1817.06,-130.439 1717.77,-127.792"/>
<polygon fill="midnightblue" stroke="midnightblue" points="1717.76,-124.291 1707.67,-127.533 1717.58,-131.288 1717.76,-124.291"/>
</g>
<!-- Node52 -->
<g id="node161" class="node"><title>Node52</title>
<a xlink:href="_t_data_record_8h.html" target="_top" xlink:title="tree/TDataRecord.h">
<polygon fill="white" stroke="black" points="3149.5,-232.5 3149.5,-253.5 3252.5,-253.5 3252.5,-232.5 3149.5,-232.5"/>
<text text-anchor="middle" x="3201" y="-240.5" font-family="Helvetica,sans-Serif" font-size="10.00">tree/TDataRecord.h</text>
</a>
</g>
<!-- Node51&#45;&gt;Node52 -->
<g id="edge218" class="edge"><title>Node51&#45;&gt;Node52</title>
<path fill="none" stroke="midnightblue" d="M2171.9,-295.84C2187.82,-293.725 2206.82,-291.439 2224,-290 2596.81,-258.772 2691.59,-277.085 3065,-254 3089.3,-252.498 3116.01,-250.428 3139.28,-248.489"/>
<polygon fill="midnightblue" stroke="midnightblue" points="3139.7,-251.967 3149.37,-247.64 3139.11,-244.992 3139.7,-251.967"/>
</g>
<!-- Node52&#45;&gt;Node35 -->
<g id="edge252" class="edge"><title>Node52&#45;&gt;Node35</title>
<path fill="none" stroke="midnightblue" d="M3178.26,-232.485C3144.33,-217.23 3078.09,-189.136 3019,-174 2907.27,-145.378 2875.09,-160.65 2762,-138 2760.75,-137.75 2759.49,-137.486 2758.21,-137.209"/>
<polygon fill="midnightblue" stroke="midnightblue" points="2758.9,-133.775 2748.36,-134.909 2757.3,-140.591 2758.9,-133.775"/>
</g>
<!-- Node53 -->
<g id="node163" class="node"><title>Node53</title>
<a xlink:href="_t_i_d_8h.html" target="_top" xlink:title="TID.h">
<polygon fill="white" stroke="black" points="3146.5,-174.5 3146.5,-195.5 3187.5,-195.5 3187.5,-174.5 3146.5,-174.5"/>
<text text-anchor="middle" x="3167" y="-182.5" font-family="Helvetica,sans-Serif" font-size="10.00">TID.h</text>
</a>
</g>
<!-- Node52&#45;&gt;Node53 -->
<g id="edge220" class="edge"><title>Node52&#45;&gt;Node53</title>
<path fill="none" stroke="midnightblue" d="M3194.76,-232.362C3190.16,-224.513 3183.77,-213.616 3178.29,-204.253"/>
<polygon fill="midnightblue" stroke="midnightblue" points="3181.27,-202.428 3173.2,-195.571 3175.23,-205.968 3181.27,-202.428"/>
</g>
<!-- Node58 -->
<g id="node177" class="node"><title>Node58</title>
<polygon fill="white" stroke="#bfbfbf" points="3155.5,-58.5 3155.5,-79.5 3196.5,-79.5 3196.5,-58.5 3155.5,-58.5"/>
<text text-anchor="middle" x="3176" y="-66.5" font-family="Helvetica,sans-Serif" font-size="10.00">ctime</text>
</g>
<!-- Node52&#45;&gt;Node58 -->
<g id="edge256" class="edge"><title>Node52&#45;&gt;Node58</title>
<path fill="none" stroke="midnightblue" d="M3183.43,-232.444C3149.23,-211.48 3075.93,-164.35 3063,-138 3045.06,-101.442 3106.07,-82.437 3145.35,-74.1992"/>
<polygon fill="midnightblue" stroke="midnightblue" points="3146.15,-77.6088 3155.29,-72.2439 3144.8,-70.7405 3146.15,-77.6088"/>
</g>
<!-- Node60 -->
<g id="node184" class="node"><title>Node60</title>
<polygon fill="white" stroke="#bfbfbf" points="3204,-116.5 3204,-137.5 3254,-137.5 3254,-116.5 3204,-116.5"/>
<text text-anchor="middle" x="3229" y="-124.5" font-family="Helvetica,sans-Serif" font-size="10.00">iomanip</text>
</g>
<!-- Node52&#45;&gt;Node60 -->
<g id="edge254" class="edge"><title>Node52&#45;&gt;Node60</title>
<path fill="none" stroke="midnightblue" d="M3203.58,-232.295C3208.23,-213.045 3218.07,-172.289 3224.05,-147.509"/>
<polygon fill="midnightblue" stroke="midnightblue" points="3227.48,-148.221 3226.42,-137.679 3220.67,-146.579 3227.48,-148.221"/>
</g>
<!-- Node53&#45;&gt;Node4 -->
<g id="edge224" class="edge"><title>Node53&#45;&gt;Node4</title>
<path fill="none" stroke="midnightblue" d="M3146.45,-182.704C3070.19,-174.147 2806.9,-144.286 2790,-138 2773.48,-131.856 2773.79,-121.364 2757,-116 2631.63,-75.9497 1704.54,-84.5381 1573,-80 1492.4,-77.2194 1399.01,-73.5247 1341.72,-71.2044"/>
<polygon fill="midnightblue" stroke="midnightblue" points="1341.59,-67.6962 1331.45,-70.7877 1341.3,-74.6905 1341.59,-67.6962"/>
</g>
<!-- Node53&#45;&gt;Node8 -->
<g id="edge244" class="edge"><title>Node53&#45;&gt;Node8</title>
<path fill="none" stroke="midnightblue" d="M3161.94,-174.273C3154.45,-159.394 3139.09,-132.468 3119,-116 3096.82,-97.8176 3066.53,-85.4513 3043.67,-77.9856"/>
<polygon fill="midnightblue" stroke="midnightblue" points="3044.65,-74.6246 3034.06,-74.9901 3042.57,-81.3075 3044.65,-74.6246"/>
</g>
<!-- Node53&#45;&gt;Node9 -->
<g id="edge246" class="edge"><title>Node53&#45;&gt;Node9</title>
<path fill="none" stroke="midnightblue" d="M3146.02,-182.569C3076.78,-174.478 2858.2,-148.388 2828,-138 2809.55,-131.653 2808.32,-122.731 2790,-116 2715.36,-88.5709 2622.52,-76.715 2570.71,-71.9343"/>
<polygon fill="midnightblue" stroke="midnightblue" points="2570.88,-68.4353 2560.61,-71.0442 2570.26,-75.4083 2570.88,-68.4353"/>
</g>
<!-- Node53&#45;&gt;Node11 -->
<g id="edge240" class="edge"><title>Node53&#45;&gt;Node11</title>
<path fill="none" stroke="midnightblue" d="M3146.38,-182.584C3088.06,-175.614 2922.82,-154.896 2871,-138 2850.59,-131.345 2847.81,-124.265 2828,-116 2794.34,-101.959 2754.89,-89.2603 2725.96,-80.6124"/>
<polygon fill="midnightblue" stroke="midnightblue" points="2726.77,-77.2035 2716.19,-77.7269 2724.79,-83.9167 2726.77,-77.2035"/>
</g>
<!-- Node53&#45;&gt;Node35 -->
<g id="edge222" class="edge"><title>Node53&#45;&gt;Node35</title>
<path fill="none" stroke="midnightblue" d="M3146.43,-183C3074.9,-175.984 2837.3,-152.158 2762,-138 2760.75,-137.765 2759.48,-137.513 2758.2,-137.248"/>
<polygon fill="midnightblue" stroke="midnightblue" points="2758.87,-133.81 2748.34,-135.001 2757.32,-140.635 2758.87,-133.81"/>
</g>
<!-- Node54 -->
<g id="node167" class="node"><title>Node54</title>
<a xlink:href="time_8h.html" target="_top" xlink:title="base/std_ext/time.h">
<polygon fill="white" stroke="black" points="3347.5,-116.5 3347.5,-137.5 3450.5,-137.5 3450.5,-116.5 3347.5,-116.5"/>
<text text-anchor="middle" x="3399" y="-124.5" font-family="Helvetica,sans-Serif" font-size="10.00">base/std_ext/time.h</text>
</a>
</g>
<!-- Node53&#45;&gt;Node54 -->
<g id="edge226" class="edge"><title>Node53&#45;&gt;Node54</title>
<path fill="none" stroke="midnightblue" d="M3187.59,-179.853C3223.04,-170.99 3296.64,-152.589 3346.93,-140.017"/>
<polygon fill="midnightblue" stroke="midnightblue" points="3347.81,-143.406 3356.66,-137.585 3346.11,-136.615 3347.81,-143.406"/>
</g>
<!-- Node53&#45;&gt;Node58 -->
<g id="edge250" class="edge"><title>Node53&#45;&gt;Node58</title>
<path fill="none" stroke="midnightblue" d="M3167.83,-174.295C3169.32,-155.131 3172.46,-114.654 3174.38,-89.8434"/>
<polygon fill="midnightblue" stroke="midnightblue" points="3177.89,-89.92 3175.17,-79.6792 3170.91,-89.3785 3177.89,-89.92"/>
</g>
<!-- Node59 -->
<g id="node180" class="node"><title>Node59</title>
<polygon fill="white" stroke="#bfbfbf" points="3072,-116.5 3072,-137.5 3110,-137.5 3110,-116.5 3072,-116.5"/>
<text text-anchor="middle" x="3091" y="-124.5" font-family="Helvetica,sans-Serif" font-size="10.00">tuple</text>
</g>
<!-- Node53&#45;&gt;Node59 -->
<g id="edge242" class="edge"><title>Node53&#45;&gt;Node59</title>
<path fill="none" stroke="midnightblue" d="M3153.06,-174.362C3141.81,-165.777 3125.78,-153.546 3112.84,-143.664"/>
<polygon fill="midnightblue" stroke="midnightblue" points="3114.92,-140.855 3104.85,-137.571 3110.68,-146.42 3114.92,-140.855"/>
</g>
<!-- Node53&#45;&gt;Node60 -->
<g id="edge248" class="edge"><title>Node53&#45;&gt;Node60</title>
<path fill="none" stroke="midnightblue" d="M3178.37,-174.362C3187.29,-166.023 3199.88,-154.242 3210.28,-144.516"/>
<polygon fill="midnightblue" stroke="midnightblue" points="3212.79,-146.958 3217.7,-137.571 3208.01,-141.846 3212.79,-146.958"/>
</g>
<!-- Node55 -->
<g id="node169" class="node"><title>Node55</title>
<a xlink:href="string_8h.html" target="_top" xlink:title="base/std_ext/string.h">
<polygon fill="white" stroke="black" points="3383,-58.5 3383,-79.5 3491,-79.5 3491,-58.5 3383,-58.5"/>
<text text-anchor="middle" x="3437" y="-66.5" font-family="Helvetica,sans-Serif" font-size="10.00">base/std_ext/string.h</text>
</a>
</g>
<!-- Node54&#45;&gt;Node55 -->
<g id="edge228" class="edge"><title>Node54&#45;&gt;Node55</title>
<path fill="none" stroke="midnightblue" d="M3405.97,-116.362C3411.17,-108.431 3418.4,-97.3885 3424.58,-87.9606"/>
<polygon fill="midnightblue" stroke="midnightblue" points="3427.52,-89.8534 3430.07,-79.5707 3421.67,-86.0172 3427.52,-89.8534"/>
</g>
<!-- Node57 -->
<g id="node175" class="node"><title>Node57</title>
<polygon fill="white" stroke="#bfbfbf" points="3281,-58.5 3281,-79.5 3327,-79.5 3327,-58.5 3281,-58.5"/>
<text text-anchor="middle" x="3304" y="-66.5" font-family="Helvetica,sans-Serif" font-size="10.00">cstring</text>
</g>
<!-- Node54&#45;&gt;Node57 -->
<g id="edge236" class="edge"><title>Node54&#45;&gt;Node57</title>
<path fill="none" stroke="midnightblue" d="M3381.58,-116.362C3367.11,-107.532 3346.33,-94.844 3329.92,-84.8224"/>
<polygon fill="midnightblue" stroke="midnightblue" points="3331.67,-81.7943 3321.31,-79.5707 3328.03,-87.7688 3331.67,-81.7943"/>
</g>
<!-- Node54&#45;&gt;Node58 -->
<g id="edge238" class="edge"><title>Node54&#45;&gt;Node58</title>
<path fill="none" stroke="midnightblue" d="M3358.62,-116.497C3314.83,-105.109 3245.94,-87.1916 3206.48,-76.9277"/>
<polygon fill="midnightblue" stroke="midnightblue" points="3207.2,-73.4995 3196.64,-74.3695 3205.44,-80.2741 3207.2,-73.4995"/>
</g>
<!-- Node55&#45;&gt;Node10 -->
<g id="edge230" class="edge"><title>Node55&#45;&gt;Node10</title>
<path fill="none" stroke="midnightblue" d="M3382.83,-62.1651C3367.7,-60.5106 3351.23,-58.9475 3336,-58 2325.38,4.88336 2070.38,-41.5274 1058,-22 887.351,-18.7084 682.812,-13.6994 606.086,-11.783"/>
<polygon fill="midnightblue" stroke="midnightblue" points="605.797,-8.27479 595.712,-11.5233 605.622,-15.2726 605.797,-8.27479"/>
</g>
<!-- Node55&#45;&gt;Node29 -->
<g id="edge234" class="edge"><title>Node55&#45;&gt;Node29</title>
<path fill="none" stroke="midnightblue" d="M3430.4,-58.3619C3425.53,-50.5131 3418.76,-39.6159 3412.95,-30.2527"/>
<polygon fill="midnightblue" stroke="midnightblue" points="3415.81,-28.2213 3407.56,-21.5707 3409.86,-31.9129 3415.81,-28.2213"/>
</g>
<!-- Node56 -->
<g id="node172" class="node"><title>Node56</title>
<polygon fill="white" stroke="#bfbfbf" points="3447,-0.5 3447,-21.5 3499,-21.5 3499,-0.5 3447,-0.5"/>
<text text-anchor="middle" x="3473" y="-8.5" font-family="Helvetica,sans-Serif" font-size="10.00">sstream</text>
</g>
<!-- Node55&#45;&gt;Node56 -->
<g id="edge232" class="edge"><title>Node55&#45;&gt;Node56</title>
<path fill="none" stroke="midnightblue" d="M3443.6,-58.3619C3448.47,-50.5131 3455.24,-39.6159 3461.05,-30.2527"/>
<polygon fill="midnightblue" stroke="midnightblue" points="3464.14,-31.9129 3466.44,-21.5707 3458.19,-28.2213 3464.14,-31.9129"/>
</g>
<!-- Node61&#45;&gt;Node5 -->
<g id="edge276" class="edge"><title>Node61&#45;&gt;Node5</title>
<path fill="none" stroke="midnightblue" d="M2921.77,-116.438C2880.64,-100.436 2798.09,-70.5846 2725,-58 2502.28,-19.6514 1774,-12.3624 1610.69,-11.1983"/>
<polygon fill="midnightblue" stroke="midnightblue" points="1610.37,-7.69606 1600.35,-11.1274 1610.32,-14.6959 1610.37,-7.69606"/>
</g>
<!-- Node61&#45;&gt;Node8 -->
<g id="edge278" class="edge"><title>Node61&#45;&gt;Node8</title>
<path fill="none" stroke="midnightblue" d="M2959.56,-116.362C2968.61,-108.023 2981.41,-96.2418 2991.97,-86.5162"/>
<polygon fill="midnightblue" stroke="midnightblue" points="2994.53,-88.9187 2999.52,-79.5707 2989.79,-83.7688 2994.53,-88.9187"/>
</g>
<!-- Node62&#45;&gt;Node10 -->
<g id="edge282" class="edge"><title>Node62&#45;&gt;Node10</title>
<path fill="none" stroke="midnightblue" d="M317.303,-232.429C359.998,-195.742 502.045,-73.6875 554.931,-28.2443"/>
<polygon fill="midnightblue" stroke="midnightblue" points="557.321,-30.8053 562.625,-21.6335 552.759,-25.4961 557.321,-30.8053"/>
</g>
<!-- Node62&#45;&gt;Node14 -->
<g id="edge284" class="edge"><title>Node62&#45;&gt;Node14</title>
<path fill="none" stroke="midnightblue" d="M354.396,-240.545C404.44,-238.121 484.086,-234.432 553,-232 1163.05,-210.475 1316,-218.905 1926,-196 1992.57,-193.5 2070.17,-189.457 2114.65,-187.031"/>
<polygon fill="midnightblue" stroke="midnightblue" points="2114.89,-190.523 2124.68,-186.48 2114.51,-183.533 2114.89,-190.523"/>
</g>
<!-- Node62&#45;&gt;Node22 -->
<g id="edge286" class="edge"><title>Node62&#45;&gt;Node22</title>
<path fill="none" stroke="midnightblue" d="M327.818,-232.497C349.288,-222.614 381.444,-207.811 404.142,-197.363"/>
<polygon fill="midnightblue" stroke="midnightblue" points="405.612,-200.54 413.232,-193.179 402.685,-194.181 405.612,-200.54"/>
</g>
<!-- Node63&#45;&gt;Node10 -->
<g id="edge310" class="edge"><title>Node63&#45;&gt;Node10</title>
<path fill="none" stroke="midnightblue" d="M2763.39,-363.479C2674.47,-359.717 2500.14,-352.586 2352,-348 1674.8,-327.035 1504.31,-352.568 828,-312 675.424,-302.848 152,-337.85 152,-185 152,-185 152,-185 152,-127 152,-45.6207 446.864,-19.2694 544.221,-12.7868"/>
<polygon fill="midnightblue" stroke="midnightblue" points="544.556,-16.2726 554.311,-12.1397 544.108,-9.28698 544.556,-16.2726"/>
</g>
<!-- Node63&#45;&gt;Node19 -->
<g id="edge312" class="edge"><title>Node63&#45;&gt;Node19</title>
<path fill="none" stroke="midnightblue" d="M2831.45,-348.968C2844.74,-322.548 2865.3,-270.704 2846,-232 2836.44,-212.829 2788.84,-182.08 2769,-174 2655.86,-127.927 2610.27,-175.572 2494.25,-139.364"/>
<polygon fill="midnightblue" stroke="midnightblue" points="2495.26,-136.012 2484.67,-136.234 2493.09,-142.666 2495.26,-136.012"/>
</g>
<!-- Node63&#45;&gt;Node28 -->
<g id="edge302" class="edge"><title>Node63&#45;&gt;Node28</title>
<path fill="none" stroke="midnightblue" d="M2880.63,-357.255C2938.69,-345.134 3024.61,-317.085 3065,-254 3094.05,-208.623 3008.43,-193.068 2949.59,-187.75"/>
<polygon fill="midnightblue" stroke="midnightblue" points="2949.56,-184.236 2939.31,-186.898 2948.99,-191.212 2949.56,-184.236"/>
</g>
<!-- Node64 -->
<g id="node216" class="node"><title>Node64</title>
<a xlink:href="_t_header_info_8h.html" target="_top" xlink:title="tree/THeaderInfo.h">
<polygon fill="white" stroke="black" points="3152,-290.5 3152,-311.5 3250,-311.5 3250,-290.5 3152,-290.5"/>
<text text-anchor="middle" x="3201" y="-298.5" font-family="Helvetica,sans-Serif" font-size="10.00">tree/THeaderInfo.h</text>
</a>
</g>
<!-- Node63&#45;&gt;Node64 -->
<g id="edge304" class="edge"><title>Node63&#45;&gt;Node64</title>
<path fill="none" stroke="midnightblue" d="M2880.8,-355.915C2951.75,-343.748 3070.35,-323.408 3141.57,-311.192"/>
<polygon fill="midnightblue" stroke="midnightblue" points="3142.46,-314.591 3151.72,-309.451 3141.28,-307.692 3142.46,-314.591"/>
</g>
<!-- Node64&#45;&gt;Node52 -->
<g id="edge306" class="edge"><title>Node64&#45;&gt;Node52</title>
<path fill="none" stroke="midnightblue" d="M3201,-290.362C3201,-282.922 3201,-272.743 3201,-263.728"/>
<polygon fill="midnightblue" stroke="midnightblue" points="3204.5,-263.571 3201,-253.571 3197.5,-263.571 3204.5,-263.571"/>
</g>
<!-- Node64&#45;&gt;Node54 -->
<g id="edge308" class="edge"><title>Node64&#45;&gt;Node54</title>
<path fill="none" stroke="midnightblue" d="M3215.07,-290.479C3227.39,-281.149 3245.67,-267.022 3261,-254 3305.3,-216.365 3354.93,-169.456 3380.91,-144.512"/>
<polygon fill="midnightblue" stroke="midnightblue" points="3383.4,-146.968 3388.18,-137.51 3378.55,-141.926 3383.4,-146.968"/>
</g>
</g>
</svg>
