<?xml version="1.0" encoding="UTF-8" standalone="no"?>
<!DOCTYPE svg PUBLIC "-//W3C//DTD SVG 1.1//EN"
 "http://www.w3.org/Graphics/SVG/1.1/DTD/svg11.dtd">
<!-- Generated by graphviz version 2.26.3 (20100126.1600)
 -->
<!-- Title: src/expconfig/detectors/TAPSVeto.cc Pages: 1 -->
<svg width="3422pt" height="826pt"
 viewBox="0.00 0.00 3422.45 826.00" xmlns="http://www.w3.org/2000/svg" xmlns:xlink="http://www.w3.org/1999/xlink">
<g id="graph1" class="graph" transform="scale(1 1) rotate(0) translate(4 822)">
<title>src/expconfig/detectors/TAPSVeto.cc</title>
<polygon fill="white" stroke="white" points="-4,5 -4,-822 3419.45,-822 3419.45,5 -4,5"/>
<!-- Node1 -->
<g id="node1" class="node"><title>Node1</title>
<polygon fill="#bfbfbf" stroke="black" points="232.476,-783 232.476,-817 351.476,-817 351.476,-783 232.476,-783"/>
<text text-anchor="start" x="240.476" y="-804" font-family="Helvetica,sans-Serif" font-size="10.00">src/expconfig/detectors</text>
<text text-anchor="middle" x="291.976" y="-791" font-family="Helvetica,sans-Serif" font-size="10.00">/TAPSVeto.cc</text>
</g>
<!-- Node2 -->
<g id="node3" class="node"><title>Node2</title>
<a xlink:href="_t_a_p_s_veto_8h.html" target="_top" xlink:title="TAPSVeto.h">
<polygon fill="white" stroke="black" points="349.476,-652.5 349.476,-673.5 420.476,-673.5 420.476,-652.5 349.476,-652.5"/>
<text text-anchor="middle" x="384.976" y="-660.5" font-family="Helvetica,sans-Serif" font-size="10.00">TAPSVeto.h</text>
</a>
</g>
<!-- Node1&#45;&gt;Node2 -->
<g id="edge2" class="edge"><title>Node1&#45;&gt;Node2</title>
<path fill="none" stroke="midnightblue" d="M351.632,-786.907C373.518,-778.905 396.074,-766.163 408.976,-746 421.574,-726.31 409.941,-699.836 398.909,-682.133"/>
<polygon fill="midnightblue" stroke="midnightblue" points="401.785,-680.137 393.326,-673.758 395.96,-684.02 401.785,-680.137"/>
</g>
<!-- Node64 -->
<g id="node216" class="node"><title>Node64</title>
<a xlink:href="_t_header_info_8h.html" target="_top" xlink:title="tree/THeaderInfo.h">
<polygon fill="white" stroke="black" points="583.976,-290.5 583.976,-311.5 681.976,-311.5 681.976,-290.5 583.976,-290.5"/>
<text text-anchor="middle" x="632.976" y="-298.5" font-family="Helvetica,sans-Serif" font-size="10.00">tree/THeaderInfo.h</text>
</a>
</g>
<!-- Node1&#45;&gt;Node64 -->
<g id="edge340" class="edge"><title>Node1&#45;&gt;Node64</title>
<path fill="none" stroke="midnightblue" d="M232.228,-792.226C175.809,-783.671 96.695,-768.133 74.9757,-746 48.4701,-718.99 55.9757,-700.843 55.9757,-663 55.9757,-663 55.9757,-663 55.9757,-489 55.9757,-380.968 426.259,-325.375 573.568,-307.533"/>
<polygon fill="midnightblue" stroke="midnightblue" points="574.267,-310.975 583.781,-306.313 573.437,-304.024 574.267,-310.975"/>
</g>
<!-- Node65 -->
<g id="node234" class="node"><title>Node65</title>
<polygon fill="white" stroke="#bfbfbf" points="217.476,-717.5 217.476,-738.5 266.476,-738.5 266.476,-717.5 217.476,-717.5"/>
<text text-anchor="middle" x="241.976" y="-725.5" font-family="Helvetica,sans-Serif" font-size="10.00">cassert</text>
</g>
<!-- Node1&#45;&gt;Node65 -->
<g id="edge338" class="edge"><title>Node1&#45;&gt;Node65</title>
<path fill="none" stroke="midnightblue" d="M280.126,-782.937C272.652,-772.174 262.986,-758.255 255.254,-747.12"/>
<polygon fill="midnightblue" stroke="midnightblue" points="258.125,-745.118 249.546,-738.901 252.375,-749.111 258.125,-745.118"/>
</g>
<!-- Node66 -->
<g id="node237" class="node"><title>Node66</title>
<a xlink:href="_t_a_p_s_veto__2013___ba_f2__elements_8h.html" target="_top" xlink:title="detail/TAPSVeto_2013\l_BaF2_elements.h">
<polygon fill="white" stroke="black" points="455.976,-711 455.976,-745 571.976,-745 571.976,-711 455.976,-711"/>
<text text-anchor="start" x="463.976" y="-732" font-family="Helvetica,sans-Serif" font-size="10.00">detail/TAPSVeto_2013</text>
<text text-anchor="middle" x="513.976" y="-719" font-family="Helvetica,sans-Serif" font-size="10.00">_BaF2_elements.h</text>
</a>
</g>
<!-- Node1&#45;&gt;Node66 -->
<g id="edge342" class="edge"><title>Node1&#45;&gt;Node66</title>
<path fill="none" stroke="midnightblue" d="M344.587,-782.937C376.679,-772.529 417.875,-759.168 451.604,-748.229"/>
<polygon fill="midnightblue" stroke="midnightblue" points="452.926,-751.48 461.358,-745.065 450.766,-744.821 452.926,-751.48"/>
</g>
<!-- Node67 -->
<g id="node240" class="node"><title>Node67</title>
<a xlink:href="_t_a_p_s_veto__2013___pb_w_o4__elements_8h.html" target="_top" xlink:title="detail/TAPSVeto_2013\l_PbWO4_elements.h">
<polygon fill="white" stroke="black" points="83.9757,-711 83.9757,-745 199.976,-745 199.976,-711 83.9757,-711"/>
<text text-anchor="start" x="91.9757" y="-732" font-family="Helvetica,sans-Serif" font-size="10.00">detail/TAPSVeto_2013</text>
<text text-anchor="middle" x="141.976" y="-719" font-family="Helvetica,sans-Serif" font-size="10.00">_PbWO4_elements.h</text>
</a>
</g>
<!-- Node1&#45;&gt;Node67 -->
<g id="edge346" class="edge"><title>Node1&#45;&gt;Node67</title>
<path fill="none" stroke="midnightblue" d="M256.428,-782.937C235.581,-772.931 209.05,-760.196 186.782,-749.507"/>
<polygon fill="midnightblue" stroke="midnightblue" points="188.058,-746.237 177.528,-745.065 185.029,-752.548 188.058,-746.237"/>
</g>
<!-- Node68 -->
<g id="node243" class="node"><title>Node68</title>
<a xlink:href="_t_a_p_s_veto__2014___ba_f2__elements_8h.html" target="_top" xlink:title="detail/TAPSVeto_2014\l_BaF2_elements.h">
<polygon fill="white" stroke="black" points="283.976,-711 283.976,-745 399.976,-745 399.976,-711 283.976,-711"/>
<text text-anchor="start" x="291.976" y="-732" font-family="Helvetica,sans-Serif" font-size="10.00">detail/TAPSVeto_2014</text>
<text text-anchor="middle" x="341.976" y="-719" font-family="Helvetica,sans-Serif" font-size="10.00">_BaF2_elements.h</text>
</a>
</g>
<!-- Node1&#45;&gt;Node68 -->
<g id="edge350" class="edge"><title>Node1&#45;&gt;Node68</title>
<path fill="none" stroke="midnightblue" d="M303.825,-782.937C309.839,-774.277 317.272,-763.573 323.975,-753.921"/>
<polygon fill="midnightblue" stroke="midnightblue" points="327.035,-755.651 329.864,-745.441 321.285,-751.658 327.035,-755.651"/>
</g>
<!-- Node3 -->
<g id="node5" class="node"><title>Node3</title>
<a xlink:href="_detector__t_8h.html" target="_top" xlink:title="base/Detector_t.h">
<polygon fill="white" stroke="black" points="463.476,-116.5 463.476,-137.5 558.476,-137.5 558.476,-116.5 463.476,-116.5"/>
<text text-anchor="middle" x="510.976" y="-124.5" font-family="Helvetica,sans-Serif" font-size="10.00">base/Detector_t.h</text>
</a>
</g>
<!-- Node2&#45;&gt;Node3 -->
<g id="edge4" class="edge"><title>Node2&#45;&gt;Node3</title>
<path fill="none" stroke="midnightblue" d="M349.293,-656.584C271.588,-641.595 93.9757,-601.387 93.9757,-547 93.9757,-547 93.9757,-547 93.9757,-366 93.9757,-202.382 338.618,-149.194 453.137,-133.26"/>
<polygon fill="midnightblue" stroke="midnightblue" points="453.695,-136.716 463.14,-131.917 452.764,-129.779 453.695,-136.716"/>
</g>
<!-- Node12 -->
<g id="node24" class="node"><title>Node12</title>
<a xlink:href="_unpacker_acqu_8h.html" target="_top" xlink:title="unpacker/UnpackerAcqu.h">
<polygon fill="white" stroke="black" points="1121.98,-594.5 1121.98,-615.5 1253.98,-615.5 1253.98,-594.5 1121.98,-594.5"/>
<text text-anchor="middle" x="1187.98" y="-602.5" font-family="Helvetica,sans-Serif" font-size="10.00">unpacker/UnpackerAcqu.h</text>
</a>
</g>
<!-- Node2&#45;&gt;Node12 -->
<g id="edge24" class="edge"><title>Node2&#45;&gt;Node12</title>
<path fill="none" stroke="midnightblue" d="M420.516,-660.433C542.023,-651.657 942.697,-622.716 1111.71,-610.509"/>
<polygon fill="midnightblue" stroke="midnightblue" points="1112.05,-613.993 1121.77,-609.782 1111.54,-607.012 1112.05,-613.993"/>
</g>
<!-- Node4 -->
<g id="node7" class="node"><title>Node4</title>
<a xlink:href="printable_8h.html" target="_top" xlink:title="base/printable.h">
<polygon fill="white" stroke="black" points="1473.98,-58.5 1473.98,-79.5 1559.98,-79.5 1559.98,-58.5 1473.98,-58.5"/>
<text text-anchor="middle" x="1516.98" y="-66.5" font-family="Helvetica,sans-Serif" font-size="10.00">base/printable.h</text>
</a>
</g>
<!-- Node3&#45;&gt;Node4 -->
<g id="edge6" class="edge"><title>Node3&#45;&gt;Node4</title>
<path fill="none" stroke="midnightblue" d="M558.607,-122.69C583.695,-120.507 614.986,-117.918 642.976,-116 953.621,-94.7085 1326.93,-77.3892 1463.56,-71.3245"/>
<polygon fill="midnightblue" stroke="midnightblue" points="1463.92,-74.8123 1473.75,-70.8735 1463.61,-67.8191 1463.92,-74.8123"/>
</g>
<!-- Node5 -->
<g id="node9" class="node"><title>Node5</title>
<polygon fill="white" stroke="#bfbfbf" points="388.976,-0.5 388.976,-21.5 432.976,-21.5 432.976,-0.5 388.976,-0.5"/>
<text text-anchor="middle" x="410.976" y="-8.5" font-family="Helvetica,sans-Serif" font-size="10.00">vector</text>
</g>
<!-- Node3&#45;&gt;Node5 -->
<g id="edge22" class="edge"><title>Node3&#45;&gt;Node5</title>
<path fill="none" stroke="midnightblue" d="M520.258,-116.378C531.558,-102.094 547.658,-76.3697 534.976,-58 524.189,-42.3757 475.829,-27.3745 442.789,-18.6792"/>
<polygon fill="midnightblue" stroke="midnightblue" points="443.641,-15.2847 433.085,-16.1894 441.902,-22.0651 443.641,-15.2847"/>
</g>
<!-- Node7 -->
<g id="node13" class="node"><title>Node7</title>
<polygon fill="white" stroke="#bfbfbf" points="1061.48,-58.5 1061.48,-79.5 1126.48,-79.5 1126.48,-58.5 1061.48,-58.5"/>
<text text-anchor="middle" x="1093.98" y="-66.5" font-family="Helvetica,sans-Serif" font-size="10.00">TVector3.h</text>
</g>
<!-- Node3&#45;&gt;Node7 -->
<g id="edge12" class="edge"><title>Node3&#45;&gt;Node7</title>
<path fill="none" stroke="midnightblue" d="M558.685,-122.254C669.88,-111.191 944.864,-83.8345 1051.12,-73.2639"/>
<polygon fill="midnightblue" stroke="midnightblue" points="1051.55,-76.7379 1061.16,-72.265 1050.86,-69.7723 1051.55,-76.7379"/>
</g>
<!-- Node8 -->
<g id="node15" class="node"><title>Node8</title>
<polygon fill="white" stroke="#bfbfbf" points="311.976,-58.5 311.976,-79.5 357.976,-79.5 357.976,-58.5 311.976,-58.5"/>
<text text-anchor="middle" x="334.976" y="-66.5" font-family="Helvetica,sans-Serif" font-size="10.00">cstdint</text>
</g>
<!-- Node3&#45;&gt;Node8 -->
<g id="edge14" class="edge"><title>Node3&#45;&gt;Node8</title>
<path fill="none" stroke="midnightblue" d="M479.103,-116.497C447.64,-106.128 399.746,-90.3449 367.917,-79.8556"/>
<polygon fill="midnightblue" stroke="midnightblue" points="368.781,-76.4554 358.188,-76.6496 366.59,-83.1037 368.781,-76.4554"/>
</g>
<!-- Node9 -->
<g id="node17" class="node"><title>Node9</title>
<polygon fill="white" stroke="#bfbfbf" points="846.476,-58.5 846.476,-79.5 905.476,-79.5 905.476,-58.5 846.476,-58.5"/>
<text text-anchor="middle" x="875.976" y="-66.5" font-family="Helvetica,sans-Serif" font-size="10.00">stdexcept</text>
</g>
<!-- Node3&#45;&gt;Node9 -->
<g id="edge16" class="edge"><title>Node3&#45;&gt;Node9</title>
<path fill="none" stroke="midnightblue" d="M558.693,-119.418C631.329,-107.875 768.325,-86.1061 836.03,-75.3476"/>
<polygon fill="midnightblue" stroke="midnightblue" points="836.954,-78.7448 846.28,-73.7187 835.855,-71.8315 836.954,-78.7448"/>
</g>
<!-- Node10 -->
<g id="node19" class="node"><title>Node10</title>
<polygon fill="white" stroke="#bfbfbf" points="2717.48,-0.5 2717.48,-21.5 2758.48,-21.5 2758.48,-0.5 2717.48,-0.5"/>
<text text-anchor="middle" x="2737.98" y="-8.5" font-family="Helvetica,sans-Serif" font-size="10.00">string</text>
</g>
<!-- Node3&#45;&gt;Node10 -->
<g id="edge18" class="edge"><title>Node3&#45;&gt;Node10</title>
<path fill="none" stroke="midnightblue" d="M558.583,-122.299C583.665,-120.008 614.958,-117.442 642.976,-116 1048.74,-95.1188 2068.44,-135.205 2470.98,-80 2558.43,-68.0056 2658.42,-37.4945 2707.51,-21.3623"/>
<polygon fill="midnightblue" stroke="midnightblue" points="2708.81,-24.6212 2717.2,-18.15 2706.6,-17.9774 2708.81,-24.6212"/>
</g>
<!-- Node11 -->
<g id="node21" class="node"><title>Node11</title>
<polygon fill="white" stroke="#bfbfbf" points="463.976,-58.5 463.976,-79.5 525.976,-79.5 525.976,-58.5 463.976,-58.5"/>
<text text-anchor="middle" x="494.976" y="-66.5" font-family="Helvetica,sans-Serif" font-size="10.00">type_traits</text>
</g>
<!-- Node3&#45;&gt;Node11 -->
<g id="edge20" class="edge"><title>Node3&#45;&gt;Node11</title>
<path fill="none" stroke="midnightblue" d="M508.041,-116.362C505.966,-108.84 503.119,-98.5187 500.612,-89.4308"/>
<polygon fill="midnightblue" stroke="midnightblue" points="503.925,-88.2798 497.892,-79.5707 497.177,-90.1414 503.925,-88.2798"/>
</g>
<!-- Node4&#45;&gt;Node5 -->
<g id="edge8" class="edge"><title>Node4&#45;&gt;Node5</title>
<path fill="none" stroke="midnightblue" d="M1473.96,-66.7441C1293.74,-57.2932 601.495,-20.9911 443.3,-12.6951"/>
<polygon fill="midnightblue" stroke="midnightblue" points="443.424,-9.19691 433.254,-12.1683 443.057,-16.1873 443.424,-9.19691"/>
</g>
<!-- Node6 -->
<g id="node11" class="node"><title>Node6</title>
<polygon fill="white" stroke="#bfbfbf" points="1599.98,-0.5 1599.98,-21.5 1651.98,-21.5 1651.98,-0.5 1599.98,-0.5"/>
<text text-anchor="middle" x="1625.98" y="-8.5" font-family="Helvetica,sans-Serif" font-size="10.00">ostream</text>
</g>
<!-- Node4&#45;&gt;Node6 -->
<g id="edge10" class="edge"><title>Node4&#45;&gt;Node6</title>
<path fill="none" stroke="midnightblue" d="M1536.71,-58.4966C1553.59,-49.5194 1578.08,-36.4835 1597.15,-26.3387"/>
<polygon fill="midnightblue" stroke="midnightblue" points="1598.83,-29.4086 1606.02,-21.6212 1595.54,-23.2289 1598.83,-29.4086"/>
</g>
<!-- Node12&#45;&gt;Node3 -->
<g id="edge324" class="edge"><title>Node12&#45;&gt;Node3</title>
<path fill="none" stroke="midnightblue" d="M1121.92,-603.978C904.805,-599.752 226.976,-579.328 226.976,-489 226.976,-489 226.976,-489 226.976,-431 226.976,-291.803 296.517,-259.992 405.976,-174 424.061,-159.792 447.122,-148.856 467.023,-141.123"/>
<polygon fill="midnightblue" stroke="midnightblue" points="468.359,-144.361 476.503,-137.584 465.91,-137.803 468.359,-144.361"/>
</g>
<!-- Node12&#45;&gt;Node5 -->
<g id="edge332" class="edge"><title>Node12&#45;&gt;Node5</title>
<path fill="none" stroke="midnightblue" d="M1121.87,-603.248C914.64,-597.55 289.161,-578.716 250.976,-558 57.5741,-453.075 -55.3417,-319.646 27.9757,-116 41.6615,-82.549 52.7301,-74.3245 84.9757,-58 136.049,-32.1436 306.648,-17.9825 378.565,-13.039"/>
<polygon fill="midnightblue" stroke="midnightblue" points="379.087,-16.5119 388.83,-12.3502 378.619,-9.52758 379.087,-16.5119"/>
</g>
<!-- Node12&#45;&gt;Node8 -->
<g id="edge334" class="edge"><title>Node12&#45;&gt;Node8</title>
<path fill="none" stroke="midnightblue" d="M1121.78,-603.594C929.768,-599.22 381.334,-584.53 304.976,-558 262.809,-543.349 246.799,-537.751 222.976,-500 203.852,-469.697 209.54,-455.667 212.976,-420 225.73,-287.58 297.096,-140.747 324.373,-88.6401"/>
<polygon fill="midnightblue" stroke="midnightblue" points="327.481,-90.25 329.071,-79.775 321.296,-86.9726 327.481,-90.25"/>
</g>
<!-- Node13 -->
<g id="node26" class="node"><title>Node13</title>
<a xlink:href="_unpacker_8h.html" target="_top" xlink:title="Unpacker.h">
<polygon fill="white" stroke="black" points="2493.48,-232.5 2493.48,-253.5 2560.48,-253.5 2560.48,-232.5 2493.48,-232.5"/>
<text text-anchor="middle" x="2526.98" y="-240.5" font-family="Helvetica,sans-Serif" font-size="10.00">Unpacker.h</text>
</a>
</g>
<!-- Node12&#45;&gt;Node13 -->
<g id="edge26" class="edge"><title>Node12&#45;&gt;Node13</title>
<path fill="none" stroke="midnightblue" d="M1253.99,-604.687C1469.8,-603.299 2153.01,-595.945 2369.98,-558 2470.08,-540.492 2587.98,-590.626 2587.98,-489 2587.98,-489 2587.98,-489 2587.98,-366 2587.98,-325.419 2561,-284.414 2542.92,-261.497"/>
<polygon fill="midnightblue" stroke="midnightblue" points="2545.54,-259.171 2536.51,-253.638 2540.12,-263.598 2545.54,-259.171"/>
</g>
<!-- Node14 -->
<g id="node29" class="node"><title>Node14</title>
<polygon fill="white" stroke="#bfbfbf" points="1393.98,-174.5 1393.98,-195.5 1445.98,-195.5 1445.98,-174.5 1393.98,-174.5"/>
<text text-anchor="middle" x="1419.98" y="-182.5" font-family="Helvetica,sans-Serif" font-size="10.00">memory</text>
</g>
<!-- Node12&#45;&gt;Node14 -->
<g id="edge326" class="edge"><title>Node12&#45;&gt;Node14</title>
<path fill="none" stroke="midnightblue" d="M1163.81,-594.493C1129.29,-577.656 1069.98,-541.14 1069.98,-489 1069.98,-489 1069.98,-489 1069.98,-301 1069.98,-263.895 1085.6,-251.815 1116.98,-232 1122.61,-228.442 1304.84,-201.69 1383.94,-190.208"/>
<polygon fill="midnightblue" stroke="midnightblue" points="1384.55,-193.657 1393.94,-188.758 1383.54,-186.729 1384.55,-193.657"/>
</g>
<!-- Node15 -->
<g id="node31" class="node"><title>Node15</title>
<a xlink:href="_exp_config_8h.html" target="_top" xlink:title="expconfig/ExpConfig.h">
<polygon fill="white" stroke="black" points="1290.98,-536.5 1290.98,-557.5 1406.98,-557.5 1406.98,-536.5 1290.98,-536.5"/>
<text text-anchor="middle" x="1348.98" y="-544.5" font-family="Helvetica,sans-Serif" font-size="10.00">expconfig/ExpConfig.h</text>
</a>
</g>
<!-- Node12&#45;&gt;Node15 -->
<g id="edge32" class="edge"><title>Node12&#45;&gt;Node15</title>
<path fill="none" stroke="midnightblue" d="M1217.13,-594.497C1243.15,-585.123 1281.45,-571.324 1310.08,-561.012"/>
<polygon fill="midnightblue" stroke="midnightblue" points="1311.54,-564.205 1319.77,-557.523 1309.17,-557.62 1311.54,-564.205"/>
</g>
<!-- Node19 -->
<g id="node42" class="node"><title>Node19</title>
<polygon fill="white" stroke="#bfbfbf" points="1836.48,-116.5 1836.48,-137.5 1865.48,-137.5 1865.48,-116.5 1836.48,-116.5"/>
<text text-anchor="middle" x="1850.98" y="-124.5" font-family="Helvetica,sans-Serif" font-size="10.00">list</text>
</g>
<!-- Node12&#45;&gt;Node19 -->
<g id="edge328" class="edge"><title>Node12&#45;&gt;Node19</title>
<path fill="none" stroke="midnightblue" d="M1254.22,-601.71C1470.02,-589.534 2146.88,-539.385 2285.98,-384 2348.43,-314.231 2379.6,-227.821 2302.98,-174 2300.76,-172.444 1969.87,-138.986 1875.71,-129.492"/>
<polygon fill="midnightblue" stroke="midnightblue" points="1875.98,-126.001 1865.68,-128.48 1875.27,-132.965 1875.98,-126.001"/>
</g>
<!-- Node22 -->
<g id="node53" class="node"><title>Node22</title>
<polygon fill="white" stroke="#bfbfbf" points="2387.48,-174.5 2387.48,-195.5 2422.48,-195.5 2422.48,-174.5 2387.48,-174.5"/>
<text text-anchor="middle" x="2404.98" y="-182.5" font-family="Helvetica,sans-Serif" font-size="10.00">map</text>
</g>
<!-- Node12&#45;&gt;Node22 -->
<g id="edge330" class="edge"><title>Node12&#45;&gt;Node22</title>
<path fill="none" stroke="midnightblue" d="M1254.18,-604.814C1606.78,-603.398 3247.98,-591.312 3247.98,-489 3247.98,-489 3247.98,-489 3247.98,-366 3247.98,-202.335 3064.43,-268.899 2904.98,-232 2715.54,-188.163 2661.86,-220.492 2468.98,-196 2457.03,-194.483 2443.9,-192.316 2432.66,-190.306"/>
<polygon fill="midnightblue" stroke="midnightblue" points="2433.04,-186.816 2422.57,-188.453 2431.77,-193.701 2433.04,-186.816"/>
</g>
<!-- Node31 -->
<g id="node76" class="node"><title>Node31</title>
<polygon fill="white" stroke="#bfbfbf" points="2517.98,-116.5 2517.98,-137.5 2557.98,-137.5 2557.98,-116.5 2517.98,-116.5"/>
<text text-anchor="middle" x="2537.98" y="-124.5" font-family="Helvetica,sans-Serif" font-size="10.00">limits</text>
</g>
<!-- Node12&#45;&gt;Node31 -->
<g id="edge336" class="edge"><title>Node12&#45;&gt;Node31</title>
<path fill="none" stroke="midnightblue" d="M1254.07,-604.049C1559.31,-599.552 2825.3,-579.737 3000.98,-558 3130.32,-541.996 3285.98,-619.326 3285.98,-489 3285.98,-489 3285.98,-489 3285.98,-366 3285.98,-268.093 3267.82,-212.91 3177.98,-174 3121.65,-149.607 2688.05,-132.382 2568.44,-128.06"/>
<polygon fill="midnightblue" stroke="midnightblue" points="2568.3,-124.553 2558.18,-127.693 2568.05,-131.549 2568.3,-124.553"/>
</g>
<!-- Node13&#45;&gt;Node10 -->
<g id="edge28" class="edge"><title>Node13&#45;&gt;Node10</title>
<path fill="none" stroke="midnightblue" d="M2560.89,-234.077C2563.63,-233.37 2566.35,-232.671 2568.98,-232 2633.32,-215.588 2669.78,-245.559 2713.98,-196 2755.17,-149.799 2748.23,-69.4617 2742.07,-31.7153"/>
<polygon fill="midnightblue" stroke="midnightblue" points="2745.51,-31.0877 2740.31,-21.856 2738.62,-32.3147 2745.51,-31.0877"/>
</g>
<!-- Node13&#45;&gt;Node14 -->
<g id="edge30" class="edge"><title>Node13&#45;&gt;Node14</title>
<path fill="none" stroke="midnightblue" d="M2493.18,-233.47C2490.42,-232.899 2487.66,-232.396 2484.98,-232 2057.32,-168.858 1943.98,-229.416 1512.98,-196 1494.18,-194.543 1473.34,-192.15 1456.15,-189.967"/>
<polygon fill="midnightblue" stroke="midnightblue" points="1456.34,-186.462 1445.98,-188.645 1455.44,-193.404 1456.34,-186.462"/>
</g>
<!-- Node15&#45;&gt;Node3 -->
<g id="edge34" class="edge"><title>Node15&#45;&gt;Node3</title>
<path fill="none" stroke="midnightblue" d="M1290.79,-546.461C1076.13,-543.714 340.976,-527.28 340.976,-431 340.976,-431 340.976,-431 340.976,-366 340.976,-304.096 344.659,-283.522 378.976,-232 405.455,-192.244 451.785,-160.52 481.916,-142.734"/>
<polygon fill="midnightblue" stroke="midnightblue" points="483.791,-145.694 490.708,-137.669 480.296,-139.629 483.791,-145.694"/>
</g>
<!-- Node15&#45;&gt;Node4 -->
<g id="edge316" class="edge"><title>Node15&#45;&gt;Node4</title>
<path fill="none" stroke="midnightblue" d="M1407.2,-545.444C1596.13,-540.223 2190.97,-522.391 2381.98,-500 2570.51,-477.898 3259.81,-326.531 3299.98,-312 3351.95,-293.199 3381.43,-301.325 3409.98,-254 3508.48,-90.7101 1887.87,-71.4759 1570.42,-69.2765"/>
<polygon fill="midnightblue" stroke="midnightblue" points="1570.14,-65.7747 1560.11,-69.208 1570.09,-72.7745 1570.14,-65.7747"/>
</g>
<!-- Node15&#45;&gt;Node14 -->
<g id="edge318" class="edge"><title>Node15&#45;&gt;Node14</title>
<path fill="none" stroke="midnightblue" d="M1342.07,-536.297C1329.91,-516.404 1305.98,-472.023 1305.98,-431 1305.98,-431 1305.98,-431 1305.98,-301 1305.98,-254.026 1354.12,-219.117 1387.83,-200.43"/>
<polygon fill="midnightblue" stroke="midnightblue" points="1389.73,-203.385 1396.91,-195.592 1386.44,-197.208 1389.73,-203.385"/>
</g>
<!-- Node16 -->
<g id="node34" class="node"><title>Node16</title>
<a xlink:href="_reconstruct__traits_8h.html" target="_top" xlink:title="reconstruct/Reconstruct\l_traits.h">
<polygon fill="white" stroke="black" points="1155.98,-349 1155.98,-383 1277.98,-383 1277.98,-349 1155.98,-349"/>
<text text-anchor="start" x="1163.98" y="-370" font-family="Helvetica,sans-Serif" font-size="10.00">reconstruct/Reconstruct</text>
<text text-anchor="middle" x="1216.98" y="-357" font-family="Helvetica,sans-Serif" font-size="10.00">_traits.h</text>
</a>
</g>
<!-- Node15&#45;&gt;Node16 -->
<g id="edge36" class="edge"><title>Node15&#45;&gt;Node16</title>
<path fill="none" stroke="midnightblue" d="M1333.1,-536.386C1320.83,-527.639 1303.98,-514.374 1291.98,-500 1264,-466.502 1241.14,-421.052 1228.29,-392.633"/>
<polygon fill="midnightblue" stroke="midnightblue" points="1231.42,-391.063 1224.16,-383.339 1225.02,-393.899 1231.42,-391.063"/>
</g>
<!-- Node15&#45;&gt;Node19 -->
<g id="edge320" class="edge"><title>Node15&#45;&gt;Node19</title>
<path fill="none" stroke="midnightblue" d="M1407.21,-541.339C1600.56,-521.914 2211.8,-455.228 2260.98,-384 2337.29,-273.451 2244.13,-375.903 2050.98,-254 2004.58,-224.72 2003.42,-203.198 1956.98,-174 1930.64,-157.444 1897.48,-143.75 1875.32,-135.496"/>
<polygon fill="midnightblue" stroke="midnightblue" points="1876.29,-132.123 1865.7,-131.993 1873.9,-138.701 1876.29,-132.123"/>
</g>
<!-- Node15&#45;&gt;Node22 -->
<g id="edge322" class="edge"><title>Node15&#45;&gt;Node22</title>
<path fill="none" stroke="midnightblue" d="M1407.22,-545.468C1585.36,-540.567 2121.33,-524.162 2293.98,-500 2406.72,-484.221 2698.48,-447.497 2792.98,-384 2858.52,-339.957 2938.35,-290.195 2884.98,-232 2853.62,-197.809 2514.99,-201.935 2468.98,-196 2457.03,-194.459 2443.9,-192.288 2432.67,-190.282"/>
<polygon fill="midnightblue" stroke="midnightblue" points="2433.04,-186.792 2422.57,-188.434 2431.78,-193.677 2433.04,-186.792"/>
</g>
<!-- Node23 -->
<g id="node56" class="node"><title>Node23</title>
<a xlink:href="_calibration_8h.html" target="_top" xlink:title="calibration/Calibration.h">
<polygon fill="white" stroke="black" points="1333.48,-478.5 1333.48,-499.5 1452.48,-499.5 1452.48,-478.5 1333.48,-478.5"/>
<text text-anchor="middle" x="1392.98" y="-486.5" font-family="Helvetica,sans-Serif" font-size="10.00">calibration/Calibration.h</text>
</a>
</g>
<!-- Node15&#45;&gt;Node23 -->
<g id="edge66" class="edge"><title>Node15&#45;&gt;Node23</title>
<path fill="none" stroke="midnightblue" d="M1357.05,-536.362C1363.12,-528.35 1371.61,-517.161 1378.81,-507.67"/>
<polygon fill="midnightblue" stroke="midnightblue" points="1381.7,-509.653 1384.96,-499.571 1376.12,-505.422 1381.7,-509.653"/>
</g>
<!-- Node16&#45;&gt;Node3 -->
<g id="edge38" class="edge"><title>Node16&#45;&gt;Node3</title>
<path fill="none" stroke="midnightblue" d="M1155.8,-364.606C1004.22,-360.63 620.205,-347.162 574.976,-312 523.204,-271.751 513.117,-187.077 511.289,-147.812"/>
<polygon fill="midnightblue" stroke="midnightblue" points="514.78,-147.478 510.957,-137.598 507.784,-147.706 514.78,-147.478"/>
</g>
<!-- Node16&#45;&gt;Node14 -->
<g id="edge60" class="edge"><title>Node16&#45;&gt;Node14</title>
<path fill="none" stroke="midnightblue" d="M1225.77,-348.765C1243.35,-314.522 1282.04,-240.478 1291.98,-232 1306.18,-219.887 1351.45,-204.864 1384.12,-195.112"/>
<polygon fill="midnightblue" stroke="midnightblue" points="1385.21,-198.442 1393.81,-192.263 1383.23,-191.726 1385.21,-198.442"/>
</g>
<!-- Node17 -->
<g id="node37" class="node"><title>Node17</title>
<a xlink:href="_memory_pool_8h.html" target="_top" xlink:title="tree/MemoryPool.h">
<polygon fill="white" stroke="black" points="1103.48,-290.5 1103.48,-311.5 1202.48,-311.5 1202.48,-290.5 1103.48,-290.5"/>
<text text-anchor="middle" x="1152.98" y="-298.5" font-family="Helvetica,sans-Serif" font-size="10.00">tree/MemoryPool.h</text>
</a>
</g>
<!-- Node16&#45;&gt;Node17 -->
<g id="edge40" class="edge"><title>Node16&#45;&gt;Node17</title>
<path fill="none" stroke="midnightblue" d="M1200.16,-348.922C1191.13,-339.754 1180.01,-328.454 1170.83,-319.129"/>
<polygon fill="midnightblue" stroke="midnightblue" points="1173.17,-316.522 1163.66,-311.852 1168.18,-321.433 1173.17,-316.522"/>
</g>
<!-- Node16&#45;&gt;Node19 -->
<g id="edge64" class="edge"><title>Node16&#45;&gt;Node19</title>
<path fill="none" stroke="midnightblue" d="M1219.86,-348.913C1225.41,-321.001 1240.05,-265.396 1272.98,-232 1273.59,-231.376 1384.14,-174.25 1384.98,-174 1469.07,-148.98 1742.55,-132.743 1826.34,-128.261"/>
<polygon fill="midnightblue" stroke="midnightblue" points="1826.65,-131.75 1836.45,-127.729 1826.28,-124.76 1826.65,-131.75"/>
</g>
<!-- Node21 -->
<g id="node47" class="node"><title>Node21</title>
<a xlink:href="mapped__vectors_8h.html" target="_top" xlink:title="base/mapped_vectors.h">
<polygon fill="white" stroke="black" points="387.476,-232.5 387.476,-253.5 508.476,-253.5 508.476,-232.5 387.476,-232.5"/>
<text text-anchor="middle" x="447.976" y="-240.5" font-family="Helvetica,sans-Serif" font-size="10.00">base/mapped_vectors.h</text>
</a>
</g>
<!-- Node16&#45;&gt;Node21 -->
<g id="edge52" class="edge"><title>Node16&#45;&gt;Node21</title>
<path fill="none" stroke="midnightblue" d="M1155.78,-363.555C996.816,-356.879 579.211,-337.148 521.976,-312 497.052,-301.049 475.184,-278.068 461.806,-261.636"/>
<polygon fill="midnightblue" stroke="midnightblue" points="464.539,-259.449 455.614,-253.739 459.03,-263.768 464.539,-259.449"/>
</g>
<!-- Node16&#45;&gt;Node22 -->
<g id="edge62" class="edge"><title>Node16&#45;&gt;Node22</title>
<path fill="none" stroke="midnightblue" d="M1278.11,-363.025C1356.73,-359.252 1497.51,-352.675 1617.98,-348 1862.37,-338.516 2479.55,-366.509 2717.98,-312 2780.05,-297.809 2814.24,-307.365 2848.98,-254 2899.53,-176.326 2526.54,-215.679 2435.98,-196 2434.89,-195.764 2433.79,-195.499 2432.68,-195.213"/>
<polygon fill="midnightblue" stroke="midnightblue" points="2433.37,-191.764 2422.78,-192.187 2431.32,-198.458 2433.37,-191.764"/>
</g>
<!-- Node17&#45;&gt;Node14 -->
<g id="edge48" class="edge"><title>Node17&#45;&gt;Node14</title>
<path fill="none" stroke="midnightblue" d="M1142.66,-290.02C1130.13,-275.33 1112.36,-249.147 1126.98,-232 1131.14,-227.12 1306.11,-201.394 1383.64,-190.205"/>
<polygon fill="midnightblue" stroke="midnightblue" points="1384.51,-193.616 1393.91,-188.726 1383.51,-186.688 1384.51,-193.616"/>
</g>
<!-- Node18 -->
<g id="node39" class="node"><title>Node18</title>
<a xlink:href="memory_8h.html" target="_top" xlink:title="base/std_ext/memory.h">
<polygon fill="white" stroke="black" points="1447.48,-232.5 1447.48,-253.5 1566.48,-253.5 1566.48,-232.5 1447.48,-232.5"/>
<text text-anchor="middle" x="1506.98" y="-240.5" font-family="Helvetica,sans-Serif" font-size="10.00">base/std_ext/memory.h</text>
</a>
</g>
<!-- Node17&#45;&gt;Node18 -->
<g id="edge42" class="edge"><title>Node17&#45;&gt;Node18</title>
<path fill="none" stroke="midnightblue" d="M1202.57,-292.874C1263.78,-282.845 1368.24,-265.731 1437.44,-254.394"/>
<polygon fill="midnightblue" stroke="midnightblue" points="1438.08,-257.835 1447.38,-252.764 1436.95,-250.927 1438.08,-257.835"/>
</g>
<!-- Node20 -->
<g id="node45" class="node"><title>Node20</title>
<polygon fill="white" stroke="#bfbfbf" points="1135.48,-232.5 1135.48,-253.5 1202.48,-253.5 1202.48,-232.5 1135.48,-232.5"/>
<text text-anchor="middle" x="1168.98" y="-240.5" font-family="Helvetica,sans-Serif" font-size="10.00">forward_list</text>
</g>
<!-- Node17&#45;&gt;Node20 -->
<g id="edge50" class="edge"><title>Node17&#45;&gt;Node20</title>
<path fill="none" stroke="midnightblue" d="M1155.91,-290.362C1157.99,-282.84 1160.83,-272.519 1163.34,-263.431"/>
<polygon fill="midnightblue" stroke="midnightblue" points="1166.77,-264.141 1166.06,-253.571 1160.03,-262.28 1166.77,-264.141"/>
</g>
<!-- Node18&#45;&gt;Node14 -->
<g id="edge44" class="edge"><title>Node18&#45;&gt;Node14</title>
<path fill="none" stroke="midnightblue" d="M1491.02,-232.362C1478.02,-223.696 1459.44,-211.313 1444.55,-201.382"/>
<polygon fill="midnightblue" stroke="midnightblue" points="1446.09,-198.206 1435.83,-195.571 1442.21,-204.03 1446.09,-198.206"/>
</g>
<!-- Node18&#45;&gt;Node19 -->
<g id="edge46" class="edge"><title>Node18&#45;&gt;Node19</title>
<path fill="none" stroke="midnightblue" d="M1504.25,-232.264C1501.13,-217.122 1498.15,-189.606 1512.98,-174 1534.56,-151.272 1751.46,-134.001 1825.99,-128.698"/>
<polygon fill="midnightblue" stroke="midnightblue" points="1826.56,-132.166 1836.29,-127.976 1826.07,-125.183 1826.56,-132.166"/>
</g>
<!-- Node21&#45;&gt;Node5 -->
<g id="edge54" class="edge"><title>Node21&#45;&gt;Node5</title>
<path fill="none" stroke="midnightblue" d="M445.782,-232.195C443.881,-222.682 441.108,-208.447 438.976,-196 428.822,-136.743 418.715,-66.4726 413.894,-32.0853"/>
<polygon fill="midnightblue" stroke="midnightblue" points="417.317,-31.2877 412.469,-21.8669 410.384,-32.2544 417.317,-31.2877"/>
</g>
<!-- Node21&#45;&gt;Node11 -->
<g id="edge58" class="edge"><title>Node21&#45;&gt;Node11</title>
<path fill="none" stroke="midnightblue" d="M446.348,-232.309C443.391,-209.827 438.837,-156.397 454.976,-116 459.329,-105.105 467.276,-94.931 474.946,-86.855"/>
<polygon fill="midnightblue" stroke="midnightblue" points="477.715,-89.0409 482.381,-79.5292 472.802,-84.0547 477.715,-89.0409"/>
</g>
<!-- Node21&#45;&gt;Node14 -->
<g id="edge56" class="edge"><title>Node21&#45;&gt;Node14</title>
<path fill="none" stroke="midnightblue" d="M508.63,-238.141C534.598,-236.128 565.266,-233.838 592.976,-232 898.755,-211.714 1268.5,-192.634 1383.84,-186.808"/>
<polygon fill="midnightblue" stroke="midnightblue" points="1384.08,-190.301 1393.89,-186.302 1383.73,-183.31 1384.08,-190.301"/>
</g>
<!-- Node23&#45;&gt;Node5 -->
<g id="edge314" class="edge"><title>Node23&#45;&gt;Node5</title>
<path fill="none" stroke="midnightblue" d="M1333.34,-484.385C1088.73,-463.979 168.894,-372.266 34.9757,-138 -1.32032,-74.5068 281.149,-28.9836 378.662,-15.2896"/>
<polygon fill="midnightblue" stroke="midnightblue" points="379.396,-18.7215 388.823,-13.8845 378.437,-11.7875 379.396,-18.7215"/>
</g>
<!-- Node23&#45;&gt;Node16 -->
<g id="edge298" class="edge"><title>Node23&#45;&gt;Node16</title>
<path fill="none" stroke="midnightblue" d="M1377.66,-478.3C1349.29,-458.466 1287.94,-415.594 1249.79,-388.934"/>
<polygon fill="midnightblue" stroke="midnightblue" points="1251.76,-386.04 1241.56,-383.18 1247.75,-391.777 1251.76,-386.04"/>
</g>
<!-- Node24 -->
<g id="node58" class="node"><title>Node24</title>
<a xlink:href="_physics_8h.html" target="_top" xlink:title="analysis/physics/Physics.h">
<polygon fill="white" stroke="black" points="1925.98,-420.5 1925.98,-441.5 2061.98,-441.5 2061.98,-420.5 1925.98,-420.5"/>
<text text-anchor="middle" x="1993.98" y="-428.5" font-family="Helvetica,sans-Serif" font-size="10.00">analysis/physics/Physics.h</text>
</a>
</g>
<!-- Node23&#45;&gt;Node24 -->
<g id="edge68" class="edge"><title>Node23&#45;&gt;Node24</title>
<path fill="none" stroke="midnightblue" d="M1452.52,-483.253C1561.69,-472.718 1793.81,-450.317 1915.62,-438.562"/>
<polygon fill="midnightblue" stroke="midnightblue" points="1916.01,-442.04 1925.63,-437.596 1915.34,-435.073 1916.01,-442.04"/>
</g>
<!-- Node63 -->
<g id="node213" class="node"><title>Node63</title>
<a xlink:href="_manager__traits_8h.html" target="_top" xlink:title="calibration/gui/Manager\l_traits.h">
<polygon fill="white" stroke="black" points="2135.48,-349 2135.48,-383 2252.48,-383 2252.48,-349 2135.48,-349"/>
<text text-anchor="start" x="2143.48" y="-370" font-family="Helvetica,sans-Serif" font-size="10.00">calibration/gui/Manager</text>
<text text-anchor="middle" x="2193.98" y="-357" font-family="Helvetica,sans-Serif" font-size="10.00">_traits.h</text>
</a>
</g>
<!-- Node23&#45;&gt;Node63 -->
<g id="edge300" class="edge"><title>Node23&#45;&gt;Node63</title>
<path fill="none" stroke="midnightblue" d="M1452.67,-488.518C1596.12,-486.774 1956.76,-478.754 2070.98,-442 2106.09,-430.7 2141.42,-407.33 2165.15,-389.471"/>
<polygon fill="midnightblue" stroke="midnightblue" points="2167.55,-392.041 2173.34,-383.173 2163.28,-386.491 2167.55,-392.041"/>
</g>
<!-- Node24&#45;&gt;Node10 -->
<g id="edge290" class="edge"><title>Node24&#45;&gt;Node10</title>
<path fill="none" stroke="midnightblue" d="M2062.1,-429.802C2200.35,-426.752 2523.62,-416.473 2792.98,-384 2969.27,-362.746 3013.57,-354.509 3185.98,-312 3297.84,-284.418 3411.98,-300.217 3411.98,-185 3411.98,-185 3411.98,-185 3411.98,-127 3411.98,-91.7737 3402.73,-76.8641 3372.98,-58 3321.6,-25.4222 2889.07,-14.119 2768.86,-11.5909"/>
<polygon fill="midnightblue" stroke="midnightblue" points="2768.61,-8.08507 2758.54,-11.3794 2768.46,-15.0836 2768.61,-8.08507"/>
</g>
<!-- Node24&#45;&gt;Node14 -->
<g id="edge294" class="edge"><title>Node24&#45;&gt;Node14</title>
<path fill="none" stroke="midnightblue" d="M1925.94,-428.357C1849.74,-424.054 1723.13,-412.864 1617.98,-384 1540.82,-362.82 1515.86,-361.474 1452.98,-312 1427.55,-291.993 1419.29,-284.667 1408.98,-254 1403.61,-238.058 1407.29,-219.144 1411.78,-205.153"/>
<polygon fill="midnightblue" stroke="midnightblue" points="1415.15,-206.14 1415.24,-195.545 1408.56,-203.767 1415.15,-206.14"/>
</g>
<!-- Node24&#45;&gt;Node19 -->
<g id="edge288" class="edge"><title>Node24&#45;&gt;Node19</title>
<path fill="none" stroke="midnightblue" d="M1988.89,-420.18C1967.91,-375.579 1887.94,-205.577 1860.38,-146.987"/>
<polygon fill="midnightblue" stroke="midnightblue" points="1863.43,-145.249 1856,-137.69 1857.09,-148.229 1863.43,-145.249"/>
</g>
<!-- Node24&#45;&gt;Node22 -->
<g id="edge292" class="edge"><title>Node24&#45;&gt;Node22</title>
<path fill="none" stroke="midnightblue" d="M2019.46,-420.334C2038.74,-411.749 2065.48,-398.717 2086.98,-384 2106.71,-370.488 2104.88,-357.168 2126.98,-348 2264.08,-291.104 2655.55,-365.6 2793.98,-312 2831.97,-297.287 2847.51,-290.814 2864.98,-254 2911.25,-156.442 3036.52,-270.451 2468.98,-196 2457.03,-194.433 2443.91,-192.258 2432.67,-190.255"/>
<polygon fill="midnightblue" stroke="midnightblue" points="2433.04,-186.765 2422.58,-188.413 2431.79,-193.651 2433.04,-186.765"/>
</g>
<!-- Node25 -->
<g id="node60" class="node"><title>Node25</title>
<a xlink:href="_histogram_factories_8h.html" target="_top" xlink:title="analysis/plot/HistogramFactories.h">
<polygon fill="white" stroke="black" points="2615.98,-355.5 2615.98,-376.5 2783.98,-376.5 2783.98,-355.5 2615.98,-355.5"/>
<text text-anchor="middle" x="2699.98" y="-363.5" font-family="Helvetica,sans-Serif" font-size="10.00">analysis/plot/HistogramFactories.h</text>
</a>
</g>
<!-- Node24&#45;&gt;Node25 -->
<g id="edge70" class="edge"><title>Node24&#45;&gt;Node25</title>
<path fill="none" stroke="midnightblue" d="M2061.99,-424.738C2188.72,-413.07 2461.18,-387.986 2605.61,-374.688"/>
<polygon fill="midnightblue" stroke="midnightblue" points="2606.15,-378.153 2615.79,-373.751 2605.51,-371.183 2606.15,-378.153"/>
</g>
<!-- Node34 -->
<g id="node88" class="node"><title>Node34</title>
<polygon fill="white" stroke="#bfbfbf" points="2133.48,-174.5 2133.48,-195.5 2192.48,-195.5 2192.48,-174.5 2133.48,-174.5"/>
<text text-anchor="middle" x="2162.98" y="-182.5" font-family="Helvetica,sans-Serif" font-size="10.00">functional</text>
</g>
<!-- Node24&#45;&gt;Node34 -->
<g id="edge296" class="edge"><title>Node24&#45;&gt;Node34</title>
<path fill="none" stroke="midnightblue" d="M2007.42,-420.277C2019.23,-410.817 2036.84,-396.613 2051.98,-384 2070.86,-368.259 2071.17,-357.191 2093.98,-348 2250.79,-284.797 2756.75,-395.701 2848.98,-254 2854.31,-245.805 2855.68,-239.115 2848.98,-232 2802.4,-182.597 2306.52,-202.869 2238.98,-196 2227.08,-194.79 2214.18,-193.077 2202.45,-191.362"/>
<polygon fill="midnightblue" stroke="midnightblue" points="2202.91,-187.891 2192.5,-189.867 2201.87,-194.814 2202.91,-187.891"/>
</g>
<!-- Node49 -->
<g id="node146" class="node"><title>Node49</title>
<a xlink:href="_event_8h.html" target="_top" xlink:title="analysis/data/Event.h">
<polygon fill="white" stroke="black" points="1626.48,-355.5 1626.48,-376.5 1737.48,-376.5 1737.48,-355.5 1626.48,-355.5"/>
<text text-anchor="middle" x="1681.98" y="-363.5" font-family="Helvetica,sans-Serif" font-size="10.00">analysis/data/Event.h</text>
</a>
</g>
<!-- Node24&#45;&gt;Node49 -->
<g id="edge194" class="edge"><title>Node24&#45;&gt;Node49</title>
<path fill="none" stroke="midnightblue" d="M1943.5,-420.484C1888.56,-409.038 1800.74,-390.742 1742.23,-378.552"/>
<polygon fill="midnightblue" stroke="midnightblue" points="1742.88,-375.114 1732.38,-376.501 1741.45,-381.967 1742.88,-375.114"/>
</g>
<!-- Node61 -->
<g id="node198" class="node"><title>Node61</title>
<a xlink:href="_slowcontrol_8h.html" target="_top" xlink:title="analysis/data/Slowcontrol.h">
<polygon fill="white" stroke="black" points="43.4757,-116.5 43.4757,-137.5 180.476,-137.5 180.476,-116.5 43.4757,-116.5"/>
<text text-anchor="middle" x="111.976" y="-124.5" font-family="Helvetica,sans-Serif" font-size="10.00">analysis/data/Slowcontrol.h</text>
</a>
</g>
<!-- Node24&#45;&gt;Node61 -->
<g id="edge274" class="edge"><title>Node24&#45;&gt;Node61</title>
<path fill="none" stroke="midnightblue" d="M1925.82,-428.443C1781.84,-422.771 1436.13,-407.731 1146.98,-384 852.01,-359.793 775.833,-366.707 484.976,-312 387.71,-293.706 358.761,-297.733 269.976,-254 231.858,-235.225 227.13,-222.575 193.976,-196 172.589,-178.857 148.661,-158.594 132.2,-144.479"/>
<polygon fill="midnightblue" stroke="midnightblue" points="134.189,-141.574 124.325,-137.708 129.625,-146.882 134.189,-141.574"/>
</g>
<!-- Node62 -->
<g id="node202" class="node"><title>Node62</title>
<a xlink:href="_options_list_8h.html" target="_top" xlink:title="base/OptionsList.h">
<polygon fill="white" stroke="black" points="2377.98,-232.5 2377.98,-253.5 2475.98,-253.5 2475.98,-232.5 2377.98,-232.5"/>
<text text-anchor="middle" x="2426.98" y="-240.5" font-family="Helvetica,sans-Serif" font-size="10.00">base/OptionsList.h</text>
</a>
</g>
<!-- Node24&#45;&gt;Node62 -->
<g id="edge280" class="edge"><title>Node24&#45;&gt;Node62</title>
<path fill="none" stroke="midnightblue" d="M1999.02,-420.315C2007.96,-402.563 2028.26,-367.061 2055.98,-348 2106.81,-313.035 2276.8,-273.981 2367.99,-254.857"/>
<polygon fill="midnightblue" stroke="midnightblue" points="2368.83,-258.258 2377.9,-252.792 2367.4,-251.405 2368.83,-258.258"/>
</g>
<!-- Node25&#45;&gt;Node10 -->
<g id="edge192" class="edge"><title>Node25&#45;&gt;Node10</title>
<path fill="none" stroke="midnightblue" d="M2784.44,-358.957C2894.76,-349.218 3081.62,-330.711 3147.98,-312 3170.56,-305.631 3173.77,-297.598 3195.98,-290 3262.48,-267.243 3297.73,-301.023 3349.98,-254 3374.11,-232.279 3373.98,-217.469 3373.98,-185 3373.98,-185 3373.98,-185 3373.98,-127 3373.98,-94.5312 3375.7,-77.8135 3349.98,-58 3303.62,-22.2926 2886.3,-13.2596 2768.7,-11.414"/>
<polygon fill="midnightblue" stroke="midnightblue" points="2768.63,-7.91275 2758.58,-11.2616 2768.52,-14.912 2768.63,-7.91275"/>
</g>
<!-- Node26 -->
<g id="node62" class="node"><title>Node26</title>
<a xlink:href="_histogram_8h.html" target="_top" xlink:title="Histogram.h">
<polygon fill="white" stroke="black" points="3161.98,-232.5 3161.98,-253.5 3231.98,-253.5 3231.98,-232.5 3161.98,-232.5"/>
<text text-anchor="middle" x="3196.98" y="-240.5" font-family="Helvetica,sans-Serif" font-size="10.00">Histogram.h</text>
</a>
</g>
<!-- Node25&#45;&gt;Node26 -->
<g id="edge72" class="edge"><title>Node25&#45;&gt;Node26</title>
<path fill="none" stroke="midnightblue" d="M2784.24,-358.042C2852.52,-350.248 2950.72,-335.974 3033.98,-312 3082.15,-298.129 3135.11,-273.919 3167.2,-258.179"/>
<polygon fill="midnightblue" stroke="midnightblue" points="3169.06,-261.165 3176.46,-253.586 3165.95,-254.893 3169.06,-261.165"/>
</g>
<!-- Node32 -->
<g id="node78" class="node"><title>Node32</title>
<a xlink:href="_smart_hist_8h.html" target="_top" xlink:title="SmartHist.h">
<polygon fill="white" stroke="black" points="2640.48,-290.5 2640.48,-311.5 2709.48,-311.5 2709.48,-290.5 2640.48,-290.5"/>
<text text-anchor="middle" x="2674.98" y="-298.5" font-family="Helvetica,sans-Serif" font-size="10.00">SmartHist.h</text>
</a>
</g>
<!-- Node25&#45;&gt;Node32 -->
<g id="edge92" class="edge"><title>Node25&#45;&gt;Node32</title>
<path fill="none" stroke="midnightblue" d="M2695.85,-355.267C2692.28,-345.991 2687.03,-332.336 2682.69,-321.045"/>
<polygon fill="midnightblue" stroke="midnightblue" points="2685.88,-319.611 2679.03,-311.534 2679.35,-322.124 2685.88,-319.611"/>
</g>
<!-- Node41 -->
<g id="node105" class="node"><title>Node41</title>
<a xlink:href="_particle_8h.html" target="_top" xlink:title="analysis/data/Particle.h">
<polygon fill="white" stroke="black" points="1709.48,-290.5 1709.48,-311.5 1828.48,-311.5 1828.48,-290.5 1709.48,-290.5"/>
<text text-anchor="middle" x="1768.98" y="-298.5" font-family="Helvetica,sans-Serif" font-size="10.00">analysis/data/Particle.h</text>
</a>
</g>
<!-- Node25&#45;&gt;Node41 -->
<g id="edge128" class="edge"><title>Node25&#45;&gt;Node41</title>
<path fill="none" stroke="midnightblue" d="M2615.71,-360.117C2433.77,-347.414 2007.01,-317.619 1838.85,-305.878"/>
<polygon fill="midnightblue" stroke="midnightblue" points="1838.85,-302.37 1828.63,-305.165 1838.36,-309.353 1838.85,-302.37"/>
</g>
<!-- Node26&#45;&gt;Node5 -->
<g id="edge76" class="edge"><title>Node26&#45;&gt;Node5</title>
<path fill="none" stroke="midnightblue" d="M3161.72,-234.233C3066.5,-210.915 2795.84,-147.032 2566.98,-116 2130.6,-56.8322 678.358,-17.8071 443.252,-11.8079"/>
<polygon fill="midnightblue" stroke="midnightblue" points="443.071,-8.30229 432.986,-11.5473 442.894,-15.3 443.071,-8.30229"/>
</g>
<!-- Node26&#45;&gt;Node10 -->
<g id="edge78" class="edge"><title>Node26&#45;&gt;Node10</title>
<path fill="none" stroke="midnightblue" d="M3196.92,-232.225C3196.27,-217.29 3192.93,-190.297 3177.98,-174 3064.63,-50.452 2849.13,-20.2036 2769,-13.0923"/>
<polygon fill="midnightblue" stroke="midnightblue" points="2768.87,-9.5698 2758.62,-12.2351 2768.3,-16.5461 2768.87,-9.5698"/>
</g>
<!-- Node27 -->
<g id="node64" class="node"><title>Node27</title>
<polygon fill="white" stroke="#bfbfbf" points="3114.98,-174.5 3114.98,-195.5 3168.98,-195.5 3168.98,-174.5 3114.98,-174.5"/>
<text text-anchor="middle" x="3141.98" y="-182.5" font-family="Helvetica,sans-Serif" font-size="10.00">TColor.h</text>
</g>
<!-- Node26&#45;&gt;Node27 -->
<g id="edge74" class="edge"><title>Node26&#45;&gt;Node27</title>
<path fill="none" stroke="midnightblue" d="M3186.89,-232.362C3179.13,-224.186 3168.25,-212.702 3159.13,-203.091"/>
<polygon fill="midnightblue" stroke="midnightblue" points="3161.42,-200.419 3152,-195.571 3156.34,-205.235 3161.42,-200.419"/>
</g>
<!-- Node28 -->
<g id="node68" class="node"><title>Node28</title>
<a xlink:href="interval_8h.html" target="_top" xlink:title="base/interval.h">
<polygon fill="white" stroke="black" points="2477.98,-174.5 2477.98,-195.5 2557.98,-195.5 2557.98,-174.5 2477.98,-174.5"/>
<text text-anchor="middle" x="2517.98" y="-182.5" font-family="Helvetica,sans-Serif" font-size="10.00">base/interval.h</text>
</a>
</g>
<!-- Node26&#45;&gt;Node28 -->
<g id="edge80" class="edge"><title>Node26&#45;&gt;Node28</title>
<path fill="none" stroke="midnightblue" d="M3161.76,-234.448C3157.14,-233.517 3152.46,-232.667 3147.98,-232 3036.39,-215.404 2697.32,-195.13 2568.43,-187.807"/>
<polygon fill="midnightblue" stroke="midnightblue" points="2568.25,-184.291 2558.07,-187.22 2567.85,-191.28 2568.25,-184.291"/>
</g>
<!-- Node28&#45;&gt;Node4 -->
<g id="edge86" class="edge"><title>Node28&#45;&gt;Node4</title>
<path fill="none" stroke="midnightblue" d="M2477.84,-175.128C2414.39,-159.917 2286.8,-130.945 2176.98,-116 1952.63,-85.4714 1682.51,-74.0915 1570.09,-70.471"/>
<polygon fill="midnightblue" stroke="midnightblue" points="1570.13,-66.9707 1560.03,-70.1543 1569.91,-73.9673 1570.13,-66.9707"/>
</g>
<!-- Node28&#45;&gt;Node9 -->
<g id="edge84" class="edge"><title>Node28&#45;&gt;Node9</title>
<path fill="none" stroke="midnightblue" d="M2477.75,-179.757C2376.53,-166.768 2103.02,-132.932 1873.98,-116 1509.73,-89.0741 1417.7,-99.3282 1052.98,-80 1005.82,-77.5013 951.645,-74.0487 915.779,-71.6818"/>
<polygon fill="midnightblue" stroke="midnightblue" points="915.927,-68.184 905.718,-71.0146 915.464,-75.1687 915.927,-68.184"/>
</g>
<!-- Node29 -->
<g id="node70" class="node"><title>Node29</title>
<polygon fill="white" stroke="#bfbfbf" points="2461.98,-0.5 2461.98,-21.5 2517.98,-21.5 2517.98,-0.5 2461.98,-0.5"/>
<text text-anchor="middle" x="2489.98" y="-8.5" font-family="Helvetica,sans-Serif" font-size="10.00">algorithm</text>
</g>
<!-- Node28&#45;&gt;Node29 -->
<g id="edge82" class="edge"><title>Node28&#45;&gt;Node29</title>
<path fill="none" stroke="midnightblue" d="M2515.78,-174.195C2513.87,-164.684 2511.1,-150.449 2508.98,-138 2502.61,-100.646 2496.32,-56.91 2492.81,-31.7327"/>
<polygon fill="midnightblue" stroke="midnightblue" points="2496.24,-30.9869 2491.41,-21.5603 2489.31,-31.9453 2496.24,-30.9869"/>
</g>
<!-- Node30 -->
<g id="node74" class="node"><title>Node30</title>
<a xlink:href="types_8h.html" target="_top" xlink:title="types.h">
<polygon fill="white" stroke="black" points="1603.48,-116.5 1603.48,-137.5 1652.48,-137.5 1652.48,-116.5 1603.48,-116.5"/>
<text text-anchor="middle" x="1627.98" y="-124.5" font-family="Helvetica,sans-Serif" font-size="10.00">types.h</text>
</a>
</g>
<!-- Node28&#45;&gt;Node30 -->
<g id="edge88" class="edge"><title>Node28&#45;&gt;Node30</title>
<path fill="none" stroke="midnightblue" d="M2477.76,-179.341C2463.06,-177.425 2446.29,-175.414 2430.98,-174 2353.82,-166.872 1806.88,-136.776 1662.73,-128.895"/>
<polygon fill="midnightblue" stroke="midnightblue" points="1662.85,-125.397 1652.68,-128.346 1662.47,-132.387 1662.85,-125.397"/>
</g>
<!-- Node28&#45;&gt;Node31 -->
<g id="edge90" class="edge"><title>Node28&#45;&gt;Node31</title>
<path fill="none" stroke="midnightblue" d="M2521.64,-174.362C2524.27,-166.758 2527.87,-156.294 2531.03,-147.135"/>
<polygon fill="midnightblue" stroke="midnightblue" points="2534.38,-148.165 2534.33,-137.571 2527.76,-145.883 2534.38,-148.165"/>
</g>
<!-- Node32&#45;&gt;Node10 -->
<g id="edge122" class="edge"><title>Node32&#45;&gt;Node10</title>
<path fill="none" stroke="midnightblue" d="M2709.86,-299.675C2825.85,-295.052 3193.95,-278.577 3240.98,-254 3276.23,-235.575 3297.98,-224.777 3297.98,-185 3297.98,-185 3297.98,-185 3297.98,-127 3297.98,-72.4812 2885.74,-26.1234 2768.65,-14.0556"/>
<polygon fill="midnightblue" stroke="midnightblue" points="2768.87,-10.5601 2758.57,-13.0264 2768.16,-17.524 2768.87,-10.5601"/>
</g>
<!-- Node32&#45;&gt;Node14 -->
<g id="edge120" class="edge"><title>Node32&#45;&gt;Node14</title>
<path fill="none" stroke="midnightblue" d="M2640.45,-300.547C2484.81,-298.332 1847.6,-287.36 1650.98,-254 1646.04,-253.163 1519.53,-215.06 1455.87,-195.844"/>
<polygon fill="midnightblue" stroke="midnightblue" points="1456.8,-192.47 1446.22,-192.93 1454.78,-199.171 1456.8,-192.47"/>
</g>
<!-- Node32&#45;&gt;Node18 -->
<g id="edge112" class="edge"><title>Node32&#45;&gt;Node18</title>
<path fill="none" stroke="midnightblue" d="M2640.26,-300.142C2507.5,-296.715 2019.22,-282.781 1617.98,-254 1604.66,-253.045 1590.47,-251.807 1576.84,-250.507"/>
<polygon fill="midnightblue" stroke="midnightblue" points="1576.84,-246.991 1566.55,-249.505 1576.16,-253.958 1576.84,-246.991"/>
</g>
<!-- Node32&#45;&gt;Node26 -->
<g id="edge94" class="edge"><title>Node32&#45;&gt;Node26</title>
<path fill="none" stroke="midnightblue" d="M2709.63,-297.15C2801.1,-286.986 3049.03,-259.438 3151.61,-248.041"/>
<polygon fill="midnightblue" stroke="midnightblue" points="3152.1,-251.508 3161.65,-246.925 3151.32,-244.551 3152.1,-251.508"/>
</g>
<!-- Node33 -->
<g id="node81" class="node"><title>Node33</title>
<a xlink:href="root__draw_8h.html" target="_top" xlink:title="root_draw.h">
<polygon fill="white" stroke="black" points="2131.98,-232.5 2131.98,-253.5 2199.98,-253.5 2199.98,-232.5 2131.98,-232.5"/>
<text text-anchor="middle" x="2165.98" y="-240.5" font-family="Helvetica,sans-Serif" font-size="10.00">root_draw.h</text>
</a>
</g>
<!-- Node32&#45;&gt;Node33 -->
<g id="edge96" class="edge"><title>Node32&#45;&gt;Node33</title>
<path fill="none" stroke="midnightblue" d="M2640.24,-299.281C2564,-295.127 2376.23,-282.814 2210.05,-253.976"/>
<polygon fill="midnightblue" stroke="midnightblue" points="2210.6,-250.519 2200.14,-252.233 2209.38,-257.413 2210.6,-250.519"/>
</g>
<!-- Node36 -->
<g id="node93" class="node"><title>Node36</title>
<polygon fill="white" stroke="#bfbfbf" points="2721.48,-232.5 2721.48,-253.5 2772.48,-253.5 2772.48,-232.5 2721.48,-232.5"/>
<text text-anchor="middle" x="2746.98" y="-240.5" font-family="Helvetica,sans-Serif" font-size="10.00">TH1D.h</text>
</g>
<!-- Node32&#45;&gt;Node36 -->
<g id="edge114" class="edge"><title>Node32&#45;&gt;Node36</title>
<path fill="none" stroke="midnightblue" d="M2688.18,-290.362C2698.74,-281.859 2713.73,-269.779 2725.94,-259.947"/>
<polygon fill="midnightblue" stroke="midnightblue" points="2728.26,-262.57 2733.85,-253.571 2723.87,-257.118 2728.26,-262.57"/>
</g>
<!-- Node37 -->
<g id="node95" class="node"><title>Node37</title>
<polygon fill="white" stroke="#bfbfbf" points="2789.48,-232.5 2789.48,-253.5 2840.48,-253.5 2840.48,-232.5 2789.48,-232.5"/>
<text text-anchor="middle" x="2814.98" y="-240.5" font-family="Helvetica,sans-Serif" font-size="10.00">TH2D.h</text>
</g>
<!-- Node32&#45;&gt;Node37 -->
<g id="edge116" class="edge"><title>Node32&#45;&gt;Node37</title>
<path fill="none" stroke="midnightblue" d="M2700.33,-290.497C2722.59,-281.275 2755.19,-267.769 2779.94,-257.515"/>
<polygon fill="midnightblue" stroke="midnightblue" points="2781.44,-260.682 2789.34,-253.621 2778.76,-254.215 2781.44,-260.682"/>
</g>
<!-- Node38 -->
<g id="node97" class="node"><title>Node38</title>
<polygon fill="white" stroke="#bfbfbf" points="2577.48,-232.5 2577.48,-253.5 2628.48,-253.5 2628.48,-232.5 2577.48,-232.5"/>
<text text-anchor="middle" x="2602.98" y="-240.5" font-family="Helvetica,sans-Serif" font-size="10.00">TH3D.h</text>
</g>
<!-- Node32&#45;&gt;Node38 -->
<g id="edge118" class="edge"><title>Node32&#45;&gt;Node38</title>
<path fill="none" stroke="midnightblue" d="M2661.77,-290.362C2651.21,-281.859 2636.22,-269.779 2624.01,-259.947"/>
<polygon fill="midnightblue" stroke="midnightblue" points="2626.08,-257.118 2616.1,-253.571 2621.69,-262.57 2626.08,-257.118"/>
</g>
<!-- Node39 -->
<g id="node101" class="node"><title>Node39</title>
<polygon fill="white" stroke="#bfbfbf" points="2059.98,-232.5 2059.98,-253.5 2113.98,-253.5 2113.98,-232.5 2059.98,-232.5"/>
<text text-anchor="middle" x="2086.98" y="-240.5" font-family="Helvetica,sans-Serif" font-size="10.00">iostream</text>
</g>
<!-- Node32&#45;&gt;Node39 -->
<g id="edge124" class="edge"><title>Node32&#45;&gt;Node39</title>
<path fill="none" stroke="midnightblue" d="M2640.39,-300.586C2554.37,-299.022 2323.92,-291.544 2124.42,-253.945"/>
<polygon fill="midnightblue" stroke="midnightblue" points="2124.82,-250.459 2114.34,-252.015 2123.51,-257.334 2124.82,-250.459"/>
</g>
<!-- Node40 -->
<g id="node103" class="node"><title>Node40</title>
<polygon fill="white" stroke="#bfbfbf" points="2645.48,-232.5 2645.48,-253.5 2704.48,-253.5 2704.48,-232.5 2645.48,-232.5"/>
<text text-anchor="middle" x="2674.98" y="-240.5" font-family="Helvetica,sans-Serif" font-size="10.00">exception</text>
</g>
<!-- Node32&#45;&gt;Node40 -->
<g id="edge126" class="edge"><title>Node32&#45;&gt;Node40</title>
<path fill="none" stroke="midnightblue" d="M2674.98,-290.362C2674.98,-282.922 2674.98,-272.743 2674.98,-263.728"/>
<polygon fill="midnightblue" stroke="midnightblue" points="2678.48,-263.571 2674.98,-253.571 2671.48,-263.571 2678.48,-263.571"/>
</g>
<!-- Node33&#45;&gt;Node5 -->
<g id="edge102" class="edge"><title>Node33&#45;&gt;Node5</title>
<path fill="none" stroke="midnightblue" d="M2155.51,-232.424C2140.19,-217.478 2110.17,-190.196 2079.98,-174 2005.16,-133.871 1980.41,-136.304 1897.98,-116 1753.81,-80.49 1716.6,-73.9353 1568.98,-58 1341.89,-33.4866 606.817,-15.487 443.376,-11.7275"/>
<polygon fill="midnightblue" stroke="midnightblue" points="443.106,-8.22052 433.029,-11.491 442.946,-15.2187 443.106,-8.22052"/>
</g>
<!-- Node33&#45;&gt;Node10 -->
<g id="edge98" class="edge"><title>Node33&#45;&gt;Node10</title>
<path fill="none" stroke="midnightblue" d="M2200.14,-233.74C2203.11,-233.092 2206.09,-232.499 2208.98,-232 2294.96,-217.141 2523.86,-238.662 2599.98,-196 2635.07,-176.33 2700.02,-73.6847 2726.39,-30.3433"/>
<polygon fill="midnightblue" stroke="midnightblue" points="2729.51,-31.9573 2731.69,-21.5887 2723.52,-28.336 2729.51,-31.9573"/>
</g>
<!-- Node33&#45;&gt;Node14 -->
<g id="edge106" class="edge"><title>Node33&#45;&gt;Node14</title>
<path fill="none" stroke="midnightblue" d="M2131.83,-233.637C2128.85,-233.011 2125.87,-232.451 2122.98,-232 1854.64,-190.155 1783.5,-219.961 1512.98,-196 1494.2,-194.337 1473.36,-191.924 1456.17,-189.782"/>
<polygon fill="midnightblue" stroke="midnightblue" points="1456.35,-186.277 1445.99,-188.492 1455.47,-193.221 1456.35,-186.277"/>
</g>
<!-- Node33&#45;&gt;Node19 -->
<g id="edge100" class="edge"><title>Node33&#45;&gt;Node19</title>
<path fill="none" stroke="midnightblue" d="M2150.5,-232.378C2127.99,-217.376 2084.48,-190.027 2043.98,-174 1985.75,-150.96 1913.03,-136.959 1875.66,-130.765"/>
<polygon fill="midnightblue" stroke="midnightblue" points="1876.11,-127.292 1865.68,-129.158 1875,-134.203 1876.11,-127.292"/>
</g>
<!-- Node33&#45;&gt;Node22 -->
<g id="edge104" class="edge"><title>Node33&#45;&gt;Node22</title>
<path fill="none" stroke="midnightblue" d="M2200.23,-234.187C2203.19,-233.442 2206.13,-232.704 2208.98,-232 2269.05,-217.114 2339.67,-200.362 2377.59,-191.429"/>
<polygon fill="midnightblue" stroke="midnightblue" points="2378.45,-194.822 2387.38,-189.124 2376.85,-188.008 2378.45,-194.822"/>
</g>
<!-- Node33&#45;&gt;Node34 -->
<g id="edge108" class="edge"><title>Node33&#45;&gt;Node34</title>
<path fill="none" stroke="midnightblue" d="M2165.43,-232.362C2165.04,-224.922 2164.51,-214.743 2164.05,-205.728"/>
<polygon fill="midnightblue" stroke="midnightblue" points="2167.53,-205.376 2163.52,-195.571 2160.54,-205.738 2167.53,-205.376"/>
</g>
<!-- Node35 -->
<g id="node90" class="node"><title>Node35</title>
<polygon fill="white" stroke="#bfbfbf" points="1009.98,-116.5 1009.98,-137.5 1065.98,-137.5 1065.98,-116.5 1009.98,-116.5"/>
<text text-anchor="middle" x="1037.98" y="-124.5" font-family="Helvetica,sans-Serif" font-size="10.00">Rtypes.h</text>
</g>
<!-- Node33&#45;&gt;Node35 -->
<g id="edge110" class="edge"><title>Node33&#45;&gt;Node35</title>
<path fill="none" stroke="midnightblue" d="M2131.84,-233.547C2128.86,-232.941 2125.87,-232.41 2122.98,-232 2058.26,-222.845 992.482,-242.921 946.976,-196 924.864,-173.201 966.055,-151.918 999.985,-139.18"/>
<polygon fill="midnightblue" stroke="midnightblue" points="1001.53,-142.345 1009.75,-135.665 999.158,-135.758 1001.53,-142.345"/>
</g>
<!-- Node41&#45;&gt;Node4 -->
<g id="edge156" class="edge"><title>Node41&#45;&gt;Node4</title>
<path fill="none" stroke="midnightblue" d="M1814.44,-290.457C1847.76,-281.702 1888.88,-268.389 1898.98,-254 1923.63,-218.864 1971.59,-204.943 1873.98,-116 1824.34,-70.7757 1640.32,-90.3681 1573.98,-80 1572.72,-79.803 1571.44,-79.5987 1570.16,-79.3881"/>
<polygon fill="midnightblue" stroke="midnightblue" points="1570.63,-75.918 1560.18,-77.6726 1569.44,-82.8168 1570.63,-75.918"/>
</g>
<!-- Node41&#45;&gt;Node5 -->
<g id="edge184" class="edge"><title>Node41&#45;&gt;Node5</title>
<path fill="none" stroke="midnightblue" d="M1709.25,-299.845C1446.7,-294.658 406.897,-272.955 378.976,-254 301.674,-201.523 251.761,-136.143 302.976,-58 319.625,-32.5966 353.312,-20.8496 378.661,-15.4636"/>
<polygon fill="midnightblue" stroke="midnightblue" points="379.424,-18.8815 388.597,-13.5806 378.12,-12.0039 379.424,-18.8815"/>
</g>
<!-- Node41&#45;&gt;Node14 -->
<g id="edge190" class="edge"><title>Node41&#45;&gt;Node14</title>
<path fill="none" stroke="midnightblue" d="M1709.36,-296.047C1619.82,-288.084 1458.9,-271.541 1438.98,-254 1425.47,-242.109 1421.16,-221.585 1419.97,-206.004"/>
<polygon fill="midnightblue" stroke="midnightblue" points="1423.46,-205.581 1419.57,-195.726 1416.46,-205.856 1423.46,-205.581"/>
</g>
<!-- Node41&#45;&gt;Node19 -->
<g id="edge186" class="edge"><title>Node41&#45;&gt;Node19</title>
<path fill="none" stroke="midnightblue" d="M1773.98,-290.377C1787.33,-262.051 1823.95,-184.349 1841.44,-147.242"/>
<polygon fill="midnightblue" stroke="midnightblue" points="1844.73,-148.466 1845.83,-137.928 1838.4,-145.481 1844.73,-148.466"/>
</g>
<!-- Node41&#45;&gt;Node30 -->
<g id="edge158" class="edge"><title>Node41&#45;&gt;Node30</title>
<path fill="none" stroke="midnightblue" d="M1765.33,-290.056C1760.3,-275.863 1750.31,-250.711 1736.98,-232 1711.85,-196.744 1673.91,-163.375 1650.07,-144.069"/>
<polygon fill="midnightblue" stroke="midnightblue" points="1651.97,-141.11 1641.97,-137.615 1647.61,-146.584 1651.97,-141.11"/>
</g>
<!-- Node41&#45;&gt;Node39 -->
<g id="edge188" class="edge"><title>Node41&#45;&gt;Node39</title>
<path fill="none" stroke="midnightblue" d="M1826.56,-290.497C1891.3,-278.689 1994.53,-259.862 2049.56,-249.824"/>
<polygon fill="midnightblue" stroke="midnightblue" points="2050.37,-253.235 2059.58,-247.997 2049.11,-246.349 2050.37,-253.235"/>
</g>
<!-- Node42 -->
<g id="node107" class="node"><title>Node42</title>
<a xlink:href="_candidate_8h.html" target="_top" xlink:title="analysis/data/Candidate.h">
<polygon fill="white" stroke="black" points="721.976,-232.5 721.976,-253.5 851.976,-253.5 851.976,-232.5 721.976,-232.5"/>
<text text-anchor="middle" x="786.976" y="-240.5" font-family="Helvetica,sans-Serif" font-size="10.00">analysis/data/Candidate.h</text>
</a>
</g>
<!-- Node41&#45;&gt;Node42 -->
<g id="edge130" class="edge"><title>Node41&#45;&gt;Node42</title>
<path fill="none" stroke="midnightblue" d="M1709.39,-297.481C1539.14,-287.425 1050.7,-258.576 862.328,-247.451"/>
<polygon fill="midnightblue" stroke="midnightblue" points="862.428,-243.95 852.239,-246.855 862.015,-250.938 862.428,-243.95"/>
</g>
<!-- Node45 -->
<g id="node125" class="node"><title>Node45</title>
<a xlink:href="_particle_type_8h.html" target="_top" xlink:title="base/ParticleType.h">
<polygon fill="white" stroke="black" points="2217.98,-232.5 2217.98,-253.5 2321.98,-253.5 2321.98,-232.5 2217.98,-232.5"/>
<text text-anchor="middle" x="2269.98" y="-240.5" font-family="Helvetica,sans-Serif" font-size="10.00">base/ParticleType.h</text>
</a>
</g>
<!-- Node41&#45;&gt;Node45 -->
<g id="edge160" class="edge"><title>Node41&#45;&gt;Node45</title>
<path fill="none" stroke="midnightblue" d="M1828.57,-296.006C1911.33,-288.766 2065.96,-274.142 2207.6,-254.12"/>
<polygon fill="midnightblue" stroke="midnightblue" points="2208.37,-257.546 2217.77,-252.669 2207.38,-250.616 2208.37,-257.546"/>
</g>
<!-- Node47 -->
<g id="node134" class="node"><title>Node47</title>
<a xlink:href="_tree_8h.html" target="_top" xlink:title="base/Tree.h">
<polygon fill="white" stroke="black" points="1821.98,-232.5 1821.98,-253.5 1889.98,-253.5 1889.98,-232.5 1821.98,-232.5"/>
<text text-anchor="middle" x="1855.98" y="-240.5" font-family="Helvetica,sans-Serif" font-size="10.00">base/Tree.h</text>
</a>
</g>
<!-- Node41&#45;&gt;Node47 -->
<g id="edge174" class="edge"><title>Node41&#45;&gt;Node47</title>
<path fill="none" stroke="midnightblue" d="M1784.93,-290.362C1797.93,-281.696 1816.51,-269.313 1831.4,-259.382"/>
<polygon fill="midnightblue" stroke="midnightblue" points="1833.74,-262.03 1840.12,-253.571 1829.86,-256.206 1833.74,-262.03"/>
</g>
<!-- Node48 -->
<g id="node139" class="node"><title>Node48</title>
<polygon fill="white" stroke="#bfbfbf" points="1521.98,-174.5 1521.98,-195.5 1613.98,-195.5 1613.98,-174.5 1521.98,-174.5"/>
<text text-anchor="middle" x="1567.98" y="-182.5" font-family="Helvetica,sans-Serif" font-size="10.00">TLorentzVector.h</text>
</g>
<!-- Node41&#45;&gt;Node48 -->
<g id="edge182" class="edge"><title>Node41&#45;&gt;Node48</title>
<path fill="none" stroke="midnightblue" d="M1734.33,-290.424C1710.08,-282.262 1677.42,-269.718 1650.98,-254 1626.56,-239.487 1601.96,-217.97 1585.95,-202.831"/>
<polygon fill="midnightblue" stroke="midnightblue" points="1588.04,-199.984 1578.41,-195.567 1583.18,-205.025 1588.04,-199.984"/>
</g>
<!-- Node42&#45;&gt;Node3 -->
<g id="edge136" class="edge"><title>Node42&#45;&gt;Node3</title>
<path fill="none" stroke="midnightblue" d="M761.505,-232.295C711.778,-211.395 601.734,-165.145 545.507,-141.513"/>
<polygon fill="midnightblue" stroke="midnightblue" points="546.561,-138.16 535.986,-137.512 543.849,-144.613 546.561,-138.16"/>
</g>
<!-- Node42&#45;&gt;Node4 -->
<g id="edge132" class="edge"><title>Node42&#45;&gt;Node4</title>
<path fill="none" stroke="midnightblue" d="M852.256,-233.671C932.198,-222.075 1059.66,-202.961 1080.98,-196 1101.38,-189.335 1103.94,-181.698 1123.98,-174 1181.94,-151.733 1201.01,-160.267 1258.98,-138 1279.02,-130.302 1281.77,-123.241 1301.98,-116 1355.53,-96.8095 1419.52,-84.0425 1463.69,-76.7189"/>
<polygon fill="midnightblue" stroke="midnightblue" points="1464.33,-80.1617 1473.64,-75.1062 1463.21,-73.2519 1464.33,-80.1617"/>
</g>
<!-- Node42&#45;&gt;Node5 -->
<g id="edge154" class="edge"><title>Node42&#45;&gt;Node5</title>
<path fill="none" stroke="midnightblue" d="M733.97,-232.466C650.661,-214.917 494.48,-177.683 454.976,-138 439.808,-122.763 423.678,-63.6584 415.83,-31.7342"/>
<polygon fill="midnightblue" stroke="midnightblue" points="419.156,-30.5965 413.415,-21.6923 412.351,-32.2335 419.156,-30.5965"/>
</g>
<!-- Node42&#45;&gt;Node6 -->
<g id="edge150" class="edge"><title>Node42&#45;&gt;Node6</title>
<path fill="none" stroke="midnightblue" d="M852.078,-236.851C933.726,-228.595 1068.74,-212.987 1115.98,-196 1133.62,-189.654 1134.6,-181.044 1151.98,-174 1328.04,-102.627 1407.11,-179.469 1568.98,-80 1588.82,-67.8062 1604.97,-46.2368 1614.94,-30.4512"/>
<polygon fill="midnightblue" stroke="midnightblue" points="1618.17,-31.8767 1620.34,-21.5054 1612.17,-28.2629 1618.17,-31.8767"/>
</g>
<!-- Node42&#45;&gt;Node7 -->
<g id="edge148" class="edge"><title>Node42&#45;&gt;Node7</title>
<path fill="none" stroke="midnightblue" d="M808.864,-232.454C839.341,-218.026 896.509,-191.889 946.976,-174 1002.68,-154.255 1033.3,-179.901 1074.98,-138 1087.6,-125.31 1092.03,-105.057 1093.49,-89.7679"/>
<polygon fill="midnightblue" stroke="midnightblue" points="1096.99,-89.8869 1094.11,-79.692 1090.01,-89.4598 1096.99,-89.8869"/>
</g>
<!-- Node42&#45;&gt;Node14 -->
<g id="edge152" class="edge"><title>Node42&#45;&gt;Node14</title>
<path fill="none" stroke="midnightblue" d="M852.038,-237.039C984.128,-224.935 1279.97,-197.829 1383.42,-188.35"/>
<polygon fill="midnightblue" stroke="midnightblue" points="1384.02,-191.809 1393.66,-187.411 1383.38,-184.838 1384.02,-191.809"/>
</g>
<!-- Node42&#45;&gt;Node30 -->
<g id="edge134" class="edge"><title>Node42&#45;&gt;Node30</title>
<path fill="none" stroke="midnightblue" d="M852.064,-233.868C856.771,-233.229 861.446,-232.6 865.976,-232 992.979,-215.166 1028.76,-231.096 1151.98,-196 1174.55,-189.571 1177.36,-180.25 1199.98,-174 1274.06,-153.531 1505.3,-135.619 1593.41,-129.364"/>
<polygon fill="midnightblue" stroke="midnightblue" points="1593.69,-132.853 1603.42,-128.66 1593.2,-125.87 1593.69,-132.853"/>
</g>
<!-- Node43 -->
<g id="node112" class="node"><title>Node43</title>
<a xlink:href="_cluster_8h.html" target="_top" xlink:title="analysis/data/Cluster.h">
<polygon fill="white" stroke="black" points="955.476,-174.5 955.476,-195.5 1072.48,-195.5 1072.48,-174.5 955.476,-174.5"/>
<text text-anchor="middle" x="1013.98" y="-182.5" font-family="Helvetica,sans-Serif" font-size="10.00">analysis/data/Cluster.h</text>
</a>
</g>
<!-- Node42&#45;&gt;Node43 -->
<g id="edge138" class="edge"><title>Node42&#45;&gt;Node43</title>
<path fill="none" stroke="midnightblue" d="M828.084,-232.497C865.972,-222.816 922.332,-208.416 963.055,-198.01"/>
<polygon fill="midnightblue" stroke="midnightblue" points="963.968,-201.39 972.791,-195.523 962.235,-194.608 963.968,-201.39"/>
</g>
<!-- Node43&#45;&gt;Node3 -->
<g id="edge140" class="edge"><title>Node43&#45;&gt;Node3</title>
<path fill="none" stroke="midnightblue" d="M955.291,-178.233C858.15,-167.032 665.097,-144.771 568.635,-133.649"/>
<polygon fill="midnightblue" stroke="midnightblue" points="568.82,-130.147 558.485,-132.478 568.018,-137.101 568.82,-130.147"/>
</g>
<!-- Node43&#45;&gt;Node7 -->
<g id="edge144" class="edge"><title>Node43&#45;&gt;Node7</title>
<path fill="none" stroke="midnightblue" d="M1057.58,-174.359C1076.51,-167.342 1096.85,-156.004 1107.98,-138 1117.17,-123.131 1111.72,-103.344 1105.12,-88.7723"/>
<polygon fill="midnightblue" stroke="midnightblue" points="1108.15,-87.0072 1100.54,-79.6421 1101.9,-90.1492 1108.15,-87.0072"/>
</g>
<!-- Node43&#45;&gt;Node19 -->
<g id="edge142" class="edge"><title>Node43&#45;&gt;Node19</title>
<path fill="none" stroke="midnightblue" d="M1072.5,-180.945C1239.28,-169.387 1712.32,-136.608 1826.13,-128.722"/>
<polygon fill="midnightblue" stroke="midnightblue" points="1826.54,-132.202 1836.28,-128.019 1826.06,-125.218 1826.54,-132.202"/>
</g>
<!-- Node44 -->
<g id="node117" class="node"><title>Node44</title>
<a xlink:href="enumfield_8h.html" target="_top" xlink:title="base/enumfield.h">
<polygon fill="white" stroke="black" points="1159.48,-116.5 1159.48,-137.5 1250.48,-137.5 1250.48,-116.5 1159.48,-116.5"/>
<text text-anchor="middle" x="1204.98" y="-124.5" font-family="Helvetica,sans-Serif" font-size="10.00">base/enumfield.h</text>
</a>
</g>
<!-- Node43&#45;&gt;Node44 -->
<g id="edge146" class="edge"><title>Node43&#45;&gt;Node44</title>
<path fill="none" stroke="midnightblue" d="M1048.56,-174.497C1079.97,-164.959 1126.47,-150.841 1160.6,-140.475"/>
<polygon fill="midnightblue" stroke="midnightblue" points="1161.77,-143.778 1170.32,-137.523 1159.74,-137.08 1161.77,-143.778"/>
</g>
<!-- Node45&#45;&gt;Node5 -->
<g id="edge172" class="edge"><title>Node45&#45;&gt;Node5</title>
<path fill="none" stroke="midnightblue" d="M2262.38,-232.302C2250.89,-216.949 2227.59,-188.882 2200.98,-174 2104.06,-119.811 2066.46,-139.674 1957.98,-116 1828.28,-87.6961 1796.83,-73.4229 1664.98,-58 1418.18,-29.1314 615.566,-14.393 443.601,-11.5241"/>
<polygon fill="midnightblue" stroke="midnightblue" points="443.475,-8.02167 433.419,-11.3559 443.36,-15.0207 443.475,-8.02167"/>
</g>
<!-- Node45&#45;&gt;Node6 -->
<g id="edge166" class="edge"><title>Node45&#45;&gt;Node6</title>
<path fill="none" stroke="midnightblue" d="M2280.27,-232.475C2288.19,-223.58 2298.53,-210.07 2302.98,-196 2305.92,-186.677 2305.57,-183.428 2302.98,-174 2287.07,-116.159 2284.94,-89.6438 2233.98,-58 2185.42,-27.8483 1786.12,-15.1209 1662.39,-11.877"/>
<polygon fill="midnightblue" stroke="midnightblue" points="1662.37,-8.37554 1652.29,-11.6173 1662.19,-15.3732 1662.37,-8.37554"/>
</g>
<!-- Node45&#45;&gt;Node10 -->
<g id="edge164" class="edge"><title>Node45&#45;&gt;Node10</title>
<path fill="none" stroke="midnightblue" d="M2321.98,-236.977C2421.91,-225.322 2631.51,-200.434 2637.98,-196 2696.32,-155.985 2723.64,-70.5473 2733.47,-31.3808"/>
<polygon fill="midnightblue" stroke="midnightblue" points="2736.87,-32.1758 2735.79,-21.637 2730.06,-30.5542 2736.87,-32.1758"/>
</g>
<!-- Node45&#45;&gt;Node22 -->
<g id="edge168" class="edge"><title>Node45&#45;&gt;Node22</title>
<path fill="none" stroke="midnightblue" d="M2294.42,-232.497C2317.93,-222.397 2353.39,-207.161 2377.78,-196.683"/>
<polygon fill="midnightblue" stroke="midnightblue" points="2379.36,-199.813 2387.17,-192.65 2376.6,-193.381 2379.36,-199.813"/>
</g>
<!-- Node45&#45;&gt;Node30 -->
<g id="edge162" class="edge"><title>Node45&#45;&gt;Node30</title>
<path fill="none" stroke="midnightblue" d="M2217.71,-233.556C2090.68,-210.604 1768.4,-152.374 1662.38,-133.216"/>
<polygon fill="midnightblue" stroke="midnightblue" points="1662.98,-129.768 1652.52,-131.434 1661.74,-136.657 1662.98,-129.768"/>
</g>
<!-- Node46 -->
<g id="node131" class="node"><title>Node46</title>
<polygon fill="white" stroke="#bfbfbf" points="2247.48,-174.5 2247.48,-195.5 2294.48,-195.5 2294.48,-174.5 2247.48,-174.5"/>
<text text-anchor="middle" x="2270.98" y="-182.5" font-family="Helvetica,sans-Serif" font-size="10.00">iterator</text>
</g>
<!-- Node45&#45;&gt;Node46 -->
<g id="edge170" class="edge"><title>Node45&#45;&gt;Node46</title>
<path fill="none" stroke="midnightblue" d="M2270.16,-232.362C2270.29,-224.922 2270.46,-214.743 2270.62,-205.728"/>
<polygon fill="midnightblue" stroke="midnightblue" points="2274.12,-205.63 2270.79,-195.571 2267.12,-205.509 2274.12,-205.63"/>
</g>
<!-- Node47&#45;&gt;Node14 -->
<g id="edge176" class="edge"><title>Node47&#45;&gt;Node14</title>
<path fill="none" stroke="midnightblue" d="M1821.76,-238.449C1740.91,-227.693 1538.62,-200.783 1455.99,-189.791"/>
<polygon fill="midnightblue" stroke="midnightblue" points="1456.44,-186.32 1446.06,-188.471 1455.52,-193.259 1456.44,-186.32"/>
</g>
<!-- Node47&#45;&gt;Node19 -->
<g id="edge178" class="edge"><title>Node47&#45;&gt;Node19</title>
<path fill="none" stroke="midnightblue" d="M1855.51,-232.295C1854.69,-213.131 1852.94,-172.654 1851.87,-147.843"/>
<polygon fill="midnightblue" stroke="midnightblue" points="1855.36,-147.519 1851.44,-137.679 1848.37,-147.821 1855.36,-147.519"/>
</g>
<!-- Node47&#45;&gt;Node29 -->
<g id="edge180" class="edge"><title>Node47&#45;&gt;Node29</title>
<path fill="none" stroke="midnightblue" d="M1890.44,-241.037C2031.93,-232.94 2561.12,-202.258 2566.98,-196 2613.39,-146.415 2544.23,-64.8622 2508.78,-28.9405"/>
<polygon fill="midnightblue" stroke="midnightblue" points="2510.94,-26.1599 2501.38,-21.6068 2506.02,-31.1319 2510.94,-26.1599"/>
</g>
<!-- Node49&#45;&gt;Node4 -->
<g id="edge264" class="edge"><title>Node49&#45;&gt;Node4</title>
<path fill="none" stroke="midnightblue" d="M1737.86,-363.653C1972.47,-353.775 2865.95,-315.915 2871.98,-312 2903.69,-291.393 2926.58,-259.831 2900.98,-232 2835.75,-161.11 2560.89,-224.833 2468.98,-196 2450.36,-190.159 2449.5,-180.131 2430.98,-174 2389.75,-160.357 1758.83,-94.1047 1569.98,-74.4849"/>
<polygon fill="midnightblue" stroke="midnightblue" points="1570.32,-71.0015 1560.01,-73.45 1569.6,-77.964 1570.32,-71.0015"/>
</g>
<!-- Node49&#45;&gt;Node5 -->
<g id="edge268" class="edge"><title>Node49&#45;&gt;Node5</title>
<path fill="none" stroke="midnightblue" d="M1626.28,-363.434C1405.34,-353.234 601.231,-315.925 574.976,-312 471.138,-296.476 436.069,-307.911 345.976,-254 267.912,-207.288 229.687,-128.668 286.976,-58 309.443,-30.2856 350.149,-18.902 378.778,-14.2333"/>
<polygon fill="midnightblue" stroke="midnightblue" points="379.325,-17.6907 388.724,-12.7993 378.326,-10.7624 379.325,-17.6907"/>
</g>
<!-- Node49&#45;&gt;Node14 -->
<g id="edge270" class="edge"><title>Node49&#45;&gt;Node14</title>
<path fill="none" stroke="midnightblue" d="M1626.44,-359.705C1564.48,-349.399 1466.92,-322.63 1420.98,-254 1411.63,-240.038 1412.22,-220.664 1414.67,-205.999"/>
<polygon fill="midnightblue" stroke="midnightblue" points="1418.17,-206.373 1416.77,-195.87 1411.31,-204.951 1418.17,-206.373"/>
</g>
<!-- Node49&#45;&gt;Node22 -->
<g id="edge272" class="edge"><title>Node49&#45;&gt;Node22</title>
<path fill="none" stroke="midnightblue" d="M1737.73,-363.274C1810.82,-359.711 1942.99,-353.3 2055.98,-348 2143.53,-343.893 2767.84,-355.415 2843.98,-312 2878.17,-292.502 2908.67,-260.932 2881.98,-232 2848.26,-195.458 2484.59,-206.401 2435.98,-196 2434.89,-195.767 2433.78,-195.506 2432.68,-195.222"/>
<polygon fill="midnightblue" stroke="midnightblue" points="2433.36,-191.773 2422.78,-192.207 2431.32,-198.469 2433.36,-191.773"/>
</g>
<!-- Node49&#45;&gt;Node30 -->
<g id="edge262" class="edge"><title>Node49&#45;&gt;Node30</title>
<path fill="none" stroke="midnightblue" d="M1626.23,-363.003C1454.26,-353.628 942.824,-324.731 930.976,-312 906.428,-285.623 942.106,-248.107 965.976,-232 1049.56,-175.599 1091.75,-218.786 1189.98,-196 1222.57,-188.439 1229.27,-181.045 1261.98,-174 1382.11,-148.127 1527.7,-134.639 1593.15,-129.502"/>
<polygon fill="midnightblue" stroke="midnightblue" points="1593.62,-132.977 1603.32,-128.721 1593.08,-125.998 1593.62,-132.977"/>
</g>
<!-- Node49&#45;&gt;Node41 -->
<g id="edge196" class="edge"><title>Node49&#45;&gt;Node41</title>
<path fill="none" stroke="midnightblue" d="M1696.34,-355.267C1710.02,-345.044 1730.82,-329.504 1746.66,-317.67"/>
<polygon fill="midnightblue" stroke="midnightblue" points="1748.96,-320.323 1754.88,-311.534 1744.77,-314.715 1748.96,-320.323"/>
</g>
<!-- Node49&#45;&gt;Node42 -->
<g id="edge198" class="edge"><title>Node49&#45;&gt;Node42</title>
<path fill="none" stroke="midnightblue" d="M1626.44,-363.303C1448.34,-354.528 901.094,-326.518 865.976,-312 839.75,-301.158 816.18,-277.948 801.749,-261.444"/>
<polygon fill="midnightblue" stroke="midnightblue" points="804.194,-258.914 795.071,-253.526 798.843,-263.427 804.194,-258.914"/>
</g>
<!-- Node49&#45;&gt;Node47 -->
<g id="edge266" class="edge"><title>Node49&#45;&gt;Node47</title>
<path fill="none" stroke="midnightblue" d="M1737.76,-359.598C1770.87,-352.966 1811.28,-339.468 1836.98,-312 1849.2,-298.931 1853.69,-278.725 1855.27,-263.55"/>
<polygon fill="midnightblue" stroke="midnightblue" points="1858.76,-263.787 1855.98,-253.564 1851.78,-263.291 1858.76,-263.787"/>
</g>
<!-- Node50 -->
<g id="node150" class="node"><title>Node50</title>
<a xlink:href="_tagger_hit_8h.html" target="_top" xlink:title="TaggerHit.h">
<polygon fill="white" stroke="black" points="1659.98,-232.5 1659.98,-253.5 1727.98,-253.5 1727.98,-232.5 1659.98,-232.5"/>
<text text-anchor="middle" x="1693.98" y="-240.5" font-family="Helvetica,sans-Serif" font-size="10.00">TaggerHit.h</text>
</a>
</g>
<!-- Node49&#45;&gt;Node50 -->
<g id="edge200" class="edge"><title>Node49&#45;&gt;Node50</title>
<path fill="none" stroke="midnightblue" d="M1683.04,-355.085C1685.04,-334.609 1689.38,-290.133 1691.95,-263.778"/>
<polygon fill="midnightblue" stroke="midnightblue" points="1695.44,-264.008 1692.93,-253.715 1688.48,-263.328 1695.44,-264.008"/>
</g>
<!-- Node51 -->
<g id="node157" class="node"><title>Node51</title>
<a xlink:href="_trigger_info_8h.html" target="_top" xlink:title="TriggerInfo.h">
<polygon fill="white" stroke="black" points="939.476,-290.5 939.476,-311.5 1010.48,-311.5 1010.48,-290.5 939.476,-290.5"/>
<text text-anchor="middle" x="974.976" y="-298.5" font-family="Helvetica,sans-Serif" font-size="10.00">TriggerInfo.h</text>
</a>
</g>
<!-- Node49&#45;&gt;Node51 -->
<g id="edge212" class="edge"><title>Node49&#45;&gt;Node51</title>
<path fill="none" stroke="midnightblue" d="M1626.2,-360.872C1490.46,-348.393 1144.93,-316.625 1020.5,-305.186"/>
<polygon fill="midnightblue" stroke="midnightblue" points="1020.82,-301.7 1010.54,-304.27 1020.18,-308.671 1020.82,-301.7"/>
</g>
<!-- Node50&#45;&gt;Node4 -->
<g id="edge208" class="edge"><title>Node50&#45;&gt;Node4</title>
<path fill="none" stroke="midnightblue" d="M1694.41,-232.192C1694.77,-208.035 1692.19,-149.189 1660.98,-116 1648.21,-102.43 1605.47,-89.4843 1569.84,-80.6286"/>
<polygon fill="midnightblue" stroke="midnightblue" points="1570.56,-77.2003 1560.01,-78.2421 1568.9,-84.0027 1570.56,-77.2003"/>
</g>
<!-- Node50&#45;&gt;Node14 -->
<g id="edge204" class="edge"><title>Node50&#45;&gt;Node14</title>
<path fill="none" stroke="midnightblue" d="M1659.91,-235.103C1655.23,-234.045 1650.49,-232.986 1645.98,-232 1579.1,-217.385 1500.86,-201.35 1456.19,-192.295"/>
<polygon fill="midnightblue" stroke="midnightblue" points="1456.61,-188.81 1446.11,-190.257 1455.22,-195.671 1456.61,-188.81"/>
</g>
<!-- Node50&#45;&gt;Node19 -->
<g id="edge202" class="edge"><title>Node50&#45;&gt;Node19</title>
<path fill="none" stroke="midnightblue" d="M1708.46,-232.295C1735.92,-212.009 1795.7,-167.84 1828.44,-143.653"/>
<polygon fill="midnightblue" stroke="midnightblue" points="1830.56,-146.437 1836.52,-137.679 1826.4,-140.807 1830.56,-146.437"/>
</g>
<!-- Node50&#45;&gt;Node30 -->
<g id="edge206" class="edge"><title>Node50&#45;&gt;Node30</title>
<path fill="none" stroke="midnightblue" d="M1687.42,-232.234C1681.68,-222.747 1673.15,-208.526 1665.98,-196 1656.57,-179.577 1646.22,-160.743 1638.71,-146.906"/>
<polygon fill="midnightblue" stroke="midnightblue" points="1641.63,-144.947 1633.79,-137.82 1635.47,-148.28 1641.63,-144.947"/>
</g>
<!-- Node50&#45;&gt;Node48 -->
<g id="edge210" class="edge"><title>Node50&#45;&gt;Node48</title>
<path fill="none" stroke="midnightblue" d="M1671.16,-232.497C1651.39,-223.397 1622.56,-210.127 1600.4,-199.925"/>
<polygon fill="midnightblue" stroke="midnightblue" points="1601.6,-196.623 1591.05,-195.621 1598.67,-202.982 1601.6,-196.623"/>
</g>
<!-- Node51&#45;&gt;Node4 -->
<g id="edge216" class="edge"><title>Node51&#45;&gt;Node4</title>
<path fill="none" stroke="midnightblue" d="M969.27,-290.39C962.214,-275.649 952.662,-248.887 965.976,-232 1008.42,-178.16 1049.92,-214.362 1115.98,-196 1249.2,-158.968 1404.72,-107.241 1476.67,-82.8145"/>
<polygon fill="midnightblue" stroke="midnightblue" points="1477.92,-86.0873 1486.26,-79.5534 1475.66,-79.4601 1477.92,-86.0873"/>
</g>
<!-- Node51&#45;&gt;Node14 -->
<g id="edge260" class="edge"><title>Node51&#45;&gt;Node14</title>
<path fill="none" stroke="midnightblue" d="M983.656,-290.438C997.252,-274.719 1025.21,-245.568 1055.98,-232 1173.19,-180.3 1214.99,-212.946 1341.98,-196 1355.56,-194.187 1370.46,-192.108 1383.57,-190.249"/>
<polygon fill="midnightblue" stroke="midnightblue" points="1384.23,-193.69 1393.63,-188.814 1383.24,-186.76 1384.23,-193.69"/>
</g>
<!-- Node51&#45;&gt;Node19 -->
<g id="edge258" class="edge"><title>Node51&#45;&gt;Node19</title>
<path fill="none" stroke="midnightblue" d="M978.191,-290.254C983.494,-274.574 995.666,-245.791 1016.98,-232 1124.9,-162.152 1180.33,-231.19 1303.98,-196 1326.55,-189.576 1329.31,-180.075 1351.98,-174 1443.26,-149.537 1738.87,-132.751 1826.36,-128.225"/>
<polygon fill="midnightblue" stroke="midnightblue" points="1826.61,-131.718 1836.42,-127.712 1826.25,-124.727 1826.61,-131.718"/>
</g>
<!-- Node51&#45;&gt;Node30 -->
<g id="edge214" class="edge"><title>Node51&#45;&gt;Node30</title>
<path fill="none" stroke="midnightblue" d="M972.045,-290.262C968.631,-275.118 965.181,-247.599 979.976,-232 1024.06,-185.523 1204.37,-213.548 1265.98,-196 1288.55,-189.571 1291.48,-180.692 1313.98,-174 1412.7,-144.628 1534.61,-133.093 1593.25,-129.005"/>
<polygon fill="midnightblue" stroke="midnightblue" points="1593.7,-132.483 1603.44,-128.326 1593.23,-125.499 1593.7,-132.483"/>
</g>
<!-- Node52 -->
<g id="node161" class="node"><title>Node52</title>
<a xlink:href="_t_data_record_8h.html" target="_top" xlink:title="tree/TDataRecord.h">
<polygon fill="white" stroke="black" points="601.476,-232.5 601.476,-253.5 704.476,-253.5 704.476,-232.5 601.476,-232.5"/>
<text text-anchor="middle" x="652.976" y="-240.5" font-family="Helvetica,sans-Serif" font-size="10.00">tree/TDataRecord.h</text>
</a>
</g>
<!-- Node51&#45;&gt;Node52 -->
<g id="edge218" class="edge"><title>Node51&#45;&gt;Node52</title>
<path fill="none" stroke="midnightblue" d="M939.371,-294.657C890.834,-286.001 800.906,-269.929 714.639,-254.298"/>
<polygon fill="midnightblue" stroke="midnightblue" points="715.148,-250.833 704.684,-252.493 713.899,-257.721 715.148,-250.833"/>
</g>
<!-- Node52&#45;&gt;Node35 -->
<g id="edge252" class="edge"><title>Node52&#45;&gt;Node35</title>
<path fill="none" stroke="midnightblue" d="M702.572,-232.446C738.485,-224.176 787.908,-211.491 829.976,-196 851.242,-188.169 854.792,-182.052 875.976,-174 927.167,-154.541 943.75,-154.215 999.937,-138.251"/>
<polygon fill="midnightblue" stroke="midnightblue" points="1001.06,-141.568 1009.7,-135.433 999.123,-134.843 1001.06,-141.568"/>
</g>
<!-- Node53 -->
<g id="node163" class="node"><title>Node53</title>
<a xlink:href="_t_i_d_8h.html" target="_top" xlink:title="TID.h">
<polygon fill="white" stroke="black" points="745.476,-174.5 745.476,-195.5 786.476,-195.5 786.476,-174.5 745.476,-174.5"/>
<text text-anchor="middle" x="765.976" y="-182.5" font-family="Helvetica,sans-Serif" font-size="10.00">TID.h</text>
</a>
</g>
<!-- Node52&#45;&gt;Node53 -->
<g id="edge220" class="edge"><title>Node52&#45;&gt;Node53</title>
<path fill="none" stroke="midnightblue" d="M673.439,-232.497C691.009,-223.479 716.558,-210.365 736.361,-200.201"/>
<polygon fill="midnightblue" stroke="midnightblue" points="737.984,-203.301 745.283,-195.621 734.788,-197.074 737.984,-203.301"/>
</g>
<!-- Node58 -->
<g id="node177" class="node"><title>Node58</title>
<polygon fill="white" stroke="#bfbfbf" points="712.476,-58.5 712.476,-79.5 753.476,-79.5 753.476,-58.5 712.476,-58.5"/>
<text text-anchor="middle" x="732.976" y="-66.5" font-family="Helvetica,sans-Serif" font-size="10.00">ctime</text>
</g>
<!-- Node52&#45;&gt;Node58 -->
<g id="edge256" class="edge"><title>Node52&#45;&gt;Node58</title>
<path fill="none" stroke="midnightblue" d="M648.174,-232.164C638.675,-208.943 620.282,-153.453 642.976,-116 649.84,-104.671 679.664,-90.4449 703.124,-80.628"/>
<polygon fill="midnightblue" stroke="midnightblue" points="704.452,-83.8666 712.382,-76.8406 701.801,-77.3878 704.452,-83.8666"/>
</g>
<!-- Node60 -->
<g id="node184" class="node"><title>Node60</title>
<polygon fill="white" stroke="#bfbfbf" points="941.976,-116.5 941.976,-137.5 991.976,-137.5 991.976,-116.5 941.976,-116.5"/>
<text text-anchor="middle" x="966.976" y="-124.5" font-family="Helvetica,sans-Serif" font-size="10.00">iomanip</text>
</g>
<!-- Node52&#45;&gt;Node60 -->
<g id="edge254" class="edge"><title>Node52&#45;&gt;Node60</title>
<path fill="none" stroke="midnightblue" d="M690.024,-232.441C719.015,-223.772 760.12,-210.584 794.976,-196 814.779,-187.714 818.298,-182.58 837.976,-174 869.362,-160.316 906.142,-147.19 932.381,-138.305"/>
<polygon fill="midnightblue" stroke="midnightblue" points="933.521,-141.614 941.888,-135.115 931.294,-134.978 933.521,-141.614"/>
</g>
<!-- Node53&#45;&gt;Node4 -->
<g id="edge224" class="edge"><title>Node53&#45;&gt;Node4</title>
<path fill="none" stroke="midnightblue" d="M785.597,-174.486C816.126,-158.691 877.286,-129.277 932.976,-116 1033.06,-92.1384 1339.69,-76.6379 1463.9,-71.1859"/>
<polygon fill="midnightblue" stroke="midnightblue" points="1464.1,-74.6808 1473.93,-70.75 1463.79,-67.6874 1464.1,-74.6808"/>
</g>
<!-- Node53&#45;&gt;Node8 -->
<g id="edge244" class="edge"><title>Node53&#45;&gt;Node8</title>
<path fill="none" stroke="midnightblue" d="M745.338,-184.502C694.527,-182.723 559.889,-174.63 454.976,-138 418.722,-125.342 380.974,-101.604 357.722,-85.5485"/>
<polygon fill="midnightblue" stroke="midnightblue" points="359.459,-82.4919 349.265,-79.6049 355.434,-88.2188 359.459,-82.4919"/>
</g>
<!-- Node53&#45;&gt;Node9 -->
<g id="edge246" class="edge"><title>Node53&#45;&gt;Node9</title>
<path fill="none" stroke="midnightblue" d="M785.794,-174.336C800.324,-165.842 819.891,-152.926 833.976,-138 847.739,-123.414 859.231,-103.594 866.695,-88.9378"/>
<polygon fill="midnightblue" stroke="midnightblue" points="869.943,-90.2645 871.197,-79.7442 863.656,-87.1859 869.943,-90.2645"/>
</g>
<!-- Node53&#45;&gt;Node11 -->
<g id="edge240" class="edge"><title>Node53&#45;&gt;Node11</title>
<path fill="none" stroke="midnightblue" d="M745.34,-177.625C720.759,-168.724 678.55,-153.067 642.976,-138 601.753,-120.541 555.074,-98.3672 525.354,-83.9379"/>
<polygon fill="midnightblue" stroke="midnightblue" points="526.852,-80.7744 516.329,-79.541 523.786,-87.0673 526.852,-80.7744"/>
</g>
<!-- Node53&#45;&gt;Node35 -->
<g id="edge222" class="edge"><title>Node53&#45;&gt;Node35</title>
<path fill="none" stroke="midnightblue" d="M786.548,-181.54C826.063,-174.755 915.467,-158.735 1000.02,-138.084"/>
<polygon fill="midnightblue" stroke="midnightblue" points="1000.9,-141.472 1009.77,-135.676 999.219,-134.676 1000.9,-141.472"/>
</g>
<!-- Node54 -->
<g id="node167" class="node"><title>Node54</title>
<a xlink:href="time_8h.html" target="_top" xlink:title="base/std_ext/time.h">
<polygon fill="white" stroke="black" points="651.476,-116.5 651.476,-137.5 754.476,-137.5 754.476,-116.5 651.476,-116.5"/>
<text text-anchor="middle" x="702.976" y="-124.5" font-family="Helvetica,sans-Serif" font-size="10.00">base/std_ext/time.h</text>
</a>
</g>
<!-- Node53&#45;&gt;Node54 -->
<g id="edge226" class="edge"><title>Node53&#45;&gt;Node54</title>
<path fill="none" stroke="midnightblue" d="M754.421,-174.362C745.362,-166.023 732.566,-154.242 722.002,-144.516"/>
<polygon fill="midnightblue" stroke="midnightblue" points="724.185,-141.769 714.458,-137.571 719.444,-146.919 724.185,-141.769"/>
</g>
<!-- Node53&#45;&gt;Node58 -->
<g id="edge250" class="edge"><title>Node53&#45;&gt;Node58</title>
<path fill="none" stroke="midnightblue" d="M784.336,-174.349C804.405,-161.267 832.075,-138.086 818.976,-116 807.002,-95.8112 782.96,-83.7327 763.332,-76.8862"/>
<polygon fill="midnightblue" stroke="midnightblue" points="764.149,-73.473 753.559,-73.7676 762.021,-80.1418 764.149,-73.473"/>
</g>
<!-- Node59 -->
<g id="node180" class="node"><title>Node59</title>
<polygon fill="white" stroke="#bfbfbf" points="771.976,-116.5 771.976,-137.5 809.976,-137.5 809.976,-116.5 771.976,-116.5"/>
<text text-anchor="middle" x="790.976" y="-124.5" font-family="Helvetica,sans-Serif" font-size="10.00">tuple</text>
</g>
<!-- Node53&#45;&gt;Node59 -->
<g id="edge242" class="edge"><title>Node53&#45;&gt;Node59</title>
<path fill="none" stroke="midnightblue" d="M770.561,-174.362C773.874,-166.677 778.446,-156.069 782.424,-146.84"/>
<polygon fill="midnightblue" stroke="midnightblue" points="785.675,-148.139 786.419,-137.571 779.247,-145.368 785.675,-148.139"/>
</g>
<!-- Node53&#45;&gt;Node60 -->
<g id="edge248" class="edge"><title>Node53&#45;&gt;Node60</title>
<path fill="none" stroke="midnightblue" d="M786.793,-178.124C791.14,-176.728 795.7,-175.292 799.976,-174 856.544,-156.901 871.093,-154.021 927.976,-138 929.233,-137.646 930.512,-137.285 931.805,-136.921"/>
<polygon fill="midnightblue" stroke="midnightblue" points="933.126,-140.185 941.801,-134.103 931.227,-133.448 933.126,-140.185"/>
</g>
<!-- Node55 -->
<g id="node169" class="node"><title>Node55</title>
<a xlink:href="string_8h.html" target="_top" xlink:title="base/std_ext/string.h">
<polygon fill="white" stroke="black" points="2353.98,-58.5 2353.98,-79.5 2461.98,-79.5 2461.98,-58.5 2353.98,-58.5"/>
<text text-anchor="middle" x="2407.98" y="-66.5" font-family="Helvetica,sans-Serif" font-size="10.00">base/std_ext/string.h</text>
</a>
</g>
<!-- Node54&#45;&gt;Node55 -->
<g id="edge228" class="edge"><title>Node54&#45;&gt;Node55</title>
<path fill="none" stroke="midnightblue" d="M754.614,-117.016C757.436,-116.632 760.237,-116.288 762.976,-116 1077.71,-82.8492 2079.65,-71.8768 2343.69,-69.5235"/>
<polygon fill="midnightblue" stroke="midnightblue" points="2343.9,-73.0219 2353.87,-69.4338 2343.84,-66.0222 2343.9,-73.0219"/>
</g>
<!-- Node57 -->
<g id="node175" class="node"><title>Node57</title>
<polygon fill="white" stroke="#bfbfbf" points="648.976,-58.5 648.976,-79.5 694.976,-79.5 694.976,-58.5 648.976,-58.5"/>
<text text-anchor="middle" x="671.976" y="-66.5" font-family="Helvetica,sans-Serif" font-size="10.00">cstring</text>
</g>
<!-- Node54&#45;&gt;Node57 -->
<g id="edge236" class="edge"><title>Node54&#45;&gt;Node57</title>
<path fill="none" stroke="midnightblue" d="M697.29,-116.362C693.138,-108.595 687.392,-97.8426 682.423,-88.5458"/>
<polygon fill="midnightblue" stroke="midnightblue" points="685.426,-86.7401 677.626,-79.5707 679.253,-90.0398 685.426,-86.7401"/>
</g>
<!-- Node54&#45;&gt;Node58 -->
<g id="edge238" class="edge"><title>Node54&#45;&gt;Node58</title>
<path fill="none" stroke="midnightblue" d="M708.478,-116.362C712.496,-108.595 718.057,-97.8426 722.866,-88.5458"/>
<polygon fill="midnightblue" stroke="midnightblue" points="726.023,-90.0608 727.508,-79.5707 719.805,-86.8448 726.023,-90.0608"/>
</g>
<!-- Node55&#45;&gt;Node10 -->
<g id="edge230" class="edge"><title>Node55&#45;&gt;Node10</title>
<path fill="none" stroke="midnightblue" d="M2462.1,-59.4874C2532.01,-47.1994 2651.36,-26.2232 2707.32,-16.3884"/>
<polygon fill="midnightblue" stroke="midnightblue" points="2708.07,-19.8093 2717.32,-14.631 2706.86,-12.9149 2708.07,-19.8093"/>
</g>
<!-- Node55&#45;&gt;Node29 -->
<g id="edge234" class="edge"><title>Node55&#45;&gt;Node29</title>
<path fill="none" stroke="midnightblue" d="M2423.02,-58.3619C2435.27,-49.6955 2452.78,-37.3126 2466.82,-27.3819"/>
<polygon fill="midnightblue" stroke="midnightblue" points="2468.89,-30.2028 2475.03,-21.5707 2464.85,-24.4879 2468.89,-30.2028"/>
</g>
<!-- Node56 -->
<g id="node172" class="node"><title>Node56</title>
<polygon fill="white" stroke="#bfbfbf" points="2381.98,-0.5 2381.98,-21.5 2433.98,-21.5 2433.98,-0.5 2381.98,-0.5"/>
<text text-anchor="middle" x="2407.98" y="-8.5" font-family="Helvetica,sans-Serif" font-size="10.00">sstream</text>
</g>
<!-- Node55&#45;&gt;Node56 -->
<g id="edge232" class="edge"><title>Node55&#45;&gt;Node56</title>
<path fill="none" stroke="midnightblue" d="M2407.98,-58.3619C2407.98,-50.9219 2407.98,-40.7427 2407.98,-31.7276"/>
<polygon fill="midnightblue" stroke="midnightblue" points="2411.48,-31.5706 2407.98,-21.5707 2404.48,-31.5707 2411.48,-31.5706"/>
</g>
<!-- Node61&#45;&gt;Node5 -->
<g id="edge276" class="edge"><title>Node61&#45;&gt;Node5</title>
<path fill="none" stroke="midnightblue" d="M121.417,-116.269C135.587,-100.876 163.914,-72.7599 193.976,-58 255.031,-28.0233 335.013,-17.0413 378.824,-13.1108"/>
<polygon fill="midnightblue" stroke="midnightblue" points="379.216,-16.5904 388.893,-12.2757 378.638,-9.61434 379.216,-16.5904"/>
</g>
<!-- Node61&#45;&gt;Node8 -->
<g id="edge278" class="edge"><title>Node61&#45;&gt;Node8</title>
<path fill="none" stroke="midnightblue" d="M152.359,-116.497C195.311,-105.325 262.427,-87.8691 302.218,-77.52"/>
<polygon fill="midnightblue" stroke="midnightblue" points="303.157,-80.8922 311.954,-74.9877 301.395,-74.1176 303.157,-80.8922"/>
</g>
<!-- Node62&#45;&gt;Node10 -->
<g id="edge282" class="edge"><title>Node62&#45;&gt;Node10</title>
<path fill="none" stroke="midnightblue" d="M2476.02,-233.694C2479.05,-233.12 2482.06,-232.552 2484.98,-232 2569.86,-215.952 2610.85,-252.756 2675.98,-196 2725.02,-153.259 2735.37,-70.5349 2737.48,-31.8682"/>
<polygon fill="midnightblue" stroke="midnightblue" points="2740.98,-31.9215 2737.9,-21.7863 2733.99,-31.6343 2740.98,-31.9215"/>
</g>
<!-- Node62&#45;&gt;Node14 -->
<g id="edge284" class="edge"><title>Node62&#45;&gt;Node14</title>
<path fill="none" stroke="midnightblue" d="M2377.71,-236.684C2362.72,-234.944 2346.19,-233.205 2330.98,-232 1968.2,-203.269 1875.69,-225.392 1512.98,-196 1494.19,-194.478 1473.34,-192.078 1456.16,-189.908"/>
<polygon fill="midnightblue" stroke="midnightblue" points="1456.35,-186.403 1445.98,-188.596 1455.45,-193.346 1456.35,-186.403"/>
</g>
<!-- Node62&#45;&gt;Node22 -->
<g id="edge286" class="edge"><title>Node62&#45;&gt;Node22</title>
<path fill="none" stroke="midnightblue" d="M2422.94,-232.362C2420.06,-224.758 2416.09,-214.294 2412.61,-205.135"/>
<polygon fill="midnightblue" stroke="midnightblue" points="2415.8,-203.679 2408.99,-195.571 2409.26,-206.162 2415.8,-203.679"/>
</g>
<!-- Node63&#45;&gt;Node10 -->
<g id="edge310" class="edge"><title>Node63&#45;&gt;Node10</title>
<path fill="none" stroke="midnightblue" d="M2252.6,-363.499C2416.76,-356.291 2878.76,-334.545 3028.98,-312 3056.53,-307.864 3248.96,-268.138 3272.98,-254 3308.76,-232.932 3335.98,-226.526 3335.98,-185 3335.98,-185 3335.98,-185 3335.98,-127 3335.98,-118.743 3355.52,-105.423 3158.98,-58 3016.13,-23.532 2839.8,-14.237 2769.27,-11.8173"/>
<polygon fill="midnightblue" stroke="midnightblue" points="2768.99,-8.30654 2758.88,-11.4851 2768.77,-15.303 2768.99,-8.30654"/>
</g>
<!-- Node63&#45;&gt;Node19 -->
<g id="edge312" class="edge"><title>Node63&#45;&gt;Node19</title>
<path fill="none" stroke="midnightblue" d="M2163.66,-348.859C2127.74,-328.063 2066.62,-291.153 2017.98,-254 1975.97,-221.916 1972.46,-205.449 1929.98,-174 1912.18,-160.824 1890.46,-148.122 1874.31,-139.252"/>
<polygon fill="midnightblue" stroke="midnightblue" points="1875.97,-136.173 1865.51,-134.498 1872.64,-142.331 1875.97,-136.173"/>
</g>
<!-- Node63&#45;&gt;Node28 -->
<g id="edge302" class="edge"><title>Node63&#45;&gt;Node28</title>
<path fill="none" stroke="midnightblue" d="M2252.77,-363.585C2425.8,-356.26 2925.52,-333.486 2995.98,-312 3014.64,-306.307 3016.7,-299.074 3033.98,-290 3067.07,-272.622 3089.99,-285.583 3109.98,-254 3115.2,-245.738 3116.61,-239.182 3109.98,-232 3091.68,-212.19 2707.72,-193.361 2568.14,-187.147"/>
<polygon fill="midnightblue" stroke="midnightblue" points="2568.27,-183.649 2558.13,-186.704 2567.96,-190.643 2568.27,-183.649"/>
</g>
<!-- Node63&#45;&gt;Node64 -->
<g id="edge304" class="edge"><title>Node63&#45;&gt;Node64</title>
<path fill="none" stroke="midnightblue" d="M2135.16,-363.551C1888.72,-353.289 940.554,-313.808 692.595,-303.483"/>
<polygon fill="midnightblue" stroke="midnightblue" points="692.485,-299.975 682.348,-303.056 692.193,-306.969 692.485,-299.975"/>
</g>
<!-- Node64&#45;&gt;Node52 -->
<g id="edge306" class="edge"><title>Node64&#45;&gt;Node52</title>
<path fill="none" stroke="midnightblue" d="M636.644,-290.362C639.266,-282.758 642.874,-272.294 646.033,-263.135"/>
<polygon fill="midnightblue" stroke="midnightblue" points="649.379,-264.165 649.331,-253.571 642.762,-261.883 649.379,-264.165"/>
</g>
<!-- Node64&#45;&gt;Node54 -->
<g id="edge308" class="edge"><title>Node64&#45;&gt;Node54</title>
<path fill="none" stroke="midnightblue" d="M619.594,-290.43C604.637,-277.242 583.661,-253.768 592.976,-232 609.772,-192.747 649.244,-161.186 676.04,-143.263"/>
<polygon fill="midnightblue" stroke="midnightblue" points="678.106,-146.095 684.591,-137.716 674.296,-140.222 678.106,-146.095"/>
</g>
<!-- Node66&#45;&gt;Node2 -->
<g id="edge344" class="edge"><title>Node66&#45;&gt;Node2</title>
<path fill="none" stroke="midnightblue" d="M480.082,-710.922C459.939,-700.772 434.61,-688.01 415.158,-678.208"/>
<polygon fill="midnightblue" stroke="midnightblue" points="416.634,-675.033 406.128,-673.658 413.484,-681.284 416.634,-675.033"/>
</g>
<!-- Node67&#45;&gt;Node2 -->
<g id="edge348" class="edge"><title>Node67&#45;&gt;Node2</title>
<path fill="none" stroke="midnightblue" d="M200.079,-712.384C203.088,-711.578 206.067,-710.779 208.976,-710 253.185,-698.158 303.654,-684.686 339.178,-675.21"/>
<polygon fill="midnightblue" stroke="midnightblue" points="340.48,-678.485 349.241,-672.526 338.676,-671.721 340.48,-678.485"/>
</g>
<!-- Node68&#45;&gt;Node2 -->
<g id="edge352" class="edge"><title>Node68&#45;&gt;Node2</title>
<path fill="none" stroke="midnightblue" d="M353.273,-710.922C359.096,-702.12 366.218,-691.354 372.236,-682.258"/>
<polygon fill="midnightblue" stroke="midnightblue" points="375.198,-684.123 377.797,-673.852 369.36,-680.261 375.198,-684.123"/>
</g>
</g>
</svg>
