<?xml version="1.0" encoding="UTF-8" standalone="no"?>
<!DOCTYPE svg PUBLIC "-//W3C//DTD SVG 1.1//EN"
 "http://www.w3.org/Graphics/SVG/1.1/DTD/svg11.dtd">
<!-- Generated by graphviz version 2.26.3 (20100126.1600)
 -->
<!-- Title: src/tree/TAntHeader.h Pages: 1 -->
<svg width="598pt" height="102pt"
 viewBox="0.00 0.00 598.00 102.00" xmlns="http://www.w3.org/2000/svg" xmlns:xlink="http://www.w3.org/1999/xlink">
<g id="graph1" class="graph" transform="scale(1 1) rotate(0) translate(4 98)">
<title>src/tree/TAntHeader.h</title>
<polygon fill="white" stroke="white" points="-4,5 -4,-98 595,-98 595,5 -4,5"/>
<!-- Node1 -->
<g id="node1" class="node"><title>Node1</title>
<polygon fill="#bfbfbf" stroke="black" points="203.5,-72.5 203.5,-93.5 316.5,-93.5 316.5,-72.5 203.5,-72.5"/>
<text text-anchor="middle" x="260" y="-80.5" font-family="Helvetica,sans-Serif" font-size="10.00">src/tree/TAntHeader.h</text>
</g>
<!-- Node2 -->
<g id="node3" class="node"><title>Node2</title>
<a xlink:href="_ant_8cc.html" target="_top" xlink:title="Main Ant executable. ">
<polygon fill="white" stroke="black" points="0,-7.5 0,-28.5 72,-28.5 72,-7.5 0,-7.5"/>
<text text-anchor="middle" x="36" y="-15.5" font-family="Helvetica,sans-Serif" font-size="10.00">progs/Ant.cc</text>
</a>
</g>
<!-- Node1&#45;&gt;Node2 -->
<g id="edge2" class="edge"><title>Node1&#45;&gt;Node2</title>
<path fill="none" stroke="midnightblue" d="M203.387,-70.0363C167.909,-61.4453 121.407,-49.3295 81,-36 74.4476,-33.8385 67.4758,-31.2149 61.0256,-28.647"/>
<polygon fill="midnightblue" stroke="midnightblue" points="203.014,-73.5461 213.555,-72.4751 204.647,-66.7392 203.014,-73.5461"/>
</g>
<!-- Node3 -->
<g id="node5" class="node"><title>Node3</title>
<a xlink:href="_physics_manager_8cc.html" target="_top" xlink:title="src/analysis/physics\l/PhysicsManager.cc">
<polygon fill="white" stroke="black" points="90,-1 90,-35 196,-35 196,-1 90,-1"/>
<text text-anchor="start" x="98" y="-22" font-family="Helvetica,sans-Serif" font-size="10.00">src/analysis/physics</text>
<text text-anchor="middle" x="143" y="-9" font-family="Helvetica,sans-Serif" font-size="10.00">/PhysicsManager.cc</text>
</a>
</g>
<!-- Node1&#45;&gt;Node3 -->
<g id="edge4" class="edge"><title>Node1&#45;&gt;Node3</title>
<path fill="none" stroke="midnightblue" d="M231.81,-67.3389C214.342,-57.6347 191.894,-45.1631 173.936,-35.1869"/>
<polygon fill="midnightblue" stroke="midnightblue" points="230.5,-70.615 240.942,-72.412 233.9,-64.4959 230.5,-70.615"/>
</g>
<!-- Node4 -->
<g id="node7" class="node"><title>Node4</title>
<a xlink:href="_manager_8cc.html" target="_top" xlink:title="src/calibration/gui\l/Manager.cc">
<polygon fill="white" stroke="black" points="213.5,-1 213.5,-35 306.5,-35 306.5,-1 213.5,-1"/>
<text text-anchor="start" x="221.5" y="-22" font-family="Helvetica,sans-Serif" font-size="10.00">src/calibration/gui</text>
<text text-anchor="middle" x="260" y="-9" font-family="Helvetica,sans-Serif" font-size="10.00">/Manager.cc</text>
</a>
</g>
<!-- Node1&#45;&gt;Node4 -->
<g id="edge6" class="edge"><title>Node1&#45;&gt;Node4</title>
<path fill="none" stroke="midnightblue" d="M260,-62.1306C260,-53.4049 260,-43.3908 260,-35.1099"/>
<polygon fill="midnightblue" stroke="midnightblue" points="256.5,-62.2665 260,-72.2666 263.5,-62.2666 256.5,-62.2665"/>
</g>
<!-- Node5 -->
<g id="node9" class="node"><title>Node5</title>
<a xlink:href="_t_ant_header_8cc.html" target="_top" xlink:title="src/tree/TAntHeader.cc">
<polygon fill="white" stroke="black" points="323.5,-7.5 323.5,-28.5 442.5,-28.5 442.5,-7.5 323.5,-7.5"/>
<text text-anchor="middle" x="383" y="-15.5" font-family="Helvetica,sans-Serif" font-size="10.00">src/tree/TAntHeader.cc</text>
</a>
</g>
<!-- Node1&#45;&gt;Node5 -->
<g id="edge8" class="edge"><title>Node1&#45;&gt;Node5</title>
<path fill="none" stroke="midnightblue" d="M288.924,-67.7148C311.707,-55.6754 342.873,-39.2053 362.973,-28.5835"/>
<polygon fill="midnightblue" stroke="midnightblue" points="287.242,-64.6452 280.036,-72.412 290.513,-70.8341 287.242,-64.6452"/>
</g>
<!-- Node6 -->
<g id="node11" class="node"><title>Node6</title>
<a xlink:href="_test_physics_manager_8cc.html" target="_top" xlink:title="test/analysis/TestPhysics\lManager.cc">
<polygon fill="white" stroke="black" points="460,-1 460,-35 590,-35 590,-1 460,-1"/>
<text text-anchor="start" x="468" y="-22" font-family="Helvetica,sans-Serif" font-size="10.00">test/analysis/TestPhysics</text>
<text text-anchor="middle" x="525" y="-9" font-family="Helvetica,sans-Serif" font-size="10.00">Manager.cc</text>
</a>
</g>
<!-- Node1&#45;&gt;Node6 -->
<g id="edge10" class="edge"><title>Node1&#45;&gt;Node6</title>
<path fill="none" stroke="midnightblue" d="M312.696,-70.0745C355.001,-59.6979 414.603,-45.0784 459.891,-33.97"/>
<polygon fill="midnightblue" stroke="midnightblue" points="311.75,-66.7029 302.871,-72.4844 313.417,-73.5013 311.75,-66.7029"/>
</g>
</g>
</svg>
