<?xml version="1.0" encoding="UTF-8" standalone="no"?>
<!DOCTYPE svg PUBLIC "-//W3C//DTD SVG 1.1//EN"
 "http://www.w3.org/Graphics/SVG/1.1/DTD/svg11.dtd">
<!-- Generated by graphviz version 2.26.3 (20100126.1600)
 -->
<!-- Title: src/expconfig/detectors/TAPS.h Pages: 1 -->
<svg width="1130pt" height="200pt"
 viewBox="0.00 0.00 1130.00 200.00" xmlns="http://www.w3.org/2000/svg" xmlns:xlink="http://www.w3.org/1999/xlink">
<g id="graph1" class="graph" transform="scale(1 1) rotate(0) translate(4 196)">
<title>src/expconfig/detectors/TAPS.h</title>
<polygon fill="white" stroke="white" points="-4,5 -4,-196 1127,-196 1127,5 -4,5"/>
<!-- Node1 -->
<g id="node1" class="node"><title>Node1</title>
<polygon fill="#bfbfbf" stroke="black" points="498.5,-157 498.5,-191 617.5,-191 617.5,-157 498.5,-157"/>
<text text-anchor="start" x="506.5" y="-178" font-family="Helvetica,sans-Serif" font-size="10.00">src/expconfig/detectors</text>
<text text-anchor="middle" x="558" y="-165" font-family="Helvetica,sans-Serif" font-size="10.00">/TAPS.h</text>
</g>
<!-- Node2 -->
<g id="node3" class="node"><title>Node2</title>
<a xlink:href="_t_a_p_s___energy_8cc.html" target="_top" xlink:title="src/calibration/modules\l/TAPS_Energy.cc">
<polygon fill="white" stroke="black" points="-0.5,-79 -0.5,-113 116.5,-113 116.5,-79 -0.5,-79"/>
<text text-anchor="start" x="7.5" y="-100" font-family="Helvetica,sans-Serif" font-size="10.00">src/calibration/modules</text>
<text text-anchor="middle" x="58" y="-87" font-family="Helvetica,sans-Serif" font-size="10.00">/TAPS_Energy.cc</text>
</a>
</g>
<!-- Node1&#45;&gt;Node2 -->
<g id="edge2" class="edge"><title>Node1&#45;&gt;Node2</title>
<path fill="none" stroke="midnightblue" d="M488.239,-170.034C401.959,-164.05 251.046,-150.048 125,-120 117.188,-118.138 109.023,-115.674 101.189,-113.034"/>
<polygon fill="midnightblue" stroke="midnightblue" points="488.221,-173.54 498.435,-170.724 488.694,-166.556 488.221,-173.54"/>
</g>
<!-- Node3 -->
<g id="node5" class="node"><title>Node3</title>
<a xlink:href="_t_a_p_s___short_energy_8cc.html" target="_top" xlink:title="src/calibration/modules\l/TAPS_ShortEnergy.cc">
<polygon fill="white" stroke="black" points="133.5,-79 133.5,-113 252.5,-113 252.5,-79 133.5,-79"/>
<text text-anchor="start" x="141.5" y="-100" font-family="Helvetica,sans-Serif" font-size="10.00">src/calibration/modules</text>
<text text-anchor="middle" x="193" y="-87" font-family="Helvetica,sans-Serif" font-size="10.00">/TAPS_ShortEnergy.cc</text>
</a>
</g>
<!-- Node1&#45;&gt;Node3 -->
<g id="edge4" class="edge"><title>Node1&#45;&gt;Node3</title>
<path fill="none" stroke="midnightblue" d="M487.996,-164.495C427.369,-155.499 337.611,-140.345 261,-120 253.498,-118.008 245.641,-115.573 238.042,-113.026"/>
<polygon fill="midnightblue" stroke="midnightblue" points="487.815,-168.006 498.218,-165.994 488.831,-161.08 487.815,-168.006"/>
</g>
<!-- Node4 -->
<g id="node7" class="node"><title>Node4</title>
<a xlink:href="_t_a_p_s___time_8cc.html" target="_top" xlink:title="src/calibration/modules\l/TAPS_Time.cc">
<polygon fill="white" stroke="black" points="269.5,-79 269.5,-113 386.5,-113 386.5,-79 269.5,-79"/>
<text text-anchor="start" x="277.5" y="-100" font-family="Helvetica,sans-Serif" font-size="10.00">src/calibration/modules</text>
<text text-anchor="middle" x="328" y="-87" font-family="Helvetica,sans-Serif" font-size="10.00">/TAPS_Time.cc</text>
</a>
</g>
<!-- Node1&#45;&gt;Node4 -->
<g id="edge6" class="edge"><title>Node1&#45;&gt;Node4</title>
<path fill="none" stroke="midnightblue" d="M495.772,-153.774C465.333,-143.781 428.188,-131.44 395,-120 388.575,-117.785 381.819,-115.415 375.169,-113.057"/>
<polygon fill="midnightblue" stroke="midnightblue" points="494.813,-157.142 505.405,-156.931 496.993,-150.491 494.813,-157.142"/>
</g>
<!-- Node5 -->
<g id="node9" class="node"><title>Node5</title>
<a xlink:href="_t_a_p_s__2013___ba_f2__elements_8h.html" target="_top" xlink:title="src/expconfig/detectors\l/detail/TAPS_2013_BaF2\l_elements.h">
<polygon fill="white" stroke="black" points="403.5,-72.5 403.5,-119.5 530.5,-119.5 530.5,-72.5 403.5,-72.5"/>
<text text-anchor="start" x="411.5" y="-106.5" font-family="Helvetica,sans-Serif" font-size="10.00">src/expconfig/detectors</text>
<text text-anchor="start" x="411.5" y="-93.5" font-family="Helvetica,sans-Serif" font-size="10.00">/detail/TAPS_2013_BaF2</text>
<text text-anchor="middle" x="467" y="-80.5" font-family="Helvetica,sans-Serif" font-size="10.00">_elements.h</text>
</a>
</g>
<!-- Node1&#45;&gt;Node5 -->
<g id="edge8" class="edge"><title>Node1&#45;&gt;Node5</title>
<path fill="none" stroke="midnightblue" d="M529.988,-149.99C518.783,-140.385 505.909,-129.35 494.732,-119.77"/>
<polygon fill="midnightblue" stroke="midnightblue" points="527.934,-152.839 537.804,-156.689 532.489,-147.524 527.934,-152.839"/>
</g>
<!-- Node6 -->
<g id="node11" class="node"><title>Node6</title>
<a xlink:href="_t_a_p_s_8cc.html" target="_top" xlink:title="src/expconfig/detectors\l/TAPS.cc">
<polygon fill="white" stroke="black" points="498.5,-1 498.5,-35 617.5,-35 617.5,-1 498.5,-1"/>
<text text-anchor="start" x="506.5" y="-22" font-family="Helvetica,sans-Serif" font-size="10.00">src/expconfig/detectors</text>
<text text-anchor="middle" x="558" y="-9" font-family="Helvetica,sans-Serif" font-size="10.00">/TAPS.cc</text>
</a>
</g>
<!-- Node1&#45;&gt;Node6 -->
<g id="edge16" class="edge"><title>Node1&#45;&gt;Node6</title>
<path fill="none" stroke="midnightblue" d="M558,-146.669C558,-114.591 558,-62.3575 558,-35.3682"/>
<polygon fill="midnightblue" stroke="midnightblue" points="554.5,-146.709 558,-156.709 561.5,-146.709 554.5,-146.709"/>
</g>
<!-- Node7 -->
<g id="node13" class="node"><title>Node7</title>
<a xlink:href="_t_a_p_s__2013___pb_w_o4__elements_8h.html" target="_top" xlink:title="src/expconfig/detectors\l/detail/TAPS_2013_PbWO4\l_elements.h">
<polygon fill="white" stroke="black" points="586,-72.5 586,-119.5 724,-119.5 724,-72.5 586,-72.5"/>
<text text-anchor="start" x="594" y="-106.5" font-family="Helvetica,sans-Serif" font-size="10.00">src/expconfig/detectors</text>
<text text-anchor="start" x="594" y="-93.5" font-family="Helvetica,sans-Serif" font-size="10.00">/detail/TAPS_2013_PbWO4</text>
<text text-anchor="middle" x="655" y="-80.5" font-family="Helvetica,sans-Serif" font-size="10.00">_elements.h</text>
</a>
</g>
<!-- Node1&#45;&gt;Node7 -->
<g id="edge12" class="edge"><title>Node1&#45;&gt;Node7</title>
<path fill="none" stroke="midnightblue" d="M587.511,-150.269C599.536,-140.6 613.41,-129.443 625.44,-119.77"/>
<polygon fill="midnightblue" stroke="midnightblue" points="585.127,-147.695 579.527,-156.689 589.514,-153.15 585.127,-147.695"/>
</g>
<!-- Node8 -->
<g id="node17" class="node"><title>Node8</title>
<a xlink:href="_setup__2014___e_p_t_8cc.html" target="_top" xlink:title="src/expconfig/setups\l/Setup_2014_EPT.cc">
<polygon fill="white" stroke="black" points="742,-79 742,-113 852,-113 852,-79 742,-79"/>
<text text-anchor="start" x="750" y="-100" font-family="Helvetica,sans-Serif" font-size="10.00">src/expconfig/setups</text>
<text text-anchor="middle" x="797" y="-87" font-family="Helvetica,sans-Serif" font-size="10.00">/Setup_2014_EPT.cc</text>
</a>
</g>
<!-- Node1&#45;&gt;Node8 -->
<g id="edge18" class="edge"><title>Node1&#45;&gt;Node8</title>
<path fill="none" stroke="midnightblue" d="M626.072,-154.022C658.586,-144.218 697.959,-131.965 733,-120 739.289,-117.853 745.889,-115.496 752.363,-113.125"/>
<polygon fill="midnightblue" stroke="midnightblue" points="624.785,-150.754 616.214,-156.983 626.799,-157.458 624.785,-150.754"/>
</g>
<!-- Node9 -->
<g id="node19" class="node"><title>Node9</title>
<a xlink:href="_setup___test_8cc.html" target="_top" xlink:title="src/expconfig/setups\l/Setup_Test.cc">
<polygon fill="white" stroke="black" points="869.5,-79 869.5,-113 976.5,-113 976.5,-79 869.5,-79"/>
<text text-anchor="start" x="877.5" y="-100" font-family="Helvetica,sans-Serif" font-size="10.00">src/expconfig/setups</text>
<text text-anchor="middle" x="923" y="-87" font-family="Helvetica,sans-Serif" font-size="10.00">/Setup_Test.cc</text>
</a>
</g>
<!-- Node1&#45;&gt;Node9 -->
<g id="edge20" class="edge"><title>Node1&#45;&gt;Node9</title>
<path fill="none" stroke="midnightblue" d="M627.754,-165.466C689.726,-156.966 782.402,-141.994 861,-120 868.003,-118.04 875.313,-115.592 882.357,-113.014"/>
<polygon fill="midnightblue" stroke="midnightblue" points="627.138,-162.018 617.697,-166.826 628.076,-168.954 627.138,-162.018"/>
</g>
<!-- Node10 -->
<g id="node21" class="node"><title>Node10</title>
<a xlink:href="_candidate_builder_8cc.html" target="_top" xlink:title="src/reconstruct/Candidate\lBuilder.cc">
<polygon fill="white" stroke="black" points="993.5,-79 993.5,-113 1122.5,-113 1122.5,-79 993.5,-79"/>
<text text-anchor="start" x="1001.5" y="-100" font-family="Helvetica,sans-Serif" font-size="10.00">src/reconstruct/Candidate</text>
<text text-anchor="middle" x="1058" y="-87" font-family="Helvetica,sans-Serif" font-size="10.00">Builder.cc</text>
</a>
</g>
<!-- Node1&#45;&gt;Node10 -->
<g id="edge22" class="edge"><title>Node1&#45;&gt;Node10</title>
<path fill="none" stroke="midnightblue" d="M627.745,-169.308C712.878,-162.637 860.844,-147.988 985,-120 993.329,-118.122 1002.06,-115.684 1010.46,-113.082"/>
<polygon fill="midnightblue" stroke="midnightblue" points="627.383,-165.825 617.681,-170.082 627.92,-172.805 627.383,-165.825"/>
</g>
<!-- Node5&#45;&gt;Node6 -->
<g id="edge10" class="edge"><title>Node5&#45;&gt;Node6</title>
<path fill="none" stroke="midnightblue" d="M502.567,-65.5139C514.665,-55.1446 527.747,-43.9311 538.163,-35.003"/>
<polygon fill="midnightblue" stroke="midnightblue" points="500.112,-63.0082 494.797,-72.1736 504.668,-68.3231 500.112,-63.0082"/>
</g>
<!-- Node7&#45;&gt;Node6 -->
<g id="edge14" class="edge"><title>Node7&#45;&gt;Node6</title>
<path fill="none" stroke="midnightblue" d="M617.708,-66.013C604.685,-55.5409 590.522,-44.1516 579.259,-35.0948"/>
<polygon fill="midnightblue" stroke="midnightblue" points="615.647,-68.8467 625.634,-72.3858 620.034,-63.3916 615.647,-68.8467"/>
</g>
</g>
</svg>
