<?xml version="1.0" encoding="UTF-8" standalone="no"?>
<!DOCTYPE svg PUBLIC "-//W3C//DTD SVG 1.1//EN"
 "http://www.w3.org/Graphics/SVG/1.1/DTD/svg11.dtd">
<!-- Generated by graphviz version 2.26.3 (20100126.1600)
 -->
<!-- Title: src/expconfig/detectors/TAPSVeto.h Pages: 1 -->
<svg width="968pt" height="200pt"
 viewBox="0.00 0.00 968.00 200.00" xmlns="http://www.w3.org/2000/svg" xmlns:xlink="http://www.w3.org/1999/xlink">
<g id="graph1" class="graph" transform="scale(1 1) rotate(0) translate(4 196)">
<title>src/expconfig/detectors/TAPSVeto.h</title>
<polygon fill="white" stroke="white" points="-4,5 -4,-196 965,-196 965,5 -4,5"/>
<!-- Node1 -->
<g id="node1" class="node"><title>Node1</title>
<polygon fill="#bfbfbf" stroke="black" points="375.5,-157 375.5,-191 494.5,-191 494.5,-157 375.5,-157"/>
<text text-anchor="start" x="383.5" y="-178" font-family="Helvetica,sans-Serif" font-size="10.00">src/expconfig/detectors</text>
<text text-anchor="middle" x="435" y="-165" font-family="Helvetica,sans-Serif" font-size="10.00">/TAPSVeto.h</text>
</g>
<!-- Node2 -->
<g id="node3" class="node"><title>Node2</title>
<a xlink:href="_t_a_p_s_veto___energy_8cc.html" target="_top" xlink:title="src/calibration/modules\l/TAPSVeto_Energy.cc">
<polygon fill="white" stroke="black" points="-0.5,-79 -0.5,-113 116.5,-113 116.5,-79 -0.5,-79"/>
<text text-anchor="start" x="7.5" y="-100" font-family="Helvetica,sans-Serif" font-size="10.00">src/calibration/modules</text>
<text text-anchor="middle" x="58" y="-87" font-family="Helvetica,sans-Serif" font-size="10.00">/TAPSVeto_Energy.cc</text>
</a>
</g>
<!-- Node1&#45;&gt;Node2 -->
<g id="edge2" class="edge"><title>Node1&#45;&gt;Node2</title>
<path fill="none" stroke="midnightblue" d="M365.231,-165.333C301.914,-156.647 206.304,-141.473 125,-120 117.593,-118.044 109.845,-115.627 102.354,-113.089"/>
<polygon fill="midnightblue" stroke="midnightblue" points="365.118,-168.85 375.497,-166.723 366.057,-161.913 365.118,-168.85"/>
</g>
<!-- Node3 -->
<g id="node5" class="node"><title>Node3</title>
<a xlink:href="_t_a_p_s_veto__2013___ba_f2__elements_8h.html" target="_top" xlink:title="src/expconfig/detectors\l/detail/TAPSVeto_2013\l_BaF2_elements.h">
<polygon fill="white" stroke="black" points="133.5,-72.5 133.5,-119.5 252.5,-119.5 252.5,-72.5 133.5,-72.5"/>
<text text-anchor="start" x="141.5" y="-106.5" font-family="Helvetica,sans-Serif" font-size="10.00">src/expconfig/detectors</text>
<text text-anchor="start" x="141.5" y="-93.5" font-family="Helvetica,sans-Serif" font-size="10.00">/detail/TAPSVeto_2013</text>
<text text-anchor="middle" x="193" y="-80.5" font-family="Helvetica,sans-Serif" font-size="10.00">_BaF2_elements.h</text>
</a>
</g>
<!-- Node1&#45;&gt;Node3 -->
<g id="edge4" class="edge"><title>Node1&#45;&gt;Node3</title>
<path fill="none" stroke="midnightblue" d="M371.698,-153.911C339.95,-143.801 300.918,-131.318 266,-120 261.685,-118.601 257.229,-117.151 252.744,-115.687"/>
<polygon fill="midnightblue" stroke="midnightblue" points="370.714,-157.271 381.304,-156.969 372.837,-150.601 370.714,-157.271"/>
</g>
<!-- Node4 -->
<g id="node7" class="node"><title>Node4</title>
<a xlink:href="_t_a_p_s_veto_8cc.html" target="_top" xlink:title="src/expconfig/detectors\l/TAPSVeto.cc">
<polygon fill="white" stroke="black" points="263.5,-1 263.5,-35 382.5,-35 382.5,-1 263.5,-1"/>
<text text-anchor="start" x="271.5" y="-22" font-family="Helvetica,sans-Serif" font-size="10.00">src/expconfig/detectors</text>
<text text-anchor="middle" x="323" y="-9" font-family="Helvetica,sans-Serif" font-size="10.00">/TAPSVeto.cc</text>
</a>
</g>
<!-- Node1&#45;&gt;Node4 -->
<g id="edge16" class="edge"><title>Node1&#45;&gt;Node4</title>
<path fill="none" stroke="midnightblue" d="M365.825,-163.239C340.458,-155.576 314.246,-142.458 299,-120 281.323,-93.9615 298.498,-56.5342 311.493,-35.0021"/>
<polygon fill="midnightblue" stroke="midnightblue" points="364.91,-166.617 375.481,-165.916 366.78,-159.871 364.91,-166.617"/>
</g>
<!-- Node5 -->
<g id="node9" class="node"><title>Node5</title>
<a xlink:href="_t_a_p_s_veto__2013___pb_w_o4__elements_8h.html" target="_top" xlink:title="src/expconfig/detectors\l/detail/TAPSVeto_2013\l_PbWO4_elements.h">
<polygon fill="white" stroke="black" points="307.5,-72.5 307.5,-119.5 426.5,-119.5 426.5,-72.5 307.5,-72.5"/>
<text text-anchor="start" x="315.5" y="-106.5" font-family="Helvetica,sans-Serif" font-size="10.00">src/expconfig/detectors</text>
<text text-anchor="start" x="315.5" y="-93.5" font-family="Helvetica,sans-Serif" font-size="10.00">/detail/TAPSVeto_2013</text>
<text text-anchor="middle" x="367" y="-80.5" font-family="Helvetica,sans-Serif" font-size="10.00">_PbWO4_elements.h</text>
</a>
</g>
<!-- Node1&#45;&gt;Node5 -->
<g id="edge8" class="edge"><title>Node1&#45;&gt;Node5</title>
<path fill="none" stroke="midnightblue" d="M413.333,-149.147C405.136,-139.744 395.831,-129.071 387.723,-119.77"/>
<polygon fill="midnightblue" stroke="midnightblue" points="410.699,-151.452 419.909,-156.689 415.975,-146.852 410.699,-151.452"/>
</g>
<!-- Node6 -->
<g id="node12" class="node"><title>Node6</title>
<a xlink:href="_t_a_p_s_veto__2014___ba_f2__elements_8h.html" target="_top" xlink:title="src/expconfig/detectors\l/detail/TAPSVeto_2014\l_BaF2_elements.h">
<polygon fill="white" stroke="black" points="443.5,-72.5 443.5,-119.5 562.5,-119.5 562.5,-72.5 443.5,-72.5"/>
<text text-anchor="start" x="451.5" y="-106.5" font-family="Helvetica,sans-Serif" font-size="10.00">src/expconfig/detectors</text>
<text text-anchor="start" x="451.5" y="-93.5" font-family="Helvetica,sans-Serif" font-size="10.00">/detail/TAPSVeto_2014</text>
<text text-anchor="middle" x="503" y="-80.5" font-family="Helvetica,sans-Serif" font-size="10.00">_BaF2_elements.h</text>
</a>
</g>
<!-- Node1&#45;&gt;Node6 -->
<g id="edge12" class="edge"><title>Node1&#45;&gt;Node6</title>
<path fill="none" stroke="midnightblue" d="M456.667,-149.147C464.864,-139.744 474.169,-129.071 482.277,-119.77"/>
<polygon fill="midnightblue" stroke="midnightblue" points="454.025,-146.852 450.091,-156.689 459.301,-151.452 454.025,-146.852"/>
</g>
<!-- Node7 -->
<g id="node16" class="node"><title>Node7</title>
<a xlink:href="_setup__2014___e_p_t_8cc.html" target="_top" xlink:title="src/expconfig/setups\l/Setup_2014_EPT.cc">
<polygon fill="white" stroke="black" points="580,-79 580,-113 690,-113 690,-79 580,-79"/>
<text text-anchor="start" x="588" y="-100" font-family="Helvetica,sans-Serif" font-size="10.00">src/expconfig/setups</text>
<text text-anchor="middle" x="635" y="-87" font-family="Helvetica,sans-Serif" font-size="10.00">/Setup_2014_EPT.cc</text>
</a>
</g>
<!-- Node1&#45;&gt;Node7 -->
<g id="edge18" class="edge"><title>Node1&#45;&gt;Node7</title>
<path fill="none" stroke="midnightblue" d="M488.574,-153.106C520.689,-140.581 561.014,-124.854 591.212,-113.078"/>
<polygon fill="midnightblue" stroke="midnightblue" points="486.936,-149.988 478.891,-156.883 489.479,-156.51 486.936,-149.988"/>
</g>
<!-- Node8 -->
<g id="node18" class="node"><title>Node8</title>
<a xlink:href="_setup___test_8cc.html" target="_top" xlink:title="src/expconfig/setups\l/Setup_Test.cc">
<polygon fill="white" stroke="black" points="707.5,-79 707.5,-113 814.5,-113 814.5,-79 707.5,-79"/>
<text text-anchor="start" x="715.5" y="-100" font-family="Helvetica,sans-Serif" font-size="10.00">src/expconfig/setups</text>
<text text-anchor="middle" x="761" y="-87" font-family="Helvetica,sans-Serif" font-size="10.00">/Setup_Test.cc</text>
</a>
</g>
<!-- Node1&#45;&gt;Node8 -->
<g id="edge20" class="edge"><title>Node1&#45;&gt;Node8</title>
<path fill="none" stroke="midnightblue" d="M504.77,-163.017C558.448,-153.78 634.163,-139.034 699,-120 705.756,-118.017 712.812,-115.616 719.642,-113.109"/>
<polygon fill="midnightblue" stroke="midnightblue" points="503.946,-159.607 494.675,-164.734 505.12,-166.508 503.946,-159.607"/>
</g>
<!-- Node9 -->
<g id="node20" class="node"><title>Node9</title>
<a xlink:href="_candidate_builder_8cc.html" target="_top" xlink:title="src/reconstruct/Candidate\lBuilder.cc">
<polygon fill="white" stroke="black" points="831.5,-79 831.5,-113 960.5,-113 960.5,-79 831.5,-79"/>
<text text-anchor="start" x="839.5" y="-100" font-family="Helvetica,sans-Serif" font-size="10.00">src/reconstruct/Candidate</text>
<text text-anchor="middle" x="896" y="-87" font-family="Helvetica,sans-Serif" font-size="10.00">Builder.cc</text>
</a>
</g>
<!-- Node1&#45;&gt;Node9 -->
<g id="edge22" class="edge"><title>Node1&#45;&gt;Node9</title>
<path fill="none" stroke="midnightblue" d="M504.983,-168.072C583.212,-160.566 713.311,-145.447 823,-120 831.187,-118.101 839.766,-115.683 848.048,-113.116"/>
<polygon fill="midnightblue" stroke="midnightblue" points="504.393,-164.612 494.766,-169.037 505.051,-171.581 504.393,-164.612"/>
</g>
<!-- Node3&#45;&gt;Node4 -->
<g id="edge6" class="edge"><title>Node3&#45;&gt;Node4</title>
<path fill="none" stroke="midnightblue" d="M241.009,-67.1944C258.994,-56.4038 278.844,-44.4933 294.509,-35.0948"/>
<polygon fill="midnightblue" stroke="midnightblue" points="239.131,-64.2395 232.357,-72.3858 242.733,-70.242 239.131,-64.2395"/>
</g>
<!-- Node5&#45;&gt;Node4 -->
<g id="edge10" class="edge"><title>Node5&#45;&gt;Node4</title>
<path fill="none" stroke="midnightblue" d="M348.627,-63.4297C343.116,-53.6596 337.292,-43.3359 332.591,-35.003"/>
<polygon fill="midnightblue" stroke="midnightblue" points="345.598,-65.1834 353.559,-72.1736 351.695,-61.7442 345.598,-65.1834"/>
</g>
<!-- Node6&#45;&gt;Node4 -->
<g id="edge14" class="edge"><title>Node6&#45;&gt;Node4</title>
<path fill="none" stroke="midnightblue" d="M439.231,-68.3669C413.631,-57.2733 384.927,-44.8351 362.45,-35.0948"/>
<polygon fill="midnightblue" stroke="midnightblue" points="437.938,-71.6211 448.506,-72.3858 440.722,-65.1982 437.938,-71.6211"/>
</g>
</g>
</svg>
