<?xml version="1.0" encoding="UTF-8" standalone="no"?>
<!DOCTYPE svg PUBLIC "-//W3C//DTD SVG 1.1//EN"
 "http://www.w3.org/Graphics/SVG/1.1/DTD/svg11.dtd">
<!-- Generated by graphviz version 2.26.3 (20100126.1600)
 -->
<!-- Title: src/tree/TCluster.h Pages: 1 -->
<svg width="1342pt" height="318pt"
 viewBox="0.00 0.00 1342.00 318.00" xmlns="http://www.w3.org/2000/svg" xmlns:xlink="http://www.w3.org/1999/xlink">
<g id="graph1" class="graph" transform="scale(1 1) rotate(0) translate(4 314)">
<title>src/tree/TCluster.h</title>
<polygon fill="white" stroke="white" points="-4,5 -4,-314 1339,-314 1339,5 -4,5"/>
<!-- Node1 -->
<g id="node1" class="node"><title>Node1</title>
<polygon fill="#bfbfbf" stroke="black" points="453,-288.5 453,-309.5 551,-309.5 551,-288.5 453,-288.5"/>
<text text-anchor="middle" x="502" y="-296.5" font-family="Helvetica,sans-Serif" font-size="10.00">src/tree/TCluster.h</text>
</g>
<!-- Node2 -->
<g id="node3" class="node"><title>Node2</title>
<a xlink:href="_convert_8cc.html" target="_top" xlink:title="src/analysis/input\l/ant/detail/Convert.cc">
<polygon fill="white" stroke="black" points="144,-73 144,-107 254,-107 254,-73 144,-73"/>
<text text-anchor="start" x="152" y="-94" font-family="Helvetica,sans-Serif" font-size="10.00">src/analysis/input</text>
<text text-anchor="middle" x="199" y="-81" font-family="Helvetica,sans-Serif" font-size="10.00">/ant/detail/Convert.cc</text>
</a>
</g>
<!-- Node1&#45;&gt;Node2 -->
<g id="edge2" class="edge"><title>Node1&#45;&gt;Node2</title>
<path fill="none" stroke="midnightblue" d="M443.004,-291.777C408.488,-285.427 365.295,-273.65 332,-252 272.817,-213.516 226.954,-140.326 208.211,-107.132"/>
<polygon fill="midnightblue" stroke="midnightblue" points="442.502,-295.243 452.954,-293.504 443.699,-288.346 442.502,-295.243"/>
</g>
<!-- Node3 -->
<g id="node5" class="node"><title>Node3</title>
<a xlink:href="_c_b___time_walk_8cc.html" target="_top" xlink:title="src/calibration/modules\l/CB_TimeWalk.cc">
<polygon fill="white" stroke="black" points="529.5,-217 529.5,-251 646.5,-251 646.5,-217 529.5,-217"/>
<text text-anchor="start" x="537.5" y="-238" font-family="Helvetica,sans-Serif" font-size="10.00">src/calibration/modules</text>
<text text-anchor="middle" x="588" y="-225" font-family="Helvetica,sans-Serif" font-size="10.00">/CB_TimeWalk.cc</text>
</a>
</g>
<!-- Node1&#45;&gt;Node3 -->
<g id="edge4" class="edge"><title>Node1&#45;&gt;Node3</title>
<path fill="none" stroke="midnightblue" d="M524.363,-282.098C536.979,-272.562 552.702,-260.679 565.362,-251.11"/>
<polygon fill="midnightblue" stroke="midnightblue" points="522.068,-279.445 516.201,-288.267 526.289,-285.029 522.068,-279.445"/>
</g>
<!-- Node4 -->
<g id="node7" class="node"><title>Node4</title>
<a xlink:href="_t_a_p_s___shower_correction_8h.html" target="_top" xlink:title="src/calibration/modules\l/TAPS_ShowerCorrection.h">
<polygon fill="white" stroke="black" points="663.5,-217 663.5,-251 800.5,-251 800.5,-217 663.5,-217"/>
<text text-anchor="start" x="671.5" y="-238" font-family="Helvetica,sans-Serif" font-size="10.00">src/calibration/modules</text>
<text text-anchor="middle" x="732" y="-225" font-family="Helvetica,sans-Serif" font-size="10.00">/TAPS_ShowerCorrection.h</text>
</a>
</g>
<!-- Node1&#45;&gt;Node4 -->
<g id="edge6" class="edge"><title>Node1&#45;&gt;Node4</title>
<path fill="none" stroke="midnightblue" d="M549.272,-285.64C584.641,-275.645 633.289,-261.897 671.497,-251.099"/>
<polygon fill="midnightblue" stroke="midnightblue" points="547.88,-282.397 539.209,-288.484 549.784,-289.133 547.88,-282.397"/>
</g>
<!-- Node7 -->
<g id="node13" class="node"><title>Node7</title>
<a xlink:href="_candidate_builder_8h.html" target="_top" xlink:title="src/reconstruct/Candidate\lBuilder.h">
<polygon fill="white" stroke="black" points="271.5,-73 271.5,-107 400.5,-107 400.5,-73 271.5,-73"/>
<text text-anchor="start" x="279.5" y="-94" font-family="Helvetica,sans-Serif" font-size="10.00">src/reconstruct/Candidate</text>
<text text-anchor="middle" x="336" y="-81" font-family="Helvetica,sans-Serif" font-size="10.00">Builder.h</text>
</a>
</g>
<!-- Node1&#45;&gt;Node7 -->
<g id="edge12" class="edge"><title>Node1&#45;&gt;Node7</title>
<path fill="none" stroke="midnightblue" d="M442.812,-286.921C407.191,-278.401 366.562,-266.036 355,-252 320.431,-210.034 327.028,-139.892 332.487,-107.444"/>
<polygon fill="midnightblue" stroke="midnightblue" points="442.165,-290.364 452.697,-289.22 443.75,-283.546 442.165,-290.364"/>
</g>
<!-- Node8 -->
<g id="node15" class="node"><title>Node8</title>
<a xlink:href="_candidate_builder_8cc.html" target="_top" xlink:title="src/reconstruct/Candidate\lBuilder.cc">
<polygon fill="white" stroke="black" points="-0.5,-1 -0.5,-35 128.5,-35 128.5,-1 -0.5,-1"/>
<text text-anchor="start" x="7.5" y="-22" font-family="Helvetica,sans-Serif" font-size="10.00">src/reconstruct/Candidate</text>
<text text-anchor="middle" x="64" y="-9" font-family="Helvetica,sans-Serif" font-size="10.00">Builder.cc</text>
</a>
</g>
<!-- Node1&#45;&gt;Node8 -->
<g id="edge22" class="edge"><title>Node1&#45;&gt;Node8</title>
<path fill="none" stroke="midnightblue" d="M442.72,-294.691C397.803,-289.434 335.717,-277.785 287,-252 184.825,-197.921 102.691,-79.3552 74.5044,-35.1034"/>
<polygon fill="midnightblue" stroke="midnightblue" points="442.567,-298.195 452.889,-295.807 443.331,-291.237 442.567,-298.195"/>
</g>
<!-- Node12 -->
<g id="node24" class="node"><title>Node12</title>
<a xlink:href="_clustering_8cc.html" target="_top" xlink:title="src/reconstruct/Clustering.cc">
<polygon fill="white" stroke="black" points="817.5,-223.5 817.5,-244.5 960.5,-244.5 960.5,-223.5 817.5,-223.5"/>
<text text-anchor="middle" x="889" y="-231.5" font-family="Helvetica,sans-Serif" font-size="10.00">src/reconstruct/Clustering.cc</text>
</a>
</g>
<!-- Node1&#45;&gt;Node12 -->
<g id="edge24" class="edge"><title>Node1&#45;&gt;Node12</title>
<path fill="none" stroke="midnightblue" d="M561.081,-291.195C623.049,-282.72 723.176,-268.205 809,-252 820.611,-249.808 833.102,-247.145 844.683,-244.547"/>
<polygon fill="midnightblue" stroke="midnightblue" points="560.532,-287.738 551.095,-292.554 561.476,-294.674 560.532,-287.738"/>
</g>
<!-- Node13 -->
<g id="node26" class="node"><title>Node13</title>
<a xlink:href="_t_candidate_8h.html" target="_top" xlink:title="src/tree/TCandidate.h">
<polygon fill="white" stroke="black" points="363.5,-223.5 363.5,-244.5 474.5,-244.5 474.5,-223.5 363.5,-223.5"/>
<text text-anchor="middle" x="419" y="-231.5" font-family="Helvetica,sans-Serif" font-size="10.00">src/tree/TCandidate.h</text>
</a>
</g>
<!-- Node1&#45;&gt;Node13 -->
<g id="edge26" class="edge"><title>Node1&#45;&gt;Node13</title>
<path fill="none" stroke="midnightblue" d="M480.417,-282.098C465.244,-270.215 445.415,-254.686 432.451,-244.534"/>
<polygon fill="midnightblue" stroke="midnightblue" points="478.263,-284.856 488.294,-288.267 482.579,-279.345 478.263,-284.856"/>
</g>
<!-- Node14 -->
<g id="node29" class="node"><title>Node14</title>
<a xlink:href="_t_event_8h.html" target="_top" xlink:title="src/tree/TEvent.h">
<polygon fill="white" stroke="black" points="520,-151.5 520,-172.5 612,-172.5 612,-151.5 520,-151.5"/>
<text text-anchor="middle" x="566" y="-159.5" font-family="Helvetica,sans-Serif" font-size="10.00">src/tree/TEvent.h</text>
</a>
</g>
<!-- Node1&#45;&gt;Node14 -->
<g id="edge52" class="edge"><title>Node1&#45;&gt;Node14</title>
<path fill="none" stroke="midnightblue" d="M504.046,-278.069C506.372,-260.716 511.204,-235.777 521,-216 529.341,-199.159 543.932,-183.039 554.234,-172.866"/>
<polygon fill="midnightblue" stroke="midnightblue" points="500.541,-277.907 502.852,-288.247 507.493,-278.723 500.541,-277.907"/>
</g>
<!-- Node21 -->
<g id="node48" class="node"><title>Node21</title>
<a xlink:href="_test_t_cluster_8cc.html" target="_top" xlink:title="test/tree/TestTCluster.cc">
<polygon fill="white" stroke="black" points="978,-223.5 978,-244.5 1104,-244.5 1104,-223.5 978,-223.5"/>
<text text-anchor="middle" x="1041" y="-231.5" font-family="Helvetica,sans-Serif" font-size="10.00">test/tree/TestTCluster.cc</text>
</a>
</g>
<!-- Node1&#45;&gt;Node21 -->
<g id="edge54" class="edge"><title>Node1&#45;&gt;Node21</title>
<path fill="none" stroke="midnightblue" d="M561.231,-295.793C650.261,-290.352 823.638,-277.348 969,-252 980.17,-250.052 992.168,-247.317 1003.11,-244.565"/>
<polygon fill="midnightblue" stroke="midnightblue" points="560.832,-292.31 551.06,-296.404 561.252,-299.298 560.832,-292.31"/>
</g>
<!-- Node5 -->
<g id="node9" class="node"><title>Node5</title>
<a xlink:href="_setup__2014___e_p_t_8cc.html" target="_top" xlink:title="src/expconfig/setups\l/Setup_2014_EPT.cc">
<polygon fill="white" stroke="black" points="653,-145 653,-179 763,-179 763,-145 653,-145"/>
<text text-anchor="start" x="661" y="-166" font-family="Helvetica,sans-Serif" font-size="10.00">src/expconfig/setups</text>
<text text-anchor="middle" x="708" y="-153" font-family="Helvetica,sans-Serif" font-size="10.00">/Setup_2014_EPT.cc</text>
</a>
</g>
<!-- Node4&#45;&gt;Node5 -->
<g id="edge8" class="edge"><title>Node4&#45;&gt;Node5</title>
<path fill="none" stroke="midnightblue" d="M723.105,-207.315C720.002,-198.005 716.601,-187.803 713.814,-179.441"/>
<polygon fill="midnightblue" stroke="midnightblue" points="719.83,-208.557 726.312,-216.937 726.47,-206.343 719.83,-208.557"/>
</g>
<!-- Node6 -->
<g id="node11" class="node"><title>Node6</title>
<a xlink:href="_setup___test_8cc.html" target="_top" xlink:title="src/expconfig/setups\l/Setup_Test.cc">
<polygon fill="white" stroke="black" points="780.5,-145 780.5,-179 887.5,-179 887.5,-145 780.5,-145"/>
<text text-anchor="start" x="788.5" y="-166" font-family="Helvetica,sans-Serif" font-size="10.00">src/expconfig/setups</text>
<text text-anchor="middle" x="834" y="-153" font-family="Helvetica,sans-Serif" font-size="10.00">/Setup_Test.cc</text>
</a>
</g>
<!-- Node4&#45;&gt;Node6 -->
<g id="edge10" class="edge"><title>Node4&#45;&gt;Node6</title>
<path fill="none" stroke="midnightblue" d="M764.478,-211.074C779.122,-200.738 796.123,-188.737 809.647,-179.19"/>
<polygon fill="midnightblue" stroke="midnightblue" points="762.324,-208.311 756.173,-216.937 766.361,-214.03 762.324,-208.311"/>
</g>
<!-- Node7&#45;&gt;Node8 -->
<g id="edge14" class="edge"><title>Node7&#45;&gt;Node8</title>
<path fill="none" stroke="midnightblue" d="M261.709,-70.3348C220.001,-59.2943 168.465,-45.6526 128.468,-35.0651"/>
<polygon fill="midnightblue" stroke="midnightblue" points="260.977,-73.7615 271.54,-72.937 262.768,-66.9945 260.977,-73.7615"/>
</g>
<!-- Node9 -->
<g id="node17" class="node"><title>Node9</title>
<a xlink:href="_reconstruct_8cc.html" target="_top" xlink:title="src/reconstruct/Reconstruct.cc">
<polygon fill="white" stroke="black" points="508,-7.5 508,-28.5 660,-28.5 660,-7.5 508,-7.5"/>
<text text-anchor="middle" x="584" y="-15.5" font-family="Helvetica,sans-Serif" font-size="10.00">src/reconstruct/Reconstruct.cc</text>
</a>
</g>
<!-- Node7&#45;&gt;Node9 -->
<g id="edge16" class="edge"><title>Node7&#45;&gt;Node9</title>
<path fill="none" stroke="midnightblue" d="M404.44,-70.1302C450.732,-56.6906 510.047,-39.4701 547.55,-28.5821"/>
<polygon fill="midnightblue" stroke="midnightblue" points="403.4,-66.7876 394.773,-72.937 405.352,-73.51 403.4,-66.7876"/>
</g>
<!-- Node10 -->
<g id="node19" class="node"><title>Node10</title>
<a xlink:href="_test_candidate_builder_8cc.html" target="_top" xlink:title="test/reconstruct/TestCandidate\lBuilder.cc">
<polygon fill="white" stroke="black" points="146,-1 146,-35 298,-35 298,-1 146,-1"/>
<text text-anchor="start" x="154" y="-22" font-family="Helvetica,sans-Serif" font-size="10.00">test/reconstruct/TestCandidate</text>
<text text-anchor="middle" x="222" y="-9" font-family="Helvetica,sans-Serif" font-size="10.00">Builder.cc</text>
</a>
</g>
<!-- Node7&#45;&gt;Node10 -->
<g id="edge18" class="edge"><title>Node7&#45;&gt;Node10</title>
<path fill="none" stroke="midnightblue" d="M300.159,-67.3637C283.69,-56.9622 264.474,-44.826 249.218,-35.19"/>
<polygon fill="midnightblue" stroke="midnightblue" points="298.66,-70.5562 308.984,-72.937 302.398,-64.6378 298.66,-70.5562"/>
</g>
<!-- Node11 -->
<g id="node21" class="node"><title>Node11</title>
<a xlink:href="_test_reconstruct_8cc.html" target="_top" xlink:title="test/reconstruct/TestReconstruct.cc">
<polygon fill="white" stroke="black" points="316,-7.5 316,-28.5 490,-28.5 490,-7.5 316,-7.5"/>
<text text-anchor="middle" x="403" y="-15.5" font-family="Helvetica,sans-Serif" font-size="10.00">test/reconstruct/TestReconstruct.cc</text>
</a>
</g>
<!-- Node7&#45;&gt;Node11 -->
<g id="edge20" class="edge"><title>Node7&#45;&gt;Node11</title>
<path fill="none" stroke="midnightblue" d="M358.784,-65.5161C370.362,-53.0732 383.85,-38.5787 392.856,-28.901"/>
<polygon fill="midnightblue" stroke="midnightblue" points="356.128,-63.232 351.878,-72.937 361.253,-68.0006 356.128,-63.232"/>
</g>
<!-- Node13&#45;&gt;Node2 -->
<g id="edge28" class="edge"><title>Node13&#45;&gt;Node2</title>
<path fill="none" stroke="midnightblue" d="M394.334,-217.855C352.487,-190.464 267.963,-135.14 225.138,-107.109"/>
<polygon fill="midnightblue" stroke="midnightblue" points="392.539,-220.863 402.823,-223.411 396.373,-215.006 392.539,-220.863"/>
</g>
<!-- Node13&#45;&gt;Node14 -->
<g id="edge30" class="edge"><title>Node13&#45;&gt;Node14</title>
<path fill="none" stroke="midnightblue" d="M449.739,-218.944C478.006,-205.099 519.212,-184.917 544.221,-172.667"/>
<polygon fill="midnightblue" stroke="midnightblue" points="448.131,-215.834 440.69,-223.376 451.211,-222.121 448.131,-215.834"/>
</g>
<!-- Node20 -->
<g id="node44" class="node"><title>Node20</title>
<a xlink:href="_test_t_event_8cc.html" target="_top" xlink:title="test/tree/TestTEvent.cc">
<polygon fill="white" stroke="black" points="418,-79.5 418,-100.5 538,-100.5 538,-79.5 418,-79.5"/>
<text text-anchor="middle" x="478" y="-87.5" font-family="Helvetica,sans-Serif" font-size="10.00">test/tree/TestTEvent.cc</text>
</a>
</g>
<!-- Node13&#45;&gt;Node20 -->
<g id="edge50" class="edge"><title>Node13&#45;&gt;Node20</title>
<path fill="none" stroke="midnightblue" d="M427.284,-213.781C440.006,-182.73 463.907,-124.397 473.674,-100.558"/>
<polygon fill="midnightblue" stroke="midnightblue" points="423.987,-212.596 423.435,-223.177 430.465,-215.25 423.987,-212.596"/>
</g>
<!-- Node14&#45;&gt;Node2 -->
<g id="edge34" class="edge"><title>Node14&#45;&gt;Node2</title>
<path fill="none" stroke="midnightblue" d="M509.572,-153.635C448.469,-144.185 348.299,-127.547 263,-108 260.075,-107.33 257.084,-106.61 254.07,-105.857"/>
<polygon fill="midnightblue" stroke="midnightblue" points="509.359,-157.143 519.774,-155.202 510.422,-150.225 509.359,-157.143"/>
</g>
<!-- Node14&#45;&gt;Node7 -->
<g id="edge36" class="edge"><title>Node14&#45;&gt;Node7</title>
<path fill="none" stroke="midnightblue" d="M522.455,-148.368C485.041,-136.656 430.914,-119.712 390.607,-107.094"/>
<polygon fill="midnightblue" stroke="midnightblue" points="521.474,-151.729 532.063,-151.376 523.565,-145.048 521.474,-151.729"/>
</g>
<!-- Node14&#45;&gt;Node9 -->
<g id="edge38" class="edge"><title>Node14&#45;&gt;Node9</title>
<path fill="none" stroke="midnightblue" d="M568.629,-140.965C572.535,-109.718 579.726,-52.1898 582.68,-28.5577"/>
<polygon fill="midnightblue" stroke="midnightblue" points="565.12,-140.82 567.353,-151.177 572.066,-141.688 565.12,-140.82"/>
</g>
<!-- Node15 -->
<g id="node31" class="node"><title>Node15</title>
<a xlink:href="_ant_reader_8cc.html" target="_top" xlink:title="src/analysis/input\l/ant/AntReader.cc">
<polygon fill="white" stroke="black" points="594,-73 594,-107 690,-107 690,-73 594,-73"/>
<text text-anchor="start" x="602" y="-94" font-family="Helvetica,sans-Serif" font-size="10.00">src/analysis/input</text>
<text text-anchor="middle" x="642" y="-81" font-family="Helvetica,sans-Serif" font-size="10.00">/ant/AntReader.cc</text>
</a>
</g>
<!-- Node14&#45;&gt;Node15 -->
<g id="edge32" class="edge"><title>Node14&#45;&gt;Node15</title>
<path fill="none" stroke="midnightblue" d="M584.51,-144.464C596.505,-133.1 612.054,-118.37 623.956,-107.094"/>
<polygon fill="midnightblue" stroke="midnightblue" points="582.066,-141.958 577.214,-151.376 586.881,-147.04 582.066,-141.958"/>
</g>
<!-- Node16 -->
<g id="node36" class="node"><title>Node16</title>
<a xlink:href="_unpacker_reader_8cc.html" target="_top" xlink:title="src/tree/UnpackerReader.cc">
<polygon fill="white" stroke="black" points="708,-79.5 708,-100.5 848,-100.5 848,-79.5 708,-79.5"/>
<text text-anchor="middle" x="778" y="-87.5" font-family="Helvetica,sans-Serif" font-size="10.00">src/tree/UnpackerReader.cc</text>
</a>
</g>
<!-- Node14&#45;&gt;Node16 -->
<g id="edge40" class="edge"><title>Node14&#45;&gt;Node16</title>
<path fill="none" stroke="midnightblue" d="M606.949,-148.093C647.876,-134.193 709.898,-113.129 746.936,-100.55"/>
<polygon fill="midnightblue" stroke="midnightblue" points="605.625,-144.846 597.281,-151.376 607.876,-151.474 605.625,-144.846"/>
</g>
<!-- Node17 -->
<g id="node38" class="node"><title>Node17</title>
<a xlink:href="_unpacker_writer_8cc.html" target="_top" xlink:title="src/tree/UnpackerWriter.cc">
<polygon fill="white" stroke="black" points="866,-79.5 866,-100.5 1000,-100.5 1000,-79.5 866,-79.5"/>
<text text-anchor="middle" x="933" y="-87.5" font-family="Helvetica,sans-Serif" font-size="10.00">src/tree/UnpackerWriter.cc</text>
</a>
</g>
<!-- Node14&#45;&gt;Node17 -->
<g id="edge42" class="edge"><title>Node14&#45;&gt;Node17</title>
<path fill="none" stroke="midnightblue" d="M619.492,-149.214C627.684,-147.384 636.055,-145.587 644,-144 738.15,-125.197 762.904,-127.074 857,-108 867.897,-105.791 879.611,-103.15 890.5,-100.581"/>
<polygon fill="midnightblue" stroke="midnightblue" points="618.609,-145.826 609.63,-151.45 620.157,-152.652 618.609,-145.826"/>
</g>
<!-- Node18 -->
<g id="node40" class="node"><title>Node18</title>
<a xlink:href="_test_ant_input_8cc.html" target="_top" xlink:title="test/analysis/TestAntInput.cc">
<polygon fill="white" stroke="black" points="1017.5,-79.5 1017.5,-100.5 1162.5,-100.5 1162.5,-79.5 1017.5,-79.5"/>
<text text-anchor="middle" x="1090" y="-87.5" font-family="Helvetica,sans-Serif" font-size="10.00">test/analysis/TestAntInput.cc</text>
</a>
</g>
<!-- Node14&#45;&gt;Node18 -->
<g id="edge44" class="edge"><title>Node14&#45;&gt;Node18</title>
<path fill="none" stroke="midnightblue" d="M617.027,-149.236C625.977,-147.281 635.231,-145.438 644,-144 804.86,-117.618 848.034,-133.727 1009,-108 1021.38,-106.022 1034.69,-103.309 1046.89,-100.59"/>
<polygon fill="midnightblue" stroke="midnightblue" points="616.079,-145.862 607.094,-151.476 617.619,-152.69 616.079,-145.862"/>
</g>
<!-- Node19 -->
<g id="node42" class="node"><title>Node19</title>
<a xlink:href="_test_ant_reader_8cc.html" target="_top" xlink:title="test/analysis/TestAntReader.cc">
<polygon fill="white" stroke="black" points="1179.5,-79.5 1179.5,-100.5 1334.5,-100.5 1334.5,-79.5 1179.5,-79.5"/>
<text text-anchor="middle" x="1257" y="-87.5" font-family="Helvetica,sans-Serif" font-size="10.00">test/analysis/TestAntReader.cc</text>
</a>
</g>
<!-- Node14&#45;&gt;Node19 -->
<g id="edge46" class="edge"><title>Node14&#45;&gt;Node19</title>
<path fill="none" stroke="midnightblue" d="M616.088,-149.209C625.321,-147.203 634.914,-145.35 644,-144 876.219,-109.497 938.44,-140.124 1171,-108 1184.6,-106.121 1199.27,-103.339 1212.57,-100.52"/>
<polygon fill="midnightblue" stroke="midnightblue" points="615.235,-145.813 606.251,-151.429 616.776,-152.641 615.235,-145.813"/>
</g>
<!-- Node14&#45;&gt;Node20 -->
<g id="edge48" class="edge"><title>Node14&#45;&gt;Node20</title>
<path fill="none" stroke="midnightblue" d="M544.889,-144.728C528.129,-131.015 505.228,-112.277 491.038,-100.667"/>
<polygon fill="midnightblue" stroke="midnightblue" points="543.059,-147.753 553.015,-151.376 547.492,-142.335 543.059,-147.753"/>
</g>
</g>
</svg>
