<?xml version="1.0" encoding="UTF-8" standalone="no"?>
<!DOCTYPE svg PUBLIC "-//W3C//DTD SVG 1.1//EN"
 "http://www.w3.org/Graphics/SVG/1.1/DTD/svg11.dtd">
<!-- Generated by graphviz version 2.26.3 (20100126.1600)
 -->
<!-- Title: src/tree/TCalibrationData.h Pages: 1 -->
<svg width="1327pt" height="304pt"
 viewBox="0.00 0.00 1326.51 304.00" xmlns="http://www.w3.org/2000/svg" xmlns:xlink="http://www.w3.org/1999/xlink">
<g id="graph1" class="graph" transform="scale(1 1) rotate(0) translate(4 300)">
<title>src/tree/TCalibrationData.h</title>
<polygon fill="white" stroke="white" points="-4,5 -4,-300 1323.51,-300 1323.51,5 -4,5"/>
<!-- Node1 -->
<g id="node1" class="node"><title>Node1</title>
<polygon fill="#bfbfbf" stroke="black" points="570.514,-274.5 570.514,-295.5 704.514,-295.5 704.514,-274.5 570.514,-274.5"/>
<text text-anchor="middle" x="637.514" y="-282.5" font-family="Helvetica,sans-Serif" font-size="10.00">src/tree/TCalibrationData.h</text>
</g>
<!-- Node2 -->
<g id="node3" class="node"><title>Node2</title>
<a xlink:href="_data_base_8h.html" target="_top" xlink:title="src/calibration/DataBase.h">
<polygon fill="white" stroke="black" points="208.514,-209.5 208.514,-230.5 340.514,-230.5 340.514,-209.5 208.514,-209.5"/>
<text text-anchor="middle" x="274.514" y="-217.5" font-family="Helvetica,sans-Serif" font-size="10.00">src/calibration/DataBase.h</text>
</a>
</g>
<!-- Node1&#45;&gt;Node2 -->
<g id="edge2" class="edge"><title>Node1&#45;&gt;Node2</title>
<path fill="none" stroke="midnightblue" d="M568.587,-272.658C500.485,-260.463 397.441,-242.012 333.155,-230.501"/>
<polygon fill="midnightblue" stroke="midnightblue" points="568.328,-276.167 578.789,-274.484 569.562,-269.277 568.328,-276.167"/>
</g>
<!-- Node4 -->
<g id="node7" class="node"><title>Node4</title>
<a xlink:href="_data_manager_8cc.html" target="_top" xlink:title="src/calibration/DataManager.cc">
<polygon fill="white" stroke="black" points="304.514,-144.5 304.514,-165.5 456.514,-165.5 456.514,-144.5 304.514,-144.5"/>
<text text-anchor="middle" x="380.514" y="-152.5" font-family="Helvetica,sans-Serif" font-size="10.00">src/calibration/DataManager.cc</text>
</a>
</g>
<!-- Node1&#45;&gt;Node4 -->
<g id="edge28" class="edge"><title>Node1&#45;&gt;Node4</title>
<path fill="none" stroke="midnightblue" d="M564.04,-272.181C533.803,-264.947 499.214,-254.04 470.514,-238 435.818,-218.609 403.788,-183.259 389.043,-165.613"/>
<polygon fill="midnightblue" stroke="midnightblue" points="563.583,-275.668 574.113,-274.496 565.151,-268.845 563.583,-275.668"/>
</g>
<!-- Node6 -->
<g id="node11" class="node"><title>Node6</title>
<a xlink:href="_editor_8cc.html" target="_top" xlink:title="src/calibration/Editor.cc">
<polygon fill="white" stroke="black" points="392.014,-79.5 392.014,-100.5 511.014,-100.5 511.014,-79.5 392.014,-79.5"/>
<text text-anchor="middle" x="451.514" y="-87.5" font-family="Helvetica,sans-Serif" font-size="10.00">src/calibration/Editor.cc</text>
</a>
</g>
<!-- Node1&#45;&gt;Node6 -->
<g id="edge30" class="edge"><title>Node1&#45;&gt;Node6</title>
<path fill="none" stroke="midnightblue" d="M562.388,-271.471C541.132,-264.495 519.467,-253.944 503.514,-238 493.305,-227.796 464.344,-132.995 454.69,-100.709"/>
<polygon fill="midnightblue" stroke="midnightblue" points="561.518,-274.865 572.104,-274.431 563.558,-268.169 561.518,-274.865"/>
</g>
<!-- Node8 -->
<g id="node15" class="node"><title>Node8</title>
<a xlink:href="_editor_canvas_8cc.html" target="_top" xlink:title="src/calibration/gui\l/EditorCanvas.cc">
<polygon fill="white" stroke="black" points="32.0142,-1 32.0142,-35 125.014,-35 125.014,-1 32.0142,-1"/>
<text text-anchor="start" x="40.0142" y="-22" font-family="Helvetica,sans-Serif" font-size="10.00">src/calibration/gui</text>
<text text-anchor="middle" x="78.5142" y="-9" font-family="Helvetica,sans-Serif" font-size="10.00">/EditorCanvas.cc</text>
</a>
</g>
<!-- Node1&#45;&gt;Node8 -->
<g id="edge32" class="edge"><title>Node1&#45;&gt;Node8</title>
<path fill="none" stroke="midnightblue" d="M560.08,-283.19C406.17,-277.676 71.2626,-255.433 9.51418,-166 -20.4459,-122.608 29.5544,-64.1416 59.1384,-35.4124"/>
<polygon fill="midnightblue" stroke="midnightblue" points="560.283,-286.699 570.397,-283.545 560.523,-279.704 560.283,-286.699"/>
</g>
<!-- Node12 -->
<g id="node29" class="node"><title>Node12</title>
<a xlink:href="_c_b___time_walk_8cc.html" target="_top" xlink:title="src/calibration/modules\l/CB_TimeWalk.cc">
<polygon fill="white" stroke="black" points="512.014,-203 512.014,-237 629.014,-237 629.014,-203 512.014,-203"/>
<text text-anchor="start" x="520.014" y="-224" font-family="Helvetica,sans-Serif" font-size="10.00">src/calibration/modules</text>
<text text-anchor="middle" x="570.514" y="-211" font-family="Helvetica,sans-Serif" font-size="10.00">/CB_TimeWalk.cc</text>
</a>
</g>
<!-- Node1&#45;&gt;Node12 -->
<g id="edge34" class="edge"><title>Node1&#45;&gt;Node12</title>
<path fill="none" stroke="midnightblue" d="M619.235,-267.267C609.558,-257.879 597.729,-246.403 588.15,-237.11"/>
<polygon fill="midnightblue" stroke="midnightblue" points="616.836,-269.816 626.45,-274.267 621.71,-264.791 616.836,-269.816"/>
</g>
<!-- Node13 -->
<g id="node31" class="node"><title>Node13</title>
<a xlink:href="_energy_8cc.html" target="_top" xlink:title="src/calibration/modules\l/Energy.cc">
<polygon fill="white" stroke="black" points="646.014,-203 646.014,-237 763.014,-237 763.014,-203 646.014,-203"/>
<text text-anchor="start" x="654.014" y="-224" font-family="Helvetica,sans-Serif" font-size="10.00">src/calibration/modules</text>
<text text-anchor="middle" x="704.514" y="-211" font-family="Helvetica,sans-Serif" font-size="10.00">/Energy.cc</text>
</a>
</g>
<!-- Node1&#45;&gt;Node13 -->
<g id="edge36" class="edge"><title>Node1&#45;&gt;Node13</title>
<path fill="none" stroke="midnightblue" d="M655.793,-267.267C665.47,-257.879 677.299,-246.403 686.878,-237.11"/>
<polygon fill="midnightblue" stroke="midnightblue" points="653.318,-264.791 648.578,-274.267 658.192,-269.816 653.318,-264.791"/>
</g>
<!-- Node14 -->
<g id="node33" class="node"><title>Node14</title>
<a xlink:href="_p_i_d___phi_angle_8cc.html" target="_top" xlink:title="src/calibration/modules\l/PID_PhiAngle.cc">
<polygon fill="white" stroke="black" points="780.014,-203 780.014,-237 897.014,-237 897.014,-203 780.014,-203"/>
<text text-anchor="start" x="788.014" y="-224" font-family="Helvetica,sans-Serif" font-size="10.00">src/calibration/modules</text>
<text text-anchor="middle" x="838.514" y="-211" font-family="Helvetica,sans-Serif" font-size="10.00">/PID_PhiAngle.cc</text>
</a>
</g>
<!-- Node1&#45;&gt;Node14 -->
<g id="edge38" class="edge"><title>Node1&#45;&gt;Node14</title>
<path fill="none" stroke="midnightblue" d="M679.856,-271.307C710.712,-261.329 752.719,-247.745 785.758,-237.06"/>
<polygon fill="midnightblue" stroke="midnightblue" points="678.694,-268.005 670.256,-274.412 680.847,-274.665 678.694,-268.005"/>
</g>
<!-- Node15 -->
<g id="node35" class="node"><title>Node15</title>
<a xlink:href="_time_8cc.html" target="_top" xlink:title="src/calibration/modules\l/Time.cc">
<polygon fill="white" stroke="black" points="914.014,-203 914.014,-237 1031.01,-237 1031.01,-203 914.014,-203"/>
<text text-anchor="start" x="922.014" y="-224" font-family="Helvetica,sans-Serif" font-size="10.00">src/calibration/modules</text>
<text text-anchor="middle" x="972.514" y="-211" font-family="Helvetica,sans-Serif" font-size="10.00">/Time.cc</text>
</a>
</g>
<!-- Node1&#45;&gt;Node15 -->
<g id="edge40" class="edge"><title>Node1&#45;&gt;Node15</title>
<path fill="none" stroke="midnightblue" d="M714.886,-273.298C768.61,-264.718 841.715,-252.135 905.514,-238 908.219,-237.401 910.978,-236.764 913.761,-236.101"/>
<polygon fill="midnightblue" stroke="midnightblue" points="714.076,-269.883 704.748,-274.907 715.173,-276.797 714.076,-269.883"/>
</g>
<!-- Node16 -->
<g id="node37" class="node"><title>Node16</title>
<a xlink:href="_test_data_manager_8cc.html" target="_top" xlink:title="test/calibration/TestData\lManager.cc">
<polygon fill="white" stroke="black" points="1048.51,-203 1048.51,-237 1172.51,-237 1172.51,-203 1048.51,-203"/>
<text text-anchor="start" x="1056.51" y="-224" font-family="Helvetica,sans-Serif" font-size="10.00">test/calibration/TestData</text>
<text text-anchor="middle" x="1110.51" y="-211" font-family="Helvetica,sans-Serif" font-size="10.00">Manager.cc</text>
</a>
</g>
<!-- Node1&#45;&gt;Node16 -->
<g id="edge42" class="edge"><title>Node1&#45;&gt;Node16</title>
<path fill="none" stroke="midnightblue" d="M714.929,-279.001C796.212,-271.991 927.521,-258.65 1039.51,-238 1042.39,-237.47 1045.32,-236.889 1048.28,-236.272"/>
<polygon fill="midnightblue" stroke="midnightblue" points="714.447,-275.529 704.78,-279.866 715.041,-282.504 714.447,-275.529"/>
</g>
<!-- Node17 -->
<g id="node39" class="node"><title>Node17</title>
<a xlink:href="_test_t_calibration_data_8cc.html" target="_top" xlink:title="test/tree/TestTCalibration\lData.cc">
<polygon fill="white" stroke="black" points="1190.51,-203 1190.51,-237 1318.51,-237 1318.51,-203 1190.51,-203"/>
<text text-anchor="start" x="1198.51" y="-224" font-family="Helvetica,sans-Serif" font-size="10.00">test/tree/TestTCalibration</text>
<text text-anchor="middle" x="1254.51" y="-211" font-family="Helvetica,sans-Serif" font-size="10.00">Data.cc</text>
</a>
</g>
<!-- Node1&#45;&gt;Node17 -->
<g id="edge44" class="edge"><title>Node1&#45;&gt;Node17</title>
<path fill="none" stroke="midnightblue" d="M715.219,-282.089C821.213,-277.255 1016.78,-265.255 1181.51,-238 1184.35,-237.531 1187.23,-237.01 1190.14,-236.449"/>
<polygon fill="midnightblue" stroke="midnightblue" points="714.766,-278.606 704.933,-282.548 715.079,-285.599 714.766,-278.606"/>
</g>
<!-- Node3 -->
<g id="node5" class="node"><title>Node3</title>
<a xlink:href="_data_base_8cc.html" target="_top" xlink:title="src/calibration/DataBase.cc">
<polygon fill="white" stroke="black" points="18.0142,-144.5 18.0142,-165.5 155.014,-165.5 155.014,-144.5 18.0142,-144.5"/>
<text text-anchor="middle" x="86.5142" y="-152.5" font-family="Helvetica,sans-Serif" font-size="10.00">src/calibration/DataBase.cc</text>
</a>
</g>
<!-- Node2&#45;&gt;Node3 -->
<g id="edge4" class="edge"><title>Node2&#45;&gt;Node3</title>
<path fill="none" stroke="midnightblue" d="M234.42,-206.138C199.321,-194.002 149.075,-176.63 117.125,-165.584"/>
<polygon fill="midnightblue" stroke="midnightblue" points="233.296,-209.452 243.89,-209.412 235.583,-202.836 233.296,-209.452"/>
</g>
<!-- Node2&#45;&gt;Node4 -->
<g id="edge6" class="edge"><title>Node2&#45;&gt;Node4</title>
<path fill="none" stroke="midnightblue" d="M300.742,-203.917C320.278,-191.937 346.396,-175.921 363.336,-165.534"/>
<polygon fill="midnightblue" stroke="midnightblue" points="298.713,-201.055 292.018,-209.267 302.372,-207.023 298.713,-201.055"/>
</g>
<!-- Node5 -->
<g id="node9" class="node"><title>Node5</title>
<a xlink:href="_editor_8h.html" target="_top" xlink:title="src/calibration/Editor.h">
<polygon fill="white" stroke="black" points="172.514,-144.5 172.514,-165.5 286.514,-165.5 286.514,-144.5 172.514,-144.5"/>
<text text-anchor="middle" x="229.514" y="-152.5" font-family="Helvetica,sans-Serif" font-size="10.00">src/calibration/Editor.h</text>
</a>
</g>
<!-- Node2&#45;&gt;Node5 -->
<g id="edge8" class="edge"><title>Node2&#45;&gt;Node5</title>
<path fill="none" stroke="midnightblue" d="M261.183,-200.744C253.208,-189.225 243.38,-175.028 236.807,-165.534"/>
<polygon fill="midnightblue" stroke="midnightblue" points="258.514,-203.037 267.083,-209.267 264.269,-199.052 258.514,-203.037"/>
</g>
<!-- Node5&#45;&gt;Node6 -->
<g id="edge10" class="edge"><title>Node5&#45;&gt;Node6</title>
<path fill="none" stroke="midnightblue" d="M275.274,-141.602C316.781,-129.449 377.155,-111.772 415.367,-100.584"/>
<polygon fill="midnightblue" stroke="midnightblue" points="274.29,-138.243 265.676,-144.412 276.257,-144.961 274.29,-138.243"/>
</g>
<!-- Node7 -->
<g id="node13" class="node"><title>Node7</title>
<a xlink:href="_editor_canvas_8h.html" target="_top" xlink:title="src/calibration/gui\l/EditorCanvas.h">
<polygon fill="white" stroke="black" points="106.014,-73 106.014,-107 199.014,-107 199.014,-73 106.014,-73"/>
<text text-anchor="start" x="114.014" y="-94" font-family="Helvetica,sans-Serif" font-size="10.00">src/calibration/gui</text>
<text text-anchor="middle" x="152.514" y="-81" font-family="Helvetica,sans-Serif" font-size="10.00">/EditorCanvas.h</text>
</a>
</g>
<!-- Node5&#45;&gt;Node7 -->
<g id="edge12" class="edge"><title>Node5&#45;&gt;Node7</title>
<path fill="none" stroke="midnightblue" d="M208.837,-137.545C197.655,-128.106 183.9,-116.495 172.783,-107.11"/>
<polygon fill="midnightblue" stroke="midnightblue" points="206.9,-140.491 216.799,-144.267 211.415,-135.142 206.9,-140.491"/>
</g>
<!-- Node5&#45;&gt;Node8 -->
<g id="edge18" class="edge"><title>Node5&#45;&gt;Node8</title>
<path fill="none" stroke="midnightblue" d="M176.507,-141.807C144.698,-132.845 108.36,-120.406 97.5142,-108 79.7511,-87.6815 77.1605,-54.9672 77.4513,-35.0784"/>
<polygon fill="midnightblue" stroke="midnightblue" points="175.63,-145.196 186.201,-144.473 177.487,-138.447 175.63,-145.196"/>
</g>
<!-- Node10 -->
<g id="node20" class="node"><title>Node10</title>
<a xlink:href="_editor_window_8h.html" target="_top" xlink:title="src/calibration/gui\l/EditorWindow.h">
<polygon fill="white" stroke="black" points="216.014,-73 216.014,-107 309.014,-107 309.014,-73 216.014,-73"/>
<text text-anchor="start" x="224.014" y="-94" font-family="Helvetica,sans-Serif" font-size="10.00">src/calibration/gui</text>
<text text-anchor="middle" x="262.514" y="-81" font-family="Helvetica,sans-Serif" font-size="10.00">/EditorWindow.h</text>
</a>
</g>
<!-- Node5&#45;&gt;Node10 -->
<g id="edge20" class="edge"><title>Node5&#45;&gt;Node10</title>
<path fill="none" stroke="midnightblue" d="M239.523,-135.286C244.086,-126.298 249.437,-115.759 253.828,-107.11"/>
<polygon fill="midnightblue" stroke="midnightblue" points="236.37,-133.765 234.963,-144.267 242.611,-136.934 236.37,-133.765"/>
</g>
<!-- Node7&#45;&gt;Node8 -->
<g id="edge14" class="edge"><title>Node7&#45;&gt;Node8</title>
<path fill="none" stroke="midnightblue" d="M127.753,-65.9083C117.409,-55.8438 105.627,-44.3799 96.1817,-35.19"/>
<polygon fill="midnightblue" stroke="midnightblue" points="125.369,-68.472 134.977,-72.937 130.251,-63.4549 125.369,-68.472"/>
</g>
<!-- Node9 -->
<g id="node17" class="node"><title>Node9</title>
<a xlink:href="_editor_window_8cc.html" target="_top" xlink:title="src/calibration/gui\l/EditorWindow.cc">
<polygon fill="white" stroke="black" points="142.514,-1 142.514,-35 236.514,-35 236.514,-1 142.514,-1"/>
<text text-anchor="start" x="150.514" y="-22" font-family="Helvetica,sans-Serif" font-size="10.00">src/calibration/gui</text>
<text text-anchor="middle" x="189.514" y="-9" font-family="Helvetica,sans-Serif" font-size="10.00">/EditorWindow.cc</text>
</a>
</g>
<!-- Node7&#45;&gt;Node9 -->
<g id="edge16" class="edge"><title>Node7&#45;&gt;Node9</title>
<path fill="none" stroke="midnightblue" d="M165.923,-63.9077C170.788,-54.4402 176.163,-43.9813 180.552,-35.4407"/>
<polygon fill="midnightblue" stroke="midnightblue" points="162.74,-62.4429 161.283,-72.937 168.966,-65.6424 162.74,-62.4429"/>
</g>
<!-- Node10&#45;&gt;Node8 -->
<g id="edge24" class="edge"><title>Node10&#45;&gt;Node8</title>
<path fill="none" stroke="midnightblue" d="M209.379,-69.2081C181.699,-58.3768 148.269,-45.2952 122.125,-35.0651"/>
<polygon fill="midnightblue" stroke="midnightblue" points="208.321,-72.5523 218.909,-72.937 210.872,-66.0336 208.321,-72.5523"/>
</g>
<!-- Node10&#45;&gt;Node9 -->
<g id="edge26" class="edge"><title>Node10&#45;&gt;Node9</title>
<path fill="none" stroke="midnightblue" d="M238.088,-65.9083C227.884,-55.8438 216.26,-44.3799 206.943,-35.19"/>
<polygon fill="midnightblue" stroke="midnightblue" points="235.637,-68.4067 245.214,-72.937 240.552,-63.4229 235.637,-68.4067"/>
</g>
<!-- Node11 -->
<g id="node22" class="node"><title>Node11</title>
<a xlink:href="_ant-calib-editor_8cc.html" target="_top" xlink:title="progs/Ant&#45;calib&#45;editor.cc">
<polygon fill="white" stroke="black" points="254.514,-7.5 254.514,-28.5 376.514,-28.5 376.514,-7.5 254.514,-7.5"/>
<text text-anchor="middle" x="315.514" y="-15.5" font-family="Helvetica,sans-Serif" font-size="10.00">progs/Ant&#45;calib&#45;editor.cc</text>
</a>
</g>
<!-- Node10&#45;&gt;Node11 -->
<g id="edge22" class="edge"><title>Node10&#45;&gt;Node11</title>
<path fill="none" stroke="midnightblue" d="M281.057,-64.8096C290.098,-52.5279 300.5,-38.3961 307.49,-28.901"/>
<polygon fill="midnightblue" stroke="midnightblue" points="278.184,-62.8087 275.074,-72.937 283.821,-66.9585 278.184,-62.8087"/>
</g>
</g>
</svg>
