<?xml version="1.0" encoding="UTF-8" standalone="no"?>
<!DOCTYPE svg PUBLIC "-//W3C//DTD SVG 1.1//EN"
 "http://www.w3.org/Graphics/SVG/1.1/DTD/svg11.dtd">
<!-- Generated by graphviz version 2.26.3 (20100126.1600)
 -->
<!-- Title: src/base/cbtaps_display/TH2DrawTool.h Pages: 1 -->
<svg width="639pt" height="188pt"
 viewBox="0.00 0.00 639.00 188.00" xmlns="http://www.w3.org/2000/svg" xmlns:xlink="http://www.w3.org/1999/xlink">
<g id="graph1" class="graph" transform="scale(1 1) rotate(0) translate(4 184)">
<title>src/base/cbtaps_display/TH2DrawTool.h</title>
<polygon fill="white" stroke="white" points="-4,5 -4,-184 636,-184 636,5 -4,5"/>
<!-- Node1 -->
<g id="node1" class="node"><title>Node1</title>
<polygon fill="#bfbfbf" stroke="black" points="245,-145 245,-179 367,-179 367,-145 245,-145"/>
<text text-anchor="start" x="253" y="-166" font-family="Helvetica,sans-Serif" font-size="10.00">src/base/cbtaps_display</text>
<text text-anchor="middle" x="306" y="-153" font-family="Helvetica,sans-Serif" font-size="10.00">/TH2DrawTool.h</text>
</g>
<!-- Node2 -->
<g id="node3" class="node"><title>Node2</title>
<a xlink:href="_t_h2_c_b_8h.html" target="_top" xlink:title="src/base/cbtaps_display\l/TH2CB.h">
<polygon fill="white" stroke="black" points="105,-73 105,-107 227,-107 227,-73 105,-73"/>
<text text-anchor="start" x="113" y="-94" font-family="Helvetica,sans-Serif" font-size="10.00">src/base/cbtaps_display</text>
<text text-anchor="middle" x="166" y="-81" font-family="Helvetica,sans-Serif" font-size="10.00">/TH2CB.h</text>
</a>
</g>
<!-- Node1&#45;&gt;Node2 -->
<g id="edge2" class="edge"><title>Node1&#45;&gt;Node2</title>
<path fill="none" stroke="midnightblue" d="M263.662,-140.226C243.075,-129.638 218.682,-117.094 199.425,-107.19"/>
<polygon fill="midnightblue" stroke="midnightblue" points="262.328,-143.476 272.822,-144.937 265.53,-137.251 262.328,-143.476"/>
</g>
<!-- Node5 -->
<g id="node9" class="node"><title>Node5</title>
<a xlink:href="_t_h2_draw_tool_8cc.html" target="_top" xlink:title="src/base/cbtaps_display\l/TH2DrawTool.cc">
<polygon fill="white" stroke="black" points="245,-73 245,-107 367,-107 367,-73 245,-73"/>
<text text-anchor="start" x="253" y="-94" font-family="Helvetica,sans-Serif" font-size="10.00">src/base/cbtaps_display</text>
<text text-anchor="middle" x="306" y="-81" font-family="Helvetica,sans-Serif" font-size="10.00">/TH2DrawTool.cc</text>
</a>
</g>
<!-- Node1&#45;&gt;Node5 -->
<g id="edge8" class="edge"><title>Node1&#45;&gt;Node5</title>
<path fill="none" stroke="midnightblue" d="M306,-134.719C306,-125.572 306,-115.625 306,-107.441"/>
<polygon fill="midnightblue" stroke="midnightblue" points="302.5,-134.937 306,-144.937 309.5,-134.937 302.5,-134.937"/>
</g>
<!-- Node6 -->
<g id="node11" class="node"><title>Node6</title>
<a xlink:href="_t_h2_t_a_p_s_8h.html" target="_top" xlink:title="src/base/cbtaps_display\l/TH2TAPS.h">
<polygon fill="white" stroke="black" points="385,-73 385,-107 507,-107 507,-73 385,-73"/>
<text text-anchor="start" x="393" y="-94" font-family="Helvetica,sans-Serif" font-size="10.00">src/base/cbtaps_display</text>
<text text-anchor="middle" x="446" y="-81" font-family="Helvetica,sans-Serif" font-size="10.00">/TH2TAPS.h</text>
</a>
</g>
<!-- Node1&#45;&gt;Node6 -->
<g id="edge10" class="edge"><title>Node1&#45;&gt;Node6</title>
<path fill="none" stroke="midnightblue" d="M348.338,-140.226C368.925,-129.638 393.318,-117.094 412.575,-107.19"/>
<polygon fill="midnightblue" stroke="midnightblue" points="346.47,-137.251 339.178,-144.937 349.672,-143.476 346.47,-137.251"/>
</g>
<!-- Node3 -->
<g id="node5" class="node"><title>Node3</title>
<a xlink:href="_t_h2_c_b_8cc.html" target="_top" xlink:title="src/base/cbtaps_display\l/TH2CB.cc">
<polygon fill="white" stroke="black" points="0,-1 0,-35 122,-35 122,-1 0,-1"/>
<text text-anchor="start" x="8" y="-22" font-family="Helvetica,sans-Serif" font-size="10.00">src/base/cbtaps_display</text>
<text text-anchor="middle" x="61" y="-9" font-family="Helvetica,sans-Serif" font-size="10.00">/TH2CB.cc</text>
</a>
</g>
<!-- Node2&#45;&gt;Node3 -->
<g id="edge4" class="edge"><title>Node2&#45;&gt;Node3</title>
<path fill="none" stroke="midnightblue" d="M132.567,-67.0743C117.492,-56.7376 99.9911,-44.7368 86.0688,-35.19"/>
<polygon fill="midnightblue" stroke="midnightblue" points="130.89,-70.1682 141.116,-72.937 134.849,-64.3951 130.89,-70.1682"/>
</g>
<!-- Node4 -->
<g id="node7" class="node"><title>Node4</title>
<a xlink:href="_c_b___energy_8cc.html" target="_top" xlink:title="src/calibration/modules\l/CB_Energy.cc">
<polygon fill="white" stroke="black" points="139.5,-1 139.5,-35 256.5,-35 256.5,-1 139.5,-1"/>
<text text-anchor="start" x="147.5" y="-22" font-family="Helvetica,sans-Serif" font-size="10.00">src/calibration/modules</text>
<text text-anchor="middle" x="198" y="-9" font-family="Helvetica,sans-Serif" font-size="10.00">/CB_Energy.cc</text>
</a>
</g>
<!-- Node2&#45;&gt;Node4 -->
<g id="edge6" class="edge"><title>Node2&#45;&gt;Node4</title>
<path fill="none" stroke="midnightblue" d="M177.728,-63.6116C181.901,-54.2225 186.492,-43.8924 190.249,-35.4407"/>
<polygon fill="midnightblue" stroke="midnightblue" points="174.447,-62.3774 173.584,-72.937 180.843,-65.2204 174.447,-62.3774"/>
</g>
<!-- Node7 -->
<g id="node13" class="node"><title>Node7</title>
<a xlink:href="_reconstruct_check_8cc.html" target="_top" xlink:title="src/analysis/physics\l/common/ReconstructCheck.cc">
<polygon fill="white" stroke="black" points="336.5,-1 336.5,-35 491.5,-35 491.5,-1 336.5,-1"/>
<text text-anchor="start" x="344.5" y="-22" font-family="Helvetica,sans-Serif" font-size="10.00">src/analysis/physics</text>
<text text-anchor="middle" x="414" y="-9" font-family="Helvetica,sans-Serif" font-size="10.00">/common/ReconstructCheck.cc</text>
</a>
</g>
<!-- Node6&#45;&gt;Node7 -->
<g id="edge12" class="edge"><title>Node6&#45;&gt;Node7</title>
<path fill="none" stroke="midnightblue" d="M434.272,-63.6116C430.099,-54.2225 425.508,-43.8924 421.751,-35.4407"/>
<polygon fill="midnightblue" stroke="midnightblue" points="431.157,-65.2204 438.416,-72.937 437.553,-62.3774 431.157,-65.2204"/>
</g>
<!-- Node8 -->
<g id="node15" class="node"><title>Node8</title>
<a xlink:href="_t_h2_t_a_p_s_8cc.html" target="_top" xlink:title="src/base/cbtaps_display\l/TH2TAPS.cc">
<polygon fill="white" stroke="black" points="509,-1 509,-35 631,-35 631,-1 509,-1"/>
<text text-anchor="start" x="517" y="-22" font-family="Helvetica,sans-Serif" font-size="10.00">src/base/cbtaps_display</text>
<text text-anchor="middle" x="570" y="-9" font-family="Helvetica,sans-Serif" font-size="10.00">/TH2TAPS.cc</text>
</a>
</g>
<!-- Node6&#45;&gt;Node8 -->
<g id="edge14" class="edge"><title>Node6&#45;&gt;Node8</title>
<path fill="none" stroke="midnightblue" d="M484.488,-67.6522C502.511,-57.1871 523.646,-44.9152 540.395,-35.19"/>
<polygon fill="midnightblue" stroke="midnightblue" points="482.277,-64.8888 475.386,-72.937 485.792,-70.9424 482.277,-64.8888"/>
</g>
</g>
</svg>
