<?xml version="1.0" encoding="UTF-8" standalone="no"?>
<!DOCTYPE svg PUBLIC "-//W3C//DTD SVG 1.1//EN"
 "http://www.w3.org/Graphics/SVG/1.1/DTD/svg11.dtd">
<!-- Generated by graphviz version 2.26.3 (20100126.1600)
 -->
<!-- Title: src/analysis/plot/TH1Dcut.h Pages: 1 -->
<svg width="302pt" height="114pt"
 viewBox="0.00 0.00 302.00 114.00" xmlns="http://www.w3.org/2000/svg" xmlns:xlink="http://www.w3.org/1999/xlink">
<g id="graph1" class="graph" transform="scale(1 1) rotate(0) translate(4 110)">
<title>src/analysis/plot/TH1Dcut.h</title>
<polygon fill="white" stroke="white" points="-4,5 -4,-110 299,-110 299,5 -4,5"/>
<!-- Node1 -->
<g id="node1" class="node"><title>Node1</title>
<polygon fill="#bfbfbf" stroke="black" points="74.5,-84.5 74.5,-105.5 213.5,-105.5 213.5,-84.5 74.5,-84.5"/>
<text text-anchor="middle" x="144" y="-92.5" font-family="Helvetica,sans-Serif" font-size="10.00">src/analysis/plot/TH1Dcut.h</text>
</g>
<!-- Node2 -->
<g id="node3" class="node"><title>Node2</title>
<a xlink:href="etaprime__omega__gamma_8cc.html" target="_top" xlink:title="src/analysis/physics\l/etaprime/etaprime_omega\l_gamma.cc">
<polygon fill="white" stroke="black" points="0,-0.5 0,-47.5 132,-47.5 132,-0.5 0,-0.5"/>
<text text-anchor="start" x="8" y="-34.5" font-family="Helvetica,sans-Serif" font-size="10.00">src/analysis/physics</text>
<text text-anchor="start" x="8" y="-21.5" font-family="Helvetica,sans-Serif" font-size="10.00">/etaprime/etaprime_omega</text>
<text text-anchor="middle" x="66" y="-8.5" font-family="Helvetica,sans-Serif" font-size="10.00">_gamma.cc</text>
</a>
</g>
<!-- Node1&#45;&gt;Node2 -->
<g id="edge2" class="edge"><title>Node1&#45;&gt;Node2</title>
<path fill="none" stroke="midnightblue" d="M124.472,-77.2249C114.605,-68.243 102.5,-57.2248 91.8696,-47.548"/>
<polygon fill="midnightblue" stroke="midnightblue" points="122.402,-80.0734 132.153,-84.2166 127.114,-74.8969 122.402,-80.0734"/>
</g>
<!-- Node3 -->
<g id="node5" class="node"><title>Node3</title>
<a xlink:href="_t_h1_dcut_8cc.html" target="_top" xlink:title="src/analysis/plot/TH1Dcut.cc">
<polygon fill="white" stroke="black" points="150,-13.5 150,-34.5 294,-34.5 294,-13.5 150,-13.5"/>
<text text-anchor="middle" x="222" y="-21.5" font-family="Helvetica,sans-Serif" font-size="10.00">src/analysis/plot/TH1Dcut.cc</text>
</a>
</g>
<!-- Node1&#45;&gt;Node3 -->
<g id="edge4" class="edge"><title>Node1&#45;&gt;Node3</title>
<path fill="none" stroke="midnightblue" d="M163.433,-77.3111C178.161,-63.9052 197.913,-45.9256 210.298,-34.6522"/>
<polygon fill="midnightblue" stroke="midnightblue" points="160.886,-74.8969 155.847,-84.2166 165.598,-80.0734 160.886,-74.8969"/>
</g>
</g>
</svg>
