<?xml version="1.0" encoding="UTF-8" standalone="no"?>
<!DOCTYPE svg PUBLIC "-//W3C//DTD SVG 1.1//EN"
 "http://www.w3.org/Graphics/SVG/1.1/DTD/svg11.dtd">
<!-- Generated by graphviz version 2.26.3 (20100126.1600)
 -->
<!-- Title: src/analysis/plot/TH1Dcut.cc Pages: 1 -->
<svg width="152pt" height="146pt"
 viewBox="0.00 0.00 152.00 146.00" xmlns="http://www.w3.org/2000/svg" xmlns:xlink="http://www.w3.org/1999/xlink">
<g id="graph1" class="graph" transform="scale(1 1) rotate(0) translate(4 142)">
<title>src/analysis/plot/TH1Dcut.cc</title>
<polygon fill="white" stroke="white" points="-4,5 -4,-142 149,-142 149,5 -4,5"/>
<!-- Node1 -->
<g id="node1" class="node"><title>Node1</title>
<polygon fill="#bfbfbf" stroke="black" points="0,-116.5 0,-137.5 144,-137.5 144,-116.5 0,-116.5"/>
<text text-anchor="middle" x="72" y="-124.5" font-family="Helvetica,sans-Serif" font-size="10.00">src/analysis/plot/TH1Dcut.cc</text>
</g>
<!-- Node2 -->
<g id="node3" class="node"><title>Node2</title>
<a xlink:href="_t_h1_dcut_8h.html" target="_top" xlink:title="TH1Dcut.h">
<polygon fill="white" stroke="black" points="39.5,-58.5 39.5,-79.5 104.5,-79.5 104.5,-58.5 39.5,-58.5"/>
<text text-anchor="middle" x="72" y="-66.5" font-family="Helvetica,sans-Serif" font-size="10.00">TH1Dcut.h</text>
</a>
</g>
<!-- Node1&#45;&gt;Node2 -->
<g id="edge2" class="edge"><title>Node1&#45;&gt;Node2</title>
<path fill="none" stroke="midnightblue" d="M72,-116.362C72,-108.922 72,-98.7427 72,-89.7276"/>
<polygon fill="midnightblue" stroke="midnightblue" points="75.5001,-89.5706 72,-79.5707 68.5001,-89.5707 75.5001,-89.5706"/>
</g>
<!-- Node3 -->
<g id="node5" class="node"><title>Node3</title>
<polygon fill="white" stroke="#bfbfbf" points="46.5,-0.5 46.5,-21.5 97.5,-21.5 97.5,-0.5 46.5,-0.5"/>
<text text-anchor="middle" x="72" y="-8.5" font-family="Helvetica,sans-Serif" font-size="10.00">TH1D.h</text>
</g>
<!-- Node2&#45;&gt;Node3 -->
<g id="edge4" class="edge"><title>Node2&#45;&gt;Node3</title>
<path fill="none" stroke="midnightblue" d="M72,-58.3619C72,-50.9219 72,-40.7427 72,-31.7276"/>
<polygon fill="midnightblue" stroke="midnightblue" points="75.5001,-31.5706 72,-21.5707 68.5001,-31.5707 75.5001,-31.5706"/>
</g>
</g>
</svg>
