<?xml version="1.0" encoding="UTF-8" standalone="no"?>
<!DOCTYPE svg PUBLIC "-//W3C//DTD SVG 1.1//EN"
 "http://www.w3.org/Graphics/SVG/1.1/DTD/svg11.dtd">
<!-- Generated by graphviz version 2.26.3 (20100126.1600)
 -->
<!-- Title: src/tree/TSlowControl.h Pages: 1 -->
<svg width="2279pt" height="246pt"
 viewBox="0.00 0.00 2279.00 246.00" xmlns="http://www.w3.org/2000/svg" xmlns:xlink="http://www.w3.org/1999/xlink">
<g id="graph1" class="graph" transform="scale(1 1) rotate(0) translate(4 242)">
<title>src/tree/TSlowControl.h</title>
<polygon fill="white" stroke="white" points="-4,5 -4,-242 2276,-242 2276,5 -4,5"/>
<!-- Node1 -->
<g id="node1" class="node"><title>Node1</title>
<polygon fill="#bfbfbf" stroke="black" points="1069,-216.5 1069,-237.5 1189,-237.5 1189,-216.5 1069,-216.5"/>
<text text-anchor="middle" x="1129" y="-224.5" font-family="Helvetica,sans-Serif" font-size="10.00">src/tree/TSlowControl.h</text>
</g>
<!-- Node2 -->
<g id="node3" class="node"><title>Node2</title>
<a xlink:href="_slowcontrol_8cc.html" target="_top" xlink:title="src/analysis/data/Slowcontrol.cc">
<polygon fill="white" stroke="black" points="107,-151.5 107,-172.5 265,-172.5 265,-151.5 107,-151.5"/>
<text text-anchor="middle" x="186" y="-159.5" font-family="Helvetica,sans-Serif" font-size="10.00">src/analysis/data/Slowcontrol.cc</text>
</a>
</g>
<!-- Node1&#45;&gt;Node2 -->
<g id="edge2" class="edge"><title>Node1&#45;&gt;Node2</title>
<path fill="none" stroke="midnightblue" d="M1058.83,-226.341C913.031,-224.264 566.906,-215.654 279,-180 264.148,-178.161 248.104,-175.355 233.591,-172.501"/>
<polygon fill="midnightblue" stroke="midnightblue" points="1058.93,-229.843 1068.98,-226.48 1059.03,-222.843 1058.93,-229.843"/>
</g>
<!-- Node3 -->
<g id="node5" class="node"><title>Node3</title>
<a xlink:href="_ant_reader_8cc.html" target="_top" xlink:title="src/analysis/input\l/ant/AntReader.cc">
<polygon fill="white" stroke="black" points="0,-1 0,-35 96,-35 96,-1 0,-1"/>
<text text-anchor="start" x="8" y="-22" font-family="Helvetica,sans-Serif" font-size="10.00">src/analysis/input</text>
<text text-anchor="middle" x="48" y="-9" font-family="Helvetica,sans-Serif" font-size="10.00">/ant/AntReader.cc</text>
</a>
</g>
<!-- Node1&#45;&gt;Node3 -->
<g id="edge4" class="edge"><title>Node1&#45;&gt;Node3</title>
<path fill="none" stroke="midnightblue" d="M1058.89,-223.268C926.076,-215.88 642.465,-198.499 546,-180 439.136,-159.506 415.507,-141.559 312,-108 236.226,-83.4327 148.826,-53.2766 96.0291,-34.8582"/>
<polygon fill="midnightblue" stroke="midnightblue" points="1058.78,-226.767 1068.96,-223.825 1059.17,-219.777 1058.78,-226.767"/>
</g>
<!-- Node4 -->
<g id="node7" class="node"><title>Node4</title>
<a xlink:href="_data_reader_8h.html" target="_top" xlink:title="src/analysis/input\l/DataReader.h">
<polygon fill="white" stroke="black" points="554.5,-145 554.5,-179 647.5,-179 647.5,-145 554.5,-145"/>
<text text-anchor="start" x="562.5" y="-166" font-family="Helvetica,sans-Serif" font-size="10.00">src/analysis/input</text>
<text text-anchor="middle" x="601" y="-153" font-family="Helvetica,sans-Serif" font-size="10.00">/DataReader.h</text>
</a>
</g>
<!-- Node1&#45;&gt;Node4 -->
<g id="edge6" class="edge"><title>Node1&#45;&gt;Node4</title>
<path fill="none" stroke="midnightblue" d="M1058.98,-218.38C949.423,-204.893 740.408,-179.162 647.504,-167.725"/>
<polygon fill="midnightblue" stroke="midnightblue" points="1058.59,-221.859 1068.95,-219.607 1059.45,-214.911 1058.59,-221.859"/>
</g>
<!-- Node14 -->
<g id="node32" class="node"><title>Node14</title>
<a xlink:href="_physics_manager_8cc.html" target="_top" xlink:title="src/analysis/physics\l/PhysicsManager.cc">
<polygon fill="white" stroke="black" points="960,-1 960,-35 1066,-35 1066,-1 960,-1"/>
<text text-anchor="start" x="968" y="-22" font-family="Helvetica,sans-Serif" font-size="10.00">src/analysis/physics</text>
<text text-anchor="middle" x="1013" y="-9" font-family="Helvetica,sans-Serif" font-size="10.00">/PhysicsManager.cc</text>
</a>
</g>
<!-- Node1&#45;&gt;Node14 -->
<g id="edge54" class="edge"><title>Node1&#45;&gt;Node14</title>
<path fill="none" stroke="midnightblue" d="M1129.46,-206.272C1130.79,-188.328 1135.05,-162.433 1148,-144 1165,-119.786 1189.82,-133.97 1204,-108 1211.67,-93.9566 1213.65,-84.7602 1204,-72 1187.37,-50.0144 1116.92,-34.4171 1066.42,-25.8108"/>
<polygon fill="midnightblue" stroke="midnightblue" points="1125.96,-206.116 1128.95,-216.279 1132.95,-206.467 1125.96,-206.116"/>
</g>
<!-- Node15 -->
<g id="node34" class="node"><title>Node15</title>
<a xlink:href="_slowcontrol_creator_8h.html" target="_top" xlink:title="src/analysis/input\l/detail/SlowcontrolCreator.h">
<polygon fill="white" stroke="black" points="964.5,-145 964.5,-179 1101.5,-179 1101.5,-145 964.5,-145"/>
<text text-anchor="start" x="972.5" y="-166" font-family="Helvetica,sans-Serif" font-size="10.00">src/analysis/input</text>
<text text-anchor="middle" x="1033" y="-153" font-family="Helvetica,sans-Serif" font-size="10.00">/detail/SlowcontrolCreator.h</text>
</a>
</g>
<!-- Node1&#45;&gt;Node15 -->
<g id="edge38" class="edge"><title>Node1&#45;&gt;Node15</title>
<path fill="none" stroke="midnightblue" d="M1104.85,-210.645C1090.63,-201.02 1072.67,-188.863 1058.27,-179.11"/>
<polygon fill="midnightblue" stroke="midnightblue" points="1102.9,-213.558 1113.15,-216.267 1106.83,-207.762 1102.9,-213.558"/>
</g>
<!-- Node17 -->
<g id="node39" class="node"><title>Node17</title>
<a xlink:href="_slowcontrol_manager_8cc.html" target="_top" xlink:title="src/analysis/physics\l/SlowcontrolManager.cc">
<polygon fill="white" stroke="black" points="875,-73 875,-107 997,-107 997,-73 875,-73"/>
<text text-anchor="start" x="883" y="-94" font-family="Helvetica,sans-Serif" font-size="10.00">src/analysis/physics</text>
<text text-anchor="middle" x="936" y="-81" font-family="Helvetica,sans-Serif" font-size="10.00">/SlowcontrolManager.cc</text>
</a>
</g>
<!-- Node1&#45;&gt;Node17 -->
<g id="edge62" class="edge"><title>Node1&#45;&gt;Node17</title>
<path fill="none" stroke="midnightblue" d="M1059.03,-215.557C1017.61,-207.382 970.473,-195.164 956,-180 937.323,-160.432 934.59,-127.477 934.889,-107.338"/>
<polygon fill="midnightblue" stroke="midnightblue" points="1058.39,-218.996 1068.87,-217.444 1059.71,-212.122 1058.39,-218.996"/>
</g>
<!-- Node18 -->
<g id="node41" class="node"><title>Node18</title>
<a xlink:href="_physics_manager_8h.html" target="_top" xlink:title="src/analysis/physics\l/PhysicsManager.h">
<polygon fill="white" stroke="black" points="713,-73 713,-107 819,-107 819,-73 713,-73"/>
<text text-anchor="start" x="721" y="-94" font-family="Helvetica,sans-Serif" font-size="10.00">src/analysis/physics</text>
<text text-anchor="middle" x="766" y="-81" font-family="Helvetica,sans-Serif" font-size="10.00">/PhysicsManager.h</text>
</a>
</g>
<!-- Node1&#45;&gt;Node18 -->
<g id="edge46" class="edge"><title>Node1&#45;&gt;Node18</title>
<path fill="none" stroke="midnightblue" d="M1058.69,-221.765C963.626,-214.035 803.656,-198.474 784,-180 764.145,-161.339 762.784,-127.452 764.069,-107.005"/>
<polygon fill="midnightblue" stroke="midnightblue" points="1058.56,-225.266 1068.81,-222.578 1059.12,-218.288 1058.56,-225.266"/>
</g>
<!-- Node19 -->
<g id="node47" class="node"><title>Node19</title>
<a xlink:href="_slowcontrol_manager_8h.html" target="_top" xlink:title="src/analysis/physics\l/SlowcontrolManager.h">
<polygon fill="white" stroke="black" points="793,-145 793,-179 909,-179 909,-145 793,-145"/>
<text text-anchor="start" x="801" y="-166" font-family="Helvetica,sans-Serif" font-size="10.00">src/analysis/physics</text>
<text text-anchor="middle" x="851" y="-153" font-family="Helvetica,sans-Serif" font-size="10.00">/SlowcontrolManager.h</text>
</a>
</g>
<!-- Node1&#45;&gt;Node19 -->
<g id="edge56" class="edge"><title>Node1&#45;&gt;Node19</title>
<path fill="none" stroke="midnightblue" d="M1071.58,-214.234C1030.22,-204.955 973.099,-191.976 923,-180 918.489,-178.922 913.822,-177.79 909.134,-176.643"/>
<polygon fill="midnightblue" stroke="midnightblue" points="1070.96,-217.68 1081.48,-216.45 1072.49,-210.849 1070.96,-217.68"/>
</g>
<!-- Node20 -->
<g id="node52" class="node"><title>Node20</title>
<a xlink:href="_unpacker_reader_8cc.html" target="_top" xlink:title="src/tree/UnpackerReader.cc">
<polygon fill="white" stroke="black" points="1157,-151.5 1157,-172.5 1297,-172.5 1297,-151.5 1157,-151.5"/>
<text text-anchor="middle" x="1227" y="-159.5" font-family="Helvetica,sans-Serif" font-size="10.00">src/tree/UnpackerReader.cc</text>
</a>
</g>
<!-- Node1&#45;&gt;Node20 -->
<g id="edge64" class="edge"><title>Node1&#45;&gt;Node20</title>
<path fill="none" stroke="midnightblue" d="M1153.99,-210.427C1171.96,-198.503 1195.67,-182.78 1211.12,-172.534"/>
<polygon fill="midnightblue" stroke="midnightblue" points="1151.58,-207.822 1145.18,-216.267 1155.45,-213.656 1151.58,-207.822"/>
</g>
<!-- Node21 -->
<g id="node54" class="node"><title>Node21</title>
<a xlink:href="_unpacker_writer_8cc.html" target="_top" xlink:title="src/tree/UnpackerWriter.cc">
<polygon fill="white" stroke="black" points="1315,-151.5 1315,-172.5 1449,-172.5 1449,-151.5 1315,-151.5"/>
<text text-anchor="middle" x="1382" y="-159.5" font-family="Helvetica,sans-Serif" font-size="10.00">src/tree/UnpackerWriter.cc</text>
</a>
</g>
<!-- Node1&#45;&gt;Node21 -->
<g id="edge66" class="edge"><title>Node1&#45;&gt;Node21</title>
<path fill="none" stroke="midnightblue" d="M1179.7,-213.975C1227.15,-201.784 1297.15,-183.799 1341.13,-172.501"/>
<polygon fill="midnightblue" stroke="midnightblue" points="1178.74,-210.606 1169.93,-216.484 1180.49,-217.386 1178.74,-210.606"/>
</g>
<!-- Node22 -->
<g id="node56" class="node"><title>Node22</title>
<a xlink:href="_unpacker_acqu__detail_8cc.html" target="_top" xlink:title="src/unpacker/detail\l/UnpackerAcqu_detail.cc">
<polygon fill="white" stroke="black" points="1467,-145 1467,-179 1593,-179 1593,-145 1467,-145"/>
<text text-anchor="start" x="1475" y="-166" font-family="Helvetica,sans-Serif" font-size="10.00">src/unpacker/detail</text>
<text text-anchor="middle" x="1530" y="-153" font-family="Helvetica,sans-Serif" font-size="10.00">/UnpackerAcqu_detail.cc</text>
</a>
</g>
<!-- Node1&#45;&gt;Node22 -->
<g id="edge68" class="edge"><title>Node1&#45;&gt;Node22</title>
<path fill="none" stroke="midnightblue" d="M1199.04,-219.117C1265.89,-211.094 1369.27,-197.381 1458,-180 1460.91,-179.43 1463.88,-178.818 1466.87,-178.174"/>
<polygon fill="midnightblue" stroke="midnightblue" points="1198.56,-215.65 1189.05,-220.308 1199.39,-222.601 1198.56,-215.65"/>
</g>
<!-- Node23 -->
<g id="node58" class="node"><title>Node23</title>
<a xlink:href="_unpacker_acqu___file_format_mk2_8cc.html" target="_top" xlink:title="src/unpacker/detail\l/UnpackerAcqu_FileFormatMk2.cc">
<polygon fill="white" stroke="black" points="1611,-145 1611,-179 1779,-179 1779,-145 1611,-145"/>
<text text-anchor="start" x="1619" y="-166" font-family="Helvetica,sans-Serif" font-size="10.00">src/unpacker/detail</text>
<text text-anchor="middle" x="1695" y="-153" font-family="Helvetica,sans-Serif" font-size="10.00">/UnpackerAcqu_FileFormatMk2.cc</text>
</a>
</g>
<!-- Node1&#45;&gt;Node23 -->
<g id="edge70" class="edge"><title>Node1&#45;&gt;Node23</title>
<path fill="none" stroke="midnightblue" d="M1199.42,-222.04C1292.04,-215.05 1459.74,-200.79 1602,-180 1604.93,-179.572 1607.91,-179.115 1610.91,-178.636"/>
<polygon fill="midnightblue" stroke="midnightblue" points="1199.03,-218.559 1189.32,-222.795 1199.56,-225.539 1199.03,-218.559"/>
</g>
<!-- Node24 -->
<g id="node60" class="node"><title>Node24</title>
<a xlink:href="_test_tree_writer_8cc.html" target="_top" xlink:title="test/unpacker/TestTreeWriter.cc">
<polygon fill="white" stroke="black" points="1797,-151.5 1797,-172.5 1955,-172.5 1955,-151.5 1797,-151.5"/>
<text text-anchor="middle" x="1876" y="-159.5" font-family="Helvetica,sans-Serif" font-size="10.00">test/unpacker/TestTreeWriter.cc</text>
</a>
</g>
<!-- Node1&#45;&gt;Node24 -->
<g id="edge72" class="edge"><title>Node1&#45;&gt;Node24</title>
<path fill="none" stroke="midnightblue" d="M1199.47,-224.993C1320.37,-220.876 1574.9,-209.266 1788,-180 1801.75,-178.112 1816.58,-175.361 1830.07,-172.575"/>
<polygon fill="midnightblue" stroke="midnightblue" points="1199.12,-221.502 1189.24,-225.334 1199.35,-228.499 1199.12,-221.502"/>
</g>
<!-- Node25 -->
<g id="node62" class="node"><title>Node25</title>
<a xlink:href="_test_unpacker_acqu_scaler_8cc.html" target="_top" xlink:title="test/unpacker/TestUnpacker\lAcquScaler.cc">
<polygon fill="white" stroke="black" points="1973,-145 1973,-179 2113,-179 2113,-145 1973,-145"/>
<text text-anchor="start" x="1981" y="-166" font-family="Helvetica,sans-Serif" font-size="10.00">test/unpacker/TestUnpacker</text>
<text text-anchor="middle" x="2043" y="-153" font-family="Helvetica,sans-Serif" font-size="10.00">AcquScaler.cc</text>
</a>
</g>
<!-- Node1&#45;&gt;Node25 -->
<g id="edge74" class="edge"><title>Node1&#45;&gt;Node25</title>
<path fill="none" stroke="midnightblue" d="M1199.12,-224.57C1372.33,-218.322 1817.05,-200.728 1964,-180 1966.93,-179.587 1969.9,-179.121 1972.9,-178.613"/>
<polygon fill="midnightblue" stroke="midnightblue" points="1198.96,-221.073 1189.09,-224.93 1199.21,-228.069 1198.96,-221.073"/>
</g>
<!-- Node26 -->
<g id="node64" class="node"><title>Node26</title>
<a xlink:href="_test_unpacker_acqu_t_i_d_8cc.html" target="_top" xlink:title="test/unpacker/TestUnpacker\lAcquTID.cc">
<polygon fill="white" stroke="black" points="2131,-145 2131,-179 2271,-179 2271,-145 2131,-145"/>
<text text-anchor="start" x="2139" y="-166" font-family="Helvetica,sans-Serif" font-size="10.00">test/unpacker/TestUnpacker</text>
<text text-anchor="middle" x="2201" y="-153" font-family="Helvetica,sans-Serif" font-size="10.00">AcquTID.cc</text>
</a>
</g>
<!-- Node1&#45;&gt;Node26 -->
<g id="edge76" class="edge"><title>Node1&#45;&gt;Node26</title>
<path fill="none" stroke="midnightblue" d="M1199.37,-225.287C1395.12,-220.266 1943.4,-204.379 2122,-180 2124.93,-179.6 2127.91,-179.145 2130.91,-178.647"/>
<polygon fill="midnightblue" stroke="midnightblue" points="1199.11,-221.793 1189.2,-225.547 1199.29,-228.791 1199.11,-221.793"/>
</g>
<!-- Node5 -->
<g id="node9" class="node"><title>Node5</title>
<a xlink:href="_ant_8cc.html" target="_top" xlink:title="Main Ant executable. ">
<polygon fill="white" stroke="black" points="588,-7.5 588,-28.5 660,-28.5 660,-7.5 588,-7.5"/>
<text text-anchor="middle" x="624" y="-15.5" font-family="Helvetica,sans-Serif" font-size="10.00">progs/Ant.cc</text>
</a>
</g>
<!-- Node4&#45;&gt;Node5 -->
<g id="edge8" class="edge"><title>Node4&#45;&gt;Node5</title>
<path fill="none" stroke="midnightblue" d="M586.918,-135.374C579.214,-117.217 572.603,-92.7896 580,-72 586.243,-54.4543 600.898,-38.4769 611.584,-28.5303"/>
<polygon fill="midnightblue" stroke="midnightblue" points="583.872,-137.127 591.228,-144.752 590.233,-134.204 583.872,-137.127"/>
</g>
<!-- Node6 -->
<g id="node11" class="node"><title>Node6</title>
<a xlink:href="_ant_reader_8h.html" target="_top" xlink:title="src/analysis/input\l/ant/AntReader.h">
<polygon fill="white" stroke="black" points="440.5,-73 440.5,-107 533.5,-107 533.5,-73 440.5,-73"/>
<text text-anchor="start" x="448.5" y="-94" font-family="Helvetica,sans-Serif" font-size="10.00">src/analysis/input</text>
<text text-anchor="middle" x="487" y="-81" font-family="Helvetica,sans-Serif" font-size="10.00">/ant/AntReader.h</text>
</a>
</g>
<!-- Node4&#45;&gt;Node6 -->
<g id="edge10" class="edge"><title>Node4&#45;&gt;Node6</title>
<path fill="none" stroke="midnightblue" d="M565.159,-139.364C548.69,-128.962 529.474,-116.826 514.218,-107.19"/>
<polygon fill="midnightblue" stroke="midnightblue" points="563.66,-142.556 573.984,-144.937 567.398,-136.638 563.66,-142.556"/>
</g>
<!-- Node9 -->
<g id="node19" class="node"><title>Node9</title>
<a xlink:href="_goat_reader_8h.html" target="_top" xlink:title="src/analysis/input\l/goat/GoatReader.h">
<polygon fill="white" stroke="black" points="321,-73 321,-107 423,-107 423,-73 321,-73"/>
<text text-anchor="start" x="329" y="-94" font-family="Helvetica,sans-Serif" font-size="10.00">src/analysis/input</text>
<text text-anchor="middle" x="372" y="-81" font-family="Helvetica,sans-Serif" font-size="10.00">/goat/GoatReader.h</text>
</a>
</g>
<!-- Node4&#45;&gt;Node9 -->
<g id="edge20" class="edge"><title>Node4&#45;&gt;Node9</title>
<path fill="none" stroke="midnightblue" d="M544.718,-144.304C507.612,-132.638 459.393,-117.477 423.336,-106.141"/>
<polygon fill="midnightblue" stroke="midnightblue" points="543.793,-147.682 554.382,-147.343 545.893,-141.005 543.793,-147.682"/>
</g>
<!-- Node12 -->
<g id="node26" class="node"><title>Node12</title>
<a xlink:href="_pluto_reader_8h.html" target="_top" xlink:title="src/analysis/input\l/pluto/PlutoReader.h">
<polygon fill="white" stroke="black" points="589,-73 589,-107 695,-107 695,-73 589,-73"/>
<text text-anchor="start" x="597" y="-94" font-family="Helvetica,sans-Serif" font-size="10.00">src/analysis/input</text>
<text text-anchor="middle" x="642" y="-81" font-family="Helvetica,sans-Serif" font-size="10.00">/pluto/PlutoReader.h</text>
</a>
</g>
<!-- Node4&#45;&gt;Node12 -->
<g id="edge28" class="edge"><title>Node4&#45;&gt;Node12</title>
<path fill="none" stroke="midnightblue" d="M615.69,-136.203C621.125,-126.658 627.154,-116.07 632.069,-107.441"/>
<polygon fill="midnightblue" stroke="midnightblue" points="612.623,-134.515 610.716,-144.937 618.706,-137.979 612.623,-134.515"/>
</g>
<!-- Node4&#45;&gt;Node14 -->
<g id="edge36" class="edge"><title>Node4&#45;&gt;Node14</title>
<path fill="none" stroke="midnightblue" d="M658.044,-156.765C705.814,-150.485 774.559,-136.915 828,-108 848.461,-96.929 846.23,-84.2632 866,-72 894.996,-54.0139 930.891,-40.6848 959.952,-31.7692"/>
<polygon fill="midnightblue" stroke="midnightblue" points="657.372,-153.321 647.882,-158.032 658.238,-160.267 657.372,-153.321"/>
</g>
<!-- Node6&#45;&gt;Node3 -->
<g id="edge14" class="edge"><title>Node6&#45;&gt;Node3</title>
<path fill="none" stroke="midnightblue" d="M430.344,-71.8822C287.197,-42.1945 244.854,-65.4821 105,-36 102.055,-35.3792 99.0462,-34.6681 96.0252,-33.8951"/>
<polygon fill="midnightblue" stroke="midnightblue" points="429.864,-75.3583 440.373,-74.0138 431.319,-68.5113 429.864,-75.3583"/>
</g>
<!-- Node6&#45;&gt;Node5 -->
<g id="edge12" class="edge"><title>Node6&#45;&gt;Node5</title>
<path fill="none" stroke="midnightblue" d="M528.355,-68.2661C553.263,-55.1754 583.885,-39.0824 603.663,-28.688"/>
<polygon fill="midnightblue" stroke="midnightblue" points="526.691,-65.1866 519.467,-72.937 529.947,-71.383 526.691,-65.1866"/>
</g>
<!-- Node7 -->
<g id="node15" class="node"><title>Node7</title>
<a xlink:href="_test_ant_reader_8cc.html" target="_top" xlink:title="test/analysis/TestAntReader.cc">
<polygon fill="white" stroke="black" points="415.5,-7.5 415.5,-28.5 570.5,-28.5 570.5,-7.5 415.5,-7.5"/>
<text text-anchor="middle" x="493" y="-15.5" font-family="Helvetica,sans-Serif" font-size="10.00">test/analysis/TestAntReader.cc</text>
</a>
</g>
<!-- Node6&#45;&gt;Node7 -->
<g id="edge16" class="edge"><title>Node6&#45;&gt;Node7</title>
<path fill="none" stroke="midnightblue" d="M489.278,-62.6667C490.257,-50.9127 491.346,-37.8483 492.092,-28.901"/>
<polygon fill="midnightblue" stroke="midnightblue" points="485.765,-62.6809 488.422,-72.937 492.74,-63.2622 485.765,-62.6809"/>
</g>
<!-- Node8 -->
<g id="node17" class="node"><title>Node8</title>
<a xlink:href="_test_physics_manager_8cc.html" target="_top" xlink:title="test/analysis/TestPhysics\lManager.cc">
<polygon fill="white" stroke="black" points="678,-1 678,-35 808,-35 808,-1 678,-1"/>
<text text-anchor="start" x="686" y="-22" font-family="Helvetica,sans-Serif" font-size="10.00">test/analysis/TestPhysics</text>
<text text-anchor="middle" x="743" y="-9" font-family="Helvetica,sans-Serif" font-size="10.00">Manager.cc</text>
</a>
</g>
<!-- Node6&#45;&gt;Node8 -->
<g id="edge18" class="edge"><title>Node6&#45;&gt;Node8</title>
<path fill="none" stroke="midnightblue" d="M543.507,-74.1073C584.586,-62.5539 640.128,-46.9328 682.175,-35.107"/>
<polygon fill="midnightblue" stroke="midnightblue" points="542.336,-70.801 533.657,-76.8778 544.231,-77.5396 542.336,-70.801"/>
</g>
<!-- Node9&#45;&gt;Node5 -->
<g id="edge22" class="edge"><title>Node9&#45;&gt;Node5</title>
<path fill="none" stroke="midnightblue" d="M433.045,-71.8086C498.695,-54.4874 517.952,-55.5783 579,-36 585.73,-33.8416 592.889,-31.1616 599.47,-28.5348"/>
<polygon fill="midnightblue" stroke="midnightblue" points="431.762,-68.529 423.012,-74.5024 433.578,-75.2895 431.762,-68.529"/>
</g>
<!-- Node10 -->
<g id="node22" class="node"><title>Node10</title>
<a xlink:href="_goat_reader_8cc.html" target="_top" xlink:title="src/analysis/input\l/goat/GoatReader.cc">
<polygon fill="white" stroke="black" points="291.5,-1 291.5,-35 398.5,-35 398.5,-1 291.5,-1"/>
<text text-anchor="start" x="299.5" y="-22" font-family="Helvetica,sans-Serif" font-size="10.00">src/analysis/input</text>
<text text-anchor="middle" x="345" y="-9" font-family="Helvetica,sans-Serif" font-size="10.00">/goat/GoatReader.cc</text>
</a>
</g>
<!-- Node9&#45;&gt;Node10 -->
<g id="edge24" class="edge"><title>Node9&#45;&gt;Node10</title>
<path fill="none" stroke="midnightblue" d="M361.993,-63.3147C358.502,-54.0053 354.676,-43.8034 351.54,-35.4407"/>
<polygon fill="midnightblue" stroke="midnightblue" points="358.813,-64.8027 365.601,-72.937 365.367,-62.3448 358.813,-64.8027"/>
</g>
<!-- Node11 -->
<g id="node24" class="node"><title>Node11</title>
<a xlink:href="_test_goat_reader_8cc.html" target="_top" xlink:title="test/analysis/TestGoatReader.cc">
<polygon fill="white" stroke="black" points="113.5,-7.5 113.5,-28.5 274.5,-28.5 274.5,-7.5 113.5,-7.5"/>
<text text-anchor="middle" x="194" y="-15.5" font-family="Helvetica,sans-Serif" font-size="10.00">test/analysis/TestGoatReader.cc</text>
</a>
</g>
<!-- Node9&#45;&gt;Node11 -->
<g id="edge26" class="edge"><title>Node9&#45;&gt;Node11</title>
<path fill="none" stroke="midnightblue" d="M320.358,-69.111C287.524,-55.83 246.403,-39.1968 220.161,-28.5821"/>
<polygon fill="midnightblue" stroke="midnightblue" points="319.234,-72.4318 329.816,-72.937 321.859,-65.9425 319.234,-72.4318"/>
</g>
<!-- Node12&#45;&gt;Node5 -->
<g id="edge30" class="edge"><title>Node12&#45;&gt;Node5</title>
<path fill="none" stroke="midnightblue" d="M635.257,-63.0261C632.295,-51.1798 628.985,-37.9396 626.725,-28.901"/>
<polygon fill="midnightblue" stroke="midnightblue" points="631.913,-64.0845 637.734,-72.937 638.704,-62.3867 631.913,-64.0845"/>
</g>
<!-- Node12&#45;&gt;Node8 -->
<g id="edge34" class="edge"><title>Node12&#45;&gt;Node8</title>
<path fill="none" stroke="midnightblue" d="M674.16,-67.0743C688.66,-56.7376 705.494,-44.7368 718.886,-35.19"/>
<polygon fill="midnightblue" stroke="midnightblue" points="672.047,-64.2822 665.936,-72.937 676.11,-69.9822 672.047,-64.2822"/>
</g>
<!-- Node13 -->
<g id="node29" class="node"><title>Node13</title>
<a xlink:href="_pluto_reader_8cc.html" target="_top" xlink:title="src/analysis/input\l/pluto/PlutoReader.cc">
<polygon fill="white" stroke="black" points="825.5,-1 825.5,-35 936.5,-35 936.5,-1 825.5,-1"/>
<text text-anchor="start" x="833.5" y="-22" font-family="Helvetica,sans-Serif" font-size="10.00">src/analysis/input</text>
<text text-anchor="middle" x="881" y="-9" font-family="Helvetica,sans-Serif" font-size="10.00">/pluto/PlutoReader.cc</text>
</a>
</g>
<!-- Node12&#45;&gt;Node13 -->
<g id="edge32" class="edge"><title>Node12&#45;&gt;Node13</title>
<path fill="none" stroke="midnightblue" d="M704.812,-71.0777C742.169,-59.8236 789.146,-45.6715 825.196,-34.8112"/>
<polygon fill="midnightblue" stroke="midnightblue" points="703.607,-67.7851 695.042,-74.0209 705.626,-74.4875 703.607,-67.7851"/>
</g>
<!-- Node15&#45;&gt;Node14 -->
<g id="edge42" class="edge"><title>Node15&#45;&gt;Node14</title>
<path fill="none" stroke="midnightblue" d="M1029.24,-134.933C1025.17,-105.613 1018.8,-59.732 1015.37,-35.0619"/>
<polygon fill="midnightblue" stroke="midnightblue" points="1025.78,-135.492 1030.63,-144.916 1032.72,-134.529 1025.78,-135.492"/>
</g>
<!-- Node16 -->
<g id="node36" class="node"><title>Node16</title>
<a xlink:href="_slowcontrol_creator_8cc.html" target="_top" xlink:title="src/analysis/input\l/detail/SlowcontrolCreator.cc">
<polygon fill="white" stroke="black" points="1052.5,-73 1052.5,-107 1195.5,-107 1195.5,-73 1052.5,-73"/>
<text text-anchor="start" x="1060.5" y="-94" font-family="Helvetica,sans-Serif" font-size="10.00">src/analysis/input</text>
<text text-anchor="middle" x="1124" y="-81" font-family="Helvetica,sans-Serif" font-size="10.00">/detail/SlowcontrolCreator.cc</text>
</a>
</g>
<!-- Node15&#45;&gt;Node16 -->
<g id="edge40" class="edge"><title>Node15&#45;&gt;Node16</title>
<path fill="none" stroke="midnightblue" d="M1062.71,-138.493C1075.61,-128.29 1090.43,-116.558 1102.27,-107.19"/>
<polygon fill="midnightblue" stroke="midnightblue" points="1060.24,-135.987 1054.57,-144.937 1064.58,-141.477 1060.24,-135.987"/>
</g>
<!-- Node15&#45;&gt;Node17 -->
<g id="edge44" class="edge"><title>Node15&#45;&gt;Node17</title>
<path fill="none" stroke="midnightblue" d="M1001.72,-138.784C987.886,-128.514 971.9,-116.648 959.159,-107.19"/>
<polygon fill="midnightblue" stroke="midnightblue" points="999.897,-141.787 1010.01,-144.937 1004.07,-136.166 999.897,-141.787"/>
</g>
<!-- Node18&#45;&gt;Node5 -->
<g id="edge48" class="edge"><title>Node18&#45;&gt;Node5</title>
<path fill="none" stroke="midnightblue" d="M723.136,-68.2661C697.318,-55.1754 665.579,-39.0824 645.079,-28.688"/>
<polygon fill="midnightblue" stroke="midnightblue" points="721.846,-71.5363 732.348,-72.937 725.012,-65.293 721.846,-71.5363"/>
</g>
<!-- Node18&#45;&gt;Node8 -->
<g id="edge52" class="edge"><title>Node18&#45;&gt;Node8</title>
<path fill="none" stroke="midnightblue" d="M757.476,-63.3147C754.502,-54.0053 751.243,-43.8034 748.571,-35.4407"/>
<polygon fill="midnightblue" stroke="midnightblue" points="754.172,-64.4763 760.549,-72.937 760.84,-62.3462 754.172,-64.4763"/>
</g>
<!-- Node18&#45;&gt;Node14 -->
<g id="edge50" class="edge"><title>Node18&#45;&gt;Node14</title>
<path fill="none" stroke="midnightblue" d="M829.049,-71.6213C869.501,-59.8296 921.439,-44.6898 959.804,-33.5064"/>
<polygon fill="midnightblue" stroke="midnightblue" points="827.912,-68.307 819.291,-74.4657 829.871,-75.0273 827.912,-68.307"/>
</g>
<!-- Node19&#45;&gt;Node17 -->
<g id="edge60" class="edge"><title>Node19&#45;&gt;Node17</title>
<path fill="none" stroke="midnightblue" d="M879.096,-138.201C891.06,-128.067 904.752,-116.469 915.706,-107.19"/>
<polygon fill="midnightblue" stroke="midnightblue" points="876.512,-135.803 871.144,-144.937 881.037,-141.144 876.512,-135.803"/>
</g>
<!-- Node19&#45;&gt;Node18 -->
<g id="edge58" class="edge"><title>Node19&#45;&gt;Node18</title>
<path fill="none" stroke="midnightblue" d="M822.904,-138.201C810.94,-128.067 797.248,-116.469 786.294,-107.19"/>
<polygon fill="midnightblue" stroke="midnightblue" points="820.963,-141.144 830.856,-144.937 825.488,-135.803 820.963,-141.144"/>
</g>
</g>
</svg>
