<?xml version="1.0" encoding="UTF-8" standalone="no"?>
<!DOCTYPE svg PUBLIC "-//W3C//DTD SVG 1.1//EN"
 "http://www.w3.org/Graphics/SVG/1.1/DTD/svg11.dtd">
<!-- Generated by graphviz version 2.26.3 (20100126.1600)
 -->
<!-- Title: src/analysis/utils/TimeSmearingHack.h Pages: 1 -->
<svg width="296pt" height="188pt"
 viewBox="0.00 0.00 296.00 188.00" xmlns="http://www.w3.org/2000/svg" xmlns:xlink="http://www.w3.org/1999/xlink">
<g id="graph1" class="graph" transform="scale(1 1) rotate(0) translate(4 184)">
<title>src/analysis/utils/TimeSmearingHack.h</title>
<polygon fill="white" stroke="white" points="-4,5 -4,-184 293,-184 293,5 -4,5"/>
<!-- Node1 -->
<g id="node1" class="node"><title>Node1</title>
<polygon fill="#bfbfbf" stroke="black" points="96,-145 96,-179 210,-179 210,-145 96,-145"/>
<text text-anchor="start" x="104" y="-166" font-family="Helvetica,sans-Serif" font-size="10.00">src/analysis/utils</text>
<text text-anchor="middle" x="153" y="-153" font-family="Helvetica,sans-Serif" font-size="10.00">/TimeSmearingHack.h</text>
</g>
<!-- Node2 -->
<g id="node3" class="node"><title>Node2</title>
<a xlink:href="_reconstruct_check_8h.html" target="_top" xlink:title="src/analysis/physics\l/common/ReconstructCheck.h">
<polygon fill="white" stroke="black" points="2,-73 2,-107 152,-107 152,-73 2,-73"/>
<text text-anchor="start" x="10" y="-94" font-family="Helvetica,sans-Serif" font-size="10.00">src/analysis/physics</text>
<text text-anchor="middle" x="77" y="-81" font-family="Helvetica,sans-Serif" font-size="10.00">/common/ReconstructCheck.h</text>
</a>
</g>
<!-- Node1&#45;&gt;Node2 -->
<g id="edge2" class="edge"><title>Node1&#45;&gt;Node2</title>
<path fill="none" stroke="midnightblue" d="M127.57,-137.908C116.946,-127.844 104.845,-116.38 95.145,-107.19"/>
<polygon fill="midnightblue" stroke="midnightblue" points="125.322,-140.6 134.989,-144.937 130.137,-135.519 125.322,-140.6"/>
</g>
<!-- Node4 -->
<g id="node7" class="node"><title>Node4</title>
<a xlink:href="_time_smearing_hack_8cc.html" target="_top" xlink:title="src/analysis/utils\l/TimeSmearingHack.cc">
<polygon fill="white" stroke="black" points="169.5,-73 169.5,-107 288.5,-107 288.5,-73 169.5,-73"/>
<text text-anchor="start" x="177.5" y="-94" font-family="Helvetica,sans-Serif" font-size="10.00">src/analysis/utils</text>
<text text-anchor="middle" x="229" y="-81" font-family="Helvetica,sans-Serif" font-size="10.00">/TimeSmearingHack.cc</text>
</a>
</g>
<!-- Node1&#45;&gt;Node4 -->
<g id="edge6" class="edge"><title>Node1&#45;&gt;Node4</title>
<path fill="none" stroke="midnightblue" d="M178.43,-137.908C189.054,-127.844 201.155,-116.38 210.855,-107.19"/>
<polygon fill="midnightblue" stroke="midnightblue" points="175.863,-135.519 171.011,-144.937 180.678,-140.6 175.863,-135.519"/>
</g>
<!-- Node3 -->
<g id="node5" class="node"><title>Node3</title>
<a xlink:href="_reconstruct_check_8cc.html" target="_top" xlink:title="src/analysis/physics\l/common/ReconstructCheck.cc">
<polygon fill="white" stroke="black" points="-0.5,-1 -0.5,-35 154.5,-35 154.5,-1 -0.5,-1"/>
<text text-anchor="start" x="7.5" y="-22" font-family="Helvetica,sans-Serif" font-size="10.00">src/analysis/physics</text>
<text text-anchor="middle" x="77" y="-9" font-family="Helvetica,sans-Serif" font-size="10.00">/common/ReconstructCheck.cc</text>
</a>
</g>
<!-- Node2&#45;&gt;Node3 -->
<g id="edge4" class="edge"><title>Node2&#45;&gt;Node3</title>
<path fill="none" stroke="midnightblue" d="M77,-62.7193C77,-53.572 77,-43.6255 77,-35.4407"/>
<polygon fill="midnightblue" stroke="midnightblue" points="73.5001,-62.937 77,-72.937 80.5001,-62.937 73.5001,-62.937"/>
</g>
</g>
</svg>
