<?xml version="1.0" encoding="UTF-8" standalone="no"?>
<!DOCTYPE svg PUBLIC "-//W3C//DTD SVG 1.1//EN"
 "http://www.w3.org/Graphics/SVG/1.1/DTD/svg11.dtd">
<!-- Generated by graphviz version 2.26.3 (20100126.1600)
 -->
<!-- Title: src/analysis/utils/TimeSmearingHack.h Pages: 1 -->
<svg width="649pt" height="334pt"
 viewBox="0.00 0.00 648.63 334.00" xmlns="http://www.w3.org/2000/svg" xmlns:xlink="http://www.w3.org/1999/xlink">
<g id="graph1" class="graph" transform="scale(1 1) rotate(0) translate(4 330)">
<title>src/analysis/utils/TimeSmearingHack.h</title>
<polygon fill="white" stroke="white" points="-4,5 -4,-330 645.631,-330 645.631,5 -4,5"/>
<!-- Node1 -->
<g id="node1" class="node"><title>Node1</title>
<polygon fill="#bfbfbf" stroke="black" points="293.631,-291 293.631,-325 407.631,-325 407.631,-291 293.631,-291"/>
<text text-anchor="start" x="301.631" y="-312" font-family="Helvetica,sans-Serif" font-size="10.00">src/analysis/utils</text>
<text text-anchor="middle" x="350.631" y="-299" font-family="Helvetica,sans-Serif" font-size="10.00">/TimeSmearingHack.h</text>
</g>
<!-- Node2 -->
<g id="node3" class="node"><title>Node2</title>
<a xlink:href="_candidate_8h.html" target="_top" xlink:title="data/Candidate.h">
<polygon fill="white" stroke="black" points="201.131,-232.5 201.131,-253.5 292.131,-253.5 292.131,-232.5 201.131,-232.5"/>
<text text-anchor="middle" x="246.631" y="-240.5" font-family="Helvetica,sans-Serif" font-size="10.00">data/Candidate.h</text>
</a>
</g>
<!-- Node1&#45;&gt;Node2 -->
<g id="edge2" class="edge"><title>Node1&#45;&gt;Node2</title>
<path fill="none" stroke="midnightblue" d="M323.306,-290.922C307.509,-281.049 287.757,-268.704 272.257,-259.016"/>
<polygon fill="midnightblue" stroke="midnightblue" points="274.019,-255.99 263.684,-253.658 270.309,-261.926 274.019,-255.99"/>
</g>
<!-- Node17 -->
<g id="node40" class="node"><title>Node17</title>
<a xlink:href="_tagger_hit_8h.html" target="_top" xlink:title="data/TaggerHit.h">
<polygon fill="white" stroke="black" points="411.131,-232.5 411.131,-253.5 500.131,-253.5 500.131,-232.5 411.131,-232.5"/>
<text text-anchor="middle" x="455.631" y="-240.5" font-family="Helvetica,sans-Serif" font-size="10.00">data/TaggerHit.h</text>
</a>
</g>
<!-- Node1&#45;&gt;Node17 -->
<g id="edge46" class="edge"><title>Node1&#45;&gt;Node17</title>
<path fill="none" stroke="midnightblue" d="M378.218,-290.922C394.167,-281.049 414.109,-268.704 429.758,-259.016"/>
<polygon fill="midnightblue" stroke="midnightblue" points="431.753,-261.898 438.413,-253.658 428.068,-255.946 431.753,-261.898"/>
</g>
<!-- Node3 -->
<g id="node5" class="node"><title>Node3</title>
<a xlink:href="printable_8h.html" target="_top" xlink:title="base/printable.h">
<polygon fill="white" stroke="black" points="425.631,-58.5 425.631,-79.5 511.631,-79.5 511.631,-58.5 425.631,-58.5"/>
<text text-anchor="middle" x="468.631" y="-66.5" font-family="Helvetica,sans-Serif" font-size="10.00">base/printable.h</text>
</a>
</g>
<!-- Node2&#45;&gt;Node3 -->
<g id="edge4" class="edge"><title>Node2&#45;&gt;Node3</title>
<path fill="none" stroke="midnightblue" d="M253.846,-232.301C263.879,-217.929 283.135,-192.105 303.631,-174 346.314,-136.296 403.897,-102.924 438.532,-84.3936"/>
<polygon fill="midnightblue" stroke="midnightblue" points="440.455,-87.3361 447.661,-79.5693 437.184,-81.1472 440.455,-87.3361"/>
</g>
<!-- Node4 -->
<g id="node7" class="node"><title>Node4</title>
<polygon fill="white" stroke="#bfbfbf" points="177.631,-0.5 177.631,-21.5 221.631,-21.5 221.631,-0.5 177.631,-0.5"/>
<text text-anchor="middle" x="199.631" y="-8.5" font-family="Helvetica,sans-Serif" font-size="10.00">vector</text>
</g>
<!-- Node2&#45;&gt;Node4 -->
<g id="edge44" class="edge"><title>Node2&#45;&gt;Node4</title>
<path fill="none" stroke="midnightblue" d="M201.066,-234.971C156.879,-226.418 93.7878,-211.937 74.6306,-196 30.6197,-159.387 31.3965,-135.807 18.6306,-80 16.4502,-70.4684 12.6483,-65.7341 18.6306,-58 36.6819,-34.6627 120.337,-20.7721 167.343,-14.6779"/>
<polygon fill="midnightblue" stroke="midnightblue" points="167.847,-18.1423 177.335,-13.4283 166.978,-11.1964 167.847,-18.1423"/>
</g>
<!-- Node5 -->
<g id="node9" class="node"><title>Node5</title>
<polygon fill="white" stroke="#bfbfbf" points="21.6306,-0.5 21.6306,-21.5 73.6306,-21.5 73.6306,-0.5 21.6306,-0.5"/>
<text text-anchor="middle" x="47.6306" y="-8.5" font-family="Helvetica,sans-Serif" font-size="10.00">ostream</text>
</g>
<!-- Node2&#45;&gt;Node5 -->
<g id="edge40" class="edge"><title>Node2&#45;&gt;Node5</title>
<path fill="none" stroke="midnightblue" d="M200.81,-237.017C149.509,-229.5 70.5463,-215.219 47.6306,-196 -1.02328,-155.196 -10.1534,-118.002 10.6306,-58 14.3525,-47.255 21.6598,-37.1031 28.8044,-29.0027"/>
<polygon fill="midnightblue" stroke="midnightblue" points="31.4356,-31.3142 35.7559,-21.6402 26.3458,-26.5085 31.4356,-31.3142"/>
</g>
<!-- Node6 -->
<g id="node11" class="node"><title>Node6</title>
<a xlink:href="types_8h.html" target="_top" xlink:title="base/types.h">
<polygon fill="white" stroke="black" points="312.131,-174.5 312.131,-195.5 385.131,-195.5 385.131,-174.5 312.131,-174.5"/>
<text text-anchor="middle" x="348.631" y="-182.5" font-family="Helvetica,sans-Serif" font-size="10.00">base/types.h</text>
</a>
</g>
<!-- Node2&#45;&gt;Node6 -->
<g id="edge10" class="edge"><title>Node2&#45;&gt;Node6</title>
<path fill="none" stroke="midnightblue" d="M265.339,-232.362C281.011,-223.45 303.595,-210.609 321.293,-200.545"/>
<polygon fill="midnightblue" stroke="midnightblue" points="323.078,-203.556 330.041,-195.571 319.618,-197.471 323.078,-203.556"/>
</g>
<!-- Node7 -->
<g id="node13" class="node"><title>Node7</title>
<a xlink:href="_detector__t_8h.html" target="_top" xlink:title="base/Detector_t.h">
<polygon fill="white" stroke="black" points="211.131,-116.5 211.131,-137.5 306.131,-137.5 306.131,-116.5 211.131,-116.5"/>
<text text-anchor="middle" x="258.631" y="-124.5" font-family="Helvetica,sans-Serif" font-size="10.00">base/Detector_t.h</text>
</a>
</g>
<!-- Node2&#45;&gt;Node7 -->
<g id="edge12" class="edge"><title>Node2&#45;&gt;Node7</title>
<path fill="none" stroke="midnightblue" d="M247.738,-232.295C249.72,-213.131 253.908,-172.654 256.474,-147.843"/>
<polygon fill="midnightblue" stroke="midnightblue" points="259.978,-147.986 257.526,-137.679 253.015,-147.266 259.978,-147.986"/>
</g>
<!-- Node8 -->
<g id="node16" class="node"><title>Node8</title>
<polygon fill="white" stroke="#bfbfbf" points="27.1306,-58.5 27.1306,-79.5 92.1306,-79.5 92.1306,-58.5 27.1306,-58.5"/>
<text text-anchor="middle" x="59.6306" y="-66.5" font-family="Helvetica,sans-Serif" font-size="10.00">TVector3.h</text>
</g>
<!-- Node2&#45;&gt;Node8 -->
<g id="edge38" class="edge"><title>Node2&#45;&gt;Node8</title>
<path fill="none" stroke="midnightblue" d="M201.098,-233.926C161.752,-225.228 108.88,-211.206 93.6306,-196 65.077,-167.529 59.7408,-117.874 59.1757,-89.8302"/>
<polygon fill="midnightblue" stroke="midnightblue" points="62.6756,-89.5781 59.1657,-79.5816 55.6756,-89.585 62.6756,-89.5781"/>
</g>
<!-- Node13 -->
<g id="node27" class="node"><title>Node13</title>
<a xlink:href="_cluster_8h.html" target="_top" xlink:title="analysis/data/Cluster.h">
<polygon fill="white" stroke="black" points="102.131,-174.5 102.131,-195.5 219.131,-195.5 219.131,-174.5 102.131,-174.5"/>
<text text-anchor="middle" x="160.631" y="-182.5" font-family="Helvetica,sans-Serif" font-size="10.00">analysis/data/Cluster.h</text>
</a>
</g>
<!-- Node2&#45;&gt;Node13 -->
<g id="edge28" class="edge"><title>Node2&#45;&gt;Node13</title>
<path fill="none" stroke="midnightblue" d="M230.857,-232.362C218.007,-223.696 199.646,-211.313 184.921,-201.382"/>
<polygon fill="midnightblue" stroke="midnightblue" points="186.552,-198.26 176.304,-195.571 182.638,-204.064 186.552,-198.26"/>
</g>
<!-- Node16 -->
<g id="node37" class="node"><title>Node16</title>
<polygon fill="white" stroke="#bfbfbf" points="402.631,-174.5 402.631,-195.5 454.631,-195.5 454.631,-174.5 402.631,-174.5"/>
<text text-anchor="middle" x="428.631" y="-182.5" font-family="Helvetica,sans-Serif" font-size="10.00">memory</text>
</g>
<!-- Node2&#45;&gt;Node16 -->
<g id="edge42" class="edge"><title>Node2&#45;&gt;Node16</title>
<path fill="none" stroke="midnightblue" d="M279.589,-232.497C311.524,-222.32 359.825,-206.927 392.723,-196.443"/>
<polygon fill="midnightblue" stroke="midnightblue" points="393.938,-199.729 402.403,-193.358 391.812,-193.06 393.938,-199.729"/>
</g>
<!-- Node3&#45;&gt;Node4 -->
<g id="edge6" class="edge"><title>Node3&#45;&gt;Node4</title>
<path fill="none" stroke="midnightblue" d="M425.411,-59.6813C371.311,-48.0166 279.905,-28.3082 231.661,-17.9063"/>
<polygon fill="midnightblue" stroke="midnightblue" points="232.284,-14.4601 221.771,-15.7737 230.808,-21.3029 232.284,-14.4601"/>
</g>
<!-- Node3&#45;&gt;Node5 -->
<g id="edge8" class="edge"><title>Node3&#45;&gt;Node5</title>
<path fill="none" stroke="midnightblue" d="M425.552,-59.6039C422.538,-59.0338 419.542,-58.4925 416.631,-58 295.392,-37.4909 150.378,-21.4903 84.0195,-14.6368"/>
<polygon fill="midnightblue" stroke="midnightblue" points="83.9906,-11.1156 73.6859,-13.578 83.277,-18.0791 83.9906,-11.1156"/>
</g>
<!-- Node7&#45;&gt;Node3 -->
<g id="edge14" class="edge"><title>Node7&#45;&gt;Node3</title>
<path fill="none" stroke="midnightblue" d="M296.66,-116.497C331.488,-106.877 383.189,-92.5981 420.805,-82.209"/>
<polygon fill="midnightblue" stroke="midnightblue" points="421.823,-85.5591 430.53,-79.5231 419.959,-78.8117 421.823,-85.5591"/>
</g>
<!-- Node7&#45;&gt;Node4 -->
<g id="edge26" class="edge"><title>Node7&#45;&gt;Node4</title>
<path fill="none" stroke="midnightblue" d="M247.242,-116.446C238.26,-107.534 226.05,-94.0149 218.631,-80 210.649,-64.9234 205.763,-46.1716 202.949,-32.0234"/>
<polygon fill="midnightblue" stroke="midnightblue" points="206.329,-31.0454 201.116,-21.8218 199.44,-32.2832 206.329,-31.0454"/>
</g>
<!-- Node7&#45;&gt;Node8 -->
<g id="edge16" class="edge"><title>Node7&#45;&gt;Node8</title>
<path fill="none" stroke="midnightblue" d="M222.593,-116.497C188.706,-106.62 137.963,-91.8304 102.118,-81.3833"/>
<polygon fill="midnightblue" stroke="midnightblue" points="103.009,-77.9975 92.4295,-78.5595 101.051,-84.7179 103.009,-77.9975"/>
</g>
<!-- Node9 -->
<g id="node18" class="node"><title>Node9</title>
<polygon fill="white" stroke="#bfbfbf" points="227.631,-58.5 227.631,-79.5 273.631,-79.5 273.631,-58.5 227.631,-58.5"/>
<text text-anchor="middle" x="250.631" y="-66.5" font-family="Helvetica,sans-Serif" font-size="10.00">cstdint</text>
</g>
<!-- Node7&#45;&gt;Node9 -->
<g id="edge18" class="edge"><title>Node7&#45;&gt;Node9</title>
<path fill="none" stroke="midnightblue" d="M257.163,-116.362C256.137,-108.922 254.733,-98.7427 253.49,-89.7276"/>
<polygon fill="midnightblue" stroke="midnightblue" points="256.922,-88.9986 252.089,-79.5707 249.988,-89.9551 256.922,-88.9986"/>
</g>
<!-- Node10 -->
<g id="node20" class="node"><title>Node10</title>
<polygon fill="white" stroke="#bfbfbf" points="291.131,-58.5 291.131,-79.5 350.131,-79.5 350.131,-58.5 291.131,-58.5"/>
<text text-anchor="middle" x="320.631" y="-66.5" font-family="Helvetica,sans-Serif" font-size="10.00">stdexcept</text>
</g>
<!-- Node7&#45;&gt;Node10 -->
<g id="edge20" class="edge"><title>Node7&#45;&gt;Node10</title>
<path fill="none" stroke="midnightblue" d="M270.002,-116.362C278.917,-108.023 291.51,-96.2418 301.906,-86.5162"/>
<polygon fill="midnightblue" stroke="midnightblue" points="304.419,-88.9582 309.331,-79.5707 299.637,-83.8463 304.419,-88.9582"/>
</g>
<!-- Node11 -->
<g id="node22" class="node"><title>Node11</title>
<polygon fill="white" stroke="#bfbfbf" points="367.131,-58.5 367.131,-79.5 408.131,-79.5 408.131,-58.5 367.131,-58.5"/>
<text text-anchor="middle" x="387.631" y="-66.5" font-family="Helvetica,sans-Serif" font-size="10.00">string</text>
</g>
<!-- Node7&#45;&gt;Node11 -->
<g id="edge22" class="edge"><title>Node7&#45;&gt;Node11</title>
<path fill="none" stroke="midnightblue" d="M281.991,-116.497C303.211,-106.956 334.625,-92.8322 357.681,-82.4655"/>
<polygon fill="midnightblue" stroke="midnightblue" points="359.312,-85.5699 366.997,-78.277 356.441,-79.1856 359.312,-85.5699"/>
</g>
<!-- Node12 -->
<g id="node24" class="node"><title>Node12</title>
<polygon fill="white" stroke="#bfbfbf" points="109.631,-58.5 109.631,-79.5 171.631,-79.5 171.631,-58.5 109.631,-58.5"/>
<text text-anchor="middle" x="140.631" y="-66.5" font-family="Helvetica,sans-Serif" font-size="10.00">type_traits</text>
</g>
<!-- Node7&#45;&gt;Node12 -->
<g id="edge24" class="edge"><title>Node7&#45;&gt;Node12</title>
<path fill="none" stroke="midnightblue" d="M237.262,-116.497C218.832,-107.438 191.993,-94.2462 171.275,-84.0628"/>
<polygon fill="midnightblue" stroke="midnightblue" points="172.758,-80.8914 162.239,-79.6212 169.67,-87.1735 172.758,-80.8914"/>
</g>
<!-- Node13&#45;&gt;Node7 -->
<g id="edge30" class="edge"><title>Node13&#45;&gt;Node7</title>
<path fill="none" stroke="midnightblue" d="M178.605,-174.362C193.525,-165.532 214.963,-152.844 231.896,-142.822"/>
<polygon fill="midnightblue" stroke="midnightblue" points="233.947,-145.676 240.77,-137.571 230.381,-139.652 233.947,-145.676"/>
</g>
<!-- Node13&#45;&gt;Node8 -->
<g id="edge34" class="edge"><title>Node13&#45;&gt;Node8</title>
<path fill="none" stroke="midnightblue" d="M140.775,-174.346C126.543,-165.944 107.662,-153.139 94.6306,-138 82.2204,-123.582 72.8295,-103.999 66.9153,-89.3784"/>
<polygon fill="midnightblue" stroke="midnightblue" points="70.0746,-87.8413 63.23,-79.7542 63.5375,-90.3446 70.0746,-87.8413"/>
</g>
<!-- Node14 -->
<g id="node30" class="node"><title>Node14</title>
<polygon fill="white" stroke="#bfbfbf" points="413.131,-116.5 413.131,-137.5 442.131,-137.5 442.131,-116.5 413.131,-116.5"/>
<text text-anchor="middle" x="427.631" y="-124.5" font-family="Helvetica,sans-Serif" font-size="10.00">list</text>
</g>
<!-- Node13&#45;&gt;Node14 -->
<g id="edge32" class="edge"><title>Node13&#45;&gt;Node14</title>
<path fill="none" stroke="midnightblue" d="M208.982,-174.497C266.18,-162.072 359.169,-141.872 403.126,-132.323"/>
<polygon fill="midnightblue" stroke="midnightblue" points="403.923,-135.732 412.952,-130.189 402.437,-128.891 403.923,-135.732"/>
</g>
<!-- Node15 -->
<g id="node33" class="node"><title>Node15</title>
<a xlink:href="enumfield_8h.html" target="_top" xlink:title="base/enumfield.h">
<polygon fill="white" stroke="black" points="103.131,-116.5 103.131,-137.5 194.131,-137.5 194.131,-116.5 103.131,-116.5"/>
<text text-anchor="middle" x="148.631" y="-124.5" font-family="Helvetica,sans-Serif" font-size="10.00">base/enumfield.h</text>
</a>
</g>
<!-- Node13&#45;&gt;Node15 -->
<g id="edge36" class="edge"><title>Node13&#45;&gt;Node15</title>
<path fill="none" stroke="midnightblue" d="M158.43,-174.362C156.873,-166.84 154.738,-156.519 152.858,-147.431"/>
<polygon fill="midnightblue" stroke="midnightblue" points="156.271,-146.654 150.818,-137.571 149.416,-148.072 156.271,-146.654"/>
</g>
<!-- Node17&#45;&gt;Node3 -->
<g id="edge54" class="edge"><title>Node17&#45;&gt;Node3</title>
<path fill="none" stroke="midnightblue" d="M462.614,-232.327C468.188,-223.13 475.557,-209.275 478.631,-196 487.149,-159.212 479.857,-115.005 474.055,-89.638"/>
<polygon fill="midnightblue" stroke="midnightblue" points="477.401,-88.5862 471.633,-79.6993 470.6,-90.2436 477.401,-88.5862"/>
</g>
<!-- Node17&#45;&gt;Node6 -->
<g id="edge52" class="edge"><title>Node17&#45;&gt;Node6</title>
<path fill="none" stroke="midnightblue" d="M436.005,-232.362C419.489,-223.409 395.657,-210.491 377.053,-200.406"/>
<polygon fill="midnightblue" stroke="midnightblue" points="378.591,-197.259 368.132,-195.571 375.255,-203.413 378.591,-197.259"/>
</g>
<!-- Node17&#45;&gt;Node14 -->
<g id="edge48" class="edge"><title>Node17&#45;&gt;Node14</title>
<path fill="none" stroke="midnightblue" d="M459.641,-232.414C464.25,-218.607 470.367,-193.873 463.631,-174 460.017,-163.341 452.909,-153.201 445.956,-145.087"/>
<polygon fill="midnightblue" stroke="midnightblue" points="448.527,-142.712 439.19,-137.704 443.366,-147.441 448.527,-142.712"/>
</g>
<!-- Node17&#45;&gt;Node16 -->
<g id="edge50" class="edge"><title>Node17&#45;&gt;Node16</title>
<path fill="none" stroke="midnightblue" d="M450.678,-232.362C447.101,-224.677 442.163,-214.069 437.866,-204.84"/>
<polygon fill="midnightblue" stroke="midnightblue" points="440.945,-203.159 433.551,-195.571 434.599,-206.114 440.945,-203.159"/>
</g>
<!-- Node18 -->
<g id="node46" class="node"><title>Node18</title>
<polygon fill="white" stroke="#bfbfbf" points="548.631,-174.5 548.631,-195.5 640.631,-195.5 640.631,-174.5 548.631,-174.5"/>
<text text-anchor="middle" x="594.631" y="-182.5" font-family="Helvetica,sans-Serif" font-size="10.00">TLorentzVector.h</text>
</g>
<!-- Node17&#45;&gt;Node18 -->
<g id="edge56" class="edge"><title>Node17&#45;&gt;Node18</title>
<path fill="none" stroke="midnightblue" d="M480.802,-232.497C502.904,-223.275 535.269,-209.769 559.844,-199.515"/>
<polygon fill="midnightblue" stroke="midnightblue" points="561.295,-202.702 569.176,-195.621 558.6,-196.242 561.295,-202.702"/>
</g>
</g>
</svg>
