<?xml version="1.0" encoding="UTF-8" standalone="no"?>
<!DOCTYPE svg PUBLIC "-//W3C//DTD SVG 1.1//EN"
 "http://www.w3.org/Graphics/SVG/1.1/DTD/svg11.dtd">
<!-- Generated by graphviz version 2.26.3 (20100126.1600)
 -->
<!-- Title: src/calibration/modules/Time.h Pages: 1 -->
<svg width="424pt" height="188pt"
 viewBox="0.00 0.00 424.00 188.00" xmlns="http://www.w3.org/2000/svg" xmlns:xlink="http://www.w3.org/1999/xlink">
<g id="graph1" class="graph" transform="scale(1 1) rotate(0) translate(4 184)">
<title>src/calibration/modules/Time.h</title>
<polygon fill="white" stroke="white" points="-4,5 -4,-184 421,-184 421,5 -4,5"/>
<!-- Node1 -->
<g id="node1" class="node"><title>Node1</title>
<polygon fill="#bfbfbf" stroke="black" points="170.5,-145 170.5,-179 287.5,-179 287.5,-145 170.5,-145"/>
<text text-anchor="start" x="178.5" y="-166" font-family="Helvetica,sans-Serif" font-size="10.00">src/calibration/modules</text>
<text text-anchor="middle" x="229" y="-153" font-family="Helvetica,sans-Serif" font-size="10.00">/Time.h</text>
</g>
<!-- Node2 -->
<g id="node3" class="node"><title>Node2</title>
<a xlink:href="_t_a_p_s___time_8h.html" target="_top" xlink:title="src/calibration/modules\l/TAPS_Time.h">
<polygon fill="white" stroke="black" points="127.5,-73 127.5,-107 244.5,-107 244.5,-73 127.5,-73"/>
<text text-anchor="start" x="135.5" y="-94" font-family="Helvetica,sans-Serif" font-size="10.00">src/calibration/modules</text>
<text text-anchor="middle" x="186" y="-81" font-family="Helvetica,sans-Serif" font-size="10.00">/TAPS_Time.h</text>
</a>
</g>
<!-- Node1&#45;&gt;Node2 -->
<g id="edge2" class="edge"><title>Node1&#45;&gt;Node2</title>
<path fill="none" stroke="midnightblue" d="M213.594,-136.203C207.893,-126.658 201.57,-116.07 196.416,-107.441"/>
<polygon fill="midnightblue" stroke="midnightblue" points="210.677,-138.146 218.81,-144.937 216.687,-134.557 210.677,-138.146"/>
</g>
<!-- Node4 -->
<g id="node7" class="node"><title>Node4</title>
<a xlink:href="_setup__2014___e_p_t_8cc.html" target="_top" xlink:title="src/expconfig/setups\l/Setup_2014_EPT.cc">
<polygon fill="white" stroke="black" points="0,-1 0,-35 110,-35 110,-1 0,-1"/>
<text text-anchor="start" x="8" y="-22" font-family="Helvetica,sans-Serif" font-size="10.00">src/expconfig/setups</text>
<text text-anchor="middle" x="55" y="-9" font-family="Helvetica,sans-Serif" font-size="10.00">/Setup_2014_EPT.cc</text>
</a>
</g>
<!-- Node1&#45;&gt;Node4 -->
<g id="edge12" class="edge"><title>Node1&#45;&gt;Node4</title>
<path fill="none" stroke="midnightblue" d="M172.66,-140.875C154.363,-132.376 134.739,-121.378 119,-108 94.4578,-87.1389 74.5647,-54.8982 63.7883,-35.1978"/>
<polygon fill="midnightblue" stroke="midnightblue" points="171.239,-144.074 181.796,-144.968 174.101,-137.685 171.239,-144.074"/>
</g>
<!-- Node5 -->
<g id="node9" class="node"><title>Node5</title>
<a xlink:href="_setup___test_8cc.html" target="_top" xlink:title="src/expconfig/setups\l/Setup_Test.cc">
<polygon fill="white" stroke="black" points="261.5,-1 261.5,-35 368.5,-35 368.5,-1 261.5,-1"/>
<text text-anchor="start" x="269.5" y="-22" font-family="Helvetica,sans-Serif" font-size="10.00">src/expconfig/setups</text>
<text text-anchor="middle" x="315" y="-9" font-family="Helvetica,sans-Serif" font-size="10.00">/Setup_Test.cc</text>
</a>
</g>
<!-- Node1&#45;&gt;Node5 -->
<g id="edge14" class="edge"><title>Node1&#45;&gt;Node5</title>
<path fill="none" stroke="midnightblue" d="M244.479,-136.082C261.952,-106.824 289.883,-60.0567 304.81,-35.0619"/>
<polygon fill="midnightblue" stroke="midnightblue" points="241.326,-134.536 239.203,-144.916 247.335,-138.125 241.326,-134.536"/>
</g>
<!-- Node6 -->
<g id="node11" class="node"><title>Node6</title>
<a xlink:href="_time_8cc.html" target="_top" xlink:title="src/calibration/modules\l/Time.cc">
<polygon fill="white" stroke="black" points="299.5,-73 299.5,-107 416.5,-107 416.5,-73 299.5,-73"/>
<text text-anchor="start" x="307.5" y="-94" font-family="Helvetica,sans-Serif" font-size="10.00">src/calibration/modules</text>
<text text-anchor="middle" x="358" y="-81" font-family="Helvetica,sans-Serif" font-size="10.00">/Time.cc</text>
</a>
</g>
<!-- Node1&#45;&gt;Node6 -->
<g id="edge10" class="edge"><title>Node1&#45;&gt;Node6</title>
<path fill="none" stroke="midnightblue" d="M268.525,-139.94C287.386,-129.413 309.617,-117.004 327.201,-107.19"/>
<polygon fill="midnightblue" stroke="midnightblue" points="266.597,-137.007 259.571,-144.937 270.009,-143.119 266.597,-137.007"/>
</g>
<!-- Node3 -->
<g id="node5" class="node"><title>Node3</title>
<a xlink:href="_t_a_p_s___time_8cc.html" target="_top" xlink:title="src/calibration/modules\l/TAPS_Time.cc">
<polygon fill="white" stroke="black" points="127.5,-1 127.5,-35 244.5,-35 244.5,-1 127.5,-1"/>
<text text-anchor="start" x="135.5" y="-22" font-family="Helvetica,sans-Serif" font-size="10.00">src/calibration/modules</text>
<text text-anchor="middle" x="186" y="-9" font-family="Helvetica,sans-Serif" font-size="10.00">/TAPS_Time.cc</text>
</a>
</g>
<!-- Node2&#45;&gt;Node3 -->
<g id="edge4" class="edge"><title>Node2&#45;&gt;Node3</title>
<path fill="none" stroke="midnightblue" d="M186,-62.7193C186,-53.572 186,-43.6255 186,-35.4407"/>
<polygon fill="midnightblue" stroke="midnightblue" points="182.5,-62.937 186,-72.937 189.5,-62.937 182.5,-62.937"/>
</g>
<!-- Node2&#45;&gt;Node4 -->
<g id="edge6" class="edge"><title>Node2&#45;&gt;Node4</title>
<path fill="none" stroke="midnightblue" d="M146.124,-68.0832C126.914,-57.5254 104.214,-45.049 86.2763,-35.19"/>
<polygon fill="midnightblue" stroke="midnightblue" points="144.505,-71.1876 154.955,-72.937 147.877,-65.0531 144.505,-71.1876"/>
</g>
<!-- Node2&#45;&gt;Node5 -->
<g id="edge8" class="edge"><title>Node2&#45;&gt;Node5</title>
<path fill="none" stroke="midnightblue" d="M225.525,-67.9398C244.386,-57.4125 266.617,-45.0044 284.201,-35.19"/>
<polygon fill="midnightblue" stroke="midnightblue" points="223.597,-65.0071 216.571,-72.937 227.009,-71.1195 223.597,-65.0071"/>
</g>
</g>
</svg>
