<?xml version="1.0" encoding="UTF-8" standalone="no"?>
<!DOCTYPE svg PUBLIC "-//W3C//DTD SVG 1.1//EN"
 "http://www.w3.org/Graphics/SVG/1.1/DTD/svg11.dtd">
<!-- Generated by graphviz version 2.26.3 (20100126.1600)
 -->
<!-- Title: src/analysis/utils/TimeSmearingHack.cc Pages: 1 -->
<svg width="817pt" height="392pt"
 viewBox="0.00 0.00 816.99 392.00" xmlns="http://www.w3.org/2000/svg" xmlns:xlink="http://www.w3.org/1999/xlink">
<g id="graph1" class="graph" transform="scale(1 1) rotate(0) translate(4 388)">
<title>src/analysis/utils/TimeSmearingHack.cc</title>
<polygon fill="white" stroke="white" points="-4,5 -4,-388 813.989,-388 813.989,5 -4,5"/>
<!-- Node1 -->
<g id="node1" class="node"><title>Node1</title>
<polygon fill="#bfbfbf" stroke="black" points="402.5,-349 402.5,-383 521.5,-383 521.5,-349 402.5,-349"/>
<text text-anchor="start" x="410.5" y="-370" font-family="Helvetica,sans-Serif" font-size="10.00">src/analysis/utils</text>
<text text-anchor="middle" x="462" y="-357" font-family="Helvetica,sans-Serif" font-size="10.00">/TimeSmearingHack.cc</text>
</g>
<!-- Node2 -->
<g id="node3" class="node"><title>Node2</title>
<a xlink:href="_time_smearing_hack_8h.html" target="_top" xlink:title="TimeSmearingHack.h">
<polygon fill="white" stroke="black" points="299.5,-290.5 299.5,-311.5 410.5,-311.5 410.5,-290.5 299.5,-290.5"/>
<text text-anchor="middle" x="355" y="-298.5" font-family="Helvetica,sans-Serif" font-size="10.00">TimeSmearingHack.h</text>
</a>
</g>
<!-- Node1&#45;&gt;Node2 -->
<g id="edge2" class="edge"><title>Node1&#45;&gt;Node2</title>
<path fill="none" stroke="midnightblue" d="M433.887,-348.922C417.634,-339.049 397.313,-326.704 381.365,-317.016"/>
<polygon fill="midnightblue" stroke="midnightblue" points="382.909,-313.859 372.545,-311.658 379.275,-319.842 382.909,-313.859"/>
</g>
<!-- Node20 -->
<g id="node50" class="node"><title>Node20</title>
<polygon fill="white" stroke="#bfbfbf" points="428,-290.5 428,-311.5 496,-311.5 496,-290.5 428,-290.5"/>
<text text-anchor="middle" x="462" y="-298.5" font-family="Helvetica,sans-Serif" font-size="10.00">TRandom.h</text>
</g>
<!-- Node1&#45;&gt;Node20 -->
<g id="edge60" class="edge"><title>Node1&#45;&gt;Node20</title>
<path fill="none" stroke="midnightblue" d="M462,-348.922C462,-340.67 462,-330.692 462,-321.982"/>
<polygon fill="midnightblue" stroke="midnightblue" points="465.5,-321.852 462,-311.852 458.5,-321.852 465.5,-321.852"/>
</g>
<!-- Node21 -->
<g id="node52" class="node"><title>Node21</title>
<a xlink:href="_logger_8h.html" target="_top" xlink:title="base/Logger.h">
<polygon fill="white" stroke="black" points="514,-290.5 514,-311.5 592,-311.5 592,-290.5 514,-290.5"/>
<text text-anchor="middle" x="553" y="-298.5" font-family="Helvetica,sans-Serif" font-size="10.00">base/Logger.h</text>
</a>
</g>
<!-- Node1&#45;&gt;Node21 -->
<g id="edge62" class="edge"><title>Node1&#45;&gt;Node21</title>
<path fill="none" stroke="midnightblue" d="M485.909,-348.922C499.473,-339.233 516.37,-327.165 529.813,-317.562"/>
<polygon fill="midnightblue" stroke="midnightblue" points="531.975,-320.319 538.078,-311.658 527.907,-314.623 531.975,-320.319"/>
</g>
<!-- Node3 -->
<g id="node5" class="node"><title>Node3</title>
<a xlink:href="_candidate_8h.html" target="_top" xlink:title="data/Candidate.h">
<polygon fill="white" stroke="black" points="348.5,-232.5 348.5,-253.5 439.5,-253.5 439.5,-232.5 348.5,-232.5"/>
<text text-anchor="middle" x="394" y="-240.5" font-family="Helvetica,sans-Serif" font-size="10.00">data/Candidate.h</text>
</a>
</g>
<!-- Node2&#45;&gt;Node3 -->
<g id="edge4" class="edge"><title>Node2&#45;&gt;Node3</title>
<path fill="none" stroke="midnightblue" d="M362.153,-290.362C367.486,-282.431 374.911,-271.389 381.251,-261.961"/>
<polygon fill="midnightblue" stroke="midnightblue" points="384.217,-263.822 386.892,-253.571 378.408,-259.916 384.217,-263.822"/>
</g>
<!-- Node18 -->
<g id="node42" class="node"><title>Node18</title>
<a xlink:href="_tagger_hit_8h.html" target="_top" xlink:title="data/TaggerHit.h">
<polygon fill="white" stroke="black" points="140.5,-232.5 140.5,-253.5 229.5,-253.5 229.5,-232.5 140.5,-232.5"/>
<text text-anchor="middle" x="185" y="-240.5" font-family="Helvetica,sans-Serif" font-size="10.00">data/TaggerHit.h</text>
</a>
</g>
<!-- Node2&#45;&gt;Node18 -->
<g id="edge48" class="edge"><title>Node2&#45;&gt;Node18</title>
<path fill="none" stroke="midnightblue" d="M324.214,-290.497C296.62,-281.082 255.942,-267.204 225.675,-256.877"/>
<polygon fill="midnightblue" stroke="midnightblue" points="226.438,-253.44 215.843,-253.523 224.178,-260.065 226.438,-253.44"/>
</g>
<!-- Node4 -->
<g id="node7" class="node"><title>Node4</title>
<a xlink:href="printable_8h.html" target="_top" xlink:title="base/printable.h">
<polygon fill="white" stroke="black" points="307,-58.5 307,-79.5 393,-79.5 393,-58.5 307,-58.5"/>
<text text-anchor="middle" x="350" y="-66.5" font-family="Helvetica,sans-Serif" font-size="10.00">base/printable.h</text>
</a>
</g>
<!-- Node3&#45;&gt;Node4 -->
<g id="edge6" class="edge"><title>Node3&#45;&gt;Node4</title>
<path fill="none" stroke="midnightblue" d="M391.314,-232.377C384.181,-204.172 364.67,-127.012 355.24,-89.7203"/>
<polygon fill="midnightblue" stroke="midnightblue" points="358.608,-88.7645 352.763,-79.9277 351.822,-90.4806 358.608,-88.7645"/>
</g>
<!-- Node5 -->
<g id="node9" class="node"><title>Node5</title>
<polygon fill="white" stroke="#bfbfbf" points="399,-0.5 399,-21.5 443,-21.5 443,-0.5 399,-0.5"/>
<text text-anchor="middle" x="421" y="-8.5" font-family="Helvetica,sans-Serif" font-size="10.00">vector</text>
</g>
<!-- Node3&#45;&gt;Node5 -->
<g id="edge46" class="edge"><title>Node3&#45;&gt;Node5</title>
<path fill="none" stroke="midnightblue" d="M439.604,-238.451C487.18,-232.629 563.293,-220.248 625,-196 671.042,-177.907 678.831,-165.429 720,-138 761.846,-110.12 833.296,-95.68 800,-58 777.136,-32.1255 540.532,-17.2397 453.175,-12.5916"/>
<polygon fill="midnightblue" stroke="midnightblue" points="453.219,-9.0892 443.05,-12.0634 452.854,-16.0797 453.219,-9.0892"/>
</g>
<!-- Node6 -->
<g id="node11" class="node"><title>Node6</title>
<polygon fill="white" stroke="#bfbfbf" points="289,-0.5 289,-21.5 341,-21.5 341,-0.5 289,-0.5"/>
<text text-anchor="middle" x="315" y="-8.5" font-family="Helvetica,sans-Serif" font-size="10.00">ostream</text>
</g>
<!-- Node3&#45;&gt;Node6 -->
<g id="edge42" class="edge"><title>Node3&#45;&gt;Node6</title>
<path fill="none" stroke="midnightblue" d="M385.015,-232.481C364.641,-207.851 315.361,-143.688 298,-80 293.509,-63.5254 298.843,-44.696 304.691,-30.8735"/>
<polygon fill="midnightblue" stroke="midnightblue" points="307.868,-32.3425 308.908,-21.7988 301.52,-29.3931 307.868,-32.3425"/>
</g>
<!-- Node7 -->
<g id="node13" class="node"><title>Node7</title>
<a xlink:href="types_8h.html" target="_top" xlink:title="base/types.h">
<polygon fill="white" stroke="black" points="255.5,-174.5 255.5,-195.5 328.5,-195.5 328.5,-174.5 255.5,-174.5"/>
<text text-anchor="middle" x="292" y="-182.5" font-family="Helvetica,sans-Serif" font-size="10.00">base/types.h</text>
</a>
</g>
<!-- Node3&#45;&gt;Node7 -->
<g id="edge12" class="edge"><title>Node3&#45;&gt;Node7</title>
<path fill="none" stroke="midnightblue" d="M375.292,-232.362C359.619,-223.45 337.036,-210.609 319.337,-200.545"/>
<polygon fill="midnightblue" stroke="midnightblue" points="321.013,-197.471 310.59,-195.571 317.553,-203.556 321.013,-197.471"/>
</g>
<!-- Node8 -->
<g id="node15" class="node"><title>Node8</title>
<a xlink:href="_detector__t_8h.html" target="_top" xlink:title="base/Detector_t.h">
<polygon fill="white" stroke="black" points="445.5,-116.5 445.5,-137.5 540.5,-137.5 540.5,-116.5 445.5,-116.5"/>
<text text-anchor="middle" x="493" y="-124.5" font-family="Helvetica,sans-Serif" font-size="10.00">base/Detector_t.h</text>
</a>
</g>
<!-- Node3&#45;&gt;Node8 -->
<g id="edge14" class="edge"><title>Node3&#45;&gt;Node8</title>
<path fill="none" stroke="midnightblue" d="M402.758,-232.136C413.839,-218.45 433.582,-194.27 451,-174 459.215,-164.44 468.54,-153.967 476.314,-145.339"/>
<polygon fill="midnightblue" stroke="midnightblue" points="479.092,-147.486 483.204,-137.722 473.9,-142.79 479.092,-147.486"/>
</g>
<!-- Node9 -->
<g id="node18" class="node"><title>Node9</title>
<polygon fill="white" stroke="#bfbfbf" points="726.5,-58.5 726.5,-79.5 791.5,-79.5 791.5,-58.5 726.5,-58.5"/>
<text text-anchor="middle" x="759" y="-66.5" font-family="Helvetica,sans-Serif" font-size="10.00">TVector3.h</text>
</g>
<!-- Node3&#45;&gt;Node9 -->
<g id="edge40" class="edge"><title>Node3&#45;&gt;Node9</title>
<path fill="none" stroke="midnightblue" d="M439.559,-236.297C502.483,-225.136 617.039,-197.772 695,-138 714.077,-123.374 732.365,-102.769 744.47,-87.8889"/>
<polygon fill="midnightblue" stroke="midnightblue" points="747.356,-89.8825 750.842,-79.8774 741.878,-85.5251 747.356,-89.8825"/>
</g>
<!-- Node14 -->
<g id="node29" class="node"><title>Node14</title>
<a xlink:href="_cluster_8h.html" target="_top" xlink:title="analysis/data/Cluster.h">
<polygon fill="white" stroke="black" points="459.5,-174.5 459.5,-195.5 576.5,-195.5 576.5,-174.5 459.5,-174.5"/>
<text text-anchor="middle" x="518" y="-182.5" font-family="Helvetica,sans-Serif" font-size="10.00">analysis/data/Cluster.h</text>
</a>
</g>
<!-- Node3&#45;&gt;Node14 -->
<g id="edge30" class="edge"><title>Node3&#45;&gt;Node14</title>
<path fill="none" stroke="midnightblue" d="M416.455,-232.497C435.91,-223.397 464.28,-210.127 486.091,-199.925"/>
<polygon fill="midnightblue" stroke="midnightblue" points="487.717,-203.028 495.293,-195.621 484.752,-196.688 487.717,-203.028"/>
</g>
<!-- Node17 -->
<g id="node39" class="node"><title>Node17</title>
<polygon fill="white" stroke="#bfbfbf" points="186,-174.5 186,-195.5 238,-195.5 238,-174.5 186,-174.5"/>
<text text-anchor="middle" x="212" y="-182.5" font-family="Helvetica,sans-Serif" font-size="10.00">memory</text>
</g>
<!-- Node3&#45;&gt;Node17 -->
<g id="edge44" class="edge"><title>Node3&#45;&gt;Node17</title>
<path fill="none" stroke="midnightblue" d="M361.041,-232.497C329.107,-222.32 280.805,-206.927 247.907,-196.443"/>
<polygon fill="midnightblue" stroke="midnightblue" points="248.818,-193.06 238.228,-193.358 246.693,-199.729 248.818,-193.06"/>
</g>
<!-- Node4&#45;&gt;Node5 -->
<g id="edge8" class="edge"><title>Node4&#45;&gt;Node5</title>
<path fill="none" stroke="midnightblue" d="M363.022,-58.3619C373.431,-49.859 388.219,-37.7785 400.255,-27.9466"/>
<polygon fill="midnightblue" stroke="midnightblue" points="402.53,-30.6077 408.06,-21.5707 398.101,-25.1866 402.53,-30.6077"/>
</g>
<!-- Node4&#45;&gt;Node6 -->
<g id="edge10" class="edge"><title>Node4&#45;&gt;Node6</title>
<path fill="none" stroke="midnightblue" d="M343.58,-58.3619C338.844,-50.5131 332.268,-39.6159 326.618,-30.2527"/>
<polygon fill="midnightblue" stroke="midnightblue" points="329.542,-28.3242 321.379,-21.5707 323.549,-31.9409 329.542,-28.3242"/>
</g>
<!-- Node8&#45;&gt;Node4 -->
<g id="edge16" class="edge"><title>Node8&#45;&gt;Node4</title>
<path fill="none" stroke="midnightblue" d="M467.104,-116.497C444.367,-107.275 411.07,-93.7695 385.788,-83.5153"/>
<polygon fill="midnightblue" stroke="midnightblue" points="386.769,-80.1365 376.187,-79.6212 384.138,-86.6232 386.769,-80.1365"/>
</g>
<!-- Node8&#45;&gt;Node5 -->
<g id="edge28" class="edge"><title>Node8&#45;&gt;Node5</title>
<path fill="none" stroke="midnightblue" d="M476.571,-116.338C464.745,-107.844 449.297,-94.9281 440,-80 430.788,-65.2081 425.967,-45.914 423.49,-31.4904"/>
<polygon fill="midnightblue" stroke="midnightblue" points="426.948,-30.9443 422.02,-21.5652 420.023,-31.9702 426.948,-30.9443"/>
</g>
<!-- Node8&#45;&gt;Node9 -->
<g id="edge18" class="edge"><title>Node8&#45;&gt;Node9</title>
<path fill="none" stroke="midnightblue" d="M540.579,-117.868C584.098,-109.334 650.472,-95.8653 716.614,-80.251"/>
<polygon fill="midnightblue" stroke="midnightblue" points="717.449,-83.6502 726.368,-77.932 715.83,-76.84 717.449,-83.6502"/>
</g>
<!-- Node10 -->
<g id="node20" class="node"><title>Node10</title>
<polygon fill="white" stroke="#bfbfbf" points="663,-58.5 663,-79.5 709,-79.5 709,-58.5 663,-58.5"/>
<text text-anchor="middle" x="686" y="-66.5" font-family="Helvetica,sans-Serif" font-size="10.00">cstdint</text>
</g>
<!-- Node8&#45;&gt;Node10 -->
<g id="edge20" class="edge"><title>Node8&#45;&gt;Node10</title>
<path fill="none" stroke="midnightblue" d="M530.887,-116.484C561.501,-107.865 605.911,-95.0907 653.167,-80.1739"/>
<polygon fill="midnightblue" stroke="midnightblue" points="654.499,-83.4232 662.971,-77.061 652.381,-76.7514 654.499,-83.4232"/>
</g>
<!-- Node11 -->
<g id="node22" class="node"><title>Node11</title>
<polygon fill="white" stroke="#bfbfbf" points="448.5,-58.5 448.5,-79.5 507.5,-79.5 507.5,-58.5 448.5,-58.5"/>
<text text-anchor="middle" x="478" y="-66.5" font-family="Helvetica,sans-Serif" font-size="10.00">stdexcept</text>
</g>
<!-- Node8&#45;&gt;Node11 -->
<g id="edge22" class="edge"><title>Node8&#45;&gt;Node11</title>
<path fill="none" stroke="midnightblue" d="M490.249,-116.362C488.303,-108.84 485.634,-98.5187 483.284,-89.4308"/>
<polygon fill="midnightblue" stroke="midnightblue" points="486.626,-88.3758 480.734,-79.5707 479.849,-90.1285 486.626,-88.3758"/>
</g>
<!-- Node12 -->
<g id="node24" class="node"><title>Node12</title>
<polygon fill="white" stroke="#bfbfbf" points="524.5,-58.5 524.5,-79.5 565.5,-79.5 565.5,-58.5 524.5,-58.5"/>
<text text-anchor="middle" x="545" y="-66.5" font-family="Helvetica,sans-Serif" font-size="10.00">string</text>
</g>
<!-- Node8&#45;&gt;Node12 -->
<g id="edge24" class="edge"><title>Node8&#45;&gt;Node12</title>
<path fill="none" stroke="midnightblue" d="M502.538,-116.362C509.868,-108.186 520.163,-96.7025 528.781,-87.0907"/>
<polygon fill="midnightblue" stroke="midnightblue" points="531.453,-89.3528 535.523,-79.5707 526.241,-84.68 531.453,-89.3528"/>
</g>
<!-- Node13 -->
<g id="node26" class="node"><title>Node13</title>
<polygon fill="white" stroke="#bfbfbf" points="583,-58.5 583,-79.5 645,-79.5 645,-58.5 583,-58.5"/>
<text text-anchor="middle" x="614" y="-66.5" font-family="Helvetica,sans-Serif" font-size="10.00">type_traits</text>
</g>
<!-- Node8&#45;&gt;Node13 -->
<g id="edge26" class="edge"><title>Node8&#45;&gt;Node13</title>
<path fill="none" stroke="midnightblue" d="M514.912,-116.497C533.811,-107.438 561.331,-94.2462 582.576,-84.0628"/>
<polygon fill="midnightblue" stroke="midnightblue" points="584.337,-87.0999 591.842,-79.6212 581.311,-80.7876 584.337,-87.0999"/>
</g>
<!-- Node14&#45;&gt;Node8 -->
<g id="edge32" class="edge"><title>Node14&#45;&gt;Node8</title>
<path fill="none" stroke="midnightblue" d="M513.415,-174.362C510.102,-166.677 505.53,-156.069 501.552,-146.84"/>
<polygon fill="midnightblue" stroke="midnightblue" points="504.729,-145.368 497.556,-137.571 498.301,-148.139 504.729,-145.368"/>
</g>
<!-- Node14&#45;&gt;Node9 -->
<g id="edge36" class="edge"><title>Node14&#45;&gt;Node9</title>
<path fill="none" stroke="midnightblue" d="M525.661,-174.415C537.23,-159.204 560.629,-131.312 587,-116 588.443,-115.162 666.037,-94.1133 716.501,-80.4714"/>
<polygon fill="midnightblue" stroke="midnightblue" points="717.461,-83.8376 726.202,-77.85 715.635,-77.08 717.461,-83.8376"/>
</g>
<!-- Node15 -->
<g id="node32" class="node"><title>Node15</title>
<polygon fill="white" stroke="#bfbfbf" points="207.5,-116.5 207.5,-137.5 236.5,-137.5 236.5,-116.5 207.5,-116.5"/>
<text text-anchor="middle" x="222" y="-124.5" font-family="Helvetica,sans-Serif" font-size="10.00">list</text>
</g>
<!-- Node14&#45;&gt;Node15 -->
<g id="edge34" class="edge"><title>Node14&#45;&gt;Node15</title>
<path fill="none" stroke="midnightblue" d="M464.397,-174.497C399.945,-161.868 294.502,-141.206 246.81,-131.861"/>
<polygon fill="midnightblue" stroke="midnightblue" points="247.25,-128.381 236.763,-129.893 245.904,-135.25 247.25,-128.381"/>
</g>
<!-- Node16 -->
<g id="node35" class="node"><title>Node16</title>
<a xlink:href="enumfield_8h.html" target="_top" xlink:title="base/enumfield.h">
<polygon fill="white" stroke="black" points="595.5,-116.5 595.5,-137.5 686.5,-137.5 686.5,-116.5 595.5,-116.5"/>
<text text-anchor="middle" x="641" y="-124.5" font-family="Helvetica,sans-Serif" font-size="10.00">base/enumfield.h</text>
</a>
</g>
<!-- Node14&#45;&gt;Node16 -->
<g id="edge38" class="edge"><title>Node14&#45;&gt;Node16</title>
<path fill="none" stroke="midnightblue" d="M540.274,-174.497C559.572,-165.397 587.713,-152.127 609.348,-141.925"/>
<polygon fill="midnightblue" stroke="midnightblue" points="610.924,-145.052 618.476,-137.621 607.938,-138.721 610.924,-145.052"/>
</g>
<!-- Node18&#45;&gt;Node4 -->
<g id="edge56" class="edge"><title>Node18&#45;&gt;Node4</title>
<path fill="none" stroke="midnightblue" d="M180.576,-232.401C176.916,-223.021 172.003,-208.864 170,-196 164.181,-158.631 170.183,-140.493 199,-116 226.467,-92.6554 265.477,-80.8936 296.965,-74.9742"/>
<polygon fill="midnightblue" stroke="midnightblue" points="297.646,-78.4084 306.901,-73.2503 296.449,-71.5115 297.646,-78.4084"/>
</g>
<!-- Node18&#45;&gt;Node7 -->
<g id="edge54" class="edge"><title>Node18&#45;&gt;Node7</title>
<path fill="none" stroke="midnightblue" d="M204.625,-232.362C221.141,-223.409 244.974,-210.491 263.578,-200.406"/>
<polygon fill="midnightblue" stroke="midnightblue" points="265.375,-203.413 272.499,-195.571 262.04,-197.259 265.375,-203.413"/>
</g>
<!-- Node18&#45;&gt;Node15 -->
<g id="edge50" class="edge"><title>Node18&#45;&gt;Node15</title>
<path fill="none" stroke="midnightblue" d="M180.657,-232.291C175.687,-218.351 169.181,-193.472 177,-174 181.641,-162.442 190.631,-152.122 199.363,-144.118"/>
<polygon fill="midnightblue" stroke="midnightblue" points="201.843,-146.602 207.177,-137.448 197.299,-141.278 201.843,-146.602"/>
</g>
<!-- Node18&#45;&gt;Node17 -->
<g id="edge52" class="edge"><title>Node18&#45;&gt;Node17</title>
<path fill="none" stroke="midnightblue" d="M189.952,-232.362C193.53,-224.677 198.468,-214.069 202.764,-204.84"/>
<polygon fill="midnightblue" stroke="midnightblue" points="206.032,-206.114 207.079,-195.571 199.686,-203.159 206.032,-206.114"/>
</g>
<!-- Node19 -->
<g id="node48" class="node"><title>Node19</title>
<polygon fill="white" stroke="#bfbfbf" points="0,-174.5 0,-195.5 92,-195.5 92,-174.5 0,-174.5"/>
<text text-anchor="middle" x="46" y="-182.5" font-family="Helvetica,sans-Serif" font-size="10.00">TLorentzVector.h</text>
</g>
<!-- Node18&#45;&gt;Node19 -->
<g id="edge58" class="edge"><title>Node18&#45;&gt;Node19</title>
<path fill="none" stroke="midnightblue" d="M159.828,-232.497C137.727,-223.275 105.361,-209.769 80.7866,-199.515"/>
<polygon fill="midnightblue" stroke="midnightblue" points="82.0309,-196.242 71.4543,-195.621 79.3353,-202.702 82.0309,-196.242"/>
</g>
<!-- Node22 -->
<g id="node54" class="node"><title>Node22</title>
<polygon fill="white" stroke="#bfbfbf" points="495.5,-232.5 495.5,-253.5 610.5,-253.5 610.5,-232.5 495.5,-232.5"/>
<text text-anchor="middle" x="553" y="-240.5" font-family="Helvetica,sans-Serif" font-size="10.00">detail/easylogging++.h</text>
</g>
<!-- Node21&#45;&gt;Node22 -->
<g id="edge64" class="edge"><title>Node21&#45;&gt;Node22</title>
<path fill="none" stroke="midnightblue" d="M553,-290.362C553,-282.922 553,-272.743 553,-263.728"/>
<polygon fill="midnightblue" stroke="midnightblue" points="556.5,-263.571 553,-253.571 549.5,-263.571 556.5,-263.571"/>
</g>
</g>
</svg>
