<?xml version="1.0" encoding="UTF-8" standalone="no"?>
<!DOCTYPE svg PUBLIC "-//W3C//DTD SVG 1.1//EN"
 "http://www.w3.org/Graphics/SVG/1.1/DTD/svg11.dtd">
<!-- Generated by graphviz version 2.26.3 (20100126.1600)
 -->
<!-- Title: src/analysis/input/goat/detail/TrackInput.h Pages: 1 -->
<svg width="436pt" height="188pt"
 viewBox="0.00 0.00 436.00 188.00" xmlns="http://www.w3.org/2000/svg" xmlns:xlink="http://www.w3.org/1999/xlink">
<g id="graph1" class="graph" transform="scale(1 1) rotate(0) translate(4 184)">
<title>src/analysis/input/goat/detail/TrackInput.h</title>
<polygon fill="white" stroke="white" points="-4,5 -4,-184 433,-184 433,5 -4,5"/>
<!-- Node1 -->
<g id="node1" class="node"><title>Node1</title>
<polygon fill="#bfbfbf" stroke="black" points="136,-145 136,-179 258,-179 258,-145 136,-145"/>
<text text-anchor="start" x="144" y="-166" font-family="Helvetica,sans-Serif" font-size="10.00">src/analysis/input</text>
<text text-anchor="middle" x="197" y="-153" font-family="Helvetica,sans-Serif" font-size="10.00">/goat/detail/TrackInput.h</text>
</g>
<!-- Node2 -->
<g id="node3" class="node"><title>Node2</title>
<a xlink:href="_track_input_8cc.html" target="_top" xlink:title="src/analysis/input\l/goat/detail/TrackInput.cc">
<polygon fill="white" stroke="black" points="0,-73 0,-107 128,-107 128,-73 0,-73"/>
<text text-anchor="start" x="8" y="-94" font-family="Helvetica,sans-Serif" font-size="10.00">src/analysis/input</text>
<text text-anchor="middle" x="64" y="-81" font-family="Helvetica,sans-Serif" font-size="10.00">/goat/detail/TrackInput.cc</text>
</a>
</g>
<!-- Node1&#45;&gt;Node2 -->
<g id="edge2" class="edge"><title>Node1&#45;&gt;Node2</title>
<path fill="none" stroke="midnightblue" d="M156.515,-140.083C137.012,-129.525 113.966,-117.049 95.7538,-107.19"/>
<polygon fill="midnightblue" stroke="midnightblue" points="155.021,-143.254 165.481,-144.937 158.353,-137.098 155.021,-143.254"/>
</g>
<!-- Node3 -->
<g id="node5" class="node"><title>Node3</title>
<a xlink:href="_goat_reader_8h.html" target="_top" xlink:title="src/analysis/input\l/goat/GoatReader.h">
<polygon fill="white" stroke="black" points="146,-73 146,-107 248,-107 248,-73 146,-73"/>
<text text-anchor="start" x="154" y="-94" font-family="Helvetica,sans-Serif" font-size="10.00">src/analysis/input</text>
<text text-anchor="middle" x="197" y="-81" font-family="Helvetica,sans-Serif" font-size="10.00">/goat/GoatReader.h</text>
</a>
</g>
<!-- Node1&#45;&gt;Node3 -->
<g id="edge4" class="edge"><title>Node1&#45;&gt;Node3</title>
<path fill="none" stroke="midnightblue" d="M197,-134.719C197,-125.572 197,-115.625 197,-107.441"/>
<polygon fill="midnightblue" stroke="midnightblue" points="193.5,-134.937 197,-144.937 200.5,-134.937 193.5,-134.937"/>
</g>
<!-- Node7 -->
<g id="node13" class="node"><title>Node7</title>
<a xlink:href="_test_input_module_8cc.html" target="_top" xlink:title="test/analysis/TestInputModule.cc">
<polygon fill="white" stroke="black" points="265.5,-79.5 265.5,-100.5 426.5,-100.5 426.5,-79.5 265.5,-79.5"/>
<text text-anchor="middle" x="346" y="-87.5" font-family="Helvetica,sans-Serif" font-size="10.00">test/analysis/TestInputModule.cc</text>
</a>
</g>
<!-- Node1&#45;&gt;Node7 -->
<g id="edge12" class="edge"><title>Node1&#45;&gt;Node7</title>
<path fill="none" stroke="midnightblue" d="M241.621,-140.438C268.775,-127.317 302.277,-111.128 323.882,-100.688"/>
<polygon fill="midnightblue" stroke="midnightblue" points="239.792,-137.435 232.311,-144.937 242.838,-143.737 239.792,-137.435"/>
</g>
<!-- Node4 -->
<g id="node7" class="node"><title>Node4</title>
<a xlink:href="_ant_8cc.html" target="_top" xlink:title="Main Ant executable. ">
<polygon fill="white" stroke="black" points="54,-7.5 54,-28.5 126,-28.5 126,-7.5 54,-7.5"/>
<text text-anchor="middle" x="90" y="-15.5" font-family="Helvetica,sans-Serif" font-size="10.00">progs/Ant.cc</text>
</a>
</g>
<!-- Node3&#45;&gt;Node4 -->
<g id="edge6" class="edge"><title>Node3&#45;&gt;Node4</title>
<path fill="none" stroke="midnightblue" d="M163.156,-67.2265C143.994,-54.3324 120.924,-38.8088 105.884,-28.688"/>
<polygon fill="midnightblue" stroke="midnightblue" points="161.392,-70.258 171.642,-72.937 165.3,-64.4504 161.392,-70.258"/>
</g>
<!-- Node5 -->
<g id="node9" class="node"><title>Node5</title>
<a xlink:href="_goat_reader_8cc.html" target="_top" xlink:title="src/analysis/input\l/goat/GoatReader.cc">
<polygon fill="white" stroke="black" points="143.5,-1 143.5,-35 250.5,-35 250.5,-1 143.5,-1"/>
<text text-anchor="start" x="151.5" y="-22" font-family="Helvetica,sans-Serif" font-size="10.00">src/analysis/input</text>
<text text-anchor="middle" x="197" y="-9" font-family="Helvetica,sans-Serif" font-size="10.00">/goat/GoatReader.cc</text>
</a>
</g>
<!-- Node3&#45;&gt;Node5 -->
<g id="edge8" class="edge"><title>Node3&#45;&gt;Node5</title>
<path fill="none" stroke="midnightblue" d="M197,-62.7193C197,-53.572 197,-43.6255 197,-35.4407"/>
<polygon fill="midnightblue" stroke="midnightblue" points="193.5,-62.937 197,-72.937 200.5,-62.937 193.5,-62.937"/>
</g>
<!-- Node6 -->
<g id="node11" class="node"><title>Node6</title>
<a xlink:href="_test_goat_reader_8cc.html" target="_top" xlink:title="test/analysis/TestGoatReader.cc">
<polygon fill="white" stroke="black" points="267.5,-7.5 267.5,-28.5 428.5,-28.5 428.5,-7.5 267.5,-7.5"/>
<text text-anchor="middle" x="348" y="-15.5" font-family="Helvetica,sans-Serif" font-size="10.00">test/analysis/TestGoatReader.cc</text>
</a>
</g>
<!-- Node3&#45;&gt;Node6 -->
<g id="edge10" class="edge"><title>Node3&#45;&gt;Node6</title>
<path fill="none" stroke="midnightblue" d="M241.86,-68.6099C269.442,-55.4582 303.594,-39.1736 325.585,-28.688"/>
<polygon fill="midnightblue" stroke="midnightblue" points="240.305,-65.4737 232.785,-72.937 243.318,-71.7922 240.305,-65.4737"/>
</g>
</g>
</svg>
