<?xml version="1.0" encoding="UTF-8" standalone="no"?>
<!DOCTYPE svg PUBLIC "-//W3C//DTD SVG 1.1//EN"
 "http://www.w3.org/Graphics/SVG/1.1/DTD/svg11.dtd">
<!-- Generated by graphviz version 2.26.3 (20100126.1600)
 -->
<!-- Title: src/expconfig/detectors/Trigger.h Pages: 1 -->
<svg width="378pt" height="116pt"
 viewBox="0.00 0.00 378.00 116.00" xmlns="http://www.w3.org/2000/svg" xmlns:xlink="http://www.w3.org/1999/xlink">
<g id="graph1" class="graph" transform="scale(1 1) rotate(0) translate(4 112)">
<title>src/expconfig/detectors/Trigger.h</title>
<polygon fill="white" stroke="white" points="-4,5 -4,-112 375,-112 375,5 -4,5"/>
<!-- Node1 -->
<g id="node1" class="node"><title>Node1</title>
<polygon fill="#bfbfbf" stroke="black" points="131.5,-73 131.5,-107 250.5,-107 250.5,-73 131.5,-73"/>
<text text-anchor="start" x="139.5" y="-94" font-family="Helvetica,sans-Serif" font-size="10.00">src/expconfig/detectors</text>
<text text-anchor="middle" x="191" y="-81" font-family="Helvetica,sans-Serif" font-size="10.00">/Trigger.h</text>
</g>
<!-- Node2 -->
<g id="node3" class="node"><title>Node2</title>
<a xlink:href="_trigger_8cc.html" target="_top" xlink:title="src/expconfig/detectors\l/Trigger.cc">
<polygon fill="white" stroke="black" points="-0.5,-1 -0.5,-35 118.5,-35 118.5,-1 -0.5,-1"/>
<text text-anchor="start" x="7.5" y="-22" font-family="Helvetica,sans-Serif" font-size="10.00">src/expconfig/detectors</text>
<text text-anchor="middle" x="59" y="-9" font-family="Helvetica,sans-Serif" font-size="10.00">/Trigger.cc</text>
</a>
</g>
<!-- Node1&#45;&gt;Node2 -->
<g id="edge2" class="edge"><title>Node1&#45;&gt;Node2</title>
<path fill="none" stroke="midnightblue" d="M150.819,-68.0832C131.463,-57.5254 108.59,-45.049 90.5151,-35.19"/>
<polygon fill="midnightblue" stroke="midnightblue" points="149.263,-71.2211 159.718,-72.937 152.615,-65.0758 149.263,-71.2211"/>
</g>
<!-- Node3 -->
<g id="node5" class="node"><title>Node3</title>
<a xlink:href="_setup__2014___e_p_t_8cc.html" target="_top" xlink:title="src/expconfig/setups\l/Setup_2014_EPT.cc">
<polygon fill="white" stroke="black" points="136,-1 136,-35 246,-35 246,-1 136,-1"/>
<text text-anchor="start" x="144" y="-22" font-family="Helvetica,sans-Serif" font-size="10.00">src/expconfig/setups</text>
<text text-anchor="middle" x="191" y="-9" font-family="Helvetica,sans-Serif" font-size="10.00">/Setup_2014_EPT.cc</text>
</a>
</g>
<!-- Node1&#45;&gt;Node3 -->
<g id="edge4" class="edge"><title>Node1&#45;&gt;Node3</title>
<path fill="none" stroke="midnightblue" d="M191,-62.7193C191,-53.572 191,-43.6255 191,-35.4407"/>
<polygon fill="midnightblue" stroke="midnightblue" points="187.5,-62.937 191,-72.937 194.5,-62.937 187.5,-62.937"/>
</g>
<!-- Node4 -->
<g id="node7" class="node"><title>Node4</title>
<a xlink:href="_setup___test_8cc.html" target="_top" xlink:title="src/expconfig/setups\l/Setup_Test.cc">
<polygon fill="white" stroke="black" points="263.5,-1 263.5,-35 370.5,-35 370.5,-1 263.5,-1"/>
<text text-anchor="start" x="271.5" y="-22" font-family="Helvetica,sans-Serif" font-size="10.00">src/expconfig/setups</text>
<text text-anchor="middle" x="317" y="-9" font-family="Helvetica,sans-Serif" font-size="10.00">/Setup_Test.cc</text>
</a>
</g>
<!-- Node1&#45;&gt;Node4 -->
<g id="edge6" class="edge"><title>Node1&#45;&gt;Node4</title>
<path fill="none" stroke="midnightblue" d="M229.605,-67.9398C248.028,-57.4125 269.742,-45.0044 286.917,-35.19"/>
<polygon fill="midnightblue" stroke="midnightblue" points="227.806,-64.9367 220.86,-72.937 231.279,-71.0144 227.806,-64.9367"/>
</g>
</g>
</svg>
