<?xml version="1.0" encoding="UTF-8" standalone="no"?>
<!DOCTYPE svg PUBLIC "-//W3C//DTD SVG 1.1//EN"
 "http://www.w3.org/Graphics/SVG/1.1/DTD/svg11.dtd">
<!-- Generated by graphviz version 2.26.3 (20100126.1600)
 -->
<!-- Title: src/expconfig/detectors/Trigger.h Pages: 1 -->
<svg width="3461pt" height="696pt"
 viewBox="0.00 0.00 3461.00 696.00" xmlns="http://www.w3.org/2000/svg" xmlns:xlink="http://www.w3.org/1999/xlink">
<g id="graph1" class="graph" transform="scale(1 1) rotate(0) translate(4 692)">
<title>src/expconfig/detectors/Trigger.h</title>
<polygon fill="white" stroke="white" points="-4,5 -4,-692 3458,-692 3458,5 -4,5"/>
<!-- Node1 -->
<g id="node1" class="node"><title>Node1</title>
<polygon fill="#bfbfbf" stroke="black" points="3334.5,-653 3334.5,-687 3453.5,-687 3453.5,-653 3334.5,-653"/>
<text text-anchor="start" x="3342.5" y="-674" font-family="Helvetica,sans-Serif" font-size="10.00">src/expconfig/detectors</text>
<text text-anchor="middle" x="3394" y="-661" font-family="Helvetica,sans-Serif" font-size="10.00">/Trigger.h</text>
</g>
<!-- Node2 -->
<g id="node3" class="node"><title>Node2</title>
<a xlink:href="_detector__t_8h.html" target="_top" xlink:title="base/Detector_t.h">
<polygon fill="white" stroke="black" points="873.5,-116.5 873.5,-137.5 968.5,-137.5 968.5,-116.5 873.5,-116.5"/>
<text text-anchor="middle" x="921" y="-124.5" font-family="Helvetica,sans-Serif" font-size="10.00">base/Detector_t.h</text>
</a>
</g>
<!-- Node1&#45;&gt;Node2 -->
<g id="edge2" class="edge"><title>Node1&#45;&gt;Node2</title>
<path fill="none" stroke="midnightblue" d="M3389.34,-652.757C3379.19,-613.636 3356,-515.028 3356,-431 3356,-431 3356,-431 3356,-301 3356,-266.614 3349.69,-250.948 3321,-232 3270.26,-198.498 2835.55,-201.498 2775,-196 2690.34,-188.312 2669.81,-179.87 2585,-174 1888.7,-125.809 1711.27,-186.615 1015,-138 1003.34,-137.186 990.895,-135.974 979.009,-134.649"/>
<polygon fill="midnightblue" stroke="midnightblue" points="979.075,-131.134 968.739,-133.463 978.271,-138.087 979.075,-131.134"/>
</g>
<!-- Node8 -->
<g id="node15" class="node"><title>Node8</title>
<polygon fill="white" stroke="#bfbfbf" points="2762.5,-58.5 2762.5,-79.5 2821.5,-79.5 2821.5,-58.5 2762.5,-58.5"/>
<text text-anchor="middle" x="2792" y="-66.5" font-family="Helvetica,sans-Serif" font-size="10.00">stdexcept</text>
</g>
<!-- Node1&#45;&gt;Node8 -->
<g id="edge336" class="edge"><title>Node1&#45;&gt;Node8</title>
<path fill="none" stroke="midnightblue" d="M3402.81,-652.996C3414.04,-629.722 3432,-586.336 3432,-547 3432,-547 3432,-547 3432,-301 3432,-259.535 3321.67,-126.852 3302,-116 3281.47,-104.676 2948.59,-80.1083 2831.97,-71.8061"/>
<polygon fill="midnightblue" stroke="midnightblue" points="2831.92,-68.2938 2821.7,-71.077 2831.43,-75.2762 2831.92,-68.2938"/>
</g>
<!-- Node11 -->
<g id="node22" class="node"><title>Node11</title>
<a xlink:href="_unpacker_acqu_8h.html" target="_top" xlink:title="unpacker/UnpackerAcqu.h">
<polygon fill="white" stroke="black" points="344,-594.5 344,-615.5 476,-615.5 476,-594.5 344,-594.5"/>
<text text-anchor="middle" x="410" y="-602.5" font-family="Helvetica,sans-Serif" font-size="10.00">unpacker/UnpackerAcqu.h</text>
</a>
</g>
<!-- Node1&#45;&gt;Node11 -->
<g id="edge22" class="edge"><title>Node1&#45;&gt;Node11</title>
<path fill="none" stroke="midnightblue" d="M3334.39,-668.702C2957.64,-660.495 909.078,-615.871 486.336,-606.663"/>
<polygon fill="midnightblue" stroke="midnightblue" points="486.138,-603.158 476.064,-606.439 485.986,-610.156 486.138,-603.158"/>
</g>
<!-- Node3 -->
<g id="node5" class="node"><title>Node3</title>
<a xlink:href="printable_8h.html" target="_top" xlink:title="base/printable.h">
<polygon fill="white" stroke="black" points="1742,-58.5 1742,-79.5 1828,-79.5 1828,-58.5 1742,-58.5"/>
<text text-anchor="middle" x="1785" y="-66.5" font-family="Helvetica,sans-Serif" font-size="10.00">base/printable.h</text>
</a>
</g>
<!-- Node2&#45;&gt;Node3 -->
<g id="edge4" class="edge"><title>Node2&#45;&gt;Node3</title>
<path fill="none" stroke="midnightblue" d="M968.537,-117.859C973.076,-117.158 977.619,-116.521 982,-116 1263.17,-82.5429 1602.68,-72.6002 1731.73,-69.9117"/>
<polygon fill="midnightblue" stroke="midnightblue" points="1731.82,-73.4107 1741.75,-69.7089 1731.68,-66.4122 1731.82,-73.4107"/>
</g>
<!-- Node4 -->
<g id="node7" class="node"><title>Node4</title>
<polygon fill="white" stroke="#bfbfbf" points="1198,-0.5 1198,-21.5 1242,-21.5 1242,-0.5 1198,-0.5"/>
<text text-anchor="middle" x="1220" y="-8.5" font-family="Helvetica,sans-Serif" font-size="10.00">vector</text>
</g>
<!-- Node2&#45;&gt;Node4 -->
<g id="edge20" class="edge"><title>Node2&#45;&gt;Node4</title>
<path fill="none" stroke="midnightblue" d="M947.344,-116.487C981.555,-102.863 1043.15,-78.4337 1096,-58 1127.28,-45.9064 1163.11,-32.3586 1188.18,-22.9268"/>
<polygon fill="midnightblue" stroke="midnightblue" points="1189.44,-26.1955 1197.56,-19.4014 1186.97,-19.6429 1189.44,-26.1955"/>
</g>
<!-- Node6 -->
<g id="node11" class="node"><title>Node6</title>
<polygon fill="white" stroke="#bfbfbf" points="1205.5,-58.5 1205.5,-79.5 1270.5,-79.5 1270.5,-58.5 1205.5,-58.5"/>
<text text-anchor="middle" x="1238" y="-66.5" font-family="Helvetica,sans-Serif" font-size="10.00">TVector3.h</text>
</g>
<!-- Node2&#45;&gt;Node6 -->
<g id="edge10" class="edge"><title>Node2&#45;&gt;Node6</title>
<path fill="none" stroke="midnightblue" d="M968.801,-118.254C1030.31,-106.999 1136.26,-87.615 1195.23,-76.8256"/>
<polygon fill="midnightblue" stroke="midnightblue" points="1196.12,-80.2214 1205.32,-74.9787 1194.86,-73.3357 1196.12,-80.2214"/>
</g>
<!-- Node7 -->
<g id="node13" class="node"><title>Node7</title>
<polygon fill="white" stroke="#bfbfbf" points="262,-58.5 262,-79.5 308,-79.5 308,-58.5 262,-58.5"/>
<text text-anchor="middle" x="285" y="-66.5" font-family="Helvetica,sans-Serif" font-size="10.00">cstdint</text>
</g>
<!-- Node2&#45;&gt;Node7 -->
<g id="edge12" class="edge"><title>Node2&#45;&gt;Node7</title>
<path fill="none" stroke="midnightblue" d="M873.457,-122.664C750.363,-111.439 423.525,-81.6328 318.207,-72.0283"/>
<polygon fill="midnightblue" stroke="midnightblue" points="318.433,-68.5345 308.157,-71.1118 317.798,-75.5056 318.433,-68.5345"/>
</g>
<!-- Node2&#45;&gt;Node8 -->
<g id="edge14" class="edge"><title>Node2&#45;&gt;Node8</title>
<path fill="none" stroke="midnightblue" d="M968.742,-120.57C983.541,-118.804 999.922,-117.079 1015,-116 1369.15,-90.6466 2522.26,-72.8993 2751.98,-69.5675"/>
<polygon fill="midnightblue" stroke="midnightblue" points="2752.27,-73.0638 2762.22,-69.4197 2752.17,-66.0645 2752.27,-73.0638"/>
</g>
<!-- Node9 -->
<g id="node17" class="node"><title>Node9</title>
<polygon fill="white" stroke="#bfbfbf" points="2430.5,-0.5 2430.5,-21.5 2471.5,-21.5 2471.5,-0.5 2430.5,-0.5"/>
<text text-anchor="middle" x="2451" y="-8.5" font-family="Helvetica,sans-Serif" font-size="10.00">string</text>
</g>
<!-- Node2&#45;&gt;Node9 -->
<g id="edge16" class="edge"><title>Node2&#45;&gt;Node9</title>
<path fill="none" stroke="midnightblue" d="M957.734,-116.447C1024.36,-97.3229 1158.79,-58.8218 1164,-58 1291.49,-37.8727 2236,-15.8177 2419.99,-11.6864"/>
<polygon fill="midnightblue" stroke="midnightblue" points="2420.15,-15.1838 2430.06,-11.461 2419.99,-8.18557 2420.15,-15.1838"/>
</g>
<!-- Node10 -->
<g id="node19" class="node"><title>Node10</title>
<polygon fill="white" stroke="#bfbfbf" points="890,-58.5 890,-79.5 952,-79.5 952,-58.5 890,-58.5"/>
<text text-anchor="middle" x="921" y="-66.5" font-family="Helvetica,sans-Serif" font-size="10.00">type_traits</text>
</g>
<!-- Node2&#45;&gt;Node10 -->
<g id="edge18" class="edge"><title>Node2&#45;&gt;Node10</title>
<path fill="none" stroke="midnightblue" d="M921,-116.362C921,-108.922 921,-98.7427 921,-89.7276"/>
<polygon fill="midnightblue" stroke="midnightblue" points="924.5,-89.5706 921,-79.5707 917.5,-89.5707 924.5,-89.5706"/>
</g>
<!-- Node3&#45;&gt;Node4 -->
<g id="edge6" class="edge"><title>Node3&#45;&gt;Node4</title>
<path fill="none" stroke="midnightblue" d="M1741.82,-60.2032C1737.16,-59.3939 1732.49,-58.6394 1728,-58 1549.25,-32.5466 1333.07,-17.8284 1252.4,-12.8879"/>
<polygon fill="midnightblue" stroke="midnightblue" points="1252.57,-9.3915 1242.37,-12.2815 1252.14,-16.3787 1252.57,-9.3915"/>
</g>
<!-- Node5 -->
<g id="node9" class="node"><title>Node5</title>
<polygon fill="white" stroke="#bfbfbf" points="1759,-0.5 1759,-21.5 1811,-21.5 1811,-0.5 1759,-0.5"/>
<text text-anchor="middle" x="1785" y="-8.5" font-family="Helvetica,sans-Serif" font-size="10.00">ostream</text>
</g>
<!-- Node3&#45;&gt;Node5 -->
<g id="edge8" class="edge"><title>Node3&#45;&gt;Node5</title>
<path fill="none" stroke="midnightblue" d="M1785,-58.3619C1785,-50.9219 1785,-40.7427 1785,-31.7276"/>
<polygon fill="midnightblue" stroke="midnightblue" points="1788.5,-31.5706 1785,-21.5707 1781.5,-31.5707 1788.5,-31.5706"/>
</g>
<!-- Node11&#45;&gt;Node2 -->
<g id="edge322" class="edge"><title>Node11&#45;&gt;Node2</title>
<path fill="none" stroke="midnightblue" d="M343.594,-598.003C300.955,-591.642 245.287,-579.774 200,-558 155.836,-536.766 114,-538.004 114,-489 114,-489 114,-489 114,-301 114,-208.107 193.164,-206.996 280,-174 333.669,-153.607 715.342,-135.626 862.936,-129.36"/>
<polygon fill="midnightblue" stroke="midnightblue" points="863.306,-132.847 873.15,-128.929 863.011,-125.853 863.306,-132.847"/>
</g>
<!-- Node11&#45;&gt;Node4 -->
<g id="edge330" class="edge"><title>Node11&#45;&gt;Node4</title>
<path fill="none" stroke="midnightblue" d="M343.733,-599.915C261.525,-592.853 126.626,-578.58 81,-558 37.8913,-538.556 0,-536.291 0,-489 0,-489 0,-489 0,-127 0,-74.0943 46.95,-75.1468 97,-58 202.499,-21.8565 1015.04,-12.7857 1187.78,-11.2579"/>
<polygon fill="midnightblue" stroke="midnightblue" points="1188.03,-14.756 1198,-11.1698 1187.97,-7.75623 1188.03,-14.756"/>
</g>
<!-- Node11&#45;&gt;Node7 -->
<g id="edge332" class="edge"><title>Node11&#45;&gt;Node7</title>
<path fill="none" stroke="midnightblue" d="M343.923,-598.099C237.025,-585.081 38,-552.338 38,-489 38,-489 38,-489 38,-185 38,-138.248 184.815,-94.635 252.066,-77.11"/>
<polygon fill="midnightblue" stroke="midnightblue" points="252.947,-80.4972 261.763,-74.6204 251.207,-73.7171 252.947,-80.4972"/>
</g>
<!-- Node12 -->
<g id="node24" class="node"><title>Node12</title>
<a xlink:href="_unpacker_8h.html" target="_top" xlink:title="Unpacker.h">
<polygon fill="white" stroke="black" points="3223.5,-232.5 3223.5,-253.5 3290.5,-253.5 3290.5,-232.5 3223.5,-232.5"/>
<text text-anchor="middle" x="3257" y="-240.5" font-family="Helvetica,sans-Serif" font-size="10.00">Unpacker.h</text>
</a>
</g>
<!-- Node11&#45;&gt;Node12 -->
<g id="edge24" class="edge"><title>Node11&#45;&gt;Node12</title>
<path fill="none" stroke="midnightblue" d="M476.186,-604.098C904.978,-598.046 3272,-561.359 3272,-489 3272,-489 3272,-489 3272,-366 3272,-329.809 3265.52,-288.065 3261.08,-263.697"/>
<polygon fill="midnightblue" stroke="midnightblue" points="3264.51,-262.983 3259.21,-253.805 3257.63,-264.281 3264.51,-262.983"/>
</g>
<!-- Node13 -->
<g id="node27" class="node"><title>Node13</title>
<polygon fill="white" stroke="#bfbfbf" points="958,-174.5 958,-195.5 1010,-195.5 1010,-174.5 958,-174.5"/>
<text text-anchor="middle" x="984" y="-182.5" font-family="Helvetica,sans-Serif" font-size="10.00">memory</text>
</g>
<!-- Node11&#45;&gt;Node13 -->
<g id="edge324" class="edge"><title>Node11&#45;&gt;Node13</title>
<path fill="none" stroke="midnightblue" d="M406.133,-594.177C401.784,-580.535 395.84,-556.4 400,-536 432.121,-378.483 446.706,-291.621 596,-232 739.452,-174.712 792.362,-225.626 947.873,-195.848"/>
<polygon fill="midnightblue" stroke="midnightblue" points="948.657,-199.26 957.777,-193.869 947.285,-192.396 948.657,-199.26"/>
</g>
<!-- Node14 -->
<g id="node29" class="node"><title>Node14</title>
<a xlink:href="_exp_config_8h.html" target="_top" xlink:title="expconfig/ExpConfig.h">
<polygon fill="white" stroke="black" points="409,-536.5 409,-557.5 525,-557.5 525,-536.5 409,-536.5"/>
<text text-anchor="middle" x="467" y="-544.5" font-family="Helvetica,sans-Serif" font-size="10.00">expconfig/ExpConfig.h</text>
</a>
</g>
<!-- Node11&#45;&gt;Node14 -->
<g id="edge30" class="edge"><title>Node11&#45;&gt;Node14</title>
<path fill="none" stroke="midnightblue" d="M420.455,-594.362C428.57,-586.104 440.001,-574.472 449.504,-564.803"/>
<polygon fill="midnightblue" stroke="midnightblue" points="452.099,-567.156 456.612,-557.571 447.106,-562.25 452.099,-567.156"/>
</g>
<!-- Node18 -->
<g id="node40" class="node"><title>Node18</title>
<polygon fill="white" stroke="#bfbfbf" points="1023.5,-116.5 1023.5,-137.5 1052.5,-137.5 1052.5,-116.5 1023.5,-116.5"/>
<text text-anchor="middle" x="1038" y="-124.5" font-family="Helvetica,sans-Serif" font-size="10.00">list</text>
</g>
<!-- Node11&#45;&gt;Node18 -->
<g id="edge326" class="edge"><title>Node11&#45;&gt;Node18</title>
<path fill="none" stroke="midnightblue" d="M345.822,-594.483C288.66,-581.019 214,-551.474 214,-489 214,-489 214,-489 214,-431 214,-341.348 185.713,-297.433 247,-232 266.345,-211.346 467.028,-178.289 495,-174 707.337,-141.442 763.897,-165.098 977,-138 988.973,-136.478 1002.16,-134.178 1013.21,-132.074"/>
<polygon fill="midnightblue" stroke="midnightblue" points="1013.89,-135.507 1023.03,-130.149 1012.54,-128.638 1013.89,-135.507"/>
</g>
<!-- Node21 -->
<g id="node51" class="node"><title>Node21</title>
<polygon fill="white" stroke="#bfbfbf" points="2114.5,-174.5 2114.5,-195.5 2149.5,-195.5 2149.5,-174.5 2114.5,-174.5"/>
<text text-anchor="middle" x="2132" y="-182.5" font-family="Helvetica,sans-Serif" font-size="10.00">map</text>
</g>
<!-- Node11&#45;&gt;Node21 -->
<g id="edge328" class="edge"><title>Node11&#45;&gt;Node21</title>
<path fill="none" stroke="midnightblue" d="M476.165,-604.341C802.9,-600.979 2246.44,-584.846 2695,-558 2834.04,-549.678 3318,-628.291 3318,-489 3318,-489 3318,-489 3318,-301 3318,-269.192 3323.93,-251.758 3299,-232 3258.13,-199.607 2413.1,-198.251 2361,-196 2288.39,-192.863 2202.85,-188.604 2159.77,-186.42"/>
<polygon fill="midnightblue" stroke="midnightblue" points="2159.69,-182.912 2149.52,-185.899 2159.33,-189.903 2159.69,-182.912"/>
</g>
<!-- Node30 -->
<g id="node74" class="node"><title>Node30</title>
<polygon fill="white" stroke="#bfbfbf" points="3253,-116.5 3253,-137.5 3293,-137.5 3293,-116.5 3253,-116.5"/>
<text text-anchor="middle" x="3273" y="-124.5" font-family="Helvetica,sans-Serif" font-size="10.00">limits</text>
</g>
<!-- Node11&#45;&gt;Node30 -->
<g id="edge334" class="edge"><title>Node11&#45;&gt;Node30</title>
<path fill="none" stroke="midnightblue" d="M476.213,-604.422C855.562,-601.028 2745.17,-582.976 3003,-558 3184.86,-540.382 3394,-613.715 3394,-431 3394,-431 3394,-431 3394,-301 3394,-268.531 3390.75,-256.975 3370,-232 3349.39,-207.194 3329.09,-219.492 3307,-196 3294.04,-182.223 3285.02,-162.571 3279.54,-147.762"/>
<polygon fill="midnightblue" stroke="midnightblue" points="3282.74,-146.301 3276.17,-137.987 3276.12,-148.582 3282.74,-146.301"/>
</g>
<!-- Node12&#45;&gt;Node9 -->
<g id="edge26" class="edge"><title>Node12&#45;&gt;Node9</title>
<path fill="none" stroke="midnightblue" d="M3290.55,-239.45C3317.85,-234.597 3354.73,-223.12 3373,-196 3392.87,-166.513 3392.99,-145.405 3373,-116 3348.55,-80.0301 3321.63,-97.926 3282,-80 3262.44,-71.1524 3259.71,-63.6481 3239,-58 3092.54,-18.0576 2609.42,-12.0484 2482.02,-11.1544"/>
<polygon fill="midnightblue" stroke="midnightblue" points="2481.83,-7.65314 2471.81,-11.0885 2481.79,-14.653 2481.83,-7.65314"/>
</g>
<!-- Node12&#45;&gt;Node13 -->
<g id="edge28" class="edge"><title>Node12&#45;&gt;Node13</title>
<path fill="none" stroke="midnightblue" d="M3223.33,-241.407C3172.25,-239.04 3072.11,-234.595 2987,-232 2196.98,-207.912 1998.91,-223.3 1209,-196 1142.42,-193.699 1064.82,-189.59 1020.35,-187.098"/>
<polygon fill="midnightblue" stroke="midnightblue" points="1020.5,-183.6 1010.32,-186.531 1020.1,-190.589 1020.5,-183.6"/>
</g>
<!-- Node14&#45;&gt;Node2 -->
<g id="edge32" class="edge"><title>Node14&#45;&gt;Node2</title>
<path fill="none" stroke="midnightblue" d="M442.175,-536.464C408.233,-520.802 347.719,-488.184 314,-442 256.232,-362.876 194.802,-314.905 247,-232 278.775,-181.533 310.459,-189.67 368,-174 460.028,-148.938 740.455,-134.53 862.84,-129.286"/>
<polygon fill="midnightblue" stroke="midnightblue" points="863.287,-132.771 873.13,-128.851 862.991,-125.777 863.287,-132.771"/>
</g>
<!-- Node14&#45;&gt;Node3 -->
<g id="edge314" class="edge"><title>Node14&#45;&gt;Node3</title>
<path fill="none" stroke="midnightblue" d="M525.112,-546.13C923.378,-539.984 3234,-501.299 3234,-431 3234,-431 3234,-431 3234,-366 3234,-283.761 3097.43,-192.114 2835,-116 2739.07,-88.1761 2039.12,-73.5654 1838.57,-69.9197"/>
<polygon fill="midnightblue" stroke="midnightblue" points="1838.35,-66.4153 1828.29,-69.7345 1838.22,-73.4142 1838.35,-66.4153"/>
</g>
<!-- Node14&#45;&gt;Node13 -->
<g id="edge316" class="edge"><title>Node14&#45;&gt;Node13</title>
<path fill="none" stroke="midnightblue" d="M466.074,-536.141C463.908,-504.571 461.271,-411.059 499,-348 542.632,-275.076 572.273,-263.998 651,-232 771.572,-182.995 816.394,-222.106 947.74,-195.907"/>
<polygon fill="midnightblue" stroke="midnightblue" points="948.692,-199.284 957.766,-193.815 947.262,-192.432 948.692,-199.284"/>
</g>
<!-- Node15 -->
<g id="node32" class="node"><title>Node15</title>
<a xlink:href="_reconstruct__traits_8h.html" target="_top" xlink:title="reconstruct/Reconstruct\l_traits.h">
<polygon fill="white" stroke="black" points="508,-349 508,-383 630,-383 630,-349 508,-349"/>
<text text-anchor="start" x="516" y="-370" font-family="Helvetica,sans-Serif" font-size="10.00">reconstruct/Reconstruct</text>
<text text-anchor="middle" x="569" y="-357" font-family="Helvetica,sans-Serif" font-size="10.00">_traits.h</text>
</a>
</g>
<!-- Node14&#45;&gt;Node15 -->
<g id="edge34" class="edge"><title>Node14&#45;&gt;Node15</title>
<path fill="none" stroke="midnightblue" d="M472.011,-536.093C478.402,-522.364 489.953,-498.139 501,-478 517.539,-447.85 538.257,-414.253 552.451,-391.793"/>
<polygon fill="midnightblue" stroke="midnightblue" points="555.513,-393.501 557.919,-383.182 549.604,-389.748 555.513,-393.501"/>
</g>
<!-- Node14&#45;&gt;Node18 -->
<g id="edge318" class="edge"><title>Node14&#45;&gt;Node18</title>
<path fill="none" stroke="midnightblue" d="M458.29,-536.393C429.653,-500.157 342.874,-378.624 390,-290 433.29,-208.589 475.072,-204.744 562,-174 736.543,-112.27 793.485,-162.454 977,-138 988.963,-136.406 1002.15,-134.097 1013.2,-132.006"/>
<polygon fill="midnightblue" stroke="midnightblue" points="1013.87,-135.441 1023.02,-130.098 1012.54,-128.569 1013.87,-135.441"/>
</g>
<!-- Node14&#45;&gt;Node21 -->
<g id="edge320" class="edge"><title>Node14&#45;&gt;Node21</title>
<path fill="none" stroke="midnightblue" d="M525.002,-545.47C870.845,-536.16 2646,-485.709 2646,-431 2646,-431 2646,-431 2646,-366 2646,-305.849 2670.5,-273.54 2627,-232 2609.94,-215.715 2261.28,-192.983 2159.6,-186.679"/>
<polygon fill="midnightblue" stroke="midnightblue" points="2159.7,-183.178 2149.5,-186.056 2159.27,-190.165 2159.7,-183.178"/>
</g>
<!-- Node22 -->
<g id="node54" class="node"><title>Node22</title>
<a xlink:href="_calibration_8h.html" target="_top" xlink:title="calibration/Calibration.h">
<polygon fill="white" stroke="black" points="509.5,-478.5 509.5,-499.5 628.5,-499.5 628.5,-478.5 509.5,-478.5"/>
<text text-anchor="middle" x="569" y="-486.5" font-family="Helvetica,sans-Serif" font-size="10.00">calibration/Calibration.h</text>
</a>
</g>
<!-- Node14&#45;&gt;Node22 -->
<g id="edge64" class="edge"><title>Node14&#45;&gt;Node22</title>
<path fill="none" stroke="midnightblue" d="M485.708,-536.362C501.381,-527.45 523.964,-514.609 541.663,-504.545"/>
<polygon fill="midnightblue" stroke="midnightblue" points="543.447,-507.556 550.41,-499.571 539.987,-501.471 543.447,-507.556"/>
</g>
<!-- Node15&#45;&gt;Node2 -->
<g id="edge36" class="edge"><title>Node15&#45;&gt;Node2</title>
<path fill="none" stroke="midnightblue" d="M538.089,-348.801C525.013,-339.722 511.168,-327.273 504,-312 487.277,-276.366 510.24,-255.254 542,-232 639.537,-160.587 783.442,-137.73 862.925,-130.424"/>
<polygon fill="midnightblue" stroke="midnightblue" points="863.57,-133.881 873.231,-129.531 862.966,-126.907 863.57,-133.881"/>
</g>
<!-- Node15&#45;&gt;Node13 -->
<g id="edge58" class="edge"><title>Node15&#45;&gt;Node13</title>
<path fill="none" stroke="midnightblue" d="M630.261,-359.179C689.357,-351.516 780.809,-336.79 857,-312 914.092,-293.424 945.116,-303.562 979,-254 988.507,-240.094 989.098,-220.715 987.688,-206.034"/>
<polygon fill="midnightblue" stroke="midnightblue" points="991.127,-205.34 986.335,-195.891 984.188,-206.266 991.127,-205.34"/>
</g>
<!-- Node16 -->
<g id="node35" class="node"><title>Node16</title>
<a xlink:href="_memory_pool_8h.html" target="_top" xlink:title="tree/MemoryPool.h">
<polygon fill="white" stroke="black" points="749.5,-290.5 749.5,-311.5 848.5,-311.5 848.5,-290.5 749.5,-290.5"/>
<text text-anchor="middle" x="799" y="-298.5" font-family="Helvetica,sans-Serif" font-size="10.00">tree/MemoryPool.h</text>
</a>
</g>
<!-- Node15&#45;&gt;Node16 -->
<g id="edge38" class="edge"><title>Node15&#45;&gt;Node16</title>
<path fill="none" stroke="midnightblue" d="M629.43,-348.922C667.588,-338.138 716.182,-324.405 751.559,-314.407"/>
<polygon fill="midnightblue" stroke="midnightblue" points="752.956,-317.65 761.627,-311.562 751.052,-310.914 752.956,-317.65"/>
</g>
<!-- Node15&#45;&gt;Node18 -->
<g id="edge62" class="edge"><title>Node15&#45;&gt;Node18</title>
<path fill="none" stroke="midnightblue" d="M563.523,-348.786C552.782,-311.285 533.805,-221.755 580,-174 610.795,-142.165 933.107,-143.936 977,-138 988.96,-136.383 1002.15,-134.071 1013.19,-131.984"/>
<polygon fill="midnightblue" stroke="midnightblue" points="1013.87,-135.419 1023.02,-130.082 1012.53,-128.547 1013.87,-135.419"/>
</g>
<!-- Node20 -->
<g id="node45" class="node"><title>Node20</title>
<a xlink:href="mapped__vectors_8h.html" target="_top" xlink:title="base/mapped_vectors.h">
<polygon fill="white" stroke="black" points="255.5,-232.5 255.5,-253.5 376.5,-253.5 376.5,-232.5 255.5,-232.5"/>
<text text-anchor="middle" x="316" y="-240.5" font-family="Helvetica,sans-Serif" font-size="10.00">base/mapped_vectors.h</text>
</a>
</g>
<!-- Node15&#45;&gt;Node20 -->
<g id="edge50" class="edge"><title>Node15&#45;&gt;Node20</title>
<path fill="none" stroke="midnightblue" d="M533.821,-348.897C484.155,-324.751 394.272,-281.053 346.99,-258.066"/>
<polygon fill="midnightblue" stroke="midnightblue" points="348.375,-254.848 337.851,-253.623 345.315,-261.143 348.375,-254.848"/>
</g>
<!-- Node15&#45;&gt;Node21 -->
<g id="edge60" class="edge"><title>Node15&#45;&gt;Node21</title>
<path fill="none" stroke="midnightblue" d="M630.09,-365.683C841.647,-364.203 1542.06,-356.014 1762,-312 1835.76,-297.24 1852.86,-285.855 1921,-254 1938.68,-245.736 1940.92,-239.357 1959,-232 2019.3,-207.455 2038.7,-214.907 2101,-196 2102.23,-195.627 2103.48,-195.234 2104.75,-194.829"/>
<polygon fill="midnightblue" stroke="midnightblue" points="2106.04,-198.087 2114.39,-191.568 2103.79,-191.455 2106.04,-198.087"/>
</g>
<!-- Node16&#45;&gt;Node13 -->
<g id="edge46" class="edge"><title>Node16&#45;&gt;Node13</title>
<path fill="none" stroke="midnightblue" d="M848.511,-291.234C888.636,-282.44 941.042,-268.673 957,-254 970.639,-241.459 977.478,-221.187 980.851,-205.853"/>
<polygon fill="midnightblue" stroke="midnightblue" points="984.344,-206.215 982.742,-195.742 977.463,-204.928 984.344,-206.215"/>
</g>
<!-- Node17 -->
<g id="node37" class="node"><title>Node17</title>
<a xlink:href="memory_8h.html" target="_top" xlink:title="base/std_ext/memory.h">
<polygon fill="white" stroke="black" points="829.5,-232.5 829.5,-253.5 948.5,-253.5 948.5,-232.5 829.5,-232.5"/>
<text text-anchor="middle" x="889" y="-240.5" font-family="Helvetica,sans-Serif" font-size="10.00">base/std_ext/memory.h</text>
</a>
</g>
<!-- Node16&#45;&gt;Node17 -->
<g id="edge40" class="edge"><title>Node16&#45;&gt;Node17</title>
<path fill="none" stroke="midnightblue" d="M815.507,-290.362C829.082,-281.614 848.533,-269.079 864.015,-259.101"/>
<polygon fill="midnightblue" stroke="midnightblue" points="866.088,-261.93 872.597,-253.571 862.296,-256.046 866.088,-261.93"/>
</g>
<!-- Node19 -->
<g id="node43" class="node"><title>Node19</title>
<polygon fill="white" stroke="#bfbfbf" points="659.5,-232.5 659.5,-253.5 726.5,-253.5 726.5,-232.5 659.5,-232.5"/>
<text text-anchor="middle" x="693" y="-240.5" font-family="Helvetica,sans-Serif" font-size="10.00">forward_list</text>
</g>
<!-- Node16&#45;&gt;Node19 -->
<g id="edge48" class="edge"><title>Node16&#45;&gt;Node19</title>
<path fill="none" stroke="midnightblue" d="M779.558,-290.362C763.196,-281.409 739.587,-268.491 721.157,-258.406"/>
<polygon fill="midnightblue" stroke="midnightblue" points="722.771,-255.3 712.319,-253.571 719.411,-261.441 722.771,-255.3"/>
</g>
<!-- Node17&#45;&gt;Node13 -->
<g id="edge42" class="edge"><title>Node17&#45;&gt;Node13</title>
<path fill="none" stroke="midnightblue" d="M906.424,-232.362C920.887,-223.532 941.669,-210.844 958.084,-200.822"/>
<polygon fill="midnightblue" stroke="midnightblue" points="959.975,-203.769 966.686,-195.571 956.327,-197.794 959.975,-203.769"/>
</g>
<!-- Node17&#45;&gt;Node18 -->
<g id="edge44" class="edge"><title>Node17&#45;&gt;Node18</title>
<path fill="none" stroke="midnightblue" d="M871.904,-232.45C851.709,-218.682 822.781,-193.989 839,-174 887.935,-113.69 935.597,-160.277 1010,-138 1011.24,-137.629 1012.5,-137.227 1013.77,-136.804"/>
<polygon fill="midnightblue" stroke="midnightblue" points="1015.16,-140.022 1023.34,-133.291 1012.75,-133.45 1015.16,-140.022"/>
</g>
<!-- Node20&#45;&gt;Node4 -->
<g id="edge52" class="edge"><title>Node20&#45;&gt;Node4</title>
<path fill="none" stroke="midnightblue" d="M274.551,-232.455C230.556,-218.801 163.289,-190.3 133,-138 98.2336,-77.9693 187.116,-70.5454 228,-58 321.454,-29.3232 1027.86,-14.5696 1187.85,-11.5761"/>
<polygon fill="midnightblue" stroke="midnightblue" points="1188.07,-15.0728 1198,-11.3883 1187.94,-8.07396 1188.07,-15.0728"/>
</g>
<!-- Node20&#45;&gt;Node10 -->
<g id="edge56" class="edge"><title>Node20&#45;&gt;Node10</title>
<path fill="none" stroke="midnightblue" d="M326.56,-232.253C342.358,-216.839 373.751,-188.696 406,-174 570.933,-98.8358 789.973,-77.099 879.856,-71.1315"/>
<polygon fill="midnightblue" stroke="midnightblue" points="880.155,-74.6197 889.914,-70.4945 879.713,-67.6337 880.155,-74.6197"/>
</g>
<!-- Node20&#45;&gt;Node13 -->
<g id="edge54" class="edge"><title>Node20&#45;&gt;Node13</title>
<path fill="none" stroke="midnightblue" d="M376.639,-239.296C517.824,-230.563 862.416,-208.583 947.889,-195.636"/>
<polygon fill="midnightblue" stroke="midnightblue" points="948.523,-199.079 957.793,-193.949 947.347,-192.178 948.523,-199.079"/>
</g>
<!-- Node22&#45;&gt;Node4 -->
<g id="edge312" class="edge"><title>Node22&#45;&gt;Node4</title>
<path fill="none" stroke="midnightblue" d="M509.041,-486.334C377.656,-476.95 76,-434.547 76,-243 76,-243 76,-243 76,-127 76,-82.032 108.532,-75.3942 150,-58 247.63,-17.0478 1018.42,-11.7624 1187.35,-11.0946"/>
<polygon fill="midnightblue" stroke="midnightblue" points="1187.61,-14.5938 1197.59,-11.057 1187.58,-7.59385 1187.61,-14.5938"/>
</g>
<!-- Node22&#45;&gt;Node15 -->
<g id="edge296" class="edge"><title>Node22&#45;&gt;Node15</title>
<path fill="none" stroke="midnightblue" d="M569,-478.085C569,-459.275 569,-420.21 569,-393.547"/>
<polygon fill="midnightblue" stroke="midnightblue" points="572.5,-393.317 569,-383.317 565.5,-393.317 572.5,-393.317"/>
</g>
<!-- Node23 -->
<g id="node56" class="node"><title>Node23</title>
<a xlink:href="_physics_8h.html" target="_top" xlink:title="analysis/physics/Physics.h">
<polygon fill="white" stroke="black" points="1723,-420.5 1723,-441.5 1859,-441.5 1859,-420.5 1723,-420.5"/>
<text text-anchor="middle" x="1791" y="-428.5" font-family="Helvetica,sans-Serif" font-size="10.00">analysis/physics/Physics.h</text>
</a>
</g>
<!-- Node22&#45;&gt;Node23 -->
<g id="edge66" class="edge"><title>Node22&#45;&gt;Node23</title>
<path fill="none" stroke="midnightblue" d="M628.767,-486.163C830.398,-476.593 1485.61,-445.495 1712.67,-434.718"/>
<polygon fill="midnightblue" stroke="midnightblue" points="1713.01,-438.205 1722.84,-434.235 1712.68,-431.213 1713.01,-438.205"/>
</g>
<!-- Node62 -->
<g id="node211" class="node"><title>Node62</title>
<a xlink:href="_manager__traits_8h.html" target="_top" xlink:title="calibration/gui/Manager\l_traits.h">
<polygon fill="white" stroke="black" points="2945.5,-349 2945.5,-383 3062.5,-383 3062.5,-349 2945.5,-349"/>
<text text-anchor="start" x="2953.5" y="-370" font-family="Helvetica,sans-Serif" font-size="10.00">calibration/gui/Manager</text>
<text text-anchor="middle" x="3004" y="-357" font-family="Helvetica,sans-Serif" font-size="10.00">_traits.h</text>
</a>
</g>
<!-- Node22&#45;&gt;Node62 -->
<g id="edge298" class="edge"><title>Node22&#45;&gt;Node62</title>
<path fill="none" stroke="midnightblue" d="M628.588,-487.492C812.919,-482.689 1390.22,-466.601 1868,-442 2254.13,-422.119 2350.23,-409.844 2736,-384 2803.75,-379.461 2881.14,-374.262 2935.28,-370.622"/>
<polygon fill="midnightblue" stroke="midnightblue" points="2935.7,-374.102 2945.45,-369.938 2935.23,-367.117 2935.7,-374.102"/>
</g>
<!-- Node23&#45;&gt;Node9 -->
<g id="edge288" class="edge"><title>Node23&#45;&gt;Node9</title>
<path fill="none" stroke="midnightblue" d="M1859.03,-429.694C2115.74,-424.613 3013.93,-405.381 3071,-384 3118.64,-366.151 3125.45,-349.351 3160,-312 3189.3,-280.325 3188.05,-265.699 3215,-232 3250.55,-187.541 3281.24,-191.003 3302,-138 3305.57,-128.896 3307.42,-124.137 3302,-116 3292.72,-102.073 3179.29,-61.8251 3163,-58 3030.55,-26.9037 2601.26,-14.5693 2481.99,-11.693"/>
<polygon fill="midnightblue" stroke="midnightblue" points="2481.82,-8.18827 2471.74,-11.451 2481.66,-15.1863 2481.82,-8.18827"/>
</g>
<!-- Node23&#45;&gt;Node13 -->
<g id="edge292" class="edge"><title>Node23&#45;&gt;Node13</title>
<path fill="none" stroke="midnightblue" d="M1722.76,-423.866C1659.35,-416.488 1562.55,-403.314 1480,-384 1300.04,-341.893 1250.27,-336.723 1085,-254 1055.56,-239.262 1024.73,-217.064 1004.99,-201.85"/>
<polygon fill="midnightblue" stroke="midnightblue" points="1007.03,-199.004 997.001,-195.601 1002.72,-204.518 1007.03,-199.004"/>
</g>
<!-- Node23&#45;&gt;Node18 -->
<g id="edge286" class="edge"><title>Node23&#45;&gt;Node18</title>
<path fill="none" stroke="midnightblue" d="M1722.94,-424.564C1632.46,-415.903 1467.61,-399.758 1327,-384 1022.95,-349.926 797.457,-522.618 651,-254 585.754,-134.331 897.917,-151.63 977,-138 989.055,-135.922 1002.43,-133.521 1013.58,-131.493"/>
<polygon fill="midnightblue" stroke="midnightblue" points="1014.26,-134.927 1023.47,-129.686 1013,-128.041 1014.26,-134.927"/>
</g>
<!-- Node23&#45;&gt;Node21 -->
<g id="edge290" class="edge"><title>Node23&#45;&gt;Node21</title>
<path fill="none" stroke="midnightblue" d="M1810.51,-420.32C1856.72,-394.619 1975.56,-326.097 2064,-254 2083.18,-238.365 2102.77,-217.911 2115.97,-203.341"/>
<polygon fill="midnightblue" stroke="midnightblue" points="2118.9,-205.314 2122.95,-195.524 2113.68,-200.652 2118.9,-205.314"/>
</g>
<!-- Node24 -->
<g id="node58" class="node"><title>Node24</title>
<a xlink:href="_histogram_factories_8h.html" target="_top" xlink:title="analysis/plot/HistogramFactories.h">
<polygon fill="white" stroke="black" points="2333,-355.5 2333,-376.5 2501,-376.5 2501,-355.5 2333,-355.5"/>
<text text-anchor="middle" x="2417" y="-363.5" font-family="Helvetica,sans-Serif" font-size="10.00">analysis/plot/HistogramFactories.h</text>
</a>
</g>
<!-- Node23&#45;&gt;Node24 -->
<g id="edge68" class="edge"><title>Node23&#45;&gt;Node24</title>
<path fill="none" stroke="midnightblue" d="M1859.18,-423.92C1971.41,-412.267 2195.28,-389.022 2322.64,-375.797"/>
<polygon fill="midnightblue" stroke="midnightblue" points="2323.19,-379.26 2332.77,-374.746 2322.47,-372.297 2323.19,-379.26"/>
</g>
<!-- Node33 -->
<g id="node86" class="node"><title>Node33</title>
<polygon fill="white" stroke="#bfbfbf" points="2369.5,-174.5 2369.5,-195.5 2428.5,-195.5 2428.5,-174.5 2369.5,-174.5"/>
<text text-anchor="middle" x="2399" y="-182.5" font-family="Helvetica,sans-Serif" font-size="10.00">functional</text>
</g>
<!-- Node23&#45;&gt;Node33 -->
<g id="edge294" class="edge"><title>Node23&#45;&gt;Node33</title>
<path fill="none" stroke="midnightblue" d="M1859.36,-420.5C1860.92,-420.324 1862.47,-420.158 1864,-420 2007.02,-405.272 2374,-430.635 2510,-384 2606.09,-351.05 2650.83,-343.97 2698,-254 2702.54,-245.34 2704.35,-239.431 2698,-232 2693.8,-227.085 2519.16,-201.924 2438.77,-190.571"/>
<polygon fill="midnightblue" stroke="midnightblue" points="2438.92,-187.058 2428.53,-189.128 2437.94,-193.99 2438.92,-187.058"/>
</g>
<!-- Node48 -->
<g id="node144" class="node"><title>Node48</title>
<a xlink:href="_event_8h.html" target="_top" xlink:title="analysis/data/Event.h">
<polygon fill="white" stroke="black" points="1488.5,-355.5 1488.5,-376.5 1599.5,-376.5 1599.5,-355.5 1488.5,-355.5"/>
<text text-anchor="middle" x="1544" y="-363.5" font-family="Helvetica,sans-Serif" font-size="10.00">analysis/data/Event.h</text>
</a>
</g>
<!-- Node23&#45;&gt;Node48 -->
<g id="edge192" class="edge"><title>Node23&#45;&gt;Node48</title>
<path fill="none" stroke="midnightblue" d="M1751.04,-420.484C1708.17,-409.204 1640.03,-391.27 1593.72,-379.085"/>
<polygon fill="midnightblue" stroke="midnightblue" points="1594.46,-375.661 1583.9,-376.501 1592.68,-382.43 1594.46,-375.661"/>
</g>
<!-- Node60 -->
<g id="node196" class="node"><title>Node60</title>
<a xlink:href="_slowcontrol_8h.html" target="_top" xlink:title="analysis/data/Slowcontrol.h">
<polygon fill="white" stroke="black" points="141.5,-116.5 141.5,-137.5 278.5,-137.5 278.5,-116.5 141.5,-116.5"/>
<text text-anchor="middle" x="210" y="-124.5" font-family="Helvetica,sans-Serif" font-size="10.00">analysis/data/Slowcontrol.h</text>
</a>
</g>
<!-- Node23&#45;&gt;Node60 -->
<g id="edge272" class="edge"><title>Node23&#45;&gt;Node60</title>
<path fill="none" stroke="midnightblue" d="M1722.73,-430.261C1472.99,-427.317 617.467,-415.048 499,-384 377.092,-352.051 327.123,-351.275 247,-254 221.463,-222.996 213.55,-175.076 211.099,-147.826"/>
<polygon fill="midnightblue" stroke="midnightblue" points="214.588,-147.555 210.365,-137.838 207.607,-148.068 214.588,-147.555"/>
</g>
<!-- Node61 -->
<g id="node200" class="node"><title>Node61</title>
<a xlink:href="_options_list_8h.html" target="_top" xlink:title="base/OptionsList.h">
<polygon fill="white" stroke="black" points="2154,-232.5 2154,-253.5 2252,-253.5 2252,-232.5 2154,-232.5"/>
<text text-anchor="middle" x="2203" y="-240.5" font-family="Helvetica,sans-Serif" font-size="10.00">base/OptionsList.h</text>
</a>
</g>
<!-- Node23&#45;&gt;Node61 -->
<g id="edge278" class="edge"><title>Node23&#45;&gt;Node61</title>
<path fill="none" stroke="midnightblue" d="M1859.21,-420.713C1950.7,-406.911 2101.84,-384.099 2102,-384 2149.29,-355.031 2180.81,-294.763 2194.78,-263.226"/>
<polygon fill="midnightblue" stroke="midnightblue" points="2198.13,-264.29 2198.84,-253.719 2191.69,-261.541 2198.13,-264.29"/>
</g>
<!-- Node24&#45;&gt;Node9 -->
<g id="edge190" class="edge"><title>Node24&#45;&gt;Node9</title>
<path fill="none" stroke="midnightblue" d="M2501.13,-361.216C2643.27,-351.297 2921.88,-323.328 2987,-254 3047.05,-190.07 3069.36,-122.565 3010,-58 2974.08,-18.9291 2594,-12.3184 2481.93,-11.2167"/>
<polygon fill="midnightblue" stroke="midnightblue" points="2481.68,-7.71441 2471.65,-11.124 2481.62,-14.7141 2481.68,-7.71441"/>
</g>
<!-- Node25 -->
<g id="node60" class="node"><title>Node25</title>
<a xlink:href="_histogram_8h.html" target="_top" xlink:title="Histogram.h">
<polygon fill="white" stroke="black" points="2750,-232.5 2750,-253.5 2820,-253.5 2820,-232.5 2750,-232.5"/>
<text text-anchor="middle" x="2785" y="-240.5" font-family="Helvetica,sans-Serif" font-size="10.00">Histogram.h</text>
</a>
</g>
<!-- Node24&#45;&gt;Node25 -->
<g id="edge70" class="edge"><title>Node24&#45;&gt;Node25</title>
<path fill="none" stroke="midnightblue" d="M2448.69,-355.407C2515.22,-333.173 2669.36,-281.652 2743.59,-256.842"/>
<polygon fill="midnightblue" stroke="midnightblue" points="2745.14,-260.014 2753.51,-253.524 2742.92,-253.375 2745.14,-260.014"/>
</g>
<!-- Node31 -->
<g id="node76" class="node"><title>Node31</title>
<a xlink:href="_smart_hist_8h.html" target="_top" xlink:title="SmartHist.h">
<polygon fill="white" stroke="black" points="2382.5,-290.5 2382.5,-311.5 2451.5,-311.5 2451.5,-290.5 2382.5,-290.5"/>
<text text-anchor="middle" x="2417" y="-298.5" font-family="Helvetica,sans-Serif" font-size="10.00">SmartHist.h</text>
</a>
</g>
<!-- Node24&#45;&gt;Node31 -->
<g id="edge90" class="edge"><title>Node24&#45;&gt;Node31</title>
<path fill="none" stroke="midnightblue" d="M2417,-355.267C2417,-346.18 2417,-332.892 2417,-321.74"/>
<polygon fill="midnightblue" stroke="midnightblue" points="2420.5,-321.534 2417,-311.534 2413.5,-321.534 2420.5,-321.534"/>
</g>
<!-- Node40 -->
<g id="node103" class="node"><title>Node40</title>
<a xlink:href="_particle_8h.html" target="_top" xlink:title="analysis/data/Particle.h">
<polygon fill="white" stroke="black" points="1634.5,-290.5 1634.5,-311.5 1753.5,-311.5 1753.5,-290.5 1634.5,-290.5"/>
<text text-anchor="middle" x="1694" y="-298.5" font-family="Helvetica,sans-Serif" font-size="10.00">analysis/data/Particle.h</text>
</a>
</g>
<!-- Node24&#45;&gt;Node40 -->
<g id="edge126" class="edge"><title>Node24&#45;&gt;Node40</title>
<path fill="none" stroke="midnightblue" d="M2332.65,-358.416C2188.52,-345.459 1897.5,-319.296 1763.92,-307.286"/>
<polygon fill="midnightblue" stroke="midnightblue" points="1764.08,-303.786 1753.8,-306.376 1763.45,-310.758 1764.08,-303.786"/>
</g>
<!-- Node25&#45;&gt;Node4 -->
<g id="edge74" class="edge"><title>Node25&#45;&gt;Node4</title>
<path fill="none" stroke="midnightblue" d="M2749.92,-237.436C2687.06,-227.38 2557.6,-206.275 2513,-196 2478.73,-188.105 2471.06,-182.763 2437,-174 2210.2,-115.637 2154.75,-91.6903 1923,-58 1666.35,-20.6901 1352.6,-12.9422 1252.39,-11.3813"/>
<polygon fill="midnightblue" stroke="midnightblue" points="1252.34,-7.88046 1242.29,-11.2342 1252.24,-14.8797 1252.34,-7.88046"/>
</g>
<!-- Node25&#45;&gt;Node9 -->
<g id="edge76" class="edge"><title>Node25&#45;&gt;Node9</title>
<path fill="none" stroke="midnightblue" d="M2755.27,-232.444C2716.29,-218.67 2645.71,-193.971 2585,-174 2534.12,-157.265 2504.83,-178.687 2470,-138 2444.52,-108.229 2445.07,-59.4639 2447.92,-31.8258"/>
<polygon fill="midnightblue" stroke="midnightblue" points="2451.42,-32.0631 2449.17,-21.7101 2444.47,-31.2069 2451.42,-32.0631"/>
</g>
<!-- Node26 -->
<g id="node62" class="node"><title>Node26</title>
<polygon fill="white" stroke="#bfbfbf" points="2522,-174.5 2522,-195.5 2576,-195.5 2576,-174.5 2522,-174.5"/>
<text text-anchor="middle" x="2549" y="-182.5" font-family="Helvetica,sans-Serif" font-size="10.00">TColor.h</text>
</g>
<!-- Node25&#45;&gt;Node26 -->
<g id="edge72" class="edge"><title>Node25&#45;&gt;Node26</title>
<path fill="none" stroke="midnightblue" d="M2749.71,-234.78C2710.59,-225.604 2645.68,-210.178 2590,-196 2588.75,-195.683 2587.49,-195.358 2586.21,-195.028"/>
<polygon fill="midnightblue" stroke="midnightblue" points="2586.88,-191.586 2576.32,-192.435 2585.11,-198.357 2586.88,-191.586"/>
</g>
<!-- Node27 -->
<g id="node66" class="node"><title>Node27</title>
<a xlink:href="interval_8h.html" target="_top" xlink:title="base/interval.h">
<polygon fill="white" stroke="black" points="2842,-174.5 2842,-195.5 2922,-195.5 2922,-174.5 2842,-174.5"/>
<text text-anchor="middle" x="2882" y="-182.5" font-family="Helvetica,sans-Serif" font-size="10.00">base/interval.h</text>
</a>
</g>
<!-- Node25&#45;&gt;Node27 -->
<g id="edge78" class="edge"><title>Node25&#45;&gt;Node27</title>
<path fill="none" stroke="midnightblue" d="M2802.79,-232.362C2817.56,-223.532 2838.78,-210.844 2855.54,-200.822"/>
<polygon fill="midnightblue" stroke="midnightblue" points="2857.53,-203.707 2864.32,-195.571 2853.94,-197.699 2857.53,-203.707"/>
</g>
<!-- Node27&#45;&gt;Node3 -->
<g id="edge84" class="edge"><title>Node27&#45;&gt;Node3</title>
<path fill="none" stroke="midnightblue" d="M2874.07,-174.4C2861.34,-158.349 2834.66,-128.431 2804,-116 2714.31,-79.6385 2034.85,-71.1056 1838.18,-69.3882"/>
<polygon fill="midnightblue" stroke="midnightblue" points="1838.12,-65.8877 1828.09,-69.3025 1838.06,-72.8874 1838.12,-65.8877"/>
</g>
<!-- Node27&#45;&gt;Node8 -->
<g id="edge82" class="edge"><title>Node27&#45;&gt;Node8</title>
<path fill="none" stroke="midnightblue" d="M2879.36,-174.306C2875.43,-159.939 2866.95,-134.122 2853,-116 2843.71,-103.928 2830.6,-93.291 2818.92,-85.203"/>
<polygon fill="midnightblue" stroke="midnightblue" points="2820.62,-82.1317 2810.35,-79.5333 2816.76,-87.9698 2820.62,-82.1317"/>
</g>
<!-- Node28 -->
<g id="node68" class="node"><title>Node28</title>
<polygon fill="white" stroke="#bfbfbf" points="3281,-0.5 3281,-21.5 3337,-21.5 3337,-0.5 3281,-0.5"/>
<text text-anchor="middle" x="3309" y="-8.5" font-family="Helvetica,sans-Serif" font-size="10.00">algorithm</text>
</g>
<!-- Node27&#45;&gt;Node28 -->
<g id="edge80" class="edge"><title>Node27&#45;&gt;Node28</title>
<path fill="none" stroke="midnightblue" d="M2922.08,-179.946C2977.66,-172.589 3081.13,-157.639 3168,-138 3202.3,-130.246 3209.92,-124.663 3244,-116 3316.32,-97.6151 3361.23,-138.15 3408,-80 3414.13,-72.3808 3413.23,-66.2646 3408,-58 3400.86,-46.7133 3371.79,-33.6736 3346.98,-24.1965"/>
<polygon fill="midnightblue" stroke="midnightblue" points="3347.98,-20.834 3337.39,-20.6232 3345.54,-27.3937 3347.98,-20.834"/>
</g>
<!-- Node29 -->
<g id="node72" class="node"><title>Node29</title>
<a xlink:href="types_8h.html" target="_top" xlink:title="types.h">
<polygon fill="white" stroke="black" points="1603.5,-116.5 1603.5,-137.5 1652.5,-137.5 1652.5,-116.5 1603.5,-116.5"/>
<text text-anchor="middle" x="1628" y="-124.5" font-family="Helvetica,sans-Serif" font-size="10.00">types.h</text>
</a>
</g>
<!-- Node27&#45;&gt;Node29 -->
<g id="edge86" class="edge"><title>Node27&#45;&gt;Node29</title>
<path fill="none" stroke="midnightblue" d="M2841.99,-175.397C2838.96,-174.86 2835.94,-174.384 2833,-174 2597.89,-143.285 1835.48,-130.128 1662.93,-127.505"/>
<polygon fill="midnightblue" stroke="midnightblue" points="1662.93,-124.004 1652.88,-127.354 1662.83,-131.004 1662.93,-124.004"/>
</g>
<!-- Node27&#45;&gt;Node30 -->
<g id="edge88" class="edge"><title>Node27&#45;&gt;Node30</title>
<path fill="none" stroke="midnightblue" d="M2922.04,-182.12C2988.51,-176.806 3125.57,-163.59 3239,-138 3240.26,-137.716 3241.54,-137.405 3242.83,-137.074"/>
<polygon fill="midnightblue" stroke="midnightblue" points="3244.03,-140.37 3252.67,-134.242 3242.09,-133.643 3244.03,-140.37"/>
</g>
<!-- Node31&#45;&gt;Node9 -->
<g id="edge120" class="edge"><title>Node31&#45;&gt;Node9</title>
<path fill="none" stroke="midnightblue" d="M2451.51,-298.384C2505.35,-293.507 2605.4,-280.973 2627,-254 2676.16,-192.619 2618.83,-259.632 2513,-196 2481.49,-177.052 2471.33,-170.432 2454,-138 2435.99,-104.299 2440.99,-58.0464 2446.09,-31.6664"/>
<polygon fill="midnightblue" stroke="midnightblue" points="2449.56,-32.1818 2448.22,-21.6719 2442.72,-30.7229 2449.56,-32.1818"/>
</g>
<!-- Node31&#45;&gt;Node13 -->
<g id="edge118" class="edge"><title>Node31&#45;&gt;Node13</title>
<path fill="none" stroke="midnightblue" d="M2382.18,-295.207C2330.41,-286.543 2230.09,-269.56 2145,-254 2094.24,-244.718 2082.25,-238.034 2031,-232 1667.83,-189.239 1574.29,-212.928 1209,-196 1142.45,-192.916 1064.84,-189.066 1020.36,-186.835"/>
<polygon fill="midnightblue" stroke="midnightblue" points="1020.49,-183.337 1010.32,-186.33 1020.14,-190.328 1020.49,-183.337"/>
</g>
<!-- Node31&#45;&gt;Node17 -->
<g id="edge110" class="edge"><title>Node31&#45;&gt;Node17</title>
<path fill="none" stroke="midnightblue" d="M2382.21,-299.68C2187.04,-292.271 1227.3,-255.841 958.872,-245.652"/>
<polygon fill="midnightblue" stroke="midnightblue" points="958.988,-242.154 948.863,-245.272 958.723,-249.149 958.988,-242.154"/>
</g>
<!-- Node31&#45;&gt;Node25 -->
<g id="edge92" class="edge"><title>Node31&#45;&gt;Node25</title>
<path fill="none" stroke="midnightblue" d="M2451.62,-295.544C2518.52,-284.999 2665.51,-261.833 2739.93,-250.103"/>
<polygon fill="midnightblue" stroke="midnightblue" points="2740.6,-253.541 2749.93,-248.527 2739.51,-246.626 2740.6,-253.541"/>
</g>
<!-- Node32 -->
<g id="node79" class="node"><title>Node32</title>
<a xlink:href="root__draw_8h.html" target="_top" xlink:title="root_draw.h">
<polygon fill="white" stroke="black" points="2270,-232.5 2270,-253.5 2338,-253.5 2338,-232.5 2270,-232.5"/>
<text text-anchor="middle" x="2304" y="-240.5" font-family="Helvetica,sans-Serif" font-size="10.00">root_draw.h</text>
</a>
</g>
<!-- Node31&#45;&gt;Node32 -->
<g id="edge94" class="edge"><title>Node31&#45;&gt;Node32</title>
<path fill="none" stroke="midnightblue" d="M2396.54,-290.497C2378.97,-281.479 2353.42,-268.365 2333.61,-258.201"/>
<polygon fill="midnightblue" stroke="midnightblue" points="2335.19,-255.074 2324.69,-253.621 2331.99,-261.301 2335.19,-255.074"/>
</g>
<!-- Node35 -->
<g id="node91" class="node"><title>Node35</title>
<polygon fill="white" stroke="#bfbfbf" points="2499.5,-232.5 2499.5,-253.5 2550.5,-253.5 2550.5,-232.5 2499.5,-232.5"/>
<text text-anchor="middle" x="2525" y="-240.5" font-family="Helvetica,sans-Serif" font-size="10.00">TH1D.h</text>
</g>
<!-- Node31&#45;&gt;Node35 -->
<g id="edge112" class="edge"><title>Node31&#45;&gt;Node35</title>
<path fill="none" stroke="midnightblue" d="M2436.56,-290.497C2453.2,-281.56 2477.33,-268.602 2496.18,-258.477"/>
<polygon fill="midnightblue" stroke="midnightblue" points="2498.07,-261.436 2505.22,-253.621 2494.76,-255.269 2498.07,-261.436"/>
</g>
<!-- Node36 -->
<g id="node93" class="node"><title>Node36</title>
<polygon fill="white" stroke="#bfbfbf" points="2567.5,-232.5 2567.5,-253.5 2618.5,-253.5 2618.5,-232.5 2567.5,-232.5"/>
<text text-anchor="middle" x="2593" y="-240.5" font-family="Helvetica,sans-Serif" font-size="10.00">TH2D.h</text>
</g>
<!-- Node31&#45;&gt;Node36 -->
<g id="edge114" class="edge"><title>Node31&#45;&gt;Node36</title>
<path fill="none" stroke="midnightblue" d="M2448.87,-290.497C2479.53,-280.393 2525.79,-265.148 2557.59,-254.67"/>
<polygon fill="midnightblue" stroke="midnightblue" points="2558.96,-257.903 2567.36,-251.448 2556.77,-251.254 2558.96,-257.903"/>
</g>
<!-- Node37 -->
<g id="node95" class="node"><title>Node37</title>
<polygon fill="white" stroke="#bfbfbf" points="2355.5,-232.5 2355.5,-253.5 2406.5,-253.5 2406.5,-232.5 2355.5,-232.5"/>
<text text-anchor="middle" x="2381" y="-240.5" font-family="Helvetica,sans-Serif" font-size="10.00">TH3D.h</text>
</g>
<!-- Node31&#45;&gt;Node37 -->
<g id="edge116" class="edge"><title>Node31&#45;&gt;Node37</title>
<path fill="none" stroke="midnightblue" d="M2410.4,-290.362C2405.53,-282.513 2398.76,-271.616 2392.95,-262.253"/>
<polygon fill="midnightblue" stroke="midnightblue" points="2395.81,-260.221 2387.56,-253.571 2389.86,-263.913 2395.81,-260.221"/>
</g>
<!-- Node38 -->
<g id="node99" class="node"><title>Node38</title>
<polygon fill="white" stroke="#bfbfbf" points="1968,-232.5 1968,-253.5 2022,-253.5 2022,-232.5 1968,-232.5"/>
<text text-anchor="middle" x="1995" y="-240.5" font-family="Helvetica,sans-Serif" font-size="10.00">iostream</text>
</g>
<!-- Node31&#45;&gt;Node38 -->
<g id="edge122" class="edge"><title>Node31&#45;&gt;Node38</title>
<path fill="none" stroke="midnightblue" d="M2382.47,-296.254C2304.1,-285.482 2113.33,-259.263 2032.34,-248.133"/>
<polygon fill="midnightblue" stroke="midnightblue" points="2032.5,-244.622 2022.12,-246.727 2031.55,-251.557 2032.5,-244.622"/>
</g>
<!-- Node39 -->
<g id="node101" class="node"><title>Node39</title>
<polygon fill="white" stroke="#bfbfbf" points="2423.5,-232.5 2423.5,-253.5 2482.5,-253.5 2482.5,-232.5 2423.5,-232.5"/>
<text text-anchor="middle" x="2453" y="-240.5" font-family="Helvetica,sans-Serif" font-size="10.00">exception</text>
</g>
<!-- Node31&#45;&gt;Node39 -->
<g id="edge124" class="edge"><title>Node31&#45;&gt;Node39</title>
<path fill="none" stroke="midnightblue" d="M2423.6,-290.362C2428.47,-282.513 2435.24,-271.616 2441.05,-262.253"/>
<polygon fill="midnightblue" stroke="midnightblue" points="2444.14,-263.913 2446.44,-253.571 2438.19,-260.221 2444.14,-263.913"/>
</g>
<!-- Node32&#45;&gt;Node4 -->
<g id="edge100" class="edge"><title>Node32&#45;&gt;Node4</title>
<path fill="none" stroke="midnightblue" d="M2290.86,-232.4C2272.08,-217.672 2236.08,-190.925 2202,-174 2058.24,-102.617 2017.3,-89.9119 1860,-58 1741.67,-33.9933 1364.89,-16.9449 1252.16,-12.2823"/>
<polygon fill="midnightblue" stroke="midnightblue" points="1252.23,-8.7822 1242.1,-11.8699 1251.94,-15.7763 1252.23,-8.7822"/>
</g>
<!-- Node32&#45;&gt;Node9 -->
<g id="edge96" class="edge"><title>Node32&#45;&gt;Node9</title>
<path fill="none" stroke="midnightblue" d="M2307.83,-232.119C2318.72,-202.145 2352.17,-116.71 2399,-58 2407.77,-47.0004 2419.23,-36.3491 2429.16,-27.9753"/>
<polygon fill="midnightblue" stroke="midnightblue" points="2431.52,-30.5626 2437.04,-21.5194 2427.09,-25.1464 2431.52,-30.5626"/>
</g>
<!-- Node32&#45;&gt;Node13 -->
<g id="edge104" class="edge"><title>Node32&#45;&gt;Node13</title>
<path fill="none" stroke="midnightblue" d="M2269.87,-233.559C2266.88,-232.95 2263.9,-232.415 2261,-232 1797.9,-165.641 1676.43,-215.423 1209,-196 1142.44,-193.234 1064.84,-189.279 1020.36,-186.941"/>
<polygon fill="midnightblue" stroke="midnightblue" points="1020.49,-183.444 1010.32,-186.412 1020.12,-190.434 1020.49,-183.444"/>
</g>
<!-- Node32&#45;&gt;Node18 -->
<g id="edge98" class="edge"><title>Node32&#45;&gt;Node18</title>
<path fill="none" stroke="midnightblue" d="M2287.31,-232.346C2261.03,-216.221 2207.83,-186.207 2158,-174 1958.63,-125.16 1440.04,-147.722 1235,-138 1173.29,-135.074 1100.76,-130.812 1063.28,-128.548"/>
<polygon fill="midnightblue" stroke="midnightblue" points="1063.02,-125.025 1052.82,-127.913 1062.59,-132.013 1063.02,-125.025"/>
</g>
<!-- Node32&#45;&gt;Node21 -->
<g id="edge102" class="edge"><title>Node32&#45;&gt;Node21</title>
<path fill="none" stroke="midnightblue" d="M2271.74,-232.442C2243.12,-223.03 2200.21,-208.802 2163,-196 2161.78,-195.582 2160.54,-195.152 2159.29,-194.717"/>
<polygon fill="midnightblue" stroke="midnightblue" points="2160.28,-191.354 2149.68,-191.341 2157.96,-197.958 2160.28,-191.354"/>
</g>
<!-- Node32&#45;&gt;Node33 -->
<g id="edge106" class="edge"><title>Node32&#45;&gt;Node33</title>
<path fill="none" stroke="midnightblue" d="M2321.42,-232.362C2335.89,-223.532 2356.67,-210.844 2373.08,-200.822"/>
<polygon fill="midnightblue" stroke="midnightblue" points="2374.97,-203.769 2381.69,-195.571 2371.33,-197.794 2374.97,-203.769"/>
</g>
<!-- Node34 -->
<g id="node88" class="node"><title>Node34</title>
<polygon fill="white" stroke="#bfbfbf" points="2479,-116.5 2479,-137.5 2535,-137.5 2535,-116.5 2479,-116.5"/>
<text text-anchor="middle" x="2507" y="-124.5" font-family="Helvetica,sans-Serif" font-size="10.00">Rtypes.h</text>
</g>
<!-- Node32&#45;&gt;Node34 -->
<g id="edge108" class="edge"><title>Node32&#45;&gt;Node34</title>
<path fill="none" stroke="midnightblue" d="M2310.12,-232.265C2319.28,-217.125 2337.98,-189.61 2361,-174 2393.77,-151.778 2437.73,-139.514 2468.82,-133.138"/>
<polygon fill="midnightblue" stroke="midnightblue" points="2469.69,-136.535 2478.84,-131.195 2468.35,-129.663 2469.69,-136.535"/>
</g>
<!-- Node40&#45;&gt;Node3 -->
<g id="edge154" class="edge"><title>Node40&#45;&gt;Node3</title>
<path fill="none" stroke="midnightblue" d="M1698.15,-290.429C1712.24,-254.497 1758.46,-136.674 1777.1,-89.1453"/>
<polygon fill="midnightblue" stroke="midnightblue" points="1780.44,-90.221 1780.83,-79.6335 1773.92,-87.6649 1780.44,-90.221"/>
</g>
<!-- Node40&#45;&gt;Node4 -->
<g id="edge182" class="edge"><title>Node40&#45;&gt;Node4</title>
<path fill="none" stroke="midnightblue" d="M1704.93,-290.173C1713.05,-281.308 1723.47,-267.989 1728,-254 1731.01,-244.698 1730.53,-241.444 1728,-232 1712.59,-174.493 1708.74,-151.574 1661,-116 1594.98,-66.808 1342.33,-27.891 1252.19,-15.3098"/>
<polygon fill="midnightblue" stroke="midnightblue" points="1252.65,-11.8407 1242.27,-13.9402 1251.69,-18.7749 1252.65,-11.8407"/>
</g>
<!-- Node40&#45;&gt;Node13 -->
<g id="edge188" class="edge"><title>Node40&#45;&gt;Node13</title>
<path fill="none" stroke="midnightblue" d="M1634.17,-294.756C1519.63,-282.77 1279.06,-257.412 1261,-254 1224.34,-247.077 1216.14,-241.239 1180,-232 1124.29,-217.759 1059.35,-202.436 1019.98,-193.287"/>
<polygon fill="midnightblue" stroke="midnightblue" points="1020.59,-189.837 1010.06,-190.988 1019.01,-196.656 1020.59,-189.837"/>
</g>
<!-- Node40&#45;&gt;Node18 -->
<g id="edge184" class="edge"><title>Node40&#45;&gt;Node18</title>
<path fill="none" stroke="midnightblue" d="M1634.23,-294.589C1557.74,-285.923 1429.8,-269.739 1385,-254 1366.59,-247.531 1365.05,-239.419 1347,-232 1288.37,-207.902 1269.18,-215.9 1209,-196 1155.56,-178.33 1094.87,-152.386 1062.09,-137.867"/>
<polygon fill="midnightblue" stroke="midnightblue" points="1063.41,-134.624 1052.86,-133.75 1060.56,-141.018 1063.41,-134.624"/>
</g>
<!-- Node40&#45;&gt;Node29 -->
<g id="edge156" class="edge"><title>Node40&#45;&gt;Node29</title>
<path fill="none" stroke="midnightblue" d="M1689.97,-290.377C1679.27,-262.172 1650,-185.012 1635.86,-147.72"/>
<polygon fill="midnightblue" stroke="midnightblue" points="1638.96,-146.036 1632.14,-137.928 1632.42,-148.519 1638.96,-146.036"/>
</g>
<!-- Node40&#45;&gt;Node38 -->
<g id="edge186" class="edge"><title>Node40&#45;&gt;Node38</title>
<path fill="none" stroke="midnightblue" d="M1748.51,-290.497C1809.18,-278.806 1905.57,-260.232 1958.03,-250.124"/>
<polygon fill="midnightblue" stroke="midnightblue" points="1958.76,-253.548 1967.91,-248.219 1957.43,-246.675 1958.76,-253.548"/>
</g>
<!-- Node41 -->
<g id="node105" class="node"><title>Node41</title>
<a xlink:href="_candidate_8h.html" target="_top" xlink:title="analysis/data/Candidate.h">
<polygon fill="white" stroke="black" points="1394,-232.5 1394,-253.5 1524,-253.5 1524,-232.5 1394,-232.5"/>
<text text-anchor="middle" x="1459" y="-240.5" font-family="Helvetica,sans-Serif" font-size="10.00">analysis/data/Candidate.h</text>
</a>
</g>
<!-- Node40&#45;&gt;Node41 -->
<g id="edge128" class="edge"><title>Node40&#45;&gt;Node41</title>
<path fill="none" stroke="midnightblue" d="M1651.44,-290.497C1612.14,-280.795 1553.63,-266.355 1511.45,-255.945"/>
<polygon fill="midnightblue" stroke="midnightblue" points="1512.18,-252.521 1501.64,-253.523 1510.51,-259.317 1512.18,-252.521"/>
</g>
<!-- Node44 -->
<g id="node123" class="node"><title>Node44</title>
<a xlink:href="_particle_type_8h.html" target="_top" xlink:title="base/ParticleType.h">
<polygon fill="white" stroke="black" points="1808,-232.5 1808,-253.5 1912,-253.5 1912,-232.5 1808,-232.5"/>
<text text-anchor="middle" x="1860" y="-240.5" font-family="Helvetica,sans-Serif" font-size="10.00">base/ParticleType.h</text>
</a>
</g>
<!-- Node40&#45;&gt;Node44 -->
<g id="edge158" class="edge"><title>Node40&#45;&gt;Node44</title>
<path fill="none" stroke="midnightblue" d="M1724.06,-290.497C1751.01,-281.082 1790.73,-267.204 1820.28,-256.877"/>
<polygon fill="midnightblue" stroke="midnightblue" points="1821.6,-260.126 1829.88,-253.523 1819.29,-253.517 1821.6,-260.126"/>
</g>
<!-- Node46 -->
<g id="node132" class="node"><title>Node46</title>
<a xlink:href="_tree_8h.html" target="_top" xlink:title="base/Tree.h">
<polygon fill="white" stroke="black" points="1270,-232.5 1270,-253.5 1338,-253.5 1338,-232.5 1270,-232.5"/>
<text text-anchor="middle" x="1304" y="-240.5" font-family="Helvetica,sans-Serif" font-size="10.00">base/Tree.h</text>
</a>
</g>
<!-- Node40&#45;&gt;Node46 -->
<g id="edge172" class="edge"><title>Node40&#45;&gt;Node46</title>
<path fill="none" stroke="midnightblue" d="M1634.43,-294.438C1566,-286.523 1450.45,-272.01 1352,-254 1350.72,-253.766 1349.43,-253.522 1348.12,-253.268"/>
<polygon fill="midnightblue" stroke="midnightblue" points="1348.51,-249.775 1338.01,-251.187 1347.1,-256.631 1348.51,-249.775"/>
</g>
<!-- Node47 -->
<g id="node137" class="node"><title>Node47</title>
<polygon fill="white" stroke="#bfbfbf" points="848,-174.5 848,-195.5 940,-195.5 940,-174.5 848,-174.5"/>
<text text-anchor="middle" x="894" y="-182.5" font-family="Helvetica,sans-Serif" font-size="10.00">TLorentzVector.h</text>
</g>
<!-- Node40&#45;&gt;Node47 -->
<g id="edge180" class="edge"><title>Node40&#45;&gt;Node47</title>
<path fill="none" stroke="midnightblue" d="M1634.31,-294.634C1619.21,-293.071 1603.01,-291.435 1588,-290 1405.02,-272.513 1357.36,-283.93 1176,-254 1091.5,-240.054 994.93,-214.221 939.544,-198.426"/>
<polygon fill="midnightblue" stroke="midnightblue" points="940.272,-194.994 929.694,-195.599 938.34,-201.722 940.272,-194.994"/>
</g>
<!-- Node41&#45;&gt;Node2 -->
<g id="edge134" class="edge"><title>Node41&#45;&gt;Node2</title>
<path fill="none" stroke="midnightblue" d="M1398.47,-232.482C1347.73,-223.461 1273.46,-209.772 1209,-196 1125.76,-178.215 1029.73,-154.575 972.269,-140.091"/>
<polygon fill="midnightblue" stroke="midnightblue" points="972.9,-136.641 962.347,-137.585 971.185,-143.428 972.9,-136.641"/>
</g>
<!-- Node41&#45;&gt;Node3 -->
<g id="edge130" class="edge"><title>Node41&#45;&gt;Node3</title>
<path fill="none" stroke="midnightblue" d="M1458.98,-232.141C1459.56,-207.35 1464.71,-146.391 1500,-116 1533.86,-86.8362 1658.72,-75.4993 1731.45,-71.3027"/>
<polygon fill="midnightblue" stroke="midnightblue" points="1732,-74.7782 1741.79,-70.7341 1731.61,-67.7888 1732,-74.7782"/>
</g>
<!-- Node41&#45;&gt;Node4 -->
<g id="edge152" class="edge"><title>Node41&#45;&gt;Node4</title>
<path fill="none" stroke="midnightblue" d="M1450.9,-232.202C1443.78,-222.694 1433.16,-208.462 1424,-196 1398,-160.61 1397.11,-146.994 1366,-116 1329.12,-79.2572 1278.34,-45.8312 1247.41,-26.9903"/>
<polygon fill="midnightblue" stroke="midnightblue" points="1248.87,-23.7789 1238.49,-21.6238 1245.26,-29.7774 1248.87,-23.7789"/>
</g>
<!-- Node41&#45;&gt;Node5 -->
<g id="edge148" class="edge"><title>Node41&#45;&gt;Node5</title>
<path fill="none" stroke="midnightblue" d="M1456.98,-232.322C1453.03,-207.913 1447.25,-147.7 1479,-116 1554.14,-40.9705 1685.19,-19.4943 1748.59,-13.393"/>
<polygon fill="midnightblue" stroke="midnightblue" points="1749.24,-16.8495 1758.89,-12.4811 1748.62,-9.87682 1749.24,-16.8495"/>
</g>
<!-- Node41&#45;&gt;Node6 -->
<g id="edge146" class="edge"><title>Node41&#45;&gt;Node6</title>
<path fill="none" stroke="midnightblue" d="M1436.44,-232.341C1420.81,-224.102 1400.32,-211.498 1386,-196 1358.6,-166.354 1372.56,-143.493 1343,-116 1325.33,-99.56 1300.94,-88.1673 1280.11,-80.7204"/>
<polygon fill="midnightblue" stroke="midnightblue" points="1281.12,-77.3671 1270.53,-77.4748 1278.88,-83.9972 1281.12,-77.3671"/>
</g>
<!-- Node41&#45;&gt;Node13 -->
<g id="edge150" class="edge"><title>Node41&#45;&gt;Node13</title>
<path fill="none" stroke="midnightblue" d="M1393.95,-235.057C1292.55,-222.675 1100.16,-199.183 1020.23,-189.424"/>
<polygon fill="midnightblue" stroke="midnightblue" points="1020.51,-185.932 1010.16,-188.194 1019.66,-192.881 1020.51,-185.932"/>
</g>
<!-- Node41&#45;&gt;Node29 -->
<g id="edge132" class="edge"><title>Node41&#45;&gt;Node29</title>
<path fill="none" stroke="midnightblue" d="M1474.6,-232.295C1504.28,-211.923 1569.05,-167.464 1604.19,-143.346"/>
<polygon fill="midnightblue" stroke="midnightblue" points="1606.18,-146.224 1612.44,-137.679 1602.22,-140.453 1606.18,-146.224"/>
</g>
<!-- Node42 -->
<g id="node110" class="node"><title>Node42</title>
<a xlink:href="_cluster_8h.html" target="_top" xlink:title="analysis/data/Cluster.h">
<polygon fill="white" stroke="black" points="1217.5,-174.5 1217.5,-195.5 1334.5,-195.5 1334.5,-174.5 1217.5,-174.5"/>
<text text-anchor="middle" x="1276" y="-182.5" font-family="Helvetica,sans-Serif" font-size="10.00">analysis/data/Cluster.h</text>
</a>
</g>
<!-- Node41&#45;&gt;Node42 -->
<g id="edge136" class="edge"><title>Node41&#45;&gt;Node42</title>
<path fill="none" stroke="midnightblue" d="M1425.86,-232.497C1395.9,-223 1351.6,-208.962 1318.94,-198.609"/>
<polygon fill="midnightblue" stroke="midnightblue" points="1319.79,-195.208 1309.2,-195.523 1317.68,-201.881 1319.79,-195.208"/>
</g>
<!-- Node42&#45;&gt;Node2 -->
<g id="edge138" class="edge"><title>Node42&#45;&gt;Node2</title>
<path fill="none" stroke="midnightblue" d="M1217.38,-175.422C1151.3,-164.626 1044.53,-147.183 978.795,-136.443"/>
<polygon fill="midnightblue" stroke="midnightblue" points="979.043,-132.937 968.609,-134.778 977.914,-139.845 979.043,-132.937"/>
</g>
<!-- Node42&#45;&gt;Node6 -->
<g id="edge142" class="edge"><title>Node42&#45;&gt;Node6</title>
<path fill="none" stroke="midnightblue" d="M1262.47,-174.267C1252.76,-165.646 1240.47,-152.6 1235,-138 1229.22,-122.585 1230.5,-103.858 1232.94,-89.8051"/>
<polygon fill="midnightblue" stroke="midnightblue" points="1236.43,-90.1904 1235.02,-79.6898 1229.57,-88.778 1236.43,-90.1904"/>
</g>
<!-- Node42&#45;&gt;Node18 -->
<g id="edge140" class="edge"><title>Node42&#45;&gt;Node18</title>
<path fill="none" stroke="midnightblue" d="M1232.9,-174.497C1182.98,-162.33 1102.46,-142.709 1062.35,-132.933"/>
<polygon fill="midnightblue" stroke="midnightblue" points="1063.15,-129.527 1052.61,-130.56 1061.5,-136.328 1063.15,-129.527"/>
</g>
<!-- Node43 -->
<g id="node115" class="node"><title>Node43</title>
<a xlink:href="enumfield_8h.html" target="_top" xlink:title="base/enumfield.h">
<polygon fill="white" stroke="black" points="1243.5,-116.5 1243.5,-137.5 1334.5,-137.5 1334.5,-116.5 1243.5,-116.5"/>
<text text-anchor="middle" x="1289" y="-124.5" font-family="Helvetica,sans-Serif" font-size="10.00">base/enumfield.h</text>
</a>
</g>
<!-- Node42&#45;&gt;Node43 -->
<g id="edge144" class="edge"><title>Node42&#45;&gt;Node43</title>
<path fill="none" stroke="midnightblue" d="M1278.38,-174.362C1280.07,-166.84 1282.38,-156.519 1284.42,-147.431"/>
<polygon fill="midnightblue" stroke="midnightblue" points="1287.86,-148.094 1286.63,-137.571 1281.03,-146.563 1287.86,-148.094"/>
</g>
<!-- Node44&#45;&gt;Node4 -->
<g id="edge170" class="edge"><title>Node44&#45;&gt;Node4</title>
<path fill="none" stroke="midnightblue" d="M1862.7,-232.229C1870,-200.244 1886.43,-105.125 1837,-58 1815.63,-37.6284 1375.95,-17.5844 1252.17,-12.3288"/>
<polygon fill="midnightblue" stroke="midnightblue" points="1252.31,-8.83161 1242.17,-11.9073 1252.01,-15.8254 1252.31,-8.83161"/>
</g>
<!-- Node44&#45;&gt;Node5 -->
<g id="edge164" class="edge"><title>Node44&#45;&gt;Node5</title>
<path fill="none" stroke="midnightblue" d="M1892.74,-232.472C1909.77,-225.139 1929.06,-213.48 1939,-196 1943.83,-187.5 1941.59,-183.428 1939,-174 1923.1,-116.159 1913.08,-99.7436 1870,-58 1855.83,-44.2671 1836.85,-33.2678 1820.42,-25.3728"/>
<polygon fill="midnightblue" stroke="midnightblue" points="1821.65,-22.0839 1811.1,-21.0858 1818.72,-28.4437 1821.65,-22.0839"/>
</g>
<!-- Node44&#45;&gt;Node9 -->
<g id="edge162" class="edge"><title>Node44&#45;&gt;Node9</title>
<path fill="none" stroke="midnightblue" d="M1886.93,-232.429C1984.4,-194.167 2318.41,-63.0502 2420.87,-22.8279"/>
<polygon fill="midnightblue" stroke="midnightblue" points="2422.29,-26.031 2430.32,-19.1189 2419.73,-19.515 2422.29,-26.031"/>
</g>
<!-- Node44&#45;&gt;Node21 -->
<g id="edge166" class="edge"><title>Node44&#45;&gt;Node21</title>
<path fill="none" stroke="midnightblue" d="M1912.01,-233.791C1971.8,-223.041 2066.15,-205.525 2101,-196 2102.24,-195.661 2103.5,-195.297 2104.77,-194.915"/>
<polygon fill="midnightblue" stroke="midnightblue" points="2106.03,-198.185 2114.44,-191.741 2103.85,-191.534 2106.03,-198.185"/>
</g>
<!-- Node44&#45;&gt;Node29 -->
<g id="edge160" class="edge"><title>Node44&#45;&gt;Node29</title>
<path fill="none" stroke="midnightblue" d="M1838.59,-232.295C1797.14,-211.568 1705.82,-165.909 1658.21,-142.105"/>
<polygon fill="midnightblue" stroke="midnightblue" points="1659.53,-138.853 1649.02,-137.512 1656.4,-145.114 1659.53,-138.853"/>
</g>
<!-- Node45 -->
<g id="node129" class="node"><title>Node45</title>
<polygon fill="white" stroke="#bfbfbf" points="1883.5,-174.5 1883.5,-195.5 1930.5,-195.5 1930.5,-174.5 1883.5,-174.5"/>
<text text-anchor="middle" x="1907" y="-182.5" font-family="Helvetica,sans-Serif" font-size="10.00">iterator</text>
</g>
<!-- Node44&#45;&gt;Node45 -->
<g id="edge168" class="edge"><title>Node44&#45;&gt;Node45</title>
<path fill="none" stroke="midnightblue" d="M1868.62,-232.362C1875.18,-224.268 1884.37,-212.932 1892.11,-203.38"/>
<polygon fill="midnightblue" stroke="midnightblue" points="1894.86,-205.544 1898.43,-195.571 1889.42,-201.136 1894.86,-205.544"/>
</g>
<!-- Node46&#45;&gt;Node13 -->
<g id="edge174" class="edge"><title>Node46&#45;&gt;Node13</title>
<path fill="none" stroke="midnightblue" d="M1269.96,-234.96C1265.28,-233.924 1260.53,-232.909 1256,-232 1172.04,-215.14 1072.77,-198.917 1020.47,-190.657"/>
<polygon fill="midnightblue" stroke="midnightblue" points="1020.77,-187.162 1010.35,-189.066 1019.68,-194.077 1020.77,-187.162"/>
</g>
<!-- Node46&#45;&gt;Node18 -->
<g id="edge176" class="edge"><title>Node46&#45;&gt;Node18</title>
<path fill="none" stroke="midnightblue" d="M1269.95,-235.189C1212.02,-221.895 1100.46,-196.273 1100,-196 1079.12,-183.695 1061.37,-162.017 1050.28,-146.236"/>
<polygon fill="midnightblue" stroke="midnightblue" points="1053.04,-144.072 1044.55,-137.741 1047.24,-147.988 1053.04,-144.072"/>
</g>
<!-- Node46&#45;&gt;Node28 -->
<g id="edge178" class="edge"><title>Node46&#45;&gt;Node28</title>
<path fill="none" stroke="midnightblue" d="M1269.89,-235.099C1248.82,-228.355 1223.17,-216.401 1209,-196 1173.87,-145.441 1153.95,-102.014 1197,-58 1215.86,-38.7157 2985.04,-15.1657 3270.35,-11.4917"/>
<polygon fill="midnightblue" stroke="midnightblue" points="3270.66,-14.9881 3280.62,-11.3599 3270.57,-7.98873 3270.66,-14.9881"/>
</g>
<!-- Node48&#45;&gt;Node3 -->
<g id="edge262" class="edge"><title>Node48&#45;&gt;Node3</title>
<path fill="none" stroke="midnightblue" d="M1599.61,-358.695C1656.32,-350.147 1739.13,-334.274 1762,-312 1807.1,-268.07 1796.69,-236.903 1794,-174 1792.75,-144.715 1789.54,-110.962 1787.31,-89.802"/>
<polygon fill="midnightblue" stroke="midnightblue" points="1790.78,-89.2796 1786.22,-79.7126 1783.82,-90.0303 1790.78,-89.2796"/>
</g>
<!-- Node48&#45;&gt;Node4 -->
<g id="edge266" class="edge"><title>Node48&#45;&gt;Node4</title>
<path fill="none" stroke="midnightblue" d="M1488.43,-363.874C1318.24,-357.138 811.465,-335.336 741,-312 695.826,-297.04 673.78,-295.78 651,-254 536.604,-44.1854 1050.77,-15.5243 1187.4,-11.6159"/>
<polygon fill="midnightblue" stroke="midnightblue" points="1187.74,-15.1082 1197.65,-11.3497 1187.56,-8.11057 1187.74,-15.1082"/>
</g>
<!-- Node48&#45;&gt;Node13 -->
<g id="edge268" class="edge"><title>Node48&#45;&gt;Node13</title>
<path fill="none" stroke="midnightblue" d="M1498.14,-355.443C1422.82,-337.613 1268.62,-299.038 1142,-254 1096.76,-237.91 1046.18,-214.893 1014.72,-199.948"/>
<polygon fill="midnightblue" stroke="midnightblue" points="1016.12,-196.741 1005.59,-195.585 1013.1,-203.056 1016.12,-196.741"/>
</g>
<!-- Node48&#45;&gt;Node21 -->
<g id="edge270" class="edge"><title>Node48&#45;&gt;Node21</title>
<path fill="none" stroke="midnightblue" d="M1599.86,-361.025C1693.13,-351.033 1884.76,-323.231 2031,-254 2060.93,-239.832 2091.87,-217.325 2111.48,-201.894"/>
<polygon fill="midnightblue" stroke="midnightblue" points="2113.78,-204.536 2119.41,-195.558 2109.41,-199.069 2113.78,-204.536"/>
</g>
<!-- Node48&#45;&gt;Node29 -->
<g id="edge260" class="edge"><title>Node48&#45;&gt;Node29</title>
<path fill="none" stroke="midnightblue" d="M1555.12,-355.486C1565.22,-345.31 1579.76,-328.97 1588,-312 1614.94,-256.522 1623.88,-182.951 1626.73,-147.638"/>
<polygon fill="midnightblue" stroke="midnightblue" points="1630.23,-147.815 1627.46,-137.588 1623.25,-147.31 1630.23,-147.815"/>
</g>
<!-- Node48&#45;&gt;Node40 -->
<g id="edge194" class="edge"><title>Node48&#45;&gt;Node40</title>
<path fill="none" stroke="midnightblue" d="M1568.43,-355.412C1593.39,-344.6 1632.31,-327.731 1660.21,-315.642"/>
<polygon fill="midnightblue" stroke="midnightblue" points="1661.79,-318.771 1669.58,-311.584 1659.01,-312.348 1661.79,-318.771"/>
</g>
<!-- Node48&#45;&gt;Node41 -->
<g id="edge196" class="edge"><title>Node48&#45;&gt;Node41</title>
<path fill="none" stroke="midnightblue" d="M1534.4,-355.204C1525.14,-344.561 1510.94,-327.662 1500,-312 1488.72,-295.852 1477.39,-276.496 1469.51,-262.4"/>
<polygon fill="midnightblue" stroke="midnightblue" points="1472.54,-260.652 1464.65,-253.586 1466.41,-264.033 1472.54,-260.652"/>
</g>
<!-- Node48&#45;&gt;Node46 -->
<g id="edge264" class="edge"><title>Node48&#45;&gt;Node46</title>
<path fill="none" stroke="midnightblue" d="M1523.12,-355.3C1480.46,-333.437 1383.18,-283.578 1333.85,-258.3"/>
<polygon fill="midnightblue" stroke="midnightblue" points="1335.16,-255.034 1324.66,-253.588 1331.96,-261.264 1335.16,-255.034"/>
</g>
<!-- Node49 -->
<g id="node148" class="node"><title>Node49</title>
<a xlink:href="_tagger_hit_8h.html" target="_top" xlink:title="TaggerHit.h">
<polygon fill="white" stroke="black" points="744,-232.5 744,-253.5 812,-253.5 812,-232.5 744,-232.5"/>
<text text-anchor="middle" x="778" y="-240.5" font-family="Helvetica,sans-Serif" font-size="10.00">TaggerHit.h</text>
</a>
</g>
<!-- Node48&#45;&gt;Node49 -->
<g id="edge198" class="edge"><title>Node48&#45;&gt;Node49</title>
<path fill="none" stroke="midnightblue" d="M1488.16,-360.259C1405.97,-351.522 1247.7,-333.6 1114,-312 986.15,-291.344 952.109,-283.723 822.165,-254.195"/>
<polygon fill="midnightblue" stroke="midnightblue" points="822.753,-250.74 812.226,-251.936 821.202,-257.565 822.753,-250.74"/>
</g>
<!-- Node50 -->
<g id="node155" class="node"><title>Node50</title>
<a xlink:href="_trigger_info_8h.html" target="_top" xlink:title="TriggerInfo.h">
<polygon fill="white" stroke="black" points="1508.5,-290.5 1508.5,-311.5 1579.5,-311.5 1579.5,-290.5 1508.5,-290.5"/>
<text text-anchor="middle" x="1544" y="-298.5" font-family="Helvetica,sans-Serif" font-size="10.00">TriggerInfo.h</text>
</a>
</g>
<!-- Node48&#45;&gt;Node50 -->
<g id="edge210" class="edge"><title>Node48&#45;&gt;Node50</title>
<path fill="none" stroke="midnightblue" d="M1544,-355.267C1544,-346.18 1544,-332.892 1544,-321.74"/>
<polygon fill="midnightblue" stroke="midnightblue" points="1547.5,-321.534 1544,-311.534 1540.5,-321.534 1547.5,-321.534"/>
</g>
<!-- Node49&#45;&gt;Node3 -->
<g id="edge206" class="edge"><title>Node49&#45;&gt;Node3</title>
<path fill="none" stroke="midnightblue" d="M769.56,-232.4C758.913,-217.671 743.631,-190.924 758,-174 821.842,-98.8069 884.135,-171.254 977,-138 995.373,-131.421 996.316,-121.634 1015,-116 1083.11,-95.4621 1568.52,-76.6417 1731.67,-70.8339"/>
<polygon fill="midnightblue" stroke="midnightblue" points="1732.07,-74.3219 1741.94,-70.4703 1731.82,-67.3263 1732.07,-74.3219"/>
</g>
<!-- Node49&#45;&gt;Node13 -->
<g id="edge202" class="edge"><title>Node49&#45;&gt;Node13</title>
<path fill="none" stroke="midnightblue" d="M812.17,-233.999C844.735,-225.335 895.371,-211.639 947.843,-196.278"/>
<polygon fill="midnightblue" stroke="midnightblue" points="949.052,-199.571 957.658,-193.391 947.077,-192.855 949.052,-199.571"/>
</g>
<!-- Node49&#45;&gt;Node18 -->
<g id="edge200" class="edge"><title>Node49&#45;&gt;Node18</title>
<path fill="none" stroke="midnightblue" d="M771.862,-232.231C764.261,-217.302 753.93,-190.318 768,-174 803.504,-132.824 957.472,-152.03 1010,-138 1011.25,-137.666 1012.52,-137.295 1013.79,-136.895"/>
<polygon fill="midnightblue" stroke="midnightblue" points="1015.15,-140.126 1023.39,-133.462 1012.79,-133.535 1015.15,-140.126"/>
</g>
<!-- Node49&#45;&gt;Node29 -->
<g id="edge204" class="edge"><title>Node49&#45;&gt;Node29</title>
<path fill="none" stroke="midnightblue" d="M783.634,-232.493C792.826,-216.565 812.693,-186.811 839,-174 873.34,-157.277 1444.91,-134.086 1593.12,-128.332"/>
<polygon fill="midnightblue" stroke="midnightblue" points="1593.58,-131.817 1603.44,-127.933 1593.31,-124.822 1593.58,-131.817"/>
</g>
<!-- Node49&#45;&gt;Node47 -->
<g id="edge208" class="edge"><title>Node49&#45;&gt;Node47</title>
<path fill="none" stroke="midnightblue" d="M799.007,-232.497C817.043,-223.479 843.27,-210.365 863.599,-200.201"/>
<polygon fill="midnightblue" stroke="midnightblue" points="865.379,-203.224 872.758,-195.621 862.248,-196.963 865.379,-203.224"/>
</g>
<!-- Node50&#45;&gt;Node3 -->
<g id="edge214" class="edge"><title>Node50&#45;&gt;Node3</title>
<path fill="none" stroke="midnightblue" d="M1543.51,-290.407C1542.65,-258.92 1544.64,-165.045 1595,-116 1614.26,-97.2423 1682.31,-83.7158 1731.47,-76.1205"/>
<polygon fill="midnightblue" stroke="midnightblue" points="1732.28,-79.538 1741.65,-74.59 1731.24,-72.6158 1732.28,-79.538"/>
</g>
<!-- Node50&#45;&gt;Node13 -->
<g id="edge258" class="edge"><title>Node50&#45;&gt;Node13</title>
<path fill="none" stroke="midnightblue" d="M1508.37,-299.762C1443.73,-296.753 1303.33,-286.696 1190,-254 1167.45,-247.495 1163.97,-240.255 1142,-232 1119.64,-223.596 1059.23,-206.162 1019.92,-195.051"/>
<polygon fill="midnightblue" stroke="midnightblue" points="1020.75,-191.648 1010.18,-192.303 1018.85,-198.385 1020.75,-191.648"/>
</g>
<!-- Node50&#45;&gt;Node18 -->
<g id="edge256" class="edge"><title>Node50&#45;&gt;Node18</title>
<path fill="none" stroke="midnightblue" d="M1508.41,-296.621C1454.48,-289.641 1349.01,-274.646 1261,-254 1250.26,-251.479 1079.37,-203.198 1071,-196 1056.28,-183.334 1047.61,-162.62 1042.88,-147.188"/>
<polygon fill="midnightblue" stroke="midnightblue" points="1046.24,-146.22 1040.21,-137.511 1039.49,-148.082 1046.24,-146.22"/>
</g>
<!-- Node50&#45;&gt;Node29 -->
<g id="edge212" class="edge"><title>Node50&#45;&gt;Node29</title>
<path fill="none" stroke="midnightblue" d="M1549.13,-290.377C1562.8,-262.051 1600.31,-184.349 1618.23,-147.242"/>
<polygon fill="midnightblue" stroke="midnightblue" points="1621.53,-148.455 1622.72,-137.928 1615.23,-145.412 1621.53,-148.455"/>
</g>
<!-- Node51 -->
<g id="node159" class="node"><title>Node51</title>
<a xlink:href="_t_data_record_8h.html" target="_top" xlink:title="tree/TDataRecord.h">
<polygon fill="white" stroke="black" points="2875.5,-232.5 2875.5,-253.5 2978.5,-253.5 2978.5,-232.5 2875.5,-232.5"/>
<text text-anchor="middle" x="2927" y="-240.5" font-family="Helvetica,sans-Serif" font-size="10.00">tree/TDataRecord.h</text>
</a>
</g>
<!-- Node50&#45;&gt;Node51 -->
<g id="edge216" class="edge"><title>Node50&#45;&gt;Node51</title>
<path fill="none" stroke="midnightblue" d="M1579.84,-295.375C1594.16,-293.341 1610.83,-291.242 1626,-290 2159.12,-246.382 2295.44,-291.865 2829,-254 2840.81,-253.162 2853.39,-251.974 2865.46,-250.687"/>
<polygon fill="midnightblue" stroke="midnightblue" points="2865.89,-254.16 2875.45,-249.588 2865.13,-247.202 2865.89,-254.16"/>
</g>
<!-- Node51&#45;&gt;Node34 -->
<g id="edge250" class="edge"><title>Node51&#45;&gt;Node34</title>
<path fill="none" stroke="midnightblue" d="M2875.15,-234.063C2831.23,-225.925 2766.84,-212.651 2712,-196 2686.41,-188.231 2681.21,-182.916 2656,-174 2635.49,-166.746 2582.18,-150.128 2545.22,-138.729"/>
<polygon fill="midnightblue" stroke="midnightblue" points="2545.86,-135.264 2535.28,-135.665 2543.8,-141.954 2545.86,-135.264"/>
</g>
<!-- Node52 -->
<g id="node161" class="node"><title>Node52</title>
<a xlink:href="_t_i_d_8h.html" target="_top" xlink:title="TID.h">
<polygon fill="white" stroke="black" points="2783.5,-174.5 2783.5,-195.5 2824.5,-195.5 2824.5,-174.5 2783.5,-174.5"/>
<text text-anchor="middle" x="2804" y="-182.5" font-family="Helvetica,sans-Serif" font-size="10.00">TID.h</text>
</a>
</g>
<!-- Node51&#45;&gt;Node52 -->
<g id="edge218" class="edge"><title>Node51&#45;&gt;Node52</title>
<path fill="none" stroke="midnightblue" d="M2904.73,-232.497C2884.95,-223.169 2855.87,-209.461 2834.04,-199.166"/>
<polygon fill="midnightblue" stroke="midnightblue" points="2835.42,-195.944 2824.88,-194.845 2832.43,-202.276 2835.42,-195.944"/>
</g>
<!-- Node57 -->
<g id="node175" class="node"><title>Node57</title>
<polygon fill="white" stroke="#bfbfbf" points="2960.5,-58.5 2960.5,-79.5 3001.5,-79.5 3001.5,-58.5 2960.5,-58.5"/>
<text text-anchor="middle" x="2981" y="-66.5" font-family="Helvetica,sans-Serif" font-size="10.00">ctime</text>
</g>
<!-- Node51&#45;&gt;Node57 -->
<g id="edge254" class="edge"><title>Node51&#45;&gt;Node57</title>
<path fill="none" stroke="midnightblue" d="M2930.3,-232.377C2939.05,-204.172 2963,-127.012 2974.57,-89.7203"/>
<polygon fill="midnightblue" stroke="midnightblue" points="2977.99,-90.5158 2977.61,-79.9277 2971.3,-88.4409 2977.99,-90.5158"/>
</g>
<!-- Node59 -->
<g id="node182" class="node"><title>Node59</title>
<polygon fill="white" stroke="#bfbfbf" points="2553,-116.5 2553,-137.5 2603,-137.5 2603,-116.5 2553,-116.5"/>
<text text-anchor="middle" x="2578" y="-124.5" font-family="Helvetica,sans-Serif" font-size="10.00">iomanip</text>
</g>
<!-- Node51&#45;&gt;Node59 -->
<g id="edge252" class="edge"><title>Node51&#45;&gt;Node59</title>
<path fill="none" stroke="midnightblue" d="M2891.56,-232.447C2860.68,-223.155 2814.74,-209.1 2775,-196 2717.85,-177.163 2651.96,-153.734 2612.71,-139.594"/>
<polygon fill="midnightblue" stroke="midnightblue" points="2613.68,-136.224 2603.09,-136.122 2611.31,-142.809 2613.68,-136.224"/>
</g>
<!-- Node52&#45;&gt;Node3 -->
<g id="edge222" class="edge"><title>Node52&#45;&gt;Node3</title>
<path fill="none" stroke="midnightblue" d="M2804.09,-174.271C2803.58,-158.612 2800.05,-129.856 2782,-116 2744.32,-87.0768 2039.49,-73.216 1838.24,-69.8371"/>
<polygon fill="midnightblue" stroke="midnightblue" points="1838.26,-66.3371 1828.21,-69.6704 1838.15,-73.3362 1838.26,-66.3371"/>
</g>
<!-- Node52&#45;&gt;Node7 -->
<g id="edge242" class="edge"><title>Node52&#45;&gt;Node7</title>
<path fill="none" stroke="midnightblue" d="M2783.18,-178.145C2778.83,-176.747 2774.27,-175.306 2770,-174 2714.71,-157.1 2697.45,-162.322 2645,-138 2629.01,-130.584 2628.82,-121.278 2612,-116 2597.67,-111.504 601.786,-74.8008 318.334,-69.6096"/>
<polygon fill="midnightblue" stroke="midnightblue" points="318.319,-66.1088 308.257,-69.4251 318.191,-73.1077 318.319,-66.1088"/>
</g>
<!-- Node52&#45;&gt;Node8 -->
<g id="edge244" class="edge"><title>Node52&#45;&gt;Node8</title>
<path fill="none" stroke="midnightblue" d="M2783.15,-178.918C2764.44,-172.229 2738.13,-159.474 2726,-138 2714.1,-116.943 2737.2,-97.4756 2759.28,-84.6258"/>
<polygon fill="midnightblue" stroke="midnightblue" points="2761.16,-87.5832 2768.24,-79.7045 2757.79,-81.4462 2761.16,-87.5832"/>
</g>
<!-- Node52&#45;&gt;Node10 -->
<g id="edge238" class="edge"><title>Node52&#45;&gt;Node10</title>
<path fill="none" stroke="midnightblue" d="M2785.7,-174.262C2756.92,-158.025 2698.77,-127.864 2645,-116 2487.84,-81.3267 1357.85,-85.2047 1197,-80 1113.65,-77.303 1016.17,-73.194 962.229,-70.836"/>
<polygon fill="midnightblue" stroke="midnightblue" points="962.182,-67.3307 952.038,-70.3887 961.875,-74.3239 962.182,-67.3307"/>
</g>
<!-- Node52&#45;&gt;Node34 -->
<g id="edge220" class="edge"><title>Node52&#45;&gt;Node34</title>
<path fill="none" stroke="midnightblue" d="M2783.29,-177.736C2778.93,-176.368 2774.34,-175.042 2770,-174 2674.19,-151.016 2645,-159.932 2545.08,-138.012"/>
<polygon fill="midnightblue" stroke="midnightblue" points="2545.7,-134.566 2535.18,-135.792 2544.17,-141.396 2545.7,-134.566"/>
</g>
<!-- Node53 -->
<g id="node165" class="node"><title>Node53</title>
<a xlink:href="time_8h.html" target="_top" xlink:title="base/std_ext/time.h">
<polygon fill="white" stroke="black" points="3056.5,-116.5 3056.5,-137.5 3159.5,-137.5 3159.5,-116.5 3056.5,-116.5"/>
<text text-anchor="middle" x="3108" y="-124.5" font-family="Helvetica,sans-Serif" font-size="10.00">base/std_ext/time.h</text>
</a>
</g>
<!-- Node52&#45;&gt;Node53 -->
<g id="edge224" class="edge"><title>Node52&#45;&gt;Node53</title>
<path fill="none" stroke="midnightblue" d="M2824.75,-176.579C2827.5,-175.627 2830.3,-174.736 2833,-174 2905.04,-154.379 2990.04,-141.346 3046.26,-134.081"/>
<polygon fill="midnightblue" stroke="midnightblue" points="3046.94,-137.524 3056.42,-132.791 3046.06,-130.579 3046.94,-137.524"/>
</g>
<!-- Node52&#45;&gt;Node57 -->
<g id="edge248" class="edge"><title>Node52&#45;&gt;Node57</title>
<path fill="none" stroke="midnightblue" d="M2820.33,-174.295C2851.5,-153.871 2919.6,-109.238 2956.34,-85.1624"/>
<polygon fill="midnightblue" stroke="midnightblue" points="2958.52,-87.9205 2964.96,-79.5117 2954.68,-82.0657 2958.52,-87.9205"/>
</g>
<!-- Node58 -->
<g id="node178" class="node"><title>Node58</title>
<polygon fill="white" stroke="#bfbfbf" points="2735,-116.5 2735,-137.5 2773,-137.5 2773,-116.5 2735,-116.5"/>
<text text-anchor="middle" x="2754" y="-124.5" font-family="Helvetica,sans-Serif" font-size="10.00">tuple</text>
</g>
<!-- Node52&#45;&gt;Node58 -->
<g id="edge240" class="edge"><title>Node52&#45;&gt;Node58</title>
<path fill="none" stroke="midnightblue" d="M2794.83,-174.362C2787.85,-166.268 2778.08,-154.932 2769.84,-145.38"/>
<polygon fill="midnightblue" stroke="midnightblue" points="2772.29,-142.859 2763.11,-137.571 2766.99,-147.43 2772.29,-142.859"/>
</g>
<!-- Node52&#45;&gt;Node59 -->
<g id="edge246" class="edge"><title>Node52&#45;&gt;Node59</title>
<path fill="none" stroke="midnightblue" d="M2783.22,-177.981C2778.87,-176.595 2774.3,-175.2 2770,-174 2702.71,-155.233 2684.63,-155.486 2617,-138 2615.74,-137.673 2614.45,-137.336 2613.15,-136.991"/>
<polygon fill="midnightblue" stroke="midnightblue" points="2613.7,-133.513 2603.13,-134.263 2611.86,-140.267 2613.7,-133.513"/>
</g>
<!-- Node54 -->
<g id="node167" class="node"><title>Node54</title>
<a xlink:href="string_8h.html" target="_top" xlink:title="base/std_ext/string.h">
<polygon fill="white" stroke="black" points="3291,-58.5 3291,-79.5 3399,-79.5 3399,-58.5 3291,-58.5"/>
<text text-anchor="middle" x="3345" y="-66.5" font-family="Helvetica,sans-Serif" font-size="10.00">base/std_ext/string.h</text>
</a>
</g>
<!-- Node53&#45;&gt;Node54 -->
<g id="edge226" class="edge"><title>Node53&#45;&gt;Node54</title>
<path fill="none" stroke="midnightblue" d="M3150.92,-116.497C3190.56,-106.795 3249.57,-92.3547 3292.11,-81.9445"/>
<polygon fill="midnightblue" stroke="midnightblue" points="3293.12,-85.2999 3302,-79.5231 3291.46,-78.5006 3293.12,-85.2999"/>
</g>
<!-- Node56 -->
<g id="node173" class="node"><title>Node56</title>
<polygon fill="white" stroke="#bfbfbf" points="3085,-58.5 3085,-79.5 3131,-79.5 3131,-58.5 3085,-58.5"/>
<text text-anchor="middle" x="3108" y="-66.5" font-family="Helvetica,sans-Serif" font-size="10.00">cstring</text>
</g>
<!-- Node53&#45;&gt;Node56 -->
<g id="edge234" class="edge"><title>Node53&#45;&gt;Node56</title>
<path fill="none" stroke="midnightblue" d="M3108,-116.362C3108,-108.922 3108,-98.7427 3108,-89.7276"/>
<polygon fill="midnightblue" stroke="midnightblue" points="3111.5,-89.5706 3108,-79.5707 3104.5,-89.5707 3111.5,-89.5706"/>
</g>
<!-- Node53&#45;&gt;Node57 -->
<g id="edge236" class="edge"><title>Node53&#45;&gt;Node57</title>
<path fill="none" stroke="midnightblue" d="M3085,-116.497C3064.24,-107.013 3033.55,-93.0011 3010.89,-82.6521"/>
<polygon fill="midnightblue" stroke="midnightblue" points="3012.28,-79.4355 3001.73,-78.465 3009.37,-85.803 3012.28,-79.4355"/>
</g>
<!-- Node54&#45;&gt;Node9 -->
<g id="edge228" class="edge"><title>Node54&#45;&gt;Node9</title>
<path fill="none" stroke="midnightblue" d="M3290.88,-59.7268C3286.19,-59.0813 3281.52,-58.4926 3277,-58 2968.12,-24.3207 2591.46,-14.0002 2482.12,-11.61"/>
<polygon fill="midnightblue" stroke="midnightblue" points="2481.88,-8.10436 2471.81,-11.3912 2481.74,-15.1028 2481.88,-8.10436"/>
</g>
<!-- Node54&#45;&gt;Node28 -->
<g id="edge232" class="edge"><title>Node54&#45;&gt;Node28</title>
<path fill="none" stroke="midnightblue" d="M3338.4,-58.3619C3333.53,-50.5131 3326.76,-39.6159 3320.95,-30.2527"/>
<polygon fill="midnightblue" stroke="midnightblue" points="3323.81,-28.2213 3315.56,-21.5707 3317.86,-31.9129 3323.81,-28.2213"/>
</g>
<!-- Node55 -->
<g id="node170" class="node"><title>Node55</title>
<polygon fill="white" stroke="#bfbfbf" points="3355,-0.5 3355,-21.5 3407,-21.5 3407,-0.5 3355,-0.5"/>
<text text-anchor="middle" x="3381" y="-8.5" font-family="Helvetica,sans-Serif" font-size="10.00">sstream</text>
</g>
<!-- Node54&#45;&gt;Node55 -->
<g id="edge230" class="edge"><title>Node54&#45;&gt;Node55</title>
<path fill="none" stroke="midnightblue" d="M3351.6,-58.3619C3356.47,-50.5131 3363.24,-39.6159 3369.05,-30.2527"/>
<polygon fill="midnightblue" stroke="midnightblue" points="3372.14,-31.9129 3374.44,-21.5707 3366.19,-28.2213 3372.14,-31.9129"/>
</g>
<!-- Node60&#45;&gt;Node4 -->
<g id="edge274" class="edge"><title>Node60&#45;&gt;Node4</title>
<path fill="none" stroke="midnightblue" d="M213.149,-116.298C218.46,-100.396 230.849,-71.0096 253,-58 294.131,-33.8437 1022.86,-15.5678 1187.24,-11.7412"/>
<polygon fill="midnightblue" stroke="midnightblue" points="1187.75,-15.2306 1197.66,-11.5005 1187.58,-8.23244 1187.75,-15.2306"/>
</g>
<!-- Node60&#45;&gt;Node7 -->
<g id="edge276" class="edge"><title>Node60&#45;&gt;Node7</title>
<path fill="none" stroke="midnightblue" d="M223.756,-116.362C234.751,-107.859 250.373,-95.7785 263.086,-85.9466"/>
<polygon fill="midnightblue" stroke="midnightblue" points="265.562,-88.4569 271.331,-79.5707 261.279,-82.9195 265.562,-88.4569"/>
</g>
<!-- Node61&#45;&gt;Node9 -->
<g id="edge280" class="edge"><title>Node61&#45;&gt;Node9</title>
<path fill="none" stroke="midnightblue" d="M2211.94,-232.211C2236.86,-202.472 2309.97,-117.581 2381,-58 2394.49,-46.6875 2410.75,-35.6323 2424.2,-27.0888"/>
<polygon fill="midnightblue" stroke="midnightblue" points="2426.37,-29.8643 2433,-21.603 2422.66,-23.9245 2426.37,-29.8643"/>
</g>
<!-- Node61&#45;&gt;Node13 -->
<g id="edge282" class="edge"><title>Node61&#45;&gt;Node13</title>
<path fill="none" stroke="midnightblue" d="M2153.91,-233.773C2149.22,-233.089 2144.53,-232.481 2140,-232 1728.23,-188.29 1622.69,-214.11 1209,-196 1142.44,-193.086 1064.84,-189.18 1020.36,-186.892"/>
<polygon fill="midnightblue" stroke="midnightblue" points="1020.49,-183.394 1010.32,-186.374 1020.13,-190.385 1020.49,-183.394"/>
</g>
<!-- Node61&#45;&gt;Node21 -->
<g id="edge284" class="edge"><title>Node61&#45;&gt;Node21</title>
<path fill="none" stroke="midnightblue" d="M2189.98,-232.362C2179.57,-223.859 2164.78,-211.779 2152.74,-201.947"/>
<polygon fill="midnightblue" stroke="midnightblue" points="2154.9,-199.187 2144.94,-195.571 2150.47,-204.608 2154.9,-199.187"/>
</g>
<!-- Node62&#45;&gt;Node9 -->
<g id="edge308" class="edge"><title>Node62&#45;&gt;Node9</title>
<path fill="none" stroke="midnightblue" d="M3062.77,-356.167C3089.93,-348.602 3120.24,-335.302 3139,-312 3194.21,-243.401 3187.64,-201.842 3168,-116 3161.62,-88.0963 3163.71,-74.0341 3140,-58 3084.93,-20.7619 2608.14,-12.7698 2481.68,-11.2987"/>
<polygon fill="midnightblue" stroke="midnightblue" points="2481.57,-7.7974 2471.53,-11.1861 2481.5,-14.797 2481.57,-7.7974"/>
</g>
<!-- Node62&#45;&gt;Node18 -->
<g id="edge310" class="edge"><title>Node62&#45;&gt;Node18</title>
<path fill="none" stroke="midnightblue" d="M2984.12,-348.933C2945.86,-316.4 2862.78,-247.374 2829,-232 2755.93,-198.749 2729.6,-216.557 2652,-196 2621.7,-187.974 2615.88,-179.363 2585,-174 2289.32,-122.647 1534.85,-150.367 1235,-138 1173.28,-135.454 1100.75,-131.036 1063.28,-128.647"/>
<polygon fill="midnightblue" stroke="midnightblue" points="1063.02,-125.124 1052.82,-127.975 1062.58,-132.11 1063.02,-125.124"/>
</g>
<!-- Node62&#45;&gt;Node27 -->
<g id="edge300" class="edge"><title>Node62&#45;&gt;Node27</title>
<path fill="none" stroke="midnightblue" d="M3006.77,-348.837C3010.21,-321.309 3012.84,-266.848 2987,-232 2973.71,-214.077 2952.02,-202.847 2931.8,-195.88"/>
<polygon fill="midnightblue" stroke="midnightblue" points="2932.62,-192.47 2922.03,-192.793 2930.51,-199.144 2932.62,-192.47"/>
</g>
<!-- Node63 -->
<g id="node214" class="node"><title>Node63</title>
<a xlink:href="_t_header_info_8h.html" target="_top" xlink:title="tree/THeaderInfo.h">
<polygon fill="white" stroke="black" points="3032,-290.5 3032,-311.5 3130,-311.5 3130,-290.5 3032,-290.5"/>
<text text-anchor="middle" x="3081" y="-298.5" font-family="Helvetica,sans-Serif" font-size="10.00">tree/THeaderInfo.h</text>
</a>
</g>
<!-- Node62&#45;&gt;Node63 -->
<g id="edge302" class="edge"><title>Node62&#45;&gt;Node63</title>
<path fill="none" stroke="midnightblue" d="M3024.23,-348.922C3035.31,-339.57 3049.01,-328.001 3060.18,-318.572"/>
<polygon fill="midnightblue" stroke="midnightblue" points="3062.76,-320.977 3068.14,-311.852 3058.25,-315.628 3062.76,-320.977"/>
</g>
<!-- Node63&#45;&gt;Node51 -->
<g id="edge304" class="edge"><title>Node63&#45;&gt;Node51</title>
<path fill="none" stroke="midnightblue" d="M3053.11,-290.497C3028.33,-281.164 2991.9,-267.445 2964.56,-257.147"/>
<polygon fill="midnightblue" stroke="midnightblue" points="2965.53,-253.772 2954.94,-253.523 2963.07,-260.323 2965.53,-253.772"/>
</g>
<!-- Node63&#45;&gt;Node53 -->
<g id="edge306" class="edge"><title>Node63&#45;&gt;Node53</title>
<path fill="none" stroke="midnightblue" d="M3082.65,-290.377C3087.01,-262.293 3098.9,-185.673 3104.71,-148.203"/>
<polygon fill="midnightblue" stroke="midnightblue" points="3108.23,-148.346 3106.3,-137.928 3101.31,-147.273 3108.23,-148.346"/>
</g>
</g>
</svg>
