<?xml version="1.0" encoding="UTF-8" standalone="no"?>
<!DOCTYPE svg PUBLIC "-//W3C//DTD SVG 1.1//EN"
 "http://www.w3.org/Graphics/SVG/1.1/DTD/svg11.dtd">
<!-- Generated by graphviz version 2.26.3 (20100126.1600)
 -->
<!-- Title: src/unpacker/UnpackerA2Geant.h Pages: 1 -->
<svg width="3531pt" height="624pt"
 viewBox="0.00 0.00 3530.97 624.00" xmlns="http://www.w3.org/2000/svg" xmlns:xlink="http://www.w3.org/1999/xlink">
<g id="graph1" class="graph" transform="scale(1 1) rotate(0) translate(4 620)">
<title>src/unpacker/UnpackerA2Geant.h</title>
<polygon fill="white" stroke="white" points="-4,5 -4,-620 3527.97,-620 3527.97,5 -4,5"/>
<!-- Node1 -->
<g id="node1" class="node"><title>Node1</title>
<polygon fill="#bfbfbf" stroke="black" points="2893,-594.5 2893,-615.5 3057,-615.5 3057,-594.5 2893,-594.5"/>
<text text-anchor="middle" x="2975" y="-602.5" font-family="Helvetica,sans-Serif" font-size="10.00">src/unpacker/UnpackerA2Geant.h</text>
</g>
<!-- Node2 -->
<g id="node3" class="node"><title>Node2</title>
<a xlink:href="_unpacker_8h.html" target="_top" xlink:title="Unpacker.h">
<polygon fill="white" stroke="black" points="3223.5,-232.5 3223.5,-253.5 3290.5,-253.5 3290.5,-232.5 3223.5,-232.5"/>
<text text-anchor="middle" x="3257" y="-240.5" font-family="Helvetica,sans-Serif" font-size="10.00">Unpacker.h</text>
</a>
</g>
<!-- Node1&#45;&gt;Node2 -->
<g id="edge2" class="edge"><title>Node1&#45;&gt;Node2</title>
<path fill="none" stroke="midnightblue" d="M3057.18,-596.246C3115.02,-588.678 3186.18,-576.083 3210,-558 3237.39,-537.207 3245,-523.386 3245,-489 3245,-489 3245,-489 3245,-366 3245,-329.904 3250.18,-288.131 3253.74,-263.73"/>
<polygon fill="midnightblue" stroke="midnightblue" points="3257.2,-264.235 3255.23,-253.825 3250.28,-263.191 3257.2,-264.235"/>
</g>
<!-- Node4 -->
<g id="node7" class="node"><title>Node4</title>
<polygon fill="white" stroke="#bfbfbf" points="844,-174.5 844,-195.5 896,-195.5 896,-174.5 844,-174.5"/>
<text text-anchor="middle" x="870" y="-182.5" font-family="Helvetica,sans-Serif" font-size="10.00">memory</text>
</g>
<!-- Node1&#45;&gt;Node4 -->
<g id="edge322" class="edge"><title>Node1&#45;&gt;Node4</title>
<path fill="none" stroke="midnightblue" d="M2892.76,-604.658C2511.12,-602.889 922.075,-593.439 703,-558 600.584,-541.432 480,-592.747 480,-489 480,-489 480,-489 480,-366 480,-284.251 534.109,-270.917 606,-232 615.979,-226.598 763.918,-202.158 833.865,-190.815"/>
<polygon fill="midnightblue" stroke="midnightblue" points="834.678,-194.229 843.991,-189.177 833.56,-187.319 834.678,-194.229"/>
</g>
<!-- Node5 -->
<g id="node9" class="node"><title>Node5</title>
<a xlink:href="_exp_config_8h.html" target="_top" xlink:title="expconfig/ExpConfig.h">
<polygon fill="white" stroke="black" points="712,-536.5 712,-557.5 828,-557.5 828,-536.5 712,-536.5"/>
<text text-anchor="middle" x="770" y="-544.5" font-family="Helvetica,sans-Serif" font-size="10.00">expconfig/ExpConfig.h</text>
</a>
</g>
<!-- Node1&#45;&gt;Node5 -->
<g id="edge8" class="edge"><title>Node1&#45;&gt;Node5</title>
<path fill="none" stroke="midnightblue" d="M2892.92,-602.841C2540.87,-593.581 1161.96,-557.31 838.277,-548.796"/>
<polygon fill="midnightblue" stroke="midnightblue" points="838.196,-545.293 828.108,-548.528 838.012,-552.29 838.196,-545.293"/>
</g>
<!-- Node6 -->
<g id="node11" class="node"><title>Node6</title>
<a xlink:href="_detector__t_8h.html" target="_top" xlink:title="base/Detector_t.h">
<polygon fill="white" stroke="black" points="1363.5,-116.5 1363.5,-137.5 1458.5,-137.5 1458.5,-116.5 1363.5,-116.5"/>
<text text-anchor="middle" x="1411" y="-124.5" font-family="Helvetica,sans-Serif" font-size="10.00">base/Detector_t.h</text>
</a>
</g>
<!-- Node1&#45;&gt;Node6 -->
<g id="edge318" class="edge"><title>Node1&#45;&gt;Node6</title>
<path fill="none" stroke="midnightblue" d="M3057.29,-595.237C3120.13,-582.652 3196,-553.998 3196,-489 3196,-489 3196,-489 3196,-366 3196,-330.088 2970.24,-184.838 2936,-174 2784.37,-125.999 1663.65,-149.255 1505,-138 1493.34,-137.173 1480.9,-135.955 1469.01,-134.629"/>
<polygon fill="midnightblue" stroke="midnightblue" points="1469.08,-131.113 1458.74,-133.442 1468.27,-138.067 1469.08,-131.113"/>
</g>
<!-- Node8 -->
<g id="node15" class="node"><title>Node8</title>
<polygon fill="white" stroke="#bfbfbf" points="1583,-0.5 1583,-21.5 1627,-21.5 1627,-0.5 1583,-0.5"/>
<text text-anchor="middle" x="1605" y="-8.5" font-family="Helvetica,sans-Serif" font-size="10.00">vector</text>
</g>
<!-- Node1&#45;&gt;Node8 -->
<g id="edge328" class="edge"><title>Node1&#45;&gt;Node8</title>
<path fill="none" stroke="midnightblue" d="M2892.73,-604.771C2423.65,-603.332 105.547,-594.386 42,-558 10.8446,-540.161 0,-524.901 0,-489 0,-489 0,-489 0,-127 0,-64.7064 62.0167,-74.8078 122,-58 131.047,-55.4649 1356.67,-18.4738 1572.67,-11.9721"/>
<polygon fill="midnightblue" stroke="midnightblue" points="1572.85,-15.4685 1582.74,-11.6692 1572.64,-8.47167 1572.85,-15.4685"/>
</g>
<!-- Node11 -->
<g id="node21" class="node"><title>Node11</title>
<polygon fill="white" stroke="#bfbfbf" points="2180,-58.5 2180,-79.5 2226,-79.5 2226,-58.5 2180,-58.5"/>
<text text-anchor="middle" x="2203" y="-66.5" font-family="Helvetica,sans-Serif" font-size="10.00">cstdint</text>
</g>
<!-- Node1&#45;&gt;Node11 -->
<g id="edge330" class="edge"><title>Node1&#45;&gt;Node11</title>
<path fill="none" stroke="midnightblue" d="M3057.3,-602.039C3153.41,-597.342 3305.55,-585.687 3355,-558 3389.22,-538.84 3410,-528.217 3410,-489 3410,-489 3410,-489 3410,-185 3410,-58.6569 3357.9,-132.822 2367,-80 2321.62,-77.5808 2269.23,-73.9142 2236.11,-71.4887"/>
<polygon fill="midnightblue" stroke="midnightblue" points="2236.3,-67.9933 2226.07,-70.7479 2235.79,-74.9743 2236.3,-67.9933"/>
</g>
<!-- Node17 -->
<g id="node37" class="node"><title>Node17</title>
<polygon fill="white" stroke="#bfbfbf" points="718.5,-116.5 718.5,-137.5 747.5,-137.5 747.5,-116.5 718.5,-116.5"/>
<text text-anchor="middle" x="733" y="-124.5" font-family="Helvetica,sans-Serif" font-size="10.00">list</text>
</g>
<!-- Node1&#45;&gt;Node17 -->
<g id="edge324" class="edge"><title>Node1&#45;&gt;Node17</title>
<path fill="none" stroke="midnightblue" d="M2892.78,-604.899C2518.68,-604.213 974.772,-598.913 493,-558 289.199,-540.693 38,-693.534 38,-489 38,-489 38,-489 38,-243 38,-155.661 136.868,-193.507 222,-174 316.408,-152.368 619.072,-133.577 708.127,-128.406"/>
<polygon fill="midnightblue" stroke="midnightblue" points="708.343,-131.899 718.125,-127.831 707.94,-124.911 708.343,-131.899"/>
</g>
<!-- Node20 -->
<g id="node48" class="node"><title>Node20</title>
<polygon fill="white" stroke="#bfbfbf" points="2087.5,-174.5 2087.5,-195.5 2122.5,-195.5 2122.5,-174.5 2087.5,-174.5"/>
<text text-anchor="middle" x="2105" y="-182.5" font-family="Helvetica,sans-Serif" font-size="10.00">map</text>
</g>
<!-- Node1&#45;&gt;Node20 -->
<g id="edge326" class="edge"><title>Node1&#45;&gt;Node20</title>
<path fill="none" stroke="midnightblue" d="M2965.38,-594.246C2918.84,-543.058 2710.32,-322.828 2488,-232 2423.42,-205.617 2210.45,-191.055 2133.26,-186.541"/>
<polygon fill="midnightblue" stroke="midnightblue" points="2133.07,-183.025 2122.89,-185.948 2132.67,-190.014 2133.07,-183.025"/>
</g>
<!-- Node29 -->
<g id="node71" class="node"><title>Node29</title>
<polygon fill="white" stroke="#bfbfbf" points="3228,-116.5 3228,-137.5 3268,-137.5 3268,-116.5 3228,-116.5"/>
<text text-anchor="middle" x="3248" y="-124.5" font-family="Helvetica,sans-Serif" font-size="10.00">limits</text>
</g>
<!-- Node1&#45;&gt;Node29 -->
<g id="edge332" class="edge"><title>Node1&#45;&gt;Node29</title>
<path fill="none" stroke="midnightblue" d="M3057.06,-598.731C3155.82,-590.491 3311.07,-575.049 3332,-558 3357.18,-537.496 3356,-521.469 3356,-489 3356,-489 3356,-489 3356,-301 3356,-235.398 3299.9,-173.972 3268.56,-144.781"/>
<polygon fill="midnightblue" stroke="midnightblue" points="3270.57,-141.877 3260.81,-137.747 3265.87,-147.06 3270.57,-141.877"/>
</g>
<!-- Node33 -->
<g id="node85" class="node"><title>Node33</title>
<polygon fill="white" stroke="#bfbfbf" points="2510,-116.5 2510,-137.5 2566,-137.5 2566,-116.5 2510,-116.5"/>
<text text-anchor="middle" x="2538" y="-124.5" font-family="Helvetica,sans-Serif" font-size="10.00">Rtypes.h</text>
</g>
<!-- Node1&#45;&gt;Node33 -->
<g id="edge320" class="edge"><title>Node1&#45;&gt;Node33</title>
<path fill="none" stroke="midnightblue" d="M3057.06,-594.798C3121.03,-585.991 3204.03,-572.438 3235,-558 3278.48,-537.732 3318,-536.971 3318,-489 3318,-489 3318,-489 3318,-301 3318,-269.192 3322.98,-252.898 3299,-232 3253.03,-191.941 3085.21,-214.149 3027,-196 3006.51,-189.61 3004.63,-179.931 2984,-174 2810.12,-124.014 2753.46,-173.534 2576.23,-138.909"/>
<polygon fill="midnightblue" stroke="midnightblue" points="2576.82,-135.457 2566.32,-136.911 2575.44,-142.319 2576.82,-135.457"/>
</g>
<!-- Node3 -->
<g id="node5" class="node"><title>Node3</title>
<polygon fill="white" stroke="#bfbfbf" points="3103.5,-0.5 3103.5,-21.5 3144.5,-21.5 3144.5,-0.5 3103.5,-0.5"/>
<text text-anchor="middle" x="3124" y="-8.5" font-family="Helvetica,sans-Serif" font-size="10.00">string</text>
</g>
<!-- Node2&#45;&gt;Node3 -->
<g id="edge4" class="edge"><title>Node2&#45;&gt;Node3</title>
<path fill="none" stroke="midnightblue" d="M3290.86,-235.016C3311.25,-228.274 3335.61,-216.35 3348,-196 3379.9,-143.617 3386.66,-105.614 3348,-58 3324,-28.4404 3210.39,-16.7983 3154.8,-12.813"/>
<polygon fill="midnightblue" stroke="midnightblue" points="3155.02,-9.32045 3144.81,-12.1352 3154.55,-16.3044 3155.02,-9.32045"/>
</g>
<!-- Node2&#45;&gt;Node4 -->
<g id="edge6" class="edge"><title>Node2&#45;&gt;Node4</title>
<path fill="none" stroke="midnightblue" d="M3223.12,-241.798C3161.16,-239.628 3025.45,-235.003 2911,-232 2137.77,-211.71 1944.18,-218.125 1171,-196 1075.49,-193.267 962.976,-188.831 906.39,-186.516"/>
<polygon fill="midnightblue" stroke="midnightblue" points="906.301,-183.009 896.166,-186.096 906.014,-190.004 906.301,-183.009"/>
</g>
<!-- Node5&#45;&gt;Node4 -->
<g id="edge312" class="edge"><title>Node5&#45;&gt;Node4</title>
<path fill="none" stroke="midnightblue" d="M757.409,-536.422C708.526,-494.125 538.154,-334.513 623,-232 626.367,-227.932 765.852,-203.146 833.69,-191.298"/>
<polygon fill="midnightblue" stroke="midnightblue" points="834.293,-194.745 843.543,-189.58 833.091,-187.849 834.293,-194.745"/>
</g>
<!-- Node5&#45;&gt;Node6 -->
<g id="edge10" class="edge"><title>Node5&#45;&gt;Node6</title>
<path fill="none" stroke="midnightblue" d="M828.113,-545.975C1063.38,-541.692 1945.82,-524.316 2224,-500 2586.73,-468.293 2796.46,-659.091 3035,-384 3107.22,-300.712 3001.37,-223.764 2903,-174 2833.67,-138.929 1582.5,-143.521 1505,-138 1493.34,-137.169 1480.9,-135.95 1469.01,-134.624"/>
<polygon fill="midnightblue" stroke="midnightblue" points="1469.08,-131.108 1458.74,-133.437 1468.27,-138.062 1469.08,-131.108"/>
</g>
<!-- Node7 -->
<g id="node13" class="node"><title>Node7</title>
<a xlink:href="printable_8h.html" target="_top" xlink:title="base/printable.h">
<polygon fill="white" stroke="black" points="1155,-58.5 1155,-79.5 1241,-79.5 1241,-58.5 1155,-58.5"/>
<text text-anchor="middle" x="1198" y="-66.5" font-family="Helvetica,sans-Serif" font-size="10.00">base/printable.h</text>
</a>
</g>
<!-- Node5&#45;&gt;Node7 -->
<g id="edge310" class="edge"><title>Node5&#45;&gt;Node7</title>
<path fill="none" stroke="midnightblue" d="M711.726,-543.382C544.671,-532.238 76,-495.247 76,-431 76,-431 76,-431 76,-243 76,-133.489 921.453,-82.9885 1144.56,-71.5687"/>
<polygon fill="midnightblue" stroke="midnightblue" points="1144.89,-75.0561 1154.7,-71.0543 1144.54,-68.0651 1144.89,-75.0561"/>
</g>
<!-- Node14 -->
<g id="node29" class="node"><title>Node14</title>
<a xlink:href="_reconstruct__traits_8h.html" target="_top" xlink:title="reconstruct/Reconstruct\l_traits.h">
<polygon fill="white" stroke="black" points="665,-349 665,-383 787,-383 787,-349 665,-349"/>
<text text-anchor="start" x="673" y="-370" font-family="Helvetica,sans-Serif" font-size="10.00">reconstruct/Reconstruct</text>
<text text-anchor="middle" x="726" y="-357" font-family="Helvetica,sans-Serif" font-size="10.00">_traits.h</text>
</a>
</g>
<!-- Node5&#45;&gt;Node14 -->
<g id="edge30" class="edge"><title>Node5&#45;&gt;Node14</title>
<path fill="none" stroke="midnightblue" d="M762.899,-536.279C757.138,-527.052 749.293,-513.182 745,-500 733.373,-464.301 728.858,-420.961 727.107,-393.427"/>
<polygon fill="midnightblue" stroke="midnightblue" points="730.597,-393.142 726.546,-383.352 723.608,-393.532 730.597,-393.142"/>
</g>
<!-- Node5&#45;&gt;Node17 -->
<g id="edge314" class="edge"><title>Node5&#45;&gt;Node17</title>
<path fill="none" stroke="midnightblue" d="M711.998,-539.858C533.519,-515.627 13.8449,-426.959 171,-232 239.828,-146.615 608.599,-130.402 708.195,-127.564"/>
<polygon fill="midnightblue" stroke="midnightblue" points="708.574,-131.055 718.478,-127.292 708.389,-124.057 708.574,-131.055"/>
</g>
<!-- Node5&#45;&gt;Node20 -->
<g id="edge316" class="edge"><title>Node5&#45;&gt;Node20</title>
<path fill="none" stroke="midnightblue" d="M828.01,-546.176C1127.41,-541.551 2484,-515.908 2484,-431 2484,-431 2484,-431 2484,-301 2484,-269.192 2489,-252.877 2465,-232 2440.02,-210.269 2213.53,-192.548 2133.14,-186.894"/>
<polygon fill="midnightblue" stroke="midnightblue" points="2133.02,-183.377 2122.8,-186.177 2132.54,-190.361 2133.02,-183.377"/>
</g>
<!-- Node21 -->
<g id="node51" class="node"><title>Node21</title>
<a xlink:href="_calibration_8h.html" target="_top" xlink:title="calibration/Calibration.h">
<polygon fill="white" stroke="black" points="753.5,-478.5 753.5,-499.5 872.5,-499.5 872.5,-478.5 753.5,-478.5"/>
<text text-anchor="middle" x="813" y="-486.5" font-family="Helvetica,sans-Serif" font-size="10.00">calibration/Calibration.h</text>
</a>
</g>
<!-- Node5&#45;&gt;Node21 -->
<g id="edge60" class="edge"><title>Node5&#45;&gt;Node21</title>
<path fill="none" stroke="midnightblue" d="M777.887,-536.362C783.827,-528.35 792.122,-517.161 799.159,-507.67"/>
<polygon fill="midnightblue" stroke="midnightblue" points="802.019,-509.688 805.163,-499.571 796.396,-505.519 802.019,-509.688"/>
</g>
<!-- Node6&#45;&gt;Node3 -->
<g id="edge24" class="edge"><title>Node6&#45;&gt;Node3</title>
<path fill="none" stroke="midnightblue" d="M1458.7,-118.294C1543.66,-103.177 1726.93,-72.3216 1883,-58 2128.54,-35.4682 2925.99,-15.6799 3093.11,-11.7194"/>
<polygon fill="midnightblue" stroke="midnightblue" points="3093.28,-15.2165 3103.19,-11.4816 3093.11,-8.21844 3093.28,-15.2165"/>
</g>
<!-- Node6&#45;&gt;Node7 -->
<g id="edge12" class="edge"><title>Node6&#45;&gt;Node7</title>
<path fill="none" stroke="midnightblue" d="M1372.43,-116.497C1337.1,-106.877 1284.66,-92.5981 1246.51,-82.209"/>
<polygon fill="midnightblue" stroke="midnightblue" points="1247.21,-78.7734 1236.65,-79.5231 1245.37,-85.5275 1247.21,-78.7734"/>
</g>
<!-- Node6&#45;&gt;Node8 -->
<g id="edge28" class="edge"><title>Node6&#45;&gt;Node8</title>
<path fill="none" stroke="midnightblue" d="M1428.9,-116.295C1463.28,-95.7414 1538.66,-50.6698 1578.73,-26.7059"/>
<polygon fill="midnightblue" stroke="midnightblue" points="1580.63,-29.6476 1587.42,-21.5117 1577.04,-23.6397 1580.63,-29.6476"/>
</g>
<!-- Node10 -->
<g id="node19" class="node"><title>Node10</title>
<polygon fill="white" stroke="#bfbfbf" points="1300.5,-58.5 1300.5,-79.5 1365.5,-79.5 1365.5,-58.5 1300.5,-58.5"/>
<text text-anchor="middle" x="1333" y="-66.5" font-family="Helvetica,sans-Serif" font-size="10.00">TVector3.h</text>
</g>
<!-- Node6&#45;&gt;Node10 -->
<g id="edge18" class="edge"><title>Node6&#45;&gt;Node10</title>
<path fill="none" stroke="midnightblue" d="M1396.69,-116.362C1385.15,-107.777 1368.7,-95.5459 1355.41,-85.6636"/>
<polygon fill="midnightblue" stroke="midnightblue" points="1357.33,-82.7291 1347.22,-79.5707 1353.15,-88.3463 1357.33,-82.7291"/>
</g>
<!-- Node6&#45;&gt;Node11 -->
<g id="edge20" class="edge"><title>Node6&#45;&gt;Node11</title>
<path fill="none" stroke="midnightblue" d="M1458.77,-120.948C1473.57,-119.197 1489.95,-117.387 1505,-116 1760.26,-92.4848 2069.07,-75.797 2169.62,-70.6627"/>
<polygon fill="midnightblue" stroke="midnightblue" points="2169.96,-74.15 2179.77,-70.1477 2169.61,-67.159 2169.96,-74.15"/>
</g>
<!-- Node12 -->
<g id="node23" class="node"><title>Node12</title>
<polygon fill="white" stroke="#bfbfbf" points="2375.5,-58.5 2375.5,-79.5 2434.5,-79.5 2434.5,-58.5 2375.5,-58.5"/>
<text text-anchor="middle" x="2405" y="-66.5" font-family="Helvetica,sans-Serif" font-size="10.00">stdexcept</text>
</g>
<!-- Node6&#45;&gt;Node12 -->
<g id="edge22" class="edge"><title>Node6&#45;&gt;Node12</title>
<path fill="none" stroke="midnightblue" d="M1458.76,-120.782C1473.56,-119.024 1489.94,-117.251 1505,-116 1828.72,-89.1071 1910.69,-98.4881 2235,-80 2279.55,-77.4601 2330.65,-74.0928 2365.09,-71.7558"/>
<polygon fill="midnightblue" stroke="midnightblue" points="2365.48,-75.2374 2375.22,-71.0657 2365.01,-68.2536 2365.48,-75.2374"/>
</g>
<!-- Node13 -->
<g id="node26" class="node"><title>Node13</title>
<polygon fill="white" stroke="#bfbfbf" points="1383,-58.5 1383,-79.5 1445,-79.5 1445,-58.5 1383,-58.5"/>
<text text-anchor="middle" x="1414" y="-66.5" font-family="Helvetica,sans-Serif" font-size="10.00">type_traits</text>
</g>
<!-- Node6&#45;&gt;Node13 -->
<g id="edge26" class="edge"><title>Node6&#45;&gt;Node13</title>
<path fill="none" stroke="midnightblue" d="M1411.55,-116.362C1411.94,-108.922 1412.46,-98.7427 1412.93,-89.7276"/>
<polygon fill="midnightblue" stroke="midnightblue" points="1416.43,-89.7381 1413.45,-79.5707 1409.44,-89.3765 1416.43,-89.7381"/>
</g>
<!-- Node7&#45;&gt;Node8 -->
<g id="edge14" class="edge"><title>Node7&#45;&gt;Node8</title>
<path fill="none" stroke="midnightblue" d="M1241.17,-62.8479C1323.26,-51.1493 1500.15,-25.9416 1572.83,-15.585"/>
<polygon fill="midnightblue" stroke="midnightblue" points="1573.36,-19.044 1582.77,-14.1682 1572.37,-12.1141 1573.36,-19.044"/>
</g>
<!-- Node9 -->
<g id="node17" class="node"><title>Node9</title>
<polygon fill="white" stroke="#bfbfbf" points="1172,-0.5 1172,-21.5 1224,-21.5 1224,-0.5 1172,-0.5"/>
<text text-anchor="middle" x="1198" y="-8.5" font-family="Helvetica,sans-Serif" font-size="10.00">ostream</text>
</g>
<!-- Node7&#45;&gt;Node9 -->
<g id="edge16" class="edge"><title>Node7&#45;&gt;Node9</title>
<path fill="none" stroke="midnightblue" d="M1198,-58.3619C1198,-50.9219 1198,-40.7427 1198,-31.7276"/>
<polygon fill="midnightblue" stroke="midnightblue" points="1201.5,-31.5706 1198,-21.5707 1194.5,-31.5707 1201.5,-31.5706"/>
</g>
<!-- Node14&#45;&gt;Node4 -->
<g id="edge54" class="edge"><title>Node14&#45;&gt;Node4</title>
<path fill="none" stroke="midnightblue" d="M786.644,-348.883C831.969,-332.55 890.774,-303.014 919,-254 929.775,-235.29 912.033,-215.323 894.963,-201.709"/>
<polygon fill="midnightblue" stroke="midnightblue" points="896.868,-198.762 886.765,-195.568 892.671,-204.365 896.868,-198.762"/>
</g>
<!-- Node14&#45;&gt;Node6 -->
<g id="edge32" class="edge"><title>Node14&#45;&gt;Node6</title>
<path fill="none" stroke="midnightblue" d="M665.561,-348.929C594.909,-327.608 484.598,-289.593 461,-254 455.597,-245.851 455.445,-240.047 461,-232 481.658,-202.077 578.424,-181.516 614,-174 903.595,-112.815 983.708,-158.292 1279,-138 1303.38,-136.325 1330.27,-134.144 1353.38,-132.167"/>
<polygon fill="midnightblue" stroke="midnightblue" points="1353.71,-135.652 1363.37,-131.305 1353.1,-128.678 1353.71,-135.652"/>
</g>
<!-- Node15 -->
<g id="node32" class="node"><title>Node15</title>
<a xlink:href="_memory_pool_8h.html" target="_top" xlink:title="tree/MemoryPool.h">
<polygon fill="white" stroke="black" points="676.5,-290.5 676.5,-311.5 775.5,-311.5 775.5,-290.5 676.5,-290.5"/>
<text text-anchor="middle" x="726" y="-298.5" font-family="Helvetica,sans-Serif" font-size="10.00">tree/MemoryPool.h</text>
</a>
</g>
<!-- Node14&#45;&gt;Node15 -->
<g id="edge34" class="edge"><title>Node14&#45;&gt;Node15</title>
<path fill="none" stroke="midnightblue" d="M726,-348.922C726,-340.67 726,-330.692 726,-321.982"/>
<polygon fill="midnightblue" stroke="midnightblue" points="729.5,-321.852 726,-311.852 722.5,-321.852 729.5,-321.852"/>
</g>
<!-- Node14&#45;&gt;Node17 -->
<g id="edge58" class="edge"><title>Node14&#45;&gt;Node17</title>
<path fill="none" stroke="midnightblue" d="M664.874,-351.784C601.746,-337.003 511.395,-315.529 504,-312 459.739,-290.879 399.611,-271.99 428,-232 461.701,-184.526 641.86,-144.903 708.337,-131.695"/>
<polygon fill="midnightblue" stroke="midnightblue" points="709.195,-135.094 718.337,-129.738 707.851,-128.224 709.195,-135.094"/>
</g>
<!-- Node19 -->
<g id="node42" class="node"><title>Node19</title>
<a xlink:href="mapped__vectors_8h.html" target="_top" xlink:title="base/mapped_vectors.h">
<polygon fill="white" stroke="black" points="179.5,-232.5 179.5,-253.5 300.5,-253.5 300.5,-232.5 179.5,-232.5"/>
<text text-anchor="middle" x="240" y="-240.5" font-family="Helvetica,sans-Serif" font-size="10.00">base/mapped_vectors.h</text>
</a>
</g>
<!-- Node14&#45;&gt;Node19 -->
<g id="edge46" class="edge"><title>Node14&#45;&gt;Node19</title>
<path fill="none" stroke="midnightblue" d="M664.681,-356.585C571.348,-342.192 403.019,-315.959 390,-312 345.457,-298.453 297.054,-274.321 267.62,-258.488"/>
<polygon fill="midnightblue" stroke="midnightblue" points="269.215,-255.372 258.759,-253.664 265.868,-261.519 269.215,-255.372"/>
</g>
<!-- Node14&#45;&gt;Node20 -->
<g id="edge56" class="edge"><title>Node14&#45;&gt;Node20</title>
<path fill="none" stroke="midnightblue" d="M787.064,-363.288C1029.91,-352.164 1919.53,-308.046 2033,-254 2057,-242.567 2078.12,-220.023 2091.17,-203.811"/>
<polygon fill="midnightblue" stroke="midnightblue" points="2094.2,-205.615 2097.56,-195.567 2088.67,-201.326 2094.2,-205.615"/>
</g>
<!-- Node15&#45;&gt;Node4 -->
<g id="edge42" class="edge"><title>Node15&#45;&gt;Node4</title>
<path fill="none" stroke="midnightblue" d="M733.03,-290.083C742.853,-275.464 761.871,-249.361 783,-232 798.634,-219.154 818.314,-208.174 835.001,-200.064"/>
<polygon fill="midnightblue" stroke="midnightblue" points="836.868,-203.054 844.426,-195.629 833.888,-196.72 836.868,-203.054"/>
</g>
<!-- Node16 -->
<g id="node34" class="node"><title>Node16</title>
<a xlink:href="memory_8h.html" target="_top" xlink:title="base/std_ext/memory.h">
<polygon fill="white" stroke="black" points="791.5,-232.5 791.5,-253.5 910.5,-253.5 910.5,-232.5 791.5,-232.5"/>
<text text-anchor="middle" x="851" y="-240.5" font-family="Helvetica,sans-Serif" font-size="10.00">base/std_ext/memory.h</text>
</a>
</g>
<!-- Node15&#45;&gt;Node16 -->
<g id="edge36" class="edge"><title>Node15&#45;&gt;Node16</title>
<path fill="none" stroke="midnightblue" d="M748.637,-290.497C768.248,-281.397 796.846,-268.127 818.833,-257.925"/>
<polygon fill="midnightblue" stroke="midnightblue" points="820.512,-261.005 828.109,-253.621 817.565,-254.655 820.512,-261.005"/>
</g>
<!-- Node18 -->
<g id="node40" class="node"><title>Node18</title>
<polygon fill="white" stroke="#bfbfbf" points="631.5,-232.5 631.5,-253.5 698.5,-253.5 698.5,-232.5 631.5,-232.5"/>
<text text-anchor="middle" x="665" y="-240.5" font-family="Helvetica,sans-Serif" font-size="10.00">forward_list</text>
</g>
<!-- Node15&#45;&gt;Node18 -->
<g id="edge44" class="edge"><title>Node15&#45;&gt;Node18</title>
<path fill="none" stroke="midnightblue" d="M714.812,-290.362C706.041,-282.023 693.651,-270.242 683.422,-260.516"/>
<polygon fill="midnightblue" stroke="midnightblue" points="685.776,-257.925 676.117,-253.571 680.953,-262.998 685.776,-257.925"/>
</g>
<!-- Node16&#45;&gt;Node4 -->
<g id="edge38" class="edge"><title>Node16&#45;&gt;Node4</title>
<path fill="none" stroke="midnightblue" d="M854.485,-232.362C856.976,-224.758 860.404,-214.294 863.404,-205.135"/>
<polygon fill="midnightblue" stroke="midnightblue" points="866.75,-206.163 866.537,-195.571 860.098,-203.984 866.75,-206.163"/>
</g>
<!-- Node16&#45;&gt;Node17 -->
<g id="edge40" class="edge"><title>Node16&#45;&gt;Node17</title>
<path fill="none" stroke="midnightblue" d="M791.4,-233.13C751.199,-225.117 703.318,-212.456 691,-196 678.548,-179.365 694.581,-158.871 710.296,-144.558"/>
<polygon fill="midnightblue" stroke="midnightblue" points="713.004,-146.848 718.332,-137.69 708.456,-141.526 713.004,-146.848"/>
</g>
<!-- Node19&#45;&gt;Node4 -->
<g id="edge50" class="edge"><title>Node19&#45;&gt;Node4</title>
<path fill="none" stroke="midnightblue" d="M300.753,-239.399C403.854,-232.955 619.564,-218.031 801,-196 811.657,-194.706 823.192,-192.992 833.724,-191.303"/>
<polygon fill="midnightblue" stroke="midnightblue" points="834.552,-194.714 843.853,-189.639 833.417,-187.807 834.552,-194.714"/>
</g>
<!-- Node19&#45;&gt;Node8 -->
<g id="edge48" class="edge"><title>Node19&#45;&gt;Node8</title>
<path fill="none" stroke="midnightblue" d="M232.418,-232.165C216.479,-207.954 183.393,-149.004 214,-116 261.827,-64.4271 1368.63,-19.9778 1572.78,-12.203"/>
<polygon fill="midnightblue" stroke="midnightblue" points="1573,-15.6973 1582.86,-11.8211 1572.74,-8.70233 1573,-15.6973"/>
</g>
<!-- Node19&#45;&gt;Node13 -->
<g id="edge52" class="edge"><title>Node19&#45;&gt;Node13</title>
<path fill="none" stroke="midnightblue" d="M255.508,-232.258C278.526,-216.851 323.589,-188.718 366,-174 787.962,-27.5678 927.845,-150.419 1372.8,-79.8834"/>
<polygon fill="midnightblue" stroke="midnightblue" points="1373.38,-83.3348 1382.7,-78.2903 1372.27,-76.4237 1373.38,-83.3348"/>
</g>
<!-- Node21&#45;&gt;Node8 -->
<g id="edge308" class="edge"><title>Node21&#45;&gt;Node8</title>
<path fill="none" stroke="midnightblue" d="M753.404,-481.111C584.366,-457.082 114,-378.083 114,-243 114,-243 114,-243 114,-127 114,6.78442 274.437,-76.0388 407,-58 525.238,-41.9105 1392.92,-16.9333 1572.52,-11.9011"/>
<polygon fill="midnightblue" stroke="midnightblue" points="1572.75,-15.396 1582.65,-11.6179 1572.56,-8.39872 1572.75,-15.396"/>
</g>
<!-- Node21&#45;&gt;Node14 -->
<g id="edge292" class="edge"><title>Node21&#45;&gt;Node14</title>
<path fill="none" stroke="midnightblue" d="M805.279,-478.085C791.679,-458.857 763.109,-418.464 744.24,-391.788"/>
<polygon fill="midnightblue" stroke="midnightblue" points="746.881,-389.46 738.249,-383.317 741.166,-393.503 746.881,-389.46"/>
</g>
<!-- Node22 -->
<g id="node53" class="node"><title>Node22</title>
<a xlink:href="_physics_8h.html" target="_top" xlink:title="analysis/physics/Physics.h">
<polygon fill="white" stroke="black" points="2002,-420.5 2002,-441.5 2138,-441.5 2138,-420.5 2002,-420.5"/>
<text text-anchor="middle" x="2070" y="-428.5" font-family="Helvetica,sans-Serif" font-size="10.00">analysis/physics/Physics.h</text>
</a>
</g>
<!-- Node21&#45;&gt;Node22 -->
<g id="edge62" class="edge"><title>Node21&#45;&gt;Node22</title>
<path fill="none" stroke="midnightblue" d="M872.782,-486.242C1078.91,-476.731 1759.99,-445.304 1991.89,-434.604"/>
<polygon fill="midnightblue" stroke="midnightblue" points="1992.1,-438.098 2001.93,-434.141 1991.78,-431.106 1992.1,-438.098"/>
</g>
<!-- Node61 -->
<g id="node208" class="node"><title>Node61</title>
<a xlink:href="_manager__traits_8h.html" target="_top" xlink:title="calibration/gui/Manager\l_traits.h">
<polygon fill="white" stroke="black" points="2909.5,-349 2909.5,-383 3026.5,-383 3026.5,-349 2909.5,-349"/>
<text text-anchor="start" x="2917.5" y="-370" font-family="Helvetica,sans-Serif" font-size="10.00">calibration/gui/Manager</text>
<text text-anchor="middle" x="2968" y="-357" font-family="Helvetica,sans-Serif" font-size="10.00">_traits.h</text>
</a>
</g>
<!-- Node21&#45;&gt;Node61 -->
<g id="edge294" class="edge"><title>Node21&#45;&gt;Node61</title>
<path fill="none" stroke="midnightblue" d="M872.561,-488.113C1060.12,-485.062 1655.26,-473.397 2147,-442 2426.43,-424.159 2758.16,-389.211 2899.13,-373.715"/>
<polygon fill="midnightblue" stroke="midnightblue" points="2899.8,-377.163 2909.35,-372.589 2899.03,-370.205 2899.8,-377.163"/>
</g>
<!-- Node22&#45;&gt;Node3 -->
<g id="edge284" class="edge"><title>Node22&#45;&gt;Node3</title>
<path fill="none" stroke="midnightblue" d="M2138.03,-430.202C2344.06,-427.437 2952.23,-416.577 3035,-384 3132.43,-345.652 3134.48,-298.932 3215,-232 3234.43,-215.849 3242.7,-215.306 3259,-196 3278.13,-173.339 3284.41,-166.672 3292,-138 3301.67,-101.438 3291.52,-82.841 3263,-58 3232.24,-31.2083 3185.58,-19.5444 3154.95,-14.5656"/>
<polygon fill="midnightblue" stroke="midnightblue" points="3155.23,-11.0702 3144.83,-13.0695 3154.21,-17.9949 3155.23,-11.0702"/>
</g>
<!-- Node22&#45;&gt;Node4 -->
<g id="edge288" class="edge"><title>Node22&#45;&gt;Node4</title>
<path fill="none" stroke="midnightblue" d="M2001.82,-429.286C1841.5,-424.85 1444.3,-411.374 1314,-384 1223.18,-364.921 1203.88,-347.175 1118,-312 1060.2,-288.327 1045.58,-282.488 990,-254 956.96,-237.065 920.095,-215.441 896.055,-200.955"/>
<polygon fill="midnightblue" stroke="midnightblue" points="897.565,-197.777 887.198,-195.591 893.938,-203.765 897.565,-197.777"/>
</g>
<!-- Node22&#45;&gt;Node17 -->
<g id="edge282" class="edge"><title>Node22&#45;&gt;Node17</title>
<path fill="none" stroke="midnightblue" d="M2001.99,-429.876C1728.43,-425.207 720.042,-406.536 656,-384 630.845,-375.148 632.174,-359.258 608,-348 543.889,-318.142 510.487,-353.193 453,-312 421.307,-289.29 401.339,-267.706 417,-232 432.287,-197.146 445.963,-191.029 480,-174 520.079,-153.949 652.724,-136.459 708.234,-129.831"/>
<polygon fill="midnightblue" stroke="midnightblue" points="708.734,-133.297 718.257,-128.653 707.917,-126.345 708.734,-133.297"/>
</g>
<!-- Node22&#45;&gt;Node20 -->
<g id="edge286" class="edge"><title>Node22&#45;&gt;Node20</title>
<path fill="none" stroke="midnightblue" d="M2073.6,-420.396C2082.64,-393.173 2106.11,-318.431 2114,-254 2115.99,-237.726 2113.34,-219.314 2110.41,-205.605"/>
<polygon fill="midnightblue" stroke="midnightblue" points="2113.79,-204.678 2108.09,-195.75 2106.98,-206.287 2113.79,-204.678"/>
</g>
<!-- Node23 -->
<g id="node55" class="node"><title>Node23</title>
<a xlink:href="_histogram_factories_8h.html" target="_top" xlink:title="analysis/plot/HistogramFactories.h">
<polygon fill="white" stroke="black" points="2288,-355.5 2288,-376.5 2456,-376.5 2456,-355.5 2288,-355.5"/>
<text text-anchor="middle" x="2372" y="-363.5" font-family="Helvetica,sans-Serif" font-size="10.00">analysis/plot/HistogramFactories.h</text>
</a>
</g>
<!-- Node22&#45;&gt;Node23 -->
<g id="edge64" class="edge"><title>Node22&#45;&gt;Node23</title>
<path fill="none" stroke="midnightblue" d="M2118.86,-420.484C2171.93,-409.062 2256.69,-390.818 2313.33,-378.628"/>
<polygon fill="midnightblue" stroke="midnightblue" points="2314.17,-382.026 2323.21,-376.501 2312.7,-375.183 2314.17,-382.026"/>
</g>
<!-- Node32 -->
<g id="node83" class="node"><title>Node32</title>
<polygon fill="white" stroke="#bfbfbf" points="2697.5,-174.5 2697.5,-195.5 2756.5,-195.5 2756.5,-174.5 2697.5,-174.5"/>
<text text-anchor="middle" x="2727" y="-182.5" font-family="Helvetica,sans-Serif" font-size="10.00">functional</text>
</g>
<!-- Node22&#45;&gt;Node32 -->
<g id="edge290" class="edge"><title>Node22&#45;&gt;Node32</title>
<path fill="none" stroke="midnightblue" d="M2094.8,-420.452C2141.88,-400.548 2242.72,-358.502 2279,-348 2285.8,-346.032 2775.48,-259.448 2780,-254 2794.6,-236.404 2773.4,-215.492 2753.64,-201.337"/>
<polygon fill="midnightblue" stroke="midnightblue" points="2755.6,-198.44 2745.36,-195.715 2751.67,-204.23 2755.6,-198.44"/>
</g>
<!-- Node47 -->
<g id="node141" class="node"><title>Node47</title>
<a xlink:href="_event_8h.html" target="_top" xlink:title="analysis/data/Event.h">
<polygon fill="white" stroke="black" points="1322.5,-355.5 1322.5,-376.5 1433.5,-376.5 1433.5,-355.5 1322.5,-355.5"/>
<text text-anchor="middle" x="1378" y="-363.5" font-family="Helvetica,sans-Serif" font-size="10.00">analysis/data/Event.h</text>
</a>
</g>
<!-- Node22&#45;&gt;Node47 -->
<g id="edge188" class="edge"><title>Node22&#45;&gt;Node47</title>
<path fill="none" stroke="midnightblue" d="M2001.75,-424.59C1868.63,-412.085 1575.83,-384.582 1444.29,-372.226"/>
<polygon fill="midnightblue" stroke="midnightblue" points="1444.24,-368.707 1433.96,-371.256 1443.59,-375.676 1444.24,-368.707"/>
</g>
<!-- Node59 -->
<g id="node193" class="node"><title>Node59</title>
<a xlink:href="_slowcontrol_8h.html" target="_top" xlink:title="analysis/data/Slowcontrol.h">
<polygon fill="white" stroke="black" points="2002.5,-116.5 2002.5,-137.5 2139.5,-137.5 2139.5,-116.5 2002.5,-116.5"/>
<text text-anchor="middle" x="2071" y="-124.5" font-family="Helvetica,sans-Serif" font-size="10.00">analysis/data/Slowcontrol.h</text>
</a>
</g>
<!-- Node22&#45;&gt;Node59 -->
<g id="edge268" class="edge"><title>Node22&#45;&gt;Node59</title>
<path fill="none" stroke="midnightblue" d="M2085.42,-420.477C2112.56,-400.578 2166,-354.588 2166,-301 2166,-301 2166,-301 2166,-243 2166,-199.546 2125.6,-163.439 2097.5,-143.574"/>
<polygon fill="midnightblue" stroke="midnightblue" points="2099.11,-140.436 2088.87,-137.706 2095.17,-146.224 2099.11,-140.436"/>
</g>
<!-- Node60 -->
<g id="node197" class="node"><title>Node60</title>
<a xlink:href="_options_list_8h.html" target="_top" xlink:title="base/OptionsList.h">
<polygon fill="white" stroke="black" points="1926,-232.5 1926,-253.5 2024,-253.5 2024,-232.5 1926,-232.5"/>
<text text-anchor="middle" x="1975" y="-240.5" font-family="Helvetica,sans-Serif" font-size="10.00">base/OptionsList.h</text>
</a>
</g>
<!-- Node22&#45;&gt;Node60 -->
<g id="edge274" class="edge"><title>Node22&#45;&gt;Node60</title>
<path fill="none" stroke="midnightblue" d="M2064.62,-420.354C2049.24,-389.913 2004.9,-302.17 1984.94,-262.677"/>
<polygon fill="midnightblue" stroke="midnightblue" points="1987.95,-260.876 1980.32,-253.53 1981.71,-264.033 1987.95,-260.876"/>
</g>
<!-- Node23&#45;&gt;Node3 -->
<g id="edge186" class="edge"><title>Node23&#45;&gt;Node3</title>
<path fill="none" stroke="midnightblue" d="M2456.22,-362.695C2593.64,-356.537 2859.71,-341.205 2949,-312 3044.48,-280.77 3089.73,-281.172 3143,-196 3175.53,-143.988 3160.35,-117.645 3146,-58 3143.75,-48.6589 3139.56,-38.9444 3135.43,-30.7886"/>
<polygon fill="midnightblue" stroke="midnightblue" points="3138.39,-28.8911 3130.57,-21.7431 3132.22,-32.2077 3138.39,-28.8911"/>
</g>
<!-- Node24 -->
<g id="node57" class="node"><title>Node24</title>
<a xlink:href="_histogram_8h.html" target="_top" xlink:title="Histogram.h">
<polygon fill="white" stroke="black" points="2832,-232.5 2832,-253.5 2902,-253.5 2902,-232.5 2832,-232.5"/>
<text text-anchor="middle" x="2867" y="-240.5" font-family="Helvetica,sans-Serif" font-size="10.00">Histogram.h</text>
</a>
</g>
<!-- Node23&#45;&gt;Node24 -->
<g id="edge66" class="edge"><title>Node23&#45;&gt;Node24</title>
<path fill="none" stroke="midnightblue" d="M2420.27,-355.405C2467.86,-344.843 2542.59,-327.942 2607,-312 2682.65,-293.276 2770.15,-269.643 2821.91,-255.458"/>
<polygon fill="midnightblue" stroke="midnightblue" points="2823.05,-258.773 2831.77,-252.751 2821.2,-252.023 2823.05,-258.773"/>
</g>
<!-- Node30 -->
<g id="node73" class="node"><title>Node30</title>
<a xlink:href="_smart_hist_8h.html" target="_top" xlink:title="SmartHist.h">
<polygon fill="white" stroke="black" points="2328.5,-290.5 2328.5,-311.5 2397.5,-311.5 2397.5,-290.5 2328.5,-290.5"/>
<text text-anchor="middle" x="2363" y="-298.5" font-family="Helvetica,sans-Serif" font-size="10.00">SmartHist.h</text>
</a>
</g>
<!-- Node23&#45;&gt;Node30 -->
<g id="edge86" class="edge"><title>Node23&#45;&gt;Node30</title>
<path fill="none" stroke="midnightblue" d="M2370.51,-355.267C2369.26,-346.18 2367.42,-332.892 2365.87,-321.74"/>
<polygon fill="midnightblue" stroke="midnightblue" points="2369.3,-320.959 2364.46,-311.534 2362.36,-321.919 2369.3,-320.959"/>
</g>
<!-- Node39 -->
<g id="node100" class="node"><title>Node39</title>
<a xlink:href="_particle_8h.html" target="_top" xlink:title="analysis/data/Particle.h">
<polygon fill="white" stroke="black" points="1443.5,-290.5 1443.5,-311.5 1562.5,-311.5 1562.5,-290.5 1443.5,-290.5"/>
<text text-anchor="middle" x="1503" y="-298.5" font-family="Helvetica,sans-Serif" font-size="10.00">analysis/data/Particle.h</text>
</a>
</g>
<!-- Node23&#45;&gt;Node39 -->
<g id="edge122" class="edge"><title>Node23&#45;&gt;Node39</title>
<path fill="none" stroke="midnightblue" d="M2287.89,-359.708C2116.79,-346.911 1731.06,-318.059 1572.79,-306.22"/>
<polygon fill="midnightblue" stroke="midnightblue" points="1572.93,-302.721 1562.69,-305.465 1572.4,-309.701 1572.93,-302.721"/>
</g>
<!-- Node24&#45;&gt;Node3 -->
<g id="edge72" class="edge"><title>Node24&#45;&gt;Node3</title>
<path fill="none" stroke="midnightblue" d="M2902.06,-241.949C2965.88,-239.218 3097,-229.561 3125,-196 3145.35,-171.611 3133.66,-74.4815 3127.29,-31.5666"/>
<polygon fill="midnightblue" stroke="midnightblue" points="3130.75,-31.0291 3125.77,-21.6757 3123.83,-32.0909 3130.75,-31.0291"/>
</g>
<!-- Node24&#45;&gt;Node8 -->
<g id="edge70" class="edge"><title>Node24&#45;&gt;Node8</title>
<path fill="none" stroke="midnightblue" d="M2852.47,-232.416C2832.98,-218.397 2797.11,-193.206 2765,-174 2669.8,-117.056 2651.01,-87.2341 2544,-58 2455.1,-33.7145 1792.33,-15.7011 1637.35,-11.7926"/>
<polygon fill="midnightblue" stroke="midnightblue" points="1637.17,-8.28703 1627.08,-11.5356 1636.99,-15.2848 1637.17,-8.28703"/>
</g>
<!-- Node25 -->
<g id="node59" class="node"><title>Node25</title>
<polygon fill="white" stroke="#bfbfbf" points="2812,-174.5 2812,-195.5 2866,-195.5 2866,-174.5 2812,-174.5"/>
<text text-anchor="middle" x="2839" y="-182.5" font-family="Helvetica,sans-Serif" font-size="10.00">TColor.h</text>
</g>
<!-- Node24&#45;&gt;Node25 -->
<g id="edge68" class="edge"><title>Node24&#45;&gt;Node25</title>
<path fill="none" stroke="midnightblue" d="M2861.86,-232.362C2858.15,-224.677 2853.03,-214.069 2848.58,-204.84"/>
<polygon fill="midnightblue" stroke="midnightblue" points="2851.6,-203.055 2844.1,-195.571 2845.3,-206.098 2851.6,-203.055"/>
</g>
<!-- Node26 -->
<g id="node63" class="node"><title>Node26</title>
<a xlink:href="interval_8h.html" target="_top" xlink:title="base/interval.h">
<polygon fill="white" stroke="black" points="3036,-174.5 3036,-195.5 3116,-195.5 3116,-174.5 3036,-174.5"/>
<text text-anchor="middle" x="3076" y="-182.5" font-family="Helvetica,sans-Serif" font-size="10.00">base/interval.h</text>
</a>
</g>
<!-- Node24&#45;&gt;Node26 -->
<g id="edge74" class="edge"><title>Node24&#45;&gt;Node26</title>
<path fill="none" stroke="midnightblue" d="M2902.45,-233.161C2936.99,-223.578 2989.72,-208.943 3028,-198.32"/>
<polygon fill="midnightblue" stroke="midnightblue" points="3029.19,-201.622 3037.89,-195.575 3027.32,-194.877 3029.19,-201.622"/>
</g>
<!-- Node26&#45;&gt;Node7 -->
<g id="edge80" class="edge"><title>Node26&#45;&gt;Node7</title>
<path fill="none" stroke="midnightblue" d="M3035.98,-176.369C3031.28,-175.497 3026.54,-174.683 3022,-174 2859.93,-149.611 2816.16,-167.837 2655,-138 2618.74,-131.287 2611.47,-121.445 2575,-116 2292.9,-73.8819 1576.48,-100.596 1292,-80 1278.94,-79.0545 1264.9,-77.6316 1251.76,-76.1202"/>
<polygon fill="midnightblue" stroke="midnightblue" points="1251.79,-72.5994 1241.45,-74.8965 1250.97,-79.5506 1251.79,-72.5994"/>
</g>
<!-- Node26&#45;&gt;Node12 -->
<g id="edge78" class="edge"><title>Node26&#45;&gt;Node12</title>
<path fill="none" stroke="midnightblue" d="M3035.93,-176.663C3031.24,-175.739 3026.52,-174.832 3022,-174 2769.49,-127.478 2703.81,-130.172 2452,-80 2449.52,-79.5057 2446.97,-78.975 2444.4,-78.4233"/>
<polygon fill="midnightblue" stroke="midnightblue" points="2445.04,-74.9799 2434.52,-76.2247 2443.52,-81.8129 2445.04,-74.9799"/>
</g>
<!-- Node27 -->
<g id="node65" class="node"><title>Node27</title>
<polygon fill="white" stroke="#bfbfbf" points="3462,-0.5 3462,-21.5 3518,-21.5 3518,-0.5 3462,-0.5"/>
<text text-anchor="middle" x="3490" y="-8.5" font-family="Helvetica,sans-Serif" font-size="10.00">algorithm</text>
</g>
<!-- Node26&#45;&gt;Node27 -->
<g id="edge76" class="edge"><title>Node26&#45;&gt;Node27</title>
<path fill="none" stroke="midnightblue" d="M3093.3,-174.314C3119.46,-158.709 3171.12,-130.023 3219,-116 3283.01,-97.2526 3472.75,-129.915 3517,-80 3529.7,-65.6768 3518.51,-44.6932 3506.92,-29.6307"/>
<polygon fill="midnightblue" stroke="midnightblue" points="3509.3,-27.0128 3500.22,-21.5414 3503.9,-31.4764 3509.3,-27.0128"/>
</g>
<!-- Node28 -->
<g id="node69" class="node"><title>Node28</title>
<a xlink:href="types_8h.html" target="_top" xlink:title="types.h">
<polygon fill="white" stroke="black" points="1513.5,-116.5 1513.5,-137.5 1562.5,-137.5 1562.5,-116.5 1513.5,-116.5"/>
<text text-anchor="middle" x="1538" y="-124.5" font-family="Helvetica,sans-Serif" font-size="10.00">types.h</text>
</a>
</g>
<!-- Node26&#45;&gt;Node28 -->
<g id="edge82" class="edge"><title>Node26&#45;&gt;Node28</title>
<path fill="none" stroke="midnightblue" d="M3035.77,-179.425C3019.7,-177.398 3001,-175.29 2984,-174 2839.44,-163.03 1779.58,-133.621 1572.89,-127.953"/>
<polygon fill="midnightblue" stroke="midnightblue" points="1572.72,-124.447 1562.62,-127.671 1572.52,-131.444 1572.72,-124.447"/>
</g>
<!-- Node26&#45;&gt;Node29 -->
<g id="edge84" class="edge"><title>Node26&#45;&gt;Node29</title>
<path fill="none" stroke="midnightblue" d="M3107.15,-174.497C3138.63,-163.88 3186.95,-147.586 3218.02,-137.111"/>
<polygon fill="midnightblue" stroke="midnightblue" points="3219.48,-140.31 3227.84,-133.798 3217.24,-133.677 3219.48,-140.31"/>
</g>
<!-- Node30&#45;&gt;Node3 -->
<g id="edge116" class="edge"><title>Node30&#45;&gt;Node3</title>
<path fill="none" stroke="midnightblue" d="M2397.83,-297.352C2491.33,-287.479 2741.21,-260.538 2747,-254 2753.48,-246.678 2751.75,-240.545 2747,-232 2732.25,-205.487 2703.75,-222.513 2689,-196 2684.25,-187.455 2683.79,-182.274 2689,-174 2752.55,-73.0659 2818.67,-98.1053 2931,-58 2986.81,-38.0733 3054.66,-23.7207 3093.24,-16.4378"/>
<polygon fill="midnightblue" stroke="midnightblue" points="3094.11,-19.8353 3103.31,-14.5723 3092.84,-12.9524 3094.11,-19.8353"/>
</g>
<!-- Node30&#45;&gt;Node4 -->
<g id="edge114" class="edge"><title>Node30&#45;&gt;Node4</title>
<path fill="none" stroke="midnightblue" d="M2328.33,-299.219C2237.35,-294.247 1993.53,-278.928 1917,-254 1898.44,-247.956 1897.72,-237.499 1879,-232 1855.18,-225.004 1083.67,-193.596 906.163,-186.45"/>
<polygon fill="midnightblue" stroke="midnightblue" points="906.173,-182.948 896.04,-186.043 905.891,-189.942 906.173,-182.948"/>
</g>
<!-- Node30&#45;&gt;Node16 -->
<g id="edge106" class="edge"><title>Node30&#45;&gt;Node16</title>
<path fill="none" stroke="midnightblue" d="M2328.22,-299.666C2134.45,-292.233 1187.43,-255.905 920.912,-245.682"/>
<polygon fill="midnightblue" stroke="midnightblue" points="920.725,-242.172 910.598,-245.286 920.457,-249.167 920.725,-242.172"/>
</g>
<!-- Node30&#45;&gt;Node24 -->
<g id="edge88" class="edge"><title>Node30&#45;&gt;Node24</title>
<path fill="none" stroke="midnightblue" d="M2397.62,-297.259C2469.1,-289.497 2638.22,-270.953 2780,-254 2793.61,-252.372 2808.41,-250.529 2821.88,-248.823"/>
<polygon fill="midnightblue" stroke="midnightblue" points="2822.4,-252.285 2831.88,-247.55 2821.52,-245.341 2822.4,-252.285"/>
</g>
<!-- Node31 -->
<g id="node76" class="node"><title>Node31</title>
<a xlink:href="root__draw_8h.html" target="_top" xlink:title="root_draw.h">
<polygon fill="white" stroke="black" points="2670,-232.5 2670,-253.5 2738,-253.5 2738,-232.5 2670,-232.5"/>
<text text-anchor="middle" x="2704" y="-240.5" font-family="Helvetica,sans-Serif" font-size="10.00">root_draw.h</text>
</a>
</g>
<!-- Node30&#45;&gt;Node31 -->
<g id="edge90" class="edge"><title>Node30&#45;&gt;Node31</title>
<path fill="none" stroke="midnightblue" d="M2397.61,-296.618C2451.55,-289.553 2559.14,-274.533 2659.77,-254.115"/>
<polygon fill="midnightblue" stroke="midnightblue" points="2660.71,-257.496 2669.8,-252.058 2659.3,-250.639 2660.71,-257.496"/>
</g>
<!-- Node34 -->
<g id="node88" class="node"><title>Node34</title>
<polygon fill="white" stroke="#bfbfbf" points="2337.5,-232.5 2337.5,-253.5 2388.5,-253.5 2388.5,-232.5 2337.5,-232.5"/>
<text text-anchor="middle" x="2363" y="-240.5" font-family="Helvetica,sans-Serif" font-size="10.00">TH1D.h</text>
</g>
<!-- Node30&#45;&gt;Node34 -->
<g id="edge108" class="edge"><title>Node30&#45;&gt;Node34</title>
<path fill="none" stroke="midnightblue" d="M2363,-290.362C2363,-282.922 2363,-272.743 2363,-263.728"/>
<polygon fill="midnightblue" stroke="midnightblue" points="2366.5,-263.571 2363,-253.571 2359.5,-263.571 2366.5,-263.571"/>
</g>
<!-- Node35 -->
<g id="node90" class="node"><title>Node35</title>
<polygon fill="white" stroke="#bfbfbf" points="2405.5,-232.5 2405.5,-253.5 2456.5,-253.5 2456.5,-232.5 2405.5,-232.5"/>
<text text-anchor="middle" x="2431" y="-240.5" font-family="Helvetica,sans-Serif" font-size="10.00">TH2D.h</text>
</g>
<!-- Node30&#45;&gt;Node35 -->
<g id="edge110" class="edge"><title>Node30&#45;&gt;Node35</title>
<path fill="none" stroke="midnightblue" d="M2375.47,-290.362C2385.35,-281.941 2399.33,-270.011 2410.8,-260.231"/>
<polygon fill="midnightblue" stroke="midnightblue" points="2413.27,-262.723 2418.61,-253.571 2408.73,-257.397 2413.27,-262.723"/>
</g>
<!-- Node36 -->
<g id="node92" class="node"><title>Node36</title>
<polygon fill="white" stroke="#bfbfbf" points="2193.5,-232.5 2193.5,-253.5 2244.5,-253.5 2244.5,-232.5 2193.5,-232.5"/>
<text text-anchor="middle" x="2219" y="-240.5" font-family="Helvetica,sans-Serif" font-size="10.00">TH3D.h</text>
</g>
<!-- Node30&#45;&gt;Node36 -->
<g id="edge112" class="edge"><title>Node30&#45;&gt;Node36</title>
<path fill="none" stroke="midnightblue" d="M2336.92,-290.497C2313.78,-281.176 2279.78,-267.48 2254.22,-257.187"/>
<polygon fill="midnightblue" stroke="midnightblue" points="2255.47,-253.915 2244.88,-253.425 2252.85,-260.408 2255.47,-253.915"/>
</g>
<!-- Node37 -->
<g id="node96" class="node"><title>Node37</title>
<polygon fill="white" stroke="#bfbfbf" points="1816,-232.5 1816,-253.5 1870,-253.5 1870,-232.5 1816,-232.5"/>
<text text-anchor="middle" x="1843" y="-240.5" font-family="Helvetica,sans-Serif" font-size="10.00">iostream</text>
</g>
<!-- Node30&#45;&gt;Node37 -->
<g id="edge118" class="edge"><title>Node30&#45;&gt;Node37</title>
<path fill="none" stroke="midnightblue" d="M2328.46,-299.559C2249.29,-295.833 2048.83,-283.988 1884,-254 1882.74,-253.77 1881.45,-253.52 1880.16,-253.255"/>
<polygon fill="midnightblue" stroke="midnightblue" points="1880.74,-249.795 1870.21,-250.968 1879.17,-256.618 1880.74,-249.795"/>
</g>
<!-- Node38 -->
<g id="node98" class="node"><title>Node38</title>
<polygon fill="white" stroke="#bfbfbf" points="2261.5,-232.5 2261.5,-253.5 2320.5,-253.5 2320.5,-232.5 2261.5,-232.5"/>
<text text-anchor="middle" x="2291" y="-240.5" font-family="Helvetica,sans-Serif" font-size="10.00">exception</text>
</g>
<!-- Node30&#45;&gt;Node38 -->
<g id="edge120" class="edge"><title>Node30&#45;&gt;Node38</title>
<path fill="none" stroke="midnightblue" d="M2349.79,-290.362C2339.24,-281.859 2324.24,-269.779 2312.04,-259.947"/>
<polygon fill="midnightblue" stroke="midnightblue" points="2314.11,-257.118 2304.12,-253.571 2309.71,-262.57 2314.11,-257.118"/>
</g>
<!-- Node31&#45;&gt;Node3 -->
<g id="edge92" class="edge"><title>Node31&#45;&gt;Node3</title>
<path fill="none" stroke="midnightblue" d="M2687.6,-232.288C2669.98,-219.329 2645.79,-196.449 2656,-174 2688.47,-102.6 2717.65,-90.5768 2789,-58 2842.99,-33.3487 3020.56,-18.325 3092.91,-13.0933"/>
<polygon fill="midnightblue" stroke="midnightblue" points="3093.46,-16.5631 3103.19,-12.365 3092.96,-9.58062 3093.46,-16.5631"/>
</g>
<!-- Node31&#45;&gt;Node4 -->
<g id="edge100" class="edge"><title>Node31&#45;&gt;Node4</title>
<path fill="none" stroke="midnightblue" d="M2669.87,-233.527C2666.89,-232.925 2663.9,-232.401 2661,-232 2332.91,-186.668 1502.06,-206.048 1171,-196 1075.49,-193.101 962.979,-188.736 906.391,-186.475"/>
<polygon fill="midnightblue" stroke="midnightblue" points="906.299,-182.969 896.167,-186.065 906.018,-189.963 906.299,-182.969"/>
</g>
<!-- Node31&#45;&gt;Node8 -->
<g id="edge96" class="edge"><title>Node31&#45;&gt;Node8</title>
<path fill="none" stroke="midnightblue" d="M2690.8,-232.153C2679.66,-222.849 2663.42,-208.937 2650,-196 2587.09,-135.372 2590.8,-91.2344 2510,-58 2428.03,-24.2851 1789.15,-13.5079 1637.3,-11.4102"/>
<polygon fill="midnightblue" stroke="midnightblue" points="1637.27,-7.90952 1627.23,-11.2739 1637.18,-14.9089 1637.27,-7.90952"/>
</g>
<!-- Node31&#45;&gt;Node17 -->
<g id="edge94" class="edge"><title>Node31&#45;&gt;Node17</title>
<path fill="none" stroke="midnightblue" d="M2669.83,-233.794C2666.85,-233.134 2663.88,-232.523 2661,-232 2602.71,-221.41 2190.09,-178.22 2131,-174 1848.63,-153.832 921.073,-131.417 757.691,-127.575"/>
<polygon fill="midnightblue" stroke="midnightblue" points="757.735,-124.075 747.656,-127.34 757.571,-131.073 757.735,-124.075"/>
</g>
<!-- Node31&#45;&gt;Node20 -->
<g id="edge98" class="edge"><title>Node31&#45;&gt;Node20</title>
<path fill="none" stroke="midnightblue" d="M2669.84,-233.716C2666.86,-233.073 2663.89,-232.488 2661,-232 2557.42,-214.499 2230.32,-192.92 2132.74,-186.732"/>
<polygon fill="midnightblue" stroke="midnightblue" points="2132.96,-183.239 2122.76,-186.102 2132.52,-190.225 2132.96,-183.239"/>
</g>
<!-- Node31&#45;&gt;Node32 -->
<g id="edge102" class="edge"><title>Node31&#45;&gt;Node32</title>
<path fill="none" stroke="midnightblue" d="M2708.22,-232.362C2711.23,-224.758 2715.38,-214.294 2719.02,-205.135"/>
<polygon fill="midnightblue" stroke="midnightblue" points="2722.38,-206.157 2722.81,-195.571 2715.87,-203.576 2722.38,-206.157"/>
</g>
<!-- Node31&#45;&gt;Node33 -->
<g id="edge104" class="edge"><title>Node31&#45;&gt;Node33</title>
<path fill="none" stroke="midnightblue" d="M2669.85,-232.814C2638.22,-222.897 2594.03,-207.658 2580,-196 2564.31,-182.968 2552.89,-162.473 2545.96,-147.201"/>
<polygon fill="midnightblue" stroke="midnightblue" points="2549.01,-145.446 2541.87,-137.619 2542.57,-148.19 2549.01,-145.446"/>
</g>
<!-- Node39&#45;&gt;Node4 -->
<g id="edge184" class="edge"><title>Node39&#45;&gt;Node4</title>
<path fill="none" stroke="midnightblue" d="M1443.39,-295.594C1372.35,-288.586 1250.29,-274.749 1147,-254 1110.43,-246.653 1102.14,-241.239 1066,-232 1010.29,-217.759 945.349,-202.436 905.977,-193.287"/>
<polygon fill="midnightblue" stroke="midnightblue" points="906.591,-189.837 896.059,-190.988 905.01,-196.656 906.591,-189.837"/>
</g>
<!-- Node39&#45;&gt;Node7 -->
<g id="edge150" class="edge"><title>Node39&#45;&gt;Node7</title>
<path fill="none" stroke="midnightblue" d="M1513.4,-290.447C1542.32,-259.857 1618.53,-169.895 1571,-116 1568.37,-113.02 1353.75,-87.3585 1251.29,-75.2613"/>
<polygon fill="midnightblue" stroke="midnightblue" points="1251.49,-71.7602 1241.15,-74.0644 1250.67,-78.712 1251.49,-71.7602"/>
</g>
<!-- Node39&#45;&gt;Node8 -->
<g id="edge178" class="edge"><title>Node39&#45;&gt;Node8</title>
<path fill="none" stroke="midnightblue" d="M1562.59,-295.44C1628.5,-288.386 1729.68,-274.603 1762,-254 1788.62,-237.032 1793.44,-226.086 1803,-196 1830.99,-107.903 1699.37,-46.0561 1636.66,-22.0621"/>
<polygon fill="midnightblue" stroke="midnightblue" points="1637.82,-18.7573 1627.23,-18.5379 1635.37,-25.3151 1637.82,-18.7573"/>
</g>
<!-- Node39&#45;&gt;Node17 -->
<g id="edge180" class="edge"><title>Node39&#45;&gt;Node17</title>
<path fill="none" stroke="midnightblue" d="M1456.99,-290.457C1417.6,-281.284 1359.41,-267.395 1309,-254 1275.01,-244.969 1267.12,-240.517 1233,-232 1157.65,-213.189 1137.64,-213.628 1062,-196 1023.58,-187.045 1014.5,-182.639 976,-174 896.572,-156.176 801.626,-138.994 757.627,-131.264"/>
<polygon fill="midnightblue" stroke="midnightblue" points="758.032,-127.782 747.579,-129.508 756.827,-134.677 758.032,-127.782"/>
</g>
<!-- Node39&#45;&gt;Node28 -->
<g id="edge152" class="edge"><title>Node39&#45;&gt;Node28</title>
<path fill="none" stroke="midnightblue" d="M1562.65,-292.787C1620.18,-284.142 1702.59,-269.638 1731,-254 1762.39,-236.723 1773.58,-229.224 1787,-196 1790.66,-186.934 1793.24,-181.528 1787,-174 1760.2,-141.662 1634.84,-131.417 1572.87,-128.298"/>
<polygon fill="midnightblue" stroke="midnightblue" points="1572.93,-124.797 1562.78,-127.825 1572.6,-131.789 1572.93,-124.797"/>
</g>
<!-- Node39&#45;&gt;Node37 -->
<g id="edge182" class="edge"><title>Node39&#45;&gt;Node37</title>
<path fill="none" stroke="midnightblue" d="M1562.62,-293.526C1623.22,-285.487 1719.63,-271.473 1802,-254 1803.26,-253.733 1804.53,-253.452 1805.82,-253.159"/>
<polygon fill="midnightblue" stroke="midnightblue" points="1806.86,-256.508 1815.75,-250.743 1805.21,-249.706 1806.86,-256.508"/>
</g>
<!-- Node40 -->
<g id="node102" class="node"><title>Node40</title>
<a xlink:href="_candidate_8h.html" target="_top" xlink:title="analysis/data/Candidate.h">
<polygon fill="white" stroke="black" points="1318,-232.5 1318,-253.5 1448,-253.5 1448,-232.5 1318,-232.5"/>
<text text-anchor="middle" x="1383" y="-240.5" font-family="Helvetica,sans-Serif" font-size="10.00">analysis/data/Candidate.h</text>
</a>
</g>
<!-- Node39&#45;&gt;Node40 -->
<g id="edge124" class="edge"><title>Node39&#45;&gt;Node40</title>
<path fill="none" stroke="midnightblue" d="M1481.27,-290.497C1462.53,-281.438 1435.23,-268.246 1414.16,-258.063"/>
<polygon fill="midnightblue" stroke="midnightblue" points="1415.5,-254.822 1404.97,-253.621 1412.46,-261.124 1415.5,-254.822"/>
</g>
<!-- Node43 -->
<g id="node120" class="node"><title>Node43</title>
<a xlink:href="_particle_type_8h.html" target="_top" xlink:title="base/ParticleType.h">
<polygon fill="white" stroke="black" points="1618,-232.5 1618,-253.5 1722,-253.5 1722,-232.5 1618,-232.5"/>
<text text-anchor="middle" x="1670" y="-240.5" font-family="Helvetica,sans-Serif" font-size="10.00">base/ParticleType.h</text>
</a>
</g>
<!-- Node39&#45;&gt;Node43 -->
<g id="edge154" class="edge"><title>Node39&#45;&gt;Node43</title>
<path fill="none" stroke="midnightblue" d="M1533.24,-290.497C1560.35,-281.082 1600.31,-267.204 1630.04,-256.877"/>
<polygon fill="midnightblue" stroke="midnightblue" points="1631.4,-260.11 1639.7,-253.523 1629.11,-253.498 1631.4,-260.11"/>
</g>
<!-- Node45 -->
<g id="node129" class="node"><title>Node45</title>
<a xlink:href="_tree_8h.html" target="_top" xlink:title="base/Tree.h">
<polygon fill="white" stroke="black" points="1156,-232.5 1156,-253.5 1224,-253.5 1224,-232.5 1156,-232.5"/>
<text text-anchor="middle" x="1190" y="-240.5" font-family="Helvetica,sans-Serif" font-size="10.00">base/Tree.h</text>
</a>
</g>
<!-- Node39&#45;&gt;Node45 -->
<g id="edge168" class="edge"><title>Node39&#45;&gt;Node45</title>
<path fill="none" stroke="midnightblue" d="M1446.32,-290.497C1385.29,-279.187 1289.5,-261.437 1233.93,-251.14"/>
<polygon fill="midnightblue" stroke="midnightblue" points="1234.51,-247.688 1224.04,-249.307 1233.23,-254.571 1234.51,-247.688"/>
</g>
<!-- Node46 -->
<g id="node134" class="node"><title>Node46</title>
<polygon fill="white" stroke="#bfbfbf" points="700,-174.5 700,-195.5 792,-195.5 792,-174.5 700,-174.5"/>
<text text-anchor="middle" x="746" y="-182.5" font-family="Helvetica,sans-Serif" font-size="10.00">TLorentzVector.h</text>
</g>
<!-- Node39&#45;&gt;Node46 -->
<g id="edge176" class="edge"><title>Node39&#45;&gt;Node46</title>
<path fill="none" stroke="midnightblue" d="M1443.36,-296.836C1413.27,-294.752 1376.2,-292.208 1343,-290 1280.79,-285.862 835.446,-287.719 783,-254 765.93,-243.025 756.186,-221.383 751.029,-205.249"/>
<polygon fill="midnightblue" stroke="midnightblue" points="754.387,-204.261 748.271,-195.609 747.657,-206.186 754.387,-204.261"/>
</g>
<!-- Node40&#45;&gt;Node4 -->
<g id="edge146" class="edge"><title>Node40&#45;&gt;Node4</title>
<path fill="none" stroke="midnightblue" d="M1317.77,-235.625C1208.45,-223.265 991.804,-198.771 906.108,-189.082"/>
<polygon fill="midnightblue" stroke="midnightblue" points="906.416,-185.595 896.086,-187.949 905.63,-192.551 906.416,-185.595"/>
</g>
<!-- Node40&#45;&gt;Node6 -->
<g id="edge130" class="edge"><title>Node40&#45;&gt;Node6</title>
<path fill="none" stroke="midnightblue" d="M1382.04,-232.493C1381.1,-218.771 1380.51,-194.129 1386,-174 1388.62,-164.387 1393.47,-154.534 1398.2,-146.35"/>
<polygon fill="midnightblue" stroke="midnightblue" points="1401.31,-147.974 1403.57,-137.622 1395.35,-144.308 1401.31,-147.974"/>
</g>
<!-- Node40&#45;&gt;Node7 -->
<g id="edge126" class="edge"><title>Node40&#45;&gt;Node7</title>
<path fill="none" stroke="midnightblue" d="M1317.96,-232.763C1259.14,-222.843 1180.34,-207.632 1171,-196 1145.76,-164.549 1168.98,-115.031 1185.26,-88.0589"/>
<polygon fill="midnightblue" stroke="midnightblue" points="1188.27,-89.8518 1190.64,-79.5254 1182.35,-86.12 1188.27,-89.8518"/>
</g>
<!-- Node40&#45;&gt;Node8 -->
<g id="edge148" class="edge"><title>Node40&#45;&gt;Node8</title>
<path fill="none" stroke="midnightblue" d="M1389.51,-232.209C1398.19,-218.181 1414.39,-193.207 1431,-174 1444.58,-158.299 1543.69,-67.1428 1585.97,-28.4061"/>
<polygon fill="midnightblue" stroke="midnightblue" points="1588.39,-30.9385 1593.4,-21.6039 1583.66,-25.7757 1588.39,-30.9385"/>
</g>
<!-- Node40&#45;&gt;Node9 -->
<g id="edge144" class="edge"><title>Node40&#45;&gt;Node9</title>
<path fill="none" stroke="midnightblue" d="M1317.78,-233.36C1255.25,-223.489 1168.78,-207.945 1158,-196 1116.76,-150.287 1121.01,-114.266 1146,-58 1151.4,-45.8358 1161.68,-35.4865 1171.68,-27.6217"/>
<polygon fill="midnightblue" stroke="midnightblue" points="1173.89,-30.3395 1179.9,-21.6143 1169.77,-24.6872 1173.89,-30.3395"/>
</g>
<!-- Node40&#45;&gt;Node10 -->
<g id="edge142" class="edge"><title>Node40&#45;&gt;Node10</title>
<path fill="none" stroke="midnightblue" d="M1379.95,-232.377C1371.84,-204.172 1349.67,-127.012 1338.95,-89.7203"/>
<polygon fill="midnightblue" stroke="midnightblue" points="1342.27,-88.5721 1336.14,-79.9277 1335.54,-90.5054 1342.27,-88.5721"/>
</g>
<!-- Node40&#45;&gt;Node28 -->
<g id="edge128" class="edge"><title>Node40&#45;&gt;Node28</title>
<path fill="none" stroke="midnightblue" d="M1394.02,-232.332C1408.86,-218.22 1436.36,-192.926 1462,-174 1477.4,-162.631 1495.61,-151.303 1510.35,-142.617"/>
<polygon fill="midnightblue" stroke="midnightblue" points="1512.13,-145.628 1519.01,-137.574 1508.61,-139.577 1512.13,-145.628"/>
</g>
<!-- Node41 -->
<g id="node107" class="node"><title>Node41</title>
<a xlink:href="_cluster_8h.html" target="_top" xlink:title="analysis/data/Cluster.h">
<polygon fill="white" stroke="black" points="1179.5,-174.5 1179.5,-195.5 1296.5,-195.5 1296.5,-174.5 1179.5,-174.5"/>
<text text-anchor="middle" x="1238" y="-182.5" font-family="Helvetica,sans-Serif" font-size="10.00">analysis/data/Cluster.h</text>
</a>
</g>
<!-- Node40&#45;&gt;Node41 -->
<g id="edge132" class="edge"><title>Node40&#45;&gt;Node41</title>
<path fill="none" stroke="midnightblue" d="M1356.74,-232.497C1333.58,-223.234 1299.62,-209.65 1273.95,-199.379"/>
<polygon fill="midnightblue" stroke="midnightblue" points="1275.14,-196.086 1264.55,-195.621 1272.54,-202.585 1275.14,-196.086"/>
</g>
<!-- Node41&#45;&gt;Node6 -->
<g id="edge134" class="edge"><title>Node41&#45;&gt;Node6</title>
<path fill="none" stroke="midnightblue" d="M1269.33,-174.497C1297.53,-165.041 1339.17,-151.083 1370.01,-140.743"/>
<polygon fill="midnightblue" stroke="midnightblue" points="1371.24,-144.02 1379.61,-137.523 1369.02,-137.383 1371.24,-144.02"/>
</g>
<!-- Node41&#45;&gt;Node10 -->
<g id="edge138" class="edge"><title>Node41&#45;&gt;Node10</title>
<path fill="none" stroke="midnightblue" d="M1247.61,-174.313C1256.03,-164.877 1268.51,-150.687 1279,-138 1292.67,-121.456 1307.68,-102.189 1318.39,-88.2257"/>
<polygon fill="midnightblue" stroke="midnightblue" points="1321.47,-89.9682 1324.76,-79.8976 1315.9,-85.7177 1321.47,-89.9682"/>
</g>
<!-- Node41&#45;&gt;Node17 -->
<g id="edge136" class="edge"><title>Node41&#45;&gt;Node17</title>
<path fill="none" stroke="midnightblue" d="M1179.08,-178.233C1068.48,-165.53 834.036,-138.604 757.634,-129.829"/>
<polygon fill="midnightblue" stroke="midnightblue" points="757.876,-126.334 747.542,-128.67 757.077,-133.288 757.876,-126.334"/>
</g>
<!-- Node42 -->
<g id="node112" class="node"><title>Node42</title>
<a xlink:href="enumfield_8h.html" target="_top" xlink:title="base/enumfield.h">
<polygon fill="white" stroke="black" points="1179.5,-116.5 1179.5,-137.5 1270.5,-137.5 1270.5,-116.5 1179.5,-116.5"/>
<text text-anchor="middle" x="1225" y="-124.5" font-family="Helvetica,sans-Serif" font-size="10.00">base/enumfield.h</text>
</a>
</g>
<!-- Node41&#45;&gt;Node42 -->
<g id="edge140" class="edge"><title>Node41&#45;&gt;Node42</title>
<path fill="none" stroke="midnightblue" d="M1235.62,-174.362C1233.93,-166.84 1231.62,-156.519 1229.58,-147.431"/>
<polygon fill="midnightblue" stroke="midnightblue" points="1232.97,-146.563 1227.37,-137.571 1226.14,-148.094 1232.97,-146.563"/>
</g>
<!-- Node43&#45;&gt;Node3 -->
<g id="edge158" class="edge"><title>Node43&#45;&gt;Node3</title>
<path fill="none" stroke="midnightblue" d="M1699.29,-232.407C1723.22,-223.473 1757.76,-209.942 1787,-196 1900.86,-141.717 1913.62,-92.3078 2035,-58 2139.13,-28.5682 2926.52,-14.2097 3093.1,-11.4845"/>
<polygon fill="midnightblue" stroke="midnightblue" points="3093.22,-14.9831 3103.16,-11.3218 3093.11,-7.98404 3093.22,-14.9831"/>
</g>
<!-- Node43&#45;&gt;Node8 -->
<g id="edge166" class="edge"><title>Node43&#45;&gt;Node8</title>
<path fill="none" stroke="midnightblue" d="M1673.43,-232.187C1679.95,-209.916 1692.4,-157.539 1680,-116 1669.58,-81.096 1642.14,-48.1721 1623.51,-28.7937"/>
<polygon fill="midnightblue" stroke="midnightblue" points="1625.89,-26.2308 1616.37,-21.5856 1620.92,-31.1551 1625.89,-26.2308"/>
</g>
<!-- Node43&#45;&gt;Node9 -->
<g id="edge160" class="edge"><title>Node43&#45;&gt;Node9</title>
<path fill="none" stroke="midnightblue" d="M1666.07,-232.264C1656.79,-208.255 1631.28,-149.691 1592,-116 1541.5,-72.6865 1517.76,-77.0068 1454,-58 1377.39,-35.1612 1284.4,-21.4425 1234.26,-15.1461"/>
<polygon fill="midnightblue" stroke="midnightblue" points="1234.59,-11.6597 1224.24,-13.9145 1233.74,-18.6075 1234.59,-11.6597"/>
</g>
<!-- Node43&#45;&gt;Node20 -->
<g id="edge162" class="edge"><title>Node43&#45;&gt;Node20</title>
<path fill="none" stroke="midnightblue" d="M1722.04,-236.061C1814.92,-223.678 2006.18,-198.177 2077.44,-188.675"/>
<polygon fill="midnightblue" stroke="midnightblue" points="2077.99,-192.133 2087.44,-187.342 2077.06,-185.194 2077.99,-192.133"/>
</g>
<!-- Node43&#45;&gt;Node28 -->
<g id="edge156" class="edge"><title>Node43&#45;&gt;Node28</title>
<path fill="none" stroke="midnightblue" d="M1657.82,-232.295C1635.03,-212.268 1585.75,-168.964 1558.02,-144.589"/>
<polygon fill="midnightblue" stroke="midnightblue" points="1559.97,-141.651 1550.15,-137.679 1555.35,-146.909 1559.97,-141.651"/>
</g>
<!-- Node44 -->
<g id="node126" class="node"><title>Node44</title>
<polygon fill="white" stroke="#bfbfbf" points="1731.5,-174.5 1731.5,-195.5 1778.5,-195.5 1778.5,-174.5 1731.5,-174.5"/>
<text text-anchor="middle" x="1755" y="-182.5" font-family="Helvetica,sans-Serif" font-size="10.00">iterator</text>
</g>
<!-- Node43&#45;&gt;Node44 -->
<g id="edge164" class="edge"><title>Node43&#45;&gt;Node44</title>
<path fill="none" stroke="midnightblue" d="M1685.59,-232.362C1698.29,-223.696 1716.44,-211.313 1730.99,-201.382"/>
<polygon fill="midnightblue" stroke="midnightblue" points="1733.22,-204.098 1739.51,-195.571 1729.28,-198.316 1733.22,-204.098"/>
</g>
<!-- Node45&#45;&gt;Node4 -->
<g id="edge170" class="edge"><title>Node45&#45;&gt;Node4</title>
<path fill="none" stroke="midnightblue" d="M1155.75,-236.793C1094.94,-225.77 968.65,-202.88 906.356,-191.59"/>
<polygon fill="midnightblue" stroke="midnightblue" points="906.676,-188.091 896.212,-189.751 905.428,-194.978 906.676,-188.091"/>
</g>
<!-- Node45&#45;&gt;Node17 -->
<g id="edge172" class="edge"><title>Node45&#45;&gt;Node17</title>
<path fill="none" stroke="midnightblue" d="M1155.81,-235.169C1098.26,-221.98 988.032,-196.692 986,-196 963.785,-188.438 960.22,-181.55 938,-174 874.482,-152.416 796.547,-137.605 757.604,-130.962"/>
<polygon fill="midnightblue" stroke="midnightblue" points="758.139,-127.503 747.699,-129.306 756.985,-134.407 758.139,-127.503"/>
</g>
<!-- Node45&#45;&gt;Node27 -->
<g id="edge174" class="edge"><title>Node45&#45;&gt;Node27</title>
<path fill="none" stroke="midnightblue" d="M1176.57,-232.226C1166.93,-223.583 1154.66,-210.528 1149,-196 1126.72,-138.839 1102.96,-101.717 1146,-58 1189.78,-13.5328 3275.2,-30.7452 3451.83,-21.064"/>
<polygon fill="midnightblue" stroke="midnightblue" points="3452.23,-24.5428 3461.9,-20.2166 3451.64,-17.5674 3452.23,-24.5428"/>
</g>
<!-- Node47&#45;&gt;Node4 -->
<g id="edge264" class="edge"><title>Node47&#45;&gt;Node4</title>
<path fill="none" stroke="midnightblue" d="M1335.16,-355.485C1268.09,-338.317 1134.88,-301.378 1028,-254 1010.16,-246.092 1007.58,-240.472 990,-232 962.364,-218.683 929.909,-206.149 905.724,-197.379"/>
<polygon fill="midnightblue" stroke="midnightblue" points="906.827,-194.056 896.233,-193.976 904.465,-200.646 906.827,-194.056"/>
</g>
<!-- Node47&#45;&gt;Node7 -->
<g id="edge258" class="edge"><title>Node47&#45;&gt;Node7</title>
<path fill="none" stroke="midnightblue" d="M1322.33,-364.485C1168.08,-359.915 737.522,-344.534 600,-312 534.858,-296.589 498.118,-309.707 461,-254 394.033,-153.493 234.278,-252.154 654,-116 744.264,-86.719 1026.06,-74.491 1144.61,-70.5518"/>
<polygon fill="midnightblue" stroke="midnightblue" points="1145.01,-74.0408 1154.89,-70.2175 1144.78,-67.0445 1145.01,-74.0408"/>
</g>
<!-- Node47&#45;&gt;Node8 -->
<g id="edge262" class="edge"><title>Node47&#45;&gt;Node8</title>
<path fill="none" stroke="midnightblue" d="M1433.87,-356.942C1483.93,-347.693 1552.28,-331.889 1571,-312 1609.01,-271.617 1607.47,-93.473 1605.74,-31.9681"/>
<polygon fill="midnightblue" stroke="midnightblue" points="1609.23,-31.4834 1605.42,-21.5979 1602.23,-31.7026 1609.23,-31.4834"/>
</g>
<!-- Node47&#45;&gt;Node20 -->
<g id="edge266" class="edge"><title>Node47&#45;&gt;Node20</title>
<path fill="none" stroke="midnightblue" d="M1433.56,-365.177C1588.47,-362.394 2017.09,-351.195 2066,-312 2098.1,-286.278 2104.4,-234.766 2105.27,-205.875"/>
<polygon fill="midnightblue" stroke="midnightblue" points="2108.77,-205.716 2105.38,-195.679 2101.77,-205.642 2108.77,-205.716"/>
</g>
<!-- Node47&#45;&gt;Node28 -->
<g id="edge256" class="edge"><title>Node47&#45;&gt;Node28</title>
<path fill="none" stroke="midnightblue" d="M1384.6,-355.49C1394.48,-340.165 1414.22,-311.207 1435,-290 1453.17,-271.455 1464.99,-274.44 1481,-254 1506.93,-220.887 1523.95,-174.106 1532.19,-147.541"/>
<polygon fill="midnightblue" stroke="midnightblue" points="1535.59,-148.385 1535.09,-137.801 1528.88,-146.383 1535.59,-148.385"/>
</g>
<!-- Node47&#45;&gt;Node39 -->
<g id="edge190" class="edge"><title>Node47&#45;&gt;Node39</title>
<path fill="none" stroke="midnightblue" d="M1398.36,-355.412C1418.79,-344.788 1450.46,-328.318 1473.62,-316.28"/>
<polygon fill="midnightblue" stroke="midnightblue" points="1475.39,-319.302 1482.65,-311.584 1472.16,-313.092 1475.39,-319.302"/>
</g>
<!-- Node47&#45;&gt;Node40 -->
<g id="edge192" class="edge"><title>Node47&#45;&gt;Node40</title>
<path fill="none" stroke="midnightblue" d="M1378.44,-355.085C1379.28,-334.609 1381.08,-290.133 1382.16,-263.778"/>
<polygon fill="midnightblue" stroke="midnightblue" points="1385.66,-263.849 1382.56,-253.715 1378.66,-263.565 1385.66,-263.849"/>
</g>
<!-- Node47&#45;&gt;Node45 -->
<g id="edge260" class="edge"><title>Node47&#45;&gt;Node45</title>
<path fill="none" stroke="midnightblue" d="M1344.53,-355.437C1318.67,-346.332 1282.73,-331.563 1255,-312 1234.99,-297.882 1216.28,-276.865 1204.12,-261.739"/>
<polygon fill="midnightblue" stroke="midnightblue" points="1206.68,-259.327 1197.76,-253.61 1201.17,-263.642 1206.68,-259.327"/>
</g>
<!-- Node48 -->
<g id="node145" class="node"><title>Node48</title>
<a xlink:href="_tagger_hit_8h.html" target="_top" xlink:title="TaggerHit.h">
<polygon fill="white" stroke="black" points="470,-232.5 470,-253.5 538,-253.5 538,-232.5 470,-232.5"/>
<text text-anchor="middle" x="504" y="-240.5" font-family="Helvetica,sans-Serif" font-size="10.00">TaggerHit.h</text>
</a>
</g>
<!-- Node47&#45;&gt;Node48 -->
<g id="edge194" class="edge"><title>Node47&#45;&gt;Node48</title>
<path fill="none" stroke="midnightblue" d="M1322.28,-364.077C1177.49,-358.709 791.992,-341.959 668,-312 618.477,-300.034 564.69,-274.845 532.692,-258.439"/>
<polygon fill="midnightblue" stroke="midnightblue" points="533.976,-255.162 523.49,-253.653 530.747,-261.372 533.976,-255.162"/>
</g>
<!-- Node49 -->
<g id="node152" class="node"><title>Node49</title>
<a xlink:href="_trigger_info_8h.html" target="_top" xlink:title="TriggerInfo.h">
<polygon fill="white" stroke="black" points="1263.5,-290.5 1263.5,-311.5 1334.5,-311.5 1334.5,-290.5 1263.5,-290.5"/>
<text text-anchor="middle" x="1299" y="-298.5" font-family="Helvetica,sans-Serif" font-size="10.00">TriggerInfo.h</text>
</a>
</g>
<!-- Node47&#45;&gt;Node49 -->
<g id="edge206" class="edge"><title>Node47&#45;&gt;Node49</title>
<path fill="none" stroke="midnightblue" d="M1364.95,-355.267C1352.65,-345.139 1333.99,-329.792 1319.66,-318"/>
<polygon fill="midnightblue" stroke="midnightblue" points="1321.75,-315.185 1311.8,-311.534 1317.3,-320.59 1321.75,-315.185"/>
</g>
<!-- Node48&#45;&gt;Node4 -->
<g id="edge198" class="edge"><title>Node48&#45;&gt;Node4</title>
<path fill="none" stroke="midnightblue" d="M538.017,-234.843C542.702,-233.826 547.462,-232.847 552,-232 661.921,-211.494 690.452,-212.802 801,-196 811.614,-194.387 823.135,-192.574 833.668,-190.893"/>
<polygon fill="midnightblue" stroke="midnightblue" points="834.482,-194.308 843.802,-189.268 833.374,-187.396 834.482,-194.308"/>
</g>
<!-- Node48&#45;&gt;Node7 -->
<g id="edge202" class="edge"><title>Node48&#45;&gt;Node7</title>
<path fill="none" stroke="midnightblue" d="M515.849,-232.339C545.723,-206.263 627.625,-139.672 710,-116 790.535,-92.8565 1035.87,-77.5103 1144.86,-71.6579"/>
<polygon fill="midnightblue" stroke="midnightblue" points="1145.17,-75.1464 1154.97,-71.1213 1144.8,-68.1563 1145.17,-75.1464"/>
</g>
<!-- Node48&#45;&gt;Node17 -->
<g id="edge196" class="edge"><title>Node48&#45;&gt;Node17</title>
<path fill="none" stroke="midnightblue" d="M525.133,-232.295C567.943,-210.61 664.631,-161.632 709.414,-138.947"/>
<polygon fill="midnightblue" stroke="midnightblue" points="711.053,-142.041 718.392,-134.4 707.89,-135.796 711.053,-142.041"/>
</g>
<!-- Node48&#45;&gt;Node28 -->
<g id="edge200" class="edge"><title>Node48&#45;&gt;Node28</title>
<path fill="none" stroke="midnightblue" d="M525.805,-232.436C560.046,-216.432 628.934,-186.576 691,-174 1029.38,-105.434 1123.47,-172.48 1467,-138 1478.88,-136.808 1491.8,-134.97 1503.32,-133.135"/>
<polygon fill="midnightblue" stroke="midnightblue" points="1504.14,-136.547 1513.44,-131.47 1503,-129.64 1504.14,-136.547"/>
</g>
<!-- Node48&#45;&gt;Node46 -->
<g id="edge204" class="edge"><title>Node48&#45;&gt;Node46</title>
<path fill="none" stroke="midnightblue" d="M538.159,-234.813C578.215,-225.213 645.107,-209.181 692.163,-197.903"/>
<polygon fill="midnightblue" stroke="midnightblue" points="693.273,-201.236 702.182,-195.502 691.642,-194.429 693.273,-201.236"/>
</g>
<!-- Node49&#45;&gt;Node4 -->
<g id="edge254" class="edge"><title>Node49&#45;&gt;Node4</title>
<path fill="none" stroke="midnightblue" d="M1263.21,-295.969C1218.62,-289.131 1140.44,-275.264 1076,-254 1053.71,-246.646 1049.97,-240.255 1028,-232 1005.64,-223.596 945.234,-206.162 905.925,-195.051"/>
<polygon fill="midnightblue" stroke="midnightblue" points="906.753,-191.648 896.178,-192.303 904.853,-198.385 906.753,-191.648"/>
</g>
<!-- Node49&#45;&gt;Node7 -->
<g id="edge210" class="edge"><title>Node49&#45;&gt;Node7</title>
<path fill="none" stroke="midnightblue" d="M1290.61,-290.015C1278.96,-275.32 1256.62,-249.131 1233,-232 1203.07,-210.289 1177.69,-227.295 1158,-196 1152.11,-186.634 1147.46,-149.608 1160,-116 1164.02,-105.235 1171.55,-95.0805 1178.86,-86.9833"/>
<polygon fill="midnightblue" stroke="midnightblue" points="1181.53,-89.2545 1185.95,-79.6256 1176.49,-84.3967 1181.53,-89.2545"/>
</g>
<!-- Node49&#45;&gt;Node17 -->
<g id="edge252" class="edge"><title>Node49&#45;&gt;Node17</title>
<path fill="none" stroke="midnightblue" d="M1263.91,-290.446C1218.35,-276.778 1136.32,-252.301 1066,-232 1009.22,-215.61 991.69,-220.694 938,-196 921.986,-188.634 921.042,-181.306 905,-174 855.176,-151.308 792.102,-137.537 757.865,-131.192"/>
<polygon fill="midnightblue" stroke="midnightblue" points="758.277,-127.71 747.816,-129.391 757.042,-134.6 758.277,-127.71"/>
</g>
<!-- Node49&#45;&gt;Node28 -->
<g id="edge208" class="edge"><title>Node49&#45;&gt;Node28</title>
<path fill="none" stroke="midnightblue" d="M1334.66,-298.245C1369.31,-293.903 1421.71,-282.731 1457,-254 1488.3,-228.512 1477.66,-207.619 1500,-174 1506.53,-164.168 1514.66,-153.901 1521.72,-145.48"/>
<polygon fill="midnightblue" stroke="midnightblue" points="1524.49,-147.632 1528.33,-137.759 1519.17,-143.082 1524.49,-147.632"/>
</g>
<!-- Node50 -->
<g id="node156" class="node"><title>Node50</title>
<a xlink:href="_t_data_record_8h.html" target="_top" xlink:title="tree/TDataRecord.h">
<polygon fill="white" stroke="black" points="2549.5,-232.5 2549.5,-253.5 2652.5,-253.5 2652.5,-232.5 2549.5,-232.5"/>
<text text-anchor="middle" x="2601" y="-240.5" font-family="Helvetica,sans-Serif" font-size="10.00">tree/TDataRecord.h</text>
</a>
</g>
<!-- Node49&#45;&gt;Node50 -->
<g id="edge212" class="edge"><title>Node49&#45;&gt;Node50</title>
<path fill="none" stroke="midnightblue" d="M1334.76,-297.658C1362.17,-295.205 1400.95,-291.971 1435,-290 1892.29,-263.529 2007.71,-280.471 2465,-254 2489.31,-252.593 2516.02,-250.542 2539.29,-248.592"/>
<polygon fill="midnightblue" stroke="midnightblue" points="2539.71,-252.069 2549.37,-247.735 2539.11,-245.094 2539.71,-252.069"/>
</g>
<!-- Node50&#45;&gt;Node33 -->
<g id="edge246" class="edge"><title>Node50&#45;&gt;Node33</title>
<path fill="none" stroke="midnightblue" d="M2580.25,-232.476C2566.81,-224.451 2550.31,-212.047 2542,-196 2534.33,-181.204 2533.81,-162.155 2534.93,-147.822"/>
<polygon fill="midnightblue" stroke="midnightblue" points="2538.45,-147.836 2536.08,-137.51 2531.5,-147.06 2538.45,-147.836"/>
</g>
<!-- Node51 -->
<g id="node158" class="node"><title>Node51</title>
<a xlink:href="_t_i_d_8h.html" target="_top" xlink:title="TID.h">
<polygon fill="white" stroke="black" points="2370.5,-174.5 2370.5,-195.5 2411.5,-195.5 2411.5,-174.5 2370.5,-174.5"/>
<text text-anchor="middle" x="2391" y="-182.5" font-family="Helvetica,sans-Serif" font-size="10.00">TID.h</text>
</a>
</g>
<!-- Node50&#45;&gt;Node51 -->
<g id="edge214" class="edge"><title>Node50&#45;&gt;Node51</title>
<path fill="none" stroke="midnightblue" d="M2562.97,-232.497C2522.35,-221.277 2458.77,-203.718 2421.36,-193.386"/>
<polygon fill="midnightblue" stroke="midnightblue" points="2422.12,-189.964 2411.55,-190.675 2420.26,-196.711 2422.12,-189.964"/>
</g>
<!-- Node56 -->
<g id="node172" class="node"><title>Node56</title>
<polygon fill="white" stroke="#bfbfbf" points="2460.5,-58.5 2460.5,-79.5 2501.5,-79.5 2501.5,-58.5 2460.5,-58.5"/>
<text text-anchor="middle" x="2481" y="-66.5" font-family="Helvetica,sans-Serif" font-size="10.00">ctime</text>
</g>
<!-- Node50&#45;&gt;Node56 -->
<g id="edge250" class="edge"><title>Node50&#45;&gt;Node56</title>
<path fill="none" stroke="midnightblue" d="M2580.32,-232.449C2565.48,-224.098 2545.75,-211.312 2532,-196 2504.23,-165.084 2490.6,-117.131 2484.75,-89.8524"/>
<polygon fill="midnightblue" stroke="midnightblue" points="2488.15,-88.977 2482.76,-79.8531 2481.28,-90.3441 2488.15,-88.977"/>
</g>
<!-- Node58 -->
<g id="node179" class="node"><title>Node58</title>
<polygon fill="white" stroke="#bfbfbf" points="2157,-116.5 2157,-137.5 2207,-137.5 2207,-116.5 2157,-116.5"/>
<text text-anchor="middle" x="2182" y="-124.5" font-family="Helvetica,sans-Serif" font-size="10.00">iomanip</text>
</g>
<!-- Node50&#45;&gt;Node58 -->
<g id="edge248" class="edge"><title>Node50&#45;&gt;Node58</title>
<path fill="none" stroke="midnightblue" d="M2549.38,-233.922C2490.05,-223.3 2396.44,-205.908 2362,-196 2309.52,-180.903 2250.82,-157.022 2215.14,-141.686"/>
<polygon fill="midnightblue" stroke="midnightblue" points="2216.28,-138.365 2205.72,-137.601 2213.5,-144.788 2216.28,-138.365"/>
</g>
<!-- Node51&#45;&gt;Node7 -->
<g id="edge218" class="edge"><title>Node51&#45;&gt;Node7</title>
<path fill="none" stroke="midnightblue" d="M2370.1,-179.969C2341.79,-172.738 2290.08,-158.037 2249,-138 2233.16,-130.272 2232.77,-121.436 2216,-116 2020.52,-52.6347 1496.87,-95.9538 1292,-80 1278.94,-78.9834 1264.91,-77.5336 1251.77,-76.019"/>
<polygon fill="midnightblue" stroke="midnightblue" points="1251.8,-72.4983 1241.45,-74.7975 1250.97,-79.4496 1251.8,-72.4983"/>
</g>
<!-- Node51&#45;&gt;Node11 -->
<g id="edge238" class="edge"><title>Node51&#45;&gt;Node11</title>
<path fill="none" stroke="midnightblue" d="M2387.07,-174.251C2381,-159.095 2367.91,-131.56 2348,-116 2315.13,-90.3028 2267.74,-78.4306 2236.19,-73.1017"/>
<polygon fill="midnightblue" stroke="midnightblue" points="2236.56,-69.6174 2226.14,-71.5348 2235.48,-76.5338 2236.56,-69.6174"/>
</g>
<!-- Node51&#45;&gt;Node12 -->
<g id="edge240" class="edge"><title>Node51&#45;&gt;Node12</title>
<path fill="none" stroke="midnightblue" d="M2392.29,-174.295C2394.6,-155.131 2399.49,-114.654 2402.48,-89.8434"/>
<polygon fill="midnightblue" stroke="midnightblue" points="2405.99,-90.0266 2403.71,-79.6792 2399.04,-89.1878 2405.99,-90.0266"/>
</g>
<!-- Node51&#45;&gt;Node13 -->
<g id="edge234" class="edge"><title>Node51&#45;&gt;Node13</title>
<path fill="none" stroke="midnightblue" d="M2370.44,-175.455C2350.35,-166.081 2318.96,-151.294 2292,-138 2272.75,-128.507 2269.72,-121.613 2249,-116 2172.11,-95.1695 1613.42,-75.5134 1455.48,-70.3263"/>
<polygon fill="midnightblue" stroke="midnightblue" points="1455.35,-66.8202 1445.24,-69.9918 1455.12,-73.8165 1455.35,-66.8202"/>
</g>
<!-- Node51&#45;&gt;Node33 -->
<g id="edge216" class="edge"><title>Node51&#45;&gt;Node33</title>
<path fill="none" stroke="midnightblue" d="M2411.75,-176.813C2435.11,-167.595 2473.5,-152.448 2501.83,-141.273"/>
<polygon fill="midnightblue" stroke="midnightblue" points="2503.37,-144.428 2511.38,-137.502 2500.8,-137.916 2503.37,-144.428"/>
</g>
<!-- Node52 -->
<g id="node162" class="node"><title>Node52</title>
<a xlink:href="time_8h.html" target="_top" xlink:title="base/std_ext/time.h">
<polygon fill="white" stroke="black" points="2911.5,-116.5 2911.5,-137.5 3014.5,-137.5 3014.5,-116.5 2911.5,-116.5"/>
<text text-anchor="middle" x="2963" y="-124.5" font-family="Helvetica,sans-Serif" font-size="10.00">base/std_ext/time.h</text>
</a>
</g>
<!-- Node51&#45;&gt;Node52 -->
<g id="edge220" class="edge"><title>Node51&#45;&gt;Node52</title>
<path fill="none" stroke="midnightblue" d="M2411.7,-182.901C2490.59,-174.901 2774.43,-146.12 2901.15,-133.271"/>
<polygon fill="midnightblue" stroke="midnightblue" points="2901.86,-136.717 2911.46,-132.226 2901.16,-129.753 2901.86,-136.717"/>
</g>
<!-- Node51&#45;&gt;Node56 -->
<g id="edge244" class="edge"><title>Node51&#45;&gt;Node56</title>
<path fill="none" stroke="midnightblue" d="M2399.31,-174.295C2414.58,-154.613 2447.29,-112.45 2466.36,-87.8668"/>
<polygon fill="midnightblue" stroke="midnightblue" points="2469.35,-89.7256 2472.71,-79.6792 2463.82,-85.4346 2469.35,-89.7256"/>
</g>
<!-- Node57 -->
<g id="node175" class="node"><title>Node57</title>
<polygon fill="white" stroke="#bfbfbf" points="2301,-116.5 2301,-137.5 2339,-137.5 2339,-116.5 2301,-116.5"/>
<text text-anchor="middle" x="2320" y="-124.5" font-family="Helvetica,sans-Serif" font-size="10.00">tuple</text>
</g>
<!-- Node51&#45;&gt;Node57 -->
<g id="edge236" class="edge"><title>Node51&#45;&gt;Node57</title>
<path fill="none" stroke="midnightblue" d="M2377.98,-174.362C2367.57,-165.859 2352.78,-153.779 2340.74,-143.947"/>
<polygon fill="midnightblue" stroke="midnightblue" points="2342.9,-141.187 2332.94,-137.571 2338.47,-146.608 2342.9,-141.187"/>
</g>
<!-- Node51&#45;&gt;Node58 -->
<g id="edge242" class="edge"><title>Node51&#45;&gt;Node58</title>
<path fill="none" stroke="midnightblue" d="M2370.32,-179.319C2338.3,-170.517 2274.82,-153.031 2221,-138 2219.74,-137.649 2218.46,-137.291 2217.17,-136.928"/>
<polygon fill="midnightblue" stroke="midnightblue" points="2217.74,-133.455 2207.17,-134.12 2215.85,-140.194 2217.74,-133.455"/>
</g>
<!-- Node53 -->
<g id="node164" class="node"><title>Node53</title>
<a xlink:href="string_8h.html" target="_top" xlink:title="base/std_ext/string.h">
<polygon fill="white" stroke="black" points="3400,-58.5 3400,-79.5 3508,-79.5 3508,-58.5 3400,-58.5"/>
<text text-anchor="middle" x="3454" y="-66.5" font-family="Helvetica,sans-Serif" font-size="10.00">base/std_ext/string.h</text>
</a>
</g>
<!-- Node52&#45;&gt;Node53 -->
<g id="edge222" class="edge"><title>Node52&#45;&gt;Node53</title>
<path fill="none" stroke="midnightblue" d="M3014.62,-120.903C3104.86,-110.242 3291.07,-88.2459 3389.6,-76.6071"/>
<polygon fill="midnightblue" stroke="midnightblue" points="3390.2,-80.0603 3399.72,-75.4113 3389.38,-73.1087 3390.2,-80.0603"/>
</g>
<!-- Node55 -->
<g id="node170" class="node"><title>Node55</title>
<polygon fill="white" stroke="#bfbfbf" points="2940,-58.5 2940,-79.5 2986,-79.5 2986,-58.5 2940,-58.5"/>
<text text-anchor="middle" x="2963" y="-66.5" font-family="Helvetica,sans-Serif" font-size="10.00">cstring</text>
</g>
<!-- Node52&#45;&gt;Node55 -->
<g id="edge230" class="edge"><title>Node52&#45;&gt;Node55</title>
<path fill="none" stroke="midnightblue" d="M2963,-116.362C2963,-108.922 2963,-98.7427 2963,-89.7276"/>
<polygon fill="midnightblue" stroke="midnightblue" points="2966.5,-89.5706 2963,-79.5707 2959.5,-89.5707 2966.5,-89.5706"/>
</g>
<!-- Node52&#45;&gt;Node56 -->
<g id="edge232" class="edge"><title>Node52&#45;&gt;Node56</title>
<path fill="none" stroke="midnightblue" d="M2911.42,-120.793C2811.01,-108.711 2592.11,-82.3697 2511.55,-72.6759"/>
<polygon fill="midnightblue" stroke="midnightblue" points="2511.9,-69.1935 2501.56,-71.4736 2511.07,-76.1434 2511.9,-69.1935"/>
</g>
<!-- Node53&#45;&gt;Node3 -->
<g id="edge224" class="edge"><title>Node53&#45;&gt;Node3</title>
<path fill="none" stroke="midnightblue" d="M3399.88,-59.4874C3329.96,-47.1994 3210.61,-26.2232 3154.66,-16.3884"/>
<polygon fill="midnightblue" stroke="midnightblue" points="3155.11,-12.9149 3144.66,-14.631 3153.9,-19.8093 3155.11,-12.9149"/>
</g>
<!-- Node53&#45;&gt;Node27 -->
<g id="edge228" class="edge"><title>Node53&#45;&gt;Node27</title>
<path fill="none" stroke="midnightblue" d="M3460.6,-58.3619C3465.47,-50.5131 3472.24,-39.6159 3478.05,-30.2527"/>
<polygon fill="midnightblue" stroke="midnightblue" points="3481.14,-31.9129 3483.44,-21.5707 3475.19,-28.2213 3481.14,-31.9129"/>
</g>
<!-- Node54 -->
<g id="node167" class="node"><title>Node54</title>
<polygon fill="white" stroke="#bfbfbf" points="3392,-0.5 3392,-21.5 3444,-21.5 3444,-0.5 3392,-0.5"/>
<text text-anchor="middle" x="3418" y="-8.5" font-family="Helvetica,sans-Serif" font-size="10.00">sstream</text>
</g>
<!-- Node53&#45;&gt;Node54 -->
<g id="edge226" class="edge"><title>Node53&#45;&gt;Node54</title>
<path fill="none" stroke="midnightblue" d="M3447.4,-58.3619C3442.53,-50.5131 3435.76,-39.6159 3429.95,-30.2527"/>
<polygon fill="midnightblue" stroke="midnightblue" points="3432.81,-28.2213 3424.56,-21.5707 3426.86,-31.9129 3432.81,-28.2213"/>
</g>
<!-- Node59&#45;&gt;Node8 -->
<g id="edge270" class="edge"><title>Node59&#45;&gt;Node8</title>
<path fill="none" stroke="midnightblue" d="M2038.01,-116.415C1992.6,-102.059 1908.13,-76.1294 1835,-58 1764.87,-40.6138 1681.57,-24.7675 1636.97,-16.6666"/>
<polygon fill="midnightblue" stroke="midnightblue" points="1637.48,-13.2022 1627.02,-14.8708 1636.24,-20.0909 1637.48,-13.2022"/>
</g>
<!-- Node59&#45;&gt;Node11 -->
<g id="edge272" class="edge"><title>Node59&#45;&gt;Node11</title>
<path fill="none" stroke="midnightblue" d="M2094.9,-116.497C2116.06,-107.201 2147.12,-93.5526 2170.53,-83.2692"/>
<polygon fill="midnightblue" stroke="midnightblue" points="2171.97,-86.4576 2179.72,-79.2305 2169.15,-80.049 2171.97,-86.4576"/>
</g>
<!-- Node60&#45;&gt;Node3 -->
<g id="edge276" class="edge"><title>Node60&#45;&gt;Node3</title>
<path fill="none" stroke="midnightblue" d="M1973.2,-232.317C1969.82,-208.418 1965.23,-150.065 1994,-116 2047.41,-52.755 2089.6,-73.0621 2171,-58 2353.96,-24.1454 2949.68,-13.5149 3092.85,-11.4188"/>
<polygon fill="midnightblue" stroke="midnightblue" points="3093.16,-14.9149 3103.1,-11.2721 3093.06,-7.91565 3093.16,-14.9149"/>
</g>
<!-- Node60&#45;&gt;Node4 -->
<g id="edge278" class="edge"><title>Node60&#45;&gt;Node4</title>
<path fill="none" stroke="midnightblue" d="M1925.91,-233.804C1921.22,-233.114 1916.53,-232.495 1912,-232 1810.51,-220.896 1079.14,-192.88 906.462,-186.367"/>
<polygon fill="midnightblue" stroke="midnightblue" points="906.486,-182.866 896.361,-185.987 906.223,-189.861 906.486,-182.866"/>
</g>
<!-- Node60&#45;&gt;Node20 -->
<g id="edge280" class="edge"><title>Node60&#45;&gt;Node20</title>
<path fill="none" stroke="midnightblue" d="M1998.54,-232.497C2020.95,-222.499 2054.64,-207.468 2078.1,-197.002"/>
<polygon fill="midnightblue" stroke="midnightblue" points="2079.76,-200.095 2087.46,-192.824 2076.9,-193.703 2079.76,-200.095"/>
</g>
<!-- Node61&#45;&gt;Node3 -->
<g id="edge304" class="edge"><title>Node61&#45;&gt;Node3</title>
<path fill="none" stroke="midnightblue" d="M2995.2,-348.987C3060.94,-307.825 3223.78,-205.534 3234,-196 3257.46,-174.109 3266.94,-168.471 3277,-138 3297.41,-76.2061 3204.8,-36.5535 3154.55,-19.9413"/>
<polygon fill="midnightblue" stroke="midnightblue" points="3155.41,-16.5418 3144.82,-16.8363 3153.28,-23.2105 3155.41,-16.5418"/>
</g>
<!-- Node61&#45;&gt;Node17 -->
<g id="edge306" class="edge"><title>Node61&#45;&gt;Node17</title>
<path fill="none" stroke="midnightblue" d="M2966.04,-348.868C2960.42,-309.007 2940.22,-210.657 2875,-174 2833.73,-150.804 1218.33,-139.094 1171,-138 1013.93,-134.368 825.186,-129.436 758.132,-127.666"/>
<polygon fill="midnightblue" stroke="midnightblue" points="757.835,-124.157 747.746,-127.392 757.65,-131.155 757.835,-124.157"/>
</g>
<!-- Node61&#45;&gt;Node26 -->
<g id="edge296" class="edge"><title>Node61&#45;&gt;Node26</title>
<path fill="none" stroke="midnightblue" d="M2978.16,-348.972C2998.22,-315.348 3042.83,-240.594 3064.17,-204.821"/>
<polygon fill="midnightblue" stroke="midnightblue" points="3067.42,-206.213 3069.54,-195.832 3061.41,-202.626 3067.42,-206.213"/>
</g>
<!-- Node62 -->
<g id="node211" class="node"><title>Node62</title>
<a xlink:href="_t_header_info_8h.html" target="_top" xlink:title="tree/THeaderInfo.h">
<polygon fill="white" stroke="black" points="2842,-290.5 2842,-311.5 2940,-311.5 2940,-290.5 2842,-290.5"/>
<text text-anchor="middle" x="2891" y="-298.5" font-family="Helvetica,sans-Serif" font-size="10.00">tree/THeaderInfo.h</text>
</a>
</g>
<!-- Node61&#45;&gt;Node62 -->
<g id="edge298" class="edge"><title>Node61&#45;&gt;Node62</title>
<path fill="none" stroke="midnightblue" d="M2947.77,-348.922C2936.69,-339.57 2922.99,-328.001 2911.82,-318.572"/>
<polygon fill="midnightblue" stroke="midnightblue" points="2913.75,-315.628 2903.86,-311.852 2909.24,-320.977 2913.75,-315.628"/>
</g>
<!-- Node62&#45;&gt;Node50 -->
<g id="edge300" class="edge"><title>Node62&#45;&gt;Node50</title>
<path fill="none" stroke="midnightblue" d="M2841.81,-291.161C2792.47,-281.293 2716.34,-266.068 2662.92,-255.384"/>
<polygon fill="midnightblue" stroke="midnightblue" points="2663.38,-251.906 2652.89,-253.377 2662,-258.77 2663.38,-251.906"/>
</g>
<!-- Node62&#45;&gt;Node52 -->
<g id="edge302" class="edge"><title>Node62&#45;&gt;Node52</title>
<path fill="none" stroke="midnightblue" d="M2910.96,-290.312C2937.7,-276.177 2986.79,-250.858 3030,-232 3071.38,-213.94 3099.35,-233.156 3125,-196 3153.02,-155.419 3081.4,-138.583 3024.59,-131.681"/>
<polygon fill="midnightblue" stroke="midnightblue" points="3024.87,-128.191 3014.54,-130.542 3024.08,-135.146 3024.87,-128.191"/>
</g>
</g>
</svg>
