<?xml version="1.0" encoding="UTF-8" standalone="no"?>
<!DOCTYPE svg PUBLIC "-//W3C//DTD SVG 1.1//EN"
 "http://www.w3.org/Graphics/SVG/1.1/DTD/svg11.dtd">
<!-- Generated by graphviz version 2.26.3 (20100126.1600)
 -->
<!-- Title: src/unpacker/Unpacker.cc Pages: 1 -->
<svg width="3840pt" height="682pt"
 viewBox="0.00 0.00 3840.00 682.00" xmlns="http://www.w3.org/2000/svg" xmlns:xlink="http://www.w3.org/1999/xlink">
<g id="graph1" class="graph" transform="scale(1 1) rotate(0) translate(4 678)">
<title>src/unpacker/Unpacker.cc</title>
<polygon fill="white" stroke="white" points="-4,5 -4,-678 3837,-678 3837,5 -4,5"/>
<!-- Node1 -->
<g id="node1" class="node"><title>Node1</title>
<polygon fill="#bfbfbf" stroke="black" points="2448.5,-652.5 2448.5,-673.5 2579.5,-673.5 2579.5,-652.5 2448.5,-652.5"/>
<text text-anchor="middle" x="2514" y="-660.5" font-family="Helvetica,sans-Serif" font-size="10.00">src/unpacker/Unpacker.cc</text>
</g>
<!-- Node2 -->
<g id="node3" class="node"><title>Node2</title>
<a xlink:href="_unpacker_8h.html" target="_top" xlink:title="Unpacker.h">
<polygon fill="white" stroke="black" points="2459.5,-536.5 2459.5,-557.5 2526.5,-557.5 2526.5,-536.5 2459.5,-536.5"/>
<text text-anchor="middle" x="2493" y="-544.5" font-family="Helvetica,sans-Serif" font-size="10.00">Unpacker.h</text>
</a>
</g>
<!-- Node1&#45;&gt;Node2 -->
<g id="edge2" class="edge"><title>Node1&#45;&gt;Node2</title>
<path fill="none" stroke="midnightblue" d="M2507.62,-652.242C2502.53,-642.994 2495.8,-629.111 2493,-616 2489.64,-600.257 2489.81,-582.03 2490.73,-568.264"/>
<polygon fill="midnightblue" stroke="midnightblue" points="2494.25,-568.165 2491.61,-557.903 2487.27,-567.569 2494.25,-568.165"/>
</g>
<!-- Node5 -->
<g id="node9" class="node"><title>Node5</title>
<a xlink:href="_unpacker_acqu_8h.html" target="_top" xlink:title="UnpackerAcqu.h">
<polygon fill="white" stroke="black" points="678.5,-594.5 678.5,-615.5 767.5,-615.5 767.5,-594.5 678.5,-594.5"/>
<text text-anchor="middle" x="723" y="-602.5" font-family="Helvetica,sans-Serif" font-size="10.00">UnpackerAcqu.h</text>
</a>
</g>
<!-- Node1&#45;&gt;Node5 -->
<g id="edge8" class="edge"><title>Node1&#45;&gt;Node5</title>
<path fill="none" stroke="midnightblue" d="M2448.4,-660.876C2163.93,-651.663 1039.59,-615.253 777.718,-606.772"/>
<polygon fill="midnightblue" stroke="midnightblue" points="777.797,-603.273 767.689,-606.447 777.57,-610.269 777.797,-603.273"/>
</g>
<!-- Node28 -->
<g id="node68" class="node"><title>Node28</title>
<polygon fill="white" stroke="#bfbfbf" points="3529,-0.5 3529,-21.5 3585,-21.5 3585,-0.5 3529,-0.5"/>
<text text-anchor="middle" x="3557" y="-8.5" font-family="Helvetica,sans-Serif" font-size="10.00">algorithm</text>
</g>
<!-- Node1&#45;&gt;Node28 -->
<g id="edge362" class="edge"><title>Node1&#45;&gt;Node28</title>
<path fill="none" stroke="midnightblue" d="M2579.75,-659.991C2827.41,-648.229 3690,-603.226 3690,-547 3690,-547 3690,-547 3690,-127 3690,-76.1587 3634.12,-42.4895 3594.8,-25.0919"/>
<polygon fill="midnightblue" stroke="midnightblue" points="3595.78,-21.7045 3585.21,-21.0188 3593.04,-28.148 3595.78,-21.7045"/>
</g>
<!-- Node38 -->
<g id="node99" class="node"><title>Node38</title>
<polygon fill="white" stroke="#bfbfbf" points="2388,-232.5 2388,-253.5 2442,-253.5 2442,-232.5 2388,-232.5"/>
<text text-anchor="middle" x="2415" y="-240.5" font-family="Helvetica,sans-Serif" font-size="10.00">iostream</text>
</g>
<!-- Node1&#45;&gt;Node38 -->
<g id="edge364" class="edge"><title>Node1&#45;&gt;Node38</title>
<path fill="none" stroke="midnightblue" d="M2499.34,-652.313C2475.75,-633.757 2432,-593.119 2432,-547 2432,-547 2432,-547 2432,-366 2432,-329.733 2424.66,-288.014 2419.62,-263.67"/>
<polygon fill="midnightblue" stroke="midnightblue" points="2423.02,-262.835 2417.51,-253.79 2416.18,-264.301 2423.02,-262.835"/>
</g>
<!-- Node64 -->
<g id="node232" class="node"><title>Node64</title>
<a xlink:href="_unpacker_a2_geant_8h.html" target="_top" xlink:title="UnpackerA2Geant.h">
<polygon fill="white" stroke="black" points="2501.5,-594.5 2501.5,-615.5 2606.5,-615.5 2606.5,-594.5 2501.5,-594.5"/>
<text text-anchor="middle" x="2554" y="-602.5" font-family="Helvetica,sans-Serif" font-size="10.00">UnpackerA2Geant.h</text>
</a>
</g>
<!-- Node1&#45;&gt;Node64 -->
<g id="edge336" class="edge"><title>Node1&#45;&gt;Node64</title>
<path fill="none" stroke="midnightblue" d="M2521.34,-652.362C2526.81,-644.431 2534.42,-633.389 2540.92,-623.961"/>
<polygon fill="midnightblue" stroke="midnightblue" points="2543.91,-625.79 2546.71,-615.571 2538.15,-621.816 2543.91,-625.79"/>
</g>
<!-- Node65 -->
<g id="node244" class="node"><title>Node65</title>
<a xlink:href="_logger_8h.html" target="_top" xlink:title="base/Logger.h">
<polygon fill="white" stroke="black" points="3727,-594.5 3727,-615.5 3805,-615.5 3805,-594.5 3727,-594.5"/>
<text text-anchor="middle" x="3766" y="-602.5" font-family="Helvetica,sans-Serif" font-size="10.00">base/Logger.h</text>
</a>
</g>
<!-- Node1&#45;&gt;Node65 -->
<g id="edge358" class="edge"><title>Node1&#45;&gt;Node65</title>
<path fill="none" stroke="midnightblue" d="M2579.54,-661.588C2795.47,-656.753 3483.28,-639.827 3704,-616 3708.16,-615.551 3712.46,-614.991 3716.76,-614.363"/>
<polygon fill="midnightblue" stroke="midnightblue" points="3717.42,-617.802 3726.76,-612.793 3716.34,-610.887 3717.42,-617.802"/>
</g>
<!-- Node3 -->
<g id="node5" class="node"><title>Node3</title>
<polygon fill="white" stroke="#bfbfbf" points="3289.5,-0.5 3289.5,-21.5 3330.5,-21.5 3330.5,-0.5 3289.5,-0.5"/>
<text text-anchor="middle" x="3310" y="-8.5" font-family="Helvetica,sans-Serif" font-size="10.00">string</text>
</g>
<!-- Node2&#45;&gt;Node3 -->
<g id="edge4" class="edge"><title>Node2&#45;&gt;Node3</title>
<path fill="none" stroke="midnightblue" d="M2526.7,-543.801C2683.64,-528.593 3343.2,-461.129 3534,-384 3593.45,-359.97 3652,-365.119 3652,-301 3652,-301 3652,-301 3652,-243 3652,-184.209 3650.39,-162.948 3615,-116 3585.91,-77.4005 3567.71,-76.3696 3523,-58 3461,-32.5269 3382.91,-19.8103 3340.62,-14.3876"/>
<polygon fill="midnightblue" stroke="midnightblue" points="3341.02,-10.911 3330.67,-13.1628 3340.17,-17.8585 3341.02,-10.911"/>
</g>
<!-- Node4 -->
<g id="node7" class="node"><title>Node4</title>
<polygon fill="white" stroke="#bfbfbf" points="1047,-174.5 1047,-195.5 1099,-195.5 1099,-174.5 1047,-174.5"/>
<text text-anchor="middle" x="1073" y="-182.5" font-family="Helvetica,sans-Serif" font-size="10.00">memory</text>
</g>
<!-- Node2&#45;&gt;Node4 -->
<g id="edge6" class="edge"><title>Node2&#45;&gt;Node4</title>
<path fill="none" stroke="midnightblue" d="M2459.06,-545.359C2316.82,-537.85 1755.57,-501.901 1312,-384 1229.13,-361.973 1204.12,-359.899 1133,-312 1103.28,-291.984 1091.38,-286.821 1077,-254 1070.39,-238.91 1069.72,-220.159 1070.52,-206.015"/>
<polygon fill="midnightblue" stroke="midnightblue" points="1074.03,-206.078 1071.39,-195.817 1067.05,-205.482 1074.03,-206.078"/>
</g>
<!-- Node5&#45;&gt;Node2 -->
<g id="edge10" class="edge"><title>Node5&#45;&gt;Node2</title>
<path fill="none" stroke="midnightblue" d="M767.508,-604.367C999.861,-600.97 2075.58,-584.078 2408,-558 2421.34,-556.953 2435.81,-555.284 2448.95,-553.559"/>
<polygon fill="midnightblue" stroke="midnightblue" points="2449.73,-556.986 2459.16,-552.174 2448.79,-550.049 2449.73,-556.986"/>
</g>
<!-- Node5&#45;&gt;Node4 -->
<g id="edge324" class="edge"><title>Node5&#45;&gt;Node4</title>
<path fill="none" stroke="midnightblue" d="M713.588,-594.346C697.398,-574.881 666,-531.634 666,-489 666,-489 666,-489 666,-366 666,-300.379 675.225,-271 728,-232 752.563,-213.848 953.372,-195.063 1036.83,-187.959"/>
<polygon fill="midnightblue" stroke="midnightblue" points="1037.2,-191.44 1046.87,-187.112 1036.62,-184.465 1037.2,-191.44"/>
</g>
<!-- Node6 -->
<g id="node12" class="node"><title>Node6</title>
<a xlink:href="_exp_config_8h.html" target="_top" xlink:title="expconfig/ExpConfig.h">
<polygon fill="white" stroke="black" points="923,-536.5 923,-557.5 1039,-557.5 1039,-536.5 923,-536.5"/>
<text text-anchor="middle" x="981" y="-544.5" font-family="Helvetica,sans-Serif" font-size="10.00">expconfig/ExpConfig.h</text>
</a>
</g>
<!-- Node5&#45;&gt;Node6 -->
<g id="edge12" class="edge"><title>Node5&#45;&gt;Node6</title>
<path fill="none" stroke="midnightblue" d="M767.646,-594.963C811.046,-585.207 877.13,-570.351 924.242,-559.76"/>
<polygon fill="midnightblue" stroke="midnightblue" points="925.3,-563.109 934.289,-557.501 923.765,-556.279 925.3,-563.109"/>
</g>
<!-- Node7 -->
<g id="node14" class="node"><title>Node7</title>
<a xlink:href="_detector__t_8h.html" target="_top" xlink:title="base/Detector_t.h">
<polygon fill="white" stroke="black" points="514.5,-116.5 514.5,-137.5 609.5,-137.5 609.5,-116.5 514.5,-116.5"/>
<text text-anchor="middle" x="562" y="-124.5" font-family="Helvetica,sans-Serif" font-size="10.00">base/Detector_t.h</text>
</a>
</g>
<!-- Node5&#45;&gt;Node7 -->
<g id="edge322" class="edge"><title>Node5&#45;&gt;Node7</title>
<path fill="none" stroke="midnightblue" d="M678.473,-600.032C550.372,-585.145 190,-538.836 190,-489 190,-489 190,-489 190,-301 190,-238.189 199.14,-207.928 252,-174 292.718,-147.865 426.369,-135.363 504.252,-130.163"/>
<polygon fill="midnightblue" stroke="midnightblue" points="504.639,-133.645 514.391,-129.506 504.186,-126.66 504.639,-133.645"/>
</g>
<!-- Node9 -->
<g id="node18" class="node"><title>Node9</title>
<polygon fill="white" stroke="#bfbfbf" points="465,-0.5 465,-21.5 509,-21.5 509,-0.5 465,-0.5"/>
<text text-anchor="middle" x="487" y="-8.5" font-family="Helvetica,sans-Serif" font-size="10.00">vector</text>
</g>
<!-- Node5&#45;&gt;Node9 -->
<g id="edge330" class="edge"><title>Node5&#45;&gt;Node9</title>
<path fill="none" stroke="midnightblue" d="M678.239,-604.335C534.985,-601.874 93.9744,-591.619 40,-558 9.91222,-539.259 0,-524.447 0,-489 0,-489 0,-489 0,-127 0,-33.2139 346.104,-15.1157 454.765,-11.7448"/>
<polygon fill="midnightblue" stroke="midnightblue" points="454.914,-15.242 464.809,-11.4547 454.712,-8.24493 454.914,-15.242"/>
</g>
<!-- Node12 -->
<g id="node24" class="node"><title>Node12</title>
<polygon fill="white" stroke="#bfbfbf" points="270,-58.5 270,-79.5 316,-79.5 316,-58.5 270,-58.5"/>
<text text-anchor="middle" x="293" y="-66.5" font-family="Helvetica,sans-Serif" font-size="10.00">cstdint</text>
</g>
<!-- Node5&#45;&gt;Node12 -->
<g id="edge332" class="edge"><title>Node5&#45;&gt;Node12</title>
<path fill="none" stroke="midnightblue" d="M678.426,-604.631C537.933,-603.086 110.753,-595.334 62,-558 36.2215,-538.259 38,-521.469 38,-489 38,-489 38,-489 38,-301 38,-268.531 42.9544,-258.296 62,-232 86.9241,-197.587 100.365,-193.725 138,-174 183.936,-149.925 207.977,-169.732 249,-138 265.501,-125.236 277.549,-104.414 284.823,-88.9769"/>
<polygon fill="midnightblue" stroke="midnightblue" points="288.06,-90.3095 288.912,-79.7489 281.661,-87.4732 288.06,-90.3095"/>
</g>
<!-- Node18 -->
<g id="node40" class="node"><title>Node18</title>
<polygon fill="white" stroke="#bfbfbf" points="1679.5,-116.5 1679.5,-137.5 1708.5,-137.5 1708.5,-116.5 1679.5,-116.5"/>
<text text-anchor="middle" x="1694" y="-124.5" font-family="Helvetica,sans-Serif" font-size="10.00">list</text>
</g>
<!-- Node5&#45;&gt;Node18 -->
<g id="edge326" class="edge"><title>Node5&#45;&gt;Node18</title>
<path fill="none" stroke="midnightblue" d="M729.618,-594.332C738.844,-579.995 756.631,-554.21 776,-536 809.588,-504.421 820.787,-498.663 862,-478 1147.96,-334.629 1266.77,-410.064 1546,-254 1574.06,-238.315 1641.93,-176.013 1675.11,-144.888"/>
<polygon fill="midnightblue" stroke="midnightblue" points="1677.87,-147.098 1682.75,-137.694 1673.07,-142.001 1677.87,-147.098"/>
</g>
<!-- Node21 -->
<g id="node51" class="node"><title>Node21</title>
<polygon fill="white" stroke="#bfbfbf" points="1952.5,-174.5 1952.5,-195.5 1987.5,-195.5 1987.5,-174.5 1952.5,-174.5"/>
<text text-anchor="middle" x="1970" y="-182.5" font-family="Helvetica,sans-Serif" font-size="10.00">map</text>
</g>
<!-- Node5&#45;&gt;Node21 -->
<g id="edge328" class="edge"><title>Node5&#45;&gt;Node21</title>
<path fill="none" stroke="midnightblue" d="M734.777,-594.185C763.04,-568.935 837.948,-506.118 913,-478 1220.16,-362.923 1325.5,-458.228 1645,-384 1741.52,-361.576 1773.34,-366.639 1856,-312 1879.27,-296.618 1929.98,-235.156 1955.18,-203.722"/>
<polygon fill="midnightblue" stroke="midnightblue" points="1958.07,-205.716 1961.57,-195.716 1952.59,-201.351 1958.07,-205.716"/>
</g>
<!-- Node30 -->
<g id="node74" class="node"><title>Node30</title>
<polygon fill="white" stroke="#bfbfbf" points="3566,-116.5 3566,-137.5 3606,-137.5 3606,-116.5 3566,-116.5"/>
<text text-anchor="middle" x="3586" y="-124.5" font-family="Helvetica,sans-Serif" font-size="10.00">limits</text>
</g>
<!-- Node5&#45;&gt;Node30 -->
<g id="edge334" class="edge"><title>Node5&#45;&gt;Node30</title>
<path fill="none" stroke="midnightblue" d="M767.599,-602.603C954.652,-592.432 1694.29,-551.006 2301,-500 2651.34,-470.546 2738.04,-453.694 3088,-420 3175.96,-411.532 3403.04,-419.412 3484,-384 3534.45,-361.931 3576,-356.07 3576,-301 3576,-301 3576,-301 3576,-243 3576,-209.474 3580.2,-170.698 3583.15,-147.548"/>
<polygon fill="midnightblue" stroke="midnightblue" points="3586.64,-147.903 3584.48,-137.53 3579.7,-146.983 3586.64,-147.903"/>
</g>
<!-- Node6&#45;&gt;Node4 -->
<g id="edge316" class="edge"><title>Node6&#45;&gt;Node4</title>
<path fill="none" stroke="midnightblue" d="M937.747,-536.383C889.457,-521.638 818,-489.873 818,-431 818,-431 818,-431 818,-301 818,-265.099 830.793,-252.877 860,-232 867.211,-226.845 977.839,-204.084 1036.73,-192.232"/>
<polygon fill="midnightblue" stroke="midnightblue" points="1037.63,-195.621 1046.75,-190.221 1036.25,-188.758 1037.63,-195.621"/>
</g>
<!-- Node6&#45;&gt;Node7 -->
<g id="edge14" class="edge"><title>Node6&#45;&gt;Node7</title>
<path fill="none" stroke="midnightblue" d="M922.876,-543.22C786.353,-530.676 449.055,-477.329 347,-254 335.607,-229.069 365.084,-175.741 367,-174 386.952,-155.869 454.101,-142.477 504.057,-134.724"/>
<polygon fill="midnightblue" stroke="midnightblue" points="504.753,-138.159 514.116,-133.202 503.705,-131.238 504.753,-138.159"/>
</g>
<!-- Node8 -->
<g id="node16" class="node"><title>Node8</title>
<a xlink:href="printable_8h.html" target="_top" xlink:title="base/printable.h">
<polygon fill="white" stroke="black" points="2341,-58.5 2341,-79.5 2427,-79.5 2427,-58.5 2341,-58.5"/>
<text text-anchor="middle" x="2384" y="-66.5" font-family="Helvetica,sans-Serif" font-size="10.00">base/printable.h</text>
</a>
</g>
<!-- Node6&#45;&gt;Node8 -->
<g id="edge314" class="edge"><title>Node6&#45;&gt;Node8</title>
<path fill="none" stroke="midnightblue" d="M1039.31,-545.395C1235.1,-539.863 1868.09,-520.784 2071,-500 2390.82,-467.24 2498.28,-529.431 2785,-384 2864.8,-343.526 2975.15,-300.003 2917,-232 2883.52,-192.848 2737.99,-208.421 2688,-196 2658.81,-188.748 2652.9,-182.323 2624,-174 2556.45,-154.55 2533.2,-168.757 2470,-138 2443.37,-125.043 2417.53,-102.552 2401.24,-86.7788"/>
<polygon fill="midnightblue" stroke="midnightblue" points="2403.61,-84.2042 2394.05,-79.6467 2398.68,-89.174 2403.61,-84.2042"/>
</g>
<!-- Node15 -->
<g id="node32" class="node"><title>Node15</title>
<a xlink:href="_reconstruct__traits_8h.html" target="_top" xlink:title="reconstruct/Reconstruct\l_traits.h">
<polygon fill="white" stroke="black" points="860,-349 860,-383 982,-383 982,-349 860,-349"/>
<text text-anchor="start" x="868" y="-370" font-family="Helvetica,sans-Serif" font-size="10.00">reconstruct/Reconstruct</text>
<text text-anchor="middle" x="921" y="-357" font-family="Helvetica,sans-Serif" font-size="10.00">_traits.h</text>
</a>
</g>
<!-- Node6&#45;&gt;Node15 -->
<g id="edge34" class="edge"><title>Node6&#45;&gt;Node15</title>
<path fill="none" stroke="midnightblue" d="M954.786,-536.409C939.602,-528.748 921.798,-516.776 913,-500 895.358,-466.361 903.423,-421.241 911.612,-392.893"/>
<polygon fill="midnightblue" stroke="midnightblue" points="914.98,-393.848 914.587,-383.26 908.292,-391.782 914.98,-393.848"/>
</g>
<!-- Node6&#45;&gt;Node18 -->
<g id="edge318" class="edge"><title>Node6&#45;&gt;Node18</title>
<path fill="none" stroke="midnightblue" d="M1039.37,-545.197C1301.85,-536.716 2360,-498.347 2360,-431 2360,-431 2360,-431 2360,-301 2360,-219.268 2301.46,-207.71 2227,-174 2180.3,-152.856 1817.84,-133.231 1718.89,-128.226"/>
<polygon fill="midnightblue" stroke="midnightblue" points="1718.82,-124.718 1708.65,-127.713 1718.47,-131.709 1718.82,-124.718"/>
</g>
<!-- Node6&#45;&gt;Node21 -->
<g id="edge320" class="edge"><title>Node6&#45;&gt;Node21</title>
<path fill="none" stroke="midnightblue" d="M1039.06,-546.055C1245.53,-541.936 1932,-521.441 1932,-431 1932,-431 1932,-431 1932,-301 1932,-265.741 1948.05,-227.315 1959.29,-204.732"/>
<polygon fill="midnightblue" stroke="midnightblue" points="1962.42,-206.301 1963.89,-195.809 1956.2,-203.09 1962.42,-206.301"/>
</g>
<!-- Node22 -->
<g id="node54" class="node"><title>Node22</title>
<a xlink:href="_calibration_8h.html" target="_top" xlink:title="calibration/Calibration.h">
<polygon fill="white" stroke="black" points="921.5,-478.5 921.5,-499.5 1040.5,-499.5 1040.5,-478.5 921.5,-478.5"/>
<text text-anchor="middle" x="981" y="-486.5" font-family="Helvetica,sans-Serif" font-size="10.00">calibration/Calibration.h</text>
</a>
</g>
<!-- Node6&#45;&gt;Node22 -->
<g id="edge64" class="edge"><title>Node6&#45;&gt;Node22</title>
<path fill="none" stroke="midnightblue" d="M981,-536.362C981,-528.922 981,-518.743 981,-509.728"/>
<polygon fill="midnightblue" stroke="midnightblue" points="984.5,-509.571 981,-499.571 977.5,-509.571 984.5,-509.571"/>
</g>
<!-- Node7&#45;&gt;Node3 -->
<g id="edge28" class="edge"><title>Node7&#45;&gt;Node3</title>
<path fill="none" stroke="midnightblue" d="M562.639,-116.378C564.226,-100.581 569.753,-71.3299 589,-58 649.201,-16.306 3151.96,-27.2078 3225,-22 3243.14,-20.7066 3263.34,-18.1407 3279.49,-15.8123"/>
<polygon fill="midnightblue" stroke="midnightblue" points="3280.08,-19.2631 3289.46,-14.3323 3279.05,-12.339 3280.08,-19.2631"/>
</g>
<!-- Node7&#45;&gt;Node8 -->
<g id="edge16" class="edge"><title>Node7&#45;&gt;Node8</title>
<path fill="none" stroke="midnightblue" d="M609.612,-122.392C634.696,-120.127 665.988,-117.555 694,-116 1338.13,-80.2321 2121.94,-71.2372 2330.79,-69.4082"/>
<polygon fill="midnightblue" stroke="midnightblue" points="2330.9,-72.9074 2340.87,-69.3216 2330.84,-65.9077 2330.9,-72.9074"/>
</g>
<!-- Node7&#45;&gt;Node9 -->
<g id="edge32" class="edge"><title>Node7&#45;&gt;Node9</title>
<path fill="none" stroke="midnightblue" d="M555.079,-116.295C542.409,-96.6998 515.332,-54.8198 499.408,-30.1913"/>
<polygon fill="midnightblue" stroke="midnightblue" points="502.273,-28.1765 493.905,-21.6792 496.395,-31.9772 502.273,-28.1765"/>
</g>
<!-- Node11 -->
<g id="node22" class="node"><title>Node11</title>
<polygon fill="white" stroke="#bfbfbf" points="597.5,-58.5 597.5,-79.5 662.5,-79.5 662.5,-58.5 597.5,-58.5"/>
<text text-anchor="middle" x="630" y="-66.5" font-family="Helvetica,sans-Serif" font-size="10.00">TVector3.h</text>
</g>
<!-- Node7&#45;&gt;Node11 -->
<g id="edge22" class="edge"><title>Node7&#45;&gt;Node11</title>
<path fill="none" stroke="midnightblue" d="M574.472,-116.362C584.345,-107.941 598.333,-96.0105 609.798,-86.2308"/>
<polygon fill="midnightblue" stroke="midnightblue" points="612.27,-88.7231 617.607,-79.5707 607.727,-83.3972 612.27,-88.7231"/>
</g>
<!-- Node7&#45;&gt;Node12 -->
<g id="edge24" class="edge"><title>Node7&#45;&gt;Node12</title>
<path fill="none" stroke="midnightblue" d="M514.218,-116.698C460.039,-105.016 373.133,-86.2777 325.992,-76.1136"/>
<polygon fill="midnightblue" stroke="midnightblue" points="326.523,-72.6477 316.01,-73.9613 325.048,-79.4905 326.523,-72.6477"/>
</g>
<!-- Node13 -->
<g id="node26" class="node"><title>Node13</title>
<polygon fill="white" stroke="#bfbfbf" points="2730.5,-58.5 2730.5,-79.5 2789.5,-79.5 2789.5,-58.5 2730.5,-58.5"/>
<text text-anchor="middle" x="2760" y="-66.5" font-family="Helvetica,sans-Serif" font-size="10.00">stdexcept</text>
</g>
<!-- Node7&#45;&gt;Node13 -->
<g id="edge26" class="edge"><title>Node7&#45;&gt;Node13</title>
<path fill="none" stroke="midnightblue" d="M609.608,-122.31C634.69,-120.022 665.983,-117.455 694,-116 1467.34,-75.8257 1661.9,-101.138 2436,-80 2538.38,-77.2043 2658.92,-72.8251 2720.07,-70.5261"/>
<polygon fill="midnightblue" stroke="midnightblue" points="2720.21,-74.0234 2730.08,-70.1488 2719.95,-67.0284 2720.21,-74.0234"/>
</g>
<!-- Node14 -->
<g id="node29" class="node"><title>Node14</title>
<polygon fill="white" stroke="#bfbfbf" points="680,-58.5 680,-79.5 742,-79.5 742,-58.5 680,-58.5"/>
<text text-anchor="middle" x="711" y="-66.5" font-family="Helvetica,sans-Serif" font-size="10.00">type_traits</text>
</g>
<!-- Node7&#45;&gt;Node14 -->
<g id="edge30" class="edge"><title>Node7&#45;&gt;Node14</title>
<path fill="none" stroke="midnightblue" d="M588.983,-116.497C612.853,-107.205 647.894,-93.5649 674.307,-83.2832"/>
<polygon fill="midnightblue" stroke="midnightblue" points="675.917,-86.4122 683.967,-79.5231 673.378,-79.889 675.917,-86.4122"/>
</g>
<!-- Node8&#45;&gt;Node9 -->
<g id="edge18" class="edge"><title>Node8&#45;&gt;Node9</title>
<path fill="none" stroke="midnightblue" d="M2340.85,-59.8973C2336.19,-59.1464 2331.51,-58.4893 2327,-58 1956.59,-17.8061 734.222,-11.8396 519.384,-11.0956"/>
<polygon fill="midnightblue" stroke="midnightblue" points="519.113,-7.59475 509.101,-11.0614 519.089,-14.5947 519.113,-7.59475"/>
</g>
<!-- Node10 -->
<g id="node20" class="node"><title>Node10</title>
<polygon fill="white" stroke="#bfbfbf" points="2220,-0.5 2220,-21.5 2272,-21.5 2272,-0.5 2220,-0.5"/>
<text text-anchor="middle" x="2246" y="-8.5" font-family="Helvetica,sans-Serif" font-size="10.00">ostream</text>
</g>
<!-- Node8&#45;&gt;Node10 -->
<g id="edge20" class="edge"><title>Node8&#45;&gt;Node10</title>
<path fill="none" stroke="midnightblue" d="M2359.01,-58.4966C2337.07,-49.2746 2304.93,-35.7695 2280.54,-25.5153"/>
<polygon fill="midnightblue" stroke="midnightblue" points="2281.85,-22.2693 2271.27,-21.6212 2279.13,-28.7225 2281.85,-22.2693"/>
</g>
<!-- Node15&#45;&gt;Node4 -->
<g id="edge58" class="edge"><title>Node15&#45;&gt;Node4</title>
<path fill="none" stroke="midnightblue" d="M902.691,-348.819C893.517,-339.001 883.264,-325.897 878,-312 865.397,-278.726 852.937,-259.914 875,-232 885.059,-219.273 982.598,-200.616 1036.92,-191.089"/>
<polygon fill="midnightblue" stroke="midnightblue" points="1037.59,-194.524 1046.85,-189.364 1036.39,-187.627 1037.59,-194.524"/>
</g>
<!-- Node15&#45;&gt;Node7 -->
<g id="edge36" class="edge"><title>Node15&#45;&gt;Node7</title>
<path fill="none" stroke="midnightblue" d="M859.686,-363.342C727.436,-356.172 422.344,-331.418 361,-254 315.367,-196.41 430.379,-157.505 504.693,-139.145"/>
<polygon fill="midnightblue" stroke="midnightblue" points="505.537,-142.542 514.438,-136.796 503.897,-135.737 505.537,-142.542"/>
</g>
<!-- Node16 -->
<g id="node35" class="node"><title>Node16</title>
<a xlink:href="_memory_pool_8h.html" target="_top" xlink:title="tree/MemoryPool.h">
<polygon fill="white" stroke="black" points="886.5,-290.5 886.5,-311.5 985.5,-311.5 985.5,-290.5 886.5,-290.5"/>
<text text-anchor="middle" x="936" y="-298.5" font-family="Helvetica,sans-Serif" font-size="10.00">tree/MemoryPool.h</text>
</a>
</g>
<!-- Node15&#45;&gt;Node16 -->
<g id="edge38" class="edge"><title>Node15&#45;&gt;Node16</title>
<path fill="none" stroke="midnightblue" d="M924.941,-348.922C926.866,-340.579 929.199,-330.47 931.225,-321.692"/>
<polygon fill="midnightblue" stroke="midnightblue" points="934.657,-322.383 933.496,-311.852 927.837,-320.809 934.657,-322.383"/>
</g>
<!-- Node15&#45;&gt;Node18 -->
<g id="edge62" class="edge"><title>Node15&#45;&gt;Node18</title>
<path fill="none" stroke="midnightblue" d="M982.236,-352.866C1056.7,-337.077 1186.3,-310.186 1298,-290 1397.66,-271.99 1440.47,-312.688 1523,-254 1555.9,-230.607 1535.51,-200.457 1566,-174 1595.83,-148.111 1641.15,-136.004 1669.1,-130.711"/>
<polygon fill="midnightblue" stroke="midnightblue" points="1669.98,-134.11 1679.23,-128.947 1668.78,-127.214 1669.98,-134.11"/>
</g>
<!-- Node20 -->
<g id="node45" class="node"><title>Node20</title>
<a xlink:href="mapped__vectors_8h.html" target="_top" xlink:title="base/mapped_vectors.h">
<polygon fill="white" stroke="black" points="369.5,-232.5 369.5,-253.5 490.5,-253.5 490.5,-232.5 369.5,-232.5"/>
<text text-anchor="middle" x="430" y="-240.5" font-family="Helvetica,sans-Serif" font-size="10.00">base/mapped_vectors.h</text>
</a>
</g>
<!-- Node15&#45;&gt;Node20 -->
<g id="edge50" class="edge"><title>Node15&#45;&gt;Node20</title>
<path fill="none" stroke="midnightblue" d="M859.599,-352.17C812.982,-341.543 747.343,-326.308 690,-312 615.872,-293.504 530.309,-270.47 478.198,-256.251"/>
<polygon fill="midnightblue" stroke="midnightblue" points="478.804,-252.788 468.235,-253.528 476.959,-259.54 478.804,-252.788"/>
</g>
<!-- Node15&#45;&gt;Node21 -->
<g id="edge60" class="edge"><title>Node15&#45;&gt;Node21</title>
<path fill="none" stroke="midnightblue" d="M982.13,-363.725C1159.47,-356.878 1666.02,-335.483 1737,-312 1799.27,-291.399 1803.13,-262.868 1861,-232 1887.96,-217.617 1920.26,-204.127 1942.67,-195.321"/>
<polygon fill="midnightblue" stroke="midnightblue" points="1944.16,-198.498 1952.21,-191.618 1941.62,-191.972 1944.16,-198.498"/>
</g>
<!-- Node16&#45;&gt;Node4 -->
<g id="edge46" class="edge"><title>Node16&#45;&gt;Node4</title>
<path fill="none" stroke="midnightblue" d="M944.749,-290.478C956.813,-276.307 979.614,-250.71 1002,-232 1015.77,-220.491 1032.45,-209.327 1046.18,-200.77"/>
<polygon fill="midnightblue" stroke="midnightblue" points="1048.01,-203.751 1054.72,-195.546 1044.36,-197.78 1048.01,-203.751"/>
</g>
<!-- Node17 -->
<g id="node37" class="node"><title>Node17</title>
<a xlink:href="memory_8h.html" target="_top" xlink:title="base/std_ext/memory.h">
<polygon fill="white" stroke="black" points="1195.5,-232.5 1195.5,-253.5 1314.5,-253.5 1314.5,-232.5 1195.5,-232.5"/>
<text text-anchor="middle" x="1255" y="-240.5" font-family="Helvetica,sans-Serif" font-size="10.00">base/std_ext/memory.h</text>
</a>
</g>
<!-- Node16&#45;&gt;Node17 -->
<g id="edge40" class="edge"><title>Node16&#45;&gt;Node17</title>
<path fill="none" stroke="midnightblue" d="M985.844,-291.938C1039.93,-282.104 1126.62,-266.343 1186.94,-255.374"/>
<polygon fill="midnightblue" stroke="midnightblue" points="1187.93,-258.753 1197.14,-253.52 1186.67,-251.866 1187.93,-258.753"/>
</g>
<!-- Node19 -->
<g id="node43" class="node"><title>Node19</title>
<polygon fill="white" stroke="#bfbfbf" points="883.5,-232.5 883.5,-253.5 950.5,-253.5 950.5,-232.5 883.5,-232.5"/>
<text text-anchor="middle" x="917" y="-240.5" font-family="Helvetica,sans-Serif" font-size="10.00">forward_list</text>
</g>
<!-- Node16&#45;&gt;Node19 -->
<g id="edge48" class="edge"><title>Node16&#45;&gt;Node19</title>
<path fill="none" stroke="midnightblue" d="M932.515,-290.362C930.024,-282.758 926.596,-272.294 923.596,-263.135"/>
<polygon fill="midnightblue" stroke="midnightblue" points="926.902,-261.984 920.463,-253.571 920.25,-264.163 926.902,-261.984"/>
</g>
<!-- Node17&#45;&gt;Node4 -->
<g id="edge42" class="edge"><title>Node17&#45;&gt;Node4</title>
<path fill="none" stroke="midnightblue" d="M1222.04,-232.497C1190.11,-222.32 1141.81,-206.927 1108.91,-196.443"/>
<polygon fill="midnightblue" stroke="midnightblue" points="1109.82,-193.06 1099.23,-193.358 1107.69,-199.729 1109.82,-193.06"/>
</g>
<!-- Node17&#45;&gt;Node18 -->
<g id="edge44" class="edge"><title>Node17&#45;&gt;Node18</title>
<path fill="none" stroke="midnightblue" d="M1258.42,-232.484C1264.1,-216.825 1277.1,-187.752 1299,-174 1330.42,-154.268 1587.42,-134.545 1669.15,-128.72"/>
<polygon fill="midnightblue" stroke="midnightblue" points="1669.74,-132.187 1679.47,-127.992 1669.25,-125.204 1669.74,-132.187"/>
</g>
<!-- Node20&#45;&gt;Node4 -->
<g id="edge54" class="edge"><title>Node20&#45;&gt;Node4</title>
<path fill="none" stroke="midnightblue" d="M490.533,-236.617C505.701,-235.062 521.942,-233.434 537,-232 724.91,-214.103 950.131,-195.176 1036.68,-187.996"/>
<polygon fill="midnightblue" stroke="midnightblue" points="1037.1,-191.473 1046.77,-187.16 1036.52,-184.497 1037.1,-191.473"/>
</g>
<!-- Node20&#45;&gt;Node9 -->
<g id="edge52" class="edge"><title>Node20&#45;&gt;Node9</title>
<path fill="none" stroke="midnightblue" d="M369.358,-232.758C282.023,-216.631 127.699,-182.517 95,-138 89.2116,-130.12 89.7016,-124.218 95,-116 134.673,-54.4673 368.292,-23.6401 454.802,-14.2178"/>
<polygon fill="midnightblue" stroke="midnightblue" points="455.261,-17.6888 464.834,-13.1498 454.52,-10.7281 455.261,-17.6888"/>
</g>
<!-- Node20&#45;&gt;Node14 -->
<g id="edge56" class="edge"><title>Node20&#45;&gt;Node14</title>
<path fill="none" stroke="midnightblue" d="M450.815,-232.499C486.037,-214.484 559.289,-175.951 618,-138 643.508,-121.512 671.297,-100.454 689.793,-85.9627"/>
<polygon fill="midnightblue" stroke="midnightblue" points="692.153,-88.5585 697.835,-79.6158 687.816,-83.0637 692.153,-88.5585"/>
</g>
<!-- Node22&#45;&gt;Node9 -->
<g id="edge312" class="edge"><title>Node22&#45;&gt;Node9</title>
<path fill="none" stroke="midnightblue" d="M921.302,-485.656C810.154,-477.931 565.237,-453.806 372,-384 214.627,-327.149 146.798,-294.277 87,-138 71.5802,-97.7016 103.603,-77.6821 142,-58 196.348,-30.1415 379.838,-16.9796 454.746,-12.67"/>
<polygon fill="midnightblue" stroke="midnightblue" points="455.193,-16.1506 464.982,-12.0977 454.802,-9.16148 455.193,-16.1506"/>
</g>
<!-- Node22&#45;&gt;Node15 -->
<g id="edge296" class="edge"><title>Node22&#45;&gt;Node15</title>
<path fill="none" stroke="midnightblue" d="M975.675,-478.085C966.378,-459.024 946.934,-419.165 933.92,-392.487"/>
<polygon fill="midnightblue" stroke="midnightblue" points="936.977,-390.771 929.447,-383.317 930.686,-393.84 936.977,-390.771"/>
</g>
<!-- Node23 -->
<g id="node56" class="node"><title>Node23</title>
<a xlink:href="_physics_8h.html" target="_top" xlink:title="analysis/physics/Physics.h">
<polygon fill="white" stroke="black" points="1969,-420.5 1969,-441.5 2105,-441.5 2105,-420.5 1969,-420.5"/>
<text text-anchor="middle" x="2037" y="-428.5" font-family="Helvetica,sans-Serif" font-size="10.00">analysis/physics/Physics.h</text>
</a>
</g>
<!-- Node22&#45;&gt;Node23 -->
<g id="edge66" class="edge"><title>Node22&#45;&gt;Node23</title>
<path fill="none" stroke="midnightblue" d="M1040.8,-485.715C1220.6,-475.84 1756.3,-446.417 1958.54,-435.31"/>
<polygon fill="midnightblue" stroke="midnightblue" points="1958.99,-438.79 1968.78,-434.747 1958.6,-431.801 1958.99,-438.79"/>
</g>
<!-- Node62 -->
<g id="node211" class="node"><title>Node62</title>
<a xlink:href="_manager__traits_8h.html" target="_top" xlink:title="calibration/gui/Manager\l_traits.h">
<polygon fill="white" stroke="black" points="3297.5,-349 3297.5,-383 3414.5,-383 3414.5,-349 3297.5,-349"/>
<text text-anchor="start" x="3305.5" y="-370" font-family="Helvetica,sans-Serif" font-size="10.00">calibration/gui/Manager</text>
<text text-anchor="middle" x="3356" y="-357" font-family="Helvetica,sans-Serif" font-size="10.00">_traits.h</text>
</a>
</g>
<!-- Node22&#45;&gt;Node62 -->
<g id="edge298" class="edge"><title>Node22&#45;&gt;Node62</title>
<path fill="none" stroke="midnightblue" d="M1040.6,-486.941C1209.13,-481.029 1703.57,-463.068 2114,-442 2561.53,-419.027 3099.26,-383.385 3287.18,-370.688"/>
<polygon fill="midnightblue" stroke="midnightblue" points="3287.45,-374.177 3297.19,-370.01 3286.98,-367.193 3287.45,-374.177"/>
</g>
<!-- Node23&#45;&gt;Node3 -->
<g id="edge288" class="edge"><title>Node23&#45;&gt;Node3</title>
<path fill="none" stroke="midnightblue" d="M2105.02,-429.795C2375.1,-424.868 3360.14,-405.499 3423,-384 3482.64,-363.603 3538,-364.033 3538,-301 3538,-301 3538,-301 3538,-127 3538,-39.4652 3402.85,-17.9579 3340.66,-12.6949"/>
<polygon fill="midnightblue" stroke="midnightblue" points="3340.87,-9.20125 3330.64,-11.9349 3340.34,-16.1812 3340.87,-9.20125"/>
</g>
<!-- Node23&#45;&gt;Node4 -->
<g id="edge292" class="edge"><title>Node23&#45;&gt;Node4</title>
<path fill="none" stroke="midnightblue" d="M1968.91,-427.774C1869.23,-422.388 1677.92,-409.544 1517,-384 1375.17,-361.485 1336.66,-361.913 1202,-312 1150.18,-292.791 1126.63,-297.075 1092,-254 1080.96,-240.264 1076.32,-220.567 1074.38,-205.731"/>
<polygon fill="midnightblue" stroke="midnightblue" points="1077.83,-205.116 1073.36,-195.513 1070.87,-205.811 1077.83,-205.116"/>
</g>
<!-- Node23&#45;&gt;Node18 -->
<g id="edge286" class="edge"><title>Node23&#45;&gt;Node18</title>
<path fill="none" stroke="midnightblue" d="M2046.62,-420.4C2073.43,-389.53 2144.48,-297.726 2105,-232 2076.74,-184.958 2048.3,-190.624 1996,-174 1878.35,-136.604 1835.4,-176.356 1718.34,-139.41"/>
<polygon fill="midnightblue" stroke="midnightblue" points="1719.26,-136.027 1708.67,-136.236 1717.08,-142.679 1719.26,-136.027"/>
</g>
<!-- Node23&#45;&gt;Node21 -->
<g id="edge290" class="edge"><title>Node23&#45;&gt;Node21</title>
<path fill="none" stroke="midnightblue" d="M2034.12,-420.43C2023.88,-382.817 1989.08,-255.068 1975.5,-205.187"/>
<polygon fill="midnightblue" stroke="midnightblue" points="1978.87,-204.26 1972.87,-195.531 1972.12,-206.099 1978.87,-204.26"/>
</g>
<!-- Node24 -->
<g id="node58" class="node"><title>Node24</title>
<a xlink:href="_histogram_factories_8h.html" target="_top" xlink:title="analysis/plot/HistogramFactories.h">
<polygon fill="white" stroke="black" points="2608,-355.5 2608,-376.5 2776,-376.5 2776,-355.5 2608,-355.5"/>
<text text-anchor="middle" x="2692" y="-363.5" font-family="Helvetica,sans-Serif" font-size="10.00">analysis/plot/HistogramFactories.h</text>
</a>
</g>
<!-- Node23&#45;&gt;Node24 -->
<g id="edge68" class="edge"><title>Node23&#45;&gt;Node24</title>
<path fill="none" stroke="midnightblue" d="M2105.22,-424.836C2200.39,-416.158 2378.41,-399.647 2530,-384 2551.97,-381.732 2575.6,-379.174 2597.84,-376.714"/>
<polygon fill="midnightblue" stroke="midnightblue" points="2598.39,-380.174 2607.95,-375.592 2597.62,-373.217 2598.39,-380.174"/>
</g>
<!-- Node33 -->
<g id="node86" class="node"><title>Node33</title>
<polygon fill="white" stroke="#bfbfbf" points="2501.5,-174.5 2501.5,-195.5 2560.5,-195.5 2560.5,-174.5 2501.5,-174.5"/>
<text text-anchor="middle" x="2531" y="-182.5" font-family="Helvetica,sans-Serif" font-size="10.00">functional</text>
</g>
<!-- Node23&#45;&gt;Node33 -->
<g id="edge294" class="edge"><title>Node23&#45;&gt;Node33</title>
<path fill="none" stroke="midnightblue" d="M2105.22,-422.282C2299.95,-396.674 2847.37,-319.365 2893,-254 2898.6,-245.983 2899.51,-239.291 2893,-232 2845.47,-178.803 2644.17,-208.871 2574,-196 2572.94,-195.805 2571.87,-195.599 2570.78,-195.383"/>
<polygon fill="midnightblue" stroke="midnightblue" points="2571.47,-191.951 2560.96,-193.226 2569.97,-198.789 2571.47,-191.951"/>
</g>
<!-- Node48 -->
<g id="node144" class="node"><title>Node48</title>
<a xlink:href="_event_8h.html" target="_top" xlink:title="analysis/data/Event.h">
<polygon fill="white" stroke="black" points="1525.5,-355.5 1525.5,-376.5 1636.5,-376.5 1636.5,-355.5 1525.5,-355.5"/>
<text text-anchor="middle" x="1581" y="-363.5" font-family="Helvetica,sans-Serif" font-size="10.00">analysis/data/Event.h</text>
</a>
</g>
<!-- Node23&#45;&gt;Node48 -->
<g id="edge192" class="edge"><title>Node23&#45;&gt;Node48</title>
<path fill="none" stroke="midnightblue" d="M1968.73,-421.269C1881.83,-408.881 1732.7,-387.624 1646.93,-375.398"/>
<polygon fill="midnightblue" stroke="midnightblue" points="1647.19,-371.899 1636.79,-373.953 1646.2,-378.829 1647.19,-371.899"/>
</g>
<!-- Node60 -->
<g id="node196" class="node"><title>Node60</title>
<a xlink:href="_slowcontrol_8h.html" target="_top" xlink:title="analysis/data/Slowcontrol.h">
<polygon fill="white" stroke="black" points="103.5,-116.5 103.5,-137.5 240.5,-137.5 240.5,-116.5 103.5,-116.5"/>
<text text-anchor="middle" x="172" y="-124.5" font-family="Helvetica,sans-Serif" font-size="10.00">analysis/data/Slowcontrol.h</text>
</a>
</g>
<!-- Node23&#45;&gt;Node60 -->
<g id="edge272" class="edge"><title>Node23&#45;&gt;Node60</title>
<path fill="none" stroke="midnightblue" d="M1968.68,-430.395C1786.68,-428.327 1275.04,-419.543 851,-384 600.5,-363.003 515.151,-423.795 290,-312 225.257,-279.853 205.297,-262.082 176,-196 169.323,-180.939 168.657,-162.186 169.476,-148.034"/>
<polygon fill="midnightblue" stroke="midnightblue" points="172.984,-148.094 170.364,-137.828 166.01,-147.487 172.984,-148.094"/>
</g>
<!-- Node61 -->
<g id="node200" class="node"><title>Node61</title>
<a xlink:href="_options_list_8h.html" target="_top" xlink:title="base/OptionsList.h">
<polygon fill="white" stroke="black" points="1998,-232.5 1998,-253.5 2096,-253.5 2096,-232.5 1998,-232.5"/>
<text text-anchor="middle" x="2047" y="-240.5" font-family="Helvetica,sans-Serif" font-size="10.00">base/OptionsList.h</text>
</a>
</g>
<!-- Node23&#45;&gt;Node61 -->
<g id="edge278" class="edge"><title>Node23&#45;&gt;Node61</title>
<path fill="none" stroke="midnightblue" d="M2037.57,-420.354C2039.17,-390.172 2043.77,-303.656 2045.9,-263.693"/>
<polygon fill="midnightblue" stroke="midnightblue" points="2049.4,-263.701 2046.44,-253.53 2042.41,-263.33 2049.4,-263.701"/>
</g>
<!-- Node24&#45;&gt;Node3 -->
<g id="edge190" class="edge"><title>Node24&#45;&gt;Node3</title>
<path fill="none" stroke="midnightblue" d="M2776.05,-362.66C2960.06,-354.941 3383.89,-334.773 3405,-312 3482.82,-228.066 3370.41,-80.7198 3326.39,-29.3135"/>
<polygon fill="midnightblue" stroke="midnightblue" points="3328.92,-26.8928 3319.71,-21.6476 3323.64,-31.4885 3328.92,-26.8928"/>
</g>
<!-- Node25 -->
<g id="node60" class="node"><title>Node25</title>
<a xlink:href="_histogram_8h.html" target="_top" xlink:title="Histogram.h">
<polygon fill="white" stroke="black" points="3212,-232.5 3212,-253.5 3282,-253.5 3282,-232.5 3212,-232.5"/>
<text text-anchor="middle" x="3247" y="-240.5" font-family="Helvetica,sans-Serif" font-size="10.00">Histogram.h</text>
</a>
</g>
<!-- Node24&#45;&gt;Node25 -->
<g id="edge70" class="edge"><title>Node24&#45;&gt;Node25</title>
<path fill="none" stroke="midnightblue" d="M2748.67,-355.47C2803.79,-345.057 2889.83,-328.354 2964,-312 3067.61,-289.153 3095.27,-280.645 3202.05,-254.229"/>
<polygon fill="midnightblue" stroke="midnightblue" points="3203.07,-257.583 3211.94,-251.788 3201.39,-250.787 3203.07,-257.583"/>
</g>
<!-- Node31 -->
<g id="node76" class="node"><title>Node31</title>
<a xlink:href="_smart_hist_8h.html" target="_top" xlink:title="SmartHist.h">
<polygon fill="white" stroke="black" points="2657.5,-290.5 2657.5,-311.5 2726.5,-311.5 2726.5,-290.5 2657.5,-290.5"/>
<text text-anchor="middle" x="2692" y="-298.5" font-family="Helvetica,sans-Serif" font-size="10.00">SmartHist.h</text>
</a>
</g>
<!-- Node24&#45;&gt;Node31 -->
<g id="edge90" class="edge"><title>Node24&#45;&gt;Node31</title>
<path fill="none" stroke="midnightblue" d="M2692,-355.267C2692,-346.18 2692,-332.892 2692,-321.74"/>
<polygon fill="midnightblue" stroke="midnightblue" points="2695.5,-321.534 2692,-311.534 2688.5,-321.534 2695.5,-321.534"/>
</g>
<!-- Node40 -->
<g id="node103" class="node"><title>Node40</title>
<a xlink:href="_particle_8h.html" target="_top" xlink:title="analysis/data/Particle.h">
<polygon fill="white" stroke="black" points="1521.5,-290.5 1521.5,-311.5 1640.5,-311.5 1640.5,-290.5 1521.5,-290.5"/>
<text text-anchor="middle" x="1581" y="-298.5" font-family="Helvetica,sans-Serif" font-size="10.00">analysis/data/Particle.h</text>
</a>
</g>
<!-- Node24&#45;&gt;Node40 -->
<g id="edge126" class="edge"><title>Node24&#45;&gt;Node40</title>
<path fill="none" stroke="midnightblue" d="M2607.94,-364.742C2432.01,-361.437 2012.08,-350.025 1650.79,-312.098"/>
<polygon fill="midnightblue" stroke="midnightblue" points="1650.97,-308.598 1640.65,-311.026 1650.23,-315.559 1650.97,-308.598"/>
</g>
<!-- Node25&#45;&gt;Node3 -->
<g id="edge76" class="edge"><title>Node25&#45;&gt;Node3</title>
<path fill="none" stroke="midnightblue" d="M3261.07,-232.294C3271.24,-223.688 3284.33,-210.648 3291,-196 3316.12,-140.852 3314.62,-67.1278 3312.03,-31.7086"/>
<polygon fill="midnightblue" stroke="midnightblue" points="3315.51,-31.299 3311.18,-21.6269 3308.53,-31.8847 3315.51,-31.299"/>
</g>
<!-- Node25&#45;&gt;Node9 -->
<g id="edge74" class="edge"><title>Node25&#45;&gt;Node9</title>
<path fill="none" stroke="midnightblue" d="M3211.98,-233.788C3165.29,-221.389 3087.93,-200.375 3083,-196 3033.25,-151.831 3080.07,-95.3304 3025,-58 2970.58,-21.112 811.426,-12.1531 519.53,-11.1097"/>
<polygon fill="midnightblue" stroke="midnightblue" points="519.216,-7.60871 509.204,-11.0734 519.192,-14.6087 519.216,-7.60871"/>
</g>
<!-- Node26 -->
<g id="node62" class="node"><title>Node26</title>
<polygon fill="white" stroke="#bfbfbf" points="3092,-174.5 3092,-195.5 3146,-195.5 3146,-174.5 3092,-174.5"/>
<text text-anchor="middle" x="3119" y="-182.5" font-family="Helvetica,sans-Serif" font-size="10.00">TColor.h</text>
</g>
<!-- Node25&#45;&gt;Node26 -->
<g id="edge72" class="edge"><title>Node25&#45;&gt;Node26</title>
<path fill="none" stroke="midnightblue" d="M3223.82,-232.497C3203.65,-223.356 3174.19,-210.008 3151.64,-199.788"/>
<polygon fill="midnightblue" stroke="midnightblue" points="3152.99,-196.561 3142.44,-195.621 3150.1,-202.937 3152.99,-196.561"/>
</g>
<!-- Node27 -->
<g id="node66" class="node"><title>Node27</title>
<a xlink:href="interval_8h.html" target="_top" xlink:title="base/interval.h">
<polygon fill="white" stroke="black" points="3202,-174.5 3202,-195.5 3282,-195.5 3282,-174.5 3202,-174.5"/>
<text text-anchor="middle" x="3242" y="-182.5" font-family="Helvetica,sans-Serif" font-size="10.00">base/interval.h</text>
</a>
</g>
<!-- Node25&#45;&gt;Node27 -->
<g id="edge78" class="edge"><title>Node25&#45;&gt;Node27</title>
<path fill="none" stroke="midnightblue" d="M3246.08,-232.362C3245.44,-224.922 3244.56,-214.743 3243.79,-205.728"/>
<polygon fill="midnightblue" stroke="midnightblue" points="3247.26,-205.233 3242.91,-195.571 3240.28,-205.834 3247.26,-205.233"/>
</g>
<!-- Node27&#45;&gt;Node8 -->
<g id="edge84" class="edge"><title>Node27&#45;&gt;Node8</title>
<path fill="none" stroke="midnightblue" d="M3201.91,-176.778C3197.22,-175.833 3192.51,-174.89 3188,-174 3104.54,-157.509 3078.73,-170.234 3000,-138 2983.69,-131.321 2983.65,-121.782 2967,-116 2869.97,-82.3049 2562.19,-72.5134 2437.37,-69.8885"/>
<polygon fill="midnightblue" stroke="midnightblue" points="2437.35,-66.3875 2427.28,-69.6837 2437.21,-73.3861 2437.35,-66.3875"/>
</g>
<!-- Node27&#45;&gt;Node13 -->
<g id="edge82" class="edge"><title>Node27&#45;&gt;Node13</title>
<path fill="none" stroke="midnightblue" d="M3208.57,-174.499C3162.09,-160.124 3075.19,-134.048 3000,-116 2930,-99.1974 2847.44,-84.0343 2799.67,-75.71"/>
<polygon fill="midnightblue" stroke="midnightblue" points="2800.18,-72.2473 2789.73,-73.9902 2798.99,-79.1447 2800.18,-72.2473"/>
</g>
<!-- Node27&#45;&gt;Node28 -->
<g id="edge80" class="edge"><title>Node27&#45;&gt;Node28</title>
<path fill="none" stroke="midnightblue" d="M3261.23,-174.377C3314.72,-144.831 3465.46,-61.5631 3528.61,-26.6804"/>
<polygon fill="midnightblue" stroke="midnightblue" points="3530.56,-29.6035 3537.62,-21.7046 3527.18,-23.4762 3530.56,-29.6035"/>
</g>
<!-- Node29 -->
<g id="node72" class="node"><title>Node29</title>
<a xlink:href="types_8h.html" target="_top" xlink:title="types.h">
<polygon fill="white" stroke="black" points="1389.5,-116.5 1389.5,-137.5 1438.5,-137.5 1438.5,-116.5 1389.5,-116.5"/>
<text text-anchor="middle" x="1414" y="-124.5" font-family="Helvetica,sans-Serif" font-size="10.00">types.h</text>
</a>
</g>
<!-- Node27&#45;&gt;Node29 -->
<g id="edge86" class="edge"><title>Node27&#45;&gt;Node29</title>
<path fill="none" stroke="midnightblue" d="M3201.8,-179.053C3187.11,-177.108 3170.33,-175.152 3155,-174 2497.11,-124.557 2330.38,-160.107 1671,-138 1591.58,-135.337 1498.4,-131.061 1448.96,-128.702"/>
<polygon fill="midnightblue" stroke="midnightblue" points="1448.96,-125.198 1438.8,-128.215 1448.62,-132.19 1448.96,-125.198"/>
</g>
<!-- Node27&#45;&gt;Node30 -->
<g id="edge88" class="edge"><title>Node27&#45;&gt;Node30</title>
<path fill="none" stroke="midnightblue" d="M3282.13,-178.233C3351.83,-166.482 3493.72,-142.558 3555.79,-132.093"/>
<polygon fill="midnightblue" stroke="midnightblue" points="3556.45,-135.531 3565.73,-130.417 3555.29,-128.628 3556.45,-135.531"/>
</g>
<!-- Node31&#45;&gt;Node3 -->
<g id="edge120" class="edge"><title>Node31&#45;&gt;Node3</title>
<path fill="none" stroke="midnightblue" d="M2726.79,-300.488C2847.97,-298.405 3246.56,-288.935 3291,-254 3360.69,-199.21 3344.12,-145.171 3328,-58 3326.28,-48.7153 3322.81,-38.8944 3319.37,-30.6444"/>
<polygon fill="midnightblue" stroke="midnightblue" points="3322.56,-29.2188 3315.3,-21.502 3316.17,-32.0616 3322.56,-29.2188"/>
</g>
<!-- Node31&#45;&gt;Node4 -->
<g id="edge118" class="edge"><title>Node31&#45;&gt;Node4</title>
<path fill="none" stroke="midnightblue" d="M2657.38,-300.421C2481.23,-297.368 1683.13,-282.19 1437,-254 1385.73,-248.128 1373.69,-241.656 1323,-232 1247.02,-217.526 1157.98,-200.857 1109.32,-191.772"/>
<polygon fill="midnightblue" stroke="midnightblue" points="1109.76,-188.292 1099.28,-189.898 1108.47,-195.174 1109.76,-188.292"/>
</g>
<!-- Node31&#45;&gt;Node17 -->
<g id="edge110" class="edge"><title>Node31&#45;&gt;Node17</title>
<path fill="none" stroke="midnightblue" d="M2657.39,-300.21C2507.75,-296.695 1901.39,-281.426 1404,-254 1378.16,-252.575 1349.84,-250.591 1324.89,-248.699"/>
<polygon fill="midnightblue" stroke="midnightblue" points="1325.02,-245.199 1314.78,-247.924 1324.48,-252.178 1325.02,-245.199"/>
</g>
<!-- Node31&#45;&gt;Node25 -->
<g id="edge92" class="edge"><title>Node31&#45;&gt;Node25</title>
<path fill="none" stroke="midnightblue" d="M2726.63,-299.647C2807.96,-296.079 3017.61,-284.615 3201.44,-254.062"/>
<polygon fill="midnightblue" stroke="midnightblue" points="3202.28,-257.47 3211.56,-252.356 3201.11,-250.567 3202.28,-257.47"/>
</g>
<!-- Node32 -->
<g id="node79" class="node"><title>Node32</title>
<a xlink:href="root__draw_8h.html" target="_top" xlink:title="root_draw.h">
<polygon fill="white" stroke="black" points="2536,-232.5 2536,-253.5 2604,-253.5 2604,-232.5 2536,-232.5"/>
<text text-anchor="middle" x="2570" y="-240.5" font-family="Helvetica,sans-Serif" font-size="10.00">root_draw.h</text>
</a>
</g>
<!-- Node31&#45;&gt;Node32 -->
<g id="edge94" class="edge"><title>Node31&#45;&gt;Node32</title>
<path fill="none" stroke="midnightblue" d="M2669.91,-290.497C2650.77,-281.397 2622.85,-268.127 2601.39,-257.925"/>
<polygon fill="midnightblue" stroke="midnightblue" points="2602.88,-254.754 2592.34,-253.621 2599.87,-261.076 2602.88,-254.754"/>
</g>
<!-- Node35 -->
<g id="node91" class="node"><title>Node35</title>
<polygon fill="white" stroke="#bfbfbf" points="2765.5,-232.5 2765.5,-253.5 2816.5,-253.5 2816.5,-232.5 2765.5,-232.5"/>
<text text-anchor="middle" x="2791" y="-240.5" font-family="Helvetica,sans-Serif" font-size="10.00">TH1D.h</text>
</g>
<!-- Node31&#45;&gt;Node35 -->
<g id="edge112" class="edge"><title>Node31&#45;&gt;Node35</title>
<path fill="none" stroke="midnightblue" d="M2710.16,-290.362C2725.23,-281.532 2746.89,-268.844 2763.99,-258.822"/>
<polygon fill="midnightblue" stroke="midnightblue" points="2766.1,-261.646 2772.96,-253.571 2762.56,-255.606 2766.1,-261.646"/>
</g>
<!-- Node36 -->
<g id="node93" class="node"><title>Node36</title>
<polygon fill="white" stroke="#bfbfbf" points="2833.5,-232.5 2833.5,-253.5 2884.5,-253.5 2884.5,-232.5 2833.5,-232.5"/>
<text text-anchor="middle" x="2859" y="-240.5" font-family="Helvetica,sans-Serif" font-size="10.00">TH2D.h</text>
</g>
<!-- Node31&#45;&gt;Node36 -->
<g id="edge114" class="edge"><title>Node31&#45;&gt;Node36</title>
<path fill="none" stroke="midnightblue" d="M2722.24,-290.497C2750.79,-280.583 2793.58,-265.721 2823.68,-255.268"/>
<polygon fill="midnightblue" stroke="midnightblue" points="2825.06,-258.492 2833.36,-251.905 2822.76,-251.88 2825.06,-258.492"/>
</g>
<!-- Node37 -->
<g id="node95" class="node"><title>Node37</title>
<polygon fill="white" stroke="#bfbfbf" points="2621.5,-232.5 2621.5,-253.5 2672.5,-253.5 2672.5,-232.5 2621.5,-232.5"/>
<text text-anchor="middle" x="2647" y="-240.5" font-family="Helvetica,sans-Serif" font-size="10.00">TH3D.h</text>
</g>
<!-- Node31&#45;&gt;Node37 -->
<g id="edge116" class="edge"><title>Node31&#45;&gt;Node37</title>
<path fill="none" stroke="midnightblue" d="M2683.75,-290.362C2677.53,-282.35 2668.85,-271.161 2661.49,-261.67"/>
<polygon fill="midnightblue" stroke="midnightblue" points="2664.1,-259.326 2655.2,-253.571 2658.57,-263.617 2664.1,-259.326"/>
</g>
<!-- Node31&#45;&gt;Node38 -->
<g id="edge122" class="edge"><title>Node31&#45;&gt;Node38</title>
<path fill="none" stroke="midnightblue" d="M2657.48,-293.772C2605.02,-282.788 2505.67,-261.986 2451.86,-250.718"/>
<polygon fill="midnightblue" stroke="midnightblue" points="2452.55,-247.288 2442.05,-248.664 2451.12,-254.139 2452.55,-247.288"/>
</g>
<!-- Node39 -->
<g id="node101" class="node"><title>Node39</title>
<polygon fill="white" stroke="#bfbfbf" points="2689.5,-232.5 2689.5,-253.5 2748.5,-253.5 2748.5,-232.5 2689.5,-232.5"/>
<text text-anchor="middle" x="2719" y="-240.5" font-family="Helvetica,sans-Serif" font-size="10.00">exception</text>
</g>
<!-- Node31&#45;&gt;Node39 -->
<g id="edge124" class="edge"><title>Node31&#45;&gt;Node39</title>
<path fill="none" stroke="midnightblue" d="M2696.95,-290.362C2700.53,-282.677 2705.47,-272.069 2709.76,-262.84"/>
<polygon fill="midnightblue" stroke="midnightblue" points="2713.03,-264.114 2714.08,-253.571 2706.69,-261.159 2713.03,-264.114"/>
</g>
<!-- Node32&#45;&gt;Node3 -->
<g id="edge96" class="edge"><title>Node32&#45;&gt;Node3</title>
<path fill="none" stroke="midnightblue" d="M2604.18,-233.827C2607.15,-233.159 2610.12,-232.538 2613,-232 2745,-207.306 2780.17,-215.769 2913,-196 2949.39,-190.584 3209.03,-159.333 3239,-138 3275.86,-111.764 3295.9,-60.0691 3304.61,-31.3848"/>
<polygon fill="midnightblue" stroke="midnightblue" points="3308.02,-32.1961 3307.4,-21.6191 3301.29,-30.2699 3308.02,-32.1961"/>
</g>
<!-- Node32&#45;&gt;Node4 -->
<g id="edge104" class="edge"><title>Node32&#45;&gt;Node4</title>
<path fill="none" stroke="midnightblue" d="M2535.93,-239.295C2512.16,-236.846 2479.68,-233.772 2451,-232 1939.73,-200.41 1810.84,-216.452 1299,-196 1231.96,-193.321 1153.77,-189.32 1109.15,-186.954"/>
<polygon fill="midnightblue" stroke="midnightblue" points="1109.27,-183.455 1099.09,-186.418 1108.89,-190.445 1109.27,-183.455"/>
</g>
<!-- Node32&#45;&gt;Node9 -->
<g id="edge100" class="edge"><title>Node32&#45;&gt;Node9</title>
<path fill="none" stroke="midnightblue" d="M2553.16,-232.465C2527.18,-216.782 2475.27,-187.677 2427,-174 2046.66,-66.2311 741.62,-19.3151 519.32,-12.0235"/>
<polygon fill="midnightblue" stroke="midnightblue" points="519.387,-8.52392 509.278,-11.6971 519.159,-15.5202 519.387,-8.52392"/>
</g>
<!-- Node32&#45;&gt;Node18 -->
<g id="edge98" class="edge"><title>Node32&#45;&gt;Node18</title>
<path fill="none" stroke="midnightblue" d="M2546.75,-232.497C2510.63,-216.716 2438.47,-187.322 2374,-174 2244.86,-147.318 1825.22,-131.473 1718.74,-127.817"/>
<polygon fill="midnightblue" stroke="midnightblue" points="1718.75,-124.316 1708.64,-127.475 1718.51,-131.312 1718.75,-124.316"/>
</g>
<!-- Node32&#45;&gt;Node21 -->
<g id="edge102" class="edge"><title>Node32&#45;&gt;Node21</title>
<path fill="none" stroke="midnightblue" d="M2535.72,-238.327C2519.98,-236.256 2501.06,-233.87 2484,-232 2298.92,-211.708 2075.67,-193.394 1998.14,-187.214"/>
<polygon fill="midnightblue" stroke="midnightblue" points="1998.02,-183.694 1987.78,-186.392 1997.47,-190.673 1998.02,-183.694"/>
</g>
<!-- Node32&#45;&gt;Node33 -->
<g id="edge106" class="edge"><title>Node32&#45;&gt;Node33</title>
<path fill="none" stroke="midnightblue" d="M2562.85,-232.362C2557.51,-224.431 2550.09,-213.389 2543.75,-203.961"/>
<polygon fill="midnightblue" stroke="midnightblue" points="2546.59,-201.916 2538.11,-195.571 2540.78,-205.822 2546.59,-201.916"/>
</g>
<!-- Node34 -->
<g id="node88" class="node"><title>Node34</title>
<polygon fill="white" stroke="#bfbfbf" points="2902,-116.5 2902,-137.5 2958,-137.5 2958,-116.5 2902,-116.5"/>
<text text-anchor="middle" x="2930" y="-124.5" font-family="Helvetica,sans-Serif" font-size="10.00">Rtypes.h</text>
</g>
<!-- Node32&#45;&gt;Node34 -->
<g id="edge108" class="edge"><title>Node32&#45;&gt;Node34</title>
<path fill="none" stroke="midnightblue" d="M2604.18,-233.86C2607.16,-233.186 2610.12,-232.554 2613,-232 2734.04,-208.683 2784.7,-263.252 2888,-196 2905.45,-184.64 2916.79,-163.247 2923.23,-147.28"/>
<polygon fill="midnightblue" stroke="midnightblue" points="2926.58,-148.324 2926.78,-137.731 2920.01,-145.888 2926.58,-148.324"/>
</g>
<!-- Node40&#45;&gt;Node4 -->
<g id="edge188" class="edge"><title>Node40&#45;&gt;Node4</title>
<path fill="none" stroke="midnightblue" d="M1521.46,-298.75C1420.07,-294.209 1218.62,-281.901 1154,-254 1127.72,-242.651 1103.57,-219.754 1088.6,-203.451"/>
<polygon fill="midnightblue" stroke="midnightblue" points="1090.91,-200.776 1081.65,-195.622 1085.68,-205.424 1090.91,-200.776"/>
</g>
<!-- Node40&#45;&gt;Node8 -->
<g id="edge154" class="edge"><title>Node40&#45;&gt;Node8</title>
<path fill="none" stroke="midnightblue" d="M1640.66,-290.997C1643.47,-290.635 1646.27,-290.3 1649,-290 1717.15,-282.516 2205.8,-288.588 2265,-254 2298.04,-234.697 2352.27,-132.257 2374.27,-88.6634"/>
<polygon fill="midnightblue" stroke="midnightblue" points="2377.45,-90.1234 2378.8,-79.6144 2371.19,-86.99 2377.45,-90.1234"/>
</g>
<!-- Node40&#45;&gt;Node9 -->
<g id="edge182" class="edge"><title>Node40&#45;&gt;Node9</title>
<path fill="none" stroke="midnightblue" d="M1521.46,-300.127C1305.92,-296.734 576.938,-283.144 537,-254 466.472,-202.534 476.287,-80.2112 483.429,-31.515"/>
<polygon fill="midnightblue" stroke="midnightblue" points="486.901,-31.9687 485.011,-21.5439 479.987,-30.8723 486.901,-31.9687"/>
</g>
<!-- Node40&#45;&gt;Node18 -->
<g id="edge184" class="edge"><title>Node40&#45;&gt;Node18</title>
<path fill="none" stroke="midnightblue" d="M1587.9,-290.377C1606.37,-261.93 1657.19,-183.684 1681.16,-146.769"/>
<polygon fill="midnightblue" stroke="midnightblue" points="1684.39,-148.221 1686.9,-137.928 1678.52,-144.408 1684.39,-148.221"/>
</g>
<!-- Node40&#45;&gt;Node29 -->
<g id="edge156" class="edge"><title>Node40&#45;&gt;Node29</title>
<path fill="none" stroke="midnightblue" d="M1531.78,-290.462C1457.59,-273.387 1323.19,-237.381 1299,-196 1278.64,-161.162 1338.55,-141.87 1379.38,-133.042"/>
<polygon fill="midnightblue" stroke="midnightblue" points="1380.19,-136.449 1389.29,-131.02 1378.79,-129.59 1380.19,-136.449"/>
</g>
<!-- Node40&#45;&gt;Node38 -->
<g id="edge186" class="edge"><title>Node40&#45;&gt;Node38</title>
<path fill="none" stroke="midnightblue" d="M1640.66,-290.987C1643.47,-290.628 1646.27,-290.296 1649,-290 1936.21,-258.891 2009.92,-275.525 2298,-254 2324.64,-252.009 2354.64,-249.177 2377.59,-246.885"/>
<polygon fill="midnightblue" stroke="midnightblue" points="2378,-250.361 2387.6,-245.875 2377.3,-243.397 2378,-250.361"/>
</g>
<!-- Node41 -->
<g id="node105" class="node"><title>Node41</title>
<a xlink:href="_candidate_8h.html" target="_top" xlink:title="analysis/data/Candidate.h">
<polygon fill="white" stroke="black" points="546,-232.5 546,-253.5 676,-253.5 676,-232.5 546,-232.5"/>
<text text-anchor="middle" x="611" y="-240.5" font-family="Helvetica,sans-Serif" font-size="10.00">analysis/data/Candidate.h</text>
</a>
</g>
<!-- Node40&#45;&gt;Node41 -->
<g id="edge128" class="edge"><title>Node40&#45;&gt;Node41</title>
<path fill="none" stroke="midnightblue" d="M1521.42,-297.437C1352.84,-287.358 872.685,-258.647 686.276,-247.501"/>
<polygon fill="midnightblue" stroke="midnightblue" points="686.48,-244.007 676.289,-246.904 686.062,-250.995 686.48,-244.007"/>
</g>
<!-- Node44 -->
<g id="node123" class="node"><title>Node44</title>
<a xlink:href="_particle_type_8h.html" target="_top" xlink:title="base/ParticleType.h">
<polygon fill="white" stroke="black" points="2152,-232.5 2152,-253.5 2256,-253.5 2256,-232.5 2152,-232.5"/>
<text text-anchor="middle" x="2204" y="-240.5" font-family="Helvetica,sans-Serif" font-size="10.00">base/ParticleType.h</text>
</a>
</g>
<!-- Node40&#45;&gt;Node44 -->
<g id="edge158" class="edge"><title>Node40&#45;&gt;Node44</title>
<path fill="none" stroke="midnightblue" d="M1640.67,-291.066C1643.48,-290.686 1646.27,-290.328 1649,-290 1850.85,-265.748 1902.61,-273.228 2105,-254 2116.9,-252.869 2129.6,-251.547 2141.79,-250.219"/>
<polygon fill="midnightblue" stroke="midnightblue" points="2142.33,-253.681 2151.88,-249.106 2141.56,-246.723 2142.33,-253.681"/>
</g>
<!-- Node46 -->
<g id="node132" class="node"><title>Node46</title>
<a xlink:href="_tree_8h.html" target="_top" xlink:title="base/Tree.h">
<polygon fill="white" stroke="black" points="1722,-232.5 1722,-253.5 1790,-253.5 1790,-232.5 1722,-232.5"/>
<text text-anchor="middle" x="1756" y="-240.5" font-family="Helvetica,sans-Serif" font-size="10.00">base/Tree.h</text>
</a>
</g>
<!-- Node40&#45;&gt;Node46 -->
<g id="edge172" class="edge"><title>Node40&#45;&gt;Node46</title>
<path fill="none" stroke="midnightblue" d="M1612.69,-290.497C1641.22,-281.041 1683.34,-267.083 1714.53,-256.743"/>
<polygon fill="midnightblue" stroke="midnightblue" points="1715.86,-259.991 1724.25,-253.523 1713.66,-253.347 1715.86,-259.991"/>
</g>
<!-- Node47 -->
<g id="node137" class="node"><title>Node47</title>
<polygon fill="white" stroke="#bfbfbf" points="1308,-174.5 1308,-195.5 1400,-195.5 1400,-174.5 1308,-174.5"/>
<text text-anchor="middle" x="1354" y="-182.5" font-family="Helvetica,sans-Serif" font-size="10.00">TLorentzVector.h</text>
</g>
<!-- Node40&#45;&gt;Node47 -->
<g id="edge180" class="edge"><title>Node40&#45;&gt;Node47</title>
<path fill="none" stroke="midnightblue" d="M1534.09,-290.499C1505.01,-282.842 1467.5,-270.844 1437,-254 1412,-240.193 1387.34,-218.365 1371.49,-202.963"/>
<polygon fill="midnightblue" stroke="midnightblue" points="1373.6,-200.133 1364.04,-195.571 1368.67,-205.101 1373.6,-200.133"/>
</g>
<!-- Node41&#45;&gt;Node4 -->
<g id="edge150" class="edge"><title>Node41&#45;&gt;Node4</title>
<path fill="none" stroke="midnightblue" d="M676.086,-233.852C680.793,-233.217 685.469,-232.593 690,-232 817.364,-215.319 968.798,-197.259 1036.8,-189.244"/>
<polygon fill="midnightblue" stroke="midnightblue" points="1037.45,-192.691 1046.98,-188.046 1036.63,-185.739 1037.45,-192.691"/>
</g>
<!-- Node41&#45;&gt;Node7 -->
<g id="edge134" class="edge"><title>Node41&#45;&gt;Node7</title>
<path fill="none" stroke="midnightblue" d="M606.478,-232.295C598.31,-212.959 580.976,-171.923 570.523,-147.177"/>
<polygon fill="midnightblue" stroke="midnightblue" points="573.626,-145.529 566.511,-137.679 567.178,-148.253 573.626,-145.529"/>
</g>
<!-- Node41&#45;&gt;Node8 -->
<g id="edge130" class="edge"><title>Node41&#45;&gt;Node8</title>
<path fill="none" stroke="midnightblue" d="M676.211,-233.94C741.679,-224.372 837.744,-208.915 873,-196 891.324,-189.287 892.499,-180.209 911,-174 1182.09,-83.0207 2099.18,-70.8697 2330.61,-69.249"/>
<polygon fill="midnightblue" stroke="midnightblue" points="2330.82,-72.7478 2340.79,-69.1815 2330.77,-65.748 2330.82,-72.7478"/>
</g>
<!-- Node41&#45;&gt;Node9 -->
<g id="edge152" class="edge"><title>Node41&#45;&gt;Node9</title>
<path fill="none" stroke="midnightblue" d="M595.046,-232.254C571.281,-215.292 527.122,-179.897 506,-138 488.69,-103.665 486.08,-57.9472 486.22,-31.7704"/>
<polygon fill="midnightblue" stroke="midnightblue" points="489.724,-31.601 486.424,-21.5332 482.725,-31.4615 489.724,-31.601"/>
</g>
<!-- Node41&#45;&gt;Node10 -->
<g id="edge148" class="edge"><title>Node41&#45;&gt;Node10</title>
<path fill="none" stroke="midnightblue" d="M666.081,-232.43C707.44,-223.983 765.265,-211.085 815,-196 841.383,-187.998 846.775,-182.505 873,-174 966.736,-143.6 990.006,-133.4 1087,-116 1524.49,-37.5152 2065.97,-16.3815 2209.63,-11.9893"/>
<polygon fill="midnightblue" stroke="midnightblue" points="2209.77,-15.4868 2219.66,-11.6903 2209.56,-8.48988 2209.77,-15.4868"/>
</g>
<!-- Node41&#45;&gt;Node11 -->
<g id="edge146" class="edge"><title>Node41&#45;&gt;Node11</title>
<path fill="none" stroke="midnightblue" d="M612.16,-232.377C615.227,-204.293 623.593,-127.673 627.685,-90.2027"/>
<polygon fill="midnightblue" stroke="midnightblue" points="631.2,-90.2486 628.807,-79.9277 624.242,-89.4887 631.2,-90.2486"/>
</g>
<!-- Node41&#45;&gt;Node29 -->
<g id="edge132" class="edge"><title>Node41&#45;&gt;Node29</title>
<path fill="none" stroke="midnightblue" d="M676.162,-233.759C757.589,-222.061 888.979,-202.633 911,-196 933.47,-189.231 936.36,-180.177 959,-174 1038.31,-152.361 1286.97,-134.98 1379.16,-129.124"/>
<polygon fill="midnightblue" stroke="midnightblue" points="1379.59,-132.604 1389.35,-128.484 1379.15,-125.618 1379.59,-132.604"/>
</g>
<!-- Node42 -->
<g id="node110" class="node"><title>Node42</title>
<a xlink:href="_cluster_8h.html" target="_top" xlink:title="analysis/data/Cluster.h">
<polygon fill="white" stroke="black" points="689.5,-174.5 689.5,-195.5 806.5,-195.5 806.5,-174.5 689.5,-174.5"/>
<text text-anchor="middle" x="748" y="-182.5" font-family="Helvetica,sans-Serif" font-size="10.00">analysis/data/Cluster.h</text>
</a>
</g>
<!-- Node41&#45;&gt;Node42 -->
<g id="edge136" class="edge"><title>Node41&#45;&gt;Node42</title>
<path fill="none" stroke="midnightblue" d="M635.81,-232.497C657.496,-223.315 689.211,-209.889 713.392,-199.652"/>
<polygon fill="midnightblue" stroke="midnightblue" points="715.068,-202.743 722.912,-195.621 712.339,-196.297 715.068,-202.743"/>
</g>
<!-- Node42&#45;&gt;Node7 -->
<g id="edge138" class="edge"><title>Node42&#45;&gt;Node7</title>
<path fill="none" stroke="midnightblue" d="M714.317,-174.497C683.863,-165 638.843,-150.962 605.642,-140.609"/>
<polygon fill="midnightblue" stroke="midnightblue" points="606.335,-137.159 595.746,-137.523 604.251,-143.841 606.335,-137.159"/>
</g>
<!-- Node42&#45;&gt;Node11 -->
<g id="edge142" class="edge"><title>Node42&#45;&gt;Node11</title>
<path fill="none" stroke="midnightblue" d="M766.754,-174.306C788.042,-160.795 817.876,-136.796 802,-116 801.492,-115.335 723.15,-94.1124 672.384,-80.4157"/>
<polygon fill="midnightblue" stroke="midnightblue" points="673.196,-77.0097 662.63,-77.785 671.374,-83.7682 673.196,-77.0097"/>
</g>
<!-- Node42&#45;&gt;Node18 -->
<g id="edge140" class="edge"><title>Node42&#45;&gt;Node18</title>
<path fill="none" stroke="midnightblue" d="M806.819,-181.394C990.004,-170.163 1545.42,-136.109 1669.32,-128.513"/>
<polygon fill="midnightblue" stroke="midnightblue" points="1669.57,-132.005 1679.34,-127.899 1669.14,-125.018 1669.57,-132.005"/>
</g>
<!-- Node43 -->
<g id="node115" class="node"><title>Node43</title>
<a xlink:href="enumfield_8h.html" target="_top" xlink:title="base/enumfield.h">
<polygon fill="white" stroke="black" points="702.5,-116.5 702.5,-137.5 793.5,-137.5 793.5,-116.5 702.5,-116.5"/>
<text text-anchor="middle" x="748" y="-124.5" font-family="Helvetica,sans-Serif" font-size="10.00">base/enumfield.h</text>
</a>
</g>
<!-- Node42&#45;&gt;Node43 -->
<g id="edge144" class="edge"><title>Node42&#45;&gt;Node43</title>
<path fill="none" stroke="midnightblue" d="M748,-174.362C748,-166.922 748,-156.743 748,-147.728"/>
<polygon fill="midnightblue" stroke="midnightblue" points="751.5,-147.571 748,-137.571 744.5,-147.571 751.5,-147.571"/>
</g>
<!-- Node44&#45;&gt;Node3 -->
<g id="edge162" class="edge"><title>Node44&#45;&gt;Node3</title>
<path fill="none" stroke="midnightblue" d="M2256.02,-239.546C2408.45,-229.381 2843.77,-200.035 2850,-196 2883.87,-174.044 2867.01,-146.884 2893,-116 2919.91,-84.0288 2928.52,-74.291 2967,-58 2974.2,-54.9519 3196.4,-25.7947 3279.26,-14.9963"/>
<polygon fill="midnightblue" stroke="midnightblue" points="3279.86,-18.4481 3289.32,-13.6859 3278.95,-11.5067 3279.86,-18.4481"/>
</g>
<!-- Node44&#45;&gt;Node9 -->
<g id="edge170" class="edge"><title>Node44&#45;&gt;Node9</title>
<path fill="none" stroke="midnightblue" d="M2184.81,-232.436C2156.41,-217.25 2101.14,-189.39 2051,-174 1906.97,-129.791 1866.42,-135.315 1717,-116 1243.14,-54.7477 661.774,-20.5477 519.529,-12.7363"/>
<polygon fill="midnightblue" stroke="midnightblue" points="519.492,-9.22916 509.316,-12.1795 519.11,-16.2188 519.492,-9.22916"/>
</g>
<!-- Node44&#45;&gt;Node10 -->
<g id="edge164" class="edge"><title>Node44&#45;&gt;Node10</title>
<path fill="none" stroke="midnightblue" d="M2210.64,-232.237C2216,-222.985 2223.25,-209.101 2227,-196 2243.52,-138.271 2246.07,-66.7833 2246.22,-31.9945"/>
<polygon fill="midnightblue" stroke="midnightblue" points="2249.72,-31.6689 2246.2,-21.6764 2242.72,-31.6838 2249.72,-31.6689"/>
</g>
<!-- Node44&#45;&gt;Node21 -->
<g id="edge166" class="edge"><title>Node44&#45;&gt;Node21</title>
<path fill="none" stroke="midnightblue" d="M2161.62,-232.497C2113.99,-220.69 2038.03,-201.863 1997.54,-191.825"/>
<polygon fill="midnightblue" stroke="midnightblue" points="1998.12,-188.365 1987.57,-189.356 1996.44,-195.159 1998.12,-188.365"/>
</g>
<!-- Node44&#45;&gt;Node29 -->
<g id="edge160" class="edge"><title>Node44&#45;&gt;Node29</title>
<path fill="none" stroke="midnightblue" d="M2178.92,-232.493C2140.36,-216.845 2063.86,-187.787 1996,-174 1890.25,-152.514 1557.83,-134.257 1448.93,-128.72"/>
<polygon fill="midnightblue" stroke="midnightblue" points="1448.97,-125.218 1438.81,-128.21 1448.62,-132.209 1448.97,-125.218"/>
</g>
<!-- Node45 -->
<g id="node129" class="node"><title>Node45</title>
<polygon fill="white" stroke="#bfbfbf" points="2171.5,-174.5 2171.5,-195.5 2218.5,-195.5 2218.5,-174.5 2171.5,-174.5"/>
<text text-anchor="middle" x="2195" y="-182.5" font-family="Helvetica,sans-Serif" font-size="10.00">iterator</text>
</g>
<!-- Node44&#45;&gt;Node45 -->
<g id="edge168" class="edge"><title>Node44&#45;&gt;Node45</title>
<path fill="none" stroke="midnightblue" d="M2202.35,-232.362C2201.19,-224.922 2199.62,-214.743 2198.22,-205.728"/>
<polygon fill="midnightblue" stroke="midnightblue" points="2201.63,-204.916 2196.64,-195.571 2194.72,-205.989 2201.63,-204.916"/>
</g>
<!-- Node46&#45;&gt;Node4 -->
<g id="edge174" class="edge"><title>Node46&#45;&gt;Node4</title>
<path fill="none" stroke="midnightblue" d="M1721.66,-240.084C1605.6,-230.228 1228.55,-198.209 1109.42,-188.093"/>
<polygon fill="midnightblue" stroke="midnightblue" points="1109.61,-184.597 1099.35,-187.238 1109.02,-191.572 1109.61,-184.597"/>
</g>
<!-- Node46&#45;&gt;Node18 -->
<g id="edge176" class="edge"><title>Node46&#45;&gt;Node18</title>
<path fill="none" stroke="midnightblue" d="M1750.28,-232.295C1739.85,-212.786 1717.62,-171.188 1704.43,-146.518"/>
<polygon fill="midnightblue" stroke="midnightblue" points="1707.51,-144.849 1699.71,-137.679 1701.33,-148.148 1707.51,-144.849"/>
</g>
<!-- Node46&#45;&gt;Node28 -->
<g id="edge178" class="edge"><title>Node46&#45;&gt;Node28</title>
<path fill="none" stroke="midnightblue" d="M1790.34,-241.169C1835.78,-238.794 1918.38,-234.643 1989,-232 2133.62,-226.587 3153.02,-239.666 3291,-196 3398.09,-162.108 3499.96,-68.5271 3539.6,-28.9969"/>
<polygon fill="midnightblue" stroke="midnightblue" points="3542.13,-31.4141 3546.68,-21.8452 3537.15,-26.4893 3542.13,-31.4141"/>
</g>
<!-- Node48&#45;&gt;Node4 -->
<g id="edge268" class="edge"><title>Node48&#45;&gt;Node4</title>
<path fill="none" stroke="midnightblue" d="M1525.14,-357.958C1416.49,-341.454 1181.58,-301.305 1116,-254 1099.1,-241.807 1087.39,-220.725 1080.5,-205.064"/>
<polygon fill="midnightblue" stroke="midnightblue" points="1083.7,-203.631 1076.67,-195.703 1077.22,-206.284 1083.7,-203.631"/>
</g>
<!-- Node48&#45;&gt;Node8 -->
<g id="edge262" class="edge"><title>Node48&#45;&gt;Node8</title>
<path fill="none" stroke="midnightblue" d="M1636.6,-365.636C1836.91,-363.977 2521.08,-355.206 2735,-312 2808.32,-297.191 2850.18,-315.335 2893,-254 2935.75,-192.772 2960.48,-260.925 2650,-196 2613.49,-188.364 2605.04,-183.629 2569,-174 2508.18,-157.749 2483.6,-174.064 2432,-138 2414.34,-125.657 2401.08,-104.598 2393.03,-88.983"/>
<polygon fill="midnightblue" stroke="midnightblue" points="2396.01,-87.1159 2388.49,-79.6547 2389.71,-90.1782 2396.01,-87.1159"/>
</g>
<!-- Node48&#45;&gt;Node9 -->
<g id="edge266" class="edge"><title>Node48&#45;&gt;Node9</title>
<path fill="none" stroke="midnightblue" d="M1525.48,-364.668C1386.28,-360.878 1011.38,-347.891 701,-312 548.721,-294.391 459.862,-371.155 361,-254 298.583,-180.033 415.225,-69.9591 465.527,-28.0426"/>
<polygon fill="midnightblue" stroke="midnightblue" points="467.756,-30.7412 473.269,-21.6938 463.317,-25.3285 467.756,-30.7412"/>
</g>
<!-- Node48&#45;&gt;Node21 -->
<g id="edge270" class="edge"><title>Node48&#45;&gt;Node21</title>
<path fill="none" stroke="midnightblue" d="M1636.52,-359.277C1700.61,-350.627 1801.19,-334.049 1832,-312 1865.72,-287.869 1849.83,-260.44 1880,-232 1898.13,-214.909 1923.68,-202.362 1942.93,-194.552"/>
<polygon fill="midnightblue" stroke="midnightblue" points="1944.29,-197.779 1952.35,-190.901 1941.76,-191.253 1944.29,-197.779"/>
</g>
<!-- Node48&#45;&gt;Node29 -->
<g id="edge260" class="edge"><title>Node48&#45;&gt;Node29</title>
<path fill="none" stroke="midnightblue" d="M1525.27,-363.711C1362.95,-356.784 900.529,-335.099 878,-312 853.157,-286.528 854.487,-261.072 875,-232 886.083,-216.293 1019.3,-178.441 1038,-174 1161.38,-144.706 1312.15,-132.879 1379.1,-128.824"/>
<polygon fill="midnightblue" stroke="midnightblue" points="1379.7,-132.295 1389.48,-128.217 1379.29,-125.307 1379.7,-132.295"/>
</g>
<!-- Node48&#45;&gt;Node40 -->
<g id="edge194" class="edge"><title>Node48&#45;&gt;Node40</title>
<path fill="none" stroke="midnightblue" d="M1581,-355.267C1581,-346.18 1581,-332.892 1581,-321.74"/>
<polygon fill="midnightblue" stroke="midnightblue" points="1584.5,-321.534 1581,-311.534 1577.5,-321.534 1584.5,-321.534"/>
</g>
<!-- Node48&#45;&gt;Node41 -->
<g id="edge196" class="edge"><title>Node48&#45;&gt;Node41</title>
<path fill="none" stroke="midnightblue" d="M1525.23,-364.853C1365.82,-361.17 910.451,-347.731 766,-312 719.041,-300.384 668.544,-275.276 638.373,-258.766"/>
<polygon fill="midnightblue" stroke="midnightblue" points="639.763,-255.535 629.321,-253.736 636.362,-261.653 639.763,-255.535"/>
</g>
<!-- Node48&#45;&gt;Node46 -->
<g id="edge264" class="edge"><title>Node48&#45;&gt;Node46</title>
<path fill="none" stroke="midnightblue" d="M1636.76,-359.766C1670.15,-353.196 1711.03,-339.704 1737,-312 1749.24,-298.943 1753.72,-278.735 1755.3,-263.557"/>
<polygon fill="midnightblue" stroke="midnightblue" points="1758.79,-263.79 1756.01,-253.568 1751.81,-263.297 1758.79,-263.79"/>
</g>
<!-- Node49 -->
<g id="node148" class="node"><title>Node49</title>
<a xlink:href="_tagger_hit_8h.html" target="_top" xlink:title="TaggerHit.h">
<polygon fill="white" stroke="black" points="1446,-232.5 1446,-253.5 1514,-253.5 1514,-232.5 1446,-232.5"/>
<text text-anchor="middle" x="1480" y="-240.5" font-family="Helvetica,sans-Serif" font-size="10.00">TaggerHit.h</text>
</a>
</g>
<!-- Node48&#45;&gt;Node49 -->
<g id="edge198" class="edge"><title>Node48&#45;&gt;Node49</title>
<path fill="none" stroke="midnightblue" d="M1563.52,-355.377C1548.58,-345.597 1527.28,-329.92 1513,-312 1501.28,-297.293 1492.43,-277.741 1486.86,-263.205"/>
<polygon fill="midnightblue" stroke="midnightblue" points="1490.09,-261.854 1483.39,-253.649 1483.51,-264.243 1490.09,-261.854"/>
</g>
<!-- Node50 -->
<g id="node155" class="node"><title>Node50</title>
<a xlink:href="_trigger_info_8h.html" target="_top" xlink:title="TriggerInfo.h">
<polygon fill="white" stroke="black" points="1657.5,-290.5 1657.5,-311.5 1728.5,-311.5 1728.5,-290.5 1657.5,-290.5"/>
<text text-anchor="middle" x="1693" y="-298.5" font-family="Helvetica,sans-Serif" font-size="10.00">TriggerInfo.h</text>
</a>
</g>
<!-- Node48&#45;&gt;Node50 -->
<g id="edge210" class="edge"><title>Node48&#45;&gt;Node50</title>
<path fill="none" stroke="midnightblue" d="M1599.49,-355.267C1617.6,-344.76 1645.38,-328.637 1665.96,-316.692"/>
<polygon fill="midnightblue" stroke="midnightblue" points="1667.96,-319.58 1674.85,-311.534 1664.44,-313.526 1667.96,-319.58"/>
</g>
<!-- Node49&#45;&gt;Node4 -->
<g id="edge202" class="edge"><title>Node49&#45;&gt;Node4</title>
<path fill="none" stroke="midnightblue" d="M1445.99,-234.786C1441.31,-233.777 1436.54,-232.816 1432,-232 1314.79,-210.946 1174.45,-195.313 1109.4,-188.609"/>
<polygon fill="midnightblue" stroke="midnightblue" points="1109.56,-185.107 1099.26,-187.572 1108.85,-192.07 1109.56,-185.107"/>
</g>
<!-- Node49&#45;&gt;Node8 -->
<g id="edge206" class="edge"><title>Node49&#45;&gt;Node8</title>
<path fill="none" stroke="midnightblue" d="M1480.68,-232.389C1482.19,-217.4 1487.1,-190.068 1503,-174 1558.56,-117.847 1593.57,-131.625 1671,-116 1797.2,-90.5337 2187.45,-75.4668 2330.62,-70.6764"/>
<polygon fill="midnightblue" stroke="midnightblue" points="2331.02,-74.1652 2340.9,-70.336 2330.79,-67.169 2331.02,-74.1652"/>
</g>
<!-- Node49&#45;&gt;Node18 -->
<g id="edge200" class="edge"><title>Node49&#45;&gt;Node18</title>
<path fill="none" stroke="midnightblue" d="M1484.52,-232.399C1491.57,-217.167 1506.61,-189.25 1528,-174 1571.35,-143.087 1634.54,-132.443 1669.11,-128.824"/>
<polygon fill="midnightblue" stroke="midnightblue" points="1669.64,-132.291 1679.27,-127.88 1668.99,-125.321 1669.64,-132.291"/>
</g>
<!-- Node49&#45;&gt;Node29 -->
<g id="edge204" class="edge"><title>Node49&#45;&gt;Node29</title>
<path fill="none" stroke="midnightblue" d="M1473.45,-232.234C1467.7,-222.747 1459.18,-208.526 1452,-196 1442.59,-179.577 1432.25,-160.743 1424.73,-146.906"/>
<polygon fill="midnightblue" stroke="midnightblue" points="1427.65,-144.947 1419.81,-137.82 1421.49,-148.28 1427.65,-144.947"/>
</g>
<!-- Node49&#45;&gt;Node47 -->
<g id="edge208" class="edge"><title>Node49&#45;&gt;Node47</title>
<path fill="none" stroke="midnightblue" d="M1457.18,-232.497C1437.41,-223.397 1408.59,-210.127 1386.42,-199.925"/>
<polygon fill="midnightblue" stroke="midnightblue" points="1387.62,-196.623 1377.07,-195.621 1384.69,-202.982 1387.62,-196.623"/>
</g>
<!-- Node50&#45;&gt;Node4 -->
<g id="edge258" class="edge"><title>Node50&#45;&gt;Node4</title>
<path fill="none" stroke="midnightblue" d="M1657.08,-291.501C1654.36,-290.94 1651.64,-290.43 1649,-290 1445.72,-256.909 1382.94,-317.448 1187,-254 1169.16,-248.223 1167.03,-241.728 1151,-232 1133.87,-221.608 1114.59,-209.989 1099.49,-200.904"/>
<polygon fill="midnightblue" stroke="midnightblue" points="1101.05,-197.76 1090.68,-195.608 1097.44,-203.76 1101.05,-197.76"/>
</g>
<!-- Node50&#45;&gt;Node8 -->
<g id="edge214" class="edge"><title>Node50&#45;&gt;Node8</title>
<path fill="none" stroke="midnightblue" d="M1728.84,-300.301C1851.76,-297.62 2251.21,-286.469 2298,-254 2354.27,-214.957 2374.6,-129.346 2381.18,-89.7916"/>
<polygon fill="midnightblue" stroke="midnightblue" points="2384.67,-90.1372 2382.72,-79.7231 2377.75,-89.0795 2384.67,-90.1372"/>
</g>
<!-- Node50&#45;&gt;Node18 -->
<g id="edge256" class="edge"><title>Node50&#45;&gt;Node18</title>
<path fill="none" stroke="midnightblue" d="M1693.06,-290.377C1693.22,-262.293 1693.66,-185.673 1693.88,-148.203"/>
<polygon fill="midnightblue" stroke="midnightblue" points="1697.38,-147.948 1693.94,-137.928 1690.38,-147.907 1697.38,-147.948"/>
</g>
<!-- Node50&#45;&gt;Node29 -->
<g id="edge212" class="edge"><title>Node50&#45;&gt;Node29</title>
<path fill="none" stroke="midnightblue" d="M1675.97,-290.377C1628.79,-260.952 1496.17,-178.246 1439.84,-143.113"/>
<polygon fill="midnightblue" stroke="midnightblue" points="1441.5,-140.027 1431.16,-137.705 1437.8,-145.966 1441.5,-140.027"/>
</g>
<!-- Node51 -->
<g id="node159" class="node"><title>Node51</title>
<a xlink:href="_t_data_record_8h.html" target="_top" xlink:title="tree/TDataRecord.h">
<polygon fill="white" stroke="black" points="3091.5,-232.5 3091.5,-253.5 3194.5,-253.5 3194.5,-232.5 3091.5,-232.5"/>
<text text-anchor="middle" x="3143" y="-240.5" font-family="Helvetica,sans-Serif" font-size="10.00">tree/TDataRecord.h</text>
</a>
</g>
<!-- Node50&#45;&gt;Node51 -->
<g id="edge216" class="edge"><title>Node50&#45;&gt;Node51</title>
<path fill="none" stroke="midnightblue" d="M1728.83,-299.66C1874.08,-294.214 2433.15,-273.122 2893,-254 2957.16,-251.332 3030.58,-248.078 3081.17,-245.804"/>
<polygon fill="midnightblue" stroke="midnightblue" points="3081.46,-249.294 3091.29,-245.348 3081.15,-242.301 3081.46,-249.294"/>
</g>
<!-- Node51&#45;&gt;Node34 -->
<g id="edge250" class="edge"><title>Node51&#45;&gt;Node34</title>
<path fill="none" stroke="midnightblue" d="M3091.2,-232.85C3048.69,-223.757 2992.6,-209.77 2974,-196 2957.14,-183.519 2945.09,-162.481 2937.91,-146.909"/>
<polygon fill="midnightblue" stroke="midnightblue" points="2941.07,-145.403 2933.9,-137.61 2934.65,-148.178 2941.07,-145.403"/>
</g>
<!-- Node52 -->
<g id="node161" class="node"><title>Node52</title>
<a xlink:href="_t_i_d_8h.html" target="_top" xlink:title="TID.h">
<polygon fill="white" stroke="black" points="2767.5,-174.5 2767.5,-195.5 2808.5,-195.5 2808.5,-174.5 2767.5,-174.5"/>
<text text-anchor="middle" x="2788" y="-182.5" font-family="Helvetica,sans-Serif" font-size="10.00">TID.h</text>
</a>
</g>
<!-- Node51&#45;&gt;Node52 -->
<g id="edge218" class="edge"><title>Node51&#45;&gt;Node52</title>
<path fill="none" stroke="midnightblue" d="M3091.21,-234.201C3086.74,-233.453 3082.29,-232.711 3078,-232 2983.61,-216.365 2871.85,-198.409 2818.85,-189.927"/>
<polygon fill="midnightblue" stroke="midnightblue" points="2819.18,-186.436 2808.76,-188.313 2818.08,-193.348 2819.18,-186.436"/>
</g>
<!-- Node57 -->
<g id="node175" class="node"><title>Node57</title>
<polygon fill="white" stroke="#bfbfbf" points="2975.5,-58.5 2975.5,-79.5 3016.5,-79.5 3016.5,-58.5 2975.5,-58.5"/>
<text text-anchor="middle" x="2996" y="-66.5" font-family="Helvetica,sans-Serif" font-size="10.00">ctime</text>
</g>
<!-- Node51&#45;&gt;Node57 -->
<g id="edge254" class="edge"><title>Node51&#45;&gt;Node57</title>
<path fill="none" stroke="midnightblue" d="M3098.7,-232.411C3065.22,-223.479 3023.18,-209.95 3012,-196 2987.56,-165.523 2989.14,-117.021 2992.53,-89.6178"/>
<polygon fill="midnightblue" stroke="midnightblue" points="2996.01,-89.9909 2993.97,-79.5948 2989.08,-88.9952 2996.01,-89.9909"/>
</g>
<!-- Node59 -->
<g id="node182" class="node"><title>Node59</title>
<polygon fill="white" stroke="#bfbfbf" points="2512,-116.5 2512,-137.5 2562,-137.5 2562,-116.5 2512,-116.5"/>
<text text-anchor="middle" x="2537" y="-124.5" font-family="Helvetica,sans-Serif" font-size="10.00">iomanip</text>
</g>
<!-- Node51&#45;&gt;Node59 -->
<g id="edge252" class="edge"><title>Node51&#45;&gt;Node59</title>
<path fill="none" stroke="midnightblue" d="M3091.24,-233.976C3086.77,-233.276 3082.31,-232.607 3078,-232 2936.72,-212.089 2895.61,-237.16 2759,-196 2738.45,-189.807 2736.07,-181.608 2716,-174 2655.92,-151.23 2638.03,-154.721 2576,-138 2574.74,-137.66 2573.46,-137.312 2572.16,-136.958"/>
<polygon fill="midnightblue" stroke="midnightblue" points="2572.72,-133.482 2562.15,-134.187 2570.86,-140.228 2572.72,-133.482"/>
</g>
<!-- Node52&#45;&gt;Node8 -->
<g id="edge222" class="edge"><title>Node52&#45;&gt;Node8</title>
<path fill="none" stroke="midnightblue" d="M2767.35,-175.906C2746.47,-166.629 2713.31,-151.693 2685,-138 2665.67,-128.653 2662.33,-122.886 2642,-116 2573.48,-92.7923 2490.61,-80.2867 2437.61,-74.139"/>
<polygon fill="midnightblue" stroke="midnightblue" points="2437.76,-70.6328 2427.43,-72.9929 2436.97,-77.5889 2437.76,-70.6328"/>
</g>
<!-- Node52&#45;&gt;Node12 -->
<g id="edge242" class="edge"><title>Node52&#45;&gt;Node12</title>
<path fill="none" stroke="midnightblue" d="M2767.5,-178.511C2762.45,-176.975 2757.04,-175.382 2752,-174 2686.71,-156.102 2666,-165.189 2604,-138 2587.86,-130.92 2587.82,-121.261 2571,-116 2465.89,-83.1305 699.087,-83.045 589,-80 493.58,-77.3607 380.911,-72.7654 326.176,-70.4384"/>
<polygon fill="midnightblue" stroke="midnightblue" points="326.164,-66.9348 316.023,-70.0045 325.865,-73.9284 326.164,-66.9348"/>
</g>
<!-- Node52&#45;&gt;Node13 -->
<g id="edge244" class="edge"><title>Node52&#45;&gt;Node13</title>
<path fill="none" stroke="midnightblue" d="M2785.42,-174.295C2780.77,-155.045 2770.93,-114.289 2764.95,-89.5091"/>
<polygon fill="midnightblue" stroke="midnightblue" points="2768.33,-88.5788 2762.58,-79.6792 2761.52,-90.2213 2768.33,-88.5788"/>
</g>
<!-- Node52&#45;&gt;Node14 -->
<g id="edge238" class="edge"><title>Node52&#45;&gt;Node14</title>
<path fill="none" stroke="midnightblue" d="M2767.38,-178.629C2729.97,-167.032 2653.68,-143.19 2642,-138 2624.17,-130.076 2622.78,-121.296 2604,-116 2511.89,-90.03 1020.74,-72.4141 752.247,-69.445"/>
<polygon fill="midnightblue" stroke="midnightblue" points="752.185,-65.9442 742.147,-69.3339 752.108,-72.9438 752.185,-65.9442"/>
</g>
<!-- Node52&#45;&gt;Node34 -->
<g id="edge220" class="edge"><title>Node52&#45;&gt;Node34</title>
<path fill="none" stroke="midnightblue" d="M2808.65,-176.566C2831.12,-167.388 2867.45,-152.548 2894.51,-141.494"/>
<polygon fill="midnightblue" stroke="midnightblue" points="2896.09,-144.632 2904.02,-137.611 2893.44,-138.152 2896.09,-144.632"/>
</g>
<!-- Node53 -->
<g id="node165" class="node"><title>Node53</title>
<a xlink:href="time_8h.html" target="_top" xlink:title="base/std_ext/time.h">
<polygon fill="white" stroke="black" points="3127.5,-116.5 3127.5,-137.5 3230.5,-137.5 3230.5,-116.5 3127.5,-116.5"/>
<text text-anchor="middle" x="3179" y="-124.5" font-family="Helvetica,sans-Serif" font-size="10.00">base/std_ext/time.h</text>
</a>
</g>
<!-- Node52&#45;&gt;Node53 -->
<g id="edge224" class="edge"><title>Node52&#45;&gt;Node53</title>
<path fill="none" stroke="midnightblue" d="M2808.75,-181.923C2865.98,-173.432 3027.79,-149.43 3117.39,-136.139"/>
<polygon fill="midnightblue" stroke="midnightblue" points="3118.04,-139.581 3127.42,-134.651 3117.01,-132.657 3118.04,-139.581"/>
</g>
<!-- Node52&#45;&gt;Node57 -->
<g id="edge248" class="edge"><title>Node52&#45;&gt;Node57</title>
<path fill="none" stroke="midnightblue" d="M2802.51,-174.435C2822.37,-160.216 2859.4,-134.565 2893,-116 2916.91,-102.789 2945.22,-90.0693 2966.1,-81.2014"/>
<polygon fill="midnightblue" stroke="midnightblue" points="2967.55,-84.3888 2975.42,-77.2913 2964.84,-77.9343 2967.55,-84.3888"/>
</g>
<!-- Node58 -->
<g id="node178" class="node"><title>Node58</title>
<polygon fill="white" stroke="#bfbfbf" points="2694,-116.5 2694,-137.5 2732,-137.5 2732,-116.5 2694,-116.5"/>
<text text-anchor="middle" x="2713" y="-124.5" font-family="Helvetica,sans-Serif" font-size="10.00">tuple</text>
</g>
<!-- Node52&#45;&gt;Node58 -->
<g id="edge240" class="edge"><title>Node52&#45;&gt;Node58</title>
<path fill="none" stroke="midnightblue" d="M2774.24,-174.362C2763.25,-165.859 2747.63,-153.779 2734.91,-143.947"/>
<polygon fill="midnightblue" stroke="midnightblue" points="2736.72,-140.919 2726.67,-137.571 2732.44,-146.457 2736.72,-140.919"/>
</g>
<!-- Node52&#45;&gt;Node59 -->
<g id="edge246" class="edge"><title>Node52&#45;&gt;Node59</title>
<path fill="none" stroke="midnightblue" d="M2767.25,-177.875C2762.9,-176.497 2758.32,-175.132 2754,-174 2675.92,-153.545 2654.45,-156.969 2576,-138 2574.73,-137.693 2573.44,-137.373 2572.14,-137.043"/>
<polygon fill="midnightblue" stroke="midnightblue" points="2572.67,-133.561 2562.1,-134.38 2570.87,-140.327 2572.67,-133.561"/>
</g>
<!-- Node54 -->
<g id="node167" class="node"><title>Node54</title>
<a xlink:href="string_8h.html" target="_top" xlink:title="base/std_ext/string.h">
<polygon fill="white" stroke="black" points="3136,-58.5 3136,-79.5 3244,-79.5 3244,-58.5 3136,-58.5"/>
<text text-anchor="middle" x="3190" y="-66.5" font-family="Helvetica,sans-Serif" font-size="10.00">base/std_ext/string.h</text>
</a>
</g>
<!-- Node53&#45;&gt;Node54 -->
<g id="edge226" class="edge"><title>Node53&#45;&gt;Node54</title>
<path fill="none" stroke="midnightblue" d="M3181.02,-116.362C3182.44,-108.84 3184.4,-98.5187 3186.13,-89.4308"/>
<polygon fill="midnightblue" stroke="midnightblue" points="3189.57,-90.0477 3188,-79.5707 3182.69,-88.7433 3189.57,-90.0477"/>
</g>
<!-- Node56 -->
<g id="node173" class="node"><title>Node56</title>
<polygon fill="white" stroke="#bfbfbf" points="3072,-58.5 3072,-79.5 3118,-79.5 3118,-58.5 3072,-58.5"/>
<text text-anchor="middle" x="3095" y="-66.5" font-family="Helvetica,sans-Serif" font-size="10.00">cstring</text>
</g>
<!-- Node53&#45;&gt;Node56 -->
<g id="edge234" class="edge"><title>Node53&#45;&gt;Node56</title>
<path fill="none" stroke="midnightblue" d="M3163.59,-116.362C3151.04,-107.696 3133.11,-95.3126 3118.73,-85.3819"/>
<polygon fill="midnightblue" stroke="midnightblue" points="3120.53,-82.3725 3110.31,-79.5707 3116.55,-88.1327 3120.53,-82.3725"/>
</g>
<!-- Node53&#45;&gt;Node57 -->
<g id="edge236" class="edge"><title>Node53&#45;&gt;Node57</title>
<path fill="none" stroke="midnightblue" d="M3145.86,-116.497C3111.79,-105.698 3059.19,-89.0281 3026.23,-78.5802"/>
<polygon fill="midnightblue" stroke="midnightblue" points="3027.26,-75.2358 3016.67,-75.5509 3025.14,-81.9087 3027.26,-75.2358"/>
</g>
<!-- Node54&#45;&gt;Node3 -->
<g id="edge228" class="edge"><title>Node54&#45;&gt;Node3</title>
<path fill="none" stroke="midnightblue" d="M3211.73,-58.4966C3230.82,-49.2679 3258.79,-35.75 3280.01,-25.4932"/>
<polygon fill="midnightblue" stroke="midnightblue" points="3281.75,-28.5401 3289.23,-21.0371 3278.71,-22.2376 3281.75,-28.5401"/>
</g>
<!-- Node54&#45;&gt;Node28 -->
<g id="edge232" class="edge"><title>Node54&#45;&gt;Node28</title>
<path fill="none" stroke="midnightblue" d="M3244.15,-60.4419C3319.29,-48.5673 3453.3,-27.3889 3518.81,-17.0348"/>
<polygon fill="midnightblue" stroke="midnightblue" points="3519.39,-20.4873 3528.72,-15.4691 3518.3,-13.5731 3519.39,-20.4873"/>
</g>
<!-- Node55 -->
<g id="node170" class="node"><title>Node55</title>
<polygon fill="white" stroke="#bfbfbf" points="3164,-0.5 3164,-21.5 3216,-21.5 3216,-0.5 3164,-0.5"/>
<text text-anchor="middle" x="3190" y="-8.5" font-family="Helvetica,sans-Serif" font-size="10.00">sstream</text>
</g>
<!-- Node54&#45;&gt;Node55 -->
<g id="edge230" class="edge"><title>Node54&#45;&gt;Node55</title>
<path fill="none" stroke="midnightblue" d="M3190,-58.3619C3190,-50.9219 3190,-40.7427 3190,-31.7276"/>
<polygon fill="midnightblue" stroke="midnightblue" points="3193.5,-31.5706 3190,-21.5707 3186.5,-31.5707 3193.5,-31.5706"/>
</g>
<!-- Node60&#45;&gt;Node9 -->
<g id="edge274" class="edge"><title>Node60&#45;&gt;Node9</title>
<path fill="none" stroke="midnightblue" d="M182.426,-116.265C198.026,-100.866 229.045,-72.7429 261,-58 325.682,-28.158 409.497,-17.0979 454.692,-13.1247"/>
<polygon fill="midnightblue" stroke="midnightblue" points="455.106,-16.6027 464.788,-12.2998 454.536,-9.62596 455.106,-16.6027"/>
</g>
<!-- Node60&#45;&gt;Node12 -->
<g id="edge276" class="edge"><title>Node60&#45;&gt;Node12</title>
<path fill="none" stroke="midnightblue" d="M193.912,-116.497C212.811,-107.438 240.331,-94.2462 261.576,-84.0628"/>
<polygon fill="midnightblue" stroke="midnightblue" points="263.337,-87.0999 270.842,-79.6212 260.311,-80.7876 263.337,-87.0999"/>
</g>
<!-- Node61&#45;&gt;Node3 -->
<g id="edge280" class="edge"><title>Node61&#45;&gt;Node3</title>
<path fill="none" stroke="midnightblue" d="M2096.27,-236.773C2111.26,-235.036 2127.79,-233.277 2143,-232 2217.73,-225.728 2750.84,-231.317 2817,-196 2885.47,-159.452 2856.06,-95.508 2924,-58 2982.98,-25.443 3158.15,-30.323 3225,-22 3243.05,-19.753 3263.24,-17.1441 3279.41,-15.0311"/>
<polygon fill="midnightblue" stroke="midnightblue" points="3279.94,-18.4924 3289.4,-13.723 3279.03,-11.5518 3279.94,-18.4924"/>
</g>
<!-- Node61&#45;&gt;Node4 -->
<g id="edge282" class="edge"><title>Node61&#45;&gt;Node4</title>
<path fill="none" stroke="midnightblue" d="M1997.7,-240.064C1826.24,-229.854 1258.35,-196.037 1109.16,-187.153"/>
<polygon fill="midnightblue" stroke="midnightblue" points="1109.34,-183.658 1099.15,-186.557 1108.93,-190.646 1109.34,-183.658"/>
</g>
<!-- Node61&#45;&gt;Node21 -->
<g id="edge284" class="edge"><title>Node61&#45;&gt;Node21</title>
<path fill="none" stroke="midnightblue" d="M2032.88,-232.362C2021.48,-223.777 2005.24,-211.546 1992.12,-201.664"/>
<polygon fill="midnightblue" stroke="midnightblue" points="1994.13,-198.792 1984.03,-195.571 1989.92,-204.383 1994.13,-198.792"/>
</g>
<!-- Node62&#45;&gt;Node3 -->
<g id="edge308" class="edge"><title>Node62&#45;&gt;Node3</title>
<path fill="none" stroke="midnightblue" d="M3414.78,-350.386C3436.48,-342.073 3459.72,-329.777 3476,-312 3497.93,-288.052 3500,-275.469 3500,-243 3500,-243 3500,-243 3500,-185 3500,-122.189 3484.63,-100.087 3438,-58 3410.58,-33.2454 3369.02,-21.2057 3340.75,-15.5781"/>
<polygon fill="midnightblue" stroke="midnightblue" points="3341.09,-12.0824 3330.63,-13.722 3339.83,-18.9677 3341.09,-12.0824"/>
</g>
<!-- Node62&#45;&gt;Node18 -->
<g id="edge310" class="edge"><title>Node62&#45;&gt;Node18</title>
<path fill="none" stroke="midnightblue" d="M3297.25,-364.278C3150.49,-359.534 2770.86,-344.419 2649,-312 2590.98,-296.565 2580.84,-280.565 2527,-254 2507.75,-244.502 2503.82,-240.253 2484,-232 2436.51,-212.224 2420.96,-217.001 2374,-196 2356.19,-188.033 2354.65,-179.747 2336,-174 2217.5,-137.481 1822.02,-128.958 1718.81,-127.336"/>
<polygon fill="midnightblue" stroke="midnightblue" points="1718.77,-123.835 1708.72,-127.185 1718.67,-130.834 1718.77,-123.835"/>
</g>
<!-- Node62&#45;&gt;Node27 -->
<g id="edge300" class="edge"><title>Node62&#45;&gt;Node27</title>
<path fill="none" stroke="midnightblue" d="M3377.65,-348.946C3388.05,-339.347 3399.44,-326.408 3405,-312 3408.52,-302.878 3408.07,-299.285 3405,-290 3394.94,-259.529 3387.49,-251.498 3362,-232 3341.32,-216.179 3314.64,-205.029 3291.7,-197.573"/>
<polygon fill="midnightblue" stroke="midnightblue" points="3292.71,-194.222 3282.12,-194.601 3290.63,-200.908 3292.71,-194.222"/>
</g>
<!-- Node63 -->
<g id="node214" class="node"><title>Node63</title>
<a xlink:href="_t_header_info_8h.html" target="_top" xlink:title="tree/THeaderInfo.h">
<polygon fill="white" stroke="black" points="3298,-290.5 3298,-311.5 3396,-311.5 3396,-290.5 3298,-290.5"/>
<text text-anchor="middle" x="3347" y="-298.5" font-family="Helvetica,sans-Serif" font-size="10.00">tree/THeaderInfo.h</text>
</a>
</g>
<!-- Node62&#45;&gt;Node63 -->
<g id="edge302" class="edge"><title>Node62&#45;&gt;Node63</title>
<path fill="none" stroke="midnightblue" d="M3353.64,-348.922C3352.49,-340.67 3351.11,-330.692 3349.91,-321.982"/>
<polygon fill="midnightblue" stroke="midnightblue" points="3353.34,-321.278 3348.5,-311.852 3346.41,-322.238 3353.34,-321.278"/>
</g>
<!-- Node63&#45;&gt;Node51 -->
<g id="edge304" class="edge"><title>Node63&#45;&gt;Node51</title>
<path fill="none" stroke="midnightblue" d="M3310.06,-290.497C3276.37,-280.918 3226.43,-266.72 3189.93,-256.342"/>
<polygon fill="midnightblue" stroke="midnightblue" points="3190.59,-252.891 3180.01,-253.523 3188.67,-259.624 3190.59,-252.891"/>
</g>
<!-- Node63&#45;&gt;Node53 -->
<g id="edge306" class="edge"><title>Node63&#45;&gt;Node53</title>
<path fill="none" stroke="midnightblue" d="M3353.44,-290.229C3360.93,-276.223 3371.14,-251.272 3362,-232 3338.38,-182.206 3279.31,-154.673 3234.62,-140.434"/>
<polygon fill="midnightblue" stroke="midnightblue" points="3235.62,-137.08 3225.04,-137.511 3233.58,-143.776 3235.62,-137.08"/>
</g>
<!-- Node64&#45;&gt;Node2 -->
<g id="edge338" class="edge"><title>Node64&#45;&gt;Node2</title>
<path fill="none" stroke="midnightblue" d="M2542.81,-594.362C2534.04,-586.023 2521.65,-574.242 2511.42,-564.516"/>
<polygon fill="midnightblue" stroke="midnightblue" points="2513.78,-561.925 2504.12,-557.571 2508.95,-566.998 2513.78,-561.925"/>
</g>
<!-- Node64&#45;&gt;Node4 -->
<g id="edge346" class="edge"><title>Node64&#45;&gt;Node4</title>
<path fill="none" stroke="midnightblue" d="M2501.3,-604.372C2228.94,-601.015 990.689,-584.351 914,-558 772.499,-509.378 712.744,-324.938 830,-232 861.529,-207.01 976.95,-193.432 1036.66,-187.941"/>
<polygon fill="midnightblue" stroke="midnightblue" points="1037.14,-191.413 1046.79,-187.039 1036.52,-184.441 1037.14,-191.413"/>
</g>
<!-- Node64&#45;&gt;Node6 -->
<g id="edge340" class="edge"><title>Node64&#45;&gt;Node6</title>
<path fill="none" stroke="midnightblue" d="M2501.21,-603.054C2266.07,-594.383 1313.92,-559.276 1049.44,-549.524"/>
<polygon fill="midnightblue" stroke="midnightblue" points="1049.34,-546.017 1039.21,-549.147 1049.08,-553.013 1049.34,-546.017"/>
</g>
<!-- Node64&#45;&gt;Node7 -->
<g id="edge342" class="edge"><title>Node64&#45;&gt;Node7</title>
<path fill="none" stroke="midnightblue" d="M2501.16,-604.176C2233.24,-599.908 1031.14,-579.691 866,-558 755.483,-543.483 727.138,-537.023 622,-500 465.438,-444.869 372.146,-417.037 341,-254 334.265,-218.747 327.041,-199.79 352,-174 372.79,-152.517 449.658,-139.526 504.364,-132.805"/>
<polygon fill="midnightblue" stroke="midnightblue" points="504.786,-136.28 514.302,-131.623 503.958,-129.329 504.786,-136.28"/>
</g>
<!-- Node64&#45;&gt;Node9 -->
<g id="edge352" class="edge"><title>Node64&#45;&gt;Node9</title>
<path fill="none" stroke="midnightblue" d="M2606.65,-603.483C2705.76,-599.934 2915.9,-588.905 2981,-558 3111.96,-495.826 3118.9,-302.085 2992,-232 2883.71,-172.196 2834.61,-231.125 2716,-196 2694.27,-189.565 2691.45,-181.327 2670,-174 2598.15,-149.453 2568.01,-177.23 2503,-138 2463.29,-114.038 2477.78,-78.1251 2436,-58 2346.05,-14.674 765.691,-11.2872 519.207,-11.0225"/>
<polygon fill="midnightblue" stroke="midnightblue" points="519.112,-7.52245 509.108,-11.0126 519.105,-14.5225 519.112,-7.52245"/>
</g>
<!-- Node64&#45;&gt;Node12 -->
<g id="edge354" class="edge"><title>Node64&#45;&gt;Node12</title>
<path fill="none" stroke="midnightblue" d="M2501.3,-604.2C2241.04,-600.163 1091.2,-581.304 734,-558 587.288,-548.428 76,-636.024 76,-489 76,-489 76,-489 76,-301 76,-187.017 211.976,-233.631 274,-138 283.482,-123.38 288.278,-104.069 290.675,-89.5957"/>
<polygon fill="midnightblue" stroke="midnightblue" points="294.15,-90.0188 292.079,-79.6283 287.219,-89.0423 294.15,-90.0188"/>
</g>
<!-- Node64&#45;&gt;Node18 -->
<g id="edge348" class="edge"><title>Node64&#45;&gt;Node18</title>
<path fill="none" stroke="midnightblue" d="M2606.77,-603.135C2729.94,-597.348 3026,-574.543 3026,-489 3026,-489 3026,-489 3026,-301 3026,-197.223 2733.65,-203.92 2688,-196 2635.01,-186.806 2622.41,-180.345 2569,-174 2234.13,-134.22 1823.12,-128.091 1718.92,-127.163"/>
<polygon fill="midnightblue" stroke="midnightblue" points="1718.79,-123.662 1708.77,-127.081 1718.74,-130.662 1718.79,-123.662"/>
</g>
<!-- Node64&#45;&gt;Node21 -->
<g id="edge350" class="edge"><title>Node64&#45;&gt;Node21</title>
<path fill="none" stroke="midnightblue" d="M2554,-594.444C2554,-574.062 2554,-527.868 2554,-489 2554,-489 2554,-489 2554,-431 2554,-331.411 2533.46,-287.845 2451,-232 2432.1,-219.203 2097.83,-194.205 1997.95,-186.992"/>
<polygon fill="midnightblue" stroke="midnightblue" points="1997.97,-183.484 1987.74,-186.258 1997.46,-190.466 1997.97,-183.484"/>
</g>
<!-- Node64&#45;&gt;Node30 -->
<g id="edge356" class="edge"><title>Node64&#45;&gt;Node30</title>
<path fill="none" stroke="midnightblue" d="M2606.57,-602.04C2820.45,-589.656 3614,-540.257 3614,-489 3614,-489 3614,-489 3614,-243 3614,-208.661 3602.26,-170.161 3593.99,-147.282"/>
<polygon fill="midnightblue" stroke="midnightblue" points="3597.17,-145.798 3590.38,-137.667 3590.61,-148.259 3597.17,-145.798"/>
</g>
<!-- Node64&#45;&gt;Node34 -->
<g id="edge344" class="edge"><title>Node64&#45;&gt;Node34</title>
<path fill="none" stroke="midnightblue" d="M2606.57,-603.939C2733.3,-600.893 3052.67,-590.168 3154,-558 3211.18,-539.85 3270,-548.987 3270,-489 3270,-489 3270,-489 3270,-366 3270,-335.859 3308.25,-256.716 3291,-232 3264.44,-193.951 3235.01,-215.698 3193,-196 3175.33,-187.716 3173.3,-180.785 3155,-174 3076.78,-144.995 3049.2,-158.602 2968.16,-139.164"/>
<polygon fill="midnightblue" stroke="midnightblue" points="2968.56,-135.655 2958.01,-136.625 2966.86,-142.446 2968.56,-135.655"/>
</g>
<!-- Node66 -->
<g id="node246" class="node"><title>Node66</title>
<polygon fill="white" stroke="#bfbfbf" points="3717.5,-536.5 3717.5,-557.5 3832.5,-557.5 3832.5,-536.5 3717.5,-536.5"/>
<text text-anchor="middle" x="3775" y="-544.5" font-family="Helvetica,sans-Serif" font-size="10.00">detail/easylogging++.h</text>
</g>
<!-- Node65&#45;&gt;Node66 -->
<g id="edge360" class="edge"><title>Node65&#45;&gt;Node66</title>
<path fill="none" stroke="midnightblue" d="M3767.65,-594.362C3768.81,-586.922 3770.38,-576.743 3771.78,-567.728"/>
<polygon fill="midnightblue" stroke="midnightblue" points="3775.28,-567.989 3773.36,-557.571 3768.37,-566.916 3775.28,-567.989"/>
</g>
</g>
</svg>
