<?xml version="1.0" encoding="UTF-8" standalone="no"?>
<!DOCTYPE svg PUBLIC "-//W3C//DTD SVG 1.1//EN"
 "http://www.w3.org/Graphics/SVG/1.1/DTD/svg11.dtd">
<!-- Generated by graphviz version 2.26.3 (20100126.1600)
 -->
<!-- Title: src/unpacker/UnpackerAcqu.h Pages: 1 -->
<svg width="3907pt" height="624pt"
 viewBox="0.00 0.00 3906.52 624.00" xmlns="http://www.w3.org/2000/svg" xmlns:xlink="http://www.w3.org/1999/xlink">
<g id="graph1" class="graph" transform="scale(1 1) rotate(0) translate(4 620)">
<title>src/unpacker/UnpackerAcqu.h</title>
<polygon fill="white" stroke="white" points="-4,5 -4,-620 3903.52,-620 3903.52,5 -4,5"/>
<!-- Node1 -->
<g id="node1" class="node"><title>Node1</title>
<polygon fill="#bfbfbf" stroke="black" points="3127.02,-594.5 3127.02,-615.5 3276.02,-615.5 3276.02,-594.5 3127.02,-594.5"/>
<text text-anchor="middle" x="3201.52" y="-602.5" font-family="Helvetica,sans-Serif" font-size="10.00">src/unpacker/UnpackerAcqu.h</text>
</g>
<!-- Node2 -->
<g id="node3" class="node"><title>Node2</title>
<a xlink:href="_unpacker_8h.html" target="_top" xlink:title="Unpacker.h">
<polygon fill="white" stroke="black" points="3832.02,-232.5 3832.02,-253.5 3899.02,-253.5 3899.02,-232.5 3832.02,-232.5"/>
<text text-anchor="middle" x="3865.52" y="-240.5" font-family="Helvetica,sans-Serif" font-size="10.00">Unpacker.h</text>
</a>
</g>
<!-- Node1&#45;&gt;Node2 -->
<g id="edge2" class="edge"><title>Node1&#45;&gt;Node2</title>
<path fill="none" stroke="midnightblue" d="M3276.24,-603.38C3430.69,-599.45 3774.37,-587.472 3818.52,-558 3847.11,-538.906 3853.52,-523.386 3853.52,-489 3853.52,-489 3853.52,-489 3853.52,-366 3853.52,-329.904 3858.7,-288.131 3862.25,-263.73"/>
<polygon fill="midnightblue" stroke="midnightblue" points="3865.71,-264.235 3863.74,-253.825 3858.79,-263.191 3865.71,-264.235"/>
</g>
<!-- Node4 -->
<g id="node7" class="node"><title>Node4</title>
<polygon fill="white" stroke="#bfbfbf" points="2810.52,-174.5 2810.52,-195.5 2862.52,-195.5 2862.52,-174.5 2810.52,-174.5"/>
<text text-anchor="middle" x="2836.52" y="-182.5" font-family="Helvetica,sans-Serif" font-size="10.00">memory</text>
</g>
<!-- Node1&#45;&gt;Node4 -->
<g id="edge320" class="edge"><title>Node1&#45;&gt;Node4</title>
<path fill="none" stroke="midnightblue" d="M3264.01,-594.453C3353.77,-577.504 3508.52,-540.777 3508.52,-489 3508.52,-489 3508.52,-489 3508.52,-366 3508.52,-326.22 3214.95,-242.246 3176.52,-232 3068.2,-203.129 2935.48,-191.31 2872.71,-187.071"/>
<polygon fill="midnightblue" stroke="midnightblue" points="2872.74,-183.566 2862.53,-186.41 2872.29,-190.552 2872.74,-183.566"/>
</g>
<!-- Node5 -->
<g id="node9" class="node"><title>Node5</title>
<a xlink:href="_exp_config_8h.html" target="_top" xlink:title="expconfig/ExpConfig.h">
<polygon fill="white" stroke="black" points="3143.52,-536.5 3143.52,-557.5 3259.52,-557.5 3259.52,-536.5 3143.52,-536.5"/>
<text text-anchor="middle" x="3201.52" y="-544.5" font-family="Helvetica,sans-Serif" font-size="10.00">expconfig/ExpConfig.h</text>
</a>
</g>
<!-- Node1&#45;&gt;Node5 -->
<g id="edge8" class="edge"><title>Node1&#45;&gt;Node5</title>
<path fill="none" stroke="midnightblue" d="M3201.52,-594.362C3201.52,-586.922 3201.52,-576.743 3201.52,-567.728"/>
<polygon fill="midnightblue" stroke="midnightblue" points="3205.02,-567.571 3201.52,-557.571 3198.02,-567.571 3205.02,-567.571"/>
</g>
<!-- Node6 -->
<g id="node11" class="node"><title>Node6</title>
<a xlink:href="_detector__t_8h.html" target="_top" xlink:title="base/Detector_t.h">
<polygon fill="white" stroke="black" points="1169.02,-116.5 1169.02,-137.5 1264.02,-137.5 1264.02,-116.5 1169.02,-116.5"/>
<text text-anchor="middle" x="1216.52" y="-124.5" font-family="Helvetica,sans-Serif" font-size="10.00">base/Detector_t.h</text>
</a>
</g>
<!-- Node1&#45;&gt;Node6 -->
<g id="edge318" class="edge"><title>Node1&#45;&gt;Node6</title>
<path fill="none" stroke="midnightblue" d="M3126.93,-603.589C2707.71,-595.42 663.515,-552.337 663.515,-489 663.515,-489 663.515,-489 663.515,-301 663.515,-245.9 718.408,-258.866 766.515,-232 820.691,-201.744 833.991,-191.533 893.515,-174 918.392,-166.673 1072.85,-145.792 1158.85,-134.488"/>
<polygon fill="midnightblue" stroke="midnightblue" points="1159.53,-137.929 1168.98,-133.158 1158.61,-130.989 1159.53,-137.929"/>
</g>
<!-- Node8 -->
<g id="node15" class="node"><title>Node8</title>
<polygon fill="white" stroke="#bfbfbf" points="1594.52,-0.5 1594.52,-21.5 1638.52,-21.5 1638.52,-0.5 1594.52,-0.5"/>
<text text-anchor="middle" x="1616.52" y="-8.5" font-family="Helvetica,sans-Serif" font-size="10.00">vector</text>
</g>
<!-- Node1&#45;&gt;Node8 -->
<g id="edge326" class="edge"><title>Node1&#45;&gt;Node8</title>
<path fill="none" stroke="midnightblue" d="M3127,-604.494C2678.33,-601.366 350.785,-583.936 202.515,-558 109.477,-541.725 1.51513,-583.45 1.51513,-489 1.51513,-489 1.51513,-489 1.51513,-127 1.51513,-95.1919 -4.5454,-77.5888 20.5151,-58 84.0018,-8.37499 1390.04,-26.0283 1470.52,-22 1509.63,-20.0421 1554.55,-16.4563 1584.12,-13.9114"/>
<polygon fill="midnightblue" stroke="midnightblue" points="1584.62,-17.3811 1594.28,-13.0258 1584.01,-10.4075 1584.62,-17.3811"/>
</g>
<!-- Node11 -->
<g id="node21" class="node"><title>Node11</title>
<polygon fill="white" stroke="#bfbfbf" points="613.515,-58.5 613.515,-79.5 659.515,-79.5 659.515,-58.5 613.515,-58.5"/>
<text text-anchor="middle" x="636.515" y="-66.5" font-family="Helvetica,sans-Serif" font-size="10.00">cstdint</text>
</g>
<!-- Node1&#45;&gt;Node11 -->
<g id="edge328" class="edge"><title>Node1&#45;&gt;Node11</title>
<path fill="none" stroke="midnightblue" d="M3126.97,-604.267C2731.01,-600.29 882.59,-580.639 628.515,-558 436.16,-540.86 199.515,-682.117 199.515,-489 199.515,-489 199.515,-489 199.515,-185 199.515,-139.378 234.109,-135.156 275.515,-116 333.45,-89.1973 524.72,-75.4296 602.836,-70.8138"/>
<polygon fill="midnightblue" stroke="midnightblue" points="603.3,-74.293 613.082,-70.2229 602.897,-67.3046 603.3,-74.293"/>
</g>
<!-- Node17 -->
<g id="node37" class="node"><title>Node17</title>
<polygon fill="white" stroke="#bfbfbf" points="2395.02,-116.5 2395.02,-137.5 2424.02,-137.5 2424.02,-116.5 2395.02,-116.5"/>
<text text-anchor="middle" x="2409.52" y="-124.5" font-family="Helvetica,sans-Serif" font-size="10.00">list</text>
</g>
<!-- Node1&#45;&gt;Node17 -->
<g id="edge322" class="edge"><title>Node1&#45;&gt;Node17</title>
<path fill="none" stroke="midnightblue" d="M3276.06,-598.371C3437.39,-583.019 3804.52,-542.237 3804.52,-489 3804.52,-489 3804.52,-489 3804.52,-301 3804.52,-179.14 3681.59,-194.8 3561.52,-174 3333.97,-134.584 2580.74,-128.039 2434.31,-127.131"/>
<polygon fill="midnightblue" stroke="midnightblue" points="2434.14,-123.63 2424.12,-127.071 2434.1,-130.63 2434.14,-123.63"/>
</g>
<!-- Node20 -->
<g id="node48" class="node"><title>Node20</title>
<polygon fill="white" stroke="#bfbfbf" points="3248.02,-174.5 3248.02,-195.5 3283.02,-195.5 3283.02,-174.5 3248.02,-174.5"/>
<text text-anchor="middle" x="3265.52" y="-182.5" font-family="Helvetica,sans-Serif" font-size="10.00">map</text>
</g>
<!-- Node1&#45;&gt;Node20 -->
<g id="edge324" class="edge"><title>Node1&#45;&gt;Node20</title>
<path fill="none" stroke="midnightblue" d="M3276.3,-602.842C3359.2,-598.964 3486.05,-588.142 3522.52,-558 3547.54,-537.314 3546.52,-521.469 3546.52,-489 3546.52,-489 3546.52,-489 3546.52,-366 3546.52,-330.578 3544.9,-317.454 3522.52,-290 3463.54,-217.655 3346.72,-194.678 3293.32,-187.777"/>
<polygon fill="midnightblue" stroke="midnightblue" points="3293.57,-184.282 3283.23,-186.569 3292.74,-191.233 3293.57,-184.282"/>
</g>
<!-- Node29 -->
<g id="node71" class="node"><title>Node29</title>
<polygon fill="white" stroke="#bfbfbf" points="1073.52,-116.5 1073.52,-137.5 1113.52,-137.5 1113.52,-116.5 1073.52,-116.5"/>
<text text-anchor="middle" x="1093.52" y="-124.5" font-family="Helvetica,sans-Serif" font-size="10.00">limits</text>
</g>
<!-- Node1&#45;&gt;Node29 -->
<g id="edge330" class="edge"><title>Node1&#45;&gt;Node29</title>
<path fill="none" stroke="midnightblue" d="M3126.8,-604.48C2799.91,-602.027 1493.71,-590.359 1084.52,-558 878.865,-541.737 625.515,-695.292 625.515,-489 625.515,-489 625.515,-489 625.515,-243 625.515,-152.451 959.752,-132.101 1063.3,-127.97"/>
<polygon fill="midnightblue" stroke="midnightblue" points="1063.54,-131.463 1073.41,-127.59 1063.28,-124.468 1063.54,-131.463"/>
</g>
<!-- Node3 -->
<g id="node5" class="node"><title>Node3</title>
<polygon fill="white" stroke="#bfbfbf" points="2626.02,-0.5 2626.02,-21.5 2667.02,-21.5 2667.02,-0.5 2626.02,-0.5"/>
<text text-anchor="middle" x="2646.52" y="-8.5" font-family="Helvetica,sans-Serif" font-size="10.00">string</text>
</g>
<!-- Node2&#45;&gt;Node3 -->
<g id="edge4" class="edge"><title>Node2&#45;&gt;Node3</title>
<path fill="none" stroke="midnightblue" d="M3864.36,-232.182C3860.2,-199.219 3842.75,-99.7375 3780.52,-58 3733.43,-26.4214 2854.23,-13.6326 2677.36,-11.3742"/>
<polygon fill="midnightblue" stroke="midnightblue" points="2677.23,-7.87237 2667.19,-11.2461 2677.14,-14.8718 2677.23,-7.87237"/>
</g>
<!-- Node2&#45;&gt;Node4 -->
<g id="edge6" class="edge"><title>Node2&#45;&gt;Node4</title>
<path fill="none" stroke="midnightblue" d="M3831.98,-239.501C3808.38,-237.13 3776.04,-234.064 3747.52,-232 3407.89,-207.42 2996.13,-190.975 2872.98,-186.338"/>
<polygon fill="midnightblue" stroke="midnightblue" points="2872.75,-182.828 2862.63,-185.951 2872.49,-189.823 2872.75,-182.828"/>
</g>
<!-- Node5&#45;&gt;Node4 -->
<g id="edge312" class="edge"><title>Node5&#45;&gt;Node4</title>
<path fill="none" stroke="midnightblue" d="M3201.52,-536.444C3201.52,-516.062 3201.52,-469.868 3201.52,-431 3201.52,-431 3201.52,-431 3201.52,-366 3201.52,-302.434 3200.91,-272.014 3151.52,-232 3109.34,-197.83 2946.56,-188.427 2872.99,-185.901"/>
<polygon fill="midnightblue" stroke="midnightblue" points="2872.91,-182.397 2862.81,-185.576 2872.69,-189.393 2872.91,-182.397"/>
</g>
<!-- Node5&#45;&gt;Node6 -->
<g id="edge10" class="edge"><title>Node5&#45;&gt;Node6</title>
<path fill="none" stroke="midnightblue" d="M3143.39,-545.825C2771.35,-538.121 739.515,-493.197 739.515,-431 739.515,-431 739.515,-431 739.515,-301 739.515,-212.707 1031.6,-156.049 1158.65,-135.582"/>
<polygon fill="midnightblue" stroke="midnightblue" points="1159.27,-139.026 1168.59,-133.998 1158.17,-132.113 1159.27,-139.026"/>
</g>
<!-- Node7 -->
<g id="node13" class="node"><title>Node7</title>
<a xlink:href="printable_8h.html" target="_top" xlink:title="base/printable.h">
<polygon fill="white" stroke="black" points="1015.52,-58.5 1015.52,-79.5 1101.52,-79.5 1101.52,-58.5 1015.52,-58.5"/>
<text text-anchor="middle" x="1058.52" y="-66.5" font-family="Helvetica,sans-Serif" font-size="10.00">base/printable.h</text>
</a>
</g>
<!-- Node5&#45;&gt;Node7 -->
<g id="edge310" class="edge"><title>Node5&#45;&gt;Node7</title>
<path fill="none" stroke="midnightblue" d="M3143.47,-546.59C2852.5,-544.397 1550.8,-532.887 1147.52,-500 963.21,-484.97 914.027,-490.247 735.515,-442 588.117,-402.162 537.027,-407.028 417.515,-312 337.017,-247.993 224.062,-190.921 294.515,-116 318.856,-90.1161 835.882,-74.6745 1005.29,-70.2953"/>
<polygon fill="midnightblue" stroke="midnightblue" points="1005.56,-73.7897 1015.47,-70.0348 1005.38,-66.792 1005.56,-73.7897"/>
</g>
<!-- Node14 -->
<g id="node29" class="node"><title>Node14</title>
<a xlink:href="_reconstruct__traits_8h.html" target="_top" xlink:title="reconstruct/Reconstruct\l_traits.h">
<polygon fill="white" stroke="black" points="3239.52,-349 3239.52,-383 3361.52,-383 3361.52,-349 3239.52,-349"/>
<text text-anchor="start" x="3247.52" y="-370" font-family="Helvetica,sans-Serif" font-size="10.00">reconstruct/Reconstruct</text>
<text text-anchor="middle" x="3300.52" y="-357" font-family="Helvetica,sans-Serif" font-size="10.00">_traits.h</text>
</a>
</g>
<!-- Node5&#45;&gt;Node14 -->
<g id="edge30" class="edge"><title>Node5&#45;&gt;Node14</title>
<path fill="none" stroke="midnightblue" d="M3207.27,-536.486C3222.47,-508.686 3264.08,-432.605 3286.22,-392.131"/>
<polygon fill="midnightblue" stroke="midnightblue" points="3289.42,-393.579 3291.15,-383.126 3283.28,-390.22 3289.42,-393.579"/>
</g>
<!-- Node5&#45;&gt;Node17 -->
<g id="edge314" class="edge"><title>Node5&#45;&gt;Node17</title>
<path fill="none" stroke="midnightblue" d="M3259.61,-543.15C3375.1,-533.897 3622.52,-505.392 3622.52,-431 3622.52,-431 3622.52,-431 3622.52,-366 3622.52,-272.131 3612.68,-225.974 3534.52,-174 3434.53,-107.517 2587.8,-168.806 2433.99,-138.71"/>
<polygon fill="midnightblue" stroke="midnightblue" points="2434.67,-135.275 2424.14,-136.383 2433.07,-142.087 2434.67,-135.275"/>
</g>
<!-- Node5&#45;&gt;Node20 -->
<g id="edge316" class="edge"><title>Node5&#45;&gt;Node20</title>
<path fill="none" stroke="midnightblue" d="M3259.81,-542.66C3328.24,-534.019 3432.52,-508.188 3432.52,-431 3432.52,-431 3432.52,-431 3432.52,-366 3432.52,-304.333 3438.3,-277.356 3396.52,-232 3369.54,-202.719 3323.02,-191.66 3293.29,-187.496"/>
<polygon fill="midnightblue" stroke="midnightblue" points="3293.52,-183.998 3283.17,-186.254 3292.67,-190.946 3293.52,-183.998"/>
</g>
<!-- Node21 -->
<g id="node51" class="node"><title>Node21</title>
<a xlink:href="_calibration_8h.html" target="_top" xlink:title="calibration/Calibration.h">
<polygon fill="white" stroke="black" points="2625.02,-478.5 2625.02,-499.5 2744.02,-499.5 2744.02,-478.5 2625.02,-478.5"/>
<text text-anchor="middle" x="2684.52" y="-486.5" font-family="Helvetica,sans-Serif" font-size="10.00">calibration/Calibration.h</text>
</a>
</g>
<!-- Node5&#45;&gt;Node21 -->
<g id="edge60" class="edge"><title>Node5&#45;&gt;Node21</title>
<path fill="none" stroke="midnightblue" d="M3143.21,-540.459C3047.38,-529.708 2856.94,-508.344 2754.16,-496.814"/>
<polygon fill="midnightblue" stroke="midnightblue" points="2754.52,-493.332 2744.19,-495.695 2753.74,-500.288 2754.52,-493.332"/>
</g>
<!-- Node6&#45;&gt;Node3 -->
<g id="edge24" class="edge"><title>Node6&#45;&gt;Node3</title>
<path fill="none" stroke="midnightblue" d="M1264.28,-116.544C1350.58,-97.6797 1524.9,-59.7344 1538.52,-58 1755.34,-30.3712 2459.13,-14.7801 2615.53,-11.6072"/>
<polygon fill="midnightblue" stroke="midnightblue" points="2615.9,-15.1005 2625.83,-11.4002 2615.76,-8.10193 2615.9,-15.1005"/>
</g>
<!-- Node6&#45;&gt;Node7 -->
<g id="edge12" class="edge"><title>Node6&#45;&gt;Node7</title>
<path fill="none" stroke="midnightblue" d="M1187.9,-116.497C1162.37,-107.123 1124.78,-93.3242 1096.69,-83.0122"/>
<polygon fill="midnightblue" stroke="midnightblue" points="1097.78,-79.6835 1087.18,-79.5231 1095.36,-86.2548 1097.78,-79.6835"/>
</g>
<!-- Node6&#45;&gt;Node8 -->
<g id="edge28" class="edge"><title>Node6&#45;&gt;Node8</title>
<path fill="none" stroke="midnightblue" d="M1253.07,-116.398C1330.8,-93.8562 1511.37,-41.4916 1584.7,-20.2253"/>
<polygon fill="midnightblue" stroke="midnightblue" points="1585.69,-23.5841 1594.32,-17.4373 1583.74,-16.8611 1585.69,-23.5841"/>
</g>
<!-- Node10 -->
<g id="node19" class="node"><title>Node10</title>
<polygon fill="white" stroke="#bfbfbf" points="1547.02,-58.5 1547.02,-79.5 1612.02,-79.5 1612.02,-58.5 1547.02,-58.5"/>
<text text-anchor="middle" x="1579.52" y="-66.5" font-family="Helvetica,sans-Serif" font-size="10.00">TVector3.h</text>
</g>
<!-- Node6&#45;&gt;Node10 -->
<g id="edge18" class="edge"><title>Node6&#45;&gt;Node10</title>
<path fill="none" stroke="midnightblue" d="M1264.14,-117.457C1266.97,-116.948 1269.78,-116.459 1272.52,-116 1387.13,-96.7923 1417.21,-101 1531.52,-80 1533.22,-79.6867 1534.96,-79.354 1536.71,-79.0069"/>
<polygon fill="midnightblue" stroke="midnightblue" points="1537.73,-82.3692 1546.8,-76.8973 1536.3,-75.5173 1537.73,-82.3692"/>
</g>
<!-- Node6&#45;&gt;Node11 -->
<g id="edge20" class="edge"><title>Node6&#45;&gt;Node11</title>
<path fill="none" stroke="midnightblue" d="M1168.72,-121.218C1153.91,-119.478 1137.55,-117.606 1122.52,-116 952.655,-97.8498 749.059,-79.1504 670.098,-72.0136"/>
<polygon fill="midnightblue" stroke="midnightblue" points="670.074,-68.4973 659.8,-71.0846 669.445,-75.469 670.074,-68.4973"/>
</g>
<!-- Node12 -->
<g id="node23" class="node"><title>Node12</title>
<polygon fill="white" stroke="#bfbfbf" points="1178.02,-58.5 1178.02,-79.5 1237.02,-79.5 1237.02,-58.5 1178.02,-58.5"/>
<text text-anchor="middle" x="1207.52" y="-66.5" font-family="Helvetica,sans-Serif" font-size="10.00">stdexcept</text>
</g>
<!-- Node6&#45;&gt;Node12 -->
<g id="edge22" class="edge"><title>Node6&#45;&gt;Node12</title>
<path fill="none" stroke="midnightblue" d="M1214.86,-116.362C1213.71,-108.922 1212.13,-98.7427 1210.73,-89.7276"/>
<polygon fill="midnightblue" stroke="midnightblue" points="1214.15,-88.9157 1209.16,-79.5707 1207.23,-89.9891 1214.15,-88.9157"/>
</g>
<!-- Node13 -->
<g id="node26" class="node"><title>Node13</title>
<polygon fill="white" stroke="#bfbfbf" points="1254.52,-58.5 1254.52,-79.5 1316.52,-79.5 1316.52,-58.5 1254.52,-58.5"/>
<text text-anchor="middle" x="1285.52" y="-66.5" font-family="Helvetica,sans-Serif" font-size="10.00">type_traits</text>
</g>
<!-- Node6&#45;&gt;Node13 -->
<g id="edge26" class="edge"><title>Node6&#45;&gt;Node13</title>
<path fill="none" stroke="midnightblue" d="M1229.17,-116.362C1239.19,-107.941 1253.38,-96.0105 1265.02,-86.2308"/>
<polygon fill="midnightblue" stroke="midnightblue" points="1267.54,-88.6844 1272.94,-79.5707 1263.03,-83.326 1267.54,-88.6844"/>
</g>
<!-- Node7&#45;&gt;Node8 -->
<g id="edge14" class="edge"><title>Node7&#45;&gt;Node8</title>
<path fill="none" stroke="midnightblue" d="M1101.52,-61.7202C1110.12,-60.3847 1119.09,-59.0751 1127.52,-58 1298.81,-36.1354 1505.04,-19.4559 1583.79,-13.4371"/>
<polygon fill="midnightblue" stroke="midnightblue" points="1584.33,-16.9061 1594.04,-12.6592 1583.8,-9.9262 1584.33,-16.9061"/>
</g>
<!-- Node9 -->
<g id="node17" class="node"><title>Node9</title>
<polygon fill="white" stroke="#bfbfbf" points="1032.52,-0.5 1032.52,-21.5 1084.52,-21.5 1084.52,-0.5 1032.52,-0.5"/>
<text text-anchor="middle" x="1058.52" y="-8.5" font-family="Helvetica,sans-Serif" font-size="10.00">ostream</text>
</g>
<!-- Node7&#45;&gt;Node9 -->
<g id="edge16" class="edge"><title>Node7&#45;&gt;Node9</title>
<path fill="none" stroke="midnightblue" d="M1058.52,-58.3619C1058.52,-50.9219 1058.52,-40.7427 1058.52,-31.7276"/>
<polygon fill="midnightblue" stroke="midnightblue" points="1062.02,-31.5706 1058.52,-21.5707 1055.02,-31.5707 1062.02,-31.5706"/>
</g>
<!-- Node14&#45;&gt;Node4 -->
<g id="edge54" class="edge"><title>Node14&#45;&gt;Node4</title>
<path fill="none" stroke="midnightblue" d="M3239.38,-361.97C3175.58,-356.257 3073.48,-342.819 2990.52,-312 2943.43,-294.508 2931.62,-286.727 2893.52,-254 2876.34,-239.245 2860.24,-218.925 2849.57,-204.16"/>
<polygon fill="midnightblue" stroke="midnightblue" points="2852.28,-201.938 2843.66,-195.783 2846.56,-205.972 2852.28,-201.938"/>
</g>
<!-- Node14&#45;&gt;Node6 -->
<g id="edge32" class="edge"><title>Node14&#45;&gt;Node6</title>
<path fill="none" stroke="midnightblue" d="M3328.41,-348.898C3365.24,-324.054 3422.55,-276.119 3396.52,-232 3369.42,-186.084 3343.02,-187.77 3291.52,-174 3077.72,-116.841 1538.55,-160.486 1274.33,-137.913"/>
<polygon fill="midnightblue" stroke="midnightblue" points="1274.37,-134.402 1264.09,-136.936 1273.71,-141.37 1274.37,-134.402"/>
</g>
<!-- Node15 -->
<g id="node32" class="node"><title>Node15</title>
<a xlink:href="_memory_pool_8h.html" target="_top" xlink:title="tree/MemoryPool.h">
<polygon fill="white" stroke="black" points="2999.02,-290.5 2999.02,-311.5 3098.02,-311.5 3098.02,-290.5 2999.02,-290.5"/>
<text text-anchor="middle" x="3048.52" y="-298.5" font-family="Helvetica,sans-Serif" font-size="10.00">tree/MemoryPool.h</text>
</a>
</g>
<!-- Node14&#45;&gt;Node15 -->
<g id="edge34" class="edge"><title>Node14&#45;&gt;Node15</title>
<path fill="none" stroke="midnightblue" d="M3239.51,-350.265C3196.54,-339.182 3139.68,-324.515 3099.2,-314.074"/>
<polygon fill="midnightblue" stroke="midnightblue" points="3099.84,-310.624 3089.28,-311.516 3098.09,-317.402 3099.84,-310.624"/>
</g>
<!-- Node14&#45;&gt;Node17 -->
<g id="edge58" class="edge"><title>Node14&#45;&gt;Node17</title>
<path fill="none" stroke="midnightblue" d="M3336.61,-348.87C3400.18,-318.615 3525.73,-258.469 3528.52,-254 3540.97,-234.013 3527.32,-184.43 3514.52,-174 3469.36,-137.216 2554.38,-153.375 2434.05,-138.172"/>
<polygon fill="midnightblue" stroke="midnightblue" points="2434.6,-134.716 2424.14,-136.382 2433.36,-141.604 2434.6,-134.716"/>
</g>
<!-- Node19 -->
<g id="node42" class="node"><title>Node19</title>
<a xlink:href="mapped__vectors_8h.html" target="_top" xlink:title="base/mapped_vectors.h">
<polygon fill="white" stroke="black" points="3618.02,-232.5 3618.02,-253.5 3739.02,-253.5 3739.02,-232.5 3618.02,-232.5"/>
<text text-anchor="middle" x="3678.52" y="-240.5" font-family="Helvetica,sans-Serif" font-size="10.00">base/mapped_vectors.h</text>
</a>
</g>
<!-- Node14&#45;&gt;Node19 -->
<g id="edge46" class="edge"><title>Node14&#45;&gt;Node19</title>
<path fill="none" stroke="midnightblue" d="M3353.07,-348.897C3428.77,-324.266 3566.99,-279.289 3636.39,-256.706"/>
<polygon fill="midnightblue" stroke="midnightblue" points="3637.69,-259.964 3646.12,-253.542 3635.53,-253.308 3637.69,-259.964"/>
</g>
<!-- Node14&#45;&gt;Node20 -->
<g id="edge56" class="edge"><title>Node14&#45;&gt;Node20</title>
<path fill="none" stroke="midnightblue" d="M3308.09,-348.741C3315.58,-332.678 3328,-308.504 3342.52,-290 3357.07,-271.439 3372.05,-275.609 3381.52,-254 3385.44,-245.043 3386.98,-240.109 3381.52,-232 3362.01,-203.047 3321.29,-191.923 3293.68,-187.653"/>
<polygon fill="midnightblue" stroke="midnightblue" points="3293.82,-184.143 3283.45,-186.29 3292.9,-191.081 3293.82,-184.143"/>
</g>
<!-- Node15&#45;&gt;Node4 -->
<g id="edge42" class="edge"><title>Node15&#45;&gt;Node4</title>
<path fill="none" stroke="midnightblue" d="M3048.73,-290.485C3048.44,-275.361 3045.56,-247.577 3029.52,-232 3007.39,-210.529 2922.04,-196.125 2872.56,-189.388"/>
<polygon fill="midnightblue" stroke="midnightblue" points="2872.96,-185.91 2862.58,-188.067 2872.04,-192.85 2872.96,-185.91"/>
</g>
<!-- Node16 -->
<g id="node34" class="node"><title>Node16</title>
<a xlink:href="memory_8h.html" target="_top" xlink:title="base/std_ext/memory.h">
<polygon fill="white" stroke="black" points="2902.02,-232.5 2902.02,-253.5 3021.02,-253.5 3021.02,-232.5 2902.02,-232.5"/>
<text text-anchor="middle" x="2961.52" y="-240.5" font-family="Helvetica,sans-Serif" font-size="10.00">base/std_ext/memory.h</text>
</a>
</g>
<!-- Node15&#45;&gt;Node16 -->
<g id="edge36" class="edge"><title>Node15&#45;&gt;Node16</title>
<path fill="none" stroke="midnightblue" d="M3032.56,-290.362C3019.56,-281.696 3000.98,-269.313 2986.09,-259.382"/>
<polygon fill="midnightblue" stroke="midnightblue" points="2987.63,-256.206 2977.37,-253.571 2983.75,-262.03 2987.63,-256.206"/>
</g>
<!-- Node18 -->
<g id="node40" class="node"><title>Node18</title>
<polygon fill="white" stroke="#bfbfbf" points="3076.02,-232.5 3076.02,-253.5 3143.02,-253.5 3143.02,-232.5 3076.02,-232.5"/>
<text text-anchor="middle" x="3109.52" y="-240.5" font-family="Helvetica,sans-Serif" font-size="10.00">forward_list</text>
</g>
<!-- Node15&#45;&gt;Node18 -->
<g id="edge44" class="edge"><title>Node15&#45;&gt;Node18</title>
<path fill="none" stroke="midnightblue" d="M3059.7,-290.362C3068.47,-282.023 3080.86,-270.242 3091.09,-260.516"/>
<polygon fill="midnightblue" stroke="midnightblue" points="3093.56,-262.998 3098.4,-253.571 3088.74,-257.925 3093.56,-262.998"/>
</g>
<!-- Node16&#45;&gt;Node4 -->
<g id="edge38" class="edge"><title>Node16&#45;&gt;Node4</title>
<path fill="none" stroke="midnightblue" d="M2938.88,-232.497C2919.27,-223.397 2890.67,-210.127 2868.68,-199.925"/>
<polygon fill="midnightblue" stroke="midnightblue" points="2869.95,-196.655 2859.41,-195.621 2867,-203.005 2869.95,-196.655"/>
</g>
<!-- Node16&#45;&gt;Node17 -->
<g id="edge40" class="edge"><title>Node16&#45;&gt;Node17</title>
<path fill="none" stroke="midnightblue" d="M2951.67,-232.31C2936.3,-216.423 2904.89,-187.056 2871.52,-174 2709,-110.414 2653.71,-159.369 2480.52,-138 2465.08,-136.096 2447.84,-133.437 2434.21,-131.211"/>
<polygon fill="midnightblue" stroke="midnightblue" points="2434.6,-127.728 2424.16,-129.541 2433.45,-134.633 2434.6,-127.728"/>
</g>
<!-- Node19&#45;&gt;Node4 -->
<g id="edge50" class="edge"><title>Node19&#45;&gt;Node4</title>
<path fill="none" stroke="midnightblue" d="M3617.96,-238.829C3453.83,-227.523 3004,-196.537 2872.85,-187.503"/>
<polygon fill="midnightblue" stroke="midnightblue" points="2872.78,-183.99 2862.56,-186.794 2872.3,-190.973 2872.78,-183.99"/>
</g>
<!-- Node19&#45;&gt;Node8 -->
<g id="edge48" class="edge"><title>Node19&#45;&gt;Node8</title>
<path fill="none" stroke="midnightblue" d="M3673.4,-232.331C3665.16,-216.473 3647.33,-187.142 3622.52,-174 3488.59,-103.067 2414.59,-69.9347 2263.52,-58 2027.57,-39.3614 1743,-19.6514 1648.64,-13.1892"/>
<polygon fill="midnightblue" stroke="midnightblue" points="1648.8,-9.69246 1638.59,-12.5019 1648.33,-16.6761 1648.8,-9.69246"/>
</g>
<!-- Node19&#45;&gt;Node13 -->
<g id="edge52" class="edge"><title>Node19&#45;&gt;Node13</title>
<path fill="none" stroke="midnightblue" d="M3669.27,-232.344C3654.51,-216.217 3623.88,-186.201 3590.52,-174 3486.51,-135.971 2704.85,-147.462 2594.52,-138 2522.12,-131.791 2504.9,-122.358 2432.52,-116 2036.38,-81.2053 1935.82,-96.6365 1538.52,-80 1463.88,-76.8747 1376.86,-73.0522 1326.78,-70.8348"/>
<polygon fill="midnightblue" stroke="midnightblue" points="1326.82,-67.3331 1316.67,-70.3869 1326.51,-74.3263 1326.82,-67.3331"/>
</g>
<!-- Node21&#45;&gt;Node8 -->
<g id="edge308" class="edge"><title>Node21&#45;&gt;Node8</title>
<path fill="none" stroke="midnightblue" d="M2624.73,-487.522C2383.8,-481.137 1483.86,-453.068 1208.52,-384 1132.49,-364.928 1117.93,-346.431 1047.52,-312 899.62,-239.687 805.283,-279.127 720.515,-138 638.873,-2.07611 1131.59,-46.8008 1470.52,-22 1509.58,-19.1418 1554.51,-15.7394 1584.09,-13.4833"/>
<polygon fill="midnightblue" stroke="midnightblue" points="1584.55,-16.9583 1594.26,-12.7071 1584.02,-9.97863 1584.55,-16.9583"/>
</g>
<!-- Node21&#45;&gt;Node14 -->
<g id="edge292" class="edge"><title>Node21&#45;&gt;Node14</title>
<path fill="none" stroke="midnightblue" d="M2737.3,-478.46C2847.95,-456.367 3104.26,-405.188 3229.31,-380.218"/>
<polygon fill="midnightblue" stroke="midnightblue" points="3230.06,-383.638 3239.18,-378.248 3228.69,-376.774 3230.06,-383.638"/>
</g>
<!-- Node22 -->
<g id="node53" class="node"><title>Node22</title>
<a xlink:href="_physics_8h.html" target="_top" xlink:title="analysis/physics/Physics.h">
<polygon fill="white" stroke="black" points="2616.52,-420.5 2616.52,-441.5 2752.52,-441.5 2752.52,-420.5 2616.52,-420.5"/>
<text text-anchor="middle" x="2684.52" y="-428.5" font-family="Helvetica,sans-Serif" font-size="10.00">analysis/physics/Physics.h</text>
</a>
</g>
<!-- Node21&#45;&gt;Node22 -->
<g id="edge62" class="edge"><title>Node21&#45;&gt;Node22</title>
<path fill="none" stroke="midnightblue" d="M2684.52,-478.362C2684.52,-470.922 2684.52,-460.743 2684.52,-451.728"/>
<polygon fill="midnightblue" stroke="midnightblue" points="2688.02,-451.571 2684.52,-441.571 2681.02,-451.571 2688.02,-451.571"/>
</g>
<!-- Node61 -->
<g id="node208" class="node"><title>Node61</title>
<a xlink:href="_manager__traits_8h.html" target="_top" xlink:title="calibration/gui/Manager\l_traits.h">
<polygon fill="white" stroke="black" points="767.015,-349 767.015,-383 884.015,-383 884.015,-349 767.015,-349"/>
<text text-anchor="start" x="775.015" y="-370" font-family="Helvetica,sans-Serif" font-size="10.00">calibration/gui/Manager</text>
<text text-anchor="middle" x="825.515" y="-357" font-family="Helvetica,sans-Serif" font-size="10.00">_traits.h</text>
</a>
</g>
<!-- Node21&#45;&gt;Node61 -->
<g id="edge294" class="edge"><title>Node21&#45;&gt;Node61</title>
<path fill="none" stroke="midnightblue" d="M2625.01,-488.713C2323.76,-487.099 978.035,-477.896 897.515,-442 873.834,-431.443 854.187,-409.051 841.432,-391.293"/>
<polygon fill="midnightblue" stroke="midnightblue" points="844.29,-389.273 835.737,-383.02 838.525,-393.242 844.29,-389.273"/>
</g>
<!-- Node22&#45;&gt;Node3 -->
<g id="edge284" class="edge"><title>Node22&#45;&gt;Node3</title>
<path fill="none" stroke="midnightblue" d="M2752.68,-428.614C2901.95,-423.017 3253.74,-407.699 3370.52,-384 3563.55,-344.823 3766.52,-381.973 3766.52,-185 3766.52,-185 3766.52,-185 3766.52,-127 3766.52,-70.6661 2858.21,-21.7205 2677.54,-12.5422"/>
<polygon fill="midnightblue" stroke="midnightblue" points="2677.56,-9.03867 2667.4,-12.0298 2677.21,-16.0298 2677.56,-9.03867"/>
</g>
<!-- Node22&#45;&gt;Node4 -->
<g id="edge288" class="edge"><title>Node22&#45;&gt;Node4</title>
<path fill="none" stroke="midnightblue" d="M2691.05,-420.43C2714.43,-382.58 2794.22,-253.458 2824.62,-204.255"/>
<polygon fill="midnightblue" stroke="midnightblue" points="2827.73,-205.878 2830.01,-195.531 2821.77,-202.198 2827.73,-205.878"/>
</g>
<!-- Node22&#45;&gt;Node17 -->
<g id="edge282" class="edge"><title>Node22&#45;&gt;Node17</title>
<path fill="none" stroke="midnightblue" d="M2684.52,-420.214C2684.52,-397.939 2684.52,-345.236 2684.52,-301 2684.52,-301 2684.52,-301 2684.52,-243 2684.52,-233.242 2674.3,-236.255 2665.52,-232 2566.53,-184.037 2532.49,-187.174 2433.48,-140.247"/>
<polygon fill="midnightblue" stroke="midnightblue" points="2434.87,-137.029 2424.34,-135.858 2431.84,-143.34 2434.87,-137.029"/>
</g>
<!-- Node22&#45;&gt;Node20 -->
<g id="edge286" class="edge"><title>Node22&#45;&gt;Node20</title>
<path fill="none" stroke="midnightblue" d="M2752.26,-420.489C2838.27,-405.258 2989.54,-372.071 3106.52,-312 3164.01,-282.475 3220.53,-230.293 3248.1,-202.913"/>
<polygon fill="midnightblue" stroke="midnightblue" points="3250.83,-205.135 3255.4,-195.575 3245.87,-200.2 3250.83,-205.135"/>
</g>
<!-- Node23 -->
<g id="node55" class="node"><title>Node23</title>
<a xlink:href="_histogram_factories_8h.html" target="_top" xlink:title="analysis/plot/HistogramFactories.h">
<polygon fill="white" stroke="black" points="2439.52,-355.5 2439.52,-376.5 2607.52,-376.5 2607.52,-355.5 2439.52,-355.5"/>
<text text-anchor="middle" x="2523.52" y="-363.5" font-family="Helvetica,sans-Serif" font-size="10.00">analysis/plot/HistogramFactories.h</text>
</a>
</g>
<!-- Node22&#45;&gt;Node23 -->
<g id="edge64" class="edge"><title>Node22&#45;&gt;Node23</title>
<path fill="none" stroke="midnightblue" d="M2658.29,-420.412C2631.39,-409.552 2589.36,-392.583 2559.39,-380.484"/>
<polygon fill="midnightblue" stroke="midnightblue" points="2560.31,-377.082 2549.73,-376.584 2557.69,-383.573 2560.31,-377.082"/>
</g>
<!-- Node32 -->
<g id="node83" class="node"><title>Node32</title>
<polygon fill="white" stroke="#bfbfbf" points="2237.02,-174.5 2237.02,-195.5 2296.02,-195.5 2296.02,-174.5 2237.02,-174.5"/>
<text text-anchor="middle" x="2266.52" y="-182.5" font-family="Helvetica,sans-Serif" font-size="10.00">functional</text>
</g>
<!-- Node22&#45;&gt;Node32 -->
<g id="edge290" class="edge"><title>Node22&#45;&gt;Node32</title>
<path fill="none" stroke="midnightblue" d="M2616.27,-422.247C2468.71,-401.733 2128.01,-345.268 2063.52,-254 2002.24,-167.283 1990.72,-249.82 2220.52,-196 2222.66,-195.498 2224.86,-194.98 2227.08,-194.456"/>
<polygon fill="midnightblue" stroke="midnightblue" points="2227.91,-197.856 2236.83,-192.141 2226.29,-191.045 2227.91,-197.856"/>
</g>
<!-- Node47 -->
<g id="node141" class="node"><title>Node47</title>
<a xlink:href="_event_8h.html" target="_top" xlink:title="analysis/data/Event.h">
<polygon fill="white" stroke="black" points="1529.02,-355.5 1529.02,-376.5 1640.02,-376.5 1640.02,-355.5 1529.02,-355.5"/>
<text text-anchor="middle" x="1584.52" y="-363.5" font-family="Helvetica,sans-Serif" font-size="10.00">analysis/data/Event.h</text>
</a>
</g>
<!-- Node22&#45;&gt;Node47 -->
<g id="edge188" class="edge"><title>Node22&#45;&gt;Node47</title>
<path fill="none" stroke="midnightblue" d="M2616.12,-426.959C2417.95,-415.249 1845.15,-381.401 1650.3,-369.887"/>
<polygon fill="midnightblue" stroke="midnightblue" points="1650.4,-366.387 1640.21,-369.291 1649.99,-373.375 1650.4,-366.387"/>
</g>
<!-- Node59 -->
<g id="node193" class="node"><title>Node59</title>
<a xlink:href="_slowcontrol_8h.html" target="_top" xlink:title="analysis/data/Slowcontrol.h">
<polygon fill="white" stroke="black" points="729.015,-116.5 729.015,-137.5 866.015,-137.5 866.015,-116.5 729.015,-116.5"/>
<text text-anchor="middle" x="797.515" y="-124.5" font-family="Helvetica,sans-Serif" font-size="10.00">analysis/data/Slowcontrol.h</text>
</a>
</g>
<!-- Node22&#45;&gt;Node59 -->
<g id="edge268" class="edge"><title>Node22&#45;&gt;Node59</title>
<path fill="none" stroke="midnightblue" d="M2616.3,-429.407C2400.62,-424.187 1735.1,-406.629 1520.52,-384 1332.17,-364.138 1277.83,-378.533 1100.52,-312 985.619,-268.889 866.157,-180.929 818.734,-143.962"/>
<polygon fill="midnightblue" stroke="midnightblue" points="820.76,-141.103 810.735,-137.675 816.435,-146.606 820.76,-141.103"/>
</g>
<!-- Node60 -->
<g id="node197" class="node"><title>Node60</title>
<a xlink:href="_options_list_8h.html" target="_top" xlink:title="base/OptionsList.h">
<polygon fill="white" stroke="black" points="3274.52,-232.5 3274.52,-253.5 3372.52,-253.5 3372.52,-232.5 3274.52,-232.5"/>
<text text-anchor="middle" x="3323.52" y="-240.5" font-family="Helvetica,sans-Serif" font-size="10.00">base/OptionsList.h</text>
</a>
</g>
<!-- Node22&#45;&gt;Node60 -->
<g id="edge274" class="edge"><title>Node22&#45;&gt;Node60</title>
<path fill="none" stroke="midnightblue" d="M2752.58,-428.499C2861.79,-423.732 3070.89,-411.284 3139.52,-384 3210.24,-355.885 3276.88,-292.37 3306.88,-261.094"/>
<polygon fill="midnightblue" stroke="midnightblue" points="3309.7,-263.204 3314.02,-253.53 3304.61,-258.399 3309.7,-263.204"/>
</g>
<!-- Node23&#45;&gt;Node3 -->
<g id="edge186" class="edge"><title>Node23&#45;&gt;Node3</title>
<path fill="none" stroke="midnightblue" d="M2563.45,-355.484C2630.99,-335.012 2760.52,-282.98 2760.52,-185 2760.52,-185 2760.52,-185 2760.52,-127 2760.52,-78.8649 2709.96,-43.3986 2676.19,-25.0733"/>
<polygon fill="midnightblue" stroke="midnightblue" points="2677.64,-21.8865 2667.16,-20.3629 2674.41,-28.0923 2677.64,-21.8865"/>
</g>
<!-- Node24 -->
<g id="node57" class="node"><title>Node24</title>
<a xlink:href="_histogram_8h.html" target="_top" xlink:title="Histogram.h">
<polygon fill="white" stroke="black" points="2144.52,-232.5 2144.52,-253.5 2214.52,-253.5 2214.52,-232.5 2144.52,-232.5"/>
<text text-anchor="middle" x="2179.52" y="-240.5" font-family="Helvetica,sans-Serif" font-size="10.00">Histogram.h</text>
</a>
</g>
<!-- Node23&#45;&gt;Node24 -->
<g id="edge66" class="edge"><title>Node23&#45;&gt;Node24</title>
<path fill="none" stroke="midnightblue" d="M2493.89,-355.407C2431.91,-333.246 2288.56,-281.991 2218.92,-257.088"/>
<polygon fill="midnightblue" stroke="midnightblue" points="2219.79,-253.683 2209.19,-253.612 2217.43,-260.274 2219.79,-253.683"/>
</g>
<!-- Node30 -->
<g id="node73" class="node"><title>Node30</title>
<a xlink:href="_smart_hist_8h.html" target="_top" xlink:title="SmartHist.h">
<polygon fill="white" stroke="black" points="2489.02,-290.5 2489.02,-311.5 2558.02,-311.5 2558.02,-290.5 2489.02,-290.5"/>
<text text-anchor="middle" x="2523.52" y="-298.5" font-family="Helvetica,sans-Serif" font-size="10.00">SmartHist.h</text>
</a>
</g>
<!-- Node23&#45;&gt;Node30 -->
<g id="edge86" class="edge"><title>Node23&#45;&gt;Node30</title>
<path fill="none" stroke="midnightblue" d="M2523.52,-355.267C2523.52,-346.18 2523.52,-332.892 2523.52,-321.74"/>
<polygon fill="midnightblue" stroke="midnightblue" points="2527.02,-321.534 2523.52,-311.534 2520.02,-321.534 2527.02,-321.534"/>
</g>
<!-- Node39 -->
<g id="node100" class="node"><title>Node39</title>
<a xlink:href="_particle_8h.html" target="_top" xlink:title="analysis/data/Particle.h">
<polygon fill="white" stroke="black" points="1726.02,-290.5 1726.02,-311.5 1845.02,-311.5 1845.02,-290.5 1726.02,-290.5"/>
<text text-anchor="middle" x="1785.52" y="-298.5" font-family="Helvetica,sans-Serif" font-size="10.00">analysis/data/Particle.h</text>
</a>
</g>
<!-- Node23&#45;&gt;Node39 -->
<g id="edge122" class="edge"><title>Node23&#45;&gt;Node39</title>
<path fill="none" stroke="midnightblue" d="M2439.22,-358.575C2292.33,-345.638 1992.14,-319.199 1855.75,-307.186"/>
<polygon fill="midnightblue" stroke="midnightblue" points="1855.69,-303.668 1845.43,-306.277 1855.08,-310.641 1855.69,-303.668"/>
</g>
<!-- Node24&#45;&gt;Node3 -->
<g id="edge72" class="edge"><title>Node24&#45;&gt;Node3</title>
<path fill="none" stroke="midnightblue" d="M2214.54,-234.048C2217.57,-233.333 2220.59,-232.64 2223.52,-232 2307.9,-213.516 2335.66,-231.277 2414.52,-196 2507.2,-154.536 2594.68,-67.2606 2630.04,-29.2916"/>
<polygon fill="midnightblue" stroke="midnightblue" points="2632.95,-31.2938 2637.15,-21.564 2627.8,-26.5554 2632.95,-31.2938"/>
</g>
<!-- Node24&#45;&gt;Node8 -->
<g id="edge70" class="edge"><title>Node24&#45;&gt;Node8</title>
<path fill="none" stroke="midnightblue" d="M2213.29,-232.489C2248.41,-221.22 2299.05,-203.887 2304.52,-196 2310.08,-187.961 2309.35,-182.5 2304.52,-174 2254.66,-86.3414 2205.37,-89.3234 2109.52,-58 2023.25,-29.8095 1743.99,-16.1511 1648.71,-12.2281"/>
<polygon fill="midnightblue" stroke="midnightblue" points="1648.67,-8.72366 1638.54,-11.8176 1648.39,-15.718 1648.67,-8.72366"/>
</g>
<!-- Node25 -->
<g id="node59" class="node"><title>Node25</title>
<polygon fill="white" stroke="#bfbfbf" points="2351.52,-174.5 2351.52,-195.5 2405.52,-195.5 2405.52,-174.5 2351.52,-174.5"/>
<text text-anchor="middle" x="2378.52" y="-182.5" font-family="Helvetica,sans-Serif" font-size="10.00">TColor.h</text>
</g>
<!-- Node24&#45;&gt;Node25 -->
<g id="edge68" class="edge"><title>Node24&#45;&gt;Node25</title>
<path fill="none" stroke="midnightblue" d="M2214.63,-232.764C2250.33,-222.36 2305.4,-206.309 2341.7,-195.73"/>
<polygon fill="midnightblue" stroke="midnightblue" points="2342.79,-199.059 2351.41,-192.901 2340.83,-192.339 2342.79,-199.059"/>
</g>
<!-- Node26 -->
<g id="node63" class="node"><title>Node26</title>
<a xlink:href="interval_8h.html" target="_top" xlink:title="base/interval.h">
<polygon fill="white" stroke="black" points="1337.52,-174.5 1337.52,-195.5 1417.52,-195.5 1417.52,-174.5 1337.52,-174.5"/>
<text text-anchor="middle" x="1377.52" y="-182.5" font-family="Helvetica,sans-Serif" font-size="10.00">base/interval.h</text>
</a>
</g>
<!-- Node24&#45;&gt;Node26 -->
<g id="edge74" class="edge"><title>Node24&#45;&gt;Node26</title>
<path fill="none" stroke="midnightblue" d="M2144.09,-233.517C2141.2,-232.935 2138.32,-232.418 2135.52,-232 1826.79,-186.018 1740.97,-237.578 1427.81,-195.953"/>
<polygon fill="midnightblue" stroke="midnightblue" points="1427.9,-192.435 1417.53,-194.564 1426.97,-199.372 1427.9,-192.435"/>
</g>
<!-- Node26&#45;&gt;Node7 -->
<g id="edge80" class="edge"><title>Node26&#45;&gt;Node7</title>
<path fill="none" stroke="midnightblue" d="M1374.69,-174.384C1369.96,-158.869 1358.91,-130.295 1338.52,-116 1320.28,-103.216 1188.21,-85.0546 1112.15,-75.482"/>
<polygon fill="midnightblue" stroke="midnightblue" points="1112.16,-71.9565 1101.8,-74.1897 1111.29,-78.9025 1112.16,-71.9565"/>
</g>
<!-- Node26&#45;&gt;Node12 -->
<g id="edge78" class="edge"><title>Node26&#45;&gt;Node12</title>
<path fill="none" stroke="midnightblue" d="M1379.98,-174.285C1382.71,-159.421 1385.13,-132.512 1371.52,-116 1336.41,-73.4372 1304.98,-93.6519 1247.27,-80.2279"/>
<polygon fill="midnightblue" stroke="midnightblue" points="1247.94,-76.7863 1237.38,-77.6566 1246.18,-83.561 1247.94,-76.7863"/>
</g>
<!-- Node27 -->
<g id="node65" class="node"><title>Node27</title>
<polygon fill="white" stroke="#bfbfbf" points="1405.52,-0.5 1405.52,-21.5 1461.52,-21.5 1461.52,-0.5 1405.52,-0.5"/>
<text text-anchor="middle" x="1433.52" y="-8.5" font-family="Helvetica,sans-Serif" font-size="10.00">algorithm</text>
</g>
<!-- Node26&#45;&gt;Node27 -->
<g id="edge76" class="edge"><title>Node26&#45;&gt;Node27</title>
<path fill="none" stroke="midnightblue" d="M1380.93,-174.377C1390.01,-146.172 1414.84,-69.0121 1426.85,-31.7203"/>
<polygon fill="midnightblue" stroke="midnightblue" points="1430.27,-32.5192 1430,-21.9277 1423.6,-30.3746 1430.27,-32.5192"/>
</g>
<!-- Node28 -->
<g id="node69" class="node"><title>Node28</title>
<a xlink:href="types_8h.html" target="_top" xlink:title="types.h">
<polygon fill="white" stroke="black" points="1281.02,-116.5 1281.02,-137.5 1330.02,-137.5 1330.02,-116.5 1281.02,-116.5"/>
<text text-anchor="middle" x="1305.52" y="-124.5" font-family="Helvetica,sans-Serif" font-size="10.00">types.h</text>
</a>
</g>
<!-- Node26&#45;&gt;Node28 -->
<g id="edge82" class="edge"><title>Node26&#45;&gt;Node28</title>
<path fill="none" stroke="midnightblue" d="M1364.31,-174.362C1353.75,-165.859 1338.76,-153.779 1326.55,-143.947"/>
<polygon fill="midnightblue" stroke="midnightblue" points="1328.62,-141.118 1318.64,-137.571 1324.23,-146.57 1328.62,-141.118"/>
</g>
<!-- Node26&#45;&gt;Node29 -->
<g id="edge84" class="edge"><title>Node26&#45;&gt;Node29</title>
<path fill="none" stroke="midnightblue" d="M1337.43,-176.813C1279.78,-165.04 1174.77,-143.595 1123.41,-133.106"/>
<polygon fill="midnightblue" stroke="midnightblue" points="1124.09,-129.672 1113.59,-131.101 1122.69,-136.531 1124.09,-129.672"/>
</g>
<!-- Node30&#45;&gt;Node3 -->
<g id="edge116" class="edge"><title>Node30&#45;&gt;Node3</title>
<path fill="none" stroke="midnightblue" d="M2558.18,-296.708C2615.19,-287.499 2722.52,-260.181 2722.52,-185 2722.52,-185 2722.52,-185 2722.52,-127 2722.52,-86.5104 2689.72,-49.1585 2667.21,-28.2949"/>
<polygon fill="midnightblue" stroke="midnightblue" points="2669.54,-25.681 2659.75,-21.6247 2664.88,-30.8993 2669.54,-25.681"/>
</g>
<!-- Node30&#45;&gt;Node4 -->
<g id="edge114" class="edge"><title>Node30&#45;&gt;Node4</title>
<path fill="none" stroke="midnightblue" d="M2558.35,-297.491C2601.61,-292.206 2676.97,-279.922 2736.52,-254 2766.84,-240.799 2797.53,-217.884 2816.76,-202.107"/>
<polygon fill="midnightblue" stroke="midnightblue" points="2819.09,-204.727 2824.51,-195.626 2814.6,-199.358 2819.09,-204.727"/>
</g>
<!-- Node30&#45;&gt;Node16 -->
<g id="edge106" class="edge"><title>Node30&#45;&gt;Node16</title>
<path fill="none" stroke="midnightblue" d="M2558.25,-296.4C2630.19,-286.874 2796.68,-264.827 2891.71,-252.243"/>
<polygon fill="midnightblue" stroke="midnightblue" points="2892.36,-255.689 2901.81,-250.906 2891.44,-248.749 2892.36,-255.689"/>
</g>
<!-- Node30&#45;&gt;Node24 -->
<g id="edge88" class="edge"><title>Node30&#45;&gt;Node24</title>
<path fill="none" stroke="midnightblue" d="M2488.69,-296.575C2434.34,-289.447 2325.89,-274.326 2224.32,-254.031"/>
<polygon fill="midnightblue" stroke="midnightblue" points="2225.01,-250.599 2214.52,-252.05 2223.62,-257.461 2225.01,-250.599"/>
</g>
<!-- Node31 -->
<g id="node76" class="node"><title>Node31</title>
<a xlink:href="root__draw_8h.html" target="_top" xlink:title="root_draw.h">
<polygon fill="white" stroke="black" points="2232.52,-232.5 2232.52,-253.5 2300.52,-253.5 2300.52,-232.5 2232.52,-232.5"/>
<text text-anchor="middle" x="2266.52" y="-240.5" font-family="Helvetica,sans-Serif" font-size="10.00">root_draw.h</text>
</a>
</g>
<!-- Node30&#45;&gt;Node31 -->
<g id="edge90" class="edge"><title>Node30&#45;&gt;Node31</title>
<path fill="none" stroke="midnightblue" d="M2488.85,-293.178C2442.71,-282.764 2361.07,-264.338 2310.59,-252.947"/>
<polygon fill="midnightblue" stroke="midnightblue" points="2311.15,-249.486 2300.63,-250.698 2309.61,-256.314 2311.15,-249.486"/>
</g>
<!-- Node34 -->
<g id="node88" class="node"><title>Node34</title>
<polygon fill="white" stroke="#bfbfbf" points="2606.02,-232.5 2606.02,-253.5 2657.02,-253.5 2657.02,-232.5 2606.02,-232.5"/>
<text text-anchor="middle" x="2631.52" y="-240.5" font-family="Helvetica,sans-Serif" font-size="10.00">TH1D.h</text>
</g>
<!-- Node30&#45;&gt;Node34 -->
<g id="edge108" class="edge"><title>Node30&#45;&gt;Node34</title>
<path fill="none" stroke="midnightblue" d="M2543.07,-290.497C2559.71,-281.56 2583.84,-268.602 2602.7,-258.477"/>
<polygon fill="midnightblue" stroke="midnightblue" points="2604.58,-261.436 2611.74,-253.621 2601.27,-255.269 2604.58,-261.436"/>
</g>
<!-- Node35 -->
<g id="node90" class="node"><title>Node35</title>
<polygon fill="white" stroke="#bfbfbf" points="2394.02,-232.5 2394.02,-253.5 2445.02,-253.5 2445.02,-232.5 2394.02,-232.5"/>
<text text-anchor="middle" x="2419.52" y="-240.5" font-family="Helvetica,sans-Serif" font-size="10.00">TH2D.h</text>
</g>
<!-- Node30&#45;&gt;Node35 -->
<g id="edge110" class="edge"><title>Node30&#45;&gt;Node35</title>
<path fill="none" stroke="midnightblue" d="M2504.44,-290.362C2488.46,-281.45 2465.43,-268.609 2447.39,-258.545"/>
<polygon fill="midnightblue" stroke="midnightblue" points="2448.91,-255.385 2438.47,-253.571 2445.5,-261.498 2448.91,-255.385"/>
</g>
<!-- Node36 -->
<g id="node92" class="node"><title>Node36</title>
<polygon fill="white" stroke="#bfbfbf" points="2462.02,-232.5 2462.02,-253.5 2513.02,-253.5 2513.02,-232.5 2462.02,-232.5"/>
<text text-anchor="middle" x="2487.52" y="-240.5" font-family="Helvetica,sans-Serif" font-size="10.00">TH3D.h</text>
</g>
<!-- Node30&#45;&gt;Node36 -->
<g id="edge112" class="edge"><title>Node30&#45;&gt;Node36</title>
<path fill="none" stroke="midnightblue" d="M2516.91,-290.362C2512.04,-282.513 2505.28,-271.616 2499.47,-262.253"/>
<polygon fill="midnightblue" stroke="midnightblue" points="2502.32,-260.221 2494.08,-253.571 2496.38,-263.913 2502.32,-260.221"/>
</g>
<!-- Node37 -->
<g id="node96" class="node"><title>Node37</title>
<polygon fill="white" stroke="#bfbfbf" points="2072.52,-232.5 2072.52,-253.5 2126.52,-253.5 2126.52,-232.5 2072.52,-232.5"/>
<text text-anchor="middle" x="2099.52" y="-240.5" font-family="Helvetica,sans-Serif" font-size="10.00">iostream</text>
</g>
<!-- Node30&#45;&gt;Node37 -->
<g id="edge118" class="edge"><title>Node30&#45;&gt;Node37</title>
<path fill="none" stroke="midnightblue" d="M2488.93,-298.861C2422.38,-294.306 2271.88,-281.88 2137,-254.032"/>
<polygon fill="midnightblue" stroke="midnightblue" points="2137.41,-250.542 2126.9,-251.912 2135.97,-257.392 2137.41,-250.542"/>
</g>
<!-- Node38 -->
<g id="node98" class="node"><title>Node38</title>
<polygon fill="white" stroke="#bfbfbf" points="2530.02,-232.5 2530.02,-253.5 2589.02,-253.5 2589.02,-232.5 2530.02,-232.5"/>
<text text-anchor="middle" x="2559.52" y="-240.5" font-family="Helvetica,sans-Serif" font-size="10.00">exception</text>
</g>
<!-- Node30&#45;&gt;Node38 -->
<g id="edge120" class="edge"><title>Node30&#45;&gt;Node38</title>
<path fill="none" stroke="midnightblue" d="M2530.12,-290.362C2534.99,-282.513 2541.75,-271.616 2547.57,-262.253"/>
<polygon fill="midnightblue" stroke="midnightblue" points="2550.65,-263.913 2552.95,-253.571 2544.71,-260.221 2550.65,-263.913"/>
</g>
<!-- Node31&#45;&gt;Node3 -->
<g id="edge92" class="edge"><title>Node31&#45;&gt;Node3</title>
<path fill="none" stroke="midnightblue" d="M2300.9,-233.028C2302.46,-232.664 2304,-232.319 2305.52,-232 2417.95,-208.351 2469.35,-264.607 2561.52,-196 2616.34,-155.188 2636.84,-70.4803 2643.59,-31.474"/>
<polygon fill="midnightblue" stroke="midnightblue" points="2647.05,-31.9784 2645.17,-21.5513 2640.14,-30.8734 2647.05,-31.9784"/>
</g>
<!-- Node31&#45;&gt;Node4 -->
<g id="edge100" class="edge"><title>Node31&#45;&gt;Node4</title>
<path fill="none" stroke="midnightblue" d="M2300.75,-234.56C2305.36,-233.599 2310.04,-232.711 2314.52,-232 2408.58,-217.058 2697.86,-195.124 2800.19,-187.626"/>
<polygon fill="midnightblue" stroke="midnightblue" points="2800.62,-191.104 2810.33,-186.885 2800.11,-184.123 2800.62,-191.104"/>
</g>
<!-- Node31&#45;&gt;Node8 -->
<g id="edge96" class="edge"><title>Node31&#45;&gt;Node8</title>
<path fill="none" stroke="midnightblue" d="M2300.92,-233.108C2302.47,-232.722 2304.01,-232.35 2305.52,-232 2394,-211.442 2539.87,-256.35 2501.52,-174 2484.6,-137.684 2468.52,-133.576 2432.52,-116 2290.2,-46.5229 1782.2,-18.6266 1648.79,-12.405"/>
<polygon fill="midnightblue" stroke="midnightblue" points="1648.94,-8.90828 1638.79,-11.9468 1648.62,-15.9009 1648.94,-8.90828"/>
</g>
<!-- Node31&#45;&gt;Node17 -->
<g id="edge94" class="edge"><title>Node31&#45;&gt;Node17</title>
<path fill="none" stroke="midnightblue" d="M2300.59,-235.113C2305.26,-234.054 2310.01,-232.991 2314.52,-232 2390.37,-215.325 2436.58,-256.31 2485.52,-196 2505.1,-171.861 2462.71,-148.582 2433.71,-136.199"/>
<polygon fill="midnightblue" stroke="midnightblue" points="2434.71,-132.829 2424.13,-132.289 2432.07,-139.309 2434.71,-132.829"/>
</g>
<!-- Node31&#45;&gt;Node20 -->
<g id="edge98" class="edge"><title>Node31&#45;&gt;Node20</title>
<path fill="none" stroke="midnightblue" d="M2300.77,-238.014C2316.5,-235.879 2335.42,-233.531 2352.52,-232 2700.95,-200.793 3126.19,-188.483 3237.69,-185.663"/>
<polygon fill="midnightblue" stroke="midnightblue" points="3237.86,-189.16 3247.77,-185.413 3237.68,-182.162 3237.86,-189.16"/>
</g>
<!-- Node31&#45;&gt;Node32 -->
<g id="edge102" class="edge"><title>Node31&#45;&gt;Node32</title>
<path fill="none" stroke="midnightblue" d="M2266.52,-232.362C2266.52,-224.922 2266.52,-214.743 2266.52,-205.728"/>
<polygon fill="midnightblue" stroke="midnightblue" points="2270.02,-205.571 2266.52,-195.571 2263.02,-205.571 2270.02,-205.571"/>
</g>
<!-- Node33 -->
<g id="node85" class="node"><title>Node33</title>
<polygon fill="white" stroke="#bfbfbf" points="617.515,-116.5 617.515,-137.5 673.515,-137.5 673.515,-116.5 617.515,-116.5"/>
<text text-anchor="middle" x="645.515" y="-124.5" font-family="Helvetica,sans-Serif" font-size="10.00">Rtypes.h</text>
</g>
<!-- Node31&#45;&gt;Node33 -->
<g id="edge104" class="edge"><title>Node31&#45;&gt;Node33</title>
<path fill="none" stroke="midnightblue" d="M2300.57,-234.443C2342.08,-223.671 2407.61,-205.437 2414.52,-196 2420.29,-188.109 2421.36,-180.987 2414.52,-174 2381.59,-140.367 767.418,-141.923 720.515,-138 708.445,-136.991 695.359,-135.285 683.549,-133.515"/>
<polygon fill="midnightblue" stroke="midnightblue" points="683.975,-130.039 673.555,-131.958 682.897,-136.955 683.975,-130.039"/>
</g>
<!-- Node39&#45;&gt;Node4 -->
<g id="edge184" class="edge"><title>Node39&#45;&gt;Node4</title>
<path fill="none" stroke="midnightblue" d="M1834.26,-290.42C1875.29,-281.334 1935.43,-267.588 1987.52,-254 2021.54,-245.123 2028.86,-237.993 2063.52,-232 2207.98,-207.015 2667.33,-190.489 2800.19,-186.143"/>
<polygon fill="midnightblue" stroke="midnightblue" points="2800.37,-189.639 2810.26,-185.817 2800.15,-182.643 2800.37,-189.639"/>
</g>
<!-- Node39&#45;&gt;Node7 -->
<g id="edge150" class="edge"><title>Node39&#45;&gt;Node7</title>
<path fill="none" stroke="midnightblue" d="M1725.86,-297.979C1661.3,-293.314 1564.45,-281.776 1541.52,-254 1524.24,-233.084 1553.99,-222.33 1560.52,-196 1569.06,-161.487 1584.48,-142.269 1560.52,-116 1531.11,-83.767 1212.95,-84.1512 1169.52,-80 1150.73,-78.2049 1130.17,-76.183 1111.91,-74.3669"/>
<polygon fill="midnightblue" stroke="midnightblue" points="1112.03,-70.8622 1101.73,-73.3534 1111.34,-77.8277 1112.03,-70.8622"/>
</g>
<!-- Node39&#45;&gt;Node8 -->
<g id="edge178" class="edge"><title>Node39&#45;&gt;Node8</title>
<path fill="none" stroke="midnightblue" d="M1793.42,-290.437C1805.6,-274.989 1830.48,-246.501 1858.52,-232 1933.17,-193.387 2081.51,-246.219 2038.52,-174 1983.17,-81.0439 1925.79,-96.058 1824.52,-58 1764.42,-35.4164 1690.3,-21.8628 1648.73,-15.4679"/>
<polygon fill="midnightblue" stroke="midnightblue" points="1649.05,-11.9772 1638.65,-13.9593 1648.02,-18.9002 1649.05,-11.9772"/>
</g>
<!-- Node39&#45;&gt;Node17 -->
<g id="edge180" class="edge"><title>Node39&#45;&gt;Node17</title>
<path fill="none" stroke="midnightblue" d="M1801.77,-290.319C1828.54,-272.911 1880.96,-239.595 1901.52,-232 1989.52,-199.478 2018.09,-217.076 2109.52,-196 2143.78,-188.101 2151.39,-182.505 2185.52,-174 2257.36,-156.09 2343.3,-139.35 2384.75,-131.567"/>
<polygon fill="midnightblue" stroke="midnightblue" points="2385.56,-134.976 2394.75,-129.701 2384.28,-128.094 2385.56,-134.976"/>
</g>
<!-- Node39&#45;&gt;Node28 -->
<g id="edge152" class="edge"><title>Node39&#45;&gt;Node28</title>
<path fill="none" stroke="midnightblue" d="M1725.97,-297.464C1655.11,-292.254 1533.68,-280.147 1432.52,-254 1415.41,-249.58 1294.47,-210.591 1284.52,-196 1274.33,-181.066 1282.31,-161.03 1291.21,-146.398"/>
<polygon fill="midnightblue" stroke="midnightblue" points="1294.39,-147.936 1297.01,-137.67 1288.56,-144.063 1294.39,-147.936"/>
</g>
<!-- Node39&#45;&gt;Node37 -->
<g id="edge182" class="edge"><title>Node39&#45;&gt;Node37</title>
<path fill="none" stroke="midnightblue" d="M1845.2,-292.337C1900.71,-283.899 1985.59,-270.025 2058.52,-254 2059.77,-253.724 2061.04,-253.435 2062.33,-253.135"/>
<polygon fill="midnightblue" stroke="midnightblue" points="2063.38,-256.481 2072.25,-250.687 2061.71,-249.684 2063.38,-256.481"/>
</g>
<!-- Node40 -->
<g id="node102" class="node"><title>Node40</title>
<a xlink:href="_candidate_8h.html" target="_top" xlink:title="analysis/data/Candidate.h">
<polygon fill="white" stroke="black" points="1212.52,-232.5 1212.52,-253.5 1342.52,-253.5 1342.52,-232.5 1212.52,-232.5"/>
<text text-anchor="middle" x="1277.52" y="-240.5" font-family="Helvetica,sans-Serif" font-size="10.00">analysis/data/Candidate.h</text>
</a>
</g>
<!-- Node39&#45;&gt;Node40 -->
<g id="edge124" class="edge"><title>Node39&#45;&gt;Node40</title>
<path fill="none" stroke="midnightblue" d="M1725.75,-294.176C1632.94,-283.58 1454.32,-263.187 1352.83,-251.599"/>
<polygon fill="midnightblue" stroke="midnightblue" points="1352.99,-248.094 1342.65,-250.437 1352.19,-255.049 1352.99,-248.094"/>
</g>
<!-- Node43 -->
<g id="node120" class="node"><title>Node43</title>
<a xlink:href="_particle_type_8h.html" target="_top" xlink:title="base/ParticleType.h">
<polygon fill="white" stroke="black" points="1674.52,-232.5 1674.52,-253.5 1778.52,-253.5 1778.52,-232.5 1674.52,-232.5"/>
<text text-anchor="middle" x="1726.52" y="-240.5" font-family="Helvetica,sans-Serif" font-size="10.00">base/ParticleType.h</text>
</a>
</g>
<!-- Node39&#45;&gt;Node43 -->
<g id="edge154" class="edge"><title>Node39&#45;&gt;Node43</title>
<path fill="none" stroke="midnightblue" d="M1774.69,-290.362C1766.29,-282.104 1754.46,-270.472 1744.62,-260.803"/>
<polygon fill="midnightblue" stroke="midnightblue" points="1746.85,-258.085 1737.27,-253.571 1741.95,-263.077 1746.85,-258.085"/>
</g>
<!-- Node45 -->
<g id="node129" class="node"><title>Node45</title>
<a xlink:href="_tree_8h.html" target="_top" xlink:title="base/Tree.h">
<polygon fill="white" stroke="black" points="1910.52,-232.5 1910.52,-253.5 1978.52,-253.5 1978.52,-232.5 1910.52,-232.5"/>
<text text-anchor="middle" x="1944.52" y="-240.5" font-family="Helvetica,sans-Serif" font-size="10.00">base/Tree.h</text>
</a>
</g>
<!-- Node39&#45;&gt;Node45 -->
<g id="edge168" class="edge"><title>Node39&#45;&gt;Node45</title>
<path fill="none" stroke="midnightblue" d="M1814.31,-290.497C1840.01,-281.123 1877.83,-267.324 1906.1,-257.012"/>
<polygon fill="midnightblue" stroke="midnightblue" points="1907.47,-260.238 1915.67,-253.523 1905.07,-253.662 1907.47,-260.238"/>
</g>
<!-- Node46 -->
<g id="node134" class="node"><title>Node46</title>
<polygon fill="white" stroke="#bfbfbf" points="1797.52,-174.5 1797.52,-195.5 1889.52,-195.5 1889.52,-174.5 1797.52,-174.5"/>
<text text-anchor="middle" x="1843.52" y="-182.5" font-family="Helvetica,sans-Serif" font-size="10.00">TLorentzVector.h</text>
</g>
<!-- Node39&#45;&gt;Node46 -->
<g id="edge176" class="edge"><title>Node39&#45;&gt;Node46</title>
<path fill="none" stroke="midnightblue" d="M1731.16,-290.418C1689.71,-279.838 1643.23,-260.939 1665.52,-232 1673.16,-222.08 1738.14,-206.694 1787.4,-196.25"/>
<polygon fill="midnightblue" stroke="midnightblue" points="1788.26,-199.645 1797.33,-194.166 1786.83,-192.794 1788.26,-199.645"/>
</g>
<!-- Node40&#45;&gt;Node4 -->
<g id="edge146" class="edge"><title>Node40&#45;&gt;Node4</title>
<path fill="none" stroke="midnightblue" d="M1342.61,-240.191C1396.04,-237.908 1473.67,-234.644 1541.52,-232 2040.41,-212.553 2647.52,-191.502 2800.31,-186.243"/>
<polygon fill="midnightblue" stroke="midnightblue" points="2800.64,-189.734 2810.51,-185.892 2800.4,-182.738 2800.64,-189.734"/>
</g>
<!-- Node40&#45;&gt;Node6 -->
<g id="edge130" class="edge"><title>Node40&#45;&gt;Node6</title>
<path fill="none" stroke="midnightblue" d="M1252.38,-232.393C1237.57,-224.665 1220.09,-212.629 1211.52,-196 1203.88,-181.198 1205.99,-162.188 1209.52,-147.872"/>
<polygon fill="midnightblue" stroke="midnightblue" points="1212.96,-148.563 1212.36,-137.985 1206.23,-146.63 1212.96,-148.563"/>
</g>
<!-- Node40&#45;&gt;Node7 -->
<g id="edge126" class="edge"><title>Node40&#45;&gt;Node7</title>
<path fill="none" stroke="midnightblue" d="M1212.43,-239.81C1146.9,-235.074 1052.33,-223.547 1029.52,-196 1003.71,-164.839 1028.13,-115.206 1045.19,-88.1379"/>
<polygon fill="midnightblue" stroke="midnightblue" points="1048.25,-89.851 1050.82,-79.572 1042.4,-86.0062 1048.25,-89.851"/>
</g>
<!-- Node40&#45;&gt;Node8 -->
<g id="edge148" class="edge"><title>Node40&#45;&gt;Node8</title>
<path fill="none" stroke="midnightblue" d="M1255.61,-232.495C1239.5,-224.082 1217.68,-211.197 1201.52,-196 1155.65,-152.87 1123.91,-101.412 1169.52,-58 1184.56,-43.6755 1483.99,-20.653 1584.18,-13.3213"/>
<polygon fill="midnightblue" stroke="midnightblue" points="1584.59,-16.8004 1594.31,-12.5835 1584.08,-9.81885 1584.59,-16.8004"/>
</g>
<!-- Node40&#45;&gt;Node9 -->
<g id="edge144" class="edge"><title>Node40&#45;&gt;Node9</title>
<path fill="none" stroke="midnightblue" d="M1212.39,-240.281C1143.18,-235.908 1040.23,-224.652 1014.52,-196 973.481,-150.277 981.58,-114.149 1006.52,-58 1011.92,-45.8358 1022.2,-35.4865 1032.2,-27.6217"/>
<polygon fill="midnightblue" stroke="midnightblue" points="1034.41,-30.3395 1040.42,-21.6143 1030.28,-24.6872 1034.41,-30.3395"/>
</g>
<!-- Node40&#45;&gt;Node10 -->
<g id="edge142" class="edge"><title>Node40&#45;&gt;Node10</title>
<path fill="none" stroke="midnightblue" d="M1342.79,-233.894C1423.78,-222.343 1552.27,-203.076 1560.52,-196 1590.68,-170.103 1588.04,-118.66 1583.66,-89.827"/>
<polygon fill="midnightblue" stroke="midnightblue" points="1587.05,-88.9083 1581.9,-79.6529 1580.16,-90.1037 1587.05,-88.9083"/>
</g>
<!-- Node40&#45;&gt;Node28 -->
<g id="edge128" class="edge"><title>Node40&#45;&gt;Node28</title>
<path fill="none" stroke="midnightblue" d="M1257.3,-232.391C1235.62,-219.532 1206.02,-196.747 1219.52,-174 1225.53,-163.865 1250.21,-150.939 1271.59,-141.209"/>
<polygon fill="midnightblue" stroke="midnightblue" points="1273.08,-144.377 1280.8,-137.119 1270.24,-137.98 1273.08,-144.377"/>
</g>
<!-- Node41 -->
<g id="node107" class="node"><title>Node41</title>
<a xlink:href="_cluster_8h.html" target="_top" xlink:title="analysis/data/Cluster.h">
<polygon fill="white" stroke="black" points="1435.02,-174.5 1435.02,-195.5 1552.02,-195.5 1552.02,-174.5 1435.02,-174.5"/>
<text text-anchor="middle" x="1493.52" y="-182.5" font-family="Helvetica,sans-Serif" font-size="10.00">analysis/data/Cluster.h</text>
</a>
</g>
<!-- Node40&#45;&gt;Node41 -->
<g id="edge132" class="edge"><title>Node40&#45;&gt;Node41</title>
<path fill="none" stroke="midnightblue" d="M1316.63,-232.497C1352.45,-222.877 1405.63,-208.598 1444.32,-198.209"/>
<polygon fill="midnightblue" stroke="midnightblue" points="1445.58,-201.497 1454.33,-195.523 1443.76,-194.736 1445.58,-201.497"/>
</g>
<!-- Node41&#45;&gt;Node6 -->
<g id="edge134" class="edge"><title>Node41&#45;&gt;Node6</title>
<path fill="none" stroke="midnightblue" d="M1443.35,-174.497C1395.8,-164.54 1324.41,-149.592 1274.46,-139.132"/>
<polygon fill="midnightblue" stroke="midnightblue" points="1274.96,-135.661 1264.45,-137.037 1273.52,-142.512 1274.96,-135.661"/>
</g>
<!-- Node41&#45;&gt;Node10 -->
<g id="edge138" class="edge"><title>Node41&#45;&gt;Node10</title>
<path fill="none" stroke="midnightblue" d="M1515.9,-174.464C1530.63,-166.433 1549.22,-154.028 1560.52,-138 1570.55,-123.756 1575.3,-104.409 1577.53,-89.8262"/>
<polygon fill="midnightblue" stroke="midnightblue" points="1581.02,-90.1257 1578.8,-79.7665 1574.08,-89.2505 1581.02,-90.1257"/>
</g>
<!-- Node41&#45;&gt;Node17 -->
<g id="edge136" class="edge"><title>Node41&#45;&gt;Node17</title>
<path fill="none" stroke="midnightblue" d="M1552.2,-180.461C1579.37,-178.405 1612.08,-175.994 1641.52,-174 1933.81,-154.194 2288.95,-133.829 2384.73,-128.399"/>
<polygon fill="midnightblue" stroke="midnightblue" points="2385.08,-131.884 2394.87,-127.825 2384.69,-124.896 2385.08,-131.884"/>
</g>
<!-- Node42 -->
<g id="node112" class="node"><title>Node42</title>
<a xlink:href="enumfield_8h.html" target="_top" xlink:title="base/enumfield.h">
<polygon fill="white" stroke="black" points="1461.02,-116.5 1461.02,-137.5 1552.02,-137.5 1552.02,-116.5 1461.02,-116.5"/>
<text text-anchor="middle" x="1506.52" y="-124.5" font-family="Helvetica,sans-Serif" font-size="10.00">base/enumfield.h</text>
</a>
</g>
<!-- Node41&#45;&gt;Node42 -->
<g id="edge140" class="edge"><title>Node41&#45;&gt;Node42</title>
<path fill="none" stroke="midnightblue" d="M1495.9,-174.362C1497.59,-166.84 1499.9,-156.519 1501.94,-147.431"/>
<polygon fill="midnightblue" stroke="midnightblue" points="1505.37,-148.094 1504.15,-137.571 1498.54,-146.563 1505.37,-148.094"/>
</g>
<!-- Node43&#45;&gt;Node3 -->
<g id="edge158" class="edge"><title>Node43&#45;&gt;Node3</title>
<path fill="none" stroke="midnightblue" d="M1778.68,-232.824C1780.31,-232.541 1781.92,-232.266 1783.52,-232 1896.41,-213.15 1927.04,-221.955 2038.52,-196 2069.04,-188.893 2075.62,-183.41 2105.52,-174 2299.33,-112.991 2533.7,-43.994 2616.1,-19.8791"/>
<polygon fill="midnightblue" stroke="midnightblue" points="2617.21,-23.2017 2625.82,-17.0354 2615.24,-16.4831 2617.21,-23.2017"/>
</g>
<!-- Node43&#45;&gt;Node8 -->
<g id="edge166" class="edge"><title>Node43&#45;&gt;Node8</title>
<path fill="none" stroke="midnightblue" d="M1778.74,-232.706C1837.87,-220.803 1926.68,-202.069 1931.52,-196 1937.61,-188.352 1936.26,-182.55 1931.52,-174 1872.39,-67.4401 1716.41,-28.2209 1648.68,-15.9092"/>
<polygon fill="midnightblue" stroke="midnightblue" points="1649.04,-12.4204 1638.59,-14.158 1647.85,-19.3172 1649.04,-12.4204"/>
</g>
<!-- Node43&#45;&gt;Node9 -->
<g id="edge160" class="edge"><title>Node43&#45;&gt;Node9</title>
<path fill="none" stroke="midnightblue" d="M1776.87,-232.478C1824.87,-221.94 1890.95,-205.904 1898.52,-196 1904.45,-188.228 1903.94,-182.137 1898.52,-174 1824.28,-62.5858 1750.58,-89.7416 1620.52,-58 1520.06,-33.4847 1202.8,-17.4284 1094.87,-12.561"/>
<polygon fill="midnightblue" stroke="midnightblue" points="1094.95,-9.06105 1084.8,-12.1121 1094.64,-16.0541 1094.95,-9.06105"/>
</g>
<!-- Node43&#45;&gt;Node20 -->
<g id="edge162" class="edge"><title>Node43&#45;&gt;Node20</title>
<path fill="none" stroke="midnightblue" d="M1778.56,-239.341C1813.36,-236.99 1860.16,-234.012 1901.52,-232 2175.36,-218.678 3068.74,-191.034 3237.78,-185.848"/>
<polygon fill="midnightblue" stroke="midnightblue" points="3237.96,-189.344 3247.85,-185.54 3237.75,-182.348 3237.96,-189.344"/>
</g>
<!-- Node43&#45;&gt;Node28 -->
<g id="edge156" class="edge"><title>Node43&#45;&gt;Node28</title>
<path fill="none" stroke="midnightblue" d="M1674.19,-237.183C1566.92,-225.213 1331.85,-198.711 1328.52,-196 1314.25,-184.389 1308.77,-163.655 1306.7,-147.937"/>
<polygon fill="midnightblue" stroke="midnightblue" points="1310.15,-147.205 1305.72,-137.581 1303.18,-147.868 1310.15,-147.205"/>
</g>
<!-- Node44 -->
<g id="node126" class="node"><title>Node44</title>
<polygon fill="white" stroke="#bfbfbf" points="1983.02,-174.5 1983.02,-195.5 2030.02,-195.5 2030.02,-174.5 1983.02,-174.5"/>
<text text-anchor="middle" x="2006.52" y="-182.5" font-family="Helvetica,sans-Serif" font-size="10.00">iterator</text>
</g>
<!-- Node43&#45;&gt;Node44 -->
<g id="edge164" class="edge"><title>Node43&#45;&gt;Node44</title>
<path fill="none" stroke="midnightblue" d="M1778.62,-233.542C1838.8,-222.507 1934.09,-204.67 1969.52,-196 1970.59,-195.737 1971.68,-195.462 1972.78,-195.179"/>
<polygon fill="midnightblue" stroke="midnightblue" points="1974.01,-198.47 1982.72,-192.446 1972.15,-191.72 1974.01,-198.47"/>
</g>
<!-- Node45&#45;&gt;Node4 -->
<g id="edge170" class="edge"><title>Node45&#45;&gt;Node4</title>
<path fill="none" stroke="midnightblue" d="M1978.77,-238.068C1994.51,-235.944 2013.43,-233.589 2030.52,-232 2326.95,-204.432 2686.32,-190.256 2800.13,-186.227"/>
<polygon fill="midnightblue" stroke="midnightblue" points="2800.5,-189.716 2810.37,-185.868 2800.26,-182.72 2800.5,-189.716"/>
</g>
<!-- Node45&#45;&gt;Node17 -->
<g id="edge172" class="edge"><title>Node45&#45;&gt;Node17</title>
<path fill="none" stroke="midnightblue" d="M1978.57,-235.016C1983.25,-233.971 1988,-232.939 1992.52,-232 2077.95,-214.251 2102.93,-224.164 2185.52,-196 2205.83,-189.071 2208.45,-181.632 2228.52,-174 2282.69,-153.393 2349.33,-138.67 2384.7,-131.646"/>
<polygon fill="midnightblue" stroke="midnightblue" points="2385.48,-135.06 2394.63,-129.715 2384.15,-128.189 2385.48,-135.06"/>
</g>
<!-- Node45&#45;&gt;Node27 -->
<g id="edge174" class="edge"><title>Node45&#45;&gt;Node27</title>
<path fill="none" stroke="midnightblue" d="M1978.72,-233.474C2012.93,-222.161 2057.9,-201.329 2038.52,-174 1971.18,-79.0514 1593.61,-28.938 1471.57,-15.0535"/>
<polygon fill="midnightblue" stroke="midnightblue" points="1471.89,-11.5678 1461.56,-13.9316 1471.11,-18.5242 1471.89,-11.5678"/>
</g>
<!-- Node47&#45;&gt;Node4 -->
<g id="edge264" class="edge"><title>Node47&#45;&gt;Node4</title>
<path fill="none" stroke="midnightblue" d="M1640.47,-363.425C1764.05,-356.439 2068.39,-332.062 2309.52,-254 2329.94,-247.388 2331.91,-238.033 2352.52,-232 2395.16,-219.514 2694.97,-195.78 2800.15,-187.741"/>
<polygon fill="midnightblue" stroke="midnightblue" points="2800.58,-191.219 2810.28,-186.969 2800.05,-184.239 2800.58,-191.219"/>
</g>
<!-- Node47&#45;&gt;Node7 -->
<g id="edge258" class="edge"><title>Node47&#45;&gt;Node7</title>
<path fill="none" stroke="midnightblue" d="M1528.9,-362.763C1451.49,-357.282 1307.39,-343.524 1188.52,-312 1121.82,-294.315 1098.38,-297.114 1044.52,-254 994.848,-214.248 979.697,-173.687 1006.52,-116 1012.17,-103.845 1022.58,-93.4477 1032.62,-85.5466"/>
<polygon fill="midnightblue" stroke="midnightblue" points="1034.85,-88.2498 1040.84,-79.5129 1030.71,-82.6055 1034.85,-88.2498"/>
</g>
<!-- Node47&#45;&gt;Node8 -->
<g id="edge262" class="edge"><title>Node47&#45;&gt;Node8</title>
<path fill="none" stroke="midnightblue" d="M1578.85,-355.264C1568.92,-335.758 1548.73,-292.911 1541.52,-254 1539.73,-244.386 1537.54,-240.932 1541.52,-232 1551.25,-210.151 1568.38,-215.991 1581.52,-196 1611.38,-150.538 1611.73,-133.678 1620.52,-80 1623.14,-63.9284 1621.86,-45.5044 1620.08,-31.7393"/>
<polygon fill="midnightblue" stroke="midnightblue" points="1623.54,-31.2083 1618.6,-21.8328 1616.61,-32.2392 1623.54,-31.2083"/>
</g>
<!-- Node47&#45;&gt;Node20 -->
<g id="edge266" class="edge"><title>Node47&#45;&gt;Node20</title>
<path fill="none" stroke="midnightblue" d="M1640.04,-363.993C1740.9,-359.604 1960.61,-346.614 2142.52,-312 2234.27,-294.539 2257.98,-289.17 2344.52,-254 2363.67,-246.213 2365.6,-237.574 2385.52,-232 2469.16,-208.586 3096.93,-189.726 3237.6,-185.767"/>
<polygon fill="midnightblue" stroke="midnightblue" points="3238.04,-189.256 3247.94,-185.478 3237.84,-182.258 3238.04,-189.256"/>
</g>
<!-- Node47&#45;&gt;Node28 -->
<g id="edge256" class="edge"><title>Node47&#45;&gt;Node28</title>
<path fill="none" stroke="midnightblue" d="M1528.85,-364.875C1437.45,-361.91 1261.02,-351.135 1214.52,-312 1167.31,-272.275 1164.11,-224.527 1199.52,-174 1204,-167.594 1242.12,-151.641 1271.37,-140.096"/>
<polygon fill="midnightblue" stroke="midnightblue" points="1272.85,-143.274 1280.89,-136.369 1270.3,-136.755 1272.85,-143.274"/>
</g>
<!-- Node47&#45;&gt;Node39 -->
<g id="edge190" class="edge"><title>Node47&#45;&gt;Node39</title>
<path fill="none" stroke="midnightblue" d="M1617.26,-355.412C1651.57,-344.316 1705.6,-326.843 1743.14,-314.702"/>
<polygon fill="midnightblue" stroke="midnightblue" points="1744.35,-317.991 1752.79,-311.584 1742.2,-311.33 1744.35,-317.991"/>
</g>
<!-- Node47&#45;&gt;Node40 -->
<g id="edge192" class="edge"><title>Node47&#45;&gt;Node40</title>
<path fill="none" stroke="midnightblue" d="M1558.07,-355.407C1502.99,-333.337 1375.88,-282.41 1313.45,-257.395"/>
<polygon fill="midnightblue" stroke="midnightblue" points="1314.59,-254.082 1304,-253.612 1311.98,-260.58 1314.59,-254.082"/>
</g>
<!-- Node47&#45;&gt;Node45 -->
<g id="edge260" class="edge"><title>Node47&#45;&gt;Node45</title>
<path fill="none" stroke="midnightblue" d="M1640.05,-362.151C1696.05,-356.622 1783.92,-343.364 1853.52,-312 1881.63,-299.328 1909.18,-276.582 1926.46,-260.681"/>
<polygon fill="midnightblue" stroke="midnightblue" points="1929.21,-262.906 1934.08,-253.5 1924.41,-257.811 1929.21,-262.906"/>
</g>
<!-- Node48 -->
<g id="node145" class="node"><title>Node48</title>
<a xlink:href="_tagger_hit_8h.html" target="_top" xlink:title="TaggerHit.h">
<polygon fill="white" stroke="black" points="1550.52,-232.5 1550.52,-253.5 1618.52,-253.5 1618.52,-232.5 1550.52,-232.5"/>
<text text-anchor="middle" x="1584.52" y="-240.5" font-family="Helvetica,sans-Serif" font-size="10.00">TaggerHit.h</text>
</a>
</g>
<!-- Node47&#45;&gt;Node48 -->
<g id="edge194" class="edge"><title>Node47&#45;&gt;Node48</title>
<path fill="none" stroke="midnightblue" d="M1584.52,-355.085C1584.52,-334.609 1584.52,-290.133 1584.52,-263.778"/>
<polygon fill="midnightblue" stroke="midnightblue" points="1588.02,-263.715 1584.52,-253.715 1581.02,-263.715 1588.02,-263.715"/>
</g>
<!-- Node49 -->
<g id="node152" class="node"><title>Node49</title>
<a xlink:href="_trigger_info_8h.html" target="_top" xlink:title="TriggerInfo.h">
<polygon fill="white" stroke="black" points="1223.02,-290.5 1223.02,-311.5 1294.02,-311.5 1294.02,-290.5 1223.02,-290.5"/>
<text text-anchor="middle" x="1258.52" y="-298.5" font-family="Helvetica,sans-Serif" font-size="10.00">TriggerInfo.h</text>
</a>
</g>
<!-- Node47&#45;&gt;Node49 -->
<g id="edge206" class="edge"><title>Node47&#45;&gt;Node49</title>
<path fill="none" stroke="midnightblue" d="M1531.78,-355.484C1468.58,-342.883 1363.74,-321.981 1303.97,-310.062"/>
<polygon fill="midnightblue" stroke="midnightblue" points="1304.55,-306.611 1294.06,-308.088 1303.18,-313.475 1304.55,-306.611"/>
</g>
<!-- Node48&#45;&gt;Node4 -->
<g id="edge198" class="edge"><title>Node48&#45;&gt;Node4</title>
<path fill="none" stroke="midnightblue" d="M1618.72,-237.622C1633.13,-235.547 1650.11,-233.353 1665.52,-232 1894.07,-211.94 2628.75,-190.747 2800.41,-185.987"/>
<polygon fill="midnightblue" stroke="midnightblue" points="2800.54,-189.484 2810.44,-185.709 2800.35,-182.487 2800.54,-189.484"/>
</g>
<!-- Node48&#45;&gt;Node7 -->
<g id="edge202" class="edge"><title>Node48&#45;&gt;Node7</title>
<path fill="none" stroke="midnightblue" d="M1550.41,-241.439C1444.98,-235.84 1127.62,-212.94 1064.52,-138 1053.42,-124.826 1052.86,-104.793 1054.52,-89.7012"/>
<polygon fill="midnightblue" stroke="midnightblue" points="1057.99,-90.1605 1056.01,-79.7537 1051.07,-89.1284 1057.99,-90.1605"/>
</g>
<!-- Node48&#45;&gt;Node17 -->
<g id="edge196" class="edge"><title>Node48&#45;&gt;Node17</title>
<path fill="none" stroke="midnightblue" d="M1618.75,-235.006C1651.78,-226.83 1702.9,-212.946 1745.52,-196 1765.46,-188.068 1767.85,-179.813 1788.52,-174 1903.63,-141.616 2283.48,-130.105 2384.6,-127.574"/>
<polygon fill="midnightblue" stroke="midnightblue" points="2384.86,-131.069 2394.77,-127.327 2384.69,-124.071 2384.86,-131.069"/>
</g>
<!-- Node48&#45;&gt;Node28 -->
<g id="edge200" class="edge"><title>Node48&#45;&gt;Node28</title>
<path fill="none" stroke="midnightblue" d="M1550.35,-239.913C1477.44,-232.979 1311.9,-215.264 1295.52,-196 1284.17,-182.665 1288.84,-162.375 1295.04,-147.244"/>
<polygon fill="midnightblue" stroke="midnightblue" points="1298.41,-148.291 1299.41,-137.742 1292.05,-145.369 1298.41,-148.291"/>
</g>
<!-- Node48&#45;&gt;Node46 -->
<g id="edge204" class="edge"><title>Node48&#45;&gt;Node46</title>
<path fill="none" stroke="midnightblue" d="M1618.6,-235.162C1623.27,-234.095 1628.01,-233.018 1632.52,-232 1685.04,-220.131 1744.98,-206.8 1787.52,-197.376"/>
<polygon fill="midnightblue" stroke="midnightblue" points="1788.39,-200.767 1797.4,-195.188 1786.88,-193.933 1788.39,-200.767"/>
</g>
<!-- Node49&#45;&gt;Node4 -->
<g id="edge254" class="edge"><title>Node49&#45;&gt;Node4</title>
<path fill="none" stroke="midnightblue" d="M1294.26,-299.087C1379.79,-294.234 1602.85,-279.953 1787.52,-254 1838.61,-246.818 1850.29,-238.199 1901.52,-232 2080.36,-210.357 2650.57,-190.954 2800.25,-186.141"/>
<polygon fill="midnightblue" stroke="midnightblue" points="2800.41,-189.638 2810.29,-185.82 2800.18,-182.641 2800.41,-189.638"/>
</g>
<!-- Node49&#45;&gt;Node7 -->
<g id="edge210" class="edge"><title>Node49&#45;&gt;Node7</title>
<path fill="none" stroke="midnightblue" d="M1223,-297.634C1167.39,-290.236 1061.3,-267.068 1014.52,-196 1007.91,-185.962 1004.57,-147.98 1017.52,-116 1021.9,-105.16 1029.88,-95.1007 1037.65,-87.0934"/>
<polygon fill="midnightblue" stroke="midnightblue" points="1040.43,-89.2767 1045.2,-79.8169 1035.57,-84.2366 1040.43,-89.2767"/>
</g>
<!-- Node49&#45;&gt;Node17 -->
<g id="edge252" class="edge"><title>Node49&#45;&gt;Node17</title>
<path fill="none" stroke="midnightblue" d="M1289.63,-290.398C1330.84,-276.468 1405.85,-251.487 1470.52,-232 1562.82,-204.187 1584.46,-190.071 1679.52,-174 1819.8,-150.281 2273.71,-132.078 2384.8,-127.905"/>
<polygon fill="midnightblue" stroke="midnightblue" points="2385.15,-131.395 2395.01,-127.525 2384.89,-124.399 2385.15,-131.395"/>
</g>
<!-- Node49&#45;&gt;Node28 -->
<g id="edge208" class="edge"><title>Node49&#45;&gt;Node28</title>
<path fill="none" stroke="midnightblue" d="M1239.13,-290.458C1226.41,-282.35 1210.82,-269.856 1203.52,-254 1195.39,-236.378 1201.91,-187.401 1211.52,-174 1219.13,-163.379 1247.66,-149.926 1271.31,-140.138"/>
<polygon fill="midnightblue" stroke="midnightblue" points="1272.79,-143.316 1280.74,-136.317 1270.16,-136.828 1272.79,-143.316"/>
</g>
<!-- Node50 -->
<g id="node156" class="node"><title>Node50</title>
<a xlink:href="_t_data_record_8h.html" target="_top" xlink:title="tree/TDataRecord.h">
<polygon fill="white" stroke="black" points="424.015,-232.5 424.015,-253.5 527.015,-253.5 527.015,-232.5 424.015,-232.5"/>
<text text-anchor="middle" x="475.515" y="-240.5" font-family="Helvetica,sans-Serif" font-size="10.00">tree/TDataRecord.h</text>
</a>
</g>
<!-- Node49&#45;&gt;Node50 -->
<g id="edge212" class="edge"><title>Node49&#45;&gt;Node50</title>
<path fill="none" stroke="midnightblue" d="M1222.84,-298.357C1100.01,-289.259 693.622,-259.156 537.424,-247.586"/>
<polygon fill="midnightblue" stroke="midnightblue" points="537.291,-244.067 527.06,-246.818 536.774,-251.047 537.291,-244.067"/>
</g>
<!-- Node50&#45;&gt;Node33 -->
<g id="edge246" class="edge"><title>Node50&#45;&gt;Node33</title>
<path fill="none" stroke="midnightblue" d="M491.204,-232.295C521.059,-211.923 586.215,-167.464 621.56,-143.346"/>
<polygon fill="midnightblue" stroke="midnightblue" points="623.577,-146.207 629.865,-137.679 619.632,-140.425 623.577,-146.207"/>
</g>
<!-- Node51 -->
<g id="node158" class="node"><title>Node51</title>
<a xlink:href="_t_i_d_8h.html" target="_top" xlink:title="TID.h">
<polygon fill="white" stroke="black" points="455.015,-174.5 455.015,-195.5 496.015,-195.5 496.015,-174.5 455.015,-174.5"/>
<text text-anchor="middle" x="475.515" y="-182.5" font-family="Helvetica,sans-Serif" font-size="10.00">TID.h</text>
</a>
</g>
<!-- Node50&#45;&gt;Node51 -->
<g id="edge214" class="edge"><title>Node50&#45;&gt;Node51</title>
<path fill="none" stroke="midnightblue" d="M475.515,-232.362C475.515,-224.922 475.515,-214.743 475.515,-205.728"/>
<polygon fill="midnightblue" stroke="midnightblue" points="479.015,-205.571 475.515,-195.571 472.015,-205.571 479.015,-205.571"/>
</g>
<!-- Node56 -->
<g id="node172" class="node"><title>Node56</title>
<polygon fill="white" stroke="#bfbfbf" points="257.015,-58.5 257.015,-79.5 298.015,-79.5 298.015,-58.5 257.015,-58.5"/>
<text text-anchor="middle" x="277.515" y="-66.5" font-family="Helvetica,sans-Serif" font-size="10.00">ctime</text>
</g>
<!-- Node50&#45;&gt;Node56 -->
<g id="edge250" class="edge"><title>Node50&#45;&gt;Node56</title>
<path fill="none" stroke="midnightblue" d="M440.15,-232.4C398.525,-218.014 330.522,-188.175 294.515,-138 284.427,-123.942 280.29,-104.578 278.611,-89.9406"/>
<polygon fill="midnightblue" stroke="midnightblue" points="282.087,-89.5013 277.749,-79.8351 275.112,-90.0965 282.087,-89.5013"/>
</g>
<!-- Node58 -->
<g id="node179" class="node"><title>Node58</title>
<polygon fill="white" stroke="#bfbfbf" points="303.515,-116.5 303.515,-137.5 353.515,-137.5 353.515,-116.5 303.515,-116.5"/>
<text text-anchor="middle" x="328.515" y="-124.5" font-family="Helvetica,sans-Serif" font-size="10.00">iomanip</text>
</g>
<!-- Node50&#45;&gt;Node58 -->
<g id="edge248" class="edge"><title>Node50&#45;&gt;Node58</title>
<path fill="none" stroke="midnightblue" d="M461.949,-232.295C436.352,-212.096 380.745,-168.216 350.012,-143.963"/>
<polygon fill="midnightblue" stroke="midnightblue" points="352.067,-141.126 342.048,-137.679 347.73,-146.622 352.067,-141.126"/>
</g>
<!-- Node51&#45;&gt;Node7 -->
<g id="edge218" class="edge"><title>Node51&#45;&gt;Node7</title>
<path fill="none" stroke="midnightblue" d="M481.493,-174.327C491.028,-158.464 511.309,-129.127 537.515,-116 578.635,-95.4029 880.856,-77.9757 1005.25,-71.5969"/>
<polygon fill="midnightblue" stroke="midnightblue" points="1005.5,-75.0888 1015.31,-71.0853 1005.15,-68.0978 1005.5,-75.0888"/>
</g>
<!-- Node51&#45;&gt;Node11 -->
<g id="edge238" class="edge"><title>Node51&#45;&gt;Node11</title>
<path fill="none" stroke="midnightblue" d="M476.357,-174.376C478.104,-159.371 483.428,-132.019 499.515,-116 527.408,-88.2251 572.416,-76.8441 603.178,-72.1932"/>
<polygon fill="midnightblue" stroke="midnightblue" points="603.971,-75.618 613.413,-70.8129 603.035,-68.6808 603.971,-75.618"/>
</g>
<!-- Node51&#45;&gt;Node12 -->
<g id="edge240" class="edge"><title>Node51&#45;&gt;Node12</title>
<path fill="none" stroke="midnightblue" d="M488.971,-174.363C511.639,-156.681 556.794,-122.53 575.515,-116 688.026,-76.7587 991.84,-90.7161 1110.52,-80 1129.25,-78.3086 1149.96,-76.0167 1167.43,-73.9627"/>
<polygon fill="midnightblue" stroke="midnightblue" points="1168.32,-77.3814 1177.83,-72.722 1167.49,-70.4306 1168.32,-77.3814"/>
</g>
<!-- Node51&#45;&gt;Node13 -->
<g id="edge234" class="edge"><title>Node51&#45;&gt;Node13</title>
<path fill="none" stroke="midnightblue" d="M496.361,-175.393C515.974,-166.213 546.053,-151.773 571.515,-138 588.343,-128.897 590.218,-121.589 608.515,-116 876.531,-34.1357 963.643,-123.703 1244.15,-79.8984"/>
<polygon fill="midnightblue" stroke="midnightblue" points="1244.89,-83.3242 1254.21,-78.2834 1243.78,-76.4127 1244.89,-83.3242"/>
</g>
<!-- Node51&#45;&gt;Node33 -->
<g id="edge216" class="edge"><title>Node51&#45;&gt;Node33</title>
<path fill="none" stroke="midnightblue" d="M496.021,-178.004C523.59,-168.598 573.118,-151.7 607.577,-139.944"/>
<polygon fill="midnightblue" stroke="midnightblue" points="608.971,-143.166 617.305,-136.625 606.711,-136.541 608.971,-143.166"/>
</g>
<!-- Node52 -->
<g id="node162" class="node"><title>Node52</title>
<a xlink:href="time_8h.html" target="_top" xlink:title="base/std_ext/time.h">
<polygon fill="white" stroke="black" points="69.0151,-116.5 69.0151,-137.5 172.015,-137.5 172.015,-116.5 69.0151,-116.5"/>
<text text-anchor="middle" x="120.515" y="-124.5" font-family="Helvetica,sans-Serif" font-size="10.00">base/std_ext/time.h</text>
</a>
</g>
<!-- Node51&#45;&gt;Node52 -->
<g id="edge220" class="edge"><title>Node51&#45;&gt;Node52</title>
<path fill="none" stroke="midnightblue" d="M454.894,-181.631C402.671,-173.099 263.579,-150.374 182.18,-137.075"/>
<polygon fill="midnightblue" stroke="midnightblue" points="182.498,-133.58 172.064,-135.422 181.369,-140.489 182.498,-133.58"/>
</g>
<!-- Node51&#45;&gt;Node56 -->
<g id="edge244" class="edge"><title>Node51&#45;&gt;Node56</title>
<path fill="none" stroke="midnightblue" d="M458.804,-174.485C436.869,-160.755 397.092,-136.103 362.515,-116 343.992,-105.23 322.917,-93.5731 306.386,-84.5623"/>
<polygon fill="midnightblue" stroke="midnightblue" points="307.689,-81.2873 297.231,-79.5894 304.348,-87.4384 307.689,-81.2873"/>
</g>
<!-- Node57 -->
<g id="node175" class="node"><title>Node57</title>
<polygon fill="white" stroke="#bfbfbf" points="409.515,-116.5 409.515,-137.5 447.515,-137.5 447.515,-116.5 409.515,-116.5"/>
<text text-anchor="middle" x="428.515" y="-124.5" font-family="Helvetica,sans-Serif" font-size="10.00">tuple</text>
</g>
<!-- Node51&#45;&gt;Node57 -->
<g id="edge236" class="edge"><title>Node51&#45;&gt;Node57</title>
<path fill="none" stroke="midnightblue" d="M466.895,-174.362C460.336,-166.268 451.15,-154.932 443.409,-145.38"/>
<polygon fill="midnightblue" stroke="midnightblue" points="446.096,-143.136 437.081,-137.571 440.658,-147.544 446.096,-143.136"/>
</g>
<!-- Node51&#45;&gt;Node58 -->
<g id="edge242" class="edge"><title>Node51&#45;&gt;Node58</title>
<path fill="none" stroke="midnightblue" d="M454.765,-176.813C430.978,-167.428 391.612,-151.895 363.154,-140.667"/>
<polygon fill="midnightblue" stroke="midnightblue" points="364.174,-137.307 353.587,-136.892 361.605,-143.818 364.174,-137.307"/>
</g>
<!-- Node53 -->
<g id="node164" class="node"><title>Node53</title>
<a xlink:href="string_8h.html" target="_top" xlink:title="base/std_ext/string.h">
<polygon fill="white" stroke="black" points="29.5151,-58.5 29.5151,-79.5 137.515,-79.5 137.515,-58.5 29.5151,-58.5"/>
<text text-anchor="middle" x="83.5151" y="-66.5" font-family="Helvetica,sans-Serif" font-size="10.00">base/std_ext/string.h</text>
</a>
</g>
<!-- Node52&#45;&gt;Node53 -->
<g id="edge222" class="edge"><title>Node52&#45;&gt;Node53</title>
<path fill="none" stroke="midnightblue" d="M113.729,-116.362C108.722,-108.513 101.77,-97.6159 95.797,-88.2527"/>
<polygon fill="midnightblue" stroke="midnightblue" points="98.5874,-86.1189 90.2585,-79.5707 92.686,-89.8837 98.5874,-86.1189"/>
</g>
<!-- Node55 -->
<g id="node170" class="node"><title>Node55</title>
<polygon fill="white" stroke="#bfbfbf" points="193.515,-58.5 193.515,-79.5 239.515,-79.5 239.515,-58.5 193.515,-58.5"/>
<text text-anchor="middle" x="216.515" y="-66.5" font-family="Helvetica,sans-Serif" font-size="10.00">cstring</text>
</g>
<!-- Node52&#45;&gt;Node55 -->
<g id="edge230" class="edge"><title>Node52&#45;&gt;Node55</title>
<path fill="none" stroke="midnightblue" d="M138.123,-116.362C152.738,-107.532 173.739,-94.844 190.326,-84.8224"/>
<polygon fill="midnightblue" stroke="midnightblue" points="192.27,-87.7376 199.019,-79.5707 188.65,-81.7461 192.27,-87.7376"/>
</g>
<!-- Node52&#45;&gt;Node56 -->
<g id="edge232" class="edge"><title>Node52&#45;&gt;Node56</title>
<path fill="none" stroke="midnightblue" d="M149.524,-116.448C173.562,-107.682 208.851,-94.7632 247.559,-80.3364"/>
<polygon fill="midnightblue" stroke="midnightblue" points="248.785,-83.6146 256.93,-76.839 246.338,-77.0565 248.785,-83.6146"/>
</g>
<!-- Node53&#45;&gt;Node3 -->
<g id="edge224" class="edge"><title>Node53&#45;&gt;Node3</title>
<path fill="none" stroke="midnightblue" d="M137.618,-59.5398C142.308,-58.935 146.989,-58.4067 151.515,-58 408.471,-34.9136 2347.32,-14.0985 2615.73,-11.3153"/>
<polygon fill="midnightblue" stroke="midnightblue" points="2615.95,-14.8132 2625.92,-11.21 2615.88,-7.81362 2615.95,-14.8132"/>
</g>
<!-- Node53&#45;&gt;Node27 -->
<g id="edge228" class="edge"><title>Node53&#45;&gt;Node27</title>
<path fill="none" stroke="midnightblue" d="M137.627,-59.6275C142.315,-59.0036 146.993,-58.4469 151.515,-58 214.896,-51.736 1188.8,-19.1335 1395.24,-12.2693"/>
<polygon fill="midnightblue" stroke="midnightblue" points="1395.43,-15.7652 1405.31,-11.9349 1395.2,-8.76906 1395.43,-15.7652"/>
</g>
<!-- Node54 -->
<g id="node167" class="node"><title>Node54</title>
<polygon fill="white" stroke="#bfbfbf" points="57.5151,-0.5 57.5151,-21.5 109.515,-21.5 109.515,-0.5 57.5151,-0.5"/>
<text text-anchor="middle" x="83.5151" y="-8.5" font-family="Helvetica,sans-Serif" font-size="10.00">sstream</text>
</g>
<!-- Node53&#45;&gt;Node54 -->
<g id="edge226" class="edge"><title>Node53&#45;&gt;Node54</title>
<path fill="none" stroke="midnightblue" d="M83.5151,-58.3619C83.5151,-50.9219 83.5151,-40.7427 83.5151,-31.7276"/>
<polygon fill="midnightblue" stroke="midnightblue" points="87.0152,-31.5706 83.5151,-21.5707 80.0152,-31.5707 87.0152,-31.5706"/>
</g>
<!-- Node59&#45;&gt;Node8 -->
<g id="edge270" class="edge"><title>Node59&#45;&gt;Node8</title>
<path fill="none" stroke="midnightblue" d="M844.118,-116.418C877.842,-108.135 924.208,-95.4455 963.515,-80 983.495,-72.149 985.854,-63.8273 1006.52,-58 1010.03,-57.0085 1458.35,-22.9841 1584.07,-13.457"/>
<polygon fill="midnightblue" stroke="midnightblue" points="1584.52,-16.9334 1594.23,-12.6878 1583.99,-9.95345 1584.52,-16.9334"/>
</g>
<!-- Node59&#45;&gt;Node11 -->
<g id="edge272" class="edge"><title>Node59&#45;&gt;Node11</title>
<path fill="none" stroke="midnightblue" d="M768.359,-116.497C740.475,-106.451 698.484,-91.3241 669.415,-80.8522"/>
<polygon fill="midnightblue" stroke="midnightblue" points="670.311,-77.4547 659.716,-77.3582 667.938,-84.0404 670.311,-77.4547"/>
</g>
<!-- Node60&#45;&gt;Node3 -->
<g id="edge276" class="edge"><title>Node60&#45;&gt;Node3</title>
<path fill="none" stroke="midnightblue" d="M3321.57,-232.377C3318.2,-217.118 3309.82,-189.167 3291.52,-174 3194.27,-93.4092 2792.46,-31.5563 2677.42,-15.2411"/>
<polygon fill="midnightblue" stroke="midnightblue" points="2677.59,-11.7309 2667.2,-13.8052 2676.62,-18.6628 2677.59,-11.7309"/>
</g>
<!-- Node60&#45;&gt;Node4 -->
<g id="edge278" class="edge"><title>Node60&#45;&gt;Node4</title>
<path fill="none" stroke="midnightblue" d="M3274.38,-234.116C3269.7,-233.361 3265.02,-232.643 3260.52,-232 3117.6,-211.623 2946.52,-195.029 2873.01,-188.27"/>
<polygon fill="midnightblue" stroke="midnightblue" points="2873.16,-184.77 2862.88,-187.345 2872.52,-191.741 2873.16,-184.77"/>
</g>
<!-- Node60&#45;&gt;Node20 -->
<g id="edge280" class="edge"><title>Node60&#45;&gt;Node20</title>
<path fill="none" stroke="midnightblue" d="M3312.88,-232.362C3304.62,-224.104 3292.99,-212.472 3283.32,-202.803"/>
<polygon fill="midnightblue" stroke="midnightblue" points="3285.63,-200.167 3276.09,-195.571 3280.68,-205.117 3285.63,-200.167"/>
</g>
<!-- Node61&#45;&gt;Node3 -->
<g id="edge304" class="edge"><title>Node61&#45;&gt;Node3</title>
<path fill="none" stroke="midnightblue" d="M766.848,-364.134C686.455,-360.258 538.268,-348.37 417.515,-312 244.199,-259.798 -39.7651,-266.69 60.5151,-116 83.4712,-81.5043 109.398,-98.4184 146.515,-80 163.996,-71.3255 165.717,-63.2418 184.515,-58 245.978,-40.861 2335.22,-14.7984 2615.53,-11.3755"/>
<polygon fill="midnightblue" stroke="midnightblue" points="2615.83,-14.8722 2625.79,-11.2505 2615.75,-7.8727 2615.83,-14.8722"/>
</g>
<!-- Node61&#45;&gt;Node17 -->
<g id="edge306" class="edge"><title>Node61&#45;&gt;Node17</title>
<path fill="none" stroke="midnightblue" d="M884.173,-363.332C974.824,-358.321 1154.01,-344.876 1302.52,-312 1411.88,-287.788 1434.59,-265.384 1541.52,-232 1629.86,-204.417 1650.4,-190.228 1741.52,-174 1868.79,-151.332 2279.07,-132.578 2384.59,-128.045"/>
<polygon fill="midnightblue" stroke="midnightblue" points="2385.04,-131.529 2394.88,-127.607 2384.74,-124.536 2385.04,-131.529"/>
</g>
<!-- Node61&#45;&gt;Node26 -->
<g id="edge296" class="edge"><title>Node61&#45;&gt;Node26</title>
<path fill="none" stroke="midnightblue" d="M869.946,-348.996C940.213,-322.39 1081.54,-270.031 1203.52,-232 1244.84,-219.114 1292.32,-206.43 1327.23,-197.492"/>
<polygon fill="midnightblue" stroke="midnightblue" points="1328.35,-200.817 1337.18,-194.958 1326.62,-194.034 1328.35,-200.817"/>
</g>
<!-- Node62 -->
<g id="node211" class="node"><title>Node62</title>
<a xlink:href="_t_header_info_8h.html" target="_top" xlink:title="tree/THeaderInfo.h">
<polygon fill="white" stroke="black" points="426.515,-290.5 426.515,-311.5 524.515,-311.5 524.515,-290.5 426.515,-290.5"/>
<text text-anchor="middle" x="475.515" y="-298.5" font-family="Helvetica,sans-Serif" font-size="10.00">tree/THeaderInfo.h</text>
</a>
</g>
<!-- Node61&#45;&gt;Node62 -->
<g id="edge298" class="edge"><title>Node61&#45;&gt;Node62</title>
<path fill="none" stroke="midnightblue" d="M766.933,-355.12C702.466,-343.148 599.422,-324.011 534.711,-311.994"/>
<polygon fill="midnightblue" stroke="midnightblue" points="535.137,-308.513 524.666,-310.128 533.859,-315.395 535.137,-308.513"/>
</g>
<!-- Node62&#45;&gt;Node50 -->
<g id="edge300" class="edge"><title>Node62&#45;&gt;Node50</title>
<path fill="none" stroke="midnightblue" d="M475.515,-290.362C475.515,-282.922 475.515,-272.743 475.515,-263.728"/>
<polygon fill="midnightblue" stroke="midnightblue" points="479.015,-263.571 475.515,-253.571 472.015,-263.571 479.015,-263.571"/>
</g>
<!-- Node62&#45;&gt;Node52 -->
<g id="edge302" class="edge"><title>Node62&#45;&gt;Node52</title>
<path fill="none" stroke="midnightblue" d="M453.843,-290.377C393.313,-260.709 222.278,-176.878 151.635,-142.253"/>
<polygon fill="midnightblue" stroke="midnightblue" points="152.875,-138.963 142.355,-137.705 149.794,-145.249 152.875,-138.963"/>
</g>
</g>
</svg>
