<?xml version="1.0" encoding="UTF-8" standalone="no"?>
<!DOCTYPE svg PUBLIC "-//W3C//DTD SVG 1.1//EN"
 "http://www.w3.org/Graphics/SVG/1.1/DTD/svg11.dtd">
<!-- Generated by graphviz version 2.26.3 (20100126.1600)
 -->
<!-- Title: src/tree/UnpackerWriter.h Pages: 1 -->
<svg width="514pt" height="174pt"
 viewBox="0.00 0.00 514.00 174.00" xmlns="http://www.w3.org/2000/svg" xmlns:xlink="http://www.w3.org/1999/xlink">
<g id="graph1" class="graph" transform="scale(1 1) rotate(0) translate(4 170)">
<title>src/tree/UnpackerWriter.h</title>
<polygon fill="white" stroke="white" points="-4,5 -4,-170 511,-170 511,5 -4,5"/>
<!-- Node1 -->
<g id="node1" class="node"><title>Node1</title>
<polygon fill="#bfbfbf" stroke="black" points="94.5,-144.5 94.5,-165.5 223.5,-165.5 223.5,-144.5 94.5,-144.5"/>
<text text-anchor="middle" x="159" y="-152.5" font-family="Helvetica,sans-Serif" font-size="10.00">src/tree/UnpackerWriter.h</text>
</g>
<!-- Node2 -->
<g id="node3" class="node"><title>Node2</title>
<a xlink:href="_ant_8cc.html" target="_top" xlink:title="Main Ant executable. ">
<polygon fill="white" stroke="black" points="0,-7.5 0,-28.5 72,-28.5 72,-7.5 0,-7.5"/>
<text text-anchor="middle" x="36" y="-15.5" font-family="Helvetica,sans-Serif" font-size="10.00">progs/Ant.cc</text>
</a>
</g>
<!-- Node1&#45;&gt;Node2 -->
<g id="edge2" class="edge"><title>Node1&#45;&gt;Node2</title>
<path fill="none" stroke="midnightblue" d="M142.359,-136.465C116.251,-107.385 66.4927,-51.9635 45.6068,-28.7002"/>
<polygon fill="midnightblue" stroke="midnightblue" points="140.063,-139.147 149.348,-144.25 145.272,-134.471 140.063,-139.147"/>
</g>
<!-- Node3 -->
<g id="node5" class="node"><title>Node3</title>
<a xlink:href="_ant_reader_8h.html" target="_top" xlink:title="src/analysis/input\l/ant/AntReader.h">
<polygon fill="white" stroke="black" points="149.5,-73 149.5,-107 242.5,-107 242.5,-73 149.5,-73"/>
<text text-anchor="start" x="157.5" y="-94" font-family="Helvetica,sans-Serif" font-size="10.00">src/analysis/input</text>
<text text-anchor="middle" x="196" y="-81" font-family="Helvetica,sans-Serif" font-size="10.00">/ant/AntReader.h</text>
</a>
</g>
<!-- Node1&#45;&gt;Node3 -->
<g id="edge4" class="edge"><title>Node1&#45;&gt;Node3</title>
<path fill="none" stroke="midnightblue" d="M170.059,-135.572C175.21,-126.523 181.285,-115.851 186.261,-107.11"/>
<polygon fill="midnightblue" stroke="midnightblue" points="167.015,-133.844 165.11,-144.267 173.099,-137.307 167.015,-133.844"/>
</g>
<!-- Node4 -->
<g id="node8" class="node"><title>Node4</title>
<a xlink:href="_ant_reader_8cc.html" target="_top" xlink:title="src/analysis/input\l/ant/AntReader.cc">
<polygon fill="white" stroke="black" points="90,-1 90,-35 186,-35 186,-1 90,-1"/>
<text text-anchor="start" x="98" y="-22" font-family="Helvetica,sans-Serif" font-size="10.00">src/analysis/input</text>
<text text-anchor="middle" x="138" y="-9" font-family="Helvetica,sans-Serif" font-size="10.00">/ant/AntReader.cc</text>
</a>
</g>
<!-- Node1&#45;&gt;Node4 -->
<g id="edge14" class="edge"><title>Node1&#45;&gt;Node4</title>
<path fill="none" stroke="midnightblue" d="M149.676,-135.053C146.294,-126.855 142.851,-117.153 141,-108 135.949,-83.0227 136.114,-53.3655 136.9,-35.114"/>
<polygon fill="midnightblue" stroke="midnightblue" points="146.586,-136.722 153.805,-144.477 152.998,-133.913 146.586,-136.722"/>
</g>
<!-- Node7 -->
<g id="node15" class="node"><title>Node7</title>
<a xlink:href="_unpacker_writer_8cc.html" target="_top" xlink:title="src/tree/UnpackerWriter.cc">
<polygon fill="white" stroke="black" points="260,-79.5 260,-100.5 394,-100.5 394,-79.5 260,-79.5"/>
<text text-anchor="middle" x="327" y="-87.5" font-family="Helvetica,sans-Serif" font-size="10.00">src/tree/UnpackerWriter.cc</text>
</a>
</g>
<!-- Node1&#45;&gt;Node7 -->
<g id="edge16" class="edge"><title>Node1&#45;&gt;Node7</title>
<path fill="none" stroke="midnightblue" d="M196.042,-140.668C227.343,-128.558 271.46,-111.489 299.646,-100.584"/>
<polygon fill="midnightblue" stroke="midnightblue" points="194.429,-137.539 186.366,-144.412 196.955,-144.068 194.429,-137.539"/>
</g>
<!-- Node3&#45;&gt;Node2 -->
<g id="edge6" class="edge"><title>Node3&#45;&gt;Node2</title>
<path fill="none" stroke="midnightblue" d="M148.847,-68.7812C119.555,-55.5999 83.1537,-39.2192 59.7512,-28.688"/>
<polygon fill="midnightblue" stroke="midnightblue" points="147.527,-72.025 158.082,-72.937 150.399,-65.6416 147.527,-72.025"/>
</g>
<!-- Node3&#45;&gt;Node4 -->
<g id="edge8" class="edge"><title>Node3&#45;&gt;Node4</title>
<path fill="none" stroke="midnightblue" d="M175.93,-65.0858C168.059,-55.3151 159.216,-44.3372 152.049,-35.4407"/>
<polygon fill="midnightblue" stroke="midnightblue" points="173.256,-67.3451 182.255,-72.937 178.707,-62.9538 173.256,-67.3451"/>
</g>
<!-- Node5 -->
<g id="node10" class="node"><title>Node5</title>
<a xlink:href="_test_ant_reader_8cc.html" target="_top" xlink:title="test/analysis/TestAntReader.cc">
<polygon fill="white" stroke="black" points="203.5,-7.5 203.5,-28.5 358.5,-28.5 358.5,-7.5 203.5,-7.5"/>
<text text-anchor="middle" x="281" y="-15.5" font-family="Helvetica,sans-Serif" font-size="10.00">test/analysis/TestAntReader.cc</text>
</a>
</g>
<!-- Node3&#45;&gt;Node5 -->
<g id="edge10" class="edge"><title>Node3&#45;&gt;Node5</title>
<path fill="none" stroke="midnightblue" d="M224.126,-66.1755C239.094,-53.4972 256.757,-38.5353 268.382,-28.688"/>
<polygon fill="midnightblue" stroke="midnightblue" points="221.512,-63.8029 216.144,-72.937 226.037,-69.1442 221.512,-63.8029"/>
</g>
<!-- Node6 -->
<g id="node12" class="node"><title>Node6</title>
<a xlink:href="_test_physics_manager_8cc.html" target="_top" xlink:title="test/analysis/TestPhysics\lManager.cc">
<polygon fill="white" stroke="black" points="376,-1 376,-35 506,-35 506,-1 376,-1"/>
<text text-anchor="start" x="384" y="-22" font-family="Helvetica,sans-Serif" font-size="10.00">test/analysis/TestPhysics</text>
<text text-anchor="middle" x="441" y="-9" font-family="Helvetica,sans-Serif" font-size="10.00">Manager.cc</text>
</a>
</g>
<!-- Node3&#45;&gt;Node6 -->
<g id="edge12" class="edge"><title>Node3&#45;&gt;Node6</title>
<path fill="none" stroke="midnightblue" d="M252.537,-71.5753C299.628,-57.2729 343.989,-44.6883 378.78,-35.0178"/>
<polygon fill="midnightblue" stroke="midnightblue" points="251.312,-68.2899 242.768,-74.5554 253.354,-74.9853 251.312,-68.2899"/>
</g>
</g>
</svg>
