<?xml version="1.0" encoding="UTF-8" standalone="no"?>
<!DOCTYPE svg PUBLIC "-//W3C//DTD SVG 1.1//EN"
 "http://www.w3.org/Graphics/SVG/1.1/DTD/svg11.dtd">
<!-- Generated by graphviz version 2.26.3 (20100126.1600)
 -->
<!-- Title: src/reconstruct/UpdateableManager.cc Pages: 1 -->
<svg width="1540pt" height="334pt"
 viewBox="0.00 0.00 1539.61 334.00" xmlns="http://www.w3.org/2000/svg" xmlns:xlink="http://www.w3.org/1999/xlink">
<g id="graph1" class="graph" transform="scale(1 1) rotate(0) translate(4 330)">
<title>src/reconstruct/UpdateableManager.cc</title>
<polygon fill="white" stroke="white" points="-4,5 -4,-330 1536.61,-330 1536.61,5 -4,5"/>
<!-- Node1 -->
<g id="node1" class="node"><title>Node1</title>
<polygon fill="#bfbfbf" stroke="black" points="974.607,-291 974.607,-325 1108.61,-325 1108.61,-291 974.607,-291"/>
<text text-anchor="start" x="982.607" y="-312" font-family="Helvetica,sans-Serif" font-size="10.00">src/reconstruct/Updateable</text>
<text text-anchor="middle" x="1041.61" y="-299" font-family="Helvetica,sans-Serif" font-size="10.00">Manager.cc</text>
</g>
<!-- Node2 -->
<g id="node3" class="node"><title>Node2</title>
<a xlink:href="_updateable_manager_8h.html" target="_top" xlink:title="UpdateableManager.h">
<polygon fill="white" stroke="black" points="357.607,-232.5 357.607,-253.5 469.607,-253.5 469.607,-232.5 357.607,-232.5"/>
<text text-anchor="middle" x="413.607" y="-240.5" font-family="Helvetica,sans-Serif" font-size="10.00">UpdateableManager.h</text>
</a>
</g>
<!-- Node1&#45;&gt;Node2 -->
<g id="edge2" class="edge"><title>Node1&#45;&gt;Node2</title>
<path fill="none" stroke="midnightblue" d="M974.467,-302.799C869.516,-294.376 660.301,-276.413 483.607,-254 482.337,-253.839 481.054,-253.673 479.763,-253.502"/>
<polygon fill="midnightblue" stroke="midnightblue" points="480.113,-250.017 469.729,-252.12 479.158,-256.952 480.113,-250.017"/>
</g>
<!-- Node20 -->
<g id="node40" class="node"><title>Node20</title>
<polygon fill="white" stroke="#bfbfbf" points="534.107,-58.5 534.107,-79.5 563.107,-79.5 563.107,-58.5 534.107,-58.5"/>
<text text-anchor="middle" x="548.607" y="-66.5" font-family="Helvetica,sans-Serif" font-size="10.00">list</text>
</g>
<!-- Node1&#45;&gt;Node20 -->
<g id="edge102" class="edge"><title>Node1&#45;&gt;Node20</title>
<path fill="none" stroke="midnightblue" d="M974.358,-296.607C844.886,-273.112 569.111,-214.968 516.607,-138 505.783,-122.133 517.59,-102.022 529.804,-87.6115"/>
<polygon fill="midnightblue" stroke="midnightblue" points="532.721,-89.6073 536.875,-79.8607 527.55,-84.8894 532.721,-89.6073"/>
</g>
<!-- Node21 -->
<g id="node42" class="node"><title>Node21</title>
<polygon fill="white" stroke="#bfbfbf" points="1201.61,-58.5 1201.61,-79.5 1253.61,-79.5 1253.61,-58.5 1201.61,-58.5"/>
<text text-anchor="middle" x="1227.61" y="-66.5" font-family="Helvetica,sans-Serif" font-size="10.00">memory</text>
</g>
<!-- Node1&#45;&gt;Node21 -->
<g id="edge104" class="edge"><title>Node1&#45;&gt;Node21</title>
<path fill="none" stroke="midnightblue" d="M1108.61,-294.839C1195.64,-276.213 1340.08,-239.536 1370.61,-196 1405.78,-145.837 1315.96,-102.009 1263.06,-81.4432"/>
<polygon fill="midnightblue" stroke="midnightblue" points="1264.24,-78.1479 1253.65,-77.8776 1261.76,-84.6938 1264.24,-78.1479"/>
</g>
<!-- Node22 -->
<g id="node44" class="node"><title>Node22</title>
<a xlink:href="_reconstruct__traits_8h.html" target="_top" xlink:title="Reconstruct_traits.h">
<polygon fill="white" stroke="black" points="989.107,-232.5 989.107,-253.5 1094.11,-253.5 1094.11,-232.5 989.107,-232.5"/>
<text text-anchor="middle" x="1041.61" y="-240.5" font-family="Helvetica,sans-Serif" font-size="10.00">Reconstruct_traits.h</text>
</a>
</g>
<!-- Node1&#45;&gt;Node22 -->
<g id="edge44" class="edge"><title>Node1&#45;&gt;Node22</title>
<path fill="none" stroke="midnightblue" d="M1041.61,-290.922C1041.61,-282.67 1041.61,-272.692 1041.61,-263.982"/>
<polygon fill="midnightblue" stroke="midnightblue" points="1045.11,-263.852 1041.61,-253.852 1038.11,-263.852 1045.11,-263.852"/>
</g>
<!-- Node29 -->
<g id="node71" class="node"><title>Node29</title>
<polygon fill="white" stroke="#bfbfbf" points="1327.11,-174.5 1327.11,-195.5 1362.11,-195.5 1362.11,-174.5 1327.11,-174.5"/>
<text text-anchor="middle" x="1344.61" y="-182.5" font-family="Helvetica,sans-Serif" font-size="10.00">map</text>
</g>
<!-- Node1&#45;&gt;Node29 -->
<g id="edge106" class="edge"><title>Node1&#45;&gt;Node29</title>
<path fill="none" stroke="midnightblue" d="M1083.74,-290.897C1146.98,-265.224 1264.67,-217.448 1317.6,-195.964"/>
<polygon fill="midnightblue" stroke="midnightblue" points="1319.04,-199.155 1326.99,-192.15 1316.41,-192.669 1319.04,-199.155"/>
</g>
<!-- Node30 -->
<g id="node74" class="node"><title>Node30</title>
<a xlink:href="_t_data_record_8h.html" target="_top" xlink:title="tree/TDataRecord.h">
<polygon fill="white" stroke="black" points="65.1068,-232.5 65.1068,-253.5 168.107,-253.5 168.107,-232.5 65.1068,-232.5"/>
<text text-anchor="middle" x="116.607" y="-240.5" font-family="Helvetica,sans-Serif" font-size="10.00">tree/TDataRecord.h</text>
</a>
</g>
<!-- Node1&#45;&gt;Node30 -->
<g id="edge88" class="edge"><title>Node1&#45;&gt;Node30</title>
<path fill="none" stroke="midnightblue" d="M974.338,-303.273C801.68,-291.14 344.777,-259.034 178.356,-247.339"/>
<polygon fill="midnightblue" stroke="midnightblue" points="178.51,-243.841 168.29,-246.632 178.02,-250.824 178.51,-243.841"/>
</g>
<!-- Node31 -->
<g id="node80" class="node"><title>Node31</title>
<a xlink:href="_logger_8h.html" target="_top" xlink:title="base/Logger.h">
<polygon fill="white" stroke="black" points="1426.61,-232.5 1426.61,-253.5 1504.61,-253.5 1504.61,-232.5 1426.61,-232.5"/>
<text text-anchor="middle" x="1465.61" y="-240.5" font-family="Helvetica,sans-Serif" font-size="10.00">base/Logger.h</text>
</a>
</g>
<!-- Node1&#45;&gt;Node31 -->
<g id="edge98" class="edge"><title>Node1&#45;&gt;Node31</title>
<path fill="none" stroke="midnightblue" d="M1108.75,-298.549C1181.48,-288.177 1300.92,-270.766 1403.61,-254 1407.73,-253.326 1412.01,-252.608 1416.3,-251.874"/>
<polygon fill="midnightblue" stroke="midnightblue" points="1417.02,-255.302 1426.28,-250.146 1415.83,-248.405 1417.02,-255.302"/>
</g>
<!-- Node3 -->
<g id="node5" class="node"><title>Node3</title>
<a xlink:href="_t_i_d_8h.html" target="_top" xlink:title="tree/TID.h">
<polygon fill="white" stroke="black" points="306.107,-174.5 306.107,-195.5 367.107,-195.5 367.107,-174.5 306.107,-174.5"/>
<text text-anchor="middle" x="336.607" y="-182.5" font-family="Helvetica,sans-Serif" font-size="10.00">tree/TID.h</text>
</a>
</g>
<!-- Node2&#45;&gt;Node3 -->
<g id="edge4" class="edge"><title>Node2&#45;&gt;Node3</title>
<path fill="none" stroke="midnightblue" d="M399.484,-232.362C388.087,-223.777 371.849,-211.546 358.729,-201.664"/>
<polygon fill="midnightblue" stroke="midnightblue" points="360.734,-198.792 350.64,-195.571 356.522,-204.383 360.734,-198.792"/>
</g>
<!-- Node2&#45;&gt;Node20 -->
<g id="edge40" class="edge"><title>Node2&#45;&gt;Node20</title>
<path fill="none" stroke="midnightblue" d="M417.535,-232.496C426.526,-209.452 450.412,-153.525 483.607,-116 495.527,-102.525 511.969,-90.6813 525.334,-82.2536"/>
<polygon fill="midnightblue" stroke="midnightblue" points="527.273,-85.1709 534.001,-76.9868 523.638,-79.1887 527.273,-85.1709"/>
</g>
<!-- Node2&#45;&gt;Node21 -->
<g id="edge42" class="edge"><title>Node2&#45;&gt;Node21</title>
<path fill="none" stroke="midnightblue" d="M469.822,-241.95C614.296,-238.805 990.489,-227.641 1036.61,-196 1069.06,-173.731 1044.82,-141.738 1074.61,-116 1107.52,-87.5543 1157.4,-76.3229 1191.18,-71.8894"/>
<polygon fill="midnightblue" stroke="midnightblue" points="1192.02,-75.3155 1201.54,-70.6756 1191.2,-68.363 1192.02,-75.3155"/>
</g>
<!-- Node4 -->
<g id="node7" class="node"><title>Node4</title>
<polygon fill="white" stroke="#bfbfbf" points="17.6068,-116.5 17.6068,-137.5 73.6068,-137.5 73.6068,-116.5 17.6068,-116.5"/>
<text text-anchor="middle" x="45.6068" y="-124.5" font-family="Helvetica,sans-Serif" font-size="10.00">Rtypes.h</text>
</g>
<!-- Node3&#45;&gt;Node4 -->
<g id="edge6" class="edge"><title>Node3&#45;&gt;Node4</title>
<path fill="none" stroke="midnightblue" d="M305.89,-180.395C259.689,-173.235 169.423,-158.346 83.6941,-138.085"/>
<polygon fill="midnightblue" stroke="midnightblue" points="84.3451,-134.642 73.8052,-135.719 82.716,-141.45 84.3451,-134.642"/>
</g>
<!-- Node5 -->
<g id="node9" class="node"><title>Node5</title>
<a xlink:href="printable_8h.html" target="_top" xlink:title="base/printable.h">
<polygon fill="white" stroke="black" points="627.607,-116.5 627.607,-137.5 713.607,-137.5 713.607,-116.5 627.607,-116.5"/>
<text text-anchor="middle" x="670.607" y="-124.5" font-family="Helvetica,sans-Serif" font-size="10.00">base/printable.h</text>
</a>
</g>
<!-- Node3&#45;&gt;Node5 -->
<g id="edge8" class="edge"><title>Node3&#45;&gt;Node5</title>
<path fill="none" stroke="midnightblue" d="M367.133,-179.699C424.001,-169.824 546.787,-148.502 617.51,-136.22"/>
<polygon fill="midnightblue" stroke="midnightblue" points="618.299,-139.636 627.553,-134.476 617.102,-132.739 618.299,-139.636"/>
</g>
<!-- Node8 -->
<g id="node15" class="node"><title>Node8</title>
<a xlink:href="time_8h.html" target="_top" xlink:title="base/std_ext/time.h">
<polygon fill="white" stroke="black" points="197.107,-116.5 197.107,-137.5 300.107,-137.5 300.107,-116.5 197.107,-116.5"/>
<text text-anchor="middle" x="248.607" y="-124.5" font-family="Helvetica,sans-Serif" font-size="10.00">base/std_ext/time.h</text>
</a>
</g>
<!-- Node3&#45;&gt;Node8 -->
<g id="edge14" class="edge"><title>Node3&#45;&gt;Node8</title>
<path fill="none" stroke="midnightblue" d="M320.466,-174.362C307.193,-165.614 288.174,-153.079 273.037,-143.101"/>
<polygon fill="midnightblue" stroke="midnightblue" points="274.921,-140.151 264.645,-137.571 271.069,-145.996 274.921,-140.151"/>
</g>
<!-- Node14 -->
<g id="node27" class="node"><title>Node14</title>
<polygon fill="white" stroke="#bfbfbf" points="149.107,-58.5 149.107,-79.5 190.107,-79.5 190.107,-58.5 149.107,-58.5"/>
<text text-anchor="middle" x="169.607" y="-66.5" font-family="Helvetica,sans-Serif" font-size="10.00">ctime</text>
</g>
<!-- Node3&#45;&gt;Node14 -->
<g id="edge38" class="edge"><title>Node3&#45;&gt;Node14</title>
<path fill="none" stroke="midnightblue" d="M305.785,-178.825C267.396,-170.541 204.867,-154.903 188.607,-138 176.2,-125.102 171.739,-104.874 170.211,-89.6482"/>
<polygon fill="midnightblue" stroke="midnightblue" points="173.7,-89.3675 169.545,-79.6217 166.716,-89.8318 173.7,-89.3675"/>
</g>
<!-- Node15 -->
<g id="node29" class="node"><title>Node15</title>
<polygon fill="white" stroke="#bfbfbf" points="851.607,-116.5 851.607,-137.5 913.607,-137.5 913.607,-116.5 851.607,-116.5"/>
<text text-anchor="middle" x="882.607" y="-124.5" font-family="Helvetica,sans-Serif" font-size="10.00">type_traits</text>
</g>
<!-- Node3&#45;&gt;Node15 -->
<g id="edge28" class="edge"><title>Node3&#45;&gt;Node15</title>
<path fill="none" stroke="midnightblue" d="M367.377,-184.024C445.317,-181.152 656.853,-170.877 841.405,-137.962"/>
<polygon fill="midnightblue" stroke="midnightblue" points="842.068,-141.399 851.284,-136.174 840.821,-134.511 842.068,-141.399"/>
</g>
<!-- Node16 -->
<g id="node31" class="node"><title>Node16</title>
<polygon fill="white" stroke="#bfbfbf" points="317.607,-116.5 317.607,-137.5 355.607,-137.5 355.607,-116.5 317.607,-116.5"/>
<text text-anchor="middle" x="336.607" y="-124.5" font-family="Helvetica,sans-Serif" font-size="10.00">tuple</text>
</g>
<!-- Node3&#45;&gt;Node16 -->
<g id="edge30" class="edge"><title>Node3&#45;&gt;Node16</title>
<path fill="none" stroke="midnightblue" d="M336.607,-174.362C336.607,-166.922 336.607,-156.743 336.607,-147.728"/>
<polygon fill="midnightblue" stroke="midnightblue" points="340.107,-147.571 336.607,-137.571 333.107,-147.571 340.107,-147.571"/>
</g>
<!-- Node17 -->
<g id="node33" class="node"><title>Node17</title>
<polygon fill="white" stroke="#bfbfbf" points="525.607,-116.5 525.607,-137.5 571.607,-137.5 571.607,-116.5 525.607,-116.5"/>
<text text-anchor="middle" x="548.607" y="-124.5" font-family="Helvetica,sans-Serif" font-size="10.00">cstdint</text>
</g>
<!-- Node3&#45;&gt;Node17 -->
<g id="edge32" class="edge"><title>Node3&#45;&gt;Node17</title>
<path fill="none" stroke="midnightblue" d="M367.433,-176.566C407.028,-165.734 475.453,-147.014 515.925,-135.941"/>
<polygon fill="midnightblue" stroke="midnightblue" points="516.855,-139.315 525.577,-133.301 515.008,-132.564 516.855,-139.315"/>
</g>
<!-- Node18 -->
<g id="node35" class="node"><title>Node18</title>
<polygon fill="white" stroke="#bfbfbf" points="373.107,-116.5 373.107,-137.5 432.107,-137.5 432.107,-116.5 373.107,-116.5"/>
<text text-anchor="middle" x="402.607" y="-124.5" font-family="Helvetica,sans-Serif" font-size="10.00">stdexcept</text>
</g>
<!-- Node3&#45;&gt;Node18 -->
<g id="edge34" class="edge"><title>Node3&#45;&gt;Node18</title>
<path fill="none" stroke="midnightblue" d="M348.712,-174.362C358.295,-165.941 371.871,-154.011 382.999,-144.231"/>
<polygon fill="midnightblue" stroke="midnightblue" points="385.377,-146.801 390.578,-137.571 380.756,-141.543 385.377,-146.801"/>
</g>
<!-- Node19 -->
<g id="node37" class="node"><title>Node19</title>
<polygon fill="white" stroke="#bfbfbf" points="91.6068,-116.5 91.6068,-137.5 141.607,-137.5 141.607,-116.5 91.6068,-116.5"/>
<text text-anchor="middle" x="116.607" y="-124.5" font-family="Helvetica,sans-Serif" font-size="10.00">iomanip</text>
</g>
<!-- Node3&#45;&gt;Node19 -->
<g id="edge36" class="edge"><title>Node3&#45;&gt;Node19</title>
<path fill="none" stroke="midnightblue" d="M305.81,-177.211C269.751,-168.044 208.253,-152.258 155.607,-138 154.346,-137.659 153.064,-137.309 151.769,-136.954"/>
<polygon fill="midnightblue" stroke="midnightblue" points="152.332,-133.478 141.761,-134.178 150.461,-140.224 152.332,-133.478"/>
</g>
<!-- Node6 -->
<g id="node11" class="node"><title>Node6</title>
<polygon fill="white" stroke="#bfbfbf" points="919.607,-58.5 919.607,-79.5 963.607,-79.5 963.607,-58.5 919.607,-58.5"/>
<text text-anchor="middle" x="941.607" y="-66.5" font-family="Helvetica,sans-Serif" font-size="10.00">vector</text>
</g>
<!-- Node5&#45;&gt;Node6 -->
<g id="edge10" class="edge"><title>Node5&#45;&gt;Node6</title>
<path fill="none" stroke="midnightblue" d="M713.847,-117.746C768.421,-106.066 861.021,-86.2472 909.633,-75.8431"/>
<polygon fill="midnightblue" stroke="midnightblue" points="910.545,-79.2272 919.591,-73.7118 909.08,-72.3822 910.545,-79.2272"/>
</g>
<!-- Node7 -->
<g id="node13" class="node"><title>Node7</title>
<polygon fill="white" stroke="#bfbfbf" points="644.607,-58.5 644.607,-79.5 696.607,-79.5 696.607,-58.5 644.607,-58.5"/>
<text text-anchor="middle" x="670.607" y="-66.5" font-family="Helvetica,sans-Serif" font-size="10.00">ostream</text>
</g>
<!-- Node5&#45;&gt;Node7 -->
<g id="edge12" class="edge"><title>Node5&#45;&gt;Node7</title>
<path fill="none" stroke="midnightblue" d="M670.607,-116.362C670.607,-108.922 670.607,-98.7427 670.607,-89.7276"/>
<polygon fill="midnightblue" stroke="midnightblue" points="674.107,-89.5706 670.607,-79.5707 667.107,-89.5707 674.107,-89.5706"/>
</g>
<!-- Node9 -->
<g id="node17" class="node"><title>Node9</title>
<a xlink:href="string_8h.html" target="_top" xlink:title="base/std_ext/string.h">
<polygon fill="white" stroke="black" points="374.607,-58.5 374.607,-79.5 482.607,-79.5 482.607,-58.5 374.607,-58.5"/>
<text text-anchor="middle" x="428.607" y="-66.5" font-family="Helvetica,sans-Serif" font-size="10.00">base/std_ext/string.h</text>
</a>
</g>
<!-- Node8&#45;&gt;Node9 -->
<g id="edge16" class="edge"><title>Node8&#45;&gt;Node9</title>
<path fill="none" stroke="midnightblue" d="M281.203,-116.497C310.675,-107 354.242,-92.9619 386.373,-82.6087"/>
<polygon fill="midnightblue" stroke="midnightblue" points="387.504,-85.9214 395.949,-79.5231 385.358,-79.2587 387.504,-85.9214"/>
</g>
<!-- Node13 -->
<g id="node25" class="node"><title>Node13</title>
<polygon fill="white" stroke="#bfbfbf" points="225.607,-58.5 225.607,-79.5 271.607,-79.5 271.607,-58.5 225.607,-58.5"/>
<text text-anchor="middle" x="248.607" y="-66.5" font-family="Helvetica,sans-Serif" font-size="10.00">cstring</text>
</g>
<!-- Node8&#45;&gt;Node13 -->
<g id="edge24" class="edge"><title>Node8&#45;&gt;Node13</title>
<path fill="none" stroke="midnightblue" d="M248.607,-116.362C248.607,-108.922 248.607,-98.7427 248.607,-89.7276"/>
<polygon fill="midnightblue" stroke="midnightblue" points="252.107,-89.5706 248.607,-79.5707 245.107,-89.5707 252.107,-89.5706"/>
</g>
<!-- Node8&#45;&gt;Node14 -->
<g id="edge26" class="edge"><title>Node8&#45;&gt;Node14</title>
<path fill="none" stroke="midnightblue" d="M234.117,-116.362C222.424,-107.777 205.764,-95.5459 192.304,-85.6636"/>
<polygon fill="midnightblue" stroke="midnightblue" points="194.137,-82.6675 184.005,-79.5707 189.994,-88.31 194.137,-82.6675"/>
</g>
<!-- Node10 -->
<g id="node19" class="node"><title>Node10</title>
<polygon fill="white" stroke="#bfbfbf" points="633.107,-0.5 633.107,-21.5 674.107,-21.5 674.107,-0.5 633.107,-0.5"/>
<text text-anchor="middle" x="653.607" y="-8.5" font-family="Helvetica,sans-Serif" font-size="10.00">string</text>
</g>
<!-- Node9&#45;&gt;Node10 -->
<g id="edge18" class="edge"><title>Node9&#45;&gt;Node10</title>
<path fill="none" stroke="midnightblue" d="M469.353,-58.4966C513.644,-47.0793 583.402,-29.0973 623.167,-18.8468"/>
<polygon fill="midnightblue" stroke="midnightblue" points="624.259,-22.1797 633.069,-16.2942 622.512,-15.4013 624.259,-22.1797"/>
</g>
<!-- Node11 -->
<g id="node21" class="node"><title>Node11</title>
<polygon fill="white" stroke="#bfbfbf" points="366.607,-0.5 366.607,-21.5 418.607,-21.5 418.607,-0.5 366.607,-0.5"/>
<text text-anchor="middle" x="392.607" y="-8.5" font-family="Helvetica,sans-Serif" font-size="10.00">sstream</text>
</g>
<!-- Node9&#45;&gt;Node11 -->
<g id="edge20" class="edge"><title>Node9&#45;&gt;Node11</title>
<path fill="none" stroke="midnightblue" d="M422.004,-58.3619C417.132,-50.5131 410.368,-39.6159 404.557,-30.2527"/>
<polygon fill="midnightblue" stroke="midnightblue" points="407.415,-28.2213 399.168,-21.5707 401.468,-31.9129 407.415,-28.2213"/>
</g>
<!-- Node12 -->
<g id="node23" class="node"><title>Node12</title>
<polygon fill="white" stroke="#bfbfbf" points="436.607,-0.5 436.607,-21.5 492.607,-21.5 492.607,-0.5 436.607,-0.5"/>
<text text-anchor="middle" x="464.607" y="-8.5" font-family="Helvetica,sans-Serif" font-size="10.00">algorithm</text>
</g>
<!-- Node9&#45;&gt;Node12 -->
<g id="edge22" class="edge"><title>Node9&#45;&gt;Node12</title>
<path fill="none" stroke="midnightblue" d="M435.21,-58.3619C440.081,-50.5131 446.845,-39.6159 452.657,-30.2527"/>
<polygon fill="midnightblue" stroke="midnightblue" points="455.746,-31.9129 458.046,-21.5707 449.798,-28.2213 455.746,-31.9129"/>
</g>
<!-- Node22&#45;&gt;Node20 -->
<g id="edge86" class="edge"><title>Node22&#45;&gt;Node20</title>
<path fill="none" stroke="midnightblue" d="M988.904,-237.951C909.918,-229.953 764.848,-213.476 715.607,-196 668.27,-179.2 658.333,-168.739 618.607,-138 598.566,-122.492 578.221,-101.758 564.669,-87.0792"/>
<polygon fill="midnightblue" stroke="midnightblue" points="567.201,-84.6618 557.883,-79.6188 562.023,-89.3717 567.201,-84.6618"/>
</g>
<!-- Node22&#45;&gt;Node21 -->
<g id="edge82" class="edge"><title>Node22&#45;&gt;Node21</title>
<path fill="none" stroke="midnightblue" d="M1094.18,-237.371C1135.68,-231.361 1194.13,-219.342 1240.61,-196 1276.41,-178.019 1292.69,-174.316 1309.61,-138 1321.55,-112.352 1290.37,-92.8275 1263.08,-81.2016"/>
<polygon fill="midnightblue" stroke="midnightblue" points="1264.26,-77.9006 1253.67,-77.4217 1261.65,-84.3964 1264.26,-77.9006"/>
</g>
<!-- Node23 -->
<g id="node46" class="node"><title>Node23</title>
<a xlink:href="_detector__t_8h.html" target="_top" xlink:title="base/Detector_t.h">
<polygon fill="white" stroke="black" points="724.107,-174.5 724.107,-195.5 819.107,-195.5 819.107,-174.5 724.107,-174.5"/>
<text text-anchor="middle" x="771.607" y="-182.5" font-family="Helvetica,sans-Serif" font-size="10.00">base/Detector_t.h</text>
</a>
</g>
<!-- Node22&#45;&gt;Node23 -->
<g id="edge46" class="edge"><title>Node22&#45;&gt;Node23</title>
<path fill="none" stroke="midnightblue" d="M992.712,-232.497C946.745,-222.622 877.918,-207.837 829.287,-197.391"/>
<polygon fill="midnightblue" stroke="midnightblue" points="829.744,-193.909 819.232,-195.231 828.274,-200.753 829.744,-193.909"/>
</g>
<!-- Node25 -->
<g id="node56" class="node"><title>Node25</title>
<a xlink:href="_memory_pool_8h.html" target="_top" xlink:title="tree/MemoryPool.h">
<polygon fill="white" stroke="black" points="1133.11,-174.5 1133.11,-195.5 1232.11,-195.5 1232.11,-174.5 1133.11,-174.5"/>
<text text-anchor="middle" x="1182.61" y="-182.5" font-family="Helvetica,sans-Serif" font-size="10.00">tree/MemoryPool.h</text>
</a>
</g>
<!-- Node22&#45;&gt;Node25 -->
<g id="edge62" class="edge"><title>Node22&#45;&gt;Node25</title>
<path fill="none" stroke="midnightblue" d="M1067.14,-232.497C1089.56,-223.275 1122.39,-209.769 1147.32,-199.515"/>
<polygon fill="midnightblue" stroke="midnightblue" points="1148.87,-202.662 1156.79,-195.621 1146.21,-196.189 1148.87,-202.662"/>
</g>
<!-- Node28 -->
<g id="node65" class="node"><title>Node28</title>
<a xlink:href="mapped__vectors_8h.html" target="_top" xlink:title="base/mapped_vectors.h">
<polygon fill="white" stroke="black" points="907.107,-174.5 907.107,-195.5 1028.11,-195.5 1028.11,-174.5 907.107,-174.5"/>
<text text-anchor="middle" x="967.607" y="-182.5" font-family="Helvetica,sans-Serif" font-size="10.00">base/mapped_vectors.h</text>
</a>
</g>
<!-- Node22&#45;&gt;Node28 -->
<g id="edge74" class="edge"><title>Node22&#45;&gt;Node28</title>
<path fill="none" stroke="midnightblue" d="M1028.03,-232.362C1017.19,-223.859 1001.77,-211.779 989.228,-201.947"/>
<polygon fill="midnightblue" stroke="midnightblue" points="991.123,-198.985 981.094,-195.571 986.805,-204.494 991.123,-198.985"/>
</g>
<!-- Node22&#45;&gt;Node29 -->
<g id="edge84" class="edge"><title>Node22&#45;&gt;Node29</title>
<path fill="none" stroke="midnightblue" d="M1094.32,-236.596C1149.53,-229.26 1238.5,-215.661 1313.61,-196 1314.85,-195.675 1316.11,-195.321 1317.39,-194.948"/>
<polygon fill="midnightblue" stroke="midnightblue" points="1318.63,-198.223 1327.06,-191.808 1316.47,-191.565 1318.63,-198.223"/>
</g>
<!-- Node23&#45;&gt;Node5 -->
<g id="edge48" class="edge"><title>Node23&#45;&gt;Node5</title>
<path fill="none" stroke="midnightblue" d="M753.082,-174.362C737.706,-165.532 715.611,-152.844 698.16,-142.822"/>
<polygon fill="midnightblue" stroke="midnightblue" points="699.429,-139.515 689.014,-137.571 695.943,-145.586 699.429,-139.515"/>
</g>
<!-- Node23&#45;&gt;Node6 -->
<g id="edge60" class="edge"><title>Node23&#45;&gt;Node6</title>
<path fill="none" stroke="midnightblue" d="M819.319,-175.371C857.917,-166.664 908.146,-152.947 922.607,-138 935.051,-125.138 939.507,-104.905 941.024,-89.6687"/>
<polygon fill="midnightblue" stroke="midnightblue" points="944.52,-89.8412 941.681,-79.6337 937.535,-89.3834 944.52,-89.8412"/>
</g>
<!-- Node23&#45;&gt;Node10 -->
<g id="edge56" class="edge"><title>Node23&#45;&gt;Node10</title>
<path fill="none" stroke="midnightblue" d="M767.609,-174.393C758.714,-151.617 735.677,-96.9405 705.607,-58 697.123,-47.0141 685.877,-36.4874 676.013,-28.1917"/>
<polygon fill="midnightblue" stroke="midnightblue" points="678.109,-25.385 668.144,-21.7868 673.69,-30.814 678.109,-25.385"/>
</g>
<!-- Node23&#45;&gt;Node15 -->
<g id="edge58" class="edge"><title>Node23&#45;&gt;Node15</title>
<path fill="none" stroke="midnightblue" d="M791.708,-174.497C808.889,-165.519 833.837,-152.484 853.252,-142.339"/>
<polygon fill="midnightblue" stroke="midnightblue" points="855.038,-145.354 862.28,-137.621 851.796,-139.15 855.038,-145.354"/>
</g>
<!-- Node23&#45;&gt;Node17 -->
<g id="edge52" class="edge"><title>Node23&#45;&gt;Node17</title>
<path fill="none" stroke="midnightblue" d="M731.223,-174.497C688.271,-163.325 621.155,-145.869 581.365,-135.52"/>
<polygon fill="midnightblue" stroke="midnightblue" points="582.188,-132.118 571.629,-132.988 580.426,-138.892 582.188,-132.118"/>
</g>
<!-- Node23&#45;&gt;Node18 -->
<g id="edge54" class="edge"><title>Node23&#45;&gt;Node18</title>
<path fill="none" stroke="midnightblue" d="M723.745,-177.477C650.108,-165.903 510.407,-143.944 442.145,-133.215"/>
<polygon fill="midnightblue" stroke="midnightblue" points="442.638,-129.749 432.216,-131.654 441.551,-136.664 442.638,-129.749"/>
</g>
<!-- Node24 -->
<g id="node49" class="node"><title>Node24</title>
<polygon fill="white" stroke="#bfbfbf" points="769.107,-116.5 769.107,-137.5 834.107,-137.5 834.107,-116.5 769.107,-116.5"/>
<text text-anchor="middle" x="801.607" y="-124.5" font-family="Helvetica,sans-Serif" font-size="10.00">TVector3.h</text>
</g>
<!-- Node23&#45;&gt;Node24 -->
<g id="edge50" class="edge"><title>Node23&#45;&gt;Node24</title>
<path fill="none" stroke="midnightblue" d="M777.109,-174.362C781.127,-166.595 786.688,-155.843 791.497,-146.546"/>
<polygon fill="midnightblue" stroke="midnightblue" points="794.654,-148.061 796.139,-137.571 788.436,-144.845 794.654,-148.061"/>
</g>
<!-- Node25&#45;&gt;Node21 -->
<g id="edge70" class="edge"><title>Node25&#45;&gt;Node21</title>
<path fill="none" stroke="midnightblue" d="M1232.28,-177.061C1255.32,-170.619 1280.66,-158.985 1294.61,-138 1308.32,-117.377 1283.65,-97.4908 1260.48,-84.4092"/>
<polygon fill="midnightblue" stroke="midnightblue" points="1261.89,-81.1957 1251.42,-79.5736 1258.59,-87.3708 1261.89,-81.1957"/>
</g>
<!-- Node26 -->
<g id="node58" class="node"><title>Node26</title>
<a xlink:href="memory_8h.html" target="_top" xlink:title="base/std_ext/memory.h">
<polygon fill="white" stroke="black" points="1083.11,-116.5 1083.11,-137.5 1202.11,-137.5 1202.11,-116.5 1083.11,-116.5"/>
<text text-anchor="middle" x="1142.61" y="-124.5" font-family="Helvetica,sans-Serif" font-size="10.00">base/std_ext/memory.h</text>
</a>
</g>
<!-- Node25&#45;&gt;Node26 -->
<g id="edge64" class="edge"><title>Node25&#45;&gt;Node26</title>
<path fill="none" stroke="midnightblue" d="M1175.27,-174.362C1169.8,-166.431 1162.19,-155.389 1155.68,-145.961"/>
<polygon fill="midnightblue" stroke="midnightblue" points="1158.46,-143.816 1149.9,-137.571 1152.69,-147.79 1158.46,-143.816"/>
</g>
<!-- Node27 -->
<g id="node63" class="node"><title>Node27</title>
<polygon fill="white" stroke="#bfbfbf" points="1219.11,-116.5 1219.11,-137.5 1286.11,-137.5 1286.11,-116.5 1219.11,-116.5"/>
<text text-anchor="middle" x="1252.61" y="-124.5" font-family="Helvetica,sans-Serif" font-size="10.00">forward_list</text>
</g>
<!-- Node25&#45;&gt;Node27 -->
<g id="edge72" class="edge"><title>Node25&#45;&gt;Node27</title>
<path fill="none" stroke="midnightblue" d="M1195.45,-174.362C1205.61,-165.941 1220.01,-154.011 1231.81,-144.231"/>
<polygon fill="midnightblue" stroke="midnightblue" points="1234.38,-146.646 1239.85,-137.571 1229.92,-141.256 1234.38,-146.646"/>
</g>
<!-- Node26&#45;&gt;Node20 -->
<g id="edge68" class="edge"><title>Node26&#45;&gt;Node20</title>
<path fill="none" stroke="midnightblue" d="M1082.83,-122.109C987.953,-114.198 797.073,-97.6868 635.607,-80 614.552,-77.6937 590.687,-74.6453 573.284,-72.3426"/>
<polygon fill="midnightblue" stroke="midnightblue" points="573.742,-68.8728 563.367,-71.0185 572.816,-75.8112 573.742,-68.8728"/>
</g>
<!-- Node26&#45;&gt;Node21 -->
<g id="edge66" class="edge"><title>Node26&#45;&gt;Node21</title>
<path fill="none" stroke="midnightblue" d="M1158.2,-116.362C1170.9,-107.696 1189.05,-95.3126 1203.6,-85.3819"/>
<polygon fill="midnightblue" stroke="midnightblue" points="1205.83,-88.0982 1212.12,-79.5707 1201.88,-82.316 1205.83,-88.0982"/>
</g>
<!-- Node28&#45;&gt;Node6 -->
<g id="edge76" class="edge"><title>Node28&#45;&gt;Node6</title>
<path fill="none" stroke="midnightblue" d="M966.124,-174.164C964.164,-160.508 960.392,-136.359 955.607,-116 953.548,-107.24 950.803,-97.7029 948.289,-89.5227"/>
<polygon fill="midnightblue" stroke="midnightblue" points="951.546,-88.2113 945.195,-79.7306 944.871,-90.3205 951.546,-88.2113"/>
</g>
<!-- Node28&#45;&gt;Node15 -->
<g id="edge80" class="edge"><title>Node28&#45;&gt;Node15</title>
<path fill="none" stroke="midnightblue" d="M952.017,-174.362C939.316,-165.696 921.168,-153.313 906.615,-143.382"/>
<polygon fill="midnightblue" stroke="midnightblue" points="908.331,-140.316 898.098,-137.571 904.386,-146.098 908.331,-140.316"/>
</g>
<!-- Node28&#45;&gt;Node21 -->
<g id="edge78" class="edge"><title>Node28&#45;&gt;Node21</title>
<path fill="none" stroke="midnightblue" d="M975.96,-174.367C988.538,-159.096 1013.84,-131.13 1041.61,-116 1089.46,-89.9224 1152.12,-77.9799 1191.12,-72.7565"/>
<polygon fill="midnightblue" stroke="midnightblue" points="1191.97,-76.1766 1201.46,-71.4552 1191.1,-69.2314 1191.97,-76.1766"/>
</g>
<!-- Node30&#45;&gt;Node3 -->
<g id="edge90" class="edge"><title>Node30&#45;&gt;Node3</title>
<path fill="none" stroke="midnightblue" d="M156.447,-232.497C195.973,-222.076 256.242,-206.187 296.026,-195.699"/>
<polygon fill="midnightblue" stroke="midnightblue" points="297.145,-199.023 305.922,-193.09 295.36,-192.255 297.145,-199.023"/>
</g>
<!-- Node30&#45;&gt;Node4 -->
<g id="edge92" class="edge"><title>Node30&#45;&gt;Node4</title>
<path fill="none" stroke="midnightblue" d="M110.055,-232.295C98.1139,-212.786 72.6532,-171.188 57.553,-146.518"/>
<polygon fill="midnightblue" stroke="midnightblue" points="60.349,-144.381 52.1433,-137.679 54.3785,-148.036 60.349,-144.381"/>
</g>
<!-- Node30&#45;&gt;Node14 -->
<g id="edge96" class="edge"><title>Node30&#45;&gt;Node14</title>
<path fill="none" stroke="midnightblue" d="M95.3659,-232.495C55.1346,-211.207 -25.2512,-161.155 8.60684,-116 24.2271,-95.1678 96.5991,-80.5042 138.805,-73.5575"/>
<polygon fill="midnightblue" stroke="midnightblue" points="139.508,-76.9897 148.832,-71.9586 138.406,-70.077 139.508,-76.9897"/>
</g>
<!-- Node30&#45;&gt;Node19 -->
<g id="edge94" class="edge"><title>Node30&#45;&gt;Node19</title>
<path fill="none" stroke="midnightblue" d="M116.607,-232.295C116.607,-213.131 116.607,-172.654 116.607,-147.843"/>
<polygon fill="midnightblue" stroke="midnightblue" points="120.107,-147.679 116.607,-137.679 113.107,-147.679 120.107,-147.679"/>
</g>
<!-- Node32 -->
<g id="node82" class="node"><title>Node32</title>
<polygon fill="white" stroke="#bfbfbf" points="1417.11,-174.5 1417.11,-195.5 1532.11,-195.5 1532.11,-174.5 1417.11,-174.5"/>
<text text-anchor="middle" x="1474.61" y="-182.5" font-family="Helvetica,sans-Serif" font-size="10.00">detail/easylogging++.h</text>
</g>
<!-- Node31&#45;&gt;Node32 -->
<g id="edge100" class="edge"><title>Node31&#45;&gt;Node32</title>
<path fill="none" stroke="midnightblue" d="M1467.26,-232.362C1468.41,-224.922 1469.99,-214.743 1471.39,-205.728"/>
<polygon fill="midnightblue" stroke="midnightblue" points="1474.89,-205.989 1472.97,-195.571 1467.97,-204.916 1474.89,-205.989"/>
</g>
</g>
</svg>
