<?xml version="1.0" encoding="UTF-8" standalone="no"?>
<!DOCTYPE svg PUBLIC "-//W3C//DTD SVG 1.1//EN"
 "http://www.w3.org/Graphics/SVG/1.1/DTD/svg11.dtd">
<!-- Generated by graphviz version 2.26.3 (20100126.1600)
 -->
<!-- Title: src/reconstruct/UpdateableManager.h Pages: 1 -->
<svg width="701pt" height="276pt"
 viewBox="0.00 0.00 701.00 276.00" xmlns="http://www.w3.org/2000/svg" xmlns:xlink="http://www.w3.org/1999/xlink">
<g id="graph1" class="graph" transform="scale(1 1) rotate(0) translate(4 272)">
<title>src/reconstruct/UpdateableManager.h</title>
<polygon fill="white" stroke="white" points="-4,5 -4,-272 698,-272 698,5 -4,5"/>
<!-- Node1 -->
<g id="node1" class="node"><title>Node1</title>
<polygon fill="#bfbfbf" stroke="black" points="393,-233 393,-267 527,-267 527,-233 393,-233"/>
<text text-anchor="start" x="401" y="-254" font-family="Helvetica,sans-Serif" font-size="10.00">src/reconstruct/Updateable</text>
<text text-anchor="middle" x="460" y="-241" font-family="Helvetica,sans-Serif" font-size="10.00">Manager.h</text>
</g>
<!-- Node2 -->
<g id="node3" class="node"><title>Node2</title>
<a xlink:href="_t_i_d_8h.html" target="_top" xlink:title="tree/TID.h">
<polygon fill="white" stroke="black" points="367.5,-174.5 367.5,-195.5 428.5,-195.5 428.5,-174.5 367.5,-174.5"/>
<text text-anchor="middle" x="398" y="-182.5" font-family="Helvetica,sans-Serif" font-size="10.00">tree/TID.h</text>
</a>
</g>
<!-- Node1&#45;&gt;Node2 -->
<g id="edge2" class="edge"><title>Node1&#45;&gt;Node2</title>
<path fill="none" stroke="midnightblue" d="M443.71,-232.922C434.965,-223.754 424.186,-212.454 415.293,-203.129"/>
<polygon fill="midnightblue" stroke="midnightblue" points="417.786,-200.672 408.351,-195.852 412.721,-205.504 417.786,-200.672"/>
</g>
<!-- Node19 -->
<g id="node38" class="node"><title>Node19</title>
<polygon fill="white" stroke="#bfbfbf" points="445.5,-174.5 445.5,-195.5 474.5,-195.5 474.5,-174.5 445.5,-174.5"/>
<text text-anchor="middle" x="460" y="-182.5" font-family="Helvetica,sans-Serif" font-size="10.00">list</text>
</g>
<!-- Node1&#45;&gt;Node19 -->
<g id="edge38" class="edge"><title>Node1&#45;&gt;Node19</title>
<path fill="none" stroke="midnightblue" d="M460,-232.922C460,-224.67 460,-214.692 460,-205.982"/>
<polygon fill="midnightblue" stroke="midnightblue" points="463.5,-205.852 460,-195.852 456.5,-205.852 463.5,-205.852"/>
</g>
<!-- Node20 -->
<g id="node40" class="node"><title>Node20</title>
<polygon fill="white" stroke="#bfbfbf" points="492,-174.5 492,-195.5 544,-195.5 544,-174.5 492,-174.5"/>
<text text-anchor="middle" x="518" y="-182.5" font-family="Helvetica,sans-Serif" font-size="10.00">memory</text>
</g>
<!-- Node1&#45;&gt;Node20 -->
<g id="edge40" class="edge"><title>Node1&#45;&gt;Node20</title>
<path fill="none" stroke="midnightblue" d="M475.239,-232.922C483.338,-223.845 493.302,-212.679 501.573,-203.41"/>
<polygon fill="midnightblue" stroke="midnightblue" points="504.27,-205.644 508.317,-195.852 499.047,-200.983 504.27,-205.644"/>
</g>
<!-- Node3 -->
<g id="node5" class="node"><title>Node3</title>
<polygon fill="white" stroke="#bfbfbf" points="0,-116.5 0,-137.5 56,-137.5 56,-116.5 0,-116.5"/>
<text text-anchor="middle" x="28" y="-124.5" font-family="Helvetica,sans-Serif" font-size="10.00">Rtypes.h</text>
</g>
<!-- Node2&#45;&gt;Node3 -->
<g id="edge4" class="edge"><title>Node2&#45;&gt;Node3</title>
<path fill="none" stroke="midnightblue" d="M367.428,-182.222C310.071,-176.68 182.337,-162.784 65.9559,-137.964"/>
<polygon fill="midnightblue" stroke="midnightblue" points="66.6836,-134.541 56.1693,-135.845 65.2021,-141.382 66.6836,-134.541"/>
</g>
<!-- Node4 -->
<g id="node7" class="node"><title>Node4</title>
<a xlink:href="printable_8h.html" target="_top" xlink:title="base/printable.h">
<polygon fill="white" stroke="black" points="74,-116.5 74,-137.5 160,-137.5 160,-116.5 74,-116.5"/>
<text text-anchor="middle" x="117" y="-124.5" font-family="Helvetica,sans-Serif" font-size="10.00">base/printable.h</text>
</a>
</g>
<!-- Node2&#45;&gt;Node4 -->
<g id="edge6" class="edge"><title>Node2&#45;&gt;Node4</title>
<path fill="none" stroke="midnightblue" d="M367.393,-178.683C320.159,-168.933 228.871,-150.091 170.539,-138.051"/>
<polygon fill="midnightblue" stroke="midnightblue" points="170.907,-134.553 160.406,-135.959 169.492,-141.408 170.907,-134.553"/>
</g>
<!-- Node7 -->
<g id="node13" class="node"><title>Node7</title>
<a xlink:href="time_8h.html" target="_top" xlink:title="base/std_ext/time.h">
<polygon fill="white" stroke="black" points="208.5,-116.5 208.5,-137.5 311.5,-137.5 311.5,-116.5 208.5,-116.5"/>
<text text-anchor="middle" x="260" y="-124.5" font-family="Helvetica,sans-Serif" font-size="10.00">base/std_ext/time.h</text>
</a>
</g>
<!-- Node2&#45;&gt;Node7 -->
<g id="edge12" class="edge"><title>Node2&#45;&gt;Node7</title>
<path fill="none" stroke="midnightblue" d="M373.009,-174.497C351.067,-165.275 318.934,-151.769 294.536,-141.515"/>
<polygon fill="midnightblue" stroke="midnightblue" points="295.846,-138.269 285.271,-137.621 293.134,-144.722 295.846,-138.269"/>
</g>
<!-- Node13 -->
<g id="node25" class="node"><title>Node13</title>
<polygon fill="white" stroke="#bfbfbf" points="334.5,-58.5 334.5,-79.5 375.5,-79.5 375.5,-58.5 334.5,-58.5"/>
<text text-anchor="middle" x="355" y="-66.5" font-family="Helvetica,sans-Serif" font-size="10.00">ctime</text>
</g>
<!-- Node2&#45;&gt;Node13 -->
<g id="edge36" class="edge"><title>Node2&#45;&gt;Node13</title>
<path fill="none" stroke="midnightblue" d="M385.359,-174.489C375.925,-165.8 363.719,-152.561 358,-138 351.981,-122.677 351.555,-103.943 352.455,-89.8645"/>
<polygon fill="midnightblue" stroke="midnightblue" points="355.957,-90.0021 353.378,-79.7258 348.985,-89.367 355.957,-90.0021"/>
</g>
<!-- Node14 -->
<g id="node27" class="node"><title>Node14</title>
<polygon fill="white" stroke="#bfbfbf" points="367,-116.5 367,-137.5 429,-137.5 429,-116.5 367,-116.5"/>
<text text-anchor="middle" x="398" y="-124.5" font-family="Helvetica,sans-Serif" font-size="10.00">type_traits</text>
</g>
<!-- Node2&#45;&gt;Node14 -->
<g id="edge26" class="edge"><title>Node2&#45;&gt;Node14</title>
<path fill="none" stroke="midnightblue" d="M398,-174.362C398,-166.922 398,-156.743 398,-147.728"/>
<polygon fill="midnightblue" stroke="midnightblue" points="401.5,-147.571 398,-137.571 394.5,-147.571 401.5,-147.571"/>
</g>
<!-- Node15 -->
<g id="node29" class="node"><title>Node15</title>
<polygon fill="white" stroke="#bfbfbf" points="447,-116.5 447,-137.5 485,-137.5 485,-116.5 447,-116.5"/>
<text text-anchor="middle" x="466" y="-124.5" font-family="Helvetica,sans-Serif" font-size="10.00">tuple</text>
</g>
<!-- Node2&#45;&gt;Node15 -->
<g id="edge28" class="edge"><title>Node2&#45;&gt;Node15</title>
<path fill="none" stroke="midnightblue" d="M410.472,-174.362C420.345,-165.941 434.333,-154.011 445.798,-144.231"/>
<polygon fill="midnightblue" stroke="midnightblue" points="448.27,-146.723 453.607,-137.571 443.727,-141.397 448.27,-146.723"/>
</g>
<!-- Node16 -->
<g id="node31" class="node"><title>Node16</title>
<polygon fill="white" stroke="#bfbfbf" points="503,-116.5 503,-137.5 549,-137.5 549,-116.5 503,-116.5"/>
<text text-anchor="middle" x="526" y="-124.5" font-family="Helvetica,sans-Serif" font-size="10.00">cstdint</text>
</g>
<!-- Node2&#45;&gt;Node16 -->
<g id="edge30" class="edge"><title>Node2&#45;&gt;Node16</title>
<path fill="none" stroke="midnightblue" d="M421.18,-174.497C441.478,-165.299 471.178,-151.841 493.786,-141.597"/>
<polygon fill="midnightblue" stroke="midnightblue" points="495.329,-144.741 502.993,-137.425 492.439,-138.365 495.329,-144.741"/>
</g>
<!-- Node17 -->
<g id="node33" class="node"><title>Node17</title>
<polygon fill="white" stroke="#bfbfbf" points="566.5,-116.5 566.5,-137.5 625.5,-137.5 625.5,-116.5 566.5,-116.5"/>
<text text-anchor="middle" x="596" y="-124.5" font-family="Helvetica,sans-Serif" font-size="10.00">stdexcept</text>
</g>
<!-- Node2&#45;&gt;Node17 -->
<g id="edge32" class="edge"><title>Node2&#45;&gt;Node17</title>
<path fill="none" stroke="midnightblue" d="M428.504,-176.065C462.958,-165.972 519.123,-149.52 556.803,-138.482"/>
<polygon fill="midnightblue" stroke="midnightblue" points="557.82,-141.831 566.433,-135.661 555.852,-135.114 557.82,-141.831"/>
</g>
<!-- Node18 -->
<g id="node35" class="node"><title>Node18</title>
<polygon fill="white" stroke="#bfbfbf" points="643,-116.5 643,-137.5 693,-137.5 693,-116.5 643,-116.5"/>
<text text-anchor="middle" x="668" y="-124.5" font-family="Helvetica,sans-Serif" font-size="10.00">iomanip</text>
</g>
<!-- Node2&#45;&gt;Node18 -->
<g id="edge34" class="edge"><title>Node2&#45;&gt;Node18</title>
<path fill="none" stroke="midnightblue" d="M428.586,-176.079C431.422,-175.341 434.259,-174.636 437,-174 520.657,-154.604 545.928,-159.367 633.078,-137.988"/>
<polygon fill="midnightblue" stroke="midnightblue" points="634.004,-141.364 642.857,-135.544 632.306,-134.573 634.004,-141.364"/>
</g>
<!-- Node5 -->
<g id="node9" class="node"><title>Node5</title>
<polygon fill="white" stroke="#bfbfbf" points="13,-58.5 13,-79.5 57,-79.5 57,-58.5 13,-58.5"/>
<text text-anchor="middle" x="35" y="-66.5" font-family="Helvetica,sans-Serif" font-size="10.00">vector</text>
</g>
<!-- Node4&#45;&gt;Node5 -->
<g id="edge8" class="edge"><title>Node4&#45;&gt;Node5</title>
<path fill="none" stroke="midnightblue" d="M101.96,-116.362C89.7075,-107.696 72.2005,-95.3126 58.1606,-85.3819"/>
<polygon fill="midnightblue" stroke="midnightblue" points="60.13,-82.4879 49.9447,-79.5707 56.0877,-88.2028 60.13,-82.4879"/>
</g>
<!-- Node6 -->
<g id="node11" class="node"><title>Node6</title>
<polygon fill="white" stroke="#bfbfbf" points="75,-58.5 75,-79.5 127,-79.5 127,-58.5 75,-58.5"/>
<text text-anchor="middle" x="101" y="-66.5" font-family="Helvetica,sans-Serif" font-size="10.00">ostream</text>
</g>
<!-- Node4&#45;&gt;Node6 -->
<g id="edge10" class="edge"><title>Node4&#45;&gt;Node6</title>
<path fill="none" stroke="midnightblue" d="M114.065,-116.362C111.99,-108.84 109.143,-98.5187 106.636,-89.4308"/>
<polygon fill="midnightblue" stroke="midnightblue" points="109.949,-88.2798 103.916,-79.5707 103.201,-90.1414 109.949,-88.2798"/>
</g>
<!-- Node8 -->
<g id="node15" class="node"><title>Node8</title>
<a xlink:href="string_8h.html" target="_top" xlink:title="base/std_ext/string.h">
<polygon fill="white" stroke="black" points="145,-58.5 145,-79.5 253,-79.5 253,-58.5 145,-58.5"/>
<text text-anchor="middle" x="199" y="-66.5" font-family="Helvetica,sans-Serif" font-size="10.00">base/std_ext/string.h</text>
</a>
</g>
<!-- Node7&#45;&gt;Node8 -->
<g id="edge14" class="edge"><title>Node7&#45;&gt;Node8</title>
<path fill="none" stroke="midnightblue" d="M248.812,-116.362C240.041,-108.023 227.651,-96.2418 217.422,-86.5162"/>
<polygon fill="midnightblue" stroke="midnightblue" points="219.776,-83.9248 210.117,-79.5707 214.953,-88.9978 219.776,-83.9248"/>
</g>
<!-- Node12 -->
<g id="node23" class="node"><title>Node12</title>
<polygon fill="white" stroke="#bfbfbf" points="271,-58.5 271,-79.5 317,-79.5 317,-58.5 271,-58.5"/>
<text text-anchor="middle" x="294" y="-66.5" font-family="Helvetica,sans-Serif" font-size="10.00">cstring</text>
</g>
<!-- Node7&#45;&gt;Node12 -->
<g id="edge22" class="edge"><title>Node7&#45;&gt;Node12</title>
<path fill="none" stroke="midnightblue" d="M266.236,-116.362C270.837,-108.513 277.225,-97.6159 282.714,-88.2527"/>
<polygon fill="midnightblue" stroke="midnightblue" points="285.766,-89.9677 287.803,-79.5707 279.727,-86.4276 285.766,-89.9677"/>
</g>
<!-- Node7&#45;&gt;Node13 -->
<g id="edge24" class="edge"><title>Node7&#45;&gt;Node13</title>
<path fill="none" stroke="midnightblue" d="M277.424,-116.362C291.887,-107.532 312.669,-94.844 329.084,-84.8224"/>
<polygon fill="midnightblue" stroke="midnightblue" points="330.975,-87.7688 337.686,-79.5707 327.327,-81.7943 330.975,-87.7688"/>
</g>
<!-- Node9 -->
<g id="node17" class="node"><title>Node9</title>
<polygon fill="white" stroke="#bfbfbf" points="114.5,-0.5 114.5,-21.5 155.5,-21.5 155.5,-0.5 114.5,-0.5"/>
<text text-anchor="middle" x="135" y="-8.5" font-family="Helvetica,sans-Serif" font-size="10.00">string</text>
</g>
<!-- Node8&#45;&gt;Node9 -->
<g id="edge16" class="edge"><title>Node8&#45;&gt;Node9</title>
<path fill="none" stroke="midnightblue" d="M187.261,-58.3619C178.059,-50.0226 165.06,-38.2418 154.328,-28.5162"/>
<polygon fill="midnightblue" stroke="midnightblue" points="156.424,-25.6924 146.664,-21.5707 151.724,-30.8793 156.424,-25.6924"/>
</g>
<!-- Node10 -->
<g id="node19" class="node"><title>Node10</title>
<polygon fill="white" stroke="#bfbfbf" points="173,-0.5 173,-21.5 225,-21.5 225,-0.5 173,-0.5"/>
<text text-anchor="middle" x="199" y="-8.5" font-family="Helvetica,sans-Serif" font-size="10.00">sstream</text>
</g>
<!-- Node8&#45;&gt;Node10 -->
<g id="edge18" class="edge"><title>Node8&#45;&gt;Node10</title>
<path fill="none" stroke="midnightblue" d="M199,-58.3619C199,-50.9219 199,-40.7427 199,-31.7276"/>
<polygon fill="midnightblue" stroke="midnightblue" points="202.5,-31.5706 199,-21.5707 195.5,-31.5707 202.5,-31.5706"/>
</g>
<!-- Node11 -->
<g id="node21" class="node"><title>Node11</title>
<polygon fill="white" stroke="#bfbfbf" points="243,-0.5 243,-21.5 299,-21.5 299,-0.5 243,-0.5"/>
<text text-anchor="middle" x="271" y="-8.5" font-family="Helvetica,sans-Serif" font-size="10.00">algorithm</text>
</g>
<!-- Node8&#45;&gt;Node11 -->
<g id="edge20" class="edge"><title>Node8&#45;&gt;Node11</title>
<path fill="none" stroke="midnightblue" d="M212.206,-58.3619C222.761,-49.859 237.758,-37.7785 249.963,-27.9466"/>
<polygon fill="midnightblue" stroke="midnightblue" points="252.286,-30.5696 257.878,-21.5707 247.895,-25.1183 252.286,-30.5696"/>
</g>
</g>
</svg>
