<?xml version="1.0" encoding="UTF-8" standalone="no"?>
<!DOCTYPE svg PUBLIC "-//W3C//DTD SVG 1.1//EN"
 "http://www.w3.org/Graphics/SVG/1.1/DTD/svg11.dtd">
<!-- Generated by graphviz version 2.26.3 (20100126.1600)
 -->
<!-- Title: src/base/WrapTFile.h Pages: 1 -->
<svg width="2978pt" height="160pt"
 viewBox="0.00 0.00 2978.00 160.00" xmlns="http://www.w3.org/2000/svg" xmlns:xlink="http://www.w3.org/1999/xlink">
<g id="graph1" class="graph" transform="scale(1 1) rotate(0) translate(4 156)">
<title>src/base/WrapTFile.h</title>
<polygon fill="white" stroke="white" points="-4,5 -4,-156 2975,-156 2975,5 -4,5"/>
<!-- Node1 -->
<g id="node1" class="node"><title>Node1</title>
<polygon fill="#bfbfbf" stroke="black" points="1143,-130.5 1143,-151.5 1253,-151.5 1253,-130.5 1143,-130.5"/>
<text text-anchor="middle" x="1198" y="-138.5" font-family="Helvetica,sans-Serif" font-size="10.00">src/base/WrapTFile.h</text>
</g>
<!-- Node2 -->
<g id="node3" class="node"><title>Node2</title>
<a xlink:href="_ant-chain_8cc.html" target="_top" xlink:title="hadd like tool to concatenate TTrees in ROOT files using TChains. ">
<polygon fill="white" stroke="black" points="0,-65.5 0,-86.5 98,-86.5 98,-65.5 0,-65.5"/>
<text text-anchor="middle" x="49" y="-73.5" font-family="Helvetica,sans-Serif" font-size="10.00">progs/Ant&#45;chain.cc</text>
</a>
</g>
<!-- Node1&#45;&gt;Node2 -->
<g id="edge2" class="edge"><title>Node1&#45;&gt;Node2</title>
<path fill="none" stroke="midnightblue" d="M1132.61,-140.39C928.65,-138.138 305.858,-128.542 107,-94 97.3395,-92.3219 87.0435,-89.4876 77.8486,-86.5585"/>
<polygon fill="midnightblue" stroke="midnightblue" points="1132.83,-143.892 1142.87,-140.501 1132.91,-136.893 1132.83,-143.892"/>
</g>
<!-- Node3 -->
<g id="node5" class="node"><title>Node3</title>
<a xlink:href="_ant-pluto_8cc.html" target="_top" xlink:title="Pluto generator forntend. ">
<polygon fill="white" stroke="black" points="116,-65.5 116,-86.5 212,-86.5 212,-65.5 116,-65.5"/>
<text text-anchor="middle" x="164" y="-73.5" font-family="Helvetica,sans-Serif" font-size="10.00">progs/Ant&#45;pluto.cc</text>
</a>
</g>
<!-- Node1&#45;&gt;Node3 -->
<g id="edge4" class="edge"><title>Node1&#45;&gt;Node3</title>
<path fill="none" stroke="midnightblue" d="M1132.77,-139.836C944.276,-136.157 401.186,-123.249 226,-94 215.719,-92.2834 204.725,-89.4385 194.893,-86.5116"/>
<polygon fill="midnightblue" stroke="midnightblue" points="1132.74,-143.336 1142.81,-140.03 1132.88,-136.337 1132.74,-143.336"/>
</g>
<!-- Node4 -->
<g id="node7" class="node"><title>Node4</title>
<a xlink:href="_ant_8cc.html" target="_top" xlink:title="Main Ant executable. ">
<polygon fill="white" stroke="black" points="173,-0.5 173,-21.5 245,-21.5 245,-0.5 173,-0.5"/>
<text text-anchor="middle" x="209" y="-8.5" font-family="Helvetica,sans-Serif" font-size="10.00">progs/Ant.cc</text>
</a>
</g>
<!-- Node1&#45;&gt;Node4 -->
<g id="edge6" class="edge"><title>Node1&#45;&gt;Node4</title>
<path fill="none" stroke="midnightblue" d="M1132.73,-140.46C936.712,-138.448 362.066,-129.549 286,-94 252.167,-78.1881 226.14,-40.1271 214.969,-21.5528"/>
<polygon fill="midnightblue" stroke="midnightblue" points="1132.84,-143.961 1142.88,-140.562 1132.91,-136.962 1132.84,-143.961"/>
</g>
<!-- Node5 -->
<g id="node9" class="node"><title>Node5</title>
<a xlink:href="omega__histograms_8cc.html" target="_top" xlink:title="progs/omega_histograms.cc">
<polygon fill="white" stroke="black" points="496,-65.5 496,-86.5 636,-86.5 636,-65.5 496,-65.5"/>
<text text-anchor="middle" x="566" y="-73.5" font-family="Helvetica,sans-Serif" font-size="10.00">progs/omega_histograms.cc</text>
</a>
</g>
<!-- Node1&#45;&gt;Node5 -->
<g id="edge8" class="edge"><title>Node1&#45;&gt;Node5</title>
<path fill="none" stroke="midnightblue" d="M1132.74,-138.399C1028.94,-133.601 820.063,-121.248 645,-94 632.63,-92.0746 619.312,-89.3124 607.201,-86.5279"/>
<polygon fill="midnightblue" stroke="midnightblue" points="1132.61,-141.896 1142.75,-138.853 1132.92,-134.903 1132.61,-141.896"/>
</g>
<!-- Node6 -->
<g id="node11" class="node"><title>Node6</title>
<a xlink:href="omega__tree_8cc.html" target="_top" xlink:title="progs/omega_tree.cc">
<polygon fill="white" stroke="black" points="654,-65.5 654,-86.5 762,-86.5 762,-65.5 654,-65.5"/>
<text text-anchor="middle" x="708" y="-73.5" font-family="Helvetica,sans-Serif" font-size="10.00">progs/omega_tree.cc</text>
</a>
</g>
<!-- Node1&#45;&gt;Node6 -->
<g id="edge10" class="edge"><title>Node1&#45;&gt;Node6</title>
<path fill="none" stroke="midnightblue" d="M1132.77,-137.251C1048.57,-131.63 897.803,-118.908 771,-94 761.178,-92.0705 750.664,-89.3406 741.094,-86.5886"/>
<polygon fill="midnightblue" stroke="midnightblue" points="1132.75,-140.757 1142.95,-137.918 1133.2,-133.772 1132.75,-140.757"/>
</g>
<!-- Node7 -->
<g id="node13" class="node"><title>Node7</title>
<a xlink:href="_goat_reader_8cc.html" target="_top" xlink:title="src/analysis/input\l/goat/GoatReader.cc">
<polygon fill="white" stroke="black" points="779.5,-59 779.5,-93 886.5,-93 886.5,-59 779.5,-59"/>
<text text-anchor="start" x="787.5" y="-80" font-family="Helvetica,sans-Serif" font-size="10.00">src/analysis/input</text>
<text text-anchor="middle" x="833" y="-67" font-family="Helvetica,sans-Serif" font-size="10.00">/goat/GoatReader.cc</text>
</a>
</g>
<!-- Node1&#45;&gt;Node7 -->
<g id="edge12" class="edge"><title>Node1&#45;&gt;Node7</title>
<path fill="none" stroke="midnightblue" d="M1132.89,-133.363C1071.22,-125.55 976.23,-112.013 895,-94 892.264,-93.3934 889.472,-92.7336 886.659,-92.0367"/>
<polygon fill="midnightblue" stroke="midnightblue" points="1132.51,-136.843 1142.87,-134.614 1133.38,-129.897 1132.51,-136.843"/>
</g>
<!-- Node8 -->
<g id="node15" class="node"><title>Node8</title>
<a xlink:href="_pluto_reader_8cc.html" target="_top" xlink:title="src/analysis/input\l/pluto/PlutoReader.cc">
<polygon fill="white" stroke="black" points="903.5,-59 903.5,-93 1014.5,-93 1014.5,-59 903.5,-59"/>
<text text-anchor="start" x="911.5" y="-80" font-family="Helvetica,sans-Serif" font-size="10.00">src/analysis/input</text>
<text text-anchor="middle" x="959" y="-67" font-family="Helvetica,sans-Serif" font-size="10.00">/pluto/PlutoReader.cc</text>
</a>
</g>
<!-- Node1&#45;&gt;Node8 -->
<g id="edge14" class="edge"><title>Node1&#45;&gt;Node8</title>
<path fill="none" stroke="midnightblue" d="M1148.36,-127.836C1113.31,-118.498 1065.24,-105.612 1023,-94 1020.33,-93.2657 1017.6,-92.5109 1014.84,-91.7459"/>
<polygon fill="midnightblue" stroke="midnightblue" points="1147.78,-131.303 1158.35,-130.493 1149.58,-124.539 1147.78,-131.303"/>
</g>
<!-- Node9 -->
<g id="node17" class="node"><title>Node9</title>
<a xlink:href="_particle_i_d_8cc.html" target="_top" xlink:title="src/analysis/utils\l/ParticleID.cc">
<polygon fill="white" stroke="black" points="1032,-59 1032,-93 1122,-93 1122,-59 1032,-59"/>
<text text-anchor="start" x="1040" y="-80" font-family="Helvetica,sans-Serif" font-size="10.00">src/analysis/utils</text>
<text text-anchor="middle" x="1077" y="-67" font-family="Helvetica,sans-Serif" font-size="10.00">/ParticleID.cc</text>
</a>
</g>
<!-- Node1&#45;&gt;Node9 -->
<g id="edge16" class="edge"><title>Node1&#45;&gt;Node9</title>
<path fill="none" stroke="midnightblue" d="M1169.35,-125.608C1151.21,-115.866 1127.74,-103.255 1108.99,-93.1869"/>
<polygon fill="midnightblue" stroke="midnightblue" points="1167.82,-128.763 1178.29,-130.412 1171.14,-122.596 1167.82,-128.763"/>
</g>
<!-- Node10 -->
<g id="node19" class="node"><title>Node10</title>
<a xlink:href="_wrap_t_file_8cc.html" target="_top" xlink:title="src/base/WrapTFile.cc">
<polygon fill="white" stroke="black" points="1140,-65.5 1140,-86.5 1256,-86.5 1256,-65.5 1140,-65.5"/>
<text text-anchor="middle" x="1198" y="-73.5" font-family="Helvetica,sans-Serif" font-size="10.00">src/base/WrapTFile.cc</text>
</a>
</g>
<!-- Node1&#45;&gt;Node10 -->
<g id="edge18" class="edge"><title>Node1&#45;&gt;Node10</title>
<path fill="none" stroke="midnightblue" d="M1198,-120.014C1198,-108.831 1198,-95.5583 1198,-86.5337"/>
<polygon fill="midnightblue" stroke="midnightblue" points="1194.5,-120.267 1198,-130.267 1201.5,-120.267 1194.5,-120.267"/>
</g>
<!-- Node11 -->
<g id="node21" class="node"><title>Node11</title>
<a xlink:href="_data_base_8cc.html" target="_top" xlink:title="src/calibration/DataBase.cc">
<polygon fill="white" stroke="black" points="1273.5,-65.5 1273.5,-86.5 1410.5,-86.5 1410.5,-65.5 1273.5,-65.5"/>
<text text-anchor="middle" x="1342" y="-73.5" font-family="Helvetica,sans-Serif" font-size="10.00">src/calibration/DataBase.cc</text>
</a>
</g>
<!-- Node1&#45;&gt;Node11 -->
<g id="edge20" class="edge"><title>Node1&#45;&gt;Node11</title>
<path fill="none" stroke="midnightblue" d="M1230.8,-126.194C1257.56,-114.116 1294.71,-97.3469 1318.55,-86.5835"/>
<polygon fill="midnightblue" stroke="midnightblue" points="1229.13,-123.108 1221.46,-130.412 1232.01,-129.488 1229.13,-123.108"/>
</g>
<!-- Node12 -->
<g id="node23" class="node"><title>Node12</title>
<a xlink:href="_data_manager_8cc.html" target="_top" xlink:title="src/calibration/DataManager.cc">
<polygon fill="white" stroke="black" points="1428,-65.5 1428,-86.5 1580,-86.5 1580,-65.5 1428,-65.5"/>
<text text-anchor="middle" x="1504" y="-73.5" font-family="Helvetica,sans-Serif" font-size="10.00">src/calibration/DataManager.cc</text>
</a>
</g>
<!-- Node1&#45;&gt;Node12 -->
<g id="edge22" class="edge"><title>Node1&#45;&gt;Node12</title>
<path fill="none" stroke="midnightblue" d="M1257.52,-128.356C1314.94,-116.16 1400.82,-97.9172 1454.57,-86.5005"/>
<polygon fill="midnightblue" stroke="midnightblue" points="1256.56,-124.983 1247.5,-130.484 1258.01,-131.83 1256.56,-124.983"/>
</g>
<!-- Node13 -->
<g id="node25" class="node"><title>Node13</title>
<a xlink:href="_manager_8cc.html" target="_top" xlink:title="src/calibration/gui\l/Manager.cc">
<polygon fill="white" stroke="black" points="1597.5,-59 1597.5,-93 1690.5,-93 1690.5,-59 1597.5,-59"/>
<text text-anchor="start" x="1605.5" y="-80" font-family="Helvetica,sans-Serif" font-size="10.00">src/calibration/gui</text>
<text text-anchor="middle" x="1644" y="-67" font-family="Helvetica,sans-Serif" font-size="10.00">/Manager.cc</text>
</a>
</g>
<!-- Node1&#45;&gt;Node13 -->
<g id="edge24" class="edge"><title>Node1&#45;&gt;Node13</title>
<path fill="none" stroke="midnightblue" d="M1263.48,-137.077C1341.68,-131.488 1476.08,-119.008 1589,-94 1591.75,-93.3917 1594.55,-92.7011 1597.37,-91.9536"/>
<polygon fill="midnightblue" stroke="midnightblue" points="1263.02,-133.6 1253.29,-137.789 1263.51,-140.583 1263.02,-133.6"/>
</g>
<!-- Node14 -->
<g id="node27" class="node"><title>Node14</title>
<a xlink:href="_pluto_t_i_d_8cc.html" target="_top" xlink:title="src/simulation/mc/utils\l/PlutoTID.cc">
<polygon fill="white" stroke="black" points="1707.5,-59 1707.5,-93 1822.5,-93 1822.5,-59 1707.5,-59"/>
<text text-anchor="start" x="1715.5" y="-80" font-family="Helvetica,sans-Serif" font-size="10.00">src/simulation/mc/utils</text>
<text text-anchor="middle" x="1765" y="-67" font-family="Helvetica,sans-Serif" font-size="10.00">/PlutoTID.cc</text>
</a>
</g>
<!-- Node1&#45;&gt;Node14 -->
<g id="edge26" class="edge"><title>Node1&#45;&gt;Node14</title>
<path fill="none" stroke="midnightblue" d="M1263.43,-138.468C1359.57,-133.935 1544.34,-122.127 1699,-94 1701.69,-93.5112 1704.42,-92.965 1707.18,-92.3756"/>
<polygon fill="midnightblue" stroke="midnightblue" points="1263.11,-134.979 1253.28,-138.935 1263.43,-141.971 1263.11,-134.979"/>
</g>
<!-- Node15 -->
<g id="node29" class="node"><title>Node15</title>
<a xlink:href="_unpacker_reader_8h.html" target="_top" xlink:title="src/tree/UnpackerReader.h">
<polygon fill="white" stroke="black" points="306,-65.5 306,-86.5 440,-86.5 440,-65.5 306,-65.5"/>
<text text-anchor="middle" x="373" y="-73.5" font-family="Helvetica,sans-Serif" font-size="10.00">src/tree/UnpackerReader.h</text>
</a>
</g>
<!-- Node1&#45;&gt;Node15 -->
<g id="edge28" class="edge"><title>Node1&#45;&gt;Node15</title>
<path fill="none" stroke="midnightblue" d="M1132.45,-140.277C1002.42,-138.09 702.903,-129.299 454,-94 441.163,-92.1795 427.341,-89.4144 414.813,-86.5937"/>
<polygon fill="midnightblue" stroke="midnightblue" points="1132.58,-143.779 1142.63,-140.44 1132.69,-136.78 1132.58,-143.779"/>
</g>
<!-- Node16 -->
<g id="node32" class="node"><title>Node16</title>
<a xlink:href="_unpacker_reader_8cc.html" target="_top" xlink:title="src/tree/UnpackerReader.cc">
<polygon fill="white" stroke="black" points="263,-0.5 263,-21.5 403,-21.5 403,-0.5 263,-0.5"/>
<text text-anchor="middle" x="333" y="-8.5" font-family="Helvetica,sans-Serif" font-size="10.00">src/tree/UnpackerReader.cc</text>
</a>
</g>
<!-- Node1&#45;&gt;Node16 -->
<g id="edge36" class="edge"><title>Node1&#45;&gt;Node16</title>
<path fill="none" stroke="midnightblue" d="M1132.49,-140.024C929.948,-136.689 325.701,-124.237 297,-94 276.996,-72.9248 304.704,-38.9646 321.612,-21.7484"/>
<polygon fill="midnightblue" stroke="midnightblue" points="1132.63,-143.527 1142.68,-140.19 1132.74,-136.527 1132.63,-143.527"/>
</g>
<!-- Node17 -->
<g id="node34" class="node"><title>Node17</title>
<a xlink:href="_test_ant_reader_8cc.html" target="_top" xlink:title="test/analysis/TestAntReader.cc">
<polygon fill="white" stroke="black" points="420.5,-0.5 420.5,-21.5 575.5,-21.5 575.5,-0.5 420.5,-0.5"/>
<text text-anchor="middle" x="498" y="-8.5" font-family="Helvetica,sans-Serif" font-size="10.00">test/analysis/TestAntReader.cc</text>
</a>
</g>
<!-- Node1&#45;&gt;Node17 -->
<g id="edge42" class="edge"><title>Node1&#45;&gt;Node17</title>
<path fill="none" stroke="midnightblue" d="M1132.59,-139.073C960.868,-133.698 508.89,-117.385 487,-94 468.424,-74.1558 482.856,-39.0152 491.985,-21.5139"/>
<polygon fill="midnightblue" stroke="midnightblue" points="1132.65,-142.577 1142.75,-139.389 1132.87,-135.58 1132.65,-142.577"/>
</g>
<!-- Node18 -->
<g id="node37" class="node"><title>Node18</title>
<a xlink:href="_unpacker_writer_8cc.html" target="_top" xlink:title="src/tree/UnpackerWriter.cc">
<polygon fill="white" stroke="black" points="1840,-65.5 1840,-86.5 1974,-86.5 1974,-65.5 1840,-65.5"/>
<text text-anchor="middle" x="1907" y="-73.5" font-family="Helvetica,sans-Serif" font-size="10.00">src/tree/UnpackerWriter.cc</text>
</a>
</g>
<!-- Node1&#45;&gt;Node18 -->
<g id="edge38" class="edge"><title>Node1&#45;&gt;Node18</title>
<path fill="none" stroke="midnightblue" d="M1263.45,-139.554C1378.76,-136.247 1625.38,-125.778 1831,-94 1843.06,-92.1361 1856.03,-89.358 1867.79,-86.5389"/>
<polygon fill="midnightblue" stroke="midnightblue" points="1263.27,-136.057 1253.37,-139.834 1263.46,-143.054 1263.27,-136.057"/>
</g>
<!-- Node19 -->
<g id="node39" class="node"><title>Node19</title>
<a xlink:href="_unpacker_a2_geant_8cc.html" target="_top" xlink:title="src/unpacker/UnpackerA2Geant.cc">
<polygon fill="white" stroke="black" points="1992,-65.5 1992,-86.5 2162,-86.5 2162,-65.5 1992,-65.5"/>
<text text-anchor="middle" x="2077" y="-73.5" font-family="Helvetica,sans-Serif" font-size="10.00">src/unpacker/UnpackerA2Geant.cc</text>
</a>
</g>
<!-- Node1&#45;&gt;Node19 -->
<g id="edge40" class="edge"><title>Node1&#45;&gt;Node19</title>
<path fill="none" stroke="midnightblue" d="M1263.61,-139.936C1398.72,-137.117 1717.62,-127.212 1983,-94 1997.84,-92.143 2013.86,-89.367 2028.4,-86.5476"/>
<polygon fill="midnightblue" stroke="midnightblue" points="1263.35,-136.441 1253.43,-140.143 1263.5,-143.439 1263.35,-136.441"/>
</g>
<!-- Node20 -->
<g id="node42" class="node"><title>Node20</title>
<a xlink:href="_test_goat_reader_8cc.html" target="_top" xlink:title="test/analysis/TestGoatReader.cc">
<polygon fill="white" stroke="black" points="2179.5,-65.5 2179.5,-86.5 2340.5,-86.5 2340.5,-65.5 2179.5,-65.5"/>
<text text-anchor="middle" x="2260" y="-73.5" font-family="Helvetica,sans-Serif" font-size="10.00">test/analysis/TestGoatReader.cc</text>
</a>
</g>
<!-- Node1&#45;&gt;Node20 -->
<g id="edge44" class="edge"><title>Node1&#45;&gt;Node20</title>
<path fill="none" stroke="midnightblue" d="M1263.2,-139.139C1451.6,-133.557 1994.57,-115.974 2171,-94 2185.24,-92.227 2200.6,-89.44 2214.48,-86.584"/>
<polygon fill="midnightblue" stroke="midnightblue" points="1263.06,-135.642 1253.16,-139.435 1263.26,-142.639 1263.06,-135.642"/>
</g>
<!-- Node21 -->
<g id="node44" class="node"><title>Node21</title>
<a xlink:href="_test_input_module_8cc.html" target="_top" xlink:title="test/analysis/TestInputModule.cc">
<polygon fill="white" stroke="black" points="2357.5,-65.5 2357.5,-86.5 2518.5,-86.5 2518.5,-65.5 2357.5,-65.5"/>
<text text-anchor="middle" x="2438" y="-73.5" font-family="Helvetica,sans-Serif" font-size="10.00">test/analysis/TestInputModule.cc</text>
</a>
</g>
<!-- Node1&#45;&gt;Node21 -->
<g id="edge46" class="edge"><title>Node1&#45;&gt;Node21</title>
<path fill="none" stroke="midnightblue" d="M1263.27,-139.699C1474.25,-135.279 2136.43,-119.671 2349,-94 2363.4,-92.2612 2378.94,-89.4474 2392.95,-86.5559"/>
<polygon fill="midnightblue" stroke="midnightblue" points="1263.2,-136.2 1253.27,-139.907 1263.34,-143.198 1263.2,-136.2"/>
</g>
<!-- Node22 -->
<g id="node46" class="node"><title>Node22</title>
<a xlink:href="_test_physics_manager_8cc.html" target="_top" xlink:title="test/analysis/TestPhysics\lManager.cc">
<polygon fill="white" stroke="black" points="2536,-59 2536,-93 2666,-93 2666,-59 2536,-59"/>
<text text-anchor="start" x="2544" y="-80" font-family="Helvetica,sans-Serif" font-size="10.00">test/analysis/TestPhysics</text>
<text text-anchor="middle" x="2601" y="-67" font-family="Helvetica,sans-Serif" font-size="10.00">Manager.cc</text>
</a>
</g>
<!-- Node1&#45;&gt;Node22 -->
<g id="edge48" class="edge"><title>Node1&#45;&gt;Node22</title>
<path fill="none" stroke="midnightblue" d="M1263.34,-140.447C1495.31,-138.208 2278.66,-128.231 2527,-94 2529.88,-93.6028 2532.81,-93.1409 2535.77,-92.6284"/>
<polygon fill="midnightblue" stroke="midnightblue" points="1263,-136.95 1253.03,-140.544 1263.07,-143.949 1263,-136.95"/>
</g>
<!-- Node23 -->
<g id="node48" class="node"><title>Node23</title>
<a xlink:href="_test_physics_registry_8cc.html" target="_top" xlink:title="test/analysis/TestPhysics\lRegistry.cc">
<polygon fill="white" stroke="black" points="2684,-59 2684,-93 2814,-93 2814,-59 2684,-59"/>
<text text-anchor="start" x="2692" y="-80" font-family="Helvetica,sans-Serif" font-size="10.00">test/analysis/TestPhysics</text>
<text text-anchor="middle" x="2749" y="-67" font-family="Helvetica,sans-Serif" font-size="10.00">Registry.cc</text>
</a>
</g>
<!-- Node1&#45;&gt;Node23 -->
<g id="edge50" class="edge"><title>Node1&#45;&gt;Node23</title>
<path fill="none" stroke="midnightblue" d="M1263.43,-140.716C1511.8,-139.358 2396.35,-131.907 2675,-94 2677.88,-93.6079 2680.82,-93.1503 2683.77,-92.6412"/>
<polygon fill="midnightblue" stroke="midnightblue" points="1263.1,-137.217 1253.12,-140.771 1263.14,-144.217 1263.1,-137.217"/>
</g>
<!-- Node24 -->
<g id="node50" class="node"><title>Node24</title>
<a xlink:href="_test_wrap_t_file_8cc.html" target="_top" xlink:title="test/base/TestWrapTFile.cc">
<polygon fill="white" stroke="black" points="2832,-65.5 2832,-86.5 2970,-86.5 2970,-65.5 2832,-65.5"/>
<text text-anchor="middle" x="2901" y="-73.5" font-family="Helvetica,sans-Serif" font-size="10.00">test/base/TestWrapTFile.cc</text>
</a>
</g>
<!-- Node1&#45;&gt;Node24 -->
<g id="edge52" class="edge"><title>Node1&#45;&gt;Node24</title>
<path fill="none" stroke="midnightblue" d="M1263.3,-140.835C1526.96,-139.903 2513.61,-133.775 2823,-94 2835.96,-92.3343 2849.92,-89.4649 2862.39,-86.5005"/>
<polygon fill="midnightblue" stroke="midnightblue" points="1263.12,-137.336 1253.13,-140.87 1263.14,-144.336 1263.12,-137.336"/>
</g>
<!-- Node15&#45;&gt;Node4 -->
<g id="edge30" class="edge"><title>Node15&#45;&gt;Node4</title>
<path fill="none" stroke="midnightblue" d="M336.84,-61.6684C306.285,-49.5579 263.217,-32.4886 235.703,-21.5835"/>
<polygon fill="midnightblue" stroke="midnightblue" points="335.699,-64.9811 346.286,-65.412 338.279,-58.4736 335.699,-64.9811"/>
</g>
<!-- Node15&#45;&gt;Node16 -->
<g id="edge32" class="edge"><title>Node15&#45;&gt;Node16</title>
<path fill="none" stroke="midnightblue" d="M361.15,-56.7437C354.061,-45.2248 345.325,-31.0283 339.482,-21.5337"/>
<polygon fill="midnightblue" stroke="midnightblue" points="358.173,-58.5843 366.395,-65.2666 364.135,-54.9156 358.173,-58.5843"/>
</g>
<!-- Node15&#45;&gt;Node17 -->
<g id="edge34" class="edge"><title>Node15&#45;&gt;Node17</title>
<path fill="none" stroke="midnightblue" d="M402.395,-60.7148C425.547,-48.6754 457.221,-32.2053 477.647,-21.5835"/>
<polygon fill="midnightblue" stroke="midnightblue" points="400.619,-57.6931 393.362,-65.412 403.849,-63.9036 400.619,-57.6931"/>
</g>
</g>
</svg>
