<?xml version="1.0" encoding="UTF-8" standalone="no"?>
<!DOCTYPE svg PUBLIC "-//W3C//DTD SVG 1.1//EN"
 "http://www.w3.org/Graphics/SVG/1.1/DTD/svg11.dtd">
<!-- Generated by graphviz version 2.26.3 (20100126.1600)
 -->
<!-- Title: src/base/WrapTFile.cc Pages: 1 -->
<svg width="876pt" height="204pt"
 viewBox="0.00 0.00 876.49 204.00" xmlns="http://www.w3.org/2000/svg" xmlns:xlink="http://www.w3.org/1999/xlink">
<g id="graph1" class="graph" transform="scale(1 1) rotate(0) translate(4 200)">
<title>src/base/WrapTFile.cc</title>
<polygon fill="white" stroke="white" points="-4,5 -4,-200 873.491,-200 873.491,5 -4,5"/>
<!-- Node1 -->
<g id="node1" class="node"><title>Node1</title>
<polygon fill="#bfbfbf" stroke="black" points="435.491,-174.5 435.491,-195.5 551.491,-195.5 551.491,-174.5 435.491,-174.5"/>
<text text-anchor="middle" x="493.491" y="-182.5" font-family="Helvetica,sans-Serif" font-size="10.00">src/base/WrapTFile.cc</text>
</g>
<!-- Node2 -->
<g id="node3" class="node"><title>Node2</title>
<a xlink:href="_wrap_t_file_8h.html" target="_top" xlink:title="WrapTFile.h">
<polygon fill="white" stroke="black" points="264.491,-116.5 264.491,-137.5 334.491,-137.5 334.491,-116.5 264.491,-116.5"/>
<text text-anchor="middle" x="299.491" y="-124.5" font-family="Helvetica,sans-Serif" font-size="10.00">WrapTFile.h</text>
</a>
</g>
<!-- Node1&#45;&gt;Node2 -->
<g id="edge2" class="edge"><title>Node1&#45;&gt;Node2</title>
<path fill="none" stroke="midnightblue" d="M458.359,-174.497C426.458,-164.959 379.234,-150.841 344.562,-140.475"/>
<polygon fill="midnightblue" stroke="midnightblue" points="345.272,-137.034 334.689,-137.523 343.267,-143.741 345.272,-137.034"/>
</g>
<!-- Node4 -->
<g id="node7" class="node"><title>Node4</title>
<polygon fill="white" stroke="#bfbfbf" points="409.991,-0.5 409.991,-21.5 450.991,-21.5 450.991,-0.5 409.991,-0.5"/>
<text text-anchor="middle" x="430.491" y="-8.5" font-family="Helvetica,sans-Serif" font-size="10.00">string</text>
</g>
<!-- Node1&#45;&gt;Node4 -->
<g id="edge52" class="edge"><title>Node1&#45;&gt;Node4</title>
<path fill="none" stroke="midnightblue" d="M435.469,-182.403C318.058,-176.68 60.6862,-161.587 28.4907,-138 5.84677,-121.411 9.16331,-107.491 3.49071,-80 1.51478,-70.424 -3.03404,-65.2823 3.49071,-58 29.8801,-28.5465 305.656,-15.6356 399.458,-12.0739"/>
<polygon fill="midnightblue" stroke="midnightblue" points="399.853,-15.5617 409.717,-11.6943 399.595,-8.5665 399.853,-15.5617"/>
</g>
<!-- Node15 -->
<g id="node30" class="node"><title>Node15</title>
<a xlink:href="memory_8h.html" target="_top" xlink:title="std_ext/memory.h">
<polygon fill="white" stroke="black" points="36.9907,-116.5 36.9907,-137.5 131.991,-137.5 131.991,-116.5 36.9907,-116.5"/>
<text text-anchor="middle" x="84.4907" y="-124.5" font-family="Helvetica,sans-Serif" font-size="10.00">std_ext/memory.h</text>
</a>
</g>
<!-- Node1&#45;&gt;Node15 -->
<g id="edge30" class="edge"><title>Node1&#45;&gt;Node15</title>
<path fill="none" stroke="midnightblue" d="M435.325,-176.752C357.442,-165.707 220.092,-146.23 142.36,-135.206"/>
<polygon fill="midnightblue" stroke="midnightblue" points="142.654,-131.713 132.261,-133.774 141.671,-138.644 142.654,-131.713"/>
</g>
<!-- Node16 -->
<g id="node34" class="node"><title>Node16</title>
<a xlink:href="_logger_8h.html" target="_top" xlink:title="Logger.h">
<polygon fill="white" stroke="black" points="352.491,-116.5 352.491,-137.5 406.491,-137.5 406.491,-116.5 352.491,-116.5"/>
<text text-anchor="middle" x="379.491" y="-124.5" font-family="Helvetica,sans-Serif" font-size="10.00">Logger.h</text>
</a>
</g>
<!-- Node1&#45;&gt;Node16 -->
<g id="edge36" class="edge"><title>Node1&#45;&gt;Node16</title>
<path fill="none" stroke="midnightblue" d="M472.846,-174.497C455.121,-165.479 429.346,-152.365 409.368,-142.201"/>
<polygon fill="midnightblue" stroke="midnightblue" points="410.867,-139.036 400.367,-137.621 407.693,-145.275 410.867,-139.036"/>
</g>
<!-- Node18 -->
<g id="node38" class="node"><title>Node18</title>
<polygon fill="white" stroke="#bfbfbf" points="423.991,-116.5 423.991,-137.5 488.991,-137.5 488.991,-116.5 423.991,-116.5"/>
<text text-anchor="middle" x="456.491" y="-124.5" font-family="Helvetica,sans-Serif" font-size="10.00">TSystem.h</text>
</g>
<!-- Node1&#45;&gt;Node18 -->
<g id="edge40" class="edge"><title>Node1&#45;&gt;Node18</title>
<path fill="none" stroke="midnightblue" d="M486.704,-174.362C481.697,-166.513 474.746,-155.616 468.773,-146.253"/>
<polygon fill="midnightblue" stroke="midnightblue" points="471.563,-144.119 463.234,-137.571 465.662,-147.884 471.563,-144.119"/>
</g>
<!-- Node19 -->
<g id="node40" class="node"><title>Node19</title>
<polygon fill="white" stroke="#bfbfbf" points="505.991,-116.5 505.991,-137.5 556.991,-137.5 556.991,-116.5 505.991,-116.5"/>
<text text-anchor="middle" x="531.491" y="-124.5" font-family="Helvetica,sans-Serif" font-size="10.00">TH1D.h</text>
</g>
<!-- Node1&#45;&gt;Node19 -->
<g id="edge42" class="edge"><title>Node1&#45;&gt;Node19</title>
<path fill="none" stroke="midnightblue" d="M500.46,-174.362C505.656,-166.431 512.891,-155.389 519.068,-145.961"/>
<polygon fill="midnightblue" stroke="midnightblue" points="522.012,-147.853 524.565,-137.571 516.157,-144.017 522.012,-147.853"/>
</g>
<!-- Node20 -->
<g id="node42" class="node"><title>Node20</title>
<polygon fill="white" stroke="#bfbfbf" points="573.991,-116.5 573.991,-137.5 624.991,-137.5 624.991,-116.5 573.991,-116.5"/>
<text text-anchor="middle" x="599.491" y="-124.5" font-family="Helvetica,sans-Serif" font-size="10.00">TH2D.h</text>
</g>
<!-- Node1&#45;&gt;Node20 -->
<g id="edge44" class="edge"><title>Node1&#45;&gt;Node20</title>
<path fill="none" stroke="midnightblue" d="M512.933,-174.362C529.294,-165.409 552.904,-152.491 571.334,-142.406"/>
<polygon fill="midnightblue" stroke="midnightblue" points="573.079,-145.441 580.172,-137.571 569.719,-139.3 573.079,-145.441"/>
</g>
<!-- Node21 -->
<g id="node44" class="node"><title>Node21</title>
<polygon fill="white" stroke="#bfbfbf" points="641.991,-116.5 641.991,-137.5 692.991,-137.5 692.991,-116.5 641.991,-116.5"/>
<text text-anchor="middle" x="667.491" y="-124.5" font-family="Helvetica,sans-Serif" font-size="10.00">TH3D.h</text>
</g>
<!-- Node1&#45;&gt;Node21 -->
<g id="edge46" class="edge"><title>Node1&#45;&gt;Node21</title>
<path fill="none" stroke="midnightblue" d="M525.001,-174.497C555.223,-164.422 600.779,-149.237 632.204,-138.762"/>
<polygon fill="midnightblue" stroke="midnightblue" points="633.493,-142.022 641.873,-135.539 631.28,-135.381 633.493,-142.022"/>
</g>
<!-- Node22 -->
<g id="node46" class="node"><title>Node22</title>
<polygon fill="white" stroke="#bfbfbf" points="709.991,-116.5 709.991,-137.5 792.991,-137.5 792.991,-116.5 709.991,-116.5"/>
<text text-anchor="middle" x="751.491" y="-124.5" font-family="Helvetica,sans-Serif" font-size="10.00">Compression.h</text>
</g>
<!-- Node1&#45;&gt;Node22 -->
<g id="edge48" class="edge"><title>Node1&#45;&gt;Node22</title>
<path fill="none" stroke="midnightblue" d="M540.213,-174.497C585.263,-164.369 653.289,-149.076 699.908,-138.596"/>
<polygon fill="midnightblue" stroke="midnightblue" points="700.818,-141.979 709.807,-136.371 699.283,-135.149 700.818,-141.979"/>
</g>
<!-- Node23 -->
<g id="node48" class="node"><title>Node23</title>
<polygon fill="white" stroke="#bfbfbf" points="809.991,-116.5 809.991,-137.5 868.991,-137.5 868.991,-116.5 809.991,-116.5"/>
<text text-anchor="middle" x="839.491" y="-124.5" font-family="Helvetica,sans-Serif" font-size="10.00">stdexcept</text>
</g>
<!-- Node1&#45;&gt;Node23 -->
<g id="edge50" class="edge"><title>Node1&#45;&gt;Node23</title>
<path fill="none" stroke="midnightblue" d="M551.523,-178.435C611.562,-171.13 708.162,-157.946 799.727,-138.202"/>
<polygon fill="midnightblue" stroke="midnightblue" points="800.693,-141.573 809.714,-136.017 799.197,-134.735 800.693,-141.573"/>
</g>
<!-- Node3 -->
<g id="node5" class="node"><title>Node3</title>
<polygon fill="white" stroke="#bfbfbf" points="58.4907,-58.5 58.4907,-79.5 110.491,-79.5 110.491,-58.5 58.4907,-58.5"/>
<text text-anchor="middle" x="84.4907" y="-66.5" font-family="Helvetica,sans-Serif" font-size="10.00">memory</text>
</g>
<!-- Node2&#45;&gt;Node3 -->
<g id="edge4" class="edge"><title>Node2&#45;&gt;Node3</title>
<path fill="none" stroke="midnightblue" d="M264.17,-118.323C229.766,-109.75 175.778,-95.979 120.437,-80.188"/>
<polygon fill="midnightblue" stroke="midnightblue" points="121.4,-76.8232 110.822,-77.4278 119.468,-83.5514 121.4,-76.8232"/>
</g>
<!-- Node2&#45;&gt;Node4 -->
<g id="edge6" class="edge"><title>Node2&#45;&gt;Node4</title>
<path fill="none" stroke="midnightblue" d="M333.277,-116.464C362.169,-106.821 400.736,-92.2351 411.491,-80 423.126,-66.7627 427.701,-47.0113 429.467,-32.0283"/>
<polygon fill="midnightblue" stroke="midnightblue" points="432.986,-31.9461 430.341,-21.687 426.011,-31.3568 432.986,-31.9461"/>
</g>
<!-- Node5 -->
<g id="node9" class="node"><title>Node5</title>
<polygon fill="white" stroke="#bfbfbf" points="11.9907,-58.5 11.9907,-79.5 40.9907,-79.5 40.9907,-58.5 11.9907,-58.5"/>
<text text-anchor="middle" x="26.4907" y="-66.5" font-family="Helvetica,sans-Serif" font-size="10.00">list</text>
</g>
<!-- Node2&#45;&gt;Node5 -->
<g id="edge8" class="edge"><title>Node2&#45;&gt;Node5</title>
<path fill="none" stroke="midnightblue" d="M264.404,-123.323C217.288,-117.76 131.074,-105.377 51.0753,-79.9604"/>
<polygon fill="midnightblue" stroke="midnightblue" points="51.9456,-76.563 41.3533,-76.7958 49.7789,-83.2192 51.9456,-76.563"/>
</g>
<!-- Node6 -->
<g id="node11" class="node"><title>Node6</title>
<a xlink:href="string_8h.html" target="_top" xlink:title="base/std_ext/string.h">
<polygon fill="white" stroke="black" points="458.491,-58.5 458.491,-79.5 566.491,-79.5 566.491,-58.5 458.491,-58.5"/>
<text text-anchor="middle" x="512.491" y="-66.5" font-family="Helvetica,sans-Serif" font-size="10.00">base/std_ext/string.h</text>
</a>
</g>
<!-- Node2&#45;&gt;Node6 -->
<g id="edge10" class="edge"><title>Node2&#45;&gt;Node6</title>
<path fill="none" stroke="midnightblue" d="M334.663,-117.422C369.956,-107.812 424.59,-92.9353 463.988,-82.2072"/>
<polygon fill="midnightblue" stroke="midnightblue" points="464.926,-85.5793 473.655,-79.5749 463.087,-78.8252 464.926,-85.5793"/>
</g>
<!-- Node9 -->
<g id="node18" class="node"><title>Node9</title>
<polygon fill="white" stroke="#bfbfbf" points="583.991,-58.5 583.991,-79.5 630.991,-79.5 630.991,-58.5 583.991,-58.5"/>
<text text-anchor="middle" x="607.491" y="-66.5" font-family="Helvetica,sans-Serif" font-size="10.00">TFile.h</text>
</g>
<!-- Node2&#45;&gt;Node9 -->
<g id="edge18" class="edge"><title>Node2&#45;&gt;Node9</title>
<path fill="none" stroke="midnightblue" d="M334.969,-117.836C337.845,-117.183 340.712,-116.562 343.491,-116 442.671,-95.9508 472.41,-104.497 574.124,-80.0333"/>
<polygon fill="midnightblue" stroke="midnightblue" points="574.987,-83.4255 583.865,-77.6437 573.319,-76.6271 574.987,-83.4255"/>
</g>
<!-- Node10 -->
<g id="node20" class="node"><title>Node10</title>
<polygon fill="white" stroke="#bfbfbf" points="647.991,-58.5 647.991,-79.5 718.991,-79.5 718.991,-58.5 647.991,-58.5"/>
<text text-anchor="middle" x="683.491" y="-66.5" font-family="Helvetica,sans-Serif" font-size="10.00">TDirectory.h</text>
</g>
<!-- Node2&#45;&gt;Node10 -->
<g id="edge20" class="edge"><title>Node2&#45;&gt;Node10</title>
<path fill="none" stroke="midnightblue" d="M334.95,-117.734C337.83,-117.104 340.703,-116.516 343.491,-116 470.621,-92.4715 507.395,-103.542 637.598,-80.1892"/>
<polygon fill="midnightblue" stroke="midnightblue" points="638.344,-83.611 647.552,-78.3703 637.086,-76.7251 638.344,-83.611"/>
</g>
<!-- Node11 -->
<g id="node22" class="node"><title>Node11</title>
<polygon fill="white" stroke="#bfbfbf" points="128.491,-58.5 128.491,-79.5 180.491,-79.5 180.491,-58.5 128.491,-58.5"/>
<text text-anchor="middle" x="154.491" y="-66.5" font-family="Helvetica,sans-Serif" font-size="10.00">TError.h</text>
</g>
<!-- Node2&#45;&gt;Node11 -->
<g id="edge22" class="edge"><title>Node2&#45;&gt;Node11</title>
<path fill="none" stroke="midnightblue" d="M273.232,-116.497C249.93,-107.176 215.69,-93.4799 189.959,-83.1872"/>
<polygon fill="midnightblue" stroke="midnightblue" points="191.138,-79.8895 180.554,-79.4252 188.539,-86.3889 191.138,-79.8895"/>
</g>
<!-- Node12 -->
<g id="node24" class="node"><title>Node12</title>
<polygon fill="white" stroke="#bfbfbf" points="197.991,-58.5 197.991,-79.5 244.991,-79.5 244.991,-58.5 197.991,-58.5"/>
<text text-anchor="middle" x="221.491" y="-66.5" font-family="Helvetica,sans-Serif" font-size="10.00">TList.h</text>
</g>
<!-- Node2&#45;&gt;Node12 -->
<g id="edge24" class="edge"><title>Node2&#45;&gt;Node12</title>
<path fill="none" stroke="midnightblue" d="M285.184,-116.362C273.639,-107.777 257.19,-95.5459 243.9,-85.6636"/>
<polygon fill="midnightblue" stroke="midnightblue" points="245.82,-82.7291 235.706,-79.5707 241.643,-88.3463 245.82,-82.7291"/>
</g>
<!-- Node13 -->
<g id="node26" class="node"><title>Node13</title>
<polygon fill="white" stroke="#bfbfbf" points="262.491,-58.5 262.491,-79.5 336.491,-79.5 336.491,-58.5 262.491,-58.5"/>
<text text-anchor="middle" x="299.491" y="-66.5" font-family="Helvetica,sans-Serif" font-size="10.00">TCollection.h</text>
</g>
<!-- Node2&#45;&gt;Node13 -->
<g id="edge26" class="edge"><title>Node2&#45;&gt;Node13</title>
<path fill="none" stroke="midnightblue" d="M299.491,-116.362C299.491,-108.922 299.491,-98.7427 299.491,-89.7276"/>
<polygon fill="midnightblue" stroke="midnightblue" points="302.991,-89.5706 299.491,-79.5707 295.991,-89.5707 302.991,-89.5706"/>
</g>
<!-- Node14 -->
<g id="node28" class="node"><title>Node14</title>
<polygon fill="white" stroke="#bfbfbf" points="354.491,-58.5 354.491,-79.5 402.491,-79.5 402.491,-58.5 354.491,-58.5"/>
<text text-anchor="middle" x="378.491" y="-66.5" font-family="Helvetica,sans-Serif" font-size="10.00">TKey.h</text>
</g>
<!-- Node2&#45;&gt;Node14 -->
<g id="edge28" class="edge"><title>Node2&#45;&gt;Node14</title>
<path fill="none" stroke="midnightblue" d="M313.981,-116.362C325.673,-107.777 342.333,-95.5459 355.794,-85.6636"/>
<polygon fill="midnightblue" stroke="midnightblue" points="358.103,-88.31 364.093,-79.5707 353.961,-82.6675 358.103,-88.31"/>
</g>
<!-- Node6&#45;&gt;Node4 -->
<g id="edge12" class="edge"><title>Node6&#45;&gt;Node4</title>
<path fill="none" stroke="midnightblue" d="M497.451,-58.3619C485.198,-49.6955 467.691,-37.3126 453.651,-27.3819"/>
<polygon fill="midnightblue" stroke="midnightblue" points="455.621,-24.4879 445.435,-21.5707 451.578,-30.2028 455.621,-24.4879"/>
</g>
<!-- Node7 -->
<g id="node14" class="node"><title>Node7</title>
<polygon fill="white" stroke="#bfbfbf" points="550.491,-0.5 550.491,-21.5 602.491,-21.5 602.491,-0.5 550.491,-0.5"/>
<text text-anchor="middle" x="576.491" y="-8.5" font-family="Helvetica,sans-Serif" font-size="10.00">sstream</text>
</g>
<!-- Node6&#45;&gt;Node7 -->
<g id="edge14" class="edge"><title>Node6&#45;&gt;Node7</title>
<path fill="none" stroke="midnightblue" d="M524.229,-58.3619C533.431,-50.0226 546.431,-38.2418 557.162,-28.5162"/>
<polygon fill="midnightblue" stroke="midnightblue" points="559.767,-30.8793 564.827,-21.5707 555.066,-25.6924 559.767,-30.8793"/>
</g>
<!-- Node8 -->
<g id="node16" class="node"><title>Node8</title>
<polygon fill="white" stroke="#bfbfbf" points="476.491,-0.5 476.491,-21.5 532.491,-21.5 532.491,-0.5 476.491,-0.5"/>
<text text-anchor="middle" x="504.491" y="-8.5" font-family="Helvetica,sans-Serif" font-size="10.00">algorithm</text>
</g>
<!-- Node6&#45;&gt;Node8 -->
<g id="edge16" class="edge"><title>Node6&#45;&gt;Node8</title>
<path fill="none" stroke="midnightblue" d="M511.023,-58.3619C509.997,-50.9219 508.593,-40.7427 507.35,-31.7276"/>
<polygon fill="midnightblue" stroke="midnightblue" points="510.782,-30.9986 505.949,-21.5707 503.848,-31.9551 510.782,-30.9986"/>
</g>
<!-- Node15&#45;&gt;Node3 -->
<g id="edge32" class="edge"><title>Node15&#45;&gt;Node3</title>
<path fill="none" stroke="midnightblue" d="M84.4907,-116.362C84.4907,-108.922 84.4907,-98.7427 84.4907,-89.7276"/>
<polygon fill="midnightblue" stroke="midnightblue" points="87.9908,-89.5706 84.4907,-79.5707 80.9908,-89.5707 87.9908,-89.5706"/>
</g>
<!-- Node15&#45;&gt;Node5 -->
<g id="edge34" class="edge"><title>Node15&#45;&gt;Node5</title>
<path fill="none" stroke="midnightblue" d="M73.8526,-116.362C65.595,-108.104 53.9632,-96.4725 44.2936,-86.8029"/>
<polygon fill="midnightblue" stroke="midnightblue" points="46.6073,-84.1669 37.0614,-79.5707 41.6576,-89.1166 46.6073,-84.1669"/>
</g>
<!-- Node17 -->
<g id="node36" class="node"><title>Node17</title>
<polygon fill="white" stroke="#bfbfbf" points="735.991,-58.5 735.991,-79.5 850.991,-79.5 850.991,-58.5 735.991,-58.5"/>
<text text-anchor="middle" x="793.491" y="-66.5" font-family="Helvetica,sans-Serif" font-size="10.00">detail/easylogging++.h</text>
</g>
<!-- Node16&#45;&gt;Node17 -->
<g id="edge38" class="edge"><title>Node16&#45;&gt;Node17</title>
<path fill="none" stroke="midnightblue" d="M406.875,-118.072C409.765,-117.298 412.676,-116.587 415.491,-116 548.932,-88.1558 587.475,-98.9402 725.79,-80.1727"/>
<polygon fill="midnightblue" stroke="midnightblue" points="726.499,-83.6081 735.924,-78.7695 725.538,-76.6743 726.499,-83.6081"/>
</g>
</g>
</svg>
