<?xml version="1.0" encoding="UTF-8" standalone="no"?>
<!DOCTYPE svg PUBLIC "-//W3C//DTD SVG 1.1//EN"
 "http://www.w3.org/Graphics/SVG/1.1/DTD/svg11.dtd">
<!-- Generated by graphviz version 2.26.3 (20100126.1600)
 -->
<!-- Title: SmartTreeImpl Pages: 1 -->
<svg width="844pt" height="260pt"
 viewBox="0.00 0.00 844.00 260.00" xmlns="http://www.w3.org/2000/svg" xmlns:xlink="http://www.w3.org/1999/xlink">
<g id="graph1" class="graph" transform="scale(1 1) rotate(0) translate(4 256)">
<title>SmartTreeImpl</title>
<polygon fill="white" stroke="white" points="-4,5 -4,-256 841,-256 841,5 -4,5"/>
<!-- Node1 -->
<g id="node1" class="node"><title>Node1</title>
<polygon fill="#bfbfbf" stroke="black" points="754.5,-116.5 754.5,-137.5 835.5,-137.5 835.5,-116.5 754.5,-116.5"/>
<text text-anchor="middle" x="795" y="-124.5" font-family="Helvetica,sans-Serif" font-size="10.00">SmartTreeImpl</text>
</g>
<!-- Node2 -->
<g id="node2" class="node"><title>Node2</title>
<a xlink:href="classant_1_1_smart_tree.html" target="_top" xlink:title="ant::SmartTree">
<polygon fill="white" stroke="black" points="577,-213.5 577,-234.5 659,-234.5 659,-213.5 577,-213.5"/>
<text text-anchor="middle" x="618" y="-221.5" font-family="Helvetica,sans-Serif" font-size="10.00">ant::SmartTree</text>
</a>
</g>
<!-- Node2&#45;&gt;Node1 -->
<g id="edge2" class="edge"><title>Node2&#45;&gt;Node1</title>
<path fill="none" stroke="midnightblue" d="M655.396,-209.665C679.132,-199.974 710.136,-186.205 736,-171 752.964,-161.027 770.869,-147.13 782.444,-137.639"/>
<polygon fill="midnightblue" stroke="midnightblue" points="654.003,-206.453 646.031,-213.431 656.615,-212.947 654.003,-206.453"/>
</g>
<!-- Node3 -->
<g id="node4" class="node"><title>Node3</title>
<polygon fill="white" stroke="#bfbfbf" points="371,-230.5 371,-251.5 425,-251.5 425,-230.5 371,-230.5"/>
<text text-anchor="middle" x="398" y="-238.5" font-family="Helvetica,sans-Serif" font-size="10.00">TNamed</text>
</g>
<!-- Node3&#45;&gt;Node2 -->
<g id="edge4" class="edge"><title>Node3&#45;&gt;Node2</title>
<path fill="none" stroke="midnightblue" d="M435.618,-238.093C474.847,-235.062 536.162,-230.324 576.706,-227.191"/>
<polygon fill="midnightblue" stroke="midnightblue" points="435.119,-234.621 425.418,-238.881 435.658,-241.6 435.119,-234.621"/>
</g>
<!-- Node4 -->
<g id="node6" class="node"><title>Node4</title>
<a xlink:href="class_canvas_manager.html" target="_top" xlink:title="CanvasManager">
<polygon fill="white" stroke="black" points="574,-116.5 574,-137.5 662,-137.5 662,-116.5 574,-116.5"/>
<text text-anchor="middle" x="618" y="-124.5" font-family="Helvetica,sans-Serif" font-size="10.00">CanvasManager</text>
</a>
</g>
<!-- Node4&#45;&gt;Node1 -->
<g id="edge6" class="edge"><title>Node4&#45;&gt;Node1</title>
<path fill="none" stroke="#9a32cd" stroke-dasharray="5,2" d="M672.451,-127C698.874,-127 730.075,-127 754.382,-127"/>
<polygon fill="#9a32cd" stroke="#9a32cd" points="672.208,-123.5 662.208,-127 672.208,-130.5 672.208,-123.5"/>
<text text-anchor="middle" x="710" y="-131" font-family="Helvetica,sans-Serif" font-size="10.00"> canvasmgr</text>
</g>
<!-- Node5 -->
<g id="node8" class="node"><title>Node5</title>
<polygon fill="white" stroke="#bfbfbf" points="352.5,-89.5 352.5,-110.5 443.5,-110.5 443.5,-89.5 352.5,-89.5"/>
<text text-anchor="middle" x="398" y="-97.5" font-family="Helvetica,sans-Serif" font-size="10.00">std::list&lt; string &gt;</text>
</g>
<!-- Node5&#45;&gt;Node4 -->
<g id="edge8" class="edge"><title>Node5&#45;&gt;Node4</title>
<path fill="none" stroke="#9a32cd" stroke-dasharray="5,2" d="M453.783,-106.846C491.058,-111.421 539.409,-117.355 573.975,-121.597"/>
<polygon fill="#9a32cd" stroke="#9a32cd" points="453.936,-103.339 443.584,-105.594 453.083,-110.287 453.936,-103.339"/>
<text text-anchor="middle" x="517" y="-122" font-family="Helvetica,sans-Serif" font-size="10.00"> canvas_names</text>
</g>
<!-- Node14 -->
<g id="node28" class="node"><title>Node14</title>
<a xlink:href="class_cut_manager.html" target="_top" xlink:title="CutManager">
<polygon fill="white" stroke="black" points="583,-76.5 583,-97.5 653,-97.5 653,-76.5 583,-76.5"/>
<text text-anchor="middle" x="618" y="-84.5" font-family="Helvetica,sans-Serif" font-size="10.00">CutManager</text>
</a>
</g>
<!-- Node5&#45;&gt;Node14 -->
<g id="edge32" class="edge"><title>Node5&#45;&gt;Node14</title>
<path fill="none" stroke="#9a32cd" stroke-dasharray="5,2" d="M453.801,-94.2271C463.206,-93.3856 472.875,-92.6017 482,-92 516.185,-89.7457 555.276,-88.441 582.748,-87.7334"/>
<polygon fill="#9a32cd" stroke="#9a32cd" points="453.372,-90.7518 443.737,-95.157 454.016,-97.7221 453.372,-90.7518"/>
<text text-anchor="middle" x="517" y="-96" font-family="Helvetica,sans-Serif" font-size="10.00"> cuts</text>
</g>
<!-- Node6 -->
<g id="node10" class="node"><title>Node6</title>
<a xlink:title="STL class. ">
<polygon fill="white" stroke="#bfbfbf" points="165,-88.5 165,-109.5 225,-109.5 225,-88.5 165,-88.5"/>
<text text-anchor="middle" x="195" y="-96.5" font-family="Helvetica,sans-Serif" font-size="10.00">std::string</text>
</a>
</g>
<!-- Node6&#45;&gt;Node5 -->
<g id="edge10" class="edge"><title>Node6&#45;&gt;Node5</title>
<path fill="none" stroke="#9a32cd" stroke-dasharray="5,2" d="M235.806,-99.201C269.519,-99.3671 317.348,-99.6027 352.332,-99.775"/>
<polygon fill="#9a32cd" stroke="#9a32cd" points="235.408,-95.6991 225.391,-99.1497 235.374,-102.699 235.408,-95.6991"/>
<text text-anchor="middle" x="292" y="-103" font-family="Helvetica,sans-Serif" font-size="10.00"> elements</text>
</g>
<!-- Node13 -->
<g id="node24" class="node"><title>Node13</title>
<polygon fill="white" stroke="#bfbfbf" points="335.5,-129 335.5,-163 460.5,-163 460.5,-129 335.5,-129"/>
<text text-anchor="start" x="343.5" y="-150" font-family="Helvetica,sans-Serif" font-size="10.00">std::map&lt; string, interval</text>
<text text-anchor="middle" x="398" y="-137" font-family="Helvetica,sans-Serif" font-size="10.00">&lt; double &gt; &gt;</text>
</g>
<!-- Node6&#45;&gt;Node13 -->
<g id="edge28" class="edge"><title>Node6&#45;&gt;Node13</title>
<path fill="none" stroke="#9a32cd" stroke-dasharray="5,2" d="M235.427,-108.36C264.013,-114.978 302.889,-123.979 335.456,-131.519"/>
<polygon fill="#9a32cd" stroke="#9a32cd" points="235.923,-104.882 225.391,-106.036 234.344,-111.702 235.923,-104.882"/>
<text text-anchor="middle" x="292" y="-129" font-family="Helvetica,sans-Serif" font-size="10.00"> keys</text>
</g>
<!-- Node6&#45;&gt;Node14 -->
<g id="edge34" class="edge"><title>Node6&#45;&gt;Node14</title>
<path fill="none" stroke="#9a32cd" stroke-dasharray="5,2" d="M235.003,-87.0953C262.099,-79.6682 298.866,-70.8183 332,-67 421.993,-56.6294 528.581,-71.1132 582.682,-80.3531"/>
<polygon fill="#9a32cd" stroke="#9a32cd" points="233.808,-83.7953 225.12,-89.8588 235.693,-90.5367 233.808,-83.7953"/>
<text text-anchor="middle" x="398" y="-71" font-family="Helvetica,sans-Serif" font-size="10.00"> cut</text>
</g>
<!-- Node7 -->
<g id="node12" class="node"><title>Node7</title>
<a xlink:title="STL class. ">
<polygon fill="white" stroke="#bfbfbf" points="2.5,-82 2.5,-116 97.5,-116 97.5,-82 2.5,-82"/>
<text text-anchor="start" x="10.5" y="-103" font-family="Helvetica,sans-Serif" font-size="10.00">std::basic_string&lt;</text>
<text text-anchor="middle" x="50" y="-90" font-family="Helvetica,sans-Serif" font-size="10.00"> char &gt;</text>
</a>
</g>
<!-- Node7&#45;&gt;Node6 -->
<g id="edge12" class="edge"><title>Node7&#45;&gt;Node6</title>
<path fill="none" stroke="midnightblue" d="M107.922,-99C127.443,-99 148.434,-99 164.915,-99"/>
<polygon fill="midnightblue" stroke="midnightblue" points="107.88,-95.5001 97.8803,-99 107.88,-102.5 107.88,-95.5001"/>
</g>
<!-- Node8 -->
<g id="node14" class="node"><title>Node8</title>
<a xlink:href="class_event_list_manager.html" target="_top" xlink:title="EventListManager">
<polygon fill="white" stroke="black" points="570.5,-18.5 570.5,-39.5 665.5,-39.5 665.5,-18.5 570.5,-18.5"/>
<text text-anchor="middle" x="618" y="-26.5" font-family="Helvetica,sans-Serif" font-size="10.00">EventListManager</text>
</a>
</g>
<!-- Node8&#45;&gt;Node1 -->
<g id="edge14" class="edge"><title>Node8&#45;&gt;Node1</title>
<path fill="none" stroke="#9a32cd" stroke-dasharray="5,2" d="M656.469,-43.147C680.129,-52.5229 710.665,-65.86 736,-81 753.393,-91.3938 771.497,-106.202 782.987,-116.184"/>
<polygon fill="#9a32cd" stroke="#9a32cd" points="657.701,-39.8707 647.113,-39.5028 655.16,-46.3935 657.701,-39.8707"/>
<text text-anchor="middle" x="710" y="-85" font-family="Helvetica,sans-Serif" font-size="10.00"> evlmgr</text>
</g>
<!-- Node9 -->
<g id="node16" class="node"><title>Node9</title>
<a xlink:href="struct_event_list_manager_1_1state__t.html" target="_top" xlink:title="EventListManager::state_t">
<polygon fill="white" stroke="black" points="332.5,-0.5 332.5,-21.5 463.5,-21.5 463.5,-0.5 332.5,-0.5"/>
<text text-anchor="middle" x="398" y="-8.5" font-family="Helvetica,sans-Serif" font-size="10.00">EventListManager::state_t</text>
</a>
</g>
<!-- Node9&#45;&gt;Node8 -->
<g id="edge16" class="edge"><title>Node9&#45;&gt;Node8</title>
<path fill="none" stroke="#9a32cd" stroke-dasharray="5,2" d="M473.943,-17.2136C505.976,-19.8344 542.283,-22.805 570.434,-25.1083"/>
<polygon fill="#9a32cd" stroke="#9a32cd" points="473.961,-13.7034 463.709,-16.3762 473.391,-20.6801 473.961,-13.7034"/>
<text text-anchor="middle" x="517" y="-28" font-family="Helvetica,sans-Serif" font-size="10.00"> last</text>
</g>
<!-- Node10 -->
<g id="node18" class="node"><title>Node10</title>
<a xlink:href="class_range_manager.html" target="_top" xlink:title="RangeManager">
<polygon fill="white" stroke="black" points="576.5,-156.5 576.5,-177.5 659.5,-177.5 659.5,-156.5 576.5,-156.5"/>
<text text-anchor="middle" x="618" y="-164.5" font-family="Helvetica,sans-Serif" font-size="10.00">RangeManager</text>
</a>
</g>
<!-- Node10&#45;&gt;Node1 -->
<g id="edge18" class="edge"><title>Node10&#45;&gt;Node1</title>
<path fill="none" stroke="#9a32cd" stroke-dasharray="5,2" d="M669.524,-157.266C690.247,-153.157 714.323,-148.138 736,-143 743.022,-141.336 750.477,-139.426 757.639,-137.52"/>
<polygon fill="#9a32cd" stroke="#9a32cd" points="668.784,-153.844 659.646,-159.206 670.133,-160.713 668.784,-153.844"/>
<text text-anchor="middle" x="710" y="-158" font-family="Helvetica,sans-Serif" font-size="10.00"> rangemgr</text>
</g>
<!-- Node11 -->
<g id="node20" class="node"><title>Node11</title>
<a xlink:href="classant_1_1interval.html" target="_top" xlink:title="ant::interval\&lt; double \&gt;">
<polygon fill="white" stroke="black" points="138,-174.5 138,-195.5 252,-195.5 252,-174.5 138,-174.5"/>
<text text-anchor="middle" x="195" y="-182.5" font-family="Helvetica,sans-Serif" font-size="10.00">ant::interval&lt; double &gt;</text>
</a>
</g>
<!-- Node11&#45;&gt;Node10 -->
<g id="edge20" class="edge"><title>Node11&#45;&gt;Node10</title>
<path fill="none" stroke="#9a32cd" stroke-dasharray="5,2" d="M262.293,-186.275C334.181,-186.987 451.385,-186.281 552,-177 559.847,-176.276 568.182,-175.231 576.193,-174.087"/>
<polygon fill="#9a32cd" stroke="#9a32cd" points="262.062,-182.772 252.023,-186.16 261.983,-189.772 262.062,-182.772"/>
<text text-anchor="middle" x="398" y="-190" font-family="Helvetica,sans-Serif" font-size="10.00"> emptyRange</text>
</g>
<!-- Node11&#45;&gt;Node13 -->
<g id="edge26" class="edge"><title>Node11&#45;&gt;Node13</title>
<path fill="none" stroke="#9a32cd" stroke-dasharray="5,2" d="M259.811,-172.549C283.982,-167.905 311.36,-162.645 335.335,-158.039"/>
<polygon fill="#9a32cd" stroke="#9a32cd" points="258.827,-169.174 249.667,-174.497 260.148,-176.048 258.827,-169.174"/>
<text text-anchor="middle" x="292" y="-174" font-family="Helvetica,sans-Serif" font-size="10.00"> elements</text>
</g>
<!-- Node12 -->
<g id="node22" class="node"><title>Node12</title>
<a xlink:href="classant_1_1printable__traits.html" target="_top" xlink:title="ant::printable_traits">
<polygon fill="white" stroke="black" points="0,-174.5 0,-195.5 100,-195.5 100,-174.5 0,-174.5"/>
<text text-anchor="middle" x="50" y="-182.5" font-family="Helvetica,sans-Serif" font-size="10.00">ant::printable_traits</text>
</a>
</g>
<!-- Node12&#45;&gt;Node11 -->
<g id="edge22" class="edge"><title>Node12&#45;&gt;Node11</title>
<path fill="none" stroke="midnightblue" d="M110.411,-185C119.486,-185 128.821,-185 137.826,-185"/>
<polygon fill="midnightblue" stroke="midnightblue" points="110.307,-181.5 100.307,-185 110.307,-188.5 110.307,-181.5"/>
</g>
<!-- Node13&#45;&gt;Node10 -->
<g id="edge24" class="edge"><title>Node13&#45;&gt;Node10</title>
<path fill="none" stroke="#9a32cd" stroke-dasharray="5,2" d="M470.943,-152.963C505.98,-156.307 546.697,-160.194 576.391,-163.028"/>
<polygon fill="#9a32cd" stroke="#9a32cd" points="471.036,-149.456 460.749,-151.99 470.371,-156.424 471.036,-149.456"/>
<text text-anchor="middle" x="517" y="-164" font-family="Helvetica,sans-Serif" font-size="10.00"> ranges</text>
</g>
<!-- Node14&#45;&gt;Node1 -->
<g id="edge30" class="edge"><title>Node14&#45;&gt;Node1</title>
<path fill="none" stroke="#9a32cd" stroke-dasharray="5,2" d="M663.119,-94.8308C685.19,-98.9062 712.09,-104.237 736,-110 743.876,-111.898 752.275,-114.168 760.194,-116.421"/>
<polygon fill="#9a32cd" stroke="#9a32cd" points="663.492,-91.3413 653.026,-92.9923 662.237,-98.2279 663.492,-91.3413"/>
<text text-anchor="middle" x="710" y="-114" font-family="Helvetica,sans-Serif" font-size="10.00"> cutmgr</text>
</g>
</g>
</svg>
