<?xml version="1.0" encoding="UTF-8" standalone="no"?>
<!DOCTYPE svg PUBLIC "-//W3C//DTD SVG 1.1//EN"
 "http://www.w3.org/Graphics/SVG/1.1/DTD/svg11.dtd">
<!-- Generated by graphviz version 2.26.3 (20100126.1600)
 -->
<!-- Title: CutManager Pages: 1 -->
<svg width="164pt" height="248pt"
 viewBox="0.00 0.00 164.00 248.00" xmlns="http://www.w3.org/2000/svg" xmlns:xlink="http://www.w3.org/1999/xlink">
<g id="graph1" class="graph" transform="scale(1 1) rotate(0) translate(4 244)">
<title>CutManager</title>
<polygon fill="white" stroke="white" points="-4,5 -4,-244 161,-244 161,5 -4,5"/>
<!-- Node1 -->
<g id="node1" class="node"><title>Node1</title>
<polygon fill="#bfbfbf" stroke="black" points="24,-0.5 24,-21.5 94,-21.5 94,-0.5 24,-0.5"/>
<text text-anchor="middle" x="59" y="-8.5" font-family="Helvetica,sans-Serif" font-size="10.00">CutManager</text>
</g>
<!-- Node2 -->
<g id="node2" class="node"><title>Node2</title>
<polygon fill="white" stroke="#bfbfbf" points="65.5,-72.5 65.5,-93.5 156.5,-93.5 156.5,-72.5 65.5,-72.5"/>
<text text-anchor="middle" x="111" y="-80.5" font-family="Helvetica,sans-Serif" font-size="10.00">std::list&lt; string &gt;</text>
</g>
<!-- Node2&#45;&gt;Node1 -->
<g id="edge2" class="edge"><title>Node2&#45;&gt;Node1</title>
<path fill="none" stroke="#9a32cd" stroke-dasharray="5,2" d="M97.4209,-64.1981C87.6354,-50.649 74.7816,-32.8514 66.7043,-21.6674"/>
<polygon fill="#9a32cd" stroke="#9a32cd" points="94.6349,-66.3186 103.327,-72.3762 100.31,-62.2201 94.6349,-66.3186"/>
<text text-anchor="middle" x="100" y="-44.5" font-family="Helvetica,sans-Serif" font-size="10.00"> cuts</text>
</g>
<!-- Node3 -->
<g id="node4" class="node"><title>Node3</title>
<a xlink:title="STL class. ">
<polygon fill="white" stroke="#bfbfbf" points="17,-144.5 17,-165.5 77,-165.5 77,-144.5 17,-144.5"/>
<text text-anchor="middle" x="47" y="-152.5" font-family="Helvetica,sans-Serif" font-size="10.00">std::string</text>
</a>
</g>
<!-- Node3&#45;&gt;Node1 -->
<g id="edge8" class="edge"><title>Node3&#45;&gt;Node1</title>
<path fill="none" stroke="#9a32cd" stroke-dasharray="5,2" d="M42.6236,-134.607C39.642,-117.751 36.7707,-93.2268 40,-72 42.7693,-53.7966 49.9362,-33.552 54.633,-21.5674"/>
<polygon fill="#9a32cd" stroke="#9a32cd" points="39.1956,-135.315 44.5359,-144.465 46.0675,-133.982 39.1956,-135.315"/>
<text text-anchor="middle" x="48.5" y="-80.5" font-family="Helvetica,sans-Serif" font-size="10.00"> cut</text>
</g>
<!-- Node3&#45;&gt;Node2 -->
<g id="edge4" class="edge"><title>Node3&#45;&gt;Node2</title>
<path fill="none" stroke="#9a32cd" stroke-dasharray="5,2" d="M63.3697,-136.584C75.4546,-122.989 91.4819,-104.958 101.518,-93.6674"/>
<polygon fill="#9a32cd" stroke="#9a32cd" points="60.4711,-134.577 56.4434,-144.376 65.703,-139.227 60.4711,-134.577"/>
<text text-anchor="middle" x="105.5" y="-116.5" font-family="Helvetica,sans-Serif" font-size="10.00"> elements</text>
</g>
<!-- Node4 -->
<g id="node6" class="node"><title>Node4</title>
<a xlink:title="STL class. ">
<polygon fill="white" stroke="#bfbfbf" points="-0.5,-205 -0.5,-239 94.5,-239 94.5,-205 -0.5,-205"/>
<text text-anchor="start" x="7.5" y="-226" font-family="Helvetica,sans-Serif" font-size="10.00">std::basic_string&lt;</text>
<text text-anchor="middle" x="47" y="-213" font-family="Helvetica,sans-Serif" font-size="10.00"> char &gt;</text>
</a>
</g>
<!-- Node4&#45;&gt;Node3 -->
<g id="edge6" class="edge"><title>Node4&#45;&gt;Node3</title>
<path fill="none" stroke="midnightblue" d="M47,-194.534C47,-184.306 47,-173.301 47,-165.506"/>
<polygon fill="midnightblue" stroke="midnightblue" points="43.5001,-194.746 47,-204.746 50.5001,-194.746 43.5001,-194.746"/>
</g>
</g>
</svg>
