<?xml version="1.0" encoding="UTF-8" standalone="no"?>
<!DOCTYPE svg PUBLIC "-//W3C//DTD SVG 1.1//EN"
 "http://www.w3.org/Graphics/SVG/1.1/DTD/svg11.dtd">
<!-- Generated by graphviz version 2.26.3 (20100126.1600)
 -->
<!-- Title: ant::ExpConfig::Reconstruct Pages: 1 -->
<svg width="762pt" height="146pt"
 viewBox="0.00 0.00 762.00 146.00" xmlns="http://www.w3.org/2000/svg" xmlns:xlink="http://www.w3.org/1999/xlink">
<g id="graph1" class="graph" transform="scale(1 1) rotate(0) translate(4 142)">
<title>ant::ExpConfig::Reconstruct</title>
<polygon fill="white" stroke="white" points="-4,5 -4,-142 759,-142 759,5 -4,5"/>
<!-- Node1 -->
<g id="node1" class="node"><title>Node1</title>
<polygon fill="#bfbfbf" stroke="black" points="146.5,-32.5 146.5,-53.5 287.5,-53.5 287.5,-32.5 146.5,-32.5"/>
<text text-anchor="middle" x="217" y="-40.5" font-family="Helvetica,sans-Serif" font-size="10.00">ant::ExpConfig::Reconstruct</text>
</g>
<!-- Node3 -->
<g id="node5" class="node"><title>Node3</title>
<a xlink:href="classant_1_1expconfig_1_1_setup.html" target="_top" xlink:title="The Setup class serves as a base class for all known beamtime setup configurations. ">
<polygon fill="white" stroke="black" points="324,-32.5 324,-53.5 434,-53.5 434,-32.5 324,-32.5"/>
<text text-anchor="middle" x="379" y="-40.5" font-family="Helvetica,sans-Serif" font-size="10.00">ant::expconfig::Setup</text>
</a>
</g>
<!-- Node1&#45;&gt;Node3 -->
<g id="edge4" class="edge"><title>Node1&#45;&gt;Node3</title>
<path fill="none" stroke="midnightblue" d="M297.85,-43C306.617,-43 315.387,-43 323.748,-43"/>
<polygon fill="midnightblue" stroke="midnightblue" points="297.584,-39.5001 287.584,-43 297.584,-46.5001 297.584,-39.5001"/>
</g>
<!-- Node2 -->
<g id="node2" class="node"><title>Node2</title>
<a xlink:href="classant_1_1_exp_config_1_1_base.html" target="_top" xlink:title="ant::ExpConfig::Base">
<polygon fill="white" stroke="black" points="0,-32.5 0,-53.5 110,-53.5 110,-32.5 0,-32.5"/>
<text text-anchor="middle" x="55" y="-40.5" font-family="Helvetica,sans-Serif" font-size="10.00">ant::ExpConfig::Base</text>
</a>
</g>
<!-- Node2&#45;&gt;Node1 -->
<g id="edge2" class="edge"><title>Node2&#45;&gt;Node1</title>
<path fill="none" stroke="midnightblue" d="M120.564,-43C129.099,-43 137.871,-43 146.483,-43"/>
<polygon fill="midnightblue" stroke="midnightblue" points="120.298,-39.5001 110.298,-43 120.298,-46.5001 120.298,-39.5001"/>
</g>
<!-- Node4 -->
<g id="node7" class="node"><title>Node4</title>
<a xlink:href="classant_1_1expconfig_1_1setup_1_1_setup__2014___e_p_t.html" target="_top" xlink:title="ant::expconfig::setup\l::Setup_2014_EPT">
<polygon fill="white" stroke="black" points="470,-52 470,-86 578,-86 578,-52 470,-52"/>
<text text-anchor="start" x="478" y="-73" font-family="Helvetica,sans-Serif" font-size="10.00">ant::expconfig::setup</text>
<text text-anchor="middle" x="524" y="-60" font-family="Helvetica,sans-Serif" font-size="10.00">::Setup_2014_EPT</text>
</a>
</g>
<!-- Node3&#45;&gt;Node4 -->
<g id="edge6" class="edge"><title>Node3&#45;&gt;Node4</title>
<path fill="none" stroke="midnightblue" d="M444.213,-54.6933C452.793,-56.2319 461.512,-57.7952 469.88,-59.2957"/>
<polygon fill="midnightblue" stroke="midnightblue" points="444.693,-51.2236 434.232,-52.9037 443.457,-58.1137 444.693,-51.2236"/>
</g>
<!-- Node8 -->
<g id="node15" class="node"><title>Node8</title>
<a xlink:href="classant_1_1expconfig_1_1setup_1_1_setup___test.html" target="_top" xlink:title="The Setup_Test class exists to run the test cases below test/. ">
<polygon fill="white" stroke="black" points="470,-0 470,-34 578,-34 578,-0 470,-0"/>
<text text-anchor="start" x="478" y="-21" font-family="Helvetica,sans-Serif" font-size="10.00">ant::expconfig::setup</text>
<text text-anchor="middle" x="524" y="-8" font-family="Helvetica,sans-Serif" font-size="10.00">::Setup_Test</text>
</a>
</g>
<!-- Node3&#45;&gt;Node8 -->
<g id="edge14" class="edge"><title>Node3&#45;&gt;Node8</title>
<path fill="none" stroke="midnightblue" d="M444.213,-31.3067C452.793,-29.7681 461.512,-28.2048 469.88,-26.7043"/>
<polygon fill="midnightblue" stroke="midnightblue" points="443.457,-27.8863 434.232,-33.0963 444.693,-34.7764 443.457,-27.8863"/>
</g>
<!-- Node5 -->
<g id="node9" class="node"><title>Node5</title>
<a xlink:href="classant_1_1expconfig_1_1setup_1_1_setup__2014__07___e_p_t___prod.html" target="_top" xlink:title="ant::expconfig::setup\l::Setup_2014_07_EPT_Prod">
<polygon fill="white" stroke="black" points="614,-104 614,-138 754,-138 754,-104 614,-104"/>
<text text-anchor="start" x="622" y="-125" font-family="Helvetica,sans-Serif" font-size="10.00">ant::expconfig::setup</text>
<text text-anchor="middle" x="684" y="-112" font-family="Helvetica,sans-Serif" font-size="10.00">::Setup_2014_07_EPT_Prod</text>
</a>
</g>
<!-- Node4&#45;&gt;Node5 -->
<g id="edge8" class="edge"><title>Node4&#45;&gt;Node5</title>
<path fill="none" stroke="midnightblue" d="M586.096,-89.1812C601.096,-94.0562 616.981,-99.2189 631.492,-103.935"/>
<polygon fill="midnightblue" stroke="midnightblue" points="586.982,-85.7891 576.39,-86.0267 584.819,-92.4463 586.982,-85.7891"/>
</g>
<!-- Node6 -->
<g id="node11" class="node"><title>Node6</title>
<a xlink:href="classant_1_1expconfig_1_1setup_1_1_setup__2014__10___e_p_t___prod.html" target="_top" xlink:title="ant::expconfig::setup\l::Setup_2014_10_EPT_Prod">
<polygon fill="white" stroke="black" points="614,-52 614,-86 754,-86 754,-52 614,-52"/>
<text text-anchor="start" x="622" y="-73" font-family="Helvetica,sans-Serif" font-size="10.00">ant::expconfig::setup</text>
<text text-anchor="middle" x="684" y="-60" font-family="Helvetica,sans-Serif" font-size="10.00">::Setup_2014_10_EPT_Prod</text>
</a>
</g>
<!-- Node4&#45;&gt;Node6 -->
<g id="edge10" class="edge"><title>Node4&#45;&gt;Node6</title>
<path fill="none" stroke="midnightblue" d="M588.246,-69C596.626,-69 605.247,-69 613.72,-69"/>
<polygon fill="midnightblue" stroke="midnightblue" points="588.169,-65.5001 578.169,-69 588.169,-72.5001 588.169,-65.5001"/>
</g>
<!-- Node7 -->
<g id="node13" class="node"><title>Node7</title>
<a xlink:href="classant_1_1expconfig_1_1setup_1_1_setup__2014__12___e_p_t___prod.html" target="_top" xlink:title="ant::expconfig::setup\l::Setup_2014_12_EPT_Prod">
<polygon fill="white" stroke="black" points="614,-0 614,-34 754,-34 754,-0 614,-0"/>
<text text-anchor="start" x="622" y="-21" font-family="Helvetica,sans-Serif" font-size="10.00">ant::expconfig::setup</text>
<text text-anchor="middle" x="684" y="-8" font-family="Helvetica,sans-Serif" font-size="10.00">::Setup_2014_12_EPT_Prod</text>
</a>
</g>
<!-- Node4&#45;&gt;Node7 -->
<g id="edge12" class="edge"><title>Node4&#45;&gt;Node7</title>
<path fill="none" stroke="midnightblue" d="M586.096,-48.8188C601.096,-43.9438 616.981,-38.7811 631.492,-34.065"/>
<polygon fill="midnightblue" stroke="midnightblue" points="584.819,-45.5537 576.39,-51.9733 586.982,-52.2109 584.819,-45.5537"/>
</g>
</g>
</svg>
