<?xml version="1.0" encoding="UTF-8" standalone="no"?>
<!DOCTYPE svg PUBLIC "-//W3C//DTD SVG 1.1//EN"
 "http://www.w3.org/Graphics/SVG/1.1/DTD/svg11.dtd">
<!-- Generated by graphviz version 2.26.3 (20100126.1600)
 -->
<!-- Title: CanvasManager Pages: 1 -->
<svg width="125pt" height="248pt"
 viewBox="0.00 0.00 125.00 248.00" xmlns="http://www.w3.org/2000/svg" xmlns:xlink="http://www.w3.org/1999/xlink">
<g id="graph1" class="graph" transform="scale(1 1) rotate(0) translate(4 244)">
<title>CanvasManager</title>
<polygon fill="white" stroke="white" points="-4,5 -4,-244 122,-244 122,5 -4,5"/>
<!-- Node1 -->
<g id="node1" class="node"><title>Node1</title>
<polygon fill="#bfbfbf" stroke="black" points="3,-0.5 3,-21.5 91,-21.5 91,-0.5 3,-0.5"/>
<text text-anchor="middle" x="47" y="-8.5" font-family="Helvetica,sans-Serif" font-size="10.00">CanvasManager</text>
</g>
<!-- Node2 -->
<g id="node2" class="node"><title>Node2</title>
<polygon fill="white" stroke="#bfbfbf" points="1.5,-72.5 1.5,-93.5 92.5,-93.5 92.5,-72.5 1.5,-72.5"/>
<text text-anchor="middle" x="47" y="-80.5" font-family="Helvetica,sans-Serif" font-size="10.00">std::list&lt; string &gt;</text>
</g>
<!-- Node2&#45;&gt;Node1 -->
<g id="edge2" class="edge"><title>Node2&#45;&gt;Node1</title>
<path fill="none" stroke="#9a32cd" stroke-dasharray="5,2" d="M47,-62.2348C47,-48.969 47,-32.3188 47,-21.6674"/>
<polygon fill="#9a32cd" stroke="#9a32cd" points="43.5001,-62.3761 47,-72.3762 50.5001,-62.3762 43.5001,-62.3761"/>
<text text-anchor="middle" x="82" y="-44.5" font-family="Helvetica,sans-Serif" font-size="10.00"> canvas_names</text>
</g>
<!-- Node3 -->
<g id="node4" class="node"><title>Node3</title>
<a xlink:title="STL class. ">
<polygon fill="white" stroke="#bfbfbf" points="17,-144.5 17,-165.5 77,-165.5 77,-144.5 17,-144.5"/>
<text text-anchor="middle" x="47" y="-152.5" font-family="Helvetica,sans-Serif" font-size="10.00">std::string</text>
</a>
</g>
<!-- Node3&#45;&gt;Node2 -->
<g id="edge4" class="edge"><title>Node3&#45;&gt;Node2</title>
<path fill="none" stroke="#9a32cd" stroke-dasharray="5,2" d="M47,-134.235C47,-120.969 47,-104.319 47,-93.6674"/>
<polygon fill="#9a32cd" stroke="#9a32cd" points="43.5001,-134.376 47,-144.376 50.5001,-134.376 43.5001,-134.376"/>
<text text-anchor="middle" x="68.5" y="-116.5" font-family="Helvetica,sans-Serif" font-size="10.00"> elements</text>
</g>
<!-- Node4 -->
<g id="node6" class="node"><title>Node4</title>
<a xlink:title="STL class. ">
<polygon fill="white" stroke="#bfbfbf" points="-0.5,-205 -0.5,-239 94.5,-239 94.5,-205 -0.5,-205"/>
<text text-anchor="start" x="7.5" y="-226" font-family="Helvetica,sans-Serif" font-size="10.00">std::basic_string&lt;</text>
<text text-anchor="middle" x="47" y="-213" font-family="Helvetica,sans-Serif" font-size="10.00"> char &gt;</text>
</a>
</g>
<!-- Node4&#45;&gt;Node3 -->
<g id="edge6" class="edge"><title>Node4&#45;&gt;Node3</title>
<path fill="none" stroke="midnightblue" d="M47,-194.534C47,-184.306 47,-173.301 47,-165.506"/>
<polygon fill="midnightblue" stroke="midnightblue" points="43.5001,-194.746 47,-204.746 50.5001,-194.746 43.5001,-194.746"/>
</g>
</g>
</svg>
