<?xml version="1.0" encoding="UTF-8" standalone="no"?>
<!DOCTYPE svg PUBLIC "-//W3C//DTD SVG 1.1//EN"
 "http://www.w3.org/Graphics/SVG/1.1/DTD/svg11.dtd">
<!-- Generated by graphviz version 2.26.3 (20100126.1600)
 -->
<!-- Title: ant::analysis::data::Particle Pages: 1 -->
<svg width="422pt" height="288pt"
 viewBox="0.00 0.00 422.00 288.00" xmlns="http://www.w3.org/2000/svg" xmlns:xlink="http://www.w3.org/1999/xlink">
<g id="graph1" class="graph" transform="scale(1 1) rotate(0) translate(4 284)">
<title>ant::analysis::data::Particle</title>
<polygon fill="white" stroke="white" points="-4,5 -4,-284 419,-284 419,5 -4,5"/>
<!-- Node1 -->
<g id="node1" class="node"><title>Node1</title>
<polygon fill="#bfbfbf" stroke="black" points="101.5,-1 101.5,-35 198.5,-35 198.5,-1 101.5,-1"/>
<text text-anchor="start" x="109.5" y="-22" font-family="Helvetica,sans-Serif" font-size="10.00">ant::analysis::data</text>
<text text-anchor="middle" x="150" y="-9" font-family="Helvetica,sans-Serif" font-size="10.00">::Particle</text>
</g>
<!-- Node2 -->
<g id="node2" class="node"><title>Node2</title>
<polygon fill="white" stroke="#bfbfbf" points="-0.5,-93.5 -0.5,-114.5 82.5,-114.5 82.5,-93.5 -0.5,-93.5"/>
<text text-anchor="middle" x="41" y="-101.5" font-family="Helvetica,sans-Serif" font-size="10.00">TLorentzVector</text>
</g>
<!-- Node2&#45;&gt;Node1 -->
<g id="edge2" class="edge"><title>Node2&#45;&gt;Node1</title>
<path fill="none" stroke="midnightblue" d="M62.4355,-87.0875C81.457,-72.0798 109.117,-50.2563 128.237,-35.1709"/>
<polygon fill="midnightblue" stroke="midnightblue" points="60.0483,-84.5128 54.3655,-93.4547 64.3842,-90.0083 60.0483,-84.5128"/>
</g>
<!-- Node3 -->
<g id="node4" class="node"><title>Node3</title>
<a xlink:href="classant_1_1printable__traits.html" target="_top" xlink:title="ant::printable_traits">
<polygon fill="white" stroke="black" points="100,-93.5 100,-114.5 200,-114.5 200,-93.5 100,-93.5"/>
<text text-anchor="middle" x="150" y="-101.5" font-family="Helvetica,sans-Serif" font-size="10.00">ant::printable_traits</text>
</a>
</g>
<!-- Node3&#45;&gt;Node1 -->
<g id="edge4" class="edge"><title>Node3&#45;&gt;Node1</title>
<path fill="none" stroke="midnightblue" d="M150,-83.3098C150,-68.5851 150,-49.0331 150,-35.1709"/>
<polygon fill="midnightblue" stroke="midnightblue" points="146.5,-83.4547 150,-93.4547 153.5,-83.4547 146.5,-83.4547"/>
</g>
<!-- Node4 -->
<g id="node6" class="node"><title>Node4</title>
<a xlink:href="classant_1_1_particle_type_database_1_1_type.html" target="_top" xlink:title="ant::ParticleTypeDatabase\l::Type">
<polygon fill="white" stroke="black" points="217.5,-87 217.5,-121 350.5,-121 350.5,-87 217.5,-87"/>
<text text-anchor="start" x="225.5" y="-108" font-family="Helvetica,sans-Serif" font-size="10.00">ant::ParticleTypeDatabase</text>
<text text-anchor="middle" x="284" y="-95" font-family="Helvetica,sans-Serif" font-size="10.00">::Type</text>
</a>
</g>
<!-- Node4&#45;&gt;Node1 -->
<g id="edge6" class="edge"><title>Node4&#45;&gt;Node1</title>
<path fill="none" stroke="#9a32cd" stroke-dasharray="5,2" d="M248.595,-81.2777C226.071,-66.8219 197.369,-48.4007 176.748,-35.1669"/>
<polygon fill="#9a32cd" stroke="#9a32cd" points="246.899,-84.3476 257.205,-86.8033 250.68,-78.4565 246.899,-84.3476"/>
<text text-anchor="middle" x="236" y="-58.5" font-family="Helvetica,sans-Serif" font-size="10.00"> type</text>
</g>
<!-- Node4&#45;&gt;Node4 -->
<g id="edge12" class="edge"><title>Node4&#45;&gt;Node4</title>
<path fill="none" stroke="#9a32cd" stroke-dasharray="5,2" d="M360.629,-109.443C365.236,-108.147 368,-106.333 368,-104 368,-100.268 360.924,-97.8619 350.545,-96.783"/>
<polygon fill="#9a32cd" stroke="#9a32cd" points="359.787,-106.038 350.545,-111.217 361,-112.932 359.787,-106.038"/>
<text text-anchor="middle" x="391" y="-101.5" font-family="Helvetica,sans-Serif" font-size="10.00"> sametype</text>
</g>
<!-- Node5 -->
<g id="node8" class="node"><title>Node5</title>
<a xlink:title="STL class. ">
<polygon fill="white" stroke="#bfbfbf" points="254,-184.5 254,-205.5 314,-205.5 314,-184.5 254,-184.5"/>
<text text-anchor="middle" x="284" y="-192.5" font-family="Helvetica,sans-Serif" font-size="10.00">std::string</text>
</a>
</g>
<!-- Node5&#45;&gt;Node4 -->
<g id="edge8" class="edge"><title>Node5&#45;&gt;Node4</title>
<path fill="none" stroke="#9a32cd" stroke-dasharray="5,2" d="M284,-173.755C284,-157.799 284,-136.221 284,-121.309"/>
<polygon fill="#9a32cd" stroke="#9a32cd" points="280.5,-174.204 284,-184.204 287.5,-174.204 280.5,-174.204"/>
<text text-anchor="middle" x="310" y="-157" font-family="Helvetica,sans-Serif" font-size="10.00"> print_name</text>
<text text-anchor="middle" x="310" y="-144" font-family="Helvetica,sans-Serif" font-size="10.00">name</text>
</g>
<!-- Node6 -->
<g id="node10" class="node"><title>Node6</title>
<a xlink:title="STL class. ">
<polygon fill="white" stroke="#bfbfbf" points="236.5,-245 236.5,-279 331.5,-279 331.5,-245 236.5,-245"/>
<text text-anchor="start" x="244.5" y="-266" font-family="Helvetica,sans-Serif" font-size="10.00">std::basic_string&lt;</text>
<text text-anchor="middle" x="284" y="-253" font-family="Helvetica,sans-Serif" font-size="10.00"> char &gt;</text>
</a>
</g>
<!-- Node6&#45;&gt;Node5 -->
<g id="edge10" class="edge"><title>Node6&#45;&gt;Node5</title>
<path fill="none" stroke="midnightblue" d="M284,-234.534C284,-224.306 284,-213.301 284,-205.506"/>
<polygon fill="midnightblue" stroke="midnightblue" points="280.5,-234.746 284,-244.746 287.5,-234.746 280.5,-234.746"/>
</g>
</g>
</svg>
