<?xml version="1.0" encoding="UTF-8" standalone="no"?>
<!DOCTYPE svg PUBLIC "-//W3C//DTD SVG 1.1//EN"
 "http://www.w3.org/Graphics/SVG/1.1/DTD/svg11.dtd">
<!-- Generated by graphviz version 2.26.3 (20100126.1600)
 -->
<!-- Title: ant::Updateable_traits Pages: 1 -->
<svg width="608pt" height="290pt"
 viewBox="0.00 0.00 608.00 290.00" xmlns="http://www.w3.org/2000/svg" xmlns:xlink="http://www.w3.org/1999/xlink">
<g id="graph1" class="graph" transform="scale(1 1) rotate(0) translate(4 286)">
<title>ant::Updateable_traits</title>
<polygon fill="white" stroke="white" points="-4,5 -4,-286 605,-286 605,5 -4,5"/>
<!-- Node1 -->
<g id="node1" class="node"><title>Node1</title>
<polygon fill="#bfbfbf" stroke="black" points="0.5,-81.5 0.5,-102.5 113.5,-102.5 113.5,-81.5 0.5,-81.5"/>
<text text-anchor="middle" x="57" y="-89.5" font-family="Helvetica,sans-Serif" font-size="10.00">ant::Updateable_traits</text>
</g>
<!-- Node2 -->
<g id="node3" class="node"><title>Node2</title>
<a xlink:href="classant_1_1_calibration_1_1_module.html" target="_top" xlink:title="The Module class is typically used for calibrations. ">
<polygon fill="white" stroke="black" points="150,-101.5 150,-122.5 270,-122.5 270,-101.5 150,-101.5"/>
<text text-anchor="middle" x="210" y="-109.5" font-family="Helvetica,sans-Serif" font-size="10.00">ant::Calibration::Module</text>
</a>
</g>
<!-- Node1&#45;&gt;Node2 -->
<g id="edge2" class="edge"><title>Node1&#45;&gt;Node2</title>
<path fill="none" stroke="midnightblue" d="M123.655,-100.713C132.366,-101.852 141.25,-103.013 149.845,-104.137"/>
<polygon fill="midnightblue" stroke="midnightblue" points="123.906,-97.2162 113.537,-99.3904 122.999,-104.157 123.906,-97.2162"/>
</g>
<!-- Node13 -->
<g id="node25" class="node"><title>Node13</title>
<a xlink:href="struct_updateable_item.html" target="_top" xlink:title="UpdateableItem">
<polygon fill="white" stroke="black" points="167,-61.5 167,-82.5 253,-82.5 253,-61.5 167,-61.5"/>
<text text-anchor="middle" x="210" y="-69.5" font-family="Helvetica,sans-Serif" font-size="10.00">UpdateableItem</text>
</a>
</g>
<!-- Node1&#45;&gt;Node13 -->
<g id="edge24" class="edge"><title>Node1&#45;&gt;Node13</title>
<path fill="none" stroke="midnightblue" d="M123.533,-83.3029C138.123,-81.3956 153.206,-79.4241 166.609,-77.6721"/>
<polygon fill="midnightblue" stroke="midnightblue" points="122.999,-79.8428 113.537,-84.6096 123.906,-86.7838 122.999,-79.8428"/>
</g>
<!-- Node3 -->
<g id="node5" class="node"><title>Node3</title>
<a xlink:href="classant_1_1calibration_1_1_c_b___time_walk.html" target="_top" xlink:title="ant::calibration::CB\l_TimeWalk">
<polygon fill="white" stroke="black" points="314.5,-164 314.5,-198 415.5,-198 415.5,-164 314.5,-164"/>
<text text-anchor="start" x="322.5" y="-185" font-family="Helvetica,sans-Serif" font-size="10.00">ant::calibration::CB</text>
<text text-anchor="middle" x="365" y="-172" font-family="Helvetica,sans-Serif" font-size="10.00">_TimeWalk</text>
</a>
</g>
<!-- Node2&#45;&gt;Node3 -->
<g id="edge4" class="edge"><title>Node2&#45;&gt;Node3</title>
<path fill="none" stroke="midnightblue" d="M242.843,-126.77C261.376,-135.089 284.966,-145.655 306,-155 312.547,-157.909 319.508,-160.988 326.266,-163.971"/>
<polygon fill="midnightblue" stroke="midnightblue" points="244.21,-123.547 233.653,-122.643 241.342,-129.932 244.21,-123.547"/>
</g>
<!-- Node4 -->
<g id="node7" class="node"><title>Node4</title>
<a xlink:href="classant_1_1calibration_1_1_energy.html" target="_top" xlink:title="ant::calibration::Energy">
<polygon fill="white" stroke="black" points="306.5,-124.5 306.5,-145.5 423.5,-145.5 423.5,-124.5 306.5,-124.5"/>
<text text-anchor="middle" x="365" y="-132.5" font-family="Helvetica,sans-Serif" font-size="10.00">ant::calibration::Energy</text>
</a>
</g>
<!-- Node2&#45;&gt;Node4 -->
<g id="edge6" class="edge"><title>Node2&#45;&gt;Node4</title>
<path fill="none" stroke="midnightblue" d="M280.447,-122.453C289.098,-123.737 297.868,-125.038 306.32,-126.293"/>
<polygon fill="midnightblue" stroke="midnightblue" points="280.776,-118.964 270.371,-120.958 279.749,-125.888 280.776,-118.964"/>
</g>
<!-- Node10 -->
<g id="node19" class="node"><title>Node10</title>
<a xlink:href="classant_1_1calibration_1_1_p_i_d___phi_angle.html" target="_top" xlink:title="ant::calibration::PID\l_PhiAngle">
<polygon fill="white" stroke="black" points="313,-72 313,-106 417,-106 417,-72 313,-72"/>
<text text-anchor="start" x="321" y="-93" font-family="Helvetica,sans-Serif" font-size="10.00">ant::calibration::PID</text>
<text text-anchor="middle" x="365" y="-80" font-family="Helvetica,sans-Serif" font-size="10.00">_PhiAngle</text>
</a>
</g>
<!-- Node2&#45;&gt;Node10 -->
<g id="edge18" class="edge"><title>Node2&#45;&gt;Node10</title>
<path fill="none" stroke="midnightblue" d="M280.276,-101.572C291.148,-99.9587 302.21,-98.3172 312.598,-96.7757"/>
<polygon fill="midnightblue" stroke="midnightblue" points="279.749,-98.1118 270.371,-103.042 280.776,-105.036 279.749,-98.1118"/>
</g>
<!-- Node11 -->
<g id="node21" class="node"><title>Node11</title>
<a xlink:href="classant_1_1calibration_1_1_time.html" target="_top" xlink:title="ant::calibration::Time">
<polygon fill="white" stroke="black" points="311,-29.5 311,-50.5 419,-50.5 419,-29.5 311,-29.5"/>
<text text-anchor="middle" x="365" y="-37.5" font-family="Helvetica,sans-Serif" font-size="10.00">ant::calibration::Time</text>
</a>
</g>
<!-- Node2&#45;&gt;Node11 -->
<g id="edge20" class="edge"><title>Node2&#45;&gt;Node11</title>
<path fill="none" stroke="midnightblue" d="M258.205,-97.651C262.275,-95.9261 266.26,-94.0429 270,-92 288.031,-82.1511 288.22,-73.2962 306,-63 314.277,-58.2068 323.742,-54.0151 332.632,-50.5697"/>
<polygon fill="midnightblue" stroke="midnightblue" points="256.672,-94.492 248.63,-101.389 259.218,-101.013 256.672,-94.492"/>
</g>
<!-- Node5 -->
<g id="node9" class="node"><title>Node5</title>
<a xlink:href="classant_1_1calibration_1_1_c_b___energy.html" target="_top" xlink:title="ant::calibration::CB\l_Energy">
<polygon fill="white" stroke="black" points="479.5,-248 479.5,-282 580.5,-282 580.5,-248 479.5,-248"/>
<text text-anchor="start" x="487.5" y="-269" font-family="Helvetica,sans-Serif" font-size="10.00">ant::calibration::CB</text>
<text text-anchor="middle" x="530" y="-256" font-family="Helvetica,sans-Serif" font-size="10.00">_Energy</text>
</a>
</g>
<!-- Node4&#45;&gt;Node5 -->
<g id="edge8" class="edge"><title>Node4&#45;&gt;Node5</title>
<path fill="none" stroke="midnightblue" d="M418.625,-150.696C420.52,-152.017 422.323,-153.449 424,-155 453.82,-182.578 430.581,-210.995 460,-239 465.54,-244.274 472.245,-248.498 479.283,-251.875"/>
<polygon fill="midnightblue" stroke="midnightblue" points="420.226,-147.579 409.82,-145.585 416.711,-153.632 420.226,-147.579"/>
</g>
<!-- Node6 -->
<g id="node11" class="node"><title>Node6</title>
<a xlink:href="classant_1_1calibration_1_1_p_i_d___energy.html" target="_top" xlink:title="ant::calibration::PID\l_Energy">
<polygon fill="white" stroke="black" points="478,-196 478,-230 582,-230 582,-196 478,-196"/>
<text text-anchor="start" x="486" y="-217" font-family="Helvetica,sans-Serif" font-size="10.00">ant::calibration::PID</text>
<text text-anchor="middle" x="530" y="-204" font-family="Helvetica,sans-Serif" font-size="10.00">_Energy</text>
</a>
</g>
<!-- Node4&#45;&gt;Node6 -->
<g id="edge10" class="edge"><title>Node4&#45;&gt;Node6</title>
<path fill="none" stroke="midnightblue" d="M413.006,-149.425C416.811,-151.122 420.523,-152.978 424,-155 442.506,-165.762 441.651,-175.973 460,-187 465.556,-190.339 471.612,-193.365 477.76,-196.074"/>
<polygon fill="midnightblue" stroke="midnightblue" points="414.019,-146.058 403.437,-145.534 411.382,-152.543 414.019,-146.058"/>
</g>
<!-- Node7 -->
<g id="node13" class="node"><title>Node7</title>
<a xlink:href="classant_1_1calibration_1_1_t_a_p_s___energy.html" target="_top" xlink:title="ant::calibration::TAPS\l_Energy">
<polygon fill="white" stroke="black" points="473.5,-144 473.5,-178 586.5,-178 586.5,-144 473.5,-144"/>
<text text-anchor="start" x="481.5" y="-165" font-family="Helvetica,sans-Serif" font-size="10.00">ant::calibration::TAPS</text>
<text text-anchor="middle" x="530" y="-152" font-family="Helvetica,sans-Serif" font-size="10.00">_Energy</text>
</a>
</g>
<!-- Node4&#45;&gt;Node7 -->
<g id="edge12" class="edge"><title>Node4&#45;&gt;Node7</title>
<path fill="none" stroke="midnightblue" d="M433.658,-145.819C446.918,-147.908 460.67,-150.075 473.489,-152.095"/>
<polygon fill="midnightblue" stroke="midnightblue" points="434.06,-142.339 423.637,-144.24 432.971,-149.254 434.06,-142.339"/>
</g>
<!-- Node8 -->
<g id="node15" class="node"><title>Node8</title>
<a xlink:href="classant_1_1calibration_1_1_t_a_p_s___short_energy.html" target="_top" xlink:title="ant::calibration::TAPS\l_ShortEnergy">
<polygon fill="white" stroke="black" points="473.5,-92 473.5,-126 586.5,-126 586.5,-92 473.5,-92"/>
<text text-anchor="start" x="481.5" y="-113" font-family="Helvetica,sans-Serif" font-size="10.00">ant::calibration::TAPS</text>
<text text-anchor="middle" x="530" y="-100" font-family="Helvetica,sans-Serif" font-size="10.00">_ShortEnergy</text>
</a>
</g>
<!-- Node4&#45;&gt;Node8 -->
<g id="edge14" class="edge"><title>Node4&#45;&gt;Node8</title>
<path fill="none" stroke="midnightblue" d="M433.658,-124.181C446.918,-122.092 460.67,-119.925 473.489,-117.905"/>
<polygon fill="midnightblue" stroke="midnightblue" points="432.971,-120.746 423.637,-125.76 434.06,-127.661 432.971,-120.746"/>
</g>
<!-- Node9 -->
<g id="node17" class="node"><title>Node9</title>
<a xlink:href="classant_1_1calibration_1_1_t_a_p_s_veto___energy.html" target="_top" xlink:title="ant::calibration::TAPSVeto\l_Energy">
<polygon fill="white" stroke="black" points="463.5,-40 463.5,-74 596.5,-74 596.5,-40 463.5,-40"/>
<text text-anchor="start" x="471.5" y="-61" font-family="Helvetica,sans-Serif" font-size="10.00">ant::calibration::TAPSVeto</text>
<text text-anchor="middle" x="530" y="-48" font-family="Helvetica,sans-Serif" font-size="10.00">_Energy</text>
</a>
</g>
<!-- Node4&#45;&gt;Node9 -->
<g id="edge16" class="edge"><title>Node4&#45;&gt;Node9</title>
<path fill="none" stroke="midnightblue" d="M413.006,-120.575C416.811,-118.878 420.523,-117.022 424,-115 442.506,-104.238 441.651,-94.0272 460,-83 465.445,-79.7278 471.37,-76.7557 477.392,-74.0887"/>
<polygon fill="midnightblue" stroke="midnightblue" points="411.382,-117.457 403.437,-124.466 414.019,-123.942 411.382,-117.457"/>
</g>
<!-- Node12 -->
<g id="node23" class="node"><title>Node12</title>
<a xlink:href="classant_1_1calibration_1_1_t_a_p_s___time.html" target="_top" xlink:title="ant::calibration::TAPS_Time">
<polygon fill="white" stroke="black" points="460,-0.5 460,-21.5 600,-21.5 600,-0.5 460,-0.5"/>
<text text-anchor="middle" x="530" y="-8.5" font-family="Helvetica,sans-Serif" font-size="10.00">ant::calibration::TAPS_Time</text>
</a>
</g>
<!-- Node11&#45;&gt;Node12 -->
<g id="edge22" class="edge"><title>Node11&#45;&gt;Node12</title>
<path fill="none" stroke="midnightblue" d="M429.178,-28.7203C442.66,-26.3506 456.83,-23.8602 470.147,-21.5196"/>
<polygon fill="midnightblue" stroke="midnightblue" points="428.27,-25.326 419.027,-30.5043 429.482,-32.2204 428.27,-25.326"/>
</g>
</g>
</svg>
