<?xml version="1.0" encoding="UTF-8" standalone="no"?>
<!DOCTYPE svg PUBLIC "-//W3C//DTD SVG 1.1//EN"
 "http://www.w3.org/Graphics/SVG/1.1/DTD/svg11.dtd">
<!-- Generated by graphviz version 2.26.3 (20100126.1600)
 -->
<!-- Title: ant::modifier Pages: 1 -->
<svg width="372pt" height="88pt"
 viewBox="0.00 0.00 372.00 88.00" xmlns="http://www.w3.org/2000/svg" xmlns:xlink="http://www.w3.org/1999/xlink">
<g id="graph1" class="graph" transform="scale(1 1) rotate(0) translate(4 84)">
<title>ant::modifier</title>
<polygon fill="white" stroke="white" points="-4,5 -4,-84 369,-84 369,5 -4,5"/>
<!-- Node1 -->
<g id="node1" class="node"><title>Node1</title>
<polygon fill="#bfbfbf" stroke="black" points="154.5,-58.5 154.5,-79.5 225.5,-79.5 225.5,-58.5 154.5,-58.5"/>
<text text-anchor="middle" x="190" y="-66.5" font-family="Helvetica,sans-Serif" font-size="10.00">ant::modifier</text>
</g>
<!-- Node2 -->
<g id="node3" class="node"><title>Node2</title>
<a xlink:href="classant_1_1drawoption.html" target="_top" xlink:title="ant::drawoption">
<polygon fill="white" stroke="black" points="-0.5,-0.5 -0.5,-21.5 82.5,-21.5 82.5,-0.5 -0.5,-0.5"/>
<text text-anchor="middle" x="41" y="-8.5" font-family="Helvetica,sans-Serif" font-size="10.00">ant::drawoption</text>
</a>
</g>
<!-- Node1&#45;&gt;Node2 -->
<g id="edge2" class="edge"><title>Node1&#45;&gt;Node2</title>
<path fill="none" stroke="midnightblue" d="M153.363,-54.7386C126.962,-44.4616 91.9196,-30.821 68.0334,-21.5231"/>
<polygon fill="midnightblue" stroke="midnightblue" points="152.429,-58.1307 163.017,-58.4966 154.968,-51.6075 152.429,-58.1307"/>
</g>
<!-- Node3 -->
<g id="node5" class="node"><title>Node3</title>
<a xlink:href="classant_1_1endcanvas.html" target="_top" xlink:title="ant::endcanvas">
<polygon fill="white" stroke="black" points="99.5,-0.5 99.5,-21.5 182.5,-21.5 182.5,-0.5 99.5,-0.5"/>
<text text-anchor="middle" x="141" y="-8.5" font-family="Helvetica,sans-Serif" font-size="10.00">ant::endcanvas</text>
</a>
</g>
<!-- Node1&#45;&gt;Node3 -->
<g id="edge4" class="edge"><title>Node1&#45;&gt;Node3</title>
<path fill="none" stroke="midnightblue" d="M174.405,-50.5407C166.327,-40.9786 156.753,-29.6467 149.93,-21.5707"/>
<polygon fill="midnightblue" stroke="midnightblue" points="171.885,-52.9818 181.013,-58.3619 177.233,-48.4643 171.885,-52.9818"/>
</g>
<!-- Node4 -->
<g id="node7" class="node"><title>Node4</title>
<a xlink:href="classant_1_1padoption.html" target="_top" xlink:title="ant::padoption">
<polygon fill="white" stroke="black" points="200,-0.5 200,-21.5 278,-21.5 278,-0.5 200,-0.5"/>
<text text-anchor="middle" x="239" y="-8.5" font-family="Helvetica,sans-Serif" font-size="10.00">ant::padoption</text>
</a>
</g>
<!-- Node1&#45;&gt;Node4 -->
<g id="edge6" class="edge"><title>Node1&#45;&gt;Node4</title>
<path fill="none" stroke="midnightblue" d="M205.595,-50.5407C213.673,-40.9786 223.247,-29.6467 230.07,-21.5707"/>
<polygon fill="midnightblue" stroke="midnightblue" points="202.767,-48.4643 198.987,-58.3619 208.115,-52.9818 202.767,-48.4643"/>
</g>
<!-- Node5 -->
<g id="node9" class="node"><title>Node5</title>
<a xlink:href="structant_1_1rowend.html" target="_top" xlink:title="ant::rowend">
<polygon fill="white" stroke="black" points="296,-0.5 296,-21.5 364,-21.5 364,-0.5 296,-0.5"/>
<text text-anchor="middle" x="330" y="-8.5" font-family="Helvetica,sans-Serif" font-size="10.00">ant::rowend</text>
</a>
</g>
<!-- Node1&#45;&gt;Node5 -->
<g id="edge8" class="edge"><title>Node1&#45;&gt;Node5</title>
<path fill="none" stroke="midnightblue" d="M224.722,-54.6153C249.406,-44.3889 282.015,-30.8796 304.363,-21.6212"/>
<polygon fill="midnightblue" stroke="midnightblue" points="223.252,-51.4357 215.353,-58.4966 225.931,-57.9027 223.252,-51.4357"/>
</g>
</g>
</svg>
