<?xml version="1.0" encoding="UTF-8" standalone="no"?>
<!DOCTYPE svg PUBLIC "-//W3C//DTD SVG 1.1//EN"
 "http://www.w3.org/Graphics/SVG/1.1/DTD/svg11.dtd">
<!-- Generated by graphviz version 2.26.3 (20100126.1600)
 -->
<!-- Title: ant::expconfig::Setup Pages: 1 -->
<svg width="854pt" height="387pt"
 viewBox="0.00 0.00 854.00 387.00" xmlns="http://www.w3.org/2000/svg" xmlns:xlink="http://www.w3.org/1999/xlink">
<g id="graph1" class="graph" transform="scale(1 1) rotate(0) translate(4 383)">
<title>ant::expconfig::Setup</title>
<polygon fill="white" stroke="white" points="-4,5 -4,-383 851,-383 851,5 -4,5"/>
<!-- Node1 -->
<g id="node1" class="node"><title>Node1</title>
<polygon fill="#bfbfbf" stroke="black" points="736,-184.5 736,-205.5 846,-205.5 846,-184.5 736,-184.5"/>
<text text-anchor="middle" x="791" y="-192.5" font-family="Helvetica,sans-Serif" font-size="10.00">ant::expconfig::Setup</text>
</g>
<!-- Node2 -->
<g id="node2" class="node"><title>Node2</title>
<a xlink:href="classant_1_1_exp_config_1_1_setup.html" target="_top" xlink:title="ant::ExpConfig::Setup">
<polygon fill="white" stroke="black" points="486.5,-312.5 486.5,-333.5 599.5,-333.5 599.5,-312.5 486.5,-312.5"/>
<text text-anchor="middle" x="543" y="-320.5" font-family="Helvetica,sans-Serif" font-size="10.00">ant::ExpConfig::Setup</text>
</a>
</g>
<!-- Node2&#45;&gt;Node1 -->
<g id="edge2" class="edge"><title>Node2&#45;&gt;Node1</title>
<path fill="none" stroke="midnightblue" d="M609.59,-312.229C643.779,-304.625 685.052,-292.102 718,-272 746.934,-254.347 771.987,-222.292 783.791,-205.657"/>
<polygon fill="midnightblue" stroke="midnightblue" points="608.739,-308.832 599.688,-314.339 610.198,-315.678 608.739,-308.832"/>
</g>
<!-- Node3 -->
<g id="node4" class="node"><title>Node3</title>
<a xlink:href="classant_1_1_exp_config_1_1_base.html" target="_top" xlink:title="ant::ExpConfig::Base">
<polygon fill="white" stroke="black" points="0,-239.5 0,-260.5 110,-260.5 110,-239.5 0,-239.5"/>
<text text-anchor="middle" x="55" y="-247.5" font-family="Helvetica,sans-Serif" font-size="10.00">ant::ExpConfig::Base</text>
</a>
</g>
<!-- Node3&#45;&gt;Node2 -->
<g id="edge4" class="edge"><title>Node3&#45;&gt;Node2</title>
<path fill="none" stroke="midnightblue" d="M76.6088,-266.595C94.6246,-279.393 121.532,-296.186 148,-304 264.383,-338.359 408.351,-334.33 486.334,-328.543"/>
<polygon fill="midnightblue" stroke="midnightblue" points="78.6604,-263.759 68.5199,-260.69 74.533,-269.413 78.6604,-263.759"/>
</g>
<!-- Node6 -->
<g id="node10" class="node"><title>Node6</title>
<a xlink:href="classant_1_1_exp_config_1_1_reconstruct.html" target="_top" xlink:title="ant::ExpConfig::Reconstruct">
<polygon fill="white" stroke="black" points="310.5,-222.5 310.5,-243.5 451.5,-243.5 451.5,-222.5 310.5,-222.5"/>
<text text-anchor="middle" x="381" y="-230.5" font-family="Helvetica,sans-Serif" font-size="10.00">ant::ExpConfig::Reconstruct</text>
</a>
</g>
<!-- Node3&#45;&gt;Node6 -->
<g id="edge12" class="edge"><title>Node3&#45;&gt;Node6</title>
<path fill="none" stroke="midnightblue" d="M120.288,-246.595C175.297,-243.727 253.838,-239.631 310.318,-236.686"/>
<polygon fill="midnightblue" stroke="midnightblue" points="120.106,-243.1 110.301,-247.116 120.47,-250.091 120.106,-243.1"/>
</g>
<!-- Node8 -->
<g id="node15" class="node"><title>Node8</title>
<a xlink:href="classant_1_1_exp_config_1_1_unpacker.html" target="_top" xlink:title="ant::ExpConfig::Unpacker\l\&lt; UnpackerAcquConfig \&gt;">
<polygon fill="white" stroke="black" points="155,-171 155,-205 285,-205 285,-171 155,-171"/>
<text text-anchor="start" x="163" y="-192" font-family="Helvetica,sans-Serif" font-size="10.00">ant::ExpConfig::Unpacker</text>
<text text-anchor="middle" x="220" y="-179" font-family="Helvetica,sans-Serif" font-size="10.00">&lt; UnpackerAcquConfig &gt;</text>
</a>
</g>
<!-- Node3&#45;&gt;Node8 -->
<g id="edge18" class="edge"><title>Node3&#45;&gt;Node8</title>
<path fill="none" stroke="midnightblue" d="M88.0056,-235.351C100.455,-229.993 114.798,-224.019 128,-219 140.604,-214.209 154.314,-209.384 167.209,-205.016"/>
<polygon fill="midnightblue" stroke="midnightblue" points="86.2631,-232.292 78.4851,-239.486 89.0517,-238.713 86.2631,-232.292"/>
</g>
<!-- Node10 -->
<g id="node20" class="node"><title>Node10</title>
<a xlink:href="classant_1_1_exp_config_1_1_unpacker.html" target="_top" xlink:title="ant::ExpConfig::Unpacker\l\&lt; UnpackerA2GeantConfig \&gt;">
<polygon fill="white" stroke="black" points="148.5,-261 148.5,-295 291.5,-295 291.5,-261 148.5,-261"/>
<text text-anchor="start" x="156.5" y="-282" font-family="Helvetica,sans-Serif" font-size="10.00">ant::ExpConfig::Unpacker</text>
<text text-anchor="middle" x="220" y="-269" font-family="Helvetica,sans-Serif" font-size="10.00">&lt; UnpackerA2GeantConfig &gt;</text>
</a>
</g>
<!-- Node3&#45;&gt;Node10 -->
<g id="edge24" class="edge"><title>Node3&#45;&gt;Node10</title>
<path fill="none" stroke="midnightblue" d="M120.264,-261.075C129.484,-262.64 139.004,-264.255 148.335,-265.839"/>
<polygon fill="midnightblue" stroke="midnightblue" points="120.846,-257.624 110.402,-259.401 119.675,-264.525 120.846,-257.624"/>
</g>
<!-- Node4 -->
<g id="node6" class="node"><title>Node4</title>
<a xlink:title="STL class. ">
<polygon fill="white" stroke="#bfbfbf" points="190,-351.5 190,-372.5 250,-372.5 250,-351.5 190,-351.5"/>
<text text-anchor="middle" x="220" y="-359.5" font-family="Helvetica,sans-Serif" font-size="10.00">std::string</text>
</a>
</g>
<!-- Node4&#45;&gt;Node2 -->
<g id="edge6" class="edge"><title>Node4&#45;&gt;Node2</title>
<path fill="none" stroke="#9a32cd" stroke-dasharray="5,2" d="M260.308,-358.215C306.636,-353.736 384.921,-345.77 452,-337 463.095,-335.55 474.926,-333.846 486.261,-332.135"/>
<polygon fill="#9a32cd" stroke="#9a32cd" points="259.703,-354.757 250.084,-359.197 260.372,-361.725 259.703,-354.757"/>
<text text-anchor="middle" x="381" y="-356" font-family="Helvetica,sans-Serif" font-size="10.00"> ManualName</text>
</g>
<!-- Node5 -->
<g id="node8" class="node"><title>Node5</title>
<a xlink:title="STL class. ">
<polygon fill="white" stroke="#bfbfbf" points="7.5,-345 7.5,-379 102.5,-379 102.5,-345 7.5,-345"/>
<text text-anchor="start" x="15.5" y="-366" font-family="Helvetica,sans-Serif" font-size="10.00">std::basic_string&lt;</text>
<text text-anchor="middle" x="55" y="-353" font-family="Helvetica,sans-Serif" font-size="10.00"> char &gt;</text>
</a>
</g>
<!-- Node5&#45;&gt;Node4 -->
<g id="edge8" class="edge"><title>Node5&#45;&gt;Node4</title>
<path fill="none" stroke="midnightblue" d="M112.805,-362C138.656,-362 168.072,-362 189.541,-362"/>
<polygon fill="midnightblue" stroke="midnightblue" points="112.725,-358.5 102.725,-362 112.725,-365.5 112.725,-358.5"/>
</g>
<!-- Node6&#45;&gt;Node1 -->
<g id="edge10" class="edge"><title>Node6&#45;&gt;Node1</title>
<path fill="none" stroke="midnightblue" d="M461.877,-229.93C530.313,-226.69 630.874,-220.416 718,-209 725.165,-208.061 732.689,-206.863 740.071,-205.564"/>
<polygon fill="midnightblue" stroke="midnightblue" points="461.426,-226.447 451.598,-230.406 461.749,-233.44 461.426,-226.447"/>
</g>
<!-- Node7 -->
<g id="node13" class="node"><title>Node7</title>
<a xlink:href="classant_1_1_unpacker_acqu_config.html" target="_top" xlink:title="ant::UnpackerAcquConfig">
<polygon fill="white" stroke="black" points="478.5,-184.5 478.5,-205.5 607.5,-205.5 607.5,-184.5 478.5,-184.5"/>
<text text-anchor="middle" x="543" y="-192.5" font-family="Helvetica,sans-Serif" font-size="10.00">ant::UnpackerAcquConfig</text>
</a>
</g>
<!-- Node7&#45;&gt;Node1 -->
<g id="edge14" class="edge"><title>Node7&#45;&gt;Node1</title>
<path fill="none" stroke="midnightblue" d="M617.983,-195C655.844,-195 700.972,-195 735.644,-195"/>
<polygon fill="midnightblue" stroke="midnightblue" points="617.512,-191.5 607.512,-195 617.512,-198.5 617.512,-191.5"/>
</g>
<!-- Node8&#45;&gt;Node7 -->
<g id="edge16" class="edge"><title>Node8&#45;&gt;Node7</title>
<path fill="none" stroke="midnightblue" d="M295.489,-189.636C350.955,-190.838 425.534,-192.454 478.285,-193.598"/>
<polygon fill="midnightblue" stroke="midnightblue" points="295.437,-186.134 285.364,-189.417 295.286,-193.132 295.437,-186.134"/>
</g>
<!-- Node9 -->
<g id="node18" class="node"><title>Node9</title>
<a xlink:href="classant_1_1_unpacker_a2_geant_config.html" target="_top" xlink:title="ant::UnpackerA2GeantConfig">
<polygon fill="white" stroke="black" points="470.5,-263.5 470.5,-284.5 615.5,-284.5 615.5,-263.5 470.5,-263.5"/>
<text text-anchor="middle" x="543" y="-271.5" font-family="Helvetica,sans-Serif" font-size="10.00">ant::UnpackerA2GeantConfig</text>
</a>
</g>
<!-- Node9&#45;&gt;Node1 -->
<g id="edge20" class="edge"><title>Node9&#45;&gt;Node1</title>
<path fill="none" stroke="midnightblue" d="M625.727,-269.903C655.637,-266.318 689.131,-259.79 718,-248 742.648,-237.933 766.752,-217.865 780.165,-205.517"/>
<polygon fill="midnightblue" stroke="midnightblue" points="625.287,-266.43 615.732,-271.01 626.057,-273.388 625.287,-266.43"/>
</g>
<!-- Node10&#45;&gt;Node9 -->
<g id="edge22" class="edge"><title>Node10&#45;&gt;Node9</title>
<path fill="none" stroke="midnightblue" d="M301.865,-276.986C353.789,-276.343 420.363,-275.519 470.399,-274.899"/>
<polygon fill="midnightblue" stroke="midnightblue" points="301.64,-273.489 291.684,-277.112 301.727,-280.488 301.64,-273.489"/>
</g>
<!-- Node11 -->
<g id="node23" class="node"><title>Node11</title>
<polygon fill="white" stroke="#bfbfbf" points="480.5,-132 480.5,-166 605.5,-166 605.5,-132 480.5,-132"/>
<text text-anchor="start" x="488.5" y="-153" font-family="Helvetica,sans-Serif" font-size="10.00">std::list&lt; std::shared</text>
<text text-anchor="middle" x="543" y="-140" font-family="Helvetica,sans-Serif" font-size="10.00">_ptr&lt; ant::Detector_t &gt; &gt;</text>
</g>
<!-- Node11&#45;&gt;Node1 -->
<g id="edge26" class="edge"><title>Node11&#45;&gt;Node1</title>
<path fill="none" stroke="#9a32cd" stroke-dasharray="5,2" d="M615.572,-159.95C647.129,-164.988 684.478,-171.326 718,-178 727.699,-179.931 738.074,-182.214 747.867,-184.469"/>
<polygon fill="#9a32cd" stroke="#9a32cd" points="615.967,-156.469 605.542,-158.36 614.871,-163.382 615.967,-156.469"/>
<text text-anchor="middle" x="676" y="-182" font-family="Helvetica,sans-Serif" font-size="10.00"> detectors</text>
</g>
<!-- Node12 -->
<g id="node25" class="node"><title>Node12</title>
<polygon fill="white" stroke="#bfbfbf" points="489,-66.5 489,-113.5 597,-113.5 597,-66.5 489,-66.5"/>
<text text-anchor="start" x="497" y="-100.5" font-family="Helvetica,sans-Serif" font-size="10.00">std::list&lt; std::shared</text>
<text text-anchor="start" x="497" y="-87.5" font-family="Helvetica,sans-Serif" font-size="10.00">_ptr&lt; ant::Calibration</text>
<text text-anchor="middle" x="543" y="-74.5" font-family="Helvetica,sans-Serif" font-size="10.00">::BaseModule &gt; &gt;</text>
</g>
<!-- Node12&#45;&gt;Node1 -->
<g id="edge28" class="edge"><title>Node12&#45;&gt;Node1</title>
<path fill="none" stroke="#9a32cd" stroke-dasharray="5,2" d="M607.051,-106.407C640.886,-116.171 682.618,-129.984 718,-147 740.008,-157.584 763.207,-173.84 777.395,-184.448"/>
<polygon fill="#9a32cd" stroke="#9a32cd" points="607.851,-102.996 597.275,-103.635 605.941,-109.73 607.851,-102.996"/>
<text text-anchor="middle" x="676" y="-151" font-family="Helvetica,sans-Serif" font-size="10.00"> calibrations</text>
</g>
<!-- Node13 -->
<g id="node27" class="node"><title>Node13</title>
<polygon fill="white" stroke="#bfbfbf" points="474,-0.5 474,-47.5 612,-47.5 612,-0.5 474,-0.5"/>
<text text-anchor="start" x="482" y="-34.5" font-family="Helvetica,sans-Serif" font-size="10.00">std::list&lt; std::shared</text>
<text text-anchor="start" x="482" y="-21.5" font-family="Helvetica,sans-Serif" font-size="10.00">_ptr&lt; ant::ReconstructHook</text>
<text text-anchor="middle" x="543" y="-8.5" font-family="Helvetica,sans-Serif" font-size="10.00">::Base &gt; &gt;</text>
</g>
<!-- Node13&#45;&gt;Node1 -->
<g id="edge30" class="edge"><title>Node13&#45;&gt;Node1</title>
<path fill="none" stroke="#9a32cd" stroke-dasharray="5,2" d="M621.965,-47.9421C653.822,-60.0208 689.664,-76.8816 718,-99 749.525,-123.607 774.645,-164.935 785.368,-184.335"/>
<polygon fill="#9a32cd" stroke="#9a32cd" points="622.812,-44.5242 612.219,-44.3466 620.389,-51.0915 622.812,-44.5242"/>
<text text-anchor="middle" x="676" y="-103" font-family="Helvetica,sans-Serif" font-size="10.00"> reconstruct_hooks</text>
</g>
</g>
</svg>
