<?xml version="1.0" encoding="UTF-8" standalone="no"?>
<!DOCTYPE svg PUBLIC "-//W3C//DTD SVG 1.1//EN"
 "http://www.w3.org/Graphics/SVG/1.1/DTD/svg11.dtd">
<!-- Generated by graphviz version 2.26.3 (20100126.1600)
 -->
<!-- Title: ant::analysis::physics::Etap3pi0::KinFitter Pages: 1 -->
<svg width="131pt" height="190pt"
 viewBox="0.00 0.00 131.00 190.00" xmlns="http://www.w3.org/2000/svg" xmlns:xlink="http://www.w3.org/1999/xlink">
<g id="graph1" class="graph" transform="scale(1 1) rotate(0) translate(4 186)">
<title>ant::analysis::physics::Etap3pi0::KinFitter</title>
<polygon fill="white" stroke="white" points="-4,5 -4,-186 128,-186 128,5 -4,5"/>
<!-- Node1 -->
<g id="node1" class="node"><title>Node1</title>
<polygon fill="#bfbfbf" stroke="black" points="0,-1 0,-35 112,-35 112,-1 0,-1"/>
<text text-anchor="start" x="8" y="-22" font-family="Helvetica,sans-Serif" font-size="10.00">ant::analysis::physics</text>
<text text-anchor="middle" x="56" y="-9" font-family="Helvetica,sans-Serif" font-size="10.00">::Etap3pi0::KinFitter</text>
</g>
<!-- Node2 -->
<g id="node2" class="node"><title>Node2</title>
<a xlink:title="STL class. ">
<polygon fill="white" stroke="#bfbfbf" points="26,-86.5 26,-107.5 86,-107.5 86,-86.5 26,-86.5"/>
<text text-anchor="middle" x="56" y="-94.5" font-family="Helvetica,sans-Serif" font-size="10.00">std::string</text>
</a>
</g>
<!-- Node2&#45;&gt;Node1 -->
<g id="edge2" class="edge"><title>Node2&#45;&gt;Node1</title>
<path fill="none" stroke="#9a32cd" stroke-dasharray="5,2" d="M56,-76.1618C56,-63.3635 56,-47.1713 56,-35.1236"/>
<polygon fill="#9a32cd" stroke="#9a32cd" points="52.5001,-76.3457 56,-86.3457 59.5001,-76.3457 52.5001,-76.3457"/>
<text text-anchor="middle" x="89.5" y="-58.5" font-family="Helvetica,sans-Serif" font-size="10.00"> egammaName</text>
</g>
<!-- Node3 -->
<g id="node4" class="node"><title>Node3</title>
<a xlink:title="STL class. ">
<polygon fill="white" stroke="#bfbfbf" points="8.5,-147 8.5,-181 103.5,-181 103.5,-147 8.5,-147"/>
<text text-anchor="start" x="16.5" y="-168" font-family="Helvetica,sans-Serif" font-size="10.00">std::basic_string&lt;</text>
<text text-anchor="middle" x="56" y="-155" font-family="Helvetica,sans-Serif" font-size="10.00"> char &gt;</text>
</a>
</g>
<!-- Node3&#45;&gt;Node2 -->
<g id="edge4" class="edge"><title>Node3&#45;&gt;Node2</title>
<path fill="none" stroke="midnightblue" d="M56,-136.534C56,-126.306 56,-115.301 56,-107.506"/>
<polygon fill="midnightblue" stroke="midnightblue" points="52.5001,-136.746 56,-146.746 59.5001,-136.746 52.5001,-136.746"/>
</g>
</g>
</svg>
