<?xml version="1.0" encoding="UTF-8" standalone="no"?>
<!DOCTYPE svg PUBLIC "-//W3C//DTD SVG 1.1//EN"
 "http://www.w3.org/Graphics/SVG/1.1/DTD/svg11.dtd">
<!-- Generated by graphviz version 2.26.3 (20100126.1600)
 -->
<!-- Title: ant::calibration::Time Pages: 1 -->
<svg width="728pt" height="231pt"
 viewBox="0.00 0.00 728.00 231.00" xmlns="http://www.w3.org/2000/svg" xmlns:xlink="http://www.w3.org/1999/xlink">
<g id="graph1" class="graph" transform="scale(1 1) rotate(0) translate(4 227)">
<title>ant::calibration::Time</title>
<polygon fill="white" stroke="white" points="-4,5 -4,-227 725,-227 725,5 -4,5"/>
<!-- Node1 -->
<g id="node1" class="node"><title>Node1</title>
<polygon fill="#bfbfbf" stroke="black" points="612,-89.5 612,-110.5 720,-110.5 720,-89.5 612,-89.5"/>
<text text-anchor="middle" x="666" y="-97.5" font-family="Helvetica,sans-Serif" font-size="10.00">ant::calibration::Time</text>
</g>
<!-- Node2 -->
<g id="node2" class="node"><title>Node2</title>
<a xlink:href="classant_1_1_calibration_1_1_module.html" target="_top" xlink:title="The Module class is typically used for calibrations. ">
<polygon fill="white" stroke="black" points="388,-149.5 388,-170.5 508,-170.5 508,-149.5 388,-149.5"/>
<text text-anchor="middle" x="448" y="-157.5" font-family="Helvetica,sans-Serif" font-size="10.00">ant::Calibration::Module</text>
</a>
</g>
<!-- Node2&#45;&gt;Node1 -->
<g id="edge2" class="edge"><title>Node2&#45;&gt;Node1</title>
<path fill="none" stroke="midnightblue" d="M496.436,-146.776C524.863,-139.003 561.479,-128.972 594,-120 605.13,-116.929 617.224,-113.577 628.266,-110.509"/>
<polygon fill="midnightblue" stroke="midnightblue" points="495.465,-143.413 486.742,-149.426 497.311,-150.165 495.465,-143.413"/>
</g>
<!-- Node3 -->
<g id="node4" class="node"><title>Node3</title>
<a xlink:href="classant_1_1_calibration_1_1_physics_module.html" target="_top" xlink:title="The PhysicsModule class gives the modules the ability to create histograms from events as well as fit...">
<polygon fill="white" stroke="black" points="182,-189 182,-223 306,-223 306,-189 182,-189"/>
<text text-anchor="start" x="190" y="-210" font-family="Helvetica,sans-Serif" font-size="10.00">ant::Calibration::Physics</text>
<text text-anchor="middle" x="244" y="-197" font-family="Helvetica,sans-Serif" font-size="10.00">Module</text>
</a>
</g>
<!-- Node3&#45;&gt;Node2 -->
<g id="edge4" class="edge"><title>Node3&#45;&gt;Node2</title>
<path fill="none" stroke="midnightblue" d="M315.892,-189.789C344.199,-183.406 375.903,-176.257 401.157,-170.563"/>
<polygon fill="midnightblue" stroke="midnightblue" points="315.023,-186.397 306.038,-192.011 316.563,-193.226 315.023,-186.397"/>
</g>
<!-- Node4 -->
<g id="node6" class="node"><title>Node4</title>
<a xlink:href="classant_1_1_calibration_1_1_base_module.html" target="_top" xlink:title="The BaseModule class provides a name for identification. ">
<polygon fill="white" stroke="black" points="0.5,-195.5 0.5,-216.5 143.5,-216.5 143.5,-195.5 0.5,-195.5"/>
<text text-anchor="middle" x="72" y="-203.5" font-family="Helvetica,sans-Serif" font-size="10.00">ant::Calibration::BaseModule</text>
</a>
</g>
<!-- Node4&#45;&gt;Node3 -->
<g id="edge6" class="edge"><title>Node4&#45;&gt;Node3</title>
<path fill="none" stroke="midnightblue" d="M154.063,-206C163.428,-206 172.856,-206 181.9,-206"/>
<polygon fill="midnightblue" stroke="midnightblue" points="153.947,-202.5 143.947,-206 153.947,-209.5 153.947,-202.5"/>
</g>
<!-- Node5 -->
<g id="node8" class="node"><title>Node5</title>
<a xlink:href="classant_1_1_updateable__traits.html" target="_top" xlink:title="The Updateable_traits class used by the UpdateableManager. ">
<polygon fill="white" stroke="black" points="187.5,-149.5 187.5,-170.5 300.5,-170.5 300.5,-149.5 187.5,-149.5"/>
<text text-anchor="middle" x="244" y="-157.5" font-family="Helvetica,sans-Serif" font-size="10.00">ant::Updateable_traits</text>
</a>
</g>
<!-- Node5&#45;&gt;Node2 -->
<g id="edge8" class="edge"><title>Node5&#45;&gt;Node2</title>
<path fill="none" stroke="midnightblue" d="M310.626,-160C335.476,-160 363.524,-160 387.767,-160"/>
<polygon fill="midnightblue" stroke="midnightblue" points="310.554,-156.5 300.554,-160 310.554,-163.5 310.554,-156.5"/>
</g>
<!-- Node6 -->
<g id="node10" class="node"><title>Node6</title>
<a xlink:href="classant_1_1_reconstruct_hook_1_1_detector_read_hits.html" target="_top" xlink:title="The DetectorReadHits class instances are applied before hit matching. ">
<polygon fill="white" stroke="black" points="391.5,-97 391.5,-131 504.5,-131 504.5,-97 391.5,-97"/>
<text text-anchor="start" x="399.5" y="-118" font-family="Helvetica,sans-Serif" font-size="10.00">ant::ReconstructHook</text>
<text text-anchor="middle" x="448" y="-105" font-family="Helvetica,sans-Serif" font-size="10.00">::DetectorReadHits</text>
</a>
</g>
<!-- Node6&#45;&gt;Node1 -->
<g id="edge10" class="edge"><title>Node6&#45;&gt;Node1</title>
<path fill="none" stroke="midnightblue" d="M515.021,-109.696C546.091,-107.701 582.533,-105.36 611.83,-103.479"/>
<polygon fill="midnightblue" stroke="midnightblue" points="514.463,-106.224 504.708,-110.358 514.912,-113.21 514.463,-106.224"/>
</g>
<!-- Node7 -->
<g id="node12" class="node"><title>Node7</title>
<a xlink:href="classant_1_1_reconstruct_hook_1_1_base.html" target="_top" xlink:title="The Base class just defines some useful types. ">
<polygon fill="white" stroke="black" points="187.5,-97 187.5,-131 300.5,-131 300.5,-97 187.5,-97"/>
<text text-anchor="start" x="195.5" y="-118" font-family="Helvetica,sans-Serif" font-size="10.00">ant::ReconstructHook</text>
<text text-anchor="middle" x="244" y="-105" font-family="Helvetica,sans-Serif" font-size="10.00">::Base</text>
</a>
</g>
<!-- Node7&#45;&gt;Node6 -->
<g id="edge12" class="edge"><title>Node7&#45;&gt;Node6</title>
<path fill="none" stroke="midnightblue" d="M310.726,-114C336.782,-114 366.339,-114 391.336,-114"/>
<polygon fill="midnightblue" stroke="midnightblue" points="310.554,-110.5 300.554,-114 310.554,-117.5 310.554,-110.5"/>
</g>
<!-- Node8 -->
<g id="node14" class="node"><title>Node8</title>
<polygon fill="white" stroke="#bfbfbf" points="386.5,-45 386.5,-79 509.5,-79 509.5,-45 386.5,-45"/>
<text text-anchor="start" x="394.5" y="-66" font-family="Helvetica,sans-Serif" font-size="10.00">std::vector&lt; ant::interval</text>
<text text-anchor="middle" x="448" y="-53" font-family="Helvetica,sans-Serif" font-size="10.00">&lt; double &gt; &gt;</text>
</g>
<!-- Node8&#45;&gt;Node1 -->
<g id="edge14" class="edge"><title>Node8&#45;&gt;Node1</title>
<path fill="none" stroke="#9a32cd" stroke-dasharray="5,2" d="M519.776,-74.1575C543.422,-78.1983 569.844,-82.7512 594,-87 599.755,-88.0122 605.766,-89.0804 611.756,-90.1517"/>
<polygon fill="#9a32cd" stroke="#9a32cd" points="520.273,-70.6918 509.826,-72.4595 519.095,-77.592 520.273,-70.6918"/>
<text text-anchor="middle" x="561" y="-91" font-family="Helvetica,sans-Serif" font-size="10.00"> TimeWindows</text>
</g>
<!-- Node9 -->
<g id="node16" class="node"><title>Node9</title>
<a xlink:href="classant_1_1interval.html" target="_top" xlink:title="ant::interval\&lt; double \&gt;">
<polygon fill="white" stroke="black" points="187,-51.5 187,-72.5 301,-72.5 301,-51.5 187,-51.5"/>
<text text-anchor="middle" x="244" y="-59.5" font-family="Helvetica,sans-Serif" font-size="10.00">ant::interval&lt; double &gt;</text>
</a>
</g>
<!-- Node9&#45;&gt;Node8 -->
<g id="edge16" class="edge"><title>Node9&#45;&gt;Node8</title>
<path fill="none" stroke="#9a32cd" stroke-dasharray="5,2" d="M311.261,-62C335.443,-62 362.583,-62 386.272,-62"/>
<polygon fill="#9a32cd" stroke="#9a32cd" points="311.097,-58.5001 301.097,-62 311.097,-65.5001 311.097,-58.5001"/>
<text text-anchor="middle" x="346" y="-66" font-family="Helvetica,sans-Serif" font-size="10.00"> elements</text>
</g>
<!-- Node10 -->
<g id="node18" class="node"><title>Node10</title>
<a xlink:href="classant_1_1printable__traits.html" target="_top" xlink:title="ant::printable_traits">
<polygon fill="white" stroke="black" points="22,-51.5 22,-72.5 122,-72.5 122,-51.5 22,-51.5"/>
<text text-anchor="middle" x="72" y="-59.5" font-family="Helvetica,sans-Serif" font-size="10.00">ant::printable_traits</text>
</a>
</g>
<!-- Node10&#45;&gt;Node9 -->
<g id="edge18" class="edge"><title>Node10&#45;&gt;Node9</title>
<path fill="none" stroke="midnightblue" d="M132.402,-62C150.063,-62 169.309,-62 186.768,-62"/>
<polygon fill="midnightblue" stroke="midnightblue" points="132.212,-58.5001 122.212,-62 132.212,-65.5001 132.212,-58.5001"/>
</g>
<!-- Node11 -->
<g id="node20" class="node"><title>Node11</title>
<polygon fill="white" stroke="#bfbfbf" points="393,-0.5 393,-21.5 503,-21.5 503,-0.5 393,-0.5"/>
<text text-anchor="middle" x="448" y="-8.5" font-family="Helvetica,sans-Serif" font-size="10.00">std::vector&lt; double &gt;</text>
</g>
<!-- Node11&#45;&gt;Node1 -->
<g id="edge20" class="edge"><title>Node11&#45;&gt;Node1</title>
<path fill="none" stroke="#9a32cd" stroke-dasharray="5,2" d="M513.427,-3.98507C539.628,-3.82176 569.375,-7.12136 594,-19 626.029,-34.4498 650.009,-71.2368 660.368,-89.4342"/>
<polygon fill="#9a32cd" stroke="#9a32cd" points="513.118,-0.491184 503.201,-4.22119 513.279,-7.48932 513.118,-0.491184"/>
<text text-anchor="middle" x="561" y="-62" font-family="Helvetica,sans-Serif" font-size="10.00"> DefaultGains</text>
<text text-anchor="middle" x="561" y="-49" font-family="Helvetica,sans-Serif" font-size="10.00">DefaultOffsets</text>
<text text-anchor="middle" x="561" y="-36" font-family="Helvetica,sans-Serif" font-size="10.00">Offsets</text>
<text text-anchor="middle" x="561" y="-23" font-family="Helvetica,sans-Serif" font-size="10.00">Gains</text>
</g>
</g>
</svg>
