<?xml version="1.0" encoding="UTF-8" standalone="no"?>
<!DOCTYPE svg PUBLIC "-//W3C//DTD SVG 1.1//EN"
 "http://www.w3.org/Graphics/SVG/1.1/DTD/svg11.dtd">
<!-- Generated by graphviz version 2.26.3 (20100126.1600)
 -->
<!-- Title: ant::ReconstructHook::Base Pages: 1 -->
<svg width="612pt" height="362pt"
 viewBox="0.00 0.00 612.00 362.00" xmlns="http://www.w3.org/2000/svg" xmlns:xlink="http://www.w3.org/1999/xlink">
<g id="graph1" class="graph" transform="scale(1 1) rotate(0) translate(4 358)">
<title>ant::ReconstructHook::Base</title>
<polygon fill="white" stroke="white" points="-4,5 -4,-358 609,-358 609,5 -4,5"/>
<!-- Node1 -->
<g id="node1" class="node"><title>Node1</title>
<polygon fill="#bfbfbf" stroke="black" points="0.5,-268 0.5,-302 113.5,-302 113.5,-268 0.5,-268"/>
<text text-anchor="start" x="8.5" y="-289" font-family="Helvetica,sans-Serif" font-size="10.00">ant::ReconstructHook</text>
<text text-anchor="middle" x="57" y="-276" font-family="Helvetica,sans-Serif" font-size="10.00">::Base</text>
</g>
<!-- Node2 -->
<g id="node3" class="node"><title>Node2</title>
<a xlink:href="classant_1_1_reconstruct_hook_1_1_cluster_hits.html" target="_top" xlink:title="The ClusterHits class instances are applied before clustering and after hit matching. ">
<polygon fill="white" stroke="black" points="150.5,-320 150.5,-354 263.5,-354 263.5,-320 150.5,-320"/>
<text text-anchor="start" x="158.5" y="-341" font-family="Helvetica,sans-Serif" font-size="10.00">ant::ReconstructHook</text>
<text text-anchor="middle" x="207" y="-328" font-family="Helvetica,sans-Serif" font-size="10.00">::ClusterHits</text>
</a>
</g>
<!-- Node1&#45;&gt;Node2 -->
<g id="edge2" class="edge"><title>Node1&#45;&gt;Node2</title>
<path fill="none" stroke="midnightblue" d="M115.617,-305.321C129.561,-310.154 144.299,-315.264 157.774,-319.935"/>
<polygon fill="midnightblue" stroke="midnightblue" points="116.71,-301.995 106.116,-302.027 114.418,-308.609 116.71,-301.995"/>
</g>
<!-- Node4 -->
<g id="node7" class="node"><title>Node4</title>
<a xlink:href="classant_1_1_reconstruct_hook_1_1_clusters.html" target="_top" xlink:title="The Clusters class instances are applied before candidate matching and after clustering. ">
<polygon fill="white" stroke="black" points="150.5,-268 150.5,-302 263.5,-302 263.5,-268 150.5,-268"/>
<text text-anchor="start" x="158.5" y="-289" font-family="Helvetica,sans-Serif" font-size="10.00">ant::ReconstructHook</text>
<text text-anchor="middle" x="207" y="-276" font-family="Helvetica,sans-Serif" font-size="10.00">::Clusters</text>
</a>
</g>
<!-- Node1&#45;&gt;Node4 -->
<g id="edge6" class="edge"><title>Node1&#45;&gt;Node4</title>
<path fill="none" stroke="midnightblue" d="M123.916,-285C132.694,-285 141.622,-285 150.211,-285"/>
<polygon fill="midnightblue" stroke="midnightblue" points="123.709,-281.5 113.709,-285 123.709,-288.5 123.709,-281.5"/>
</g>
<!-- Node6 -->
<g id="node11" class="node"><title>Node6</title>
<a xlink:href="classant_1_1_reconstruct_hook_1_1_detector_read_hits.html" target="_top" xlink:title="The DetectorReadHits class instances are applied before hit matching. ">
<polygon fill="white" stroke="black" points="150.5,-141 150.5,-175 263.5,-175 263.5,-141 150.5,-141"/>
<text text-anchor="start" x="158.5" y="-162" font-family="Helvetica,sans-Serif" font-size="10.00">ant::ReconstructHook</text>
<text text-anchor="middle" x="207" y="-149" font-family="Helvetica,sans-Serif" font-size="10.00">::DetectorReadHits</text>
</a>
</g>
<!-- Node1&#45;&gt;Node6 -->
<g id="edge10" class="edge"><title>Node1&#45;&gt;Node6</title>
<path fill="none" stroke="midnightblue" d="M85.0995,-261.209C114.63,-236.206 160.365,-197.484 186.612,-175.262"/>
<polygon fill="midnightblue" stroke="midnightblue" points="82.6,-258.739 77.2297,-267.872 87.1232,-264.082 82.6,-258.739"/>
</g>
<!-- Node3 -->
<g id="node5" class="node"><title>Node3</title>
<a xlink:href="classant_1_1calibration_1_1_c_b___time_walk.html" target="_top" xlink:title="ant::calibration::CB\l_TimeWalk">
<polygon fill="white" stroke="black" points="313.5,-320 313.5,-354 414.5,-354 414.5,-320 313.5,-320"/>
<text text-anchor="start" x="321.5" y="-341" font-family="Helvetica,sans-Serif" font-size="10.00">ant::calibration::CB</text>
<text text-anchor="middle" x="364" y="-328" font-family="Helvetica,sans-Serif" font-size="10.00">_TimeWalk</text>
</a>
</g>
<!-- Node2&#45;&gt;Node3 -->
<g id="edge4" class="edge"><title>Node2&#45;&gt;Node3</title>
<path fill="none" stroke="midnightblue" d="M273.724,-337C287.009,-337 300.755,-337 313.392,-337"/>
<polygon fill="midnightblue" stroke="midnightblue" points="273.681,-333.5 263.681,-337 273.681,-340.5 273.681,-333.5"/>
</g>
<!-- Node5 -->
<g id="node9" class="node"><title>Node5</title>
<a xlink:href="classant_1_1calibration_1_1_t_a_p_s___shower_correction.html" target="_top" xlink:title="ant::calibration::TAPS\l_ShowerCorrection">
<polygon fill="white" stroke="black" points="307.5,-268 307.5,-302 420.5,-302 420.5,-268 307.5,-268"/>
<text text-anchor="start" x="315.5" y="-289" font-family="Helvetica,sans-Serif" font-size="10.00">ant::calibration::TAPS</text>
<text text-anchor="middle" x="364" y="-276" font-family="Helvetica,sans-Serif" font-size="10.00">_ShowerCorrection</text>
</a>
</g>
<!-- Node4&#45;&gt;Node5 -->
<g id="edge8" class="edge"><title>Node4&#45;&gt;Node5</title>
<path fill="none" stroke="midnightblue" d="M273.83,-285C285.009,-285 296.512,-285 307.403,-285"/>
<polygon fill="midnightblue" stroke="midnightblue" points="273.681,-281.5 263.681,-285 273.681,-288.5 273.681,-281.5"/>
</g>
<!-- Node7 -->
<g id="node13" class="node"><title>Node7</title>
<a xlink:href="structant_1_1calibration_1_1converter_1_1_c_a_t_c_h___t_d_c.html" target="_top" xlink:title="ant::calibration::converter\l::CATCH_TDC">
<polygon fill="white" stroke="black" points="300.5,-216 300.5,-250 427.5,-250 427.5,-216 300.5,-216"/>
<text text-anchor="start" x="308.5" y="-237" font-family="Helvetica,sans-Serif" font-size="10.00">ant::calibration::converter</text>
<text text-anchor="middle" x="364" y="-224" font-family="Helvetica,sans-Serif" font-size="10.00">::CATCH_TDC</text>
</a>
</g>
<!-- Node6&#45;&gt;Node7 -->
<g id="edge12" class="edge"><title>Node6&#45;&gt;Node7</title>
<path fill="none" stroke="midnightblue" d="M246.847,-180.105C263.143,-188.852 282.295,-198.764 300,-207 306.524,-210.035 313.506,-213.076 320.372,-215.952"/>
<polygon fill="midnightblue" stroke="midnightblue" points="248.076,-176.79 237.615,-175.111 244.745,-182.947 248.076,-176.79"/>
</g>
<!-- Node8 -->
<g id="node15" class="node"><title>Node8</title>
<a xlink:href="structant_1_1calibration_1_1converter_1_1_scaler_frequency.html" target="_top" xlink:title="ant::calibration::converter\l::ScalerFrequency">
<polygon fill="white" stroke="black" points="300.5,-164 300.5,-198 427.5,-198 427.5,-164 300.5,-164"/>
<text text-anchor="start" x="308.5" y="-185" font-family="Helvetica,sans-Serif" font-size="10.00">ant::calibration::converter</text>
<text text-anchor="middle" x="364" y="-172" font-family="Helvetica,sans-Serif" font-size="10.00">::ScalerFrequency</text>
</a>
</g>
<!-- Node6&#45;&gt;Node8 -->
<g id="edge14" class="edge"><title>Node6&#45;&gt;Node8</title>
<path fill="none" stroke="midnightblue" d="M273.619,-167.759C282.522,-169.064 291.633,-170.399 300.482,-171.695"/>
<polygon fill="midnightblue" stroke="midnightblue" points="274.082,-164.29 263.681,-166.304 273.068,-171.216 274.082,-164.29"/>
</g>
<!-- Node9 -->
<g id="node17" class="node"><title>Node9</title>
<a xlink:href="classant_1_1calibration_1_1_energy.html" target="_top" xlink:title="ant::calibration::Energy">
<polygon fill="white" stroke="black" points="305.5,-124.5 305.5,-145.5 422.5,-145.5 422.5,-124.5 305.5,-124.5"/>
<text text-anchor="middle" x="364" y="-132.5" font-family="Helvetica,sans-Serif" font-size="10.00">ant::calibration::Energy</text>
</a>
</g>
<!-- Node6&#45;&gt;Node9 -->
<g id="edge16" class="edge"><title>Node6&#45;&gt;Node9</title>
<path fill="none" stroke="midnightblue" d="M273.648,-148.236C284.164,-146.696 294.97,-145.113 305.288,-143.601"/>
<polygon fill="midnightblue" stroke="midnightblue" points="273.068,-144.784 263.681,-149.696 274.082,-151.71 273.068,-144.784"/>
</g>
<!-- Node15 -->
<g id="node29" class="node"><title>Node15</title>
<a xlink:href="classant_1_1calibration_1_1_scaler.html" target="_top" xlink:title="ant::calibration::Scaler">
<polygon fill="white" stroke="black" points="307,-84.5 307,-105.5 421,-105.5 421,-84.5 307,-84.5"/>
<text text-anchor="middle" x="364" y="-92.5" font-family="Helvetica,sans-Serif" font-size="10.00">ant::calibration::Scaler</text>
</a>
</g>
<!-- Node6&#45;&gt;Node15 -->
<g id="edge28" class="edge"><title>Node6&#45;&gt;Node15</title>
<path fill="none" stroke="midnightblue" d="M250.317,-136.549C265.804,-129.261 283.506,-121.359 300,-115 308.798,-111.608 318.436,-108.36 327.501,-105.505"/>
<polygon fill="midnightblue" stroke="midnightblue" points="248.515,-133.53 240.991,-140.989 251.524,-139.851 248.515,-133.53"/>
</g>
<!-- Node16 -->
<g id="node31" class="node"><title>Node16</title>
<a xlink:href="classant_1_1calibration_1_1_time.html" target="_top" xlink:title="ant::calibration::Time">
<polygon fill="white" stroke="black" points="310,-35.5 310,-56.5 418,-56.5 418,-35.5 310,-35.5"/>
<text text-anchor="middle" x="364" y="-43.5" font-family="Helvetica,sans-Serif" font-size="10.00">ant::calibration::Time</text>
</a>
</g>
<!-- Node6&#45;&gt;Node16 -->
<g id="edge30" class="edge"><title>Node6&#45;&gt;Node16</title>
<path fill="none" stroke="midnightblue" d="M230.345,-133.489C248.222,-115.677 274.132,-91.8386 300,-75 311.143,-67.7461 324.4,-61.412 335.95,-56.5294"/>
<polygon fill="midnightblue" stroke="midnightblue" points="227.741,-131.145 223.199,-140.716 232.719,-136.067 227.741,-131.145"/>
</g>
<!-- Node10 -->
<g id="node19" class="node"><title>Node10</title>
<a xlink:href="classant_1_1calibration_1_1_c_b___energy.html" target="_top" xlink:title="ant::calibration::CB\l_Energy">
<polygon fill="white" stroke="black" points="483.5,-248 483.5,-282 584.5,-282 584.5,-248 483.5,-248"/>
<text text-anchor="start" x="491.5" y="-269" font-family="Helvetica,sans-Serif" font-size="10.00">ant::calibration::CB</text>
<text text-anchor="middle" x="534" y="-256" font-family="Helvetica,sans-Serif" font-size="10.00">_Energy</text>
</a>
</g>
<!-- Node9&#45;&gt;Node10 -->
<g id="edge18" class="edge"><title>Node9&#45;&gt;Node10</title>
<path fill="none" stroke="midnightblue" d="M422.511,-150.694C424.441,-152.015 426.28,-153.447 428,-155 458.148,-182.219 434.581,-210.995 464,-239 469.54,-244.274 476.245,-248.498 483.283,-251.875"/>
<polygon fill="midnightblue" stroke="midnightblue" points="423.979,-147.502 413.559,-145.585 420.509,-153.581 423.979,-147.502"/>
</g>
<!-- Node11 -->
<g id="node21" class="node"><title>Node11</title>
<a xlink:href="classant_1_1calibration_1_1_p_i_d___energy.html" target="_top" xlink:title="ant::calibration::PID\l_Energy">
<polygon fill="white" stroke="black" points="482,-196 482,-230 586,-230 586,-196 482,-196"/>
<text text-anchor="start" x="490" y="-217" font-family="Helvetica,sans-Serif" font-size="10.00">ant::calibration::PID</text>
<text text-anchor="middle" x="534" y="-204" font-family="Helvetica,sans-Serif" font-size="10.00">_Energy</text>
</a>
</g>
<!-- Node9&#45;&gt;Node11 -->
<g id="edge20" class="edge"><title>Node9&#45;&gt;Node11</title>
<path fill="none" stroke="midnightblue" d="M416.29,-149.274C420.343,-151 424.295,-152.905 428,-155 446.633,-165.539 445.651,-175.973 464,-187 469.556,-190.339 475.612,-193.365 481.76,-196.074"/>
<polygon fill="midnightblue" stroke="midnightblue" points="417.308,-145.914 406.719,-145.566 414.779,-152.442 417.308,-145.914"/>
</g>
<!-- Node12 -->
<g id="node23" class="node"><title>Node12</title>
<a xlink:href="classant_1_1calibration_1_1_t_a_p_s___energy.html" target="_top" xlink:title="ant::calibration::TAPS\l_Energy">
<polygon fill="white" stroke="black" points="477.5,-144 477.5,-178 590.5,-178 590.5,-144 477.5,-144"/>
<text text-anchor="start" x="485.5" y="-165" font-family="Helvetica,sans-Serif" font-size="10.00">ant::calibration::TAPS</text>
<text text-anchor="middle" x="534" y="-152" font-family="Helvetica,sans-Serif" font-size="10.00">_Energy</text>
</a>
</g>
<!-- Node9&#45;&gt;Node12 -->
<g id="edge22" class="edge"><title>Node9&#45;&gt;Node12</title>
<path fill="none" stroke="midnightblue" d="M432.657,-145.5C447.515,-147.773 463.065,-150.151 477.398,-152.343"/>
<polygon fill="midnightblue" stroke="midnightblue" points="432.919,-142 422.504,-143.948 431.86,-148.919 432.919,-142"/>
</g>
<!-- Node13 -->
<g id="node25" class="node"><title>Node13</title>
<a xlink:href="classant_1_1calibration_1_1_t_a_p_s___short_energy.html" target="_top" xlink:title="ant::calibration::TAPS\l_ShortEnergy">
<polygon fill="white" stroke="black" points="477.5,-92 477.5,-126 590.5,-126 590.5,-92 477.5,-92"/>
<text text-anchor="start" x="485.5" y="-113" font-family="Helvetica,sans-Serif" font-size="10.00">ant::calibration::TAPS</text>
<text text-anchor="middle" x="534" y="-100" font-family="Helvetica,sans-Serif" font-size="10.00">_ShortEnergy</text>
</a>
</g>
<!-- Node9&#45;&gt;Node13 -->
<g id="edge24" class="edge"><title>Node9&#45;&gt;Node13</title>
<path fill="none" stroke="midnightblue" d="M432.657,-124.5C447.515,-122.227 463.065,-119.849 477.398,-117.657"/>
<polygon fill="midnightblue" stroke="midnightblue" points="431.86,-121.081 422.504,-126.052 432.919,-128 431.86,-121.081"/>
</g>
<!-- Node14 -->
<g id="node27" class="node"><title>Node14</title>
<a xlink:href="classant_1_1calibration_1_1_t_a_p_s_veto___energy.html" target="_top" xlink:title="ant::calibration::TAPSVeto\l_Energy">
<polygon fill="white" stroke="black" points="467.5,-40 467.5,-74 600.5,-74 600.5,-40 467.5,-40"/>
<text text-anchor="start" x="475.5" y="-61" font-family="Helvetica,sans-Serif" font-size="10.00">ant::calibration::TAPSVeto</text>
<text text-anchor="middle" x="534" y="-48" font-family="Helvetica,sans-Serif" font-size="10.00">_Energy</text>
</a>
</g>
<!-- Node9&#45;&gt;Node14 -->
<g id="edge26" class="edge"><title>Node9&#45;&gt;Node14</title>
<path fill="none" stroke="midnightblue" d="M416.29,-120.726C420.343,-119 424.295,-117.095 428,-115 446.633,-104.461 445.651,-94.0272 464,-83 469.445,-79.7278 475.37,-76.7557 481.392,-74.0887"/>
<polygon fill="midnightblue" stroke="midnightblue" points="414.779,-117.558 406.719,-124.434 417.308,-124.086 414.779,-117.558"/>
</g>
<!-- Node17 -->
<g id="node33" class="node"><title>Node17</title>
<a xlink:href="classant_1_1calibration_1_1_t_a_p_s___time.html" target="_top" xlink:title="ant::calibration::TAPS_Time">
<polygon fill="white" stroke="black" points="464,-0.5 464,-21.5 604,-21.5 604,-0.5 464,-0.5"/>
<text text-anchor="middle" x="534" y="-8.5" font-family="Helvetica,sans-Serif" font-size="10.00">ant::calibration::TAPS_Time</text>
</a>
</g>
<!-- Node16&#45;&gt;Node17 -->
<g id="edge32" class="edge"><title>Node16&#45;&gt;Node17</title>
<path fill="none" stroke="midnightblue" d="M425.01,-33.439C443.921,-29.5456 464.558,-25.2969 482.737,-21.5542"/>
<polygon fill="midnightblue" stroke="midnightblue" points="424.094,-30.0541 415.006,-35.4988 425.506,-36.9103 424.094,-30.0541"/>
</g>
</g>
</svg>
