<?xml version="1.0" encoding="UTF-8" standalone="no"?>
<!DOCTYPE svg PUBLIC "-//W3C//DTD SVG 1.1//EN"
 "http://www.w3.org/Graphics/SVG/1.1/DTD/svg11.dtd">
<!-- Generated by graphviz version 2.26.3 (20100126.1600)
 -->
<!-- Title: DrawCanvas2D Pages: 1 -->
<svg width="224pt" height="278pt"
 viewBox="0.00 0.00 224.00 278.00" xmlns="http://www.w3.org/2000/svg" xmlns:xlink="http://www.w3.org/1999/xlink">
<g id="graph1" class="graph" transform="scale(1 1) rotate(0) translate(4 274)">
<title>DrawCanvas2D</title>
<polygon fill="white" stroke="white" points="-4,5 -4,-274 221,-274 221,5 -4,5"/>
<!-- Node1 -->
<g id="node1" class="node"><title>Node1</title>
<polygon fill="#bfbfbf" stroke="black" points="104,-0.5 104,-21.5 190,-21.5 190,-0.5 104,-0.5"/>
<text text-anchor="middle" x="147" y="-8.5" font-family="Helvetica,sans-Serif" font-size="10.00">DrawCanvas2D</text>
</g>
<!-- Node2 -->
<g id="node2" class="node"><title>Node2</title>
<a xlink:href="class_draw_canvas.html" target="_top" xlink:title="DrawCanvas">
<polygon fill="white" stroke="black" points="54,-62.5 54,-83.5 128,-83.5 128,-62.5 54,-62.5"/>
<text text-anchor="middle" x="91" y="-70.5" font-family="Helvetica,sans-Serif" font-size="10.00">DrawCanvas</text>
</a>
</g>
<!-- Node2&#45;&gt;Node1 -->
<g id="edge2" class="edge"><title>Node2&#45;&gt;Node1</title>
<path fill="none" stroke="midnightblue" d="M107.376,-54.869C117.076,-44.1305 129.037,-30.8872 137.266,-21.7774"/>
<polygon fill="midnightblue" stroke="midnightblue" points="104.605,-52.7155 100.5,-62.4825 109.8,-57.4075 104.605,-52.7155"/>
</g>
<!-- Node3 -->
<g id="node4" class="node"><title>Node3</title>
<a xlink:href="classant_1_1_smart_tree_canvas.html" target="_top" xlink:title="ant::SmartTreeCanvas">
<polygon fill="white" stroke="black" points="0,-174.5 0,-195.5 116,-195.5 116,-174.5 0,-174.5"/>
<text text-anchor="middle" x="58" y="-182.5" font-family="Helvetica,sans-Serif" font-size="10.00">ant::SmartTreeCanvas</text>
</a>
</g>
<!-- Node3&#45;&gt;Node2 -->
<g id="edge4" class="edge"><title>Node3&#45;&gt;Node2</title>
<path fill="none" stroke="midnightblue" d="M59.4261,-164.149C61.0793,-147.444 64.5969,-123.638 72,-104 74.7165,-96.7939 79.159,-89.4157 83.0654,-83.6659"/>
<polygon fill="midnightblue" stroke="midnightblue" points="55.911,-164.181 58.5547,-174.44 62.886,-164.771 55.911,-164.181"/>
</g>
<!-- Node4 -->
<g id="node6" class="node"><title>Node4</title>
<polygon fill="white" stroke="#bfbfbf" points="30,-241.5 30,-262.5 86,-262.5 86,-241.5 30,-241.5"/>
<text text-anchor="middle" x="58" y="-249.5" font-family="Helvetica,sans-Serif" font-size="10.00">TCanvas</text>
</g>
<!-- Node4&#45;&gt;Node3 -->
<g id="edge6" class="edge"><title>Node4&#45;&gt;Node3</title>
<path fill="none" stroke="midnightblue" d="M58,-230.904C58,-219.127 58,-204.967 58,-195.517"/>
<polygon fill="midnightblue" stroke="midnightblue" points="54.5001,-231.235 58,-241.235 61.5001,-231.235 54.5001,-231.235"/>
</g>
<!-- Node5 -->
<g id="node8" class="node"><title>Node5</title>
<a xlink:title="STL class. ">
<polygon fill="white" stroke="#bfbfbf" points="139,-174.5 139,-195.5 199,-195.5 199,-174.5 139,-174.5"/>
<text text-anchor="middle" x="169" y="-182.5" font-family="Helvetica,sans-Serif" font-size="10.00">std::string</text>
</a>
</g>
<!-- Node5&#45;&gt;Node1 -->
<g id="edge12" class="edge"><title>Node5&#45;&gt;Node1</title>
<path fill="none" stroke="#9a32cd" stroke-dasharray="5,2" d="M166.847,-164.15C165.117,-147.78 162.561,-124.418 160,-104 156.247,-74.0743 151.129,-38.833 148.579,-21.587"/>
<polygon fill="#9a32cd" stroke="#9a32cd" points="163.381,-164.663 167.903,-174.245 170.343,-163.935 163.381,-164.663"/>
<text text-anchor="middle" x="171.5" y="-77" font-family="Helvetica,sans-Serif" font-size="10.00"> xExpr</text>
<text text-anchor="middle" x="171.5" y="-64" font-family="Helvetica,sans-Serif" font-size="10.00">yExpr</text>
</g>
<!-- Node5&#45;&gt;Node2 -->
<g id="edge8" class="edge"><title>Node5&#45;&gt;Node2</title>
<path fill="none" stroke="#9a32cd" stroke-dasharray="5,2" d="M128.641,-174.323C112.532,-169.18 96.6848,-162.684 92,-156 76.6985,-134.169 82.9902,-100.545 87.6571,-83.5739"/>
<polygon fill="#9a32cd" stroke="#9a32cd" points="128.023,-177.793 138.608,-177.34 130.051,-171.093 128.023,-177.793"/>
<text text-anchor="middle" x="126" y="-147" font-family="Helvetica,sans-Serif" font-size="10.00"> drawoption</text>
<text text-anchor="middle" x="126" y="-134" font-family="Helvetica,sans-Serif" font-size="10.00">localcut</text>
<text text-anchor="middle" x="126" y="-121" font-family="Helvetica,sans-Serif" font-size="10.00">histname</text>
<text text-anchor="middle" x="126" y="-108" font-family="Helvetica,sans-Serif" font-size="10.00">smartree_name</text>
</g>
<!-- Node6 -->
<g id="node10" class="node"><title>Node6</title>
<a xlink:title="STL class. ">
<polygon fill="white" stroke="#bfbfbf" points="121.5,-235 121.5,-269 216.5,-269 216.5,-235 121.5,-235"/>
<text text-anchor="start" x="129.5" y="-256" font-family="Helvetica,sans-Serif" font-size="10.00">std::basic_string&lt;</text>
<text text-anchor="middle" x="169" y="-243" font-family="Helvetica,sans-Serif" font-size="10.00"> char &gt;</text>
</a>
</g>
<!-- Node6&#45;&gt;Node5 -->
<g id="edge10" class="edge"><title>Node6&#45;&gt;Node5</title>
<path fill="none" stroke="midnightblue" d="M169,-224.534C169,-214.306 169,-203.301 169,-195.506"/>
<polygon fill="midnightblue" stroke="midnightblue" points="165.5,-224.746 169,-234.746 172.5,-224.746 165.5,-224.746"/>
</g>
</g>
</svg>
