<?xml version="1.0" encoding="UTF-8" standalone="no"?>
<!DOCTYPE svg PUBLIC "-//W3C//DTD SVG 1.1//EN"
 "http://www.w3.org/Graphics/SVG/1.1/DTD/svg11.dtd">
<!-- Generated by graphviz version 2.26.3 (20100126.1600)
 -->
<!-- Title: DrawCanvas1D Pages: 1 -->
<svg width="227pt" height="274pt"
 viewBox="0.00 0.00 227.00 274.00" xmlns="http://www.w3.org/2000/svg" xmlns:xlink="http://www.w3.org/1999/xlink">
<g id="graph1" class="graph" transform="scale(1 1) rotate(0) translate(4 270)">
<title>DrawCanvas1D</title>
<polygon fill="white" stroke="white" points="-4,5 -4,-270 224,-270 224,5 -4,5"/>
<!-- Node1 -->
<g id="node1" class="node"><title>Node1</title>
<polygon fill="#bfbfbf" stroke="black" points="76,-0.5 76,-21.5 162,-21.5 162,-0.5 76,-0.5"/>
<text text-anchor="middle" x="119" y="-8.5" font-family="Helvetica,sans-Serif" font-size="10.00">DrawCanvas1D</text>
</g>
<!-- Node2 -->
<g id="node2" class="node"><title>Node2</title>
<a xlink:href="class_draw_canvas.html" target="_top" xlink:title="DrawCanvas">
<polygon fill="white" stroke="black" points="82,-60.5 82,-81.5 156,-81.5 156,-60.5 82,-60.5"/>
<text text-anchor="middle" x="119" y="-68.5" font-family="Helvetica,sans-Serif" font-size="10.00">DrawCanvas</text>
</a>
</g>
<!-- Node2&#45;&gt;Node1 -->
<g id="edge2" class="edge"><title>Node2&#45;&gt;Node1</title>
<path fill="none" stroke="midnightblue" d="M119,-50.2312C119,-40.5922 119,-29.5444 119,-21.6339"/>
<polygon fill="midnightblue" stroke="midnightblue" points="115.5,-50.2732 119,-60.2732 122.5,-50.2732 115.5,-50.2732"/>
</g>
<!-- Node3 -->
<g id="node4" class="node"><title>Node3</title>
<a xlink:href="classant_1_1_smart_tree_canvas.html" target="_top" xlink:title="ant::SmartTreeCanvas">
<polygon fill="white" stroke="black" points="0,-170.5 0,-191.5 116,-191.5 116,-170.5 0,-170.5"/>
<text text-anchor="middle" x="58" y="-178.5" font-family="Helvetica,sans-Serif" font-size="10.00">ant::SmartTreeCanvas</text>
</a>
</g>
<!-- Node3&#45;&gt;Node2 -->
<g id="edge4" class="edge"><title>Node3&#45;&gt;Node2</title>
<path fill="none" stroke="midnightblue" d="M68.8239,-161.481C81.7345,-138.2 102.852,-100.12 113.079,-81.677"/>
<polygon fill="midnightblue" stroke="midnightblue" points="65.6378,-160.01 63.8489,-170.453 71.7595,-163.405 65.6378,-160.01"/>
</g>
<!-- Node4 -->
<g id="node6" class="node"><title>Node4</title>
<polygon fill="white" stroke="#bfbfbf" points="30,-237.5 30,-258.5 86,-258.5 86,-237.5 30,-237.5"/>
<text text-anchor="middle" x="58" y="-245.5" font-family="Helvetica,sans-Serif" font-size="10.00">TCanvas</text>
</g>
<!-- Node4&#45;&gt;Node3 -->
<g id="edge6" class="edge"><title>Node4&#45;&gt;Node3</title>
<path fill="none" stroke="midnightblue" d="M58,-226.904C58,-215.127 58,-200.967 58,-191.517"/>
<polygon fill="midnightblue" stroke="midnightblue" points="54.5001,-227.235 58,-237.235 61.5001,-227.235 54.5001,-227.235"/>
</g>
<!-- Node5 -->
<g id="node8" class="node"><title>Node5</title>
<a xlink:title="STL class. ">
<polygon fill="white" stroke="#bfbfbf" points="134,-170.5 134,-191.5 194,-191.5 194,-170.5 134,-170.5"/>
<text text-anchor="middle" x="164" y="-178.5" font-family="Helvetica,sans-Serif" font-size="10.00">std::string</text>
</a>
</g>
<!-- Node5&#45;&gt;Node2 -->
<g id="edge8" class="edge"><title>Node5&#45;&gt;Node2</title>
<path fill="none" stroke="#9a32cd" stroke-dasharray="5,2" d="M155.887,-161.169C146.352,-137.861 130.879,-100.037 123.368,-81.677"/>
<polygon fill="#9a32cd" stroke="#9a32cd" points="152.659,-162.522 159.685,-170.453 159.138,-159.872 152.659,-162.522"/>
<text text-anchor="middle" x="185" y="-143" font-family="Helvetica,sans-Serif" font-size="10.00"> drawoption</text>
<text text-anchor="middle" x="185" y="-130" font-family="Helvetica,sans-Serif" font-size="10.00">localcut</text>
<text text-anchor="middle" x="185" y="-117" font-family="Helvetica,sans-Serif" font-size="10.00">histname</text>
<text text-anchor="middle" x="185" y="-104" font-family="Helvetica,sans-Serif" font-size="10.00">smartree_name</text>
</g>
<!-- Node6 -->
<g id="node10" class="node"><title>Node6</title>
<a xlink:title="STL class. ">
<polygon fill="white" stroke="#bfbfbf" points="116.5,-231 116.5,-265 211.5,-265 211.5,-231 116.5,-231"/>
<text text-anchor="start" x="124.5" y="-252" font-family="Helvetica,sans-Serif" font-size="10.00">std::basic_string&lt;</text>
<text text-anchor="middle" x="164" y="-239" font-family="Helvetica,sans-Serif" font-size="10.00"> char &gt;</text>
</a>
</g>
<!-- Node6&#45;&gt;Node5 -->
<g id="edge10" class="edge"><title>Node6&#45;&gt;Node5</title>
<path fill="none" stroke="midnightblue" d="M164,-220.534C164,-210.306 164,-199.301 164,-191.506"/>
<polygon fill="midnightblue" stroke="midnightblue" points="160.5,-220.746 164,-230.746 167.5,-220.746 160.5,-220.746"/>
</g>
</g>
</svg>
