<?xml version="1.0" encoding="UTF-8" standalone="no"?>
<!DOCTYPE svg PUBLIC "-//W3C//DTD SVG 1.1//EN"
 "http://www.w3.org/Graphics/SVG/1.1/DTD/svg11.dtd">
<!-- Generated by graphviz version 2.26.3 (20100126.1600)
 -->
<!-- Title: ant::analysis::physics::OmegaEtaG2 Pages: 1 -->
<svg width="1028pt" height="374pt"
 viewBox="0.00 0.00 1028.00 374.25" xmlns="http://www.w3.org/2000/svg" xmlns:xlink="http://www.w3.org/1999/xlink">
<g id="graph1" class="graph" transform="scale(1 1) rotate(0) translate(4 370.254)">
<title>ant::analysis::physics::OmegaEtaG2</title>
<polygon fill="white" stroke="white" points="-4,5 -4,-370.254 1025,-370.254 1025,5 -4,5"/>
<!-- Node1 -->
<g id="node1" class="node"><title>Node1</title>
<polygon fill="#bfbfbf" stroke="black" points="908,-143.254 908,-177.254 1020,-177.254 1020,-143.254 908,-143.254"/>
<text text-anchor="start" x="916" y="-164.254" font-family="Helvetica,sans-Serif" font-size="10.00">ant::analysis::physics</text>
<text text-anchor="middle" x="964" y="-151.254" font-family="Helvetica,sans-Serif" font-size="10.00">::OmegaEtaG2</text>
</g>
<!-- Node2 -->
<g id="node2" class="node"><title>Node2</title>
<a xlink:href="classant_1_1analysis_1_1physics_1_1_omega_base.html" target="_top" xlink:title="ant::analysis::physics\l::OmegaBase">
<polygon fill="white" stroke="black" points="685,-282.254 685,-316.254 797,-316.254 797,-282.254 685,-282.254"/>
<text text-anchor="start" x="693" y="-303.254" font-family="Helvetica,sans-Serif" font-size="10.00">ant::analysis::physics</text>
<text text-anchor="middle" x="741" y="-290.254" font-family="Helvetica,sans-Serif" font-size="10.00">::OmegaBase</text>
</a>
</g>
<!-- Node2&#45;&gt;Node1 -->
<g id="edge2" class="edge"><title>Node2&#45;&gt;Node1</title>
<path fill="none" stroke="midnightblue" d="M807.181,-296.274C834.653,-292.419 865.715,-284.431 890,-268.254 923.861,-245.7 946.549,-201.884 957.133,-177.567"/>
<polygon fill="midnightblue" stroke="midnightblue" points="806.731,-292.803 797.242,-297.515 807.599,-299.749 806.731,-292.803"/>
</g>
<!-- Node3 -->
<g id="node4" class="node"><title>Node3</title>
<a xlink:href="classant_1_1analysis_1_1_physics.html" target="_top" xlink:title="ant::analysis::Physics">
<polygon fill="white" stroke="black" points="366.5,-336.754 366.5,-357.754 479.5,-357.754 479.5,-336.754 366.5,-336.754"/>
<text text-anchor="middle" x="423" y="-344.754" font-family="Helvetica,sans-Serif" font-size="10.00">ant::analysis::Physics</text>
</a>
</g>
<!-- Node3&#45;&gt;Node2 -->
<g id="edge4" class="edge"><title>Node3&#45;&gt;Node2</title>
<path fill="none" stroke="midnightblue" d="M489.69,-338.846C534.523,-333.002 594.902,-324.761 648,-316.254 659.831,-314.359 672.477,-312.162 684.511,-309.99"/>
<polygon fill="midnightblue" stroke="midnightblue" points="488.974,-335.41 479.507,-340.167 489.874,-342.351 488.974,-335.41"/>
</g>
<!-- Node4 -->
<g id="node6" class="node"><title>Node4</title>
<a xlink:href="classant_1_1analysis_1_1_smart_hist_factory.html" target="_top" xlink:title="ant::analysis::SmartHist\lFactory">
<polygon fill="white" stroke="black" points="138,-332.254 138,-366.254 260,-366.254 260,-332.254 138,-332.254"/>
<text text-anchor="start" x="146" y="-353.254" font-family="Helvetica,sans-Serif" font-size="10.00">ant::analysis::SmartHist</text>
<text text-anchor="middle" x="199" y="-340.254" font-family="Helvetica,sans-Serif" font-size="10.00">Factory</text>
</a>
</g>
<!-- Node4&#45;&gt;Node3 -->
<g id="edge6" class="edge"><title>Node4&#45;&gt;Node3</title>
<path fill="none" stroke="#9a32cd" stroke-dasharray="5,2" d="M270.529,-348.616C301.551,-348.339 337.359,-348.019 366.475,-347.759"/>
<polygon fill="#9a32cd" stroke="#9a32cd" points="270.177,-345.119 260.209,-348.708 270.24,-352.118 270.177,-345.119"/>
<text text-anchor="middle" x="313" y="-352.254" font-family="Helvetica,sans-Serif" font-size="10.00"> HistFac</text>
</g>
<!-- Node5 -->
<g id="node8" class="node"><title>Node5</title>
<a xlink:href="classant_1_1analysis_1_1utils_1_1_a2_simple_geometry.html" target="_top" xlink:title="ant::analysis::utils\l::A2SimpleGeometry">
<polygon fill="white" stroke="black" points="369.5,-282.254 369.5,-316.254 476.5,-316.254 476.5,-282.254 369.5,-282.254"/>
<text text-anchor="start" x="377.5" y="-303.254" font-family="Helvetica,sans-Serif" font-size="10.00">ant::analysis::utils</text>
<text text-anchor="middle" x="423" y="-290.254" font-family="Helvetica,sans-Serif" font-size="10.00">::A2SimpleGeometry</text>
</a>
</g>
<!-- Node5&#45;&gt;Node2 -->
<g id="edge8" class="edge"><title>Node5&#45;&gt;Node2</title>
<path fill="none" stroke="#9a32cd" stroke-dasharray="5,2" d="M486.718,-299.254C544.65,-299.254 629.318,-299.254 684.783,-299.254"/>
<polygon fill="#9a32cd" stroke="#9a32cd" points="486.585,-295.754 476.585,-299.254 486.585,-302.754 486.585,-295.754"/>
<text text-anchor="middle" x="573" y="-303.254" font-family="Helvetica,sans-Serif" font-size="10.00"> geo</text>
</g>
<!-- Node6 -->
<g id="node10" class="node"><title>Node6</title>
<a xlink:href="classant_1_1interval.html" target="_top" xlink:title="ant::interval\&lt; double \&gt;">
<polygon fill="white" stroke="black" points="142,-243.754 142,-264.754 256,-264.754 256,-243.754 142,-243.754"/>
<text text-anchor="middle" x="199" y="-251.754" font-family="Helvetica,sans-Serif" font-size="10.00">ant::interval&lt; double &gt;</text>
</a>
</g>
<!-- Node6&#45;&gt;Node1 -->
<g id="edge16" class="edge"><title>Node6&#45;&gt;Node1</title>
<path fill="none" stroke="#9a32cd" stroke-dasharray="5,2" d="M266.331,-256.374C380.685,-258.564 619.568,-257.012 816,-215.254 855.146,-206.933 897.779,-190.214 927.189,-177.382"/>
<polygon fill="#9a32cd" stroke="#9a32cd" points="266.393,-252.875 256.322,-256.167 266.247,-259.873 266.393,-252.875"/>
<text text-anchor="middle" x="573" y="-256.254" font-family="Helvetica,sans-Serif" font-size="10.00"> complcut</text>
</g>
<!-- Node6&#45;&gt;Node5 -->
<g id="edge10" class="edge"><title>Node6&#45;&gt;Node5</title>
<path fill="none" stroke="#9a32cd" stroke-dasharray="5,2" d="M261.323,-266.775C295.238,-273.588 336.775,-281.932 369.255,-288.457"/>
<polygon fill="#9a32cd" stroke="#9a32cd" points="262.012,-263.343 251.518,-264.805 260.633,-270.206 262.012,-263.343"/>
<text text-anchor="middle" x="313" y="-313.254" font-family="Helvetica,sans-Serif" font-size="10.00"> cb_phi_hem1</text>
<text text-anchor="middle" x="313" y="-300.254" font-family="Helvetica,sans-Serif" font-size="10.00">cb_theta_region</text>
<text text-anchor="middle" x="313" y="-287.254" font-family="Helvetica,sans-Serif" font-size="10.00">taps_region</text>
</g>
<!-- Node11 -->
<g id="node22" class="node"><title>Node11</title>
<a xlink:href="structant_1_1analysis_1_1physics_1_1_omega_eta_g2_1_1particle_cuts__t.html" target="_top" xlink:title="ant::analysis::physics\l::OmegaEtaG2::particleCuts_t">
<polygon fill="white" stroke="black" points="498.5,-50.2543 498.5,-84.2543 647.5,-84.2543 647.5,-50.2543 498.5,-50.2543"/>
<text text-anchor="start" x="506.5" y="-71.2543" font-family="Helvetica,sans-Serif" font-size="10.00">ant::analysis::physics</text>
<text text-anchor="middle" x="573" y="-58.2543" font-family="Helvetica,sans-Serif" font-size="10.00">::OmegaEtaG2::particleCuts_t</text>
</a>
</g>
<!-- Node6&#45;&gt;Node11 -->
<g id="edge26" class="edge"><title>Node6&#45;&gt;Node11</title>
<path fill="none" stroke="#9a32cd" stroke-dasharray="5,2" d="M218.804,-237.079C248.836,-211.774 308.504,-164.334 366,-135.254 409.882,-113.06 462.576,-95.8715 503.816,-84.328"/>
<polygon fill="#9a32cd" stroke="#9a32cd" points="216.493,-234.45 211.146,-243.596 221.03,-239.781 216.493,-234.45"/>
<text text-anchor="middle" x="313" y="-207.254" font-family="Helvetica,sans-Serif" font-size="10.00"> Theta_range</text>
<text text-anchor="middle" x="313" y="-194.254" font-family="Helvetica,sans-Serif" font-size="10.00">E_range</text>
</g>
<!-- Node7 -->
<g id="node12" class="node"><title>Node7</title>
<a xlink:href="classant_1_1printable__traits.html" target="_top" xlink:title="ant::printable_traits">
<polygon fill="white" stroke="black" points="0,-243.754 0,-264.754 100,-264.754 100,-243.754 0,-243.754"/>
<text text-anchor="middle" x="50" y="-251.754" font-family="Helvetica,sans-Serif" font-size="10.00">ant::printable_traits</text>
</a>
</g>
<!-- Node7&#45;&gt;Node6 -->
<g id="edge12" class="edge"><title>Node7&#45;&gt;Node6</title>
<path fill="none" stroke="midnightblue" d="M110.303,-254.254C120.738,-254.254 131.558,-254.254 141.905,-254.254"/>
<polygon fill="midnightblue" stroke="midnightblue" points="110.029,-250.754 100.029,-254.254 110.029,-257.754 110.029,-250.754"/>
</g>
<!-- Node8 -->
<g id="node14" class="node"><title>Node8</title>
<a xlink:href="structant_1_1analysis_1_1utils_1_1_particle_vars.html" target="_top" xlink:title="ant::analysis::utils\l::ParticleVars">
<polygon fill="white" stroke="black" points="375,-144.254 375,-178.254 471,-178.254 471,-144.254 375,-144.254"/>
<text text-anchor="start" x="383" y="-165.254" font-family="Helvetica,sans-Serif" font-size="10.00">ant::analysis::utils</text>
<text text-anchor="middle" x="423" y="-152.254" font-family="Helvetica,sans-Serif" font-size="10.00">::ParticleVars</text>
</a>
</g>
<!-- Node8&#45;&gt;Node1 -->
<g id="edge14" class="edge"><title>Node8&#45;&gt;Node1</title>
<path fill="none" stroke="#9a32cd" stroke-dasharray="5,2" d="M481.394,-163.496C561.067,-166.431 708.31,-171.42 834,-173.254 858.886,-173.618 865.205,-175.416 890,-173.254 895.848,-172.745 901.926,-172.012 907.973,-171.152"/>
<polygon fill="#9a32cd" stroke="#9a32cd" points="481.202,-159.986 471.079,-163.113 480.942,-166.981 481.202,-159.986"/>
<text text-anchor="middle" x="741" y="-202.254" font-family="Helvetica,sans-Serif" font-size="10.00"> calcp</text>
<text text-anchor="middle" x="741" y="-189.254" font-family="Helvetica,sans-Serif" font-size="10.00">gggbranch</text>
<text text-anchor="middle" x="741" y="-176.254" font-family="Helvetica,sans-Serif" font-size="10.00">pbranch</text>
</g>
<!-- Node9 -->
<g id="node17" class="node"><title>Node9</title>
<a xlink:href="structant_1_1analysis_1_1physics_1_1_omega_eta_g2_1_1m_particle_vars.html" target="_top" xlink:title="ant::analysis::physics\l::OmegaEtaG2::mParticleVars">
<polygon fill="white" stroke="black" points="666.5,-117.254 666.5,-151.254 815.5,-151.254 815.5,-117.254 666.5,-117.254"/>
<text text-anchor="start" x="674.5" y="-138.254" font-family="Helvetica,sans-Serif" font-size="10.00">ant::analysis::physics</text>
<text text-anchor="middle" x="741" y="-125.254" font-family="Helvetica,sans-Serif" font-size="10.00">::OmegaEtaG2::mParticleVars</text>
</a>
</g>
<!-- Node8&#45;&gt;Node9 -->
<g id="edge20" class="edge"><title>Node8&#45;&gt;Node9</title>
<path fill="none" stroke="midnightblue" d="M481.374,-156.298C533.455,-151.876 609.988,-145.378 666.476,-140.582"/>
<polygon fill="midnightblue" stroke="midnightblue" points="480.965,-152.82 471.297,-157.154 481.558,-159.795 480.965,-152.82"/>
</g>
<!-- Node9&#45;&gt;Node1 -->
<g id="edge18" class="edge"><title>Node9&#45;&gt;Node1</title>
<path fill="none" stroke="#9a32cd" stroke-dasharray="5,2" d="M825.904,-129.316C846.966,-129.445 869.401,-130.741 890,-134.254 901.007,-136.132 912.555,-139.474 923.168,-143.15"/>
<polygon fill="#9a32cd" stroke="#9a32cd" points="825.68,-125.817 815.689,-129.343 825.698,-132.817 825.68,-125.817"/>
<text text-anchor="middle" x="862" y="-164.254" font-family="Helvetica,sans-Serif" font-size="10.00"> g1branch</text>
<text text-anchor="middle" x="862" y="-151.254" font-family="Helvetica,sans-Serif" font-size="10.00">g2branch</text>
<text text-anchor="middle" x="862" y="-138.254" font-family="Helvetica,sans-Serif" font-size="10.00">g3branch</text>
</g>
<!-- Node10 -->
<g id="node20" class="node"><title>Node10</title>
<a xlink:href="structant_1_1analysis_1_1physics_1_1_omega_eta_g2_1_1expected__peak__t.html" target="_top" xlink:title="ant::analysis::physics\l::OmegaEtaG2::expected\l_peak_t">
<polygon fill="white" stroke="black" points="677,-49.7543 677,-96.7543 805,-96.7543 805,-49.7543 677,-49.7543"/>
<text text-anchor="start" x="685" y="-83.7543" font-family="Helvetica,sans-Serif" font-size="10.00">ant::analysis::physics</text>
<text text-anchor="start" x="685" y="-70.7543" font-family="Helvetica,sans-Serif" font-size="10.00">::OmegaEtaG2::expected</text>
<text text-anchor="middle" x="741" y="-57.7543" font-family="Helvetica,sans-Serif" font-size="10.00">_peak_t</text>
</a>
</g>
<!-- Node10&#45;&gt;Node1 -->
<g id="edge22" class="edge"><title>Node10&#45;&gt;Node1</title>
<path fill="none" stroke="#9a32cd" stroke-dasharray="5,2" d="M815.191,-69.7298C839.94,-71.1177 867.04,-75.5511 890,-86.2543 916.842,-98.767 939.503,-125.346 952.425,-143.006"/>
<polygon fill="#9a32cd" stroke="#9a32cd" points="815.246,-66.2292 805.112,-69.3211 814.962,-73.2234 815.246,-66.2292"/>
<text text-anchor="middle" x="862" y="-116.254" font-family="Helvetica,sans-Serif" font-size="10.00"> pi0_peak</text>
<text text-anchor="middle" x="862" y="-103.254" font-family="Helvetica,sans-Serif" font-size="10.00">omega_peak</text>
<text text-anchor="middle" x="862" y="-90.2543" font-family="Helvetica,sans-Serif" font-size="10.00">eta_peak</text>
</g>
<!-- Node11&#45;&gt;Node1 -->
<g id="edge24" class="edge"><title>Node11&#45;&gt;Node1</title>
<path fill="none" stroke="#9a32cd" stroke-dasharray="5,2" d="M603.775,-44.3106C621.09,-32.8421 643.666,-20.1716 666,-14.2543 730.443,2.81954 752.527,6.13137 816,-14.2543 883.01,-35.7758 933.806,-109.222 954.209,-143.002"/>
<polygon fill="#9a32cd" stroke="#9a32cd" points="601.507,-41.6216 595.229,-50.1562 605.459,-47.3992 601.507,-41.6216"/>
<text text-anchor="middle" x="741" y="-31.2543" font-family="Helvetica,sans-Serif" font-size="10.00"> proton_cut</text>
<text text-anchor="middle" x="741" y="-18.2543" font-family="Helvetica,sans-Serif" font-size="10.00">photon_cut</text>
</g>
</g>
</svg>
