<?xml version="1.0" encoding="UTF-8" standalone="no"?>
<!DOCTYPE svg PUBLIC "-//W3C//DTD SVG 1.1//EN"
 "http://www.w3.org/Graphics/SVG/1.1/DTD/svg11.dtd">
<!-- Generated by graphviz version 2.26.3 (20100126.1600)
 -->
<!-- Title: ant::UnpackerA2GeantConfig Pages: 1 -->
<svg width="946pt" height="146pt"
 viewBox="0.00 0.00 946.00 146.00" xmlns="http://www.w3.org/2000/svg" xmlns:xlink="http://www.w3.org/1999/xlink">
<g id="graph1" class="graph" transform="scale(1 1) rotate(0) translate(4 142)">
<title>ant::UnpackerA2GeantConfig</title>
<polygon fill="white" stroke="white" points="-4,5 -4,-142 943,-142 943,5 -4,5"/>
<!-- Node1 -->
<g id="node1" class="node"><title>Node1</title>
<polygon fill="#bfbfbf" stroke="black" points="326.5,-32.5 326.5,-53.5 471.5,-53.5 471.5,-32.5 326.5,-32.5"/>
<text text-anchor="middle" x="399" y="-40.5" font-family="Helvetica,sans-Serif" font-size="10.00">ant::UnpackerA2GeantConfig</text>
</g>
<!-- Node4 -->
<g id="node7" class="node"><title>Node4</title>
<a xlink:href="classant_1_1expconfig_1_1_setup.html" target="_top" xlink:title="The Setup class serves as a base class for all known beamtime setup configurations. ">
<polygon fill="white" stroke="black" points="508,-32.5 508,-53.5 618,-53.5 618,-32.5 508,-32.5"/>
<text text-anchor="middle" x="563" y="-40.5" font-family="Helvetica,sans-Serif" font-size="10.00">ant::expconfig::Setup</text>
</a>
</g>
<!-- Node1&#45;&gt;Node4 -->
<g id="edge6" class="edge"><title>Node1&#45;&gt;Node4</title>
<path fill="none" stroke="midnightblue" d="M482.032,-43C490.688,-43 499.328,-43 507.566,-43"/>
<polygon fill="midnightblue" stroke="midnightblue" points="481.888,-39.5001 471.888,-43 481.888,-46.5001 481.888,-39.5001"/>
</g>
<!-- Node2 -->
<g id="node2" class="node"><title>Node2</title>
<a xlink:href="classant_1_1_exp_config_1_1_unpacker.html" target="_top" xlink:title="ant::ExpConfig::Unpacker\l\&lt; UnpackerA2GeantConfig \&gt;">
<polygon fill="white" stroke="black" points="146.5,-26 146.5,-60 289.5,-60 289.5,-26 146.5,-26"/>
<text text-anchor="start" x="154.5" y="-47" font-family="Helvetica,sans-Serif" font-size="10.00">ant::ExpConfig::Unpacker</text>
<text text-anchor="middle" x="218" y="-34" font-family="Helvetica,sans-Serif" font-size="10.00">&lt; UnpackerA2GeantConfig &gt;</text>
</a>
</g>
<!-- Node2&#45;&gt;Node1 -->
<g id="edge2" class="edge"><title>Node2&#45;&gt;Node1</title>
<path fill="none" stroke="midnightblue" d="M299.799,-43C308.602,-43 317.516,-43 326.203,-43"/>
<polygon fill="midnightblue" stroke="midnightblue" points="299.536,-39.5001 289.536,-43 299.536,-46.5001 299.536,-39.5001"/>
</g>
<!-- Node3 -->
<g id="node4" class="node"><title>Node3</title>
<a xlink:href="classant_1_1_exp_config_1_1_base.html" target="_top" xlink:title="ant::ExpConfig::Base">
<polygon fill="white" stroke="black" points="0,-32.5 0,-53.5 110,-53.5 110,-32.5 0,-32.5"/>
<text text-anchor="middle" x="55" y="-40.5" font-family="Helvetica,sans-Serif" font-size="10.00">ant::ExpConfig::Base</text>
</a>
</g>
<!-- Node3&#45;&gt;Node2 -->
<g id="edge4" class="edge"><title>Node3&#45;&gt;Node2</title>
<path fill="none" stroke="midnightblue" d="M120.45,-43C128.988,-43 137.77,-43 146.402,-43"/>
<polygon fill="midnightblue" stroke="midnightblue" points="120.184,-39.5001 110.184,-43 120.184,-46.5001 120.184,-39.5001"/>
</g>
<!-- Node5 -->
<g id="node9" class="node"><title>Node5</title>
<a xlink:href="classant_1_1expconfig_1_1setup_1_1_setup__2014___e_p_t.html" target="_top" xlink:title="ant::expconfig::setup\l::Setup_2014_EPT">
<polygon fill="white" stroke="black" points="654,-52 654,-86 762,-86 762,-52 654,-52"/>
<text text-anchor="start" x="662" y="-73" font-family="Helvetica,sans-Serif" font-size="10.00">ant::expconfig::setup</text>
<text text-anchor="middle" x="708" y="-60" font-family="Helvetica,sans-Serif" font-size="10.00">::Setup_2014_EPT</text>
</a>
</g>
<!-- Node4&#45;&gt;Node5 -->
<g id="edge8" class="edge"><title>Node4&#45;&gt;Node5</title>
<path fill="none" stroke="midnightblue" d="M628.213,-54.6933C636.793,-56.2319 645.512,-57.7952 653.88,-59.2957"/>
<polygon fill="midnightblue" stroke="midnightblue" points="628.693,-51.2236 618.232,-52.9037 627.457,-58.1137 628.693,-51.2236"/>
</g>
<!-- Node9 -->
<g id="node17" class="node"><title>Node9</title>
<a xlink:href="classant_1_1expconfig_1_1setup_1_1_setup___test.html" target="_top" xlink:title="The Setup_Test class exists to run the test cases below test/. ">
<polygon fill="white" stroke="black" points="654,-0 654,-34 762,-34 762,-0 654,-0"/>
<text text-anchor="start" x="662" y="-21" font-family="Helvetica,sans-Serif" font-size="10.00">ant::expconfig::setup</text>
<text text-anchor="middle" x="708" y="-8" font-family="Helvetica,sans-Serif" font-size="10.00">::Setup_Test</text>
</a>
</g>
<!-- Node4&#45;&gt;Node9 -->
<g id="edge16" class="edge"><title>Node4&#45;&gt;Node9</title>
<path fill="none" stroke="midnightblue" d="M628.213,-31.3067C636.793,-29.7681 645.512,-28.2048 653.88,-26.7043"/>
<polygon fill="midnightblue" stroke="midnightblue" points="627.457,-27.8863 618.232,-33.0963 628.693,-34.7764 627.457,-27.8863"/>
</g>
<!-- Node6 -->
<g id="node11" class="node"><title>Node6</title>
<a xlink:href="classant_1_1expconfig_1_1setup_1_1_setup__2014__07___e_p_t___prod.html" target="_top" xlink:title="ant::expconfig::setup\l::Setup_2014_07_EPT_Prod">
<polygon fill="white" stroke="black" points="798,-104 798,-138 938,-138 938,-104 798,-104"/>
<text text-anchor="start" x="806" y="-125" font-family="Helvetica,sans-Serif" font-size="10.00">ant::expconfig::setup</text>
<text text-anchor="middle" x="868" y="-112" font-family="Helvetica,sans-Serif" font-size="10.00">::Setup_2014_07_EPT_Prod</text>
</a>
</g>
<!-- Node5&#45;&gt;Node6 -->
<g id="edge10" class="edge"><title>Node5&#45;&gt;Node6</title>
<path fill="none" stroke="midnightblue" d="M770.096,-89.1812C785.096,-94.0562 800.981,-99.2189 815.492,-103.935"/>
<polygon fill="midnightblue" stroke="midnightblue" points="770.982,-85.7891 760.39,-86.0267 768.819,-92.4463 770.982,-85.7891"/>
</g>
<!-- Node7 -->
<g id="node13" class="node"><title>Node7</title>
<a xlink:href="classant_1_1expconfig_1_1setup_1_1_setup__2014__10___e_p_t___prod.html" target="_top" xlink:title="ant::expconfig::setup\l::Setup_2014_10_EPT_Prod">
<polygon fill="white" stroke="black" points="798,-52 798,-86 938,-86 938,-52 798,-52"/>
<text text-anchor="start" x="806" y="-73" font-family="Helvetica,sans-Serif" font-size="10.00">ant::expconfig::setup</text>
<text text-anchor="middle" x="868" y="-60" font-family="Helvetica,sans-Serif" font-size="10.00">::Setup_2014_10_EPT_Prod</text>
</a>
</g>
<!-- Node5&#45;&gt;Node7 -->
<g id="edge12" class="edge"><title>Node5&#45;&gt;Node7</title>
<path fill="none" stroke="midnightblue" d="M772.246,-69C780.626,-69 789.247,-69 797.72,-69"/>
<polygon fill="midnightblue" stroke="midnightblue" points="772.169,-65.5001 762.169,-69 772.169,-72.5001 772.169,-65.5001"/>
</g>
<!-- Node8 -->
<g id="node15" class="node"><title>Node8</title>
<a xlink:href="classant_1_1expconfig_1_1setup_1_1_setup__2014__12___e_p_t___prod.html" target="_top" xlink:title="ant::expconfig::setup\l::Setup_2014_12_EPT_Prod">
<polygon fill="white" stroke="black" points="798,-0 798,-34 938,-34 938,-0 798,-0"/>
<text text-anchor="start" x="806" y="-21" font-family="Helvetica,sans-Serif" font-size="10.00">ant::expconfig::setup</text>
<text text-anchor="middle" x="868" y="-8" font-family="Helvetica,sans-Serif" font-size="10.00">::Setup_2014_12_EPT_Prod</text>
</a>
</g>
<!-- Node5&#45;&gt;Node8 -->
<g id="edge14" class="edge"><title>Node5&#45;&gt;Node8</title>
<path fill="none" stroke="midnightblue" d="M770.096,-48.8188C785.096,-43.9438 800.981,-38.7811 815.492,-34.065"/>
<polygon fill="midnightblue" stroke="midnightblue" points="768.819,-45.5537 760.39,-51.9733 770.982,-52.2109 768.819,-45.5537"/>
</g>
</g>
</svg>
