<?xml version="1.0" encoding="UTF-8" standalone="no"?>
<!DOCTYPE svg PUBLIC "-//W3C//DTD SVG 1.1//EN"
 "http://www.w3.org/Graphics/SVG/1.1/DTD/svg11.dtd">
<!-- Generated by graphviz version 2.26.3 (20100126.1600)
 -->
<!-- Title: ant::ReconstructHook::DetectorReadHits Pages: 1 -->
<svg width="612pt" height="290pt"
 viewBox="0.00 0.00 612.00 290.00" xmlns="http://www.w3.org/2000/svg" xmlns:xlink="http://www.w3.org/1999/xlink">
<g id="graph1" class="graph" transform="scale(1 1) rotate(0) translate(4 286)">
<title>ant::ReconstructHook::DetectorReadHits</title>
<polygon fill="white" stroke="white" points="-4,5 -4,-286 609,-286 609,5 -4,5"/>
<!-- Node1 -->
<g id="node1" class="node"><title>Node1</title>
<polygon fill="#bfbfbf" stroke="black" points="150.5,-118 150.5,-152 263.5,-152 263.5,-118 150.5,-118"/>
<text text-anchor="start" x="158.5" y="-139" font-family="Helvetica,sans-Serif" font-size="10.00">ant::ReconstructHook</text>
<text text-anchor="middle" x="207" y="-126" font-family="Helvetica,sans-Serif" font-size="10.00">::DetectorReadHits</text>
</g>
<!-- Node3 -->
<g id="node5" class="node"><title>Node3</title>
<a xlink:href="structant_1_1calibration_1_1converter_1_1_c_a_t_c_h___t_d_c.html" target="_top" xlink:title="ant::calibration::converter\l::CATCH_TDC">
<polygon fill="white" stroke="black" points="300.5,-216 300.5,-250 427.5,-250 427.5,-216 300.5,-216"/>
<text text-anchor="start" x="308.5" y="-237" font-family="Helvetica,sans-Serif" font-size="10.00">ant::calibration::converter</text>
<text text-anchor="middle" x="364" y="-224" font-family="Helvetica,sans-Serif" font-size="10.00">::CATCH_TDC</text>
</a>
</g>
<!-- Node1&#45;&gt;Node3 -->
<g id="edge4" class="edge"><title>Node1&#45;&gt;Node3</title>
<path fill="none" stroke="midnightblue" d="M233.566,-158.738C251.452,-173.896 276.06,-193.218 300,-207 305.509,-210.171 311.48,-213.144 317.485,-215.864"/>
<polygon fill="midnightblue" stroke="midnightblue" points="235.713,-155.967 225.848,-152.101 231.149,-161.275 235.713,-155.967"/>
</g>
<!-- Node4 -->
<g id="node7" class="node"><title>Node4</title>
<a xlink:href="structant_1_1calibration_1_1converter_1_1_scaler_frequency.html" target="_top" xlink:title="ant::calibration::converter\l::ScalerFrequency">
<polygon fill="white" stroke="black" points="300.5,-164 300.5,-198 427.5,-198 427.5,-164 300.5,-164"/>
<text text-anchor="start" x="308.5" y="-185" font-family="Helvetica,sans-Serif" font-size="10.00">ant::calibration::converter</text>
<text text-anchor="middle" x="364" y="-172" font-family="Helvetica,sans-Serif" font-size="10.00">::ScalerFrequency</text>
</a>
</g>
<!-- Node1&#45;&gt;Node4 -->
<g id="edge6" class="edge"><title>Node1&#45;&gt;Node4</title>
<path fill="none" stroke="midnightblue" d="M273.45,-154.469C284.208,-157.621 295.275,-160.864 305.818,-163.953"/>
<polygon fill="midnightblue" stroke="midnightblue" points="274.261,-151.06 263.681,-151.607 272.293,-157.778 274.261,-151.06"/>
</g>
<!-- Node5 -->
<g id="node9" class="node"><title>Node5</title>
<a xlink:href="classant_1_1calibration_1_1_energy.html" target="_top" xlink:title="ant::calibration::Energy">
<polygon fill="white" stroke="black" points="305.5,-124.5 305.5,-145.5 422.5,-145.5 422.5,-124.5 305.5,-124.5"/>
<text text-anchor="middle" x="364" y="-132.5" font-family="Helvetica,sans-Serif" font-size="10.00">ant::calibration::Energy</text>
</a>
</g>
<!-- Node1&#45;&gt;Node5 -->
<g id="edge8" class="edge"><title>Node1&#45;&gt;Node5</title>
<path fill="none" stroke="midnightblue" d="M273.973,-135C284.386,-135 295.076,-135 305.288,-135"/>
<polygon fill="midnightblue" stroke="midnightblue" points="273.681,-131.5 263.681,-135 273.681,-138.5 273.681,-131.5"/>
</g>
<!-- Node11 -->
<g id="node21" class="node"><title>Node11</title>
<a xlink:href="classant_1_1calibration_1_1_scaler.html" target="_top" xlink:title="ant::calibration::Scaler">
<polygon fill="white" stroke="black" points="307,-84.5 307,-105.5 421,-105.5 421,-84.5 307,-84.5"/>
<text text-anchor="middle" x="364" y="-92.5" font-family="Helvetica,sans-Serif" font-size="10.00">ant::calibration::Scaler</text>
</a>
</g>
<!-- Node1&#45;&gt;Node11 -->
<g id="edge20" class="edge"><title>Node1&#45;&gt;Node11</title>
<path fill="none" stroke="midnightblue" d="M273.412,-118.08C290.126,-113.821 307.59,-109.372 322.673,-105.529"/>
<polygon fill="midnightblue" stroke="midnightblue" points="272.507,-114.698 263.681,-120.559 274.235,-121.482 272.507,-114.698"/>
</g>
<!-- Node12 -->
<g id="node23" class="node"><title>Node12</title>
<a xlink:href="classant_1_1calibration_1_1_time.html" target="_top" xlink:title="ant::calibration::Time">
<polygon fill="white" stroke="black" points="310,-22.5 310,-43.5 418,-43.5 418,-22.5 310,-22.5"/>
<text text-anchor="middle" x="364" y="-30.5" font-family="Helvetica,sans-Serif" font-size="10.00">ant::calibration::Time</text>
</a>
</g>
<!-- Node1&#45;&gt;Node12 -->
<g id="edge22" class="edge"><title>Node1&#45;&gt;Node12</title>
<path fill="none" stroke="midnightblue" d="M241.73,-112.436C274.715,-91.0069 322.853,-59.7325 347.745,-43.5607"/>
<polygon fill="midnightblue" stroke="midnightblue" points="239.757,-109.544 233.278,-117.927 243.571,-115.414 239.757,-109.544"/>
</g>
<!-- Node2 -->
<g id="node2" class="node"><title>Node2</title>
<a xlink:href="classant_1_1_reconstruct_hook_1_1_base.html" target="_top" xlink:title="The Base class just defines some useful types. ">
<polygon fill="white" stroke="black" points="0.5,-118 0.5,-152 113.5,-152 113.5,-118 0.5,-118"/>
<text text-anchor="start" x="8.5" y="-139" font-family="Helvetica,sans-Serif" font-size="10.00">ant::ReconstructHook</text>
<text text-anchor="middle" x="57" y="-126" font-family="Helvetica,sans-Serif" font-size="10.00">::Base</text>
</a>
</g>
<!-- Node2&#45;&gt;Node1 -->
<g id="edge2" class="edge"><title>Node2&#45;&gt;Node1</title>
<path fill="none" stroke="midnightblue" d="M123.916,-135C132.694,-135 141.622,-135 150.211,-135"/>
<polygon fill="midnightblue" stroke="midnightblue" points="123.709,-131.5 113.709,-135 123.709,-138.5 123.709,-131.5"/>
</g>
<!-- Node6 -->
<g id="node11" class="node"><title>Node6</title>
<a xlink:href="classant_1_1calibration_1_1_c_b___energy.html" target="_top" xlink:title="ant::calibration::CB\l_Energy">
<polygon fill="white" stroke="black" points="483.5,-248 483.5,-282 584.5,-282 584.5,-248 483.5,-248"/>
<text text-anchor="start" x="491.5" y="-269" font-family="Helvetica,sans-Serif" font-size="10.00">ant::calibration::CB</text>
<text text-anchor="middle" x="534" y="-256" font-family="Helvetica,sans-Serif" font-size="10.00">_Energy</text>
</a>
</g>
<!-- Node5&#45;&gt;Node6 -->
<g id="edge10" class="edge"><title>Node5&#45;&gt;Node6</title>
<path fill="none" stroke="midnightblue" d="M422.511,-150.694C424.441,-152.015 426.28,-153.447 428,-155 458.148,-182.219 434.581,-210.995 464,-239 469.54,-244.274 476.245,-248.498 483.283,-251.875"/>
<polygon fill="midnightblue" stroke="midnightblue" points="423.979,-147.502 413.559,-145.585 420.509,-153.581 423.979,-147.502"/>
</g>
<!-- Node7 -->
<g id="node13" class="node"><title>Node7</title>
<a xlink:href="classant_1_1calibration_1_1_p_i_d___energy.html" target="_top" xlink:title="ant::calibration::PID\l_Energy">
<polygon fill="white" stroke="black" points="482,-196 482,-230 586,-230 586,-196 482,-196"/>
<text text-anchor="start" x="490" y="-217" font-family="Helvetica,sans-Serif" font-size="10.00">ant::calibration::PID</text>
<text text-anchor="middle" x="534" y="-204" font-family="Helvetica,sans-Serif" font-size="10.00">_Energy</text>
</a>
</g>
<!-- Node5&#45;&gt;Node7 -->
<g id="edge12" class="edge"><title>Node5&#45;&gt;Node7</title>
<path fill="none" stroke="midnightblue" d="M416.29,-149.274C420.343,-151 424.295,-152.905 428,-155 446.633,-165.539 445.651,-175.973 464,-187 469.556,-190.339 475.612,-193.365 481.76,-196.074"/>
<polygon fill="midnightblue" stroke="midnightblue" points="417.308,-145.914 406.719,-145.566 414.779,-152.442 417.308,-145.914"/>
</g>
<!-- Node8 -->
<g id="node15" class="node"><title>Node8</title>
<a xlink:href="classant_1_1calibration_1_1_t_a_p_s___energy.html" target="_top" xlink:title="ant::calibration::TAPS\l_Energy">
<polygon fill="white" stroke="black" points="477.5,-144 477.5,-178 590.5,-178 590.5,-144 477.5,-144"/>
<text text-anchor="start" x="485.5" y="-165" font-family="Helvetica,sans-Serif" font-size="10.00">ant::calibration::TAPS</text>
<text text-anchor="middle" x="534" y="-152" font-family="Helvetica,sans-Serif" font-size="10.00">_Energy</text>
</a>
</g>
<!-- Node5&#45;&gt;Node8 -->
<g id="edge14" class="edge"><title>Node5&#45;&gt;Node8</title>
<path fill="none" stroke="midnightblue" d="M432.657,-145.5C447.515,-147.773 463.065,-150.151 477.398,-152.343"/>
<polygon fill="midnightblue" stroke="midnightblue" points="432.919,-142 422.504,-143.948 431.86,-148.919 432.919,-142"/>
</g>
<!-- Node9 -->
<g id="node17" class="node"><title>Node9</title>
<a xlink:href="classant_1_1calibration_1_1_t_a_p_s___short_energy.html" target="_top" xlink:title="ant::calibration::TAPS\l_ShortEnergy">
<polygon fill="white" stroke="black" points="477.5,-92 477.5,-126 590.5,-126 590.5,-92 477.5,-92"/>
<text text-anchor="start" x="485.5" y="-113" font-family="Helvetica,sans-Serif" font-size="10.00">ant::calibration::TAPS</text>
<text text-anchor="middle" x="534" y="-100" font-family="Helvetica,sans-Serif" font-size="10.00">_ShortEnergy</text>
</a>
</g>
<!-- Node5&#45;&gt;Node9 -->
<g id="edge16" class="edge"><title>Node5&#45;&gt;Node9</title>
<path fill="none" stroke="midnightblue" d="M432.657,-124.5C447.515,-122.227 463.065,-119.849 477.398,-117.657"/>
<polygon fill="midnightblue" stroke="midnightblue" points="431.86,-121.081 422.504,-126.052 432.919,-128 431.86,-121.081"/>
</g>
<!-- Node10 -->
<g id="node19" class="node"><title>Node10</title>
<a xlink:href="classant_1_1calibration_1_1_t_a_p_s_veto___energy.html" target="_top" xlink:title="ant::calibration::TAPSVeto\l_Energy">
<polygon fill="white" stroke="black" points="467.5,-40 467.5,-74 600.5,-74 600.5,-40 467.5,-40"/>
<text text-anchor="start" x="475.5" y="-61" font-family="Helvetica,sans-Serif" font-size="10.00">ant::calibration::TAPSVeto</text>
<text text-anchor="middle" x="534" y="-48" font-family="Helvetica,sans-Serif" font-size="10.00">_Energy</text>
</a>
</g>
<!-- Node5&#45;&gt;Node10 -->
<g id="edge18" class="edge"><title>Node5&#45;&gt;Node10</title>
<path fill="none" stroke="midnightblue" d="M416.29,-120.726C420.343,-119 424.295,-117.095 428,-115 446.633,-104.461 445.651,-94.0272 464,-83 469.445,-79.7278 475.37,-76.7557 481.392,-74.0887"/>
<polygon fill="midnightblue" stroke="midnightblue" points="414.779,-117.558 406.719,-124.434 417.308,-124.086 414.779,-117.558"/>
</g>
<!-- Node13 -->
<g id="node25" class="node"><title>Node13</title>
<a xlink:href="classant_1_1calibration_1_1_t_a_p_s___time.html" target="_top" xlink:title="ant::calibration::TAPS_Time">
<polygon fill="white" stroke="black" points="464,-0.5 464,-21.5 604,-21.5 604,-0.5 464,-0.5"/>
<text text-anchor="middle" x="534" y="-8.5" font-family="Helvetica,sans-Serif" font-size="10.00">ant::calibration::TAPS_Time</text>
</a>
</g>
<!-- Node12&#45;&gt;Node13 -->
<g id="edge24" class="edge"><title>Node12&#45;&gt;Node13</title>
<path fill="none" stroke="midnightblue" d="M428.286,-24.6807C439.885,-23.1795 452.033,-21.6075 463.791,-20.0858"/>
<polygon fill="midnightblue" stroke="midnightblue" points="427.725,-21.224 418.256,-25.9786 428.623,-28.1661 427.725,-21.224"/>
</g>
</g>
</svg>
