<?xml version="1.0" encoding="UTF-8" standalone="no"?>
<!DOCTYPE svg PUBLIC "-//W3C//DTD SVG 1.1//EN"
 "http://www.w3.org/Graphics/SVG/1.1/DTD/svg11.dtd">
<!-- Generated by graphviz version 2.26.3 (20100126.1600)
 -->
<!-- Title: ant::calibration::TAPS_ShortEnergy::ThePhysics Pages: 1 -->
<svg width="142pt" height="190pt"
 viewBox="0.00 0.00 142.00 190.00" xmlns="http://www.w3.org/2000/svg" xmlns:xlink="http://www.w3.org/1999/xlink">
<g id="graph1" class="graph" transform="scale(1 1) rotate(0) translate(4 186)">
<title>ant::calibration::TAPS_ShortEnergy::ThePhysics</title>
<polygon fill="white" stroke="white" points="-4,5 -4,-186 139,-186 139,5 -4,5"/>
<!-- Node1 -->
<g id="node1" class="node"><title>Node1</title>
<polygon fill="#bfbfbf" stroke="black" points="0,-1 0,-35 134,-35 134,-1 0,-1"/>
<text text-anchor="start" x="8" y="-22" font-family="Helvetica,sans-Serif" font-size="10.00">ant::calibration::TAPS</text>
<text text-anchor="middle" x="67" y="-9" font-family="Helvetica,sans-Serif" font-size="10.00">_ShortEnergy::ThePhysics</text>
</g>
<!-- Node2 -->
<g id="node2" class="node"><title>Node2</title>
<a xlink:href="classant_1_1analysis_1_1_physics.html" target="_top" xlink:title="ant::analysis::Physics">
<polygon fill="white" stroke="black" points="10.5,-74.5 10.5,-95.5 123.5,-95.5 123.5,-74.5 10.5,-74.5"/>
<text text-anchor="middle" x="67" y="-82.5" font-family="Helvetica,sans-Serif" font-size="10.00">ant::analysis::Physics</text>
</a>
</g>
<!-- Node2&#45;&gt;Node1 -->
<g id="edge2" class="edge"><title>Node2&#45;&gt;Node1</title>
<path fill="none" stroke="midnightblue" d="M67,-64.1655C67,-54.7973 67,-43.8796 67,-35.0139"/>
<polygon fill="midnightblue" stroke="midnightblue" points="63.5001,-64.2353 67,-74.2353 70.5001,-64.2353 63.5001,-64.2353"/>
</g>
<!-- Node3 -->
<g id="node4" class="node"><title>Node3</title>
<a xlink:href="classant_1_1analysis_1_1_smart_hist_factory.html" target="_top" xlink:title="ant::analysis::SmartHist\lFactory">
<polygon fill="white" stroke="black" points="6,-147 6,-181 128,-181 128,-147 6,-147"/>
<text text-anchor="start" x="14" y="-168" font-family="Helvetica,sans-Serif" font-size="10.00">ant::analysis::SmartHist</text>
<text text-anchor="middle" x="67" y="-155" font-family="Helvetica,sans-Serif" font-size="10.00">Factory</text>
</a>
</g>
<!-- Node3&#45;&gt;Node2 -->
<g id="edge4" class="edge"><title>Node3&#45;&gt;Node2</title>
<path fill="none" stroke="#9a32cd" stroke-dasharray="5,2" d="M67,-136.623C67,-122.473 67,-106.024 67,-95.5672"/>
<polygon fill="#9a32cd" stroke="#9a32cd" points="63.5001,-136.858 67,-146.858 70.5001,-136.858 63.5001,-136.858"/>
<text text-anchor="middle" x="86" y="-118.5" font-family="Helvetica,sans-Serif" font-size="10.00"> HistFac</text>
</g>
</g>
</svg>
