<?xml version="1.0" encoding="UTF-8" standalone="no"?>
<!DOCTYPE svg PUBLIC "-//W3C//DTD SVG 1.1//EN"
 "http://www.w3.org/Graphics/SVG/1.1/DTD/svg11.dtd">
<!-- Generated by graphviz version 2.26.3 (20100126.1600)
 -->
<!-- Title: ant::calibration::TAPS_Time::ThePhysics Pages: 1 -->
<svg width="130pt" height="264pt"
 viewBox="0.00 0.00 130.00 264.00" xmlns="http://www.w3.org/2000/svg" xmlns:xlink="http://www.w3.org/1999/xlink">
<g id="graph1" class="graph" transform="scale(1 1) rotate(0) translate(4 260)">
<title>ant::calibration::TAPS_Time::ThePhysics</title>
<polygon fill="white" stroke="white" points="-4,5 -4,-260 127,-260 127,5 -4,5"/>
<!-- Node1 -->
<g id="node1" class="node"><title>Node1</title>
<polygon fill="#bfbfbf" stroke="black" points="4.5,-1 4.5,-35 117.5,-35 117.5,-1 4.5,-1"/>
<text text-anchor="start" x="12.5" y="-22" font-family="Helvetica,sans-Serif" font-size="10.00">ant::calibration::TAPS</text>
<text text-anchor="middle" x="61" y="-9" font-family="Helvetica,sans-Serif" font-size="10.00">_Time::ThePhysics</text>
</g>
<!-- Node2 -->
<g id="node2" class="node"><title>Node2</title>
<a xlink:href="classant_1_1calibration_1_1_time_1_1_the_physics.html" target="_top" xlink:title="ant::calibration::Time\l::ThePhysics">
<polygon fill="white" stroke="black" points="7,-75 7,-109 115,-109 115,-75 7,-75"/>
<text text-anchor="start" x="15" y="-96" font-family="Helvetica,sans-Serif" font-size="10.00">ant::calibration::Time</text>
<text text-anchor="middle" x="61" y="-83" font-family="Helvetica,sans-Serif" font-size="10.00">::ThePhysics</text>
</a>
</g>
<!-- Node2&#45;&gt;Node1 -->
<g id="edge2" class="edge"><title>Node2&#45;&gt;Node1</title>
<path fill="none" stroke="midnightblue" d="M61,-64.6275C61,-54.7253 61,-43.8344 61,-35.07"/>
<polygon fill="midnightblue" stroke="midnightblue" points="57.5001,-64.8369 61,-74.8369 64.5001,-64.8369 57.5001,-64.8369"/>
</g>
<!-- Node3 -->
<g id="node4" class="node"><title>Node3</title>
<a xlink:href="classant_1_1analysis_1_1_physics.html" target="_top" xlink:title="ant::analysis::Physics">
<polygon fill="white" stroke="black" points="4.5,-148.5 4.5,-169.5 117.5,-169.5 117.5,-148.5 4.5,-148.5"/>
<text text-anchor="middle" x="61" y="-156.5" font-family="Helvetica,sans-Serif" font-size="10.00">ant::analysis::Physics</text>
</a>
</g>
<!-- Node3&#45;&gt;Node2 -->
<g id="edge4" class="edge"><title>Node3&#45;&gt;Node2</title>
<path fill="none" stroke="midnightblue" d="M61,-138.165C61,-128.797 61,-117.88 61,-109.014"/>
<polygon fill="midnightblue" stroke="midnightblue" points="57.5001,-138.235 61,-148.235 64.5001,-138.235 57.5001,-138.235"/>
</g>
<!-- Node4 -->
<g id="node6" class="node"><title>Node4</title>
<a xlink:href="classant_1_1analysis_1_1_smart_hist_factory.html" target="_top" xlink:title="ant::analysis::SmartHist\lFactory">
<polygon fill="white" stroke="black" points="0,-221 0,-255 122,-255 122,-221 0,-221"/>
<text text-anchor="start" x="8" y="-242" font-family="Helvetica,sans-Serif" font-size="10.00">ant::analysis::SmartHist</text>
<text text-anchor="middle" x="61" y="-229" font-family="Helvetica,sans-Serif" font-size="10.00">Factory</text>
</a>
</g>
<!-- Node4&#45;&gt;Node3 -->
<g id="edge6" class="edge"><title>Node4&#45;&gt;Node3</title>
<path fill="none" stroke="#9a32cd" stroke-dasharray="5,2" d="M61,-210.623C61,-196.473 61,-180.024 61,-169.567"/>
<polygon fill="#9a32cd" stroke="#9a32cd" points="57.5001,-210.858 61,-220.858 64.5001,-210.858 57.5001,-210.858"/>
<text text-anchor="middle" x="80" y="-192.5" font-family="Helvetica,sans-Serif" font-size="10.00"> HistFac</text>
</g>
</g>
</svg>
