<?xml version="1.0" encoding="UTF-8" standalone="no"?>
<!DOCTYPE svg PUBLIC "-//W3C//DTD SVG 1.1//EN"
 "http://www.w3.org/Graphics/SVG/1.1/DTD/svg11.dtd">
<!-- Generated by graphviz version 2.26.3 (20100126.1600)
 -->
<!-- Title: ant::Calibration::PhysicsModule Pages: 1 -->
<svg width="798pt" height="290pt"
 viewBox="0.00 0.00 798.00 290.00" xmlns="http://www.w3.org/2000/svg" xmlns:xlink="http://www.w3.org/1999/xlink">
<g id="graph1" class="graph" transform="scale(1 1) rotate(0) translate(4 286)">
<title>ant::Calibration::PhysicsModule</title>
<polygon fill="white" stroke="white" points="-4,5 -4,-286 795,-286 795,5 -4,5"/>
<!-- Node1 -->
<g id="node1" class="node"><title>Node1</title>
<polygon fill="#bfbfbf" stroke="black" points="180,-95 180,-129 304,-129 304,-95 180,-95"/>
<text text-anchor="start" x="188" y="-116" font-family="Helvetica,sans-Serif" font-size="10.00">ant::Calibration::Physics</text>
<text text-anchor="middle" x="242" y="-103" font-family="Helvetica,sans-Serif" font-size="10.00">Module</text>
</g>
<!-- Node3 -->
<g id="node5" class="node"><title>Node3</title>
<a xlink:href="classant_1_1_calibration_1_1_module.html" target="_top" xlink:title="The Module class is typically used for calibrations. ">
<polygon fill="white" stroke="black" points="340,-101.5 340,-122.5 460,-122.5 460,-101.5 340,-101.5"/>
<text text-anchor="middle" x="400" y="-109.5" font-family="Helvetica,sans-Serif" font-size="10.00">ant::Calibration::Module</text>
</a>
</g>
<!-- Node1&#45;&gt;Node3 -->
<g id="edge4" class="edge"><title>Node1&#45;&gt;Node3</title>
<path fill="none" stroke="midnightblue" d="M314.644,-112C323.065,-112 331.584,-112 339.813,-112"/>
<polygon fill="midnightblue" stroke="midnightblue" points="314.446,-108.5 304.446,-112 314.446,-115.5 314.446,-108.5"/>
</g>
<!-- Node2 -->
<g id="node2" class="node"><title>Node2</title>
<a xlink:href="classant_1_1_calibration_1_1_base_module.html" target="_top" xlink:title="The BaseModule class provides a name for identification. ">
<polygon fill="white" stroke="black" points="0.5,-101.5 0.5,-122.5 143.5,-122.5 143.5,-101.5 0.5,-101.5"/>
<text text-anchor="middle" x="72" y="-109.5" font-family="Helvetica,sans-Serif" font-size="10.00">ant::Calibration::BaseModule</text>
</a>
</g>
<!-- Node2&#45;&gt;Node1 -->
<g id="edge2" class="edge"><title>Node2&#45;&gt;Node1</title>
<path fill="none" stroke="midnightblue" d="M153.851,-112C162.617,-112 171.429,-112 179.911,-112"/>
<polygon fill="midnightblue" stroke="midnightblue" points="153.603,-108.5 143.603,-112 153.603,-115.5 153.603,-108.5"/>
</g>
<!-- Node4 -->
<g id="node7" class="node"><title>Node4</title>
<a xlink:href="classant_1_1calibration_1_1_c_b___time_walk.html" target="_top" xlink:title="ant::calibration::CB\l_TimeWalk">
<polygon fill="white" stroke="black" points="504.5,-164 504.5,-198 605.5,-198 605.5,-164 504.5,-164"/>
<text text-anchor="start" x="512.5" y="-185" font-family="Helvetica,sans-Serif" font-size="10.00">ant::calibration::CB</text>
<text text-anchor="middle" x="555" y="-172" font-family="Helvetica,sans-Serif" font-size="10.00">_TimeWalk</text>
</a>
</g>
<!-- Node3&#45;&gt;Node4 -->
<g id="edge6" class="edge"><title>Node3&#45;&gt;Node4</title>
<path fill="none" stroke="midnightblue" d="M432.843,-126.77C451.376,-135.089 474.966,-145.655 496,-155 502.547,-157.909 509.508,-160.988 516.266,-163.971"/>
<polygon fill="midnightblue" stroke="midnightblue" points="434.21,-123.547 423.653,-122.643 431.342,-129.932 434.21,-123.547"/>
</g>
<!-- Node5 -->
<g id="node9" class="node"><title>Node5</title>
<a xlink:href="classant_1_1calibration_1_1_energy.html" target="_top" xlink:title="ant::calibration::Energy">
<polygon fill="white" stroke="black" points="496.5,-124.5 496.5,-145.5 613.5,-145.5 613.5,-124.5 496.5,-124.5"/>
<text text-anchor="middle" x="555" y="-132.5" font-family="Helvetica,sans-Serif" font-size="10.00">ant::calibration::Energy</text>
</a>
</g>
<!-- Node3&#45;&gt;Node5 -->
<g id="edge8" class="edge"><title>Node3&#45;&gt;Node5</title>
<path fill="none" stroke="midnightblue" d="M470.447,-122.453C479.098,-123.737 487.868,-125.038 496.32,-126.293"/>
<polygon fill="midnightblue" stroke="midnightblue" points="470.776,-118.964 460.371,-120.958 469.749,-125.888 470.776,-118.964"/>
</g>
<!-- Node11 -->
<g id="node21" class="node"><title>Node11</title>
<a xlink:href="classant_1_1calibration_1_1_p_i_d___phi_angle.html" target="_top" xlink:title="ant::calibration::PID\l_PhiAngle">
<polygon fill="white" stroke="black" points="503,-72 503,-106 607,-106 607,-72 503,-72"/>
<text text-anchor="start" x="511" y="-93" font-family="Helvetica,sans-Serif" font-size="10.00">ant::calibration::PID</text>
<text text-anchor="middle" x="555" y="-80" font-family="Helvetica,sans-Serif" font-size="10.00">_PhiAngle</text>
</a>
</g>
<!-- Node3&#45;&gt;Node11 -->
<g id="edge20" class="edge"><title>Node3&#45;&gt;Node11</title>
<path fill="none" stroke="midnightblue" d="M470.276,-101.572C481.148,-99.9587 492.21,-98.3172 502.598,-96.7757"/>
<polygon fill="midnightblue" stroke="midnightblue" points="469.749,-98.1118 460.371,-103.042 470.776,-105.036 469.749,-98.1118"/>
</g>
<!-- Node12 -->
<g id="node23" class="node"><title>Node12</title>
<a xlink:href="classant_1_1calibration_1_1_time.html" target="_top" xlink:title="ant::calibration::Time">
<polygon fill="white" stroke="black" points="501,-16.5 501,-37.5 609,-37.5 609,-16.5 501,-16.5"/>
<text text-anchor="middle" x="555" y="-24.5" font-family="Helvetica,sans-Serif" font-size="10.00">ant::calibration::Time</text>
</a>
</g>
<!-- Node3&#45;&gt;Node12 -->
<g id="edge22" class="edge"><title>Node3&#45;&gt;Node12</title>
<path fill="none" stroke="midnightblue" d="M428.335,-96.4612C459.392,-79.4303 508.389,-52.5608 535.439,-37.7269"/>
<polygon fill="midnightblue" stroke="midnightblue" points="426.403,-93.5293 419.317,-101.407 429.769,-99.667 426.403,-93.5293"/>
</g>
<!-- Node6 -->
<g id="node11" class="node"><title>Node6</title>
<a xlink:href="classant_1_1calibration_1_1_c_b___energy.html" target="_top" xlink:title="ant::calibration::CB\l_Energy">
<polygon fill="white" stroke="black" points="669.5,-248 669.5,-282 770.5,-282 770.5,-248 669.5,-248"/>
<text text-anchor="start" x="677.5" y="-269" font-family="Helvetica,sans-Serif" font-size="10.00">ant::calibration::CB</text>
<text text-anchor="middle" x="720" y="-256" font-family="Helvetica,sans-Serif" font-size="10.00">_Energy</text>
</a>
</g>
<!-- Node5&#45;&gt;Node6 -->
<g id="edge10" class="edge"><title>Node5&#45;&gt;Node6</title>
<path fill="none" stroke="midnightblue" d="M608.625,-150.696C610.52,-152.017 612.323,-153.449 614,-155 643.82,-182.578 620.581,-210.995 650,-239 655.54,-244.274 662.245,-248.498 669.283,-251.875"/>
<polygon fill="midnightblue" stroke="midnightblue" points="610.226,-147.579 599.82,-145.585 606.711,-153.632 610.226,-147.579"/>
</g>
<!-- Node7 -->
<g id="node13" class="node"><title>Node7</title>
<a xlink:href="classant_1_1calibration_1_1_p_i_d___energy.html" target="_top" xlink:title="ant::calibration::PID\l_Energy">
<polygon fill="white" stroke="black" points="668,-196 668,-230 772,-230 772,-196 668,-196"/>
<text text-anchor="start" x="676" y="-217" font-family="Helvetica,sans-Serif" font-size="10.00">ant::calibration::PID</text>
<text text-anchor="middle" x="720" y="-204" font-family="Helvetica,sans-Serif" font-size="10.00">_Energy</text>
</a>
</g>
<!-- Node5&#45;&gt;Node7 -->
<g id="edge12" class="edge"><title>Node5&#45;&gt;Node7</title>
<path fill="none" stroke="midnightblue" d="M603.006,-149.425C606.811,-151.122 610.523,-152.978 614,-155 632.506,-165.762 631.651,-175.973 650,-187 655.556,-190.339 661.612,-193.365 667.76,-196.074"/>
<polygon fill="midnightblue" stroke="midnightblue" points="604.019,-146.058 593.437,-145.534 601.382,-152.543 604.019,-146.058"/>
</g>
<!-- Node8 -->
<g id="node15" class="node"><title>Node8</title>
<a xlink:href="classant_1_1calibration_1_1_t_a_p_s___energy.html" target="_top" xlink:title="ant::calibration::TAPS\l_Energy">
<polygon fill="white" stroke="black" points="663.5,-144 663.5,-178 776.5,-178 776.5,-144 663.5,-144"/>
<text text-anchor="start" x="671.5" y="-165" font-family="Helvetica,sans-Serif" font-size="10.00">ant::calibration::TAPS</text>
<text text-anchor="middle" x="720" y="-152" font-family="Helvetica,sans-Serif" font-size="10.00">_Energy</text>
</a>
</g>
<!-- Node5&#45;&gt;Node8 -->
<g id="edge14" class="edge"><title>Node5&#45;&gt;Node8</title>
<path fill="none" stroke="midnightblue" d="M623.658,-145.819C636.918,-147.908 650.67,-150.075 663.489,-152.095"/>
<polygon fill="midnightblue" stroke="midnightblue" points="624.06,-142.339 613.637,-144.24 622.971,-149.254 624.06,-142.339"/>
</g>
<!-- Node9 -->
<g id="node17" class="node"><title>Node9</title>
<a xlink:href="classant_1_1calibration_1_1_t_a_p_s___short_energy.html" target="_top" xlink:title="ant::calibration::TAPS\l_ShortEnergy">
<polygon fill="white" stroke="black" points="663.5,-92 663.5,-126 776.5,-126 776.5,-92 663.5,-92"/>
<text text-anchor="start" x="671.5" y="-113" font-family="Helvetica,sans-Serif" font-size="10.00">ant::calibration::TAPS</text>
<text text-anchor="middle" x="720" y="-100" font-family="Helvetica,sans-Serif" font-size="10.00">_ShortEnergy</text>
</a>
</g>
<!-- Node5&#45;&gt;Node9 -->
<g id="edge16" class="edge"><title>Node5&#45;&gt;Node9</title>
<path fill="none" stroke="midnightblue" d="M623.658,-124.181C636.918,-122.092 650.67,-119.925 663.489,-117.905"/>
<polygon fill="midnightblue" stroke="midnightblue" points="622.971,-120.746 613.637,-125.76 624.06,-127.661 622.971,-120.746"/>
</g>
<!-- Node10 -->
<g id="node19" class="node"><title>Node10</title>
<a xlink:href="classant_1_1calibration_1_1_t_a_p_s_veto___energy.html" target="_top" xlink:title="ant::calibration::TAPSVeto\l_Energy">
<polygon fill="white" stroke="black" points="653.5,-40 653.5,-74 786.5,-74 786.5,-40 653.5,-40"/>
<text text-anchor="start" x="661.5" y="-61" font-family="Helvetica,sans-Serif" font-size="10.00">ant::calibration::TAPSVeto</text>
<text text-anchor="middle" x="720" y="-48" font-family="Helvetica,sans-Serif" font-size="10.00">_Energy</text>
</a>
</g>
<!-- Node5&#45;&gt;Node10 -->
<g id="edge18" class="edge"><title>Node5&#45;&gt;Node10</title>
<path fill="none" stroke="midnightblue" d="M603.006,-120.575C606.811,-118.878 610.523,-117.022 614,-115 632.506,-104.238 631.651,-94.0272 650,-83 655.445,-79.7278 661.37,-76.7557 667.392,-74.0887"/>
<polygon fill="midnightblue" stroke="midnightblue" points="601.382,-117.457 593.437,-124.466 604.019,-123.942 601.382,-117.457"/>
</g>
<!-- Node13 -->
<g id="node25" class="node"><title>Node13</title>
<a xlink:href="classant_1_1calibration_1_1_t_a_p_s___time.html" target="_top" xlink:title="ant::calibration::TAPS_Time">
<polygon fill="white" stroke="black" points="650,-0.5 650,-21.5 790,-21.5 790,-0.5 650,-0.5"/>
<text text-anchor="middle" x="720" y="-8.5" font-family="Helvetica,sans-Serif" font-size="10.00">ant::calibration::TAPS_Time</text>
</a>
</g>
<!-- Node12&#45;&gt;Node13 -->
<g id="edge24" class="edge"><title>Node12&#45;&gt;Node13</title>
<path fill="none" stroke="midnightblue" d="M619.005,-20.7935C629.137,-19.811 639.662,-18.7904 649.924,-17.7952"/>
<polygon fill="midnightblue" stroke="midnightblue" points="618.643,-17.3121 609.027,-21.761 619.318,-24.2794 618.643,-17.3121"/>
</g>
</g>
</svg>
