<?xml version="1.0" encoding="UTF-8" standalone="no"?>
<!DOCTYPE svg PUBLIC "-//W3C//DTD SVG 1.1//EN"
 "http://www.w3.org/Graphics/SVG/1.1/DTD/svg11.dtd">
<!-- Generated by graphviz version 2.26.3 (20100126.1600)
 -->
<!-- Title: ant::analysis::physics::McTrue3Pi0 Pages: 1 -->
<svg width="508pt" height="137pt"
 viewBox="0.00 0.00 508.00 137.00" xmlns="http://www.w3.org/2000/svg" xmlns:xlink="http://www.w3.org/1999/xlink">
<g id="graph1" class="graph" transform="scale(1 1) rotate(0) translate(4 133)">
<title>ant::analysis::physics::McTrue3Pi0</title>
<polygon fill="white" stroke="white" points="-4,5 -4,-133 505,-133 505,5 -4,5"/>
<!-- Node1 -->
<g id="node1" class="node"><title>Node1</title>
<polygon fill="#bfbfbf" stroke="black" points="388,-53 388,-87 500,-87 500,-53 388,-53"/>
<text text-anchor="start" x="396" y="-74" font-family="Helvetica,sans-Serif" font-size="10.00">ant::analysis::physics</text>
<text text-anchor="middle" x="444" y="-61" font-family="Helvetica,sans-Serif" font-size="10.00">::McTrue3Pi0</text>
</g>
<!-- Node2 -->
<g id="node2" class="node"><title>Node2</title>
<a xlink:href="classant_1_1analysis_1_1_physics.html" target="_top" xlink:title="ant::analysis::Physics">
<polygon fill="white" stroke="black" points="209.5,-101.5 209.5,-122.5 322.5,-122.5 322.5,-101.5 209.5,-101.5"/>
<text text-anchor="middle" x="266" y="-109.5" font-family="Helvetica,sans-Serif" font-size="10.00">ant::analysis::Physics</text>
</a>
</g>
<!-- Node2&#45;&gt;Node1 -->
<g id="edge2" class="edge"><title>Node2&#45;&gt;Node1</title>
<path fill="none" stroke="midnightblue" d="M320.786,-99.0729C342.099,-94.0442 366.498,-88.2869 387.932,-83.2296"/>
<polygon fill="midnightblue" stroke="midnightblue" points="319.846,-95.6986 310.917,-101.402 321.453,-102.512 319.846,-95.6986"/>
</g>
<!-- Node3 -->
<g id="node4" class="node"><title>Node3</title>
<a xlink:href="classant_1_1analysis_1_1_smart_hist_factory.html" target="_top" xlink:title="ant::analysis::SmartHist\lFactory">
<polygon fill="white" stroke="black" points="0,-95 0,-129 122,-129 122,-95 0,-95"/>
<text text-anchor="start" x="8" y="-116" font-family="Helvetica,sans-Serif" font-size="10.00">ant::analysis::SmartHist</text>
<text text-anchor="middle" x="61" y="-103" font-family="Helvetica,sans-Serif" font-size="10.00">Factory</text>
</a>
</g>
<!-- Node3&#45;&gt;Node2 -->
<g id="edge4" class="edge"><title>Node3&#45;&gt;Node2</title>
<path fill="none" stroke="#9a32cd" stroke-dasharray="5,2" d="M132.451,-112C157.606,-112 185.515,-112 209.288,-112"/>
<polygon fill="#9a32cd" stroke="#9a32cd" points="132.229,-108.5 122.229,-112 132.229,-115.5 132.229,-108.5"/>
<text text-anchor="middle" x="162" y="-116" font-family="Helvetica,sans-Serif" font-size="10.00"> HistFac</text>
</g>
<!-- Node4 -->
<g id="node6" class="node"><title>Node4</title>
<a xlink:href="structant_1_1analysis_1_1utils_1_1_particle_vars.html" target="_top" xlink:title="ant::analysis::utils\l::ParticleVars">
<polygon fill="white" stroke="black" points="13,-28 13,-62 109,-62 109,-28 13,-28"/>
<text text-anchor="start" x="21" y="-49" font-family="Helvetica,sans-Serif" font-size="10.00">ant::analysis::utils</text>
<text text-anchor="middle" x="61" y="-36" font-family="Helvetica,sans-Serif" font-size="10.00">::ParticleVars</text>
</a>
</g>
<!-- Node4&#45;&gt;Node1 -->
<g id="edge6" class="edge"><title>Node4&#45;&gt;Node1</title>
<path fill="none" stroke="#9a32cd" stroke-dasharray="5,2" d="M119.485,-48.8176C192.32,-53.5718 315.884,-61.6373 387.69,-66.3244"/>
<polygon fill="#9a32cd" stroke="#9a32cd" points="119.326,-45.2998 109.119,-48.141 118.87,-52.285 119.326,-45.2998"/>
<text text-anchor="middle" x="266" y="-66" font-family="Helvetica,sans-Serif" font-size="10.00"> proton</text>
</g>
<!-- Node5 -->
<g id="node8" class="node"><title>Node5</title>
<polygon fill="white" stroke="#bfbfbf" points="202,-0 202,-34 330,-34 330,-0 202,-0"/>
<text text-anchor="start" x="210" y="-21" font-family="Helvetica,sans-Serif" font-size="10.00">std::vector&lt; ant::analysis</text>
<text text-anchor="middle" x="266" y="-8" font-family="Helvetica,sans-Serif" font-size="10.00">::utils::ParticleVars &gt;</text>
</g>
<!-- Node4&#45;&gt;Node5 -->
<g id="edge10" class="edge"><title>Node4&#45;&gt;Node5</title>
<path fill="none" stroke="#9a32cd" stroke-dasharray="5,2" d="M119.086,-37.0663C144.926,-33.537 175.434,-29.37 201.934,-25.7505"/>
<polygon fill="#9a32cd" stroke="#9a32cd" points="118.498,-33.6141 109.063,-38.4352 119.445,-40.5497 118.498,-33.6141"/>
<text text-anchor="middle" x="162" y="-37" font-family="Helvetica,sans-Serif" font-size="10.00"> elements</text>
</g>
<!-- Node5&#45;&gt;Node1 -->
<g id="edge8" class="edge"><title>Node5&#45;&gt;Node1</title>
<path fill="none" stroke="#9a32cd" stroke-dasharray="5,2" d="M339.807,-34.4326C349.996,-37.1357 360.291,-40.0241 370,-43 379.676,-45.9657 389.941,-49.4729 399.646,-52.9607"/>
<polygon fill="#9a32cd" stroke="#9a32cd" points="340.651,-31.0359 330.092,-31.901 338.886,-37.8097 340.651,-31.0359"/>
<text text-anchor="middle" x="359" y="-47" font-family="Helvetica,sans-Serif" font-size="10.00"> pi0s</text>
</g>
</g>
</svg>
