<?xml version="1.0" encoding="UTF-8" standalone="no"?>
<!DOCTYPE svg PUBLIC "-//W3C//DTD SVG 1.1//EN"
 "http://www.w3.org/Graphics/SVG/1.1/DTD/svg11.dtd">
<!-- Generated by graphviz version 2.26.3 (20100126.1600)
 -->
<!-- Title: ant::ExpConfig::Setup Pages: 1 -->
<svg width="734pt" height="146pt"
 viewBox="0.00 0.00 734.00 146.00" xmlns="http://www.w3.org/2000/svg" xmlns:xlink="http://www.w3.org/1999/xlink">
<g id="graph1" class="graph" transform="scale(1 1) rotate(0) translate(4 142)">
<title>ant::ExpConfig::Setup</title>
<polygon fill="white" stroke="white" points="-4,5 -4,-142 731,-142 731,5 -4,5"/>
<!-- Node1 -->
<g id="node1" class="node"><title>Node1</title>
<polygon fill="#bfbfbf" stroke="black" points="146.5,-32.5 146.5,-53.5 259.5,-53.5 259.5,-32.5 146.5,-32.5"/>
<text text-anchor="middle" x="203" y="-40.5" font-family="Helvetica,sans-Serif" font-size="10.00">ant::ExpConfig::Setup</text>
</g>
<!-- Node3 -->
<g id="node5" class="node"><title>Node3</title>
<a xlink:href="classant_1_1expconfig_1_1_setup.html" target="_top" xlink:title="The Setup class serves as a base class for all known beamtime setup configurations. ">
<polygon fill="white" stroke="black" points="296,-32.5 296,-53.5 406,-53.5 406,-32.5 296,-32.5"/>
<text text-anchor="middle" x="351" y="-40.5" font-family="Helvetica,sans-Serif" font-size="10.00">ant::expconfig::Setup</text>
</a>
</g>
<!-- Node1&#45;&gt;Node3 -->
<g id="edge4" class="edge"><title>Node1&#45;&gt;Node3</title>
<path fill="none" stroke="midnightblue" d="M269.819,-43C278.43,-43 287.173,-43 295.575,-43"/>
<polygon fill="midnightblue" stroke="midnightblue" points="269.797,-39.5001 259.797,-43 269.797,-46.5001 269.797,-39.5001"/>
</g>
<!-- Node2 -->
<g id="node2" class="node"><title>Node2</title>
<a xlink:href="classant_1_1_exp_config_1_1_base.html" target="_top" xlink:title="ant::ExpConfig::Base">
<polygon fill="white" stroke="black" points="0,-32.5 0,-53.5 110,-53.5 110,-32.5 0,-32.5"/>
<text text-anchor="middle" x="55" y="-40.5" font-family="Helvetica,sans-Serif" font-size="10.00">ant::ExpConfig::Base</text>
</a>
</g>
<!-- Node2&#45;&gt;Node1 -->
<g id="edge2" class="edge"><title>Node2&#45;&gt;Node1</title>
<path fill="none" stroke="midnightblue" d="M120.23,-43C128.94,-43 137.814,-43 146.361,-43"/>
<polygon fill="midnightblue" stroke="midnightblue" points="120.11,-39.5001 110.11,-43 120.11,-46.5001 120.11,-39.5001"/>
</g>
<!-- Node4 -->
<g id="node7" class="node"><title>Node4</title>
<a xlink:href="classant_1_1expconfig_1_1setup_1_1_setup__2014___e_p_t.html" target="_top" xlink:title="ant::expconfig::setup\l::Setup_2014_EPT">
<polygon fill="white" stroke="black" points="442,-52 442,-86 550,-86 550,-52 442,-52"/>
<text text-anchor="start" x="450" y="-73" font-family="Helvetica,sans-Serif" font-size="10.00">ant::expconfig::setup</text>
<text text-anchor="middle" x="496" y="-60" font-family="Helvetica,sans-Serif" font-size="10.00">::Setup_2014_EPT</text>
</a>
</g>
<!-- Node3&#45;&gt;Node4 -->
<g id="edge6" class="edge"><title>Node3&#45;&gt;Node4</title>
<path fill="none" stroke="midnightblue" d="M416.213,-54.6933C424.793,-56.2319 433.512,-57.7952 441.88,-59.2957"/>
<polygon fill="midnightblue" stroke="midnightblue" points="416.693,-51.2236 406.232,-52.9037 415.457,-58.1137 416.693,-51.2236"/>
</g>
<!-- Node8 -->
<g id="node15" class="node"><title>Node8</title>
<a xlink:href="classant_1_1expconfig_1_1setup_1_1_setup___test.html" target="_top" xlink:title="The Setup_Test class exists to run the test cases below test/. ">
<polygon fill="white" stroke="black" points="442,-0 442,-34 550,-34 550,-0 442,-0"/>
<text text-anchor="start" x="450" y="-21" font-family="Helvetica,sans-Serif" font-size="10.00">ant::expconfig::setup</text>
<text text-anchor="middle" x="496" y="-8" font-family="Helvetica,sans-Serif" font-size="10.00">::Setup_Test</text>
</a>
</g>
<!-- Node3&#45;&gt;Node8 -->
<g id="edge14" class="edge"><title>Node3&#45;&gt;Node8</title>
<path fill="none" stroke="midnightblue" d="M416.213,-31.3067C424.793,-29.7681 433.512,-28.2048 441.88,-26.7043"/>
<polygon fill="midnightblue" stroke="midnightblue" points="415.457,-27.8863 406.232,-33.0963 416.693,-34.7764 415.457,-27.8863"/>
</g>
<!-- Node5 -->
<g id="node9" class="node"><title>Node5</title>
<a xlink:href="classant_1_1expconfig_1_1setup_1_1_setup__2014__07___e_p_t___prod.html" target="_top" xlink:title="ant::expconfig::setup\l::Setup_2014_07_EPT_Prod">
<polygon fill="white" stroke="black" points="586,-104 586,-138 726,-138 726,-104 586,-104"/>
<text text-anchor="start" x="594" y="-125" font-family="Helvetica,sans-Serif" font-size="10.00">ant::expconfig::setup</text>
<text text-anchor="middle" x="656" y="-112" font-family="Helvetica,sans-Serif" font-size="10.00">::Setup_2014_07_EPT_Prod</text>
</a>
</g>
<!-- Node4&#45;&gt;Node5 -->
<g id="edge8" class="edge"><title>Node4&#45;&gt;Node5</title>
<path fill="none" stroke="midnightblue" d="M558.096,-89.1812C573.096,-94.0562 588.981,-99.2189 603.492,-103.935"/>
<polygon fill="midnightblue" stroke="midnightblue" points="558.982,-85.7891 548.39,-86.0267 556.819,-92.4463 558.982,-85.7891"/>
</g>
<!-- Node6 -->
<g id="node11" class="node"><title>Node6</title>
<a xlink:href="classant_1_1expconfig_1_1setup_1_1_setup__2014__10___e_p_t___prod.html" target="_top" xlink:title="ant::expconfig::setup\l::Setup_2014_10_EPT_Prod">
<polygon fill="white" stroke="black" points="586,-52 586,-86 726,-86 726,-52 586,-52"/>
<text text-anchor="start" x="594" y="-73" font-family="Helvetica,sans-Serif" font-size="10.00">ant::expconfig::setup</text>
<text text-anchor="middle" x="656" y="-60" font-family="Helvetica,sans-Serif" font-size="10.00">::Setup_2014_10_EPT_Prod</text>
</a>
</g>
<!-- Node4&#45;&gt;Node6 -->
<g id="edge10" class="edge"><title>Node4&#45;&gt;Node6</title>
<path fill="none" stroke="midnightblue" d="M560.246,-69C568.626,-69 577.247,-69 585.72,-69"/>
<polygon fill="midnightblue" stroke="midnightblue" points="560.169,-65.5001 550.169,-69 560.169,-72.5001 560.169,-65.5001"/>
</g>
<!-- Node7 -->
<g id="node13" class="node"><title>Node7</title>
<a xlink:href="classant_1_1expconfig_1_1setup_1_1_setup__2014__12___e_p_t___prod.html" target="_top" xlink:title="ant::expconfig::setup\l::Setup_2014_12_EPT_Prod">
<polygon fill="white" stroke="black" points="586,-0 586,-34 726,-34 726,-0 586,-0"/>
<text text-anchor="start" x="594" y="-21" font-family="Helvetica,sans-Serif" font-size="10.00">ant::expconfig::setup</text>
<text text-anchor="middle" x="656" y="-8" font-family="Helvetica,sans-Serif" font-size="10.00">::Setup_2014_12_EPT_Prod</text>
</a>
</g>
<!-- Node4&#45;&gt;Node7 -->
<g id="edge12" class="edge"><title>Node4&#45;&gt;Node7</title>
<path fill="none" stroke="midnightblue" d="M558.096,-48.8188C573.096,-43.9438 588.981,-38.7811 603.492,-34.065"/>
<polygon fill="midnightblue" stroke="midnightblue" points="556.819,-45.5537 548.39,-51.9733 558.982,-52.2109 556.819,-45.5537"/>
</g>
</g>
</svg>
