<?xml version="1.0" encoding="UTF-8" standalone="no"?>
<!DOCTYPE svg PUBLIC "-//W3C//DTD SVG 1.1//EN"
 "http://www.w3.org/Graphics/SVG/1.1/DTD/svg11.dtd">
<!-- Generated by graphviz version 2.26.3 (20100126.1600)
 -->
<!-- Title: DrawCanvas Pages: 1 -->
<svg width="227pt" height="214pt"
 viewBox="0.00 0.00 227.00 214.00" xmlns="http://www.w3.org/2000/svg" xmlns:xlink="http://www.w3.org/1999/xlink">
<g id="graph1" class="graph" transform="scale(1 1) rotate(0) translate(4 210)">
<title>DrawCanvas</title>
<polygon fill="white" stroke="white" points="-4,5 -4,-210 224,-210 224,5 -4,5"/>
<!-- Node1 -->
<g id="node1" class="node"><title>Node1</title>
<polygon fill="#bfbfbf" stroke="black" points="82,-0.5 82,-21.5 156,-21.5 156,-0.5 82,-0.5"/>
<text text-anchor="middle" x="119" y="-8.5" font-family="Helvetica,sans-Serif" font-size="10.00">DrawCanvas</text>
</g>
<!-- Node2 -->
<g id="node2" class="node"><title>Node2</title>
<a xlink:href="classant_1_1_smart_tree_canvas.html" target="_top" xlink:title="ant::SmartTreeCanvas">
<polygon fill="white" stroke="black" points="0,-110.5 0,-131.5 116,-131.5 116,-110.5 0,-110.5"/>
<text text-anchor="middle" x="58" y="-118.5" font-family="Helvetica,sans-Serif" font-size="10.00">ant::SmartTreeCanvas</text>
</a>
</g>
<!-- Node2&#45;&gt;Node1 -->
<g id="edge2" class="edge"><title>Node2&#45;&gt;Node1</title>
<path fill="none" stroke="midnightblue" d="M68.8239,-101.481C81.7345,-78.2001 102.852,-40.1197 113.079,-21.677"/>
<polygon fill="midnightblue" stroke="midnightblue" points="65.6378,-100.01 63.8489,-110.453 71.7595,-103.405 65.6378,-100.01"/>
</g>
<!-- Node3 -->
<g id="node4" class="node"><title>Node3</title>
<polygon fill="white" stroke="#bfbfbf" points="30,-177.5 30,-198.5 86,-198.5 86,-177.5 30,-177.5"/>
<text text-anchor="middle" x="58" y="-185.5" font-family="Helvetica,sans-Serif" font-size="10.00">TCanvas</text>
</g>
<!-- Node3&#45;&gt;Node2 -->
<g id="edge4" class="edge"><title>Node3&#45;&gt;Node2</title>
<path fill="none" stroke="midnightblue" d="M58,-166.904C58,-155.127 58,-140.967 58,-131.517"/>
<polygon fill="midnightblue" stroke="midnightblue" points="54.5001,-167.235 58,-177.235 61.5001,-167.235 54.5001,-167.235"/>
</g>
<!-- Node4 -->
<g id="node6" class="node"><title>Node4</title>
<a xlink:title="STL class. ">
<polygon fill="white" stroke="#bfbfbf" points="134,-110.5 134,-131.5 194,-131.5 194,-110.5 134,-110.5"/>
<text text-anchor="middle" x="164" y="-118.5" font-family="Helvetica,sans-Serif" font-size="10.00">std::string</text>
</a>
</g>
<!-- Node4&#45;&gt;Node1 -->
<g id="edge6" class="edge"><title>Node4&#45;&gt;Node1</title>
<path fill="none" stroke="#9a32cd" stroke-dasharray="5,2" d="M155.887,-101.169C146.352,-77.8605 130.879,-40.0374 123.368,-21.677"/>
<polygon fill="#9a32cd" stroke="#9a32cd" points="152.659,-102.522 159.685,-110.453 159.138,-99.872 152.659,-102.522"/>
<text text-anchor="middle" x="185" y="-83" font-family="Helvetica,sans-Serif" font-size="10.00"> drawoption</text>
<text text-anchor="middle" x="185" y="-70" font-family="Helvetica,sans-Serif" font-size="10.00">localcut</text>
<text text-anchor="middle" x="185" y="-57" font-family="Helvetica,sans-Serif" font-size="10.00">histname</text>
<text text-anchor="middle" x="185" y="-44" font-family="Helvetica,sans-Serif" font-size="10.00">smartree_name</text>
</g>
<!-- Node5 -->
<g id="node8" class="node"><title>Node5</title>
<a xlink:title="STL class. ">
<polygon fill="white" stroke="#bfbfbf" points="116.5,-171 116.5,-205 211.5,-205 211.5,-171 116.5,-171"/>
<text text-anchor="start" x="124.5" y="-192" font-family="Helvetica,sans-Serif" font-size="10.00">std::basic_string&lt;</text>
<text text-anchor="middle" x="164" y="-179" font-family="Helvetica,sans-Serif" font-size="10.00"> char &gt;</text>
</a>
</g>
<!-- Node5&#45;&gt;Node4 -->
<g id="edge8" class="edge"><title>Node5&#45;&gt;Node4</title>
<path fill="none" stroke="midnightblue" d="M164,-160.534C164,-150.306 164,-139.301 164,-131.506"/>
<polygon fill="midnightblue" stroke="midnightblue" points="160.5,-160.746 164,-170.746 167.5,-160.746 160.5,-160.746"/>
</g>
</g>
</svg>
