<?xml version="1.0" encoding="UTF-8" standalone="no"?>
<!DOCTYPE svg PUBLIC "-//W3C//DTD SVG 1.1//EN"
 "http://www.w3.org/Graphics/SVG/1.1/DTD/svg11.dtd">
<!-- Generated by graphviz version 2.26.3 (20100126.1600)
 -->
<!-- Title: ant::ExpConfig::Setup Pages: 1 -->
<svg width="213pt" height="176pt"
 viewBox="0.00 0.00 213.00 176.00" xmlns="http://www.w3.org/2000/svg" xmlns:xlink="http://www.w3.org/1999/xlink">
<g id="graph1" class="graph" transform="scale(1 1) rotate(0) translate(4 172)">
<title>ant::ExpConfig::Setup</title>
<polygon fill="white" stroke="white" points="-4,5 -4,-172 210,-172 210,5 -4,5"/>
<!-- Node1 -->
<g id="node1" class="node"><title>Node1</title>
<polygon fill="#bfbfbf" stroke="black" points="32.5,-0.5 32.5,-21.5 145.5,-21.5 145.5,-0.5 32.5,-0.5"/>
<text text-anchor="middle" x="89" y="-8.5" font-family="Helvetica,sans-Serif" font-size="10.00">ant::ExpConfig::Setup</text>
</g>
<!-- Node2 -->
<g id="node2" class="node"><title>Node2</title>
<a xlink:href="classant_1_1_exp_config_1_1_base.html" target="_top" xlink:title="ant::ExpConfig::Base">
<polygon fill="white" stroke="black" points="0,-72.5 0,-93.5 110,-93.5 110,-72.5 0,-72.5"/>
<text text-anchor="middle" x="55" y="-80.5" font-family="Helvetica,sans-Serif" font-size="10.00">ant::ExpConfig::Base</text>
</a>
</g>
<!-- Node2&#45;&gt;Node1 -->
<g id="edge2" class="edge"><title>Node2&#45;&gt;Node1</title>
<path fill="none" stroke="midnightblue" d="M64.4319,-63.0266C70.7546,-49.6374 78.8322,-32.5318 83.9626,-21.6674"/>
<polygon fill="midnightblue" stroke="midnightblue" points="61.1221,-61.8391 60.0168,-72.3762 67.4518,-64.8282 61.1221,-61.8391"/>
</g>
<!-- Node3 -->
<g id="node4" class="node"><title>Node3</title>
<a xlink:title="STL class. ">
<polygon fill="white" stroke="#bfbfbf" points="128,-72.5 128,-93.5 188,-93.5 188,-72.5 128,-72.5"/>
<text text-anchor="middle" x="158" y="-80.5" font-family="Helvetica,sans-Serif" font-size="10.00">std::string</text>
</a>
</g>
<!-- Node3&#45;&gt;Node1 -->
<g id="edge4" class="edge"><title>Node3&#45;&gt;Node1</title>
<path fill="none" stroke="#9a32cd" stroke-dasharray="5,2" d="M140.719,-64.9677C127.649,-51.3294 110.145,-33.0644 99.223,-21.6674"/>
<polygon fill="#9a32cd" stroke="#9a32cd" points="138.373,-67.5779 147.819,-72.3762 143.427,-62.7346 138.373,-67.5779"/>
<text text-anchor="middle" x="159.5" y="-44.5" font-family="Helvetica,sans-Serif" font-size="10.00"> ManualName</text>
</g>
<!-- Node4 -->
<g id="node6" class="node"><title>Node4</title>
<a xlink:title="STL class. ">
<polygon fill="white" stroke="#bfbfbf" points="110.5,-133 110.5,-167 205.5,-167 205.5,-133 110.5,-133"/>
<text text-anchor="start" x="118.5" y="-154" font-family="Helvetica,sans-Serif" font-size="10.00">std::basic_string&lt;</text>
<text text-anchor="middle" x="158" y="-141" font-family="Helvetica,sans-Serif" font-size="10.00"> char &gt;</text>
</a>
</g>
<!-- Node4&#45;&gt;Node3 -->
<g id="edge6" class="edge"><title>Node4&#45;&gt;Node3</title>
<path fill="none" stroke="midnightblue" d="M158,-122.534C158,-112.306 158,-101.301 158,-93.5056"/>
<polygon fill="midnightblue" stroke="midnightblue" points="154.5,-122.746 158,-132.746 161.5,-122.746 154.5,-122.746"/>
</g>
</g>
</svg>
