<?xml version="1.0" encoding="UTF-8" standalone="no"?>
<!DOCTYPE svg PUBLIC "-//W3C//DTD SVG 1.1//EN"
 "http://www.w3.org/Graphics/SVG/1.1/DTD/svg11.dtd">
<!-- Generated by graphviz version 2.26.3 (20100126.1600)
 -->
<!-- Title: ant::SmartTreeCanvas Pages: 1 -->
<svg width="198pt" height="204pt"
 viewBox="0.00 0.00 198.00 204.00" xmlns="http://www.w3.org/2000/svg" xmlns:xlink="http://www.w3.org/1999/xlink">
<g id="graph1" class="graph" transform="scale(1 1) rotate(0) translate(4 200)">
<title>ant::SmartTreeCanvas</title>
<polygon fill="white" stroke="white" points="-4,5 -4,-200 195,-200 195,5 -4,5"/>
<!-- Node1 -->
<g id="node1" class="node"><title>Node1</title>
<polygon fill="#bfbfbf" stroke="black" points="37,-116.5 37,-137.5 153,-137.5 153,-116.5 37,-116.5"/>
<text text-anchor="middle" x="95" y="-124.5" font-family="Helvetica,sans-Serif" font-size="10.00">ant::SmartTreeCanvas</text>
</g>
<!-- Node3 -->
<g id="node5" class="node"><title>Node3</title>
<a xlink:href="class_draw_canvas.html" target="_top" xlink:title="DrawCanvas">
<polygon fill="white" stroke="black" points="58,-58.5 58,-79.5 132,-79.5 132,-58.5 58,-58.5"/>
<text text-anchor="middle" x="95" y="-66.5" font-family="Helvetica,sans-Serif" font-size="10.00">DrawCanvas</text>
</a>
</g>
<!-- Node1&#45;&gt;Node3 -->
<g id="edge4" class="edge"><title>Node1&#45;&gt;Node3</title>
<path fill="none" stroke="midnightblue" d="M95,-106.191C95,-97.1684 95,-86.9941 95,-79.5707"/>
<polygon fill="midnightblue" stroke="midnightblue" points="91.5001,-106.362 95,-116.362 98.5001,-106.362 91.5001,-106.362"/>
</g>
<!-- Node2 -->
<g id="node2" class="node"><title>Node2</title>
<polygon fill="white" stroke="#bfbfbf" points="67,-174.5 67,-195.5 123,-195.5 123,-174.5 67,-174.5"/>
<text text-anchor="middle" x="95" y="-182.5" font-family="Helvetica,sans-Serif" font-size="10.00">TCanvas</text>
</g>
<!-- Node2&#45;&gt;Node1 -->
<g id="edge2" class="edge"><title>Node2&#45;&gt;Node1</title>
<path fill="none" stroke="midnightblue" d="M95,-164.191C95,-155.168 95,-144.994 95,-137.571"/>
<polygon fill="midnightblue" stroke="midnightblue" points="91.5001,-164.362 95,-174.362 98.5001,-164.362 91.5001,-164.362"/>
</g>
<!-- Node4 -->
<g id="node7" class="node"><title>Node4</title>
<a xlink:href="class_draw_canvas1_d.html" target="_top" xlink:title="DrawCanvas1D">
<polygon fill="white" stroke="black" points="0,-0.5 0,-21.5 86,-21.5 86,-0.5 0,-0.5"/>
<text text-anchor="middle" x="43" y="-8.5" font-family="Helvetica,sans-Serif" font-size="10.00">DrawCanvas1D</text>
</a>
</g>
<!-- Node3&#45;&gt;Node4 -->
<g id="edge6" class="edge"><title>Node3&#45;&gt;Node4</title>
<path fill="none" stroke="midnightblue" d="M78.7096,-50.8299C70.0829,-41.2078 59.7908,-29.7282 52.4771,-21.5707"/>
<polygon fill="midnightblue" stroke="midnightblue" points="76.1809,-53.2526 85.4624,-58.3619 81.3929,-48.5798 76.1809,-53.2526"/>
</g>
<!-- Node5 -->
<g id="node9" class="node"><title>Node5</title>
<a xlink:href="class_draw_canvas2_d.html" target="_top" xlink:title="DrawCanvas2D">
<polygon fill="white" stroke="black" points="104,-0.5 104,-21.5 190,-21.5 190,-0.5 104,-0.5"/>
<text text-anchor="middle" x="147" y="-8.5" font-family="Helvetica,sans-Serif" font-size="10.00">DrawCanvas2D</text>
</a>
</g>
<!-- Node3&#45;&gt;Node5 -->
<g id="edge8" class="edge"><title>Node3&#45;&gt;Node5</title>
<path fill="none" stroke="midnightblue" d="M111.29,-50.8299C119.917,-41.2078 130.209,-29.7282 137.523,-21.5707"/>
<polygon fill="midnightblue" stroke="midnightblue" points="108.607,-48.5798 104.538,-58.3619 113.819,-53.2526 108.607,-48.5798"/>
</g>
</g>
</svg>
