<?xml version="1.0" encoding="UTF-8" standalone="no"?>
<!DOCTYPE svg PUBLIC "-//W3C//DTD SVG 1.1//EN"
 "http://www.w3.org/Graphics/SVG/1.1/DTD/svg11.dtd">
<!-- Generated by graphviz version 2.26.3 (20100126.1600)
 -->
<!-- Title: ant::analysis::physics::IMPlots Pages: 1 -->
<svg width="262pt" height="216pt"
 viewBox="0.00 0.00 262.00 216.00" xmlns="http://www.w3.org/2000/svg" xmlns:xlink="http://www.w3.org/1999/xlink">
<g id="graph1" class="graph" transform="scale(1 1) rotate(0) translate(4 212)">
<title>ant::analysis::physics::IMPlots</title>
<polygon fill="white" stroke="white" points="-4,5 -4,-212 259,-212 259,5 -4,5"/>
<!-- Node1 -->
<g id="node1" class="node"><title>Node1</title>
<polygon fill="#bfbfbf" stroke="black" points="86,-1 86,-35 198,-35 198,-1 86,-1"/>
<text text-anchor="start" x="94" y="-22" font-family="Helvetica,sans-Serif" font-size="10.00">ant::analysis::physics</text>
<text text-anchor="middle" x="142" y="-9" font-family="Helvetica,sans-Serif" font-size="10.00">::IMPlots</text>
</g>
<!-- Node2 -->
<g id="node2" class="node"><title>Node2</title>
<a xlink:href="classant_1_1analysis_1_1_physics.html" target="_top" xlink:title="ant::analysis::Physics">
<polygon fill="white" stroke="black" points="6.5,-93.5 6.5,-114.5 119.5,-114.5 119.5,-93.5 6.5,-93.5"/>
<text text-anchor="middle" x="63" y="-101.5" font-family="Helvetica,sans-Serif" font-size="10.00">ant::analysis::Physics</text>
</a>
</g>
<!-- Node2&#45;&gt;Node1 -->
<g id="edge2" class="edge"><title>Node2&#45;&gt;Node1</title>
<path fill="none" stroke="midnightblue" d="M79.6671,-85.856C93.4012,-70.9051 112.744,-49.8486 126.227,-35.1709"/>
<polygon fill="midnightblue" stroke="midnightblue" points="76.8744,-83.7225 72.687,-93.4547 82.0295,-88.458 76.8744,-83.7225"/>
</g>
<!-- Node3 -->
<g id="node4" class="node"><title>Node3</title>
<a xlink:href="classant_1_1analysis_1_1_smart_hist_factory.html" target="_top" xlink:title="ant::analysis::SmartHist\lFactory">
<polygon fill="white" stroke="black" points="0,-173 0,-207 122,-207 122,-173 0,-173"/>
<text text-anchor="start" x="8" y="-194" font-family="Helvetica,sans-Serif" font-size="10.00">ant::analysis::SmartHist</text>
<text text-anchor="middle" x="61" y="-181" font-family="Helvetica,sans-Serif" font-size="10.00">Factory</text>
</a>
</g>
<!-- Node3&#45;&gt;Node2 -->
<g id="edge4" class="edge"><title>Node3&#45;&gt;Node2</title>
<path fill="none" stroke="#9a32cd" stroke-dasharray="5,2" d="M61.6381,-162.56C62.0148,-146.365 62.4706,-126.766 62.7477,-114.848"/>
<polygon fill="#9a32cd" stroke="#9a32cd" points="58.1383,-162.518 61.4047,-172.597 65.1364,-162.681 58.1383,-162.518"/>
<text text-anchor="middle" x="82" y="-144.5" font-family="Helvetica,sans-Serif" font-size="10.00"> HistFac</text>
</g>
<!-- Node4 -->
<g id="node6" class="node"><title>Node4</title>
<a xlink:href="structant_1_1analysis_1_1physics_1_1_i_m_plots_1_1hist__set.html" target="_top" xlink:title="ant::analysis::physics\l::IMPlots::hist_set">
<polygon fill="white" stroke="black" points="140,-87 140,-121 252,-121 252,-87 140,-87"/>
<text text-anchor="start" x="148" y="-108" font-family="Helvetica,sans-Serif" font-size="10.00">ant::analysis::physics</text>
<text text-anchor="middle" x="196" y="-95" font-family="Helvetica,sans-Serif" font-size="10.00">::IMPlots::hist_set</text>
</a>
</g>
<!-- Node4&#45;&gt;Node1 -->
<g id="edge6" class="edge"><title>Node4&#45;&gt;Node1</title>
<path fill="none" stroke="#9a32cd" stroke-dasharray="5,2" d="M179.638,-77.9426C170.909,-64.041 160.415,-47.3271 152.727,-35.084"/>
<polygon fill="#9a32cd" stroke="#9a32cd" points="176.79,-79.9889 185.072,-86.5966 182.719,-76.2665 176.79,-79.9889"/>
<text text-anchor="middle" x="178.5" y="-58.5" font-family="Helvetica,sans-Serif" font-size="10.00"> all</text>
</g>
<!-- Node5 -->
<g id="node8" class="node"><title>Node5</title>
<polygon fill="white" stroke="#bfbfbf" points="140,-179.5 140,-200.5 254,-200.5 254,-179.5 140,-179.5"/>
<text text-anchor="middle" x="197" y="-187.5" font-family="Helvetica,sans-Serif" font-size="10.00">std::vector&lt; TH1D * &gt;</text>
</g>
<!-- Node5&#45;&gt;Node4 -->
<g id="edge8" class="edge"><title>Node5&#45;&gt;Node4</title>
<path fill="none" stroke="#9a32cd" stroke-dasharray="5,2" d="M196.759,-169.31C196.588,-154.585 196.361,-135.033 196.2,-121.171"/>
<polygon fill="#9a32cd" stroke="#9a32cd" points="193.261,-169.496 196.877,-179.455 200.261,-169.415 193.261,-169.496"/>
<text text-anchor="middle" x="202" y="-144.5" font-family="Helvetica,sans-Serif" font-size="10.00"> m</text>
</g>
</g>
</svg>
