<?xml version="1.0" encoding="UTF-8" standalone="no"?>
<!DOCTYPE svg PUBLIC "-//W3C//DTD SVG 1.1//EN"
 "http://www.w3.org/Graphics/SVG/1.1/DTD/svg11.dtd">
<!-- Generated by graphviz version 2.26.3 (20100126.1600)
 -->
<!-- Title: ant::analysis::physics::Etap3pi0 Pages: 1 -->
<svg width="700pt" height="269pt"
 viewBox="0.00 0.00 700.00 269.00" xmlns="http://www.w3.org/2000/svg" xmlns:xlink="http://www.w3.org/1999/xlink">
<g id="graph1" class="graph" transform="scale(1 1) rotate(0) translate(4 265)">
<title>ant::analysis::physics::Etap3pi0</title>
<polygon fill="white" stroke="white" points="-4,5 -4,-265 697,-265 697,5 -4,5"/>
<!-- Node1 -->
<g id="node1" class="node"><title>Node1</title>
<polygon fill="#bfbfbf" stroke="black" points="580,-119 580,-153 692,-153 692,-119 580,-119"/>
<text text-anchor="start" x="588" y="-140" font-family="Helvetica,sans-Serif" font-size="10.00">ant::analysis::physics</text>
<text text-anchor="middle" x="636" y="-127" font-family="Helvetica,sans-Serif" font-size="10.00">::Etap3pi0</text>
</g>
<!-- Node2 -->
<g id="node2" class="node"><title>Node2</title>
<a xlink:href="classant_1_1analysis_1_1_physics.html" target="_top" xlink:title="ant::analysis::Physics">
<polygon fill="white" stroke="black" points="363.5,-233.5 363.5,-254.5 476.5,-254.5 476.5,-233.5 363.5,-233.5"/>
<text text-anchor="middle" x="420" y="-241.5" font-family="Helvetica,sans-Serif" font-size="10.00">ant::analysis::Physics</text>
</a>
</g>
<!-- Node2&#45;&gt;Node1 -->
<g id="edge2" class="edge"><title>Node2&#45;&gt;Node1</title>
<path fill="none" stroke="midnightblue" d="M463.07,-230.235C468.796,-228.232 474.563,-226.127 480,-224 517.236,-209.437 527.177,-206.646 562,-187 579.938,-176.88 599.052,-163.637 613.36,-153.182"/>
<polygon fill="midnightblue" stroke="midnightblue" points="461.871,-226.946 453.54,-233.492 464.135,-233.57 461.871,-226.946"/>
</g>
<!-- Node3 -->
<g id="node4" class="node"><title>Node3</title>
<a xlink:href="classant_1_1analysis_1_1_smart_hist_factory.html" target="_top" xlink:title="ant::analysis::SmartHist\lFactory">
<polygon fill="white" stroke="black" points="134,-227 134,-261 256,-261 256,-227 134,-227"/>
<text text-anchor="start" x="142" y="-248" font-family="Helvetica,sans-Serif" font-size="10.00">ant::analysis::SmartHist</text>
<text text-anchor="middle" x="195" y="-235" font-family="Helvetica,sans-Serif" font-size="10.00">Factory</text>
</a>
</g>
<!-- Node3&#45;&gt;Node2 -->
<g id="edge4" class="edge"><title>Node3&#45;&gt;Node2</title>
<path fill="none" stroke="#9a32cd" stroke-dasharray="5,2" d="M266.188,-244C297.584,-244 333.964,-244 363.46,-244"/>
<polygon fill="#9a32cd" stroke="#9a32cd" points="266.185,-240.5 256.185,-244 266.185,-247.5 266.185,-240.5"/>
<text text-anchor="middle" x="308" y="-248" font-family="Helvetica,sans-Serif" font-size="10.00"> HistFac</text>
</g>
<!-- Node4 -->
<g id="node6" class="node"><title>Node4</title>
<polygon fill="white" stroke="#bfbfbf" points="360.5,-167.5 360.5,-214.5 479.5,-214.5 479.5,-167.5 360.5,-167.5"/>
<text text-anchor="start" x="368.5" y="-201.5" font-family="Helvetica,sans-Serif" font-size="10.00">std::vector&lt; std::vector</text>
<text text-anchor="start" x="368.5" y="-188.5" font-family="Helvetica,sans-Serif" font-size="10.00">&lt; std::pair&lt; unsigned,</text>
<text text-anchor="middle" x="420" y="-175.5" font-family="Helvetica,sans-Serif" font-size="10.00"> unsigned &gt; &gt; &gt;</text>
</g>
<!-- Node4&#45;&gt;Node1 -->
<g id="edge6" class="edge"><title>Node4&#45;&gt;Node1</title>
<path fill="none" stroke="#9a32cd" stroke-dasharray="5,2" d="M489.342,-173.344C518.621,-165.888 552.267,-157.321 579.941,-150.274"/>
<polygon fill="#9a32cd" stroke="#9a32cd" points="488.422,-169.966 479.595,-175.825 490.149,-176.75 488.422,-169.966"/>
<text text-anchor="middle" x="530" y="-174" font-family="Helvetica,sans-Serif" font-size="10.00"> combinations</text>
</g>
<!-- Node5 -->
<g id="node8" class="node"><title>Node5</title>
<polygon fill="white" stroke="#bfbfbf" points="363.5,-52.5 363.5,-99.5 476.5,-99.5 476.5,-52.5 363.5,-52.5"/>
<text text-anchor="start" x="371.5" y="-86.5" font-family="Helvetica,sans-Serif" font-size="10.00">std::map&lt; std::string,</text>
<text text-anchor="start" x="371.5" y="-73.5" font-family="Helvetica,sans-Serif" font-size="10.00"> std::map&lt; std::string,</text>
<text text-anchor="middle" x="420" y="-60.5" font-family="Helvetica,sans-Serif" font-size="10.00"> TH1 * &gt; &gt;</text>
</g>
<!-- Node5&#45;&gt;Node1 -->
<g id="edge8" class="edge"><title>Node5&#45;&gt;Node1</title>
<path fill="none" stroke="#9a32cd" stroke-dasharray="5,2" d="M486.766,-89.7593C510.665,-95.1459 537.695,-101.771 562,-109 571.831,-111.924 582.253,-115.452 592.076,-118.98"/>
<polygon fill="#9a32cd" stroke="#9a32cd" points="487.253,-86.2822 476.732,-87.5284 485.734,-93.1154 487.253,-86.2822"/>
<text text-anchor="middle" x="530" y="-113" font-family="Helvetica,sans-Serif" font-size="10.00"> hists</text>
</g>
<!-- Node6 -->
<g id="node10" class="node"><title>Node6</title>
<a xlink:title="STL class. ">
<polygon fill="white" stroke="#bfbfbf" points="165,-65.5 165,-86.5 225,-86.5 225,-65.5 165,-65.5"/>
<text text-anchor="middle" x="195" y="-73.5" font-family="Helvetica,sans-Serif" font-size="10.00">std::string</text>
</a>
</g>
<!-- Node6&#45;&gt;Node1 -->
<g id="edge18" class="edge"><title>Node6&#45;&gt;Node1</title>
<path fill="none" stroke="#9a32cd" stroke-dasharray="5,2" d="M235.385,-84.9183C247.761,-87.5898 261.427,-90.4781 274,-93 312.119,-100.646 321.506,-103.547 360,-109 435.794,-119.737 523.907,-127.552 579.798,-131.933"/>
<polygon fill="#9a32cd" stroke="#9a32cd" points="235.86,-81.44 225.345,-82.738 234.375,-88.2806 235.86,-81.44"/>
<text text-anchor="middle" x="420" y="-126" font-family="Helvetica,sans-Serif" font-size="10.00"> dataset</text>
</g>
<!-- Node6&#45;&gt;Node5 -->
<g id="edge10" class="edge"><title>Node6&#45;&gt;Node5</title>
<path fill="none" stroke="#9a32cd" stroke-dasharray="5,2" d="M235.395,-76C271.08,-76 323.494,-76 363.364,-76"/>
<polygon fill="#9a32cd" stroke="#9a32cd" points="235.345,-72.5001 225.345,-76 235.344,-79.5001 235.345,-72.5001"/>
<text text-anchor="middle" x="308" y="-80" font-family="Helvetica,sans-Serif" font-size="10.00"> keys</text>
</g>
<!-- Node8 -->
<g id="node14" class="node"><title>Node8</title>
<a xlink:href="classant_1_1analysis_1_1physics_1_1_etap3pi0_1_1_kin_fitter.html" target="_top" xlink:title="ant::analysis::physics\l::Etap3pi0::KinFitter">
<polygon fill="white" stroke="black" points="364,-0 364,-34 476,-34 476,-0 364,-0"/>
<text text-anchor="start" x="372" y="-21" font-family="Helvetica,sans-Serif" font-size="10.00">ant::analysis::physics</text>
<text text-anchor="middle" x="420" y="-8" font-family="Helvetica,sans-Serif" font-size="10.00">::Etap3pi0::KinFitter</text>
</a>
</g>
<!-- Node6&#45;&gt;Node8 -->
<g id="edge16" class="edge"><title>Node6&#45;&gt;Node8</title>
<path fill="none" stroke="#9a32cd" stroke-dasharray="5,2" d="M235.431,-65.3981C271.249,-56.0058 323.9,-42.1996 363.81,-31.7342"/>
<polygon fill="#9a32cd" stroke="#9a32cd" points="234.13,-62.1209 225.345,-68.043 235.905,-68.892 234.13,-62.1209"/>
<text text-anchor="middle" x="308" y="-60" font-family="Helvetica,sans-Serif" font-size="10.00"> egammaName</text>
</g>
<!-- Node7 -->
<g id="node12" class="node"><title>Node7</title>
<a xlink:title="STL class. ">
<polygon fill="white" stroke="#bfbfbf" points="0.5,-59 0.5,-93 95.5,-93 95.5,-59 0.5,-59"/>
<text text-anchor="start" x="8.5" y="-80" font-family="Helvetica,sans-Serif" font-size="10.00">std::basic_string&lt;</text>
<text text-anchor="middle" x="48" y="-67" font-family="Helvetica,sans-Serif" font-size="10.00"> char &gt;</text>
</a>
</g>
<!-- Node7&#45;&gt;Node6 -->
<g id="edge12" class="edge"><title>Node7&#45;&gt;Node6</title>
<path fill="none" stroke="midnightblue" d="M105.744,-76C125.848,-76 147.603,-76 164.601,-76"/>
<polygon fill="midnightblue" stroke="midnightblue" points="105.727,-72.5001 95.7267,-76 105.727,-79.5001 105.727,-72.5001"/>
</g>
<!-- Node8&#45;&gt;Node1 -->
<g id="edge14" class="edge"><title>Node8&#45;&gt;Node1</title>
<path fill="none" stroke="#9a32cd" stroke-dasharray="5,2" d="M481.998,-37.6646C507.605,-47.3713 537.067,-60.1026 562,-75 582.867,-87.4682 604.002,-105.556 618.311,-118.797"/>
<polygon fill="#9a32cd" stroke="#9a32cd" points="482.983,-34.2968 472.39,-34.0942 480.544,-40.8584 482.983,-34.2968"/>
<text text-anchor="middle" x="530" y="-79" font-family="Helvetica,sans-Serif" font-size="10.00"> fitToEtaPrime</text>
</g>
</g>
</svg>
