<?xml version="1.0" encoding="UTF-8" standalone="no"?>
<!DOCTYPE svg PUBLIC "-//W3C//DTD SVG 1.1//EN"
 "http://www.w3.org/Graphics/SVG/1.1/DTD/svg11.dtd">
<!-- Generated by graphviz version 2.26.3 (20100126.1600)
 -->
<!-- Title: ant::analysis::slowontrol::Manager Pages: 1 -->
<svg width="311pt" height="356pt"
 viewBox="0.00 0.00 311.00 356.00" xmlns="http://www.w3.org/2000/svg" xmlns:xlink="http://www.w3.org/1999/xlink">
<g id="graph1" class="graph" transform="scale(1 1) rotate(0) translate(4 352)">
<title>ant::analysis::slowontrol::Manager</title>
<polygon fill="white" stroke="white" points="-4,5 -4,-352 308,-352 308,5 -4,5"/>
<!-- Node1 -->
<g id="node1" class="node"><title>Node1</title>
<polygon fill="#bfbfbf" stroke="black" points="39,-1 39,-35 161,-35 161,-1 39,-1"/>
<text text-anchor="start" x="47" y="-22" font-family="Helvetica,sans-Serif" font-size="10.00">ant::analysis::slowontrol</text>
<text text-anchor="middle" x="100" y="-9" font-family="Helvetica,sans-Serif" font-size="10.00">::Manager</text>
</g>
<!-- Node2 -->
<g id="node2" class="node"><title>Node2</title>
<a xlink:href="structant_1_1_t_i_d.html" target="_top" xlink:title="ant::TID">
<polygon fill="white" stroke="black" points="23.5,-140.5 23.5,-161.5 76.5,-161.5 76.5,-140.5 23.5,-140.5"/>
<text text-anchor="middle" x="50" y="-148.5" font-family="Helvetica,sans-Serif" font-size="10.00">ant::TID</text>
</a>
</g>
<!-- Node2&#45;&gt;Node1 -->
<g id="edge2" class="edge"><title>Node2&#45;&gt;Node1</title>
<path fill="none" stroke="#9a32cd" stroke-dasharray="5,2" d="M50.7701,-129.849C51.7653,-116.884 54.0035,-100.121 59,-86 65.5756,-67.4159 77.5982,-48.3759 86.9306,-35.188"/>
<polygon fill="#9a32cd" stroke="#9a32cd" points="47.2604,-129.918 50.1775,-140.103 54.2487,-130.322 47.2604,-129.918"/>
<text text-anchor="middle" x="99" y="-101.5" font-family="Helvetica,sans-Serif" font-size="10.00"> minimal_in_buffer</text>
</g>
<!-- Node3 -->
<g id="node4" class="node"><title>Node3</title>
<a xlink:href="classant_1_1printable__traits.html" target="_top" xlink:title="ant::printable_traits">
<polygon fill="white" stroke="black" points="0,-252.5 0,-273.5 100,-273.5 100,-252.5 0,-252.5"/>
<text text-anchor="middle" x="50" y="-260.5" font-family="Helvetica,sans-Serif" font-size="10.00">ant::printable_traits</text>
</a>
</g>
<!-- Node3&#45;&gt;Node2 -->
<g id="edge4" class="edge"><title>Node3&#45;&gt;Node2</title>
<path fill="none" stroke="midnightblue" d="M50,-242.108C50,-218.184 50,-179.931 50,-161.543"/>
<polygon fill="midnightblue" stroke="midnightblue" points="46.5001,-242.261 50,-252.261 53.5001,-242.261 46.5001,-242.261"/>
</g>
<!-- Node7 -->
<g id="node12" class="node"><title>Node7</title>
<a xlink:href="structant_1_1_t_slow_control_1_1_key.html" target="_top" xlink:title="ant::TSlowControl::Key">
<polygon fill="white" stroke="black" points="80.5,-180.5 80.5,-201.5 199.5,-201.5 199.5,-180.5 80.5,-180.5"/>
<text text-anchor="middle" x="140" y="-188.5" font-family="Helvetica,sans-Serif" font-size="10.00">ant::TSlowControl::Key</text>
</a>
</g>
<!-- Node3&#45;&gt;Node7 -->
<g id="edge14" class="edge"><title>Node3&#45;&gt;Node7</title>
<path fill="none" stroke="midnightblue" d="M71.1204,-246.104C88.3013,-232.359 112.02,-213.384 126.666,-201.667"/>
<polygon fill="midnightblue" stroke="midnightblue" points="68.9021,-243.396 63.2798,-252.376 73.275,-248.862 68.9021,-243.396"/>
</g>
<!-- Node4 -->
<g id="node6" class="node"><title>Node4</title>
<polygon fill="white" stroke="#bfbfbf" points="147.5,-87 147.5,-121 290.5,-121 290.5,-87 147.5,-87"/>
<text text-anchor="start" x="155.5" y="-108" font-family="Helvetica,sans-Serif" font-size="10.00">std::map&lt; ant::TSlowControl</text>
<text text-anchor="middle" x="219" y="-95" font-family="Helvetica,sans-Serif" font-size="10.00">::Key, buffer_t &gt;</text>
</g>
<!-- Node4&#45;&gt;Node1 -->
<g id="edge6" class="edge"><title>Node4&#45;&gt;Node1</title>
<path fill="none" stroke="#9a32cd" stroke-dasharray="5,2" d="M187.026,-80.8929C167.105,-66.4963 141.904,-48.2836 123.754,-35.1669"/>
<polygon fill="#9a32cd" stroke="#9a32cd" points="185.049,-83.7826 195.205,-86.8033 189.15,-78.1091 185.049,-83.7826"/>
<text text-anchor="middle" x="192.5" y="-58.5" font-family="Helvetica,sans-Serif" font-size="10.00"> slowcontrol</text>
</g>
<!-- Node5 -->
<g id="node8" class="node"><title>Node5</title>
<a xlink:title="STL class. ">
<polygon fill="white" stroke="#bfbfbf" points="217,-180.5 217,-201.5 303,-201.5 303,-180.5 217,-180.5"/>
<text text-anchor="middle" x="260" y="-188.5" font-family="Helvetica,sans-Serif" font-size="10.00">std::queue&lt; T &gt;</text>
</a>
</g>
<!-- Node5&#45;&gt;Node4 -->
<g id="edge8" class="edge"><title>Node5&#45;&gt;Node4</title>
<path fill="none" stroke="#9a32cd" stroke-dasharray="5,2" d="M250.516,-170.876C243.402,-155.779 233.77,-135.34 227.033,-121.046"/>
<polygon fill="#9a32cd" stroke="#9a32cd" points="247.544,-172.778 254.973,-180.332 253.876,-169.794 247.544,-172.778"/>
<text text-anchor="middle" x="266.5" y="-148.5" font-family="Helvetica,sans-Serif" font-size="10.00"> elements</text>
</g>
<!-- Node6 -->
<g id="node10" class="node"><title>Node6</title>
<polygon fill="white" stroke="#bfbfbf" points="245.5,-252.5 245.5,-273.5 274.5,-273.5 274.5,-252.5 245.5,-252.5"/>
<text text-anchor="middle" x="260" y="-260.5" font-family="Helvetica,sans-Serif" font-size="10.00">T</text>
</g>
<!-- Node6&#45;&gt;Node5 -->
<g id="edge10" class="edge"><title>Node6&#45;&gt;Node5</title>
<path fill="none" stroke="#9a32cd" stroke-dasharray="5,2" d="M260,-242.235C260,-228.969 260,-212.319 260,-201.667"/>
<polygon fill="#9a32cd" stroke="#9a32cd" points="256.5,-242.376 260,-252.376 263.5,-242.376 256.5,-242.376"/>
<text text-anchor="middle" x="281.5" y="-224.5" font-family="Helvetica,sans-Serif" font-size="10.00"> elements</text>
</g>
<!-- Node7&#45;&gt;Node4 -->
<g id="edge12" class="edge"><title>Node7&#45;&gt;Node4</title>
<path fill="none" stroke="#9a32cd" stroke-dasharray="5,2" d="M156.714,-172.593C170.546,-157.361 190.042,-135.89 203.522,-121.046"/>
<polygon fill="#9a32cd" stroke="#9a32cd" points="153.818,-170.576 149.687,-180.332 159.001,-175.282 153.818,-170.576"/>
<text text-anchor="middle" x="196.5" y="-148.5" font-family="Helvetica,sans-Serif" font-size="10.00"> keys</text>
</g>
<!-- Node8 -->
<g id="node15" class="node"><title>Node8</title>
<a xlink:title="STL class. ">
<polygon fill="white" stroke="#bfbfbf" points="118,-252.5 118,-273.5 178,-273.5 178,-252.5 118,-252.5"/>
<text text-anchor="middle" x="148" y="-260.5" font-family="Helvetica,sans-Serif" font-size="10.00">std::string</text>
</a>
</g>
<!-- Node8&#45;&gt;Node7 -->
<g id="edge16" class="edge"><title>Node8&#45;&gt;Node7</title>
<path fill="none" stroke="#9a32cd" stroke-dasharray="5,2" d="M145.693,-242.235C144.219,-228.969 142.369,-212.319 141.185,-201.667"/>
<polygon fill="#9a32cd" stroke="#9a32cd" points="142.237,-242.824 146.82,-252.376 149.194,-242.051 142.237,-242.824"/>
<text text-anchor="middle" x="159" y="-224.5" font-family="Helvetica,sans-Serif" font-size="10.00"> Name</text>
</g>
<!-- Node9 -->
<g id="node17" class="node"><title>Node9</title>
<a xlink:title="STL class. ">
<polygon fill="white" stroke="#bfbfbf" points="100.5,-313 100.5,-347 195.5,-347 195.5,-313 100.5,-313"/>
<text text-anchor="start" x="108.5" y="-334" font-family="Helvetica,sans-Serif" font-size="10.00">std::basic_string&lt;</text>
<text text-anchor="middle" x="148" y="-321" font-family="Helvetica,sans-Serif" font-size="10.00"> char &gt;</text>
</a>
</g>
<!-- Node9&#45;&gt;Node8 -->
<g id="edge18" class="edge"><title>Node9&#45;&gt;Node8</title>
<path fill="none" stroke="midnightblue" d="M148,-302.534C148,-292.306 148,-281.301 148,-273.506"/>
<polygon fill="midnightblue" stroke="midnightblue" points="144.5,-302.746 148,-312.746 151.5,-302.746 144.5,-302.746"/>
</g>
</g>
</svg>
