<?xml version="1.0" encoding="UTF-8" standalone="no"?>
<!DOCTYPE svg PUBLIC "-//W3C//DTD SVG 1.1//EN"
 "http://www.w3.org/Graphics/SVG/1.1/DTD/svg11.dtd">
<!-- Generated by graphviz version 2.26.3 (20100126.1600)
 -->
<!-- Title: ant::calibration::gui::ActionWidget&lt; theWidget &gt; Pages: 1 -->
<svg width="150pt" height="102pt"
 viewBox="0.00 0.00 150.00 102.00" xmlns="http://www.w3.org/2000/svg" xmlns:xlink="http://www.w3.org/1999/xlink">
<g id="graph1" class="graph" transform="scale(1 1) rotate(0) translate(4 98)">
<title>ant::calibration::gui::ActionWidget&lt; theWidget &gt;</title>
<polygon fill="white" stroke="white" points="-4,5 -4,-98 147,-98 147,5 -4,5"/>
<!-- Node1 -->
<g id="node1" class="node"><title>Node1</title>
<polygon fill="#bfbfbf" stroke="black" points="-0.5,-1 -0.5,-35 142.5,-35 142.5,-1 -0.5,-1"/>
<text text-anchor="start" x="7.5" y="-22" font-family="Helvetica,sans-Serif" font-size="10.00">ant::calibration::gui</text>
<text text-anchor="middle" x="71" y="-9" font-family="Helvetica,sans-Serif" font-size="10.00">::ActionWidget&lt; theWidget &gt;</text>
</g>
<!-- Node2 -->
<g id="node2" class="node"><title>Node2</title>
<polygon fill="white" stroke="#bfbfbf" points="40.5,-72.5 40.5,-93.5 101.5,-93.5 101.5,-72.5 40.5,-72.5"/>
<text text-anchor="middle" x="71" y="-80.5" font-family="Helvetica,sans-Serif" font-size="10.00">theWidget</text>
</g>
<!-- Node2&#45;&gt;Node1 -->
<g id="edge2" class="edge"><title>Node2&#45;&gt;Node1</title>
<path fill="none" stroke="midnightblue" d="M64.6498,-62.1306C64.0247,-53.4049 64.1326,-43.3908 64.9735,-35.1099"/>
<polygon fill="midnightblue" stroke="midnightblue" points="61.1971,-62.7401 65.8337,-72.2666 68.1499,-61.928 61.1971,-62.7401"/>
</g>
<!-- Node2&#45;&gt;Node1 -->
<g id="edge4" class="edge"><title>Node2&#45;&gt;Node1</title>
<path fill="none" stroke="midnightblue" d="M77.3502,-62.1306C77.9753,-53.4049 77.8674,-43.3908 77.0265,-35.1099"/>
<polygon fill="midnightblue" stroke="midnightblue" points="73.8501,-61.928 76.1663,-72.2666 80.8029,-62.7401 73.8501,-61.928"/>
</g>
</g>
</svg>
