<?xml version="1.0" encoding="UTF-8" standalone="no"?>
<!DOCTYPE svg PUBLIC "-//W3C//DTD SVG 1.1//EN"
 "http://www.w3.org/Graphics/SVG/1.1/DTD/svg11.dtd">
<!-- Generated by graphviz version 2.26.3 (20100126.1600)
 -->
<!-- Title: RangeManager Pages: 1 -->
<svg width="226pt" height="262pt"
 viewBox="0.00 0.00 226.00 262.00" xmlns="http://www.w3.org/2000/svg" xmlns:xlink="http://www.w3.org/1999/xlink">
<g id="graph1" class="graph" transform="scale(1 1) rotate(0) translate(4 258)">
<title>RangeManager</title>
<polygon fill="white" stroke="white" points="-4,5 -4,-258 223,-258 223,5 -4,5"/>
<!-- Node1 -->
<g id="node1" class="node"><title>Node1</title>
<polygon fill="#bfbfbf" stroke="black" points="82.5,-0.5 82.5,-21.5 165.5,-21.5 165.5,-0.5 82.5,-0.5"/>
<text text-anchor="middle" x="124" y="-8.5" font-family="Helvetica,sans-Serif" font-size="10.00">RangeManager</text>
</g>
<!-- Node2 -->
<g id="node2" class="node"><title>Node2</title>
<a xlink:href="classant_1_1interval.html" target="_top" xlink:title="ant::interval\&lt; double \&gt;">
<polygon fill="white" stroke="black" points="104,-158.5 104,-179.5 218,-179.5 218,-158.5 104,-158.5"/>
<text text-anchor="middle" x="161" y="-166.5" font-family="Helvetica,sans-Serif" font-size="10.00">ant::interval&lt; double &gt;</text>
</a>
</g>
<!-- Node2&#45;&gt;Node1 -->
<g id="edge2" class="edge"><title>Node2&#45;&gt;Node1</title>
<path fill="none" stroke="#9a32cd" stroke-dasharray="5,2" d="M159.07,-148.294C156.263,-122.454 150.024,-77.1406 138,-40 135.968,-33.7237 132.835,-27.0719 130.047,-21.7243"/>
<polygon fill="#9a32cd" stroke="#9a32cd" points="155.603,-148.802 160.098,-158.397 162.567,-148.094 155.603,-148.802"/>
<text text-anchor="middle" x="182.5" y="-87.5" font-family="Helvetica,sans-Serif" font-size="10.00"> emptyRange</text>
</g>
<!-- Node4 -->
<g id="node6" class="node"><title>Node4</title>
<polygon fill="white" stroke="#bfbfbf" points="0.5,-73 0.5,-107 125.5,-107 125.5,-73 0.5,-73"/>
<text text-anchor="start" x="8.5" y="-94" font-family="Helvetica,sans-Serif" font-size="10.00">std::map&lt; string, interval</text>
<text text-anchor="middle" x="63" y="-81" font-family="Helvetica,sans-Serif" font-size="10.00">&lt; double &gt; &gt;</text>
</g>
<!-- Node2&#45;&gt;Node4 -->
<g id="edge8" class="edge"><title>Node2&#45;&gt;Node4</title>
<path fill="none" stroke="#9a32cd" stroke-dasharray="5,2" d="M125.402,-153.761C117.974,-149.81 110.449,-145.186 104,-140 92.4528,-130.714 81.9131,-117.71 74.4118,-107.292"/>
<polygon fill="#9a32cd" stroke="#9a32cd" points="124.161,-157.053 134.671,-158.395 127.292,-150.793 124.161,-157.053"/>
<text text-anchor="middle" x="125.5" y="-130.5" font-family="Helvetica,sans-Serif" font-size="10.00"> elements</text>
</g>
<!-- Node3 -->
<g id="node4" class="node"><title>Node3</title>
<a xlink:href="classant_1_1printable__traits.html" target="_top" xlink:title="ant::printable_traits">
<polygon fill="white" stroke="black" points="112,-225.5 112,-246.5 212,-246.5 212,-225.5 112,-225.5"/>
<text text-anchor="middle" x="162" y="-233.5" font-family="Helvetica,sans-Serif" font-size="10.00">ant::printable_traits</text>
</a>
</g>
<!-- Node3&#45;&gt;Node2 -->
<g id="edge4" class="edge"><title>Node3&#45;&gt;Node2</title>
<path fill="none" stroke="midnightblue" d="M161.685,-214.904C161.509,-203.127 161.298,-188.967 161.157,-179.517"/>
<polygon fill="midnightblue" stroke="midnightblue" points="158.19,-215.289 161.839,-225.235 165.19,-215.184 158.19,-215.289"/>
</g>
<!-- Node4&#45;&gt;Node1 -->
<g id="edge6" class="edge"><title>Node4&#45;&gt;Node1</title>
<path fill="none" stroke="#9a32cd" stroke-dasharray="5,2" d="M82.5461,-64.6862C93.8091,-50.0997 107.37,-32.5369 115.841,-21.5672"/>
<polygon fill="#9a32cd" stroke="#9a32cd" points="79.5775,-62.804 76.2361,-72.8582 85.118,-67.0822 79.5775,-62.804"/>
<text text-anchor="middle" x="117.5" y="-44.5" font-family="Helvetica,sans-Serif" font-size="10.00"> ranges</text>
</g>
<!-- Node5 -->
<g id="node9" class="node"><title>Node5</title>
<a xlink:title="STL class. ">
<polygon fill="white" stroke="#bfbfbf" points="18,-158.5 18,-179.5 78,-179.5 78,-158.5 18,-158.5"/>
<text text-anchor="middle" x="48" y="-166.5" font-family="Helvetica,sans-Serif" font-size="10.00">std::string</text>
</a>
</g>
<!-- Node5&#45;&gt;Node4 -->
<g id="edge10" class="edge"><title>Node5&#45;&gt;Node4</title>
<path fill="none" stroke="#9a32cd" stroke-dasharray="5,2" d="M51.0982,-148.459C52.2382,-141.332 53.5959,-133.3 55,-126 56.1851,-119.839 57.6352,-113.119 58.9738,-107.171"/>
<polygon fill="#9a32cd" stroke="#9a32cd" points="47.6357,-147.948 49.5574,-158.367 54.5525,-149.024 47.6357,-147.948"/>
<text text-anchor="middle" x="67.5" y="-130.5" font-family="Helvetica,sans-Serif" font-size="10.00"> keys</text>
</g>
<!-- Node6 -->
<g id="node11" class="node"><title>Node6</title>
<a xlink:title="STL class. ">
<polygon fill="white" stroke="#bfbfbf" points="-0.5,-219 -0.5,-253 94.5,-253 94.5,-219 -0.5,-219"/>
<text text-anchor="start" x="7.5" y="-240" font-family="Helvetica,sans-Serif" font-size="10.00">std::basic_string&lt;</text>
<text text-anchor="middle" x="47" y="-227" font-family="Helvetica,sans-Serif" font-size="10.00"> char &gt;</text>
</a>
</g>
<!-- Node6&#45;&gt;Node5 -->
<g id="edge12" class="edge"><title>Node6&#45;&gt;Node5</title>
<path fill="none" stroke="midnightblue" d="M47.4099,-208.534C47.5626,-198.306 47.7269,-187.301 47.8432,-179.506"/>
<polygon fill="midnightblue" stroke="midnightblue" points="43.9072,-208.695 47.2575,-218.746 50.9065,-208.799 43.9072,-208.695"/>
</g>
</g>
</svg>
