<?xml version="1.0" encoding="UTF-8" standalone="no"?>
<!DOCTYPE svg PUBLIC "-//W3C//DTD SVG 1.1//EN"
 "http://www.w3.org/Graphics/SVG/1.1/DTD/svg11.dtd">
<!-- Generated by graphviz version 2.26.3 (20100126.1600)
 -->
<!-- Title: ant::analysis::data::Event::Data Pages: 1 -->
<svg width="1336pt" height="582pt"
 viewBox="0.00 0.00 1336.00 581.85" xmlns="http://www.w3.org/2000/svg" xmlns:xlink="http://www.w3.org/1999/xlink">
<g id="graph1" class="graph" transform="scale(1 1) rotate(0) translate(4 577.852)">
<title>ant::analysis::data::Event::Data</title>
<polygon fill="white" stroke="white" points="-4,5 -4,-577.852 1333,-577.852 1333,5 -4,5"/>
<!-- Node1 -->
<g id="node1" class="node"><title>Node1</title>
<polygon fill="#bfbfbf" stroke="black" points="1230.5,-259.852 1230.5,-293.852 1327.5,-293.852 1327.5,-259.852 1230.5,-259.852"/>
<text text-anchor="start" x="1238.5" y="-280.852" font-family="Helvetica,sans-Serif" font-size="10.00">ant::analysis::data</text>
<text text-anchor="middle" x="1279" y="-267.852" font-family="Helvetica,sans-Serif" font-size="10.00">::Event::Data</text>
</g>
<!-- Node2 -->
<g id="node2" class="node"><title>Node2</title>
<a xlink:href="classant_1_1printable__traits.html" target="_top" xlink:title="ant::printable_traits">
<polygon fill="white" stroke="black" points="392,-268.352 392,-289.352 492,-289.352 492,-268.352 392,-268.352"/>
<text text-anchor="middle" x="442" y="-276.352" font-family="Helvetica,sans-Serif" font-size="10.00">ant::printable_traits</text>
</a>
</g>
<!-- Node2&#45;&gt;Node1 -->
<g id="edge2" class="edge"><title>Node2&#45;&gt;Node1</title>
<path fill="none" stroke="midnightblue" d="M471.267,-293.948C507.36,-311.133 571.055,-336.852 629,-336.852 629,-336.852 629,-336.852 1065,-336.852 1131.77,-336.852 1148.38,-326.104 1212,-305.852 1222.39,-302.546 1233.36,-298.188 1243.34,-293.859"/>
<polygon fill="midnightblue" stroke="midnightblue" points="472.37,-290.592 461.847,-289.356 469.302,-296.884 472.37,-290.592"/>
</g>
<!-- Node10 -->
<g id="node18" class="node"><title>Node10</title>
<a xlink:href="structant_1_1_detector__t_1_1_any__t.html" target="_top" xlink:title="ant::Detector_t::Any_t">
<polygon fill="white" stroke="black" points="572.5,-417.352 572.5,-438.352 685.5,-438.352 685.5,-417.352 572.5,-417.352"/>
<text text-anchor="middle" x="629" y="-425.352" font-family="Helvetica,sans-Serif" font-size="10.00">ant::Detector_t::Any_t</text>
</a>
</g>
<!-- Node2&#45;&gt;Node10 -->
<g id="edge20" class="edge"><title>Node2&#45;&gt;Node10</title>
<path fill="none" stroke="midnightblue" d="M456.095,-297.785C477.916,-325.802 522.551,-378.182 572,-407.852 578.115,-411.521 585.003,-414.652 591.822,-417.272"/>
<polygon fill="midnightblue" stroke="midnightblue" points="458.691,-295.418 449.835,-289.604 453.132,-299.672 458.691,-295.418"/>
</g>
<!-- Node12 -->
<g id="node24" class="node"><title>Node12</title>
<a xlink:href="classant_1_1analysis_1_1data_1_1_event_1_1_data_1_1_p_type_lists.html" target="_top" xlink:title="ant::analysis::data\l::Event::Data::PTypeLists">
<polygon fill="white" stroke="black" points="999.5,-123.852 999.5,-157.852 1130.5,-157.852 1130.5,-123.852 999.5,-123.852"/>
<text text-anchor="start" x="1007.5" y="-144.852" font-family="Helvetica,sans-Serif" font-size="10.00">ant::analysis::data</text>
<text text-anchor="middle" x="1065" y="-131.852" font-family="Helvetica,sans-Serif" font-size="10.00">::Event::Data::PTypeLists</text>
</a>
</g>
<!-- Node2&#45;&gt;Node12 -->
<g id="edge28" class="edge"><title>Node2&#45;&gt;Node12</title>
<path fill="none" stroke="midnightblue" d="M459.574,-260.762C482.869,-238.127 526.376,-200.335 572,-183.852 611.19,-169.694 874.102,-152.3 999.152,-144.706"/>
<polygon fill="midnightblue" stroke="midnightblue" points="456.837,-258.548 452.207,-268.077 461.769,-263.515 456.837,-258.548"/>
</g>
<!-- Node17 -->
<g id="node36" class="node"><title>Node17</title>
<a xlink:href="classant_1_1analysis_1_1data_1_1_trigger_info.html" target="_top" xlink:title="ant::analysis::data\l::TriggerInfo">
<polygon fill="white" stroke="black" points="1016.5,-234.852 1016.5,-268.852 1113.5,-268.852 1113.5,-234.852 1016.5,-234.852"/>
<text text-anchor="start" x="1024.5" y="-255.852" font-family="Helvetica,sans-Serif" font-size="10.00">ant::analysis::data</text>
<text text-anchor="middle" x="1065" y="-242.852" font-family="Helvetica,sans-Serif" font-size="10.00">::TriggerInfo</text>
</a>
</g>
<!-- Node2&#45;&gt;Node17 -->
<g id="edge42" class="edge"><title>Node2&#45;&gt;Node17</title>
<path fill="none" stroke="midnightblue" d="M502.257,-284.452C504.872,-284.605 507.462,-284.74 510,-284.852 529.537,-285.712 534.447,-285.14 554,-284.852 714.946,-282.486 755.367,-284.156 916,-273.852 943.628,-272.08 950.583,-271.693 978,-267.852 990.471,-266.105 1003.88,-263.836 1016.34,-261.558"/>
<polygon fill="midnightblue" stroke="midnightblue" points="502.311,-280.947 492.1,-283.776 501.846,-287.932 502.311,-280.947"/>
</g>
<!-- Node19 -->
<g id="node41" class="node"><title>Node19</title>
<a xlink:href="classant_1_1analysis_1_1data_1_1_d_a_q_error.html" target="_top" xlink:title="ant::analysis::data\l::DAQError">
<polygon fill="white" stroke="black" points="580.5,-192.852 580.5,-226.852 677.5,-226.852 677.5,-192.852 580.5,-192.852"/>
<text text-anchor="start" x="588.5" y="-213.852" font-family="Helvetica,sans-Serif" font-size="10.00">ant::analysis::data</text>
<text text-anchor="middle" x="629" y="-200.852" font-family="Helvetica,sans-Serif" font-size="10.00">::DAQError</text>
</a>
</g>
<!-- Node2&#45;&gt;Node19 -->
<g id="edge48" class="edge"><title>Node2&#45;&gt;Node19</title>
<path fill="none" stroke="midnightblue" d="M470.636,-263.709C482.61,-257.706 496.789,-251.019 510,-245.852 532.715,-236.969 558.563,-228.914 580.352,-222.686"/>
<polygon fill="midnightblue" stroke="midnightblue" points="468.885,-260.673 461.567,-268.334 472.065,-266.909 468.885,-260.673"/>
</g>
<!-- Node20 -->
<g id="node44" class="node"><title>Node20</title>
<a xlink:href="structant_1_1_t_i_d.html" target="_top" xlink:title="ant::TID">
<polygon fill="white" stroke="black" points="704.5,-248.352 704.5,-269.352 757.5,-269.352 757.5,-248.352 704.5,-248.352"/>
<text text-anchor="middle" x="731" y="-256.352" font-family="Helvetica,sans-Serif" font-size="10.00">ant::TID</text>
</a>
</g>
<!-- Node2&#45;&gt;Node20 -->
<g id="edge52" class="edge"><title>Node2&#45;&gt;Node20</title>
<path fill="none" stroke="midnightblue" d="M502.074,-274.695C564.2,-270.395 658.395,-263.877 704.159,-260.71"/>
<polygon fill="midnightblue" stroke="midnightblue" points="501.744,-271.209 492.01,-275.391 502.228,-278.192 501.744,-271.209"/>
</g>
<!-- Node3 -->
<g id="node4" class="node"><title>Node3</title>
<polygon fill="white" stroke="#bfbfbf" points="1008.5,-386.352 1008.5,-407.352 1121.5,-407.352 1121.5,-386.352 1008.5,-386.352"/>
<text text-anchor="middle" x="1065" y="-394.352" font-family="Helvetica,sans-Serif" font-size="10.00">std::vector&lt; Cluster &gt;</text>
</g>
<!-- Node3&#45;&gt;Node1 -->
<g id="edge4" class="edge"><title>Node3&#45;&gt;Node1</title>
<path fill="none" stroke="#9a32cd" stroke-dasharray="5,2" d="M1131.71,-383.972C1158.1,-376.896 1187.83,-366.314 1212,-350.852 1235.36,-335.909 1255.69,-310.738 1267.65,-293.962"/>
<polygon fill="#9a32cd" stroke="#9a32cd" points="1130.6,-380.643 1121.78,-386.515 1132.34,-387.424 1130.6,-380.643"/>
<text text-anchor="middle" x="1182" y="-380.852" font-family="Helvetica,sans-Serif" font-size="10.00"> allclusters</text>
</g>
<!-- Node4 -->
<g id="node6" class="node"><title>Node4</title>
<a xlink:href="classant_1_1analysis_1_1data_1_1_cluster.html" target="_top" xlink:title="ant::analysis::data\l::Cluster">
<polygon fill="white" stroke="black" points="797.5,-397.852 797.5,-431.852 894.5,-431.852 894.5,-397.852 797.5,-397.852"/>
<text text-anchor="start" x="805.5" y="-418.852" font-family="Helvetica,sans-Serif" font-size="10.00">ant::analysis::data</text>
<text text-anchor="middle" x="846" y="-405.852" font-family="Helvetica,sans-Serif" font-size="10.00">::Cluster</text>
</a>
</g>
<!-- Node4&#45;&gt;Node3 -->
<g id="edge6" class="edge"><title>Node4&#45;&gt;Node3</title>
<path fill="none" stroke="#9a32cd" stroke-dasharray="5,2" d="M904.763,-410.022C936.925,-407.379 976.585,-404.119 1008.4,-401.504"/>
<polygon fill="#9a32cd" stroke="#9a32cd" points="904.283,-406.55 894.603,-410.857 904.856,-413.526 904.283,-406.55"/>
<text text-anchor="middle" x="956" y="-410.852" font-family="Helvetica,sans-Serif" font-size="10.00"> elements</text>
</g>
<!-- Node5 -->
<g id="node8" class="node"><title>Node5</title>
<a xlink:href="structant_1_1enumfield.html" target="_top" xlink:title="ant::enumfield\&lt; Flag,\l std::int32_t \&gt;">
<polygon fill="white" stroke="black" points="574.5,-364.852 574.5,-398.852 683.5,-398.852 683.5,-364.852 574.5,-364.852"/>
<text text-anchor="start" x="582.5" y="-385.852" font-family="Helvetica,sans-Serif" font-size="10.00">ant::enumfield&lt; Flag,</text>
<text text-anchor="middle" x="629" y="-372.852" font-family="Helvetica,sans-Serif" font-size="10.00"> std::int32_t &gt;</text>
</a>
</g>
<!-- Node5&#45;&gt;Node4 -->
<g id="edge8" class="edge"><title>Node5&#45;&gt;Node4</title>
<path fill="none" stroke="#9a32cd" stroke-dasharray="5,2" d="M693.82,-391.71C726.971,-396.751 766.653,-402.786 797.183,-407.428"/>
<polygon fill="#9a32cd" stroke="#9a32cd" points="694.171,-388.223 683.758,-390.179 693.118,-395.143 694.171,-388.223"/>
<text text-anchor="middle" x="731" y="-404.852" font-family="Helvetica,sans-Serif" font-size="10.00"> flags</text>
</g>
<!-- Node6 -->
<g id="node10" class="node"><title>Node6</title>
<polygon fill="white" stroke="#bfbfbf" points="572.5,-539.852 572.5,-573.852 685.5,-573.852 685.5,-539.852 572.5,-539.852"/>
<text text-anchor="start" x="580.5" y="-560.852" font-family="Helvetica,sans-Serif" font-size="10.00">std::list&lt; ant::analysis</text>
<text text-anchor="middle" x="629" y="-547.852" font-family="Helvetica,sans-Serif" font-size="10.00">::data::Cluster::Hit &gt;</text>
</g>
<!-- Node6&#45;&gt;Node4 -->
<g id="edge10" class="edge"><title>Node6&#45;&gt;Node4</title>
<path fill="none" stroke="#9a32cd" stroke-dasharray="5,2" d="M678.225,-535.164C680.881,-533.756 683.489,-532.315 686,-530.852 738.766,-500.103 795.508,-456.033 825.186,-432.033"/>
<polygon fill="#9a32cd" stroke="#9a32cd" points="676.408,-532.161 669.071,-539.804 679.573,-538.404 676.408,-532.161"/>
<text text-anchor="middle" x="731" y="-522.852" font-family="Helvetica,sans-Serif" font-size="10.00"> Hits</text>
</g>
<!-- Node7 -->
<g id="node12" class="node"><title>Node7</title>
<a xlink:href="structant_1_1analysis_1_1data_1_1_cluster_1_1_hit.html" target="_top" xlink:title="ant::analysis::data\l::Cluster::Hit">
<polygon fill="white" stroke="black" points="393.5,-539.852 393.5,-573.852 490.5,-573.852 490.5,-539.852 393.5,-539.852"/>
<text text-anchor="start" x="401.5" y="-560.852" font-family="Helvetica,sans-Serif" font-size="10.00">ant::analysis::data</text>
<text text-anchor="middle" x="442" y="-547.852" font-family="Helvetica,sans-Serif" font-size="10.00">::Cluster::Hit</text>
</a>
</g>
<!-- Node7&#45;&gt;Node6 -->
<g id="edge12" class="edge"><title>Node7&#45;&gt;Node6</title>
<path fill="none" stroke="#9a32cd" stroke-dasharray="5,2" d="M500.877,-556.852C523.691,-556.852 549.708,-556.852 572.31,-556.852"/>
<polygon fill="#9a32cd" stroke="#9a32cd" points="500.644,-553.352 490.644,-556.852 500.644,-560.352 500.644,-553.352"/>
<text text-anchor="middle" x="532" y="-560.852" font-family="Helvetica,sans-Serif" font-size="10.00"> elements</text>
</g>
<!-- Node8 -->
<g id="node14" class="node"><title>Node8</title>
<polygon fill="white" stroke="#bfbfbf" points="188,-539.852 188,-573.852 330,-573.852 330,-539.852 188,-539.852"/>
<text text-anchor="start" x="196" y="-560.852" font-family="Helvetica,sans-Serif" font-size="10.00">std::list&lt; ant::analysis</text>
<text text-anchor="middle" x="259" y="-547.852" font-family="Helvetica,sans-Serif" font-size="10.00">::data::Cluster::Hit::Datum &gt;</text>
</g>
<!-- Node8&#45;&gt;Node7 -->
<g id="edge14" class="edge"><title>Node8&#45;&gt;Node7</title>
<path fill="none" stroke="#9a32cd" stroke-dasharray="5,2" d="M340.046,-556.852C358.24,-556.852 376.993,-556.852 393.376,-556.852"/>
<polygon fill="#9a32cd" stroke="#9a32cd" points="340.015,-553.352 330.015,-556.852 340.014,-560.352 340.015,-553.352"/>
<text text-anchor="middle" x="361" y="-560.852" font-family="Helvetica,sans-Serif" font-size="10.00"> Data</text>
</g>
<!-- Node9 -->
<g id="node16" class="node"><title>Node9</title>
<a xlink:href="structant_1_1analysis_1_1data_1_1_cluster_1_1_hit_1_1_datum.html" target="_top" xlink:title="ant::analysis::data\l::Cluster::Hit::Datum">
<polygon fill="white" stroke="black" points="0,-539.852 0,-573.852 108,-573.852 108,-539.852 0,-539.852"/>
<text text-anchor="start" x="8" y="-560.852" font-family="Helvetica,sans-Serif" font-size="10.00">ant::analysis::data</text>
<text text-anchor="middle" x="54" y="-547.852" font-family="Helvetica,sans-Serif" font-size="10.00">::Cluster::Hit::Datum</text>
</a>
</g>
<!-- Node9&#45;&gt;Node8 -->
<g id="edge16" class="edge"><title>Node9&#45;&gt;Node8</title>
<path fill="none" stroke="#9a32cd" stroke-dasharray="5,2" d="M118.399,-556.852C140.493,-556.852 165.34,-556.852 187.931,-556.852"/>
<polygon fill="#9a32cd" stroke="#9a32cd" points="118.13,-553.352 108.129,-556.852 118.129,-560.352 118.13,-553.352"/>
<text text-anchor="middle" x="148" y="-560.852" font-family="Helvetica,sans-Serif" font-size="10.00"> elements</text>
</g>
<!-- Node10&#45;&gt;Node4 -->
<g id="edge18" class="edge"><title>Node10&#45;&gt;Node4</title>
<path fill="none" stroke="#9a32cd" stroke-dasharray="5,2" d="M696.13,-423.831C728.854,-421.87 767.484,-419.556 797.328,-417.768"/>
<polygon fill="#9a32cd" stroke="#9a32cd" points="695.504,-420.362 685.731,-424.454 695.922,-427.349 695.504,-420.362"/>
<text text-anchor="middle" x="731" y="-426.852" font-family="Helvetica,sans-Serif" font-size="10.00"> Detector</text>
</g>
<!-- Node10&#45;&gt;Node10 -->
<g id="edge22" class="edge"><title>Node10&#45;&gt;Node10</title>
<path fill="none" stroke="#9a32cd" stroke-dasharray="5,2" d="M611.308,-448.279C612.673,-453.201 618.57,-456.852 629,-456.852 645.688,-456.852 650.772,-447.505 644.253,-438.56"/>
<polygon fill="#9a32cd" stroke="#9a32cd" points="614.708,-449.111 613.747,-438.56 607.918,-447.408 614.708,-449.111"/>
<text text-anchor="middle" x="629" y="-512.852" font-family="Helvetica,sans-Serif" font-size="10.00"> TAPS</text>
<text text-anchor="middle" x="629" y="-499.852" font-family="Helvetica,sans-Serif" font-size="10.00">None</text>
<text text-anchor="middle" x="629" y="-486.852" font-family="Helvetica,sans-Serif" font-size="10.00">Veto</text>
<text text-anchor="middle" x="629" y="-473.852" font-family="Helvetica,sans-Serif" font-size="10.00">MWPC</text>
<text text-anchor="middle" x="629" y="-460.852" font-family="Helvetica,sans-Serif" font-size="10.00">CB</text>
</g>
<!-- Node11 -->
<g id="node22" class="node"><title>Node11</title>
<polygon fill="white" stroke="#bfbfbf" points="996.5,-287.352 996.5,-308.352 1133.5,-308.352 1133.5,-287.352 996.5,-287.352"/>
<text text-anchor="middle" x="1065" y="-295.352" font-family="Helvetica,sans-Serif" font-size="10.00">std::vector&lt; TaggerHitPtr &gt;</text>
</g>
<!-- Node11&#45;&gt;Node1 -->
<g id="edge24" class="edge"><title>Node11&#45;&gt;Node1</title>
<path fill="none" stroke="#9a32cd" stroke-dasharray="5,2" d="M1143.73,-290.126C1172.78,-287.275 1204.83,-284.131 1230.44,-281.618"/>
<polygon fill="#9a32cd" stroke="#9a32cd" points="1143.2,-286.661 1133.59,-291.121 1143.89,-293.628 1143.2,-286.661"/>
<text text-anchor="middle" x="1182" y="-292.852" font-family="Helvetica,sans-Serif" font-size="10.00"> taggerhits</text>
</g>
<!-- Node12&#45;&gt;Node1 -->
<g id="edge26" class="edge"><title>Node12&#45;&gt;Node1</title>
<path fill="none" stroke="#9a32cd" stroke-dasharray="5,2" d="M1104.17,-163.122C1134.1,-180.42 1176.16,-205.345 1212,-228.852 1226.96,-238.662 1243.28,-250.336 1256.07,-259.715"/>
<polygon fill="#9a32cd" stroke="#9a32cd" points="1105.7,-159.966 1095.29,-158.008 1102.21,-166.032 1105.7,-159.966"/>
<text text-anchor="middle" x="1182" y="-245.852" font-family="Helvetica,sans-Serif" font-size="10.00"> particles</text>
<text text-anchor="middle" x="1182" y="-232.852" font-family="Helvetica,sans-Serif" font-size="10.00">intermediates</text>
</g>
<!-- Node13 -->
<g id="node27" class="node"><title>Node13</title>
<polygon fill="white" stroke="#bfbfbf" points="776.5,-44.3522 776.5,-91.3522 915.5,-91.3522 915.5,-44.3522 776.5,-44.3522"/>
<text text-anchor="start" x="784.5" y="-78.3522" font-family="Helvetica,sans-Serif" font-size="10.00">std::map&lt; const ant</text>
<text text-anchor="start" x="784.5" y="-65.3522" font-family="Helvetica,sans-Serif" font-size="10.00">::ant::ParticleTypeDatabase</text>
<text text-anchor="middle" x="846" y="-52.3522" font-family="Helvetica,sans-Serif" font-size="10.00">::Type *, ParticleList &gt;</text>
</g>
<!-- Node13&#45;&gt;Node12 -->
<g id="edge30" class="edge"><title>Node13&#45;&gt;Node12</title>
<path fill="none" stroke="#9a32cd" stroke-dasharray="5,2" d="M925.434,-94.3303C954.846,-104.134 987.394,-114.984 1013.66,-123.737"/>
<polygon fill="#9a32cd" stroke="#9a32cd" points="926.188,-90.8921 915.594,-91.0502 923.974,-97.5329 926.188,-90.8921"/>
<text text-anchor="middle" x="956" y="-115.852" font-family="Helvetica,sans-Serif" font-size="10.00"> lists</text>
</g>
<!-- Node14 -->
<g id="node29" class="node"><title>Node14</title>
<a xlink:title="STL class. ">
<polygon fill="white" stroke="#bfbfbf" points="585.5,-19.3522 585.5,-40.3522 672.5,-40.3522 672.5,-19.3522 585.5,-19.3522"/>
<text text-anchor="middle" x="629" y="-27.3522" font-family="Helvetica,sans-Serif" font-size="10.00">std::vector&lt; T &gt;</text>
</a>
</g>
<!-- Node14&#45;&gt;Node12 -->
<g id="edge38" class="edge"><title>Node14&#45;&gt;Node12</title>
<path fill="none" stroke="#9a32cd" stroke-dasharray="5,2" d="M674.272,-16.7727C732.982,-2.37653 837.19,14.2862 916,-21.8522 954.386,-39.4542 950.481,-61.8208 978,-93.8522 986.011,-103.176 985.933,-107.797 996,-114.852 1000.72,-118.158 1005.91,-121.105 1011.26,-123.718"/>
<polygon fill="#9a32cd" stroke="#9a32cd" points="673.385,-13.3866 664.553,-19.2378 675.106,-20.1718 673.385,-13.3866"/>
<text text-anchor="middle" x="846" y="-25.8522" font-family="Helvetica,sans-Serif" font-size="10.00"> empty</text>
</g>
<!-- Node14&#45;&gt;Node13 -->
<g id="edge32" class="edge"><title>Node14&#45;&gt;Node13</title>
<path fill="none" stroke="#9a32cd" stroke-dasharray="5,2" d="M682.745,-39.2638C711.023,-44.2157 746.027,-50.3453 776.36,-55.6572"/>
<polygon fill="#9a32cd" stroke="#9a32cd" points="683.106,-35.7738 672.652,-37.4964 681.899,-42.6689 683.106,-35.7738"/>
<text text-anchor="middle" x="731" y="-56.8522" font-family="Helvetica,sans-Serif" font-size="10.00"> elements</text>
</g>
<!-- Node15 -->
<g id="node31" class="node"><title>Node15</title>
<polygon fill="white" stroke="#bfbfbf" points="427.5,-19.3522 427.5,-40.3522 456.5,-40.3522 456.5,-19.3522 427.5,-19.3522"/>
<text text-anchor="middle" x="442" y="-27.3522" font-family="Helvetica,sans-Serif" font-size="10.00">T</text>
</g>
<!-- Node15&#45;&gt;Node14 -->
<g id="edge34" class="edge"><title>Node15&#45;&gt;Node14</title>
<path fill="none" stroke="#9a32cd" stroke-dasharray="5,2" d="M466.756,-29.8522C496.924,-29.8522 548.429,-29.8522 585.319,-29.8522"/>
<polygon fill="#9a32cd" stroke="#9a32cd" points="466.674,-26.3523 456.674,-29.8522 466.674,-33.3523 466.674,-26.3523"/>
<text text-anchor="middle" x="532" y="-33.8522" font-family="Helvetica,sans-Serif" font-size="10.00"> elements</text>
</g>
<!-- Node16 -->
<g id="node33" class="node"><title>Node16</title>
<polygon fill="white" stroke="#bfbfbf" points="782.5,-110.352 782.5,-131.352 909.5,-131.352 909.5,-110.352 782.5,-110.352"/>
<text text-anchor="middle" x="846" y="-118.352" font-family="Helvetica,sans-Serif" font-size="10.00">std::vector&lt; ParticlePtr &gt;</text>
</g>
<!-- Node16&#45;&gt;Node12 -->
<g id="edge36" class="edge"><title>Node16&#45;&gt;Node12</title>
<path fill="none" stroke="#9a32cd" stroke-dasharray="5,2" d="M919.85,-127.552C938.803,-129.275 959.158,-131.129 978,-132.852 984.948,-133.487 992.208,-134.153 999.444,-134.817"/>
<polygon fill="#9a32cd" stroke="#9a32cd" points="920.06,-124.057 909.784,-126.637 919.426,-131.028 920.06,-124.057"/>
<text text-anchor="middle" x="956" y="-136.852" font-family="Helvetica,sans-Serif" font-size="10.00"> particles</text>
</g>
<!-- Node17&#45;&gt;Node1 -->
<g id="edge40" class="edge"><title>Node17&#45;&gt;Node1</title>
<path fill="none" stroke="#9a32cd" stroke-dasharray="5,2" d="M1123.8,-256.534C1150.73,-258.913 1183.03,-262.099 1212,-265.852 1217.96,-266.625 1224.21,-267.526 1230.39,-268.474"/>
<polygon fill="#9a32cd" stroke="#9a32cd" points="1124.02,-253.04 1113.76,-255.662 1123.42,-260.014 1124.02,-253.04"/>
<text text-anchor="middle" x="1182" y="-269.852" font-family="Helvetica,sans-Serif" font-size="10.00"> triggerinfo</text>
</g>
<!-- Node18 -->
<g id="node39" class="node"><title>Node18</title>
<polygon fill="white" stroke="#bfbfbf" points="789.5,-187.852 789.5,-221.852 902.5,-221.852 902.5,-187.852 789.5,-187.852"/>
<text text-anchor="start" x="797.5" y="-208.852" font-family="Helvetica,sans-Serif" font-size="10.00">std::list&lt; ant::analysis</text>
<text text-anchor="middle" x="846" y="-195.852" font-family="Helvetica,sans-Serif" font-size="10.00">::data::DAQError &gt;</text>
</g>
<!-- Node18&#45;&gt;Node17 -->
<g id="edge44" class="edge"><title>Node18&#45;&gt;Node17</title>
<path fill="none" stroke="#9a32cd" stroke-dasharray="5,2" d="M912.716,-217.423C933.652,-221.52 956.824,-226.213 978,-230.852 990.446,-233.579 1003.84,-236.713 1016.31,-239.715"/>
<polygon fill="#9a32cd" stroke="#9a32cd" points="913.12,-213.936 902.636,-215.462 911.783,-220.807 913.12,-213.936"/>
<text text-anchor="middle" x="956" y="-234.852" font-family="Helvetica,sans-Serif" font-size="10.00"> errors</text>
</g>
<!-- Node19&#45;&gt;Node18 -->
<g id="edge46" class="edge"><title>Node19&#45;&gt;Node18</title>
<path fill="none" stroke="#9a32cd" stroke-dasharray="5,2" d="M688.102,-208.49C719.639,-207.764 758.256,-206.874 789.405,-206.156"/>
<polygon fill="#9a32cd" stroke="#9a32cd" points="687.616,-205.001 677.699,-208.73 687.777,-211.999 687.616,-205.001"/>
<text text-anchor="middle" x="731" y="-211.852" font-family="Helvetica,sans-Serif" font-size="10.00"> elements</text>
</g>
<!-- Node20&#45;&gt;Node17 -->
<g id="edge50" class="edge"><title>Node20&#45;&gt;Node17</title>
<path fill="none" stroke="#9a32cd" stroke-dasharray="5,2" d="M768.011,-258.077C828.603,-256.807 948.954,-254.284 1016.36,-252.872"/>
<polygon fill="#9a32cd" stroke="#9a32cd" points="767.692,-254.582 757.768,-258.291 767.839,-261.581 767.692,-254.582"/>
<text text-anchor="middle" x="846" y="-260.852" font-family="Helvetica,sans-Serif" font-size="10.00"> event_id</text>
</g>
<!-- Node21 -->
<g id="node47" class="node"><title>Node21</title>
<polygon fill="white" stroke="#bfbfbf" points="996,-84.3522 996,-105.352 1134,-105.352 1134,-84.3522 996,-84.3522"/>
<text text-anchor="middle" x="1065" y="-92.3522" font-family="Helvetica,sans-Serif" font-size="10.00">std::vector&lt; CandidatePtr &gt;</text>
</g>
<!-- Node21&#45;&gt;Node1 -->
<g id="edge54" class="edge"><title>Node21&#45;&gt;Node1</title>
<path fill="none" stroke="#9a32cd" stroke-dasharray="5,2" d="M1120.26,-108.837C1125,-110.642 1129.64,-112.643 1134,-114.852 1173.02,-134.617 1182.25,-142.795 1212,-174.852 1236.79,-201.562 1258.51,-238.425 1270.1,-259.741"/>
<polygon fill="#9a32cd" stroke="#9a32cd" points="1121.07,-105.41 1110.47,-105.402 1118.75,-112.015 1121.07,-105.41"/>
<text text-anchor="middle" x="1182" y="-178.852" font-family="Helvetica,sans-Serif" font-size="10.00"> candidates</text>
</g>
</g>
</svg>
