<?xml version="1.0" encoding="UTF-8" standalone="no"?>
<!DOCTYPE svg PUBLIC "-//W3C//DTD SVG 1.1//EN"
 "http://www.w3.org/Graphics/SVG/1.1/DTD/svg11.dtd">
<!-- Generated by graphviz version 2.26.3 (20100126.1600)
 -->
<!-- Title: ant::analysis::physics::ParticleIDCheck Pages: 1 -->
<svg width="548pt" height="166pt"
 viewBox="0.00 0.00 548.00 166.00" xmlns="http://www.w3.org/2000/svg" xmlns:xlink="http://www.w3.org/1999/xlink">
<g id="graph1" class="graph" transform="scale(1 1) rotate(0) translate(4 162)">
<title>ant::analysis::physics::ParticleIDCheck</title>
<polygon fill="white" stroke="white" points="-4,5 -4,-162 545,-162 545,5 -4,5"/>
<!-- Node1 -->
<g id="node1" class="node"><title>Node1</title>
<polygon fill="#bfbfbf" stroke="black" points="428,-78 428,-112 540,-112 540,-78 428,-78"/>
<text text-anchor="start" x="436" y="-99" font-family="Helvetica,sans-Serif" font-size="10.00">ant::analysis::physics</text>
<text text-anchor="middle" x="484" y="-86" font-family="Helvetica,sans-Serif" font-size="10.00">::ParticleIDCheck</text>
</g>
<!-- Node2 -->
<g id="node2" class="node"><title>Node2</title>
<a xlink:href="classant_1_1analysis_1_1_physics.html" target="_top" xlink:title="ant::analysis::Physics">
<polygon fill="white" stroke="black" points="217.5,-130.5 217.5,-151.5 330.5,-151.5 330.5,-130.5 217.5,-130.5"/>
<text text-anchor="middle" x="274" y="-138.5" font-family="Helvetica,sans-Serif" font-size="10.00">ant::analysis::Physics</text>
</a>
</g>
<!-- Node2&#45;&gt;Node1 -->
<g id="edge2" class="edge"><title>Node2&#45;&gt;Node1</title>
<path fill="none" stroke="midnightblue" d="M340.846,-135.994C363.069,-133.446 387.802,-129.643 410,-124 421.902,-120.974 434.473,-116.548 445.808,-112.059"/>
<polygon fill="midnightblue" stroke="midnightblue" points="340.395,-132.523 330.83,-137.079 341.149,-139.482 340.395,-132.523"/>
</g>
<!-- Node3 -->
<g id="node4" class="node"><title>Node3</title>
<a xlink:href="classant_1_1analysis_1_1_smart_hist_factory.html" target="_top" xlink:title="ant::analysis::SmartHist\lFactory">
<polygon fill="white" stroke="black" points="0,-124 0,-158 122,-158 122,-124 0,-124"/>
<text text-anchor="start" x="8" y="-145" font-family="Helvetica,sans-Serif" font-size="10.00">ant::analysis::SmartHist</text>
<text text-anchor="middle" x="61" y="-132" font-family="Helvetica,sans-Serif" font-size="10.00">Factory</text>
</a>
</g>
<!-- Node3&#45;&gt;Node2 -->
<g id="edge4" class="edge"><title>Node3&#45;&gt;Node2</title>
<path fill="none" stroke="#9a32cd" stroke-dasharray="5,2" d="M132.076,-141C159.812,-141 191.165,-141 217.335,-141"/>
<polygon fill="#9a32cd" stroke="#9a32cd" points="132.037,-137.5 122.037,-141 132.037,-144.5 132.037,-137.5"/>
<text text-anchor="middle" x="159" y="-145" font-family="Helvetica,sans-Serif" font-size="10.00"> HistFac</text>
</g>
<!-- Node4 -->
<g id="node6" class="node"><title>Node4</title>
<a xlink:href="structant_1_1analysis_1_1physics_1_1_particle_i_d_check_1_1branch__hists.html" target="_top" xlink:title="ant::analysis::physics\l::ParticleIDCheck::branch_hists">
<polygon fill="white" stroke="black" points="196,-78 196,-112 352,-112 352,-78 196,-78"/>
<text text-anchor="start" x="204" y="-99" font-family="Helvetica,sans-Serif" font-size="10.00">ant::analysis::physics</text>
<text text-anchor="middle" x="274" y="-86" font-family="Helvetica,sans-Serif" font-size="10.00">::ParticleIDCheck::branch_hists</text>
</a>
</g>
<!-- Node4&#45;&gt;Node1 -->
<g id="edge6" class="edge"><title>Node4&#45;&gt;Node1</title>
<path fill="none" stroke="#9a32cd" stroke-dasharray="5,2" d="M362.287,-95C384.436,-95 407.604,-95 427.711,-95"/>
<polygon fill="#9a32cd" stroke="#9a32cd" points="362.196,-91.5001 352.196,-95 362.196,-98.5001 362.196,-91.5001"/>
<text text-anchor="middle" x="390" y="-112" font-family="Helvetica,sans-Serif" font-size="10.00"> mctrue</text>
<text text-anchor="middle" x="390" y="-99" font-family="Helvetica,sans-Serif" font-size="10.00">rec</text>
</g>
<!-- Node5 -->
<g id="node8" class="node"><title>Node5</title>
<polygon fill="white" stroke="#bfbfbf" points="214,-0 214,-60 334,-60 334,-0 214,-0"/>
<text text-anchor="start" x="222" y="-47" font-family="Helvetica,sans-Serif" font-size="10.00">std::vector&lt; std::tuple</text>
<text text-anchor="start" x="222" y="-34" font-family="Helvetica,sans-Serif" font-size="10.00">&lt; ant::interval&lt; double</text>
<text text-anchor="start" x="222" y="-21" font-family="Helvetica,sans-Serif" font-size="10.00"> &gt;, ant::interval&lt; double</text>
<text text-anchor="middle" x="274" y="-8" font-family="Helvetica,sans-Serif" font-size="10.00"> &gt;, TH2D * &gt; &gt;</text>
</g>
<!-- Node5&#45;&gt;Node1 -->
<g id="edge8" class="edge"><title>Node5&#45;&gt;Node1</title>
<path fill="none" stroke="#9a32cd" stroke-dasharray="5,2" d="M343.795,-51.6031C371.46,-60.1662 402.813,-69.8708 428.844,-77.928"/>
<polygon fill="#9a32cd" stroke="#9a32cd" points="344.765,-48.2398 334.178,-48.6264 342.696,-54.9268 344.765,-48.2398"/>
<text text-anchor="middle" x="390" y="-75" font-family="Helvetica,sans-Serif" font-size="10.00"> bananas</text>
</g>
</g>
</svg>
