<?xml version="1.0" encoding="UTF-8" standalone="no"?>
<!DOCTYPE svg PUBLIC "-//W3C//DTD SVG 1.1//EN"
 "http://www.w3.org/Graphics/SVG/1.1/DTD/svg11.dtd">
<!-- Generated by graphviz version 2.26.3 (20100126.1600)
 -->
<!-- Title: ant::analysis::physics::ReconstructCheck Pages: 1 -->
<svg width="1032pt" height="231pt"
 viewBox="0.00 0.00 1032.00 231.00" xmlns="http://www.w3.org/2000/svg" xmlns:xlink="http://www.w3.org/1999/xlink">
<g id="graph1" class="graph" transform="scale(1 1) rotate(0) translate(4 227)">
<title>ant::analysis::physics::ReconstructCheck</title>
<polygon fill="white" stroke="white" points="-4,5 -4,-227 1029,-227 1029,5 -4,5"/>
<!-- Node1 -->
<g id="node1" class="node"><title>Node1</title>
<polygon fill="#bfbfbf" stroke="black" points="912,-119 912,-153 1024,-153 1024,-119 912,-119"/>
<text text-anchor="start" x="920" y="-140" font-family="Helvetica,sans-Serif" font-size="10.00">ant::analysis::physics</text>
<text text-anchor="middle" x="968" y="-127" font-family="Helvetica,sans-Serif" font-size="10.00">::ReconstructCheck</text>
</g>
<!-- Node2 -->
<g id="node2" class="node"><title>Node2</title>
<a xlink:href="classant_1_1analysis_1_1_physics.html" target="_top" xlink:title="ant::analysis::Physics">
<polygon fill="white" stroke="black" points="677.5,-195.5 677.5,-216.5 790.5,-216.5 790.5,-195.5 677.5,-195.5"/>
<text text-anchor="middle" x="734" y="-203.5" font-family="Helvetica,sans-Serif" font-size="10.00">ant::analysis::Physics</text>
</a>
</g>
<!-- Node2&#45;&gt;Node1 -->
<g id="edge2" class="edge"><title>Node2&#45;&gt;Node1</title>
<path fill="none" stroke="midnightblue" d="M796.156,-193.245C806.169,-190.973 816.396,-188.522 826,-186 856.593,-177.966 864.144,-175.444 894,-165 904.42,-161.355 915.554,-157.156 925.938,-153.105"/>
<polygon fill="midnightblue" stroke="midnightblue" points="795.245,-189.863 786.245,-195.454 796.767,-196.695 795.245,-189.863"/>
</g>
<!-- Node3 -->
<g id="node4" class="node"><title>Node3</title>
<a xlink:href="classant_1_1analysis_1_1_smart_hist_factory.html" target="_top" xlink:title="ant::analysis::SmartHist\lFactory">
<polygon fill="white" stroke="black" points="375,-189 375,-223 497,-223 497,-189 375,-189"/>
<text text-anchor="start" x="383" y="-210" font-family="Helvetica,sans-Serif" font-size="10.00">ant::analysis::SmartHist</text>
<text text-anchor="middle" x="436" y="-197" font-family="Helvetica,sans-Serif" font-size="10.00">Factory</text>
</a>
</g>
<!-- Node3&#45;&gt;Node2 -->
<g id="edge4" class="edge"><title>Node3&#45;&gt;Node2</title>
<path fill="none" stroke="#9a32cd" stroke-dasharray="5,2" d="M507.179,-206C559.184,-206 628.771,-206 677.096,-206"/>
<polygon fill="#9a32cd" stroke="#9a32cd" points="507.024,-202.5 497.024,-206 507.024,-209.5 507.024,-202.5"/>
<text text-anchor="middle" x="581" y="-210" font-family="Helvetica,sans-Serif" font-size="10.00"> HistFac</text>
</g>
<!-- Node4 -->
<g id="node6" class="node"><title>Node4</title>
<a xlink:href="structant_1_1analysis_1_1physics_1_1_reconstruct_check_1_1_t_a_p_s_veto_match.html" target="_top" xlink:title="ant::analysis::physics\l::ReconstructCheck::TAPSVetoMatch">
<polygon fill="white" stroke="black" points="642,-143 642,-177 826,-177 826,-143 642,-143"/>
<text text-anchor="start" x="650" y="-164" font-family="Helvetica,sans-Serif" font-size="10.00">ant::analysis::physics</text>
<text text-anchor="middle" x="734" y="-151" font-family="Helvetica,sans-Serif" font-size="10.00">::ReconstructCheck::TAPSVetoMatch</text>
</a>
</g>
<!-- Node4&#45;&gt;Node1 -->
<g id="edge6" class="edge"><title>Node4&#45;&gt;Node1</title>
<path fill="none" stroke="#9a32cd" stroke-dasharray="5,2" d="M836.384,-149.499C862.249,-146.846 889.082,-144.094 911.72,-141.772"/>
<polygon fill="#9a32cd" stroke="#9a32cd" points="835.738,-146.047 826.147,-150.549 836.452,-153.01 835.738,-146.047"/>
<text text-anchor="middle" x="869" y="-152" font-family="Helvetica,sans-Serif" font-size="10.00"> tapsveto</text>
</g>
<!-- Node5 -->
<g id="node8" class="node"><title>Node5</title>
<a xlink:href="structant_1_1analysis_1_1utils_1_1_time_smearing_hack.html" target="_top" xlink:title="ant::analysis::utils\l::TimeSmearingHack">
<polygon fill="white" stroke="black" points="679.5,-91 679.5,-125 788.5,-125 788.5,-91 679.5,-91"/>
<text text-anchor="start" x="687.5" y="-112" font-family="Helvetica,sans-Serif" font-size="10.00">ant::analysis::utils</text>
<text text-anchor="middle" x="734" y="-99" font-family="Helvetica,sans-Serif" font-size="10.00">::TimeSmearingHack</text>
</a>
</g>
<!-- Node5&#45;&gt;Node1 -->
<g id="edge8" class="edge"><title>Node5&#45;&gt;Node1</title>
<path fill="none" stroke="#9a32cd" stroke-dasharray="5,2" d="M798.878,-114.967C827.983,-118.177 862.733,-122.129 894,-126 899.79,-126.717 905.83,-127.491 911.855,-128.279"/>
<polygon fill="#9a32cd" stroke="#9a32cd" points="799.156,-111.476 788.834,-113.863 798.392,-118.434 799.156,-111.476"/>
<text text-anchor="middle" x="869" y="-130" font-family="Helvetica,sans-Serif" font-size="10.00"> timesmear</text>
</g>
<!-- Node6 -->
<g id="node10" class="node"><title>Node6</title>
<a xlink:href="structant_1_1analysis_1_1physics_1_1_reconstruct_check_1_1histgroup.html" target="_top" xlink:title="ant::analysis::physics\l::ReconstructCheck::histgroup">
<polygon fill="white" stroke="black" points="659,-34 659,-68 809,-68 809,-34 659,-34"/>
<text text-anchor="start" x="667" y="-55" font-family="Helvetica,sans-Serif" font-size="10.00">ant::analysis::physics</text>
<text text-anchor="middle" x="734" y="-42" font-family="Helvetica,sans-Serif" font-size="10.00">::ReconstructCheck::histgroup</text>
</a>
</g>
<!-- Node6&#45;&gt;Node1 -->
<g id="edge10" class="edge"><title>Node6&#45;&gt;Node1</title>
<path fill="none" stroke="#9a32cd" stroke-dasharray="5,2" d="M819.296,-56.6652C844.141,-60.4678 870.821,-66.7296 894,-77 916.383,-86.9177 937.779,-105.277 951.755,-118.892"/>
<polygon fill="#9a32cd" stroke="#9a32cd" points="819.536,-53.1645 809.144,-55.2295 818.556,-60.0955 819.536,-53.1645"/>
<text text-anchor="middle" x="869" y="-107" font-family="Helvetica,sans-Serif" font-size="10.00"> cb_group</text>
<text text-anchor="middle" x="869" y="-94" font-family="Helvetica,sans-Serif" font-size="10.00">all_group</text>
<text text-anchor="middle" x="869" y="-81" font-family="Helvetica,sans-Serif" font-size="10.00">taps_group</text>
</g>
<!-- Node7 -->
<g id="node12" class="node"><title>Node7</title>
<polygon fill="white" stroke="#bfbfbf" points="352.5,-80.5 352.5,-127.5 519.5,-127.5 519.5,-80.5 352.5,-80.5"/>
<text text-anchor="start" x="360.5" y="-114.5" font-family="Helvetica,sans-Serif" font-size="10.00">std::unique_ptr&lt; ant</text>
<text text-anchor="start" x="360.5" y="-101.5" font-family="Helvetica,sans-Serif" font-size="10.00">::analysis::physics::</text>
<text text-anchor="middle" x="436" y="-88.5" font-family="Helvetica,sans-Serif" font-size="10.00">ReconstructCheck::PositionMap &gt;</text>
</g>
<!-- Node7&#45;&gt;Node6 -->
<g id="edge12" class="edge"><title>Node7&#45;&gt;Node6</title>
<path fill="none" stroke="#9a32cd" stroke-dasharray="5,2" d="M529.685,-87.338C571.346,-79.9285 619.731,-71.323 658.955,-64.3469"/>
<polygon fill="#9a32cd" stroke="#9a32cd" points="529.035,-83.8985 519.803,-89.0955 530.261,-90.7903 529.035,-83.8985"/>
<text text-anchor="middle" x="581" y="-168" font-family="Helvetica,sans-Serif" font-size="10.00"> splitFlagPos</text>
<text text-anchor="middle" x="581" y="-155" font-family="Helvetica,sans-Serif" font-size="10.00">energy_recov</text>
<text text-anchor="middle" x="581" y="-142" font-family="Helvetica,sans-Serif" font-size="10.00">mult1_chargedPos</text>
<text text-anchor="middle" x="581" y="-129" font-family="Helvetica,sans-Serif" font-size="10.00">input_positions</text>
<text text-anchor="middle" x="581" y="-116" font-family="Helvetica,sans-Serif" font-size="10.00">splitPos</text>
<text text-anchor="middle" x="581" y="-103" font-family="Helvetica,sans-Serif" font-size="10.00">mult1_positions</text>
<text text-anchor="middle" x="581" y="-90" font-family="Helvetica,sans-Serif" font-size="10.00">posCharged</text>
</g>
<!-- Node8 -->
<g id="node14" class="node"><title>Node8</title>
<a xlink:href="structant_1_1analysis_1_1physics_1_1_reconstruct_check_1_1_position_map.html" target="_top" xlink:title="ant::analysis::physics\l::ReconstructCheck::PositionMap">
<polygon fill="white" stroke="black" points="136,-87 136,-121 300,-121 300,-87 136,-87"/>
<text text-anchor="start" x="144" y="-108" font-family="Helvetica,sans-Serif" font-size="10.00">ant::analysis::physics</text>
<text text-anchor="middle" x="218" y="-95" font-family="Helvetica,sans-Serif" font-size="10.00">::ReconstructCheck::PositionMap</text>
</a>
</g>
<!-- Node8&#45;&gt;Node7 -->
<g id="edge14" class="edge"><title>Node8&#45;&gt;Node7</title>
<path fill="none" stroke="#9a32cd" stroke-dasharray="5,2" d="M310.171,-104C324.103,-104 338.411,-104 352.155,-104"/>
<polygon fill="#9a32cd" stroke="#9a32cd" points="310.106,-100.5 300.106,-104 310.106,-107.5 310.106,-100.5"/>
<text text-anchor="middle" x="326" y="-108" font-family="Helvetica,sans-Serif" font-size="10.00"> ptr</text>
</g>
<!-- Node9 -->
<g id="node16" class="node"><title>Node9</title>
<a xlink:href="classant_1_1root__drawable__traits.html" target="_top" xlink:title="ant::root_drawable\l_traits">
<polygon fill="white" stroke="black" points="0.5,-87 0.5,-121 97.5,-121 97.5,-87 0.5,-87"/>
<text text-anchor="start" x="8.5" y="-108" font-family="Helvetica,sans-Serif" font-size="10.00">ant::root_drawable</text>
<text text-anchor="middle" x="49" y="-95" font-family="Helvetica,sans-Serif" font-size="10.00">_traits</text>
</a>
</g>
<!-- Node9&#45;&gt;Node8 -->
<g id="edge16" class="edge"><title>Node9&#45;&gt;Node8</title>
<path fill="none" stroke="midnightblue" d="M108.163,-104C117.107,-104 126.469,-104 135.794,-104"/>
<polygon fill="midnightblue" stroke="midnightblue" points="107.882,-100.5 97.8818,-104 107.882,-107.5 107.882,-100.5"/>
</g>
<!-- Node10 -->
<g id="node18" class="node"><title>Node10</title>
<a xlink:title="STL class. ">
<polygon fill="white" stroke="#bfbfbf" points="406,-40.5 406,-61.5 466,-61.5 466,-40.5 406,-40.5"/>
<text text-anchor="middle" x="436" y="-48.5" font-family="Helvetica,sans-Serif" font-size="10.00">std::string</text>
</a>
</g>
<!-- Node10&#45;&gt;Node6 -->
<g id="edge18" class="edge"><title>Node10&#45;&gt;Node6</title>
<path fill="none" stroke="#9a32cd" stroke-dasharray="5,2" d="M476.253,-51C522.965,-51 600.988,-51 658.978,-51"/>
<polygon fill="#9a32cd" stroke="#9a32cd" points="476.214,-47.5001 466.214,-51 476.214,-54.5001 476.214,-47.5001"/>
<text text-anchor="middle" x="581" y="-55" font-family="Helvetica,sans-Serif" font-size="10.00"> Prefix</text>
</g>
<!-- Node11 -->
<g id="node20" class="node"><title>Node11</title>
<a xlink:title="STL class. ">
<polygon fill="white" stroke="#bfbfbf" points="170.5,-34 170.5,-68 265.5,-68 265.5,-34 170.5,-34"/>
<text text-anchor="start" x="178.5" y="-55" font-family="Helvetica,sans-Serif" font-size="10.00">std::basic_string&lt;</text>
<text text-anchor="middle" x="218" y="-42" font-family="Helvetica,sans-Serif" font-size="10.00"> char &gt;</text>
</a>
</g>
<!-- Node11&#45;&gt;Node10 -->
<g id="edge20" class="edge"><title>Node11&#45;&gt;Node10</title>
<path fill="none" stroke="midnightblue" d="M275.64,-51C317.503,-51 372.468,-51 405.963,-51"/>
<polygon fill="midnightblue" stroke="midnightblue" points="275.572,-47.5001 265.572,-51 275.572,-54.5001 275.572,-47.5001"/>
</g>
<!-- Node12 -->
<g id="node22" class="node"><title>Node12</title>
<polygon fill="white" stroke="#bfbfbf" points="379,-0.5 379,-21.5 493,-21.5 493,-0.5 379,-0.5"/>
<text text-anchor="middle" x="436" y="-8.5" font-family="Helvetica,sans-Serif" font-size="10.00">std::vector&lt; TH1D * &gt;</text>
</g>
<!-- Node12&#45;&gt;Node6 -->
<g id="edge22" class="edge"><title>Node12&#45;&gt;Node6</title>
<path fill="none" stroke="#9a32cd" stroke-dasharray="5,2" d="M503.576,-18.744C539.399,-22.9813 584.127,-28.4813 624,-34 635.293,-35.5631 647.224,-37.3087 658.898,-39.0696"/>
<polygon fill="#9a32cd" stroke="#9a32cd" points="503.582,-15.2206 493.242,-17.5273 502.764,-22.1726 503.582,-15.2206"/>
<text text-anchor="middle" x="581" y="-38" font-family="Helvetica,sans-Serif" font-size="10.00"> mult2_split_angles</text>
</g>
</g>
</svg>
