<?xml version="1.0" encoding="UTF-8" standalone="no"?>
<!DOCTYPE svg PUBLIC "-//W3C//DTD SVG 1.1//EN"
 "http://www.w3.org/Graphics/SVG/1.1/DTD/svg11.dtd">
<!-- Generated by graphviz version 2.26.3 (20100126.1600)
 -->
<!-- Title: src/analysis/utils/combinatorics.h Pages: 1 -->
<svg width="2372pt" height="128pt"
 viewBox="0.00 0.00 2372.00 128.00" xmlns="http://www.w3.org/2000/svg" xmlns:xlink="http://www.w3.org/1999/xlink">
<g id="graph1" class="graph" transform="scale(1 1) rotate(0) translate(4 124)">
<title>src/analysis/utils/combinatorics.h</title>
<polygon fill="white" stroke="white" points="-4,5 -4,-124 2369,-124 2369,5 -4,5"/>
<!-- Node1 -->
<g id="node1" class="node"><title>Node1</title>
<polygon fill="#bfbfbf" stroke="black" points="1160,-85 1160,-119 1250,-119 1250,-85 1160,-85"/>
<text text-anchor="start" x="1168" y="-106" font-family="Helvetica,sans-Serif" font-size="10.00">src/analysis/utils</text>
<text text-anchor="middle" x="1205" y="-93" font-family="Helvetica,sans-Serif" font-size="10.00">/combinatorics.h</text>
</g>
<!-- Node2 -->
<g id="node3" class="node"><title>Node2</title>
<a xlink:href="_i_m_plots_8cc.html" target="_top" xlink:title="src/analysis/physics\l/common/IMPlots.cc">
<polygon fill="white" stroke="black" points="-0.5,-7 -0.5,-41 106.5,-41 106.5,-7 -0.5,-7"/>
<text text-anchor="start" x="7.5" y="-28" font-family="Helvetica,sans-Serif" font-size="10.00">src/analysis/physics</text>
<text text-anchor="middle" x="53" y="-15" font-family="Helvetica,sans-Serif" font-size="10.00">/common/IMPlots.cc</text>
</a>
</g>
<!-- Node1&#45;&gt;Node2 -->
<g id="edge2" class="edge"><title>Node1&#45;&gt;Node2</title>
<path fill="none" stroke="midnightblue" d="M1149.53,-101.586C956.589,-99.7808 315.634,-90.6413 115,-48 107.21,-46.3443 99.115,-43.8377 91.4456,-41.059"/>
<polygon fill="midnightblue" stroke="midnightblue" points="1149.69,-105.087 1159.72,-101.678 1149.75,-98.0874 1149.69,-105.087"/>
</g>
<!-- Node3 -->
<g id="node5" class="node"><title>Node3</title>
<a xlink:href="etaprime-3pi0_8cc.html" target="_top" xlink:title="src/analysis/physics\l/etaprime/etaprime&#45;3pi0.cc">
<polygon fill="white" stroke="black" points="124,-7 124,-41 256,-41 256,-7 124,-7"/>
<text text-anchor="start" x="132" y="-28" font-family="Helvetica,sans-Serif" font-size="10.00">src/analysis/physics</text>
<text text-anchor="middle" x="190" y="-15" font-family="Helvetica,sans-Serif" font-size="10.00">/etaprime/etaprime&#45;3pi0.cc</text>
</a>
</g>
<!-- Node1&#45;&gt;Node3 -->
<g id="edge4" class="edge"><title>Node1&#45;&gt;Node3</title>
<path fill="none" stroke="midnightblue" d="M1149.76,-100.655C975.13,-96.1141 436.465,-79.8296 265,-48 255.86,-46.3033 246.283,-43.8146 237.148,-41.0743"/>
<polygon fill="midnightblue" stroke="midnightblue" points="1149.67,-104.153 1159.75,-100.912 1149.85,-97.1556 1149.67,-104.153"/>
</g>
<!-- Node4 -->
<g id="node7" class="node"><title>Node4</title>
<a xlink:href="_basic_8cc.html" target="_top" xlink:title="src/analysis/physics\l/misc/Basic.cc">
<polygon fill="white" stroke="black" points="274,-7 274,-41 380,-41 380,-7 274,-7"/>
<text text-anchor="start" x="282" y="-28" font-family="Helvetica,sans-Serif" font-size="10.00">src/analysis/physics</text>
<text text-anchor="middle" x="327" y="-15" font-family="Helvetica,sans-Serif" font-size="10.00">/misc/Basic.cc</text>
</a>
</g>
<!-- Node1&#45;&gt;Node4 -->
<g id="edge6" class="edge"><title>Node1&#45;&gt;Node4</title>
<path fill="none" stroke="midnightblue" d="M1149.84,-100.524C990.998,-95.9292 534.651,-80.2199 389,-48 381.337,-46.3048 373.37,-43.8167 365.802,-41.0767"/>
<polygon fill="midnightblue" stroke="midnightblue" points="1149.77,-104.023 1159.86,-100.81 1149.97,-97.026 1149.77,-104.023"/>
</g>
<!-- Node5 -->
<g id="node9" class="node"><title>Node5</title>
<a xlink:href="_m_c_overview_8cc.html" target="_top" xlink:title="src/analysis/physics\l/misc/MCOverview.cc">
<polygon fill="white" stroke="black" points="398,-7 398,-41 512,-41 512,-7 398,-7"/>
<text text-anchor="start" x="406" y="-28" font-family="Helvetica,sans-Serif" font-size="10.00">src/analysis/physics</text>
<text text-anchor="middle" x="455" y="-15" font-family="Helvetica,sans-Serif" font-size="10.00">/misc/MCOverview.cc</text>
</a>
</g>
<!-- Node1&#45;&gt;Node5 -->
<g id="edge8" class="edge"><title>Node1&#45;&gt;Node5</title>
<path fill="none" stroke="midnightblue" d="M1149.83,-99.5663C1009.32,-93.0607 640.67,-73.9797 521,-48 513.017,-46.2669 504.692,-43.7971 496.75,-41.0949"/>
<polygon fill="midnightblue" stroke="midnightblue" points="1149.79,-103.068 1159.94,-100.031 1150.11,-96.0756 1149.79,-103.068"/>
</g>
<!-- Node6 -->
<g id="node11" class="node"><title>Node6</title>
<a xlink:href="_m_c_single_particles_8cc.html" target="_top" xlink:title="src/analysis/physics\l/misc/MCSingleParticles.cc">
<polygon fill="white" stroke="black" points="530,-7 530,-41 668,-41 668,-7 530,-7"/>
<text text-anchor="start" x="538" y="-28" font-family="Helvetica,sans-Serif" font-size="10.00">src/analysis/physics</text>
<text text-anchor="middle" x="599" y="-15" font-family="Helvetica,sans-Serif" font-size="10.00">/misc/MCSingleParticles.cc</text>
</a>
</g>
<!-- Node1&#45;&gt;Node6 -->
<g id="edge10" class="edge"><title>Node1&#45;&gt;Node6</title>
<path fill="none" stroke="midnightblue" d="M1149.56,-99.9136C1052.79,-95.478 847.12,-82.5221 677,-48 667.975,-46.1685 658.504,-43.7198 649.396,-41.0854"/>
<polygon fill="midnightblue" stroke="midnightblue" points="1149.55,-103.417 1159.7,-100.365 1149.86,-96.4235 1149.55,-103.417"/>
</g>
<!-- Node7 -->
<g id="node13" class="node"><title>Node7</title>
<a xlink:href="_split_check_8cc.html" target="_top" xlink:title="src/analysis/physics\l/misc/SplitCheck.cc">
<polygon fill="white" stroke="black" points="686,-7 686,-41 792,-41 792,-7 686,-7"/>
<text text-anchor="start" x="694" y="-28" font-family="Helvetica,sans-Serif" font-size="10.00">src/analysis/physics</text>
<text text-anchor="middle" x="739" y="-15" font-family="Helvetica,sans-Serif" font-size="10.00">/misc/SplitCheck.cc</text>
</a>
</g>
<!-- Node1&#45;&gt;Node7 -->
<g id="edge12" class="edge"><title>Node1&#45;&gt;Node7</title>
<path fill="none" stroke="midnightblue" d="M1149.65,-98.7551C1071.08,-93.217 923.177,-79.3406 801,-48 793.733,-46.1358 786.159,-43.6711 778.903,-41.0309"/>
<polygon fill="midnightblue" stroke="midnightblue" points="1149.58,-102.259 1159.8,-99.4514 1150.06,-95.2754 1149.58,-102.259"/>
</g>
<!-- Node8 -->
<g id="node15" class="node"><title>Node8</title>
<a xlink:href="_geo_acceptance_8cc.html" target="_top" xlink:title="src/analysis/physics\l/omega/GeoAcceptance.cc">
<polygon fill="white" stroke="black" points="809.5,-7 809.5,-41 944.5,-41 944.5,-7 809.5,-7"/>
<text text-anchor="start" x="817.5" y="-28" font-family="Helvetica,sans-Serif" font-size="10.00">src/analysis/physics</text>
<text text-anchor="middle" x="877" y="-15" font-family="Helvetica,sans-Serif" font-size="10.00">/omega/GeoAcceptance.cc</text>
</a>
</g>
<!-- Node1&#45;&gt;Node8 -->
<g id="edge14" class="edge"><title>Node1&#45;&gt;Node8</title>
<path fill="none" stroke="midnightblue" d="M1149.74,-91.7244C1098.44,-81.8165 1020.12,-65.7454 953,-48 945.108,-45.9132 936.816,-43.5135 928.729,-41.056"/>
<polygon fill="midnightblue" stroke="midnightblue" points="1149.15,-95.1743 1159.63,-93.6224 1150.47,-88.2998 1149.15,-95.1743"/>
</g>
<!-- Node9 -->
<g id="node17" class="node"><title>Node9</title>
<a xlink:href="omega_8cc.html" target="_top" xlink:title="src/analysis/physics\l/omega/omega.cc">
<polygon fill="white" stroke="black" points="962,-7 962,-41 1068,-41 1068,-7 962,-7"/>
<text text-anchor="start" x="970" y="-28" font-family="Helvetica,sans-Serif" font-size="10.00">src/analysis/physics</text>
<text text-anchor="middle" x="1015" y="-15" font-family="Helvetica,sans-Serif" font-size="10.00">/omega/omega.cc</text>
</a>
</g>
<!-- Node1&#45;&gt;Node9 -->
<g id="edge16" class="edge"><title>Node1&#45;&gt;Node9</title>
<path fill="none" stroke="midnightblue" d="M1153.71,-80.9441C1123.27,-68.4459 1085.16,-52.8036 1056.6,-41.0775"/>
<polygon fill="midnightblue" stroke="midnightblue" points="1152.72,-84.3226 1163.3,-84.8826 1155.38,-77.847 1152.72,-84.3226"/>
</g>
<!-- Node10 -->
<g id="node19" class="node"><title>Node10</title>
<a xlink:href="_test_a_p_l_c_o_n_8cc.html" target="_top" xlink:title="src/analysis/physics\l/test/TestAPLCON.cc">
<polygon fill="white" stroke="black" points="1085.5,-7 1085.5,-41 1198.5,-41 1198.5,-7 1085.5,-7"/>
<text text-anchor="start" x="1093.5" y="-28" font-family="Helvetica,sans-Serif" font-size="10.00">src/analysis/physics</text>
<text text-anchor="middle" x="1142" y="-15" font-family="Helvetica,sans-Serif" font-size="10.00">/test/TestAPLCON.cc</text>
</a>
</g>
<!-- Node1&#45;&gt;Node10 -->
<g id="edge18" class="edge"><title>Node1&#45;&gt;Node10</title>
<path fill="none" stroke="midnightblue" d="M1184.53,-76.6516C1175.17,-65.0718 1164.34,-51.6543 1155.94,-41.2623"/>
<polygon fill="midnightblue" stroke="midnightblue" points="1182.01,-79.109 1191.02,-84.6893 1187.46,-74.7106 1182.01,-79.109"/>
</g>
<!-- Node11 -->
<g id="node21" class="node"><title>Node11</title>
<a xlink:href="_test_physics_8cc.html" target="_top" xlink:title="src/analysis/physics\l/test/TestPhysics.cc">
<polygon fill="white" stroke="black" points="1215.5,-7 1215.5,-41 1322.5,-41 1322.5,-7 1215.5,-7"/>
<text text-anchor="start" x="1223.5" y="-28" font-family="Helvetica,sans-Serif" font-size="10.00">src/analysis/physics</text>
<text text-anchor="middle" x="1269" y="-15" font-family="Helvetica,sans-Serif" font-size="10.00">/test/TestPhysics.cc</text>
</a>
</g>
<!-- Node1&#45;&gt;Node11 -->
<g id="edge20" class="edge"><title>Node1&#45;&gt;Node11</title>
<path fill="none" stroke="midnightblue" d="M1225.8,-76.6516C1235.3,-65.0718 1246.31,-51.6543 1254.84,-41.2623"/>
<polygon fill="midnightblue" stroke="midnightblue" points="1222.84,-74.7384 1219.2,-84.6893 1228.25,-79.1786 1222.84,-74.7384"/>
</g>
<!-- Node12 -->
<g id="node23" class="node"><title>Node12</title>
<a xlink:href="etaprime-3pi0-test_8cc.html" target="_top" xlink:title="src/analysis/physics\l/wolfes/etaprime&#45;3pi0\l&#45;test.cc">
<polygon fill="white" stroke="black" points="1340,-0.5 1340,-47.5 1450,-47.5 1450,-0.5 1340,-0.5"/>
<text text-anchor="start" x="1348" y="-34.5" font-family="Helvetica,sans-Serif" font-size="10.00">src/analysis/physics</text>
<text text-anchor="start" x="1348" y="-21.5" font-family="Helvetica,sans-Serif" font-size="10.00">/wolfes/etaprime&#45;3pi0</text>
<text text-anchor="middle" x="1395" y="-8.5" font-family="Helvetica,sans-Serif" font-size="10.00">&#45;test.cc</text>
</a>
</g>
<!-- Node1&#45;&gt;Node12 -->
<g id="edge22" class="edge"><title>Node1&#45;&gt;Node12</title>
<path fill="none" stroke="midnightblue" d="M1255.95,-81.0839C1281.8,-70.4696 1313.25,-57.5599 1339.7,-46.7041"/>
<polygon fill="midnightblue" stroke="midnightblue" points="1254.62,-77.847 1246.7,-84.8826 1257.28,-84.3226 1254.62,-77.847"/>
</g>
<!-- Node13 -->
<g id="node25" class="node"><title>Node13</title>
<a xlink:href="particle__tools_8cc.html" target="_top" xlink:title="src/analysis/utils\l/particle_tools.cc">
<polygon fill="white" stroke="black" points="1467.5,-7 1467.5,-41 1558.5,-41 1558.5,-7 1467.5,-7"/>
<text text-anchor="start" x="1475.5" y="-28" font-family="Helvetica,sans-Serif" font-size="10.00">src/analysis/utils</text>
<text text-anchor="middle" x="1513" y="-15" font-family="Helvetica,sans-Serif" font-size="10.00">/particle_tools.cc</text>
</a>
</g>
<!-- Node1&#45;&gt;Node13 -->
<g id="edge24" class="edge"><title>Node1&#45;&gt;Node13</title>
<path fill="none" stroke="midnightblue" d="M1260.28,-93.6728C1312.32,-85.0334 1392.07,-69.7254 1459,-48 1465.05,-46.0363 1471.34,-43.616 1477.39,-41.0756"/>
<polygon fill="midnightblue" stroke="midnightblue" points="1259.55,-90.2445 1250.25,-95.3116 1260.68,-97.1528 1259.55,-90.2445"/>
</g>
<!-- Node14 -->
<g id="node27" class="node"><title>Node14</title>
<a xlink:href="_c_b___energy_8cc.html" target="_top" xlink:title="src/calibration/modules\l/CB_Energy.cc">
<polygon fill="white" stroke="black" points="1575.5,-7 1575.5,-41 1692.5,-41 1692.5,-7 1575.5,-7"/>
<text text-anchor="start" x="1583.5" y="-28" font-family="Helvetica,sans-Serif" font-size="10.00">src/calibration/modules</text>
<text text-anchor="middle" x="1634" y="-15" font-family="Helvetica,sans-Serif" font-size="10.00">/CB_Energy.cc</text>
</a>
</g>
<!-- Node1&#45;&gt;Node14 -->
<g id="edge26" class="edge"><title>Node1&#45;&gt;Node14</title>
<path fill="none" stroke="midnightblue" d="M1260.28,-97.152C1331.85,-90.104 1460.09,-74.8457 1567,-48 1574.67,-46.0741 1582.69,-43.6111 1590.41,-41"/>
<polygon fill="midnightblue" stroke="midnightblue" points="1259.76,-93.6862 1250.14,-98.1327 1260.43,-100.654 1259.76,-93.6862"/>
</g>
<!-- Node15 -->
<g id="node29" class="node"><title>Node15</title>
<a xlink:href="_energy_8cc.html" target="_top" xlink:title="src/calibration/modules\l/Energy.cc">
<polygon fill="white" stroke="black" points="1709.5,-7 1709.5,-41 1826.5,-41 1826.5,-7 1709.5,-7"/>
<text text-anchor="start" x="1717.5" y="-28" font-family="Helvetica,sans-Serif" font-size="10.00">src/calibration/modules</text>
<text text-anchor="middle" x="1768" y="-15" font-family="Helvetica,sans-Serif" font-size="10.00">/Energy.cc</text>
</a>
</g>
<!-- Node1&#45;&gt;Node15 -->
<g id="edge28" class="edge"><title>Node1&#45;&gt;Node15</title>
<path fill="none" stroke="midnightblue" d="M1260.28,-100.221C1352.65,-96.309 1543.72,-84.1968 1701,-48 1708.95,-46.171 1717.25,-43.6899 1725.2,-41.0145"/>
<polygon fill="midnightblue" stroke="midnightblue" points="1259.9,-96.7335 1250.05,-100.638 1260.18,-103.728 1259.9,-96.7335"/>
</g>
<!-- Node16 -->
<g id="node31" class="node"><title>Node16</title>
<a xlink:href="_t_a_p_s___energy_8cc.html" target="_top" xlink:title="src/calibration/modules\l/TAPS_Energy.cc">
<polygon fill="white" stroke="black" points="1843.5,-7 1843.5,-41 1960.5,-41 1960.5,-7 1843.5,-7"/>
<text text-anchor="start" x="1851.5" y="-28" font-family="Helvetica,sans-Serif" font-size="10.00">src/calibration/modules</text>
<text text-anchor="middle" x="1902" y="-15" font-family="Helvetica,sans-Serif" font-size="10.00">/TAPS_Energy.cc</text>
</a>
</g>
<!-- Node1&#45;&gt;Node16 -->
<g id="edge30" class="edge"><title>Node1&#45;&gt;Node16</title>
<path fill="none" stroke="midnightblue" d="M1260.35,-99.0942C1392.97,-91.8349 1726,-71.7719 1835,-48 1843.09,-46.236 1851.53,-43.7514 1859.59,-41.0442"/>
<polygon fill="midnightblue" stroke="midnightblue" points="1259.82,-95.6177 1250.02,-99.6556 1260.2,-102.607 1259.82,-95.6177"/>
</g>
<!-- Node17 -->
<g id="node33" class="node"><title>Node17</title>
<a xlink:href="_t_a_p_s___short_energy_8cc.html" target="_top" xlink:title="src/calibration/modules\l/TAPS_ShortEnergy.cc">
<polygon fill="white" stroke="black" points="1977.5,-7 1977.5,-41 2096.5,-41 2096.5,-7 1977.5,-7"/>
<text text-anchor="start" x="1985.5" y="-28" font-family="Helvetica,sans-Serif" font-size="10.00">src/calibration/modules</text>
<text text-anchor="middle" x="2037" y="-15" font-family="Helvetica,sans-Serif" font-size="10.00">/TAPS_ShortEnergy.cc</text>
</a>
</g>
<!-- Node1&#45;&gt;Node17 -->
<g id="edge32" class="edge"><title>Node1&#45;&gt;Node17</title>
<path fill="none" stroke="midnightblue" d="M1260.22,-100.023C1412.01,-94.2813 1833.31,-76.2035 1969,-48 1977.33,-46.2676 1986.04,-43.7622 1994.33,-41.0167"/>
<polygon fill="midnightblue" stroke="midnightblue" points="1260.05,-96.5266 1250.19,-100.399 1260.31,-103.522 1260.05,-96.5266"/>
</g>
<!-- Node18 -->
<g id="node35" class="node"><title>Node18</title>
<a xlink:href="_t_a_p_s_veto___energy_8cc.html" target="_top" xlink:title="src/calibration/modules\l/TAPSVeto_Energy.cc">
<polygon fill="white" stroke="black" points="2113.5,-7 2113.5,-41 2230.5,-41 2230.5,-7 2113.5,-7"/>
<text text-anchor="start" x="2121.5" y="-28" font-family="Helvetica,sans-Serif" font-size="10.00">src/calibration/modules</text>
<text text-anchor="middle" x="2172" y="-15" font-family="Helvetica,sans-Serif" font-size="10.00">/TAPSVeto_Energy.cc</text>
</a>
</g>
<!-- Node1&#45;&gt;Node18 -->
<g id="edge34" class="edge"><title>Node1&#45;&gt;Node18</title>
<path fill="none" stroke="midnightblue" d="M1260.48,-100.73C1430.44,-96.5166 1942.22,-81.3285 2105,-48 2113.23,-46.3148 2121.82,-43.8314 2129.99,-41.0929"/>
<polygon fill="midnightblue" stroke="midnightblue" points="1260.17,-97.2368 1250.26,-100.981 1260.34,-104.235 1260.17,-97.2368"/>
</g>
<!-- Node19 -->
<g id="node37" class="node"><title>Node19</title>
<a xlink:href="_time_8cc.html" target="_top" xlink:title="src/calibration/modules\l/Time.cc">
<polygon fill="white" stroke="black" points="2247.5,-7 2247.5,-41 2364.5,-41 2364.5,-7 2247.5,-7"/>
<text text-anchor="start" x="2255.5" y="-28" font-family="Helvetica,sans-Serif" font-size="10.00">src/calibration/modules</text>
<text text-anchor="middle" x="2306" y="-15" font-family="Helvetica,sans-Serif" font-size="10.00">/Time.cc</text>
</a>
</g>
<!-- Node1&#45;&gt;Node19 -->
<g id="edge36" class="edge"><title>Node1&#45;&gt;Node19</title>
<path fill="none" stroke="midnightblue" d="M1260.38,-101.232C1446.61,-98.317 2049.16,-86.1015 2239,-48 2247.36,-46.3224 2256.08,-43.8055 2264.36,-41.0238"/>
<polygon fill="midnightblue" stroke="midnightblue" points="1260.21,-97.7339 1250.27,-101.387 1260.32,-104.733 1260.21,-97.7339"/>
</g>
</g>
</svg>
