<?xml version="1.0" encoding="UTF-8" standalone="no"?>
<!DOCTYPE svg PUBLIC "-//W3C//DTD SVG 1.1//EN"
 "http://www.w3.org/Graphics/SVG/1.1/DTD/svg11.dtd">
<!-- Generated by graphviz version 2.26.3 (20100126.1600)
 -->
<!-- Title: src Pages: 1 -->
<svg width="342pt" height="508pt"
 viewBox="0.00 0.00 342.00 508.00" xmlns="http://www.w3.org/2000/svg" xmlns:xlink="http://www.w3.org/1999/xlink">
<g id="graph1" class="graph" transform="scale(1 1) rotate(0) translate(4 504)">
<title>src</title>
<polygon fill="white" stroke="white" points="-4,5 -4,-504 339,-504 339,5 -4,5"/>
<g id="graph2" class="cluster"><title>clusterdir_68267d1309a1af8e8297ef4c3efbcdba</title>
<a xlink:href="dir_68267d1309a1af8e8297ef4c3efbcdba.html" target="_top">
<polygon fill="#eeeeff" stroke="black" points="8,-8 8,-492 326,-492 326,-8 8,-8"/>
</a>
</g>
<!-- dir_68267d1309a1af8e8297ef4c3efbcdba -->
<g id="node2" class="node"><title>dir_68267d1309a1af8e8297ef4c3efbcdba</title>
<text text-anchor="middle" x="269" y="-463.5" font-family="Helvetica,sans-Serif" font-size="10.00">src</text>
</g>
<!-- dir_2eec376824a17f48dc36b4bd0c810e01 -->
<g id="node3" class="node"><title>dir_2eec376824a17f48dc36b4bd0c810e01</title>
<a xlink:href="dir_2eec376824a17f48dc36b4bd0c810e01.html" target="_top" xlink:title="analysis">
<polygon fill="white" stroke="red" points="182,-484 128,-484 128,-448 182,-448 182,-484"/>
<text text-anchor="middle" x="155" y="-463.5" font-family="Helvetica,sans-Serif" font-size="10.00">analysis</text>
</a>
</g>
<!-- dir_0af1587c8378955de40f48b4bd1869f0 -->
<g id="node4" class="node"><title>dir_0af1587c8378955de40f48b4bd1869f0</title>
<a xlink:href="dir_0af1587c8378955de40f48b4bd1869f0.html" target="_top" xlink:title="base">
<polygon fill="white" stroke="red" points="184,-52 130,-52 130,-16 184,-16 184,-52"/>
<text text-anchor="middle" x="157" y="-31.5" font-family="Helvetica,sans-Serif" font-size="10.00">base</text>
</a>
</g>
<!-- dir_2eec376824a17f48dc36b4bd0c810e01&#45;&gt;dir_0af1587c8378955de40f48b4bd1869f0 -->
<g id="edge45" class="edge"><title>dir_2eec376824a17f48dc36b4bd0c810e01&#45;&gt;dir_0af1587c8378955de40f48b4bd1869f0</title>
<path fill="none" stroke="black" d="M133.115,-447.851C90.4053,-410.091 2.19788,-319.305 27,-232 47.5604,-159.627 73.4251,-150.032 116,-88 122.36,-78.7331 129.68,-68.8667 136.358,-60.1371"/>
<polygon fill="black" stroke="black" points="139.167,-62.2256 142.512,-52.1726 133.628,-57.9455 139.167,-62.2256"/>
<a xlink:href="dir_000002_000023.html" target="_top" xlink:title="79">
<text text-anchor="middle" x="139.216" y="-64.306" font-family="Helvetica,sans-Serif" font-size="10.00">79</text>
</a>
</g>
<!-- dir_c4f4646ab0f4a2967be5b6215a500c22 -->
<g id="node6" class="node"><title>dir_c4f4646ab0f4a2967be5b6215a500c22</title>
<a xlink:href="dir_c4f4646ab0f4a2967be5b6215a500c22.html" target="_top" xlink:title="expconfig">
<polygon fill="white" stroke="red" points="302,-412 244,-412 244,-376 302,-376 302,-412"/>
<text text-anchor="middle" x="273" y="-391.5" font-family="Helvetica,sans-Serif" font-size="10.00">expconfig</text>
</a>
</g>
<!-- dir_2eec376824a17f48dc36b4bd0c810e01&#45;&gt;dir_c4f4646ab0f4a2967be5b6215a500c22 -->
<g id="edge51" class="edge"><title>dir_2eec376824a17f48dc36b4bd0c810e01&#45;&gt;dir_c4f4646ab0f4a2967be5b6215a500c22</title>
<path fill="none" stroke="black" d="M182.072,-449.482C197.832,-439.865 217.942,-427.595 235.24,-417.04"/>
<polygon fill="black" stroke="black" points="237.279,-419.896 243.992,-411.7 233.633,-413.921 237.279,-419.896"/>
<a xlink:href="dir_000002_000031.html" target="_top" xlink:title="2">
<text text-anchor="middle" x="235.689" y="-421.692" font-family="Helvetica,sans-Serif" font-size="10.00">2</text>
</a>
</g>
<!-- dir_5eb03804bf445589bf35c6aa84fb9a34 -->
<g id="node7" class="node"><title>dir_5eb03804bf445589bf35c6aa84fb9a34</title>
<a xlink:href="dir_5eb03804bf445589bf35c6aa84fb9a34.html" target="_top" xlink:title="reconstruct">
<polygon fill="white" stroke="red" points="258,-268 194,-268 194,-232 258,-232 258,-268"/>
<text text-anchor="middle" x="226" y="-247.5" font-family="Helvetica,sans-Serif" font-size="10.00">reconstruct</text>
</a>
</g>
<!-- dir_2eec376824a17f48dc36b4bd0c810e01&#45;&gt;dir_5eb03804bf445589bf35c6aa84fb9a34 -->
<g id="edge53" class="edge"><title>dir_2eec376824a17f48dc36b4bd0c810e01&#45;&gt;dir_5eb03804bf445589bf35c6aa84fb9a34</title>
<path fill="none" stroke="black" d="M155.65,-447.699C157.334,-416.812 163.373,-352.921 185,-304 189.355,-294.149 195.835,-284.442 202.364,-276.033"/>
<polygon fill="black" stroke="black" points="205.225,-278.063 208.832,-268.101 199.8,-273.639 205.225,-278.063"/>
<a xlink:href="dir_000002_000035.html" target="_top" xlink:title="1">
<text text-anchor="middle" x="205.154" y="-280.143" font-family="Helvetica,sans-Serif" font-size="10.00">1</text>
</a>
</g>
<!-- dir_c44c95bf3b41c3321c6014770d618ac8 -->
<g id="node10" class="node"><title>dir_c44c95bf3b41c3321c6014770d618ac8</title>
<a xlink:href="dir_c44c95bf3b41c3321c6014770d618ac8.html" target="_top" xlink:title="tree">
<polygon fill="white" stroke="black" points="208,-196 154,-196 154,-160 208,-160 208,-196"/>
<text text-anchor="middle" x="181" y="-175.5" font-family="Helvetica,sans-Serif" font-size="10.00">tree</text>
</a>
</g>
<!-- dir_2eec376824a17f48dc36b4bd0c810e01&#45;&gt;dir_c44c95bf3b41c3321c6014770d618ac8 -->
<g id="edge47" class="edge"><title>dir_2eec376824a17f48dc36b4bd0c810e01&#45;&gt;dir_c44c95bf3b41c3321c6014770d618ac8</title>
<path fill="none" stroke="black" d="M144.112,-447.713C138.707,-437.571 132.755,-424.511 130,-412 126.558,-396.375 128.202,-391.899 130,-376 137.002,-314.098 158.372,-244.014 171.12,-206.059"/>
<polygon fill="black" stroke="black" points="174.554,-206.834 174.468,-196.24 167.928,-204.575 174.554,-206.834"/>
<a xlink:href="dir_000002_000041.html" target="_top" xlink:title="20">
<text text-anchor="middle" x="176.081" y="-208.653" font-family="Helvetica,sans-Serif" font-size="10.00">20</text>
</a>
</g>
<!-- dir_da9e88029a658bab9ad39bb8696ef9bc -->
<g id="node11" class="node"><title>dir_da9e88029a658bab9ad39bb8696ef9bc</title>
<a xlink:href="dir_da9e88029a658bab9ad39bb8696ef9bc.html" target="_top" xlink:title="unpacker">
<polygon fill="white" stroke="red" points="209,-124 153,-124 153,-88 209,-88 209,-124"/>
<text text-anchor="middle" x="181" y="-103.5" font-family="Helvetica,sans-Serif" font-size="10.00">unpacker</text>
</a>
</g>
<!-- dir_2eec376824a17f48dc36b4bd0c810e01&#45;&gt;dir_da9e88029a658bab9ad39bb8696ef9bc -->
<g id="edge49" class="edge"><title>dir_2eec376824a17f48dc36b4bd0c810e01&#45;&gt;dir_da9e88029a658bab9ad39bb8696ef9bc</title>
<path fill="none" stroke="black" d="M150.856,-447.926C144.998,-420.753 135,-367.684 135,-322 135,-322 135,-322 135,-250 135,-209.754 131.225,-197.815 145,-160 148.492,-150.414 154.017,-140.854 159.701,-132.5"/>
<polygon fill="black" stroke="black" points="162.613,-134.445 165.603,-124.281 156.927,-130.362 162.613,-134.445"/>
<a xlink:href="dir_000002_000042.html" target="_top" xlink:title="1">
<text text-anchor="middle" x="162.823" y="-136.521" font-family="Helvetica,sans-Serif" font-size="10.00">1</text>
</a>
</g>
<!-- dir_f1b881a94df93d2a183c4d8f47373448 -->
<g id="node5" class="node"><title>dir_f1b881a94df93d2a183c4d8f47373448</title>
<a xlink:href="dir_f1b881a94df93d2a183c4d8f47373448.html" target="_top" xlink:title="calibration">
<polygon fill="white" stroke="red" points="254,-340 194,-340 194,-304 254,-304 254,-340"/>
<text text-anchor="middle" x="224" y="-319.5" font-family="Helvetica,sans-Serif" font-size="10.00">calibration</text>
</a>
</g>
<!-- dir_f1b881a94df93d2a183c4d8f47373448&#45;&gt;dir_2eec376824a17f48dc36b4bd0c810e01 -->
<g id="edge21" class="edge"><title>dir_f1b881a94df93d2a183c4d8f47373448&#45;&gt;dir_2eec376824a17f48dc36b4bd0c810e01</title>
<path fill="none" stroke="black" d="M215.332,-340.09C203.446,-364.896 181.986,-409.682 168.124,-438.611"/>
<polygon fill="black" stroke="black" points="164.904,-437.232 163.739,-447.762 171.217,-440.257 164.904,-437.232"/>
<a xlink:href="dir_000026_000002.html" target="_top" xlink:title="23">
<text text-anchor="middle" x="163.897" y="-430.263" font-family="Helvetica,sans-Serif" font-size="10.00">23</text>
</a>
</g>
<!-- dir_f1b881a94df93d2a183c4d8f47373448&#45;&gt;dir_0af1587c8378955de40f48b4bd1869f0 -->
<g id="edge13" class="edge"><title>dir_f1b881a94df93d2a183c4d8f47373448&#45;&gt;dir_0af1587c8378955de40f48b4bd1869f0</title>
<path fill="none" stroke="black" d="M243.496,-303.966C252.51,-294.289 262.255,-281.576 267,-268 272.279,-252.896 269.058,-247.867 267,-232 258.485,-166.359 265.972,-142.903 229,-88 219.764,-74.2853 205.862,-62.682 192.728,-53.788"/>
<polygon fill="black" stroke="black" points="194.568,-50.8101 184.266,-48.3396 190.779,-56.6958 194.568,-50.8101"/>
<a xlink:href="dir_000026_000023.html" target="_top" xlink:title="53">
<text text-anchor="middle" x="199.128" y="-47.8686" font-family="Helvetica,sans-Serif" font-size="10.00">53</text>
</a>
</g>
<!-- dir_f1b881a94df93d2a183c4d8f47373448&#45;&gt;dir_c4f4646ab0f4a2967be5b6215a500c22 -->
<g id="edge17" class="edge"><title>dir_f1b881a94df93d2a183c4d8f47373448&#45;&gt;dir_c4f4646ab0f4a2967be5b6215a500c22</title>
<path fill="none" stroke="black" d="M242.507,-340.413C248.838,-348.569 255.665,-358.321 261.348,-367.257"/>
<polygon fill="black" stroke="black" points="258.386,-369.124 266.588,-375.831 264.359,-365.473 258.386,-369.124"/>
<a xlink:href="dir_000026_000031.html" target="_top" xlink:title="8">
<text text-anchor="middle" x="254.089" y="-365.037" font-family="Helvetica,sans-Serif" font-size="10.00">8</text>
</a>
</g>
<!-- dir_f1b881a94df93d2a183c4d8f47373448&#45;&gt;dir_5eb03804bf445589bf35c6aa84fb9a34 -->
<g id="edge19" class="edge"><title>dir_f1b881a94df93d2a183c4d8f47373448&#45;&gt;dir_5eb03804bf445589bf35c6aa84fb9a34</title>
<path fill="none" stroke="black" d="M224.505,-303.831C224.719,-296.131 224.973,-286.974 225.211,-278.417"/>
<polygon fill="black" stroke="black" points="228.709,-278.507 225.489,-268.413 221.712,-278.312 228.709,-278.507"/>
<a xlink:href="dir_000026_000035.html" target="_top" xlink:title="4">
<text text-anchor="middle" x="231.448" y="-279.679" font-family="Helvetica,sans-Serif" font-size="10.00">4</text>
</a>
</g>
<!-- dir_f1b881a94df93d2a183c4d8f47373448&#45;&gt;dir_c44c95bf3b41c3321c6014770d618ac8 -->
<g id="edge15" class="edge"><title>dir_f1b881a94df93d2a183c4d8f47373448&#45;&gt;dir_c44c95bf3b41c3321c6014770d618ac8</title>
<path fill="none" stroke="black" d="M206.537,-303.569C198.416,-293.79 189.562,-281.106 185,-268 178.113,-248.213 177.338,-224.491 178.165,-206.37"/>
<polygon fill="black" stroke="black" points="181.672,-206.363 178.824,-196.158 174.687,-205.912 181.672,-206.363"/>
<a xlink:href="dir_000026_000041.html" target="_top" xlink:title="27">
<text text-anchor="middle" x="184.274" y="-207.633" font-family="Helvetica,sans-Serif" font-size="10.00">27</text>
</a>
</g>
<!-- dir_c4f4646ab0f4a2967be5b6215a500c22&#45;&gt;dir_0af1587c8378955de40f48b4bd1869f0 -->
<g id="edge29" class="edge"><title>dir_c4f4646ab0f4a2967be5b6215a500c22&#45;&gt;dir_0af1587c8378955de40f48b4bd1869f0</title>
<path fill="none" stroke="black" d="M282.331,-375.903C295.247,-349.13 317,-297.054 317,-250 317,-250 317,-250 317,-178 317,-111.921 240.67,-68.4261 193.452,-47.8416"/>
<polygon fill="black" stroke="black" points="194.716,-44.5762 184.142,-43.9136 191.995,-51.0257 194.716,-44.5762"/>
<a xlink:href="dir_000031_000023.html" target="_top" xlink:title="20">
<text text-anchor="middle" x="199.132" y="-40.8575" font-family="Helvetica,sans-Serif" font-size="10.00">20</text>
</a>
</g>
<!-- dir_c4f4646ab0f4a2967be5b6215a500c22&#45;&gt;dir_f1b881a94df93d2a183c4d8f47373448 -->
<g id="edge33" class="edge"><title>dir_c4f4646ab0f4a2967be5b6215a500c22&#45;&gt;dir_f1b881a94df93d2a183c4d8f47373448</title>
<path fill="none" stroke="black" d="M254.683,-375.831C248.363,-367.708 241.529,-357.964 235.824,-349.012"/>
<polygon fill="black" stroke="black" points="238.764,-347.111 230.555,-340.413 232.795,-350.769 238.764,-347.111"/>
<a xlink:href="dir_000031_000026.html" target="_top" xlink:title="39">
<text text-anchor="middle" x="243.063" y="-346.193" font-family="Helvetica,sans-Serif" font-size="10.00">39</text>
</a>
</g>
<!-- dir_c4f4646ab0f4a2967be5b6215a500c22&#45;&gt;dir_5eb03804bf445589bf35c6aa84fb9a34 -->
<g id="edge37" class="edge"><title>dir_c4f4646ab0f4a2967be5b6215a500c22&#45;&gt;dir_5eb03804bf445589bf35c6aa84fb9a34</title>
<path fill="none" stroke="black" d="M266.771,-375.819C264.497,-357.207 262.814,-327.727 254,-304 250.454,-294.455 244.859,-284.977 239.468,-276.689"/>
<polygon fill="black" stroke="black" points="242.271,-274.584 233.805,-268.214 236.451,-278.473 242.271,-274.584"/>
<a xlink:href="dir_000031_000035.html" target="_top" xlink:title="1">
<text text-anchor="middle" x="246.629" y="-273.496" font-family="Helvetica,sans-Serif" font-size="10.00">1</text>
</a>
</g>
<!-- dir_c4f4646ab0f4a2967be5b6215a500c22&#45;&gt;dir_c44c95bf3b41c3321c6014770d618ac8 -->
<g id="edge31" class="edge"><title>dir_c4f4646ab0f4a2967be5b6215a500c22&#45;&gt;dir_c44c95bf3b41c3321c6014770d618ac8</title>
<path fill="none" stroke="black" d="M243.63,-383.722C223.767,-375.183 198.736,-361.002 185,-340 158.554,-299.565 165.79,-240.477 173.419,-205.959"/>
<polygon fill="black" stroke="black" points="176.859,-206.621 175.762,-196.083 170.048,-205.005 176.859,-206.621"/>
<a xlink:href="dir_000031_000041.html" target="_top" xlink:title="7">
<text text-anchor="middle" x="178.792" y="-208.274" font-family="Helvetica,sans-Serif" font-size="10.00">7</text>
</a>
</g>
<!-- dir_c4f4646ab0f4a2967be5b6215a500c22&#45;&gt;dir_da9e88029a658bab9ad39bb8696ef9bc -->
<g id="edge35" class="edge"><title>dir_c4f4646ab0f4a2967be5b6215a500c22&#45;&gt;dir_da9e88029a658bab9ad39bb8696ef9bc</title>
<path fill="none" stroke="black" d="M270.197,-375.874C270.505,-345.243 275.259,-281.719 258,-232 244.714,-193.728 216.601,-156.207 198.043,-132.204"/>
<polygon fill="black" stroke="black" points="200.809,-130.059 191.917,-124.298 195.276,-134.346 200.809,-130.059"/>
<a xlink:href="dir_000031_000042.html" target="_top" xlink:title="10">
<text text-anchor="middle" x="205.255" y="-128.661" font-family="Helvetica,sans-Serif" font-size="10.00">10</text>
</a>
</g>
<!-- dir_5eb03804bf445589bf35c6aa84fb9a34&#45;&gt;dir_0af1587c8378955de40f48b4bd1869f0 -->
<g id="edge39" class="edge"><title>dir_5eb03804bf445589bf35c6aa84fb9a34&#45;&gt;dir_0af1587c8378955de40f48b4bd1869f0</title>
<path fill="none" stroke="black" d="M229.458,-231.883C234.491,-200.719 240.92,-135.72 218,-88 212.202,-75.9279 202.348,-65.3986 192.231,-56.9223"/>
<polygon fill="black" stroke="black" points="194.163,-53.9898 184.134,-50.5744 189.844,-59.4987 194.163,-53.9898"/>
<a xlink:href="dir_000035_000023.html" target="_top" xlink:title="10">
<text text-anchor="middle" x="198.744" y="-51.4731" font-family="Helvetica,sans-Serif" font-size="10.00">10</text>
</a>
</g>
<!-- dir_5eb03804bf445589bf35c6aa84fb9a34&#45;&gt;dir_c4f4646ab0f4a2967be5b6215a500c22 -->
<g id="edge43" class="edge"><title>dir_5eb03804bf445589bf35c6aa84fb9a34&#45;&gt;dir_c4f4646ab0f4a2967be5b6215a500c22</title>
<path fill="none" stroke="black" d="M249.857,-268.214C258.542,-278.13 267.172,-291.003 272,-304 279.334,-323.741 281.73,-347.466 281.059,-365.599"/>
<polygon fill="black" stroke="black" points="277.551,-365.585 280.293,-375.819 284.531,-366.109 277.551,-365.585"/>
<a xlink:href="dir_000035_000031.html" target="_top" xlink:title="7">
<text text-anchor="middle" x="274.988" y="-359.289" font-family="Helvetica,sans-Serif" font-size="10.00">7</text>
</a>
</g>
<!-- dir_5eb03804bf445589bf35c6aa84fb9a34&#45;&gt;dir_c44c95bf3b41c3321c6014770d618ac8 -->
<g id="edge41" class="edge"><title>dir_5eb03804bf445589bf35c6aa84fb9a34&#45;&gt;dir_c44c95bf3b41c3321c6014770d618ac8</title>
<path fill="none" stroke="black" d="M214.645,-231.831C209.567,-223.708 203.477,-213.964 197.882,-205.012"/>
<polygon fill="black" stroke="black" points="200.776,-203.038 192.508,-196.413 194.84,-206.748 200.776,-203.038"/>
<a xlink:href="dir_000035_000041.html" target="_top" xlink:title="12">
<text text-anchor="middle" x="205.089" y="-202.082" font-family="Helvetica,sans-Serif" font-size="10.00">12</text>
</a>
</g>
<!-- dir_d73d1ee04cc237a5854777ea99c55872 -->
<g id="node8" class="node"><title>dir_d73d1ee04cc237a5854777ea99c55872</title>
<a xlink:href="dir_d73d1ee04cc237a5854777ea99c55872.html" target="_top" xlink:title="simulation">
<polygon fill="white" stroke="red" points="96,-268 36,-268 36,-232 96,-232 96,-268"/>
<text text-anchor="middle" x="66" y="-247.5" font-family="Helvetica,sans-Serif" font-size="10.00">simulation</text>
</a>
</g>
<!-- dir_d73d1ee04cc237a5854777ea99c55872&#45;&gt;dir_0af1587c8378955de40f48b4bd1869f0 -->
<g id="edge9" class="edge"><title>dir_d73d1ee04cc237a5854777ea99c55872&#45;&gt;dir_0af1587c8378955de40f48b4bd1869f0</title>
<path fill="none" stroke="black" d="M73.6021,-231.955C89.5271,-194.156 126.477,-106.451 145.391,-61.5564"/>
<polygon fill="black" stroke="black" points="148.698,-62.7195 149.356,-52.1451 142.248,-60.0017 148.698,-62.7195"/>
<a xlink:href="dir_000037_000023.html" target="_top" xlink:title="2">
<text text-anchor="middle" x="149.919" y="-64.6345" font-family="Helvetica,sans-Serif" font-size="10.00">2</text>
</a>
</g>
<!-- dir_d73d1ee04cc237a5854777ea99c55872&#45;&gt;dir_c44c95bf3b41c3321c6014770d618ac8 -->
<g id="edge11" class="edge"><title>dir_d73d1ee04cc237a5854777ea99c55872&#45;&gt;dir_c44c95bf3b41c3321c6014770d618ac8</title>
<path fill="none" stroke="black" d="M95.0194,-231.831C110.29,-222.271 129.146,-210.465 145.305,-200.348"/>
<polygon fill="black" stroke="black" points="147.346,-203.2 153.965,-194.926 143.632,-197.266 147.346,-203.2"/>
<a xlink:href="dir_000037_000041.html" target="_top" xlink:title="1">
<text text-anchor="middle" x="145.806" y="-205.013" font-family="Helvetica,sans-Serif" font-size="10.00">1</text>
</a>
</g>
<!-- dir_eac0fb2d67ff9d60b1f715aabeb82ec8 -->
<g id="node9" class="node"><title>dir_eac0fb2d67ff9d60b1f715aabeb82ec8</title>
<a xlink:href="dir_eac0fb2d67ff9d60b1f715aabeb82ec8.html" target="_top" xlink:title="smarttree">
<polygon fill="white" stroke="black" points="74,-124 16,-124 16,-88 74,-88 74,-124"/>
<text text-anchor="middle" x="45" y="-103.5" font-family="Helvetica,sans-Serif" font-size="10.00">smarttree</text>
</a>
</g>
<!-- dir_eac0fb2d67ff9d60b1f715aabeb82ec8&#45;&gt;dir_0af1587c8378955de40f48b4bd1869f0 -->
<g id="edge7" class="edge"><title>dir_eac0fb2d67ff9d60b1f715aabeb82ec8&#45;&gt;dir_0af1587c8378955de40f48b4bd1869f0</title>
<path fill="none" stroke="black" d="M73.2623,-87.8314C87.7802,-78.4984 105.626,-67.0264 121.107,-57.0742"/>
<polygon fill="black" stroke="black" points="123.387,-59.7695 129.906,-51.4177 119.601,-53.8812 123.387,-59.7695"/>
<a xlink:href="dir_000040_000023.html" target="_top" xlink:title="2">
<text text-anchor="middle" x="121.898" y="-61.6016" font-family="Helvetica,sans-Serif" font-size="10.00">2</text>
</a>
</g>
<!-- dir_c44c95bf3b41c3321c6014770d618ac8&#45;&gt;dir_0af1587c8378955de40f48b4bd1869f0 -->
<g id="edge3" class="edge"><title>dir_c44c95bf3b41c3321c6014770d618ac8&#45;&gt;dir_0af1587c8378955de40f48b4bd1869f0</title>
<path fill="none" stroke="black" d="M164.572,-159.989C156.697,-150.129 148.102,-137.244 144,-124 137.724,-103.736 141.618,-79.948 146.735,-61.9189"/>
<polygon fill="black" stroke="black" points="150.1,-62.8858 149.734,-52.2973 143.417,-60.8029 150.1,-62.8858"/>
<a xlink:href="dir_000041_000023.html" target="_top" xlink:title="15">
<text text-anchor="middle" x="151.741" y="-64.6624" font-family="Helvetica,sans-Serif" font-size="10.00">15</text>
</a>
</g>
<!-- dir_c44c95bf3b41c3321c6014770d618ac8&#45;&gt;dir_da9e88029a658bab9ad39bb8696ef9bc -->
<g id="edge5" class="edge"><title>dir_c44c95bf3b41c3321c6014770d618ac8&#45;&gt;dir_da9e88029a658bab9ad39bb8696ef9bc</title>
<path fill="none" stroke="black" d="M175.048,-159.831C174.297,-152.131 174.076,-142.974 174.385,-134.417"/>
<polygon fill="black" stroke="black" points="177.879,-134.616 175.024,-124.413 170.893,-134.17 177.879,-134.616"/>
<a xlink:href="dir_000041_000042.html" target="_top" xlink:title="2">
<text text-anchor="middle" x="180.484" y="-135.884" font-family="Helvetica,sans-Serif" font-size="10.00">2</text>
</a>
</g>
<!-- dir_da9e88029a658bab9ad39bb8696ef9bc&#45;&gt;dir_0af1587c8378955de40f48b4bd1869f0 -->
<g id="edge23" class="edge"><title>dir_da9e88029a658bab9ad39bb8696ef9bc&#45;&gt;dir_0af1587c8378955de40f48b4bd1869f0</title>
<path fill="none" stroke="black" d="M174.944,-87.8314C172.349,-80.0463 169.258,-70.7729 166.378,-62.1347"/>
<polygon fill="black" stroke="black" points="169.62,-60.7933 163.138,-52.4133 162.98,-63.0069 169.62,-60.7933"/>
<a xlink:href="dir_000042_000023.html" target="_top" xlink:title="12">
<text text-anchor="middle" x="173.451" y="-60.8056" font-family="Helvetica,sans-Serif" font-size="10.00">12</text>
</a>
</g>
<!-- dir_da9e88029a658bab9ad39bb8696ef9bc&#45;&gt;dir_c4f4646ab0f4a2967be5b6215a500c22 -->
<g id="edge27" class="edge"><title>dir_da9e88029a658bab9ad39bb8696ef9bc&#45;&gt;dir_c4f4646ab0f4a2967be5b6215a500c22</title>
<path fill="none" stroke="black" d="M204.553,-124.298C227.766,-147.37 261.148,-189.216 276,-232 291.574,-276.864 289.224,-332.967 283.235,-366.002"/>
<polygon fill="black" stroke="black" points="279.792,-365.37 281.181,-375.874 286.645,-366.796 279.792,-365.37"/>
<a xlink:href="dir_000042_000031.html" target="_top" xlink:title="4">
<text text-anchor="middle" x="277.744" y="-358.773" font-family="Helvetica,sans-Serif" font-size="10.00">4</text>
</a>
</g>
<!-- dir_da9e88029a658bab9ad39bb8696ef9bc&#45;&gt;dir_c44c95bf3b41c3321c6014770d618ac8 -->
<g id="edge25" class="edge"><title>dir_da9e88029a658bab9ad39bb8696ef9bc&#45;&gt;dir_c44c95bf3b41c3321c6014770d618ac8</title>
<path fill="none" stroke="black" d="M186.976,-124.413C187.707,-132.059 187.92,-141.108 187.615,-149.573"/>
<polygon fill="black" stroke="black" points="184.105,-149.626 186.952,-159.831 191.09,-150.078 184.105,-149.626"/>
<a xlink:href="dir_000042_000041.html" target="_top" xlink:title="11">
<text text-anchor="middle" x="181.503" y="-143.356" font-family="Helvetica,sans-Serif" font-size="10.00">11</text>
</a>
</g>
</g>
</svg>
