<?xml version="1.0" encoding="UTF-8" standalone="no"?>
<!DOCTYPE svg PUBLIC "-//W3C//DTD SVG 1.1//EN"
 "http://www.w3.org/Graphics/SVG/1.1/DTD/svg11.dtd">
<!-- Generated by graphviz version 2.26.3 (20100126.1600)
 -->
<!-- Title: src/analysis/input Pages: 1 -->
<svg width="474pt" height="396pt"
 viewBox="0.00 0.00 473.95 396.16" xmlns="http://www.w3.org/2000/svg" xmlns:xlink="http://www.w3.org/1999/xlink">
<g id="graph1" class="graph" transform="scale(1 1) rotate(0) translate(4 392.16)">
<title>src/analysis/input</title>
<polygon fill="white" stroke="white" points="-4,5 -4,-392.16 470.955,-392.16 470.955,5 -4,5"/>
<g id="graph2" class="cluster"><title>clusterdir_2eec376824a17f48dc36b4bd0c810e01</title>
<a xlink:href="dir_2eec376824a17f48dc36b4bd0c810e01.html" target="_top" xlink:title="analysis">
<polygon fill="#ddddee" stroke="black" points="29.9548,-272 29.9548,-361 403.955,-361 403.955,-272 29.9548,-272"/>
<text text-anchor="middle" x="216.955" y="-348" font-family="Helvetica,sans-Serif" font-size="10.00">analysis</text>
</a>
</g>
<g id="graph3" class="cluster"><title>clusterdir_4d4314fec0337faafb4fd99dc7917bfa</title>
<a xlink:href="dir_4d4314fec0337faafb4fd99dc7917bfa.html" target="_top">
<polygon fill="#eeeeff" stroke="black" points="37.9548,-280 37.9548,-332 395.955,-332 395.955,-280 37.9548,-280"/>
</a>
</g>
<!-- dir_4d4314fec0337faafb4fd99dc7917bfa -->
<g id="node3" class="node"><title>dir_4d4314fec0337faafb4fd99dc7917bfa</title>
<text text-anchor="middle" x="360.955" y="-303.5" font-family="Helvetica,sans-Serif" font-size="10.00">input</text>
</g>
<!-- dir_0dfa530d699612f2413b2376f341aa41 -->
<g id="node4" class="node"><title>dir_0dfa530d699612f2413b2376f341aa41</title>
<a xlink:href="dir_0dfa530d699612f2413b2376f341aa41.html" target="_top" xlink:title="ant">
<polygon fill="white" stroke="red" points="99.9548,-324 45.9548,-324 45.9548,-288 99.9548,-288 99.9548,-324"/>
<text text-anchor="middle" x="72.9548" y="-303.5" font-family="Helvetica,sans-Serif" font-size="10.00">ant</text>
</a>
</g>
<!-- dir_86afe70f6685ce518ba6965fc87e41ba -->
<g id="node8" class="node"><title>dir_86afe70f6685ce518ba6965fc87e41ba</title>
<a xlink:href="dir_86afe70f6685ce518ba6965fc87e41ba.html" target="_top" xlink:title="data">
<polygon fill="none" stroke="black" points="243.955,-252 189.955,-252 189.955,-216 243.955,-216 243.955,-252"/>
<text text-anchor="middle" x="216.955" y="-231.5" font-family="Helvetica,sans-Serif" font-size="10.00">data</text>
</a>
</g>
<!-- dir_0dfa530d699612f2413b2376f341aa41&#45;&gt;dir_86afe70f6685ce518ba6965fc87e41ba -->
<g id="edge16" class="edge"><title>dir_0dfa530d699612f2413b2376f341aa41&#45;&gt;dir_86afe70f6685ce518ba6965fc87e41ba</title>
<path fill="none" stroke="black" d="M89.3069,-287.793C95.0845,-282.152 101.909,-276.297 108.955,-272 130.93,-258.6 158.307,-249.033 179.999,-242.851"/>
<polygon fill="black" stroke="black" points="181.107,-246.176 189.833,-240.166 179.264,-239.423 181.107,-246.176"/>
<a xlink:href="dir_000005_000003.html" target="_top" xlink:title="2">
<text text-anchor="middle" x="178.387" y="-247.362" font-family="Helvetica,sans-Serif" font-size="10.00">2</text>
</a>
</g>
<!-- dir_0af1587c8378955de40f48b4bd1869f0 -->
<g id="node10" class="node"><title>dir_0af1587c8378955de40f48b4bd1869f0</title>
<a xlink:href="dir_0af1587c8378955de40f48b4bd1869f0.html" target="_top" xlink:title="base">
<polygon fill="white" stroke="red" points="224.955,-36 170.955,-36 170.955,-1.77636e-14 224.955,-3.55271e-15 224.955,-36"/>
<text text-anchor="middle" x="197.955" y="-15.5" font-family="Helvetica,sans-Serif" font-size="10.00">base</text>
</a>
</g>
<!-- dir_0dfa530d699612f2413b2376f341aa41&#45;&gt;dir_0af1587c8378955de40f48b4bd1869f0 -->
<g id="edge18" class="edge"><title>dir_0dfa530d699612f2413b2376f341aa41&#45;&gt;dir_0af1587c8378955de40f48b4bd1869f0</title>
<path fill="none" stroke="black" d="M45.9078,-288.582C34.0463,-279.307 21.3793,-266.759 14.9548,-252 -18.231,-175.76 7.31905,-130.954 65.9548,-72 91.7262,-46.0886 131.659,-32.1054 160.857,-24.9093"/>
<polygon fill="black" stroke="black" points="161.739,-28.2978 170.696,-22.6386 160.165,-21.4771 161.739,-28.2978"/>
<a xlink:href="dir_000005_000023.html" target="_top" xlink:title="2">
<text text-anchor="middle" x="158.875" y="-29.3726" font-family="Helvetica,sans-Serif" font-size="10.00">2</text>
</a>
</g>
<!-- dir_c44c95bf3b41c3321c6014770d618ac8 -->
<g id="node11" class="node"><title>dir_c44c95bf3b41c3321c6014770d618ac8</title>
<a xlink:href="dir_c44c95bf3b41c3321c6014770d618ac8.html" target="_top" xlink:title="tree">
<polygon fill="none" stroke="black" points="150.955,-180 96.9548,-180 96.9548,-144 150.955,-144 150.955,-180"/>
<text text-anchor="middle" x="123.955" y="-159.5" font-family="Helvetica,sans-Serif" font-size="10.00">tree</text>
</a>
</g>
<!-- dir_0dfa530d699612f2413b2376f341aa41&#45;&gt;dir_c44c95bf3b41c3321c6014770d618ac8 -->
<g id="edge20" class="edge"><title>dir_0dfa530d699612f2413b2376f341aa41&#45;&gt;dir_c44c95bf3b41c3321c6014770d618ac8</title>
<path fill="none" stroke="black" d="M85.792,-287.777C92.3883,-277.654 100.049,-264.591 104.955,-252 112.757,-231.974 117.607,-208.129 120.452,-190.016"/>
<polygon fill="black" stroke="black" points="123.921,-190.487 121.903,-180.086 116.994,-189.475 123.921,-190.487"/>
<a xlink:href="dir_000005_000041.html" target="_top" xlink:title="11">
<text text-anchor="middle" x="126.21" y="-191.954" font-family="Helvetica,sans-Serif" font-size="10.00">11</text>
</a>
</g>
<!-- dir_da9e88029a658bab9ad39bb8696ef9bc -->
<g id="node12" class="node"><title>dir_da9e88029a658bab9ad39bb8696ef9bc</title>
<a xlink:href="dir_da9e88029a658bab9ad39bb8696ef9bc.html" target="_top" xlink:title="unpacker">
<polygon fill="white" stroke="red" points="150.955,-108 94.9548,-108 94.9548,-72 150.955,-72 150.955,-108"/>
<text text-anchor="middle" x="122.955" y="-87.5" font-family="Helvetica,sans-Serif" font-size="10.00">unpacker</text>
</a>
</g>
<!-- dir_0dfa530d699612f2413b2376f341aa41&#45;&gt;dir_da9e88029a658bab9ad39bb8696ef9bc -->
<g id="edge22" class="edge"><title>dir_0dfa530d699612f2413b2376f341aa41&#45;&gt;dir_da9e88029a658bab9ad39bb8696ef9bc</title>
<path fill="none" stroke="black" d="M49.564,-287.838C39.3215,-278.394 28.4089,-265.918 22.9548,-252 17.1171,-237.103 17.688,-231.108 22.9548,-216 36.9736,-175.786 69.7751,-138.771 94.0076,-115.414"/>
<polygon fill="black" stroke="black" points="96.6573,-117.727 101.54,-108.324 91.8592,-112.63 96.6573,-117.727"/>
<a xlink:href="dir_000005_000042.html" target="_top" xlink:title="1">
<text text-anchor="middle" x="95.986" y="-119.758" font-family="Helvetica,sans-Serif" font-size="10.00">1</text>
</a>
</g>
<!-- dir_5eb03804bf445589bf35c6aa84fb9a34 -->
<g id="node13" class="node"><title>dir_5eb03804bf445589bf35c6aa84fb9a34</title>
<a xlink:href="dir_5eb03804bf445589bf35c6aa84fb9a34.html" target="_top" xlink:title="reconstruct">
<polygon fill="white" stroke="red" points="95.9548,-252 31.9548,-252 31.9548,-216 95.9548,-216 95.9548,-252"/>
<text text-anchor="middle" x="63.9548" y="-231.5" font-family="Helvetica,sans-Serif" font-size="10.00">reconstruct</text>
</a>
</g>
<!-- dir_0dfa530d699612f2413b2376f341aa41&#45;&gt;dir_5eb03804bf445589bf35c6aa84fb9a34 -->
<g id="edge24" class="edge"><title>dir_0dfa530d699612f2413b2376f341aa41&#45;&gt;dir_5eb03804bf445589bf35c6aa84fb9a34</title>
<path fill="none" stroke="black" d="M70.6837,-287.831C69.7212,-280.131 68.5766,-270.974 67.5069,-262.417"/>
<polygon fill="black" stroke="black" points="70.9699,-261.902 66.2565,-252.413 64.0239,-262.77 70.9699,-261.902"/>
<a xlink:href="dir_000005_000035.html" target="_top" xlink:title="1">
<text text-anchor="middle" x="74.233" y="-262.617" font-family="Helvetica,sans-Serif" font-size="10.00">1</text>
</a>
</g>
<!-- dir_de939fcbf36d4005ef2424dd277e5714 -->
<g id="node5" class="node"><title>dir_de939fcbf36d4005ef2424dd277e5714</title>
<a xlink:href="dir_de939fcbf36d4005ef2424dd277e5714.html" target="_top" xlink:title="detail">
<polygon fill="white" stroke="black" points="171.955,-324 117.955,-324 117.955,-288 171.955,-288 171.955,-324"/>
<text text-anchor="middle" x="144.955" y="-303.5" font-family="Helvetica,sans-Serif" font-size="10.00">detail</text>
</a>
</g>
<!-- dir_de939fcbf36d4005ef2424dd277e5714&#45;&gt;dir_86afe70f6685ce518ba6965fc87e41ba -->
<g id="edge12" class="edge"><title>dir_de939fcbf36d4005ef2424dd277e5714&#45;&gt;dir_86afe70f6685ce518ba6965fc87e41ba</title>
<path fill="none" stroke="black" d="M163.123,-287.831C171.67,-279.285 182.01,-268.944 191.335,-259.62"/>
<polygon fill="black" stroke="black" points="193.945,-261.959 198.542,-252.413 188.996,-257.009 193.945,-261.959"/>
<a xlink:href="dir_000007_000003.html" target="_top" xlink:title="1">
<text text-anchor="middle" x="193.411" y="-264.009" font-family="Helvetica,sans-Serif" font-size="10.00">1</text>
</a>
</g>
<!-- dir_de939fcbf36d4005ef2424dd277e5714&#45;&gt;dir_c44c95bf3b41c3321c6014770d618ac8 -->
<g id="edge14" class="edge"><title>dir_de939fcbf36d4005ef2424dd277e5714&#45;&gt;dir_c44c95bf3b41c3321c6014770d618ac8</title>
<path fill="none" stroke="black" d="M144.484,-287.957C143.79,-269.705 142.09,-240.732 137.955,-216 136.54,-207.537 134.428,-198.465 132.27,-190.218"/>
<polygon fill="black" stroke="black" points="135.578,-189.043 129.562,-180.321 128.826,-190.891 135.578,-189.043"/>
<a xlink:href="dir_000007_000041.html" target="_top" xlink:title="1">
<text text-anchor="middle" x="139.265" y="-189.261" font-family="Helvetica,sans-Serif" font-size="10.00">1</text>
</a>
</g>
<!-- dir_3d86aa9b1cc13bb0c6c0b306061fba4a -->
<g id="node6" class="node"><title>dir_3d86aa9b1cc13bb0c6c0b306061fba4a</title>
<a xlink:href="dir_3d86aa9b1cc13bb0c6c0b306061fba4a.html" target="_top" xlink:title="goat">
<polygon fill="white" stroke="red" points="243.955,-324 189.955,-324 189.955,-288 243.955,-288 243.955,-324"/>
<text text-anchor="middle" x="216.955" y="-303.5" font-family="Helvetica,sans-Serif" font-size="10.00">goat</text>
</a>
</g>
<!-- dir_3d86aa9b1cc13bb0c6c0b306061fba4a&#45;&gt;dir_86afe70f6685ce518ba6965fc87e41ba -->
<g id="edge44" class="edge"><title>dir_3d86aa9b1cc13bb0c6c0b306061fba4a&#45;&gt;dir_86afe70f6685ce518ba6965fc87e41ba</title>
<path fill="none" stroke="black" d="M216.955,-287.831C216.955,-280.131 216.955,-270.974 216.955,-262.417"/>
<polygon fill="black" stroke="black" points="220.455,-262.413 216.955,-252.413 213.455,-262.413 220.455,-262.413"/>
<a xlink:href="dir_000008_000003.html" target="_top" xlink:title="1">
<text text-anchor="middle" x="223.294" y="-263.508" font-family="Helvetica,sans-Serif" font-size="10.00">1</text>
</a>
</g>
<!-- dir_3d86aa9b1cc13bb0c6c0b306061fba4a&#45;&gt;dir_0af1587c8378955de40f48b4bd1869f0 -->
<g id="edge46" class="edge"><title>dir_3d86aa9b1cc13bb0c6c0b306061fba4a&#45;&gt;dir_0af1587c8378955de40f48b4bd1869f0</title>
<path fill="none" stroke="black" d="M232.945,-287.917C240.609,-278.037 248.971,-265.156 252.955,-252 257.591,-236.687 254.806,-231.893 252.955,-216 245.348,-150.682 238.475,-134.796 218.955,-72 216.251,-63.3009 212.832,-53.9988 209.542,-45.6088"/>
<polygon fill="black" stroke="black" points="212.766,-44.2441 205.79,-36.2696 206.27,-46.8536 212.766,-44.2441"/>
<a xlink:href="dir_000008_000023.html" target="_top" xlink:title="3">
<text text-anchor="middle" x="216.74" y="-44.0213" font-family="Helvetica,sans-Serif" font-size="10.00">3</text>
</a>
</g>
<!-- dir_afb7c24399562c2231a021453aaf5419 -->
<g id="node7" class="node"><title>dir_afb7c24399562c2231a021453aaf5419</title>
<a xlink:href="dir_afb7c24399562c2231a021453aaf5419.html" target="_top" xlink:title="pluto">
<polygon fill="white" stroke="red" points="315.955,-324 261.955,-324 261.955,-288 315.955,-288 315.955,-324"/>
<text text-anchor="middle" x="288.955" y="-303.5" font-family="Helvetica,sans-Serif" font-size="10.00">pluto</text>
</a>
</g>
<!-- dir_afb7c24399562c2231a021453aaf5419&#45;&gt;dir_86afe70f6685ce518ba6965fc87e41ba -->
<g id="edge34" class="edge"><title>dir_afb7c24399562c2231a021453aaf5419&#45;&gt;dir_86afe70f6685ce518ba6965fc87e41ba</title>
<path fill="none" stroke="black" d="M270.786,-287.831C262.24,-279.285 251.899,-268.944 242.575,-259.62"/>
<polygon fill="black" stroke="black" points="244.914,-257.009 235.368,-252.413 239.964,-261.959 244.914,-257.009"/>
<a xlink:href="dir_000010_000003.html" target="_top" xlink:title="1">
<text text-anchor="middle" x="249.463" y="-255.044" font-family="Helvetica,sans-Serif" font-size="10.00">1</text>
</a>
</g>
<!-- dir_0a0aa297e888439a92fbcfd5e567f128 -->
<g id="node9" class="node"><title>dir_0a0aa297e888439a92fbcfd5e567f128</title>
<a xlink:href="dir_0a0aa297e888439a92fbcfd5e567f128.html" target="_top" xlink:title="utils">
<polygon fill="none" stroke="black" points="465.955,-324 411.955,-324 411.955,-288 465.955,-288 465.955,-324"/>
<text text-anchor="middle" x="438.955" y="-303.5" font-family="Helvetica,sans-Serif" font-size="10.00">utils</text>
</a>
</g>
<!-- dir_afb7c24399562c2231a021453aaf5419&#45;&gt;dir_0a0aa297e888439a92fbcfd5e567f128 -->
<g id="edge36" class="edge"><title>dir_afb7c24399562c2231a021453aaf5419&#45;&gt;dir_0a0aa297e888439a92fbcfd5e567f128</title>
<path fill="none" stroke="black" d="M294.418,-324.199C300.777,-341.775 313.156,-367.388 333.955,-379 356.074,-391.349 368.657,-391.025 390.955,-379 408.811,-369.371 421.111,-349.877 428.787,-333.454"/>
<polygon fill="black" stroke="black" points="432.016,-334.805 432.779,-324.238 425.593,-332.023 432.016,-334.805"/>
<a xlink:href="dir_000010_000022.html" target="_top" xlink:title="2">
<text text-anchor="middle" x="433.193" y="-336.732" font-family="Helvetica,sans-Serif" font-size="10.00">2</text>
</a>
</g>
<!-- dir_afb7c24399562c2231a021453aaf5419&#45;&gt;dir_0af1587c8378955de40f48b4bd1869f0 -->
<g id="edge38" class="edge"><title>dir_afb7c24399562c2231a021453aaf5419&#45;&gt;dir_0af1587c8378955de40f48b4bd1869f0</title>
<path fill="none" stroke="black" d="M288.121,-287.993C285.615,-247.39 275.853,-146.441 238.955,-72 234.172,-62.3499 227.57,-52.6996 221.061,-44.282"/>
<polygon fill="black" stroke="black" points="223.65,-41.9166 214.653,-36.321 218.197,-46.3057 223.65,-41.9166"/>
<a xlink:href="dir_000010_000023.html" target="_top" xlink:title="3">
<text text-anchor="middle" x="228.115" y="-40.4366" font-family="Helvetica,sans-Serif" font-size="10.00">3</text>
</a>
</g>
<!-- dir_86afe70f6685ce518ba6965fc87e41ba&#45;&gt;dir_0af1587c8378955de40f48b4bd1869f0 -->
<g id="edge4" class="edge"><title>dir_86afe70f6685ce518ba6965fc87e41ba&#45;&gt;dir_0af1587c8378955de40f48b4bd1869f0</title>
<path fill="none" stroke="black" d="M215.368,-215.955C212.057,-178.314 204.393,-91.1867 200.429,-46.1246"/>
<polygon fill="black" stroke="black" points="203.914,-45.7999 199.551,-36.1451 196.941,-46.4133 203.914,-45.7999"/>
<a xlink:href="dir_000003_000023.html" target="_top" xlink:title="18">
<text text-anchor="middle" x="207.057" y="-46.6319" font-family="Helvetica,sans-Serif" font-size="10.00">18</text>
</a>
</g>
<!-- dir_86afe70f6685ce518ba6965fc87e41ba&#45;&gt;dir_c44c95bf3b41c3321c6014770d618ac8 -->
<g id="edge6" class="edge"><title>dir_86afe70f6685ce518ba6965fc87e41ba&#45;&gt;dir_c44c95bf3b41c3321c6014770d618ac8</title>
<path fill="none" stroke="black" d="M193.487,-215.831C181.922,-206.878 167.814,-195.956 155.336,-186.295"/>
<polygon fill="black" stroke="black" points="157.465,-183.517 147.415,-180.163 153.18,-189.052 157.465,-183.517"/>
<a xlink:href="dir_000003_000041.html" target="_top" xlink:title="2">
<text text-anchor="middle" x="162.045" y="-180.972" font-family="Helvetica,sans-Serif" font-size="10.00">2</text>
</a>
</g>
<!-- dir_0a0aa297e888439a92fbcfd5e567f128&#45;&gt;dir_86afe70f6685ce518ba6965fc87e41ba -->
<g id="edge8" class="edge"><title>dir_0a0aa297e888439a92fbcfd5e567f128&#45;&gt;dir_86afe70f6685ce518ba6965fc87e41ba</title>
<path fill="none" stroke="black" d="M422.121,-287.961C415.711,-282.057 408,-275.995 399.955,-272 353.067,-248.718 292.597,-239.689 254.286,-236.195"/>
<polygon fill="black" stroke="black" points="254.353,-232.688 244.098,-235.349 253.774,-239.664 254.353,-232.688"/>
<a xlink:href="dir_000022_000003.html" target="_top" xlink:title="6">
<text text-anchor="middle" x="258.17" y="-227.656" font-family="Helvetica,sans-Serif" font-size="10.00">6</text>
</a>
</g>
<!-- dir_0a0aa297e888439a92fbcfd5e567f128&#45;&gt;dir_0af1587c8378955de40f48b4bd1869f0 -->
<g id="edge10" class="edge"><title>dir_0a0aa297e888439a92fbcfd5e567f128&#45;&gt;dir_0af1587c8378955de40f48b4bd1869f0</title>
<path fill="none" stroke="black" d="M427.185,-287.967C400.244,-247.311 331.005,-146.26 260.955,-72 251.266,-61.729 239.761,-51.407 229.251,-42.5787"/>
<polygon fill="black" stroke="black" points="231.395,-39.8101 221.454,-36.1444 226.939,-45.209 231.395,-39.8101"/>
<a xlink:href="dir_000022_000023.html" target="_top" xlink:title="11">
<text text-anchor="middle" x="235.975" y="-37.4082" font-family="Helvetica,sans-Serif" font-size="10.00">11</text>
</a>
</g>
<!-- dir_c44c95bf3b41c3321c6014770d618ac8&#45;&gt;dir_0af1587c8378955de40f48b4bd1869f0 -->
<g id="edge26" class="edge"><title>dir_c44c95bf3b41c3321c6014770d618ac8&#45;&gt;dir_0af1587c8378955de40f48b4bd1869f0</title>
<path fill="none" stroke="black" d="M137.517,-143.548C144.68,-133.357 153.333,-120.303 159.955,-108 170.874,-87.712 180.905,-63.6131 187.916,-45.4605"/>
<polygon fill="black" stroke="black" points="191.211,-46.6407 191.486,-36.0494 184.667,-44.1576 191.211,-46.6407"/>
<a xlink:href="dir_000041_000023.html" target="_top" xlink:title="15">
<text text-anchor="middle" x="192.591" y="-48.5087" font-family="Helvetica,sans-Serif" font-size="10.00">15</text>
</a>
</g>
<!-- dir_c44c95bf3b41c3321c6014770d618ac8&#45;&gt;dir_da9e88029a658bab9ad39bb8696ef9bc -->
<g id="edge28" class="edge"><title>dir_c44c95bf3b41c3321c6014770d618ac8&#45;&gt;dir_da9e88029a658bab9ad39bb8696ef9bc</title>
<path fill="none" stroke="black" d="M117.75,-143.831C116.893,-136.131 116.545,-126.974 116.734,-118.417"/>
<polygon fill="black" stroke="black" points="120.231,-118.576 117.235,-108.413 113.239,-118.226 120.231,-118.576"/>
<a xlink:href="dir_000041_000042.html" target="_top" xlink:title="2">
<text text-anchor="middle" x="122.887" y="-119.807" font-family="Helvetica,sans-Serif" font-size="10.00">2</text>
</a>
</g>
<!-- dir_da9e88029a658bab9ad39bb8696ef9bc&#45;&gt;dir_0af1587c8378955de40f48b4bd1869f0 -->
<g id="edge30" class="edge"><title>dir_da9e88029a658bab9ad39bb8696ef9bc&#45;&gt;dir_0af1587c8378955de40f48b4bd1869f0</title>
<path fill="none" stroke="black" d="M141.88,-71.8314C150.94,-63.1337 161.936,-52.5783 171.781,-43.1265"/>
<polygon fill="black" stroke="black" points="174.245,-45.613 179.035,-36.1628 169.397,-40.5633 174.245,-45.613"/>
<a xlink:href="dir_000042_000023.html" target="_top" xlink:title="12">
<text text-anchor="middle" x="173.618" y="-47.6506" font-family="Helvetica,sans-Serif" font-size="10.00">12</text>
</a>
</g>
<!-- dir_da9e88029a658bab9ad39bb8696ef9bc&#45;&gt;dir_c44c95bf3b41c3321c6014770d618ac8 -->
<g id="edge32" class="edge"><title>dir_da9e88029a658bab9ad39bb8696ef9bc&#45;&gt;dir_c44c95bf3b41c3321c6014770d618ac8</title>
<path fill="none" stroke="black" d="M129.187,-108.413C130.024,-116.059 130.363,-125.108 130.175,-133.573"/>
<polygon fill="black" stroke="black" points="126.666,-133.667 129.655,-143.831 133.657,-134.022 126.666,-133.667"/>
<a xlink:href="dir_000042_000041.html" target="_top" xlink:title="11">
<text text-anchor="middle" x="124.013" y="-127.433" font-family="Helvetica,sans-Serif" font-size="10.00">11</text>
</a>
</g>
<!-- dir_5eb03804bf445589bf35c6aa84fb9a34&#45;&gt;dir_0af1587c8378955de40f48b4bd1869f0 -->
<g id="edge40" class="edge"><title>dir_5eb03804bf445589bf35c6aa84fb9a34&#45;&gt;dir_0af1587c8378955de40f48b4bd1869f0</title>
<path fill="none" stroke="black" d="M61.2675,-215.949C57.4934,-183.733 54.2594,-115.631 85.9548,-72 103.763,-47.4854 135.715,-33.6192 160.946,-26.0944"/>
<polygon fill="black" stroke="black" points="161.887,-29.4656 170.589,-23.4229 160.018,-22.7197 161.887,-29.4656"/>
<a xlink:href="dir_000035_000023.html" target="_top" xlink:title="10">
<text text-anchor="middle" x="159.18" y="-30.6614" font-family="Helvetica,sans-Serif" font-size="10.00">10</text>
</a>
</g>
<!-- dir_5eb03804bf445589bf35c6aa84fb9a34&#45;&gt;dir_c44c95bf3b41c3321c6014770d618ac8 -->
<g id="edge42" class="edge"><title>dir_5eb03804bf445589bf35c6aa84fb9a34&#45;&gt;dir_c44c95bf3b41c3321c6014770d618ac8</title>
<path fill="none" stroke="black" d="M79.0953,-215.831C86.0765,-207.454 94.4939,-197.353 102.142,-188.175"/>
<polygon fill="black" stroke="black" points="104.897,-190.336 108.61,-180.413 99.5198,-185.855 104.897,-190.336"/>
<a xlink:href="dir_000035_000041.html" target="_top" xlink:title="12">
<text text-anchor="middle" x="104.777" y="-192.415" font-family="Helvetica,sans-Serif" font-size="10.00">12</text>
</a>
</g>
</g>
</svg>
