<?xml version="1.0" encoding="UTF-8" standalone="no"?>
<!DOCTYPE svg PUBLIC "-//W3C//DTD SVG 1.1//EN"
 "http://www.w3.org/Graphics/SVG/1.1/DTD/svg11.dtd">
<!-- Generated by graphviz version 2.26.3 (20100126.1600)
 -->
<!-- Title: src/analysis/physics Pages: 1 -->
<svg width="823pt" height="377pt"
 viewBox="0.00 0.00 823.20 377.00" xmlns="http://www.w3.org/2000/svg" xmlns:xlink="http://www.w3.org/1999/xlink">
<g id="graph1" class="graph" transform="scale(1 1) rotate(0) translate(4 373)">
<title>src/analysis/physics</title>
<polygon fill="white" stroke="white" points="-4,5 -4,-373 820.195,-373 820.195,5 -4,5"/>
<g id="graph2" class="cluster"><title>clusterdir_2eec376824a17f48dc36b4bd0c810e01</title>
<a xlink:href="dir_2eec376824a17f48dc36b4bd0c810e01.html" target="_top" xlink:title="analysis">
<polygon fill="#ddddee" stroke="black" points="8,-272 8,-361 674,-361 674,-272 8,-272"/>
<text text-anchor="middle" x="341" y="-348" font-family="Helvetica,sans-Serif" font-size="10.00">analysis</text>
</a>
</g>
<g id="graph3" class="cluster"><title>clusterdir_a21a804d6482c442bcd1b39e4dfcc179</title>
<a xlink:href="dir_a21a804d6482c442bcd1b39e4dfcc179.html" target="_top">
<polygon fill="#eeeeff" stroke="black" points="16,-280 16,-332 666,-332 666,-280 16,-280"/>
</a>
</g>
<!-- dir_a21a804d6482c442bcd1b39e4dfcc179 -->
<g id="node3" class="node"><title>dir_a21a804d6482c442bcd1b39e4dfcc179</title>
<text text-anchor="middle" x="631" y="-303.5" font-family="Helvetica,sans-Serif" font-size="10.00">physics</text>
</g>
<!-- dir_c44c95bf3b41c3321c6014770d618ac8 -->
<g id="node15" class="node"><title>dir_c44c95bf3b41c3321c6014770d618ac8</title>
<a xlink:href="dir_c44c95bf3b41c3321c6014770d618ac8.html" target="_top" xlink:title="tree">
<polygon fill="none" stroke="black" points="767,-108 713,-108 713,-72 767,-72 767,-108"/>
<text text-anchor="middle" x="740" y="-87.5" font-family="Helvetica,sans-Serif" font-size="10.00">tree</text>
</a>
</g>
<!-- dir_a21a804d6482c442bcd1b39e4dfcc179&#45;&gt;dir_c44c95bf3b41c3321c6014770d618ac8 -->
<g id="edge4" class="edge"><title>dir_a21a804d6482c442bcd1b39e4dfcc179&#45;&gt;dir_c44c95bf3b41c3321c6014770d618ac8</title>
<path fill="none" stroke="black" d="M646.525,-287.791C651.306,-282.514 656.709,-276.867 662,-272 672.73,-262.131 677.754,-262.371 688,-252 716.111,-223.544 729.351,-217.947 742,-180 748.652,-160.045 747.757,-136.197 745.411,-118.064"/>
<polygon fill="black" stroke="black" points="748.864,-117.486 743.909,-108.121 741.942,-118.532 748.864,-117.486"/>
<a xlink:href="dir_000012_000041.html" target="_top" xlink:title="5">
<text text-anchor="middle" x="752.208" y="-118.116" font-family="Helvetica,sans-Serif" font-size="10.00">5</text>
</a>
</g>
<!-- dir_4d4314fec0337faafb4fd99dc7917bfa -->
<g id="node18" class="node"><title>dir_4d4314fec0337faafb4fd99dc7917bfa</title>
<a xlink:href="dir_4d4314fec0337faafb4fd99dc7917bfa.html" target="_top" xlink:title="input">
<polygon fill="white" stroke="red" points="781,-324 727,-324 727,-288 781,-288 781,-324"/>
<text text-anchor="middle" x="754" y="-303.5" font-family="Helvetica,sans-Serif" font-size="10.00">input</text>
</a>
</g>
<!-- dir_a21a804d6482c442bcd1b39e4dfcc179&#45;&gt;dir_4d4314fec0337faafb4fd99dc7917bfa -->
<g id="edge6" class="edge"><title>dir_a21a804d6482c442bcd1b39e4dfcc179&#45;&gt;dir_4d4314fec0337faafb4fd99dc7917bfa</title>
<path fill="none" stroke="black" d="M658.387,-306C677.788,-306 697.189,-306 716.59,-306"/>
<polygon fill="black" stroke="black" points="716.735,-309.5 726.735,-306 716.735,-302.5 716.735,-309.5"/>
<a xlink:href="dir_000012_000004.html" target="_top" xlink:title="3">
<text text-anchor="middle" x="713.141" y="-309.839" font-family="Helvetica,sans-Serif" font-size="10.00">3</text>
</a>
</g>
<!-- dir_b41e020219f4b77363d5457b150817df -->
<g id="node4" class="node"><title>dir_b41e020219f4b77363d5457b150817df</title>
<a xlink:href="dir_b41e020219f4b77363d5457b150817df.html" target="_top" xlink:title="common">
<polygon fill="white" stroke="black" points="586,-324 532,-324 532,-288 586,-288 586,-324"/>
<text text-anchor="middle" x="559" y="-303.5" font-family="Helvetica,sans-Serif" font-size="10.00">common</text>
</a>
</g>
<!-- dir_86afe70f6685ce518ba6965fc87e41ba -->
<g id="node12" class="node"><title>dir_86afe70f6685ce518ba6965fc87e41ba</title>
<a xlink:href="dir_86afe70f6685ce518ba6965fc87e41ba.html" target="_top" xlink:title="data">
<polygon fill="none" stroke="black" points="412,-180 358,-180 358,-144 412,-144 412,-180"/>
<text text-anchor="middle" x="385" y="-159.5" font-family="Helvetica,sans-Serif" font-size="10.00">data</text>
</a>
</g>
<!-- dir_b41e020219f4b77363d5457b150817df&#45;&gt;dir_86afe70f6685ce518ba6965fc87e41ba -->
<g id="edge72" class="edge"><title>dir_b41e020219f4b77363d5457b150817df&#45;&gt;dir_86afe70f6685ce518ba6965fc87e41ba</title>
<path fill="none" stroke="black" d="M550.079,-287.69C539.658,-267.869 520.774,-236.369 497,-216 484.866,-205.604 449.31,-189.172 421.48,-177.163"/>
<polygon fill="black" stroke="black" points="422.58,-173.827 412.009,-173.117 419.83,-180.264 422.58,-173.827"/>
<a xlink:href="dir_000013_000003.html" target="_top" xlink:title="4">
<text text-anchor="middle" x="427.001" y="-170.129" font-family="Helvetica,sans-Serif" font-size="10.00">4</text>
</a>
</g>
<!-- dir_0a0aa297e888439a92fbcfd5e567f128 -->
<g id="node13" class="node"><title>dir_0a0aa297e888439a92fbcfd5e567f128</title>
<a xlink:href="dir_0a0aa297e888439a92fbcfd5e567f128.html" target="_top" xlink:title="utils">
<polygon fill="none" stroke="black" points="467,-252 413,-252 413,-216 467,-216 467,-252"/>
<text text-anchor="middle" x="440" y="-231.5" font-family="Helvetica,sans-Serif" font-size="10.00">utils</text>
</a>
</g>
<!-- dir_b41e020219f4b77363d5457b150817df&#45;&gt;dir_0a0aa297e888439a92fbcfd5e567f128 -->
<g id="edge74" class="edge"><title>dir_b41e020219f4b77363d5457b150817df&#45;&gt;dir_0a0aa297e888439a92fbcfd5e567f128</title>
<path fill="none" stroke="black" d="M542.047,-287.812C536.335,-282.301 529.701,-276.517 523,-272 508.77,-262.409 491.729,-254.132 476.8,-247.775"/>
<polygon fill="black" stroke="black" points="477.925,-244.453 467.346,-243.88 475.258,-250.925 477.925,-244.453"/>
<a xlink:href="dir_000013_000022.html" target="_top" xlink:title="3">
<text text-anchor="middle" x="482.33" y="-240.697" font-family="Helvetica,sans-Serif" font-size="10.00">3</text>
</a>
</g>
<!-- dir_0af1587c8378955de40f48b4bd1869f0 -->
<g id="node14" class="node"><title>dir_0af1587c8378955de40f48b4bd1869f0</title>
<a xlink:href="dir_0af1587c8378955de40f48b4bd1869f0.html" target="_top" xlink:title="base">
<polygon fill="white" stroke="red" points="443,-36 389,-36 389,-1.77636e-14 443,-3.55271e-15 443,-36"/>
<text text-anchor="middle" x="416" y="-15.5" font-family="Helvetica,sans-Serif" font-size="10.00">base</text>
</a>
</g>
<!-- dir_b41e020219f4b77363d5457b150817df&#45;&gt;dir_0af1587c8378955de40f48b4bd1869f0 -->
<g id="edge76" class="edge"><title>dir_b41e020219f4b77363d5457b150817df&#45;&gt;dir_0af1587c8378955de40f48b4bd1869f0</title>
<path fill="none" stroke="black" d="M558.33,-287.768C555.951,-245.827 545.136,-140.824 496,-72 484.849,-56.3815 467.665,-43.9301 452.077,-34.938"/>
<polygon fill="black" stroke="black" points="453.593,-31.778 443.141,-30.0454 450.232,-37.9179 453.593,-31.778"/>
<a xlink:href="dir_000013_000023.html" target="_top" xlink:title="12">
<text text-anchor="middle" x="458.11" y="-28.5138" font-family="Helvetica,sans-Serif" font-size="10.00">12</text>
</a>
</g>
<!-- dir_c4f4646ab0f4a2967be5b6215a500c22 -->
<g id="node16" class="node"><title>dir_c4f4646ab0f4a2967be5b6215a500c22</title>
<a xlink:href="dir_c4f4646ab0f4a2967be5b6215a500c22.html" target="_top" xlink:title="expconfig">
<polygon fill="white" stroke="red" points="733,-180 675,-180 675,-144 733,-144 733,-180"/>
<text text-anchor="middle" x="704" y="-159.5" font-family="Helvetica,sans-Serif" font-size="10.00">expconfig</text>
</a>
</g>
<!-- dir_b41e020219f4b77363d5457b150817df&#45;&gt;dir_c4f4646ab0f4a2967be5b6215a500c22 -->
<g id="edge78" class="edge"><title>dir_b41e020219f4b77363d5457b150817df&#45;&gt;dir_c4f4646ab0f4a2967be5b6215a500c22</title>
<path fill="none" stroke="black" d="M574.884,-287.963C580.728,-282.2 587.712,-276.227 595,-272 621.514,-256.623 637.749,-271.971 661,-252 679.681,-235.954 690.877,-209.962 697.138,-190.026"/>
<polygon fill="black" stroke="black" points="700.553,-190.817 699.977,-180.238 693.83,-188.867 700.553,-190.817"/>
<a xlink:href="dir_000013_000031.html" target="_top" xlink:title="2">
<text text-anchor="middle" x="702.279" y="-192.56" font-family="Helvetica,sans-Serif" font-size="10.00">2</text>
</a>
</g>
<!-- dir_8f68c37b22d514b4289e3a1255795d80 -->
<g id="node17" class="node"><title>dir_8f68c37b22d514b4289e3a1255795d80</title>
<a xlink:href="dir_8f68c37b22d514b4289e3a1255795d80.html" target="_top" xlink:title="plot">
<polygon fill="none" stroke="black" points="243,-252 189,-252 189,-216 243,-216 243,-252"/>
<text text-anchor="middle" x="216" y="-231.5" font-family="Helvetica,sans-Serif" font-size="10.00">plot</text>
</a>
</g>
<!-- dir_b41e020219f4b77363d5457b150817df&#45;&gt;dir_8f68c37b22d514b4289e3a1255795d80 -->
<g id="edge80" class="edge"><title>dir_b41e020219f4b77363d5457b150817df&#45;&gt;dir_8f68c37b22d514b4289e3a1255795d80</title>
<path fill="none" stroke="black" d="M544.204,-287.946C538.26,-281.891 530.934,-275.735 523,-272 499.042,-260.721 329.787,-244.267 253.33,-237.306"/>
<polygon fill="black" stroke="black" points="253.456,-233.803 243.182,-236.388 252.826,-240.775 253.456,-233.803"/>
<a xlink:href="dir_000013_000021.html" target="_top" xlink:title="5">
<text text-anchor="middle" x="257.292" y="-228.799" font-family="Helvetica,sans-Serif" font-size="10.00">5</text>
</a>
</g>
<!-- dir_aa4412e8ff7d066c54b5e32d9607e3e6 -->
<g id="node5" class="node"><title>dir_aa4412e8ff7d066c54b5e32d9607e3e6</title>
<a xlink:href="dir_aa4412e8ff7d066c54b5e32d9607e3e6.html" target="_top" xlink:title="DeltaPlus">
<polygon fill="white" stroke="black" points="82,-324 24,-324 24,-288 82,-288 82,-324"/>
<text text-anchor="middle" x="53" y="-303.5" font-family="Helvetica,sans-Serif" font-size="10.00">DeltaPlus</text>
</a>
</g>
<!-- dir_aa4412e8ff7d066c54b5e32d9607e3e6&#45;&gt;dir_86afe70f6685ce518ba6965fc87e41ba -->
<g id="edge66" class="edge"><title>dir_aa4412e8ff7d066c54b5e32d9607e3e6&#45;&gt;dir_86afe70f6685ce518ba6965fc87e41ba</title>
<path fill="none" stroke="black" d="M65.4755,-287.721C80.6216,-267.005 108.13,-233.812 140,-216 175.329,-196.255 288.478,-176.72 347.843,-167.495"/>
<polygon fill="black" stroke="black" points="348.573,-170.924 357.926,-165.947 347.51,-164.005 348.573,-170.924"/>
<a xlink:href="dir_000014_000003.html" target="_top" xlink:title="4">
<text text-anchor="middle" x="345.45" y="-171.776" font-family="Helvetica,sans-Serif" font-size="10.00">4</text>
</a>
</g>
<!-- dir_aa4412e8ff7d066c54b5e32d9607e3e6&#45;&gt;dir_0af1587c8378955de40f48b4bd1869f0 -->
<g id="edge68" class="edge"><title>dir_aa4412e8ff7d066c54b5e32d9607e3e6&#45;&gt;dir_0af1587c8378955de40f48b4bd1869f0</title>
<path fill="none" stroke="black" d="M55.0205,-287.688C60.9561,-243.192 82.5491,-128.873 152,-72 186.286,-43.9232 314.412,-27.8284 378.707,-21.3581"/>
<polygon fill="black" stroke="black" points="379.213,-24.8253 388.824,-20.3665 378.531,-17.8587 379.213,-24.8253"/>
<a xlink:href="dir_000014_000023.html" target="_top" xlink:title="5">
<text text-anchor="middle" x="375.913" y="-25.5015" font-family="Helvetica,sans-Serif" font-size="10.00">5</text>
</a>
</g>
<!-- dir_aa4412e8ff7d066c54b5e32d9607e3e6&#45;&gt;dir_8f68c37b22d514b4289e3a1255795d80 -->
<g id="edge70" class="edge"><title>dir_aa4412e8ff7d066c54b5e32d9607e3e6&#45;&gt;dir_8f68c37b22d514b4289e3a1255795d80</title>
<path fill="none" stroke="black" d="M69.9172,-287.994C76.0985,-282.234 83.4392,-276.254 91,-272 118.451,-256.554 152.902,-246.684 178.681,-240.886"/>
<polygon fill="black" stroke="black" points="179.757,-244.234 188.801,-238.717 178.29,-237.39 179.757,-244.234"/>
<a xlink:href="dir_000014_000021.html" target="_top" xlink:title="5">
<text text-anchor="middle" x="176.837" y="-245.264" font-family="Helvetica,sans-Serif" font-size="10.00">5</text>
</a>
</g>
<!-- dir_d0c81f0be4ede6821f28dcbf18b5df0f -->
<g id="node6" class="node"><title>dir_d0c81f0be4ede6821f28dcbf18b5df0f</title>
<a xlink:href="dir_d0c81f0be4ede6821f28dcbf18b5df0f.html" target="_top" xlink:title="etaprime">
<polygon fill="white" stroke="black" points="154,-324 100,-324 100,-288 154,-288 154,-324"/>
<text text-anchor="middle" x="127" y="-303.5" font-family="Helvetica,sans-Serif" font-size="10.00">etaprime</text>
</a>
</g>
<!-- dir_d0c81f0be4ede6821f28dcbf18b5df0f&#45;&gt;dir_86afe70f6685ce518ba6965fc87e41ba -->
<g id="edge90" class="edge"><title>dir_d0c81f0be4ede6821f28dcbf18b5df0f&#45;&gt;dir_86afe70f6685ce518ba6965fc87e41ba</title>
<path fill="none" stroke="black" d="M130.554,-287.94C135.547,-267.43 146.651,-234.429 169,-216 196.106,-193.648 293.631,-175.811 347.899,-167.348"/>
<polygon fill="black" stroke="black" points="348.466,-170.802 357.822,-165.83 347.408,-163.883 348.466,-170.802"/>
<a xlink:href="dir_000015_000003.html" target="_top" xlink:title="2">
<text text-anchor="middle" x="345.342" y="-171.652" font-family="Helvetica,sans-Serif" font-size="10.00">2</text>
</a>
</g>
<!-- dir_d0c81f0be4ede6821f28dcbf18b5df0f&#45;&gt;dir_0a0aa297e888439a92fbcfd5e567f128 -->
<g id="edge92" class="edge"><title>dir_d0c81f0be4ede6821f28dcbf18b5df0f&#45;&gt;dir_0a0aa297e888439a92fbcfd5e567f128</title>
<path fill="none" stroke="black" d="M142.174,-287.647C148.057,-281.713 155.246,-275.713 163,-272 184.186,-261.855 331.694,-245.327 402.387,-237.868"/>
<polygon fill="black" stroke="black" points="403.059,-241.317 412.639,-236.793 402.329,-234.355 403.059,-241.317"/>
<a xlink:href="dir_000015_000022.html" target="_top" xlink:title="6">
<text text-anchor="middle" x="399.78" y="-242.016" font-family="Helvetica,sans-Serif" font-size="10.00">6</text>
</a>
</g>
<!-- dir_d0c81f0be4ede6821f28dcbf18b5df0f&#45;&gt;dir_0af1587c8378955de40f48b4bd1869f0 -->
<g id="edge94" class="edge"><title>dir_d0c81f0be4ede6821f28dcbf18b5df0f&#45;&gt;dir_0af1587c8378955de40f48b4bd1869f0</title>
<path fill="none" stroke="black" d="M125.123,-287.874C121.623,-243.293 119.552,-127.878 184,-72 212.826,-47.0067 320.623,-29.9889 378.577,-22.4337"/>
<polygon fill="black" stroke="black" points="379.31,-25.8687 388.788,-21.1333 378.425,-18.9248 379.31,-25.8687"/>
<a xlink:href="dir_000015_000023.html" target="_top" xlink:title="6">
<text text-anchor="middle" x="376.103" y="-26.6393" font-family="Helvetica,sans-Serif" font-size="10.00">6</text>
</a>
</g>
<!-- dir_d0c81f0be4ede6821f28dcbf18b5df0f&#45;&gt;dir_8f68c37b22d514b4289e3a1255795d80 -->
<g id="edge96" class="edge"><title>dir_d0c81f0be4ede6821f28dcbf18b5df0f&#45;&gt;dir_8f68c37b22d514b4289e3a1255795d80</title>
<path fill="none" stroke="black" d="M145.249,-287.86C150.808,-282.585 157.03,-276.922 163,-272 168.706,-267.296 174.95,-262.519 181.086,-258.012"/>
<polygon fill="black" stroke="black" points="183.265,-260.756 189.327,-252.067 179.169,-255.08 183.265,-260.756"/>
<a xlink:href="dir_000015_000021.html" target="_top" xlink:title="4">
<text text-anchor="middle" x="182.012" y="-262.662" font-family="Helvetica,sans-Serif" font-size="10.00">4</text>
</a>
</g>
<!-- dir_04cc45a024de8890cf589dc336108ee4 -->
<g id="node7" class="node"><title>dir_04cc45a024de8890cf589dc336108ee4</title>
<a xlink:href="dir_04cc45a024de8890cf589dc336108ee4.html" target="_top" xlink:title="misc">
<polygon fill="white" stroke="black" points="226,-324 172,-324 172,-288 226,-288 226,-324"/>
<text text-anchor="middle" x="199" y="-303.5" font-family="Helvetica,sans-Serif" font-size="10.00">misc</text>
</a>
</g>
<!-- dir_04cc45a024de8890cf589dc336108ee4&#45;&gt;dir_86afe70f6685ce518ba6965fc87e41ba -->
<g id="edge42" class="edge"><title>dir_04cc45a024de8890cf589dc336108ee4&#45;&gt;dir_86afe70f6685ce518ba6965fc87e41ba</title>
<path fill="none" stroke="black" d="M187.407,-287.88C176.458,-268.225 163.915,-236.87 180,-216 200.325,-189.627 294.327,-173.559 347.704,-166.403"/>
<polygon fill="black" stroke="black" points="348.339,-169.85 357.804,-165.09 347.436,-162.909 348.339,-169.85"/>
<a xlink:href="dir_000016_000003.html" target="_top" xlink:title="6">
<text text-anchor="middle" x="345.14" y="-170.629" font-family="Helvetica,sans-Serif" font-size="10.00">6</text>
</a>
</g>
<!-- dir_04cc45a024de8890cf589dc336108ee4&#45;&gt;dir_0a0aa297e888439a92fbcfd5e567f128 -->
<g id="edge44" class="edge"><title>dir_04cc45a024de8890cf589dc336108ee4&#45;&gt;dir_0a0aa297e888439a92fbcfd5e567f128</title>
<path fill="none" stroke="black" d="M214.274,-287.849C220.166,-281.934 227.336,-275.894 235,-272 263.757,-257.39 351.83,-244.705 402.693,-238.346"/>
<polygon fill="black" stroke="black" points="403.145,-241.817 412.644,-237.123 402.291,-234.869 403.145,-241.817"/>
<a xlink:href="dir_000016_000022.html" target="_top" xlink:title="6">
<text text-anchor="middle" x="399.924" y="-242.573" font-family="Helvetica,sans-Serif" font-size="10.00">6</text>
</a>
</g>
<!-- dir_04cc45a024de8890cf589dc336108ee4&#45;&gt;dir_0af1587c8378955de40f48b4bd1869f0 -->
<g id="edge46" class="edge"><title>dir_04cc45a024de8890cf589dc336108ee4&#45;&gt;dir_0af1587c8378955de40f48b4bd1869f0</title>
<path fill="none" stroke="black" d="M185.644,-287.514C179.249,-277.523 172.282,-264.666 169,-252 148.081,-171.27 157.942,-125.399 222,-72 245.755,-52.198 329.329,-33.9756 378.698,-24.6068"/>
<polygon fill="black" stroke="black" points="379.491,-28.0193 388.68,-22.7446 378.207,-21.138 379.491,-28.0193"/>
<a xlink:href="dir_000016_000023.html" target="_top" xlink:title="2">
<text text-anchor="middle" x="376.478" y="-28.9696" font-family="Helvetica,sans-Serif" font-size="10.00">2</text>
</a>
</g>
<!-- dir_04cc45a024de8890cf589dc336108ee4&#45;&gt;dir_8f68c37b22d514b4289e3a1255795d80 -->
<g id="edge48" class="edge"><title>dir_04cc45a024de8890cf589dc336108ee4&#45;&gt;dir_8f68c37b22d514b4289e3a1255795d80</title>
<path fill="none" stroke="black" d="M203.29,-287.831C205.108,-280.131 207.27,-270.974 209.291,-262.417"/>
<polygon fill="black" stroke="black" points="212.761,-262.95 211.652,-252.413 205.948,-261.341 212.761,-262.95"/>
<a xlink:href="dir_000016_000021.html" target="_top" xlink:title="10">
<text text-anchor="middle" x="214.698" y="-264.601" font-family="Helvetica,sans-Serif" font-size="10.00">10</text>
</a>
</g>
<!-- dir_f60af29919b24042904573a5ae25dc4a -->
<g id="node8" class="node"><title>dir_f60af29919b24042904573a5ae25dc4a</title>
<a xlink:href="dir_f60af29919b24042904573a5ae25dc4a.html" target="_top" xlink:title="omega">
<polygon fill="white" stroke="black" points="298,-324 244,-324 244,-288 298,-288 298,-324"/>
<text text-anchor="middle" x="271" y="-303.5" font-family="Helvetica,sans-Serif" font-size="10.00">omega</text>
</a>
</g>
<!-- dir_f60af29919b24042904573a5ae25dc4a&#45;&gt;dir_86afe70f6685ce518ba6965fc87e41ba -->
<g id="edge32" class="edge"><title>dir_f60af29919b24042904573a5ae25dc4a&#45;&gt;dir_86afe70f6685ce518ba6965fc87e41ba</title>
<path fill="none" stroke="black" d="M285.438,-287.762C305.396,-262.552 341.529,-216.91 364.341,-188.095"/>
<polygon fill="black" stroke="black" points="367.216,-190.103 370.679,-180.09 361.728,-185.758 367.216,-190.103"/>
<a xlink:href="dir_000017_000003.html" target="_top" xlink:title="6">
<text text-anchor="middle" x="367.211" y="-192.183" font-family="Helvetica,sans-Serif" font-size="10.00">6</text>
</a>
</g>
<!-- dir_f60af29919b24042904573a5ae25dc4a&#45;&gt;dir_0a0aa297e888439a92fbcfd5e567f128 -->
<g id="edge34" class="edge"><title>dir_f60af29919b24042904573a5ae25dc4a&#45;&gt;dir_0a0aa297e888439a92fbcfd5e567f128</title>
<path fill="none" stroke="black" d="M286.846,-287.896C292.687,-282.128 299.679,-276.168 307,-272 336.885,-254.985 374.954,-245.115 402.699,-239.721"/>
<polygon fill="black" stroke="black" points="403.585,-243.117 412.788,-237.867 402.32,-236.232 403.585,-243.117"/>
<a xlink:href="dir_000017_000022.html" target="_top" xlink:title="9">
<text text-anchor="middle" x="400.563" y="-244.059" font-family="Helvetica,sans-Serif" font-size="10.00">9</text>
</a>
</g>
<!-- dir_f60af29919b24042904573a5ae25dc4a&#45;&gt;dir_0af1587c8378955de40f48b4bd1869f0 -->
<g id="edge36" class="edge"><title>dir_f60af29919b24042904573a5ae25dc4a&#45;&gt;dir_0af1587c8378955de40f48b4bd1869f0</title>
<path fill="none" stroke="black" d="M254.622,-287.836C248.842,-282.198 242.024,-276.333 235,-272 212.864,-258.343 194.922,-273.304 180,-252 170.821,-238.895 175.864,-231.456 180,-216 199.093,-144.64 206.198,-119.226 263,-72 296.566,-44.0926 345.56,-30.1845 379.003,-23.5533"/>
<polygon fill="black" stroke="black" points="379.658,-26.9917 388.849,-21.7216 378.377,-20.1098 379.658,-26.9917"/>
<a xlink:href="dir_000017_000023.html" target="_top" xlink:title="7">
<text text-anchor="middle" x="376.643" y="-27.9405" font-family="Helvetica,sans-Serif" font-size="10.00">7</text>
</a>
</g>
<!-- dir_f60af29919b24042904573a5ae25dc4a&#45;&gt;dir_8f68c37b22d514b4289e3a1255795d80 -->
<g id="edge38" class="edge"><title>dir_f60af29919b24042904573a5ae25dc4a&#45;&gt;dir_8f68c37b22d514b4289e3a1255795d80</title>
<path fill="none" stroke="black" d="M257.121,-287.831C250.786,-279.539 243.162,-269.557 236.207,-260.453"/>
<polygon fill="black" stroke="black" points="238.917,-258.235 230.066,-252.413 233.355,-262.485 238.917,-258.235"/>
<a xlink:href="dir_000017_000021.html" target="_top" xlink:title="11">
<text text-anchor="middle" x="243.356" y="-256.868" font-family="Helvetica,sans-Serif" font-size="10.00">11</text>
</a>
</g>
<!-- dir_5c11a4f25a9b21b2fb0c201db60c6fab -->
<g id="node9" class="node"><title>dir_5c11a4f25a9b21b2fb0c201db60c6fab</title>
<a xlink:href="dir_5c11a4f25a9b21b2fb0c201db60c6fab.html" target="_top" xlink:title="test">
<polygon fill="white" stroke="black" points="370,-324 316,-324 316,-288 370,-288 370,-324"/>
<text text-anchor="middle" x="343" y="-303.5" font-family="Helvetica,sans-Serif" font-size="10.00">test</text>
</a>
</g>
<!-- dir_5c11a4f25a9b21b2fb0c201db60c6fab&#45;&gt;dir_86afe70f6685ce518ba6965fc87e41ba -->
<g id="edge8" class="edge"><title>dir_5c11a4f25a9b21b2fb0c201db60c6fab&#45;&gt;dir_86afe70f6685ce518ba6965fc87e41ba</title>
<path fill="none" stroke="black" d="M348.319,-287.762C355.515,-263.093 368.416,-218.86 376.841,-189.973"/>
<polygon fill="black" stroke="black" points="380.284,-190.67 379.724,-180.09 373.564,-188.71 380.284,-190.67"/>
<a xlink:href="dir_000018_000003.html" target="_top" xlink:title="4">
<text text-anchor="middle" x="382.003" y="-192.415" font-family="Helvetica,sans-Serif" font-size="10.00">4</text>
</a>
</g>
<!-- dir_5c11a4f25a9b21b2fb0c201db60c6fab&#45;&gt;dir_0a0aa297e888439a92fbcfd5e567f128 -->
<g id="edge10" class="edge"><title>dir_5c11a4f25a9b21b2fb0c201db60c6fab&#45;&gt;dir_0a0aa297e888439a92fbcfd5e567f128</title>
<path fill="none" stroke="black" d="M360.683,-287.964C366.326,-282.58 372.737,-276.83 379,-272 386.846,-265.949 395.694,-259.995 404.168,-254.66"/>
<polygon fill="black" stroke="black" points="406.121,-257.568 412.805,-249.348 402.454,-251.606 406.121,-257.568"/>
<a xlink:href="dir_000018_000022.html" target="_top" xlink:title="2">
<text text-anchor="middle" x="404.547" y="-259.37" font-family="Helvetica,sans-Serif" font-size="10.00">2</text>
</a>
</g>
<!-- dir_5c11a4f25a9b21b2fb0c201db60c6fab&#45;&gt;dir_0af1587c8378955de40f48b4bd1869f0 -->
<g id="edge12" class="edge"><title>dir_5c11a4f25a9b21b2fb0c201db60c6fab&#45;&gt;dir_0af1587c8378955de40f48b4bd1869f0</title>
<path fill="none" stroke="black" d="M341.049,-287.625C338.394,-257.163 335.397,-194.55 349,-144 358.919,-107.138 381.169,-69.0052 397.313,-44.4845"/>
<polygon fill="black" stroke="black" points="400.279,-46.3463 402.95,-36.0939 394.468,-42.4425 400.279,-46.3463"/>
<a xlink:href="dir_000018_000023.html" target="_top" xlink:title="1">
<text text-anchor="middle" x="400.631" y="-48.4135" font-family="Helvetica,sans-Serif" font-size="10.00">1</text>
</a>
</g>
<!-- dir_5c11a4f25a9b21b2fb0c201db60c6fab&#45;&gt;dir_8f68c37b22d514b4289e3a1255795d80 -->
<g id="edge14" class="edge"><title>dir_5c11a4f25a9b21b2fb0c201db60c6fab&#45;&gt;dir_8f68c37b22d514b4289e3a1255795d80</title>
<path fill="none" stroke="black" d="M326.137,-287.675C320.43,-282.157 313.776,-276.403 307,-272 290.319,-261.161 270.033,-252.333 252.851,-245.923"/>
<polygon fill="black" stroke="black" points="253.739,-242.523 243.145,-242.432 251.37,-249.11 253.739,-242.523"/>
<a xlink:href="dir_000018_000021.html" target="_top" xlink:title="6">
<text text-anchor="middle" x="258.082" y="-238.568" font-family="Helvetica,sans-Serif" font-size="10.00">6</text>
</a>
</g>
<!-- dir_617eb4193b53c338b2aeda01a5aa62b1 -->
<g id="node10" class="node"><title>dir_617eb4193b53c338b2aeda01a5aa62b1</title>
<a xlink:href="dir_617eb4193b53c338b2aeda01a5aa62b1.html" target="_top" xlink:title="tpc">
<polygon fill="white" stroke="black" points="442,-324 388,-324 388,-288 442,-288 442,-324"/>
<text text-anchor="middle" x="415" y="-303.5" font-family="Helvetica,sans-Serif" font-size="10.00">tpc</text>
</a>
</g>
<!-- dir_617eb4193b53c338b2aeda01a5aa62b1&#45;&gt;dir_86afe70f6685ce518ba6965fc87e41ba -->
<g id="edge50" class="edge"><title>dir_617eb4193b53c338b2aeda01a5aa62b1&#45;&gt;dir_86afe70f6685ce518ba6965fc87e41ba</title>
<path fill="none" stroke="black" d="M411.2,-287.762C406.061,-263.093 396.846,-218.86 390.828,-189.973"/>
<polygon fill="black" stroke="black" points="394.235,-189.166 388.769,-180.09 387.382,-190.593 394.235,-189.166"/>
<a xlink:href="dir_000019_000003.html" target="_top" xlink:title="1">
<text text-anchor="middle" x="397.747" y="-189.606" font-family="Helvetica,sans-Serif" font-size="10.00">1</text>
</a>
</g>
<!-- dir_617eb4193b53c338b2aeda01a5aa62b1&#45;&gt;dir_0a0aa297e888439a92fbcfd5e567f128 -->
<g id="edge52" class="edge"><title>dir_617eb4193b53c338b2aeda01a5aa62b1&#45;&gt;dir_0a0aa297e888439a92fbcfd5e567f128</title>
<path fill="none" stroke="black" d="M421.309,-287.831C424.012,-280.046 427.232,-270.773 430.231,-262.135"/>
<polygon fill="black" stroke="black" points="433.633,-263.008 433.607,-252.413 427.02,-260.712 433.633,-263.008"/>
<a xlink:href="dir_000019_000022.html" target="_top" xlink:title="1">
<text text-anchor="middle" x="435.136" y="-264.835" font-family="Helvetica,sans-Serif" font-size="10.00">1</text>
</a>
</g>
<!-- dir_617eb4193b53c338b2aeda01a5aa62b1&#45;&gt;dir_0af1587c8378955de40f48b4bd1869f0 -->
<g id="edge54" class="edge"><title>dir_617eb4193b53c338b2aeda01a5aa62b1&#45;&gt;dir_0af1587c8378955de40f48b4bd1869f0</title>
<path fill="none" stroke="black" d="M433.787,-287.705C439.254,-282.533 445.291,-276.964 451,-272 461.737,-262.663 469.836,-264.825 476,-252 509.908,-181.45 462.481,-89.3907 434.293,-44.6861"/>
<polygon fill="black" stroke="black" points="437.141,-42.6436 428.774,-36.1434 431.261,-46.4422 437.141,-42.6436"/>
<a xlink:href="dir_000019_000023.html" target="_top" xlink:title="1">
<text text-anchor="middle" x="441.476" y="-41.6222" font-family="Helvetica,sans-Serif" font-size="10.00">1</text>
</a>
</g>
<!-- dir_617eb4193b53c338b2aeda01a5aa62b1&#45;&gt;dir_8f68c37b22d514b4289e3a1255795d80 -->
<g id="edge56" class="edge"><title>dir_617eb4193b53c338b2aeda01a5aa62b1&#45;&gt;dir_8f68c37b22d514b4289e3a1255795d80</title>
<path fill="none" stroke="black" d="M399.269,-287.689C393.437,-281.904 386.422,-275.987 379,-272 339.215,-250.629 287.658,-241.201 253.287,-237.091"/>
<polygon fill="black" stroke="black" points="253.528,-233.597 243.204,-235.979 252.76,-240.555 253.528,-233.597"/>
<a xlink:href="dir_000019_000021.html" target="_top" xlink:title="1">
<text text-anchor="middle" x="257.412" y="-228.669" font-family="Helvetica,sans-Serif" font-size="10.00">1</text>
</a>
</g>
<!-- dir_e3b7f3035f13adb42850fd1e51155dca -->
<g id="node11" class="node"><title>dir_e3b7f3035f13adb42850fd1e51155dca</title>
<a xlink:href="dir_e3b7f3035f13adb42850fd1e51155dca.html" target="_top" xlink:title="wolfes">
<polygon fill="white" stroke="black" points="514,-324 460,-324 460,-288 514,-288 514,-324"/>
<text text-anchor="middle" x="487" y="-303.5" font-family="Helvetica,sans-Serif" font-size="10.00">wolfes</text>
</a>
</g>
<!-- dir_e3b7f3035f13adb42850fd1e51155dca&#45;&gt;dir_86afe70f6685ce518ba6965fc87e41ba -->
<g id="edge24" class="edge"><title>dir_e3b7f3035f13adb42850fd1e51155dca&#45;&gt;dir_86afe70f6685ce518ba6965fc87e41ba</title>
<path fill="none" stroke="black" d="M489.227,-287.859C490.659,-268.473 490.114,-237.616 476,-216 463.37,-196.656 441.19,-183.286 421.89,-174.689"/>
<polygon fill="black" stroke="black" points="422.99,-171.356 412.414,-170.734 420.294,-177.816 422.99,-171.356"/>
<a xlink:href="dir_000020_000003.html" target="_top" xlink:title="1">
<text text-anchor="middle" x="427.401" y="-167.62" font-family="Helvetica,sans-Serif" font-size="10.00">1</text>
</a>
</g>
<!-- dir_e3b7f3035f13adb42850fd1e51155dca&#45;&gt;dir_0a0aa297e888439a92fbcfd5e567f128 -->
<g id="edge26" class="edge"><title>dir_e3b7f3035f13adb42850fd1e51155dca&#45;&gt;dir_0a0aa297e888439a92fbcfd5e567f128</title>
<path fill="none" stroke="black" d="M475.14,-287.831C469.837,-279.708 463.476,-269.964 457.633,-261.012"/>
<polygon fill="black" stroke="black" points="460.417,-258.874 452.02,-252.413 454.555,-262.7 460.417,-258.874"/>
<a xlink:href="dir_000020_000022.html" target="_top" xlink:title="1">
<text text-anchor="middle" x="464.759" y="-257.832" font-family="Helvetica,sans-Serif" font-size="10.00">1</text>
</a>
</g>
<!-- dir_e3b7f3035f13adb42850fd1e51155dca&#45;&gt;dir_0af1587c8378955de40f48b4bd1869f0 -->
<g id="edge28" class="edge"><title>dir_e3b7f3035f13adb42850fd1e51155dca&#45;&gt;dir_0af1587c8378955de40f48b4bd1869f0</title>
<path fill="none" stroke="black" d="M491.203,-287.616C493.378,-277.223 495.819,-263.955 497,-252 501.721,-204.231 505.984,-191.333 498,-144 492.366,-110.598 491.374,-100.458 473,-72 466.126,-61.3532 456.727,-51.3176 447.544,-42.8535"/>
<polygon fill="black" stroke="black" points="449.752,-40.1338 439.941,-36.1342 445.117,-45.379 449.752,-40.1338"/>
<a xlink:href="dir_000020_000023.html" target="_top" xlink:title="1">
<text text-anchor="middle" x="454.326" y="-37.8867" font-family="Helvetica,sans-Serif" font-size="10.00">1</text>
</a>
</g>
<!-- dir_e3b7f3035f13adb42850fd1e51155dca&#45;&gt;dir_8f68c37b22d514b4289e3a1255795d80 -->
<g id="edge30" class="edge"><title>dir_e3b7f3035f13adb42850fd1e51155dca&#45;&gt;dir_8f68c37b22d514b4289e3a1255795d80</title>
<path fill="none" stroke="black" d="M471.775,-287.75C465.888,-281.826 458.709,-275.806 451,-272 416.898,-255.165 310.369,-242.896 253.178,-237.329"/>
<polygon fill="black" stroke="black" points="253.389,-233.833 243.102,-236.367 252.724,-240.801 253.389,-233.833"/>
<a xlink:href="dir_000020_000021.html" target="_top" xlink:title="1">
<text text-anchor="middle" x="257.237" y="-228.848" font-family="Helvetica,sans-Serif" font-size="10.00">1</text>
</a>
</g>
<!-- dir_86afe70f6685ce518ba6965fc87e41ba&#45;&gt;dir_0af1587c8378955de40f48b4bd1869f0 -->
<g id="edge16" class="edge"><title>dir_86afe70f6685ce518ba6965fc87e41ba&#45;&gt;dir_0af1587c8378955de40f48b4bd1869f0</title>
<path fill="none" stroke="black" d="M388.926,-143.762C394.237,-119.093 403.759,-74.8598 409.978,-45.9731"/>
<polygon fill="black" stroke="black" points="413.423,-46.6023 412.106,-36.0896 406.579,-45.129 413.423,-46.6023"/>
<a xlink:href="dir_000003_000023.html" target="_top" xlink:title="18">
<text text-anchor="middle" x="415.442" y="-48.2139" font-family="Helvetica,sans-Serif" font-size="10.00">18</text>
</a>
</g>
<!-- dir_86afe70f6685ce518ba6965fc87e41ba&#45;&gt;dir_c44c95bf3b41c3321c6014770d618ac8 -->
<g id="edge18" class="edge"><title>dir_86afe70f6685ce518ba6965fc87e41ba&#45;&gt;dir_c44c95bf3b41c3321c6014770d618ac8</title>
<path fill="none" stroke="black" d="M412.267,-156.47C475.249,-143.696 630.928,-112.122 702.683,-97.5684"/>
<polygon fill="black" stroke="black" points="703.536,-100.967 712.64,-95.549 702.144,-94.1066 703.536,-100.967"/>
<a xlink:href="dir_000003_000041.html" target="_top" xlink:title="2">
<text text-anchor="middle" x="700.577" y="-101.964" font-family="Helvetica,sans-Serif" font-size="10.00">2</text>
</a>
</g>
<!-- dir_0a0aa297e888439a92fbcfd5e567f128&#45;&gt;dir_86afe70f6685ce518ba6965fc87e41ba -->
<g id="edge20" class="edge"><title>dir_0a0aa297e888439a92fbcfd5e567f128&#45;&gt;dir_86afe70f6685ce518ba6965fc87e41ba</title>
<path fill="none" stroke="black" d="M426.121,-215.831C419.786,-207.539 412.162,-197.557 405.207,-188.453"/>
<polygon fill="black" stroke="black" points="407.917,-186.235 399.066,-180.413 402.355,-190.485 407.917,-186.235"/>
<a xlink:href="dir_000022_000003.html" target="_top" xlink:title="6">
<text text-anchor="middle" x="412.356" y="-184.868" font-family="Helvetica,sans-Serif" font-size="10.00">6</text>
</a>
</g>
<!-- dir_0a0aa297e888439a92fbcfd5e567f128&#45;&gt;dir_0af1587c8378955de40f48b4bd1869f0 -->
<g id="edge22" class="edge"><title>dir_0a0aa297e888439a92fbcfd5e567f128&#45;&gt;dir_0af1587c8378955de40f48b4bd1869f0</title>
<path fill="none" stroke="black" d="M437.995,-215.955C433.813,-178.314 424.132,-91.1867 419.125,-46.1246"/>
<polygon fill="black" stroke="black" points="422.599,-45.6974 418.016,-36.1451 415.642,-46.4704 422.599,-45.6974"/>
<a xlink:href="dir_000022_000023.html" target="_top" xlink:title="11">
<text text-anchor="middle" x="425.818" y="-46.4565" font-family="Helvetica,sans-Serif" font-size="10.00">11</text>
</a>
</g>
<!-- dir_c44c95bf3b41c3321c6014770d618ac8&#45;&gt;dir_0af1587c8378955de40f48b4bd1869f0 -->
<g id="edge40" class="edge"><title>dir_c44c95bf3b41c3321c6014770d618ac8&#45;&gt;dir_0af1587c8378955de40f48b4bd1869f0</title>
<path fill="none" stroke="black" d="M712.98,-77.1187C708.381,-75.2223 703.603,-73.4295 699,-72 613.018,-45.2973 508.037,-29.4485 453.283,-22.3917"/>
<polygon fill="black" stroke="black" points="453.382,-18.8765 443.022,-21.097 452.505,-25.8214 453.382,-18.8765"/>
<a xlink:href="dir_000041_000023.html" target="_top" xlink:title="15">
<text text-anchor="middle" x="457.304" y="-14.0095" font-family="Helvetica,sans-Serif" font-size="10.00">15</text>
</a>
</g>
<!-- dir_c4f4646ab0f4a2967be5b6215a500c22&#45;&gt;dir_0af1587c8378955de40f48b4bd1869f0 -->
<g id="edge58" class="edge"><title>dir_c4f4646ab0f4a2967be5b6215a500c22&#45;&gt;dir_0af1587c8378955de40f48b4bd1869f0</title>
<path fill="none" stroke="black" d="M700.327,-143.819C695.183,-123.196 683.785,-90.0889 661,-72 629.222,-46.7713 513.929,-29.6625 453.515,-22.2174"/>
<polygon fill="black" stroke="black" points="453.604,-18.7028 443.257,-20.9812 452.766,-25.6525 453.604,-18.7028"/>
<a xlink:href="dir_000031_000023.html" target="_top" xlink:title="20">
<text text-anchor="middle" x="457.512" y="-13.8139" font-family="Helvetica,sans-Serif" font-size="10.00">20</text>
</a>
</g>
<!-- dir_c4f4646ab0f4a2967be5b6215a500c22&#45;&gt;dir_c44c95bf3b41c3321c6014770d618ac8 -->
<g id="edge60" class="edge"><title>dir_c4f4646ab0f4a2967be5b6215a500c22&#45;&gt;dir_c44c95bf3b41c3321c6014770d618ac8</title>
<path fill="none" stroke="black" d="M713.084,-143.831C717.061,-135.877 721.815,-126.369 726.214,-117.572"/>
<polygon fill="black" stroke="black" points="729.452,-118.923 730.793,-108.413 723.191,-115.792 729.452,-118.923"/>
<a xlink:href="dir_000031_000041.html" target="_top" xlink:title="7">
<text text-anchor="middle" x="730.384" y="-120.908" font-family="Helvetica,sans-Serif" font-size="10.00">7</text>
</a>
</g>
<!-- dir_8f68c37b22d514b4289e3a1255795d80&#45;&gt;dir_86afe70f6685ce518ba6965fc87e41ba -->
<g id="edge62" class="edge"><title>dir_8f68c37b22d514b4289e3a1255795d80&#45;&gt;dir_86afe70f6685ce518ba6965fc87e41ba</title>
<path fill="none" stroke="black" d="M243.323,-221.939C247.885,-219.944 252.573,-217.906 257,-216 287.841,-202.725 322.992,-187.919 348.645,-177.173"/>
<polygon fill="black" stroke="black" points="350.109,-180.354 357.983,-173.265 347.407,-173.897 350.109,-180.354"/>
<a xlink:href="dir_000021_000003.html" target="_top" xlink:title="2">
<text text-anchor="middle" x="347.89" y="-181.861" font-family="Helvetica,sans-Serif" font-size="10.00">2</text>
</a>
</g>
<!-- dir_8f68c37b22d514b4289e3a1255795d80&#45;&gt;dir_0af1587c8378955de40f48b4bd1869f0 -->
<g id="edge64" class="edge"><title>dir_8f68c37b22d514b4289e3a1255795d80&#45;&gt;dir_0af1587c8378955de40f48b4bd1869f0</title>
<path fill="none" stroke="black" d="M220.451,-215.748C229.322,-182.906 252.14,-113.428 295,-72 318.363,-49.4174 352.781,-35.3155 378.943,-27.2106"/>
<polygon fill="black" stroke="black" points="380.27,-30.4689 388.879,-24.2943 378.298,-23.7522 380.27,-30.4689"/>
<a xlink:href="dir_000021_000023.html" target="_top" xlink:title="3">
<text text-anchor="middle" x="377.62" y="-31.7055" font-family="Helvetica,sans-Serif" font-size="10.00">3</text>
</a>
</g>
<!-- dir_4d4314fec0337faafb4fd99dc7917bfa&#45;&gt;dir_86afe70f6685ce518ba6965fc87e41ba -->
<g id="edge82" class="edge"><title>dir_4d4314fec0337faafb4fd99dc7917bfa&#45;&gt;dir_86afe70f6685ce518ba6965fc87e41ba</title>
<path fill="none" stroke="black" d="M726.794,-294.897C710.366,-288.215 689.002,-279.566 670,-272 606.587,-246.751 590.677,-240.575 527,-216 491.342,-202.238 450.552,-186.753 421.866,-175.906"/>
<polygon fill="black" stroke="black" points="422.844,-172.534 412.253,-172.273 420.37,-179.082 422.844,-172.534"/>
<a xlink:href="dir_000004_000003.html" target="_top" xlink:title="5">
<text text-anchor="middle" x="427.211" y="-168.649" font-family="Helvetica,sans-Serif" font-size="10.00">5</text>
</a>
</g>
<!-- dir_4d4314fec0337faafb4fd99dc7917bfa&#45;&gt;dir_0a0aa297e888439a92fbcfd5e567f128 -->
<g id="edge84" class="edge"><title>dir_4d4314fec0337faafb4fd99dc7917bfa&#45;&gt;dir_0a0aa297e888439a92fbcfd5e567f128</title>
<path fill="none" stroke="black" d="M726.917,-293.256C710.714,-286.085 689.537,-277.495 670,-272 603.494,-253.295 523.415,-242.639 477.436,-237.615"/>
<polygon fill="black" stroke="black" points="477.648,-234.118 467.335,-236.542 476.909,-241.079 477.648,-234.118"/>
<a xlink:href="dir_000004_000022.html" target="_top" xlink:title="2">
<text text-anchor="middle" x="481.523" y="-229.174" font-family="Helvetica,sans-Serif" font-size="10.00">2</text>
</a>
</g>
<!-- dir_4d4314fec0337faafb4fd99dc7917bfa&#45;&gt;dir_0af1587c8378955de40f48b4bd1869f0 -->
<g id="edge86" class="edge"><title>dir_4d4314fec0337faafb4fd99dc7917bfa&#45;&gt;dir_0af1587c8378955de40f48b4bd1869f0</title>
<path fill="none" stroke="black" d="M771.264,-287.576C779.239,-277.8 787.848,-265.115 792,-252 816.241,-175.43 834.738,-126.776 776,-72 752.571,-50.1516 540.427,-29.0378 453.198,-21.2005"/>
<polygon fill="black" stroke="black" points="453.471,-17.7111 443.2,-20.3114 452.851,-24.6836 453.471,-17.7111"/>
<a xlink:href="dir_000004_000023.html" target="_top" xlink:title="8">
<text text-anchor="middle" x="457.303" y="-12.7014" font-family="Helvetica,sans-Serif" font-size="10.00">8</text>
</a>
</g>
<!-- dir_4d4314fec0337faafb4fd99dc7917bfa&#45;&gt;dir_c44c95bf3b41c3321c6014770d618ac8 -->
<g id="edge88" class="edge"><title>dir_4d4314fec0337faafb4fd99dc7917bfa&#45;&gt;dir_c44c95bf3b41c3321c6014770d618ac8</title>
<path fill="none" stroke="black" d="M763.158,-287.513C767.701,-277.312 772.7,-264.259 775,-252 783.85,-204.823 788.612,-190.029 775,-144 772.131,-134.299 766.913,-124.705 761.367,-116.356"/>
<polygon fill="black" stroke="black" points="764.191,-114.288 755.552,-108.154 758.48,-118.336 764.191,-114.288"/>
<a xlink:href="dir_000004_000041.html" target="_top" xlink:title="13">
<text text-anchor="middle" x="768.586" y="-113.079" font-family="Helvetica,sans-Serif" font-size="10.00">13</text>
</a>
</g>
</g>
</svg>
