<?xml version="1.0" encoding="UTF-8" standalone="no"?>
<!DOCTYPE svg PUBLIC "-//W3C//DTD SVG 1.1//EN"
 "http://www.w3.org/Graphics/SVG/1.1/DTD/svg11.dtd">
<!-- Generated by graphviz version 2.26.3 (20100126.1600)
 -->
<!-- Title: src/analysis/physics/common Pages: 1 -->
<svg width="286pt" height="297pt"
 viewBox="0.00 0.00 286.00 297.00" xmlns="http://www.w3.org/2000/svg" xmlns:xlink="http://www.w3.org/1999/xlink">
<g id="graph1" class="graph" transform="scale(1 1) rotate(0) translate(4 293)">
<title>src/analysis/physics/common</title>
<polygon fill="white" stroke="white" points="-4,5 -4,-293 283,-293 283,5 -4,5"/>
<g id="graph2" class="cluster"><title>clusterdir_a21a804d6482c442bcd1b39e4dfcc179</title>
<a xlink:href="dir_a21a804d6482c442bcd1b39e4dfcc179.html" target="_top" xlink:title="physics">
<polygon fill="#ddddee" stroke="black" points="102,-208 102,-281 172,-281 172,-208 102,-208"/>
<text text-anchor="middle" x="137" y="-268" font-family="Helvetica,sans-Serif" font-size="10.00">physics</text>
</a>
</g>
<!-- dir_b41e020219f4b77363d5457b150817df -->
<g id="node2" class="node"><title>dir_b41e020219f4b77363d5457b150817df</title>
<a xlink:href="dir_b41e020219f4b77363d5457b150817df.html" target="_top" xlink:title="common">
<polygon fill="#eeeeff" stroke="black" points="164,-252 110,-252 110,-216 164,-216 164,-252"/>
<text text-anchor="middle" x="137" y="-231.5" font-family="Helvetica,sans-Serif" font-size="10.00">common</text>
</a>
</g>
<!-- dir_86afe70f6685ce518ba6965fc87e41ba -->
<g id="node3" class="node"><title>dir_86afe70f6685ce518ba6965fc87e41ba</title>
<a xlink:href="dir_86afe70f6685ce518ba6965fc87e41ba.html" target="_top" xlink:title="data">
<polygon fill="none" stroke="black" points="109,-108 55,-108 55,-72 109,-72 109,-108"/>
<text text-anchor="middle" x="82" y="-87.5" font-family="Helvetica,sans-Serif" font-size="10.00">data</text>
</a>
</g>
<!-- dir_b41e020219f4b77363d5457b150817df&#45;&gt;dir_86afe70f6685ce518ba6965fc87e41ba -->
<g id="edge15" class="edge"><title>dir_b41e020219f4b77363d5457b150817df&#45;&gt;dir_86afe70f6685ce518ba6965fc87e41ba</title>
<path fill="none" stroke="black" d="M122.115,-215.518C114.754,-205.53 106.328,-192.672 101,-180 92.6694,-160.188 87.8467,-136.332 85.1459,-118.16"/>
<polygon fill="black" stroke="black" points="88.6059,-117.629 83.7905,-108.192 81.6698,-118.572 88.6059,-117.629"/>
<a xlink:href="dir_000013_000003.html" target="_top" xlink:title="4">
<text text-anchor="middle" x="91.9035" y="-118.308" font-family="Helvetica,sans-Serif" font-size="10.00">4</text>
</a>
</g>
<!-- dir_0a0aa297e888439a92fbcfd5e567f128 -->
<g id="node4" class="node"><title>dir_0a0aa297e888439a92fbcfd5e567f128</title>
<a xlink:href="dir_0a0aa297e888439a92fbcfd5e567f128.html" target="_top" xlink:title="utils">
<polygon fill="none" stroke="black" points="54,-180 2.13163e-14,-180 0,-144 54,-144 54,-180"/>
<text text-anchor="middle" x="27" y="-159.5" font-family="Helvetica,sans-Serif" font-size="10.00">utils</text>
</a>
</g>
<!-- dir_b41e020219f4b77363d5457b150817df&#45;&gt;dir_0a0aa297e888439a92fbcfd5e567f128 -->
<g id="edge17" class="edge"><title>dir_b41e020219f4b77363d5457b150817df&#45;&gt;dir_0a0aa297e888439a92fbcfd5e567f128</title>
<path fill="none" stroke="black" d="M109.809,-216.202C95.6622,-206.943 78.1843,-195.502 62.937,-185.522"/>
<polygon fill="black" stroke="black" points="64.5433,-182.391 54.2594,-179.843 60.7097,-188.248 64.5433,-182.391"/>
<a xlink:href="dir_000013_000022.html" target="_top" xlink:title="3">
<text text-anchor="middle" x="69.1058" y="-179.484" font-family="Helvetica,sans-Serif" font-size="10.00">3</text>
</a>
</g>
<!-- dir_0af1587c8378955de40f48b4bd1869f0 -->
<g id="node5" class="node"><title>dir_0af1587c8378955de40f48b4bd1869f0</title>
<a xlink:href="dir_0af1587c8378955de40f48b4bd1869f0.html" target="_top" xlink:title="base">
<polygon fill="white" stroke="red" points="164,-36 110,-36 110,-1.77636e-14 164,-3.55271e-15 164,-36"/>
<text text-anchor="middle" x="137" y="-15.5" font-family="Helvetica,sans-Serif" font-size="10.00">base</text>
</a>
</g>
<!-- dir_b41e020219f4b77363d5457b150817df&#45;&gt;dir_0af1587c8378955de40f48b4bd1869f0 -->
<g id="edge19" class="edge"><title>dir_b41e020219f4b77363d5457b150817df&#45;&gt;dir_0af1587c8378955de40f48b4bd1869f0</title>
<path fill="none" stroke="black" d="M152.99,-215.917C160.654,-206.037 169.017,-193.156 173,-180 187.073,-133.519 167.006,-78.0131 151.656,-45.519"/>
<polygon fill="black" stroke="black" points="154.634,-43.6439 147.086,-36.2089 148.35,-46.7281 154.634,-43.6439"/>
<a xlink:href="dir_000013_000023.html" target="_top" xlink:title="12">
<text text-anchor="middle" x="158.767" y="-43.1199" font-family="Helvetica,sans-Serif" font-size="10.00">12</text>
</a>
</g>
<!-- dir_c4f4646ab0f4a2967be5b6215a500c22 -->
<g id="node6" class="node"><title>dir_c4f4646ab0f4a2967be5b6215a500c22</title>
<a xlink:href="dir_c4f4646ab0f4a2967be5b6215a500c22.html" target="_top" xlink:title="expconfig">
<polygon fill="white" stroke="red" points="278,-180 220,-180 220,-144 278,-144 278,-180"/>
<text text-anchor="middle" x="249" y="-159.5" font-family="Helvetica,sans-Serif" font-size="10.00">expconfig</text>
</a>
</g>
<!-- dir_b41e020219f4b77363d5457b150817df&#45;&gt;dir_c4f4646ab0f4a2967be5b6215a500c22 -->
<g id="edge21" class="edge"><title>dir_b41e020219f4b77363d5457b150817df&#45;&gt;dir_c4f4646ab0f4a2967be5b6215a500c22</title>
<path fill="none" stroke="black" d="M164.112,-216.571C178.642,-207.23 196.745,-195.592 212.497,-185.466"/>
<polygon fill="black" stroke="black" points="214.449,-188.372 220.968,-180.021 210.663,-182.484 214.449,-188.372"/>
<a xlink:href="dir_000013_000031.html" target="_top" xlink:title="2">
<text text-anchor="middle" x="212.96" y="-190.204" font-family="Helvetica,sans-Serif" font-size="10.00">2</text>
</a>
</g>
<!-- dir_8f68c37b22d514b4289e3a1255795d80 -->
<g id="node7" class="node"><title>dir_8f68c37b22d514b4289e3a1255795d80</title>
<a xlink:href="dir_8f68c37b22d514b4289e3a1255795d80.html" target="_top" xlink:title="plot">
<polygon fill="none" stroke="black" points="164,-180 110,-180 110,-144 164,-144 164,-180"/>
<text text-anchor="middle" x="137" y="-159.5" font-family="Helvetica,sans-Serif" font-size="10.00">plot</text>
</a>
</g>
<!-- dir_b41e020219f4b77363d5457b150817df&#45;&gt;dir_8f68c37b22d514b4289e3a1255795d80 -->
<g id="edge23" class="edge"><title>dir_b41e020219f4b77363d5457b150817df&#45;&gt;dir_8f68c37b22d514b4289e3a1255795d80</title>
<path fill="none" stroke="black" d="M137,-215.831C137,-208.131 137,-198.974 137,-190.417"/>
<polygon fill="black" stroke="black" points="140.5,-190.413 137,-180.413 133.5,-190.413 140.5,-190.413"/>
<a xlink:href="dir_000013_000021.html" target="_top" xlink:title="5">
<text text-anchor="middle" x="143.339" y="-191.508" font-family="Helvetica,sans-Serif" font-size="10.00">5</text>
</a>
</g>
<!-- dir_86afe70f6685ce518ba6965fc87e41ba&#45;&gt;dir_0af1587c8378955de40f48b4bd1869f0 -->
<g id="edge3" class="edge"><title>dir_86afe70f6685ce518ba6965fc87e41ba&#45;&gt;dir_0af1587c8378955de40f48b4bd1869f0</title>
<path fill="none" stroke="black" d="M95.8788,-71.8314C102.214,-63.5386 109.838,-53.557 116.793,-44.4533"/>
<polygon fill="black" stroke="black" points="119.645,-46.4847 122.934,-36.4133 114.083,-42.2353 119.645,-46.4847"/>
<a xlink:href="dir_000003_000023.html" target="_top" xlink:title="18">
<text text-anchor="middle" x="119.719" y="-48.5647" font-family="Helvetica,sans-Serif" font-size="10.00">18</text>
</a>
</g>
<!-- dir_0a0aa297e888439a92fbcfd5e567f128&#45;&gt;dir_86afe70f6685ce518ba6965fc87e41ba -->
<g id="edge5" class="edge"><title>dir_0a0aa297e888439a92fbcfd5e567f128&#45;&gt;dir_86afe70f6685ce518ba6965fc87e41ba</title>
<path fill="none" stroke="black" d="M40.8788,-143.831C47.2136,-135.539 54.8384,-125.557 61.7926,-116.453"/>
<polygon fill="black" stroke="black" points="64.6452,-118.485 67.9343,-108.413 59.0825,-114.235 64.6452,-118.485"/>
<a xlink:href="dir_000022_000003.html" target="_top" xlink:title="6">
<text text-anchor="middle" x="64.7195" y="-120.565" font-family="Helvetica,sans-Serif" font-size="10.00">6</text>
</a>
</g>
<!-- dir_0a0aa297e888439a92fbcfd5e567f128&#45;&gt;dir_0af1587c8378955de40f48b4bd1869f0 -->
<g id="edge7" class="edge"><title>dir_0a0aa297e888439a92fbcfd5e567f128&#45;&gt;dir_0af1587c8378955de40f48b4bd1869f0</title>
<path fill="none" stroke="black" d="M26.6883,-143.733C27.2398,-124.238 30.7477,-93.2902 46,-72 59.3625,-53.3477 81.3472,-40.042 100.36,-31.3058"/>
<polygon fill="black" stroke="black" points="101.902,-34.4522 109.686,-27.2653 99.119,-28.0291 101.902,-34.4522"/>
<a xlink:href="dir_000022_000023.html" target="_top" xlink:title="11">
<text text-anchor="middle" x="99.732" y="-35.9864" font-family="Helvetica,sans-Serif" font-size="10.00">11</text>
</a>
</g>
<!-- dir_c4f4646ab0f4a2967be5b6215a500c22&#45;&gt;dir_0af1587c8378955de40f48b4bd1869f0 -->
<g id="edge9" class="edge"><title>dir_c4f4646ab0f4a2967be5b6215a500c22&#45;&gt;dir_0af1587c8378955de40f48b4bd1869f0</title>
<path fill="none" stroke="black" d="M243.093,-143.713C236.268,-124.482 223.666,-94.0148 206,-72 196.577,-60.2574 184.126,-49.5228 172.398,-40.7722"/>
<polygon fill="black" stroke="black" points="174.202,-37.7585 164.038,-34.7649 170.117,-43.4429 174.202,-37.7585"/>
<a xlink:href="dir_000031_000023.html" target="_top" xlink:title="20">
<text text-anchor="middle" x="178.778" y="-35.0506" font-family="Helvetica,sans-Serif" font-size="10.00">20</text>
</a>
</g>
<!-- dir_8f68c37b22d514b4289e3a1255795d80&#45;&gt;dir_86afe70f6685ce518ba6965fc87e41ba -->
<g id="edge11" class="edge"><title>dir_8f68c37b22d514b4289e3a1255795d80&#45;&gt;dir_86afe70f6685ce518ba6965fc87e41ba</title>
<path fill="none" stroke="black" d="M123.121,-143.831C116.786,-135.539 109.162,-125.557 102.207,-116.453"/>
<polygon fill="black" stroke="black" points="104.917,-114.235 96.0657,-108.413 99.3548,-118.485 104.917,-114.235"/>
<a xlink:href="dir_000021_000003.html" target="_top" xlink:title="2">
<text text-anchor="middle" x="109.356" y="-112.868" font-family="Helvetica,sans-Serif" font-size="10.00">2</text>
</a>
</g>
<!-- dir_8f68c37b22d514b4289e3a1255795d80&#45;&gt;dir_0af1587c8378955de40f48b4bd1869f0 -->
<g id="edge13" class="edge"><title>dir_8f68c37b22d514b4289e3a1255795d80&#45;&gt;dir_0af1587c8378955de40f48b4bd1869f0</title>
<path fill="none" stroke="black" d="M137,-143.762C137,-119.201 137,-75.2474 137,-46.3541"/>
<polygon fill="black" stroke="black" points="140.5,-46.0896 137,-36.0896 133.5,-46.0897 140.5,-46.0896"/>
<a xlink:href="dir_000021_000023.html" target="_top" xlink:title="3">
<text text-anchor="middle" x="143.339" y="-47.1842" font-family="Helvetica,sans-Serif" font-size="10.00">3</text>
</a>
</g>
</g>
</svg>
