<?xml version="1.0" encoding="UTF-8" standalone="no"?>
<!DOCTYPE svg PUBLIC "-//W3C//DTD SVG 1.1//EN"
 "http://www.w3.org/Graphics/SVG/1.1/DTD/svg11.dtd">
<!-- Generated by graphviz version 2.26.3 (20100126.1600)
 -->
<!-- Title: src/simulation Pages: 1 -->
<svg width="188pt" height="233pt"
 viewBox="0.00 0.00 188.00 233.00" xmlns="http://www.w3.org/2000/svg" xmlns:xlink="http://www.w3.org/1999/xlink">
<g id="graph1" class="graph" transform="scale(1 1) rotate(0) translate(4 229)">
<title>src/simulation</title>
<polygon fill="white" stroke="white" points="-4,5 -4,-229 185,-229 185,5 -4,5"/>
<g id="graph2" class="cluster"><title>clusterdir_68267d1309a1af8e8297ef4c3efbcdba</title>
<a xlink:href="dir_68267d1309a1af8e8297ef4c3efbcdba.html" target="_top" xlink:title="src">
<polygon fill="#ddddee" stroke="black" points="8,-128 8,-217 172,-217 172,-128 8,-128"/>
<text text-anchor="middle" x="90" y="-204" font-family="Helvetica,sans-Serif" font-size="10.00">src</text>
</a>
</g>
<g id="graph3" class="cluster"><title>clusterdir_d73d1ee04cc237a5854777ea99c55872</title>
<a xlink:href="dir_d73d1ee04cc237a5854777ea99c55872.html" target="_top">
<polygon fill="#eeeeff" stroke="black" points="16,-136 16,-188 164,-188 164,-136 16,-136"/>
</a>
</g>
<!-- dir_d73d1ee04cc237a5854777ea99c55872 -->
<g id="node3" class="node"><title>dir_d73d1ee04cc237a5854777ea99c55872</title>
<text text-anchor="middle" x="126" y="-159.5" font-family="Helvetica,sans-Serif" font-size="10.00">simulation</text>
</g>
<!-- dir_4b334962844e52f748eb9823804bf0b5 -->
<g id="node4" class="node"><title>dir_4b334962844e52f748eb9823804bf0b5</title>
<a xlink:href="dir_4b334962844e52f748eb9823804bf0b5.html" target="_top" xlink:title="mc">
<polygon fill="white" stroke="red" points="78,-180 24,-180 24,-144 78,-144 78,-180"/>
<text text-anchor="middle" x="51" y="-159.5" font-family="Helvetica,sans-Serif" font-size="10.00">mc</text>
</a>
</g>
<!-- dir_0af1587c8378955de40f48b4bd1869f0 -->
<g id="node5" class="node"><title>dir_0af1587c8378955de40f48b4bd1869f0</title>
<a xlink:href="dir_0af1587c8378955de40f48b4bd1869f0.html" target="_top" xlink:title="base">
<polygon fill="white" stroke="red" points="78,-36 24,-36 24,-1.77636e-14 78,-3.55271e-15 78,-36"/>
<text text-anchor="middle" x="51" y="-15.5" font-family="Helvetica,sans-Serif" font-size="10.00">base</text>
</a>
</g>
<!-- dir_4b334962844e52f748eb9823804bf0b5&#45;&gt;dir_0af1587c8378955de40f48b4bd1869f0 -->
<g id="edge6" class="edge"><title>dir_4b334962844e52f748eb9823804bf0b5&#45;&gt;dir_0af1587c8378955de40f48b4bd1869f0</title>
<path fill="none" stroke="black" d="M47.585,-143.58C45.8291,-133.177 43.8774,-119.909 43,-108 41.8244,-92.0432 41.8244,-87.9568 43,-72 43.6169,-63.6264 44.7649,-54.5812 46.0026,-46.3322"/>
<polygon fill="black" stroke="black" points="49.4648,-46.8463 47.585,-36.4196 42.5523,-45.7428 49.4648,-46.8463"/>
<a xlink:href="dir_000038_000023.html" target="_top" xlink:title="2">
<text text-anchor="middle" x="51.702" y="-48.3436" font-family="Helvetica,sans-Serif" font-size="10.00">2</text>
</a>
</g>
<!-- dir_c44c95bf3b41c3321c6014770d618ac8 -->
<g id="node6" class="node"><title>dir_c44c95bf3b41c3321c6014770d618ac8</title>
<a xlink:href="dir_c44c95bf3b41c3321c6014770d618ac8.html" target="_top" xlink:title="tree">
<polygon fill="none" stroke="black" points="106,-108 52,-108 52,-72 106,-72 106,-108"/>
<text text-anchor="middle" x="79" y="-87.5" font-family="Helvetica,sans-Serif" font-size="10.00">tree</text>
</a>
</g>
<!-- dir_4b334962844e52f748eb9823804bf0b5&#45;&gt;dir_c44c95bf3b41c3321c6014770d618ac8 -->
<g id="edge8" class="edge"><title>dir_4b334962844e52f748eb9823804bf0b5&#45;&gt;dir_c44c95bf3b41c3321c6014770d618ac8</title>
<path fill="none" stroke="black" d="M58.0656,-143.831C61.126,-135.962 64.7779,-126.571 68.1682,-117.853"/>
<polygon fill="black" stroke="black" points="71.4768,-119.002 71.8393,-108.413 64.9527,-116.465 71.4768,-119.002"/>
<a xlink:href="dir_000038_000041.html" target="_top" xlink:title="1">
<text text-anchor="middle" x="72.8202" y="-120.881" font-family="Helvetica,sans-Serif" font-size="10.00">1</text>
</a>
</g>
<!-- dir_c44c95bf3b41c3321c6014770d618ac8&#45;&gt;dir_0af1587c8378955de40f48b4bd1869f0 -->
<g id="edge4" class="edge"><title>dir_c44c95bf3b41c3321c6014770d618ac8&#45;&gt;dir_0af1587c8378955de40f48b4bd1869f0</title>
<path fill="none" stroke="black" d="M71.9344,-71.8314C68.874,-63.9617 65.2221,-54.5712 61.8318,-45.8533"/>
<polygon fill="black" stroke="black" points="65.0473,-44.4647 58.1607,-36.4133 58.5232,-47.0019 65.0473,-44.4647"/>
<a xlink:href="dir_000041_000023.html" target="_top" xlink:title="15">
<text text-anchor="middle" x="68.9963" y="-44.2859" font-family="Helvetica,sans-Serif" font-size="10.00">15</text>
</a>
</g>
</g>
</svg>
