<?xml version="1.0" encoding="UTF-8" standalone="no"?>
<!DOCTYPE svg PUBLIC "-//W3C//DTD SVG 1.1//EN"
 "http://www.w3.org/Graphics/SVG/1.1/DTD/svg11.dtd">
<!-- Generated by graphviz version 2.26.3 (20100126.1600)
 -->
<!-- Title: src/analysis/input/pluto Pages: 1 -->
<svg width="218pt" height="305pt"
 viewBox="0.00 0.00 218.47 305.00" xmlns="http://www.w3.org/2000/svg" xmlns:xlink="http://www.w3.org/1999/xlink">
<g id="graph1" class="graph" transform="scale(1 1) rotate(0) translate(4 301)">
<title>src/analysis/input/pluto</title>
<polygon fill="white" stroke="white" points="-4,5 -4,-301 215.475,-301 215.475,5 -4,5"/>
<g id="graph2" class="cluster"><title>clusterdir_4d4314fec0337faafb4fd99dc7917bfa</title>
<a xlink:href="dir_4d4314fec0337faafb4fd99dc7917bfa.html" target="_top" xlink:title="input">
<polygon fill="#ddddee" stroke="black" points="8,-128 8,-289 94,-289 94,-128 8,-128"/>
<text text-anchor="middle" x="51" y="-276" font-family="Helvetica,sans-Serif" font-size="10.00">input</text>
</a>
</g>
<g id="graph3" class="cluster"><title>clusterdir_afb7c24399562c2231a021453aaf5419</title>
<a xlink:href="dir_afb7c24399562c2231a021453aaf5419.html" target="_top">
<polygon fill="#eeeeff" stroke="black" points="16,-136 16,-260 86,-260 86,-136 16,-136"/>
</a>
</g>
<!-- dir_afb7c24399562c2231a021453aaf5419 -->
<g id="node3" class="node"><title>dir_afb7c24399562c2231a021453aaf5419</title>
<text text-anchor="middle" x="51" y="-231.5" font-family="Helvetica,sans-Serif" font-size="10.00">pluto</text>
</g>
<!-- dir_e87ce045b23dd11be7b26265498c3ece -->
<g id="node4" class="node"><title>dir_e87ce045b23dd11be7b26265498c3ece</title>
<a xlink:href="dir_e87ce045b23dd11be7b26265498c3ece.html" target="_top" xlink:title="detail">
<polygon fill="white" stroke="black" points="78,-180 24,-180 24,-144 78,-144 78,-180"/>
<text text-anchor="middle" x="51" y="-159.5" font-family="Helvetica,sans-Serif" font-size="10.00">detail</text>
</a>
</g>
<!-- dir_afb7c24399562c2231a021453aaf5419&#45;&gt;dir_e87ce045b23dd11be7b26265498c3ece -->
<g id="edge16" class="edge"><title>dir_afb7c24399562c2231a021453aaf5419&#45;&gt;dir_e87ce045b23dd11be7b26265498c3ece</title>
<path fill="none" stroke="black" d="M51,-215.831C51,-208.131 51,-198.974 51,-190.417"/>
<polygon fill="black" stroke="black" points="54.5001,-190.413 51,-180.413 47.5001,-190.413 54.5001,-190.413"/>
<a xlink:href="dir_000010_000011.html" target="_top" xlink:title="1">
<text text-anchor="middle" x="57.3393" y="-191.508" font-family="Helvetica,sans-Serif" font-size="10.00">1</text>
</a>
</g>
<!-- dir_86afe70f6685ce518ba6965fc87e41ba -->
<g id="node5" class="node"><title>dir_86afe70f6685ce518ba6965fc87e41ba</title>
<a xlink:href="dir_86afe70f6685ce518ba6965fc87e41ba.html" target="_top" xlink:title="data">
<polygon fill="none" stroke="black" points="141,-108 87,-108 87,-72 141,-72 141,-108"/>
<text text-anchor="middle" x="114" y="-87.5" font-family="Helvetica,sans-Serif" font-size="10.00">data</text>
</a>
</g>
<!-- dir_afb7c24399562c2231a021453aaf5419&#45;&gt;dir_86afe70f6685ce518ba6965fc87e41ba -->
<g id="edge10" class="edge"><title>dir_afb7c24399562c2231a021453aaf5419&#45;&gt;dir_86afe70f6685ce518ba6965fc87e41ba</title>
<path fill="none" stroke="black" d="M65.0996,-215.818C72.4202,-205.707 81.0524,-192.642 87,-180 96.3461,-160.134 103.328,-136.281 107.848,-118.124"/>
<polygon fill="black" stroke="black" points="111.308,-118.704 110.224,-108.165 104.499,-117.08 111.308,-118.704"/>
<a xlink:href="dir_000010_000003.html" target="_top" xlink:title="1">
<text text-anchor="middle" x="113.235" y="-120.36" font-family="Helvetica,sans-Serif" font-size="10.00">1</text>
</a>
</g>
<!-- dir_0a0aa297e888439a92fbcfd5e567f128 -->
<g id="node6" class="node"><title>dir_0a0aa297e888439a92fbcfd5e567f128</title>
<a xlink:href="dir_0a0aa297e888439a92fbcfd5e567f128.html" target="_top" xlink:title="utils">
<polygon fill="none" stroke="black" points="188,-180 134,-180 134,-144 188,-144 188,-180"/>
<text text-anchor="middle" x="161" y="-159.5" font-family="Helvetica,sans-Serif" font-size="10.00">utils</text>
</a>
</g>
<!-- dir_afb7c24399562c2231a021453aaf5419&#45;&gt;dir_0a0aa297e888439a92fbcfd5e567f128 -->
<g id="edge12" class="edge"><title>dir_afb7c24399562c2231a021453aaf5419&#45;&gt;dir_0a0aa297e888439a92fbcfd5e567f128</title>
<path fill="none" stroke="black" d="M78.191,-216.202C92.3378,-206.943 109.816,-195.502 125.063,-185.522"/>
<polygon fill="black" stroke="black" points="127.29,-188.248 133.741,-179.843 123.457,-182.391 127.29,-188.248"/>
<a xlink:href="dir_000010_000022.html" target="_top" xlink:title="2">
<text text-anchor="middle" x="125.838" y="-190.092" font-family="Helvetica,sans-Serif" font-size="10.00">2</text>
</a>
</g>
<!-- dir_0af1587c8378955de40f48b4bd1869f0 -->
<g id="node7" class="node"><title>dir_0af1587c8378955de40f48b4bd1869f0</title>
<a xlink:href="dir_0af1587c8378955de40f48b4bd1869f0.html" target="_top" xlink:title="base">
<polygon fill="white" stroke="red" points="196,-36 142,-36 142,-1.77636e-14 196,-3.55271e-15 196,-36"/>
<text text-anchor="middle" x="169" y="-15.5" font-family="Helvetica,sans-Serif" font-size="10.00">base</text>
</a>
</g>
<!-- dir_afb7c24399562c2231a021453aaf5419&#45;&gt;dir_0af1587c8378955de40f48b4bd1869f0 -->
<g id="edge14" class="edge"><title>dir_afb7c24399562c2231a021453aaf5419&#45;&gt;dir_0af1587c8378955de40f48b4bd1869f0</title>
<path fill="none" stroke="black" d="M78.2878,-227.826C116.567,-218.548 183.101,-199.96 197,-180 225.252,-139.428 202.453,-79.5939 184.754,-45.1381"/>
<polygon fill="black" stroke="black" points="187.741,-43.3024 179.943,-36.1299 181.566,-46.5997 187.741,-43.3024"/>
<a xlink:href="dir_000010_000023.html" target="_top" xlink:title="3">
<text text-anchor="middle" x="191.939" y="-42.6358" font-family="Helvetica,sans-Serif" font-size="10.00">3</text>
</a>
</g>
<!-- dir_86afe70f6685ce518ba6965fc87e41ba&#45;&gt;dir_0af1587c8378955de40f48b4bd1869f0 -->
<g id="edge4" class="edge"><title>dir_86afe70f6685ce518ba6965fc87e41ba&#45;&gt;dir_0af1587c8378955de40f48b4bd1869f0</title>
<path fill="none" stroke="black" d="M127.879,-71.8314C134.214,-63.5386 141.838,-53.557 148.793,-44.4533"/>
<polygon fill="black" stroke="black" points="151.645,-46.4847 154.934,-36.4133 146.083,-42.2353 151.645,-46.4847"/>
<a xlink:href="dir_000003_000023.html" target="_top" xlink:title="18">
<text text-anchor="middle" x="151.719" y="-48.5647" font-family="Helvetica,sans-Serif" font-size="10.00">18</text>
</a>
</g>
<!-- dir_0a0aa297e888439a92fbcfd5e567f128&#45;&gt;dir_86afe70f6685ce518ba6965fc87e41ba -->
<g id="edge6" class="edge"><title>dir_0a0aa297e888439a92fbcfd5e567f128&#45;&gt;dir_86afe70f6685ce518ba6965fc87e41ba</title>
<path fill="none" stroke="black" d="M149.14,-143.831C143.837,-135.708 137.476,-125.964 131.633,-117.012"/>
<polygon fill="black" stroke="black" points="134.417,-114.874 126.02,-108.413 128.555,-118.7 134.417,-114.874"/>
<a xlink:href="dir_000022_000003.html" target="_top" xlink:title="6">
<text text-anchor="middle" x="138.759" y="-113.832" font-family="Helvetica,sans-Serif" font-size="10.00">6</text>
</a>
</g>
<!-- dir_0a0aa297e888439a92fbcfd5e567f128&#45;&gt;dir_0af1587c8378955de40f48b4bd1869f0 -->
<g id="edge8" class="edge"><title>dir_0a0aa297e888439a92fbcfd5e567f128&#45;&gt;dir_0af1587c8378955de40f48b4bd1869f0</title>
<path fill="none" stroke="black" d="M162.013,-143.762C163.378,-119.201 165.82,-75.2474 167.425,-46.3541"/>
<polygon fill="black" stroke="black" points="170.935,-46.2684 167.995,-36.0896 163.946,-45.88 170.935,-46.2684"/>
<a xlink:href="dir_000022_000023.html" target="_top" xlink:title="11">
<text text-anchor="middle" x="173.57" y="-47.5149" font-family="Helvetica,sans-Serif" font-size="10.00">11</text>
</a>
</g>
</g>
</svg>
