<?xml version="1.0" encoding="UTF-8" standalone="no"?>
<!DOCTYPE svg PUBLIC "-//W3C//DTD SVG 1.1//EN"
 "http://www.w3.org/Graphics/SVG/1.1/DTD/svg11.dtd">
<!-- Generated by graphviz version 2.26.3 (20100126.1600)
 -->
<!-- Title: src/analysis Pages: 1 -->
<svg width="449pt" height="665pt"
 viewBox="0.00 0.00 448.95 665.00" xmlns="http://www.w3.org/2000/svg" xmlns:xlink="http://www.w3.org/1999/xlink">
<g id="graph1" class="graph" transform="scale(1 1) rotate(0) translate(4 661)">
<title>src/analysis</title>
<polygon fill="white" stroke="white" points="-4,5 -4,-661 445.947,-661 445.947,5 -4,5"/>
<g id="graph2" class="cluster"><title>clusterdir_68267d1309a1af8e8297ef4c3efbcdba</title>
<a xlink:href="dir_68267d1309a1af8e8297ef4c3efbcdba.html" target="_top" xlink:title="src">
<polygon fill="#ddddee" stroke="black" points="13.9468,-344 13.9468,-649 211.947,-649 211.947,-344 13.9468,-344"/>
<text text-anchor="middle" x="112.947" y="-636" font-family="Helvetica,sans-Serif" font-size="10.00">src</text>
</a>
</g>
<g id="graph3" class="cluster"><title>clusterdir_2eec376824a17f48dc36b4bd0c810e01</title>
<a xlink:href="dir_2eec376824a17f48dc36b4bd0c810e01.html" target="_top">
<polygon fill="#eeeeff" stroke="black" points="21.9468,-352 21.9468,-620 203.947,-620 203.947,-352 21.9468,-352"/>
</a>
</g>
<!-- dir_2eec376824a17f48dc36b4bd0c810e01 -->
<g id="node3" class="node"><title>dir_2eec376824a17f48dc36b4bd0c810e01</title>
<text text-anchor="middle" x="168.947" y="-591.5" font-family="Helvetica,sans-Serif" font-size="10.00">analysis</text>
</g>
<!-- dir_86afe70f6685ce518ba6965fc87e41ba -->
<g id="node4" class="node"><title>dir_86afe70f6685ce518ba6965fc87e41ba</title>
<a xlink:href="dir_86afe70f6685ce518ba6965fc87e41ba.html" target="_top" xlink:title="data">
<polygon fill="white" stroke="black" points="186.947,-396 132.947,-396 132.947,-360 186.947,-360 186.947,-396"/>
<text text-anchor="middle" x="159.947" y="-375.5" font-family="Helvetica,sans-Serif" font-size="10.00">data</text>
</a>
</g>
<!-- dir_0af1587c8378955de40f48b4bd1869f0 -->
<g id="node9" class="node"><title>dir_0af1587c8378955de40f48b4bd1869f0</title>
<a xlink:href="dir_0af1587c8378955de40f48b4bd1869f0.html" target="_top" xlink:title="base">
<polygon fill="white" stroke="red" points="238.947,-36 184.947,-36 184.947,-1.77636e-14 238.947,-3.55271e-15 238.947,-36"/>
<text text-anchor="middle" x="211.947" y="-15.5" font-family="Helvetica,sans-Serif" font-size="10.00">base</text>
</a>
</g>
<!-- dir_86afe70f6685ce518ba6965fc87e41ba&#45;&gt;dir_0af1587c8378955de40f48b4bd1869f0 -->
<g id="edge18" class="edge"><title>dir_86afe70f6685ce518ba6965fc87e41ba&#45;&gt;dir_0af1587c8378955de40f48b4bd1869f0</title>
<path fill="none" stroke="black" d="M155.596,-359.938C149.445,-332.779 138.947,-279.729 138.947,-234 138.947,-234 138.947,-234 138.947,-162 138.947,-116.786 167.932,-71.3764 189.374,-43.9705"/>
<polygon fill="black" stroke="black" points="192.196,-46.046 195.746,-36.0633 186.746,-41.6538 192.196,-46.046"/>
<a xlink:href="dir_000003_000023.html" target="_top" xlink:title="18">
<text text-anchor="middle" x="192.152" y="-48.1264" font-family="Helvetica,sans-Serif" font-size="10.00">18</text>
</a>
</g>
<!-- dir_c44c95bf3b41c3321c6014770d618ac8 -->
<g id="node10" class="node"><title>dir_c44c95bf3b41c3321c6014770d618ac8</title>
<a xlink:href="dir_c44c95bf3b41c3321c6014770d618ac8.html" target="_top" xlink:title="tree">
<polygon fill="none" stroke="black" points="281.947,-324 227.947,-324 227.947,-288 281.947,-288 281.947,-324"/>
<text text-anchor="middle" x="254.947" y="-303.5" font-family="Helvetica,sans-Serif" font-size="10.00">tree</text>
</a>
</g>
<!-- dir_86afe70f6685ce518ba6965fc87e41ba&#45;&gt;dir_c44c95bf3b41c3321c6014770d618ac8 -->
<g id="edge20" class="edge"><title>dir_86afe70f6685ce518ba6965fc87e41ba&#45;&gt;dir_c44c95bf3b41c3321c6014770d618ac8</title>
<path fill="none" stroke="black" d="M174.799,-359.732C179.643,-354.339 185.249,-348.642 190.947,-344 199.526,-337.011 209.526,-330.445 219.037,-324.802"/>
<polygon fill="black" stroke="black" points="221.013,-327.704 227.944,-319.691 217.529,-321.633 221.013,-327.704"/>
<a xlink:href="dir_000003_000041.html" target="_top" xlink:title="2">
<text text-anchor="middle" x="219.309" y="-329.456" font-family="Helvetica,sans-Serif" font-size="10.00">2</text>
</a>
</g>
<!-- dir_4d4314fec0337faafb4fd99dc7917bfa -->
<g id="node5" class="node"><title>dir_4d4314fec0337faafb4fd99dc7917bfa</title>
<a xlink:href="dir_4d4314fec0337faafb4fd99dc7917bfa.html" target="_top" xlink:title="input">
<polygon fill="white" stroke="red" points="195.947,-540 141.947,-540 141.947,-504 195.947,-504 195.947,-540"/>
<text text-anchor="middle" x="168.947" y="-519.5" font-family="Helvetica,sans-Serif" font-size="10.00">input</text>
</a>
</g>
<!-- dir_4d4314fec0337faafb4fd99dc7917bfa&#45;&gt;dir_86afe70f6685ce518ba6965fc87e41ba -->
<g id="edge54" class="edge"><title>dir_4d4314fec0337faafb4fd99dc7917bfa&#45;&gt;dir_86afe70f6685ce518ba6965fc87e41ba</title>
<path fill="none" stroke="black" d="M174.302,-503.982C178.983,-485.749 184.39,-456.791 179.947,-432 178.349,-423.088 175.379,-413.724 172.208,-405.342"/>
<polygon fill="black" stroke="black" points="175.444,-404.009 168.462,-396.041 168.951,-406.624 175.444,-404.009"/>
<a xlink:href="dir_000004_000003.html" target="_top" xlink:title="5">
<text text-anchor="middle" x="179.421" y="-403.783" font-family="Helvetica,sans-Serif" font-size="10.00">5</text>
</a>
</g>
<!-- dir_0a0aa297e888439a92fbcfd5e567f128 -->
<g id="node8" class="node"><title>dir_0a0aa297e888439a92fbcfd5e567f128</title>
<a xlink:href="dir_0a0aa297e888439a92fbcfd5e567f128.html" target="_top" xlink:title="utils">
<polygon fill="white" stroke="black" points="155.947,-468 101.947,-468 101.947,-432 155.947,-432 155.947,-468"/>
<text text-anchor="middle" x="128.947" y="-447.5" font-family="Helvetica,sans-Serif" font-size="10.00">utils</text>
</a>
</g>
<!-- dir_4d4314fec0337faafb4fd99dc7917bfa&#45;&gt;dir_0a0aa297e888439a92fbcfd5e567f128 -->
<g id="edge56" class="edge"><title>dir_4d4314fec0337faafb4fd99dc7917bfa&#45;&gt;dir_0a0aa297e888439a92fbcfd5e567f128</title>
<path fill="none" stroke="black" d="M158.853,-503.831C154.387,-495.792 149.039,-486.167 144.109,-477.292"/>
<polygon fill="black" stroke="black" points="147.092,-475.455 139.176,-468.413 140.973,-478.855 147.092,-475.455"/>
<a xlink:href="dir_000004_000022.html" target="_top" xlink:title="2">
<text text-anchor="middle" x="151.32" y="-474.718" font-family="Helvetica,sans-Serif" font-size="10.00">2</text>
</a>
</g>
<!-- dir_4d4314fec0337faafb4fd99dc7917bfa&#45;&gt;dir_0af1587c8378955de40f48b4bd1869f0 -->
<g id="edge58" class="edge"><title>dir_4d4314fec0337faafb4fd99dc7917bfa&#45;&gt;dir_0af1587c8378955de40f48b4bd1869f0</title>
<path fill="none" stroke="black" d="M141.849,-519.888C108.312,-515.769 51.8616,-503.642 20.9468,-468 -5.84042,-437.117 1.94681,-418.882 1.94681,-378 1.94681,-378 1.94681,-378 1.94681,-162 1.94681,-79.049 114.773,-40.3352 175.026,-25.575"/>
<polygon fill="black" stroke="black" points="175.988,-28.9442 184.923,-23.2499 174.387,-22.1298 175.988,-28.9442"/>
<a xlink:href="dir_000004_000023.html" target="_top" xlink:title="8">
<text text-anchor="middle" x="173.138" y="-30.0303" font-family="Helvetica,sans-Serif" font-size="10.00">8</text>
</a>
</g>
<!-- dir_4d4314fec0337faafb4fd99dc7917bfa&#45;&gt;dir_c44c95bf3b41c3321c6014770d618ac8 -->
<g id="edge60" class="edge"><title>dir_4d4314fec0337faafb4fd99dc7917bfa&#45;&gt;dir_c44c95bf3b41c3321c6014770d618ac8</title>
<path fill="none" stroke="black" d="M196.172,-504.01C213.209,-492.157 232.863,-477.182 237.947,-468 261.184,-426.03 261.09,-368.547 258.381,-334.54"/>
<polygon fill="black" stroke="black" points="261.847,-334.006 257.437,-324.373 254.877,-334.654 261.847,-334.006"/>
<a xlink:href="dir_000004_000041.html" target="_top" xlink:title="13">
<text text-anchor="middle" x="265.007" y="-334.823" font-family="Helvetica,sans-Serif" font-size="10.00">13</text>
</a>
</g>
<!-- dir_da9e88029a658bab9ad39bb8696ef9bc -->
<g id="node11" class="node"><title>dir_da9e88029a658bab9ad39bb8696ef9bc</title>
<a xlink:href="dir_da9e88029a658bab9ad39bb8696ef9bc.html" target="_top" xlink:title="unpacker">
<polygon fill="white" stroke="red" points="374.947,-252 318.947,-252 318.947,-216 374.947,-216 374.947,-252"/>
<text text-anchor="middle" x="346.947" y="-231.5" font-family="Helvetica,sans-Serif" font-size="10.00">unpacker</text>
</a>
</g>
<!-- dir_4d4314fec0337faafb4fd99dc7917bfa&#45;&gt;dir_da9e88029a658bab9ad39bb8696ef9bc -->
<g id="edge62" class="edge"><title>dir_4d4314fec0337faafb4fd99dc7917bfa&#45;&gt;dir_da9e88029a658bab9ad39bb8696ef9bc</title>
<path fill="none" stroke="black" d="M195.961,-506.078C222.038,-490.665 257.765,-469.417 258.947,-468 310.908,-405.685 333.907,-309.602 342.534,-262.296"/>
<polygon fill="black" stroke="black" points="346.03,-262.62 344.295,-252.168 339.133,-261.42 346.03,-262.62"/>
<a xlink:href="dir_000004_000042.html" target="_top" xlink:title="1">
<text text-anchor="middle" x="348.211" y="-264.148" font-family="Helvetica,sans-Serif" font-size="10.00">1</text>
</a>
</g>
<!-- dir_5eb03804bf445589bf35c6aa84fb9a34 -->
<g id="node13" class="node"><title>dir_5eb03804bf445589bf35c6aa84fb9a34</title>
<a xlink:href="dir_5eb03804bf445589bf35c6aa84fb9a34.html" target="_top" xlink:title="reconstruct">
<polygon fill="white" stroke="red" points="303.947,-108 239.947,-108 239.947,-72 303.947,-72 303.947,-108"/>
<text text-anchor="middle" x="271.947" y="-87.5" font-family="Helvetica,sans-Serif" font-size="10.00">reconstruct</text>
</a>
</g>
<!-- dir_4d4314fec0337faafb4fd99dc7917bfa&#45;&gt;dir_5eb03804bf445589bf35c6aa84fb9a34 -->
<g id="edge64" class="edge"><title>dir_4d4314fec0337faafb4fd99dc7917bfa&#45;&gt;dir_5eb03804bf445589bf35c6aa84fb9a34</title>
<path fill="none" stroke="black" d="M175.339,-503.666C178.8,-493.289 182.965,-480.02 185.947,-468 205.529,-389.059 201.084,-367.347 218.947,-288 232.699,-226.914 252.585,-156.261 263.676,-118.05"/>
<polygon fill="black" stroke="black" points="267.118,-118.748 266.559,-108.168 260.398,-116.788 267.118,-118.748"/>
<a xlink:href="dir_000004_000035.html" target="_top" xlink:title="1">
<text text-anchor="middle" x="268.837" y="-120.494" font-family="Helvetica,sans-Serif" font-size="10.00">1</text>
</a>
</g>
<!-- dir_a21a804d6482c442bcd1b39e4dfcc179 -->
<g id="node6" class="node"><title>dir_a21a804d6482c442bcd1b39e4dfcc179</title>
<a xlink:href="dir_a21a804d6482c442bcd1b39e4dfcc179.html" target="_top" xlink:title="physics">
<polygon fill="white" stroke="red" points="123.947,-612 69.9468,-612 69.9468,-576 123.947,-576 123.947,-612"/>
<text text-anchor="middle" x="96.9468" y="-591.5" font-family="Helvetica,sans-Serif" font-size="10.00">physics</text>
</a>
</g>
<!-- dir_a21a804d6482c442bcd1b39e4dfcc179&#45;&gt;dir_86afe70f6685ce518ba6965fc87e41ba -->
<g id="edge4" class="edge"><title>dir_a21a804d6482c442bcd1b39e4dfcc179&#45;&gt;dir_86afe70f6685ce518ba6965fc87e41ba</title>
<path fill="none" stroke="black" d="M104.055,-575.765C113.967,-550.407 130.956,-507.221 132.947,-504 144.201,-485.79 157.339,-488.01 164.947,-468 172.432,-448.313 170.665,-424.451 167.305,-406.245"/>
<polygon fill="black" stroke="black" points="170.686,-405.318 165.201,-396.254 163.837,-406.76 170.686,-405.318"/>
<a xlink:href="dir_000012_000003.html" target="_top" xlink:title="32">
<text text-anchor="middle" x="174.205" y="-405.75" font-family="Helvetica,sans-Serif" font-size="10.00">32</text>
</a>
</g>
<!-- dir_a21a804d6482c442bcd1b39e4dfcc179&#45;&gt;dir_4d4314fec0337faafb4fd99dc7917bfa -->
<g id="edge16" class="edge"><title>dir_a21a804d6482c442bcd1b39e4dfcc179&#45;&gt;dir_4d4314fec0337faafb4fd99dc7917bfa</title>
<path fill="none" stroke="black" d="M115.115,-575.831C123.662,-567.285 134.002,-556.944 143.327,-547.62"/>
<polygon fill="black" stroke="black" points="145.937,-549.959 150.534,-540.413 140.988,-545.009 145.937,-549.959"/>
<a xlink:href="dir_000012_000004.html" target="_top" xlink:title="3">
<text text-anchor="middle" x="145.403" y="-552.009" font-family="Helvetica,sans-Serif" font-size="10.00">3</text>
</a>
</g>
<!-- dir_8f68c37b22d514b4289e3a1255795d80 -->
<g id="node7" class="node"><title>dir_8f68c37b22d514b4289e3a1255795d80</title>
<a xlink:href="dir_8f68c37b22d514b4289e3a1255795d80.html" target="_top" xlink:title="plot">
<polygon fill="white" stroke="black" points="83.9468,-468 29.9468,-468 29.9468,-432 83.9468,-432 83.9468,-468"/>
<text text-anchor="middle" x="56.9468" y="-447.5" font-family="Helvetica,sans-Serif" font-size="10.00">plot</text>
</a>
</g>
<!-- dir_a21a804d6482c442bcd1b39e4dfcc179&#45;&gt;dir_8f68c37b22d514b4289e3a1255795d80 -->
<g id="edge14" class="edge"><title>dir_a21a804d6482c442bcd1b39e4dfcc179&#45;&gt;dir_8f68c37b22d514b4289e3a1255795d80</title>
<path fill="none" stroke="black" d="M91.8808,-575.762C85.0282,-551.093 72.7412,-506.86 64.7171,-477.973"/>
<polygon fill="black" stroke="black" points="68.0205,-476.788 61.9717,-468.09 61.2759,-478.662 68.0205,-476.788"/>
<a xlink:href="dir_000012_000021.html" target="_top" xlink:title="44">
<text text-anchor="middle" x="71.7182" y="-476.992" font-family="Helvetica,sans-Serif" font-size="10.00">44</text>
</a>
</g>
<!-- dir_a21a804d6482c442bcd1b39e4dfcc179&#45;&gt;dir_0a0aa297e888439a92fbcfd5e567f128 -->
<g id="edge6" class="edge"><title>dir_a21a804d6482c442bcd1b39e4dfcc179&#45;&gt;dir_0a0aa297e888439a92fbcfd5e567f128</title>
<path fill="none" stroke="black" d="M101,-575.762C106.482,-551.093 116.311,-506.86 122.731,-477.973"/>
<polygon fill="black" stroke="black" points="126.174,-478.611 124.927,-468.09 119.341,-477.092 126.174,-478.611"/>
<a xlink:href="dir_000012_000022.html" target="_top" xlink:title="29">
<text text-anchor="middle" x="128.166" y="-480.236" font-family="Helvetica,sans-Serif" font-size="10.00">29</text>
</a>
</g>
<!-- dir_a21a804d6482c442bcd1b39e4dfcc179&#45;&gt;dir_0af1587c8378955de40f48b4bd1869f0 -->
<g id="edge8" class="edge"><title>dir_a21a804d6482c442bcd1b39e4dfcc179&#45;&gt;dir_0af1587c8378955de40f48b4bd1869f0</title>
<path fill="none" stroke="black" d="M124.09,-579.316C127.027,-578.064 130.015,-576.925 132.947,-576 236.646,-543.278 281.841,-596.173 374.947,-540 417.418,-514.376 440.947,-499.603 440.947,-450 440.947,-450 440.947,-450 440.947,-162 440.947,-72.396 313.749,-36.3683 248.95,-23.8282"/>
<polygon fill="black" stroke="black" points="249.585,-20.3862 239.115,-22.0126 248.314,-27.2699 249.585,-20.3862"/>
<a xlink:href="dir_000012_000023.html" target="_top" xlink:title="39">
<text text-anchor="middle" x="253.635" y="-15.7466" font-family="Helvetica,sans-Serif" font-size="10.00">39</text>
</a>
</g>
<!-- dir_a21a804d6482c442bcd1b39e4dfcc179&#45;&gt;dir_c44c95bf3b41c3321c6014770d618ac8 -->
<g id="edge10" class="edge"><title>dir_a21a804d6482c442bcd1b39e4dfcc179&#45;&gt;dir_c44c95bf3b41c3321c6014770d618ac8</title>
<path fill="none" stroke="black" d="M124.165,-580.403C156.123,-564.436 204.839,-540.09 204.947,-540 235.657,-514.37 242.718,-504.56 258.947,-468 281.449,-417.309 285.114,-398.11 272.947,-344 272.171,-340.548 271.043,-337.041 269.725,-333.624"/>
<polygon fill="black" stroke="black" points="272.874,-332.09 265.64,-324.349 266.468,-334.912 272.874,-332.09"/>
<a xlink:href="dir_000012_000041.html" target="_top" xlink:title="5">
<text text-anchor="middle" x="276.921" y="-331.735" font-family="Helvetica,sans-Serif" font-size="10.00">5</text>
</a>
</g>
<!-- dir_c4f4646ab0f4a2967be5b6215a500c22 -->
<g id="node12" class="node"><title>dir_c4f4646ab0f4a2967be5b6215a500c22</title>
<a xlink:href="dir_c4f4646ab0f4a2967be5b6215a500c22.html" target="_top" xlink:title="expconfig">
<polygon fill="white" stroke="red" points="341.947,-180 283.947,-180 283.947,-144 341.947,-144 341.947,-180"/>
<text text-anchor="middle" x="312.947" y="-159.5" font-family="Helvetica,sans-Serif" font-size="10.00">expconfig</text>
</a>
</g>
<!-- dir_a21a804d6482c442bcd1b39e4dfcc179&#45;&gt;dir_c4f4646ab0f4a2967be5b6215a500c22 -->
<g id="edge12" class="edge"><title>dir_a21a804d6482c442bcd1b39e4dfcc179&#45;&gt;dir_c4f4646ab0f4a2967be5b6215a500c22</title>
<path fill="none" stroke="black" d="M124.292,-579.867C127.19,-578.507 130.113,-577.193 132.947,-576 254.997,-524.621 402.947,-582.424 402.947,-450 402.947,-450 402.947,-450 402.947,-306 402.947,-265.118 405.812,-250.543 383.947,-216 375.669,-202.923 363.034,-191.826 350.706,-183.157"/>
<polygon fill="black" stroke="black" points="352.541,-180.174 342.276,-177.548 348.663,-186.002 352.541,-180.174"/>
<a xlink:href="dir_000012_000031.html" target="_top" xlink:title="2">
<text text-anchor="middle" x="357.106" y="-177.302" font-family="Helvetica,sans-Serif" font-size="10.00">2</text>
</a>
</g>
<!-- dir_8f68c37b22d514b4289e3a1255795d80&#45;&gt;dir_86afe70f6685ce518ba6965fc87e41ba -->
<g id="edge50" class="edge"><title>dir_8f68c37b22d514b4289e3a1255795d80&#45;&gt;dir_86afe70f6685ce518ba6965fc87e41ba</title>
<path fill="none" stroke="black" d="M82.9381,-431.831C95.8684,-422.793 111.669,-411.748 125.585,-402.02"/>
<polygon fill="black" stroke="black" points="127.773,-404.761 133.964,-396.163 123.763,-399.024 127.773,-404.761"/>
<a xlink:href="dir_000021_000003.html" target="_top" xlink:title="2">
<text text-anchor="middle" x="126.454" y="-406.647" font-family="Helvetica,sans-Serif" font-size="10.00">2</text>
</a>
</g>
<!-- dir_8f68c37b22d514b4289e3a1255795d80&#45;&gt;dir_0af1587c8378955de40f48b4bd1869f0 -->
<g id="edge52" class="edge"><title>dir_8f68c37b22d514b4289e3a1255795d80&#45;&gt;dir_0af1587c8378955de40f48b4bd1869f0</title>
<path fill="none" stroke="black" d="M57.3612,-431.816C57.947,-404.501 58.9468,-351.254 58.9468,-306 58.9468,-306 58.9468,-306 58.9468,-162 58.9468,-98.1476 130.484,-54.2889 175.726,-32.9361"/>
<polygon fill="black" stroke="black" points="177.306,-36.0624 184.946,-28.7221 174.396,-29.6958 177.306,-36.0624"/>
<a xlink:href="dir_000021_000023.html" target="_top" xlink:title="3">
<text text-anchor="middle" x="175.216" y="-37.6389" font-family="Helvetica,sans-Serif" font-size="10.00">3</text>
</a>
</g>
<!-- dir_0a0aa297e888439a92fbcfd5e567f128&#45;&gt;dir_86afe70f6685ce518ba6965fc87e41ba -->
<g id="edge22" class="edge"><title>dir_0a0aa297e888439a92fbcfd5e567f128&#45;&gt;dir_86afe70f6685ce518ba6965fc87e41ba</title>
<path fill="none" stroke="black" d="M136.769,-431.831C140.158,-423.962 144.201,-414.571 147.954,-405.853"/>
<polygon fill="black" stroke="black" points="151.279,-406.982 152.019,-396.413 144.85,-404.214 151.279,-406.982"/>
<a xlink:href="dir_000022_000003.html" target="_top" xlink:title="6">
<text text-anchor="middle" x="152.465" y="-408.907" font-family="Helvetica,sans-Serif" font-size="10.00">6</text>
</a>
</g>
<!-- dir_0a0aa297e888439a92fbcfd5e567f128&#45;&gt;dir_0af1587c8378955de40f48b4bd1869f0 -->
<g id="edge24" class="edge"><title>dir_0a0aa297e888439a92fbcfd5e567f128&#45;&gt;dir_0af1587c8378955de40f48b4bd1869f0</title>
<path fill="none" stroke="black" d="M123.009,-431.582C114.79,-404.411 100.947,-351.843 100.947,-306 100.947,-306 100.947,-306 100.947,-162 100.947,-111.513 144.277,-67.9015 176.792,-42.2822"/>
<polygon fill="black" stroke="black" points="178.976,-45.0184 184.793,-36.1633 174.724,-39.4581 178.976,-45.0184"/>
<a xlink:href="dir_000022_000023.html" target="_top" xlink:title="11">
<text text-anchor="middle" x="177.846" y="-46.9574" font-family="Helvetica,sans-Serif" font-size="10.00">11</text>
</a>
</g>
<!-- dir_c44c95bf3b41c3321c6014770d618ac8&#45;&gt;dir_0af1587c8378955de40f48b4bd1869f0 -->
<g id="edge26" class="edge"><title>dir_c44c95bf3b41c3321c6014770d618ac8&#45;&gt;dir_0af1587c8378955de40f48b4bd1869f0</title>
<path fill="none" stroke="black" d="M252.257,-287.984C244.987,-239.294 224.906,-104.796 216.136,-46.0573"/>
<polygon fill="black" stroke="black" points="219.574,-45.3824 214.636,-36.0089 212.651,-46.4161 219.574,-45.3824"/>
<a xlink:href="dir_000041_000023.html" target="_top" xlink:title="15">
<text text-anchor="middle" x="222.913" y="-46.0183" font-family="Helvetica,sans-Serif" font-size="10.00">15</text>
</a>
</g>
<!-- dir_c44c95bf3b41c3321c6014770d618ac8&#45;&gt;dir_da9e88029a658bab9ad39bb8696ef9bc -->
<g id="edge28" class="edge"><title>dir_c44c95bf3b41c3321c6014770d618ac8&#45;&gt;dir_da9e88029a658bab9ad39bb8696ef9bc</title>
<path fill="none" stroke="black" d="M272.21,-287.831C283.123,-278.586 297.482,-267.241 310.741,-257.354"/>
<polygon fill="black" stroke="black" points="312.831,-260.161 318.814,-251.418 308.684,-254.522 312.831,-260.161"/>
<a xlink:href="dir_000041_000042.html" target="_top" xlink:title="2">
<text text-anchor="middle" x="311.616" y="-262.078" font-family="Helvetica,sans-Serif" font-size="10.00">2</text>
</a>
</g>
<!-- dir_da9e88029a658bab9ad39bb8696ef9bc&#45;&gt;dir_0af1587c8378955de40f48b4bd1869f0 -->
<g id="edge30" class="edge"><title>dir_da9e88029a658bab9ad39bb8696ef9bc&#45;&gt;dir_0af1587c8378955de40f48b4bd1869f0</title>
<path fill="none" stroke="black" d="M351.282,-215.932C358.008,-183.079 366.824,-113.159 331.947,-72 310.796,-47.0403 275.758,-33.1074 248.988,-25.6751"/>
<polygon fill="black" stroke="black" points="249.737,-22.2538 239.179,-23.1355 247.983,-29.0303 249.737,-22.2538"/>
<a xlink:href="dir_000042_000023.html" target="_top" xlink:title="12">
<text text-anchor="middle" x="253.929" y="-17.906" font-family="Helvetica,sans-Serif" font-size="10.00">12</text>
</a>
</g>
<!-- dir_da9e88029a658bab9ad39bb8696ef9bc&#45;&gt;dir_c44c95bf3b41c3321c6014770d618ac8 -->
<g id="edge32" class="edge"><title>dir_da9e88029a658bab9ad39bb8696ef9bc&#45;&gt;dir_c44c95bf3b41c3321c6014770d618ac8</title>
<path fill="none" stroke="black" d="M329.739,-252.122C318.584,-261.576 303.813,-273.233 290.296,-283.284"/>
<polygon fill="black" stroke="black" points="288.083,-280.567 282.085,-289.301 292.22,-286.213 288.083,-280.567"/>
<a xlink:href="dir_000042_000041.html" target="_top" xlink:title="11">
<text text-anchor="middle" x="289.304" y="-273.652" font-family="Helvetica,sans-Serif" font-size="10.00">11</text>
</a>
</g>
<!-- dir_da9e88029a658bab9ad39bb8696ef9bc&#45;&gt;dir_c4f4646ab0f4a2967be5b6215a500c22 -->
<g id="edge34" class="edge"><title>dir_da9e88029a658bab9ad39bb8696ef9bc&#45;&gt;dir_c4f4646ab0f4a2967be5b6215a500c22</title>
<path fill="none" stroke="black" d="M332.415,-215.831C327.932,-207.962 323.283,-198.571 319.506,-189.853"/>
<polygon fill="black" stroke="black" points="322.676,-188.358 315.666,-180.413 316.192,-190.995 322.676,-188.358"/>
<a xlink:href="dir_000042_000031.html" target="_top" xlink:title="4">
<text text-anchor="middle" x="326.66" y="-188.117" font-family="Helvetica,sans-Serif" font-size="10.00">4</text>
</a>
</g>
<!-- dir_c4f4646ab0f4a2967be5b6215a500c22&#45;&gt;dir_0af1587c8378955de40f48b4bd1869f0 -->
<g id="edge36" class="edge"><title>dir_c4f4646ab0f4a2967be5b6215a500c22&#45;&gt;dir_0af1587c8378955de40f48b4bd1869f0</title>
<path fill="none" stroke="black" d="M318.051,-144C322.415,-124.734 326.119,-93.98 312.947,-72 299.146,-48.972 271.808,-35.2136 249.05,-27.3526"/>
<polygon fill="black" stroke="black" points="249.898,-23.9491 239.307,-24.2392 247.767,-30.617 249.898,-23.9491"/>
<a xlink:href="dir_000031_000023.html" target="_top" xlink:title="20">
<text text-anchor="middle" x="254.186" y="-19.8386" font-family="Helvetica,sans-Serif" font-size="10.00">20</text>
</a>
</g>
<!-- dir_c4f4646ab0f4a2967be5b6215a500c22&#45;&gt;dir_c44c95bf3b41c3321c6014770d618ac8 -->
<g id="edge38" class="edge"><title>dir_c4f4646ab0f4a2967be5b6215a500c22&#45;&gt;dir_c44c95bf3b41c3321c6014770d618ac8</title>
<path fill="none" stroke="black" d="M305.661,-180.09C295.713,-204.788 277.787,-249.293 266.131,-278.233"/>
<polygon fill="black" stroke="black" points="262.782,-277.179 262.293,-287.762 269.275,-279.794 262.782,-277.179"/>
<a xlink:href="dir_000031_000041.html" target="_top" xlink:title="7">
<text text-anchor="middle" x="261.491" y="-270.284" font-family="Helvetica,sans-Serif" font-size="10.00">7</text>
</a>
</g>
<!-- dir_c4f4646ab0f4a2967be5b6215a500c22&#45;&gt;dir_da9e88029a658bab9ad39bb8696ef9bc -->
<g id="edge40" class="edge"><title>dir_c4f4646ab0f4a2967be5b6215a500c22&#45;&gt;dir_da9e88029a658bab9ad39bb8696ef9bc</title>
<path fill="none" stroke="black" d="M327.618,-180.413C332.104,-188.314 336.745,-197.713 340.505,-206.417"/>
<polygon fill="black" stroke="black" points="337.32,-207.878 344.32,-215.831 343.808,-205.249 337.32,-207.878"/>
<a xlink:href="dir_000031_000042.html" target="_top" xlink:title="10">
<text text-anchor="middle" x="333.339" y="-203.113" font-family="Helvetica,sans-Serif" font-size="10.00">10</text>
</a>
</g>
<!-- dir_c4f4646ab0f4a2967be5b6215a500c22&#45;&gt;dir_5eb03804bf445589bf35c6aa84fb9a34 -->
<g id="edge42" class="edge"><title>dir_c4f4646ab0f4a2967be5b6215a500c22&#45;&gt;dir_5eb03804bf445589bf35c6aa84fb9a34</title>
<path fill="none" stroke="black" d="M296.648,-143.831C291.344,-135.877 285.719,-126.369 281.065,-117.572"/>
<polygon fill="black" stroke="black" points="284.078,-115.773 276.456,-108.413 277.825,-118.919 284.078,-115.773"/>
<a xlink:href="dir_000031_000035.html" target="_top" xlink:title="1">
<text text-anchor="middle" x="288.23" y="-115.208" font-family="Helvetica,sans-Serif" font-size="10.00">1</text>
</a>
</g>
<!-- dir_5eb03804bf445589bf35c6aa84fb9a34&#45;&gt;dir_0af1587c8378955de40f48b4bd1869f0 -->
<g id="edge44" class="edge"><title>dir_5eb03804bf445589bf35c6aa84fb9a34&#45;&gt;dir_0af1587c8378955de40f48b4bd1869f0</title>
<path fill="none" stroke="black" d="M256.806,-71.8314C249.825,-63.454 241.408,-53.3531 233.759,-44.1749"/>
<polygon fill="black" stroke="black" points="236.382,-41.8548 227.291,-36.4133 231.004,-46.3362 236.382,-41.8548"/>
<a xlink:href="dir_000035_000023.html" target="_top" xlink:title="10">
<text text-anchor="middle" x="240.864" y="-40.2986" font-family="Helvetica,sans-Serif" font-size="10.00">10</text>
</a>
</g>
<!-- dir_5eb03804bf445589bf35c6aa84fb9a34&#45;&gt;dir_c44c95bf3b41c3321c6014770d618ac8 -->
<g id="edge46" class="edge"><title>dir_5eb03804bf445589bf35c6aa84fb9a34&#45;&gt;dir_c44c95bf3b41c3321c6014770d618ac8</title>
<path fill="none" stroke="black" d="M270.519,-108.145C267.556,-145.795 260.72,-232.641 257.173,-277.71"/>
<polygon fill="black" stroke="black" points="253.662,-277.712 256.367,-287.955 260.641,-278.261 253.662,-277.712"/>
<a xlink:href="dir_000035_000041.html" target="_top" xlink:title="12">
<text text-anchor="middle" x="251.114" y="-271.405" font-family="Helvetica,sans-Serif" font-size="10.00">12</text>
</a>
</g>
<!-- dir_5eb03804bf445589bf35c6aa84fb9a34&#45;&gt;dir_c4f4646ab0f4a2967be5b6215a500c22 -->
<g id="edge48" class="edge"><title>dir_5eb03804bf445589bf35c6aa84fb9a34&#45;&gt;dir_c4f4646ab0f4a2967be5b6215a500c22</title>
<path fill="none" stroke="black" d="M288.408,-108.413C293.719,-116.399 299.337,-125.916 303.971,-134.697"/>
<polygon fill="black" stroke="black" points="300.941,-136.462 308.553,-143.831 307.198,-133.324 300.941,-136.462"/>
<a xlink:href="dir_000035_000031.html" target="_top" xlink:title="7">
<text text-anchor="middle" x="296.791" y="-132.022" font-family="Helvetica,sans-Serif" font-size="10.00">7</text>
</a>
</g>
</g>
</svg>
