<?xml version="1.0" encoding="UTF-8" standalone="no"?>
<!DOCTYPE svg PUBLIC "-//W3C//DTD SVG 1.1//EN"
 "http://www.w3.org/Graphics/SVG/1.1/DTD/svg11.dtd">
<!-- Generated by graphviz version 2.26.3 (20100126.1600)
 -->
<!-- Title: src/analysis/physics/etaprime/etaprime_omega_gamma.h Pages: 1 -->
<svg width="2628pt" height="520pt"
 viewBox="0.00 0.00 2628.25 520.00" xmlns="http://www.w3.org/2000/svg" xmlns:xlink="http://www.w3.org/1999/xlink">
<g id="graph1" class="graph" transform="scale(1 1) rotate(0) translate(4 516)">
<title>src/analysis/physics/etaprime/etaprime_omega_gamma.h</title>
<polygon fill="white" stroke="white" points="-4,5 -4,-516 2625.25,-516 2625.25,5 -4,5"/>
<!-- Node1 -->
<g id="node1" class="node"><title>Node1</title>
<polygon fill="#bfbfbf" stroke="black" points="781.818,-464.5 781.818,-511.5 913.818,-511.5 913.818,-464.5 781.818,-464.5"/>
<text text-anchor="start" x="789.818" y="-498.5" font-family="Helvetica,sans-Serif" font-size="10.00">src/analysis/physics</text>
<text text-anchor="start" x="789.818" y="-485.5" font-family="Helvetica,sans-Serif" font-size="10.00">/etaprime/etaprime_omega</text>
<text text-anchor="middle" x="847.818" y="-472.5" font-family="Helvetica,sans-Serif" font-size="10.00">_gamma.h</text>
</g>
<!-- Node2 -->
<g id="node3" class="node"><title>Node2</title>
<a xlink:href="_physics_8h.html" target="_top" xlink:title="analysis/physics/Physics.h">
<polygon fill="white" stroke="black" points="1736.82,-406.5 1736.82,-427.5 1872.82,-427.5 1872.82,-406.5 1736.82,-406.5"/>
<text text-anchor="middle" x="1804.82" y="-414.5" font-family="Helvetica,sans-Serif" font-size="10.00">analysis/physics/Physics.h</text>
</a>
</g>
<!-- Node1&#45;&gt;Node2 -->
<g id="edge2" class="edge"><title>Node1&#45;&gt;Node2</title>
<path fill="none" stroke="midnightblue" d="M913.974,-483.092C1085.26,-470.384 1542.65,-436.45 1726.6,-422.803"/>
<polygon fill="midnightblue" stroke="midnightblue" points="1727.02,-426.281 1736.74,-422.051 1726.5,-419.301 1727.02,-426.281"/>
</g>
<!-- Node54 -->
<g id="node181" class="node"><title>Node54</title>
<a xlink:href="particle__tools_8h.html" target="_top" xlink:title="utils/particle_tools.h">
<polygon fill="white" stroke="black" points="715.818,-348.5 715.818,-369.5 819.818,-369.5 819.818,-348.5 715.818,-348.5"/>
<text text-anchor="middle" x="767.818" y="-356.5" font-family="Helvetica,sans-Serif" font-size="10.00">utils/particle_tools.h</text>
</a>
</g>
<!-- Node1&#45;&gt;Node54 -->
<g id="edge254" class="edge"><title>Node1&#45;&gt;Node54</title>
<path fill="none" stroke="midnightblue" d="M833.145,-464.339C817.763,-439.535 793.891,-401.042 779.662,-378.098"/>
<polygon fill="midnightblue" stroke="midnightblue" points="782.623,-376.231 774.378,-369.577 776.674,-379.92 782.623,-376.231"/>
</g>
<!-- Node55 -->
<g id="node184" class="node"><title>Node55</title>
<a xlink:href="_particle_type_tree_8h.html" target="_top" xlink:title="base/ParticleTypeTree.h">
<polygon fill="white" stroke="black" points="746.318,-290.5 746.318,-311.5 869.318,-311.5 869.318,-290.5 746.318,-290.5"/>
<text text-anchor="middle" x="807.818" y="-298.5" font-family="Helvetica,sans-Serif" font-size="10.00">base/ParticleTypeTree.h</text>
</a>
</g>
<!-- Node1&#45;&gt;Node55 -->
<g id="edge270" class="edge"><title>Node1&#45;&gt;Node55</title>
<path fill="none" stroke="midnightblue" d="M846.662,-464.296C844.819,-436.11 840.176,-387.867 828.818,-348 826.207,-338.834 822.127,-329.149 818.256,-320.967"/>
<polygon fill="midnightblue" stroke="midnightblue" points="821.324,-319.277 813.749,-311.87 815.052,-322.384 821.324,-319.277"/>
</g>
<!-- Node3 -->
<g id="node5" class="node"><title>Node3</title>
<a xlink:href="_histogram_factories_8h.html" target="_top" xlink:title="analysis/plot/HistogramFactories.h">
<polygon fill="white" stroke="black" points="2422.82,-348.5 2422.82,-369.5 2590.82,-369.5 2590.82,-348.5 2422.82,-348.5"/>
<text text-anchor="middle" x="2506.82" y="-356.5" font-family="Helvetica,sans-Serif" font-size="10.00">analysis/plot/HistogramFactories.h</text>
</a>
</g>
<!-- Node2&#45;&gt;Node3 -->
<g id="edge4" class="edge"><title>Node2&#45;&gt;Node3</title>
<path fill="none" stroke="midnightblue" d="M1872.82,-412.468C1984.7,-404.841 2214.59,-388.452 2408.82,-370 2410.09,-369.879 2411.37,-369.756 2412.66,-369.631"/>
<polygon fill="midnightblue" stroke="midnightblue" points="2413.04,-373.111 2422.64,-368.636 2412.34,-366.145 2413.04,-373.111"/>
</g>
<!-- Node7 -->
<g id="node13" class="node"><title>Node7</title>
<polygon fill="white" stroke="#bfbfbf" points="2217.32,-0.5 2217.32,-21.5 2258.32,-21.5 2258.32,-0.5 2217.32,-0.5"/>
<text text-anchor="middle" x="2237.82" y="-8.5" font-family="Helvetica,sans-Serif" font-size="10.00">string</text>
</g>
<!-- Node2&#45;&gt;Node7 -->
<g id="edge246" class="edge"><title>Node2&#45;&gt;Node7</title>
<path fill="none" stroke="midnightblue" d="M1872.87,-415.118C2060.24,-409.652 2571.76,-392.715 2599.82,-370 2624.54,-349.985 2618.82,-332.808 2618.82,-301 2618.82,-301 2618.82,-301 2618.82,-127 2618.82,-53.996 2359.58,-22.5021 2268.78,-13.71"/>
<polygon fill="midnightblue" stroke="midnightblue" points="2268.86,-10.2017 2258.57,-12.7491 2268.2,-17.1709 2268.86,-10.2017"/>
</g>
<!-- Node17 -->
<g id="node36" class="node"><title>Node17</title>
<polygon fill="white" stroke="#bfbfbf" points="1233.32,-116.5 1233.32,-137.5 1262.32,-137.5 1262.32,-116.5 1233.32,-116.5"/>
<text text-anchor="middle" x="1247.82" y="-124.5" font-family="Helvetica,sans-Serif" font-size="10.00">list</text>
</g>
<!-- Node2&#45;&gt;Node17 -->
<g id="edge244" class="edge"><title>Node2&#45;&gt;Node17</title>
<path fill="none" stroke="midnightblue" d="M1761.57,-406.383C1713.28,-391.638 1641.82,-359.873 1641.82,-301 1641.82,-301 1641.82,-301 1641.82,-243 1641.82,-211.192 1647.11,-194.54 1622.82,-174 1565.01,-125.109 1362.35,-156.721 1272.49,-137.45"/>
<polygon fill="midnightblue" stroke="midnightblue" points="1273.17,-134.012 1262.62,-134.988 1271.48,-140.804 1273.17,-134.012"/>
</g>
<!-- Node18 -->
<g id="node39" class="node"><title>Node18</title>
<polygon fill="white" stroke="#bfbfbf" points="1704.32,-174.5 1704.32,-195.5 1739.32,-195.5 1739.32,-174.5 1704.32,-174.5"/>
<text text-anchor="middle" x="1721.82" y="-182.5" font-family="Helvetica,sans-Serif" font-size="10.00">map</text>
</g>
<!-- Node2&#45;&gt;Node18 -->
<g id="edge248" class="edge"><title>Node2&#45;&gt;Node18</title>
<path fill="none" stroke="midnightblue" d="M1809.27,-406.373C1821.09,-376.331 1850.04,-289.26 1814.82,-232 1814.57,-231.604 1776.2,-212.288 1748.83,-198.545"/>
<polygon fill="midnightblue" stroke="midnightblue" points="1750.19,-195.314 1739.69,-193.957 1747.05,-201.571 1750.19,-195.314"/>
</g>
<!-- Node19 -->
<g id="node41" class="node"><title>Node19</title>
<polygon fill="white" stroke="#bfbfbf" points="1561.82,-174.5 1561.82,-195.5 1613.82,-195.5 1613.82,-174.5 1561.82,-174.5"/>
<text text-anchor="middle" x="1587.82" y="-182.5" font-family="Helvetica,sans-Serif" font-size="10.00">memory</text>
</g>
<!-- Node2&#45;&gt;Node19 -->
<g id="edge250" class="edge"><title>Node2&#45;&gt;Node19</title>
<path fill="none" stroke="midnightblue" d="M1736.79,-406.451C1693.58,-398.377 1643.02,-385.927 1627.82,-370 1584.64,-324.761 1583.55,-244.543 1585.84,-206.355"/>
<polygon fill="midnightblue" stroke="midnightblue" points="1589.36,-206.17 1586.61,-195.938 1582.38,-205.651 1589.36,-206.17"/>
</g>
<!-- Node20 -->
<g id="node43" class="node"><title>Node20</title>
<polygon fill="white" stroke="#bfbfbf" points="2303.32,-174.5 2303.32,-195.5 2362.32,-195.5 2362.32,-174.5 2303.32,-174.5"/>
<text text-anchor="middle" x="2332.82" y="-182.5" font-family="Helvetica,sans-Serif" font-size="10.00">functional</text>
</g>
<!-- Node2&#45;&gt;Node20 -->
<g id="edge252" class="edge"><title>Node2&#45;&gt;Node20</title>
<path fill="none" stroke="midnightblue" d="M1872.88,-409.226C2015.15,-391.335 2335.61,-341.895 2392.82,-254 2405.62,-234.326 2383.62,-214.358 2362.74,-201"/>
<polygon fill="midnightblue" stroke="midnightblue" points="2364.34,-197.876 2353.97,-195.7 2360.72,-203.867 2364.34,-197.876"/>
</g>
<!-- Node40 -->
<g id="node115" class="node"><title>Node40</title>
<a xlink:href="_event_8h.html" target="_top" xlink:title="analysis/data/Event.h">
<polygon fill="white" stroke="black" points="928.318,-348.5 928.318,-369.5 1039.32,-369.5 1039.32,-348.5 928.318,-348.5"/>
<text text-anchor="middle" x="983.818" y="-356.5" font-family="Helvetica,sans-Serif" font-size="10.00">analysis/data/Event.h</text>
</a>
</g>
<!-- Node2&#45;&gt;Node40 -->
<g id="edge150" class="edge"><title>Node2&#45;&gt;Node40</title>
<path fill="none" stroke="midnightblue" d="M1736.58,-412.18C1581.24,-401.205 1202.83,-374.472 1049.73,-363.657"/>
<polygon fill="midnightblue" stroke="midnightblue" points="1049.76,-360.15 1039.54,-362.937 1049.27,-367.133 1049.76,-360.15"/>
</g>
<!-- Node52 -->
<g id="node167" class="node"><title>Node52</title>
<a xlink:href="_slowcontrol_8h.html" target="_top" xlink:title="analysis/data/Slowcontrol.h">
<polygon fill="white" stroke="black" points="1863.32,-116.5 1863.32,-137.5 2000.32,-137.5 2000.32,-116.5 1863.32,-116.5"/>
<text text-anchor="middle" x="1931.82" y="-124.5" font-family="Helvetica,sans-Serif" font-size="10.00">analysis/data/Slowcontrol.h</text>
</a>
</g>
<!-- Node2&#45;&gt;Node52 -->
<g id="edge230" class="edge"><title>Node2&#45;&gt;Node52</title>
<path fill="none" stroke="midnightblue" d="M1825.68,-406.404C1866.24,-384.458 1954.75,-329.692 1988.82,-254 2006.29,-215.192 1972.75,-169.682 1950.12,-145.053"/>
<polygon fill="midnightblue" stroke="midnightblue" points="1952.38,-142.359 1942.95,-137.541 1947.32,-147.191 1952.38,-142.359"/>
</g>
<!-- Node53 -->
<g id="node171" class="node"><title>Node53</title>
<a xlink:href="_options_list_8h.html" target="_top" xlink:title="base/OptionsList.h">
<polygon fill="white" stroke="black" points="1707.82,-232.5 1707.82,-253.5 1805.82,-253.5 1805.82,-232.5 1707.82,-232.5"/>
<text text-anchor="middle" x="1756.82" y="-240.5" font-family="Helvetica,sans-Serif" font-size="10.00">base/OptionsList.h</text>
</a>
</g>
<!-- Node2&#45;&gt;Node53 -->
<g id="edge236" class="edge"><title>Node2&#45;&gt;Node53</title>
<path fill="none" stroke="midnightblue" d="M1801.89,-406.377C1794.11,-378.172 1772.82,-301.012 1762.53,-263.72"/>
<polygon fill="midnightblue" stroke="midnightblue" points="1765.87,-262.637 1759.83,-253.928 1759.12,-264.498 1765.87,-262.637"/>
</g>
<!-- Node4 -->
<g id="node7" class="node"><title>Node4</title>
<a xlink:href="_histogram_8h.html" target="_top" xlink:title="Histogram.h">
<polygon fill="white" stroke="black" points="2477.82,-232.5 2477.82,-253.5 2547.82,-253.5 2547.82,-232.5 2477.82,-232.5"/>
<text text-anchor="middle" x="2512.82" y="-240.5" font-family="Helvetica,sans-Serif" font-size="10.00">Histogram.h</text>
</a>
</g>
<!-- Node3&#45;&gt;Node4 -->
<g id="edge6" class="edge"><title>Node3&#45;&gt;Node4</title>
<path fill="none" stroke="midnightblue" d="M2507.37,-348.295C2508.36,-329.131 2510.46,-288.654 2511.74,-263.843"/>
<polygon fill="midnightblue" stroke="midnightblue" points="2515.24,-263.847 2512.27,-253.679 2508.25,-263.485 2515.24,-263.847"/>
</g>
<!-- Node3&#45;&gt;Node7 -->
<g id="edge148" class="edge"><title>Node3&#45;&gt;Node7</title>
<path fill="none" stroke="midnightblue" d="M2518.52,-348.423C2538.21,-329.408 2575.82,-287.287 2575.82,-243 2575.82,-243 2575.82,-243 2575.82,-127 2575.82,-62.3645 2351.9,-26.0985 2268.57,-14.8404"/>
<polygon fill="midnightblue" stroke="midnightblue" points="2268.83,-11.3438 2258.45,-13.5038 2267.91,-18.2835 2268.83,-11.3438"/>
</g>
<!-- Node15 -->
<g id="node30" class="node"><title>Node15</title>
<a xlink:href="_smart_hist_8h.html" target="_top" xlink:title="SmartHist.h">
<polygon fill="white" stroke="black" points="2184.32,-290.5 2184.32,-311.5 2253.32,-311.5 2253.32,-290.5 2184.32,-290.5"/>
<text text-anchor="middle" x="2218.82" y="-298.5" font-family="Helvetica,sans-Serif" font-size="10.00">SmartHist.h</text>
</a>
</g>
<!-- Node3&#45;&gt;Node15 -->
<g id="edge30" class="edge"><title>Node3&#45;&gt;Node15</title>
<path fill="none" stroke="midnightblue" d="M2454.66,-348.497C2399.96,-337.479 2314.89,-320.349 2263.27,-309.951"/>
<polygon fill="midnightblue" stroke="midnightblue" points="2263.9,-306.509 2253.41,-307.966 2262.52,-313.371 2263.9,-306.509"/>
</g>
<!-- Node28 -->
<g id="node63" class="node"><title>Node28</title>
<a xlink:href="_particle_8h.html" target="_top" xlink:title="analysis/data/Particle.h">
<polygon fill="white" stroke="black" points="924.318,-290.5 924.318,-311.5 1043.32,-311.5 1043.32,-290.5 924.318,-290.5"/>
<text text-anchor="middle" x="983.818" y="-298.5" font-family="Helvetica,sans-Serif" font-size="10.00">analysis/data/Particle.h</text>
</a>
</g>
<!-- Node3&#45;&gt;Node28 -->
<g id="edge70" class="edge"><title>Node3&#45;&gt;Node28</title>
<path fill="none" stroke="midnightblue" d="M2422.82,-357.37C2207.47,-352.925 1618.15,-339.072 1127.82,-312 1103.61,-310.664 1077.15,-308.767 1053.59,-306.925"/>
<polygon fill="midnightblue" stroke="midnightblue" points="1053.58,-303.414 1043.33,-306.113 1053.03,-310.392 1053.58,-303.414"/>
</g>
<!-- Node5 -->
<g id="node9" class="node"><title>Node5</title>
<polygon fill="white" stroke="#bfbfbf" points="2455.82,-174.5 2455.82,-195.5 2509.82,-195.5 2509.82,-174.5 2455.82,-174.5"/>
<text text-anchor="middle" x="2482.82" y="-182.5" font-family="Helvetica,sans-Serif" font-size="10.00">TColor.h</text>
</g>
<!-- Node4&#45;&gt;Node5 -->
<g id="edge8" class="edge"><title>Node4&#45;&gt;Node5</title>
<path fill="none" stroke="midnightblue" d="M2507.32,-232.362C2503.3,-224.595 2497.74,-213.843 2492.93,-204.546"/>
<polygon fill="midnightblue" stroke="midnightblue" points="2495.99,-202.845 2488.29,-195.571 2489.77,-206.061 2495.99,-202.845"/>
</g>
<!-- Node6 -->
<g id="node11" class="node"><title>Node6</title>
<polygon fill="white" stroke="#bfbfbf" points="1070.82,-0.5 1070.82,-21.5 1114.82,-21.5 1114.82,-0.5 1070.82,-0.5"/>
<text text-anchor="middle" x="1092.82" y="-8.5" font-family="Helvetica,sans-Serif" font-size="10.00">vector</text>
</g>
<!-- Node4&#45;&gt;Node6 -->
<g id="edge10" class="edge"><title>Node4&#45;&gt;Node6</title>
<path fill="none" stroke="midnightblue" d="M2493.48,-232.464C2466.52,-218.048 2415.9,-191.925 2370.82,-174 2211.07,-110.482 2171.01,-88.4595 2001.82,-58 1828.27,-26.7556 1266.42,-14.2669 1125.24,-11.5786"/>
<polygon fill="midnightblue" stroke="midnightblue" points="1125.14,-8.07626 1115.08,-11.3883 1125.01,-15.075 1125.14,-8.07626"/>
</g>
<!-- Node4&#45;&gt;Node7 -->
<g id="edge12" class="edge"><title>Node4&#45;&gt;Node7</title>
<path fill="none" stroke="midnightblue" d="M2516.72,-232.252C2521.15,-218.27 2526.78,-193.347 2518.82,-174 2491.18,-106.869 2466.35,-94.8766 2403.82,-58 2360.8,-32.6295 2303.39,-20.3689 2268.59,-14.9037"/>
<polygon fill="midnightblue" stroke="midnightblue" points="2268.96,-11.4207 2258.56,-13.4187 2267.94,-18.3452 2268.96,-11.4207"/>
</g>
<!-- Node8 -->
<g id="node15" class="node"><title>Node8</title>
<a xlink:href="interval_8h.html" target="_top" xlink:title="base/interval.h">
<polygon fill="white" stroke="black" points="2053.82,-174.5 2053.82,-195.5 2133.82,-195.5 2133.82,-174.5 2053.82,-174.5"/>
<text text-anchor="middle" x="2093.82" y="-182.5" font-family="Helvetica,sans-Serif" font-size="10.00">base/interval.h</text>
</a>
</g>
<!-- Node4&#45;&gt;Node8 -->
<g id="edge14" class="edge"><title>Node4&#45;&gt;Node8</title>
<path fill="none" stroke="midnightblue" d="M2477.82,-238.155C2403.54,-227.873 2229.92,-203.84 2143.92,-191.935"/>
<polygon fill="midnightblue" stroke="midnightblue" points="2144.27,-188.45 2133.88,-190.545 2143.31,-195.384 2144.27,-188.45"/>
</g>
<!-- Node9 -->
<g id="node17" class="node"><title>Node9</title>
<polygon fill="white" stroke="#bfbfbf" points="1706.82,-0.5 1706.82,-21.5 1762.82,-21.5 1762.82,-0.5 1706.82,-0.5"/>
<text text-anchor="middle" x="1734.82" y="-8.5" font-family="Helvetica,sans-Serif" font-size="10.00">algorithm</text>
</g>
<!-- Node8&#45;&gt;Node9 -->
<g id="edge16" class="edge"><title>Node8&#45;&gt;Node9</title>
<path fill="none" stroke="midnightblue" d="M2088.12,-174.317C2079.56,-159.24 2061.99,-131.802 2039.82,-116 1955.53,-55.937 1833.99,-27.873 1772.91,-16.9093"/>
<polygon fill="midnightblue" stroke="midnightblue" points="1773.38,-13.4397 1762.93,-15.1753 1772.18,-20.3363 1773.38,-13.4397"/>
</g>
<!-- Node10 -->
<g id="node19" class="node"><title>Node10</title>
<polygon fill="white" stroke="#bfbfbf" points="1500.32,-58.5 1500.32,-79.5 1559.32,-79.5 1559.32,-58.5 1500.32,-58.5"/>
<text text-anchor="middle" x="1529.82" y="-66.5" font-family="Helvetica,sans-Serif" font-size="10.00">stdexcept</text>
</g>
<!-- Node8&#45;&gt;Node10 -->
<g id="edge18" class="edge"><title>Node8&#45;&gt;Node10</title>
<path fill="none" stroke="midnightblue" d="M2084.66,-174.27C2070.34,-158.331 2040.92,-128.896 2008.82,-116 1827.99,-43.347 1763.92,-112.811 1571.82,-80 1571.07,-79.8715 1570.31,-79.736 1569.54,-79.5941"/>
<polygon fill="midnightblue" stroke="midnightblue" points="1570.02,-76.1161 1559.51,-77.4581 1568.56,-82.9628 1570.02,-76.1161"/>
</g>
<!-- Node11 -->
<g id="node21" class="node"><title>Node11</title>
<a xlink:href="printable_8h.html" target="_top" xlink:title="printable.h">
<polygon fill="white" stroke="black" points="986.818,-58.5 986.818,-79.5 1048.82,-79.5 1048.82,-58.5 986.818,-58.5"/>
<text text-anchor="middle" x="1017.82" y="-66.5" font-family="Helvetica,sans-Serif" font-size="10.00">printable.h</text>
</a>
</g>
<!-- Node8&#45;&gt;Node11 -->
<g id="edge20" class="edge"><title>Node8&#45;&gt;Node11</title>
<path fill="none" stroke="midnightblue" d="M2053.71,-177.207C1988.18,-164.463 1864.45,-140.336 1854.82,-138 1820.64,-129.711 1813.47,-122.009 1778.82,-116 1638.52,-91.6672 1196.55,-75.0379 1059.06,-70.3499"/>
<polygon fill="midnightblue" stroke="midnightblue" points="1059.06,-66.8479 1048.94,-70.0078 1058.82,-73.8439 1059.06,-66.8479"/>
</g>
<!-- Node13 -->
<g id="node26" class="node"><title>Node13</title>
<a xlink:href="types_8h.html" target="_top" xlink:title="types.h">
<polygon fill="white" stroke="black" points="573.318,-116.5 573.318,-137.5 622.318,-137.5 622.318,-116.5 573.318,-116.5"/>
<text text-anchor="middle" x="597.818" y="-124.5" font-family="Helvetica,sans-Serif" font-size="10.00">types.h</text>
</a>
</g>
<!-- Node8&#45;&gt;Node13 -->
<g id="edge26" class="edge"><title>Node8&#45;&gt;Node13</title>
<path fill="none" stroke="midnightblue" d="M2053.76,-183.731C1896.07,-178.693 1302.91,-159.338 814.818,-138 750.546,-135.19 675.601,-131.242 632.729,-128.919"/>
<polygon fill="midnightblue" stroke="midnightblue" points="632.722,-125.414 622.546,-128.366 632.341,-132.404 632.722,-125.414"/>
</g>
<!-- Node14 -->
<g id="node28" class="node"><title>Node14</title>
<polygon fill="white" stroke="#bfbfbf" points="2093.82,-116.5 2093.82,-137.5 2133.82,-137.5 2133.82,-116.5 2093.82,-116.5"/>
<text text-anchor="middle" x="2113.82" y="-124.5" font-family="Helvetica,sans-Serif" font-size="10.00">limits</text>
</g>
<!-- Node8&#45;&gt;Node14 -->
<g id="edge28" class="edge"><title>Node8&#45;&gt;Node14</title>
<path fill="none" stroke="midnightblue" d="M2097.49,-174.362C2100.11,-166.758 2103.72,-156.294 2106.88,-147.135"/>
<polygon fill="midnightblue" stroke="midnightblue" points="2110.22,-148.165 2110.17,-137.571 2103.6,-145.883 2110.22,-148.165"/>
</g>
<!-- Node11&#45;&gt;Node6 -->
<g id="edge22" class="edge"><title>Node11&#45;&gt;Node6</title>
<path fill="none" stroke="midnightblue" d="M1031.57,-58.3619C1042.57,-49.859 1058.19,-37.7785 1070.9,-27.9466"/>
<polygon fill="midnightblue" stroke="midnightblue" points="1073.38,-30.4569 1079.15,-21.5707 1069.1,-24.9195 1073.38,-30.4569"/>
</g>
<!-- Node12 -->
<g id="node24" class="node"><title>Node12</title>
<polygon fill="white" stroke="#bfbfbf" points="617.818,-0.5 617.818,-21.5 669.818,-21.5 669.818,-0.5 617.818,-0.5"/>
<text text-anchor="middle" x="643.818" y="-8.5" font-family="Helvetica,sans-Serif" font-size="10.00">ostream</text>
</g>
<!-- Node11&#45;&gt;Node12 -->
<g id="edge24" class="edge"><title>Node11&#45;&gt;Node12</title>
<path fill="none" stroke="midnightblue" d="M986.468,-59.9687C983.556,-59.2538 980.64,-58.5839 977.818,-58 870.49,-35.7868 741.561,-20.9309 679.991,-14.5483"/>
<polygon fill="midnightblue" stroke="midnightblue" points="680.304,-11.0621 669.999,-13.5259 679.591,-18.0257 680.304,-11.0621"/>
</g>
<!-- Node15&#45;&gt;Node4 -->
<g id="edge32" class="edge"><title>Node15&#45;&gt;Node4</title>
<path fill="none" stroke="midnightblue" d="M2253.41,-294.176C2306.53,-283.696 2408.24,-263.631 2467.29,-251.982"/>
<polygon fill="midnightblue" stroke="midnightblue" points="2468.31,-255.348 2477.45,-249.978 2466.96,-248.48 2468.31,-255.348"/>
</g>
<!-- Node15&#45;&gt;Node7 -->
<g id="edge64" class="edge"><title>Node15&#45;&gt;Node7</title>
<path fill="none" stroke="midnightblue" d="M2253.49,-296.616C2299.25,-290.038 2375.98,-275.987 2392.82,-254 2454.62,-173.296 2320.75,-67.6691 2262.83,-27.4842"/>
<polygon fill="midnightblue" stroke="midnightblue" points="2264.45,-24.3587 2254.22,-21.6105 2260.51,-30.1398 2264.45,-24.3587"/>
</g>
<!-- Node16 -->
<g id="node33" class="node"><title>Node16</title>
<a xlink:href="root__draw_8h.html" target="_top" xlink:title="root_draw.h">
<polygon fill="white" stroke="black" points="2103.82,-232.5 2103.82,-253.5 2171.82,-253.5 2171.82,-232.5 2103.82,-232.5"/>
<text text-anchor="middle" x="2137.82" y="-240.5" font-family="Helvetica,sans-Serif" font-size="10.00">root_draw.h</text>
</a>
</g>
<!-- Node15&#45;&gt;Node16 -->
<g id="edge34" class="edge"><title>Node15&#45;&gt;Node16</title>
<path fill="none" stroke="midnightblue" d="M2203.96,-290.362C2191.97,-281.777 2174.89,-269.546 2161.09,-259.664"/>
<polygon fill="midnightblue" stroke="midnightblue" points="2162.75,-256.547 2152.58,-253.571 2158.67,-262.238 2162.75,-256.547"/>
</g>
<!-- Node15&#45;&gt;Node19 -->
<g id="edge62" class="edge"><title>Node15&#45;&gt;Node19</title>
<path fill="none" stroke="midnightblue" d="M2184.31,-299.957C2083.26,-296.576 1789.39,-284.332 1698.82,-254 1664.4,-242.474 1629.66,-218.412 1608.43,-201.98"/>
<polygon fill="midnightblue" stroke="midnightblue" points="1610.48,-199.137 1600.46,-195.676 1606.13,-204.626 1610.48,-199.137"/>
</g>
<!-- Node22 -->
<g id="node47" class="node"><title>Node22</title>
<a xlink:href="memory_8h.html" target="_top" xlink:title="base/std_ext/memory.h">
<polygon fill="white" stroke="black" points="1861.32,-232.5 1861.32,-253.5 1980.32,-253.5 1980.32,-232.5 1861.32,-232.5"/>
<text text-anchor="middle" x="1920.82" y="-240.5" font-family="Helvetica,sans-Serif" font-size="10.00">base/std_ext/memory.h</text>
</a>
</g>
<!-- Node15&#45;&gt;Node22 -->
<g id="edge50" class="edge"><title>Node15&#45;&gt;Node22</title>
<path fill="none" stroke="midnightblue" d="M2184.05,-294.233C2135.33,-284.75 2045.88,-267.342 1984.91,-255.474"/>
<polygon fill="midnightblue" stroke="midnightblue" points="1985.49,-252.021 1975,-253.546 1984.15,-258.892 1985.49,-252.021"/>
</g>
<!-- Node23 -->
<g id="node51" class="node"><title>Node23</title>
<polygon fill="white" stroke="#bfbfbf" points="2265.32,-232.5 2265.32,-253.5 2316.32,-253.5 2316.32,-232.5 2265.32,-232.5"/>
<text text-anchor="middle" x="2290.82" y="-240.5" font-family="Helvetica,sans-Serif" font-size="10.00">TH1D.h</text>
</g>
<!-- Node15&#45;&gt;Node23 -->
<g id="edge56" class="edge"><title>Node15&#45;&gt;Node23</title>
<path fill="none" stroke="midnightblue" d="M2232.02,-290.362C2242.58,-281.859 2257.58,-269.779 2269.78,-259.947"/>
<polygon fill="midnightblue" stroke="midnightblue" points="2272.1,-262.57 2277.7,-253.571 2267.71,-257.118 2272.1,-262.57"/>
</g>
<!-- Node24 -->
<g id="node53" class="node"><title>Node24</title>
<polygon fill="white" stroke="#bfbfbf" points="2333.32,-232.5 2333.32,-253.5 2384.32,-253.5 2384.32,-232.5 2333.32,-232.5"/>
<text text-anchor="middle" x="2358.82" y="-240.5" font-family="Helvetica,sans-Serif" font-size="10.00">TH2D.h</text>
</g>
<!-- Node15&#45;&gt;Node24 -->
<g id="edge58" class="edge"><title>Node15&#45;&gt;Node24</title>
<path fill="none" stroke="midnightblue" d="M2244.17,-290.497C2266.43,-281.275 2299.03,-267.769 2323.78,-257.515"/>
<polygon fill="midnightblue" stroke="midnightblue" points="2325.28,-260.682 2333.18,-253.621 2322.6,-254.215 2325.28,-260.682"/>
</g>
<!-- Node25 -->
<g id="node55" class="node"><title>Node25</title>
<polygon fill="white" stroke="#bfbfbf" points="2035.32,-232.5 2035.32,-253.5 2086.32,-253.5 2086.32,-232.5 2035.32,-232.5"/>
<text text-anchor="middle" x="2060.82" y="-240.5" font-family="Helvetica,sans-Serif" font-size="10.00">TH3D.h</text>
</g>
<!-- Node15&#45;&gt;Node25 -->
<g id="edge60" class="edge"><title>Node15&#45;&gt;Node25</title>
<path fill="none" stroke="midnightblue" d="M2190.21,-290.497C2163.72,-280.773 2124.25,-266.286 2095.88,-255.871"/>
<polygon fill="midnightblue" stroke="midnightblue" points="2096.94,-252.531 2086.35,-252.371 2094.53,-259.103 2096.94,-252.531"/>
</g>
<!-- Node26 -->
<g id="node59" class="node"><title>Node26</title>
<polygon fill="white" stroke="#bfbfbf" points="1445.82,-232.5 1445.82,-253.5 1499.82,-253.5 1499.82,-232.5 1445.82,-232.5"/>
<text text-anchor="middle" x="1472.82" y="-240.5" font-family="Helvetica,sans-Serif" font-size="10.00">iostream</text>
</g>
<!-- Node15&#45;&gt;Node26 -->
<g id="edge66" class="edge"><title>Node15&#45;&gt;Node26</title>
<path fill="none" stroke="midnightblue" d="M2184.02,-298.635C2088.85,-292.116 1816.24,-273.101 1589.82,-254 1563.2,-251.754 1533.2,-248.928 1510.24,-246.702"/>
<polygon fill="midnightblue" stroke="midnightblue" points="1510.52,-243.213 1500.23,-245.727 1509.84,-250.18 1510.52,-243.213"/>
</g>
<!-- Node27 -->
<g id="node61" class="node"><title>Node27</title>
<polygon fill="white" stroke="#bfbfbf" points="2189.32,-232.5 2189.32,-253.5 2248.32,-253.5 2248.32,-232.5 2189.32,-232.5"/>
<text text-anchor="middle" x="2218.82" y="-240.5" font-family="Helvetica,sans-Serif" font-size="10.00">exception</text>
</g>
<!-- Node15&#45;&gt;Node27 -->
<g id="edge68" class="edge"><title>Node15&#45;&gt;Node27</title>
<path fill="none" stroke="midnightblue" d="M2218.82,-290.362C2218.82,-282.922 2218.82,-272.743 2218.82,-263.728"/>
<polygon fill="midnightblue" stroke="midnightblue" points="2222.32,-263.571 2218.82,-253.571 2215.32,-263.571 2222.32,-263.571"/>
</g>
<!-- Node16&#45;&gt;Node6 -->
<g id="edge40" class="edge"><title>Node16&#45;&gt;Node6</title>
<path fill="none" stroke="midnightblue" d="M2142.44,-232.331C2151.99,-208.458 2170.76,-150.157 2142.82,-116 2076.66,-35.1394 1294.74,-15.0137 1125.14,-11.5881"/>
<polygon fill="midnightblue" stroke="midnightblue" points="1125.15,-8.08773 1115.09,-11.3903 1125.01,-15.0864 1125.15,-8.08773"/>
</g>
<!-- Node16&#45;&gt;Node7 -->
<g id="edge36" class="edge"><title>Node16&#45;&gt;Node7</title>
<path fill="none" stroke="midnightblue" d="M2166.98,-232.367C2183.46,-224.802 2202.88,-212.947 2213.82,-196 2246.93,-144.676 2244.28,-68.5718 2240.59,-32.0509"/>
<polygon fill="midnightblue" stroke="midnightblue" points="2244.02,-31.202 2239.4,-21.6659 2237.06,-31.9997 2244.02,-31.202"/>
</g>
<!-- Node16&#45;&gt;Node17 -->
<g id="edge38" class="edge"><title>Node16&#45;&gt;Node17</title>
<path fill="none" stroke="midnightblue" d="M2103.59,-234.052C2100.63,-233.336 2097.68,-232.642 2094.82,-232 1962.75,-202.324 1930.04,-191.552 1795.82,-174 1567.2,-144.103 1498.93,-196.005 1272.46,-137.648"/>
<polygon fill="midnightblue" stroke="midnightblue" points="1273.16,-134.214 1262.6,-135.065 1271.39,-140.986 1273.16,-134.214"/>
</g>
<!-- Node16&#45;&gt;Node18 -->
<g id="edge42" class="edge"><title>Node16&#45;&gt;Node18</title>
<path fill="none" stroke="midnightblue" d="M2103.64,-233.845C2100.67,-233.174 2097.7,-232.547 2094.82,-232 1966.89,-207.675 1811.8,-192.718 1749.59,-187.302"/>
<polygon fill="midnightblue" stroke="midnightblue" points="1749.68,-183.797 1739.42,-186.429 1749.08,-190.771 1749.68,-183.797"/>
</g>
<!-- Node16&#45;&gt;Node19 -->
<g id="edge44" class="edge"><title>Node16&#45;&gt;Node19</title>
<path fill="none" stroke="midnightblue" d="M2103.66,-233.734C2100.68,-233.087 2097.7,-232.496 2094.82,-232 1919.34,-201.839 1873.06,-213.021 1695.82,-196 1671.91,-193.703 1645.03,-190.967 1624.07,-188.798"/>
<polygon fill="midnightblue" stroke="midnightblue" points="1624.31,-185.303 1614,-187.752 1623.58,-192.266 1624.31,-185.303"/>
</g>
<!-- Node16&#45;&gt;Node20 -->
<g id="edge46" class="edge"><title>Node16&#45;&gt;Node20</title>
<path fill="none" stroke="midnightblue" d="M2172.23,-232.764C2206.07,-222.701 2257.66,-207.354 2293.19,-196.786"/>
<polygon fill="midnightblue" stroke="midnightblue" points="2294.62,-200.012 2303.21,-193.806 2292.63,-193.302 2294.62,-200.012"/>
</g>
<!-- Node21 -->
<g id="node45" class="node"><title>Node21</title>
<polygon fill="white" stroke="#bfbfbf" points="1713.82,-116.5 1713.82,-137.5 1769.82,-137.5 1769.82,-116.5 1713.82,-116.5"/>
<text text-anchor="middle" x="1741.82" y="-124.5" font-family="Helvetica,sans-Serif" font-size="10.00">Rtypes.h</text>
</g>
<!-- Node16&#45;&gt;Node21 -->
<g id="edge48" class="edge"><title>Node16&#45;&gt;Node21</title>
<path fill="none" stroke="midnightblue" d="M2116.75,-232.39C2097.89,-222.883 2069.49,-208.546 2044.82,-196 2025.68,-186.27 2022.21,-180.718 2001.82,-174 1908.55,-143.269 1879.86,-158.462 1783.82,-138 1782.57,-137.735 1781.31,-137.457 1780.04,-137.169"/>
<polygon fill="midnightblue" stroke="midnightblue" points="1780.74,-133.738 1770.2,-134.813 1779.11,-140.546 1780.74,-133.738"/>
</g>
<!-- Node22&#45;&gt;Node17 -->
<g id="edge54" class="edge"><title>Node22&#45;&gt;Node17</title>
<path fill="none" stroke="midnightblue" d="M1900.44,-232.493C1868.75,-216.707 1805.31,-187.305 1747.82,-174 1543.93,-126.815 1478.29,-190.746 1272.51,-137.666"/>
<polygon fill="midnightblue" stroke="midnightblue" points="1273.17,-134.219 1262.61,-135.049 1271.38,-140.987 1273.17,-134.219"/>
</g>
<!-- Node22&#45;&gt;Node19 -->
<g id="edge52" class="edge"><title>Node22&#45;&gt;Node19</title>
<path fill="none" stroke="midnightblue" d="M1861.28,-232.631C1792.42,-220.637 1681.23,-201.27 1624.17,-191.331"/>
<polygon fill="midnightblue" stroke="midnightblue" points="1624.62,-187.857 1614.16,-189.589 1623.41,-194.753 1624.62,-187.857"/>
</g>
<!-- Node28&#45;&gt;Node6 -->
<g id="edge140" class="edge"><title>Node28&#45;&gt;Node6</title>
<path fill="none" stroke="midnightblue" d="M992.374,-290.352C1003.68,-276.479 1024.43,-251.672 1043.82,-232 1087.79,-187.392 1123.26,-195.184 1148.82,-138 1166.13,-99.26 1133.13,-53.7246 1110.84,-29.0726"/>
<polygon fill="midnightblue" stroke="midnightblue" points="1113.18,-26.4476 1103.78,-21.553 1108.07,-31.239 1113.18,-26.4476"/>
</g>
<!-- Node28&#45;&gt;Node11 -->
<g id="edge112" class="edge"><title>Node28&#45;&gt;Node11</title>
<path fill="none" stroke="midnightblue" d="M979.688,-290.372C976.271,-280.974 971.685,-266.806 969.818,-254 968.408,-244.324 968.429,-241.679 969.818,-232 977.392,-179.235 998.188,-119.749 1009.77,-89.318"/>
<polygon fill="midnightblue" stroke="midnightblue" points="1013.1,-90.4137 1013.44,-79.8245 1006.57,-87.8869 1013.1,-90.4137"/>
</g>
<!-- Node28&#45;&gt;Node13 -->
<g id="edge114" class="edge"><title>Node28&#45;&gt;Node13</title>
<path fill="none" stroke="midnightblue" d="M924.045,-294.502C819.335,-282.985 613.236,-259.671 607.818,-254 580.71,-225.622 586.377,-175.567 592.408,-147.52"/>
<polygon fill="midnightblue" stroke="midnightblue" points="595.854,-148.153 594.753,-137.616 589.043,-146.54 595.854,-148.153"/>
</g>
<!-- Node28&#45;&gt;Node17 -->
<g id="edge142" class="edge"><title>Node28&#45;&gt;Node17</title>
<path fill="none" stroke="midnightblue" d="M997.756,-290.39C1016.08,-276.557 1049.39,-251.794 1078.82,-232 1129.69,-197.788 1191.25,-160.546 1224.23,-140.919"/>
<polygon fill="midnightblue" stroke="midnightblue" points="1226.31,-143.755 1233.13,-135.641 1222.74,-137.735 1226.31,-143.755"/>
</g>
<!-- Node28&#45;&gt;Node19 -->
<g id="edge146" class="edge"><title>Node28&#45;&gt;Node19</title>
<path fill="none" stroke="midnightblue" d="M1043.53,-295.957C1126.76,-288.377 1273.03,-272.903 1322.82,-254 1339.3,-247.743 1339.49,-238.647 1355.82,-232 1436.23,-199.259 1463.22,-215.527 1547.82,-196 1549.08,-195.708 1550.36,-195.403 1551.66,-195.088"/>
<polygon fill="midnightblue" stroke="midnightblue" points="1552.83,-198.402 1561.65,-192.532 1551.09,-191.621 1552.83,-198.402"/>
</g>
<!-- Node28&#45;&gt;Node26 -->
<g id="edge144" class="edge"><title>Node28&#45;&gt;Node26</title>
<path fill="none" stroke="midnightblue" d="M1043.63,-294.603C1123.51,-285.953 1269.43,-269.787 1393.82,-254 1407.48,-252.267 1422.44,-250.22 1435.64,-248.366"/>
<polygon fill="midnightblue" stroke="midnightblue" points="1436.37,-251.797 1445.78,-246.929 1435.39,-244.866 1436.37,-251.797"/>
</g>
<!-- Node29 -->
<g id="node65" class="node"><title>Node29</title>
<a xlink:href="_candidate_8h.html" target="_top" xlink:title="analysis/data/Candidate.h">
<polygon fill="white" stroke="black" points="766.818,-232.5 766.818,-253.5 896.818,-253.5 896.818,-232.5 766.818,-232.5"/>
<text text-anchor="middle" x="831.818" y="-240.5" font-family="Helvetica,sans-Serif" font-size="10.00">analysis/data/Candidate.h</text>
</a>
</g>
<!-- Node28&#45;&gt;Node29 -->
<g id="edge72" class="edge"><title>Node28&#45;&gt;Node29</title>
<path fill="none" stroke="midnightblue" d="M956.292,-290.497C931.834,-281.164 895.88,-267.445 868.895,-257.147"/>
<polygon fill="midnightblue" stroke="midnightblue" points="869.987,-253.818 859.396,-253.523 867.491,-260.358 869.987,-253.818"/>
</g>
<!-- Node36 -->
<g id="node94" class="node"><title>Node36</title>
<a xlink:href="_particle_type_8h.html" target="_top" xlink:title="base/ParticleType.h">
<polygon fill="white" stroke="black" points="451.818,-232.5 451.818,-253.5 555.818,-253.5 555.818,-232.5 451.818,-232.5"/>
<text text-anchor="middle" x="503.818" y="-240.5" font-family="Helvetica,sans-Serif" font-size="10.00">base/ParticleType.h</text>
</a>
</g>
<!-- Node28&#45;&gt;Node36 -->
<g id="edge116" class="edge"><title>Node28&#45;&gt;Node36</title>
<path fill="none" stroke="midnightblue" d="M924.01,-294.599C826.322,-284.078 636.71,-263.365 569.818,-254 568.557,-253.823 567.282,-253.642 565.997,-253.456"/>
<polygon fill="midnightblue" stroke="midnightblue" points="566.427,-249.981 556.019,-251.958 565.388,-256.904 566.427,-249.981"/>
</g>
<!-- Node38 -->
<g id="node103" class="node"><title>Node38</title>
<a xlink:href="_tree_8h.html" target="_top" xlink:title="base/Tree.h">
<polygon fill="white" stroke="black" points="1087.82,-232.5 1087.82,-253.5 1155.82,-253.5 1155.82,-232.5 1087.82,-232.5"/>
<text text-anchor="middle" x="1121.82" y="-240.5" font-family="Helvetica,sans-Serif" font-size="10.00">base/Tree.h</text>
</a>
</g>
<!-- Node28&#45;&gt;Node38 -->
<g id="edge130" class="edge"><title>Node28&#45;&gt;Node38</title>
<path fill="none" stroke="midnightblue" d="M1008.81,-290.497C1030.75,-281.275 1062.88,-267.769 1087.28,-257.515"/>
<polygon fill="midnightblue" stroke="midnightblue" points="1088.68,-260.722 1096.55,-253.621 1085.97,-254.269 1088.68,-260.722"/>
</g>
<!-- Node39 -->
<g id="node108" class="node"><title>Node39</title>
<polygon fill="white" stroke="#bfbfbf" points="95.8184,-174.5 95.8184,-195.5 187.818,-195.5 187.818,-174.5 95.8184,-174.5"/>
<text text-anchor="middle" x="141.818" y="-182.5" font-family="Helvetica,sans-Serif" font-size="10.00">TLorentzVector.h</text>
</g>
<!-- Node28&#45;&gt;Node39 -->
<g id="edge138" class="edge"><title>Node28&#45;&gt;Node39</title>
<path fill="none" stroke="midnightblue" d="M924.161,-294.292C909.054,-292.736 892.85,-291.189 877.818,-290 731.391,-278.416 353.346,-310.634 217.818,-254 192.194,-243.292 169.604,-220.052 155.85,-203.506"/>
<polygon fill="midnightblue" stroke="midnightblue" points="158.475,-201.184 149.493,-195.565 153.01,-205.559 158.475,-201.184"/>
</g>
<!-- Node29&#45;&gt;Node6 -->
<g id="edge110" class="edge"><title>Node29&#45;&gt;Node6</title>
<path fill="none" stroke="midnightblue" d="M812.957,-232.42C800.235,-224.217 784.28,-211.625 775.818,-196 758.822,-164.615 749.522,-146.026 768.818,-116 801.182,-65.6405 985.033,-29.2582 1060.5,-16.2462"/>
<polygon fill="midnightblue" stroke="midnightblue" points="1061.12,-19.6898 1070.4,-14.5662 1059.95,-12.7884 1061.12,-19.6898"/>
</g>
<!-- Node29&#45;&gt;Node11 -->
<g id="edge74" class="edge"><title>Node29&#45;&gt;Node11</title>
<path fill="none" stroke="midnightblue" d="M825.734,-232.407C813.005,-208.69 786.957,-150.686 814.818,-116 859.283,-60.644 901.975,-94.6116 976.221,-80.0639"/>
<polygon fill="midnightblue" stroke="midnightblue" points="977.413,-83.3846 986.415,-77.7986 975.894,-76.5513 977.413,-83.3846"/>
</g>
<!-- Node29&#45;&gt;Node12 -->
<g id="edge106" class="edge"><title>Node29&#45;&gt;Node12</title>
<path fill="none" stroke="midnightblue" d="M787.1,-232.433C765.088,-225.285 739.544,-213.811 721.818,-196 675.025,-148.982 654.697,-69.6296 647.347,-32.0031"/>
<polygon fill="midnightblue" stroke="midnightblue" points="650.713,-30.9527 645.467,-21.7475 643.827,-32.2147 650.713,-30.9527"/>
</g>
<!-- Node29&#45;&gt;Node13 -->
<g id="edge76" class="edge"><title>Node29&#45;&gt;Node13</title>
<path fill="none" stroke="midnightblue" d="M783.365,-232.429C753.555,-224.776 715.186,-212.805 683.818,-196 657.863,-182.095 632.048,-159.987 615.577,-144.555"/>
<polygon fill="midnightblue" stroke="midnightblue" points="617.929,-141.961 608.282,-137.58 613.091,-147.021 617.929,-141.961"/>
</g>
<!-- Node29&#45;&gt;Node19 -->
<g id="edge108" class="edge"><title>Node29&#45;&gt;Node19</title>
<path fill="none" stroke="midnightblue" d="M896.865,-238.822C1013.26,-231.221 1264.84,-214.224 1476.82,-196 1501.69,-193.862 1529.66,-191.088 1551.3,-188.861"/>
<polygon fill="midnightblue" stroke="midnightblue" points="1551.79,-192.329 1561.37,-187.816 1551.06,-185.366 1551.79,-192.329"/>
</g>
<!-- Node30 -->
<g id="node69" class="node"><title>Node30</title>
<a xlink:href="_detector__t_8h.html" target="_top" xlink:title="base/Detector_t.h">
<polygon fill="white" stroke="black" points="1045.32,-116.5 1045.32,-137.5 1140.32,-137.5 1140.32,-116.5 1045.32,-116.5"/>
<text text-anchor="middle" x="1092.82" y="-124.5" font-family="Helvetica,sans-Serif" font-size="10.00">base/Detector_t.h</text>
</a>
</g>
<!-- Node29&#45;&gt;Node30 -->
<g id="edge78" class="edge"><title>Node29&#45;&gt;Node30</title>
<path fill="none" stroke="midnightblue" d="M866.277,-232.446C893.466,-223.733 932.128,-210.483 964.818,-196 1001,-179.971 1040.86,-157.702 1066.33,-142.844"/>
<polygon fill="midnightblue" stroke="midnightblue" points="1068.18,-145.815 1075.03,-137.731 1064.64,-139.781 1068.18,-145.815"/>
</g>
<!-- Node31 -->
<g id="node72" class="node"><title>Node31</title>
<polygon fill="white" stroke="#bfbfbf" points="904.318,-58.5 904.318,-79.5 969.318,-79.5 969.318,-58.5 904.318,-58.5"/>
<text text-anchor="middle" x="936.818" y="-66.5" font-family="Helvetica,sans-Serif" font-size="10.00">TVector3.h</text>
</g>
<!-- Node29&#45;&gt;Node31 -->
<g id="edge104" class="edge"><title>Node29&#45;&gt;Node31</title>
<path fill="none" stroke="midnightblue" d="M820.978,-232.2C799.063,-209.047 753.867,-153.683 781.818,-116 795.293,-97.8341 853.038,-83.9397 894.095,-76.1217"/>
<polygon fill="midnightblue" stroke="midnightblue" points="894.939,-79.5251 904.136,-74.2661 893.667,-72.6416 894.939,-79.5251"/>
</g>
<!-- Node34 -->
<g id="node81" class="node"><title>Node34</title>
<a xlink:href="_cluster_8h.html" target="_top" xlink:title="analysis/data/Cluster.h">
<polygon fill="white" stroke="black" points="839.318,-174.5 839.318,-195.5 956.318,-195.5 956.318,-174.5 839.318,-174.5"/>
<text text-anchor="middle" x="897.818" y="-182.5" font-family="Helvetica,sans-Serif" font-size="10.00">analysis/data/Cluster.h</text>
</a>
</g>
<!-- Node29&#45;&gt;Node34 -->
<g id="edge94" class="edge"><title>Node29&#45;&gt;Node34</title>
<path fill="none" stroke="midnightblue" d="M843.924,-232.362C853.506,-223.941 867.082,-212.011 878.211,-202.231"/>
<polygon fill="midnightblue" stroke="midnightblue" points="880.588,-204.801 885.79,-195.571 875.968,-199.543 880.588,-204.801"/>
</g>
<!-- Node30&#45;&gt;Node6 -->
<g id="edge92" class="edge"><title>Node30&#45;&gt;Node6</title>
<path fill="none" stroke="midnightblue" d="M1092.82,-116.295C1092.82,-97.1314 1092.82,-56.654 1092.82,-31.8434"/>
<polygon fill="midnightblue" stroke="midnightblue" points="1096.32,-31.6792 1092.82,-21.6792 1089.32,-31.6792 1096.32,-31.6792"/>
</g>
<!-- Node30&#45;&gt;Node7 -->
<g id="edge88" class="edge"><title>Node30&#45;&gt;Node7</title>
<path fill="none" stroke="midnightblue" d="M1120.77,-116.421C1164.14,-100.539 1250.62,-71.0121 1326.82,-58 1501.61,-28.1493 2067.69,-14.5586 2206.75,-11.6224"/>
<polygon fill="midnightblue" stroke="midnightblue" points="2207.17,-15.1146 2217.09,-11.4072 2207.02,-8.1161 2207.17,-15.1146"/>
</g>
<!-- Node30&#45;&gt;Node10 -->
<g id="edge86" class="edge"><title>Node30&#45;&gt;Node10</title>
<path fill="none" stroke="midnightblue" d="M1140.37,-122.39C1227.16,-113.819 1409.06,-95.0938 1489.82,-80.1098"/>
<polygon fill="midnightblue" stroke="midnightblue" points="1490.92,-83.4614 1500.06,-78.1154 1489.58,-76.5903 1490.92,-83.4614"/>
</g>
<!-- Node30&#45;&gt;Node11 -->
<g id="edge80" class="edge"><title>Node30&#45;&gt;Node11</title>
<path fill="none" stroke="midnightblue" d="M1079.06,-116.362C1068.07,-107.859 1052.45,-95.7785 1039.73,-85.9466"/>
<polygon fill="midnightblue" stroke="midnightblue" points="1041.54,-82.9195 1031.49,-79.5707 1037.26,-88.4569 1041.54,-82.9195"/>
</g>
<!-- Node30&#45;&gt;Node31 -->
<g id="edge82" class="edge"><title>Node30&#45;&gt;Node31</title>
<path fill="none" stroke="midnightblue" d="M1064.57,-116.497C1039.36,-107.123 1002.24,-93.3242 974.506,-83.0122"/>
<polygon fill="midnightblue" stroke="midnightblue" points="975.715,-79.7274 965.122,-79.5231 973.275,-86.2886 975.715,-79.7274"/>
</g>
<!-- Node32 -->
<g id="node74" class="node"><title>Node32</title>
<polygon fill="white" stroke="#bfbfbf" points="1436.82,-58.5 1436.82,-79.5 1482.82,-79.5 1482.82,-58.5 1436.82,-58.5"/>
<text text-anchor="middle" x="1459.82" y="-66.5" font-family="Helvetica,sans-Serif" font-size="10.00">cstdint</text>
</g>
<!-- Node30&#45;&gt;Node32 -->
<g id="edge84" class="edge"><title>Node30&#45;&gt;Node32</title>
<path fill="none" stroke="midnightblue" d="M1140.56,-120.702C1202.23,-112.373 1312.81,-96.7783 1406.82,-80 1413.25,-78.8515 1420.11,-77.5149 1426.67,-76.1773"/>
<polygon fill="midnightblue" stroke="midnightblue" points="1427.58,-79.5642 1436.65,-74.1014 1426.15,-72.7108 1427.58,-79.5642"/>
</g>
<!-- Node33 -->
<g id="node78" class="node"><title>Node33</title>
<polygon fill="white" stroke="#bfbfbf" points="1335.82,-58.5 1335.82,-79.5 1397.82,-79.5 1397.82,-58.5 1335.82,-58.5"/>
<text text-anchor="middle" x="1366.82" y="-66.5" font-family="Helvetica,sans-Serif" font-size="10.00">type_traits</text>
</g>
<!-- Node30&#45;&gt;Node33 -->
<g id="edge90" class="edge"><title>Node30&#45;&gt;Node33</title>
<path fill="none" stroke="midnightblue" d="M1140.55,-116.897C1192.94,-105.807 1276.18,-88.1867 1325.76,-77.6917"/>
<polygon fill="midnightblue" stroke="midnightblue" points="1326.75,-81.0603 1335.8,-75.5652 1325.3,-74.212 1326.75,-81.0603"/>
</g>
<!-- Node34&#45;&gt;Node17 -->
<g id="edge98" class="edge"><title>Node34&#45;&gt;Node17</title>
<path fill="none" stroke="midnightblue" d="M956.401,-175.292C1034.3,-162.383 1168.53,-140.139 1223.39,-131.048"/>
<polygon fill="midnightblue" stroke="midnightblue" points="1223.97,-134.5 1233.26,-129.412 1222.82,-127.594 1223.97,-134.5"/>
</g>
<!-- Node34&#45;&gt;Node30 -->
<g id="edge96" class="edge"><title>Node34&#45;&gt;Node30</title>
<path fill="none" stroke="midnightblue" d="M933.131,-174.497C965.197,-164.959 1012.66,-150.841 1047.51,-140.475"/>
<polygon fill="midnightblue" stroke="midnightblue" points="1048.85,-143.729 1057.44,-137.523 1046.86,-137.019 1048.85,-143.729"/>
</g>
<!-- Node34&#45;&gt;Node31 -->
<g id="edge100" class="edge"><title>Node34&#45;&gt;Node31</title>
<path fill="none" stroke="midnightblue" d="M904.719,-174.21C910.358,-164.942 918.136,-151.049 922.818,-138 928.486,-122.204 932.102,-103.504 934.236,-89.5593"/>
<polygon fill="midnightblue" stroke="midnightblue" points="937.718,-89.9304 935.64,-79.5412 930.786,-88.9583 937.718,-89.9304"/>
</g>
<!-- Node35 -->
<g id="node86" class="node"><title>Node35</title>
<a xlink:href="enumfield_8h.html" target="_top" xlink:title="base/enumfield.h">
<polygon fill="white" stroke="black" points="823.318,-116.5 823.318,-137.5 914.318,-137.5 914.318,-116.5 823.318,-116.5"/>
<text text-anchor="middle" x="868.818" y="-124.5" font-family="Helvetica,sans-Serif" font-size="10.00">base/enumfield.h</text>
</a>
</g>
<!-- Node34&#45;&gt;Node35 -->
<g id="edge102" class="edge"><title>Node34&#45;&gt;Node35</title>
<path fill="none" stroke="midnightblue" d="M892.499,-174.362C888.616,-166.595 883.24,-155.843 878.591,-146.546"/>
<polygon fill="midnightblue" stroke="midnightblue" points="881.706,-144.95 874.104,-137.571 875.445,-148.08 881.706,-144.95"/>
</g>
<!-- Node36&#45;&gt;Node6 -->
<g id="edge128" class="edge"><title>Node36&#45;&gt;Node6</title>
<path fill="none" stroke="midnightblue" d="M498.517,-232.297C487.502,-208.356 465.43,-149.922 493.818,-116 567.337,-28.1516 946.613,-13.789 1060.47,-11.4517"/>
<polygon fill="midnightblue" stroke="midnightblue" points="1060.7,-14.948 1070.64,-11.261 1060.57,-7.94919 1060.7,-14.948"/>
</g>
<!-- Node36&#45;&gt;Node7 -->
<g id="edge120" class="edge"><title>Node36&#45;&gt;Node7</title>
<path fill="none" stroke="midnightblue" d="M505.558,-232.414C510.222,-207.658 525.432,-145.833 564.818,-116 594.582,-93.4557 858.683,-61.885 895.818,-58 1030.01,-43.9611 2018.98,-16.8772 2207,-11.8229"/>
<polygon fill="midnightblue" stroke="midnightblue" points="2207.13,-15.3208 2217.03,-11.5537 2206.94,-8.3233 2207.13,-15.3208"/>
</g>
<!-- Node36&#45;&gt;Node12 -->
<g id="edge122" class="edge"><title>Node36&#45;&gt;Node12</title>
<path fill="none" stroke="midnightblue" d="M451.585,-234.45C428.187,-227.883 402.409,-216.32 386.818,-196 349.435,-147.277 340.382,-105.077 379.818,-58 408.42,-23.8568 541.758,-14.4962 607.282,-11.9459"/>
<polygon fill="midnightblue" stroke="midnightblue" points="607.695,-15.4335 617.565,-11.5802 607.447,-8.43793 607.695,-15.4335"/>
</g>
<!-- Node36&#45;&gt;Node13 -->
<g id="edge118" class="edge"><title>Node36&#45;&gt;Node13</title>
<path fill="none" stroke="midnightblue" d="M512.493,-232.295C528.512,-212.527 562.909,-170.08 582.791,-145.544"/>
<polygon fill="midnightblue" stroke="midnightblue" points="585.588,-147.652 589.165,-137.679 580.149,-143.245 585.588,-147.652"/>
</g>
<!-- Node36&#45;&gt;Node18 -->
<g id="edge124" class="edge"><title>Node36&#45;&gt;Node18</title>
<path fill="none" stroke="midnightblue" d="M555.869,-240.72C607.21,-238.477 687.922,-234.968 757.818,-232 1142.25,-215.676 1239.16,-225.263 1622.82,-196 1646.82,-194.169 1674,-191.076 1693.8,-188.636"/>
<polygon fill="midnightblue" stroke="midnightblue" points="1694.48,-192.077 1703.97,-187.359 1693.61,-185.132 1694.48,-192.077"/>
</g>
<!-- Node37 -->
<g id="node100" class="node"><title>Node37</title>
<polygon fill="white" stroke="#bfbfbf" points="395.318,-174.5 395.318,-195.5 442.318,-195.5 442.318,-174.5 395.318,-174.5"/>
<text text-anchor="middle" x="418.818" y="-182.5" font-family="Helvetica,sans-Serif" font-size="10.00">iterator</text>
</g>
<!-- Node36&#45;&gt;Node37 -->
<g id="edge126" class="edge"><title>Node36&#45;&gt;Node37</title>
<path fill="none" stroke="midnightblue" d="M488.228,-232.362C475.527,-223.696 457.38,-211.313 442.826,-201.382"/>
<polygon fill="midnightblue" stroke="midnightblue" points="444.543,-198.316 434.31,-195.571 440.597,-204.098 444.543,-198.316"/>
</g>
<!-- Node38&#45;&gt;Node9 -->
<g id="edge136" class="edge"><title>Node38&#45;&gt;Node9</title>
<path fill="none" stroke="midnightblue" d="M1128.45,-232.349C1143.39,-209.01 1181.73,-152.532 1224.82,-116 1264.6,-82.2767 1277.11,-73.7538 1326.82,-58 1481.66,-8.93255 1533.21,-51.9988 1696.77,-21.8635"/>
<polygon fill="midnightblue" stroke="midnightblue" points="1697.51,-25.2852 1706.68,-19.9741 1696.2,-18.4091 1697.51,-25.2852"/>
</g>
<!-- Node38&#45;&gt;Node17 -->
<g id="edge134" class="edge"><title>Node38&#45;&gt;Node17</title>
<path fill="none" stroke="midnightblue" d="M1138.92,-232.433C1152.75,-223.513 1172.4,-209.991 1187.82,-196 1204.95,-180.451 1222.03,-160.241 1233.55,-145.718"/>
<polygon fill="midnightblue" stroke="midnightblue" points="1236.57,-147.539 1239.96,-137.503 1231.05,-143.233 1236.57,-147.539"/>
</g>
<!-- Node38&#45;&gt;Node19 -->
<g id="edge132" class="edge"><title>Node38&#45;&gt;Node19</title>
<path fill="none" stroke="midnightblue" d="M1156.09,-238.241C1170.51,-236.266 1187.48,-233.978 1202.82,-232 1330.87,-215.49 1483.08,-197.345 1551.43,-189.276"/>
<polygon fill="midnightblue" stroke="midnightblue" points="1552.14,-192.717 1561.66,-188.07 1551.32,-185.765 1552.14,-192.717"/>
</g>
<!-- Node40&#45;&gt;Node6 -->
<g id="edge224" class="edge"><title>Node40&#45;&gt;Node6</title>
<path fill="none" stroke="midnightblue" d="M928.232,-354.874C898.706,-352.728 861.798,-350.118 828.818,-348 689.764,-339.068 338.117,-345.318 202.818,-312 102.523,-287.302 -48.943,-254.469 15.8184,-174 167.002,13.8511 307.416,-94.1753 545.818,-58 740.117,-28.5171 976.26,-16.0379 1060.81,-12.2974"/>
<polygon fill="midnightblue" stroke="midnightblue" points="1060.97,-15.7937 1070.81,-11.8648 1060.67,-8.80028 1060.97,-15.7937"/>
</g>
<!-- Node40&#45;&gt;Node11 -->
<g id="edge220" class="edge"><title>Node40&#45;&gt;Node11</title>
<path fill="none" stroke="midnightblue" d="M928.224,-354.993C898.696,-352.881 861.788,-350.265 828.818,-348 708.392,-339.727 402.642,-345.996 286.818,-312 183.194,-281.585 14.364,-254.083 86.8184,-174 140.61,-114.544 369.521,-162.64 445.818,-138 464.389,-132.003 465.168,-121.744 483.818,-116 691.019,-52.1842 758.823,-115.391 976.369,-79.9393"/>
<polygon fill="midnightblue" stroke="midnightblue" points="977.226,-83.3444 986.507,-78.2339 976.064,-76.4414 977.226,-83.3444"/>
</g>
<!-- Node40&#45;&gt;Node13 -->
<g id="edge218" class="edge"><title>Node40&#45;&gt;Node13</title>
<path fill="none" stroke="midnightblue" d="M928.113,-348.445C878.242,-338.975 803.129,-324.659 737.818,-312 576.522,-280.736 448.359,-348.338 386.818,-196 383.156,-186.934 380.702,-181.629 386.818,-174 392.369,-167.077 504.9,-144.727 563.298,-133.526"/>
<polygon fill="midnightblue" stroke="midnightblue" points="564.031,-136.949 573.196,-131.635 562.717,-130.074 564.031,-136.949"/>
</g>
<!-- Node40&#45;&gt;Node18 -->
<g id="edge228" class="edge"><title>Node40&#45;&gt;Node18</title>
<path fill="none" stroke="midnightblue" d="M1039.35,-354.879C1111.67,-348.833 1241.74,-335.627 1350.82,-312 1436.28,-293.489 1456.09,-282.327 1538.82,-254 1594.66,-234.878 1659.05,-209.909 1694.63,-195.851"/>
<polygon fill="midnightblue" stroke="midnightblue" points="1696.28,-198.961 1704.28,-192.023 1693.7,-192.454 1696.28,-198.961"/>
</g>
<!-- Node40&#45;&gt;Node19 -->
<g id="edge226" class="edge"><title>Node40&#45;&gt;Node19</title>
<path fill="none" stroke="midnightblue" d="M1039.74,-351.534C1157.35,-335.236 1426.27,-294.66 1508.82,-254 1534,-241.598 1557.49,-219.117 1572.21,-203.19"/>
<polygon fill="midnightblue" stroke="midnightblue" points="1574.99,-205.328 1579.06,-195.547 1569.78,-200.654 1574.99,-205.328"/>
</g>
<!-- Node40&#45;&gt;Node28 -->
<g id="edge152" class="edge"><title>Node40&#45;&gt;Node28</title>
<path fill="none" stroke="midnightblue" d="M983.818,-348.362C983.818,-340.922 983.818,-330.743 983.818,-321.728"/>
<polygon fill="midnightblue" stroke="midnightblue" points="987.319,-321.571 983.818,-311.571 980.319,-321.571 987.319,-321.571"/>
</g>
<!-- Node40&#45;&gt;Node29 -->
<g id="edge154" class="edge"><title>Node40&#45;&gt;Node29</title>
<path fill="none" stroke="midnightblue" d="M967.615,-348.352C953.669,-339.056 933.119,-325.049 915.818,-312 893.493,-295.161 868.871,-274.699 852.09,-260.45"/>
<polygon fill="midnightblue" stroke="midnightblue" points="853.962,-257.446 844.083,-253.616 849.417,-262.77 853.962,-257.446"/>
</g>
<!-- Node40&#45;&gt;Node38 -->
<g id="edge222" class="edge"><title>Node40&#45;&gt;Node38</title>
<path fill="none" stroke="midnightblue" d="M1000.89,-348.378C1015.01,-339.32 1035.35,-325.636 1051.82,-312 1071.12,-296.024 1091.3,-275.679 1105.01,-261.23"/>
<polygon fill="midnightblue" stroke="midnightblue" points="1107.62,-263.562 1111.91,-253.875 1102.52,-258.772 1107.62,-263.562"/>
</g>
<!-- Node41 -->
<g id="node119" class="node"><title>Node41</title>
<a xlink:href="_tagger_hit_8h.html" target="_top" xlink:title="TaggerHit.h">
<polygon fill="white" stroke="black" points="226.818,-232.5 226.818,-253.5 294.818,-253.5 294.818,-232.5 226.818,-232.5"/>
<text text-anchor="middle" x="260.818" y="-240.5" font-family="Helvetica,sans-Serif" font-size="10.00">TaggerHit.h</text>
</a>
</g>
<!-- Node40&#45;&gt;Node41 -->
<g id="edge156" class="edge"><title>Node40&#45;&gt;Node41</title>
<path fill="none" stroke="midnightblue" d="M928.221,-355.044C898.692,-352.945 861.784,-350.326 828.818,-348 714.822,-339.955 416.976,-365.172 315.818,-312 295.381,-301.257 279.944,-279.247 270.704,-262.961"/>
<polygon fill="midnightblue" stroke="midnightblue" points="273.562,-260.882 265.762,-253.711 267.388,-264.181 273.562,-260.882"/>
</g>
<!-- Node42 -->
<g id="node126" class="node"><title>Node42</title>
<a xlink:href="_trigger_info_8h.html" target="_top" xlink:title="TriggerInfo.h">
<polygon fill="white" stroke="black" points="1136.32,-290.5 1136.32,-311.5 1207.32,-311.5 1207.32,-290.5 1136.32,-290.5"/>
<text text-anchor="middle" x="1171.82" y="-298.5" font-family="Helvetica,sans-Serif" font-size="10.00">TriggerInfo.h</text>
</a>
</g>
<!-- Node40&#45;&gt;Node42 -->
<g id="edge168" class="edge"><title>Node40&#45;&gt;Node42</title>
<path fill="none" stroke="midnightblue" d="M1017.86,-348.497C1048.78,-338.959 1094.54,-324.841 1128.14,-314.475"/>
<polygon fill="midnightblue" stroke="midnightblue" points="1129.19,-317.816 1137.71,-311.523 1127.12,-311.127 1129.19,-317.816"/>
</g>
<!-- Node41&#45;&gt;Node11 -->
<g id="edge164" class="edge"><title>Node41&#45;&gt;Node11</title>
<path fill="none" stroke="midnightblue" d="M261.655,-232.271C263.461,-216.88 269.129,-188.767 286.818,-174 355.146,-116.962 397.016,-157.682 483.818,-138 520.199,-129.751 528.091,-122.535 564.818,-116 743.032,-84.2922 794.66,-111.567 976.606,-79.9455"/>
<polygon fill="midnightblue" stroke="midnightblue" points="977.264,-83.3835 986.499,-78.1909 976.041,-76.4911 977.264,-83.3835"/>
</g>
<!-- Node41&#45;&gt;Node13 -->
<g id="edge162" class="edge"><title>Node41&#45;&gt;Node13</title>
<path fill="none" stroke="midnightblue" d="M266.026,-232.264C274.243,-216.596 291.786,-187.829 315.818,-174 410.83,-119.328 452.703,-161.293 559.818,-138 560.892,-137.766 561.98,-137.519 563.076,-137.261"/>
<polygon fill="midnightblue" stroke="midnightblue" points="564.192,-140.588 573.004,-134.705 562.447,-133.809 564.192,-140.588"/>
</g>
<!-- Node41&#45;&gt;Node17 -->
<g id="edge158" class="edge"><title>Node41&#45;&gt;Node17</title>
<path fill="none" stroke="midnightblue" d="M274.994,-232.382C297.375,-216.305 342.882,-186.355 386.818,-174 550.012,-128.112 979.824,-151.367 1148.82,-138 1174.13,-135.998 1202.97,-132.675 1222.97,-130.204"/>
<polygon fill="midnightblue" stroke="midnightblue" points="1223.6,-133.651 1233.09,-128.932 1222.73,-126.706 1223.6,-133.651"/>
</g>
<!-- Node41&#45;&gt;Node19 -->
<g id="edge160" class="edge"><title>Node41&#45;&gt;Node19</title>
<path fill="none" stroke="midnightblue" d="M295.019,-240.671C331.587,-238.243 391.279,-234.454 442.818,-232 902.132,-210.127 1018.01,-226.689 1476.82,-196 1501.73,-194.334 1529.69,-191.557 1551.32,-189.21"/>
<polygon fill="midnightblue" stroke="midnightblue" points="1551.84,-192.674 1561.39,-188.099 1551.07,-185.717 1551.84,-192.674"/>
</g>
<!-- Node41&#45;&gt;Node39 -->
<g id="edge166" class="edge"><title>Node41&#45;&gt;Node39</title>
<path fill="none" stroke="midnightblue" d="M239.268,-232.497C220.682,-223.438 193.617,-210.246 172.723,-200.063"/>
<polygon fill="midnightblue" stroke="midnightblue" points="174.133,-196.856 163.61,-195.621 171.066,-203.149 174.133,-196.856"/>
</g>
<!-- Node42&#45;&gt;Node11 -->
<g id="edge172" class="edge"><title>Node42&#45;&gt;Node11</title>
<path fill="none" stroke="midnightblue" d="M1136.84,-290.498C1117.43,-283.08 1094.18,-271.33 1078.82,-254 1036.13,-205.83 1023.2,-127.039 1019.37,-89.7758"/>
<polygon fill="midnightblue" stroke="midnightblue" points="1022.84,-89.2687 1018.46,-79.6245 1015.87,-89.8991 1022.84,-89.2687"/>
</g>
<!-- Node42&#45;&gt;Node13 -->
<g id="edge170" class="edge"><title>Node42&#45;&gt;Node13</title>
<path fill="none" stroke="midnightblue" d="M1136.06,-297.699C1042.2,-288.927 793.611,-264.965 757.818,-254 704.598,-237.696 688.761,-232.594 646.818,-196 630.653,-181.896 616.987,-161.434 608.229,-146.455"/>
<polygon fill="midnightblue" stroke="midnightblue" points="611.159,-144.524 603.205,-137.525 605.058,-147.956 611.159,-144.524"/>
</g>
<!-- Node42&#45;&gt;Node17 -->
<g id="edge214" class="edge"><title>Node42&#45;&gt;Node17</title>
<path fill="none" stroke="midnightblue" d="M1176.46,-290.377C1188.83,-262.051 1222.77,-184.349 1238.98,-147.242"/>
<polygon fill="midnightblue" stroke="midnightblue" points="1242.25,-148.493 1243.05,-137.928 1235.84,-145.691 1242.25,-148.493"/>
</g>
<!-- Node42&#45;&gt;Node19 -->
<g id="edge216" class="edge"><title>Node42&#45;&gt;Node19</title>
<path fill="none" stroke="midnightblue" d="M1207.55,-292.312C1244.7,-283.175 1304.49,-268.181 1355.82,-254 1425.48,-234.751 1506.26,-210.222 1551.77,-196.196"/>
<polygon fill="midnightblue" stroke="midnightblue" points="1552.95,-199.495 1561.47,-193.201 1550.88,-192.807 1552.95,-199.495"/>
</g>
<!-- Node43 -->
<g id="node130" class="node"><title>Node43</title>
<a xlink:href="_t_data_record_8h.html" target="_top" xlink:title="tree/TDataRecord.h">
<polygon fill="white" stroke="black" points="1211.32,-232.5 1211.32,-253.5 1314.32,-253.5 1314.32,-232.5 1211.32,-232.5"/>
<text text-anchor="middle" x="1262.82" y="-240.5" font-family="Helvetica,sans-Serif" font-size="10.00">tree/TDataRecord.h</text>
</a>
</g>
<!-- Node42&#45;&gt;Node43 -->
<g id="edge174" class="edge"><title>Node42&#45;&gt;Node43</title>
<path fill="none" stroke="midnightblue" d="M1188.51,-290.362C1202.23,-281.614 1221.9,-269.079 1237.56,-259.101"/>
<polygon fill="midnightblue" stroke="midnightblue" points="1239.68,-261.897 1246.23,-253.571 1235.92,-255.994 1239.68,-261.897"/>
</g>
<!-- Node43&#45;&gt;Node21 -->
<g id="edge208" class="edge"><title>Node43&#45;&gt;Node21</title>
<path fill="none" stroke="midnightblue" d="M1314.49,-233.235C1367.89,-222.861 1447.46,-206.536 1476.82,-196 1497.02,-188.749 1499.55,-181.061 1519.82,-174 1596.86,-147.166 1620.32,-156.343 1699.82,-138 1701.06,-137.714 1702.32,-137.418 1703.59,-137.114"/>
<polygon fill="midnightblue" stroke="midnightblue" points="1704.54,-140.483 1713.41,-134.682 1702.86,-133.689 1704.54,-140.483"/>
</g>
<!-- Node44 -->
<g id="node132" class="node"><title>Node44</title>
<a xlink:href="_t_i_d_8h.html" target="_top" xlink:title="TID.h">
<polygon fill="white" stroke="black" points="1427.32,-174.5 1427.32,-195.5 1468.32,-195.5 1468.32,-174.5 1427.32,-174.5"/>
<text text-anchor="middle" x="1447.82" y="-182.5" font-family="Helvetica,sans-Serif" font-size="10.00">TID.h</text>
</a>
</g>
<!-- Node43&#45;&gt;Node44 -->
<g id="edge176" class="edge"><title>Node43&#45;&gt;Node44</title>
<path fill="none" stroke="midnightblue" d="M1296.32,-232.497C1330.86,-221.669 1384.23,-204.937 1417.53,-194.494"/>
<polygon fill="midnightblue" stroke="midnightblue" points="1418.69,-197.801 1427.18,-191.469 1416.59,-191.121 1418.69,-197.801"/>
</g>
<!-- Node49 -->
<g id="node146" class="node"><title>Node49</title>
<polygon fill="white" stroke="#bfbfbf" points="1770.32,-58.5 1770.32,-79.5 1811.32,-79.5 1811.32,-58.5 1770.32,-58.5"/>
<text text-anchor="middle" x="1790.82" y="-66.5" font-family="Helvetica,sans-Serif" font-size="10.00">ctime</text>
</g>
<!-- Node43&#45;&gt;Node49 -->
<g id="edge212" class="edge"><title>Node43&#45;&gt;Node49</title>
<path fill="none" stroke="midnightblue" d="M1314.38,-232.852C1315.88,-232.564 1317.36,-232.279 1318.82,-232 1404.52,-215.591 1429.51,-224.971 1511.82,-196 1531.33,-189.134 1533.22,-180.608 1552.82,-174 1649.2,-141.501 1706.39,-209.407 1778.82,-138 1791.36,-125.636 1793.55,-105.174 1793.09,-89.7362"/>
<polygon fill="midnightblue" stroke="midnightblue" points="1796.57,-89.3084 1792.39,-79.5705 1789.58,-89.7859 1796.57,-89.3084"/>
</g>
<!-- Node51 -->
<g id="node153" class="node"><title>Node51</title>
<polygon fill="white" stroke="#bfbfbf" points="1279.82,-116.5 1279.82,-137.5 1329.82,-137.5 1329.82,-116.5 1279.82,-116.5"/>
<text text-anchor="middle" x="1304.82" y="-124.5" font-family="Helvetica,sans-Serif" font-size="10.00">iomanip</text>
</g>
<!-- Node43&#45;&gt;Node51 -->
<g id="edge210" class="edge"><title>Node43&#45;&gt;Node51</title>
<path fill="none" stroke="midnightblue" d="M1266.69,-232.295C1273.7,-212.959 1288.55,-171.923 1297.51,-147.177"/>
<polygon fill="midnightblue" stroke="midnightblue" points="1300.84,-148.273 1300.95,-137.679 1294.26,-145.89 1300.84,-148.273"/>
</g>
<!-- Node44&#45;&gt;Node10 -->
<g id="edge202" class="edge"><title>Node44&#45;&gt;Node10</title>
<path fill="none" stroke="midnightblue" d="M1455.39,-174.295C1469.3,-154.613 1499.1,-112.45 1516.48,-87.8668"/>
<polygon fill="midnightblue" stroke="midnightblue" points="1519.35,-89.8653 1522.27,-79.6792 1513.64,-85.8247 1519.35,-89.8653"/>
</g>
<!-- Node44&#45;&gt;Node11 -->
<g id="edge180" class="edge"><title>Node44&#45;&gt;Node11</title>
<path fill="none" stroke="midnightblue" d="M1431.81,-174.343C1404,-155.914 1348.79,-119.696 1338.82,-116 1288.25,-97.2619 1133.72,-80.2587 1059.06,-72.8795"/>
<polygon fill="midnightblue" stroke="midnightblue" points="1059.37,-69.3929 1049.07,-71.9029 1058.68,-76.3596 1059.37,-69.3929"/>
</g>
<!-- Node44&#45;&gt;Node21 -->
<g id="edge178" class="edge"><title>Node44&#45;&gt;Node21</title>
<path fill="none" stroke="midnightblue" d="M1468.54,-177.755C1472.89,-176.386 1477.48,-175.054 1481.82,-174 1577.24,-150.821 1603.77,-158.462 1699.82,-138 1701.06,-137.735 1702.33,-137.457 1703.6,-137.169"/>
<polygon fill="midnightblue" stroke="midnightblue" points="1704.53,-140.546 1713.44,-134.813 1702.9,-133.738 1704.53,-140.546"/>
</g>
<!-- Node44&#45;&gt;Node32 -->
<g id="edge200" class="edge"><title>Node44&#45;&gt;Node32</title>
<path fill="none" stroke="midnightblue" d="M1453.12,-174.498C1457.51,-165.18 1463.4,-151.06 1465.82,-138 1468.79,-121.953 1466.92,-103.527 1464.51,-89.7555"/>
<polygon fill="midnightblue" stroke="midnightblue" points="1467.93,-88.971 1462.55,-79.8428 1461.06,-90.3326 1467.93,-88.971"/>
</g>
<!-- Node44&#45;&gt;Node33 -->
<g id="edge196" class="edge"><title>Node44&#45;&gt;Node33</title>
<path fill="none" stroke="midnightblue" d="M1447.82,-174.273C1447.33,-159.87 1444.7,-134.012 1432.82,-116 1424.28,-103.054 1410.86,-92.5423 1398.34,-84.7688"/>
<polygon fill="midnightblue" stroke="midnightblue" points="1399.87,-81.6091 1389.47,-79.5968 1396.34,-87.6567 1399.87,-81.6091"/>
</g>
<!-- Node45 -->
<g id="node136" class="node"><title>Node45</title>
<a xlink:href="time_8h.html" target="_top" xlink:title="base/std_ext/time.h">
<polygon fill="white" stroke="black" points="1555.32,-116.5 1555.32,-137.5 1658.32,-137.5 1658.32,-116.5 1555.32,-116.5"/>
<text text-anchor="middle" x="1606.82" y="-124.5" font-family="Helvetica,sans-Serif" font-size="10.00">base/std_ext/time.h</text>
</a>
</g>
<!-- Node44&#45;&gt;Node45 -->
<g id="edge182" class="edge"><title>Node44&#45;&gt;Node45</title>
<path fill="none" stroke="midnightblue" d="M1468.6,-177.418C1493.82,-168.219 1536.85,-152.524 1568.21,-141.084"/>
<polygon fill="midnightblue" stroke="midnightblue" points="1569.75,-144.248 1577.94,-137.533 1567.35,-137.672 1569.75,-144.248"/>
</g>
<!-- Node44&#45;&gt;Node49 -->
<g id="edge206" class="edge"><title>Node44&#45;&gt;Node49</title>
<path fill="none" stroke="midnightblue" d="M1468.56,-177.851C1472.91,-176.475 1477.49,-175.116 1481.82,-174 1562.93,-153.07 1588.38,-167.39 1666.82,-138 1685.09,-131.153 1687.81,-125.569 1704.82,-116 1723.78,-105.329 1745.27,-93.5896 1762.01,-84.5123"/>
<polygon fill="midnightblue" stroke="midnightblue" points="1764.14,-87.3398 1771.27,-79.5037 1760.81,-81.1828 1764.14,-87.3398"/>
</g>
<!-- Node50 -->
<g id="node149" class="node"><title>Node50</title>
<polygon fill="white" stroke="#bfbfbf" points="1385.82,-116.5 1385.82,-137.5 1423.82,-137.5 1423.82,-116.5 1385.82,-116.5"/>
<text text-anchor="middle" x="1404.82" y="-124.5" font-family="Helvetica,sans-Serif" font-size="10.00">tuple</text>
</g>
<!-- Node44&#45;&gt;Node50 -->
<g id="edge198" class="edge"><title>Node44&#45;&gt;Node50</title>
<path fill="none" stroke="midnightblue" d="M1439.93,-174.362C1433.99,-166.35 1425.7,-155.161 1418.66,-145.67"/>
<polygon fill="midnightblue" stroke="midnightblue" points="1421.42,-143.519 1412.66,-137.571 1415.8,-147.688 1421.42,-143.519"/>
</g>
<!-- Node44&#45;&gt;Node51 -->
<g id="edge204" class="edge"><title>Node44&#45;&gt;Node51</title>
<path fill="none" stroke="midnightblue" d="M1427.02,-176.566C1404.12,-167.276 1366.91,-152.185 1339.56,-141.092"/>
<polygon fill="midnightblue" stroke="midnightblue" points="1340.56,-137.719 1329.98,-137.203 1337.93,-144.205 1340.56,-137.719"/>
</g>
<!-- Node46 -->
<g id="node138" class="node"><title>Node46</title>
<a xlink:href="string_8h.html" target="_top" xlink:title="base/std_ext/string.h">
<polygon fill="white" stroke="black" points="1644.82,-58.5 1644.82,-79.5 1752.82,-79.5 1752.82,-58.5 1644.82,-58.5"/>
<text text-anchor="middle" x="1698.82" y="-66.5" font-family="Helvetica,sans-Serif" font-size="10.00">base/std_ext/string.h</text>
</a>
</g>
<!-- Node45&#45;&gt;Node46 -->
<g id="edge184" class="edge"><title>Node45&#45;&gt;Node46</title>
<path fill="none" stroke="midnightblue" d="M1623.69,-116.362C1637.57,-107.614 1657.45,-95.0786 1673.28,-85.1015"/>
<polygon fill="midnightblue" stroke="midnightblue" points="1675.46,-87.8645 1682.05,-79.5707 1671.73,-81.943 1675.46,-87.8645"/>
</g>
<!-- Node48 -->
<g id="node144" class="node"><title>Node48</title>
<polygon fill="white" stroke="#bfbfbf" points="1580.82,-58.5 1580.82,-79.5 1626.82,-79.5 1626.82,-58.5 1580.82,-58.5"/>
<text text-anchor="middle" x="1603.82" y="-66.5" font-family="Helvetica,sans-Serif" font-size="10.00">cstring</text>
</g>
<!-- Node45&#45;&gt;Node48 -->
<g id="edge192" class="edge"><title>Node45&#45;&gt;Node48</title>
<path fill="none" stroke="midnightblue" d="M1606.27,-116.362C1605.88,-108.922 1605.36,-98.7427 1604.89,-89.7276"/>
<polygon fill="midnightblue" stroke="midnightblue" points="1608.38,-89.3765 1604.37,-79.5707 1601.39,-89.7381 1608.38,-89.3765"/>
</g>
<!-- Node45&#45;&gt;Node49 -->
<g id="edge194" class="edge"><title>Node45&#45;&gt;Node49</title>
<path fill="none" stroke="midnightblue" d="M1644,-116.498C1673.45,-108.009 1715.8,-95.419 1760.68,-80.2594"/>
<polygon fill="midnightblue" stroke="midnightblue" points="1761.95,-83.5235 1770.29,-76.986 1759.69,-76.8973 1761.95,-83.5235"/>
</g>
<!-- Node46&#45;&gt;Node7 -->
<g id="edge186" class="edge"><title>Node46&#45;&gt;Node7</title>
<path fill="none" stroke="midnightblue" d="M1753.07,-59.2626C1756.03,-58.8149 1758.96,-58.3904 1761.82,-58 1928.86,-35.203 2130.32,-19.0053 2206.55,-13.2769"/>
<polygon fill="midnightblue" stroke="midnightblue" points="2207.16,-16.7414 2216.87,-12.5082 2206.64,-9.76076 2207.16,-16.7414"/>
</g>
<!-- Node46&#45;&gt;Node9 -->
<g id="edge190" class="edge"><title>Node46&#45;&gt;Node9</title>
<path fill="none" stroke="midnightblue" d="M1705.42,-58.3619C1710.29,-50.5131 1717.06,-39.6159 1722.87,-30.2527"/>
<polygon fill="midnightblue" stroke="midnightblue" points="1725.96,-31.9129 1728.26,-21.5707 1720.01,-28.2213 1725.96,-31.9129"/>
</g>
<!-- Node47 -->
<g id="node141" class="node"><title>Node47</title>
<polygon fill="white" stroke="#bfbfbf" points="1636.82,-0.5 1636.82,-21.5 1688.82,-21.5 1688.82,-0.5 1636.82,-0.5"/>
<text text-anchor="middle" x="1662.82" y="-8.5" font-family="Helvetica,sans-Serif" font-size="10.00">sstream</text>
</g>
<!-- Node46&#45;&gt;Node47 -->
<g id="edge188" class="edge"><title>Node46&#45;&gt;Node47</title>
<path fill="none" stroke="midnightblue" d="M1692.22,-58.3619C1687.34,-50.5131 1680.58,-39.6159 1674.77,-30.2527"/>
<polygon fill="midnightblue" stroke="midnightblue" points="1677.63,-28.2213 1669.38,-21.5707 1671.68,-31.9129 1677.63,-28.2213"/>
</g>
<!-- Node52&#45;&gt;Node6 -->
<g id="edge232" class="edge"><title>Node52&#45;&gt;Node6</title>
<path fill="none" stroke="midnightblue" d="M1919.41,-116.462C1899.76,-100.493 1859.64,-70.6842 1819.82,-58 1753.08,-36.7419 1257.48,-17.0812 1125.19,-12.1711"/>
<polygon fill="midnightblue" stroke="midnightblue" points="1125.04,-8.6631 1114.92,-11.7923 1124.78,-15.6584 1125.04,-8.6631"/>
</g>
<!-- Node52&#45;&gt;Node32 -->
<g id="edge234" class="edge"><title>Node52&#45;&gt;Node32</title>
<path fill="none" stroke="midnightblue" d="M1863.09,-120.515C1755.37,-110.231 1553.52,-90.437 1492.95,-79.6378"/>
<polygon fill="midnightblue" stroke="midnightblue" points="1493.55,-76.1893 1483.06,-77.6668 1492.19,-83.0543 1493.55,-76.1893"/>
</g>
<!-- Node53&#45;&gt;Node7 -->
<g id="edge238" class="edge"><title>Node53&#45;&gt;Node7</title>
<path fill="none" stroke="midnightblue" d="M1805.97,-237.314C1909.2,-225.334 2139.38,-198.395 2142.82,-196 2200.09,-156.075 2225.04,-70.914 2233.83,-31.6331"/>
<polygon fill="midnightblue" stroke="midnightblue" points="2237.3,-32.1437 2235.93,-21.6374 2230.45,-30.7027 2237.3,-32.1437"/>
</g>
<!-- Node53&#45;&gt;Node18 -->
<g id="edge242" class="edge"><title>Node53&#45;&gt;Node18</title>
<path fill="none" stroke="midnightblue" d="M1750.4,-232.362C1745.66,-224.513 1739.09,-213.616 1733.44,-204.253"/>
<polygon fill="midnightblue" stroke="midnightblue" points="1736.36,-202.324 1728.2,-195.571 1730.37,-205.941 1736.36,-202.324"/>
</g>
<!-- Node53&#45;&gt;Node19 -->
<g id="edge240" class="edge"><title>Node53&#45;&gt;Node19</title>
<path fill="none" stroke="midnightblue" d="M1726.21,-232.497C1697.41,-222.613 1654.28,-207.809 1623.83,-197.361"/>
<polygon fill="midnightblue" stroke="midnightblue" points="1624.63,-193.933 1614.04,-193.998 1622.36,-200.554 1624.63,-193.933"/>
</g>
<!-- Node54&#45;&gt;Node7 -->
<g id="edge266" class="edge"><title>Node54&#45;&gt;Node7</title>
<path fill="none" stroke="midnightblue" d="M715.789,-356.373C598.668,-350.155 317.346,-333.436 224.818,-312 155.186,-295.868 118.215,-310.795 74.8184,-254 53.1705,-225.668 45.8955,-201.31 68.8184,-174 164.415,-60.1064 579.906,-73.2409 727.818,-58 879.768,-42.3431 2005.64,-16.2603 2207.03,-11.6929"/>
<polygon fill="midnightblue" stroke="midnightblue" points="2207.28,-15.1883 2217.19,-11.4628 2207.12,-8.19009 2207.28,-15.1883"/>
</g>
<!-- Node54&#45;&gt;Node28 -->
<g id="edge256" class="edge"><title>Node54&#45;&gt;Node28</title>
<path fill="none" stroke="midnightblue" d="M806.934,-348.497C842.758,-338.877 895.936,-324.598 934.626,-314.209"/>
<polygon fill="midnightblue" stroke="midnightblue" points="935.879,-317.497 944.629,-311.523 934.064,-310.736 935.879,-317.497"/>
</g>
<!-- Node54&#45;&gt;Node39 -->
<g id="edge268" class="edge"><title>Node54&#45;&gt;Node39</title>
<path fill="none" stroke="midnightblue" d="M715.526,-356.566C608.038,-351.128 365.748,-336.505 286.818,-312 235.903,-296.192 219.904,-291.306 181.818,-254 167.512,-239.987 156.604,-219.785 149.821,-204.859"/>
<polygon fill="midnightblue" stroke="midnightblue" points="152.964,-203.309 145.792,-195.51 146.535,-206.079 152.964,-203.309"/>
</g>
<!-- Node54&#45;&gt;Node55 -->
<g id="edge258" class="edge"><title>Node54&#45;&gt;Node55</title>
<path fill="none" stroke="midnightblue" d="M775.155,-348.362C780.624,-340.431 788.24,-329.389 794.742,-319.961"/>
<polygon fill="midnightblue" stroke="midnightblue" points="797.732,-321.79 800.528,-311.571 791.97,-317.816 797.732,-321.79"/>
</g>
<!-- Node55&#45;&gt;Node18 -->
<g id="edge264" class="edge"><title>Node55&#45;&gt;Node18</title>
<path fill="none" stroke="midnightblue" d="M869.486,-294.576C884.633,-293.038 900.809,-291.428 915.818,-290 1096.6,-272.799 1142.99,-279.238 1322.82,-254 1373.92,-246.828 1386.02,-241.088 1436.82,-232 1531.06,-215.138 1643.25,-197.286 1694.2,-189.299"/>
<polygon fill="midnightblue" stroke="midnightblue" points="1694.77,-192.752 1704.11,-187.748 1693.69,-185.836 1694.77,-192.752"/>
</g>
<!-- Node55&#45;&gt;Node36 -->
<g id="edge260" class="edge"><title>Node55&#45;&gt;Node36</title>
<path fill="none" stroke="midnightblue" d="M752.766,-290.497C700.094,-280.447 620.765,-265.312 565.875,-254.84"/>
<polygon fill="midnightblue" stroke="midnightblue" points="566.401,-251.377 555.923,-252.941 565.089,-258.253 566.401,-251.377"/>
</g>
<!-- Node55&#45;&gt;Node38 -->
<g id="edge262" class="edge"><title>Node55&#45;&gt;Node38</title>
<path fill="none" stroke="midnightblue" d="M864.681,-290.497C925.908,-279.187 1022,-261.437 1077.75,-251.14"/>
<polygon fill="midnightblue" stroke="midnightblue" points="1078.48,-254.565 1087.67,-249.307 1077.2,-247.682 1078.48,-254.565"/>
</g>
</g>
</svg>
