<?xml version="1.0" encoding="UTF-8" standalone="no"?>
<!DOCTYPE svg PUBLIC "-//W3C//DTD SVG 1.1//EN"
 "http://www.w3.org/Graphics/SVG/1.1/DTD/svg11.dtd">
<!-- Generated by graphviz version 2.26.3 (20100126.1600)
 -->
<!-- Title: src/analysis/physics/etaprime/etaprime_omega_gamma.h Pages: 1 -->
<svg width="140pt" height="140pt"
 viewBox="0.00 0.00 140.00 140.00" xmlns="http://www.w3.org/2000/svg" xmlns:xlink="http://www.w3.org/1999/xlink">
<g id="graph1" class="graph" transform="scale(1 1) rotate(0) translate(4 136)">
<title>src/analysis/physics/etaprime/etaprime_omega_gamma.h</title>
<polygon fill="white" stroke="white" points="-4,5 -4,-136 137,-136 137,5 -4,5"/>
<!-- Node1 -->
<g id="node1" class="node"><title>Node1</title>
<polygon fill="#bfbfbf" stroke="black" points="0,-84.5 0,-131.5 132,-131.5 132,-84.5 0,-84.5"/>
<text text-anchor="start" x="8" y="-118.5" font-family="Helvetica,sans-Serif" font-size="10.00">src/analysis/physics</text>
<text text-anchor="start" x="8" y="-105.5" font-family="Helvetica,sans-Serif" font-size="10.00">/etaprime/etaprime_omega</text>
<text text-anchor="middle" x="66" y="-92.5" font-family="Helvetica,sans-Serif" font-size="10.00">_gamma.h</text>
</g>
<!-- Node2 -->
<g id="node3" class="node"><title>Node2</title>
<a xlink:href="etaprime__omega__gamma_8cc.html" target="_top" xlink:title="src/analysis/physics\l/etaprime/etaprime_omega\l_gamma.cc">
<polygon fill="white" stroke="black" points="0,-0.5 0,-47.5 132,-47.5 132,-0.5 0,-0.5"/>
<text text-anchor="start" x="8" y="-34.5" font-family="Helvetica,sans-Serif" font-size="10.00">src/analysis/physics</text>
<text text-anchor="start" x="8" y="-21.5" font-family="Helvetica,sans-Serif" font-size="10.00">/etaprime/etaprime_omega</text>
<text text-anchor="middle" x="66" y="-8.5" font-family="Helvetica,sans-Serif" font-size="10.00">_gamma.cc</text>
</a>
</g>
<!-- Node1&#45;&gt;Node2 -->
<g id="edge2" class="edge"><title>Node1&#45;&gt;Node2</title>
<path fill="none" stroke="midnightblue" d="M66,-74.0664C66,-65.1933 66,-55.821 66,-47.6152"/>
<polygon fill="midnightblue" stroke="midnightblue" points="62.5001,-74.1536 66,-84.1537 69.5001,-74.1537 62.5001,-74.1536"/>
</g>
</g>
</svg>
