<?xml version="1.0" encoding="UTF-8" standalone="no"?>
<!DOCTYPE svg PUBLIC "-//W3C//DTD SVG 1.1//EN"
 "http://www.w3.org/Graphics/SVG/1.1/DTD/svg11.dtd">
<!-- Generated by graphviz version 2.26.3 (20100126.1600)
 -->
<!-- Title: Graphical Class Hierarchy Pages: 1 -->
<svg width="608pt" height="338pt"
 viewBox="0.00 0.00 608.00 338.00" xmlns="http://www.w3.org/2000/svg" xmlns:xlink="http://www.w3.org/1999/xlink">
<g id="graph1" class="graph" transform="scale(1 1) rotate(0) translate(4 334)">
<title>Graphical Class Hierarchy</title>
<polygon fill="white" stroke="white" points="-4,5 -4,-334 605,-334 605,5 -4,5"/>
<!-- Node1 -->
<g id="node1" class="node"><title>Node1</title>
<a xlink:title="STL class. ">
<polygon fill="white" stroke="#bfbfbf" points="0,-187.5 0,-208.5 78,-208.5 78,-187.5 0,-187.5"/>
<text text-anchor="middle" x="39" y="-195.5" font-family="Helvetica,sans-Serif" font-size="10.00">std::exception</text>
</a>
</g>
<!-- Node2 -->
<g id="node3" class="node"><title>Node2</title>
<a xlink:href="classant_1_1analysis_1_1uninitialized__histogram.html" target="_top" xlink:title="ant::analysis::uninitialized\l_histogram">
<polygon fill="white" stroke="black" points="114.5,-204 114.5,-238 243.5,-238 243.5,-204 114.5,-204"/>
<text text-anchor="start" x="122.5" y="-225" font-family="Helvetica,sans-Serif" font-size="10.00">ant::analysis::uninitialized</text>
<text text-anchor="middle" x="179" y="-212" font-family="Helvetica,sans-Serif" font-size="10.00">_histogram</text>
</a>
</g>
<!-- Node1&#45;&gt;Node2 -->
<g id="edge2" class="edge"><title>Node1&#45;&gt;Node2</title>
<path fill="none" stroke="midnightblue" d="M88.411,-206.118C96.8512,-207.504 105.73,-208.963 114.493,-210.402"/>
<polygon fill="midnightblue" stroke="midnightblue" points="88.8055,-202.635 78.3704,-204.468 87.6707,-209.543 88.8055,-202.635"/>
</g>
<!-- Node3 -->
<g id="node5" class="node"><title>Node3</title>
<a xlink:title="STL class. ">
<polygon fill="white" stroke="#bfbfbf" points="132.5,-164.5 132.5,-185.5 225.5,-185.5 225.5,-164.5 132.5,-164.5"/>
<text text-anchor="middle" x="179" y="-172.5" font-family="Helvetica,sans-Serif" font-size="10.00">std::runtime_error</text>
</a>
</g>
<!-- Node1&#45;&gt;Node3 -->
<g id="edge4" class="edge"><title>Node1&#45;&gt;Node3</title>
<path fill="none" stroke="midnightblue" d="M88.5251,-189.864C102.827,-187.514 118.38,-184.959 132.491,-182.641"/>
<polygon fill="midnightblue" stroke="midnightblue" points="87.6707,-186.457 78.3704,-191.532 88.8055,-193.365 87.6707,-186.457"/>
</g>
<!-- Node4 -->
<g id="node7" class="node"><title>Node4</title>
<a xlink:href="classant_1_1analysis_1_1input_1_1_data_reader_1_1_exception.html" target="_top" xlink:title="ant::analysis::input\l::DataReader::Exception">
<polygon fill="white" stroke="black" points="293.5,-296 293.5,-330 418.5,-330 418.5,-296 293.5,-296"/>
<text text-anchor="start" x="301.5" y="-317" font-family="Helvetica,sans-Serif" font-size="10.00">ant::analysis::input</text>
<text text-anchor="middle" x="356" y="-304" font-family="Helvetica,sans-Serif" font-size="10.00">::DataReader::Exception</text>
</a>
</g>
<!-- Node3&#45;&gt;Node4 -->
<g id="edge6" class="edge"><title>Node3&#45;&gt;Node4</title>
<path fill="none" stroke="midnightblue" d="M234.885,-188.26C238.162,-190.207 241.242,-192.44 244,-195 276.182,-224.87 248.287,-256.633 280,-287 283.928,-290.761 288.423,-293.98 293.222,-296.734"/>
<polygon fill="midnightblue" stroke="midnightblue" points="236.342,-185.076 225.831,-183.744 233.218,-191.34 236.342,-185.076"/>
</g>
<!-- Node5 -->
<g id="node9" class="node"><title>Node5</title>
<a xlink:href="classant_1_1analysis_1_1_physics_manager_1_1_exception.html" target="_top" xlink:title="ant::analysis::PhysicsManager\l::Exception">
<polygon fill="white" stroke="black" points="280.5,-244 280.5,-278 431.5,-278 431.5,-244 280.5,-244"/>
<text text-anchor="start" x="288.5" y="-265" font-family="Helvetica,sans-Serif" font-size="10.00">ant::analysis::PhysicsManager</text>
<text text-anchor="middle" x="356" y="-252" font-family="Helvetica,sans-Serif" font-size="10.00">::Exception</text>
</a>
</g>
<!-- Node3&#45;&gt;Node5 -->
<g id="edge8" class="edge"><title>Node3&#45;&gt;Node5</title>
<path fill="none" stroke="midnightblue" d="M233.934,-189.49C237.438,-191.144 240.828,-192.975 244,-195 264.159,-207.871 260.044,-221.817 280,-235 285.12,-238.382 290.724,-241.37 296.497,-243.998"/>
<polygon fill="midnightblue" stroke="midnightblue" points="235.037,-186.157 224.462,-185.515 232.329,-192.612 235.037,-186.157"/>
</g>
<!-- Node6 -->
<g id="node11" class="node"><title>Node6</title>
<a xlink:href="classant_1_1_detector__t_1_1_exception.html" target="_top" xlink:title="ant::Detector_t::Exception">
<polygon fill="white" stroke="black" points="290.5,-204.5 290.5,-225.5 421.5,-225.5 421.5,-204.5 290.5,-204.5"/>
<text text-anchor="middle" x="356" y="-212.5" font-family="Helvetica,sans-Serif" font-size="10.00">ant::Detector_t::Exception</text>
</a>
</g>
<!-- Node3&#45;&gt;Node6 -->
<g id="edge10" class="edge"><title>Node3&#45;&gt;Node6</title>
<path fill="none" stroke="#8b1a1a" d="M235.491,-187.766C259.363,-193.161 286.825,-199.367 309.499,-204.491"/>
<polygon fill="#8b1a1a" stroke="#8b1a1a" points="236.03,-184.3 225.505,-185.51 234.487,-191.128 236.03,-184.3"/>
</g>
<!-- Node7 -->
<g id="node13" class="node"><title>Node7</title>
<a xlink:href="classant_1_1_exp_config_1_1_exception.html" target="_top" xlink:title="ant::ExpConfig::Exception">
<polygon fill="white" stroke="black" points="290.5,-164.5 290.5,-185.5 421.5,-185.5 421.5,-164.5 290.5,-164.5"/>
<text text-anchor="middle" x="356" y="-172.5" font-family="Helvetica,sans-Serif" font-size="10.00">ant::ExpConfig::Exception</text>
</a>
</g>
<!-- Node3&#45;&gt;Node7 -->
<g id="edge12" class="edge"><title>Node3&#45;&gt;Node7</title>
<path fill="none" stroke="midnightblue" d="M235.992,-175C253.263,-175 272.375,-175 290.174,-175"/>
<polygon fill="midnightblue" stroke="midnightblue" points="235.505,-171.5 225.505,-175 235.505,-178.5 235.505,-171.5"/>
</g>
<!-- Node9 -->
<g id="node17" class="node"><title>Node9</title>
<a xlink:href="classant_1_1_raw_file_reader_1_1_exception.html" target="_top" xlink:title="ant::RawFileReader\l::Exception">
<polygon fill="white" stroke="black" points="304,-112 304,-146 408,-146 408,-112 304,-112"/>
<text text-anchor="start" x="312" y="-133" font-family="Helvetica,sans-Serif" font-size="10.00">ant::RawFileReader</text>
<text text-anchor="middle" x="356" y="-120" font-family="Helvetica,sans-Serif" font-size="10.00">::Exception</text>
</a>
</g>
<!-- Node3&#45;&gt;Node9 -->
<g id="edge16" class="edge"><title>Node3&#45;&gt;Node9</title>
<path fill="none" stroke="midnightblue" d="M229.302,-161.927C252.605,-155.871 280.28,-148.679 303.811,-142.563"/>
<polygon fill="midnightblue" stroke="midnightblue" points="228.405,-158.544 219.607,-164.447 230.166,-165.319 228.405,-158.544"/>
</g>
<!-- Node10 -->
<g id="node19" class="node"><title>Node10</title>
<a xlink:href="classant_1_1_reconstruct_1_1_exception.html" target="_top" xlink:title="ant::Reconstruct::Exception">
<polygon fill="white" stroke="black" points="286.5,-72.5 286.5,-93.5 425.5,-93.5 425.5,-72.5 286.5,-72.5"/>
<text text-anchor="middle" x="356" y="-80.5" font-family="Helvetica,sans-Serif" font-size="10.00">ant::Reconstruct::Exception</text>
</a>
</g>
<!-- Node3&#45;&gt;Node10 -->
<g id="edge18" class="edge"><title>Node3&#45;&gt;Node10</title>
<path fill="none" stroke="midnightblue" d="M198.65,-157.67C218.071,-141.381 249.257,-117.41 280,-103 288.03,-99.2361 296.882,-96.0942 305.621,-93.5011"/>
<polygon fill="midnightblue" stroke="midnightblue" points="196.17,-155.185 190.84,-164.341 200.717,-160.507 196.17,-155.185"/>
</g>
<!-- Node11 -->
<g id="node21" class="node"><title>Node11</title>
<a xlink:href="classant_1_1_unpacker_1_1_exception.html" target="_top" xlink:title="The Exception class is thrown if an unexpected error during unpacking occurs. ">
<polygon fill="white" stroke="black" points="292,-32.5 292,-53.5 420,-53.5 420,-32.5 292,-32.5"/>
<text text-anchor="middle" x="356" y="-40.5" font-family="Helvetica,sans-Serif" font-size="10.00">ant::Unpacker::Exception</text>
</a>
</g>
<!-- Node3&#45;&gt;Node11 -->
<g id="edge20" class="edge"><title>Node3&#45;&gt;Node11</title>
<path fill="none" stroke="midnightblue" d="M191.275,-155.48C208.159,-130.266 240.94,-86.7956 280,-63 286.292,-59.1669 293.311,-56.061 300.471,-53.5461"/>
<polygon fill="midnightblue" stroke="midnightblue" points="188.137,-153.884 185.602,-164.171 193.999,-157.71 188.137,-153.884"/>
</g>
<!-- Node8 -->
<g id="node15" class="node"><title>Node8</title>
<a xlink:href="classant_1_1_exp_config_1_1_exception_no_config.html" target="_top" xlink:title="ant::ExpConfig::Exception\lNoConfig">
<polygon fill="white" stroke="black" points="468.5,-158 468.5,-192 599.5,-192 599.5,-158 468.5,-158"/>
<text text-anchor="start" x="476.5" y="-179" font-family="Helvetica,sans-Serif" font-size="10.00">ant::ExpConfig::Exception</text>
<text text-anchor="middle" x="534" y="-166" font-family="Helvetica,sans-Serif" font-size="10.00">NoConfig</text>
</a>
</g>
<!-- Node7&#45;&gt;Node8 -->
<g id="edge14" class="edge"><title>Node7&#45;&gt;Node8</title>
<path fill="none" stroke="midnightblue" d="M431.662,-175C443.854,-175 456.387,-175 468.319,-175"/>
<polygon fill="midnightblue" stroke="midnightblue" points="431.522,-171.5 421.522,-175 431.522,-178.5 431.522,-171.5"/>
</g>
<!-- Node12 -->
<g id="node23" class="node"><title>Node12</title>
<a xlink:href="classant_1_1_unpacker_a2_geant_1_1_exception.html" target="_top" xlink:title="ant::UnpackerA2Geant\l::Exception">
<polygon fill="white" stroke="black" points="476,-52 476,-86 592,-86 592,-52 476,-52"/>
<text text-anchor="start" x="484" y="-73" font-family="Helvetica,sans-Serif" font-size="10.00">ant::UnpackerA2Geant</text>
<text text-anchor="middle" x="534" y="-60" font-family="Helvetica,sans-Serif" font-size="10.00">::Exception</text>
</a>
</g>
<!-- Node11&#45;&gt;Node12 -->
<g id="edge22" class="edge"><title>Node11&#45;&gt;Node12</title>
<path fill="none" stroke="midnightblue" d="M429.971,-53.8047C445.291,-56.0426 461.224,-58.3698 475.881,-60.5107"/>
<polygon fill="midnightblue" stroke="midnightblue" points="430.412,-50.332 420.011,-52.3499 429.4,-57.2585 430.412,-50.332"/>
</g>
<!-- Node13 -->
<g id="node25" class="node"><title>Node13</title>
<a xlink:href="classant_1_1_unpacker_acqu_1_1_exception.html" target="_top" xlink:title="ant::UnpackerAcqu::\lException">
<polygon fill="white" stroke="black" points="480.5,-0 480.5,-34 587.5,-34 587.5,-0 480.5,-0"/>
<text text-anchor="start" x="488.5" y="-21" font-family="Helvetica,sans-Serif" font-size="10.00">ant::UnpackerAcqu::</text>
<text text-anchor="middle" x="534" y="-8" font-family="Helvetica,sans-Serif" font-size="10.00">Exception</text>
</a>
</g>
<!-- Node11&#45;&gt;Node13 -->
<g id="edge24" class="edge"><title>Node11&#45;&gt;Node13</title>
<path fill="none" stroke="midnightblue" d="M430.322,-32.1439C447.067,-29.6981 464.524,-27.1481 480.235,-24.8533"/>
<polygon fill="midnightblue" stroke="midnightblue" points="429.4,-28.7415 420.011,-33.6501 430.412,-35.668 429.4,-28.7415"/>
</g>
</g>
</svg>
