<?xml version="1.0" encoding="UTF-8" standalone="no"?>
<!DOCTYPE svg PUBLIC "-//W3C//DTD SVG 1.1//EN"
 "http://www.w3.org/Graphics/SVG/1.1/DTD/svg11.dtd">
<!-- Generated by graphviz version 2.26.3 (20100126.1600)
 -->
<!-- Title: Graphical Class Hierarchy Pages: 1 -->
<svg width="892pt" height="94pt"
 viewBox="0.00 0.00 892.00 94.00" xmlns="http://www.w3.org/2000/svg" xmlns:xlink="http://www.w3.org/1999/xlink">
<g id="graph1" class="graph" transform="scale(1 1) rotate(0) translate(4 90)">
<title>Graphical Class Hierarchy</title>
<polygon fill="white" stroke="white" points="-4,5 -4,-90 889,-90 889,5 -4,5"/>
<!-- Node1 -->
<g id="node1" class="node"><title>Node1</title>
<a xlink:title="STL class. ">
<polygon fill="white" stroke="#bfbfbf" points="0.5,-32.5 0.5,-53.5 75.5,-53.5 75.5,-32.5 0.5,-32.5"/>
<text text-anchor="middle" x="38" y="-40.5" font-family="Helvetica,sans-Serif" font-size="10.00">std::ios_base</text>
</a>
</g>
<!-- Node2 -->
<g id="node3" class="node"><title>Node2</title>
<a xlink:title="STL class. ">
<polygon fill="white" stroke="#bfbfbf" points="112,-32.5 112,-53.5 228,-53.5 228,-32.5 112,-32.5"/>
<text text-anchor="middle" x="170" y="-40.5" font-family="Helvetica,sans-Serif" font-size="10.00">std::basic_ios&lt; Char &gt;</text>
</a>
</g>
<!-- Node1&#45;&gt;Node2 -->
<g id="edge2" class="edge"><title>Node1&#45;&gt;Node2</title>
<path fill="none" stroke="midnightblue" d="M85.9004,-43C94.3691,-43 103.269,-43 111.98,-43"/>
<polygon fill="midnightblue" stroke="midnightblue" points="85.8259,-39.5001 75.8259,-43 85.8259,-46.5001 85.8259,-39.5001"/>
</g>
<!-- Node3 -->
<g id="node5" class="node"><title>Node3</title>
<a xlink:title="STL class. ">
<polygon fill="white" stroke="#bfbfbf" points="265.5,-52 265.5,-86 362.5,-86 362.5,-52 265.5,-52"/>
<text text-anchor="start" x="273.5" y="-73" font-family="Helvetica,sans-Serif" font-size="10.00">std::basic_istream</text>
<text text-anchor="middle" x="314" y="-60" font-family="Helvetica,sans-Serif" font-size="10.00">&lt; Char &gt;</text>
</a>
</g>
<!-- Node2&#45;&gt;Node3 -->
<g id="edge4" class="edge"><title>Node2&#45;&gt;Node3</title>
<path fill="none" stroke="midnightblue" d="M238.074,-55.2911C247.272,-56.9518 256.555,-58.6281 265.322,-60.2109"/>
<polygon fill="midnightblue" stroke="midnightblue" points="238.618,-51.8329 228.155,-53.5003 237.374,-58.7215 238.618,-51.8329"/>
</g>
<!-- Node8 -->
<g id="node15" class="node"><title>Node8</title>
<a xlink:title="STL class. ">
<polygon fill="white" stroke="#bfbfbf" points="264,-0 264,-34 364,-34 364,-0 264,-0"/>
<text text-anchor="start" x="272" y="-21" font-family="Helvetica,sans-Serif" font-size="10.00">std::basic_ostream</text>
<text text-anchor="middle" x="314" y="-8" font-family="Helvetica,sans-Serif" font-size="10.00">&lt; Char &gt;</text>
</a>
</g>
<!-- Node2&#45;&gt;Node8 -->
<g id="edge14" class="edge"><title>Node2&#45;&gt;Node8</title>
<path fill="none" stroke="midnightblue" d="M238.26,-30.6753C246.921,-29.1115 255.655,-27.5345 263.958,-26.0354"/>
<polygon fill="midnightblue" stroke="midnightblue" points="237.374,-27.2785 228.155,-32.4997 238.618,-34.1672 237.374,-27.2785"/>
</g>
<!-- Node4 -->
<g id="node7" class="node"><title>Node4</title>
<a xlink:title="STL class. ">
<polygon fill="white" stroke="#bfbfbf" points="400,-26 400,-60 502,-60 502,-26 400,-26"/>
<text text-anchor="start" x="408" y="-47" font-family="Helvetica,sans-Serif" font-size="10.00">std::basic_iostream</text>
<text text-anchor="middle" x="451" y="-34" font-family="Helvetica,sans-Serif" font-size="10.00">&lt; Char &gt;</text>
</a>
</g>
<!-- Node3&#45;&gt;Node4 -->
<g id="edge6" class="edge"><title>Node3&#45;&gt;Node4</title>
<path fill="none" stroke="midnightblue" d="M372.694,-57.861C381.674,-56.1568 390.883,-54.409 399.688,-52.7381"/>
<polygon fill="midnightblue" stroke="midnightblue" points="371.859,-54.4569 362.687,-59.7602 373.164,-61.3342 371.859,-54.4569"/>
</g>
<!-- Node5 -->
<g id="node9" class="node"><title>Node5</title>
<a xlink:title="STL class. ">
<polygon fill="white" stroke="#bfbfbf" points="538.5,-26 538.5,-60 657.5,-60 657.5,-26 538.5,-26"/>
<text text-anchor="start" x="546.5" y="-47" font-family="Helvetica,sans-Serif" font-size="10.00">std::basic_stringstream</text>
<text text-anchor="middle" x="598" y="-34" font-family="Helvetica,sans-Serif" font-size="10.00">&lt; Char &gt;</text>
</a>
</g>
<!-- Node4&#45;&gt;Node5 -->
<g id="edge8" class="edge"><title>Node4&#45;&gt;Node5</title>
<path fill="none" stroke="midnightblue" d="M512.036,-43C520.703,-43 529.608,-43 538.25,-43"/>
<polygon fill="midnightblue" stroke="midnightblue" points="512.001,-39.5001 502.001,-43 512.001,-46.5001 512.001,-39.5001"/>
</g>
<!-- Node6 -->
<g id="node11" class="node"><title>Node6</title>
<a xlink:title="STL class. ">
<polygon fill="white" stroke="#bfbfbf" points="694,-32.5 694,-53.5 784,-53.5 784,-32.5 694,-32.5"/>
<text text-anchor="middle" x="739" y="-40.5" font-family="Helvetica,sans-Serif" font-size="10.00">std::stringstream</text>
</a>
</g>
<!-- Node5&#45;&gt;Node6 -->
<g id="edge10" class="edge"><title>Node5&#45;&gt;Node6</title>
<path fill="none" stroke="midnightblue" d="M667.998,-43C676.72,-43 685.451,-43 693.659,-43"/>
<polygon fill="midnightblue" stroke="midnightblue" points="667.797,-39.5001 657.797,-43 667.797,-46.5001 667.797,-39.5001"/>
</g>
<!-- Node7 -->
<g id="node13" class="node"><title>Node7</title>
<a xlink:href="struct_cut_stream.html" target="_top" xlink:title="CutStream">
<polygon fill="white" stroke="black" points="820,-32.5 820,-53.5 884,-53.5 884,-32.5 820,-32.5"/>
<text text-anchor="middle" x="852" y="-40.5" font-family="Helvetica,sans-Serif" font-size="10.00">CutStream</text>
</a>
</g>
<!-- Node6&#45;&gt;Node7 -->
<g id="edge12" class="edge"><title>Node6&#45;&gt;Node7</title>
<path fill="none" stroke="midnightblue" d="M794.475,-43C803.189,-43 811.936,-43 819.886,-43"/>
<polygon fill="midnightblue" stroke="midnightblue" points="794.31,-39.5001 784.31,-43 794.31,-46.5001 794.31,-39.5001"/>
</g>
<!-- Node8&#45;&gt;Node4 -->
<g id="edge16" class="edge"><title>Node8&#45;&gt;Node4</title>
<path fill="none" stroke="midnightblue" d="M374.176,-28.4203C382.741,-30.0457 391.482,-31.7045 399.852,-33.2931"/>
<polygon fill="midnightblue" stroke="midnightblue" points="374.713,-24.9598 364.236,-26.5338 373.408,-31.837 374.713,-24.9598"/>
</g>
</g>
</svg>
