<?xml version="1.0" encoding="UTF-8" standalone="no"?>
<!DOCTYPE svg PUBLIC "-//W3C//DTD SVG 1.1//EN"
 "http://www.w3.org/Graphics/SVG/1.1/DTD/svg11.dtd">
<!-- Generated by graphviz version 2.26.3 (20100126.1600)
 -->
<!-- Title: Graphical Class Hierarchy Pages: 1 -->
<svg width="446pt" height="1866pt"
 viewBox="0.00 0.00 446.00 1866.00" xmlns="http://www.w3.org/2000/svg" xmlns:xlink="http://www.w3.org/1999/xlink">
<g id="graph1" class="graph" transform="scale(1 1) rotate(0) translate(4 1862)">
<title>Graphical Class Hierarchy</title>
<polygon fill="white" stroke="white" points="-4,5 -4,-1862 443,-1862 443,5 -4,5"/>
<!-- Node1 -->
<g id="node1" class="node"><title>Node1</title>
<a xlink:href="classant_1_1analysis_1_1_physics.html" target="_top" xlink:title="ant::analysis::Physics">
<polygon fill="white" stroke="black" points="0.5,-906.5 0.5,-927.5 113.5,-927.5 113.5,-906.5 0.5,-906.5"/>
<text text-anchor="middle" x="57" y="-914.5" font-family="Helvetica,sans-Serif" font-size="10.00">ant::analysis::Physics</text>
</a>
</g>
<!-- Node2 -->
<g id="node3" class="node"><title>Node2</title>
<a xlink:href="classant_1_1analysis_1_1_basic.html" target="_top" xlink:title="ant::analysis::Basic">
<polygon fill="white" stroke="black" points="167.5,-1836.5 167.5,-1857.5 270.5,-1857.5 270.5,-1836.5 167.5,-1836.5"/>
<text text-anchor="middle" x="219" y="-1844.5" font-family="Helvetica,sans-Serif" font-size="10.00">ant::analysis::Basic</text>
</a>
</g>
<!-- Node1&#45;&gt;Node2 -->
<g id="edge2" class="edge"><title>Node1&#45;&gt;Node2</title>
<path fill="none" stroke="midnightblue" d="M57.7432,-937.633C62.5574,-1066.38 90.9968,-1756.27 150,-1827 154.634,-1832.55 160.71,-1836.62 167.337,-1839.58"/>
<polygon fill="midnightblue" stroke="midnightblue" points="61.2374,-937.406 57.3717,-927.542 54.2421,-937.664 61.2374,-937.406"/>
</g>
<!-- Node3 -->
<g id="node5" class="node"><title>Node3</title>
<a xlink:href="classant_1_1analysis_1_1physics_1_1_candidates_analysis.html" target="_top" xlink:title="ant::analysis::physics\l::CandidatesAnalysis">
<polygon fill="white" stroke="black" points="163,-1784 163,-1818 275,-1818 275,-1784 163,-1784"/>
<text text-anchor="start" x="171" y="-1805" font-family="Helvetica,sans-Serif" font-size="10.00">ant::analysis::physics</text>
<text text-anchor="middle" x="219" y="-1792" font-family="Helvetica,sans-Serif" font-size="10.00">::CandidatesAnalysis</text>
</a>
</g>
<!-- Node1&#45;&gt;Node3 -->
<g id="edge4" class="edge"><title>Node1&#45;&gt;Node3</title>
<path fill="none" stroke="midnightblue" d="M57.9684,-937.932C63.9155,-1062.83 96.9945,-1706.59 150,-1775 153.528,-1779.55 157.948,-1783.31 162.837,-1786.41"/>
<polygon fill="midnightblue" stroke="midnightblue" points="61.4572,-937.609 57.491,-927.785 54.4649,-937.938 61.4572,-937.609"/>
</g>
<!-- Node4 -->
<g id="node7" class="node"><title>Node4</title>
<a xlink:href="classant_1_1analysis_1_1physics_1_1_data_overview.html" target="_top" xlink:title="ant::analysis::physics\l::DataOverview">
<polygon fill="white" stroke="black" points="163,-1732 163,-1766 275,-1766 275,-1732 163,-1732"/>
<text text-anchor="start" x="171" y="-1753" font-family="Helvetica,sans-Serif" font-size="10.00">ant::analysis::physics</text>
<text text-anchor="middle" x="219" y="-1740" font-family="Helvetica,sans-Serif" font-size="10.00">::DataOverview</text>
</a>
</g>
<!-- Node1&#45;&gt;Node4 -->
<g id="edge6" class="edge"><title>Node1&#45;&gt;Node4</title>
<path fill="none" stroke="midnightblue" d="M58.1134,-937.773C64.7114,-1057.76 100.102,-1659.06 150,-1723 153.544,-1727.54 157.974,-1731.29 162.869,-1734.38"/>
<polygon fill="midnightblue" stroke="midnightblue" points="61.6034,-937.493 57.5652,-927.698 54.6137,-937.874 61.6034,-937.493"/>
</g>
<!-- Node5 -->
<g id="node9" class="node"><title>Node5</title>
<a xlink:href="classant_1_1analysis_1_1physics_1_1_debug_physics.html" target="_top" xlink:title="ant::analysis::physics\l::DebugPhysics">
<polygon fill="white" stroke="black" points="163,-1680 163,-1714 275,-1714 275,-1680 163,-1680"/>
<text text-anchor="start" x="171" y="-1701" font-family="Helvetica,sans-Serif" font-size="10.00">ant::analysis::physics</text>
<text text-anchor="middle" x="219" y="-1688" font-family="Helvetica,sans-Serif" font-size="10.00">::DebugPhysics</text>
</a>
</g>
<!-- Node1&#45;&gt;Node5 -->
<g id="edge8" class="edge"><title>Node1&#45;&gt;Node5</title>
<path fill="none" stroke="midnightblue" d="M58.2914,-937.846C65.6122,-1053.33 103.236,-1611.56 150,-1671 153.562,-1675.53 158.003,-1679.27 162.906,-1682.35"/>
<polygon fill="midnightblue" stroke="midnightblue" points="61.7649,-937.313 57.6452,-927.552 54.7787,-937.752 61.7649,-937.313"/>
</g>
<!-- Node6 -->
<g id="node11" class="node"><title>Node6</title>
<a xlink:href="classant_1_1analysis_1_1physics_1_1_debug_p_i_d_alignment.html" target="_top" xlink:title="ant::analysis::physics\l::DebugPIDAlignment">
<polygon fill="white" stroke="black" points="163,-1628 163,-1662 275,-1662 275,-1628 163,-1628"/>
<text text-anchor="start" x="171" y="-1649" font-family="Helvetica,sans-Serif" font-size="10.00">ant::analysis::physics</text>
<text text-anchor="middle" x="219" y="-1636" font-family="Helvetica,sans-Serif" font-size="10.00">::DebugPIDAlignment</text>
</a>
</g>
<!-- Node1&#45;&gt;Node6 -->
<g id="edge10" class="edge"><title>Node1&#45;&gt;Node6</title>
<path fill="none" stroke="midnightblue" d="M58.486,-937.779C66.554,-1048.28 106.345,-1564.02 150,-1619 153.582,-1623.51 158.037,-1627.24 162.947,-1630.32"/>
<polygon fill="midnightblue" stroke="midnightblue" points="61.9627,-937.329 57.7498,-927.608 54.9809,-937.835 61.9627,-937.329"/>
</g>
<!-- Node7 -->
<g id="node13" class="node"><title>Node7</title>
<a xlink:href="classant_1_1analysis_1_1physics_1_1_delta_plus_physics.html" target="_top" xlink:title="ant::analysis::physics\l::DeltaPlusPhysics">
<polygon fill="white" stroke="black" points="163,-1576 163,-1610 275,-1610 275,-1576 163,-1576"/>
<text text-anchor="start" x="171" y="-1597" font-family="Helvetica,sans-Serif" font-size="10.00">ant::analysis::physics</text>
<text text-anchor="middle" x="219" y="-1584" font-family="Helvetica,sans-Serif" font-size="10.00">::DeltaPlusPhysics</text>
</a>
</g>
<!-- Node1&#45;&gt;Node7 -->
<g id="edge12" class="edge"><title>Node1&#45;&gt;Node7</title>
<path fill="none" stroke="midnightblue" d="M57.2143,-937.815C58.6425,-1037.64 69.4472,-1466.63 150,-1567 153.606,-1571.49 158.076,-1575.21 162.995,-1578.28"/>
<polygon fill="midnightblue" stroke="midnightblue" points="60.7137,-937.733 57.0875,-927.778 53.7142,-937.822 60.7137,-937.733"/>
</g>
<!-- Node8 -->
<g id="node15" class="node"><title>Node8</title>
<a xlink:href="classant_1_1analysis_1_1physics_1_1_delta_tree_generator.html" target="_top" xlink:title="ant::analysis::physics\l::DeltaTreeGenerator">
<polygon fill="white" stroke="black" points="163,-1524 163,-1558 275,-1558 275,-1524 163,-1524"/>
<text text-anchor="start" x="171" y="-1545" font-family="Helvetica,sans-Serif" font-size="10.00">ant::analysis::physics</text>
<text text-anchor="middle" x="219" y="-1532" font-family="Helvetica,sans-Serif" font-size="10.00">::DeltaTreeGenerator</text>
</a>
</g>
<!-- Node1&#45;&gt;Node8 -->
<g id="edge14" class="edge"><title>Node1&#45;&gt;Node8</title>
<path fill="none" stroke="midnightblue" d="M57.5038,-937.93C60.1921,-1033.01 75.6651,-1423.52 150,-1515 153.552,-1519.37 157.921,-1523.01 162.722,-1526.03"/>
<polygon fill="midnightblue" stroke="midnightblue" points="61.0002,-937.744 57.2362,-927.84 54.0026,-937.929 61.0002,-937.744"/>
</g>
<!-- Node9 -->
<g id="node17" class="node"><title>Node9</title>
<a xlink:href="classant_1_1analysis_1_1physics_1_1_etap3pi0.html" target="_top" xlink:title="ant::analysis::physics\l::Etap3pi0">
<polygon fill="white" stroke="black" points="163,-1472 163,-1506 275,-1506 275,-1472 163,-1472"/>
<text text-anchor="start" x="171" y="-1493" font-family="Helvetica,sans-Serif" font-size="10.00">ant::analysis::physics</text>
<text text-anchor="middle" x="219" y="-1480" font-family="Helvetica,sans-Serif" font-size="10.00">::Etap3pi0</text>
</a>
</g>
<!-- Node1&#45;&gt;Node9 -->
<g id="edge16" class="edge"><title>Node1&#45;&gt;Node9</title>
<path fill="none" stroke="midnightblue" d="M57.8393,-937.799C61.852,-1027.48 81.8,-1380.3 150,-1463 153.584,-1467.35 157.974,-1470.97 162.787,-1473.98"/>
<polygon fill="midnightblue" stroke="midnightblue" points="61.3348,-937.619 57.4093,-927.778 54.3413,-937.919 61.3348,-937.619"/>
</g>
<!-- Node10 -->
<g id="node19" class="node"><title>Node10</title>
<a xlink:href="classant_1_1analysis_1_1physics_1_1_etap3pi0__test.html" target="_top" xlink:title="ant::analysis::physics\l::Etap3pi0_test">
<polygon fill="white" stroke="black" points="163,-1420 163,-1454 275,-1454 275,-1420 163,-1420"/>
<text text-anchor="start" x="171" y="-1441" font-family="Helvetica,sans-Serif" font-size="10.00">ant::analysis::physics</text>
<text text-anchor="middle" x="219" y="-1428" font-family="Helvetica,sans-Serif" font-size="10.00">::Etap3pi0_test</text>
</a>
</g>
<!-- Node1&#45;&gt;Node10 -->
<g id="edge18" class="edge"><title>Node1&#45;&gt;Node10</title>
<path fill="none" stroke="midnightblue" d="M58.2391,-937.661C63.6677,-1021.72 87.9124,-1337.03 150,-1411 153.621,-1415.31 158.036,-1418.91 162.864,-1421.92"/>
<polygon fill="midnightblue" stroke="midnightblue" points="61.7262,-937.343 57.6079,-927.582 54.7398,-937.781 61.7262,-937.343"/>
</g>
<!-- Node11 -->
<g id="node21" class="node"><title>Node11</title>
<a xlink:href="classant_1_1analysis_1_1physics_1_1_etap_omega_g.html" target="_top" xlink:title="ant::analysis::physics\l::EtapOmegaG">
<polygon fill="white" stroke="black" points="163,-1368 163,-1402 275,-1402 275,-1368 163,-1368"/>
<text text-anchor="start" x="171" y="-1389" font-family="Helvetica,sans-Serif" font-size="10.00">ant::analysis::physics</text>
<text text-anchor="middle" x="219" y="-1376" font-family="Helvetica,sans-Serif" font-size="10.00">::EtapOmegaG</text>
</a>
</g>
<!-- Node1&#45;&gt;Node11 -->
<g id="edge20" class="edge"><title>Node1&#45;&gt;Node11</title>
<path fill="none" stroke="midnightblue" d="M58.7425,-937.71C65.7252,-1016.14 94.0449,-1293.76 150,-1359 153.667,-1363.28 158.112,-1366.85 162.958,-1369.84"/>
<polygon fill="midnightblue" stroke="midnightblue" points="62.2195,-937.292 57.8663,-927.633 55.2458,-937.899 62.2195,-937.292"/>
</g>
<!-- Node12 -->
<g id="node23" class="node"><title>Node12</title>
<a xlink:href="classant_1_1analysis_1_1physics_1_1_extract_timings.html" target="_top" xlink:title="ant::analysis::physics\l::ExtractTimings">
<polygon fill="white" stroke="black" points="163,-1316 163,-1350 275,-1350 275,-1316 163,-1316"/>
<text text-anchor="start" x="171" y="-1337" font-family="Helvetica,sans-Serif" font-size="10.00">ant::analysis::physics</text>
<text text-anchor="middle" x="219" y="-1324" font-family="Helvetica,sans-Serif" font-size="10.00">::ExtractTimings</text>
</a>
</g>
<!-- Node1&#45;&gt;Node12 -->
<g id="edge22" class="edge"><title>Node1&#45;&gt;Node12</title>
<path fill="none" stroke="midnightblue" d="M59.4108,-938.03C68.1365,-1010.79 100.206,-1250.48 150,-1307 153.639,-1311.13 158.002,-1314.61 162.744,-1317.53"/>
<polygon fill="midnightblue" stroke="midnightblue" points="62.8563,-937.362 58.2116,-927.839 55.9043,-938.18 62.8563,-937.362"/>
</g>
<!-- Node13 -->
<g id="node25" class="node"><title>Node13</title>
<a xlink:href="classant_1_1analysis_1_1physics_1_1_geo_acceptance.html" target="_top" xlink:title="ant::analysis::physics\l::GeoAcceptance">
<polygon fill="white" stroke="black" points="163,-1264 163,-1298 275,-1298 275,-1264 163,-1264"/>
<text text-anchor="start" x="171" y="-1285" font-family="Helvetica,sans-Serif" font-size="10.00">ant::analysis::physics</text>
<text text-anchor="middle" x="219" y="-1272" font-family="Helvetica,sans-Serif" font-size="10.00">::GeoAcceptance</text>
</a>
</g>
<!-- Node1&#45;&gt;Node13 -->
<g id="edge24" class="edge"><title>Node1&#45;&gt;Node13</title>
<path fill="none" stroke="midnightblue" d="M60.1976,-937.755C70.7318,-1003.71 106.188,-1206.97 150,-1255 153.71,-1259.07 158.12,-1262.5 162.89,-1265.4"/>
<polygon fill="midnightblue" stroke="midnightblue" points="63.6343,-937.078 58.6227,-927.744 56.7194,-938.166 63.6343,-937.078"/>
</g>
<!-- Node14 -->
<g id="node27" class="node"><title>Node14</title>
<a xlink:href="classant_1_1analysis_1_1physics_1_1_i_m_plots.html" target="_top" xlink:title="ant::analysis::physics\l::IMPlots">
<polygon fill="white" stroke="black" points="163,-1212 163,-1246 275,-1246 275,-1212 163,-1212"/>
<text text-anchor="start" x="171" y="-1233" font-family="Helvetica,sans-Serif" font-size="10.00">ant::analysis::physics</text>
<text text-anchor="middle" x="219" y="-1220" font-family="Helvetica,sans-Serif" font-size="10.00">::IMPlots</text>
</a>
</g>
<!-- Node1&#45;&gt;Node14 -->
<g id="edge26" class="edge"><title>Node1&#45;&gt;Node14</title>
<path fill="none" stroke="midnightblue" d="M57.8437,-938.022C61.0484,-990.007 76.4112,-1125.95 150,-1203 153.713,-1206.89 158.066,-1210.2 162.747,-1213.02"/>
<polygon fill="midnightblue" stroke="midnightblue" points="61.323,-937.533 57.3053,-927.73 54.3326,-937.899 61.323,-937.533"/>
</g>
<!-- Node15 -->
<g id="node29" class="node"><title>Node15</title>
<a xlink:href="classant_1_1analysis_1_1physics_1_1_m_c_smearing.html" target="_top" xlink:title="ant::analysis::physics\l::MCSmearing">
<polygon fill="white" stroke="black" points="163,-1160 163,-1194 275,-1194 275,-1160 163,-1160"/>
<text text-anchor="start" x="171" y="-1181" font-family="Helvetica,sans-Serif" font-size="10.00">ant::analysis::physics</text>
<text text-anchor="middle" x="219" y="-1168" font-family="Helvetica,sans-Serif" font-size="10.00">::MCSmearing</text>
</a>
</g>
<!-- Node1&#45;&gt;Node15 -->
<g id="edge28" class="edge"><title>Node1&#45;&gt;Node15</title>
<path fill="none" stroke="midnightblue" d="M59.5355,-937.485C66.1385,-982.321 87.8974,-1090 150,-1151 153.744,-1154.68 158.059,-1157.84 162.666,-1160.57"/>
<polygon fill="midnightblue" stroke="midnightblue" points="62.9935,-936.939 58.168,-927.507 56.0583,-937.89 62.9935,-936.939"/>
</g>
<!-- Node16 -->
<g id="node31" class="node"><title>Node16</title>
<a xlink:href="classant_1_1analysis_1_1physics_1_1_mc_true3_pi0.html" target="_top" xlink:title="ant::analysis::physics\l::McTrue3Pi0">
<polygon fill="white" stroke="black" points="163,-1108 163,-1142 275,-1142 275,-1108 163,-1108"/>
<text text-anchor="start" x="171" y="-1129" font-family="Helvetica,sans-Serif" font-size="10.00">ant::analysis::physics</text>
<text text-anchor="middle" x="219" y="-1116" font-family="Helvetica,sans-Serif" font-size="10.00">::McTrue3Pi0</text>
</a>
</g>
<!-- Node1&#45;&gt;Node16 -->
<g id="edge30" class="edge"><title>Node1&#45;&gt;Node16</title>
<path fill="none" stroke="midnightblue" d="M62.1474,-937.429C72.5333,-974.644 99.4338,-1053.8 150,-1099 153.818,-1102.41 158.127,-1105.39 162.681,-1107.99"/>
<polygon fill="midnightblue" stroke="midnightblue" points="65.5124,-936.464 59.5477,-927.707 58.75,-938.272 65.5124,-936.464"/>
</g>
<!-- Node17 -->
<g id="node33" class="node"><title>Node17</title>
<a xlink:href="classant_1_1analysis_1_1physics_1_1_m_c_true_acceptance.html" target="_top" xlink:title="ant::analysis::physics\l::MCTrueAcceptance">
<polygon fill="white" stroke="black" points="163,-1056 163,-1090 275,-1090 275,-1056 163,-1056"/>
<text text-anchor="start" x="171" y="-1077" font-family="Helvetica,sans-Serif" font-size="10.00">ant::analysis::physics</text>
<text text-anchor="middle" x="219" y="-1064" font-family="Helvetica,sans-Serif" font-size="10.00">::MCTrueAcceptance</text>
</a>
</g>
<!-- Node1&#45;&gt;Node17 -->
<g id="edge32" class="edge"><title>Node1&#45;&gt;Node17</title>
<path fill="none" stroke="midnightblue" d="M66.4851,-936.987C80.8308,-965.229 110.606,-1016.74 150,-1047 154.365,-1050.35 159.211,-1053.31 164.252,-1055.92"/>
<polygon fill="midnightblue" stroke="midnightblue" points="69.474,-935.135 61.9087,-927.718 63.1972,-938.234 69.474,-935.135"/>
</g>
<!-- Node18 -->
<g id="node35" class="node"><title>Node18</title>
<a xlink:href="classant_1_1analysis_1_1physics_1_1_omega_base.html" target="_top" xlink:title="ant::analysis::physics\l::OmegaBase">
<polygon fill="white" stroke="black" points="163,-1004 163,-1038 275,-1038 275,-1004 163,-1004"/>
<text text-anchor="start" x="171" y="-1025" font-family="Helvetica,sans-Serif" font-size="10.00">ant::analysis::physics</text>
<text text-anchor="middle" x="219" y="-1012" font-family="Helvetica,sans-Serif" font-size="10.00">::OmegaBase</text>
</a>
</g>
<!-- Node1&#45;&gt;Node18 -->
<g id="edge34" class="edge"><title>Node1&#45;&gt;Node18</title>
<path fill="none" stroke="midnightblue" d="M74.582,-934.924C92.3164,-952.193 121.132,-978.119 150,-995 155.525,-998.231 161.525,-1001.19 167.602,-1003.86"/>
<polygon fill="midnightblue" stroke="midnightblue" points="76.82,-932.214 67.2531,-927.662 71.893,-937.187 76.82,-932.214"/>
</g>
<!-- Node21 -->
<g id="node41" class="node"><title>Node21</title>
<a xlink:href="classant_1_1analysis_1_1physics_1_1_omega_m_c_tree.html" target="_top" xlink:title="ant::analysis::physics\l::OmegaMCTree">
<polygon fill="white" stroke="black" points="163,-952 163,-986 275,-986 275,-952 163,-952"/>
<text text-anchor="start" x="171" y="-973" font-family="Helvetica,sans-Serif" font-size="10.00">ant::analysis::physics</text>
<text text-anchor="middle" x="219" y="-960" font-family="Helvetica,sans-Serif" font-size="10.00">::OmegaMCTree</text>
</a>
</g>
<!-- Node1&#45;&gt;Node21 -->
<g id="edge40" class="edge"><title>Node1&#45;&gt;Node21</title>
<path fill="none" stroke="midnightblue" d="M99.3918,-930.607C119.723,-937.133 144.29,-945.019 165.857,-951.942"/>
<polygon fill="midnightblue" stroke="midnightblue" points="100.374,-927.247 89.7831,-927.523 98.2349,-933.912 100.374,-927.247"/>
</g>
<!-- Node22 -->
<g id="node43" class="node"><title>Node22</title>
<a xlink:href="classant_1_1analysis_1_1physics_1_1_omega_m_c_true_plots.html" target="_top" xlink:title="ant::analysis::physics\l::OmegaMCTruePlots">
<polygon fill="white" stroke="black" points="163,-900 163,-934 275,-934 275,-900 163,-900"/>
<text text-anchor="start" x="171" y="-921" font-family="Helvetica,sans-Serif" font-size="10.00">ant::analysis::physics</text>
<text text-anchor="middle" x="219" y="-908" font-family="Helvetica,sans-Serif" font-size="10.00">::OmegaMCTruePlots</text>
</a>
</g>
<!-- Node1&#45;&gt;Node22 -->
<g id="edge42" class="edge"><title>Node1&#45;&gt;Node22</title>
<path fill="none" stroke="midnightblue" d="M123.923,-917C136.887,-917 150.347,-917 162.919,-917"/>
<polygon fill="midnightblue" stroke="midnightblue" points="123.66,-913.5 113.66,-917 123.66,-920.5 123.66,-913.5"/>
</g>
<!-- Node23 -->
<g id="node45" class="node"><title>Node23</title>
<a xlink:href="classant_1_1analysis_1_1physics_1_1_particle_combinatorics_test.html" target="_top" xlink:title="ant::analysis::physics\l::ParticleCombinatoricsTest">
<polygon fill="white" stroke="black" points="150,-848 150,-882 288,-882 288,-848 150,-848"/>
<text text-anchor="start" x="158" y="-869" font-family="Helvetica,sans-Serif" font-size="10.00">ant::analysis::physics</text>
<text text-anchor="middle" x="219" y="-856" font-family="Helvetica,sans-Serif" font-size="10.00">::ParticleCombinatoricsTest</text>
</a>
</g>
<!-- Node1&#45;&gt;Node23 -->
<g id="edge44" class="edge"><title>Node1&#45;&gt;Node23</title>
<path fill="none" stroke="midnightblue" d="M99.3918,-903.393C119.723,-896.867 144.29,-888.981 165.857,-882.058"/>
<polygon fill="midnightblue" stroke="midnightblue" points="98.2349,-900.088 89.7831,-906.477 100.374,-906.753 98.2349,-900.088"/>
</g>
<!-- Node24 -->
<g id="node47" class="node"><title>Node24</title>
<a xlink:href="classant_1_1analysis_1_1physics_1_1_particle_i_d_check.html" target="_top" xlink:title="ant::analysis::physics\l::ParticleIDCheck">
<polygon fill="white" stroke="black" points="163,-796 163,-830 275,-830 275,-796 163,-796"/>
<text text-anchor="start" x="171" y="-817" font-family="Helvetica,sans-Serif" font-size="10.00">ant::analysis::physics</text>
<text text-anchor="middle" x="219" y="-804" font-family="Helvetica,sans-Serif" font-size="10.00">::ParticleIDCheck</text>
</a>
</g>
<!-- Node1&#45;&gt;Node24 -->
<g id="edge46" class="edge"><title>Node1&#45;&gt;Node24</title>
<path fill="none" stroke="midnightblue" d="M74.582,-899.076C92.3164,-881.807 121.132,-855.881 150,-839 155.525,-835.769 161.525,-832.808 167.602,-830.136"/>
<polygon fill="midnightblue" stroke="midnightblue" points="71.893,-896.813 67.2531,-906.338 76.82,-901.786 71.893,-896.813"/>
</g>
<!-- Node25 -->
<g id="node49" class="node"><title>Node25</title>
<a xlink:href="classant_1_1analysis_1_1physics_1_1_proton_check.html" target="_top" xlink:title="ant::analysis::physics\l::ProtonCheck">
<polygon fill="white" stroke="black" points="163,-744 163,-778 275,-778 275,-744 163,-744"/>
<text text-anchor="start" x="171" y="-765" font-family="Helvetica,sans-Serif" font-size="10.00">ant::analysis::physics</text>
<text text-anchor="middle" x="219" y="-752" font-family="Helvetica,sans-Serif" font-size="10.00">::ProtonCheck</text>
</a>
</g>
<!-- Node1&#45;&gt;Node25 -->
<g id="edge48" class="edge"><title>Node1&#45;&gt;Node25</title>
<path fill="none" stroke="midnightblue" d="M66.4851,-897.013C80.8308,-868.771 110.606,-817.265 150,-787 154.365,-783.646 159.211,-780.686 164.252,-778.081"/>
<polygon fill="midnightblue" stroke="midnightblue" points="63.1972,-895.766 61.9087,-906.282 69.474,-898.865 63.1972,-895.766"/>
</g>
<!-- Node26 -->
<g id="node51" class="node"><title>Node26</title>
<a xlink:href="classant_1_1analysis_1_1physics_1_1_proton_tagger.html" target="_top" xlink:title="ant::analysis::physics\l::ProtonTagger">
<polygon fill="white" stroke="black" points="163,-692 163,-726 275,-726 275,-692 163,-692"/>
<text text-anchor="start" x="171" y="-713" font-family="Helvetica,sans-Serif" font-size="10.00">ant::analysis::physics</text>
<text text-anchor="middle" x="219" y="-700" font-family="Helvetica,sans-Serif" font-size="10.00">::ProtonTagger</text>
</a>
</g>
<!-- Node1&#45;&gt;Node26 -->
<g id="edge50" class="edge"><title>Node1&#45;&gt;Node26</title>
<path fill="none" stroke="midnightblue" d="M62.1474,-896.571C72.5333,-859.356 99.4338,-780.196 150,-735 153.818,-731.588 158.127,-728.607 162.681,-726.006"/>
<polygon fill="midnightblue" stroke="midnightblue" points="58.75,-895.728 59.5477,-906.293 65.5124,-897.536 58.75,-895.728"/>
</g>
<!-- Node27 -->
<g id="node53" class="node"><title>Node27</title>
<a xlink:href="classant_1_1analysis_1_1physics_1_1_reconstruct_check.html" target="_top" xlink:title="ant::analysis::physics\l::ReconstructCheck">
<polygon fill="white" stroke="black" points="163,-640 163,-674 275,-674 275,-640 163,-640"/>
<text text-anchor="start" x="171" y="-661" font-family="Helvetica,sans-Serif" font-size="10.00">ant::analysis::physics</text>
<text text-anchor="middle" x="219" y="-648" font-family="Helvetica,sans-Serif" font-size="10.00">::ReconstructCheck</text>
</a>
</g>
<!-- Node1&#45;&gt;Node27 -->
<g id="edge52" class="edge"><title>Node1&#45;&gt;Node27</title>
<path fill="none" stroke="midnightblue" d="M59.5355,-896.515C66.1385,-851.679 87.8974,-743.999 150,-683 153.744,-679.322 158.059,-676.155 162.666,-673.43"/>
<polygon fill="midnightblue" stroke="midnightblue" points="56.0583,-896.11 58.168,-906.493 62.9935,-897.061 56.0583,-896.11"/>
</g>
<!-- Node28 -->
<g id="node55" class="node"><title>Node28</title>
<a xlink:href="classant_1_1analysis_1_1physics_1_1_test_a_p_l_c_o_n.html" target="_top" xlink:title="ant::analysis::physics\l::TestAPLCON">
<polygon fill="white" stroke="black" points="163,-588 163,-622 275,-622 275,-588 163,-588"/>
<text text-anchor="start" x="171" y="-609" font-family="Helvetica,sans-Serif" font-size="10.00">ant::analysis::physics</text>
<text text-anchor="middle" x="219" y="-596" font-family="Helvetica,sans-Serif" font-size="10.00">::TestAPLCON</text>
</a>
</g>
<!-- Node1&#45;&gt;Node28 -->
<g id="edge54" class="edge"><title>Node1&#45;&gt;Node28</title>
<path fill="none" stroke="midnightblue" d="M57.8437,-895.978C61.0484,-843.993 76.4112,-708.052 150,-631 153.713,-627.112 158.066,-623.8 162.747,-620.979"/>
<polygon fill="midnightblue" stroke="midnightblue" points="54.3326,-896.101 57.3053,-906.27 61.323,-896.467 54.3326,-896.101"/>
</g>
<!-- Node29 -->
<g id="node57" class="node"><title>Node29</title>
<a xlink:href="classant_1_1analysis_1_1physics_1_1_t_p_c___physics_stats.html" target="_top" xlink:title="Physics class to investigate angular distributions of charged particles. Intended for studies of cove...">
<polygon fill="white" stroke="black" points="163,-536 163,-570 275,-570 275,-536 163,-536"/>
<text text-anchor="start" x="171" y="-557" font-family="Helvetica,sans-Serif" font-size="10.00">ant::analysis::physics</text>
<text text-anchor="middle" x="219" y="-544" font-family="Helvetica,sans-Serif" font-size="10.00">::TPC_PhysicsStats</text>
</a>
</g>
<!-- Node1&#45;&gt;Node29 -->
<g id="edge56" class="edge"><title>Node1&#45;&gt;Node29</title>
<path fill="none" stroke="midnightblue" d="M60.1976,-896.245C70.7318,-830.294 106.188,-627.033 150,-579 153.71,-574.933 158.12,-571.499 162.89,-568.599"/>
<polygon fill="midnightblue" stroke="midnightblue" points="56.7194,-895.834 58.6227,-906.256 63.6343,-896.922 56.7194,-895.834"/>
</g>
<!-- Node30 -->
<g id="node59" class="node"><title>Node30</title>
<a xlink:href="classant_1_1analysis_1_1_reco_check.html" target="_top" xlink:title="ant::analysis::RecoCheck">
<polygon fill="white" stroke="black" points="154,-496.5 154,-517.5 284,-517.5 284,-496.5 154,-496.5"/>
<text text-anchor="middle" x="219" y="-504.5" font-family="Helvetica,sans-Serif" font-size="10.00">ant::analysis::RecoCheck</text>
</a>
</g>
<!-- Node1&#45;&gt;Node30 -->
<g id="edge58" class="edge"><title>Node1&#45;&gt;Node30</title>
<path fill="none" stroke="midnightblue" d="M59.2013,-896.306C67.3309,-823.65 97.9196,-581.644 150,-527 153.614,-523.208 157.899,-520.122 162.539,-517.612"/>
<polygon fill="midnightblue" stroke="midnightblue" points="55.699,-896.137 58.0896,-906.459 62.6574,-896.899 55.699,-896.137"/>
</g>
<!-- Node31 -->
<g id="node61" class="node"><title>Node31</title>
<a xlink:href="classant_1_1analysis_1_1_split_check.html" target="_top" xlink:title="ant::analysis::SplitCheck">
<polygon fill="white" stroke="black" points="156,-456.5 156,-477.5 282,-477.5 282,-456.5 156,-456.5"/>
<text text-anchor="middle" x="219" y="-464.5" font-family="Helvetica,sans-Serif" font-size="10.00">ant::analysis::SplitCheck</text>
</a>
</g>
<!-- Node1&#45;&gt;Node31 -->
<g id="edge60" class="edge"><title>Node1&#45;&gt;Node31</title>
<path fill="none" stroke="midnightblue" d="M58.7147,-896.208C65.511,-818.723 93.0073,-548.075 150,-487 153.574,-483.17 157.832,-480.059 162.454,-477.533"/>
<polygon fill="midnightblue" stroke="midnightblue" points="55.2259,-895.929 57.8611,-906.191 62.2004,-896.525 55.2259,-895.929"/>
</g>
<!-- Node32 -->
<g id="node63" class="node"><title>Node32</title>
<a xlink:href="structant_1_1calibration_1_1_c_b___energy_1_1_the_physics.html" target="_top" xlink:title="ant::calibration::CB\l_Energy::ThePhysics">
<polygon fill="white" stroke="black" points="164,-404 164,-438 274,-438 274,-404 164,-404"/>
<text text-anchor="start" x="172" y="-425" font-family="Helvetica,sans-Serif" font-size="10.00">ant::calibration::CB</text>
<text text-anchor="middle" x="219" y="-412" font-family="Helvetica,sans-Serif" font-size="10.00">_Energy::ThePhysics</text>
</a>
</g>
<!-- Node1&#45;&gt;Node32 -->
<g id="edge62" class="edge"><title>Node1&#45;&gt;Node32</title>
<path fill="none" stroke="midnightblue" d="M58.4789,-896.035C64.6476,-814.134 90.8145,-516.856 150,-447 153.889,-442.409 158.676,-438.628 163.9,-435.514"/>
<polygon fill="midnightblue" stroke="midnightblue" points="54.9804,-895.887 57.7398,-906.116 61.9617,-896.399 54.9804,-895.887"/>
</g>
<!-- Node33 -->
<g id="node65" class="node"><title>Node33</title>
<a xlink:href="classant_1_1calibration_1_1_c_b___time_walk_1_1_the_physics.html" target="_top" xlink:title="ant::calibration::CB\l_TimeWalk::ThePhysics">
<polygon fill="white" stroke="black" points="157,-352 157,-386 281,-386 281,-352 157,-352"/>
<text text-anchor="start" x="165" y="-373" font-family="Helvetica,sans-Serif" font-size="10.00">ant::calibration::CB</text>
<text text-anchor="middle" x="219" y="-360" font-family="Helvetica,sans-Serif" font-size="10.00">_TimeWalk::ThePhysics</text>
</a>
</g>
<!-- Node1&#45;&gt;Node33 -->
<g id="edge64" class="edge"><title>Node1&#45;&gt;Node33</title>
<path fill="none" stroke="midnightblue" d="M58.0278,-896.018C62.7097,-808.52 84.6853,-473.595 150,-395 152.782,-391.653 156.042,-388.736 159.604,-386.194"/>
<polygon fill="midnightblue" stroke="midnightblue" points="54.5193,-896.095 57.4994,-906.262 61.51,-896.456 54.5193,-896.095"/>
</g>
<!-- Node34 -->
<g id="node67" class="node"><title>Node34</title>
<a xlink:href="classant_1_1calibration_1_1_p_i_d___energy_1_1_the_physics.html" target="_top" xlink:title="ant::calibration::PID\l_Energy::ThePhysics">
<polygon fill="white" stroke="black" points="164,-300 164,-334 274,-334 274,-300 164,-300"/>
<text text-anchor="start" x="172" y="-321" font-family="Helvetica,sans-Serif" font-size="10.00">ant::calibration::PID</text>
<text text-anchor="middle" x="219" y="-308" font-family="Helvetica,sans-Serif" font-size="10.00">_Energy::ThePhysics</text>
</a>
</g>
<!-- Node1&#45;&gt;Node34 -->
<g id="edge66" class="edge"><title>Node1&#45;&gt;Node34</title>
<path fill="none" stroke="midnightblue" d="M57.6552,-896.031C60.9533,-803.252 78.5245,-430.394 150,-343 153.809,-338.343 158.545,-334.519 163.74,-331.38"/>
<polygon fill="midnightblue" stroke="midnightblue" points="54.1535,-896.025 57.3141,-906.137 61.1495,-896.261 54.1535,-896.025"/>
</g>
<!-- Node35 -->
<g id="node69" class="node"><title>Node35</title>
<a xlink:href="classant_1_1calibration_1_1_p_i_d___phi_angle_1_1_the_physics.html" target="_top" xlink:title="ant::calibration::PID\l_PhiAngle::ThePhysics">
<polygon fill="white" stroke="black" points="159.5,-248 159.5,-282 278.5,-282 278.5,-248 159.5,-248"/>
<text text-anchor="start" x="167.5" y="-269" font-family="Helvetica,sans-Serif" font-size="10.00">ant::calibration::PID</text>
<text text-anchor="middle" x="219" y="-256" font-family="Helvetica,sans-Serif" font-size="10.00">_PhiAngle::ThePhysics</text>
</a>
</g>
<!-- Node1&#45;&gt;Node35 -->
<g id="edge68" class="edge"><title>Node1&#45;&gt;Node35</title>
<path fill="none" stroke="midnightblue" d="M57.3438,-896.031C59.3501,-798.188 72.346,-387.232 150,-291 152.733,-287.613 155.958,-284.667 159.494,-282.104"/>
<polygon fill="midnightblue" stroke="midnightblue" points="53.8424,-896.078 57.1538,-906.142 60.8412,-896.209 53.8424,-896.078"/>
</g>
<!-- Node36 -->
<g id="node71" class="node"><title>Node36</title>
<a xlink:href="classant_1_1calibration_1_1_t_a_p_s___energy_1_1_the_physics.html" target="_top" xlink:title="ant::calibration::TAPS\l_Energy::ThePhysics">
<polygon fill="white" stroke="black" points="162.5,-196 162.5,-230 275.5,-230 275.5,-196 162.5,-196"/>
<text text-anchor="start" x="170.5" y="-217" font-family="Helvetica,sans-Serif" font-size="10.00">ant::calibration::TAPS</text>
<text text-anchor="middle" x="219" y="-204" font-family="Helvetica,sans-Serif" font-size="10.00">_Energy::ThePhysics</text>
</a>
</g>
<!-- Node1&#45;&gt;Node36 -->
<g id="edge70" class="edge"><title>Node1&#45;&gt;Node36</title>
<path fill="none" stroke="midnightblue" d="M58.5847,-896.263C67.0125,-788.137 107.777,-291.927 150,-239 153.433,-234.697 157.659,-231.106 162.316,-228.109"/>
<polygon fill="midnightblue" stroke="midnightblue" points="55.0749,-896.256 57.7938,-906.496 62.0541,-896.795 55.0749,-896.256"/>
</g>
<!-- Node37 -->
<g id="node73" class="node"><title>Node37</title>
<a xlink:href="classant_1_1calibration_1_1_t_a_p_s___short_energy_1_1_the_physics.html" target="_top" xlink:title="ant::calibration::TAPS\l_ShortEnergy::ThePhysics">
<polygon fill="white" stroke="black" points="152,-144 152,-178 286,-178 286,-144 152,-144"/>
<text text-anchor="start" x="160" y="-165" font-family="Helvetica,sans-Serif" font-size="10.00">ant::calibration::TAPS</text>
<text text-anchor="middle" x="219" y="-152" font-family="Helvetica,sans-Serif" font-size="10.00">_ShortEnergy::ThePhysics</text>
</a>
</g>
<!-- Node1&#45;&gt;Node37 -->
<g id="edge72" class="edge"><title>Node1&#45;&gt;Node37</title>
<path fill="none" stroke="midnightblue" d="M58.3834,-896.103C66.0564,-782.721 104.683,-244.368 150,-187 152.698,-183.585 155.896,-180.618 159.415,-178.041"/>
<polygon fill="midnightblue" stroke="midnightblue" points="54.8804,-896.033 57.7034,-906.244 61.8647,-896.501 54.8804,-896.033"/>
</g>
<!-- Node38 -->
<g id="node75" class="node"><title>Node38</title>
<a xlink:href="classant_1_1calibration_1_1_t_a_p_s_veto___energy_1_1_the_physics.html" target="_top" xlink:title="ant::calibration::TAPSVeto\l_Energy::ThePhysics">
<polygon fill="white" stroke="black" points="152.5,-92 152.5,-126 285.5,-126 285.5,-92 152.5,-92"/>
<text text-anchor="start" x="160.5" y="-113" font-family="Helvetica,sans-Serif" font-size="10.00">ant::calibration::TAPSVeto</text>
<text text-anchor="middle" x="219" y="-100" font-family="Helvetica,sans-Serif" font-size="10.00">_Energy::ThePhysics</text>
</a>
</g>
<!-- Node1&#45;&gt;Node38 -->
<g id="edge74" class="edge"><title>Node1&#45;&gt;Node38</title>
<path fill="none" stroke="midnightblue" d="M58.1969,-896.118C65.134,-778.016 101.56,-196.85 150,-135 152.684,-131.573 155.872,-128.598 159.383,-126.015"/>
<polygon fill="midnightblue" stroke="midnightblue" points="54.689,-896.154 57.6026,-906.34 61.6772,-896.56 54.689,-896.154"/>
</g>
<!-- Node39 -->
<g id="node77" class="node"><title>Node39</title>
<a xlink:href="classant_1_1calibration_1_1_time_1_1_the_physics.html" target="_top" xlink:title="ant::calibration::Time\l::ThePhysics">
<polygon fill="white" stroke="black" points="165,-40 165,-74 273,-74 273,-40 165,-40"/>
<text text-anchor="start" x="173" y="-61" font-family="Helvetica,sans-Serif" font-size="10.00">ant::calibration::Time</text>
<text text-anchor="middle" x="219" y="-48" font-family="Helvetica,sans-Serif" font-size="10.00">::ThePhysics</text>
</a>
</g>
<!-- Node1&#45;&gt;Node39 -->
<g id="edge76" class="edge"><title>Node1&#45;&gt;Node39</title>
<path fill="none" stroke="midnightblue" d="M58.0457,-895.897C64.3218,-772.669 98.4634,-149.302 150,-83 154.007,-77.8454 159.155,-73.7126 164.832,-70.3992"/>
<polygon fill="midnightblue" stroke="midnightblue" points="54.533,-896.062 57.5257,-906.225 61.5242,-896.414 54.533,-896.062"/>
</g>
<!-- Node41 -->
<g id="node81" class="node"><title>Node41</title>
<a xlink:href="struct_test_physics.html" target="_top" xlink:title="TestPhysics">
<polygon fill="white" stroke="black" points="183.5,-0.5 183.5,-21.5 254.5,-21.5 254.5,-0.5 183.5,-0.5"/>
<text text-anchor="middle" x="219" y="-8.5" font-family="Helvetica,sans-Serif" font-size="10.00">TestPhysics</text>
</a>
</g>
<!-- Node1&#45;&gt;Node41 -->
<g id="edge80" class="edge"><title>Node1&#45;&gt;Node41</title>
<path fill="none" stroke="midnightblue" d="M57.8127,-896.132C62.9501,-768.799 92.5604,-99.6633 150,-31 158.243,-21.1467 171.022,-15.9846 183.354,-13.3338"/>
<polygon fill="midnightblue" stroke="midnightblue" points="54.3031,-896.307 57.403,-906.438 61.2976,-896.585 54.3031,-896.307"/>
</g>
<!-- Node19 -->
<g id="node37" class="node"><title>Node19</title>
<a xlink:href="classant_1_1analysis_1_1physics_1_1_omega_eta_g.html" target="_top" xlink:title="ant::analysis::physics\l::OmegaEtaG">
<polygon fill="white" stroke="black" points="325,-1030 325,-1064 437,-1064 437,-1030 325,-1030"/>
<text text-anchor="start" x="333" y="-1051" font-family="Helvetica,sans-Serif" font-size="10.00">ant::analysis::physics</text>
<text text-anchor="middle" x="381" y="-1038" font-family="Helvetica,sans-Serif" font-size="10.00">::OmegaEtaG</text>
</a>
</g>
<!-- Node18&#45;&gt;Node19 -->
<g id="edge36" class="edge"><title>Node18&#45;&gt;Node19</title>
<path fill="none" stroke="midnightblue" d="M285.161,-1031.62C298.35,-1033.74 312.082,-1035.94 324.894,-1038"/>
<polygon fill="midnightblue" stroke="midnightblue" points="285.633,-1028.15 275.205,-1030.02 284.524,-1035.06 285.633,-1028.15"/>
</g>
<!-- Node20 -->
<g id="node39" class="node"><title>Node20</title>
<a xlink:href="classant_1_1analysis_1_1physics_1_1_omega_eta_g2.html" target="_top" xlink:title="ant::analysis::physics\l::OmegaEtaG2">
<polygon fill="white" stroke="black" points="325,-978 325,-1012 437,-1012 437,-978 325,-978"/>
<text text-anchor="start" x="333" y="-999" font-family="Helvetica,sans-Serif" font-size="10.00">ant::analysis::physics</text>
<text text-anchor="middle" x="381" y="-986" font-family="Helvetica,sans-Serif" font-size="10.00">::OmegaEtaG2</text>
</a>
</g>
<!-- Node18&#45;&gt;Node20 -->
<g id="edge38" class="edge"><title>Node18&#45;&gt;Node20</title>
<path fill="none" stroke="midnightblue" d="M285.161,-1010.38C298.35,-1008.26 312.082,-1006.06 324.894,-1004"/>
<polygon fill="midnightblue" stroke="midnightblue" points="284.524,-1006.94 275.205,-1011.98 285.633,-1013.85 284.524,-1006.94"/>
</g>
<!-- Node40 -->
<g id="node79" class="node"><title>Node40</title>
<a xlink:href="classant_1_1calibration_1_1_t_a_p_s___time_1_1_the_physics.html" target="_top" xlink:title="ant::calibration::TAPS\l_Time::ThePhysics">
<polygon fill="white" stroke="black" points="324.5,-40 324.5,-74 437.5,-74 437.5,-40 324.5,-40"/>
<text text-anchor="start" x="332.5" y="-61" font-family="Helvetica,sans-Serif" font-size="10.00">ant::calibration::TAPS</text>
<text text-anchor="middle" x="381" y="-48" font-family="Helvetica,sans-Serif" font-size="10.00">_Time::ThePhysics</text>
</a>
</g>
<!-- Node39&#45;&gt;Node40 -->
<g id="edge78" class="edge"><title>Node39&#45;&gt;Node40</title>
<path fill="none" stroke="midnightblue" d="M283.54,-57C297.004,-57 311.1,-57 324.257,-57"/>
<polygon fill="midnightblue" stroke="midnightblue" points="283.394,-53.5001 273.394,-57 283.394,-60.5001 283.394,-53.5001"/>
</g>
</g>
</svg>
