<?xml version="1.0" encoding="UTF-8" standalone="no"?>
<!DOCTYPE svg PUBLIC "-//W3C//DTD SVG 1.1//EN"
 "http://www.w3.org/Graphics/SVG/1.1/DTD/svg11.dtd">
<!-- Generated by graphviz version 2.26.3 (20100126.1600)
 -->
<!-- Title: Graphical Class Hierarchy Pages: 1 -->
<svg width="306pt" height="70pt"
 viewBox="0.00 0.00 306.00 70.00" xmlns="http://www.w3.org/2000/svg" xmlns:xlink="http://www.w3.org/1999/xlink">
<g id="graph1" class="graph" transform="scale(1 1) rotate(0) translate(4 66)">
<title>Graphical Class Hierarchy</title>
<polygon fill="white" stroke="white" points="-4,5 -4,-66 303,-66 303,5 -4,5"/>
<!-- Node1 -->
<g id="node1" class="node"><title>Node1</title>
<polygon fill="white" stroke="#bfbfbf" points="0,-20.5 0,-41.5 54,-41.5 54,-20.5 0,-20.5"/>
<text text-anchor="middle" x="27" y="-28.5" font-family="Helvetica,sans-Serif" font-size="10.00">TNamed</text>
</g>
<!-- Node2 -->
<g id="node3" class="node"><title>Node2</title>
<a xlink:href="classant_1_1_smart_tree.html" target="_top" xlink:title="ant::SmartTree">
<polygon fill="white" stroke="black" points="94,-40.5 94,-61.5 176,-61.5 176,-40.5 94,-40.5"/>
<text text-anchor="middle" x="135" y="-48.5" font-family="Helvetica,sans-Serif" font-size="10.00">ant::SmartTree</text>
</a>
</g>
<!-- Node1&#45;&gt;Node2 -->
<g id="edge2" class="edge"><title>Node1&#45;&gt;Node2</title>
<path fill="none" stroke="midnightblue" d="M64.2478,-37.8977C73.7991,-39.6665 84.1265,-41.579 93.8617,-43.3818"/>
<polygon fill="midnightblue" stroke="midnightblue" points="64.7231,-34.4263 54.253,-36.0468 63.4484,-41.3093 64.7231,-34.4263"/>
</g>
<!-- Node4 -->
<g id="node7" class="node"><title>Node4</title>
<a xlink:href="classant_1_1_t_ant_header.html" target="_top" xlink:title="The TAntHeader class holds information about the histogram file. ">
<polygon fill="white" stroke="black" points="90.5,-0.5 90.5,-21.5 179.5,-21.5 179.5,-0.5 90.5,-0.5"/>
<text text-anchor="middle" x="135" y="-8.5" font-family="Helvetica,sans-Serif" font-size="10.00">ant::TAntHeader</text>
</a>
</g>
<!-- Node1&#45;&gt;Node4 -->
<g id="edge6" class="edge"><title>Node1&#45;&gt;Node4</title>
<path fill="none" stroke="midnightblue" d="M64.105,-24.1287C72.4778,-22.5782 81.4532,-20.9161 90.1072,-19.3135"/>
<polygon fill="midnightblue" stroke="midnightblue" points="63.4484,-20.6907 54.253,-25.9532 64.7231,-27.5737 63.4484,-20.6907"/>
</g>
<!-- Node3 -->
<g id="node5" class="node"><title>Node3</title>
<a xlink:href="class_smart_tree_impl.html" target="_top" xlink:title="SmartTreeImpl">
<polygon fill="white" stroke="black" points="216.5,-40.5 216.5,-61.5 297.5,-61.5 297.5,-40.5 216.5,-40.5"/>
<text text-anchor="middle" x="257" y="-48.5" font-family="Helvetica,sans-Serif" font-size="10.00">SmartTreeImpl</text>
</a>
</g>
<!-- Node2&#45;&gt;Node3 -->
<g id="edge4" class="edge"><title>Node2&#45;&gt;Node3</title>
<path fill="none" stroke="midnightblue" d="M186.464,-51C196.376,-51 206.634,-51 216.153,-51"/>
<polygon fill="midnightblue" stroke="midnightblue" points="186.304,-47.5001 176.304,-51 186.304,-54.5001 186.304,-47.5001"/>
</g>
</g>
</svg>
