<?xml version="1.0" encoding="UTF-8" standalone="no"?>
<!DOCTYPE svg PUBLIC "-//W3C//DTD SVG 1.1//EN"
 "http://www.w3.org/Graphics/SVG/1.1/DTD/svg11.dtd">
<!-- Generated by graphviz version 2.26.3 (20100126.1600)
 -->
<!-- Title: Graphical Class Hierarchy Pages: 1 -->
<svg width="590pt" height="434pt"
 viewBox="0.00 0.00 590.00 434.00" xmlns="http://www.w3.org/2000/svg" xmlns:xlink="http://www.w3.org/1999/xlink">
<g id="graph1" class="graph" transform="scale(1 1) rotate(0) translate(4 430)">
<title>Graphical Class Hierarchy</title>
<polygon fill="white" stroke="white" points="-4,5 -4,-430 587,-430 587,5 -4,5"/>
<!-- Node1 -->
<g id="node1" class="node"><title>Node1</title>
<a xlink:href="classant_1_1calibration_1_1gui_1_1_manager_window__traits.html" target="_top" xlink:title="ant::calibration::gui\l::ManagerWindow_traits">
<polygon fill="white" stroke="black" points="1,-392 1,-426 123,-426 123,-392 1,-392"/>
<text text-anchor="start" x="9" y="-413" font-family="Helvetica,sans-Serif" font-size="10.00">ant::calibration::gui</text>
<text text-anchor="middle" x="62" y="-400" font-family="Helvetica,sans-Serif" font-size="10.00">::ManagerWindow_traits</text>
</a>
</g>
<!-- Node2 -->
<g id="node3" class="node"><title>Node2</title>
<a xlink:href="classant_1_1calibration_1_1gui_1_1_manager_window.html" target="_top" xlink:title="ant::calibration::gui\l::ManagerWindow">
<polygon fill="white" stroke="black" points="174.5,-392 174.5,-426 273.5,-426 273.5,-392 174.5,-392"/>
<text text-anchor="start" x="182.5" y="-413" font-family="Helvetica,sans-Serif" font-size="10.00">ant::calibration::gui</text>
<text text-anchor="middle" x="224" y="-400" font-family="Helvetica,sans-Serif" font-size="10.00">::ManagerWindow</text>
</a>
</g>
<!-- Node1&#45;&gt;Node2 -->
<g id="edge2" class="edge"><title>Node1&#45;&gt;Node2</title>
<path fill="none" stroke="midnightblue" d="M133.634,-409C147.346,-409 161.421,-409 174.259,-409"/>
<polygon fill="midnightblue" stroke="midnightblue" points="133.245,-405.5 123.245,-409 133.245,-412.5 133.245,-405.5"/>
</g>
<!-- Node3 -->
<g id="node4" class="node"><title>Node3</title>
<polygon fill="white" stroke="#bfbfbf" points="34,-254.5 34,-275.5 90,-275.5 90,-254.5 34,-254.5"/>
<text text-anchor="middle" x="62" y="-262.5" font-family="Helvetica,sans-Serif" font-size="10.00">TCanvas</text>
</g>
<!-- Node4 -->
<g id="node6" class="node"><title>Node4</title>
<a xlink:href="classant_1_1calibration_1_1gui_1_1_cal_canvas.html" target="_top" xlink:title="ant::calibration::gui\l::CalCanvas">
<polygon fill="white" stroke="black" points="174.5,-196 174.5,-230 273.5,-230 273.5,-196 174.5,-196"/>
<text text-anchor="start" x="182.5" y="-217" font-family="Helvetica,sans-Serif" font-size="10.00">ant::calibration::gui</text>
<text text-anchor="middle" x="224" y="-204" font-family="Helvetica,sans-Serif" font-size="10.00">::CalCanvas</text>
</a>
</g>
<!-- Node3&#45;&gt;Node4 -->
<g id="edge4" class="edge"><title>Node3&#45;&gt;Node4</title>
<path fill="none" stroke="midnightblue" d="M99.9291,-252.825C122.073,-245.717 150.273,-236.666 174.19,-228.988"/>
<polygon fill="midnightblue" stroke="midnightblue" points="98.67,-249.553 90.2182,-255.942 100.809,-256.218 98.67,-249.553"/>
</g>
<!-- Node5 -->
<g id="node8" class="node"><title>Node5</title>
<a xlink:href="classant_1_1calibration_1_1gui_1_1_editor_canvas.html" target="_top" xlink:title="ant::calibration::gui\l::EditorCanvas">
<polygon fill="white" stroke="black" points="174.5,-248 174.5,-282 273.5,-282 273.5,-248 174.5,-248"/>
<text text-anchor="start" x="182.5" y="-269" font-family="Helvetica,sans-Serif" font-size="10.00">ant::calibration::gui</text>
<text text-anchor="middle" x="224" y="-256" font-family="Helvetica,sans-Serif" font-size="10.00">::EditorCanvas</text>
</a>
</g>
<!-- Node3&#45;&gt;Node5 -->
<g id="edge6" class="edge"><title>Node3&#45;&gt;Node5</title>
<path fill="none" stroke="midnightblue" d="M100.229,-265C122.327,-265 150.38,-265 174.19,-265"/>
<polygon fill="midnightblue" stroke="midnightblue" points="100.218,-261.5 90.2182,-265 100.218,-268.5 100.218,-261.5"/>
</g>
<!-- Node6 -->
<g id="node10" class="node"><title>Node6</title>
<a xlink:href="classant_1_1_smart_tree_canvas.html" target="_top" xlink:title="ant::SmartTreeCanvas">
<polygon fill="white" stroke="black" points="166,-352.5 166,-373.5 282,-373.5 282,-352.5 166,-352.5"/>
<text text-anchor="middle" x="224" y="-360.5" font-family="Helvetica,sans-Serif" font-size="10.00">ant::SmartTreeCanvas</text>
</a>
</g>
<!-- Node3&#45;&gt;Node6 -->
<g id="edge8" class="edge"><title>Node3&#45;&gt;Node6</title>
<path fill="none" stroke="midnightblue" d="M79.9421,-282.711C98.5577,-300.214 129.208,-326.672 160,-343 166.993,-346.708 174.787,-349.858 182.463,-352.484"/>
<polygon fill="midnightblue" stroke="midnightblue" points="82.1502,-279.98 72.507,-275.591 77.3087,-285.035 82.1502,-279.98"/>
</g>
<!-- Node7 -->
<g id="node12" class="node"><title>Node7</title>
<a xlink:href="class_draw_canvas.html" target="_top" xlink:title="DrawCanvas">
<polygon fill="white" stroke="black" points="337,-352.5 337,-373.5 411,-373.5 411,-352.5 337,-352.5"/>
<text text-anchor="middle" x="374" y="-360.5" font-family="Helvetica,sans-Serif" font-size="10.00">DrawCanvas</text>
</a>
</g>
<!-- Node6&#45;&gt;Node7 -->
<g id="edge10" class="edge"><title>Node6&#45;&gt;Node7</title>
<path fill="none" stroke="midnightblue" d="M292.811,-363C307.937,-363 323.401,-363 336.72,-363"/>
<polygon fill="midnightblue" stroke="midnightblue" points="292.423,-359.5 282.423,-363 292.423,-366.5 292.423,-359.5"/>
</g>
<!-- Node8 -->
<g id="node14" class="node"><title>Node8</title>
<a xlink:href="class_draw_canvas1_d.html" target="_top" xlink:title="DrawCanvas1D">
<polygon fill="white" stroke="black" points="478,-372.5 478,-393.5 564,-393.5 564,-372.5 478,-372.5"/>
<text text-anchor="middle" x="521" y="-380.5" font-family="Helvetica,sans-Serif" font-size="10.00">DrawCanvas1D</text>
</a>
</g>
<!-- Node7&#45;&gt;Node8 -->
<g id="edge12" class="edge"><title>Node7&#45;&gt;Node8</title>
<path fill="none" stroke="midnightblue" d="M421.206,-369.423C439.42,-371.901 460.116,-374.716 477.919,-377.139"/>
<polygon fill="midnightblue" stroke="midnightblue" points="421.475,-365.927 411.094,-368.047 420.531,-372.863 421.475,-365.927"/>
</g>
<!-- Node9 -->
<g id="node16" class="node"><title>Node9</title>
<a xlink:href="class_draw_canvas2_d.html" target="_top" xlink:title="DrawCanvas2D">
<polygon fill="white" stroke="black" points="478,-332.5 478,-353.5 564,-353.5 564,-332.5 478,-332.5"/>
<text text-anchor="middle" x="521" y="-340.5" font-family="Helvetica,sans-Serif" font-size="10.00">DrawCanvas2D</text>
</a>
</g>
<!-- Node7&#45;&gt;Node9 -->
<g id="edge14" class="edge"><title>Node7&#45;&gt;Node9</title>
<path fill="none" stroke="midnightblue" d="M421.206,-356.577C439.42,-354.099 460.116,-351.284 477.919,-348.861"/>
<polygon fill="midnightblue" stroke="midnightblue" points="420.531,-353.137 411.094,-357.953 421.475,-360.073 420.531,-353.137"/>
</g>
<!-- Node10 -->
<g id="node17" class="node"><title>Node10</title>
<polygon fill="white" stroke="#bfbfbf" points="22.5,-329.5 22.5,-350.5 101.5,-350.5 101.5,-329.5 22.5,-329.5"/>
<text text-anchor="middle" x="62" y="-337.5" font-family="Helvetica,sans-Serif" font-size="10.00">TGMainFrame</text>
</g>
<!-- Node10&#45;&gt;Node2 -->
<g id="edge18" class="edge"><title>Node10&#45;&gt;Node2</title>
<path fill="none" stroke="midnightblue" d="M95.0687,-354.781C114.02,-363.183 138.284,-373.827 160,-383 166.96,-385.94 174.37,-389.008 181.588,-391.962"/>
<polygon fill="midnightblue" stroke="midnightblue" points="96.244,-351.473 85.6843,-350.611 93.4014,-357.87 96.244,-351.473"/>
</g>
<!-- Node11 -->
<g id="node19" class="node"><title>Node11</title>
<a xlink:href="classant_1_1calibration_1_1gui_1_1_editor_window.html" target="_top" xlink:title="ant::calibration::gui\l::EditorWindow">
<polygon fill="white" stroke="black" points="174.5,-300 174.5,-334 273.5,-334 273.5,-300 174.5,-300"/>
<text text-anchor="start" x="182.5" y="-321" font-family="Helvetica,sans-Serif" font-size="10.00">ant::calibration::gui</text>
<text text-anchor="middle" x="224" y="-308" font-family="Helvetica,sans-Serif" font-size="10.00">::EditorWindow</text>
</a>
</g>
<!-- Node10&#45;&gt;Node11 -->
<g id="edge16" class="edge"><title>Node10&#45;&gt;Node11</title>
<path fill="none" stroke="midnightblue" d="M111.724,-332.94C131.606,-330.118 154.458,-326.873 174.333,-324.051"/>
<polygon fill="midnightblue" stroke="midnightblue" points="111.038,-329.503 101.63,-334.374 112.022,-336.433 111.038,-329.503"/>
</g>
<!-- Node12 -->
<g id="node21" class="node"><title>Node12</title>
<polygon fill="white" stroke="#bfbfbf" points="203.5,-156.5 203.5,-177.5 244.5,-177.5 244.5,-156.5 203.5,-156.5"/>
<text text-anchor="middle" x="224" y="-164.5" font-family="Helvetica,sans-Serif" font-size="10.00">TLine</text>
</g>
<!-- Node13 -->
<g id="node23" class="node"><title>Node13</title>
<a xlink:href="classant_1_1calibration_1_1gui_1_1_indicator_line.html" target="_top" xlink:title="ant::calibration::gui\l::IndicatorLine">
<polygon fill="white" stroke="black" points="324.5,-127 324.5,-161 423.5,-161 423.5,-127 324.5,-127"/>
<text text-anchor="start" x="332.5" y="-148" font-family="Helvetica,sans-Serif" font-size="10.00">ant::calibration::gui</text>
<text text-anchor="middle" x="374" y="-135" font-family="Helvetica,sans-Serif" font-size="10.00">::IndicatorLine</text>
</a>
</g>
<!-- Node12&#45;&gt;Node13 -->
<g id="edge20" class="edge"><title>Node12&#45;&gt;Node13</title>
<path fill="none" stroke="midnightblue" d="M254.651,-162.3C274.694,-159.227 301.333,-155.142 324.357,-151.612"/>
<polygon fill="midnightblue" stroke="midnightblue" points="253.896,-158.875 244.542,-163.85 254.957,-165.794 253.896,-158.875"/>
</g>
<!-- Node14 -->
<g id="node25" class="node"><title>Node14</title>
<a xlink:href="classant_1_1calibration_1_1gui_1_1_horizontal_indicator_line.html" target="_top" xlink:title="ant::calibration::gui\l::HorizontalIndicatorLine">
<polygon fill="white" stroke="black" points="460,-153 460,-187 582,-187 582,-153 460,-153"/>
<text text-anchor="start" x="468" y="-174" font-family="Helvetica,sans-Serif" font-size="10.00">ant::calibration::gui</text>
<text text-anchor="middle" x="521" y="-161" font-family="Helvetica,sans-Serif" font-size="10.00">::HorizontalIndicatorLine</text>
</a>
</g>
<!-- Node13&#45;&gt;Node14 -->
<g id="edge22" class="edge"><title>Node13&#45;&gt;Node14</title>
<path fill="none" stroke="midnightblue" d="M433.715,-154.562C442.317,-156.083 451.18,-157.651 459.81,-159.177"/>
<polygon fill="midnightblue" stroke="midnightblue" points="434.224,-151.098 423.767,-152.802 433.005,-157.991 434.224,-151.098"/>
</g>
<!-- Node15 -->
<g id="node27" class="node"><title>Node15</title>
<a xlink:href="classant_1_1calibration_1_1gui_1_1_vertical_indicator_line.html" target="_top" xlink:title="ant::calibration::gui\l::VerticalIndicatorLine">
<polygon fill="white" stroke="black" points="465.5,-101 465.5,-135 576.5,-135 576.5,-101 465.5,-101"/>
<text text-anchor="start" x="473.5" y="-122" font-family="Helvetica,sans-Serif" font-size="10.00">ant::calibration::gui</text>
<text text-anchor="middle" x="521" y="-109" font-family="Helvetica,sans-Serif" font-size="10.00">::VerticalIndicatorLine</text>
</a>
</g>
<!-- Node13&#45;&gt;Node15 -->
<g id="edge24" class="edge"><title>Node13&#45;&gt;Node15</title>
<path fill="none" stroke="midnightblue" d="M433.689,-133.443C444.193,-131.585 455.087,-129.658 465.471,-127.821"/>
<polygon fill="midnightblue" stroke="midnightblue" points="433.005,-130.009 423.767,-135.198 434.224,-136.902 433.005,-130.009"/>
</g>
<!-- Node16 -->
<g id="node28" class="node"><title>Node16</title>
<polygon fill="white" stroke="#bfbfbf" points="0,-32.5 0,-53.5 124,-53.5 124,-32.5 0,-32.5"/>
<text text-anchor="middle" x="62" y="-40.5" font-family="Helvetica,sans-Serif" font-size="10.00">TRootEmbeddedCanvas</text>
</g>
<!-- Node17 -->
<g id="node30" class="node"><title>Node17</title>
<a xlink:href="classant_1_1calibration_1_1gui_1_1_embedded_canvas.html" target="_top" xlink:title="ant::calibration::gui\l::EmbeddedCanvas">
<polygon fill="white" stroke="black" points="172.5,-0 172.5,-34 275.5,-34 275.5,-0 172.5,-0"/>
<text text-anchor="start" x="180.5" y="-21" font-family="Helvetica,sans-Serif" font-size="10.00">ant::calibration::gui</text>
<text text-anchor="middle" x="224" y="-8" font-family="Helvetica,sans-Serif" font-size="10.00">::EmbeddedCanvas</text>
</a>
</g>
<!-- Node16&#45;&gt;Node17 -->
<g id="edge26" class="edge"><title>Node16&#45;&gt;Node17</title>
<path fill="none" stroke="midnightblue" d="M134.333,-31.3911C147.113,-29.3399 160.185,-27.242 172.255,-25.3048"/>
<polygon fill="midnightblue" stroke="midnightblue" points="133.489,-27.9816 124.17,-33.0221 134.598,-34.8931 133.489,-27.9816"/>
</g>
<!-- Node18 -->
<g id="node32" class="node"><title>Node18</title>
<a xlink:href="classant_1_1calibration_1_1gui_1_1_embedded_editor_canvas.html" target="_top" xlink:title="ant::calibration::gui\l::EmbeddedEditorCanvas">
<polygon fill="white" stroke="black" points="160,-52 160,-86 288,-86 288,-52 160,-52"/>
<text text-anchor="start" x="168" y="-73" font-family="Helvetica,sans-Serif" font-size="10.00">ant::calibration::gui</text>
<text text-anchor="middle" x="224" y="-60" font-family="Helvetica,sans-Serif" font-size="10.00">::EmbeddedEditorCanvas</text>
</a>
</g>
<!-- Node16&#45;&gt;Node18 -->
<g id="edge28" class="edge"><title>Node16&#45;&gt;Node18</title>
<path fill="none" stroke="midnightblue" d="M134.141,-54.5781C142.706,-55.9529 151.406,-57.3491 159.85,-58.7043"/>
<polygon fill="midnightblue" stroke="midnightblue" points="134.598,-51.1069 124.17,-52.9779 133.489,-58.0184 134.598,-51.1069"/>
</g>
<!-- Node19 -->
<g id="node33" class="node"><title>Node19</title>
<a xlink:href="classant_1_1calibration_1_1gui_1_1update__notify__traits.html" target="_top" xlink:title="ant::calibration::gui\l::update_notify_traits">
<polygon fill="white" stroke="black" points="8,-196 8,-230 116,-230 116,-196 8,-196"/>
<text text-anchor="start" x="16" y="-217" font-family="Helvetica,sans-Serif" font-size="10.00">ant::calibration::gui</text>
<text text-anchor="middle" x="62" y="-204" font-family="Helvetica,sans-Serif" font-size="10.00">::update_notify_traits</text>
</a>
</g>
<!-- Node19&#45;&gt;Node4 -->
<g id="edge30" class="edge"><title>Node19&#45;&gt;Node4</title>
<path fill="none" stroke="midnightblue" d="M126.683,-213C142.572,-213 159.335,-213 174.387,-213"/>
<polygon fill="midnightblue" stroke="midnightblue" points="126.394,-209.5 116.394,-213 126.394,-216.5 126.394,-209.5"/>
</g>
<!-- Node19&#45;&gt;Node5 -->
<g id="edge32" class="edge"><title>Node19&#45;&gt;Node5</title>
<path fill="none" stroke="midnightblue" d="M124.615,-233.099C141.118,-238.396 158.695,-244.038 174.408,-249.081"/>
<polygon fill="midnightblue" stroke="midnightblue" points="125.636,-229.751 115.045,-230.027 123.497,-236.416 125.636,-229.751"/>
</g>
<!-- Node19&#45;&gt;Node11 -->
<g id="edge34" class="edge"><title>Node19&#45;&gt;Node11</title>
<path fill="none" stroke="midnightblue" d="M110.17,-235.172C115.035,-238.191 119.743,-241.475 124,-245 143.996,-261.557 139.275,-275.365 160,-291 164.404,-294.322 169.292,-297.29 174.347,-299.924"/>
<polygon fill="midnightblue" stroke="midnightblue" points="111.716,-232.023 101.31,-230.032 108.204,-238.078 111.716,-232.023"/>
</g>
<!-- Node19&#45;&gt;Node18 -->
<g id="edge36" class="edge"><title>Node19&#45;&gt;Node18</title>
<path fill="none" stroke="midnightblue" d="M77.8835,-187.217C95.2234,-160.919 125.207,-120.465 160,-95 164.549,-91.6709 169.584,-88.6879 174.775,-86.036"/>
<polygon fill="midnightblue" stroke="midnightblue" points="74.7738,-185.581 72.2903,-195.88 80.6547,-189.377 74.7738,-185.581"/>
</g>
<!-- Node20 -->
<g id="node39" class="node"><title>Node20</title>
<a xlink:href="classant_1_1calibration_1_1gui_1_1_indicator.html" target="_top" xlink:title="ant::calibration::gui\l::Indicator">
<polygon fill="white" stroke="black" points="174.5,-104 174.5,-138 273.5,-138 273.5,-104 174.5,-104"/>
<text text-anchor="start" x="182.5" y="-125" font-family="Helvetica,sans-Serif" font-size="10.00">ant::calibration::gui</text>
<text text-anchor="middle" x="224" y="-112" font-family="Helvetica,sans-Serif" font-size="10.00">::Indicator</text>
</a>
</g>
<!-- Node19&#45;&gt;Node20 -->
<g id="edge38" class="edge"><title>Node19&#45;&gt;Node20</title>
<path fill="none" stroke="midnightblue" d="M92.712,-189.906C111.529,-176.377 136.448,-159.541 160,-147 165.928,-143.843 172.325,-140.824 178.702,-138.032"/>
<polygon fill="midnightblue" stroke="midnightblue" points="90.5514,-187.15 84.5227,-195.862 94.6687,-192.811 90.5514,-187.15"/>
</g>
<!-- Node20&#45;&gt;Node13 -->
<g id="edge40" class="edge"><title>Node20&#45;&gt;Node13</title>
<path fill="none" stroke="midnightblue" d="M283.659,-130.148C297.117,-132.211 311.264,-134.381 324.265,-136.374"/>
<polygon fill="midnightblue" stroke="midnightblue" points="283.946,-126.651 273.531,-128.595 282.885,-133.57 283.946,-126.651"/>
</g>
</g>
</svg>
