<?xml version="1.0" encoding="UTF-8" standalone="no"?>
<!DOCTYPE svg PUBLIC "-//W3C//DTD SVG 1.1//EN"
 "http://www.w3.org/Graphics/SVG/1.1/DTD/svg11.dtd">
<!-- Generated by graphviz version 2.26.3 (20100126.1600)
 -->
<!-- Title: Graphical Class Hierarchy Pages: 1 -->
<svg width="522pt" height="356pt"
 viewBox="0.00 0.00 522.00 356.00" xmlns="http://www.w3.org/2000/svg" xmlns:xlink="http://www.w3.org/1999/xlink">
<g id="graph1" class="graph" transform="scale(1 1) rotate(0) translate(4 352)">
<title>Graphical Class Hierarchy</title>
<polygon fill="white" stroke="white" points="-4,5 -4,-352 519,-352 519,5 -4,5"/>
<!-- Node1 -->
<g id="node1" class="node"><title>Node1</title>
<a xlink:href="classant_1_1root__drawable__traits.html" target="_top" xlink:title="ant::root_drawable\l_traits">
<polygon fill="white" stroke="black" points="0.5,-107 0.5,-141 97.5,-141 97.5,-107 0.5,-107"/>
<text text-anchor="start" x="8.5" y="-128" font-family="Helvetica,sans-Serif" font-size="10.00">ant::root_drawable</text>
<text text-anchor="middle" x="49" y="-115" font-family="Helvetica,sans-Serif" font-size="10.00">_traits</text>
</a>
</g>
<!-- Node2 -->
<g id="node3" class="node"><title>Node2</title>
<a xlink:href="structant_1_1analysis_1_1physics_1_1_reconstruct_check_1_1_position_map.html" target="_top" xlink:title="ant::analysis::physics\l::ReconstructCheck::PositionMap">
<polygon fill="white" stroke="black" points="134,-255 134,-289 298,-289 298,-255 134,-255"/>
<text text-anchor="start" x="142" y="-276" font-family="Helvetica,sans-Serif" font-size="10.00">ant::analysis::physics</text>
<text text-anchor="middle" x="216" y="-263" font-family="Helvetica,sans-Serif" font-size="10.00">::ReconstructCheck::PositionMap</text>
</a>
</g>
<!-- Node1&#45;&gt;Node2 -->
<g id="edge2" class="edge"><title>Node1&#45;&gt;Node2</title>
<path fill="none" stroke="midnightblue" d="M76.1467,-148.058C109.97,-178.033 166.925,-228.508 196.64,-254.843"/>
<polygon fill="midnightblue" stroke="midnightblue" points="78.2892,-145.28 68.4839,-141.267 73.6465,-150.519 78.2892,-145.28"/>
</g>
<!-- Node5 -->
<g id="node9" class="node"><title>Node5</title>
<a xlink:href="classant_1_1analysis_1_1_smart_hist1_base.html" target="_top" xlink:title="ant::analysis::SmartHist1Base">
<polygon fill="white" stroke="black" points="141,-136.5 141,-157.5 291,-157.5 291,-136.5 141,-136.5"/>
<text text-anchor="middle" x="216" y="-144.5" font-family="Helvetica,sans-Serif" font-size="10.00">ant::analysis::SmartHist1Base</text>
</a>
</g>
<!-- Node1&#45;&gt;Node5 -->
<g id="edge8" class="edge"><title>Node1&#45;&gt;Node5</title>
<path fill="none" stroke="midnightblue" d="M107.778,-132.095C118.451,-133.565 129.717,-135.117 140.786,-136.641"/>
<polygon fill="midnightblue" stroke="midnightblue" points="108.136,-128.612 97.7522,-130.714 107.181,-135.546 108.136,-128.612"/>
</g>
<!-- Node11 -->
<g id="node21" class="node"><title>Node11</title>
<a xlink:href="classant_1_1canvas_1_1drawable__container.html" target="_top" xlink:title="ant::canvas::drawable\l_container\&lt; T \&gt;">
<polygon fill="white" stroke="black" points="159.5,-84 159.5,-118 272.5,-118 272.5,-84 159.5,-84"/>
<text text-anchor="start" x="167.5" y="-105" font-family="Helvetica,sans-Serif" font-size="10.00">ant::canvas::drawable</text>
<text text-anchor="middle" x="216" y="-92" font-family="Helvetica,sans-Serif" font-size="10.00">_container&lt; T &gt;</text>
</a>
</g>
<!-- Node1&#45;&gt;Node11 -->
<g id="edge20" class="edge"><title>Node1&#45;&gt;Node11</title>
<path fill="none" stroke="midnightblue" d="M107.92,-115.885C124.59,-113.589 142.695,-111.096 159.236,-108.818"/>
<polygon fill="midnightblue" stroke="midnightblue" points="107.181,-112.454 97.7522,-117.286 108.136,-119.388 107.181,-112.454"/>
</g>
<!-- Node12 -->
<g id="node23" class="node"><title>Node12</title>
<a xlink:href="classant_1_1hstack.html" target="_top" xlink:title="The hstack class. ">
<polygon fill="white" stroke="black" points="183.5,-44.5 183.5,-65.5 248.5,-65.5 248.5,-44.5 183.5,-44.5"/>
<text text-anchor="middle" x="216" y="-52.5" font-family="Helvetica,sans-Serif" font-size="10.00">ant::hstack</text>
</a>
</g>
<!-- Node1&#45;&gt;Node12 -->
<g id="edge22" class="edge"><title>Node1&#45;&gt;Node12</title>
<path fill="none" stroke="midnightblue" d="M82.952,-101.461C98.0788,-92.211 116.421,-82.0434 134,-75 149.779,-68.678 168.094,-63.9788 183.408,-60.7299"/>
<polygon fill="midnightblue" stroke="midnightblue" points="81.0765,-98.5055 74.4473,-106.77 84.7835,-104.443 81.0765,-98.5055"/>
</g>
<!-- Node3 -->
<g id="node5" class="node"><title>Node3</title>
<a xlink:href="structant_1_1analysis_1_1physics_1_1_reconstruct_check_1_1_position_map_c_b.html" target="_top" xlink:title="ant::analysis::physics\l::ReconstructCheck::PositionMapCB">
<polygon fill="white" stroke="black" points="334.5,-314 334.5,-348 513.5,-348 513.5,-314 334.5,-314"/>
<text text-anchor="start" x="342.5" y="-335" font-family="Helvetica,sans-Serif" font-size="10.00">ant::analysis::physics</text>
<text text-anchor="middle" x="424" y="-322" font-family="Helvetica,sans-Serif" font-size="10.00">::ReconstructCheck::PositionMapCB</text>
</a>
</g>
<!-- Node2&#45;&gt;Node3 -->
<g id="edge4" class="edge"><title>Node2&#45;&gt;Node3</title>
<path fill="none" stroke="midnightblue" d="M286.055,-291.871C311.337,-299.043 339.626,-307.067 363.973,-313.973"/>
<polygon fill="midnightblue" stroke="midnightblue" points="286.738,-288.427 276.162,-289.065 284.828,-295.161 286.738,-288.427"/>
</g>
<!-- Node4 -->
<g id="node7" class="node"><title>Node4</title>
<a xlink:href="structant_1_1analysis_1_1physics_1_1_reconstruct_check_1_1_position_map_t_a_p_s.html" target="_top" xlink:title="ant::analysis::physics\l::ReconstructCheck::Position\lMapTAPS">
<polygon fill="white" stroke="black" points="351,-248.5 351,-295.5 497,-295.5 497,-248.5 351,-248.5"/>
<text text-anchor="start" x="359" y="-282.5" font-family="Helvetica,sans-Serif" font-size="10.00">ant::analysis::physics</text>
<text text-anchor="start" x="359" y="-269.5" font-family="Helvetica,sans-Serif" font-size="10.00">::ReconstructCheck::Position</text>
<text text-anchor="middle" x="424" y="-256.5" font-family="Helvetica,sans-Serif" font-size="10.00">MapTAPS</text>
</a>
</g>
<!-- Node2&#45;&gt;Node4 -->
<g id="edge6" class="edge"><title>Node2&#45;&gt;Node4</title>
<path fill="none" stroke="midnightblue" d="M308.469,-272C322.653,-272 337.127,-272 350.818,-272"/>
<polygon fill="midnightblue" stroke="midnightblue" points="308.207,-268.5 298.207,-272 308.207,-275.5 308.207,-268.5"/>
</g>
<!-- Node6 -->
<g id="node11" class="node"><title>Node6</title>
<a xlink:href="classant_1_1analysis_1_1_smart_hist1.html" target="_top" xlink:title="ant::analysis::SmartHist1\&lt; T \&gt;">
<polygon fill="white" stroke="black" points="348,-208.5 348,-229.5 500,-229.5 500,-208.5 348,-208.5"/>
<text text-anchor="middle" x="424" y="-216.5" font-family="Helvetica,sans-Serif" font-size="10.00">ant::analysis::SmartHist1&lt; T &gt;</text>
</a>
</g>
<!-- Node5&#45;&gt;Node6 -->
<g id="edge10" class="edge"><title>Node5&#45;&gt;Node6</title>
<path fill="none" stroke="midnightblue" d="M245.909,-162.141C269.386,-173.542 303.151,-188.884 334,-199 344.951,-202.591 356.861,-205.744 368.324,-208.421"/>
<polygon fill="midnightblue" stroke="midnightblue" points="247.344,-158.947 236.825,-157.677 244.256,-165.229 247.344,-158.947"/>
</g>
<!-- Node7 -->
<g id="node13" class="node"><title>Node7</title>
<a xlink:href="classant_1_1analysis_1_1_smart_hist1.html" target="_top" xlink:title="ant::analysis::SmartHist1\l\&lt; const data::ParticlePtr &amp; \&gt;">
<polygon fill="white" stroke="black" points="353,-156 353,-190 495,-190 495,-156 353,-156"/>
<text text-anchor="start" x="361" y="-177" font-family="Helvetica,sans-Serif" font-size="10.00">ant::analysis::SmartHist1</text>
<text text-anchor="middle" x="424" y="-164" font-family="Helvetica,sans-Serif" font-size="10.00">&lt; const data::ParticlePtr &amp; &gt;</text>
</a>
</g>
<!-- Node5&#45;&gt;Node7 -->
<g id="edge12" class="edge"><title>Node5&#45;&gt;Node7</title>
<path fill="none" stroke="midnightblue" d="M301.113,-157.639C318.296,-159.787 336.192,-162.024 352.836,-164.105"/>
<polygon fill="midnightblue" stroke="midnightblue" points="301.45,-154.154 291.093,-156.387 300.581,-161.1 301.45,-154.154"/>
</g>
<!-- Node8 -->
<g id="node15" class="node"><title>Node8</title>
<a xlink:href="classant_1_1analysis_1_1_smart_hist1.html" target="_top" xlink:title="ant::analysis::SmartHist1\l\&lt; double \&gt;">
<polygon fill="white" stroke="black" points="360,-104 360,-138 488,-138 488,-104 360,-104"/>
<text text-anchor="start" x="368" y="-125" font-family="Helvetica,sans-Serif" font-size="10.00">ant::analysis::SmartHist1</text>
<text text-anchor="middle" x="424" y="-112" font-family="Helvetica,sans-Serif" font-size="10.00">&lt; double &gt;</text>
</a>
</g>
<!-- Node5&#45;&gt;Node8 -->
<g id="edge14" class="edge"><title>Node5&#45;&gt;Node8</title>
<path fill="none" stroke="midnightblue" d="M301.208,-136.349C320.739,-133.908 341.185,-131.352 359.665,-129.042"/>
<polygon fill="midnightblue" stroke="midnightblue" points="300.581,-132.9 291.093,-137.613 301.45,-139.846 300.581,-132.9"/>
</g>
<!-- Node9 -->
<g id="node17" class="node"><title>Node9</title>
<a xlink:href="classant_1_1analysis_1_1_smart_hist1.html" target="_top" xlink:title="ant::analysis::SmartHist1\l\&lt; int \&gt;">
<polygon fill="white" stroke="black" points="360,-52 360,-86 488,-86 488,-52 360,-52"/>
<text text-anchor="start" x="368" y="-73" font-family="Helvetica,sans-Serif" font-size="10.00">ant::analysis::SmartHist1</text>
<text text-anchor="middle" x="424" y="-60" font-family="Helvetica,sans-Serif" font-size="10.00">&lt; int &gt;</text>
</a>
</g>
<!-- Node5&#45;&gt;Node9 -->
<g id="edge16" class="edge"><title>Node5&#45;&gt;Node9</title>
<path fill="none" stroke="midnightblue" d="M284.409,-133.064C289.107,-131.275 293.685,-129.263 298,-127 316.959,-117.059 315.254,-105.337 334,-95 341.976,-90.602 350.769,-86.8841 359.64,-83.759"/>
<polygon fill="midnightblue" stroke="midnightblue" points="282.952,-129.863 274.638,-136.43 285.233,-136.481 282.952,-129.863"/>
</g>
<!-- Node10 -->
<g id="node19" class="node"><title>Node10</title>
<a xlink:href="classant_1_1analysis_1_1_smart_hist1.html" target="_top" xlink:title="ant::analysis::SmartHist1\l\&lt; std::string \&gt;">
<polygon fill="white" stroke="black" points="360,-0 360,-34 488,-34 488,-0 360,-0"/>
<text text-anchor="start" x="368" y="-21" font-family="Helvetica,sans-Serif" font-size="10.00">ant::analysis::SmartHist1</text>
<text text-anchor="middle" x="424" y="-8" font-family="Helvetica,sans-Serif" font-size="10.00">&lt; std::string &gt;</text>
</a>
</g>
<!-- Node5&#45;&gt;Node10 -->
<g id="edge18" class="edge"><title>Node5&#45;&gt;Node10</title>
<path fill="none" stroke="midnightblue" d="M292.269,-131.28C294.266,-129.963 296.183,-128.539 298,-127 328.999,-100.754 303.559,-69.8913 334,-43 341.435,-36.4317 350.437,-31.5173 359.837,-27.8417"/>
<polygon fill="midnightblue" stroke="midnightblue" points="290.102,-128.48 283.066,-136.401 293.506,-134.597 290.102,-128.48"/>
</g>
</g>
</svg>
