<?xml version="1.0" encoding="UTF-8" standalone="no"?>
<!DOCTYPE svg PUBLIC "-//W3C//DTD SVG 1.1//EN"
 "http://www.w3.org/Graphics/SVG/1.1/DTD/svg11.dtd">
<!-- Generated by graphviz version 2.26.3 (20100126.1600)
 -->
<!-- Title: Graphical Class Hierarchy Pages: 1 -->
<svg width="290pt" height="42pt"
 viewBox="0.00 0.00 290.00 42.00" xmlns="http://www.w3.org/2000/svg" xmlns:xlink="http://www.w3.org/1999/xlink">
<g id="graph1" class="graph" transform="scale(1 1) rotate(0) translate(4 38)">
<title>Graphical Class Hierarchy</title>
<polygon fill="white" stroke="white" points="-4,5 -4,-38 287,-38 287,5 -4,5"/>
<!-- Node1 -->
<g id="node1" class="node"><title>Node1</title>
<a xlink:href="structant_1_1analysis_1_1utils_1_1_particle_vars.html" target="_top" xlink:title="ant::analysis::utils\l::ParticleVars">
<polygon fill="white" stroke="black" points="0,-0 0,-34 96,-34 96,-0 0,-0"/>
<text text-anchor="start" x="8" y="-21" font-family="Helvetica,sans-Serif" font-size="10.00">ant::analysis::utils</text>
<text text-anchor="middle" x="48" y="-8" font-family="Helvetica,sans-Serif" font-size="10.00">::ParticleVars</text>
</a>
</g>
<!-- Node2 -->
<g id="node3" class="node"><title>Node2</title>
<a xlink:href="structant_1_1analysis_1_1physics_1_1_omega_eta_g2_1_1m_particle_vars.html" target="_top" xlink:title="ant::analysis::physics\l::OmegaEtaG2::mParticleVars">
<polygon fill="white" stroke="black" points="132.5,-0 132.5,-34 281.5,-34 281.5,-0 132.5,-0"/>
<text text-anchor="start" x="140.5" y="-21" font-family="Helvetica,sans-Serif" font-size="10.00">ant::analysis::physics</text>
<text text-anchor="middle" x="207" y="-8" font-family="Helvetica,sans-Serif" font-size="10.00">::OmegaEtaG2::mParticleVars</text>
</a>
</g>
<!-- Node1&#45;&gt;Node2 -->
<g id="edge2" class="edge"><title>Node1&#45;&gt;Node2</title>
<path fill="none" stroke="midnightblue" d="M106.274,-17C114.749,-17 123.572,-17 132.317,-17"/>
<polygon fill="midnightblue" stroke="midnightblue" points="106.137,-13.5001 96.1367,-17 106.137,-20.5001 106.137,-13.5001"/>
</g>
</g>
</svg>
