<?xml version="1.0" encoding="UTF-8" standalone="no"?>
<!DOCTYPE svg PUBLIC "-//W3C//DTD SVG 1.1//EN"
 "http://www.w3.org/Graphics/SVG/1.1/DTD/svg11.dtd">
<!-- Generated by graphviz version 2.26.3 (20100126.1600)
 -->
<!-- Title: Graphical Class Hierarchy Pages: 1 -->
<svg width="200pt" height="150pt"
 viewBox="0.00 0.00 200.00 150.00" xmlns="http://www.w3.org/2000/svg" xmlns:xlink="http://www.w3.org/1999/xlink">
<g id="graph1" class="graph" transform="scale(1 1) rotate(0) translate(4 146)">
<title>Graphical Class Hierarchy</title>
<polygon fill="white" stroke="white" points="-4,5 -4,-146 197,-146 197,5 -4,5"/>
<!-- Node1 -->
<g id="node1" class="node"><title>Node1</title>
<a xlink:href="classant_1_1modifier.html" target="_top" xlink:title="ant::modifier">
<polygon fill="white" stroke="black" points="0.5,-60.5 0.5,-81.5 71.5,-81.5 71.5,-60.5 0.5,-60.5"/>
<text text-anchor="middle" x="36" y="-68.5" font-family="Helvetica,sans-Serif" font-size="10.00">ant::modifier</text>
</a>
</g>
<!-- Node2 -->
<g id="node3" class="node"><title>Node2</title>
<a xlink:href="classant_1_1drawoption.html" target="_top" xlink:title="ant::drawoption">
<polygon fill="white" stroke="black" points="108.5,-120.5 108.5,-141.5 191.5,-141.5 191.5,-120.5 108.5,-120.5"/>
<text text-anchor="middle" x="150" y="-128.5" font-family="Helvetica,sans-Serif" font-size="10.00">ant::drawoption</text>
</a>
</g>
<!-- Node1&#45;&gt;Node2 -->
<g id="edge2" class="edge"><title>Node1&#45;&gt;Node2</title>
<path fill="none" stroke="midnightblue" d="M62.9215,-86.4817C76.3568,-94.073 92.921,-103.231 108,-111 114.174,-114.181 120.94,-117.482 127.203,-120.463"/>
<polygon fill="midnightblue" stroke="midnightblue" points="64.6003,-83.4101 54.1767,-81.5127 61.142,-89.4962 64.6003,-83.4101"/>
</g>
<!-- Node3 -->
<g id="node5" class="node"><title>Node3</title>
<a xlink:href="classant_1_1endcanvas.html" target="_top" xlink:title="ant::endcanvas">
<polygon fill="white" stroke="black" points="108.5,-80.5 108.5,-101.5 191.5,-101.5 191.5,-80.5 108.5,-80.5"/>
<text text-anchor="middle" x="150" y="-88.5" font-family="Helvetica,sans-Serif" font-size="10.00">ant::endcanvas</text>
</a>
</g>
<!-- Node1&#45;&gt;Node3 -->
<g id="edge4" class="edge"><title>Node1&#45;&gt;Node3</title>
<path fill="none" stroke="midnightblue" d="M81.8382,-79.0418C90.614,-80.5814 99.7572,-82.1855 108.391,-83.7002"/>
<polygon fill="midnightblue" stroke="midnightblue" points="82.2119,-75.554 71.7575,-77.2733 81.0023,-82.4487 82.2119,-75.554"/>
</g>
<!-- Node4 -->
<g id="node7" class="node"><title>Node4</title>
<a xlink:href="classant_1_1padoption.html" target="_top" xlink:title="ant::padoption">
<polygon fill="white" stroke="black" points="111,-40.5 111,-61.5 189,-61.5 189,-40.5 111,-40.5"/>
<text text-anchor="middle" x="150" y="-48.5" font-family="Helvetica,sans-Serif" font-size="10.00">ant::padoption</text>
</a>
</g>
<!-- Node1&#45;&gt;Node4 -->
<g id="edge6" class="edge"><title>Node1&#45;&gt;Node4</title>
<path fill="none" stroke="midnightblue" d="M81.6165,-62.9971C91.2824,-61.3013 101.404,-59.5257 110.806,-57.8761"/>
<polygon fill="midnightblue" stroke="midnightblue" points="81.0023,-59.5513 71.7575,-64.7267 82.2119,-66.446 81.0023,-59.5513"/>
</g>
<!-- Node5 -->
<g id="node9" class="node"><title>Node5</title>
<a xlink:href="structant_1_1rowend.html" target="_top" xlink:title="ant::rowend">
<polygon fill="white" stroke="black" points="116,-0.5 116,-21.5 184,-21.5 184,-0.5 116,-0.5"/>
<text text-anchor="middle" x="150" y="-8.5" font-family="Helvetica,sans-Serif" font-size="10.00">ant::rowend</text>
</a>
</g>
<!-- Node1&#45;&gt;Node5 -->
<g id="edge8" class="edge"><title>Node1&#45;&gt;Node5</title>
<path fill="none" stroke="midnightblue" d="M62.9215,-55.5183C76.3568,-47.927 92.921,-38.7692 108,-31 114.174,-27.8189 120.94,-24.518 127.203,-21.5368"/>
<polygon fill="midnightblue" stroke="midnightblue" points="61.142,-52.5038 54.1767,-60.4873 64.6003,-58.5899 61.142,-52.5038"/>
</g>
</g>
</svg>
