<?xml version="1.0" encoding="UTF-8" standalone="no"?>
<!DOCTYPE svg PUBLIC "-//W3C//DTD SVG 1.1//EN"
 "http://www.w3.org/Graphics/SVG/1.1/DTD/svg11.dtd">
<!-- Generated by graphviz version 2.26.3 (20100126.1600)
 -->
<!-- Title: Graphical Class Hierarchy Pages: 1 -->
<svg width="416pt" height="198pt"
 viewBox="0.00 0.00 416.00 198.00" xmlns="http://www.w3.org/2000/svg" xmlns:xlink="http://www.w3.org/1999/xlink">
<g id="graph1" class="graph" transform="scale(1 1) rotate(0) translate(4 194)">
<title>Graphical Class Hierarchy</title>
<polygon fill="white" stroke="white" points="-4,5 -4,-194 413,-194 413,5 -4,5"/>
<!-- Node1 -->
<g id="node1" class="node"><title>Node1</title>
<a xlink:href="classant_1_1calibration_1_1gui_1_1_manager__traits.html" target="_top" xlink:title="ant::calibration::gui\l::Manager_traits">
<polygon fill="white" stroke="black" points="0.5,-78 0.5,-112 99.5,-112 99.5,-78 0.5,-78"/>
<text text-anchor="start" x="8.5" y="-99" font-family="Helvetica,sans-Serif" font-size="10.00">ant::calibration::gui</text>
<text text-anchor="middle" x="50" y="-86" font-family="Helvetica,sans-Serif" font-size="10.00">::Manager_traits</text>
</a>
</g>
<!-- Node2 -->
<g id="node3" class="node"><title>Node2</title>
<a xlink:href="classant_1_1calibration_1_1_c_b___time_walk_1_1_the_g_u_i.html" target="_top" xlink:title="ant::calibration::CB\l_TimeWalk::TheGUI">
<polygon fill="white" stroke="black" points="141.5,-156 141.5,-190 248.5,-190 248.5,-156 141.5,-156"/>
<text text-anchor="start" x="149.5" y="-177" font-family="Helvetica,sans-Serif" font-size="10.00">ant::calibration::CB</text>
<text text-anchor="middle" x="195" y="-164" font-family="Helvetica,sans-Serif" font-size="10.00">_TimeWalk::TheGUI</text>
</a>
</g>
<!-- Node1&#45;&gt;Node2 -->
<g id="edge2" class="edge"><title>Node1&#45;&gt;Node2</title>
<path fill="none" stroke="midnightblue" d="M84.9033,-117.504C100.307,-127.068 118.789,-138.052 136,-147 141.86,-150.046 148.152,-153.07 154.367,-155.919"/>
<polygon fill="midnightblue" stroke="midnightblue" points="86.5549,-114.409 76.2229,-112.064 82.8374,-120.34 86.5549,-114.409"/>
</g>
<!-- Node3 -->
<g id="node5" class="node"><title>Node3</title>
<a xlink:href="structant_1_1calibration_1_1_energy_1_1_g_u_i___calib_type.html" target="_top" xlink:title="The GUI_CalibType struct is an abstract base class for handling the data storage for a provided Calib...">
<polygon fill="white" stroke="black" points="136.5,-104 136.5,-138 253.5,-138 253.5,-104 136.5,-104"/>
<text text-anchor="start" x="144.5" y="-125" font-family="Helvetica,sans-Serif" font-size="10.00">ant::calibration::Energy</text>
<text text-anchor="middle" x="195" y="-112" font-family="Helvetica,sans-Serif" font-size="10.00">::GUI_CalibType</text>
</a>
</g>
<!-- Node1&#45;&gt;Node3 -->
<g id="edge4" class="edge"><title>Node1&#45;&gt;Node3</title>
<path fill="none" stroke="midnightblue" d="M109.961,-105.752C118.655,-107.311 127.597,-108.914 136.266,-110.468"/>
<polygon fill="midnightblue" stroke="midnightblue" points="110.362,-102.268 99.9008,-103.948 109.126,-109.158 110.362,-102.268"/>
</g>
<!-- Node6 -->
<g id="node11" class="node"><title>Node6</title>
<a xlink:href="classant_1_1calibration_1_1_p_i_d___phi_angle_1_1_the_g_u_i.html" target="_top" xlink:title="ant::calibration::PID\l_PhiAngle::TheGUI">
<polygon fill="white" stroke="black" points="143,-52 143,-86 247,-86 247,-52 143,-52"/>
<text text-anchor="start" x="151" y="-73" font-family="Helvetica,sans-Serif" font-size="10.00">ant::calibration::PID</text>
<text text-anchor="middle" x="195" y="-60" font-family="Helvetica,sans-Serif" font-size="10.00">_PhiAngle::TheGUI</text>
</a>
</g>
<!-- Node1&#45;&gt;Node6 -->
<g id="edge10" class="edge"><title>Node1&#45;&gt;Node6</title>
<path fill="none" stroke="midnightblue" d="M109.747,-84.2867C120.622,-82.3368 131.892,-80.3159 142.536,-78.4073"/>
<polygon fill="midnightblue" stroke="midnightblue" points="109.126,-80.8422 99.9008,-86.0523 110.362,-87.7323 109.126,-80.8422"/>
</g>
<!-- Node7 -->
<g id="node13" class="node"><title>Node7</title>
<a xlink:href="classant_1_1calibration_1_1_time_1_1_the_g_u_i.html" target="_top" xlink:title="ant::calibration::Time\l::TheGUI">
<polygon fill="white" stroke="black" points="141,-0 141,-34 249,-34 249,-0 141,-0"/>
<text text-anchor="start" x="149" y="-21" font-family="Helvetica,sans-Serif" font-size="10.00">ant::calibration::Time</text>
<text text-anchor="middle" x="195" y="-8" font-family="Helvetica,sans-Serif" font-size="10.00">::TheGUI</text>
</a>
</g>
<!-- Node1&#45;&gt;Node7 -->
<g id="edge12" class="edge"><title>Node1&#45;&gt;Node7</title>
<path fill="none" stroke="midnightblue" d="M84.9033,-72.4955C100.307,-62.9321 118.789,-51.9483 136,-43 141.86,-39.9535 148.152,-36.9303 154.367,-34.0814"/>
<polygon fill="midnightblue" stroke="midnightblue" points="82.8374,-69.6597 76.2229,-77.9361 86.5549,-75.591 82.8374,-69.6597"/>
</g>
<!-- Node4 -->
<g id="node7" class="node"><title>Node4</title>
<a xlink:href="structant_1_1calibration_1_1_c_b___energy_1_1_g_u_i___gains.html" target="_top" xlink:title="ant::calibration::CB\l_Energy::GUI_Gains">
<polygon fill="white" stroke="black" points="295.5,-130 295.5,-164 402.5,-164 402.5,-130 295.5,-130"/>
<text text-anchor="start" x="303.5" y="-151" font-family="Helvetica,sans-Serif" font-size="10.00">ant::calibration::CB</text>
<text text-anchor="middle" x="349" y="-138" font-family="Helvetica,sans-Serif" font-size="10.00">_Energy::GUI_Gains</text>
</a>
</g>
<!-- Node3&#45;&gt;Node4 -->
<g id="edge6" class="edge"><title>Node3&#45;&gt;Node4</title>
<path fill="none" stroke="midnightblue" d="M263.721,-132.602C274.31,-134.39 285.11,-136.213 295.308,-137.935"/>
<polygon fill="midnightblue" stroke="midnightblue" points="264.103,-129.117 253.66,-130.904 262.938,-136.02 264.103,-129.117"/>
</g>
<!-- Node5 -->
<g id="node9" class="node"><title>Node5</title>
<a xlink:href="structant_1_1calibration_1_1_energy_1_1_g_u_i___pedestals.html" target="_top" xlink:title="ant::calibration::Energy\l::GUI_Pedestals">
<polygon fill="white" stroke="black" points="290.5,-78 290.5,-112 407.5,-112 407.5,-78 290.5,-78"/>
<text text-anchor="start" x="298.5" y="-99" font-family="Helvetica,sans-Serif" font-size="10.00">ant::calibration::Energy</text>
<text text-anchor="middle" x="349" y="-86" font-family="Helvetica,sans-Serif" font-size="10.00">::GUI_Pedestals</text>
</a>
</g>
<!-- Node3&#45;&gt;Node5 -->
<g id="edge8" class="edge"><title>Node3&#45;&gt;Node5</title>
<path fill="none" stroke="midnightblue" d="M263.607,-109.417C272.497,-107.916 281.538,-106.39 290.248,-104.919"/>
<polygon fill="midnightblue" stroke="midnightblue" points="262.938,-105.98 253.66,-111.096 264.103,-112.883 262.938,-105.98"/>
</g>
</g>
</svg>
