<?xml version="1.0" encoding="UTF-8" standalone="no"?>
<!DOCTYPE svg PUBLIC "-//W3C//DTD SVG 1.1//EN"
 "http://www.w3.org/Graphics/SVG/1.1/DTD/svg11.dtd">
<!-- Generated by graphviz version 2.26.3 (20100126.1600)
 -->
<!-- Title: src/base/iterators.h Pages: 1 -->
<svg width="396pt" height="102pt"
 viewBox="0.00 0.00 396.00 102.00" xmlns="http://www.w3.org/2000/svg" xmlns:xlink="http://www.w3.org/1999/xlink">
<g id="graph1" class="graph" transform="scale(1 1) rotate(0) translate(4 98)">
<title>src/base/iterators.h</title>
<polygon fill="white" stroke="white" points="-4,5 -4,-98 393,-98 393,5 -4,5"/>
<!-- Node1 -->
<g id="node1" class="node"><title>Node1</title>
<polygon fill="#bfbfbf" stroke="black" points="160.5,-72.5 160.5,-93.5 261.5,-93.5 261.5,-72.5 160.5,-72.5"/>
<text text-anchor="middle" x="211" y="-80.5" font-family="Helvetica,sans-Serif" font-size="10.00">src/base/iterators.h</text>
</g>
<!-- Node2 -->
<g id="node3" class="node"><title>Node2</title>
<a xlink:href="omega__histograms_8cc.html" target="_top" xlink:title="progs/omega_histograms.cc">
<polygon fill="white" stroke="black" points="0,-7.5 0,-28.5 140,-28.5 140,-7.5 0,-7.5"/>
<text text-anchor="middle" x="70" y="-15.5" font-family="Helvetica,sans-Serif" font-size="10.00">progs/omega_histograms.cc</text>
</a>
</g>
<!-- Node1&#45;&gt;Node2 -->
<g id="edge2" class="edge"><title>Node1&#45;&gt;Node2</title>
<path fill="none" stroke="midnightblue" d="M178.882,-68.194C152.682,-56.1156 116.306,-39.3469 92.9581,-28.5835"/>
<polygon fill="midnightblue" stroke="midnightblue" points="177.485,-71.4039 188.032,-72.412 180.416,-65.0469 177.485,-71.4039"/>
</g>
<!-- Node3 -->
<g id="node5" class="node"><title>Node3</title>
<a xlink:href="show__cocktail__database_8cc.html" target="_top" xlink:title="progs/show_cocktail\l_database.cc">
<polygon fill="white" stroke="black" points="158,-1 158,-35 264,-35 264,-1 158,-1"/>
<text text-anchor="start" x="166" y="-22" font-family="Helvetica,sans-Serif" font-size="10.00">progs/show_cocktail</text>
<text text-anchor="middle" x="211" y="-9" font-family="Helvetica,sans-Serif" font-size="10.00">_database.cc</text>
</a>
</g>
<!-- Node1&#45;&gt;Node3 -->
<g id="edge4" class="edge"><title>Node1&#45;&gt;Node3</title>
<path fill="none" stroke="midnightblue" d="M211,-62.1306C211,-53.4049 211,-43.3908 211,-35.1099"/>
<polygon fill="midnightblue" stroke="midnightblue" points="207.5,-62.2665 211,-72.2666 214.5,-62.2666 207.5,-62.2665"/>
</g>
<!-- Node4 -->
<g id="node7" class="node"><title>Node4</title>
<a xlink:href="omega_8cc.html" target="_top" xlink:title="src/analysis/physics\l/omega/omega.cc">
<polygon fill="white" stroke="black" points="282,-1 282,-35 388,-35 388,-1 282,-1"/>
<text text-anchor="start" x="290" y="-22" font-family="Helvetica,sans-Serif" font-size="10.00">src/analysis/physics</text>
<text text-anchor="middle" x="335" y="-9" font-family="Helvetica,sans-Serif" font-size="10.00">/omega/omega.cc</text>
</a>
</g>
<!-- Node1&#45;&gt;Node4 -->
<g id="edge6" class="edge"><title>Node1&#45;&gt;Node4</title>
<path fill="none" stroke="midnightblue" d="M240.108,-67.7416C258.727,-57.9816 282.917,-45.3017 302.213,-35.1869"/>
<polygon fill="midnightblue" stroke="midnightblue" points="238.431,-64.6692 231.199,-72.412 241.681,-70.8691 238.431,-64.6692"/>
</g>
</g>
</svg>
