<?xml version="1.0" encoding="UTF-8" standalone="no"?>
<!DOCTYPE svg PUBLIC "-//W3C//DTD SVG 1.1//EN"
 "http://www.w3.org/Graphics/SVG/1.1/DTD/svg11.dtd">
<!-- Generated by graphviz version 2.26.3 (20100126.1600)
 -->
<!-- Title: src/analysis/utils/matcher.h Pages: 1 -->
<svg width="516pt" height="116pt"
 viewBox="0.00 0.00 516.00 116.00" xmlns="http://www.w3.org/2000/svg" xmlns:xlink="http://www.w3.org/1999/xlink">
<g id="graph1" class="graph" transform="scale(1 1) rotate(0) translate(4 112)">
<title>src/analysis/utils/matcher.h</title>
<polygon fill="white" stroke="white" points="-4,5 -4,-112 513,-112 513,5 -4,5"/>
<!-- Node1 -->
<g id="node1" class="node"><title>Node1</title>
<polygon fill="#bfbfbf" stroke="black" points="203,-73 203,-107 293,-107 293,-73 203,-73"/>
<text text-anchor="start" x="211" y="-94" font-family="Helvetica,sans-Serif" font-size="10.00">src/analysis/utils</text>
<text text-anchor="middle" x="248" y="-81" font-family="Helvetica,sans-Serif" font-size="10.00">/matcher.h</text>
</g>
<!-- Node2 -->
<g id="node3" class="node"><title>Node2</title>
<a xlink:href="_reco_check_8cc.html" target="_top" xlink:title="src/analysis/physics\l/misc/RecoCheck.cc">
<polygon fill="white" stroke="black" points="-0.5,-1 -0.5,-35 108.5,-35 108.5,-1 -0.5,-1"/>
<text text-anchor="start" x="7.5" y="-22" font-family="Helvetica,sans-Serif" font-size="10.00">src/analysis/physics</text>
<text text-anchor="middle" x="54" y="-9" font-family="Helvetica,sans-Serif" font-size="10.00">/misc/RecoCheck.cc</text>
</a>
</g>
<!-- Node1&#45;&gt;Node2 -->
<g id="edge2" class="edge"><title>Node1&#45;&gt;Node2</title>
<path fill="none" stroke="midnightblue" d="M192.814,-69.5186C163.43,-58.6133 127.716,-45.3584 99.8716,-35.0245"/>
<polygon fill="midnightblue" stroke="midnightblue" points="191.923,-72.921 202.516,-73.1192 194.358,-66.3584 191.923,-72.921"/>
</g>
<!-- Node3 -->
<g id="node5" class="node"><title>Node3</title>
<a xlink:href="_split_check_8cc.html" target="_top" xlink:title="src/analysis/physics\l/misc/SplitCheck.cc">
<polygon fill="white" stroke="black" points="126,-1 126,-35 232,-35 232,-1 126,-1"/>
<text text-anchor="start" x="134" y="-22" font-family="Helvetica,sans-Serif" font-size="10.00">src/analysis/physics</text>
<text text-anchor="middle" x="179" y="-9" font-family="Helvetica,sans-Serif" font-size="10.00">/misc/SplitCheck.cc</text>
</a>
</g>
<!-- Node1&#45;&gt;Node3 -->
<g id="edge4" class="edge"><title>Node1&#45;&gt;Node3</title>
<path fill="none" stroke="midnightblue" d="M224.684,-65.6706C215.182,-55.7551 204.41,-44.5151 195.714,-35.4407"/>
<polygon fill="midnightblue" stroke="midnightblue" points="222.202,-68.1388 231.648,-72.937 227.256,-63.2954 222.202,-68.1388"/>
</g>
<!-- Node4 -->
<g id="node7" class="node"><title>Node4</title>
<a xlink:href="_geo_acceptance_8cc.html" target="_top" xlink:title="src/analysis/physics\l/omega/GeoAcceptance.cc">
<polygon fill="white" stroke="black" points="249.5,-1 249.5,-35 384.5,-35 384.5,-1 249.5,-1"/>
<text text-anchor="start" x="257.5" y="-22" font-family="Helvetica,sans-Serif" font-size="10.00">src/analysis/physics</text>
<text text-anchor="middle" x="317" y="-9" font-family="Helvetica,sans-Serif" font-size="10.00">/omega/GeoAcceptance.cc</text>
</a>
</g>
<!-- Node1&#45;&gt;Node4 -->
<g id="edge6" class="edge"><title>Node1&#45;&gt;Node4</title>
<path fill="none" stroke="midnightblue" d="M271.316,-65.6706C280.818,-55.7551 291.59,-44.5151 300.286,-35.4407"/>
<polygon fill="midnightblue" stroke="midnightblue" points="268.744,-63.2954 264.352,-72.937 273.798,-68.1388 268.744,-63.2954"/>
</g>
<!-- Node5 -->
<g id="node9" class="node"><title>Node5</title>
<a xlink:href="omega_8cc.html" target="_top" xlink:title="src/analysis/physics\l/omega/omega.cc">
<polygon fill="white" stroke="black" points="402,-1 402,-35 508,-35 508,-1 402,-1"/>
<text text-anchor="start" x="410" y="-22" font-family="Helvetica,sans-Serif" font-size="10.00">src/analysis/physics</text>
<text text-anchor="middle" x="455" y="-9" font-family="Helvetica,sans-Serif" font-size="10.00">/omega/omega.cc</text>
</a>
</g>
<!-- Node1&#45;&gt;Node5 -->
<g id="edge8" class="edge"><title>Node1&#45;&gt;Node5</title>
<path fill="none" stroke="midnightblue" d="M302.836,-70.9266C334.872,-59.7837 374.961,-45.8395 405.948,-35.0616"/>
<polygon fill="midnightblue" stroke="midnightblue" points="301.466,-67.6973 293.171,-74.2883 303.766,-74.3087 301.466,-67.6973"/>
</g>
</g>
</svg>
