<?xml version="1.0" encoding="UTF-8" standalone="no"?>
<!DOCTYPE svg PUBLIC "-//W3C//DTD SVG 1.1//EN"
 "http://www.w3.org/Graphics/SVG/1.1/DTD/svg11.dtd">
<!-- Generated by graphviz version 2.26.3 (20100126.1600)
 -->
<!-- Title: src/base/std_ext/math.h Pages: 1 -->
<svg width="2985pt" height="258pt"
 viewBox="0.00 0.00 2985.00 258.00" xmlns="http://www.w3.org/2000/svg" xmlns:xlink="http://www.w3.org/1999/xlink">
<g id="graph1" class="graph" transform="scale(1 1) rotate(0) translate(4 254)">
<title>src/base/std_ext/math.h</title>
<polygon fill="white" stroke="white" points="-4,5 -4,-254 2982,-254 2982,5 -4,5"/>
<!-- Node1 -->
<g id="node1" class="node"><title>Node1</title>
<polygon fill="#bfbfbf" stroke="black" points="1559,-228.5 1559,-249.5 1681,-249.5 1681,-228.5 1559,-228.5"/>
<text text-anchor="middle" x="1620" y="-236.5" font-family="Helvetica,sans-Serif" font-size="10.00">src/base/std_ext/math.h</text>
</g>
<!-- Node2 -->
<g id="node3" class="node"><title>Node2</title>
<a xlink:href="_ant-pluto_8cc.html" target="_top" xlink:title="Pluto generator forntend. ">
<polygon fill="white" stroke="black" points="0,-157.5 0,-178.5 96,-178.5 96,-157.5 0,-157.5"/>
<text text-anchor="middle" x="48" y="-165.5" font-family="Helvetica,sans-Serif" font-size="10.00">progs/Ant&#45;pluto.cc</text>
</a>
</g>
<!-- Node1&#45;&gt;Node2 -->
<g id="edge2" class="edge"><title>Node1&#45;&gt;Node2</title>
<path fill="none" stroke="midnightblue" d="M1548.48,-238.319C1267.35,-235.432 246.664,-222.901 105,-192 92.2015,-189.208 78.6562,-183.627 67.9826,-178.548"/>
<polygon fill="midnightblue" stroke="midnightblue" points="1548.52,-241.819 1558.56,-238.422 1548.6,-234.82 1548.52,-241.819"/>
</g>
<!-- Node3 -->
<g id="node5" class="node"><title>Node3</title>
<a xlink:href="omega__tree_8cc.html" target="_top" xlink:title="progs/omega_tree.cc">
<polygon fill="white" stroke="black" points="114,-157.5 114,-178.5 222,-178.5 222,-157.5 114,-157.5"/>
<text text-anchor="middle" x="168" y="-165.5" font-family="Helvetica,sans-Serif" font-size="10.00">progs/omega_tree.cc</text>
</a>
</g>
<!-- Node1&#45;&gt;Node3 -->
<g id="edge4" class="edge"><title>Node1&#45;&gt;Node3</title>
<path fill="none" stroke="midnightblue" d="M1548.38,-237.958C1282.44,-233.898 360.323,-218.067 231,-192 217.002,-189.179 202.038,-183.596 190.208,-178.524"/>
<polygon fill="midnightblue" stroke="midnightblue" points="1548.63,-241.462 1558.68,-238.114 1548.74,-234.463 1548.63,-241.462"/>
</g>
<!-- Node4 -->
<g id="node7" class="node"><title>Node4</title>
<a xlink:href="_particle_8cc.html" target="_top" xlink:title="src/analysis/data/Particle.cc">
<polygon fill="white" stroke="black" points="240,-157.5 240,-178.5 380,-178.5 380,-157.5 240,-157.5"/>
<text text-anchor="middle" x="310" y="-165.5" font-family="Helvetica,sans-Serif" font-size="10.00">src/analysis/data/Particle.cc</text>
</a>
</g>
<!-- Node1&#45;&gt;Node4 -->
<g id="edge6" class="edge"><title>Node1&#45;&gt;Node4</title>
<path fill="none" stroke="midnightblue" d="M1548.79,-238.678C1321.38,-237.272 614.375,-229.887 389,-192 371.896,-189.125 353.311,-183.606 338.467,-178.585"/>
<polygon fill="midnightblue" stroke="midnightblue" points="1548.91,-242.178 1558.93,-238.738 1548.95,-235.179 1548.91,-242.178"/>
</g>
<!-- Node5 -->
<g id="node9" class="node"><title>Node5</title>
<a xlink:href="_extract_timings_8cc.html" target="_top" xlink:title="src/analysis/physics\l/common/ExtractTimings.cc">
<polygon fill="white" stroke="black" points="398,-151 398,-185 538,-185 538,-151 398,-151"/>
<text text-anchor="start" x="406" y="-172" font-family="Helvetica,sans-Serif" font-size="10.00">src/analysis/physics</text>
<text text-anchor="middle" x="468" y="-159" font-family="Helvetica,sans-Serif" font-size="10.00">/common/ExtractTimings.cc</text>
</a>
</g>
<!-- Node1&#45;&gt;Node5 -->
<g id="edge8" class="edge"><title>Node1&#45;&gt;Node5</title>
<path fill="none" stroke="midnightblue" d="M1548.54,-238.206C1340.94,-235.531 740.397,-225.07 547,-192 537.251,-190.333 527.018,-187.821 517.27,-185.041"/>
<polygon fill="midnightblue" stroke="midnightblue" points="1548.67,-241.708 1558.71,-238.335 1548.76,-234.709 1548.67,-241.708"/>
</g>
<!-- Node6 -->
<g id="node11" class="node"><title>Node6</title>
<a xlink:href="_m_c_smearing_8cc.html" target="_top" xlink:title="src/analysis/physics\l/common/MCSmearing.cc">
<polygon fill="white" stroke="black" points="555.5,-151 555.5,-185 686.5,-185 686.5,-151 555.5,-151"/>
<text text-anchor="start" x="563.5" y="-172" font-family="Helvetica,sans-Serif" font-size="10.00">src/analysis/physics</text>
<text text-anchor="middle" x="621" y="-159" font-family="Helvetica,sans-Serif" font-size="10.00">/common/MCSmearing.cc</text>
</a>
</g>
<!-- Node1&#45;&gt;Node6 -->
<g id="edge10" class="edge"><title>Node1&#45;&gt;Node6</title>
<path fill="none" stroke="midnightblue" d="M1548.81,-237.798C1361.57,-234.252 858.528,-222.128 695,-192 685.835,-190.311 676.235,-187.79 667.1,-185.006"/>
<polygon fill="midnightblue" stroke="midnightblue" points="1548.75,-241.298 1558.82,-237.986 1548.88,-234.299 1548.75,-241.298"/>
</g>
<!-- Node7 -->
<g id="node13" class="node"><title>Node7</title>
<a xlink:href="_particle_i_d_check_8cc.html" target="_top" xlink:title="src/analysis/physics\l/common/ParticleIDCheck.cc">
<polygon fill="white" stroke="black" points="704,-151 704,-185 850,-185 850,-151 704,-151"/>
<text text-anchor="start" x="712" y="-172" font-family="Helvetica,sans-Serif" font-size="10.00">src/analysis/physics</text>
<text text-anchor="middle" x="777" y="-159" font-family="Helvetica,sans-Serif" font-size="10.00">/common/ParticleIDCheck.cc</text>
</a>
</g>
<!-- Node1&#45;&gt;Node7 -->
<g id="edge12" class="edge"><title>Node1&#45;&gt;Node7</title>
<path fill="none" stroke="midnightblue" d="M1548.37,-236.617C1385.25,-230.858 990.176,-214.951 859,-192 849.064,-190.262 838.621,-187.753 828.641,-185.007"/>
<polygon fill="midnightblue" stroke="midnightblue" points="1548.65,-240.129 1558.77,-236.981 1548.9,-233.133 1548.65,-240.129"/>
</g>
<!-- Node8 -->
<g id="node15" class="node"><title>Node8</title>
<a xlink:href="_proton_tagger_8cc.html" target="_top" xlink:title="src/analysis/physics\l/common/ProtonTagger.cc">
<polygon fill="white" stroke="black" points="868,-151 868,-185 1000,-185 1000,-151 868,-151"/>
<text text-anchor="start" x="876" y="-172" font-family="Helvetica,sans-Serif" font-size="10.00">src/analysis/physics</text>
<text text-anchor="middle" x="934" y="-159" font-family="Helvetica,sans-Serif" font-size="10.00">/common/ProtonTagger.cc</text>
</a>
</g>
<!-- Node1&#45;&gt;Node8 -->
<g id="edge14" class="edge"><title>Node1&#45;&gt;Node8</title>
<path fill="none" stroke="midnightblue" d="M1548.75,-235.607C1410.5,-228.678 1110.54,-211.87 1009,-192 1000.01,-190.241 990.59,-187.759 981.578,-185.052"/>
<polygon fill="midnightblue" stroke="midnightblue" points="1548.66,-239.106 1558.82,-236.108 1549.01,-232.115 1548.66,-239.106"/>
</g>
<!-- Node9 -->
<g id="node17" class="node"><title>Node9</title>
<a xlink:href="_reconstruct_check_8cc.html" target="_top" xlink:title="src/analysis/physics\l/common/ReconstructCheck.cc">
<polygon fill="white" stroke="black" points="1017.5,-151 1017.5,-185 1172.5,-185 1172.5,-151 1017.5,-151"/>
<text text-anchor="start" x="1025.5" y="-172" font-family="Helvetica,sans-Serif" font-size="10.00">src/analysis/physics</text>
<text text-anchor="middle" x="1095" y="-159" font-family="Helvetica,sans-Serif" font-size="10.00">/common/ReconstructCheck.cc</text>
</a>
</g>
<!-- Node1&#45;&gt;Node9 -->
<g id="edge16" class="edge"><title>Node1&#45;&gt;Node9</title>
<path fill="none" stroke="midnightblue" d="M1548.75,-235.008C1461.46,-229.283 1309.35,-216.605 1181,-192 1171.26,-190.132 1161.01,-187.698 1151.12,-185.098"/>
<polygon fill="midnightblue" stroke="midnightblue" points="1548.61,-238.505 1558.81,-235.655 1549.06,-231.52 1548.61,-238.505"/>
</g>
<!-- Node10 -->
<g id="node19" class="node"><title>Node10</title>
<a xlink:href="etaprime-3pi0_8cc.html" target="_top" xlink:title="src/analysis/physics\l/etaprime/etaprime&#45;3pi0.cc">
<polygon fill="white" stroke="black" points="1190,-151 1190,-185 1322,-185 1322,-151 1190,-151"/>
<text text-anchor="start" x="1198" y="-172" font-family="Helvetica,sans-Serif" font-size="10.00">src/analysis/physics</text>
<text text-anchor="middle" x="1256" y="-159" font-family="Helvetica,sans-Serif" font-size="10.00">/etaprime/etaprime&#45;3pi0.cc</text>
</a>
</g>
<!-- Node1&#45;&gt;Node10 -->
<g id="edge18" class="edge"><title>Node1&#45;&gt;Node10</title>
<path fill="none" stroke="midnightblue" d="M1548.93,-230.437C1490.07,-222.631 1404.48,-209.628 1331,-192 1322.76,-190.023 1314.11,-187.595 1305.73,-185.052"/>
<polygon fill="midnightblue" stroke="midnightblue" points="1548.5,-233.91 1558.87,-231.739 1549.41,-226.97 1548.5,-233.91"/>
</g>
<!-- Node11 -->
<g id="node21" class="node"><title>Node11</title>
<a xlink:href="etaprime__omega__gamma_8cc.html" target="_top" xlink:title="src/analysis/physics\l/etaprime/etaprime_omega\l_gamma.cc">
<polygon fill="white" stroke="black" points="1340,-144.5 1340,-191.5 1472,-191.5 1472,-144.5 1340,-144.5"/>
<text text-anchor="start" x="1348" y="-178.5" font-family="Helvetica,sans-Serif" font-size="10.00">src/analysis/physics</text>
<text text-anchor="start" x="1348" y="-165.5" font-family="Helvetica,sans-Serif" font-size="10.00">/etaprime/etaprime_omega</text>
<text text-anchor="middle" x="1406" y="-152.5" font-family="Helvetica,sans-Serif" font-size="10.00">_gamma.cc</text>
</a>
</g>
<!-- Node1&#45;&gt;Node11 -->
<g id="edge20" class="edge"><title>Node1&#45;&gt;Node11</title>
<path fill="none" stroke="midnightblue" d="M1578.21,-225.136C1548.13,-215.155 1506.93,-201.487 1472.37,-190.021"/>
<polygon fill="midnightblue" stroke="midnightblue" points="1577.37,-228.543 1587.96,-228.371 1579.57,-221.9 1577.37,-228.543"/>
</g>
<!-- Node12 -->
<g id="node23" class="node"><title>Node12</title>
<a xlink:href="mctrue__3pi0_8cc.html" target="_top" xlink:title="src/analysis/physics\l/etaprime/mctrue_3pi0.cc">
<polygon fill="white" stroke="black" points="1489.5,-151 1489.5,-185 1616.5,-185 1616.5,-151 1489.5,-151"/>
<text text-anchor="start" x="1497.5" y="-172" font-family="Helvetica,sans-Serif" font-size="10.00">src/analysis/physics</text>
<text text-anchor="middle" x="1553" y="-159" font-family="Helvetica,sans-Serif" font-size="10.00">/etaprime/mctrue_3pi0.cc</text>
</a>
</g>
<!-- Node1&#45;&gt;Node12 -->
<g id="edge22" class="edge"><title>Node1&#45;&gt;Node12</title>
<path fill="none" stroke="midnightblue" d="M1602.87,-220.846C1592.54,-209.899 1579.45,-196.032 1569.28,-185.251"/>
<polygon fill="midnightblue" stroke="midnightblue" points="1600.42,-223.346 1609.82,-228.217 1605.51,-218.541 1600.42,-223.346"/>
</g>
<!-- Node13 -->
<g id="node25" class="node"><title>Node13</title>
<a xlink:href="omega_8h.html" target="_top" xlink:title="src/analysis/physics\l/omega/omega.h">
<polygon fill="white" stroke="black" points="1634,-151 1634,-185 1740,-185 1740,-151 1634,-151"/>
<text text-anchor="start" x="1642" y="-172" font-family="Helvetica,sans-Serif" font-size="10.00">src/analysis/physics</text>
<text text-anchor="middle" x="1687" y="-159" font-family="Helvetica,sans-Serif" font-size="10.00">/omega/omega.h</text>
</a>
</g>
<!-- Node1&#45;&gt;Node13 -->
<g id="edge24" class="edge"><title>Node1&#45;&gt;Node13</title>
<path fill="none" stroke="midnightblue" d="M1637.13,-220.846C1647.46,-209.899 1660.55,-196.032 1670.72,-185.251"/>
<polygon fill="midnightblue" stroke="midnightblue" points="1634.49,-218.541 1630.18,-228.217 1639.58,-223.346 1634.49,-218.541"/>
</g>
<!-- Node15 -->
<g id="node29" class="node"><title>Node15</title>
<a xlink:href="omega_8cc.html" target="_top" xlink:title="src/analysis/physics\l/omega/omega.cc">
<polygon fill="white" stroke="black" points="1715,-73 1715,-107 1821,-107 1821,-73 1715,-73"/>
<text text-anchor="start" x="1723" y="-94" font-family="Helvetica,sans-Serif" font-size="10.00">src/analysis/physics</text>
<text text-anchor="middle" x="1768" y="-81" font-family="Helvetica,sans-Serif" font-size="10.00">/omega/omega.cc</text>
</a>
</g>
<!-- Node1&#45;&gt;Node15 -->
<g id="edge30" class="edge"><title>Node1&#45;&gt;Node15</title>
<path fill="none" stroke="midnightblue" d="M1690.97,-227.295C1712.45,-220.395 1734.24,-209.428 1749,-192 1769.26,-168.084 1770.76,-129.557 1769.64,-107.33"/>
<polygon fill="midnightblue" stroke="midnightblue" points="1689.75,-224.005 1681.15,-230.187 1691.73,-230.72 1689.75,-224.005"/>
</g>
<!-- Node16 -->
<g id="node32" class="node"><title>Node16</title>
<a xlink:href="etaprime-3pi0-test_8cc.html" target="_top" xlink:title="src/analysis/physics\l/wolfes/etaprime&#45;3pi0\l&#45;test.cc">
<polygon fill="white" stroke="black" points="1796,-144.5 1796,-191.5 1906,-191.5 1906,-144.5 1796,-144.5"/>
<text text-anchor="start" x="1804" y="-178.5" font-family="Helvetica,sans-Serif" font-size="10.00">src/analysis/physics</text>
<text text-anchor="start" x="1804" y="-165.5" font-family="Helvetica,sans-Serif" font-size="10.00">/wolfes/etaprime&#45;3pi0</text>
<text text-anchor="middle" x="1851" y="-152.5" font-family="Helvetica,sans-Serif" font-size="10.00">&#45;test.cc</text>
</a>
</g>
<!-- Node1&#45;&gt;Node16 -->
<g id="edge32" class="edge"><title>Node1&#45;&gt;Node16</title>
<path fill="none" stroke="midnightblue" d="M1668.12,-225.751C1700.46,-216.675 1743.94,-204.13 1782,-192 1786.47,-190.575 1791.09,-189.06 1795.72,-187.512"/>
<polygon fill="midnightblue" stroke="midnightblue" points="1667.16,-222.388 1658.47,-228.452 1669.04,-229.129 1667.16,-222.388"/>
</g>
<!-- Node17 -->
<g id="node34" class="node"><title>Node17</title>
<a xlink:href="particle__tools_8cc.html" target="_top" xlink:title="src/analysis/utils\l/particle_tools.cc">
<polygon fill="white" stroke="black" points="1923.5,-151 1923.5,-185 2014.5,-185 2014.5,-151 1923.5,-151"/>
<text text-anchor="start" x="1931.5" y="-172" font-family="Helvetica,sans-Serif" font-size="10.00">src/analysis/utils</text>
<text text-anchor="middle" x="1969" y="-159" font-family="Helvetica,sans-Serif" font-size="10.00">/particle_tools.cc</text>
</a>
</g>
<!-- Node1&#45;&gt;Node17 -->
<g id="edge34" class="edge"><title>Node1&#45;&gt;Node17</title>
<path fill="none" stroke="midnightblue" d="M1691.4,-232.877C1751.87,-226.452 1840.38,-214.114 1915,-192 1921.3,-190.134 1927.82,-187.702 1934.06,-185.102"/>
<polygon fill="midnightblue" stroke="midnightblue" points="1690.78,-229.422 1681.2,-233.933 1691.5,-236.385 1690.78,-229.422"/>
</g>
<!-- Node18 -->
<g id="node36" class="node"><title>Node18</title>
<a xlink:href="_base_functions_8cc.html" target="_top" xlink:title="src/calibration/fitfunctions\l/BaseFunctions.cc">
<polygon fill="white" stroke="black" points="2032,-151 2032,-185 2160,-185 2160,-151 2032,-151"/>
<text text-anchor="start" x="2040" y="-172" font-family="Helvetica,sans-Serif" font-size="10.00">src/calibration/fitfunctions</text>
<text text-anchor="middle" x="2096" y="-159" font-family="Helvetica,sans-Serif" font-size="10.00">/BaseFunctions.cc</text>
</a>
</g>
<!-- Node1&#45;&gt;Node18 -->
<g id="edge36" class="edge"><title>Node1&#45;&gt;Node18</title>
<path fill="none" stroke="midnightblue" d="M1691.15,-235.049C1772.24,-229.545 1908.38,-217.254 2023,-192 2031.47,-190.134 2040.34,-187.668 2048.87,-185.028"/>
<polygon fill="midnightblue" stroke="midnightblue" points="1690.8,-231.564 1681.06,-235.718 1691.27,-238.549 1690.8,-231.564"/>
</g>
<!-- Node19 -->
<g id="node38" class="node"><title>Node19</title>
<a xlink:href="_p_i_d___phi_angle_8cc.html" target="_top" xlink:title="src/calibration/modules\l/PID_PhiAngle.cc">
<polygon fill="white" stroke="black" points="2177.5,-151 2177.5,-185 2294.5,-185 2294.5,-151 2177.5,-151"/>
<text text-anchor="start" x="2185.5" y="-172" font-family="Helvetica,sans-Serif" font-size="10.00">src/calibration/modules</text>
<text text-anchor="middle" x="2236" y="-159" font-family="Helvetica,sans-Serif" font-size="10.00">/PID_PhiAngle.cc</text>
</a>
</g>
<!-- Node1&#45;&gt;Node19 -->
<g id="edge38" class="edge"><title>Node1&#45;&gt;Node19</title>
<path fill="none" stroke="midnightblue" d="M1691.28,-235.194C1818.53,-228.017 2079.82,-211.445 2169,-192 2177.09,-190.236 2185.53,-187.752 2193.59,-185.045"/>
<polygon fill="midnightblue" stroke="midnightblue" points="1691.03,-231.702 1681.24,-235.756 1691.42,-238.691 1691.03,-231.702"/>
</g>
<!-- Node20 -->
<g id="node40" class="node"><title>Node20</title>
<a xlink:href="_time_8h.html" target="_top" xlink:title="src/calibration/modules\l/Time.h">
<polygon fill="white" stroke="black" points="2368.5,-151 2368.5,-185 2485.5,-185 2485.5,-151 2368.5,-151"/>
<text text-anchor="start" x="2376.5" y="-172" font-family="Helvetica,sans-Serif" font-size="10.00">src/calibration/modules</text>
<text text-anchor="middle" x="2427" y="-159" font-family="Helvetica,sans-Serif" font-size="10.00">/Time.h</text>
</a>
</g>
<!-- Node1&#45;&gt;Node20 -->
<g id="edge40" class="edge"><title>Node1&#45;&gt;Node20</title>
<path fill="none" stroke="midnightblue" d="M1691.5,-236.058C1847.34,-229.36 2213.41,-211.998 2336,-192 2346.8,-190.238 2358.19,-187.754 2369.1,-185.047"/>
<polygon fill="midnightblue" stroke="midnightblue" points="1690.94,-232.578 1681.1,-236.502 1691.24,-239.572 1690.94,-232.578"/>
</g>
<!-- Node23 -->
<g id="node46" class="node"><title>Node23</title>
<a xlink:href="_setup__2014___e_p_t_8cc.html" target="_top" xlink:title="src/expconfig/setups\l/Setup_2014_EPT.cc">
<polygon fill="white" stroke="black" points="2267,-1 2267,-35 2377,-35 2377,-1 2267,-1"/>
<text text-anchor="start" x="2275" y="-22" font-family="Helvetica,sans-Serif" font-size="10.00">src/expconfig/setups</text>
<text text-anchor="middle" x="2322" y="-9" font-family="Helvetica,sans-Serif" font-size="10.00">/Setup_2014_EPT.cc</text>
</a>
</g>
<!-- Node1&#45;&gt;Node23 -->
<g id="edge58" class="edge"><title>Node1&#45;&gt;Node23</title>
<path fill="none" stroke="midnightblue" d="M1691.41,-236.532C1862.09,-230.306 2281.19,-212.956 2303,-192 2346.06,-150.631 2334.21,-70.2533 2326.38,-35.1249"/>
<polygon fill="midnightblue" stroke="midnightblue" points="1691.14,-233.04 1681.27,-236.899 1691.39,-240.035 1691.14,-233.04"/>
</g>
<!-- Node24 -->
<g id="node48" class="node"><title>Node24</title>
<a xlink:href="_setup___test_8cc.html" target="_top" xlink:title="src/expconfig/setups\l/Setup_Test.cc">
<polygon fill="white" stroke="black" points="2593.5,-1 2593.5,-35 2700.5,-35 2700.5,-1 2593.5,-1"/>
<text text-anchor="start" x="2601.5" y="-22" font-family="Helvetica,sans-Serif" font-size="10.00">src/expconfig/setups</text>
<text text-anchor="middle" x="2647" y="-9" font-family="Helvetica,sans-Serif" font-size="10.00">/Setup_Test.cc</text>
</a>
</g>
<!-- Node1&#45;&gt;Node24 -->
<g id="edge60" class="edge"><title>Node1&#45;&gt;Node24</title>
<path fill="none" stroke="midnightblue" d="M1691.17,-236.96C1885.85,-231.129 2417.74,-213.421 2494,-192 2569.81,-170.705 2609.62,-175.604 2650,-108 2663.31,-85.7199 2658.1,-54.4919 2652.79,-35.2884"/>
<polygon fill="midnightblue" stroke="midnightblue" points="1690.94,-233.465 1681.05,-237.262 1691.15,-240.462 1690.94,-233.465"/>
</g>
<!-- Node26 -->
<g id="node54" class="node"><title>Node26</title>
<a xlink:href="_p_i_d_8cc.html" target="_top" xlink:title="src/expconfig/detectors\l/PID.cc">
<polygon fill="white" stroke="black" points="2712.5,-151 2712.5,-185 2831.5,-185 2831.5,-151 2712.5,-151"/>
<text text-anchor="start" x="2720.5" y="-172" font-family="Helvetica,sans-Serif" font-size="10.00">src/expconfig/detectors</text>
<text text-anchor="middle" x="2772" y="-159" font-family="Helvetica,sans-Serif" font-size="10.00">/PID.cc</text>
</a>
</g>
<!-- Node1&#45;&gt;Node26 -->
<g id="edge56" class="edge"><title>Node1&#45;&gt;Node26</title>
<path fill="none" stroke="midnightblue" d="M1691.53,-238.435C1900.05,-236.383 2504.8,-227.456 2699,-192 2708.06,-190.347 2717.53,-187.841 2726.55,-185.063"/>
<polygon fill="midnightblue" stroke="midnightblue" points="1691.28,-234.937 1681.31,-238.533 1691.35,-241.937 1691.28,-234.937"/>
</g>
<!-- Node27 -->
<g id="node58" class="node"><title>Node27</title>
<a xlink:href="_candidate_builder_8cc.html" target="_top" xlink:title="src/reconstruct/Candidate\lBuilder.cc">
<polygon fill="white" stroke="black" points="2848.5,-151 2848.5,-185 2977.5,-185 2977.5,-151 2848.5,-151"/>
<text text-anchor="start" x="2856.5" y="-172" font-family="Helvetica,sans-Serif" font-size="10.00">src/reconstruct/Candidate</text>
<text text-anchor="middle" x="2913" y="-159" font-family="Helvetica,sans-Serif" font-size="10.00">Builder.cc</text>
</a>
</g>
<!-- Node1&#45;&gt;Node27 -->
<g id="edge62" class="edge"><title>Node1&#45;&gt;Node27</title>
<path fill="none" stroke="midnightblue" d="M1691.3,-237.412C1935.2,-231.822 2727.27,-212.288 2840,-192 2849.06,-190.369 2858.54,-187.874 2867.55,-185.099"/>
<polygon fill="midnightblue" stroke="midnightblue" points="1691.05,-233.917 1681.14,-237.645 1691.21,-240.915 1691.05,-233.917"/>
</g>
<!-- Node14 -->
<g id="node27" class="node"><title>Node14</title>
<a xlink:href="omega__histograms_8cc.html" target="_top" xlink:title="progs/omega_histograms.cc">
<polygon fill="white" stroke="black" points="1557,-79.5 1557,-100.5 1697,-100.5 1697,-79.5 1557,-79.5"/>
<text text-anchor="middle" x="1627" y="-87.5" font-family="Helvetica,sans-Serif" font-size="10.00">progs/omega_histograms.cc</text>
</a>
</g>
<!-- Node13&#45;&gt;Node14 -->
<g id="edge26" class="edge"><title>Node13&#45;&gt;Node14</title>
<path fill="none" stroke="midnightblue" d="M1667.56,-142.722C1656.64,-128.529 1643.58,-111.558 1635.29,-100.779"/>
<polygon fill="midnightblue" stroke="midnightblue" points="1664.81,-144.897 1673.68,-150.689 1670.36,-140.629 1664.81,-144.897"/>
</g>
<!-- Node13&#45;&gt;Node15 -->
<g id="edge28" class="edge"><title>Node13&#45;&gt;Node15</title>
<path fill="none" stroke="midnightblue" d="M1712.28,-143.659C1724.53,-131.856 1738.97,-117.957 1750.07,-107.262"/>
<polygon fill="midnightblue" stroke="midnightblue" points="1709.75,-141.232 1704.98,-150.689 1714.61,-146.274 1709.75,-141.232"/>
</g>
<!-- Node21 -->
<g id="node42" class="node"><title>Node21</title>
<a xlink:href="_t_a_p_s___time_8h.html" target="_top" xlink:title="src/calibration/modules\l/TAPS_Time.h">
<polygon fill="white" stroke="black" points="2368.5,-73 2368.5,-107 2485.5,-107 2485.5,-73 2368.5,-73"/>
<text text-anchor="start" x="2376.5" y="-94" font-family="Helvetica,sans-Serif" font-size="10.00">src/calibration/modules</text>
<text text-anchor="middle" x="2427" y="-81" font-family="Helvetica,sans-Serif" font-size="10.00">/TAPS_Time.h</text>
</a>
</g>
<!-- Node20&#45;&gt;Node21 -->
<g id="edge42" class="edge"><title>Node20&#45;&gt;Node21</title>
<path fill="none" stroke="midnightblue" d="M2427,-140.61C2427,-129.519 2427,-117.049 2427,-107.262"/>
<polygon fill="midnightblue" stroke="midnightblue" points="2423.5,-140.689 2427,-150.689 2430.5,-140.689 2423.5,-140.689"/>
</g>
<!-- Node20&#45;&gt;Node23 -->
<g id="edge52" class="edge"><title>Node20&#45;&gt;Node23</title>
<path fill="none" stroke="midnightblue" d="M2395.35,-144.634C2383.12,-134.42 2369.75,-121.656 2360,-108 2343.64,-85.0853 2332.52,-54.0457 2326.72,-35.0531"/>
<polygon fill="midnightblue" stroke="midnightblue" points="2393.2,-147.396 2403.18,-150.962 2397.6,-141.953 2393.2,-147.396"/>
</g>
<!-- Node20&#45;&gt;Node24 -->
<g id="edge54" class="edge"><title>Node20&#45;&gt;Node24</title>
<path fill="none" stroke="midnightblue" d="M2495.72,-155.276C2546.52,-144.484 2609.9,-127.649 2628,-108 2646.29,-88.15 2648.71,-55.2856 2648.24,-35.2407"/>
<polygon fill="midnightblue" stroke="midnightblue" points="2494.82,-151.888 2485.74,-157.353 2496.24,-158.741 2494.82,-151.888"/>
</g>
<!-- Node25 -->
<g id="node50" class="node"><title>Node25</title>
<a xlink:href="_time_8cc.html" target="_top" xlink:title="src/calibration/modules\l/Time.cc">
<polygon fill="white" stroke="black" points="2502.5,-73 2502.5,-107 2619.5,-107 2619.5,-73 2502.5,-73"/>
<text text-anchor="start" x="2510.5" y="-94" font-family="Helvetica,sans-Serif" font-size="10.00">src/calibration/modules</text>
<text text-anchor="middle" x="2561" y="-81" font-family="Helvetica,sans-Serif" font-size="10.00">/Time.cc</text>
</a>
</g>
<!-- Node20&#45;&gt;Node25 -->
<g id="edge50" class="edge"><title>Node20&#45;&gt;Node25</title>
<path fill="none" stroke="midnightblue" d="M2465.14,-145.799C2486.27,-133.501 2512.13,-118.448 2531.66,-107.078"/>
<polygon fill="midnightblue" stroke="midnightblue" points="2463.29,-142.827 2456.41,-150.883 2466.81,-148.877 2463.29,-142.827"/>
</g>
<!-- Node22 -->
<g id="node44" class="node"><title>Node22</title>
<a xlink:href="_t_a_p_s___time_8cc.html" target="_top" xlink:title="src/calibration/modules\l/TAPS_Time.cc">
<polygon fill="white" stroke="black" points="2394.5,-1 2394.5,-35 2511.5,-35 2511.5,-1 2394.5,-1"/>
<text text-anchor="start" x="2402.5" y="-22" font-family="Helvetica,sans-Serif" font-size="10.00">src/calibration/modules</text>
<text text-anchor="middle" x="2453" y="-9" font-family="Helvetica,sans-Serif" font-size="10.00">/TAPS_Time.cc</text>
</a>
</g>
<!-- Node21&#45;&gt;Node22 -->
<g id="edge44" class="edge"><title>Node21&#45;&gt;Node22</title>
<path fill="none" stroke="midnightblue" d="M2436.64,-63.3147C2440,-54.0053 2443.68,-43.8034 2446.7,-35.4407"/>
<polygon fill="midnightblue" stroke="midnightblue" points="2433.27,-62.3427 2433.16,-72.937 2439.85,-64.7202 2433.27,-62.3427"/>
</g>
<!-- Node21&#45;&gt;Node23 -->
<g id="edge46" class="edge"><title>Node21&#45;&gt;Node23</title>
<path fill="none" stroke="midnightblue" d="M2393.57,-67.0743C2378.49,-56.7376 2360.99,-44.7368 2347.07,-35.19"/>
<polygon fill="midnightblue" stroke="midnightblue" points="2391.89,-70.1682 2402.12,-72.937 2395.85,-64.3951 2391.89,-70.1682"/>
</g>
<!-- Node21&#45;&gt;Node24 -->
<g id="edge48" class="edge"><title>Node21&#45;&gt;Node24</title>
<path fill="none" stroke="midnightblue" d="M2488.8,-69.7736C2522.23,-58.8347 2563.05,-45.4739 2594.86,-35.0651"/>
<polygon fill="midnightblue" stroke="midnightblue" points="2487.55,-66.5002 2479.14,-72.937 2489.73,-73.1529 2487.55,-66.5002"/>
</g>
</g>
</svg>
