<?xml version="1.0" encoding="UTF-8" standalone="no"?>
<!DOCTYPE svg PUBLIC "-//W3C//DTD SVG 1.1//EN"
 "http://www.w3.org/Graphics/SVG/1.1/DTD/svg11.dtd">
<!-- Generated by graphviz version 2.26.3 (20100126.1600)
 -->
<!-- Title: src/base/matrixstack.h Pages: 1 -->
<svg width="655pt" height="246pt"
 viewBox="0.00 0.00 655.00 246.00" xmlns="http://www.w3.org/2000/svg" xmlns:xlink="http://www.w3.org/1999/xlink">
<g id="graph1" class="graph" transform="scale(1 1) rotate(0) translate(4 242)">
<title>src/base/matrixstack.h</title>
<polygon fill="white" stroke="white" points="-4,5 -4,-242 652,-242 652,5 -4,5"/>
<!-- Node1 -->
<g id="node1" class="node"><title>Node1</title>
<polygon fill="#bfbfbf" stroke="black" points="318,-216.5 318,-237.5 434,-237.5 434,-216.5 318,-216.5"/>
<text text-anchor="middle" x="376" y="-224.5" font-family="Helvetica,sans-Serif" font-size="10.00">src/base/matrixstack.h</text>
</g>
<!-- Node2 -->
<g id="node3" class="node"><title>Node2</title>
<a xlink:href="_t_h2_c_b_8h.html" target="_top" xlink:title="src/base/cbtaps_display\l/TH2CB.h">
<polygon fill="white" stroke="black" points="105,-73 105,-107 227,-107 227,-73 105,-73"/>
<text text-anchor="start" x="113" y="-94" font-family="Helvetica,sans-Serif" font-size="10.00">src/base/cbtaps_display</text>
<text text-anchor="middle" x="166" y="-81" font-family="Helvetica,sans-Serif" font-size="10.00">/TH2CB.h</text>
</a>
</g>
<!-- Node1&#45;&gt;Node2 -->
<g id="edge2" class="edge"><title>Node1&#45;&gt;Node2</title>
<path fill="none" stroke="midnightblue" d="M311.232,-213.77C286.181,-206.557 258.248,-195.777 236,-180 208.55,-160.535 186.689,-127.234 175.098,-107.056"/>
<polygon fill="midnightblue" stroke="midnightblue" points="310.466,-217.189 321.036,-216.457 312.316,-210.438 310.466,-217.189"/>
</g>
<!-- Node5 -->
<g id="node9" class="node"><title>Node5</title>
<a xlink:href="_t_h2_crystals_8h.html" target="_top" xlink:title="src/base/cbtaps_display\l/TH2Crystals.h">
<polygon fill="white" stroke="black" points="245,-145 245,-179 367,-179 367,-145 245,-145"/>
<text text-anchor="start" x="253" y="-166" font-family="Helvetica,sans-Serif" font-size="10.00">src/base/cbtaps_display</text>
<text text-anchor="middle" x="306" y="-153" font-family="Helvetica,sans-Serif" font-size="10.00">/TH2Crystals.h</text>
</a>
</g>
<!-- Node1&#45;&gt;Node5 -->
<g id="edge8" class="edge"><title>Node1&#45;&gt;Node5</title>
<path fill="none" stroke="midnightblue" d="M356.903,-209.267C346.792,-199.879 334.434,-188.403 324.426,-179.11"/>
<polygon fill="midnightblue" stroke="midnightblue" points="354.731,-212.027 364.441,-216.267 359.495,-206.897 354.731,-212.027"/>
</g>
<!-- Node10 -->
<g id="node20" class="node"><title>Node10</title>
<a xlink:href="_t_h2_draw_tool_8h.html" target="_top" xlink:title="src/base/cbtaps_display\l/TH2DrawTool.h">
<polygon fill="white" stroke="black" points="385,-145 385,-179 507,-179 507,-145 385,-145"/>
<text text-anchor="start" x="393" y="-166" font-family="Helvetica,sans-Serif" font-size="10.00">src/base/cbtaps_display</text>
<text text-anchor="middle" x="446" y="-153" font-family="Helvetica,sans-Serif" font-size="10.00">/TH2DrawTool.h</text>
</a>
</g>
<!-- Node1&#45;&gt;Node10 -->
<g id="edge20" class="edge"><title>Node1&#45;&gt;Node10</title>
<path fill="none" stroke="midnightblue" d="M395.097,-209.267C405.208,-199.879 417.566,-188.403 427.574,-179.11"/>
<polygon fill="midnightblue" stroke="midnightblue" points="392.505,-206.897 387.559,-216.267 397.269,-212.027 392.505,-206.897"/>
</g>
<!-- Node12 -->
<g id="node26" class="node"><title>Node12</title>
<a xlink:href="matrixstack_8cc.html" target="_top" xlink:title="src/base/matrixstack.cc">
<polygon fill="white" stroke="black" points="525,-151.5 525,-172.5 647,-172.5 647,-151.5 525,-151.5"/>
<text text-anchor="middle" x="586" y="-159.5" font-family="Helvetica,sans-Serif" font-size="10.00">src/base/matrixstack.cc</text>
</a>
</g>
<!-- Node1&#45;&gt;Node12 -->
<g id="edge28" class="edge"><title>Node1&#45;&gt;Node12</title>
<path fill="none" stroke="midnightblue" d="M419.784,-213.448C459.032,-201.3 515.813,-183.725 551.807,-172.584"/>
<polygon fill="midnightblue" stroke="midnightblue" points="418.725,-210.112 410.208,-216.412 420.795,-216.799 418.725,-210.112"/>
</g>
<!-- Node3 -->
<g id="node5" class="node"><title>Node3</title>
<a xlink:href="_t_h2_c_b_8cc.html" target="_top" xlink:title="src/base/cbtaps_display\l/TH2CB.cc">
<polygon fill="white" stroke="black" points="0,-1 0,-35 122,-35 122,-1 0,-1"/>
<text text-anchor="start" x="8" y="-22" font-family="Helvetica,sans-Serif" font-size="10.00">src/base/cbtaps_display</text>
<text text-anchor="middle" x="61" y="-9" font-family="Helvetica,sans-Serif" font-size="10.00">/TH2CB.cc</text>
</a>
</g>
<!-- Node2&#45;&gt;Node3 -->
<g id="edge4" class="edge"><title>Node2&#45;&gt;Node3</title>
<path fill="none" stroke="midnightblue" d="M132.567,-67.0743C117.492,-56.7376 99.9911,-44.7368 86.0688,-35.19"/>
<polygon fill="midnightblue" stroke="midnightblue" points="130.89,-70.1682 141.116,-72.937 134.849,-64.3951 130.89,-70.1682"/>
</g>
<!-- Node4 -->
<g id="node7" class="node"><title>Node4</title>
<a xlink:href="_c_b___energy_8cc.html" target="_top" xlink:title="src/calibration/modules\l/CB_Energy.cc">
<polygon fill="white" stroke="black" points="139.5,-1 139.5,-35 256.5,-35 256.5,-1 139.5,-1"/>
<text text-anchor="start" x="147.5" y="-22" font-family="Helvetica,sans-Serif" font-size="10.00">src/calibration/modules</text>
<text text-anchor="middle" x="198" y="-9" font-family="Helvetica,sans-Serif" font-size="10.00">/CB_Energy.cc</text>
</a>
</g>
<!-- Node2&#45;&gt;Node4 -->
<g id="edge6" class="edge"><title>Node2&#45;&gt;Node4</title>
<path fill="none" stroke="midnightblue" d="M177.728,-63.6116C181.901,-54.2225 186.492,-43.8924 190.249,-35.4407"/>
<polygon fill="midnightblue" stroke="midnightblue" points="174.447,-62.3774 173.584,-72.937 180.843,-65.2204 174.447,-62.3774"/>
</g>
<!-- Node5&#45;&gt;Node2 -->
<g id="edge10" class="edge"><title>Node5&#45;&gt;Node2</title>
<path fill="none" stroke="midnightblue" d="M263.662,-140.226C243.075,-129.638 218.682,-117.094 199.425,-107.19"/>
<polygon fill="midnightblue" stroke="midnightblue" points="262.328,-143.476 272.822,-144.937 265.53,-137.251 262.328,-143.476"/>
</g>
<!-- Node6 -->
<g id="node12" class="node"><title>Node6</title>
<a xlink:href="_t_h2_crystals_8cc.html" target="_top" xlink:title="src/base/cbtaps_display\l/TH2Crystals.cc">
<polygon fill="white" stroke="black" points="245,-73 245,-107 367,-107 367,-73 245,-73"/>
<text text-anchor="start" x="253" y="-94" font-family="Helvetica,sans-Serif" font-size="10.00">src/base/cbtaps_display</text>
<text text-anchor="middle" x="306" y="-81" font-family="Helvetica,sans-Serif" font-size="10.00">/TH2Crystals.cc</text>
</a>
</g>
<!-- Node5&#45;&gt;Node6 -->
<g id="edge12" class="edge"><title>Node5&#45;&gt;Node6</title>
<path fill="none" stroke="midnightblue" d="M306,-134.719C306,-125.572 306,-115.625 306,-107.441"/>
<polygon fill="midnightblue" stroke="midnightblue" points="302.5,-134.937 306,-144.937 309.5,-134.937 302.5,-134.937"/>
</g>
<!-- Node7 -->
<g id="node14" class="node"><title>Node7</title>
<a xlink:href="_t_h2_t_a_p_s_8h.html" target="_top" xlink:title="src/base/cbtaps_display\l/TH2TAPS.h">
<polygon fill="white" stroke="black" points="385,-73 385,-107 507,-107 507,-73 385,-73"/>
<text text-anchor="start" x="393" y="-94" font-family="Helvetica,sans-Serif" font-size="10.00">src/base/cbtaps_display</text>
<text text-anchor="middle" x="446" y="-81" font-family="Helvetica,sans-Serif" font-size="10.00">/TH2TAPS.h</text>
</a>
</g>
<!-- Node5&#45;&gt;Node7 -->
<g id="edge14" class="edge"><title>Node5&#45;&gt;Node7</title>
<path fill="none" stroke="midnightblue" d="M348.338,-140.226C368.925,-129.638 393.318,-117.094 412.575,-107.19"/>
<polygon fill="midnightblue" stroke="midnightblue" points="346.47,-137.251 339.178,-144.937 349.672,-143.476 346.47,-137.251"/>
</g>
<!-- Node8 -->
<g id="node16" class="node"><title>Node8</title>
<a xlink:href="_reconstruct_check_8cc.html" target="_top" xlink:title="src/analysis/physics\l/common/ReconstructCheck.cc">
<polygon fill="white" stroke="black" points="305.5,-1 305.5,-35 460.5,-35 460.5,-1 305.5,-1"/>
<text text-anchor="start" x="313.5" y="-22" font-family="Helvetica,sans-Serif" font-size="10.00">src/analysis/physics</text>
<text text-anchor="middle" x="383" y="-9" font-family="Helvetica,sans-Serif" font-size="10.00">/common/ReconstructCheck.cc</text>
</a>
</g>
<!-- Node7&#45;&gt;Node8 -->
<g id="edge16" class="edge"><title>Node7&#45;&gt;Node8</title>
<path fill="none" stroke="midnightblue" d="M424.456,-65.3785C415.843,-55.5349 406.123,-44.4262 398.261,-35.4407"/>
<polygon fill="midnightblue" stroke="midnightblue" points="421.851,-67.716 431.07,-72.937 427.119,-63.1064 421.851,-67.716"/>
</g>
<!-- Node9 -->
<g id="node18" class="node"><title>Node9</title>
<a xlink:href="_t_h2_t_a_p_s_8cc.html" target="_top" xlink:title="src/base/cbtaps_display\l/TH2TAPS.cc">
<polygon fill="white" stroke="black" points="478,-1 478,-35 600,-35 600,-1 478,-1"/>
<text text-anchor="start" x="486" y="-22" font-family="Helvetica,sans-Serif" font-size="10.00">src/base/cbtaps_display</text>
<text text-anchor="middle" x="539" y="-9" font-family="Helvetica,sans-Serif" font-size="10.00">/TH2TAPS.cc</text>
</a>
</g>
<!-- Node7&#45;&gt;Node9 -->
<g id="edge18" class="edge"><title>Node7&#45;&gt;Node9</title>
<path fill="none" stroke="midnightblue" d="M475.987,-66.7841C489.253,-56.5135 504.58,-44.6475 516.796,-35.19"/>
<polygon fill="midnightblue" stroke="midnightblue" points="473.804,-64.0477 468.04,-72.937 478.09,-69.5828 473.804,-64.0477"/>
</g>
<!-- Node10&#45;&gt;Node2 -->
<g id="edge22" class="edge"><title>Node10&#45;&gt;Node2</title>
<path fill="none" stroke="midnightblue" d="M375.097,-143.768C329.561,-132.059 271.01,-117.003 227.454,-105.802"/>
<polygon fill="midnightblue" stroke="midnightblue" points="374.342,-147.188 384.899,-146.288 376.086,-140.408 374.342,-147.188"/>
</g>
<!-- Node10&#45;&gt;Node7 -->
<g id="edge26" class="edge"><title>Node10&#45;&gt;Node7</title>
<path fill="none" stroke="midnightblue" d="M446,-134.719C446,-125.572 446,-115.625 446,-107.441"/>
<polygon fill="midnightblue" stroke="midnightblue" points="442.5,-134.937 446,-144.937 449.5,-134.937 442.5,-134.937"/>
</g>
<!-- Node11 -->
<g id="node23" class="node"><title>Node11</title>
<a xlink:href="_t_h2_draw_tool_8cc.html" target="_top" xlink:title="src/base/cbtaps_display\l/TH2DrawTool.cc">
<polygon fill="white" stroke="black" points="525,-73 525,-107 647,-107 647,-73 525,-73"/>
<text text-anchor="start" x="533" y="-94" font-family="Helvetica,sans-Serif" font-size="10.00">src/base/cbtaps_display</text>
<text text-anchor="middle" x="586" y="-81" font-family="Helvetica,sans-Serif" font-size="10.00">/TH2DrawTool.cc</text>
</a>
</g>
<!-- Node10&#45;&gt;Node11 -->
<g id="edge24" class="edge"><title>Node10&#45;&gt;Node11</title>
<path fill="none" stroke="midnightblue" d="M488.338,-140.226C508.925,-129.638 533.318,-117.094 552.575,-107.19"/>
<polygon fill="midnightblue" stroke="midnightblue" points="486.47,-137.251 479.178,-144.937 489.672,-143.476 486.47,-137.251"/>
</g>
</g>
</svg>
