<?xml version="1.0" encoding="UTF-8" standalone="no"?>
<!DOCTYPE svg PUBLIC "-//W3C//DTD SVG 1.1//EN"
 "http://www.w3.org/Graphics/SVG/1.1/DTD/svg11.dtd">
<!-- Generated by graphviz version 2.26.3 (20100126.1600)
 -->
<!-- Title: src/analysis/utils/particle_tools.h Pages: 1 -->
<svg width="1045pt" height="392pt"
 viewBox="0.00 0.00 1044.66 392.00" xmlns="http://www.w3.org/2000/svg" xmlns:xlink="http://www.w3.org/1999/xlink">
<g id="graph1" class="graph" transform="scale(1 1) rotate(0) translate(4 388)">
<title>src/analysis/utils/particle_tools.h</title>
<polygon fill="white" stroke="white" points="-4,5 -4,-388 1041.66,-388 1041.66,5 -4,5"/>
<!-- Node1 -->
<g id="node1" class="node"><title>Node1</title>
<polygon fill="#bfbfbf" stroke="black" points="826.249,-349 826.249,-383 916.249,-383 916.249,-349 826.249,-349"/>
<text text-anchor="start" x="834.249" y="-370" font-family="Helvetica,sans-Serif" font-size="10.00">src/analysis/utils</text>
<text text-anchor="middle" x="871.249" y="-357" font-family="Helvetica,sans-Serif" font-size="10.00">/particle_tools.h</text>
</g>
<!-- Node2 -->
<g id="node3" class="node"><title>Node2</title>
<a xlink:href="_particle_8h.html" target="_top" xlink:title="analysis/data/Particle.h">
<polygon fill="white" stroke="black" points="536.749,-290.5 536.749,-311.5 655.749,-311.5 655.749,-290.5 536.749,-290.5"/>
<text text-anchor="middle" x="596.249" y="-298.5" font-family="Helvetica,sans-Serif" font-size="10.00">analysis/data/Particle.h</text>
</a>
</g>
<!-- Node1&#45;&gt;Node2 -->
<g id="edge2" class="edge"><title>Node1&#45;&gt;Node2</title>
<path fill="none" stroke="midnightblue" d="M826.146,-355.339C778.147,-343.994 702.19,-326.041 650.845,-313.905"/>
<polygon fill="midnightblue" stroke="midnightblue" points="651.457,-310.453 640.92,-311.559 649.846,-317.265 651.457,-310.453"/>
</g>
<!-- Node12 -->
<g id="node24" class="node"><title>Node12</title>
<polygon fill="white" stroke="#bfbfbf" points="833.749,-58.5 833.749,-79.5 874.749,-79.5 874.749,-58.5 833.749,-58.5"/>
<text text-anchor="middle" x="854.249" y="-66.5" font-family="Helvetica,sans-Serif" font-size="10.00">string</text>
</g>
<!-- Node1&#45;&gt;Node12 -->
<g id="edge92" class="edge"><title>Node1&#45;&gt;Node12</title>
<path fill="none" stroke="midnightblue" d="M904.094,-348.978C960.842,-317.18 1067.48,-245.487 1027.25,-174 996.667,-119.666 925.352,-90.2052 884.472,-77.2424"/>
<polygon fill="midnightblue" stroke="midnightblue" points="885.363,-73.8554 874.778,-74.2972 883.328,-80.5531 885.363,-73.8554"/>
</g>
<!-- Node23 -->
<g id="node60" class="node"><title>Node23</title>
<polygon fill="white" stroke="#bfbfbf" points="883.249,-232.5 883.249,-253.5 975.249,-253.5 975.249,-232.5 883.249,-232.5"/>
<text text-anchor="middle" x="929.249" y="-240.5" font-family="Helvetica,sans-Serif" font-size="10.00">TLorentzVector.h</text>
</g>
<!-- Node1&#45;&gt;Node23 -->
<g id="edge94" class="edge"><title>Node1&#45;&gt;Node23</title>
<path fill="none" stroke="midnightblue" d="M879.313,-348.897C889.935,-326.372 908.581,-286.83 919.836,-262.962"/>
<polygon fill="midnightblue" stroke="midnightblue" points="923.062,-264.325 924.162,-253.787 916.731,-261.34 923.062,-264.325"/>
</g>
<!-- Node25 -->
<g id="node67" class="node"><title>Node25</title>
<a xlink:href="_particle_type_tree_8h.html" target="_top" xlink:title="base/ParticleTypeTree.h">
<polygon fill="white" stroke="black" points="758.749,-290.5 758.749,-311.5 881.749,-311.5 881.749,-290.5 758.749,-290.5"/>
<text text-anchor="middle" x="820.249" y="-298.5" font-family="Helvetica,sans-Serif" font-size="10.00">base/ParticleTypeTree.h</text>
</a>
</g>
<!-- Node1&#45;&gt;Node25 -->
<g id="edge84" class="edge"><title>Node1&#45;&gt;Node25</title>
<path fill="none" stroke="midnightblue" d="M857.849,-348.922C850.871,-340.029 842.32,-329.13 835.136,-319.974"/>
<polygon fill="midnightblue" stroke="midnightblue" points="837.69,-317.559 828.763,-311.852 832.183,-321.88 837.69,-317.559"/>
</g>
<!-- Node3 -->
<g id="node5" class="node"><title>Node3</title>
<a xlink:href="_candidate_8h.html" target="_top" xlink:title="analysis/data/Candidate.h">
<polygon fill="white" stroke="black" points="289.249,-232.5 289.249,-253.5 419.249,-253.5 419.249,-232.5 289.249,-232.5"/>
<text text-anchor="middle" x="354.249" y="-240.5" font-family="Helvetica,sans-Serif" font-size="10.00">analysis/data/Candidate.h</text>
</a>
</g>
<!-- Node2&#45;&gt;Node3 -->
<g id="edge4" class="edge"><title>Node2&#45;&gt;Node3</title>
<path fill="none" stroke="midnightblue" d="M552.424,-290.497C511.862,-280.775 451.44,-266.294 407.984,-255.879"/>
<polygon fill="midnightblue" stroke="midnightblue" points="408.696,-252.45 398.155,-253.523 407.064,-259.257 408.696,-252.45"/>
</g>
<!-- Node4 -->
<g id="node7" class="node"><title>Node4</title>
<a xlink:href="printable_8h.html" target="_top" xlink:title="base/printable.h">
<polygon fill="white" stroke="black" points="407.249,-58.5 407.249,-79.5 493.249,-79.5 493.249,-58.5 407.249,-58.5"/>
<text text-anchor="middle" x="450.249" y="-66.5" font-family="Helvetica,sans-Serif" font-size="10.00">base/printable.h</text>
</a>
</g>
<!-- Node2&#45;&gt;Node4 -->
<g id="edge48" class="edge"><title>Node2&#45;&gt;Node4</title>
<path fill="none" stroke="midnightblue" d="M580.782,-290.293C557.136,-273.123 512.127,-237.148 487.249,-196 466.663,-161.952 456.994,-115.822 452.895,-89.5577"/>
<polygon fill="midnightblue" stroke="midnightblue" points="456.352,-89.0102 451.463,-79.6109 449.423,-90.0075 456.352,-89.0102"/>
</g>
<!-- Node5 -->
<g id="node9" class="node"><title>Node5</title>
<polygon fill="white" stroke="#bfbfbf" points="357.249,-0.5 357.249,-21.5 401.249,-21.5 401.249,-0.5 357.249,-0.5"/>
<text text-anchor="middle" x="379.249" y="-8.5" font-family="Helvetica,sans-Serif" font-size="10.00">vector</text>
</g>
<!-- Node2&#45;&gt;Node5 -->
<g id="edge76" class="edge"><title>Node2&#45;&gt;Node5</title>
<path fill="none" stroke="midnightblue" d="M536.748,-295.63C386.057,-281.233 1.24859,-239.167 1.24859,-185 1.24859,-185 1.24859,-185 1.24859,-127 1.24859,-95.1919 -3.74576,-78.8812 20.2486,-58 44.7218,-36.7021 263.201,-19.1887 346.858,-13.207"/>
<polygon fill="midnightblue" stroke="midnightblue" points="347.325,-16.6828 357.054,-12.4875 346.833,-9.70019 347.325,-16.6828"/>
</g>
<!-- Node7 -->
<g id="node13" class="node"><title>Node7</title>
<a xlink:href="types_8h.html" target="_top" xlink:title="base/types.h">
<polygon fill="white" stroke="black" points="495.749,-174.5 495.749,-195.5 568.749,-195.5 568.749,-174.5 495.749,-174.5"/>
<text text-anchor="middle" x="532.249" y="-182.5" font-family="Helvetica,sans-Serif" font-size="10.00">base/types.h</text>
</a>
</g>
<!-- Node2&#45;&gt;Node7 -->
<g id="edge50" class="edge"><title>Node2&#45;&gt;Node7</title>
<path fill="none" stroke="midnightblue" d="M590.342,-290.295C579.579,-270.786 556.628,-229.188 543.017,-204.518"/>
<polygon fill="midnightblue" stroke="midnightblue" points="546.036,-202.744 538.141,-195.679 539.907,-206.126 546.036,-202.744"/>
</g>
<!-- Node15 -->
<g id="node32" class="node"><title>Node15</title>
<polygon fill="white" stroke="#bfbfbf" points="581.749,-116.5 581.749,-137.5 610.749,-137.5 610.749,-116.5 581.749,-116.5"/>
<text text-anchor="middle" x="596.249" y="-124.5" font-family="Helvetica,sans-Serif" font-size="10.00">list</text>
</g>
<!-- Node2&#45;&gt;Node15 -->
<g id="edge78" class="edge"><title>Node2&#45;&gt;Node15</title>
<path fill="none" stroke="midnightblue" d="M596.249,-290.377C596.249,-262.293 596.249,-185.673 596.249,-148.203"/>
<polygon fill="midnightblue" stroke="midnightblue" points="599.749,-147.928 596.249,-137.928 592.749,-147.928 599.749,-147.928"/>
</g>
<!-- Node17 -->
<g id="node39" class="node"><title>Node17</title>
<polygon fill="white" stroke="#bfbfbf" points="624.249,-174.5 624.249,-195.5 676.249,-195.5 676.249,-174.5 624.249,-174.5"/>
<text text-anchor="middle" x="650.249" y="-182.5" font-family="Helvetica,sans-Serif" font-size="10.00">memory</text>
</g>
<!-- Node2&#45;&gt;Node17 -->
<g id="edge82" class="edge"><title>Node2&#45;&gt;Node17</title>
<path fill="none" stroke="midnightblue" d="M601.232,-290.295C610.273,-270.872 629.507,-229.556 641.01,-204.846"/>
<polygon fill="midnightblue" stroke="midnightblue" points="644.23,-206.222 645.277,-195.679 637.884,-203.268 644.23,-206.222"/>
</g>
<!-- Node18 -->
<g id="node44" class="node"><title>Node18</title>
<a xlink:href="_particle_type_8h.html" target="_top" xlink:title="base/ParticleType.h">
<polygon fill="white" stroke="black" points="761.249,-232.5 761.249,-253.5 865.249,-253.5 865.249,-232.5 761.249,-232.5"/>
<text text-anchor="middle" x="813.249" y="-240.5" font-family="Helvetica,sans-Serif" font-size="10.00">base/ParticleType.h</text>
</a>
</g>
<!-- Node2&#45;&gt;Node18 -->
<g id="edge52" class="edge"><title>Node2&#45;&gt;Node18</title>
<path fill="none" stroke="midnightblue" d="M635.546,-290.497C671.535,-280.877 724.959,-266.598 763.829,-256.209"/>
<polygon fill="midnightblue" stroke="midnightblue" points="765.121,-259.487 773.878,-253.523 763.313,-252.724 765.121,-259.487"/>
</g>
<!-- Node21 -->
<g id="node54" class="node"><title>Node21</title>
<a xlink:href="_tree_8h.html" target="_top" xlink:title="base/Tree.h">
<polygon fill="white" stroke="black" points="670.249,-232.5 670.249,-253.5 738.249,-253.5 738.249,-232.5 670.249,-232.5"/>
<text text-anchor="middle" x="704.249" y="-240.5" font-family="Helvetica,sans-Serif" font-size="10.00">base/Tree.h</text>
</a>
</g>
<!-- Node2&#45;&gt;Node21 -->
<g id="edge66" class="edge"><title>Node2&#45;&gt;Node21</title>
<path fill="none" stroke="midnightblue" d="M615.807,-290.497C632.447,-281.56 656.576,-268.602 675.429,-258.477"/>
<polygon fill="midnightblue" stroke="midnightblue" points="677.317,-261.436 684.471,-253.621 674.005,-255.269 677.317,-261.436"/>
</g>
<!-- Node2&#45;&gt;Node23 -->
<g id="edge74" class="edge"><title>Node2&#45;&gt;Node23</title>
<path fill="none" stroke="midnightblue" d="M655.992,-291.43C710.149,-282.634 792.421,-268.973 873.211,-254.155"/>
<polygon fill="midnightblue" stroke="midnightblue" points="873.854,-257.596 883.054,-252.343 872.586,-250.712 873.854,-257.596"/>
</g>
<!-- Node24 -->
<g id="node64" class="node"><title>Node24</title>
<polygon fill="white" stroke="#bfbfbf" points="437.249,-232.5 437.249,-253.5 491.249,-253.5 491.249,-232.5 437.249,-232.5"/>
<text text-anchor="middle" x="464.249" y="-240.5" font-family="Helvetica,sans-Serif" font-size="10.00">iostream</text>
</g>
<!-- Node2&#45;&gt;Node24 -->
<g id="edge80" class="edge"><title>Node2&#45;&gt;Node24</title>
<path fill="none" stroke="midnightblue" d="M572.344,-290.497C551.449,-281.315 520.892,-267.889 497.594,-257.652"/>
<polygon fill="midnightblue" stroke="midnightblue" points="498.984,-254.44 488.421,-253.621 496.168,-260.848 498.984,-254.44"/>
</g>
<!-- Node3&#45;&gt;Node4 -->
<g id="edge6" class="edge"><title>Node3&#45;&gt;Node4</title>
<path fill="none" stroke="midnightblue" d="M358.649,-232.478C368.075,-210.314 391.389,-157.453 416.249,-116 422.015,-106.385 429.196,-96.2439 435.471,-87.853"/>
<polygon fill="midnightblue" stroke="midnightblue" points="438.303,-89.9114 441.584,-79.8376 432.737,-85.6661 438.303,-89.9114"/>
</g>
<!-- Node3&#45;&gt;Node5 -->
<g id="edge46" class="edge"><title>Node3&#45;&gt;Node5</title>
<path fill="none" stroke="midnightblue" d="M355.388,-232.429C359.243,-196.648 371.85,-79.6628 377.013,-31.7481"/>
<polygon fill="midnightblue" stroke="midnightblue" points="380.511,-31.951 378.103,-21.6335 373.551,-31.2009 380.511,-31.951"/>
</g>
<!-- Node6 -->
<g id="node11" class="node"><title>Node6</title>
<polygon fill="white" stroke="#bfbfbf" points="533.249,-0.5 533.249,-21.5 585.249,-21.5 585.249,-0.5 533.249,-0.5"/>
<text text-anchor="middle" x="559.249" y="-8.5" font-family="Helvetica,sans-Serif" font-size="10.00">ostream</text>
</g>
<!-- Node3&#45;&gt;Node6 -->
<g id="edge42" class="edge"><title>Node3&#45;&gt;Node6</title>
<path fill="none" stroke="midnightblue" d="M364.12,-232.475C388.151,-206.779 451.446,-138.65 502.249,-80 516.739,-63.2713 532.75,-43.7974 544.104,-29.8119"/>
<polygon fill="midnightblue" stroke="midnightblue" points="546.948,-31.8624 550.517,-21.8868 541.506,-27.4593 546.948,-31.8624"/>
</g>
<!-- Node3&#45;&gt;Node7 -->
<g id="edge12" class="edge"><title>Node3&#45;&gt;Node7</title>
<path fill="none" stroke="midnightblue" d="M386.483,-232.497C415.502,-223.041 458.339,-209.083 490.072,-198.743"/>
<polygon fill="midnightblue" stroke="midnightblue" points="491.53,-201.949 499.954,-195.523 489.361,-195.293 491.53,-201.949"/>
</g>
<!-- Node8 -->
<g id="node15" class="node"><title>Node8</title>
<a xlink:href="_detector__t_8h.html" target="_top" xlink:title="base/Detector_t.h">
<polygon fill="white" stroke="black" points="231.749,-116.5 231.749,-137.5 326.749,-137.5 326.749,-116.5 231.749,-116.5"/>
<text text-anchor="middle" x="279.249" y="-124.5" font-family="Helvetica,sans-Serif" font-size="10.00">base/Detector_t.h</text>
</a>
</g>
<!-- Node3&#45;&gt;Node8 -->
<g id="edge14" class="edge"><title>Node3&#45;&gt;Node8</title>
<path fill="none" stroke="midnightblue" d="M347.327,-232.295C334.658,-212.7 307.58,-170.82 291.657,-146.191"/>
<polygon fill="midnightblue" stroke="midnightblue" points="294.522,-144.177 286.153,-137.679 288.644,-147.977 294.522,-144.177"/>
</g>
<!-- Node9 -->
<g id="node18" class="node"><title>Node9</title>
<polygon fill="white" stroke="#bfbfbf" points="28.7486,-58.5 28.7486,-79.5 93.7486,-79.5 93.7486,-58.5 28.7486,-58.5"/>
<text text-anchor="middle" x="61.2486" y="-66.5" font-family="Helvetica,sans-Serif" font-size="10.00">TVector3.h</text>
</g>
<!-- Node3&#45;&gt;Node9 -->
<g id="edge40" class="edge"><title>Node3&#45;&gt;Node9</title>
<path fill="none" stroke="midnightblue" d="M289.112,-234.011C251.047,-227.065 202.857,-215.281 163.249,-196 125.677,-177.71 114.396,-171.373 89.2486,-138 78.337,-123.519 70.9774,-104.196 66.5527,-89.6814"/>
<polygon fill="midnightblue" stroke="midnightblue" points="69.8149,-88.3537 63.7311,-79.6797 63.0778,-90.2544 69.8149,-88.3537"/>
</g>
<!-- Node14 -->
<g id="node29" class="node"><title>Node14</title>
<a xlink:href="_cluster_8h.html" target="_top" xlink:title="analysis/data/Cluster.h">
<polygon fill="white" stroke="black" points="171.749,-174.5 171.749,-195.5 288.749,-195.5 288.749,-174.5 171.749,-174.5"/>
<text text-anchor="middle" x="230.249" y="-182.5" font-family="Helvetica,sans-Serif" font-size="10.00">analysis/data/Cluster.h</text>
</a>
</g>
<!-- Node3&#45;&gt;Node14 -->
<g id="edge30" class="edge"><title>Node3&#45;&gt;Node14</title>
<path fill="none" stroke="midnightblue" d="M331.793,-232.497C312.339,-223.397 283.969,-210.127 262.158,-199.925"/>
<polygon fill="midnightblue" stroke="midnightblue" points="263.497,-196.688 252.956,-195.621 260.531,-203.028 263.497,-196.688"/>
</g>
<!-- Node3&#45;&gt;Node17 -->
<g id="edge44" class="edge"><title>Node3&#45;&gt;Node17</title>
<path fill="none" stroke="midnightblue" d="M407.852,-232.497C467.547,-220.8 562.407,-202.212 613.976,-192.108"/>
<polygon fill="midnightblue" stroke="midnightblue" points="614.851,-195.503 623.992,-190.145 613.505,-188.633 614.851,-195.503"/>
</g>
<!-- Node4&#45;&gt;Node5 -->
<g id="edge8" class="edge"><title>Node4&#45;&gt;Node5</title>
<path fill="none" stroke="midnightblue" d="M437.226,-58.3619C426.817,-49.859 412.029,-37.7785 399.994,-27.9466"/>
<polygon fill="midnightblue" stroke="midnightblue" points="402.147,-25.1866 392.189,-21.5707 397.719,-30.6077 402.147,-25.1866"/>
</g>
<!-- Node4&#45;&gt;Node6 -->
<g id="edge10" class="edge"><title>Node4&#45;&gt;Node6</title>
<path fill="none" stroke="midnightblue" d="M469.988,-58.4966C486.859,-49.5194 511.357,-36.4835 530.422,-26.3387"/>
<polygon fill="midnightblue" stroke="midnightblue" points="532.104,-29.4086 539.288,-21.6212 528.816,-23.2289 532.104,-29.4086"/>
</g>
<!-- Node8&#45;&gt;Node4 -->
<g id="edge16" class="edge"><title>Node8&#45;&gt;Node4</title>
<path fill="none" stroke="midnightblue" d="M310.215,-116.497C338.093,-107.041 379.246,-93.0829 409.731,-82.7428"/>
<polygon fill="midnightblue" stroke="midnightblue" points="410.878,-86.0497 419.224,-79.5231 408.629,-79.4207 410.878,-86.0497"/>
</g>
<!-- Node8&#45;&gt;Node5 -->
<g id="edge28" class="edge"><title>Node8&#45;&gt;Node5</title>
<path fill="none" stroke="midnightblue" d="M279.349,-116.066C280.016,-101.429 283.133,-75.3049 296.249,-58 309.161,-40.9631 330.157,-29.1571 347.8,-21.6386"/>
<polygon fill="midnightblue" stroke="midnightblue" points="349.192,-24.8517 357.184,-17.8968 346.599,-18.3495 349.192,-24.8517"/>
</g>
<!-- Node8&#45;&gt;Node9 -->
<g id="edge18" class="edge"><title>Node8&#45;&gt;Node9</title>
<path fill="none" stroke="midnightblue" d="M239.523,-116.483C205.747,-107.533 155.695,-94.2555 103.657,-80.3721"/>
<polygon fill="midnightblue" stroke="midnightblue" points="104.485,-76.9707 93.9202,-77.7737 102.68,-83.734 104.485,-76.9707"/>
</g>
<!-- Node10 -->
<g id="node20" class="node"><title>Node10</title>
<polygon fill="white" stroke="#bfbfbf" points="305.249,-58.5 305.249,-79.5 351.249,-79.5 351.249,-58.5 305.249,-58.5"/>
<text text-anchor="middle" x="328.249" y="-66.5" font-family="Helvetica,sans-Serif" font-size="10.00">cstdint</text>
</g>
<!-- Node8&#45;&gt;Node10 -->
<g id="edge20" class="edge"><title>Node8&#45;&gt;Node10</title>
<path fill="none" stroke="midnightblue" d="M288.236,-116.362C295.074,-108.268 304.651,-96.9318 312.721,-87.3796"/>
<polygon fill="midnightblue" stroke="midnightblue" points="315.538,-89.4683 319.318,-79.5707 310.191,-84.9508 315.538,-89.4683"/>
</g>
<!-- Node11 -->
<g id="node22" class="node"><title>Node11</title>
<polygon fill="white" stroke="#bfbfbf" points="110.749,-58.5 110.749,-79.5 169.749,-79.5 169.749,-58.5 110.749,-58.5"/>
<text text-anchor="middle" x="140.249" y="-66.5" font-family="Helvetica,sans-Serif" font-size="10.00">stdexcept</text>
</g>
<!-- Node8&#45;&gt;Node11 -->
<g id="edge22" class="edge"><title>Node8&#45;&gt;Node11</title>
<path fill="none" stroke="midnightblue" d="M254.077,-116.497C231.976,-107.275 199.61,-93.7695 175.035,-83.5153"/>
<polygon fill="midnightblue" stroke="midnightblue" points="176.28,-80.2421 165.703,-79.6212 173.584,-86.7022 176.28,-80.2421"/>
</g>
<!-- Node8&#45;&gt;Node12 -->
<g id="edge24" class="edge"><title>Node8&#45;&gt;Node12</title>
<path fill="none" stroke="midnightblue" d="M326.792,-122.204C441.048,-110.679 728.593,-81.6748 823.397,-72.112"/>
<polygon fill="midnightblue" stroke="midnightblue" points="823.88,-75.5811 833.478,-71.0951 823.177,-68.6165 823.88,-75.5811"/>
</g>
<!-- Node13 -->
<g id="node26" class="node"><title>Node13</title>
<polygon fill="white" stroke="#bfbfbf" points="187.249,-58.5 187.249,-79.5 249.249,-79.5 249.249,-58.5 187.249,-58.5"/>
<text text-anchor="middle" x="218.249" y="-66.5" font-family="Helvetica,sans-Serif" font-size="10.00">type_traits</text>
</g>
<!-- Node8&#45;&gt;Node13 -->
<g id="edge26" class="edge"><title>Node8&#45;&gt;Node13</title>
<path fill="none" stroke="midnightblue" d="M268.06,-116.362C259.29,-108.023 246.899,-96.2418 236.671,-86.5162"/>
<polygon fill="midnightblue" stroke="midnightblue" points="239.025,-83.9248 229.366,-79.5707 234.201,-88.9978 239.025,-83.9248"/>
</g>
<!-- Node14&#45;&gt;Node8 -->
<g id="edge32" class="edge"><title>Node14&#45;&gt;Node8</title>
<path fill="none" stroke="midnightblue" d="M239.236,-174.362C246.074,-166.268 255.651,-154.932 263.721,-145.38"/>
<polygon fill="midnightblue" stroke="midnightblue" points="266.538,-147.468 270.318,-137.571 261.191,-142.951 266.538,-147.468"/>
</g>
<!-- Node14&#45;&gt;Node9 -->
<g id="edge36" class="edge"><title>Node14&#45;&gt;Node9</title>
<path fill="none" stroke="midnightblue" d="M190.621,-174.427C167.146,-166.857 137.701,-154.975 115.249,-138 97.3625,-124.477 82.1704,-103.65 72.5001,-88.4143"/>
<polygon fill="midnightblue" stroke="midnightblue" points="75.4171,-86.4753 67.2177,-79.7655 69.4431,-90.124 75.4171,-86.4753"/>
</g>
<!-- Node14&#45;&gt;Node15 -->
<g id="edge34" class="edge"><title>Node14&#45;&gt;Node15</title>
<path fill="none" stroke="midnightblue" d="M289.053,-175.681C370.492,-162.776 514.064,-140.024 571.491,-130.923"/>
<polygon fill="midnightblue" stroke="midnightblue" points="572.153,-134.362 581.482,-129.34 571.057,-127.449 572.153,-134.362"/>
</g>
<!-- Node16 -->
<g id="node35" class="node"><title>Node16</title>
<a xlink:href="enumfield_8h.html" target="_top" xlink:title="base/enumfield.h">
<polygon fill="white" stroke="black" points="123.749,-116.5 123.749,-137.5 214.749,-137.5 214.749,-116.5 123.749,-116.5"/>
<text text-anchor="middle" x="169.249" y="-124.5" font-family="Helvetica,sans-Serif" font-size="10.00">base/enumfield.h</text>
</a>
</g>
<!-- Node14&#45;&gt;Node16 -->
<g id="edge38" class="edge"><title>Node14&#45;&gt;Node16</title>
<path fill="none" stroke="midnightblue" d="M219.06,-174.362C210.29,-166.023 197.899,-154.242 187.671,-144.516"/>
<polygon fill="midnightblue" stroke="midnightblue" points="190.025,-141.925 180.366,-137.571 185.201,-146.998 190.025,-141.925"/>
</g>
<!-- Node18&#45;&gt;Node5 -->
<g id="edge64" class="edge"><title>Node18&#45;&gt;Node5</title>
<path fill="none" stroke="midnightblue" d="M813.681,-232.302C813.699,-217.457 811.55,-190.571 797.249,-174 693.721,-54.0396 490.774,-21.8028 411.791,-13.6218"/>
<polygon fill="midnightblue" stroke="midnightblue" points="411.784,-10.1047 401.492,-12.6204 411.106,-17.0718 411.784,-10.1047"/>
</g>
<!-- Node18&#45;&gt;Node6 -->
<g id="edge58" class="edge"><title>Node18&#45;&gt;Node6</title>
<path fill="none" stroke="midnightblue" d="M855.668,-232.449C887.637,-223.538 927.569,-210.02 937.249,-196 968.184,-151.192 987.043,-135.213 883.249,-58 838.369,-24.6144 670.983,-14.7828 595.992,-12.0214"/>
<polygon fill="midnightblue" stroke="midnightblue" points="595.739,-8.51066 585.624,-11.6633 595.497,-15.5065 595.739,-8.51066"/>
</g>
<!-- Node18&#45;&gt;Node7 -->
<g id="edge54" class="edge"><title>Node18&#45;&gt;Node7</title>
<path fill="none" stroke="midnightblue" d="M762.362,-232.497C710.131,-221.716 629.542,-205.082 578.908,-194.631"/>
<polygon fill="midnightblue" stroke="midnightblue" points="579.39,-191.157 568.889,-192.563 577.975,-198.012 579.39,-191.157"/>
</g>
<!-- Node18&#45;&gt;Node12 -->
<g id="edge56" class="edge"><title>Node18&#45;&gt;Node12</title>
<path fill="none" stroke="midnightblue" d="M817.664,-232.331C821.429,-222.906 826.77,-208.722 830.249,-196 840.353,-159.046 847.655,-114.894 851.398,-89.5826"/>
<polygon fill="midnightblue" stroke="midnightblue" points="854.864,-90.0641 852.823,-79.6678 847.936,-89.0679 854.864,-90.0641"/>
</g>
<!-- Node19 -->
<g id="node49" class="node"><title>Node19</title>
<polygon fill="white" stroke="#bfbfbf" points="983.749,-174.5 983.749,-195.5 1018.75,-195.5 1018.75,-174.5 983.749,-174.5"/>
<text text-anchor="middle" x="1001.25" y="-182.5" font-family="Helvetica,sans-Serif" font-size="10.00">map</text>
</g>
<!-- Node18&#45;&gt;Node19 -->
<g id="edge60" class="edge"><title>Node18&#45;&gt;Node19</title>
<path fill="none" stroke="midnightblue" d="M850.526,-232.411C882.44,-223.209 929.547,-209.304 970.249,-196 971.47,-195.601 972.716,-195.187 973.973,-194.764"/>
<polygon fill="midnightblue" stroke="midnightblue" points="975.289,-198.012 983.596,-191.436 973.001,-191.396 975.289,-198.012"/>
</g>
<!-- Node20 -->
<g id="node51" class="node"><title>Node20</title>
<polygon fill="white" stroke="#bfbfbf" points="881.749,-174.5 881.749,-195.5 928.749,-195.5 928.749,-174.5 881.749,-174.5"/>
<text text-anchor="middle" x="905.249" y="-182.5" font-family="Helvetica,sans-Serif" font-size="10.00">iterator</text>
</g>
<!-- Node18&#45;&gt;Node20 -->
<g id="edge62" class="edge"><title>Node18&#45;&gt;Node20</title>
<path fill="none" stroke="midnightblue" d="M830.123,-232.362C843.999,-223.614 863.883,-211.079 879.708,-201.101"/>
<polygon fill="midnightblue" stroke="midnightblue" points="881.889,-203.864 888.481,-195.571 878.156,-197.943 881.889,-203.864"/>
</g>
<!-- Node21&#45;&gt;Node15 -->
<g id="edge70" class="edge"><title>Node21&#45;&gt;Node15</title>
<path fill="none" stroke="midnightblue" d="M703.89,-232.488C702.875,-217.865 699.101,-191.241 685.249,-174 668.753,-153.468 640.829,-140.821 620.653,-133.891"/>
<polygon fill="midnightblue" stroke="midnightblue" points="621.501,-130.488 610.91,-130.777 619.37,-137.155 621.501,-130.488"/>
</g>
<!-- Node21&#45;&gt;Node17 -->
<g id="edge68" class="edge"><title>Node21&#45;&gt;Node17</title>
<path fill="none" stroke="midnightblue" d="M694.344,-232.362C686.732,-224.186 676.041,-212.702 667.092,-203.091"/>
<polygon fill="midnightblue" stroke="midnightblue" points="669.466,-200.505 660.09,-195.571 664.343,-205.275 669.466,-200.505"/>
</g>
<!-- Node22 -->
<g id="node58" class="node"><title>Node22</title>
<polygon fill="white" stroke="#bfbfbf" points="732.249,-174.5 732.249,-195.5 788.249,-195.5 788.249,-174.5 732.249,-174.5"/>
<text text-anchor="middle" x="760.249" y="-182.5" font-family="Helvetica,sans-Serif" font-size="10.00">algorithm</text>
</g>
<!-- Node21&#45;&gt;Node22 -->
<g id="edge72" class="edge"><title>Node21&#45;&gt;Node22</title>
<path fill="none" stroke="midnightblue" d="M714.52,-232.362C722.493,-224.104 733.723,-212.472 743.06,-202.803"/>
<polygon fill="midnightblue" stroke="midnightblue" points="745.614,-205.196 750.042,-195.571 740.579,-200.334 745.614,-205.196"/>
</g>
<!-- Node25&#45;&gt;Node18 -->
<g id="edge86" class="edge"><title>Node25&#45;&gt;Node18</title>
<path fill="none" stroke="midnightblue" d="M818.965,-290.362C818.067,-282.922 816.838,-272.743 815.75,-263.728"/>
<polygon fill="midnightblue" stroke="midnightblue" points="819.197,-263.079 814.524,-253.571 812.248,-263.918 819.197,-263.079"/>
</g>
<!-- Node25&#45;&gt;Node19 -->
<g id="edge90" class="edge"><title>Node25&#45;&gt;Node19</title>
<path fill="none" stroke="midnightblue" d="M879.742,-290.439C920.452,-282.041 969.609,-269.2 984.249,-254 996.576,-241.201 1000.41,-220.961 1001.41,-205.705"/>
<polygon fill="midnightblue" stroke="midnightblue" points="1004.91,-205.757 1001.72,-195.655 997.915,-205.544 1004.91,-205.757"/>
</g>
<!-- Node25&#45;&gt;Node21 -->
<g id="edge88" class="edge"><title>Node25&#45;&gt;Node21</title>
<path fill="none" stroke="midnightblue" d="M799.242,-290.497C781.206,-281.479 754.978,-268.365 734.65,-258.201"/>
<polygon fill="midnightblue" stroke="midnightblue" points="736.001,-254.963 725.491,-253.621 732.87,-261.224 736.001,-254.963"/>
</g>
</g>
</svg>
