<?xml version="1.0" encoding="UTF-8" standalone="no"?>
<!DOCTYPE svg PUBLIC "-//W3C//DTD SVG 1.1//EN"
 "http://www.w3.org/Graphics/SVG/1.1/DTD/svg11.dtd">
<!-- Generated by graphviz version 2.26.3 (20100126.1600)
 -->
<!-- Title: src/analysis/utils/particle_tools.h Pages: 1 -->
<svg width="1178pt" height="212pt"
 viewBox="0.00 0.00 1178.00 212.00" xmlns="http://www.w3.org/2000/svg" xmlns:xlink="http://www.w3.org/1999/xlink">
<g id="graph1" class="graph" transform="scale(1 1) rotate(0) translate(4 208)">
<title>src/analysis/utils/particle_tools.h</title>
<polygon fill="white" stroke="white" points="-4,5 -4,-208 1175,-208 1175,5 -4,5"/>
<!-- Node1 -->
<g id="node1" class="node"><title>Node1</title>
<polygon fill="#bfbfbf" stroke="black" points="630,-169 630,-203 720,-203 720,-169 630,-169"/>
<text text-anchor="start" x="638" y="-190" font-family="Helvetica,sans-Serif" font-size="10.00">src/analysis/utils</text>
<text text-anchor="middle" x="675" y="-177" font-family="Helvetica,sans-Serif" font-size="10.00">/particle_tools.h</text>
</g>
<!-- Node2 -->
<g id="node3" class="node"><title>Node2</title>
<a xlink:href="_pluto_reader_8cc.html" target="_top" xlink:title="src/analysis/input\l/pluto/PlutoReader.cc">
<polygon fill="white" stroke="black" points="-0.5,-91 -0.5,-125 110.5,-125 110.5,-91 -0.5,-91"/>
<text text-anchor="start" x="7.5" y="-112" font-family="Helvetica,sans-Serif" font-size="10.00">src/analysis/input</text>
<text text-anchor="middle" x="55" y="-99" font-family="Helvetica,sans-Serif" font-size="10.00">/pluto/PlutoReader.cc</text>
</a>
</g>
<!-- Node1&#45;&gt;Node2 -->
<g id="edge2" class="edge"><title>Node1&#45;&gt;Node2</title>
<path fill="none" stroke="midnightblue" d="M619.806,-182.484C498.774,-174.475 213.326,-153.866 119,-132 111.37,-130.231 103.421,-127.779 95.8235,-125.114"/>
<polygon fill="midnightblue" stroke="midnightblue" points="619.752,-185.988 629.961,-183.152 620.212,-179.003 619.752,-185.988"/>
</g>
<!-- Node3 -->
<g id="node5" class="node"><title>Node3</title>
<a xlink:href="_m_c_smearing_8cc.html" target="_top" xlink:title="src/analysis/physics\l/common/MCSmearing.cc">
<polygon fill="white" stroke="black" points="127.5,-91 127.5,-125 258.5,-125 258.5,-91 127.5,-91"/>
<text text-anchor="start" x="135.5" y="-112" font-family="Helvetica,sans-Serif" font-size="10.00">src/analysis/physics</text>
<text text-anchor="middle" x="193" y="-99" font-family="Helvetica,sans-Serif" font-size="10.00">/common/MCSmearing.cc</text>
</a>
</g>
<!-- Node1&#45;&gt;Node3 -->
<g id="edge4" class="edge"><title>Node1&#45;&gt;Node3</title>
<path fill="none" stroke="midnightblue" d="M619.646,-181.89C540.654,-175.3 391.384,-160.155 267,-132 258.569,-130.092 249.729,-127.638 241.211,-125.03"/>
<polygon fill="midnightblue" stroke="midnightblue" points="619.599,-185.397 629.852,-182.726 620.171,-178.421 619.599,-185.397"/>
</g>
<!-- Node4 -->
<g id="node7" class="node"><title>Node4</title>
<a xlink:href="etaprime-3pi0_8cc.html" target="_top" xlink:title="src/analysis/physics\l/etaprime/etaprime&#45;3pi0.cc">
<polygon fill="white" stroke="black" points="276,-91 276,-125 408,-125 408,-91 276,-91"/>
<text text-anchor="start" x="284" y="-112" font-family="Helvetica,sans-Serif" font-size="10.00">src/analysis/physics</text>
<text text-anchor="middle" x="342" y="-99" font-family="Helvetica,sans-Serif" font-size="10.00">/etaprime/etaprime&#45;3pi0.cc</text>
</a>
</g>
<!-- Node1&#45;&gt;Node4 -->
<g id="edge6" class="edge"><title>Node1&#45;&gt;Node4</title>
<path fill="none" stroke="midnightblue" d="M619.818,-176.162C567.314,-166.399 486.275,-150.281 417,-132 409.201,-129.942 401.013,-127.558 393.03,-125.107"/>
<polygon fill="midnightblue" stroke="midnightblue" points="619.457,-179.654 629.926,-178.029 620.728,-172.771 619.457,-179.654"/>
</g>
<!-- Node5 -->
<g id="node9" class="node"><title>Node5</title>
<a xlink:href="etaprime__omega__gamma_8h.html" target="_top" xlink:title="src/analysis/physics\l/etaprime/etaprime_omega\l_gamma.h">
<polygon fill="white" stroke="black" points="426,-84.5 426,-131.5 558,-131.5 558,-84.5 426,-84.5"/>
<text text-anchor="start" x="434" y="-118.5" font-family="Helvetica,sans-Serif" font-size="10.00">src/analysis/physics</text>
<text text-anchor="start" x="434" y="-105.5" font-family="Helvetica,sans-Serif" font-size="10.00">/etaprime/etaprime_omega</text>
<text text-anchor="middle" x="492" y="-92.5" font-family="Helvetica,sans-Serif" font-size="10.00">_gamma.h</text>
</a>
</g>
<!-- Node1&#45;&gt;Node5 -->
<g id="edge8" class="edge"><title>Node1&#45;&gt;Node5</title>
<path fill="none" stroke="midnightblue" d="M625.508,-164.905C601.358,-154.611 572.221,-142.192 547.337,-131.586"/>
<polygon fill="midnightblue" stroke="midnightblue" points="624.268,-168.181 634.84,-168.883 627.013,-161.742 624.268,-168.181"/>
</g>
<!-- Node6 -->
<g id="node11" class="node"><title>Node6</title>
<a xlink:href="etaprime__omega__gamma_8cc.html" target="_top" xlink:title="src/analysis/physics\l/etaprime/etaprime_omega\l_gamma.cc">
<polygon fill="white" stroke="black" points="444,-0.5 444,-47.5 576,-47.5 576,-0.5 444,-0.5"/>
<text text-anchor="start" x="452" y="-34.5" font-family="Helvetica,sans-Serif" font-size="10.00">src/analysis/physics</text>
<text text-anchor="start" x="452" y="-21.5" font-family="Helvetica,sans-Serif" font-size="10.00">/etaprime/etaprime_omega</text>
<text text-anchor="middle" x="510" y="-8.5" font-family="Helvetica,sans-Serif" font-size="10.00">_gamma.cc</text>
</a>
</g>
<!-- Node1&#45;&gt;Node6 -->
<g id="edge12" class="edge"><title>Node1&#45;&gt;Node6</title>
<path fill="none" stroke="midnightblue" d="M641.709,-162.928C629.613,-153.887 616.18,-143.041 605,-132 585.64,-112.881 584.833,-104.551 567,-84 556.359,-71.7374 544.006,-58.61 533.526,-47.7705"/>
<polygon fill="midnightblue" stroke="midnightblue" points="639.691,-165.789 649.825,-168.88 643.831,-160.144 639.691,-165.789"/>
</g>
<!-- Node7 -->
<g id="node14" class="node"><title>Node7</title>
<a xlink:href="mctrue__3pi0_8h.html" target="_top" xlink:title="src/analysis/physics\l/etaprime/mctrue_3pi0.h">
<polygon fill="white" stroke="black" points="614,-91 614,-125 736,-125 736,-91 614,-91"/>
<text text-anchor="start" x="622" y="-112" font-family="Helvetica,sans-Serif" font-size="10.00">src/analysis/physics</text>
<text text-anchor="middle" x="675" y="-99" font-family="Helvetica,sans-Serif" font-size="10.00">/etaprime/mctrue_3pi0.h</text>
</a>
</g>
<!-- Node1&#45;&gt;Node7 -->
<g id="edge14" class="edge"><title>Node1&#45;&gt;Node7</title>
<path fill="none" stroke="midnightblue" d="M675,-158.61C675,-147.519 675,-135.049 675,-125.262"/>
<polygon fill="midnightblue" stroke="midnightblue" points="671.5,-158.689 675,-168.689 678.5,-158.689 671.5,-158.689"/>
</g>
<!-- Node8 -->
<g id="node16" class="node"><title>Node8</title>
<a xlink:href="mctrue__3pi0_8cc.html" target="_top" xlink:title="src/analysis/physics\l/etaprime/mctrue_3pi0.cc">
<polygon fill="white" stroke="black" points="611.5,-7 611.5,-41 738.5,-41 738.5,-7 611.5,-7"/>
<text text-anchor="start" x="619.5" y="-28" font-family="Helvetica,sans-Serif" font-size="10.00">src/analysis/physics</text>
<text text-anchor="middle" x="675" y="-15" font-family="Helvetica,sans-Serif" font-size="10.00">/etaprime/mctrue_3pi0.cc</text>
</a>
</g>
<!-- Node1&#45;&gt;Node8 -->
<g id="edge18" class="edge"><title>Node1&#45;&gt;Node8</title>
<path fill="none" stroke="midnightblue" d="M717.424,-162.98C728.435,-154.762 738.903,-144.404 745,-132 754.411,-112.855 753.914,-103.382 745,-84 736.707,-65.9682 720.024,-51.3275 705.025,-41.0235"/>
<polygon fill="midnightblue" stroke="midnightblue" points="715.187,-160.273 708.962,-168.846 719.175,-166.026 715.187,-160.273"/>
</g>
<!-- Node9 -->
<g id="node19" class="node"><title>Node9</title>
<a xlink:href="omega_8h.html" target="_top" xlink:title="src/analysis/physics\l/omega/omega.h">
<polygon fill="white" stroke="black" points="792,-91 792,-125 898,-125 898,-91 792,-91"/>
<text text-anchor="start" x="800" y="-112" font-family="Helvetica,sans-Serif" font-size="10.00">src/analysis/physics</text>
<text text-anchor="middle" x="845" y="-99" font-family="Helvetica,sans-Serif" font-size="10.00">/omega/omega.h</text>
</a>
</g>
<!-- Node1&#45;&gt;Node9 -->
<g id="edge20" class="edge"><title>Node1&#45;&gt;Node9</title>
<path fill="none" stroke="midnightblue" d="M721.6,-164.619C748.72,-152.175 782.444,-136.702 807.78,-125.078"/>
<polygon fill="midnightblue" stroke="midnightblue" points="719.937,-161.531 712.307,-168.883 722.856,-167.893 719.937,-161.531"/>
</g>
<!-- Node11 -->
<g id="node23" class="node"><title>Node11</title>
<a xlink:href="omega_8cc.html" target="_top" xlink:title="src/analysis/physics\l/omega/omega.cc">
<polygon fill="white" stroke="black" points="914,-7 914,-41 1020,-41 1020,-7 914,-7"/>
<text text-anchor="start" x="922" y="-28" font-family="Helvetica,sans-Serif" font-size="10.00">src/analysis/physics</text>
<text text-anchor="middle" x="967" y="-15" font-family="Helvetica,sans-Serif" font-size="10.00">/omega/omega.cc</text>
</a>
</g>
<!-- Node1&#45;&gt;Node11 -->
<g id="edge26" class="edge"><title>Node1&#45;&gt;Node11</title>
<path fill="none" stroke="midnightblue" d="M730.298,-178.395C789.778,-169.313 879.534,-152.715 907,-132 937.653,-108.881 954.774,-65.2905 962.3,-41.1597"/>
<polygon fill="midnightblue" stroke="midnightblue" points="729.667,-174.951 720.296,-179.896 730.705,-181.873 729.667,-174.951"/>
</g>
<!-- Node12 -->
<g id="node26" class="node"><title>Node12</title>
<a xlink:href="_physics_stats_8cc.html" target="_top" xlink:title="src/analysis/physics\l/tpc/PhysicsStats.cc">
<polygon fill="white" stroke="black" points="954,-91 954,-125 1062,-125 1062,-91 954,-91"/>
<text text-anchor="start" x="962" y="-112" font-family="Helvetica,sans-Serif" font-size="10.00">src/analysis/physics</text>
<text text-anchor="middle" x="1008" y="-99" font-family="Helvetica,sans-Serif" font-size="10.00">/tpc/PhysicsStats.cc</text>
</a>
</g>
<!-- Node1&#45;&gt;Node12 -->
<g id="edge28" class="edge"><title>Node1&#45;&gt;Node12</title>
<path fill="none" stroke="midnightblue" d="M730.516,-176.992C784.502,-167.693 868.584,-151.777 940,-132 947.36,-129.962 955.073,-127.532 962.553,-125.014"/>
<polygon fill="midnightblue" stroke="midnightblue" points="729.733,-173.575 720.464,-178.707 730.91,-180.475 729.733,-173.575"/>
</g>
<!-- Node13 -->
<g id="node28" class="node"><title>Node13</title>
<a xlink:href="particle__tools_8cc.html" target="_top" xlink:title="src/analysis/utils\l/particle_tools.cc">
<polygon fill="white" stroke="black" points="1079.5,-91 1079.5,-125 1170.5,-125 1170.5,-91 1079.5,-91"/>
<text text-anchor="start" x="1087.5" y="-112" font-family="Helvetica,sans-Serif" font-size="10.00">src/analysis/utils</text>
<text text-anchor="middle" x="1125" y="-99" font-family="Helvetica,sans-Serif" font-size="10.00">/particle_tools.cc</text>
</a>
</g>
<!-- Node1&#45;&gt;Node13 -->
<g id="edge30" class="edge"><title>Node1&#45;&gt;Node13</title>
<path fill="none" stroke="midnightblue" d="M730.1,-183.4C807.531,-178.646 952.351,-165.717 1071,-132 1077.41,-130.177 1084.05,-127.733 1090.39,-125.1"/>
<polygon fill="midnightblue" stroke="midnightblue" points="729.863,-179.908 720.087,-183.992 730.276,-186.895 729.863,-179.908"/>
</g>
<!-- Node5&#45;&gt;Node6 -->
<g id="edge10" class="edge"><title>Node5&#45;&gt;Node6</title>
<path fill="none" stroke="midnightblue" d="M499.21,-74.3556C501.129,-65.3972 503.162,-55.9102 504.94,-47.6152"/>
<polygon fill="midnightblue" stroke="midnightblue" points="495.783,-73.6423 497.11,-84.1537 502.628,-75.109 495.783,-73.6423"/>
</g>
<!-- Node7&#45;&gt;Node8 -->
<g id="edge16" class="edge"><title>Node7&#45;&gt;Node8</title>
<path fill="none" stroke="midnightblue" d="M675,-80.3304C675,-67.3804 675,-52.3652 675,-41.0952"/>
<polygon fill="midnightblue" stroke="midnightblue" points="671.5,-80.5951 675,-90.5951 678.5,-80.5952 671.5,-80.5951"/>
</g>
<!-- Node10 -->
<g id="node21" class="node"><title>Node10</title>
<a xlink:href="omega__histograms_8cc.html" target="_top" xlink:title="progs/omega_histograms.cc">
<polygon fill="white" stroke="black" points="756,-13.5 756,-34.5 896,-34.5 896,-13.5 756,-13.5"/>
<text text-anchor="middle" x="826" y="-21.5" font-family="Helvetica,sans-Serif" font-size="10.00">progs/omega_histograms.cc</text>
</a>
</g>
<!-- Node9&#45;&gt;Node10 -->
<g id="edge22" class="edge"><title>Node9&#45;&gt;Node10</title>
<path fill="none" stroke="midnightblue" d="M838.772,-80.4641C835.265,-64.9618 831.081,-46.4648 828.482,-34.9734"/>
<polygon fill="midnightblue" stroke="midnightblue" points="835.443,-81.6137 841.063,-90.5951 842.271,-80.0694 835.443,-81.6137"/>
</g>
<!-- Node9&#45;&gt;Node11 -->
<g id="edge24" class="edge"><title>Node9&#45;&gt;Node11</title>
<path fill="none" stroke="midnightblue" d="M878.261,-85.099C898.389,-71.2402 923.637,-53.8563 942.05,-41.1783"/>
<polygon fill="midnightblue" stroke="midnightblue" points="876.235,-82.2448 869.983,-90.7986 880.204,-88.0104 876.235,-82.2448"/>
</g>
</g>
</svg>
