<?xml version="1.0" encoding="UTF-8" standalone="no"?>
<!DOCTYPE svg PUBLIC "-//W3C//DTD SVG 1.1//EN"
 "http://www.w3.org/Graphics/SVG/1.1/DTD/svg11.dtd">
<!-- Generated by graphviz version 2.26.3 (20100126.1600)
 -->
<!-- Title: src/analysis/utils/particle_tools.cc Pages: 1 -->
<svg width="1671pt" height="450pt"
 viewBox="0.00 0.00 1671.00 450.00" xmlns="http://www.w3.org/2000/svg" xmlns:xlink="http://www.w3.org/1999/xlink">
<g id="graph1" class="graph" transform="scale(1 1) rotate(0) translate(4 446)">
<title>src/analysis/utils/particle_tools.cc</title>
<polygon fill="white" stroke="white" points="-4,5 -4,-446 1668,-446 1668,5 -4,5"/>
<!-- Node1 -->
<g id="node1" class="node"><title>Node1</title>
<polygon fill="#bfbfbf" stroke="black" points="1290.5,-407 1290.5,-441 1381.5,-441 1381.5,-407 1290.5,-407"/>
<text text-anchor="start" x="1298.5" y="-428" font-family="Helvetica,sans-Serif" font-size="10.00">src/analysis/utils</text>
<text text-anchor="middle" x="1336" y="-415" font-family="Helvetica,sans-Serif" font-size="10.00">/particle_tools.cc</text>
</g>
<!-- Node2 -->
<g id="node3" class="node"><title>Node2</title>
<a xlink:href="particle__tools_8h.html" target="_top" xlink:title="particle_tools.h">
<polygon fill="white" stroke="black" points="900.5,-348.5 900.5,-369.5 983.5,-369.5 983.5,-348.5 900.5,-348.5"/>
<text text-anchor="middle" x="942" y="-356.5" font-family="Helvetica,sans-Serif" font-size="10.00">particle_tools.h</text>
</a>
</g>
<!-- Node1&#45;&gt;Node2 -->
<g id="edge2" class="edge"><title>Node1&#45;&gt;Node2</title>
<path fill="none" stroke="midnightblue" d="M1290.42,-416.48C1216.56,-404.295 1071.19,-380.313 993.623,-367.516"/>
<polygon fill="midnightblue" stroke="midnightblue" points="994.034,-364.037 983.598,-365.863 992.895,-370.944 994.034,-364.037"/>
</g>
<!-- Node27 -->
<g id="node76" class="node"><title>Node27</title>
<a xlink:href="combinatorics_8h.html" target="_top" xlink:title="combinatorics.h">
<polygon fill="white" stroke="black" points="0,-116.5 0,-137.5 86,-137.5 86,-116.5 0,-116.5"/>
<text text-anchor="middle" x="43" y="-124.5" font-family="Helvetica,sans-Serif" font-size="10.00">combinatorics.h</text>
</a>
</g>
<!-- Node1&#45;&gt;Node27 -->
<g id="edge98" class="edge"><title>Node1&#45;&gt;Node27</title>
<path fill="none" stroke="midnightblue" d="M1290.21,-422.037C1062.18,-411.966 60,-364.115 60,-301 60,-301 60,-301 60,-243 60,-209.416 52.9379,-170.935 47.9171,-147.821"/>
<polygon fill="midnightblue" stroke="midnightblue" points="51.2708,-146.782 45.6562,-137.798 44.4424,-148.323 51.2708,-146.782"/>
</g>
<!-- Node28 -->
<g id="node79" class="node"><title>Node28</title>
<a xlink:href="_logger_8h.html" target="_top" xlink:title="base/Logger.h">
<polygon fill="white" stroke="black" points="1081,-348.5 1081,-369.5 1159,-369.5 1159,-348.5 1081,-348.5"/>
<text text-anchor="middle" x="1120" y="-356.5" font-family="Helvetica,sans-Serif" font-size="10.00">base/Logger.h</text>
</a>
</g>
<!-- Node1&#45;&gt;Node28 -->
<g id="edge102" class="edge"><title>Node1&#45;&gt;Node28</title>
<path fill="none" stroke="midnightblue" d="M1290.46,-410.295C1253.57,-399.196 1201.88,-383.641 1165.12,-372.577"/>
<polygon fill="midnightblue" stroke="midnightblue" points="1165.75,-369.113 1155.17,-369.583 1163.73,-375.816 1165.75,-369.113"/>
</g>
<!-- Node30 -->
<g id="node83" class="node"><title>Node30</title>
<a xlink:href="math_8h.html" target="_top" xlink:title="base/std_ext/math.h">
<polygon fill="white" stroke="black" points="1177,-348.5 1177,-369.5 1283,-369.5 1283,-348.5 1177,-348.5"/>
<text text-anchor="middle" x="1230" y="-356.5" font-family="Helvetica,sans-Serif" font-size="10.00">base/std_ext/math.h</text>
</a>
</g>
<!-- Node1&#45;&gt;Node30 -->
<g id="edge106" class="edge"><title>Node1&#45;&gt;Node30</title>
<path fill="none" stroke="midnightblue" d="M1308.15,-406.922C1292.05,-397.049 1271.92,-384.704 1256.12,-375.016"/>
<polygon fill="midnightblue" stroke="midnightblue" points="1257.74,-371.902 1247.38,-369.658 1254.08,-377.87 1257.74,-371.902"/>
</g>
<!-- Node32 -->
<g id="node87" class="node"><title>Node32</title>
<polygon fill="white" stroke="#bfbfbf" points="1281,-290.5 1281,-311.5 1321,-311.5 1321,-290.5 1281,-290.5"/>
<text text-anchor="middle" x="1301" y="-298.5" font-family="Helvetica,sans-Serif" font-size="10.00">limits</text>
</g>
<!-- Node1&#45;&gt;Node32 -->
<g id="edge122" class="edge"><title>Node1&#45;&gt;Node32</title>
<path fill="none" stroke="midnightblue" d="M1331.13,-406.897C1324.78,-384.573 1313.67,-345.535 1306.86,-321.605"/>
<polygon fill="midnightblue" stroke="midnightblue" points="1310.17,-320.448 1304.07,-311.787 1303.44,-322.364 1310.17,-320.448"/>
</g>
<!-- Node33 -->
<g id="node89" class="node"><title>Node33</title>
<polygon fill="white" stroke="#bfbfbf" points="1339,-348.5 1339,-369.5 1383,-369.5 1383,-348.5 1339,-348.5"/>
<text text-anchor="middle" x="1361" y="-356.5" font-family="Helvetica,sans-Serif" font-size="10.00">TH1.h</text>
</g>
<!-- Node1&#45;&gt;Node33 -->
<g id="edge112" class="edge"><title>Node1&#45;&gt;Node33</title>
<path fill="none" stroke="midnightblue" d="M1342.57,-406.922C1345.81,-398.487 1349.75,-388.248 1353.15,-379.403"/>
<polygon fill="midnightblue" stroke="midnightblue" points="1356.5,-380.442 1356.83,-369.852 1349.97,-377.929 1356.5,-380.442"/>
</g>
<!-- Node34 -->
<g id="node91" class="node"><title>Node34</title>
<polygon fill="white" stroke="#bfbfbf" points="1401,-348.5 1401,-369.5 1451,-369.5 1451,-348.5 1401,-348.5"/>
<text text-anchor="middle" x="1426" y="-356.5" font-family="Helvetica,sans-Serif" font-size="10.00">TTree.h</text>
</g>
<!-- Node1&#45;&gt;Node34 -->
<g id="edge114" class="edge"><title>Node1&#45;&gt;Node34</title>
<path fill="none" stroke="midnightblue" d="M1359.65,-406.922C1373.06,-397.233 1389.77,-385.165 1403.07,-375.562"/>
<polygon fill="midnightblue" stroke="midnightblue" points="1405.18,-378.351 1411.24,-369.658 1401.09,-372.676 1405.18,-378.351"/>
</g>
<!-- Node35 -->
<g id="node93" class="node"><title>Node35</title>
<polygon fill="white" stroke="#bfbfbf" points="1469,-348.5 1469,-369.5 1521,-369.5 1521,-348.5 1469,-348.5"/>
<text text-anchor="middle" x="1495" y="-356.5" font-family="Helvetica,sans-Serif" font-size="10.00">sstream</text>
</g>
<!-- Node1&#45;&gt;Node35 -->
<g id="edge116" class="edge"><title>Node1&#45;&gt;Node35</title>
<path fill="none" stroke="midnightblue" d="M1377.78,-406.922C1403.17,-396.541 1435.24,-383.428 1459.42,-373.544"/>
<polygon fill="midnightblue" stroke="midnightblue" points="1461,-376.682 1468.93,-369.658 1458.35,-370.203 1461,-376.682"/>
</g>
<!-- Node36 -->
<g id="node95" class="node"><title>Node36</title>
<polygon fill="white" stroke="#bfbfbf" points="1538.5,-348.5 1538.5,-369.5 1587.5,-369.5 1587.5,-348.5 1538.5,-348.5"/>
<text text-anchor="middle" x="1563" y="-356.5" font-family="Helvetica,sans-Serif" font-size="10.00">cassert</text>
</g>
<!-- Node1&#45;&gt;Node36 -->
<g id="edge118" class="edge"><title>Node1&#45;&gt;Node36</title>
<path fill="none" stroke="midnightblue" d="M1381.66,-411.986C1418.93,-402.021 1473.18,-387.165 1528.56,-370.359"/>
<polygon fill="midnightblue" stroke="midnightblue" points="1529.63,-373.69 1538.18,-367.423 1527.59,-366.995 1529.63,-373.69"/>
</g>
<!-- Node37 -->
<g id="node97" class="node"><title>Node37</title>
<polygon fill="white" stroke="#bfbfbf" points="1604.5,-348.5 1604.5,-369.5 1663.5,-369.5 1663.5,-348.5 1604.5,-348.5"/>
<text text-anchor="middle" x="1634" y="-356.5" font-family="Helvetica,sans-Serif" font-size="10.00">functional</text>
</g>
<!-- Node1&#45;&gt;Node37 -->
<g id="edge120" class="edge"><title>Node1&#45;&gt;Node37</title>
<path fill="none" stroke="midnightblue" d="M1381.8,-415.594C1431.89,-406.155 1514.71,-389.829 1594.48,-370.266"/>
<polygon fill="midnightblue" stroke="midnightblue" points="1595.32,-373.663 1604.19,-367.865 1593.64,-366.868 1595.32,-373.663"/>
</g>
<!-- Node3 -->
<g id="node5" class="node"><title>Node3</title>
<a xlink:href="_particle_8h.html" target="_top" xlink:title="analysis/data/Particle.h">
<polygon fill="white" stroke="black" points="556.5,-290.5 556.5,-311.5 675.5,-311.5 675.5,-290.5 556.5,-290.5"/>
<text text-anchor="middle" x="616" y="-298.5" font-family="Helvetica,sans-Serif" font-size="10.00">analysis/data/Particle.h</text>
</a>
</g>
<!-- Node2&#45;&gt;Node3 -->
<g id="edge4" class="edge"><title>Node2&#45;&gt;Node3</title>
<path fill="none" stroke="midnightblue" d="M900.381,-351.595C846.205,-341.957 750.758,-324.975 685.509,-313.367"/>
<polygon fill="midnightblue" stroke="midnightblue" points="685.765,-309.857 675.307,-311.552 684.539,-316.749 685.765,-309.857"/>
</g>
<!-- Node13 -->
<g id="node26" class="node"><title>Node13</title>
<polygon fill="white" stroke="#bfbfbf" points="943.5,-58.5 943.5,-79.5 984.5,-79.5 984.5,-58.5 943.5,-58.5"/>
<text text-anchor="middle" x="964" y="-66.5" font-family="Helvetica,sans-Serif" font-size="10.00">string</text>
</g>
<!-- Node2&#45;&gt;Node13 -->
<g id="edge94" class="edge"><title>Node2&#45;&gt;Node13</title>
<path fill="none" stroke="midnightblue" d="M964.396,-348.439C997.08,-331.289 1054,-294.089 1054,-243 1054,-243 1054,-243 1054,-185 1054,-142.219 1015.32,-105.674 988.671,-85.5762"/>
<polygon fill="midnightblue" stroke="midnightblue" points="990.654,-82.6907 980.507,-79.6418 986.538,-88.3528 990.654,-82.6907"/>
</g>
<!-- Node24 -->
<g id="node62" class="node"><title>Node24</title>
<polygon fill="white" stroke="#bfbfbf" points="896,-232.5 896,-253.5 988,-253.5 988,-232.5 896,-232.5"/>
<text text-anchor="middle" x="942" y="-240.5" font-family="Helvetica,sans-Serif" font-size="10.00">TLorentzVector.h</text>
</g>
<!-- Node2&#45;&gt;Node24 -->
<g id="edge96" class="edge"><title>Node2&#45;&gt;Node24</title>
<path fill="none" stroke="midnightblue" d="M942,-348.295C942,-329.131 942,-288.654 942,-263.843"/>
<polygon fill="midnightblue" stroke="midnightblue" points="945.5,-263.679 942,-253.679 938.5,-263.679 945.5,-263.679"/>
</g>
<!-- Node26 -->
<g id="node69" class="node"><title>Node26</title>
<a xlink:href="_particle_type_tree_8h.html" target="_top" xlink:title="base/ParticleTypeTree.h">
<polygon fill="white" stroke="black" points="777.5,-290.5 777.5,-311.5 900.5,-311.5 900.5,-290.5 777.5,-290.5"/>
<text text-anchor="middle" x="839" y="-298.5" font-family="Helvetica,sans-Serif" font-size="10.00">base/ParticleTypeTree.h</text>
</a>
</g>
<!-- Node2&#45;&gt;Node26 -->
<g id="edge86" class="edge"><title>Node2&#45;&gt;Node26</title>
<path fill="none" stroke="midnightblue" d="M923.108,-348.362C907.282,-339.45 884.477,-326.609 866.605,-316.545"/>
<polygon fill="midnightblue" stroke="midnightblue" points="868.203,-313.428 857.772,-311.571 864.768,-319.527 868.203,-313.428"/>
</g>
<!-- Node4 -->
<g id="node7" class="node"><title>Node4</title>
<a xlink:href="_candidate_8h.html" target="_top" xlink:title="analysis/data/Candidate.h">
<polygon fill="white" stroke="black" points="344,-232.5 344,-253.5 474,-253.5 474,-232.5 344,-232.5"/>
<text text-anchor="middle" x="409" y="-240.5" font-family="Helvetica,sans-Serif" font-size="10.00">analysis/data/Candidate.h</text>
</a>
</g>
<!-- Node3&#45;&gt;Node4 -->
<g id="edge6" class="edge"><title>Node3&#45;&gt;Node4</title>
<path fill="none" stroke="midnightblue" d="M578.514,-290.497C544.329,-280.918 493.654,-266.72 456.616,-256.342"/>
<polygon fill="midnightblue" stroke="midnightblue" points="457.13,-252.851 446.556,-253.523 455.241,-259.591 457.13,-252.851"/>
</g>
<!-- Node5 -->
<g id="node9" class="node"><title>Node5</title>
<a xlink:href="printable_8h.html" target="_top" xlink:title="base/printable.h">
<polygon fill="white" stroke="black" points="520,-58.5 520,-79.5 606,-79.5 606,-58.5 520,-58.5"/>
<text text-anchor="middle" x="563" y="-66.5" font-family="Helvetica,sans-Serif" font-size="10.00">base/printable.h</text>
</a>
</g>
<!-- Node3&#45;&gt;Node5 -->
<g id="edge50" class="edge"><title>Node3&#45;&gt;Node5</title>
<path fill="none" stroke="midnightblue" d="M649.832,-290.365C703.896,-271.472 800.446,-228.832 767,-174 734.398,-120.553 664.933,-93.1552 616.158,-79.9671"/>
<polygon fill="midnightblue" stroke="midnightblue" points="616.949,-76.5564 606.391,-77.4398 615.195,-83.3332 616.949,-76.5564"/>
</g>
<!-- Node6 -->
<g id="node11" class="node"><title>Node6</title>
<polygon fill="white" stroke="#bfbfbf" points="300,-0.5 300,-21.5 344,-21.5 344,-0.5 300,-0.5"/>
<text text-anchor="middle" x="322" y="-8.5" font-family="Helvetica,sans-Serif" font-size="10.00">vector</text>
</g>
<!-- Node3&#45;&gt;Node6 -->
<g id="edge78" class="edge"><title>Node3&#45;&gt;Node6</title>
<path fill="none" stroke="midnightblue" d="M556.443,-299.686C423.468,-295.138 114,-274.897 114,-185 114,-185 114,-185 114,-127 114,-47.5941 231.057,-22.0443 289.543,-14.2343"/>
<polygon fill="midnightblue" stroke="midnightblue" points="290.245,-17.6742 299.74,-12.9735 289.386,-10.7271 290.245,-17.6742"/>
</g>
<!-- Node8 -->
<g id="node15" class="node"><title>Node8</title>
<a xlink:href="types_8h.html" target="_top" xlink:title="base/types.h">
<polygon fill="white" stroke="black" points="465.5,-174.5 465.5,-195.5 538.5,-195.5 538.5,-174.5 465.5,-174.5"/>
<text text-anchor="middle" x="502" y="-182.5" font-family="Helvetica,sans-Serif" font-size="10.00">base/types.h</text>
</a>
</g>
<!-- Node3&#45;&gt;Node8 -->
<g id="edge52" class="edge"><title>Node3&#45;&gt;Node8</title>
<path fill="none" stroke="midnightblue" d="M598.563,-290.332C585.008,-281.556 566.186,-268.277 552,-254 536.945,-238.849 522.969,-218.842 513.642,-204.274"/>
<polygon fill="midnightblue" stroke="midnightblue" points="516.486,-202.22 508.22,-195.593 510.549,-205.928 516.486,-202.22"/>
</g>
<!-- Node16 -->
<g id="node34" class="node"><title>Node16</title>
<polygon fill="white" stroke="#bfbfbf" points="551.5,-116.5 551.5,-137.5 580.5,-137.5 580.5,-116.5 551.5,-116.5"/>
<text text-anchor="middle" x="566" y="-124.5" font-family="Helvetica,sans-Serif" font-size="10.00">list</text>
</g>
<!-- Node3&#45;&gt;Node16 -->
<g id="edge80" class="edge"><title>Node3&#45;&gt;Node16</title>
<path fill="none" stroke="midnightblue" d="M612.766,-290.287C607.055,-271.313 594.855,-230.545 585,-196 580.374,-179.784 575.313,-161.369 571.578,-147.644"/>
<polygon fill="midnightblue" stroke="midnightblue" points="574.897,-146.509 568.901,-137.774 568.141,-148.341 574.897,-146.509"/>
</g>
<!-- Node18 -->
<g id="node41" class="node"><title>Node18</title>
<polygon fill="white" stroke="#bfbfbf" points="594,-174.5 594,-195.5 646,-195.5 646,-174.5 594,-174.5"/>
<text text-anchor="middle" x="620" y="-182.5" font-family="Helvetica,sans-Serif" font-size="10.00">memory</text>
</g>
<!-- Node3&#45;&gt;Node18 -->
<g id="edge84" class="edge"><title>Node3&#45;&gt;Node18</title>
<path fill="none" stroke="midnightblue" d="M616.369,-290.295C617.03,-271.131 618.426,-230.654 619.281,-205.843"/>
<polygon fill="midnightblue" stroke="midnightblue" points="622.785,-205.794 619.632,-195.679 615.789,-205.553 622.785,-205.794"/>
</g>
<!-- Node19 -->
<g id="node46" class="node"><title>Node19</title>
<a xlink:href="_particle_type_8h.html" target="_top" xlink:title="base/ParticleType.h">
<polygon fill="white" stroke="black" points="774,-232.5 774,-253.5 878,-253.5 878,-232.5 774,-232.5"/>
<text text-anchor="middle" x="826" y="-240.5" font-family="Helvetica,sans-Serif" font-size="10.00">base/ParticleType.h</text>
</a>
</g>
<!-- Node3&#45;&gt;Node19 -->
<g id="edge54" class="edge"><title>Node3&#45;&gt;Node19</title>
<path fill="none" stroke="midnightblue" d="M654.029,-290.497C688.858,-280.877 740.559,-266.598 778.174,-256.209"/>
<polygon fill="midnightblue" stroke="midnightblue" points="779.192,-259.559 787.899,-253.523 777.328,-252.812 779.192,-259.559"/>
</g>
<!-- Node22 -->
<g id="node56" class="node"><title>Node22</title>
<a xlink:href="_tree_8h.html" target="_top" xlink:title="base/Tree.h">
<polygon fill="white" stroke="black" points="644,-232.5 644,-253.5 712,-253.5 712,-232.5 644,-232.5"/>
<text text-anchor="middle" x="678" y="-240.5" font-family="Helvetica,sans-Serif" font-size="10.00">base/Tree.h</text>
</a>
</g>
<!-- Node3&#45;&gt;Node22 -->
<g id="edge68" class="edge"><title>Node3&#45;&gt;Node22</title>
<path fill="none" stroke="midnightblue" d="M627.372,-290.362C636.286,-282.023 648.879,-270.242 659.276,-260.516"/>
<polygon fill="midnightblue" stroke="midnightblue" points="661.789,-262.958 666.7,-253.571 657.007,-257.846 661.789,-262.958"/>
</g>
<!-- Node3&#45;&gt;Node24 -->
<g id="edge76" class="edge"><title>Node3&#45;&gt;Node24</title>
<path fill="none" stroke="midnightblue" d="M675.554,-291.123C728.26,-282.279 807.531,-268.728 885.772,-254.198"/>
<polygon fill="midnightblue" stroke="midnightblue" points="886.614,-257.602 895.803,-252.329 885.331,-250.72 886.614,-257.602"/>
</g>
<!-- Node25 -->
<g id="node66" class="node"><title>Node25</title>
<polygon fill="white" stroke="#bfbfbf" points="272,-232.5 272,-253.5 326,-253.5 326,-232.5 272,-232.5"/>
<text text-anchor="middle" x="299" y="-240.5" font-family="Helvetica,sans-Serif" font-size="10.00">iostream</text>
</g>
<!-- Node3&#45;&gt;Node25 -->
<g id="edge82" class="edge"><title>Node3&#45;&gt;Node25</title>
<path fill="none" stroke="midnightblue" d="M556.345,-293.331C501.387,-285.745 417.462,-272.847 335.95,-254"/>
<polygon fill="midnightblue" stroke="midnightblue" points="336.558,-250.548 326.023,-251.672 334.96,-257.363 336.558,-250.548"/>
</g>
<!-- Node4&#45;&gt;Node5 -->
<g id="edge8" class="edge"><title>Node4&#45;&gt;Node5</title>
<path fill="none" stroke="midnightblue" d="M409.074,-232.322C409.645,-217.974 412.376,-192.177 424,-174 427.837,-168 501.307,-113.965 539.842,-85.8443"/>
<polygon fill="midnightblue" stroke="midnightblue" points="542.363,-88.3378 548.383,-79.619 538.24,-82.681 542.363,-88.3378"/>
</g>
<!-- Node4&#45;&gt;Node6 -->
<g id="edge48" class="edge"><title>Node4&#45;&gt;Node6</title>
<path fill="none" stroke="midnightblue" d="M344.409,-232.455C285.354,-222.233 205.61,-206.74 195,-196 151.249,-151.713 134.096,-108.137 171,-58 185.156,-38.7678 249.796,-23.971 289.775,-16.462"/>
<polygon fill="midnightblue" stroke="midnightblue" points="290.638,-19.8624 299.848,-14.6256 289.382,-12.9759 290.638,-19.8624"/>
</g>
<!-- Node7 -->
<g id="node13" class="node"><title>Node7</title>
<polygon fill="white" stroke="#bfbfbf" points="646,-0.5 646,-21.5 698,-21.5 698,-0.5 646,-0.5"/>
<text text-anchor="middle" x="672" y="-8.5" font-family="Helvetica,sans-Serif" font-size="10.00">ostream</text>
</g>
<!-- Node4&#45;&gt;Node7 -->
<g id="edge44" class="edge"><title>Node4&#45;&gt;Node7</title>
<path fill="none" stroke="midnightblue" d="M414.774,-232.278C422.88,-217.881 438.709,-192.029 457,-174 489.834,-141.637 503.188,-139.247 543,-116 573.896,-97.9598 587.002,-102.273 615,-80 632.924,-65.7411 649.105,-45.0258 659.608,-30.017"/>
<polygon fill="midnightblue" stroke="midnightblue" points="662.656,-31.7574 665.378,-21.518 656.865,-27.8254 662.656,-31.7574"/>
</g>
<!-- Node4&#45;&gt;Node8 -->
<g id="edge14" class="edge"><title>Node4&#45;&gt;Node8</title>
<path fill="none" stroke="midnightblue" d="M426.058,-232.362C440.085,-223.614 460.184,-211.079 476.182,-201.101"/>
<polygon fill="midnightblue" stroke="midnightblue" points="478.418,-203.832 485.051,-195.571 474.713,-197.893 478.418,-203.832"/>
</g>
<!-- Node9 -->
<g id="node17" class="node"><title>Node9</title>
<a xlink:href="_detector__t_8h.html" target="_top" xlink:title="base/Detector_t.h">
<polygon fill="white" stroke="black" points="363.5,-116.5 363.5,-137.5 458.5,-137.5 458.5,-116.5 363.5,-116.5"/>
<text text-anchor="middle" x="411" y="-124.5" font-family="Helvetica,sans-Serif" font-size="10.00">base/Detector_t.h</text>
</a>
</g>
<!-- Node4&#45;&gt;Node9 -->
<g id="edge16" class="edge"><title>Node4&#45;&gt;Node9</title>
<path fill="none" stroke="midnightblue" d="M401.498,-232.395C392.933,-218.977 380.744,-195.073 386,-174 388.411,-164.332 393.226,-154.471 397.991,-146.295"/>
<polygon fill="midnightblue" stroke="midnightblue" points="401.102,-147.921 403.417,-137.582 395.159,-144.221 401.102,-147.921"/>
</g>
<!-- Node10 -->
<g id="node20" class="node"><title>Node10</title>
<polygon fill="white" stroke="#bfbfbf" points="179.5,-58.5 179.5,-79.5 244.5,-79.5 244.5,-58.5 179.5,-58.5"/>
<text text-anchor="middle" x="212" y="-66.5" font-family="Helvetica,sans-Serif" font-size="10.00">TVector3.h</text>
</g>
<!-- Node4&#45;&gt;Node10 -->
<g id="edge42" class="edge"><title>Node4&#45;&gt;Node10</title>
<path fill="none" stroke="midnightblue" d="M347.359,-232.465C291.882,-222.358 217.749,-207.043 209,-196 184.819,-165.477 195.42,-116.646 204.328,-89.2797"/>
<polygon fill="midnightblue" stroke="midnightblue" points="207.712,-90.2042 207.7,-79.6094 201.102,-87.8992 207.712,-90.2042"/>
</g>
<!-- Node15 -->
<g id="node31" class="node"><title>Node15</title>
<a xlink:href="_cluster_8h.html" target="_top" xlink:title="analysis/data/Cluster.h">
<polygon fill="white" stroke="black" points="217.5,-174.5 217.5,-195.5 334.5,-195.5 334.5,-174.5 217.5,-174.5"/>
<text text-anchor="middle" x="276" y="-182.5" font-family="Helvetica,sans-Serif" font-size="10.00">analysis/data/Cluster.h</text>
</a>
</g>
<!-- Node4&#45;&gt;Node15 -->
<g id="edge32" class="edge"><title>Node4&#45;&gt;Node15</title>
<path fill="none" stroke="midnightblue" d="M384.915,-232.497C363.861,-223.315 333.073,-209.889 309.598,-199.652"/>
<polygon fill="midnightblue" stroke="midnightblue" points="310.921,-196.41 300.356,-195.621 308.123,-202.827 310.921,-196.41"/>
</g>
<!-- Node4&#45;&gt;Node18 -->
<g id="edge46" class="edge"><title>Node4&#45;&gt;Node18</title>
<path fill="none" stroke="midnightblue" d="M447.211,-232.497C486.129,-221.799 546.016,-205.337 584.085,-194.872"/>
<polygon fill="midnightblue" stroke="midnightblue" points="585.023,-198.245 593.737,-192.219 583.167,-191.495 585.023,-198.245"/>
</g>
<!-- Node5&#45;&gt;Node6 -->
<g id="edge10" class="edge"><title>Node5&#45;&gt;Node6</title>
<path fill="none" stroke="midnightblue" d="M519.914,-58.6308C472.259,-47.162 396.592,-28.9516 353.949,-18.6889"/>
<polygon fill="midnightblue" stroke="midnightblue" points="354.649,-15.2577 344.108,-16.3206 353.012,-22.0634 354.649,-15.2577"/>
</g>
<!-- Node5&#45;&gt;Node7 -->
<g id="edge12" class="edge"><title>Node5&#45;&gt;Node7</title>
<path fill="none" stroke="midnightblue" d="M582.739,-58.4966C599.61,-49.5194 624.109,-36.4835 643.174,-26.3387"/>
<polygon fill="midnightblue" stroke="midnightblue" points="644.856,-29.4086 652.039,-21.6212 641.567,-23.2289 644.856,-29.4086"/>
</g>
<!-- Node9&#45;&gt;Node5 -->
<g id="edge18" class="edge"><title>Node9&#45;&gt;Node5</title>
<path fill="none" stroke="midnightblue" d="M438.526,-116.497C462.984,-107.164 498.938,-93.4447 525.924,-83.1475"/>
<polygon fill="midnightblue" stroke="midnightblue" points="527.327,-86.3582 535.422,-79.5231 524.832,-79.8182 527.327,-86.3582"/>
</g>
<!-- Node9&#45;&gt;Node6 -->
<g id="edge30" class="edge"><title>Node9&#45;&gt;Node6</title>
<path fill="none" stroke="midnightblue" d="M432.784,-116.336C456.563,-103.242 489.229,-80.049 473,-58 458.844,-38.7678 394.204,-23.971 354.225,-16.462"/>
<polygon fill="midnightblue" stroke="midnightblue" points="354.618,-12.9759 344.152,-14.6256 353.362,-19.8624 354.618,-12.9759"/>
</g>
<!-- Node9&#45;&gt;Node10 -->
<g id="edge20" class="edge"><title>Node9&#45;&gt;Node10</title>
<path fill="none" stroke="midnightblue" d="M374.963,-116.497C341.075,-106.62 290.332,-91.8304 254.487,-81.3833"/>
<polygon fill="midnightblue" stroke="midnightblue" points="255.379,-77.9975 244.799,-78.5595 253.42,-84.7179 255.379,-77.9975"/>
</g>
<!-- Node11 -->
<g id="node22" class="node"><title>Node11</title>
<polygon fill="white" stroke="#bfbfbf" points="418,-58.5 418,-79.5 464,-79.5 464,-58.5 418,-58.5"/>
<text text-anchor="middle" x="441" y="-66.5" font-family="Helvetica,sans-Serif" font-size="10.00">cstdint</text>
</g>
<!-- Node9&#45;&gt;Node11 -->
<g id="edge22" class="edge"><title>Node9&#45;&gt;Node11</title>
<path fill="none" stroke="midnightblue" d="M416.502,-116.362C420.52,-108.595 426.081,-97.8426 430.89,-88.5458"/>
<polygon fill="midnightblue" stroke="midnightblue" points="434.047,-90.0608 435.532,-79.5707 427.829,-86.8448 434.047,-90.0608"/>
</g>
<!-- Node12 -->
<g id="node24" class="node"><title>Node12</title>
<polygon fill="white" stroke="#bfbfbf" points="261.5,-58.5 261.5,-79.5 320.5,-79.5 320.5,-58.5 261.5,-58.5"/>
<text text-anchor="middle" x="291" y="-66.5" font-family="Helvetica,sans-Serif" font-size="10.00">stdexcept</text>
</g>
<!-- Node9&#45;&gt;Node12 -->
<g id="edge24" class="edge"><title>Node9&#45;&gt;Node12</title>
<path fill="none" stroke="midnightblue" d="M389.269,-116.497C370.526,-107.438 343.233,-94.2462 322.164,-84.0628"/>
<polygon fill="midnightblue" stroke="midnightblue" points="323.502,-80.8217 312.975,-79.6212 320.455,-87.1242 323.502,-80.8217"/>
</g>
<!-- Node9&#45;&gt;Node13 -->
<g id="edge26" class="edge"><title>Node9&#45;&gt;Node13</title>
<path fill="none" stroke="midnightblue" d="M458.627,-122.005C569.385,-110.388 841.794,-81.8172 933.388,-72.2106"/>
<polygon fill="midnightblue" stroke="midnightblue" points="933.816,-75.6851 943.396,-71.161 933.086,-68.7233 933.816,-75.6851"/>
</g>
<!-- Node14 -->
<g id="node28" class="node"><title>Node14</title>
<polygon fill="white" stroke="#bfbfbf" points="338,-58.5 338,-79.5 400,-79.5 400,-58.5 338,-58.5"/>
<text text-anchor="middle" x="369" y="-66.5" font-family="Helvetica,sans-Serif" font-size="10.00">type_traits</text>
</g>
<!-- Node9&#45;&gt;Node14 -->
<g id="edge28" class="edge"><title>Node9&#45;&gt;Node14</title>
<path fill="none" stroke="midnightblue" d="M403.297,-116.362C397.554,-108.431 389.557,-97.3885 382.73,-87.9606"/>
<polygon fill="midnightblue" stroke="midnightblue" points="385.355,-85.6173 376.655,-79.5707 379.685,-89.7229 385.355,-85.6173"/>
</g>
<!-- Node15&#45;&gt;Node9 -->
<g id="edge34" class="edge"><title>Node15&#45;&gt;Node9</title>
<path fill="none" stroke="midnightblue" d="M300.447,-174.497C321.818,-165.315 353.069,-151.889 376.897,-141.652"/>
<polygon fill="midnightblue" stroke="midnightblue" points="378.472,-144.784 386.278,-137.621 375.709,-138.353 378.472,-144.784"/>
</g>
<!-- Node15&#45;&gt;Node10 -->
<g id="edge38" class="edge"><title>Node15&#45;&gt;Node10</title>
<path fill="none" stroke="midnightblue" d="M290.269,-174.324C306.777,-160.629 330.109,-136.23 317,-116 309.584,-104.556 280.204,-91.9479 254.402,-82.6737"/>
<polygon fill="midnightblue" stroke="midnightblue" points="255.336,-79.2925 244.741,-79.2918 253.023,-85.8994 255.336,-79.2925"/>
</g>
<!-- Node15&#45;&gt;Node16 -->
<g id="edge36" class="edge"><title>Node15&#45;&gt;Node16</title>
<path fill="none" stroke="midnightblue" d="M328.517,-174.497C391.511,-161.898 494.473,-141.305 541.356,-131.929"/>
<polygon fill="midnightblue" stroke="midnightblue" points="542.126,-135.344 551.245,-129.951 540.753,-128.48 542.126,-135.344"/>
</g>
<!-- Node17 -->
<g id="node37" class="node"><title>Node17</title>
<a xlink:href="enumfield_8h.html" target="_top" xlink:title="base/enumfield.h">
<polygon fill="white" stroke="black" points="217.5,-116.5 217.5,-137.5 308.5,-137.5 308.5,-116.5 217.5,-116.5"/>
<text text-anchor="middle" x="263" y="-124.5" font-family="Helvetica,sans-Serif" font-size="10.00">base/enumfield.h</text>
</a>
</g>
<!-- Node15&#45;&gt;Node17 -->
<g id="edge40" class="edge"><title>Node15&#45;&gt;Node17</title>
<path fill="none" stroke="midnightblue" d="M273.616,-174.362C271.93,-166.84 269.616,-156.519 267.579,-147.431"/>
<polygon fill="midnightblue" stroke="midnightblue" points="270.972,-146.563 265.369,-137.571 264.141,-148.094 270.972,-146.563"/>
</g>
<!-- Node19&#45;&gt;Node6 -->
<g id="edge66" class="edge"><title>Node19&#45;&gt;Node6</title>
<path fill="none" stroke="midnightblue" d="M820.935,-232.167C809.095,-207.961 777.298,-149.019 734,-116 687.215,-80.3218 671.098,-75.7402 615,-58 523.129,-28.9472 409.106,-17.2589 354.336,-13.0698"/>
<polygon fill="midnightblue" stroke="midnightblue" points="354.425,-9.56705 344.196,-12.329 353.915,-16.5484 354.425,-9.56705"/>
</g>
<!-- Node19&#45;&gt;Node7 -->
<g id="edge60" class="edge"><title>Node19&#45;&gt;Node7</title>
<path fill="none" stroke="midnightblue" d="M830.826,-232.312C840.407,-209.377 859.154,-154.411 838,-116 810.399,-65.8829 747.673,-36.3568 707.719,-21.9587"/>
<polygon fill="midnightblue" stroke="midnightblue" points="708.682,-18.5882 698.088,-18.6207 706.39,-25.2023 708.682,-18.5882"/>
</g>
<!-- Node19&#45;&gt;Node8 -->
<g id="edge56" class="edge"><title>Node19&#45;&gt;Node8</title>
<path fill="none" stroke="midnightblue" d="M773.944,-233.681C711.715,-222.542 608.507,-204.066 548.734,-193.366"/>
<polygon fill="midnightblue" stroke="midnightblue" points="549.272,-189.907 538.812,-191.59 548.039,-196.797 549.272,-189.907"/>
</g>
<!-- Node19&#45;&gt;Node13 -->
<g id="edge58" class="edge"><title>Node19&#45;&gt;Node13</title>
<path fill="none" stroke="midnightblue" d="M864.065,-232.484C894.776,-223.214 934.53,-209.172 945,-196 969.384,-165.321 969.24,-116.895 966.755,-89.5585"/>
<polygon fill="midnightblue" stroke="midnightblue" points="970.228,-89.118 965.653,-79.5619 963.27,-89.8852 970.228,-89.118"/>
</g>
<!-- Node20 -->
<g id="node51" class="node"><title>Node20</title>
<polygon fill="white" stroke="#bfbfbf" points="991.5,-174.5 991.5,-195.5 1026.5,-195.5 1026.5,-174.5 991.5,-174.5"/>
<text text-anchor="middle" x="1009" y="-182.5" font-family="Helvetica,sans-Serif" font-size="10.00">map</text>
</g>
<!-- Node19&#45;&gt;Node20 -->
<g id="edge62" class="edge"><title>Node19&#45;&gt;Node20</title>
<path fill="none" stroke="midnightblue" d="M861.451,-232.488C892.341,-223.221 938.283,-209.181 978,-196 979.22,-195.595 980.464,-195.177 981.72,-194.75"/>
<polygon fill="midnightblue" stroke="midnightblue" points="983.041,-197.996 991.338,-191.408 980.743,-191.384 983.041,-197.996"/>
</g>
<!-- Node21 -->
<g id="node53" class="node"><title>Node21</title>
<polygon fill="white" stroke="#bfbfbf" points="889.5,-174.5 889.5,-195.5 936.5,-195.5 936.5,-174.5 889.5,-174.5"/>
<text text-anchor="middle" x="913" y="-182.5" font-family="Helvetica,sans-Serif" font-size="10.00">iterator</text>
</g>
<!-- Node19&#45;&gt;Node21 -->
<g id="edge64" class="edge"><title>Node19&#45;&gt;Node21</title>
<path fill="none" stroke="midnightblue" d="M841.957,-232.362C854.957,-223.696 873.531,-211.313 888.427,-201.382"/>
<polygon fill="midnightblue" stroke="midnightblue" points="890.765,-204.03 897.144,-195.571 886.882,-198.206 890.765,-204.03"/>
</g>
<!-- Node22&#45;&gt;Node16 -->
<g id="edge72" class="edge"><title>Node22&#45;&gt;Node16</title>
<path fill="none" stroke="midnightblue" d="M676.944,-232.461C674.978,-217.805 669.537,-191.142 655,-174 638.062,-154.026 610.452,-141.331 590.471,-134.237"/>
<polygon fill="midnightblue" stroke="midnightblue" points="591.408,-130.86 580.815,-131.029 589.202,-137.503 591.408,-130.86"/>
</g>
<!-- Node22&#45;&gt;Node18 -->
<g id="edge70" class="edge"><title>Node22&#45;&gt;Node18</title>
<path fill="none" stroke="midnightblue" d="M667.362,-232.362C659.104,-224.104 647.472,-212.472 637.803,-202.803"/>
<polygon fill="midnightblue" stroke="midnightblue" points="640.117,-200.167 630.571,-195.571 635.167,-205.117 640.117,-200.167"/>
</g>
<!-- Node23 -->
<g id="node60" class="node"><title>Node23</title>
<polygon fill="white" stroke="#bfbfbf" points="702,-174.5 702,-195.5 758,-195.5 758,-174.5 702,-174.5"/>
<text text-anchor="middle" x="730" y="-182.5" font-family="Helvetica,sans-Serif" font-size="10.00">algorithm</text>
</g>
<!-- Node22&#45;&gt;Node23 -->
<g id="edge74" class="edge"><title>Node22&#45;&gt;Node23</title>
<path fill="none" stroke="midnightblue" d="M687.538,-232.362C694.868,-224.186 705.163,-212.702 713.781,-203.091"/>
<polygon fill="midnightblue" stroke="midnightblue" points="716.453,-205.353 720.523,-195.571 711.241,-200.68 716.453,-205.353"/>
</g>
<!-- Node26&#45;&gt;Node19 -->
<g id="edge88" class="edge"><title>Node26&#45;&gt;Node19</title>
<path fill="none" stroke="midnightblue" d="M836.616,-290.362C834.93,-282.84 832.616,-272.519 830.579,-263.431"/>
<polygon fill="midnightblue" stroke="midnightblue" points="833.972,-262.563 828.369,-253.571 827.141,-264.094 833.972,-262.563"/>
</g>
<!-- Node26&#45;&gt;Node20 -->
<g id="edge92" class="edge"><title>Node26&#45;&gt;Node20</title>
<path fill="none" stroke="midnightblue" d="M896.642,-290.461C936.028,-282.073 983.449,-269.236 997,-254 1008.53,-241.04 1010.93,-221.101 1010.81,-205.983"/>
<polygon fill="midnightblue" stroke="midnightblue" points="1014.28,-205.385 1010.32,-195.558 1007.29,-205.709 1014.28,-205.385"/>
</g>
<!-- Node26&#45;&gt;Node22 -->
<g id="edge90" class="edge"><title>Node26&#45;&gt;Node22</title>
<path fill="none" stroke="midnightblue" d="M809.844,-290.497C783.824,-281.123 745.521,-267.324 716.896,-257.012"/>
<polygon fill="midnightblue" stroke="midnightblue" points="717.805,-253.62 707.211,-253.523 715.432,-260.205 717.805,-253.62"/>
</g>
<!-- Node27&#45;&gt;Node6 -->
<g id="edge100" class="edge"><title>Node27&#45;&gt;Node6</title>
<path fill="none" stroke="midnightblue" d="M48.616,-116.454C57.4103,-101.028 75.9432,-72.5676 100,-58 131.672,-38.8212 236.52,-22.4676 290.009,-15.1302"/>
<polygon fill="midnightblue" stroke="midnightblue" points="290.543,-18.59 299.985,-13.7847 289.607,-11.6528 290.543,-18.59"/>
</g>
<!-- Node29 -->
<g id="node81" class="node"><title>Node29</title>
<polygon fill="white" stroke="#bfbfbf" points="1081.5,-290.5 1081.5,-311.5 1196.5,-311.5 1196.5,-290.5 1081.5,-290.5"/>
<text text-anchor="middle" x="1139" y="-298.5" font-family="Helvetica,sans-Serif" font-size="10.00">detail/easylogging++.h</text>
</g>
<!-- Node28&#45;&gt;Node29 -->
<g id="edge104" class="edge"><title>Node28&#45;&gt;Node29</title>
<path fill="none" stroke="midnightblue" d="M1123.48,-348.362C1125.98,-340.758 1129.4,-330.294 1132.4,-321.135"/>
<polygon fill="midnightblue" stroke="midnightblue" points="1135.75,-322.163 1135.54,-311.571 1129.1,-319.984 1135.75,-322.163"/>
</g>
<!-- Node31 -->
<g id="node85" class="node"><title>Node31</title>
<polygon fill="white" stroke="#bfbfbf" points="1214,-290.5 1214,-311.5 1258,-311.5 1258,-290.5 1214,-290.5"/>
<text text-anchor="middle" x="1236" y="-298.5" font-family="Helvetica,sans-Serif" font-size="10.00">cmath</text>
</g>
<!-- Node30&#45;&gt;Node31 -->
<g id="edge108" class="edge"><title>Node30&#45;&gt;Node31</title>
<path fill="none" stroke="midnightblue" d="M1231.1,-348.362C1231.87,-340.922 1232.92,-330.743 1233.86,-321.728"/>
<polygon fill="midnightblue" stroke="midnightblue" points="1237.36,-321.878 1234.91,-311.571 1230.4,-321.157 1237.36,-321.878"/>
</g>
<!-- Node30&#45;&gt;Node32 -->
<g id="edge110" class="edge"><title>Node30&#45;&gt;Node32</title>
<path fill="none" stroke="midnightblue" d="M1243.02,-348.362C1253.43,-339.859 1268.22,-327.779 1280.26,-317.947"/>
<polygon fill="midnightblue" stroke="midnightblue" points="1282.53,-320.608 1288.06,-311.571 1278.1,-315.187 1282.53,-320.608"/>
</g>
</g>
</svg>
