<?xml version="1.0" encoding="UTF-8" standalone="no"?>
<!DOCTYPE svg PUBLIC "-//W3C//DTD SVG 1.1//EN"
 "http://www.w3.org/Graphics/SVG/1.1/DTD/svg11.dtd">
<!-- Generated by graphviz version 2.26.3 (20100126.1600)
 -->
<!-- Title: src/analysis/plot/root_draw.cc Pages: 1 -->
<svg width="1156pt" height="160pt"
 viewBox="0.00 0.00 1156.00 160.00" xmlns="http://www.w3.org/2000/svg" xmlns:xlink="http://www.w3.org/1999/xlink">
<g id="graph1" class="graph" transform="scale(1 1) rotate(0) translate(4 156)">
<title>src/analysis/plot/root_draw.cc</title>
<polygon fill="white" stroke="white" points="-4,5 -4,-156 1153,-156 1153,5 -4,5"/>
<!-- Node1 -->
<g id="node1" class="node"><title>Node1</title>
<polygon fill="#bfbfbf" stroke="black" points="565.5,-117 565.5,-151 672.5,-151 672.5,-117 565.5,-117"/>
<text text-anchor="start" x="573.5" y="-138" font-family="Helvetica,sans-Serif" font-size="10.00">src/analysis/plot/root</text>
<text text-anchor="middle" x="619" y="-125" font-family="Helvetica,sans-Serif" font-size="10.00">_draw.cc</text>
</g>
<!-- Node2 -->
<g id="node3" class="node"><title>Node2</title>
<a xlink:href="root__draw_8h.html" target="_top" xlink:title="plot/root_draw.h">
<polygon fill="white" stroke="black" points="152,-58.5 152,-79.5 238,-79.5 238,-58.5 152,-58.5"/>
<text text-anchor="middle" x="195" y="-66.5" font-family="Helvetica,sans-Serif" font-size="10.00">plot/root_draw.h</text>
</a>
</g>
<!-- Node1&#45;&gt;Node2 -->
<g id="edge2" class="edge"><title>Node1&#45;&gt;Node2</title>
<path fill="none" stroke="midnightblue" d="M565.231,-127.299C494.726,-118.266 366.984,-101.062 248.093,-80.1133"/>
<polygon fill="midnightblue" stroke="midnightblue" points="248.546,-76.6392 238.089,-78.3378 247.323,-83.5314 248.546,-76.6392"/>
</g>
<!-- Node10 -->
<g id="node19" class="node"><title>Node10</title>
<polygon fill="white" stroke="#bfbfbf" points="255.5,-58.5 255.5,-79.5 306.5,-79.5 306.5,-58.5 255.5,-58.5"/>
<text text-anchor="middle" x="281" y="-66.5" font-family="Helvetica,sans-Serif" font-size="10.00">TH1D.h</text>
</g>
<!-- Node1&#45;&gt;Node10 -->
<g id="edge18" class="edge"><title>Node1&#45;&gt;Node10</title>
<path fill="none" stroke="midnightblue" d="M565.264,-126.732C506.235,-118.24 408.561,-102.701 316.286,-80.0949"/>
<polygon fill="midnightblue" stroke="midnightblue" points="317.06,-76.681 306.511,-77.6684 315.373,-83.4748 317.06,-76.681"/>
</g>
<!-- Node11 -->
<g id="node21" class="node"><title>Node11</title>
<polygon fill="white" stroke="#bfbfbf" points="323.5,-58.5 323.5,-79.5 374.5,-79.5 374.5,-58.5 323.5,-58.5"/>
<text text-anchor="middle" x="349" y="-66.5" font-family="Helvetica,sans-Serif" font-size="10.00">TH2D.h</text>
</g>
<!-- Node1&#45;&gt;Node11 -->
<g id="edge20" class="edge"><title>Node1&#45;&gt;Node11</title>
<path fill="none" stroke="midnightblue" d="M565.239,-123.107C519.438,-113.509 451.711,-98.5685 384.463,-80.2573"/>
<polygon fill="midnightblue" stroke="midnightblue" points="385.117,-76.8074 374.547,-77.5315 383.262,-83.557 385.117,-76.8074"/>
</g>
<!-- Node12 -->
<g id="node23" class="node"><title>Node12</title>
<polygon fill="white" stroke="#bfbfbf" points="391.5,-58.5 391.5,-79.5 450.5,-79.5 450.5,-58.5 391.5,-58.5"/>
<text text-anchor="middle" x="421" y="-66.5" font-family="Helvetica,sans-Serif" font-size="10.00">TObject.h</text>
</g>
<!-- Node1&#45;&gt;Node12 -->
<g id="edge22" class="edge"><title>Node1&#45;&gt;Node12</title>
<path fill="none" stroke="midnightblue" d="M566.978,-116.922C533.625,-105.973 491.011,-91.9834 460.448,-81.9501"/>
<polygon fill="midnightblue" stroke="midnightblue" points="461.169,-78.5029 450.576,-78.7092 458.985,-85.1537 461.169,-78.5029"/>
</g>
<!-- Node13 -->
<g id="node25" class="node"><title>Node13</title>
<polygon fill="white" stroke="#bfbfbf" points="468,-58.5 468,-79.5 530,-79.5 530,-58.5 468,-58.5"/>
<text text-anchor="middle" x="499" y="-66.5" font-family="Helvetica,sans-Serif" font-size="10.00">TNamed.h</text>
</g>
<!-- Node1&#45;&gt;Node13 -->
<g id="edge24" class="edge"><title>Node1&#45;&gt;Node13</title>
<path fill="none" stroke="midnightblue" d="M587.471,-116.922C568.903,-106.864 545.6,-94.2415 527.571,-84.476"/>
<polygon fill="midnightblue" stroke="midnightblue" points="529.137,-81.3437 518.677,-79.6584 525.803,-87.4988 529.137,-81.3437"/>
</g>
<!-- Node14 -->
<g id="node27" class="node"><title>Node14</title>
<polygon fill="white" stroke="#bfbfbf" points="547.5,-58.5 547.5,-79.5 612.5,-79.5 612.5,-58.5 547.5,-58.5"/>
<text text-anchor="middle" x="580" y="-66.5" font-family="Helvetica,sans-Serif" font-size="10.00">TCanvas.h</text>
</g>
<!-- Node1&#45;&gt;Node14 -->
<g id="edge26" class="edge"><title>Node1&#45;&gt;Node14</title>
<path fill="none" stroke="midnightblue" d="M608.753,-116.922C603.527,-108.212 597.147,-97.5782 591.725,-88.5423"/>
<polygon fill="midnightblue" stroke="midnightblue" points="594.657,-86.6263 586.511,-79.8521 588.655,-90.2278 594.657,-86.6263"/>
</g>
<!-- Node15 -->
<g id="node29" class="node"><title>Node15</title>
<polygon fill="white" stroke="#bfbfbf" points="629.5,-58.5 629.5,-79.5 688.5,-79.5 688.5,-58.5 629.5,-58.5"/>
<text text-anchor="middle" x="659" y="-66.5" font-family="Helvetica,sans-Serif" font-size="10.00">TROOT.h</text>
</g>
<!-- Node1&#45;&gt;Node15 -->
<g id="edge28" class="edge"><title>Node1&#45;&gt;Node15</title>
<path fill="none" stroke="midnightblue" d="M629.51,-116.922C634.87,-108.212 641.413,-97.5782 646.974,-88.5423"/>
<polygon fill="midnightblue" stroke="midnightblue" points="650.062,-90.203 652.322,-79.8521 644.1,-86.5343 650.062,-90.203"/>
</g>
<!-- Node16 -->
<g id="node31" class="node"><title>Node16</title>
<polygon fill="white" stroke="#bfbfbf" points="706,-58.5 706,-79.5 760,-79.5 760,-58.5 706,-58.5"/>
<text text-anchor="middle" x="733" y="-66.5" font-family="Helvetica,sans-Serif" font-size="10.00">iostream</text>
</g>
<!-- Node1&#45;&gt;Node16 -->
<g id="edge30" class="edge"><title>Node1&#45;&gt;Node16</title>
<path fill="none" stroke="midnightblue" d="M648.952,-116.922C666.43,-106.957 688.324,-94.4729 705.385,-84.7455"/>
<polygon fill="midnightblue" stroke="midnightblue" points="707.353,-87.6521 714.307,-79.6584 703.886,-81.5711 707.353,-87.6521"/>
</g>
<!-- Node17 -->
<g id="node33" class="node"><title>Node17</title>
<polygon fill="white" stroke="#bfbfbf" points="778,-58.5 778,-79.5 830,-79.5 830,-58.5 778,-58.5"/>
<text text-anchor="middle" x="804" y="-66.5" font-family="Helvetica,sans-Serif" font-size="10.00">sstream</text>
</g>
<!-- Node1&#45;&gt;Node17 -->
<g id="edge32" class="edge"><title>Node1&#45;&gt;Node17</title>
<path fill="none" stroke="midnightblue" d="M667.607,-116.922C699.209,-105.819 739.709,-91.5886 768.342,-81.5283"/>
<polygon fill="midnightblue" stroke="midnightblue" points="769.667,-84.7728 777.941,-78.1557 767.347,-78.1685 769.667,-84.7728"/>
</g>
<!-- Node18 -->
<g id="node35" class="node"><title>Node18</title>
<polygon fill="white" stroke="#bfbfbf" points="848,-58.5 848,-79.5 898,-79.5 898,-58.5 848,-58.5"/>
<text text-anchor="middle" x="873" y="-66.5" font-family="Helvetica,sans-Serif" font-size="10.00">iomanip</text>
</g>
<!-- Node1&#45;&gt;Node18 -->
<g id="edge34" class="edge"><title>Node1&#45;&gt;Node18</title>
<path fill="none" stroke="midnightblue" d="M672.63,-121.978C715.081,-112.203 776.055,-97.591 837.883,-80.1896"/>
<polygon fill="midnightblue" stroke="midnightblue" points="839.146,-83.4696 847.811,-77.3732 837.235,-76.7354 839.146,-83.4696"/>
</g>
<!-- Node19 -->
<g id="node37" class="node"><title>Node19</title>
<polygon fill="white" stroke="#bfbfbf" points="916,-58.5 916,-79.5 980,-79.5 980,-58.5 916,-58.5"/>
<text text-anchor="middle" x="948" y="-66.5" font-family="Helvetica,sans-Serif" font-size="10.00">THStack.h</text>
</g>
<!-- Node1&#45;&gt;Node19 -->
<g id="edge36" class="edge"><title>Node1&#45;&gt;Node19</title>
<path fill="none" stroke="midnightblue" d="M672.598,-125.217C728.529,-115.769 818.947,-99.6966 906.049,-80.0999"/>
<polygon fill="midnightblue" stroke="midnightblue" points="906.851,-83.507 915.829,-77.8814 905.303,-76.6805 906.851,-83.507"/>
</g>
<!-- Node20 -->
<g id="node39" class="node"><title>Node20</title>
<polygon fill="white" stroke="#bfbfbf" points="998,-58.5 998,-79.5 1074,-79.5 1074,-58.5 998,-58.5"/>
<text text-anchor="middle" x="1036" y="-66.5" font-family="Helvetica,sans-Serif" font-size="10.00">TVirtualPad.h</text>
</g>
<!-- Node1&#45;&gt;Node20 -->
<g id="edge38" class="edge"><title>Node1&#45;&gt;Node20</title>
<path fill="none" stroke="midnightblue" d="M672.544,-127.636C742.74,-118.972 869.873,-102.178 987.907,-80.0926"/>
<polygon fill="midnightblue" stroke="midnightblue" points="988.661,-83.5121 997.838,-78.2176 987.362,-76.6336 988.661,-83.5121"/>
</g>
<!-- Node21 -->
<g id="node41" class="node"><title>Node21</title>
<polygon fill="white" stroke="#bfbfbf" points="1092,-58.5 1092,-79.5 1148,-79.5 1148,-58.5 1092,-58.5"/>
<text text-anchor="middle" x="1120" y="-66.5" font-family="Helvetica,sans-Serif" font-size="10.00">algorithm</text>
</g>
<!-- Node1&#45;&gt;Node21 -->
<g id="edge40" class="edge"><title>Node1&#45;&gt;Node21</title>
<path fill="none" stroke="midnightblue" d="M672.713,-130.779C757.772,-125.018 928.682,-110.752 1081.79,-79.9689"/>
<polygon fill="midnightblue" stroke="midnightblue" points="1082.75,-83.3454 1091.85,-77.9173 1081.35,-76.4866 1082.75,-83.3454"/>
</g>
<!-- Node22 -->
<g id="node43" class="node"><title>Node22</title>
<a xlink:href="memory_8h.html" target="_top" xlink:title="base/std_ext/memory.h">
<polygon fill="white" stroke="black" points="15.5,-58.5 15.5,-79.5 134.5,-79.5 134.5,-58.5 15.5,-58.5"/>
<text text-anchor="middle" x="75" y="-66.5" font-family="Helvetica,sans-Serif" font-size="10.00">base/std_ext/memory.h</text>
</a>
</g>
<!-- Node1&#45;&gt;Node22 -->
<g id="edge42" class="edge"><title>Node1&#45;&gt;Node22</title>
<path fill="none" stroke="midnightblue" d="M565.358,-128.752C478.919,-120.111 303.236,-101.791 144.62,-80.18"/>
<polygon fill="midnightblue" stroke="midnightblue" points="145.063,-76.708 134.68,-78.8183 144.112,-83.6433 145.063,-76.708"/>
</g>
<!-- Node3 -->
<g id="node5" class="node"><title>Node3</title>
<polygon fill="white" stroke="#bfbfbf" points="379.5,-0.5 379.5,-21.5 420.5,-21.5 420.5,-0.5 379.5,-0.5"/>
<text text-anchor="middle" x="400" y="-8.5" font-family="Helvetica,sans-Serif" font-size="10.00">string</text>
</g>
<!-- Node2&#45;&gt;Node3 -->
<g id="edge4" class="edge"><title>Node2&#45;&gt;Node3</title>
<path fill="none" stroke="midnightblue" d="M238.032,-58.8065C271.714,-50.5372 319.88,-38.0773 369.821,-22.1871"/>
<polygon fill="midnightblue" stroke="midnightblue" points="371.05,-25.4685 379.496,-19.0722 368.905,-18.8054 371.05,-25.4685"/>
</g>
<!-- Node4 -->
<g id="node7" class="node"><title>Node4</title>
<polygon fill="white" stroke="#bfbfbf" points="69.5,-0.5 69.5,-21.5 98.5,-21.5 98.5,-0.5 69.5,-0.5"/>
<text text-anchor="middle" x="84" y="-8.5" font-family="Helvetica,sans-Serif" font-size="10.00">list</text>
</g>
<!-- Node2&#45;&gt;Node4 -->
<g id="edge6" class="edge"><title>Node2&#45;&gt;Node4</title>
<path fill="none" stroke="midnightblue" d="M174.899,-58.4966C156,-48.6217 127.703,-33.8358 107.71,-23.3889"/>
<polygon fill="midnightblue" stroke="midnightblue" points="109.124,-20.1787 98.6397,-18.6496 105.882,-26.3828 109.124,-20.1787"/>
</g>
<!-- Node5 -->
<g id="node9" class="node"><title>Node5</title>
<polygon fill="white" stroke="#bfbfbf" points="116,-0.5 116,-21.5 160,-21.5 160,-0.5 116,-0.5"/>
<text text-anchor="middle" x="138" y="-8.5" font-family="Helvetica,sans-Serif" font-size="10.00">vector</text>
</g>
<!-- Node2&#45;&gt;Node5 -->
<g id="edge8" class="edge"><title>Node2&#45;&gt;Node5</title>
<path fill="none" stroke="midnightblue" d="M184.545,-58.3619C176.43,-50.1043 164.999,-38.4725 155.496,-28.8029"/>
<polygon fill="midnightblue" stroke="midnightblue" points="157.894,-26.2497 148.388,-21.5707 152.901,-31.1562 157.894,-26.2497"/>
</g>
<!-- Node6 -->
<g id="node11" class="node"><title>Node6</title>
<polygon fill="white" stroke="#bfbfbf" points="177.5,-0.5 177.5,-21.5 212.5,-21.5 212.5,-0.5 177.5,-0.5"/>
<text text-anchor="middle" x="195" y="-8.5" font-family="Helvetica,sans-Serif" font-size="10.00">map</text>
</g>
<!-- Node2&#45;&gt;Node6 -->
<g id="edge10" class="edge"><title>Node2&#45;&gt;Node6</title>
<path fill="none" stroke="midnightblue" d="M195,-58.3619C195,-50.9219 195,-40.7427 195,-31.7276"/>
<polygon fill="midnightblue" stroke="midnightblue" points="198.5,-31.5706 195,-21.5707 191.5,-31.5707 198.5,-31.5706"/>
</g>
<!-- Node7 -->
<g id="node13" class="node"><title>Node7</title>
<polygon fill="white" stroke="#bfbfbf" points="0,-0.5 0,-21.5 52,-21.5 52,-0.5 0,-0.5"/>
<text text-anchor="middle" x="26" y="-8.5" font-family="Helvetica,sans-Serif" font-size="10.00">memory</text>
</g>
<!-- Node2&#45;&gt;Node7 -->
<g id="edge12" class="edge"><title>Node2&#45;&gt;Node7</title>
<path fill="none" stroke="midnightblue" d="M164.395,-58.4966C135.596,-48.6127 92.4608,-33.809 62.0163,-23.3606"/>
<polygon fill="midnightblue" stroke="midnightblue" points="62.8118,-19.9333 52.2172,-19.9976 60.5395,-26.5543 62.8118,-19.9333"/>
</g>
<!-- Node8 -->
<g id="node15" class="node"><title>Node8</title>
<polygon fill="white" stroke="#bfbfbf" points="229.5,-0.5 229.5,-21.5 288.5,-21.5 288.5,-0.5 229.5,-0.5"/>
<text text-anchor="middle" x="259" y="-8.5" font-family="Helvetica,sans-Serif" font-size="10.00">functional</text>
</g>
<!-- Node2&#45;&gt;Node8 -->
<g id="edge14" class="edge"><title>Node2&#45;&gt;Node8</title>
<path fill="none" stroke="midnightblue" d="M206.739,-58.3619C215.941,-50.0226 228.94,-38.2418 239.672,-28.5162"/>
<polygon fill="midnightblue" stroke="midnightblue" points="242.276,-30.8793 247.336,-21.5707 237.576,-25.6924 242.276,-30.8793"/>
</g>
<!-- Node9 -->
<g id="node17" class="node"><title>Node9</title>
<polygon fill="white" stroke="#bfbfbf" points="306,-0.5 306,-21.5 362,-21.5 362,-0.5 306,-0.5"/>
<text text-anchor="middle" x="334" y="-8.5" font-family="Helvetica,sans-Serif" font-size="10.00">Rtypes.h</text>
</g>
<!-- Node2&#45;&gt;Node9 -->
<g id="edge16" class="edge"><title>Node2&#45;&gt;Node9</title>
<path fill="none" stroke="midnightblue" d="M220.172,-58.4966C242.273,-49.2746 274.639,-35.7695 299.213,-25.5153"/>
<polygon fill="midnightblue" stroke="midnightblue" points="300.665,-28.7022 308.546,-21.6212 297.969,-22.2421 300.665,-28.7022"/>
</g>
<!-- Node22&#45;&gt;Node4 -->
<g id="edge46" class="edge"><title>Node22&#45;&gt;Node4</title>
<path fill="none" stroke="midnightblue" d="M76.6507,-58.3619C77.8052,-50.9219 79.3847,-40.7427 80.7837,-31.7276"/>
<polygon fill="midnightblue" stroke="midnightblue" points="84.2849,-31.9891 82.3597,-21.5707 77.3677,-30.9157 84.2849,-31.9891"/>
</g>
<!-- Node22&#45;&gt;Node7 -->
<g id="edge44" class="edge"><title>Node22&#45;&gt;Node7</title>
<path fill="none" stroke="midnightblue" d="M66.0126,-58.3619C59.1745,-50.2678 49.5976,-38.9318 41.5276,-29.3796"/>
<polygon fill="midnightblue" stroke="midnightblue" points="44.0575,-26.9508 34.9304,-21.5707 38.7103,-31.4683 44.0575,-26.9508"/>
</g>
</g>
</svg>
