<?xml version="1.0" encoding="UTF-8" standalone="no"?>
<!DOCTYPE svg PUBLIC "-//W3C//DTD SVG 1.1//EN"
 "http://www.w3.org/Graphics/SVG/1.1/DTD/svg11.dtd">
<!-- Generated by graphviz version 2.26.3 (20100126.1600)
 -->
<!-- Title: src/smarttree/smarttree.cc Pages: 1 -->
<svg width="1371pt" height="204pt"
 viewBox="0.00 0.00 1371.00 204.00" xmlns="http://www.w3.org/2000/svg" xmlns:xlink="http://www.w3.org/1999/xlink">
<g id="graph1" class="graph" transform="scale(1 1) rotate(0) translate(4 200)">
<title>src/smarttree/smarttree.cc</title>
<polygon fill="white" stroke="white" points="-4,5 -4,-200 1368,-200 1368,5 -4,5"/>
<!-- Node1 -->
<g id="node1" class="node"><title>Node1</title>
<polygon fill="#bfbfbf" stroke="black" points="627,-174.5 627,-195.5 759,-195.5 759,-174.5 627,-174.5"/>
<text text-anchor="middle" x="693" y="-182.5" font-family="Helvetica,sans-Serif" font-size="10.00">src/smarttree/smarttree.cc</text>
</g>
<!-- Node2 -->
<g id="node3" class="node"><title>Node2</title>
<a xlink:href="smarttree_8h.html" target="_top" xlink:title="smarttree.h">
<polygon fill="white" stroke="black" points="83,-116.5 83,-137.5 149,-137.5 149,-116.5 83,-116.5"/>
<text text-anchor="middle" x="116" y="-124.5" font-family="Helvetica,sans-Serif" font-size="10.00">smarttree.h</text>
</a>
</g>
<!-- Node1&#45;&gt;Node2 -->
<g id="edge2" class="edge"><title>Node1&#45;&gt;Node2</title>
<path fill="none" stroke="midnightblue" d="M626.943,-182.148C526.303,-177.127 328.769,-164.612 163,-138 161.72,-137.795 160.423,-137.574 159.116,-137.34"/>
<polygon fill="midnightblue" stroke="midnightblue" points="159.496,-133.848 149.008,-135.344 158.14,-140.715 159.496,-133.848"/>
</g>
<!-- Node6 -->
<g id="node11" class="node"><title>Node6</title>
<polygon fill="white" stroke="#bfbfbf" points="153.5,-58.5 153.5,-79.5 218.5,-79.5 218.5,-58.5 153.5,-58.5"/>
<text text-anchor="middle" x="186" y="-66.5" font-family="Helvetica,sans-Serif" font-size="10.00">TCanvas.h</text>
</g>
<!-- Node1&#45;&gt;Node6 -->
<g id="edge60" class="edge"><title>Node1&#45;&gt;Node6</title>
<path fill="none" stroke="midnightblue" d="M626.512,-183.211C498.256,-179.119 226.569,-167.088 196,-138 183.299,-125.914 181.769,-105.416 182.835,-89.8937"/>
<polygon fill="midnightblue" stroke="midnightblue" points="186.346,-89.9817 183.947,-79.662 179.387,-89.2251 186.346,-89.9817"/>
</g>
<!-- Node7 -->
<g id="node13" class="node"><title>Node7</title>
<polygon fill="white" stroke="#bfbfbf" points="204.5,-116.5 204.5,-137.5 239.5,-137.5 239.5,-116.5 204.5,-116.5"/>
<text text-anchor="middle" x="222" y="-124.5" font-family="Helvetica,sans-Serif" font-size="10.00">map</text>
</g>
<!-- Node1&#45;&gt;Node7 -->
<g id="edge12" class="edge"><title>Node1&#45;&gt;Node7</title>
<path fill="none" stroke="midnightblue" d="M626.643,-180.4C524.764,-172.949 333.553,-157.325 249.382,-137.699"/>
<polygon fill="midnightblue" stroke="midnightblue" points="250.21,-134.299 239.661,-135.286 248.524,-141.092 250.21,-134.299"/>
</g>
<!-- Node8 -->
<g id="node15" class="node"><title>Node8</title>
<polygon fill="white" stroke="#bfbfbf" points="256.5,-116.5 256.5,-137.5 285.5,-137.5 285.5,-116.5 256.5,-116.5"/>
<text text-anchor="middle" x="271" y="-124.5" font-family="Helvetica,sans-Serif" font-size="10.00">list</text>
</g>
<!-- Node1&#45;&gt;Node8 -->
<g id="edge14" class="edge"><title>Node1&#45;&gt;Node8</title>
<path fill="none" stroke="midnightblue" d="M626.742,-179.846C534.298,-172.224 370.381,-157.04 295.738,-137.708"/>
<polygon fill="midnightblue" stroke="midnightblue" points="296.386,-134.255 285.814,-134.952 294.514,-141 296.386,-134.255"/>
</g>
<!-- Node9 -->
<g id="node17" class="node"><title>Node9</title>
<polygon fill="white" stroke="#bfbfbf" points="303,-116.5 303,-137.5 357,-137.5 357,-116.5 303,-116.5"/>
<text text-anchor="middle" x="330" y="-124.5" font-family="Helvetica,sans-Serif" font-size="10.00">iostream</text>
</g>
<!-- Node1&#45;&gt;Node9 -->
<g id="edge16" class="edge"><title>Node1&#45;&gt;Node9</title>
<path fill="none" stroke="midnightblue" d="M626.927,-177.654C561.558,-169.847 458.835,-156.128 371,-138 369.741,-137.74 368.464,-137.465 367.176,-137.177"/>
<polygon fill="midnightblue" stroke="midnightblue" points="367.782,-133.723 357.241,-134.786 366.144,-140.529 367.782,-133.723"/>
</g>
<!-- Node10 -->
<g id="node19" class="node"><title>Node10</title>
<polygon fill="white" stroke="#bfbfbf" points="398,-58.5 398,-79.5 450,-79.5 450,-58.5 398,-58.5"/>
<text text-anchor="middle" x="424" y="-66.5" font-family="Helvetica,sans-Serif" font-size="10.00">sstream</text>
</g>
<!-- Node1&#45;&gt;Node10 -->
<g id="edge18" class="edge"><title>Node1&#45;&gt;Node10</title>
<path fill="none" stroke="midnightblue" d="M626.753,-178.735C545.952,-170.413 418.285,-154.796 404,-138 392.089,-123.995 400.526,-103.242 409.827,-88.1542"/>
<polygon fill="midnightblue" stroke="midnightblue" points="412.897,-89.8594 415.556,-79.6035 407.082,-85.9632 412.897,-89.8594"/>
</g>
<!-- Node11 -->
<g id="node21" class="node"><title>Node11</title>
<polygon fill="white" stroke="#bfbfbf" points="413,-116.5 413,-137.5 463,-137.5 463,-116.5 413,-116.5"/>
<text text-anchor="middle" x="438" y="-124.5" font-family="Helvetica,sans-Serif" font-size="10.00">iomanip</text>
</g>
<!-- Node1&#45;&gt;Node11 -->
<g id="edge20" class="edge"><title>Node1&#45;&gt;Node11</title>
<path fill="none" stroke="midnightblue" d="M635.376,-174.439C592.827,-166.255 533.359,-154.011 472.878,-138.054"/>
<polygon fill="midnightblue" stroke="midnightblue" points="473.729,-134.659 463.165,-135.462 471.924,-141.422 473.729,-134.659"/>
</g>
<!-- Node12 -->
<g id="node23" class="node"><title>Node12</title>
<a xlink:href="interval_8h.html" target="_top" xlink:title="base/interval.h">
<polygon fill="white" stroke="black" points="607,-116.5 607,-137.5 687,-137.5 687,-116.5 607,-116.5"/>
<text text-anchor="middle" x="647" y="-124.5" font-family="Helvetica,sans-Serif" font-size="10.00">base/interval.h</text>
</a>
</g>
<!-- Node1&#45;&gt;Node12 -->
<g id="edge22" class="edge"><title>Node1&#45;&gt;Node12</title>
<path fill="none" stroke="midnightblue" d="M684.563,-174.362C678.208,-166.35 669.334,-155.161 661.807,-145.67"/>
<polygon fill="midnightblue" stroke="midnightblue" points="664.34,-143.231 655.384,-137.571 658.855,-147.581 664.34,-143.231"/>
</g>
<!-- Node20 -->
<g id="node39" class="node"><title>Node20</title>
<a xlink:href="string_8h.html" target="_top" xlink:title="base/std_ext/string.h">
<polygon fill="white" stroke="black" points="481,-116.5 481,-137.5 589,-137.5 589,-116.5 481,-116.5"/>
<text text-anchor="middle" x="535" y="-124.5" font-family="Helvetica,sans-Serif" font-size="10.00">base/std_ext/string.h</text>
</a>
</g>
<!-- Node1&#45;&gt;Node20 -->
<g id="edge38" class="edge"><title>Node1&#45;&gt;Node20</title>
<path fill="none" stroke="midnightblue" d="M664.387,-174.497C638.852,-165.123 601.263,-151.324 573.171,-141.012"/>
<polygon fill="midnightblue" stroke="midnightblue" points="574.26,-137.684 563.666,-137.523 571.848,-144.255 574.26,-137.684"/>
</g>
<!-- Node21 -->
<g id="node44" class="node"><title>Node21</title>
<polygon fill="white" stroke="#bfbfbf" points="704.5,-116.5 704.5,-137.5 775.5,-137.5 775.5,-116.5 704.5,-116.5"/>
<text text-anchor="middle" x="740" y="-124.5" font-family="Helvetica,sans-Serif" font-size="10.00">TDirectory.h</text>
</g>
<!-- Node1&#45;&gt;Node21 -->
<g id="edge46" class="edge"><title>Node1&#45;&gt;Node21</title>
<path fill="none" stroke="midnightblue" d="M701.621,-174.362C708.18,-166.268 717.366,-154.932 725.106,-145.38"/>
<polygon fill="midnightblue" stroke="midnightblue" points="727.858,-147.544 731.434,-137.571 722.419,-143.136 727.858,-147.544"/>
</g>
<!-- Node22 -->
<g id="node46" class="node"><title>Node22</title>
<polygon fill="white" stroke="#bfbfbf" points="792.5,-116.5 792.5,-137.5 851.5,-137.5 851.5,-116.5 792.5,-116.5"/>
<text text-anchor="middle" x="822" y="-124.5" font-family="Helvetica,sans-Serif" font-size="10.00">TROOT.h</text>
</g>
<!-- Node1&#45;&gt;Node22 -->
<g id="edge48" class="edge"><title>Node1&#45;&gt;Node22</title>
<path fill="none" stroke="midnightblue" d="M716.361,-174.497C736.691,-165.356 766.378,-152.008 789.109,-141.788"/>
<polygon fill="midnightblue" stroke="midnightblue" points="790.692,-144.914 798.377,-137.621 787.821,-138.53 790.692,-144.914"/>
</g>
<!-- Node23 -->
<g id="node48" class="node"><title>Node23</title>
<polygon fill="white" stroke="#bfbfbf" points="869,-116.5 869,-137.5 919,-137.5 919,-116.5 869,-116.5"/>
<text text-anchor="middle" x="894" y="-124.5" font-family="Helvetica,sans-Serif" font-size="10.00">TTree.h</text>
</g>
<!-- Node1&#45;&gt;Node23 -->
<g id="edge50" class="edge"><title>Node1&#45;&gt;Node23</title>
<path fill="none" stroke="midnightblue" d="M732.266,-174.409C764.067,-165.728 810.245,-152.893 859.001,-138.233"/>
<polygon fill="midnightblue" stroke="midnightblue" points="860.223,-141.521 868.783,-135.278 858.198,-134.82 860.223,-141.521"/>
</g>
<!-- Node24 -->
<g id="node50" class="node"><title>Node24</title>
<polygon fill="white" stroke="#bfbfbf" points="936.5,-116.5 936.5,-137.5 987.5,-137.5 987.5,-116.5 936.5,-116.5"/>
<text text-anchor="middle" x="962" y="-124.5" font-family="Helvetica,sans-Serif" font-size="10.00">TH1D.h</text>
</g>
<!-- Node1&#45;&gt;Node24 -->
<g id="edge52" class="edge"><title>Node1&#45;&gt;Node24</title>
<path fill="none" stroke="midnightblue" d="M755.791,-174.478C801.059,-166.426 863.746,-154.322 926.768,-138.134"/>
<polygon fill="midnightblue" stroke="midnightblue" points="927.677,-141.513 936.473,-135.608 925.914,-134.739 927.677,-141.513"/>
</g>
<!-- Node25 -->
<g id="node52" class="node"><title>Node25</title>
<polygon fill="white" stroke="#bfbfbf" points="1004.5,-116.5 1004.5,-137.5 1055.5,-137.5 1055.5,-116.5 1004.5,-116.5"/>
<text text-anchor="middle" x="1030" y="-124.5" font-family="Helvetica,sans-Serif" font-size="10.00">TH2D.h</text>
</g>
<!-- Node1&#45;&gt;Node25 -->
<g id="edge54" class="edge"><title>Node1&#45;&gt;Node25</title>
<path fill="none" stroke="midnightblue" d="M759.193,-177.808C818.681,-170.649 908.499,-158.119 994.239,-138.177"/>
<polygon fill="midnightblue" stroke="midnightblue" points="995.205,-141.545 1004.13,-135.838 993.595,-134.733 995.205,-141.545"/>
</g>
<!-- Node26 -->
<g id="node54" class="node"><title>Node26</title>
<polygon fill="white" stroke="#bfbfbf" points="1072.5,-116.5 1072.5,-137.5 1119.5,-137.5 1119.5,-116.5 1072.5,-116.5"/>
<text text-anchor="middle" x="1096" y="-124.5" font-family="Helvetica,sans-Serif" font-size="10.00">TCut.h</text>
</g>
<!-- Node1&#45;&gt;Node26 -->
<g id="edge56" class="edge"><title>Node1&#45;&gt;Node26</title>
<path fill="none" stroke="midnightblue" d="M759.061,-180.738C831.63,-175.138 951.586,-163.183 1062.39,-138.033"/>
<polygon fill="midnightblue" stroke="midnightblue" points="1063.44,-141.382 1072.39,-135.72 1061.86,-134.562 1063.44,-141.382"/>
</g>
<!-- Node27 -->
<g id="node56" class="node"><title>Node27</title>
<polygon fill="white" stroke="#bfbfbf" points="1137,-116.5 1137,-137.5 1187,-137.5 1187,-116.5 1137,-116.5"/>
<text text-anchor="middle" x="1162" y="-124.5" font-family="Helvetica,sans-Serif" font-size="10.00">TAxis.h</text>
</g>
<!-- Node1&#45;&gt;Node27 -->
<g id="edge58" class="edge"><title>Node1&#45;&gt;Node27</title>
<path fill="none" stroke="midnightblue" d="M759.256,-182.073C843.025,-177.434 991.633,-166.08 1126.79,-137.901"/>
<polygon fill="midnightblue" stroke="midnightblue" points="1127.85,-141.253 1136.91,-135.754 1126.4,-134.406 1127.85,-141.253"/>
</g>
<!-- Node28 -->
<g id="node59" class="node"><title>Node28</title>
<polygon fill="white" stroke="#bfbfbf" points="1205,-116.5 1205,-137.5 1277,-137.5 1277,-116.5 1205,-116.5"/>
<text text-anchor="middle" x="1241" y="-124.5" font-family="Helvetica,sans-Serif" font-size="10.00">TEventList.h</text>
</g>
<!-- Node1&#45;&gt;Node28 -->
<g id="edge62" class="edge"><title>Node1&#45;&gt;Node28</title>
<path fill="none" stroke="midnightblue" d="M759.313,-181.905C853.932,-176.804 1033.2,-164.599 1194.63,-138.033"/>
<polygon fill="midnightblue" stroke="midnightblue" points="1195.46,-141.444 1204.75,-136.346 1194.31,-134.539 1195.46,-141.444"/>
</g>
<!-- Node29 -->
<g id="node61" class="node"><title>Node29</title>
<polygon fill="white" stroke="#bfbfbf" points="1295,-116.5 1295,-137.5 1363,-137.5 1363,-116.5 1295,-116.5"/>
<text text-anchor="middle" x="1329" y="-124.5" font-family="Helvetica,sans-Serif" font-size="10.00">TRandom.h</text>
</g>
<!-- Node1&#45;&gt;Node29 -->
<g id="edge64" class="edge"><title>Node1&#45;&gt;Node29</title>
<path fill="none" stroke="midnightblue" d="M759.262,-183.447C867.506,-180.098 1089,-169.855 1284.94,-137.935"/>
<polygon fill="midnightblue" stroke="midnightblue" points="1285.55,-141.383 1294.84,-136.3 1284.41,-134.476 1285.55,-141.383"/>
</g>
<!-- Node3 -->
<g id="node5" class="node"><title>Node3</title>
<polygon fill="white" stroke="#bfbfbf" points="282.5,-58.5 282.5,-79.5 323.5,-79.5 323.5,-58.5 282.5,-58.5"/>
<text text-anchor="middle" x="303" y="-66.5" font-family="Helvetica,sans-Serif" font-size="10.00">string</text>
</g>
<!-- Node2&#45;&gt;Node3 -->
<g id="edge4" class="edge"><title>Node2&#45;&gt;Node3</title>
<path fill="none" stroke="midnightblue" d="M149.001,-116.764C183.969,-105.919 238.722,-88.9366 272.649,-78.4138"/>
<polygon fill="midnightblue" stroke="midnightblue" points="273.95,-81.6748 282.464,-75.3695 271.876,-74.989 273.95,-81.6748"/>
</g>
<!-- Node4 -->
<g id="node7" class="node"><title>Node4</title>
<polygon fill="white" stroke="#bfbfbf" points="0,-58.5 0,-79.5 62,-79.5 62,-58.5 0,-58.5"/>
<text text-anchor="middle" x="31" y="-66.5" font-family="Helvetica,sans-Serif" font-size="10.00">TNamed.h</text>
</g>
<!-- Node2&#45;&gt;Node4 -->
<g id="edge6" class="edge"><title>Node2&#45;&gt;Node4</title>
<path fill="none" stroke="midnightblue" d="M100.41,-116.362C87.709,-107.696 69.5615,-95.3126 55.0079,-85.3819"/>
<polygon fill="midnightblue" stroke="midnightblue" points="56.7245,-82.316 46.4915,-79.5707 52.779,-88.0982 56.7245,-82.316"/>
</g>
<!-- Node5 -->
<g id="node9" class="node"><title>Node5</title>
<polygon fill="white" stroke="#bfbfbf" points="80,-58.5 80,-79.5 136,-79.5 136,-58.5 80,-58.5"/>
<text text-anchor="middle" x="108" y="-66.5" font-family="Helvetica,sans-Serif" font-size="10.00">Rtypes.h</text>
</g>
<!-- Node2&#45;&gt;Node5 -->
<g id="edge8" class="edge"><title>Node2&#45;&gt;Node5</title>
<path fill="none" stroke="midnightblue" d="M114.533,-116.362C113.506,-108.922 112.102,-98.7427 110.859,-89.7276"/>
<polygon fill="midnightblue" stroke="midnightblue" points="114.292,-88.9986 109.458,-79.5707 107.357,-89.9551 114.292,-88.9986"/>
</g>
<!-- Node2&#45;&gt;Node6 -->
<g id="edge10" class="edge"><title>Node2&#45;&gt;Node6</title>
<path fill="none" stroke="midnightblue" d="M128.839,-116.362C139.002,-107.941 153.401,-96.0105 165.204,-86.2308"/>
<polygon fill="midnightblue" stroke="midnightblue" points="167.775,-88.6459 173.242,-79.5707 163.309,-83.2558 167.775,-88.6459"/>
</g>
<!-- Node13 -->
<g id="node25" class="node"><title>Node13</title>
<polygon fill="white" stroke="#bfbfbf" points="497,-58.5 497,-79.5 553,-79.5 553,-58.5 497,-58.5"/>
<text text-anchor="middle" x="525" y="-66.5" font-family="Helvetica,sans-Serif" font-size="10.00">algorithm</text>
</g>
<!-- Node12&#45;&gt;Node13 -->
<g id="edge24" class="edge"><title>Node12&#45;&gt;Node13</title>
<path fill="none" stroke="midnightblue" d="M624.907,-116.497C605.766,-107.397 577.854,-94.1273 556.395,-83.9253"/>
<polygon fill="midnightblue" stroke="midnightblue" points="557.875,-80.7539 547.341,-79.6212 554.87,-87.0758 557.875,-80.7539"/>
</g>
<!-- Node14 -->
<g id="node27" class="node"><title>Node14</title>
<polygon fill="white" stroke="#bfbfbf" points="694.5,-58.5 694.5,-79.5 753.5,-79.5 753.5,-58.5 694.5,-58.5"/>
<text text-anchor="middle" x="724" y="-66.5" font-family="Helvetica,sans-Serif" font-size="10.00">stdexcept</text>
</g>
<!-- Node12&#45;&gt;Node14 -->
<g id="edge26" class="edge"><title>Node12&#45;&gt;Node14</title>
<path fill="none" stroke="midnightblue" d="M661.123,-116.362C672.52,-107.777 688.758,-95.5459 701.878,-85.6636"/>
<polygon fill="midnightblue" stroke="midnightblue" points="704.085,-88.3829 709.967,-79.5707 699.873,-82.7916 704.085,-88.3829"/>
</g>
<!-- Node15 -->
<g id="node29" class="node"><title>Node15</title>
<a xlink:href="printable_8h.html" target="_top" xlink:title="printable.h">
<polygon fill="white" stroke="black" points="771,-58.5 771,-79.5 833,-79.5 833,-58.5 771,-58.5"/>
<text text-anchor="middle" x="802" y="-66.5" font-family="Helvetica,sans-Serif" font-size="10.00">printable.h</text>
</a>
</g>
<!-- Node12&#45;&gt;Node15 -->
<g id="edge28" class="edge"><title>Node12&#45;&gt;Node15</title>
<path fill="none" stroke="midnightblue" d="M675.069,-116.497C700.01,-107.164 736.674,-93.4447 764.192,-83.1475"/>
<polygon fill="midnightblue" stroke="midnightblue" points="765.739,-86.3058 773.878,-79.5231 763.286,-79.7497 765.739,-86.3058"/>
</g>
<!-- Node18 -->
<g id="node35" class="node"><title>Node18</title>
<a xlink:href="types_8h.html" target="_top" xlink:title="types.h">
<polygon fill="white" stroke="black" points="570.5,-58.5 570.5,-79.5 619.5,-79.5 619.5,-58.5 570.5,-58.5"/>
<text text-anchor="middle" x="595" y="-66.5" font-family="Helvetica,sans-Serif" font-size="10.00">types.h</text>
</a>
</g>
<!-- Node12&#45;&gt;Node18 -->
<g id="edge34" class="edge"><title>Node12&#45;&gt;Node18</title>
<path fill="none" stroke="midnightblue" d="M637.462,-116.362C630.132,-108.186 619.837,-96.7025 611.219,-87.0907"/>
<polygon fill="midnightblue" stroke="midnightblue" points="613.759,-84.68 604.477,-79.5707 608.547,-89.3528 613.759,-84.68"/>
</g>
<!-- Node19 -->
<g id="node37" class="node"><title>Node19</title>
<polygon fill="white" stroke="#bfbfbf" points="637,-58.5 637,-79.5 677,-79.5 677,-58.5 637,-58.5"/>
<text text-anchor="middle" x="657" y="-66.5" font-family="Helvetica,sans-Serif" font-size="10.00">limits</text>
</g>
<!-- Node12&#45;&gt;Node19 -->
<g id="edge36" class="edge"><title>Node12&#45;&gt;Node19</title>
<path fill="none" stroke="midnightblue" d="M648.834,-116.362C650.131,-108.84 651.911,-98.5187 653.477,-89.4308"/>
<polygon fill="midnightblue" stroke="midnightblue" points="656.927,-90.02 655.177,-79.5707 650.029,-88.8306 656.927,-90.02"/>
</g>
<!-- Node16 -->
<g id="node31" class="node"><title>Node16</title>
<polygon fill="white" stroke="#bfbfbf" points="747,-0.5 747,-21.5 791,-21.5 791,-0.5 747,-0.5"/>
<text text-anchor="middle" x="769" y="-8.5" font-family="Helvetica,sans-Serif" font-size="10.00">vector</text>
</g>
<!-- Node15&#45;&gt;Node16 -->
<g id="edge30" class="edge"><title>Node15&#45;&gt;Node16</title>
<path fill="none" stroke="midnightblue" d="M795.947,-58.3619C791.528,-50.5949 785.41,-39.8426 780.121,-30.5458"/>
<polygon fill="midnightblue" stroke="midnightblue" points="783.002,-28.5315 775.014,-21.5707 776.918,-31.9932 783.002,-28.5315"/>
</g>
<!-- Node17 -->
<g id="node33" class="node"><title>Node17</title>
<polygon fill="white" stroke="#bfbfbf" points="809,-0.5 809,-21.5 861,-21.5 861,-0.5 809,-0.5"/>
<text text-anchor="middle" x="835" y="-8.5" font-family="Helvetica,sans-Serif" font-size="10.00">ostream</text>
</g>
<!-- Node15&#45;&gt;Node17 -->
<g id="edge32" class="edge"><title>Node15&#45;&gt;Node17</title>
<path fill="none" stroke="midnightblue" d="M808.053,-58.3619C812.472,-50.5949 818.59,-39.8426 823.879,-30.5458"/>
<polygon fill="midnightblue" stroke="midnightblue" points="827.082,-31.9932 828.986,-21.5707 820.998,-28.5315 827.082,-31.9932"/>
</g>
<!-- Node20&#45;&gt;Node3 -->
<g id="edge40" class="edge"><title>Node20&#45;&gt;Node3</title>
<path fill="none" stroke="midnightblue" d="M492.987,-116.497C446.98,-104.995 374.325,-86.8312 333.484,-76.6209"/>
<polygon fill="midnightblue" stroke="midnightblue" points="334.13,-73.1749 323.58,-74.1449 332.432,-79.9659 334.13,-73.1749"/>
</g>
<!-- Node20&#45;&gt;Node10 -->
<g id="edge42" class="edge"><title>Node20&#45;&gt;Node10</title>
<path fill="none" stroke="midnightblue" d="M514.899,-116.497C497.718,-107.519 472.77,-94.4835 453.355,-84.3387"/>
<polygon fill="midnightblue" stroke="midnightblue" points="454.811,-81.1503 444.327,-79.6212 451.569,-87.3544 454.811,-81.1503"/>
</g>
<!-- Node20&#45;&gt;Node13 -->
<g id="edge44" class="edge"><title>Node20&#45;&gt;Node13</title>
<path fill="none" stroke="midnightblue" d="M533.166,-116.362C531.869,-108.84 530.089,-98.5187 528.523,-89.4308"/>
<polygon fill="midnightblue" stroke="midnightblue" points="531.971,-88.8306 526.823,-79.5707 525.073,-90.02 531.971,-88.8306"/>
</g>
</g>
</svg>
