<?xml version="1.0" encoding="UTF-8" standalone="no"?>
<!DOCTYPE svg PUBLIC "-//W3C//DTD SVG 1.1//EN"
 "http://www.w3.org/Graphics/SVG/1.1/DTD/svg11.dtd">
<!-- Generated by graphviz version 2.26.3 (20100126.1600)
 -->
<!-- Title: src/smarttree/smarttree.h Pages: 1 -->
<svg width="284pt" height="88pt"
 viewBox="0.00 0.00 284.00 88.00" xmlns="http://www.w3.org/2000/svg" xmlns:xlink="http://www.w3.org/1999/xlink">
<g id="graph1" class="graph" transform="scale(1 1) rotate(0) translate(4 84)">
<title>src/smarttree/smarttree.h</title>
<polygon fill="white" stroke="white" points="-4,5 -4,-84 281,-84 281,5 -4,5"/>
<!-- Node1 -->
<g id="node1" class="node"><title>Node1</title>
<polygon fill="#bfbfbf" stroke="black" points="63.5,-58.5 63.5,-79.5 190.5,-79.5 190.5,-58.5 63.5,-58.5"/>
<text text-anchor="middle" x="127" y="-66.5" font-family="Helvetica,sans-Serif" font-size="10.00">src/smarttree/smarttree.h</text>
</g>
<!-- Node2 -->
<g id="node3" class="node"><title>Node2</title>
<polygon fill="white" stroke="#bfbfbf" points="-0.5,-0.5 -0.5,-21.5 40.5,-21.5 40.5,-0.5 -0.5,-0.5"/>
<text text-anchor="middle" x="20" y="-8.5" font-family="Helvetica,sans-Serif" font-size="10.00">string</text>
</g>
<!-- Node1&#45;&gt;Node2 -->
<g id="edge2" class="edge"><title>Node1&#45;&gt;Node2</title>
<path fill="none" stroke="midnightblue" d="M107.375,-58.3619C90.8587,-49.4094 67.0261,-36.4908 48.4222,-26.4064"/>
<polygon fill="midnightblue" stroke="midnightblue" points="49.9605,-23.2592 39.501,-21.5707 46.6246,-29.4132 49.9605,-23.2592"/>
</g>
<!-- Node3 -->
<g id="node5" class="node"><title>Node3</title>
<polygon fill="white" stroke="#bfbfbf" points="58,-0.5 58,-21.5 120,-21.5 120,-0.5 58,-0.5"/>
<text text-anchor="middle" x="89" y="-8.5" font-family="Helvetica,sans-Serif" font-size="10.00">TNamed.h</text>
</g>
<!-- Node1&#45;&gt;Node3 -->
<g id="edge4" class="edge"><title>Node1&#45;&gt;Node3</title>
<path fill="none" stroke="midnightblue" d="M120.03,-58.3619C114.834,-50.4313 107.599,-39.3885 101.422,-29.9606"/>
<polygon fill="midnightblue" stroke="midnightblue" points="104.334,-28.0172 95.9256,-21.5707 98.4783,-31.8534 104.334,-28.0172"/>
</g>
<!-- Node4 -->
<g id="node7" class="node"><title>Node4</title>
<polygon fill="white" stroke="#bfbfbf" points="138,-0.5 138,-21.5 194,-21.5 194,-0.5 138,-0.5"/>
<text text-anchor="middle" x="166" y="-8.5" font-family="Helvetica,sans-Serif" font-size="10.00">Rtypes.h</text>
</g>
<!-- Node1&#45;&gt;Node4 -->
<g id="edge6" class="edge"><title>Node1&#45;&gt;Node4</title>
<path fill="none" stroke="midnightblue" d="M134.153,-58.3619C139.486,-50.4313 146.911,-39.3885 153.251,-29.9606"/>
<polygon fill="midnightblue" stroke="midnightblue" points="156.217,-31.8221 158.892,-21.5707 150.408,-27.9161 156.217,-31.8221"/>
</g>
<!-- Node5 -->
<g id="node9" class="node"><title>Node5</title>
<polygon fill="white" stroke="#bfbfbf" points="211.5,-0.5 211.5,-21.5 276.5,-21.5 276.5,-0.5 211.5,-0.5"/>
<text text-anchor="middle" x="244" y="-8.5" font-family="Helvetica,sans-Serif" font-size="10.00">TCanvas.h</text>
</g>
<!-- Node1&#45;&gt;Node5 -->
<g id="edge8" class="edge"><title>Node1&#45;&gt;Node5</title>
<path fill="none" stroke="midnightblue" d="M148.188,-58.4966C166.462,-49.4378 193.072,-36.2462 213.615,-26.0628"/>
<polygon fill="midnightblue" stroke="midnightblue" points="215.169,-29.1986 222.574,-21.6212 212.06,-22.9269 215.169,-29.1986"/>
</g>
</g>
</svg>
