<?xml version="1.0" encoding="UTF-8" standalone="no"?>
<!DOCTYPE svg PUBLIC "-//W3C//DTD SVG 1.1//EN"
 "http://www.w3.org/Graphics/SVG/1.1/DTD/svg11.dtd">
<!-- Generated by graphviz version 2.26.3 (20100126.1600)
 -->
<!-- Title: ant::analysis::physics::ReconstructCheck::histgroup Pages: 1 -->
<svg width="800pt" height="183pt"
 viewBox="0.00 0.00 800.00 183.00" xmlns="http://www.w3.org/2000/svg" xmlns:xlink="http://www.w3.org/1999/xlink">
<g id="graph1" class="graph" transform="scale(1 1) rotate(0) translate(4 179)">
<title>ant::analysis::physics::ReconstructCheck::histgroup</title>
<polygon fill="white" stroke="white" points="-4,5 -4,-179 797,-179 797,5 -4,5"/>
<!-- Node1 -->
<g id="node1" class="node"><title>Node1</title>
<polygon fill="#bfbfbf" stroke="black" points="642,-34 642,-68 792,-68 792,-34 642,-34"/>
<text text-anchor="start" x="650" y="-55" font-family="Helvetica,sans-Serif" font-size="10.00">ant::analysis::physics</text>
<text text-anchor="middle" x="717" y="-42" font-family="Helvetica,sans-Serif" font-size="10.00">::ReconstructCheck::histgroup</text>
</g>
<!-- Node2 -->
<g id="node2" class="node"><title>Node2</title>
<polygon fill="white" stroke="#bfbfbf" points="352.5,-80.5 352.5,-127.5 519.5,-127.5 519.5,-80.5 352.5,-80.5"/>
<text text-anchor="start" x="360.5" y="-114.5" font-family="Helvetica,sans-Serif" font-size="10.00">std::unique_ptr&lt; ant</text>
<text text-anchor="start" x="360.5" y="-101.5" font-family="Helvetica,sans-Serif" font-size="10.00">::analysis::physics::</text>
<text text-anchor="middle" x="436" y="-88.5" font-family="Helvetica,sans-Serif" font-size="10.00">ReconstructCheck::PositionMap &gt;</text>
</g>
<!-- Node2&#45;&gt;Node1 -->
<g id="edge2" class="edge"><title>Node2&#45;&gt;Node1</title>
<path fill="none" stroke="#9a32cd" stroke-dasharray="5,2" d="M529.704,-86.3263C566.19,-79.4446 607.429,-71.6664 641.905,-65.1639"/>
<polygon fill="#9a32cd" stroke="#9a32cd" points="528.726,-82.9489 519.548,-88.2417 530.024,-89.8276 528.726,-82.9489"/>
<text text-anchor="middle" x="581" y="-166" font-family="Helvetica,sans-Serif" font-size="10.00"> splitFlagPos</text>
<text text-anchor="middle" x="581" y="-153" font-family="Helvetica,sans-Serif" font-size="10.00">energy_recov</text>
<text text-anchor="middle" x="581" y="-140" font-family="Helvetica,sans-Serif" font-size="10.00">mult1_chargedPos</text>
<text text-anchor="middle" x="581" y="-127" font-family="Helvetica,sans-Serif" font-size="10.00">input_positions</text>
<text text-anchor="middle" x="581" y="-114" font-family="Helvetica,sans-Serif" font-size="10.00">splitPos</text>
<text text-anchor="middle" x="581" y="-101" font-family="Helvetica,sans-Serif" font-size="10.00">mult1_positions</text>
<text text-anchor="middle" x="581" y="-88" font-family="Helvetica,sans-Serif" font-size="10.00">posCharged</text>
</g>
<!-- Node3 -->
<g id="node4" class="node"><title>Node3</title>
<a xlink:href="structant_1_1analysis_1_1physics_1_1_reconstruct_check_1_1_position_map.html" target="_top" xlink:title="ant::analysis::physics\l::ReconstructCheck::PositionMap">
<polygon fill="white" stroke="black" points="136,-87 136,-121 300,-121 300,-87 136,-87"/>
<text text-anchor="start" x="144" y="-108" font-family="Helvetica,sans-Serif" font-size="10.00">ant::analysis::physics</text>
<text text-anchor="middle" x="218" y="-95" font-family="Helvetica,sans-Serif" font-size="10.00">::ReconstructCheck::PositionMap</text>
</a>
</g>
<!-- Node3&#45;&gt;Node2 -->
<g id="edge4" class="edge"><title>Node3&#45;&gt;Node2</title>
<path fill="none" stroke="#9a32cd" stroke-dasharray="5,2" d="M310.171,-104C324.103,-104 338.411,-104 352.155,-104"/>
<polygon fill="#9a32cd" stroke="#9a32cd" points="310.106,-100.5 300.106,-104 310.106,-107.5 310.106,-100.5"/>
<text text-anchor="middle" x="326" y="-108" font-family="Helvetica,sans-Serif" font-size="10.00"> ptr</text>
</g>
<!-- Node4 -->
<g id="node6" class="node"><title>Node4</title>
<a xlink:href="classant_1_1root__drawable__traits.html" target="_top" xlink:title="ant::root_drawable\l_traits">
<polygon fill="white" stroke="black" points="0.5,-87 0.5,-121 97.5,-121 97.5,-87 0.5,-87"/>
<text text-anchor="start" x="8.5" y="-108" font-family="Helvetica,sans-Serif" font-size="10.00">ant::root_drawable</text>
<text text-anchor="middle" x="49" y="-95" font-family="Helvetica,sans-Serif" font-size="10.00">_traits</text>
</a>
</g>
<!-- Node4&#45;&gt;Node3 -->
<g id="edge6" class="edge"><title>Node4&#45;&gt;Node3</title>
<path fill="none" stroke="midnightblue" d="M108.163,-104C117.107,-104 126.469,-104 135.794,-104"/>
<polygon fill="midnightblue" stroke="midnightblue" points="107.882,-100.5 97.8818,-104 107.882,-107.5 107.882,-100.5"/>
</g>
<!-- Node5 -->
<g id="node8" class="node"><title>Node5</title>
<a xlink:title="STL class. ">
<polygon fill="white" stroke="#bfbfbf" points="406,-40.5 406,-61.5 466,-61.5 466,-40.5 406,-40.5"/>
<text text-anchor="middle" x="436" y="-48.5" font-family="Helvetica,sans-Serif" font-size="10.00">std::string</text>
</a>
</g>
<!-- Node5&#45;&gt;Node1 -->
<g id="edge8" class="edge"><title>Node5&#45;&gt;Node1</title>
<path fill="none" stroke="#9a32cd" stroke-dasharray="5,2" d="M476.168,-51C519.251,-51 588.647,-51 641.905,-51"/>
<polygon fill="#9a32cd" stroke="#9a32cd" points="476.072,-47.5001 466.072,-51 476.072,-54.5001 476.072,-47.5001"/>
<text text-anchor="middle" x="581" y="-55" font-family="Helvetica,sans-Serif" font-size="10.00"> Prefix</text>
</g>
<!-- Node6 -->
<g id="node10" class="node"><title>Node6</title>
<a xlink:title="STL class. ">
<polygon fill="white" stroke="#bfbfbf" points="170.5,-34 170.5,-68 265.5,-68 265.5,-34 170.5,-34"/>
<text text-anchor="start" x="178.5" y="-55" font-family="Helvetica,sans-Serif" font-size="10.00">std::basic_string&lt;</text>
<text text-anchor="middle" x="218" y="-42" font-family="Helvetica,sans-Serif" font-size="10.00"> char &gt;</text>
</a>
</g>
<!-- Node6&#45;&gt;Node5 -->
<g id="edge10" class="edge"><title>Node6&#45;&gt;Node5</title>
<path fill="none" stroke="midnightblue" d="M275.64,-51C317.503,-51 372.468,-51 405.963,-51"/>
<polygon fill="midnightblue" stroke="midnightblue" points="275.572,-47.5001 265.572,-51 275.572,-54.5001 275.572,-47.5001"/>
</g>
<!-- Node7 -->
<g id="node12" class="node"><title>Node7</title>
<polygon fill="white" stroke="#bfbfbf" points="379,-0.5 379,-21.5 493,-21.5 493,-0.5 379,-0.5"/>
<text text-anchor="middle" x="436" y="-8.5" font-family="Helvetica,sans-Serif" font-size="10.00">std::vector&lt; TH1D * &gt;</text>
</g>
<!-- Node7&#45;&gt;Node1 -->
<g id="edge12" class="edge"><title>Node7&#45;&gt;Node1</title>
<path fill="none" stroke="#9a32cd" stroke-dasharray="5,2" d="M503.641,-18.2971C539.482,-22.4103 584.207,-27.9342 624,-34 629.841,-34.8904 635.879,-35.8666 641.942,-36.8868"/>
<polygon fill="#9a32cd" stroke="#9a32cd" points="503.632,-14.7736 493.301,-17.1211 502.841,-21.7288 503.632,-14.7736"/>
<text text-anchor="middle" x="581" y="-38" font-family="Helvetica,sans-Serif" font-size="10.00"> mult2_split_angles</text>
</g>
</g>
</svg>
