<?xml version="1.0" encoding="UTF-8" standalone="no"?>
<!DOCTYPE svg PUBLIC "-//W3C//DTD SVG 1.1//EN"
 "http://www.w3.org/Graphics/SVG/1.1/DTD/svg11.dtd">
<!-- Generated by graphviz version 2.26.3 (20100126.1600)
 -->
<!-- Title: ant::analysis::physics::OmegaEtaG2::particleCuts_t Pages: 1 -->
<svg width="156pt" height="188pt"
 viewBox="0.00 0.00 156.00 188.00" xmlns="http://www.w3.org/2000/svg" xmlns:xlink="http://www.w3.org/1999/xlink">
<g id="graph1" class="graph" transform="scale(1 1) rotate(0) translate(4 184)">
<title>ant::analysis::physics::OmegaEtaG2::particleCuts_t</title>
<polygon fill="white" stroke="white" points="-4,5 -4,-184 153,-184 153,5 -4,5"/>
<!-- Node1 -->
<g id="node1" class="node"><title>Node1</title>
<polygon fill="#bfbfbf" stroke="black" points="-0.5,-1 -0.5,-35 148.5,-35 148.5,-1 -0.5,-1"/>
<text text-anchor="start" x="7.5" y="-22" font-family="Helvetica,sans-Serif" font-size="10.00">ant::analysis::physics</text>
<text text-anchor="middle" x="74" y="-9" font-family="Helvetica,sans-Serif" font-size="10.00">::OmegaEtaG2::particleCuts_t</text>
</g>
<!-- Node2 -->
<g id="node2" class="node"><title>Node2</title>
<a xlink:href="classant_1_1interval.html" target="_top" xlink:title="ant::interval\&lt; double \&gt;">
<polygon fill="white" stroke="black" points="17,-98.5 17,-119.5 131,-119.5 131,-98.5 17,-98.5"/>
<text text-anchor="middle" x="74" y="-106.5" font-family="Helvetica,sans-Serif" font-size="10.00">ant::interval&lt; double &gt;</text>
</a>
</g>
<!-- Node2&#45;&gt;Node1 -->
<g id="edge2" class="edge"><title>Node2&#45;&gt;Node1</title>
<path fill="none" stroke="#9a32cd" stroke-dasharray="5,2" d="M74,-87.7551C74,-71.7995 74,-50.2207 74,-35.3088"/>
<polygon fill="#9a32cd" stroke="#9a32cd" points="70.5001,-88.2037 74,-98.2038 77.5001,-88.2038 70.5001,-88.2037"/>
<text text-anchor="middle" x="103" y="-71" font-family="Helvetica,sans-Serif" font-size="10.00"> Theta_range</text>
<text text-anchor="middle" x="103" y="-58" font-family="Helvetica,sans-Serif" font-size="10.00">E_range</text>
</g>
<!-- Node3 -->
<g id="node4" class="node"><title>Node3</title>
<a xlink:href="classant_1_1printable__traits.html" target="_top" xlink:title="ant::printable_traits">
<polygon fill="white" stroke="black" points="24,-158.5 24,-179.5 124,-179.5 124,-158.5 24,-158.5"/>
<text text-anchor="middle" x="74" y="-166.5" font-family="Helvetica,sans-Serif" font-size="10.00">ant::printable_traits</text>
</a>
</g>
<!-- Node3&#45;&gt;Node2 -->
<g id="edge4" class="edge"><title>Node3&#45;&gt;Node2</title>
<path fill="none" stroke="midnightblue" d="M74,-148.231C74,-138.592 74,-127.544 74,-119.634"/>
<polygon fill="midnightblue" stroke="midnightblue" points="70.5001,-148.273 74,-158.273 77.5001,-148.273 70.5001,-148.273"/>
</g>
</g>
</svg>
