<?xml version="1.0" encoding="UTF-8" standalone="no"?>
<!DOCTYPE svg PUBLIC "-//W3C//DTD SVG 1.1//EN"
 "http://www.w3.org/Graphics/SVG/1.1/DTD/svg11.dtd">
<!-- Generated by graphviz version 2.26.3 (20100126.1600)
 -->
<!-- Title: ant::analysis::physics::ReconstructCheck::PositionMapTAPS Pages: 1 -->
<svg width="172pt" height="200pt"
 viewBox="0.00 0.00 172.00 200.00" xmlns="http://www.w3.org/2000/svg" xmlns:xlink="http://www.w3.org/1999/xlink">
<g id="graph1" class="graph" transform="scale(1 1) rotate(0) translate(4 196)">
<title>ant::analysis::physics::ReconstructCheck::PositionMapTAPS</title>
<polygon fill="white" stroke="white" points="-4,5 -4,-196 169,-196 169,5 -4,5"/>
<!-- Node1 -->
<g id="node1" class="node"><title>Node1</title>
<polygon fill="#bfbfbf" stroke="black" points="9,-0.5 9,-47.5 155,-47.5 155,-0.5 9,-0.5"/>
<text text-anchor="start" x="17" y="-34.5" font-family="Helvetica,sans-Serif" font-size="10.00">ant::analysis::physics</text>
<text text-anchor="start" x="17" y="-21.5" font-family="Helvetica,sans-Serif" font-size="10.00">::ReconstructCheck::Position</text>
<text text-anchor="middle" x="82" y="-8.5" font-family="Helvetica,sans-Serif" font-size="10.00">MapTAPS</text>
</g>
<!-- Node2 -->
<g id="node2" class="node"><title>Node2</title>
<a xlink:href="structant_1_1analysis_1_1physics_1_1_reconstruct_check_1_1_position_map.html" target="_top" xlink:title="ant::analysis::physics\l::ReconstructCheck::PositionMap">
<polygon fill="white" stroke="black" points="0,-85 0,-119 164,-119 164,-85 0,-85"/>
<text text-anchor="start" x="8" y="-106" font-family="Helvetica,sans-Serif" font-size="10.00">ant::analysis::physics</text>
<text text-anchor="middle" x="82" y="-93" font-family="Helvetica,sans-Serif" font-size="10.00">::ReconstructCheck::PositionMap</text>
</a>
</g>
<!-- Node2&#45;&gt;Node1 -->
<g id="edge2" class="edge"><title>Node2&#45;&gt;Node1</title>
<path fill="none" stroke="midnightblue" d="M82,-74.5793C82,-65.8339 82,-56.2342 82,-47.77"/>
<polygon fill="midnightblue" stroke="midnightblue" points="78.5001,-74.6892 82,-84.6893 85.5001,-74.6893 78.5001,-74.6892"/>
</g>
<!-- Node3 -->
<g id="node4" class="node"><title>Node3</title>
<a xlink:href="classant_1_1root__drawable__traits.html" target="_top" xlink:title="ant::root_drawable\l_traits">
<polygon fill="white" stroke="black" points="33.5,-157 33.5,-191 130.5,-191 130.5,-157 33.5,-157"/>
<text text-anchor="start" x="41.5" y="-178" font-family="Helvetica,sans-Serif" font-size="10.00">ant::root_drawable</text>
<text text-anchor="middle" x="82" y="-165" font-family="Helvetica,sans-Serif" font-size="10.00">_traits</text>
</a>
</g>
<!-- Node3&#45;&gt;Node2 -->
<g id="edge4" class="edge"><title>Node3&#45;&gt;Node2</title>
<path fill="none" stroke="midnightblue" d="M82,-146.719C82,-137.572 82,-127.625 82,-119.441"/>
<polygon fill="midnightblue" stroke="midnightblue" points="78.5001,-146.937 82,-156.937 85.5001,-146.937 78.5001,-146.937"/>
</g>
</g>
</svg>
