<?xml version="1.0" encoding="UTF-8" standalone="no"?>
<!DOCTYPE svg PUBLIC "-//W3C//DTD SVG 1.1//EN"
 "http://www.w3.org/Graphics/SVG/1.1/DTD/svg11.dtd">
<!-- Generated by graphviz version 2.26.3 (20100126.1600)
 -->
<!-- Title: ant::analysis::physics::ReconstructCheck::PositionMapCB Pages: 1 -->
<svg width="186pt" height="188pt"
 viewBox="0.00 0.00 186.00 188.00" xmlns="http://www.w3.org/2000/svg" xmlns:xlink="http://www.w3.org/1999/xlink">
<g id="graph1" class="graph" transform="scale(1 1) rotate(0) translate(4 184)">
<title>ant::analysis::physics::ReconstructCheck::PositionMapCB</title>
<polygon fill="white" stroke="white" points="-4,5 -4,-184 183,-184 183,5 -4,5"/>
<!-- Node1 -->
<g id="node1" class="node"><title>Node1</title>
<polygon fill="#bfbfbf" stroke="black" points="-0.5,-1 -0.5,-35 178.5,-35 178.5,-1 -0.5,-1"/>
<text text-anchor="start" x="7.5" y="-22" font-family="Helvetica,sans-Serif" font-size="10.00">ant::analysis::physics</text>
<text text-anchor="middle" x="89" y="-9" font-family="Helvetica,sans-Serif" font-size="10.00">::ReconstructCheck::PositionMapCB</text>
</g>
<!-- Node2 -->
<g id="node2" class="node"><title>Node2</title>
<a xlink:href="structant_1_1analysis_1_1physics_1_1_reconstruct_check_1_1_position_map.html" target="_top" xlink:title="ant::analysis::physics\l::ReconstructCheck::PositionMap">
<polygon fill="white" stroke="black" points="7,-73 7,-107 171,-107 171,-73 7,-73"/>
<text text-anchor="start" x="15" y="-94" font-family="Helvetica,sans-Serif" font-size="10.00">ant::analysis::physics</text>
<text text-anchor="middle" x="89" y="-81" font-family="Helvetica,sans-Serif" font-size="10.00">::ReconstructCheck::PositionMap</text>
</a>
</g>
<!-- Node2&#45;&gt;Node1 -->
<g id="edge2" class="edge"><title>Node2&#45;&gt;Node1</title>
<path fill="none" stroke="midnightblue" d="M89,-62.7193C89,-53.572 89,-43.6255 89,-35.4407"/>
<polygon fill="midnightblue" stroke="midnightblue" points="85.5001,-62.937 89,-72.937 92.5001,-62.937 85.5001,-62.937"/>
</g>
<!-- Node3 -->
<g id="node4" class="node"><title>Node3</title>
<a xlink:href="classant_1_1root__drawable__traits.html" target="_top" xlink:title="ant::root_drawable\l_traits">
<polygon fill="white" stroke="black" points="40.5,-145 40.5,-179 137.5,-179 137.5,-145 40.5,-145"/>
<text text-anchor="start" x="48.5" y="-166" font-family="Helvetica,sans-Serif" font-size="10.00">ant::root_drawable</text>
<text text-anchor="middle" x="89" y="-153" font-family="Helvetica,sans-Serif" font-size="10.00">_traits</text>
</a>
</g>
<!-- Node3&#45;&gt;Node2 -->
<g id="edge4" class="edge"><title>Node3&#45;&gt;Node2</title>
<path fill="none" stroke="midnightblue" d="M89,-134.719C89,-125.572 89,-115.625 89,-107.441"/>
<polygon fill="midnightblue" stroke="midnightblue" points="85.5001,-134.937 89,-144.937 92.5001,-134.937 85.5001,-134.937"/>
</g>
</g>
</svg>
