<?xml version="1.0" encoding="UTF-8" standalone="no"?>
<!DOCTYPE svg PUBLIC "-//W3C//DTD SVG 1.1//EN"
 "http://www.w3.org/Graphics/SVG/1.1/DTD/svg11.dtd">
<!-- Generated by graphviz version 2.26.3 (20100126.1600)
 -->
<!-- Title: ant::calibration::Energy::GUI_CalibType Pages: 1 -->
<svg width="248pt" height="188pt"
 viewBox="0.00 0.00 248.00 188.00" xmlns="http://www.w3.org/2000/svg" xmlns:xlink="http://www.w3.org/1999/xlink">
<g id="graph1" class="graph" transform="scale(1 1) rotate(0) translate(4 184)">
<title>ant::calibration::Energy::GUI_CalibType</title>
<polygon fill="white" stroke="white" points="-4,5 -4,-184 245,-184 245,5 -4,5"/>
<!-- Node1 -->
<g id="node1" class="node"><title>Node1</title>
<polygon fill="#bfbfbf" stroke="black" points="58.5,-73 58.5,-107 175.5,-107 175.5,-73 58.5,-73"/>
<text text-anchor="start" x="66.5" y="-94" font-family="Helvetica,sans-Serif" font-size="10.00">ant::calibration::Energy</text>
<text text-anchor="middle" x="117" y="-81" font-family="Helvetica,sans-Serif" font-size="10.00">::GUI_CalibType</text>
</g>
<!-- Node3 -->
<g id="node5" class="node"><title>Node3</title>
<a xlink:href="structant_1_1calibration_1_1_c_b___energy_1_1_g_u_i___gains.html" target="_top" xlink:title="ant::calibration::CB\l_Energy::GUI_Gains">
<polygon fill="white" stroke="black" points="-0.5,-1 -0.5,-35 106.5,-35 106.5,-1 -0.5,-1"/>
<text text-anchor="start" x="7.5" y="-22" font-family="Helvetica,sans-Serif" font-size="10.00">ant::calibration::CB</text>
<text text-anchor="middle" x="53" y="-9" font-family="Helvetica,sans-Serif" font-size="10.00">_Energy::GUI_Gains</text>
</a>
</g>
<!-- Node1&#45;&gt;Node3 -->
<g id="edge4" class="edge"><title>Node1&#45;&gt;Node3</title>
<path fill="none" stroke="midnightblue" d="M95.1143,-65.3785C86.3644,-55.5349 76.4899,-44.4262 68.5028,-35.4407"/>
<polygon fill="midnightblue" stroke="midnightblue" points="92.5733,-67.7882 101.833,-72.937 97.8052,-63.1376 92.5733,-67.7882"/>
</g>
<!-- Node4 -->
<g id="node7" class="node"><title>Node4</title>
<a xlink:href="structant_1_1calibration_1_1_energy_1_1_g_u_i___pedestals.html" target="_top" xlink:title="ant::calibration::Energy\l::GUI_Pedestals">
<polygon fill="white" stroke="black" points="123.5,-1 123.5,-35 240.5,-35 240.5,-1 123.5,-1"/>
<text text-anchor="start" x="131.5" y="-22" font-family="Helvetica,sans-Serif" font-size="10.00">ant::calibration::Energy</text>
<text text-anchor="middle" x="182" y="-9" font-family="Helvetica,sans-Serif" font-size="10.00">::GUI_Pedestals</text>
</a>
</g>
<!-- Node1&#45;&gt;Node4 -->
<g id="edge6" class="edge"><title>Node1&#45;&gt;Node4</title>
<path fill="none" stroke="midnightblue" d="M139.228,-65.3785C148.114,-55.5349 158.143,-44.4262 166.255,-35.4407"/>
<polygon fill="midnightblue" stroke="midnightblue" points="136.507,-63.1689 132.404,-72.937 141.703,-67.8597 136.507,-63.1689"/>
</g>
<!-- Node2 -->
<g id="node2" class="node"><title>Node2</title>
<a xlink:href="classant_1_1calibration_1_1gui_1_1_manager__traits.html" target="_top" xlink:title="ant::calibration::gui\l::Manager_traits">
<polygon fill="white" stroke="black" points="67.5,-145 67.5,-179 166.5,-179 166.5,-145 67.5,-145"/>
<text text-anchor="start" x="75.5" y="-166" font-family="Helvetica,sans-Serif" font-size="10.00">ant::calibration::gui</text>
<text text-anchor="middle" x="117" y="-153" font-family="Helvetica,sans-Serif" font-size="10.00">::Manager_traits</text>
</a>
</g>
<!-- Node2&#45;&gt;Node1 -->
<g id="edge2" class="edge"><title>Node2&#45;&gt;Node1</title>
<path fill="none" stroke="midnightblue" d="M117,-134.719C117,-125.572 117,-115.625 117,-107.441"/>
<polygon fill="midnightblue" stroke="midnightblue" points="113.5,-134.937 117,-144.937 120.5,-134.937 113.5,-134.937"/>
</g>
</g>
</svg>
