<?xml version="1.0" encoding="UTF-8" standalone="no"?>
<!DOCTYPE svg PUBLIC "-//W3C//DTD SVG 1.1//EN"
 "http://www.w3.org/Graphics/SVG/1.1/DTD/svg11.dtd">
<!-- Generated by graphviz version 2.26.3 (20100126.1600)
 -->
<!-- Title: ant::analysis::physics::ReconstructCheck::PositionMap Pages: 1 -->
<svg width="522pt" height="108pt"
 viewBox="0.00 0.00 522.00 108.00" xmlns="http://www.w3.org/2000/svg" xmlns:xlink="http://www.w3.org/1999/xlink">
<g id="graph1" class="graph" transform="scale(1 1) rotate(0) translate(4 104)">
<title>ant::analysis::physics::ReconstructCheck::PositionMap</title>
<polygon fill="white" stroke="white" points="-4,5 -4,-104 519,-104 519,5 -4,5"/>
<!-- Node1 -->
<g id="node1" class="node"><title>Node1</title>
<polygon fill="#bfbfbf" stroke="black" points="134,-36 134,-70 298,-70 298,-36 134,-36"/>
<text text-anchor="start" x="142" y="-57" font-family="Helvetica,sans-Serif" font-size="10.00">ant::analysis::physics</text>
<text text-anchor="middle" x="216" y="-44" font-family="Helvetica,sans-Serif" font-size="10.00">::ReconstructCheck::PositionMap</text>
</g>
<!-- Node3 -->
<g id="node5" class="node"><title>Node3</title>
<a xlink:href="structant_1_1analysis_1_1physics_1_1_reconstruct_check_1_1_position_map_c_b.html" target="_top" xlink:title="ant::analysis::physics\l::ReconstructCheck::PositionMapCB">
<polygon fill="white" stroke="black" points="334.5,-66 334.5,-100 513.5,-100 513.5,-66 334.5,-66"/>
<text text-anchor="start" x="342.5" y="-87" font-family="Helvetica,sans-Serif" font-size="10.00">ant::analysis::physics</text>
<text text-anchor="middle" x="424" y="-74" font-family="Helvetica,sans-Serif" font-size="10.00">::ReconstructCheck::PositionMapCB</text>
</a>
</g>
<!-- Node1&#45;&gt;Node3 -->
<g id="edge4" class="edge"><title>Node1&#45;&gt;Node3</title>
<path fill="none" stroke="midnightblue" d="M308.25,-66.3053C316.86,-67.5472 325.579,-68.8047 334.167,-70.0433"/>
<polygon fill="midnightblue" stroke="midnightblue" points="308.604,-62.8203 298.207,-64.8568 307.605,-69.7486 308.604,-62.8203"/>
</g>
<!-- Node4 -->
<g id="node7" class="node"><title>Node4</title>
<a xlink:href="structant_1_1analysis_1_1physics_1_1_reconstruct_check_1_1_position_map_t_a_p_s.html" target="_top" xlink:title="ant::analysis::physics\l::ReconstructCheck::Position\lMapTAPS">
<polygon fill="white" stroke="black" points="351,-0.5 351,-47.5 497,-47.5 497,-0.5 351,-0.5"/>
<text text-anchor="start" x="359" y="-34.5" font-family="Helvetica,sans-Serif" font-size="10.00">ant::analysis::physics</text>
<text text-anchor="start" x="359" y="-21.5" font-family="Helvetica,sans-Serif" font-size="10.00">::ReconstructCheck::Position</text>
<text text-anchor="middle" x="424" y="-8.5" font-family="Helvetica,sans-Serif" font-size="10.00">MapTAPS</text>
</a>
</g>
<!-- Node1&#45;&gt;Node4 -->
<g id="edge6" class="edge"><title>Node1&#45;&gt;Node4</title>
<path fill="none" stroke="midnightblue" d="M308.469,-40.1077C322.653,-38.1301 337.127,-36.1121 350.818,-34.2033"/>
<polygon fill="midnightblue" stroke="midnightblue" points="307.628,-36.691 298.207,-41.5384 308.595,-43.6239 307.628,-36.691"/>
</g>
<!-- Node2 -->
<g id="node2" class="node"><title>Node2</title>
<a xlink:href="classant_1_1root__drawable__traits.html" target="_top" xlink:title="ant::root_drawable\l_traits">
<polygon fill="white" stroke="black" points="0.5,-36 0.5,-70 97.5,-70 97.5,-36 0.5,-36"/>
<text text-anchor="start" x="8.5" y="-57" font-family="Helvetica,sans-Serif" font-size="10.00">ant::root_drawable</text>
<text text-anchor="middle" x="49" y="-44" font-family="Helvetica,sans-Serif" font-size="10.00">_traits</text>
</a>
</g>
<!-- Node2&#45;&gt;Node1 -->
<g id="edge2" class="edge"><title>Node2&#45;&gt;Node1</title>
<path fill="none" stroke="midnightblue" d="M107.839,-53C116.281,-53 125.091,-53 133.882,-53"/>
<polygon fill="midnightblue" stroke="midnightblue" points="107.752,-49.5001 97.7522,-53 107.752,-56.5001 107.752,-49.5001"/>
</g>
</g>
</svg>
