<?xml version="1.0" encoding="UTF-8" standalone="no"?>
<!DOCTYPE svg PUBLIC "-//W3C//DTD SVG 1.1//EN"
 "http://www.w3.org/Graphics/SVG/1.1/DTD/svg11.dtd">
<!-- Generated by graphviz version 2.26.3 (20100126.1600)
 -->
<!-- Title: CutStream Pages: 1 -->
<svg width="222pt" height="420pt"
 viewBox="0.00 0.00 222.00 420.00" xmlns="http://www.w3.org/2000/svg" xmlns:xlink="http://www.w3.org/1999/xlink">
<g id="graph1" class="graph" transform="scale(1 1) rotate(0) translate(4 416)">
<title>CutStream</title>
<polygon fill="white" stroke="white" points="-4,5 -4,-416 219,-416 219,5 -4,5"/>
<!-- Node1 -->
<g id="node1" class="node"><title>Node1</title>
<polygon fill="#bfbfbf" stroke="black" points="74,-0.5 74,-21.5 138,-21.5 138,-0.5 74,-0.5"/>
<text text-anchor="middle" x="106" y="-8.5" font-family="Helvetica,sans-Serif" font-size="10.00">CutStream</text>
</g>
<!-- Node2 -->
<g id="node2" class="node"><title>Node2</title>
<a xlink:title="STL class. ">
<polygon fill="white" stroke="#bfbfbf" points="61,-58.5 61,-79.5 151,-79.5 151,-58.5 61,-58.5"/>
<text text-anchor="middle" x="106" y="-66.5" font-family="Helvetica,sans-Serif" font-size="10.00">std::stringstream</text>
</a>
</g>
<!-- Node2&#45;&gt;Node1 -->
<g id="edge2" class="edge"><title>Node2&#45;&gt;Node1</title>
<path fill="none" stroke="midnightblue" d="M106,-48.1906C106,-39.1684 106,-28.9941 106,-21.5707"/>
<polygon fill="midnightblue" stroke="midnightblue" points="102.5,-48.3619 106,-58.3619 109.5,-48.3619 102.5,-48.3619"/>
</g>
<!-- Node3 -->
<g id="node4" class="node"><title>Node3</title>
<a xlink:title="STL class. ">
<polygon fill="white" stroke="#bfbfbf" points="46.5,-117 46.5,-151 165.5,-151 165.5,-117 46.5,-117"/>
<text text-anchor="start" x="54.5" y="-138" font-family="Helvetica,sans-Serif" font-size="10.00">std::basic_stringstream</text>
<text text-anchor="middle" x="106" y="-125" font-family="Helvetica,sans-Serif" font-size="10.00">&lt; char &gt;</text>
</a>
</g>
<!-- Node3&#45;&gt;Node2 -->
<g id="edge4" class="edge"><title>Node3&#45;&gt;Node2</title>
<path fill="none" stroke="midnightblue" d="M106,-106.688C106,-97.2415 106,-87.1949 106,-79.8521"/>
<polygon fill="midnightblue" stroke="midnightblue" points="102.5,-106.922 106,-116.922 109.5,-106.922 102.5,-106.922"/>
</g>
<!-- Node4 -->
<g id="node6" class="node"><title>Node4</title>
<a xlink:title="STL class. ">
<polygon fill="white" stroke="#bfbfbf" points="55,-189 55,-223 157,-223 157,-189 55,-189"/>
<text text-anchor="start" x="63" y="-210" font-family="Helvetica,sans-Serif" font-size="10.00">std::basic_iostream</text>
<text text-anchor="middle" x="106" y="-197" font-family="Helvetica,sans-Serif" font-size="10.00">&lt; Char &gt;</text>
</a>
</g>
<!-- Node4&#45;&gt;Node3 -->
<g id="edge6" class="edge"><title>Node4&#45;&gt;Node3</title>
<path fill="none" stroke="midnightblue" d="M106,-178.719C106,-169.572 106,-159.625 106,-151.441"/>
<polygon fill="midnightblue" stroke="midnightblue" points="102.5,-178.937 106,-188.937 109.5,-178.937 102.5,-178.937"/>
</g>
<!-- Node5 -->
<g id="node8" class="node"><title>Node5</title>
<a xlink:title="STL class. ">
<polygon fill="white" stroke="#bfbfbf" points="-0.5,-261 -0.5,-295 96.5,-295 96.5,-261 -0.5,-261"/>
<text text-anchor="start" x="7.5" y="-282" font-family="Helvetica,sans-Serif" font-size="10.00">std::basic_istream</text>
<text text-anchor="middle" x="48" y="-269" font-family="Helvetica,sans-Serif" font-size="10.00">&lt; Char &gt;</text>
</a>
</g>
<!-- Node5&#45;&gt;Node4 -->
<g id="edge8" class="edge"><title>Node5&#45;&gt;Node4</title>
<path fill="none" stroke="midnightblue" d="M68.0698,-253.086C75.9406,-243.315 84.7839,-232.337 91.9506,-223.441"/>
<polygon fill="midnightblue" stroke="midnightblue" points="65.2929,-250.954 61.7452,-260.937 70.7442,-255.345 65.2929,-250.954"/>
</g>
<!-- Node6 -->
<g id="node10" class="node"><title>Node6</title>
<a xlink:title="STL class. ">
<polygon fill="white" stroke="#bfbfbf" points="48,-332.5 48,-353.5 164,-353.5 164,-332.5 48,-332.5"/>
<text text-anchor="middle" x="106" y="-340.5" font-family="Helvetica,sans-Serif" font-size="10.00">std::basic_ios&lt; Char &gt;</text>
</a>
</g>
<!-- Node6&#45;&gt;Node5 -->
<g id="edge10" class="edge"><title>Node6&#45;&gt;Node5</title>
<path fill="none" stroke="midnightblue" d="M89.6767,-324.707C81.3947,-315.425 71.3953,-304.219 63.2673,-295.11"/>
<polygon fill="midnightblue" stroke="midnightblue" points="87.1531,-327.135 96.4225,-332.267 92.3761,-322.475 87.1531,-327.135"/>
</g>
<!-- Node8 -->
<g id="node14" class="node"><title>Node8</title>
<a xlink:title="STL class. ">
<polygon fill="white" stroke="#bfbfbf" points="114,-261 114,-295 214,-295 214,-261 114,-261"/>
<text text-anchor="start" x="122" y="-282" font-family="Helvetica,sans-Serif" font-size="10.00">std::basic_ostream</text>
<text text-anchor="middle" x="164" y="-269" font-family="Helvetica,sans-Serif" font-size="10.00">&lt; Char &gt;</text>
</a>
</g>
<!-- Node6&#45;&gt;Node8 -->
<g id="edge16" class="edge"><title>Node6&#45;&gt;Node8</title>
<path fill="none" stroke="midnightblue" d="M122.323,-324.707C130.605,-315.425 140.605,-304.219 148.733,-295.11"/>
<polygon fill="midnightblue" stroke="midnightblue" points="119.624,-322.475 115.578,-332.267 124.847,-327.135 119.624,-322.475"/>
</g>
<!-- Node7 -->
<g id="node12" class="node"><title>Node7</title>
<a xlink:title="STL class. ">
<polygon fill="white" stroke="#bfbfbf" points="68.5,-390.5 68.5,-411.5 143.5,-411.5 143.5,-390.5 68.5,-390.5"/>
<text text-anchor="middle" x="106" y="-398.5" font-family="Helvetica,sans-Serif" font-size="10.00">std::ios_base</text>
</a>
</g>
<!-- Node7&#45;&gt;Node6 -->
<g id="edge12" class="edge"><title>Node7&#45;&gt;Node6</title>
<path fill="none" stroke="midnightblue" d="M106,-380.191C106,-371.168 106,-360.994 106,-353.571"/>
<polygon fill="midnightblue" stroke="midnightblue" points="102.5,-380.362 106,-390.362 109.5,-380.362 102.5,-380.362"/>
</g>
<!-- Node8&#45;&gt;Node4 -->
<g id="edge14" class="edge"><title>Node8&#45;&gt;Node4</title>
<path fill="none" stroke="midnightblue" d="M143.93,-253.086C136.059,-243.315 127.216,-232.337 120.049,-223.441"/>
<polygon fill="midnightblue" stroke="midnightblue" points="141.256,-255.345 150.255,-260.937 146.707,-250.954 141.256,-255.345"/>
</g>
</g>
</svg>
