<?xml version="1.0" encoding="UTF-8" standalone="no"?>
<!DOCTYPE svg PUBLIC "-//W3C//DTD SVG 1.1//EN"
 "http://www.w3.org/Graphics/SVG/1.1/DTD/svg11.dtd">
<!-- Generated by graphviz version 2.26.3 (20100126.1600)
 -->
<!-- Title: ant::analysis::physics::OmegaEtaG2::mParticleVars Pages: 1 -->
<svg width="156pt" height="116pt"
 viewBox="0.00 0.00 156.00 116.00" xmlns="http://www.w3.org/2000/svg" xmlns:xlink="http://www.w3.org/1999/xlink">
<g id="graph1" class="graph" transform="scale(1 1) rotate(0) translate(4 112)">
<title>ant::analysis::physics::OmegaEtaG2::mParticleVars</title>
<polygon fill="white" stroke="white" points="-4,5 -4,-112 153,-112 153,5 -4,5"/>
<!-- Node1 -->
<g id="node1" class="node"><title>Node1</title>
<polygon fill="#bfbfbf" stroke="black" points="-0.5,-1 -0.5,-35 148.5,-35 148.5,-1 -0.5,-1"/>
<text text-anchor="start" x="7.5" y="-22" font-family="Helvetica,sans-Serif" font-size="10.00">ant::analysis::physics</text>
<text text-anchor="middle" x="74" y="-9" font-family="Helvetica,sans-Serif" font-size="10.00">::OmegaEtaG2::mParticleVars</text>
</g>
<!-- Node2 -->
<g id="node2" class="node"><title>Node2</title>
<a xlink:href="structant_1_1analysis_1_1utils_1_1_particle_vars.html" target="_top" xlink:title="ant::analysis::utils\l::ParticleVars">
<polygon fill="white" stroke="black" points="26,-73 26,-107 122,-107 122,-73 26,-73"/>
<text text-anchor="start" x="34" y="-94" font-family="Helvetica,sans-Serif" font-size="10.00">ant::analysis::utils</text>
<text text-anchor="middle" x="74" y="-81" font-family="Helvetica,sans-Serif" font-size="10.00">::ParticleVars</text>
</a>
</g>
<!-- Node2&#45;&gt;Node1 -->
<g id="edge2" class="edge"><title>Node2&#45;&gt;Node1</title>
<path fill="none" stroke="midnightblue" d="M74,-62.7193C74,-53.572 74,-43.6255 74,-35.4407"/>
<polygon fill="midnightblue" stroke="midnightblue" points="70.5001,-62.937 74,-72.937 77.5001,-62.937 70.5001,-62.937"/>
</g>
</g>
</svg>
