<?xml version="1.0" encoding="UTF-8" standalone="no"?>
<!DOCTYPE svg PUBLIC "-//W3C//DTD SVG 1.1//EN"
 "http://www.w3.org/Graphics/SVG/1.1/DTD/svg11.dtd">
<!-- Generated by graphviz version 2.26.3 (20100126.1600)
 -->
<!-- Title: ant::analysis::physics::Etap3pi0::result_t Pages: 1 -->
<svg width="276pt" height="130pt"
 viewBox="0.00 0.00 276.00 130.00" xmlns="http://www.w3.org/2000/svg" xmlns:xlink="http://www.w3.org/1999/xlink">
<g id="graph1" class="graph" transform="scale(1 1) rotate(0) translate(4 126)">
<title>ant::analysis::physics::Etap3pi0::result_t</title>
<polygon fill="white" stroke="white" points="-4,5 -4,-126 273,-126 273,5 -4,5"/>
<!-- Node1 -->
<g id="node1" class="node"><title>Node1</title>
<polygon fill="#bfbfbf" stroke="black" points="63,-1 63,-35 175,-35 175,-1 63,-1"/>
<text text-anchor="start" x="71" y="-22" font-family="Helvetica,sans-Serif" font-size="10.00">ant::analysis::physics</text>
<text text-anchor="middle" x="119" y="-9" font-family="Helvetica,sans-Serif" font-size="10.00">::Etap3pi0::result_t</text>
</g>
<!-- Node2 -->
<g id="node2" class="node"><title>Node2</title>
<polygon fill="white" stroke="#bfbfbf" points="-0.5,-87 -0.5,-121 96.5,-121 96.5,-87 -0.5,-87"/>
<text text-anchor="start" x="7.5" y="-108" font-family="Helvetica,sans-Serif" font-size="10.00">std::vector&lt; data::</text>
<text text-anchor="middle" x="48" y="-95" font-family="Helvetica,sans-Serif" font-size="10.00">ParticlePtr &gt;</text>
</g>
<!-- Node2&#45;&gt;Node1 -->
<g id="edge2" class="edge"><title>Node2&#45;&gt;Node1</title>
<path fill="none" stroke="#9a32cd" stroke-dasharray="5,2" d="M68.8592,-78.7339C80.4624,-64.6794 94.5955,-47.5603 104.896,-35.084"/>
<polygon fill="#9a32cd" stroke="#9a32cd" points="66.0354,-76.6568 62.3679,-86.5966 71.4335,-81.1133 66.0354,-76.6568"/>
<text text-anchor="middle" x="104" y="-58.5" font-family="Helvetica,sans-Serif" font-size="10.00"> g_final</text>
</g>
<!-- Node3 -->
<g id="node4" class="node"><title>Node3</title>
<polygon fill="white" stroke="#bfbfbf" points="113.5,-93.5 113.5,-114.5 268.5,-114.5 268.5,-93.5 113.5,-93.5"/>
<text text-anchor="middle" x="191" y="-101.5" font-family="Helvetica,sans-Serif" font-size="10.00">std::vector&lt; MesonCandidate &gt;</text>
</g>
<!-- Node3&#45;&gt;Node1 -->
<g id="edge4" class="edge"><title>Node3&#45;&gt;Node1</title>
<path fill="none" stroke="#9a32cd" stroke-dasharray="5,2" d="M175.461,-85.4392C162.967,-70.5157 145.55,-49.7127 133.376,-35.1709"/>
<polygon fill="#9a32cd" stroke="#9a32cd" points="173.068,-88.0339 182.171,-93.4547 178.436,-83.5403 173.068,-88.0339"/>
<text text-anchor="middle" x="178" y="-58.5" font-family="Helvetica,sans-Serif" font-size="10.00"> mesons</text>
</g>
</g>
</svg>
