<?xml version="1.0" encoding="UTF-8" standalone="no"?>
<!DOCTYPE svg PUBLIC "-//W3C//DTD SVG 1.1//EN"
 "http://www.w3.org/Graphics/SVG/1.1/DTD/svg11.dtd">
<!-- Generated by graphviz version 2.26.3 (20100126.1600)
 -->
<!-- Title: DrawCanvas::Viewport Pages: 1 -->
<svg width="126pt" height="174pt"
 viewBox="0.00 0.00 126.00 174.00" xmlns="http://www.w3.org/2000/svg" xmlns:xlink="http://www.w3.org/1999/xlink">
<g id="graph1" class="graph" transform="scale(1 1) rotate(0) translate(4 170)">
<title>DrawCanvas::Viewport</title>
<polygon fill="white" stroke="white" points="-4,5 -4,-170 123,-170 123,5 -4,5"/>
<!-- Node1 -->
<g id="node1" class="node"><title>Node1</title>
<polygon fill="#bfbfbf" stroke="black" points="0,-0.5 0,-21.5 118,-21.5 118,-0.5 0,-0.5"/>
<text text-anchor="middle" x="59" y="-8.5" font-family="Helvetica,sans-Serif" font-size="10.00">DrawCanvas::Viewport</text>
</g>
<!-- Node2 -->
<g id="node2" class="node"><title>Node2</title>
<a xlink:href="classant_1_1interval.html" target="_top" xlink:title="ant::interval\&lt; double \&gt;">
<polygon fill="white" stroke="black" points="2,-84.5 2,-105.5 116,-105.5 116,-84.5 2,-84.5"/>
<text text-anchor="middle" x="59" y="-92.5" font-family="Helvetica,sans-Serif" font-size="10.00">ant::interval&lt; double &gt;</text>
</a>
</g>
<!-- Node2&#45;&gt;Node1 -->
<g id="edge2" class="edge"><title>Node2&#45;&gt;Node1</title>
<path fill="none" stroke="#9a32cd" stroke-dasharray="5,2" d="M59,-73.9452C59,-57.2568 59,-34.6387 59,-21.5523"/>
<polygon fill="#9a32cd" stroke="#9a32cd" points="55.5001,-74.3613 59,-84.3613 62.5001,-74.3614 55.5001,-74.3613"/>
<text text-anchor="middle" x="63.5" y="-57" font-family="Helvetica,sans-Serif" font-size="10.00"> x</text>
<text text-anchor="middle" x="63.5" y="-44" font-family="Helvetica,sans-Serif" font-size="10.00">y</text>
</g>
<!-- Node3 -->
<g id="node4" class="node"><title>Node3</title>
<a xlink:href="classant_1_1printable__traits.html" target="_top" xlink:title="ant::printable_traits">
<polygon fill="white" stroke="black" points="9,-144.5 9,-165.5 109,-165.5 109,-144.5 9,-144.5"/>
<text text-anchor="middle" x="59" y="-152.5" font-family="Helvetica,sans-Serif" font-size="10.00">ant::printable_traits</text>
</a>
</g>
<!-- Node3&#45;&gt;Node2 -->
<g id="edge4" class="edge"><title>Node3&#45;&gt;Node2</title>
<path fill="none" stroke="midnightblue" d="M59,-134.231C59,-124.592 59,-113.544 59,-105.634"/>
<polygon fill="midnightblue" stroke="midnightblue" points="55.5001,-134.273 59,-144.273 62.5001,-134.273 55.5001,-134.273"/>
</g>
</g>
</svg>
