<?xml version="1.0" encoding="UTF-8" standalone="no"?>
<!DOCTYPE svg PUBLIC "-//W3C//DTD SVG 1.1//EN"
 "http://www.w3.org/Graphics/SVG/1.1/DTD/svg11.dtd">
<!-- Generated by graphviz version 2.26.3 (20100126.1600)
 -->
<!-- Title: src/base/std_ext/system.h Pages: 1 -->
<svg width="756pt" height="102pt"
 viewBox="0.00 0.00 756.00 102.00" xmlns="http://www.w3.org/2000/svg" xmlns:xlink="http://www.w3.org/1999/xlink">
<g id="graph1" class="graph" transform="scale(1 1) rotate(0) translate(4 98)">
<title>src/base/std_ext/system.h</title>
<polygon fill="white" stroke="white" points="-4,5 -4,-98 753,-98 753,5 -4,5"/>
<!-- Node1 -->
<g id="node1" class="node"><title>Node1</title>
<polygon fill="#bfbfbf" stroke="black" points="249.5,-72.5 249.5,-93.5 382.5,-93.5 382.5,-72.5 249.5,-72.5"/>
<text text-anchor="middle" x="316" y="-80.5" font-family="Helvetica,sans-Serif" font-size="10.00">src/base/std_ext/system.h</text>
</g>
<!-- Node2 -->
<g id="node3" class="node"><title>Node2</title>
<a xlink:href="_ant_8cc.html" target="_top" xlink:title="Main Ant executable. ">
<polygon fill="white" stroke="black" points="0,-7.5 0,-28.5 72,-28.5 72,-7.5 0,-7.5"/>
<text text-anchor="middle" x="36" y="-15.5" font-family="Helvetica,sans-Serif" font-size="10.00">progs/Ant.cc</text>
</a>
</g>
<!-- Node1&#45;&gt;Node2 -->
<g id="edge2" class="edge"><title>Node1&#45;&gt;Node2</title>
<path fill="none" stroke="midnightblue" d="M239.391,-71.3304C193.032,-63.3701 133.018,-51.4633 81,-36 74.0637,-33.938 66.7093,-31.2301 60.0005,-28.5429"/>
<polygon fill="midnightblue" stroke="midnightblue" points="238.923,-74.8009 249.367,-73.0188 240.091,-67.899 238.923,-74.8009"/>
</g>
<!-- Node3 -->
<g id="node5" class="node"><title>Node3</title>
<a xlink:href="_particle_i_d_8cc.html" target="_top" xlink:title="src/analysis/utils\l/ParticleID.cc">
<polygon fill="white" stroke="black" points="90,-1 90,-35 180,-35 180,-1 90,-1"/>
<text text-anchor="start" x="98" y="-22" font-family="Helvetica,sans-Serif" font-size="10.00">src/analysis/utils</text>
<text text-anchor="middle" x="135" y="-9" font-family="Helvetica,sans-Serif" font-size="10.00">/ParticleID.cc</text>
</a>
</g>
<!-- Node1&#45;&gt;Node3 -->
<g id="edge4" class="edge"><title>Node1&#45;&gt;Node3</title>
<path fill="none" stroke="midnightblue" d="M276.903,-68.9595C248.438,-58.7374 209.823,-44.8702 180.061,-34.1823"/>
<polygon fill="midnightblue" stroke="midnightblue" points="275.922,-72.3261 286.516,-72.412 278.288,-65.738 275.922,-72.3261"/>
</g>
<!-- Node4 -->
<g id="node7" class="node"><title>Node4</title>
<a xlink:href="_git_info_8cc.html" target="_top" xlink:title="src/base/GitInfo.cc">
<polygon fill="white" stroke="black" points="198,-7.5 198,-28.5 298,-28.5 298,-7.5 198,-7.5"/>
<text text-anchor="middle" x="248" y="-15.5" font-family="Helvetica,sans-Serif" font-size="10.00">src/base/GitInfo.cc</text>
</a>
</g>
<!-- Node1&#45;&gt;Node4 -->
<g id="edge6" class="edge"><title>Node1&#45;&gt;Node4</title>
<path fill="none" stroke="midnightblue" d="M297.273,-65.0992C284.988,-53.3566 269.346,-38.4043 259.02,-28.5337"/>
<polygon fill="midnightblue" stroke="midnightblue" points="295.124,-67.8868 304.771,-72.2666 299.961,-62.8267 295.124,-67.8868"/>
</g>
<!-- Node5 -->
<g id="node9" class="node"><title>Node5</title>
<a xlink:href="system_8cc.html" target="_top" xlink:title="src/base/std_ext/system.cc">
<polygon fill="white" stroke="black" points="316,-7.5 316,-28.5 454,-28.5 454,-7.5 316,-7.5"/>
<text text-anchor="middle" x="385" y="-15.5" font-family="Helvetica,sans-Serif" font-size="10.00">src/base/std_ext/system.cc</text>
</a>
</g>
<!-- Node1&#45;&gt;Node5 -->
<g id="edge8" class="edge"><title>Node1&#45;&gt;Node5</title>
<path fill="none" stroke="midnightblue" d="M335.002,-65.0992C347.468,-53.3566 363.34,-38.4043 373.818,-28.5337"/>
<polygon fill="midnightblue" stroke="midnightblue" points="332.273,-62.862 327.394,-72.2666 337.073,-67.9572 332.273,-62.862"/>
</g>
<!-- Node6 -->
<g id="node11" class="node"><title>Node6</title>
<a xlink:href="_data_base_8cc.html" target="_top" xlink:title="src/calibration/DataBase.cc">
<polygon fill="white" stroke="black" points="471.5,-7.5 471.5,-28.5 608.5,-28.5 608.5,-7.5 471.5,-7.5"/>
<text text-anchor="middle" x="540" y="-15.5" font-family="Helvetica,sans-Serif" font-size="10.00">src/calibration/DataBase.cc</text>
</a>
</g>
<!-- Node1&#45;&gt;Node6 -->
<g id="edge10" class="edge"><title>Node1&#45;&gt;Node6</title>
<path fill="none" stroke="midnightblue" d="M362.172,-69.6018C404.053,-57.4488 464.971,-39.7718 503.528,-28.5835"/>
<polygon fill="midnightblue" stroke="midnightblue" points="361.116,-66.2637 352.488,-72.412 363.067,-72.9864 361.116,-66.2637"/>
</g>
<!-- Node7 -->
<g id="node13" class="node"><title>Node7</title>
<a xlink:href="_test_std_ext_8cc.html" target="_top" xlink:title="test/base/TestStdExt.cc">
<polygon fill="white" stroke="black" points="625.5,-7.5 625.5,-28.5 748.5,-28.5 748.5,-7.5 625.5,-7.5"/>
<text text-anchor="middle" x="687" y="-15.5" font-family="Helvetica,sans-Serif" font-size="10.00">test/base/TestStdExt.cc</text>
</a>
</g>
<!-- Node1&#45;&gt;Node7 -->
<g id="edge12" class="edge"><title>Node1&#45;&gt;Node7</title>
<path fill="none" stroke="midnightblue" d="M392.631,-73.1203C453.682,-64.7482 541.188,-51.6279 617,-36 627.323,-33.8719 638.409,-31.2024 648.644,-28.5759"/>
<polygon fill="midnightblue" stroke="midnightblue" points="392.124,-69.657 382.687,-74.474 393.068,-76.593 392.124,-69.657"/>
</g>
</g>
</svg>
