<?xml version="1.0" encoding="UTF-8" standalone="no"?>
<!DOCTYPE svg PUBLIC "-//W3C//DTD SVG 1.1//EN"
 "http://www.w3.org/Graphics/SVG/1.1/DTD/svg11.dtd">
<!-- Generated by graphviz version 2.26.3 (20100126.1600)
 -->
<!-- Title: src/base/tmpfile_t.h Pages: 1 -->
<svg width="1634pt" height="102pt"
 viewBox="0.00 0.00 1634.00 102.00" xmlns="http://www.w3.org/2000/svg" xmlns:xlink="http://www.w3.org/1999/xlink">
<g id="graph1" class="graph" transform="scale(1 1) rotate(0) translate(4 98)">
<title>src/base/tmpfile_t.h</title>
<polygon fill="white" stroke="white" points="-4,5 -4,-98 1631,-98 1631,5 -4,5"/>
<!-- Node1 -->
<g id="node1" class="node"><title>Node1</title>
<polygon fill="#bfbfbf" stroke="black" points="751.5,-72.5 751.5,-93.5 854.5,-93.5 854.5,-72.5 751.5,-72.5"/>
<text text-anchor="middle" x="803" y="-80.5" font-family="Helvetica,sans-Serif" font-size="10.00">src/base/tmpfile_t.h</text>
</g>
<!-- Node2 -->
<g id="node3" class="node"><title>Node2</title>
<a xlink:href="tmpfile__t_8cc.html" target="_top" xlink:title="src/base/tmpfile_t.cc">
<polygon fill="white" stroke="black" points="0,-7.5 0,-28.5 108,-28.5 108,-7.5 0,-7.5"/>
<text text-anchor="middle" x="54" y="-15.5" font-family="Helvetica,sans-Serif" font-size="10.00">src/base/tmpfile_t.cc</text>
</a>
</g>
<!-- Node1&#45;&gt;Node2 -->
<g id="edge2" class="edge"><title>Node1&#45;&gt;Node2</title>
<path fill="none" stroke="midnightblue" d="M741.009,-80.4214C595.614,-74.1037 235.994,-56.8371 117,-36 106.804,-34.2145 95.8958,-31.424 86.0706,-28.5685"/>
<polygon fill="midnightblue" stroke="midnightblue" points="740.959,-83.9224 751.1,-80.8573 741.261,-76.9289 740.959,-83.9224"/>
</g>
<!-- Node3 -->
<g id="node5" class="node"><title>Node3</title>
<a xlink:href="_test_ant_reader_8cc.html" target="_top" xlink:title="test/analysis/TestAntReader.cc">
<polygon fill="white" stroke="black" points="125.5,-7.5 125.5,-28.5 280.5,-28.5 280.5,-7.5 125.5,-7.5"/>
<text text-anchor="middle" x="203" y="-15.5" font-family="Helvetica,sans-Serif" font-size="10.00">test/analysis/TestAntReader.cc</text>
</a>
</g>
<!-- Node1&#45;&gt;Node3 -->
<g id="edge4" class="edge"><title>Node1&#45;&gt;Node3</title>
<path fill="none" stroke="midnightblue" d="M741.136,-79.6504C644.311,-73.8894 451.242,-60.314 289,-36 275.725,-34.0105 261.414,-31.2619 248.348,-28.511"/>
<polygon fill="midnightblue" stroke="midnightblue" points="741.143,-83.1568 751.331,-80.2492 741.554,-76.1688 741.143,-83.1568"/>
</g>
<!-- Node4 -->
<g id="node7" class="node"><title>Node4</title>
<a xlink:href="_test_physics_manager_8cc.html" target="_top" xlink:title="test/analysis/TestPhysics\lManager.cc">
<polygon fill="white" stroke="black" points="298,-1 298,-35 428,-35 428,-1 298,-1"/>
<text text-anchor="start" x="306" y="-22" font-family="Helvetica,sans-Serif" font-size="10.00">test/analysis/TestPhysics</text>
<text text-anchor="middle" x="363" y="-9" font-family="Helvetica,sans-Serif" font-size="10.00">Manager.cc</text>
</a>
</g>
<!-- Node1&#45;&gt;Node4 -->
<g id="edge6" class="edge"><title>Node1&#45;&gt;Node4</title>
<path fill="none" stroke="midnightblue" d="M741.248,-77.1813C668.226,-69.8143 543.186,-55.6698 437,-36 434.14,-35.4702 431.225,-34.8985 428.285,-34.2961"/>
<polygon fill="midnightblue" stroke="midnightblue" points="740.9,-80.664 751.199,-78.1757 741.596,-73.6987 740.9,-80.664"/>
</g>
<!-- Node5 -->
<g id="node9" class="node"><title>Node5</title>
<a xlink:href="_test_physics_registry_8cc.html" target="_top" xlink:title="test/analysis/TestPhysics\lRegistry.cc">
<polygon fill="white" stroke="black" points="446,-1 446,-35 576,-35 576,-1 446,-1"/>
<text text-anchor="start" x="454" y="-22" font-family="Helvetica,sans-Serif" font-size="10.00">test/analysis/TestPhysics</text>
<text text-anchor="middle" x="511" y="-9" font-family="Helvetica,sans-Serif" font-size="10.00">Registry.cc</text>
</a>
</g>
<!-- Node1&#45;&gt;Node5 -->
<g id="edge8" class="edge"><title>Node1&#45;&gt;Node5</title>
<path fill="none" stroke="midnightblue" d="M742.342,-70.3684C698.551,-61.1405 638.04,-48.1662 585,-36 582.165,-35.3497 579.27,-34.6782 576.348,-33.994"/>
<polygon fill="midnightblue" stroke="midnightblue" points="741.753,-73.821 752.26,-72.4544 743.194,-66.9709 741.753,-73.821"/>
</g>
<!-- Node6 -->
<g id="node11" class="node"><title>Node6</title>
<a xlink:href="_test_std_ext_8cc.html" target="_top" xlink:title="test/base/TestStdExt.cc">
<polygon fill="white" stroke="black" points="593.5,-7.5 593.5,-28.5 716.5,-28.5 716.5,-7.5 593.5,-7.5"/>
<text text-anchor="middle" x="655" y="-15.5" font-family="Helvetica,sans-Serif" font-size="10.00">test/base/TestStdExt.cc</text>
</a>
</g>
<!-- Node1&#45;&gt;Node6 -->
<g id="edge10" class="edge"><title>Node1&#45;&gt;Node6</title>
<path fill="none" stroke="midnightblue" d="M769.649,-68.3527C742.122,-56.2628 703.713,-39.3942 679.098,-28.5835"/>
<polygon fill="midnightblue" stroke="midnightblue" points="768.329,-71.5953 778.892,-72.412 771.143,-65.1862 768.329,-71.5953"/>
</g>
<!-- Node7 -->
<g id="node13" class="node"><title>Node7</title>
<a xlink:href="_test_wrap_t_file_8cc.html" target="_top" xlink:title="test/base/TestWrapTFile.cc">
<polygon fill="white" stroke="black" points="734,-7.5 734,-28.5 872,-28.5 872,-7.5 734,-7.5"/>
<text text-anchor="middle" x="803" y="-15.5" font-family="Helvetica,sans-Serif" font-size="10.00">test/base/TestWrapTFile.cc</text>
</a>
</g>
<!-- Node1&#45;&gt;Node7 -->
<g id="edge12" class="edge"><title>Node1&#45;&gt;Node7</title>
<path fill="none" stroke="midnightblue" d="M803,-62.0142C803,-50.8307 803,-37.5583 803,-28.5337"/>
<polygon fill="midnightblue" stroke="midnightblue" points="799.5,-62.2665 803,-72.2666 806.5,-62.2666 799.5,-62.2665"/>
</g>
<!-- Node8 -->
<g id="node15" class="node"><title>Node8</title>
<a xlink:href="_test_data_manager_8cc.html" target="_top" xlink:title="test/calibration/TestData\lManager.cc">
<polygon fill="white" stroke="black" points="890,-1 890,-35 1014,-35 1014,-1 890,-1"/>
<text text-anchor="start" x="898" y="-22" font-family="Helvetica,sans-Serif" font-size="10.00">test/calibration/TestData</text>
<text text-anchor="middle" x="952" y="-9" font-family="Helvetica,sans-Serif" font-size="10.00">Manager.cc</text>
</a>
</g>
<!-- Node1&#45;&gt;Node8 -->
<g id="edge14" class="edge"><title>Node1&#45;&gt;Node8</title>
<path fill="none" stroke="midnightblue" d="M836.49,-68.3904C859.142,-58.5084 889.143,-45.4209 912.892,-35.0604"/>
<polygon fill="midnightblue" stroke="midnightblue" points="835.037,-65.2054 827.271,-72.412 837.836,-71.6214 835.037,-65.2054"/>
</g>
<!-- Node9 -->
<g id="node17" class="node"><title>Node9</title>
<a xlink:href="_test_t_calibration_data_8cc.html" target="_top" xlink:title="test/tree/TestTCalibration\lData.cc">
<polygon fill="white" stroke="black" points="1032,-1 1032,-35 1160,-35 1160,-1 1032,-1"/>
<text text-anchor="start" x="1040" y="-22" font-family="Helvetica,sans-Serif" font-size="10.00">test/tree/TestTCalibration</text>
<text text-anchor="middle" x="1096" y="-9" font-family="Helvetica,sans-Serif" font-size="10.00">Data.cc</text>
</a>
</g>
<!-- Node1&#45;&gt;Node9 -->
<g id="edge16" class="edge"><title>Node1&#45;&gt;Node9</title>
<path fill="none" stroke="midnightblue" d="M864.67,-70.3631C908.836,-61.1819 969.68,-48.2662 1023,-36 1025.93,-35.3269 1028.92,-34.6295 1031.93,-33.9175"/>
<polygon fill="midnightblue" stroke="midnightblue" points="863.745,-66.9804 854.664,-72.4386 865.167,-73.8345 863.745,-66.9804"/>
</g>
<!-- Node10 -->
<g id="node19" class="node"><title>Node10</title>
<a xlink:href="_test_t_event_8cc.html" target="_top" xlink:title="test/tree/TestTEvent.cc">
<polygon fill="white" stroke="black" points="1178,-7.5 1178,-28.5 1298,-28.5 1298,-7.5 1178,-7.5"/>
<text text-anchor="middle" x="1238" y="-15.5" font-family="Helvetica,sans-Serif" font-size="10.00">test/tree/TestTEvent.cc</text>
</a>
</g>
<!-- Node1&#45;&gt;Node10 -->
<g id="edge18" class="edge"><title>Node1&#45;&gt;Node10</title>
<path fill="none" stroke="midnightblue" d="M864.949,-77.4756C938.046,-70.3973 1063.05,-56.5361 1169,-36 1179.45,-33.9741 1190.67,-31.278 1200.96,-28.5906"/>
<polygon fill="midnightblue" stroke="midnightblue" points="864.171,-74.034 854.549,-78.4707 864.837,-81.0022 864.171,-74.034"/>
</g>
<!-- Node11 -->
<g id="node21" class="node"><title>Node11</title>
<a xlink:href="_test_raw_file_reader_8cc.html" target="_top" xlink:title="test/unpacker/TestRawFile\lReader.cc">
<polygon fill="white" stroke="black" points="1316,-1 1316,-35 1450,-35 1450,-1 1316,-1"/>
<text text-anchor="start" x="1324" y="-22" font-family="Helvetica,sans-Serif" font-size="10.00">test/unpacker/TestRawFile</text>
<text text-anchor="middle" x="1383" y="-9" font-family="Helvetica,sans-Serif" font-size="10.00">Reader.cc</text>
</a>
</g>
<!-- Node1&#45;&gt;Node11 -->
<g id="edge20" class="edge"><title>Node1&#45;&gt;Node11</title>
<path fill="none" stroke="midnightblue" d="M864.87,-80.0166C960.283,-74.7897 1148.86,-61.9696 1307,-36 1309.94,-35.5166 1312.94,-34.9833 1315.97,-34.4123"/>
<polygon fill="midnightblue" stroke="midnightblue" points="864.615,-76.5252 854.817,-80.558 864.991,-83.5151 864.615,-76.5252"/>
</g>
<!-- Node12 -->
<g id="node23" class="node"><title>Node12</title>
<a xlink:href="_test_tree_writer_8cc.html" target="_top" xlink:title="test/unpacker/TestTreeWriter.cc">
<polygon fill="white" stroke="black" points="1468,-7.5 1468,-28.5 1626,-28.5 1626,-7.5 1468,-7.5"/>
<text text-anchor="middle" x="1547" y="-15.5" font-family="Helvetica,sans-Serif" font-size="10.00">test/unpacker/TestTreeWriter.cc</text>
</a>
</g>
<!-- Node1&#45;&gt;Node12 -->
<g id="edge22" class="edge"><title>Node1&#45;&gt;Node12</title>
<path fill="none" stroke="midnightblue" d="M864.857,-81.2529C981.526,-77.3637 1241.87,-65.856 1459,-36 1472.75,-34.1095 1487.57,-31.3579 1501.07,-28.5724"/>
<polygon fill="midnightblue" stroke="midnightblue" points="864.572,-77.7602 854.691,-81.5845 864.8,-84.7565 864.572,-77.7602"/>
</g>
</g>
</svg>
